<?xml version="1.0" encoding="UTF-8" standalone="no"?>
<!-- Generator: Adobe Illustrator 27.5.0, SVG Export Plug-In . SVG Version: 6.00 Build 0)  -->

<svg
   version="1.1"
   x="0px"
   y="0px"
   viewBox="0 0 449.04302 1475.7779"
   xml:space="preserve"
   id="svg1"
   sodipodi:docname="oldman2.svg"
   width="449.04303"
   height="1475.7778"
   inkscape:version="1.4.2 (f4327f4, 2025-05-13)"
   xmlns:inkscape="http://www.inkscape.org/namespaces/inkscape"
   xmlns:sodipodi="http://sodipodi.sourceforge.net/DTD/sodipodi-0.dtd"
   xmlns="http://www.w3.org/2000/svg"
   xmlns:svg="http://www.w3.org/2000/svg"><defs
   id="defs1" /><sodipodi:namedview
   id="namedview1"
   pagecolor="#ffffff"
   bordercolor="#000000"
   borderopacity="0.25"
   inkscape:showpageshadow="2"
   inkscape:pageopacity="0.0"
   inkscape:pagecheckerboard="0"
   inkscape:deskcolor="#d1d1d1"
   inkscape:zoom="0.689"
   inkscape:cx="577.64877"
   inkscape:cy="460.08708"
   inkscape:window-width="2880"
   inkscape:window-height="1676"
   inkscape:window-x="-12"
   inkscape:window-y="-12"
   inkscape:window-maximized="1"
   inkscape:current-layer="svg1" />

<g
   id="OBJECTS"
   transform="translate(410.03916,192.81277)">
	
	
	
	
</g>
<g
   id="g151"
   transform="translate(-1069.923,-430.98319)">
		<g
   id="g145">
			<g
   id="g144">
				<g
   id="g143">
					<path
   style="fill:#c77350"
   d="m 1499.422,1270.191 c 0,0 -9.867,8.09 -10.902,7.258 -1.027,-0.832 -3.063,-10.164 5.449,-14.906 0,0 0.539,-5.813 2,-14.992 l -5.438,-20.957 5.438,-1.691 15.234,18.363 z"
   id="path75" />
					<path
   style="fill:#df8a64"
   d="m 1495.441,1282.734 c 0,0 -5.656,2.91 -6.883,2.754 -1.223,-0.152 -5.965,-5.813 9.484,-17.895 0,0 1.379,-15.148 1.379,-20.961 0,0 -5.676,-10.559 -14.836,-24.785 -2.41,-3.738 5.047,-5.813 5.047,-5.813 l 18.203,32.433 -5.355,30.598 z"
   id="path76" />
					<path
   style="fill:#f4a27a"
   d="m 1479.684,1175.258 c 0,0 -2.449,15.258 -5.816,23.582 0,0 -4.277,9.855 -4.582,18.422 -0.309,8.563 -1.531,30.902 0,36.105 1.531,5.199 6.117,14.992 6.117,14.992 0,0 8.258,-3.367 5.813,-16.219 -2.445,-12.848 3.371,-20.746 7.047,-28.395 0,0 13.457,15.848 15.598,28.395 0,0 -1.535,14.074 -2.758,20.809 0,0 -17.133,13.34 -10.227,22.024 0,0 16.512,-12.34 23.219,-16.516 4.91,-3.063 4.871,-43.258 4.871,-47.539 0,-4.285 -8.684,-52.07 -9.598,-55.66 z"
   id="path77" />
					<path
   style="fill:#51828d"
   d="m 1411.148,728.875 c 0,0 30.285,8.313 43.754,26.672 13.461,18.355 24.18,124.059 29.191,149.77 5.008,25.711 8.367,30.742 6,58.938 0,0 9.707,13.555 9.191,22.863 -0.516,9.308 0.477,15.297 1.516,30.602 1.125,16.609 11.996,111.844 10.711,131.309 -1.023,15.441 -41.078,5.969 -41.078,5.969 0,0 -12.91,-70.293 -20.426,-106.023 -5.559,-26.41 -13.742,-62.516 -16.52,-76.184 -2.781,-13.68 -25.578,-89.34 -35.277,-89.043 z"
   id="path78" />
					<path
   style="opacity:0.6;fill:#3e6c74"
   d="m 1511.512,1149.027 c 0.039,-0.586 0.063,-1.25 0.082,-1.965 -6.953,0.164 -14.66,-12.301 -20.719,-14.559 -6.555,-2.449 -10.574,9.789 -17.305,11.625 -6.734,1.836 6.73,-23.254 7.953,-28.758 1.223,-5.508 -11.016,-14.688 -13.867,-21.418 -2.852,-6.734 -6.938,-22.641 -6.938,-25.707 0,-3.055 28.754,28.152 30.156,22.645 1.398,-5.504 -25.875,-29.984 -31.379,-41 -5.512,-11.012 -10.406,-26.313 -5.809,-28.145 4.602,-1.84 44.969,43.445 46.199,38.551 1.215,-4.898 -50.184,-51.406 -50.184,-51.406 0,0 11.625,-22.645 13.461,-28.148 1.836,-5.508 -24.477,-23.254 -27.535,-28.762 -3.066,-5.508 4.281,-35.492 7.34,-56.297 3.059,-20.809 -37.938,-66.703 -37.938,-66.703 -2.117,0.601 -1.488,7.934 -3.047,9.598 l -3.773,45.168 c 9.699,-0.297 32.496,75.363 35.277,89.043 2.777,13.668 10.961,49.773 16.52,76.184 7.516,35.73 20.426,106.023 20.426,106.023 0,0 40.056,9.473 41.08,-5.969 z"
   id="path79" />
					<path
   style="fill:#122129"
   d="m 1237.352,1818.965 c 0,0 1.93,45.504 -1.625,52.285 -3.555,6.777 -13.551,9.273 -21.629,10.891 0,0 -11.141,-2.672 -14.379,-2.602 -3.992,0.086 -4.23,2.203 -12.238,8.105 -19.277,14.227 -31.531,16.133 -39.926,18.395 -8.398,2.258 -25.973,-0.5 -29.375,-12.273 -1.547,-5.352 -3.215,-12.391 5.047,-21.262 10.227,-10.988 48.242,-36.492 55.992,-48.117 7.75,-11.625 8.711,-12.242 11.609,-13.531 2.914,-1.29 46.524,8.109 46.524,8.109 z"
   id="path80" />
					<path
   style="fill:#122129"
   d="m 1342.824,1818.965 c 0,0 -1.922,45.504 1.633,52.285 3.547,6.777 13.543,9.273 21.621,10.891 0,0 11.141,-2.672 14.383,-2.602 3.996,0.086 4.234,2.203 12.238,8.105 19.277,14.227 31.531,16.133 39.93,18.395 8.398,2.258 25.969,-0.5 29.375,-12.273 1.547,-5.352 3.211,-12.391 -5.051,-21.262 -10.23,-10.988 -48.238,-36.492 -55.996,-48.117 -7.746,-11.625 -8.703,-12.242 -11.609,-13.531 -2.906,-1.289 -46.524,8.109 -46.524,8.109 z"
   id="path81" />
					<g
   id="g116">
						<g
   id="g115">
							<path
   style="fill:#523932"
   d="m 1188.879,1821.828 c 0,0 15.176,16.625 53.254,4.883 l 43.137,-540.422 c 0.961,-0.027 14.438,-0.027 15.395,0 l 43.133,540.422 c 38.078,11.742 53.258,-4.883 53.258,-4.883 0,0 15.59,-483.102 13.898,-558.969 -1.164,-52.352 -5.313,-130.215 -5.313,-130.215 l -112.672,7.043 -108.855,-12.078 c 0,0 -7.969,82.898 -9.133,135.25 -0.918,41.129 3.238,201.902 7.242,340.527 0,0 2.047,117.508 -1.168,125.77 0,0 -3.672,4.133 -0.461,11.469 3.215,7.348 3.676,14.227 3.676,14.227 0,0 -8.043,9.18 -5.969,14.23 2.078,5.047 7.344,11.934 7.344,11.934 0,0 -7.801,4.59 -7.344,8.719 0.461,4.133 7.801,12.391 6.887,15.145 -0.918,2.753 -6.133,10.983 3.691,16.948 z"
   id="path82" />
							<path
   style="fill:#1d354c"
   d="m 1188.879,1821.828 c 0,0 15.176,16.625 53.254,4.883 l 43.137,-540.422 c 0.961,-0.027 14.438,-0.027 15.395,0 l 43.133,540.422 c 38.078,11.742 58.992,-7.746 58.992,-7.746 0,0 9.855,-480.238 8.164,-556.105 -1.164,-52.352 -5.313,-130.215 -5.313,-130.215 l -112.672,7.043 -108.855,-12.078 c 0,0 -7.969,82.898 -9.133,135.25 -0.918,41.129 3.238,201.902 7.242,340.527 0,0 2.047,117.508 -1.168,125.77 0,0 -3.672,4.133 -0.461,11.469 3.215,7.348 3.676,14.227 3.676,14.227 0,0 -8.043,9.18 -5.969,14.23 2.078,5.047 7.344,11.934 7.344,11.934 0,0 -7.801,4.59 -7.344,8.719 0.461,4.133 7.801,12.391 6.887,15.145 -0.918,2.752 -6.133,10.982 3.691,16.947 z"
   id="path83" />
							<path
   style="fill:#0b2639"
   d="m 1186.676,1764.953 c -8.145,-6.422 5.395,-15.605 12.145,-23.871 6.742,-8.258 -6.75,-62.414 -12.145,-78.941 -5.387,-16.516 4.473,-57.828 11.535,-67.922 7.055,-10.094 -9.809,-21.109 -11.535,-33.043 -1.719,-11.93 9.984,-28.457 12.145,-45.898 2.152,-17.441 -11.34,-55.074 -17.426,-62.422 -6.09,-7.34 6.086,-102.801 11.359,-111.984 5.262,-9.176 -4.352,-22.027 -6.078,-37.633 -1.719,-15.605 25.59,-55.074 29.258,-74.977 3.676,-19.902 -7.34,-43.805 -7.34,-43.805 l -28.422,-11.281 c -2.188,27.668 -4.594,62.727 -5.191,89.684 -0.918,41.129 3.238,201.902 7.242,340.527 0,0 2.047,117.508 -1.168,125.77 0,0 -3.672,4.133 -0.461,11.469 3.215,7.348 3.676,14.227 3.676,14.227 0,0 -8.043,9.18 -5.969,14.23 2.078,5.047 7.344,11.934 7.344,11.934 0,0 -7.801,4.59 -7.344,8.719 0.461,4.133 7.801,12.391 6.887,15.145 -0.625,1.867 -3.211,6.254 -1.754,10.746 10.715,0.293 20.023,5.195 27.918,2.57 11.008,-3.68 -26.164,-13.316 -18.598,-22.953 7.563,-9.637 25.023,7.34 27.77,0 2.757,-7.346 -25.696,-23.865 -33.848,-30.291 z"
   id="path84" />
							<path
   style="fill:#0b2639"
   d="m 1408.008,1181.48 c -0.297,-6.758 -0.594,-13.133 -0.871,-18.906 -35.465,5.734 -162.793,23.68 -225.922,-2.148 -0.543,6.516 -1.125,13.703 -1.703,21.293 25.824,8.926 114.781,33.73 228.496,-0.239 z"
   id="path85" />
							<path
   style="fill:#000814"
   d="m 1407.473,1169.707 c -1.012,-21.68 -1.832,-37.063 -1.832,-37.063 l -112.672,7.043 -108.855,-12.078 c 0,0 -1.738,18.105 -3.711,42.73 32.468,8.204 128.488,27.497 227.07,-0.632 z"
   id="path86" />
							<path
   style="fill:#e98e66"
   d="m 1416.746,737.941 c -1.008,-4.621 -2.063,-7.441 -3.023,-7.965 -6.734,-3.672 -82.613,-25.691 -82.613,-25.691 -4.281,-7.348 -4.563,-45.289 -4.563,-45.289 l -32.289,-12.066 v -0.176 l -0.238,0.086 -0.238,-0.086 v 0.176 l -32.289,12.066 c 0,0 -0.285,37.941 -4.57,45.289 0,0 -75.875,22.019 -82.609,25.691 -0.961,0.523 -1.953,3.344 -2.855,7.965 l 121.641,6.738 z"
   id="path87" />
							<path
   style="fill:#c66a42"
   d="m 1309.23,698.766 c 7.371,-1.43 13.91,-5.426 18.816,-9.285 -1.375,-13.453 -1.5,-30.484 -1.5,-30.484 l -32.289,-12.066 v -0.176 l -0.238,0.086 -0.238,-0.086 v 0.176 l -32.289,12.066 c 0,0 -0.063,8.281 -0.563,17.856 10.899,7.694 36.141,24.272 48.301,21.913 z"
   id="path88" />
							<g
   id="g111">
								<g
   id="g103">
									<g
   id="g102">
										<g
   id="g95">
											<path
   style="fill:#f4a27a"
   d="m 1222.73,566.57 c 0,0 -8.188,-14.375 -20.941,-14.574 -7.57,-0.117 -5.332,30.984 2.469,39.016 7.805,8.031 19.16,5.352 21.688,-1.762 z"
   id="path89" />
											<path
   style="opacity:0.4;fill:#cf6244"
   d="m 1220.98,588.234 c 0,0 -9.512,3.348 -13.625,-4.59 -4.102,-7.934 -8.098,-17.473 -4.918,-24.473 0,0 8.785,2.047 16.902,18.438 10e-4,0 -5.948,7.383 1.641,10.625 z"
   id="path90" />
											<g
   id="g92">
												<g
   id="g91">
													<path
   style="fill:#91554a"
   d="m 1201.148,569.144 c -0.27,-3 -0.582,-6 0.195,-9.109 0.125,-0.391 0.301,-0.797 0.637,-1.203 0.375,-0.453 1.324,-0.516 1.668,-0.25 0.691,0.27 1.371,0.609 2.055,1.059 1.414,0.816 2.52,1.785 3.719,2.758 2.309,1.992 4.492,4.148 6.313,6.613 0.988,1.164 1.688,2.559 2.539,3.828 0.438,0.629 0.688,1.375 1.039,2.055 l 0.973,2.09 0.176,0.379 -0.297,0.352 c -1.41,1.676 -2.656,3.848 -2.559,6.035 0.051,1.082 0.516,2.156 1.363,2.938 0.801,0.836 1.867,1.379 2.945,1.91 -1.145,-0.332 -2.32,-0.734 -3.281,-1.539 -0.996,-0.723 -1.781,-1.906 -1.922,-3.211 -0.285,-2.641 0.898,-5.016 2.355,-7.059 l -0.117,0.727 -0.977,-1.965 c -0.352,-0.641 -0.59,-1.336 -1.031,-1.93 -0.855,-1.195 -1.531,-2.504 -2.523,-3.605 -1.816,-2.301 -3.781,-4.516 -5.992,-6.469 -1.09,-0.957 -2.277,-1.941 -3.41,-2.719 -0.535,-0.438 -1.164,-0.82 -1.852,-1.148 -0.313,-0.18 -0.207,-0.074 -0.398,-0.051 -0.16,0.176 -0.316,0.434 -0.449,0.754 -0.461,1.301 -0.648,2.813 -0.836,4.277 -0.168,1.483 -0.251,2.98 -0.333,4.483 z"
   id="path91" />
												</g>
											</g>
											<g
   id="g94">
												<g
   id="g93">
													<path
   style="fill:#91554a"
   d="m 1203.891,570.566 c 0,0 0.063,-0.809 0.813,-1.809 0.441,-0.383 0.906,-1.035 1.648,-1.289 0.703,-0.391 1.504,-0.535 2.324,-0.652 0.828,-0.148 1.598,0.156 2.332,0.219 0.758,0.058 1.348,0.461 1.867,0.695 1.039,0.543 1.641,1.016 1.641,1.016 0,0 -0.813,0.031 -1.898,-0.098 -0.535,-0.09 -1.16,-0.168 -1.813,-0.156 -0.645,0.02 -1.355,-0.191 -1.988,0.016 -0.664,0.023 -1.336,0.063 -1.891,0.316 -0.613,0.129 -1.109,0.418 -1.59,0.641 -0.871,0.539 -1.445,1.101 -1.445,1.101 z"
   id="path92" />
												</g>
											</g>
										</g>
										<g
   id="g101">
											<path
   style="fill:#f4a27a"
   d="m 1372.605,563.172 c 0,0 8.188,-14.371 20.941,-14.57 7.57,-0.121 5.336,30.98 -2.469,39.008 -7.805,8.035 -19.164,5.359 -21.688,-1.758 z"
   id="path95" />
											<path
   style="opacity:0.4;fill:#cf6244"
   d="m 1374.352,584.84 c 0,0 9.523,3.348 13.625,-4.594 4.109,-7.93 8.098,-17.469 4.918,-24.473 0,0 -8.781,2.047 -16.898,18.434 -10e-4,0 5.944,7.387 -1.645,10.633 z"
   id="path96" />
											<g
   id="g98">
												<g
   id="g97">
													<path
   style="fill:#91554a"
   d="m 1394.191,565.746 c -0.09,-1.504 -0.172,-3 -0.336,-4.48 -0.191,-1.469 -0.371,-2.98 -0.84,-4.281 -0.133,-0.32 -0.289,-0.578 -0.449,-0.754 -0.188,-0.02 -0.086,-0.125 -0.395,0.055 -0.691,0.328 -1.313,0.715 -1.855,1.148 -1.125,0.781 -2.32,1.762 -3.41,2.719 -2.207,1.953 -4.176,4.168 -5.992,6.473 -0.988,1.098 -1.668,2.406 -2.52,3.602 -0.441,0.594 -0.684,1.289 -1.031,1.93 l -0.977,1.965 -0.121,-0.727 c 1.457,2.039 2.641,4.418 2.363,7.055 -0.148,1.305 -0.93,2.492 -1.93,3.215 -0.961,0.801 -2.133,1.203 -3.273,1.535 1.07,-0.531 2.145,-1.074 2.941,-1.91 0.848,-0.781 1.313,-1.852 1.363,-2.934 0.098,-2.191 -1.152,-4.359 -2.563,-6.035 l -0.297,-0.352 0.18,-0.375 0.977,-2.09 c 0.344,-0.684 0.594,-1.43 1.031,-2.059 0.855,-1.27 1.551,-2.664 2.539,-3.828 1.824,-2.465 4.004,-4.625 6.316,-6.613 1.203,-0.969 2.309,-1.941 3.715,-2.758 0.684,-0.449 1.363,-0.793 2.059,-1.059 0.34,-0.266 1.289,-0.207 1.668,0.246 0.332,0.402 0.512,0.813 0.641,1.203 0.771,3.109 0.458,6.109 0.196,9.109 z"
   id="path97" />
												</g>
											</g>
											<g
   id="g100">
												<g
   id="g99">
													<path
   style="fill:#91554a"
   d="m 1391.441,567.172 c 0,0 -0.57,-0.563 -1.441,-1.105 -0.477,-0.219 -0.973,-0.512 -1.59,-0.641 -0.555,-0.254 -1.227,-0.293 -1.891,-0.316 -0.633,-0.207 -1.344,0.004 -1.984,-0.016 -0.656,-0.016 -1.281,0.067 -1.813,0.156 -1.09,0.129 -1.902,0.098 -1.902,0.098 0,0 0.602,-0.477 1.637,-1.016 0.527,-0.234 1.117,-0.641 1.871,-0.695 0.742,-0.063 1.5,-0.367 2.336,-0.219 0.816,0.117 1.621,0.262 2.324,0.652 0.742,0.254 1.203,0.906 1.645,1.289 0.75,1.004 0.808,1.813 0.808,1.813 z"
   id="path98" />
												</g>
											</g>
										</g>
										<path
   style="fill:#f4a27a"
   d="m 1305.246,679.773 c 0,0 38.555,-18.516 51.832,-39.32 10.914,-14.594 19.898,-89.016 21.152,-100.566 0.043,-0.387 0.086,-0.77 0.125,-1.152 0.039,-0.363 0.059,-0.563 0.059,-0.563 l -0.016,0.008 c 0.211,-2.391 0.336,-4.801 0.336,-7.246 0,-44.559 -36.121,-80.68 -80.676,-80.68 -44.559,0 -80.688,36.121 -80.688,80.68 0,2.898 0.168,5.762 0.465,8.578 h -0.01 c 0,0 9.25,84.957 21.203,100.941 14.055,23.852 51.836,39.32 51.836,39.32 0,0 6.822,2.496 14.38,0 z"
   id="path101" />
										<path
   style="fill:#5f221b"
   d="m 1307.957,598.84 c 0,0 0,14.227 -2.906,15.754 -2.906,1.531 0.156,-8.262 2.906,-15.754 z"
   id="path102" />
									</g>
									<path
   style="fill:#8e191b"
   d="m 1325.168,626.957 c 0,0 -6.281,20.414 -26.414,20.414 -10.328,0 -24.168,-6.426 -24.762,-20.414 0,0 44.067,0.918 51.176,0 z"
   id="path103" />
								</g>
								<g
   id="g104">
									<path
   style="fill:#85453e"
   d="m 1246.605,591.344 c 0,0 0.273,-0.465 0.766,-1.082 0.52,-0.586 1.215,-1.367 1.914,-2.148 0.805,-0.668 1.605,-1.34 2.211,-1.844 0.633,-0.469 1.109,-0.726 1.109,-0.726 0,0 -0.27,0.465 -0.77,1.082 -0.52,0.586 -1.219,1.367 -1.914,2.148 -0.805,0.668 -1.605,1.34 -2.211,1.844 -0.632,0.468 -1.105,0.726 -1.105,0.726 z"
   id="path104" />
								</g>
								<g
   id="g105">
									<path
   style="fill:#85453e"
   d="m 1253.926,586.754 c 0,0 -0.246,0.738 -0.719,1.789 -0.508,1.027 -1.191,2.398 -1.867,3.769 -0.816,1.297 -1.633,2.594 -2.234,3.566 -0.648,0.949 -1.156,1.547 -1.156,1.547 0,0 0.25,-0.738 0.723,-1.789 0.504,-1.027 1.188,-2.398 1.871,-3.77 0.813,-1.297 1.625,-2.594 2.234,-3.566 0.652,-0.948 1.148,-1.546 1.148,-1.546 z"
   id="path105" />
								</g>
								<g
   id="g106">
									<path
   style="fill:#85453e"
   d="m 1257.508,588.441 c 0,0 -0.098,0.457 -0.344,1.082 -0.285,0.602 -0.668,1.402 -1.051,2.207 -0.516,0.726 -1.027,1.453 -1.418,1.996 -0.418,0.519 -0.77,0.832 -0.77,0.832 0,0 0.098,-0.457 0.348,-1.082 0.289,-0.602 0.672,-1.402 1.047,-2.207 0.516,-0.726 1.031,-1.453 1.418,-1.996 0.426,-0.519 0.77,-0.832 0.77,-0.832 z"
   id="path106" />
								</g>
								<g
   id="g107">
									<path
   style="fill:#85453e"
   d="m 1349.305,595.019 c 0,0 -0.48,-0.262 -1.113,-0.734 -0.598,-0.5 -1.402,-1.172 -2.211,-1.84 -0.695,-0.781 -1.395,-1.563 -1.914,-2.148 -0.496,-0.617 -0.77,-1.086 -0.77,-1.086 0,0 0.477,0.262 1.109,0.731 0.605,0.504 1.41,1.172 2.211,1.844 0.699,0.781 1.395,1.563 1.918,2.148 0.496,0.617 0.77,1.085 0.77,1.085 z"
   id="path107" />
								</g>
								<g
   id="g108">
									<path
   style="fill:#85453e"
   d="m 1341.977,590.43 c 0,0 0.5,0.594 1.148,1.547 0.609,0.969 1.422,2.266 2.238,3.559 0.68,1.371 1.363,2.742 1.871,3.769 0.473,1.051 0.719,1.789 0.719,1.789 0,0 -0.5,-0.594 -1.148,-1.547 -0.613,-0.969 -1.43,-2.266 -2.242,-3.563 -0.676,-1.371 -1.355,-2.738 -1.871,-3.77 -0.469,-1.046 -0.715,-1.784 -0.715,-1.784 z"
   id="path108" />
								</g>
								<g
   id="g109">
									<path
   style="fill:#85453e"
   d="m 1338.391,592.113 c 0,0 0.352,0.309 0.773,0.832 0.387,0.543 0.902,1.269 1.414,1.996 0.379,0.801 0.766,1.605 1.051,2.207 0.25,0.625 0.348,1.078 0.348,1.078 0,0 -0.352,-0.309 -0.777,-0.828 -0.383,-0.543 -0.898,-1.269 -1.41,-1.996 -0.383,-0.805 -0.762,-1.605 -1.047,-2.211 -0.251,-0.621 -0.352,-1.078 -0.352,-1.078 z"
   id="path109" />
								</g>
								<path
   style="fill:#ffffff"
   d="m 1279.512,537.953 c 0,0 -15.305,-16.781 -36.645,-11.531 0,0 -6.98,6.633 -7.355,9.996 0,0 16.765,-3.672 44,1.535 z"
   id="path110" />
								<path
   style="fill:#ffffff"
   d="m 1318.184,537.953 c 0,0 18.613,-15.594 32.996,-11.887 0,0 8.566,2.855 11.004,10.352 0,0 -16.77,-3.672 -44,1.535 z"
   id="path111" />
							</g>
							<path
   style="fill:#51828d"
   d="m 1172.617,728.394 c 0,0 -20.652,93.231 12.391,184.102 0,0 2.781,79.871 2.168,102.516 -0.57,21.055 -20.934,129.117 -3.625,136.891 0,0 115.02,32.93 219.055,2.023 0,0 19.91,4.414 8.477,-74.664 -4.012,-27.746 -7.094,-96.82 -13.117,-141.059 0,0 21.137,-69.867 23.863,-107.398 2.91,-39.93 -4.383,-100.019 -4.383,-100.019 l -87.379,-29.129 c 0,0 -30.492,40.578 -36.832,40.457 -5.125,-0.094 -22.781,-27.875 -35.27,-40.457 z"
   id="path112" />
							<path
   style="opacity:0.6;fill:#3e6c74"
   d="m 1301.305,1156.027 c -43.758,0.273 -86.594,-14.344 -103.523,-26.902 -16.929,-12.558 0,-38.848 0,-38.848 21.621,9.793 84.242,31.211 87.918,25.707 3.672,-5.512 -8.258,-10.406 -8.258,-10.406 -25.398,-9.18 -73.133,-43.445 -78.621,-48.957 -5.496,-5.504 -7.973,-22.027 -1.039,-25.09 6.934,-3.059 38.961,38.559 51.199,30.602 12.242,-7.957 -44.672,-50.18 -50.16,-64.258 -5.496,-14.07 30.582,-100.969 36.762,-116.883 5.27,-13.543 -52.113,-70.523 -69.313,-87.188 -0.383,33.668 3.371,76.434 18.738,118.691 0,0 2.781,79.871 2.168,102.516 -0.57,21.055 -20.934,129.117 -3.625,136.891 0,0 112.879,32.309 216.137,2.863 -13.708,-4.253 -63.79,1.051 -98.383,1.262 z"
   id="path113" />
							<path
   style="fill:#2b4f57"
   d="m 1407.445,1042.758 c -0.945,-11.68 -1.902,-24.598 -2.941,-37.773 -105.23,19.918 -184.902,7.512 -217.242,0.355 0.012,3.82 -0.02,7.117 -0.086,9.672 -0.141,5.199 -1.492,15.723 -3.184,28.727 95.762,18.343 185.746,5.999 223.453,-0.981 z"
   id="path114" />
							<path
   style="fill:#2b4f57"
   d="m 1180.73,1069.551 c -2.082,17.457 -3.91,35.941 -4.117,51.016 97.844,22.32 203.656,7.953 237.992,2.18 0.145,-10.559 -0.801,-24.645 -3.523,-43.484 -0.414,-2.848 -0.813,-6.148 -1.215,-9.801 -94.051,20.542 -189.402,7.425 -229.137,0.089 z"
   id="path115" />
						</g>
					</g>
					<g
   id="g128">
						<g
   id="g122">
							<g
   id="g121">
								<path
   style="fill:#ffffff"
   d="m 1281.125,569.203 c 0,0 -3.602,-11.559 -11.621,-18.055 -11.453,-9.289 -32.234,-5.672 -31.145,11.738 0,0 0.797,16.047 15.32,18.148 11.747,1.697 23.083,-3.511 27.446,-11.831 z"
   id="path116" />
								<path
   style="fill:#ffffff"
   d="m 1281.125,569.203 c 0,0 -3.602,-11.559 -11.621,-18.055 -11.453,-9.289 -32.234,-5.672 -31.145,11.738 0,0 0.797,16.047 15.32,18.148 11.747,1.697 23.083,-3.511 27.446,-11.831 z"
   id="path117" />
								<path
   style="fill:#042844"
   d="m 1269.504,551.148 c -5.43,-4.402 -12.945,-5.898 -19.242,-4.414 -3.609,4.059 -5.953,10.504 -5.953,17.781 0,5.641 1.41,10.773 3.719,14.691 1.609,0.852 3.453,1.512 5.652,1.828 6.047,0.875 11.977,-0.09 16.914,-2.363 2.121,-3.848 3.398,-8.777 3.398,-14.156 0,-4.008 -0.723,-7.758 -1.961,-11.004 -0.789,-0.831 -1.625,-1.632 -2.527,-2.363 z"
   id="path118" />
								<g
   id="g120">
									<g
   id="g119">
										<path
   style="fill:#231114"
   d="m 1281.125,569.203 c 0,0 -1.629,-3.73 -4.953,-8.637 -0.859,-1.191 -1.785,-2.5 -2.867,-3.762 -1.094,-1.269 -2.281,-2.543 -3.66,-3.676 -0.691,-0.668 -1.266,-1.121 -2.129,-1.645 -0.813,-0.594 -1.617,-1.012 -2.398,-1.387 -1.547,-0.828 -3.41,-1.434 -5.219,-1.836 -1.824,-0.441 -3.699,-0.586 -5.547,-0.59 -1.832,0.133 -3.645,0.297 -5.301,0.84 -1.648,0.531 -3.227,1.188 -4.496,2.137 -0.672,0.434 -1.273,0.918 -1.773,1.481 -0.563,0.504 -1.07,1.035 -1.43,1.641 -0.902,1.102 -1.34,2.348 -1.891,3.399 -0.285,1.137 -0.648,2.137 -0.77,2.988 -0.207,1.738 -0.332,2.731 -0.332,2.731 0,0 -0.098,-1.008 -0.262,-2.777 -0.027,-0.895 0.156,-1.973 0.262,-3.246 0.367,-1.203 0.629,-2.672 1.504,-4.035 0.34,-0.738 0.82,-1.414 1.395,-2.078 0.512,-0.723 1.168,-1.336 1.902,-1.914 1.387,-1.238 3.137,-2.191 5.031,-2.887 1.891,-0.703 3.949,-1.094 6.047,-1.238 2.105,-0.039 4.246,0.086 6.328,0.555 2.086,0.512 4.07,1.184 5.984,2.242 0.992,0.504 1.887,1.051 2.613,1.652 0.773,0.519 1.664,1.281 2.289,1.969 1.48,1.324 2.621,2.836 3.656,4.281 1.051,1.438 1.844,2.918 2.578,4.262 1.379,2.742 2.219,5.152 2.742,6.84 0.525,1.694 0.697,2.69 0.697,2.69 z"
   id="path119" />
									</g>
								</g>
							</g>
						</g>
						<g
   id="g127">
							<g
   id="g126">
								<path
   style="fill:#ffffff"
   d="m 1314.988,569.203 c 0,0 3.605,-11.559 11.617,-18.055 11.457,-9.289 32.238,-5.672 31.145,11.738 0,0 -0.793,16.047 -15.313,18.148 -11.749,1.697 -23.093,-3.511 -27.449,-11.831 z"
   id="path122" />
								<path
   style="fill:#042844"
   d="m 1326.605,551.148 c -3.141,2.547 -5.594,5.863 -7.43,8.965 -0.156,1.301 -0.25,2.625 -0.25,3.988 0,4.496 0.902,8.676 2.426,12.172 5.531,3.922 13.215,5.898 21.086,4.762 0.391,-0.055 0.73,-0.16 1.105,-0.234 3.102,-4.082 5.063,-10.035 5.063,-16.699 0,-7.328 -2.375,-13.809 -6.027,-17.859 -5.5,-0.403 -11.457,1.245 -15.973,4.905 z"
   id="path123" />
								<g
   id="g125">
									<g
   id="g124">
										<path
   style="fill:#231114"
   d="m 1314.988,569.203 c 0,0 0.168,-0.996 0.699,-2.691 0.52,-1.688 1.359,-4.098 2.742,-6.84 0.73,-1.34 1.52,-2.824 2.57,-4.258 1.039,-1.449 2.18,-2.961 3.664,-4.285 0.621,-0.691 1.512,-1.449 2.289,-1.969 0.719,-0.602 1.621,-1.152 2.609,-1.652 1.91,-1.059 3.898,-1.731 5.98,-2.242 2.082,-0.469 4.227,-0.594 6.332,-0.555 2.098,0.145 4.152,0.535 6.051,1.238 1.891,0.695 3.645,1.648 5.027,2.887 0.73,0.578 1.387,1.191 1.898,1.914 0.57,0.664 1.063,1.34 1.395,2.078 0.875,1.363 1.141,2.832 1.5,4.035 0.109,1.273 0.293,2.352 0.262,3.246 -0.164,1.77 -0.258,2.777 -0.258,2.777 0,0 -0.121,-0.992 -0.336,-2.731 -0.117,-0.852 -0.48,-1.852 -0.77,-2.988 -0.543,-1.051 -0.984,-2.297 -1.883,-3.399 -0.367,-0.605 -0.863,-1.137 -1.43,-1.641 -0.5,-0.563 -1.102,-1.047 -1.777,-1.481 -1.266,-0.949 -2.848,-1.605 -4.492,-2.137 -1.66,-0.543 -3.473,-0.707 -5.305,-0.84 -1.848,0.004 -3.723,0.148 -5.551,0.59 -1.809,0.402 -3.66,1.008 -5.215,1.836 -0.777,0.375 -1.582,0.789 -2.395,1.387 -0.863,0.523 -1.438,0.977 -2.129,1.645 -1.379,1.133 -2.57,2.406 -3.66,3.676 -1.082,1.262 -2.008,2.57 -2.871,3.762 -3.313,4.908 -4.946,8.638 -4.946,8.638 z"
   id="path124" />
									</g>
								</g>
							</g>
						</g>
					</g>
					<path
   style="fill:#ffffff"
   d="m 1255.672,558.926 c 0.199,1.633 -2.563,3.316 -6.172,3.754 -3.605,0.441 -6.695,-0.523 -6.895,-2.16 -0.199,-1.637 2.566,-3.32 6.168,-3.762 3.614,-0.438 6.7,0.531 6.899,2.168 z"
   id="path128" />
					<path
   style="fill:#ffffff"
   d="m 1354.375,560.418 c -0.359,1.609 -3.527,2.269 -7.074,1.473 -3.547,-0.797 -6.129,-2.742 -5.773,-4.352 0.359,-1.609 3.531,-2.266 7.078,-1.473 3.546,0.797 6.128,2.747 5.769,4.352 z"
   id="path129" />
					<path
   style="fill:#ffffff"
   d="M 1181.395,1172.316"
   id="path130" />
					<path
   style="fill:#385571"
   d="m 1188.859,1151.66 c 0,0 -3.215,21.976 -1.84,23.586 1.383,1.606 7.117,3.441 8.727,2.52 1.602,-0.914 2.977,-23.34 2.977,-23.34 0,0 0.578,-2.766 -1.145,-3.449 -3.055,-1.223 -8.277,-2.934 -8.719,0.683 z"
   id="path131" />
					<path
   style="fill:#385571"
   d="m 1231.691,1160.227 c 0,0 -3.211,21.973 -1.832,23.586 1.379,1.602 7.113,3.441 8.715,2.52 1.613,-0.918 2.988,-23.348 2.988,-23.348 0,0 0.57,-2.758 -1.145,-3.445 -3.054,-1.22 -8.284,-2.935 -8.726,0.687 z"
   id="path132" />
					<path
   style="fill:#385571"
   d="m 1390.934,1154.609 c 0,0 3.211,21.973 1.832,23.578 -1.371,1.609 -7.105,3.449 -8.719,2.531 -1.605,-0.922 -2.98,-23.355 -2.98,-23.355 0,0 -0.578,-2.754 1.148,-3.441 3.055,-1.223 8.277,-2.926 8.719,0.687 z"
   id="path133" />
					<path
   style="fill:#385571"
   d="m 1348.094,1163.176 c 0,0 3.219,21.973 1.84,23.574 -1.379,1.613 -7.113,3.445 -8.723,2.531 -1.609,-0.918 -2.98,-23.355 -2.98,-23.355 0,0 -0.578,-2.75 1.148,-3.438 3.055,-1.226 8.277,-2.933 8.715,0.688 z"
   id="path134" />
					<path
   style="fill:#91afb8"
   d="m 1314.379,1185.98 c 0,1.02 -0.816,1.844 -1.832,1.844 h -43.371 c -1.012,0 -1.836,-0.824 -1.836,-1.844 v -21.453 c 0,-1.008 0.824,-1.832 1.836,-1.832 h 43.371 c 1.016,0 1.832,0.824 1.832,1.832 z"
   id="path135" />
					<path
   style="fill:#74969d"
   d="m 1267.34,1178.863 v 7.117 c 0,1.02 0.824,1.844 1.836,1.844 h 43.371 c 1.016,0 1.832,-0.824 1.832,-1.844 v -7.117 z"
   id="path136" />
					<path
   style="fill:#d5e5e9"
   d="m 1314.379,1165.547 v -1.02 c 0,-1.008 -0.816,-1.832 -1.832,-1.832 h -43.371 c -1.012,0 -1.836,0.824 -1.836,1.832 v 1.02 z"
   id="path137" />
					<path
   style="fill:#0b2639"
   d="m 1355.461,1799.832 c -8.258,-6.426 -5.508,-12.848 2.754,-39.469 8.258,-26.621 4.594,-51.406 0,-57.832 -4.59,-6.422 -30.547,-77.926 -20.074,-79.859 10.465,-1.93 38.438,48.652 48.902,43.148 10.469,-5.512 -62.238,-77.082 -48.902,-80.781 13.332,-3.703 35.68,44.98 42.832,38.555 7.156,-6.426 -41.117,-60.582 -46.621,-76.188 -5.512,-15.605 13.77,-11.934 15.926,-22.031 2.152,-10.098 -14.094,-44.063 -22.676,-68.848 -8.582,-24.777 27.859,-58.742 26.938,-88.117 -0.914,-29.371 -53.875,-82.121 -53.875,-82.121 l 39.883,540.621 c 24.77,7.645 43.094,3.07 50.613,-0.906 0.785,-2.145 1.172,-4.484 1.02,-7.039 -0.521,-8.742 -28.462,-12.707 -36.72,-19.133 z"
   id="path138" />
					<polygon
   style="fill:#2b4f57"
   points="1475.484,1179.633 1469.684,1150.93 1511.512,1149.027 1511.613,1176.336 "
   id="polygon138" />
					<path
   style="fill:#c77350"
   d="m 1089.465,1268.09 c 0,0 9.867,8.098 10.902,7.262 1.027,-0.836 3.063,-10.164 -5.449,-14.91 0,0 -0.539,-5.809 -2,-14.992 l 5.438,-20.953 -5.438,-1.688 -15.23,18.359 z"
   id="path139" />
					<path
   style="fill:#df8a64"
   d="m 1093.445,1280.641 c 0,0 5.656,2.902 6.883,2.75 1.223,-0.148 5.969,-5.813 -9.484,-17.898 0,0 -1.379,-15.144 -1.379,-20.957 0,0 5.676,-10.559 14.84,-24.785 2.406,-3.738 -5.047,-5.813 -5.047,-5.813 l -18.207,32.434 5.355,30.598 z"
   id="path140" />
					<path
   style="fill:#f4a27a"
   d="m 1109.207,1173.156 c 0,0 2.441,15.266 5.813,23.586 0,0 4.277,9.852 4.582,18.422 0.309,8.566 1.535,30.898 0,36.098 -1.523,5.203 -6.113,15 -6.113,15 0,0 -8.262,-3.371 -5.816,-16.219 2.449,-12.855 -3.371,-20.746 -7.047,-28.398 0,0 -13.453,15.855 -15.594,28.398 0,0 1.523,14.07 2.758,20.805 0,0 17.129,13.336 10.227,22.027 0,0 -16.516,-12.336 -23.223,-16.523 -4.91,-3.059 -4.871,-43.254 -4.871,-47.531 0,-4.285 8.684,-52.07 9.598,-55.664 h 29.686 z"
   id="path141" />
					<path
   style="fill:#51828d"
   d="m 1177.742,726.777 c 0,0 -30.289,8.313 -43.75,26.668 -13.469,18.359 -24.188,124.066 -29.195,149.773 -5.02,25.711 -8.371,30.738 -6.004,58.938 0,0 -9.707,13.555 -9.191,22.859 0.52,9.313 -0.477,15.297 -1.516,30.605 -1.125,16.609 -11.996,111.848 -10.703,131.305 1.023,15.449 41.074,5.965 41.074,5.965 0,0 12.914,-70.285 20.426,-106.016 5.555,-26.418 13.738,-62.512 16.52,-76.191 2.785,-13.672 25.574,-89.332 35.281,-89.035 z"
   id="path142" />
					<path
   style="opacity:0.6;fill:#3e6c74"
   d="m 1077.383,1146.926 c -0.039,-0.586 -0.063,-1.246 -0.09,-1.965 6.953,0.168 14.668,-12.297 20.723,-14.555 6.551,-2.445 10.57,9.793 17.305,11.629 6.734,1.832 -6.734,-23.254 -7.957,-28.766 -1.215,-5.512 11.016,-14.684 13.867,-21.418 2.851,-6.734 6.938,-22.641 6.938,-25.703 0,-3.059 -28.754,28.152 -30.152,22.645 -1.402,-5.508 25.871,-29.984 31.379,-41 5.508,-11.016 10.402,-26.312 5.805,-28.148 -4.598,-1.836 -44.969,43.445 -46.191,38.551 -1.219,-4.895 50.18,-51.402 50.18,-51.402 0,0 -11.629,-22.641 -13.461,-28.152 -1.84,-5.508 24.473,-23.254 27.539,-28.758 3.059,-5.508 -4.289,-35.496 -7.348,-56.301 -3.059,-20.805 38.973,-81.238 38.973,-81.238 2.113,0.602 1.402,20.969 2.016,24.137 l 3.777,45.168 c -9.707,-0.297 -32.496,75.363 -35.281,89.035 -2.781,13.68 -10.965,49.773 -16.52,76.191 -7.512,35.73 -20.426,106.016 -20.426,106.016 0,0 -40.053,9.483 -41.076,-5.966 z"
   id="path143" />
					<polygon
   style="fill:#2b4f57"
   points="1113.402,1177.539 1119.203,1148.832 1077.383,1146.926 1077.273,1174.234 "
   id="polygon143" />
				</g>
				<path
   style="fill:#f3747b"
   d="m 1312.508,643.5 c -10.727,-9.84 -25.348,-3.984 -28.934,-0.551 4.684,2.977 10.313,4.422 15.18,4.422 5.605,0 10.137,-1.586 13.754,-3.871 z"
   id="path144" />
			</g>
		</g>
		<path
   style="fill:#d6dbd9"
   d="m 1221.914,565.273 c 0,0 5.934,-3.348 6.352,-15.039 0.418,-11.688 3.289,-60.09 16.043,-63.844 12.75,-3.758 69.836,17.523 113.488,-4.176 0,0 6.082,3.754 9.008,17.527 2.918,13.77 0.559,68.805 13.82,55.988 0,0 13.816,-51.816 0,-78.106 0,0 3.133,-2.922 5.512,-10.852 0,0 -15.156,-6.676 -21.004,-12.102 -5.836,-5.422 -53.516,-36.723 -105.414,-17.523 0,0 -34.008,11.684 -33.773,27.125 0,0 -13.801,4.59 -16.738,15.023 -2.945,10.426 -5.293,51.258 0,74.449 z"
   id="path145" />
		<path
   style="opacity:0.6;fill:#99a5a3"
   d="m 1221.914,565.273 c 0,0 5.934,-3.348 6.352,-15.039 0.418,-11.688 3.289,-60.09 16.043,-63.844 12.75,-3.758 69.836,17.523 113.488,-4.176 0,0 6.082,3.754 9.008,17.527 2.918,13.77 0.559,69.461 13.82,55.988 0,0 3.578,-13.418 5.27,-30.063 -8.375,0.41 -19.469,-31.758 -15.469,-34.168 5.008,-3.02 10.199,-13.875 10.199,-13.875 0,0 3.133,-2.922 5.512,-10.852 0,0 -0.293,-0.125 -0.789,-0.352 -6.113,2.441 -11.922,2.441 -11.922,2.441 -34.277,-23.367 -69.547,-20.867 -69.547,-20.867 35.547,4.176 63.758,23.371 63.758,23.371 -32.547,16.973 -57.859,-1.113 -74.551,-7.793 -16.695,-6.672 -37.555,3.898 -47.852,5.844 -6.191,1.172 -13.379,-5.109 -18.117,-10.297 -0.77,1.656 -1.199,3.379 -1.172,5.152 0,0 -1.324,0.438 -3.238,1.355 6.922,3.863 15.152,10.211 12.805,14.918 -3.602,7.23 -5.805,49.437 -16.07,54.246 -6.117,2.867 -10.469,-16.367 -12.984,-32.371 -0.859,16.383 -0.484,37.145 2.75,51.324 z"
   id="path146" />
		<path
   style="fill:#d6dbd9"
   d="m 1346.438,628.68 c -0.836,-1.098 -19.945,-4.633 -27.898,-9.387 -8.813,-5.27 -18.961,-1.461 -18.961,-1.461 0,0 -10.148,-3.809 -18.965,1.461 -7.949,4.754 -27.063,8.289 -27.895,9.387 -0.836,1.102 43.309,5.637 46.859,-2.5 3.547,8.136 47.699,3.601 46.86,2.5 z"
   id="path147" />
		<path
   style="opacity:0.6;fill:#99a5a3"
   d="m 1346.438,628.68 c -0.234,-0.309 -1.941,-0.82 -4.453,-1.496 -0.828,3.418 -18.82,0.981 -26.996,-0.227 -6.82,-1.004 -11.598,-6.836 -13.555,-9.672 -1.168,0.289 -1.855,0.547 -1.855,0.547 0,0 -0.559,-0.211 -1.52,-0.457 v 0 c -1.523,5.422 -5.254,8.383 -8.453,8.945 -3.492,0.605 -26.98,2.641 -28.676,2.219 -0.566,-0.137 0.215,-1.289 1.5,-2.758 -5.172,1.398 -9.332,2.402 -9.711,2.898 -0.836,1.102 43.309,5.637 46.859,-2.5 3.547,8.137 47.699,3.602 46.86,2.501 z"
   id="path148" />
		<path
   style="fill:#000718"
   d="m 1375.754,551.586 c -2.008,-0.504 -9.672,-2.012 -9.672,-2.012 v 0.008 c -11.395,-11.789 -47.02,-5.141 -53.742,0.117 -0.469,0.367 -0.891,0.711 -1.293,1.051 -13.492,2.359 -27.305,-0.731 -27.305,-0.731 -6.727,-5.254 -42.352,-11.906 -53.742,-0.117 v -0.012 c 0,0 -7.664,1.508 -9.668,2.012 0,0 -2.008,5.141 0,8.664 l 6.57,2.734 c 0.785,6.973 2.793,20.559 6.898,25.328 4.133,4.805 34.617,9.352 45.172,0.063 6.586,-5.805 8.961,-14.742 10,-21.859 9.746,-14.07 18.027,-1.121 18.027,-1.121 v -0.008 c 0.977,7.242 3.262,16.641 10.109,22.668 10.543,9.289 41.039,4.738 45.172,-0.063 4.102,-4.766 6.113,-18.352 6.898,-25.328 l 6.566,-2.738 c 2.01,-3.511 0,-8.656 0,-8.656 z m -99.039,35.602 c -9.379,8.258 -37.512,3.766 -41.184,-0.508 -4.996,-5.797 -5.527,-26.555 -5.527,-26.555 -0.098,-20.992 43.773,-13.621 50.918,-8.031 3.035,2.367 4.426,4.094 5.063,5.125 l 0.48,1.527 c -0.621,4.934 -0.621,20.395 -9.75,28.442 z m 83.848,-0.825 c -3.68,4.27 -31.805,8.766 -41.184,0.5 -8.34,-7.344 -9.066,-20.867 -9.594,-26.926 l 2.938,-6.086 c 0.664,-0.629 1.469,-1.324 2.445,-2.082 7.141,-5.586 51.012,-12.957 50.914,8.035 0,10e-4 -0.531,20.755 -5.519,26.559 z"
   id="path149" />
		<path
   style="fill:#f5f8e6"
   d="m 1260.402,684.356 c 0,0 -4.27,-1.844 -7.859,4.371 l -10.168,17.863 c 0,0 6.672,44.918 10.168,57.109 0,0 19.848,-31.738 28.574,-27.367 8.73,4.367 12.133,15.102 12.133,15.102 0,0 0.734,-8.203 -0.871,-15.563 -1.613,-7.359 -29.914,-35.875 -31.977,-51.515 z"
   id="path150" />
		<path
   style="fill:#f5f8e6"
   d="m 1327.5,684.356 c 0,0 4.266,-1.844 7.859,4.371 l 10.164,17.863 c 0,0 -6.672,44.918 -10.164,57.109 0,0 -19.855,-31.738 -28.578,-27.367 -8.727,4.367 -13.531,15.102 -13.531,15.102 0,0 -0.73,-7.977 0.883,-15.332 1.605,-7.364 31.308,-36.106 33.367,-51.746 z"
   id="path151" />
	</g></svg>
