<?xml version="1.0" encoding="UTF-8" standalone="no"?>
<!-- Generator: Adobe Illustrator 27.5.0, SVG Export Plug-In . SVG Version: 6.00 Build 0)  -->

<svg
   version="1.1"
   x="0px"
   y="0px"
   viewBox="0 0 372.36809 1490.6462"
   xml:space="preserve"
   id="svg1"
   sodipodi:docname="oldwoman2.svg"
   width="372.3681"
   height="1490.6461"
   inkscape:version="1.4.2 (f4327f4, 2025-05-13)"
   xmlns:inkscape="http://www.inkscape.org/namespaces/inkscape"
   xmlns:sodipodi="http://sodipodi.sourceforge.net/DTD/sodipodi-0.dtd"
   xmlns="http://www.w3.org/2000/svg"
   xmlns:svg="http://www.w3.org/2000/svg"><defs
   id="defs1" /><sodipodi:namedview
   id="namedview1"
   pagecolor="#ffffff"
   bordercolor="#000000"
   borderopacity="0.25"
   inkscape:showpageshadow="2"
   inkscape:pageopacity="0.0"
   inkscape:pagecheckerboard="0"
   inkscape:deskcolor="#d1d1d1"
   inkscape:zoom="0.689"
   inkscape:cx="-230.76923"
   inkscape:cy="496.37155"
   inkscape:window-width="2880"
   inkscape:window-height="1676"
   inkscape:window-x="-12"
   inkscape:window-y="-12"
   inkscape:window-maximized="1"
   inkscape:current-layer="svg1" />

<g
   id="OBJECTS"
   transform="translate(-397.96083,228.81277)">
	
	
	
	
</g>
<g
   id="g286"
   transform="translate(-1544.7842,-416.11581)">
		<path
   style="fill:#99a5a3"
   d="m 1720.336,500.211 c 0,0 -22.551,-17.527 -17.039,-45.07 5.512,-27.539 44.738,-44.234 69.781,-37.555 25.031,6.676 51.5,40.895 48.695,55.914 -2.797,15.023 -23.586,36.105 -30.297,34.742 z"
   id="path220" />
		<g
   id="g280">
			<g
   id="g229">
				<path
   style="fill:#f4a27a"
   d="m 1668.207,1782.738 c 0,0 -34.164,-280.891 -37.789,-347.371 h 84.598 c 0,0 -13.191,261.059 -15.988,347.371 -10e-4,0 -20.829,16.231 -30.821,0 z"
   id="path221" />
				<path
   style="fill:#f4a27a"
   d="m 1783.73,1786.371 c 0,0 34.156,-280.895 37.785,-347.371 h -84.594 c 0,0 13.945,261.602 16.742,347.918 10e-4,0 20.071,15.68 30.067,-0.547 z"
   id="path222" />
				<path
   style="fill:#f4a27a"
   d="m 1753.41,1782.059 c 0,0 0,29.219 -3.324,40.285 0,0 4.832,19.422 19.941,19.422 15.598,0 18.434,-15.078 19.938,-19.422 0,0 -6.949,-30.922 -5.738,-40.285 z"
   id="path223" />
				<path
   style="fill:#001d2f"
   d="m 1754.578,1817.406 c 0,0 -4.492,-2.066 -8.422,7 -3.93,9.063 -1.512,36.578 -9.41,51.004 -2.355,4.316 -9.359,17.527 -6.945,22.66 2.414,5.141 51.664,15.109 80.672,0 0,0 2.109,-9.363 -4.234,-25.977 -6.344,-16.625 -9.969,-34.746 -11.176,-45.32 -1.211,-10.578 -8.164,-10.875 -8.164,-10.875 z"
   id="path224" />
				<path
   style="fill:#f4a27a"
   d="m 1755.223,1822.344 c 0,0 22.313,-0.594 29.91,-1.617 0,0 5.441,15.488 -2.117,21.039 0,0 -21.754,1.02 -29.605,1.621 -10e-4,0 -1.806,-15.903 1.812,-21.043 z"
   id="path225" />
				<path
   style="fill:#f4a27a"
   d="m 1668.207,1782.738 c 0,0 0,29.219 -3.324,40.289 0,0 4.832,19.426 19.941,19.426 15.602,0 18.426,-15.09 19.941,-19.426 0,0 -6.945,-30.922 -5.738,-40.289 z"
   id="path226" />
				<path
   style="fill:#f15e63"
   d="m 1824.777,1707.84 c 15.395,-112.227 32.492,-316.395 32.445,-372.277 -0.059,-72.207 -23.609,-138.523 -23.609,-138.523 l -108.008,2.199 -108.004,-2.199 c 0,0 -23.547,66.316 -23.605,138.523 -0.051,55.883 17.047,260.051 32.441,372.277 0,0 94.2,35.047 198.34,0 z"
   id="path227" />
				<path
   style="fill:#001d2f"
   d="m 1669.375,1818.086 c 0,0 -4.492,-2.059 -8.418,7 -3.926,9.063 -1.504,36.578 -9.41,51.012 -2.359,4.313 -9.363,17.52 -6.949,22.656 2.414,5.136 51.668,15.109 80.672,0 0,0 2.117,-9.363 -4.23,-25.977 -6.348,-16.625 -9.973,-34.754 -11.176,-45.328 -1.215,-10.57 -8.16,-10.871 -8.16,-10.871 z"
   id="path228" />
				<path
   style="fill:#f4a27a"
   d="m 1670.02,1823.027 c 0,0 22.316,-0.594 29.91,-1.621 0,0 5.441,15.488 -2.109,21.047 0,0 -21.754,1.012 -29.613,1.617 -10e-4,0 -1.806,-15.902 1.812,-21.043 z"
   id="path229" />
			</g>
			<g
   id="g279">
				<g
   id="g276">
					<g
   id="g275">
						<g
   id="g274">
							<g
   id="g247">
								<g
   id="g246">
									<path
   style="fill:#f4a27a"
   d="m 1898.531,905.125 -49.262,30.883 c 9.605,35.43 21.93,104.398 21.93,104.398 1.453,66.781 29.605,191.805 29.605,191.805 l 16.109,-0.797 c -5.887,-124.309 -13.273,-191.66 -13.273,-191.66 -2.574,-17.516 -3.054,-55.606 -5.109,-134.629 z"
   id="path230" />
									<path
   style="fill:#e38a62"
   d="m 1855.727,962.652 c 1.633,-2.012 2.773,-3.207 2.773,-3.207 l 41.238,-6.273 c 0.527,21.344 0.973,38.297 1.48,51.719 -10.922,1.863 -23.961,2.633 -36.734,-0.102 -2.57,-13.113 -5.636,-28.164 -8.757,-42.137 z"
   id="path231" />
									<path
   style="fill:#cf6744"
   d="m 1897.508,1249.953 c -0.25,3.789 -1.137,21.777 -5.539,27.355 -5.188,6.578 -10.844,14.773 -7.18,16.496 3.66,1.734 12.07,-5.301 18.715,-16.438 2.406,-4.031 4.898,-9.949 7.078,-16.273 z"
   id="path232" />
									<path
   style="fill:#db7b58"
   d="m 1900.141,1252.125 c -0.246,3.785 -3.336,25.465 -7.734,31.043 -5.184,6.574 -10.84,14.773 -7.176,16.5 3.656,1.727 12.066,-5.301 18.711,-16.441 2.406,-4.027 4.898,-9.957 7.086,-16.281 z"
   id="path233" />
									<path
   style="fill:#f4a27a"
   d="m 1900.258,1230.316 c 0,0 -15.797,18.5 -18.938,25.816 0,0 -9.676,13.594 -12.258,15.762 -2.582,2.176 2.164,7.484 12.551,-3.18 10.383,-10.66 17.531,-12.957 19.422,-12.039 0,0 -0.719,22.039 -5.395,28.977 -9.383,13.887 -16.313,21.414 -12.512,22.809 3.805,1.398 21.895,-16.352 27.527,-28.035 5.632,-11.683 7.324,-42.504 6.141,-51.398 z"
   id="path234" />
									<path
   style="fill:#e98e66"
   d="m 1856.371,807.371 c -1.031,-4.73 -5.398,-8.988 -6.379,-9.527 -6.887,-3.758 -81.301,-24.933 -81.301,-24.933 -13.395,-18.727 -10.547,-46.359 -10.547,-46.359 l -27.188,-12.363 v -0.18 l -0.242,0.09 -0.238,-0.09 v 0.18 l -27.152,12.363 c 0,0 -0.047,34.137 -10.582,46.359 0,0 -77.684,22.543 -84.578,26.301 -0.984,0.535 -2,3.43 -2.926,8.16 l 132.18,69.77 z"
   id="path235" />
									<path
   style="fill:#f4a27a"
   d="m 1563.406,905.125 49.258,30.883 c -9.605,35.43 -21.93,104.398 -21.93,104.398 -1.461,66.781 -29.605,191.805 -29.605,191.805 l -16.105,-0.797 c 5.887,-124.309 13.27,-191.66 13.27,-191.66 2.577,-17.516 3.058,-55.606 5.112,-134.629 z"
   id="path236" />
									<path
   style="fill:#e38a62"
   d="m 1606.203,962.652 c -1.633,-2.012 -2.77,-3.207 -2.77,-3.207 l -41.238,-6.273 c -0.527,21.344 -0.969,38.297 -1.48,51.719 10.926,1.863 23.961,2.633 36.734,-0.102 2.571,-13.113 5.637,-28.164 8.754,-42.137 z"
   id="path237" />
									<path
   style="fill:#693c31"
   d="m 1634.223,790.371 c 0,0 -43.594,7.727 -59.57,34.145 -11.797,19.5 -21.301,144.254 -21.301,144.254 0,0 16.566,29.176 52.082,23.492 l 29.203,-75.648 z"
   id="path238" />
									<path
   style="fill:#582d27"
   d="m 1605.434,992.262 29.203,-75.648 -0.297,-91.031 c -0.77,-3.91 -1.336,-5.406 -1.613,-3.699 -2.254,13.813 -17.48,19.133 -38.73,69.801 -19.422,46.297 -9.941,92.543 -8.152,100.188 5.737,1.233 12.253,1.565 19.589,0.389 z"
   id="path239" />
									<path
   style="fill:#693c31"
   d="m 1827.582,790.371 c 0,0 43.602,7.727 59.578,34.145 11.789,19.5 21.301,144.254 21.301,144.254 0,0 -16.566,29.176 -52.09,23.492 l -29.203,-75.648 z"
   id="path240" />
									<path
   style="fill:#582d27"
   d="m 1876.441,929.301 c 0.602,-28.195 -37.734,-98.68 -37.734,-98.68 l -11.336,24.066 -0.203,61.926 29.203,75.648 c 7.527,1.207 14.199,0.836 20.043,-0.484 -0.09,-6.414 -0.519,-37.343 0.027,-62.476 z"
   id="path241" />
									<path
   style="fill:#c66a42"
   d="m 1701.563,748.082 c 12.578,8.496 33.805,21.301 44.73,19.176 5.977,-1.156 11.41,-3.973 15.914,-7.055 -5.832,-16.453 -4.063,-33.652 -4.063,-33.652 l -27.188,-12.363 v -0.18 l -0.242,0.09 -0.238,-0.09 v 0.18 l -27.152,12.363 c 0,0 -0.015,10.254 -1.761,21.531 z"
   id="path242" />
									<path
   style="fill:#693c31"
   d="m 1635.516,1081.543 c -3.422,33.777 -16.289,88.133 -22.164,125.613 0,0 34.168,28.817 117.453,28.817 90.254,0 110.457,-28.817 110.457,-28.817 -2.504,-15.27 -5.656,-36.039 -8.52,-59.516 -7.215,-59.246 -6.988,-115.648 4.105,-154.645 0,0 13.84,-43.125 16.633,-81.555 2.98,-40.879 -20.074,-119.766 -20.074,-119.766 l -23.793,-7.508 -37.758,-11.477 c 0,0 -15.68,47.238 -41.918,47.711 -14.648,0.258 -31.82,-20.797 -44.016,-45.504 l -30.074,8.09 -24.621,8.336 c 0,0 -45.941,101.719 -12.117,194.758 0,0.002 19.981,60.166 16.407,95.463 z"
   id="path243" />
									<path
   style="fill:#cf6744"
   d="m 1564.43,1249.953 c 0.25,3.789 1.133,21.777 5.531,27.355 5.188,6.578 10.852,14.773 7.188,16.496 -3.664,1.734 -12.074,-5.301 -18.719,-16.438 -2.41,-4.031 -4.895,-9.949 -7.074,-16.273 z"
   id="path244" />
									<path
   style="fill:#db7b58"
   d="m 1561.793,1252.125 c 0.25,3.785 3.336,25.465 7.734,31.043 5.184,6.574 10.844,14.773 7.18,16.5 -3.664,1.727 -12.066,-5.301 -18.719,-16.441 -2.406,-4.027 -4.895,-9.957 -7.078,-16.281 z"
   id="path245" />
									<path
   style="fill:#f4a27a"
   d="m 1561.672,1230.316 c 0,0 15.801,18.5 18.938,25.816 0,0 9.684,13.594 12.258,15.762 2.586,2.176 -2.16,7.484 -12.547,-3.18 -10.379,-10.66 -17.531,-12.957 -19.422,-12.039 0,0 0.711,22.039 5.398,28.977 9.379,13.887 16.313,21.414 12.508,22.809 -3.805,1.398 -21.891,-16.352 -27.527,-28.035 -5.633,-11.684 -7.32,-42.504 -6.137,-51.398 z"
   id="path246" />
								</g>
							</g>
							<g
   id="g273">
								<g
   id="g272">
									<g
   id="g271">
										<g
   id="g264">
											<g
   id="g263">
												<g
   id="g253">
													<path
   style="fill:#f4a27a"
   d="m 1810.484,631.168 c 0,0 8.43,-14.797 21.563,-15.008 7.793,-0.121 5.492,31.894 -2.539,40.164 -8.035,8.273 -19.734,5.519 -22.328,-1.809 z"
   id="path247" />
													<path
   style="opacity:0.4;fill:#cf6244"
   d="m 1812.285,653.477 c 0,0 9.801,3.438 14.031,-4.731 4.223,-8.168 8.336,-17.988 5.055,-25.199 0,0 -9.039,2.105 -17.391,18.98 0,0 6.118,7.606 -1.695,10.95 z"
   id="path248" />
													<g
   id="g250">
														<g
   id="g249">
															<path
   style="fill:#91554a"
   d="m 1832.707,633.816 c -0.086,-1.547 -0.168,-3.09 -0.34,-4.613 -0.195,-1.512 -0.379,-3.066 -0.867,-4.406 -0.133,-0.328 -0.297,-0.594 -0.457,-0.777 -0.195,-0.019 -0.09,-0.133 -0.406,0.055 -0.715,0.34 -1.359,0.734 -1.914,1.184 -1.16,0.801 -2.387,1.813 -3.508,2.801 -2.277,2.008 -4.301,4.285 -6.172,6.656 -1.02,1.133 -1.715,2.481 -2.598,3.711 -0.449,0.613 -0.699,1.328 -1.063,1.988 l -1.004,2.019 -0.121,-0.746 c 1.5,2.102 2.723,4.547 2.43,7.266 -0.145,1.348 -0.953,2.563 -1.98,3.309 -0.992,0.824 -2.199,1.238 -3.379,1.582 1.105,-0.547 2.207,-1.105 3.031,-1.969 0.871,-0.805 1.355,-1.906 1.402,-3.019 0.102,-2.254 -1.184,-4.488 -2.629,-6.215 l -0.309,-0.359 0.18,-0.391 1.004,-2.148 c 0.363,-0.703 0.613,-1.473 1.066,-2.121 0.879,-1.305 1.594,-2.738 2.613,-3.941 1.875,-2.539 4.125,-4.758 6.504,-6.805 1.234,-1 2.371,-2 3.828,-2.84 0.703,-0.461 1.398,-0.817 2.109,-1.094 0.352,-0.266 1.332,-0.211 1.723,0.258 0.344,0.414 0.523,0.836 0.656,1.242 0.795,3.198 0.474,6.288 0.201,9.373 z"
   id="path249" />
														</g>
													</g>
													<g
   id="g252">
														<g
   id="g251">
															<path
   style="fill:#91554a"
   d="m 1829.883,635.281 c 0,0 -0.594,-0.578 -1.488,-1.133 -0.496,-0.23 -1.008,-0.527 -1.637,-0.664 -0.574,-0.262 -1.262,-0.297 -1.941,-0.328 -0.66,-0.211 -1.391,0.008 -2.051,-0.016 -0.668,-0.012 -1.313,0.066 -1.867,0.16 -1.117,0.133 -1.953,0.098 -1.953,0.098 0,0 0.617,-0.488 1.684,-1.043 0.543,-0.238 1.152,-0.656 1.926,-0.715 0.758,-0.066 1.551,-0.379 2.406,-0.223 0.84,0.121 1.668,0.269 2.387,0.672 0.77,0.266 1.25,0.934 1.703,1.328 0.772,1.032 0.831,1.864 0.831,1.864 z"
   id="path250" />
														</g>
													</g>
												</g>
												<path
   style="fill:#f4a27a"
   d="m 1741.137,751.211 c 0,0 37.492,-19.063 50.523,-40.48 10.711,-15.024 23.328,-91.649 24.617,-103.543 0.039,-0.394 0.09,-0.785 0.129,-1.18 0.039,-0.379 0.063,-0.586 0.063,-0.586 l -0.02,0.012 c 0.219,-2.461 0.352,-4.941 0.352,-7.461 0,-45.875 -37.195,-83.063 -83.066,-83.063 -45.879,0 -83.066,37.188 -83.066,83.063 0,2.988 0.164,5.933 0.473,8.832 h -0.01 c 0,0 12.941,87.469 24.68,103.926 13.781,24.555 50.52,40.48 50.52,40.48 0,0 7.021,2.57 14.803,0 z"
   id="path253" />
												<g
   id="g256">
													<g
   id="g254">
														<path
   style="fill:#050001"
   d="m 1667.871,637.856 c 0,0 0.438,0.707 5.773,1.324 0,0 17.113,-26.5 41.715,4.191 0,0 -26.965,-20.434 -42.02,1.191 10e-4,10e-4 -1.816,0.188 -5.468,-6.706 z"
   id="path254" />
													</g>
													<g
   id="g255">
														<path
   style="fill:#050001"
   d="m 1797.785,639.348 c 0,0 -0.457,0.699 -5.805,1.199 0,0 -16.504,-26.883 -41.797,3.242 0,0 27.422,-19.82 41.98,2.144 10e-4,10e-4 1.814,0.227 5.622,-6.585 z"
   id="path255" />
													</g>
												</g>
												<g
   id="g262">
													<path
   style="fill:#f4a27a"
   d="m 1657.594,634.664 c 0,0 -8.434,-14.797 -21.563,-15.004 -7.797,-0.125 -5.492,31.898 2.543,40.168 8.027,8.266 19.727,5.512 22.328,-1.813 z"
   id="path256" />
													<path
   style="opacity:0.4;fill:#cf6244"
   d="m 1655.793,656.969 c 0,0 -9.805,3.445 -14.031,-4.723 -4.227,-8.172 -8.336,-17.992 -5.059,-25.203 0,0 9.039,2.109 17.395,18.984 0,0 -6.121,7.606 1.695,10.942 z"
   id="path257" />
													<g
   id="g259">
														<g
   id="g258">
															<path
   style="fill:#91554a"
   d="m 1635.363,637.313 c -0.273,-3.086 -0.59,-6.18 0.203,-9.379 0.133,-0.406 0.313,-0.824 0.66,-1.238 0.391,-0.469 1.367,-0.531 1.723,-0.262 0.707,0.281 1.41,0.633 2.109,1.094 1.453,0.844 2.598,1.84 3.832,2.844 2.371,2.043 4.629,4.266 6.5,6.809 1.023,1.199 1.734,2.637 2.613,3.941 0.449,0.648 0.703,1.418 1.063,2.121 l 1.004,2.152 0.18,0.387 -0.305,0.363 c -1.449,1.723 -2.734,3.957 -2.633,6.211 0.055,1.113 0.531,2.215 1.41,3.019 0.816,0.863 1.922,1.422 3.023,1.969 -1.18,-0.344 -2.383,-0.758 -3.371,-1.582 -1.027,-0.746 -1.836,-1.965 -1.988,-3.309 -0.285,-2.719 0.934,-5.164 2.434,-7.266 l -0.125,0.75 -1,-2.023 c -0.367,-0.66 -0.617,-1.375 -1.063,-1.988 -0.883,-1.23 -1.578,-2.578 -2.594,-3.711 -1.875,-2.371 -3.898,-4.652 -6.176,-6.664 -1.121,-0.984 -2.344,-1.996 -3.508,-2.801 -0.559,-0.449 -1.199,-0.844 -1.91,-1.184 -0.316,-0.184 -0.215,-0.074 -0.41,-0.051 -0.16,0.18 -0.328,0.445 -0.457,0.773 -0.484,1.34 -0.672,2.898 -0.867,4.406 -0.175,1.529 -0.257,3.072 -0.347,4.619 z"
   id="path258" />
														</g>
													</g>
													<g
   id="g261">
														<g
   id="g260">
															<path
   style="fill:#91554a"
   d="m 1638.195,638.777 c 0,0 0.063,-0.836 0.836,-1.867 0.457,-0.391 0.938,-1.063 1.703,-1.324 0.719,-0.402 1.547,-0.551 2.387,-0.672 0.855,-0.152 1.641,0.16 2.406,0.227 0.773,0.059 1.379,0.477 1.926,0.715 1.066,0.555 1.684,1.047 1.684,1.047 0,0 -0.844,0.031 -1.953,-0.098 -0.555,-0.098 -1.199,-0.18 -1.871,-0.164 -0.656,0.02 -1.387,-0.199 -2.047,0.016 -0.68,0.027 -1.375,0.063 -1.945,0.324 -0.633,0.133 -1.145,0.434 -1.637,0.66 -0.895,0.554 -1.489,1.136 -1.489,1.136 z"
   id="path259" />
														</g>
													</g>
												</g>
												<path
   style="fill:#5f221b"
   d="m 1745.926,670.207 c 0,0 0.109,10.867 -2.883,12.441 -2.996,1.575 -1.238,-6.097 2.883,-12.441 z"
   id="path262" />
											</g>
										</g>
										<g
   id="g265">
											<path
   style="fill:#85453e"
   d="m 1680.758,660.168 c 0,0 1.188,-1.859 2.762,-3.324 1.52,-1.523 3.422,-2.648 3.422,-2.648 0,0 -1.191,1.859 -2.766,3.328 -1.52,1.515 -3.418,2.644 -3.418,2.644 z"
   id="path264" />
										</g>
										<g
   id="g266">
											<path
   style="fill:#85453e"
   d="m 1688.301,655.445 c 0,0 -1.094,2.996 -2.66,5.723 -1.512,2.766 -3.496,5.262 -3.496,5.262 0,0 1.098,-2.996 2.672,-5.723 1.499,-2.766 3.488,-5.262 3.484,-5.262 z"
   id="path265" />
										</g>
										<g
   id="g267">
											<path
   style="fill:#85453e"
   d="m 1691.988,657.188 c 0,0 -0.48,1.828 -1.438,3.383 -0.887,1.594 -2.25,2.906 -2.25,2.906 0,0 0.484,-1.832 1.441,-3.383 0.888,-1.594 2.251,-2.906 2.247,-2.906 z"
   id="path266" />
										</g>
										<g
   id="g268">
											<path
   style="fill:#85453e"
   d="m 1786.5,663.949 c 0,0 -1.902,-1.129 -3.426,-2.648 -1.57,-1.465 -2.762,-3.324 -2.762,-3.324 0,0 1.902,1.125 3.422,2.644 1.567,1.469 2.766,3.328 2.766,3.328 z"
   id="path267" />
										</g>
										<g
   id="g269">
											<path
   style="fill:#85453e"
   d="m 1778.949,659.227 c 0,0 1.988,2.496 3.488,5.262 1.574,2.727 2.664,5.719 2.672,5.719 0,0 -1.988,-2.496 -3.492,-5.258 -1.57,-2.727 -2.664,-5.723 -2.668,-5.723 z"
   id="path268" />
										</g>
										<g
   id="g270">
											<path
   style="fill:#85453e"
   d="m 1775.262,660.965 c 0,0 1.363,1.316 2.254,2.906 0.949,1.555 1.434,3.387 1.434,3.387 0,0 -1.359,-1.316 -2.25,-2.91 -0.958,-1.555 -1.434,-3.383 -1.438,-3.383 z"
   id="path269" />
										</g>
										<path
   style="fill:#d9dad9"
   d="m 1713.91,601.598 c 0,0 -19.449,-11.168 -34.254,-7.352 0,0 -10.66,2.305 -11.039,5.77 0,0 17.254,-3.774 45.293,1.582 z"
   id="path270" />
										<path
   style="fill:#d9dad9"
   d="m 1756.527,601.598 c 0,0 19.684,-11.168 34.488,-7.352 0,0 10.422,2.305 10.805,5.77 0,0 -17.257,-3.782 -45.293,1.582 z"
   id="path271" />
									</g>
								</g>
							</g>
						</g>
					</g>
					<path
   style="fill:#582d27"
   d="m 1634.637,1147.324 c 0,-17.684 23.84,-56.383 31.363,-70.477 7.512,-14.102 -31.363,-62.973 -31.363,-62.973 16.574,0 46.395,-14.094 62.375,-28.188 15.973,-14.098 72.359,-22.621 72.359,-22.621 -18.797,-7.586 -50.75,7.582 -95.449,14.156 -34.465,5.074 -55.734,-14.969 -63.676,-24.426 1.969,11.094 4.855,22.25 8.863,33.285 0,0 19.98,60.164 16.406,95.461 -3.422,33.777 -16.289,88.133 -22.164,125.613 0,0 34.168,28.817 117.453,28.817 29.168,0 50.984,-3.016 67.199,-7.09 -130.542,0.392 -163.366,-60.885 -163.366,-81.557 z"
   id="path275" />
				</g>
				<g
   id="g277">
					<path
   style="fill:#ffffff"
   d="m 1758.734,695.148 c 0,0 -6.383,11.32 -24.773,11.32 -3.586,0 -13.18,-1.492 -18.836,-11.32 0,0 37.109,0.836 43.609,0 z"
   id="path276" />
				</g>
				<g
   id="g278">
					<path
   style="fill:#8e4327"
   d="m 1836.965,628.098 c 0.059,-0.66 0.137,-1.586 0.23,-2.75 -0.093,1.004 -0.164,1.902 -0.23,2.75 z"
   id="path277" />
				</g>
			</g>
			<path
   style="fill:#d5505d"
   d="m 1600.465,1452.035 c 6.371,82.738 16.492,186.699 25.973,255.805 0,0 94.199,35.047 198.34,0 5.398,-39.359 11.008,-90.035 16.012,-141.656 -98.142,70.433 -180.763,-10.375 -240.325,-114.149 z"
   id="path279" />
		</g>
		<path
   style="fill:#d6dbd9"
   d="m 1643.66,621.461 12.133,10.508 c 0,0 74.805,-36.902 94.391,-86.418 0,0 21.168,61.637 62.66,83.953 0,0 5.902,-8.234 14.793,-12.711 0,0 16.125,-33.961 13.898,-50.098 -2.227,-16.137 -36.715,-85.125 -80.117,-83.457 0,0 -8.176,-6.121 -15.492,-6.121 -7.313,0 -81.316,7.793 -116.926,97.922 0,0 -9.062,12.164 14.66,46.422 z"
   id="path280" />
		<path
   style="opacity:0.6;fill:#99a5a3"
   d="m 1838.699,556.961 c 1.164,12.832 -3.5,25.648 -19.754,36.484 -42.207,28.148 -45.348,-73.148 -45.172,-108.805 -3.973,-1.039 -8.047,-1.547 -12.199,-1.402 -6.098,74.934 -81.418,114.25 -106.309,106.398 -13.199,-4.168 -3.566,-38.477 9.137,-71.289 -13.23,13.824 -25.734,32.219 -35.402,56.691 0,0 -9.063,12.164 14.66,46.422 l 12.133,10.508 c 0,0 74.805,-36.902 94.391,-86.418 0,0 21.168,61.637 62.66,83.953 0,0 5.902,-8.234 14.793,-12.711 0,0 16.125,-33.961 13.898,-50.098 -0.312,-2.296 -1.285,-5.663 -2.836,-9.733 z"
   id="path281" />
		<path
   style="fill:#000718"
   d="m 1813.07,622.055 c -2.016,-0.508 -9.672,-2.012 -9.672,-2.012 v 0.008 c -11.395,-11.789 -47.02,-5.137 -53.746,0.117 -0.461,0.367 -0.887,0.715 -1.289,1.051 -13.496,2.363 -27.309,-0.73 -27.309,-0.73 -6.723,-5.254 -42.344,-11.906 -53.742,-0.117 v -0.012 c 0,0 -7.66,1.508 -9.672,2.012 0,0 -2.008,5.141 0,8.664 l 6.574,2.734 c 0.781,6.977 2.793,20.559 6.898,25.324 4.129,4.809 34.621,9.359 45.168,0.067 6.586,-5.801 8.961,-14.738 9.996,-21.859 9.75,-14.07 18.031,-1.121 18.031,-1.121 l 0.01,-0.004 c 0.977,7.234 3.262,16.637 10.109,22.668 10.543,9.289 41.031,4.738 45.168,-0.066 4.102,-4.766 6.113,-18.352 6.902,-25.324 l 6.566,-2.742 c 2.006,-3.514 0,-8.658 0,-8.658 z m -99.043,35.601 c -9.379,8.262 -37.508,3.77 -41.184,-0.508 -4.992,-5.797 -5.523,-26.555 -5.523,-26.555 -0.094,-20.988 43.77,-13.621 50.918,-8.035 3.035,2.367 4.43,4.102 5.063,5.133 l 0.473,1.527 c -0.61,4.93 -0.61,20.388 -9.747,28.438 z m 83.852,-0.824 c -3.68,4.274 -31.809,8.766 -41.184,0.504 -8.344,-7.348 -9.063,-20.867 -9.594,-26.926 l 2.938,-6.09 c 0.668,-0.629 1.465,-1.324 2.445,-2.086 7.141,-5.582 51.012,-12.949 50.914,8.039 0,0 -0.531,20.758 -5.519,26.559 z"
   id="path282" />
		<g
   id="g284">
			<path
   style="fill:#f5f8e6"
   d="m 1697.254,764.418 c 0,0 -4.27,-1.836 -7.855,4.375 l -10.172,17.863 c 0,0 6.676,44.922 10.172,57.109 0,0 19.852,-31.738 28.578,-27.367 8.723,4.367 12.129,15.102 12.129,15.102 0,0 0.73,-8.203 -0.871,-15.566 -1.614,-7.356 -29.915,-35.875 -31.981,-51.516 z"
   id="path283" />
			<path
   style="fill:#f5f8e6"
   d="m 1764.352,764.418 c 0,0 4.27,-1.836 7.859,4.375 l 10.168,17.863 c 0,0 -6.676,44.922 -10.168,57.109 0,0 -19.848,-31.738 -28.574,-27.367 -8.727,4.367 -13.531,15.102 -13.531,15.102 0,0 -0.734,-7.973 0.879,-15.332 1.605,-7.359 31.308,-36.109 33.367,-51.75 z"
   id="path284" />
		</g>
		<path
   style="fill:#f5f8e6"
   d="m 1554.883,950.535 c 0,0 -2.105,-0.633 -2.66,2.637 -0.559,3.266 -2.223,28.305 -2.223,28.305 0,0 23.645,22.809 54.523,18.082 0,0 6.152,-16.41 5.723,-19.754 0,0 -42.418,-17.09 -55.363,-29.27 z"
   id="path285" />
		<path
   style="fill:#f5f8e6"
   d="m 1907.191,948.336 c 0,0 2.102,-0.629 2.66,2.637 0.551,3.266 2.223,28.305 2.223,28.305 0,0 -23.645,22.809 -54.523,18.082 0,0 -7.039,-15.348 -5.648,-16.66 -10e-4,-0.001 42.343,-20.184 55.288,-32.364 z"
   id="path286" />
	</g></svg>
