<?xml version="1.0" encoding="UTF-8" standalone="no"?>
<!-- Created with Inkscape (http://www.inkscape.org/) -->

<svg
   width="74.450119mm"
   height="213.81392mm"
   viewBox="0 0 74.450113 213.81392"
   version="1.1"
   id="svg1"
   inkscape:version="1.4.2 (f4327f4, 2025-05-13)"
   sodipodi:docname="oldwoman6.svg"
   xmlns:inkscape="http://www.inkscape.org/namespaces/inkscape"
   xmlns:sodipodi="http://sodipodi.sourceforge.net/DTD/sodipodi-0.dtd"
   xmlns:xlink="http://www.w3.org/1999/xlink"
   xmlns="http://www.w3.org/2000/svg"
   xmlns:svg="http://www.w3.org/2000/svg">
  <sodipodi:namedview
     id="namedview1"
     pagecolor="#ffffff"
     bordercolor="#000000"
     borderopacity="0.25"
     inkscape:showpageshadow="2"
     inkscape:pageopacity="0.0"
     inkscape:pagecheckerboard="0"
     inkscape:deskcolor="#d1d1d1"
     inkscape:document-units="mm"
     inkscape:zoom="1.2275954"
     inkscape:cx="224.82978"
     inkscape:cy="221.57137"
     inkscape:window-width="2880"
     inkscape:window-height="1676"
     inkscape:window-x="-12"
     inkscape:window-y="-12"
     inkscape:window-maximized="1"
     inkscape:current-layer="layer1" />
  <defs
     id="defs1">
    <clipPath
       id="SVGID_00000119818789281150872890000010399472127891452846_">
					<use
   xlink:href="#SVGID_1_"
   style="overflow:visible"
   id="use374" />

				</clipPath>
    <path
       id="SVGID_1_"
       d="m 372.545,399.307 c 0,0 -1.283,0 -3.26,0 -6.713,0 -19.791,0 -19.801,0 0,0.838 4.299,47.073 4.58,51.589 0.954,15.214 4.023,46.87 4.105,48.206 0,0 1.713,0.708 5.477,0 l 3.053,-47.784 3.107,-36.587 c 0,0 0.585,-1.01 1.11,-1.054 0.524,0.044 0.994,1.159 0.994,1.159 l 3.633,36.588 2.381,47.703 c 4.615,0.856 6.041,-0.025 6.041,-0.025 0.084,-1.336 2.072,-29.132 3.002,-48.613 1.178,-24.746 5.303,-50.712 5.303,-51.182 -0.01,0 -13.012,0 -19.725,0 z" />
  </defs>
  <g
     inkscape:label="图层 1"
     inkscape:groupmode="layer"
     id="layer1"
     transform="translate(-45.401021,-90.029741)">
    <g
       id="g135"
       transform="matrix(0.26458333,0,0,0.26458333,13.484179,34.731113)">
				<path
   style="fill:#f4a27a"
   d="m 331.043,415.262 -7.988,31.793 c 17.738,10.664 64.859,43.047 64.859,43.047 16.707,0.531 13.93,-110.926 13.93,-110.926 l -8.926,-1.684 c -13.207,68.91 -13.781,81.953 -13.781,81.953 -7.883,-6.125 -16.414,-12.836 -48.094,-44.183 z"
   id="path70" />

				<path
   style="fill:#e38a62"
   d="m 368.793,451.027 c -3.734,-3.219 -8.414,-7.449 -14.801,-13.484 -1.203,-0.906 -2.434,-1.945 -3.703,-3.207 l -14.32,18.652 c 0,0 0,0.891 0.113,2.293 0.039,0.023 0.09,0.055 0.133,0.078 0.723,0.477 1.449,0.949 2.191,1.434 0.078,0.051 0.16,0.105 0.23,0.148 0.734,0.48 1.473,0.961 2.215,1.453 0.121,0.074 0.23,0.152 0.34,0.219 0.734,0.488 1.473,0.977 2.227,1.469 0.086,0.063 0.188,0.121 0.27,0.18 0.77,0.504 1.535,1.012 2.313,1.527 0.082,0.059 0.188,0.125 0.277,0.188 0.738,0.48 1.465,0.969 2.203,1.457 0.16,0.109 0.328,0.223 0.5,0.328 0.59,0.398 1.191,0.801 1.793,1.199 0.441,0.293 0.883,0.582 1.32,0.879 0.313,0.211 0.637,0.426 0.957,0.637 1.168,0.777 2.336,1.559 3.484,2.332 4.867,-3.09 8.957,-11.895 12.258,-17.782 z"
   id="path71" />

				<g
   id="g134">
					<g
   id="g80">
						<path
   style="fill:#f4a27a"
   d="m 260.98,947.191 c 0,0 19.254,-158.356 21.305,-195.836 H 234.59 c 0,0 7.43,147.18 9.016,195.836 -0.001,0 11.738,9.157 17.374,0 z"
   id="path72" />

						<path
   style="fill:#f4a27a"
   d="m 195.859,949.242 c 0,0 -19.266,-158.359 -21.313,-195.844 h 47.691 c 0,0 -7.859,147.496 -9.438,196.156 0.002,10e-4 -11.311,8.84 -16.94,-0.312 z"
   id="path73" />

						<path
   style="fill:#f4a27a"
   d="m 212.945,946.813 c 0,0 0,16.469 1.871,22.715 0,0 -2.723,10.945 -11.246,10.945 -8.793,0 -10.387,-8.5 -11.238,-10.945 0,0 3.914,-17.434 3.238,-22.715 z"
   id="path74" />

						<path
   style="fill:#001d2f"
   d="m 212.285,966.738 c 0,0 2.531,-1.16 4.75,3.953 2.207,5.105 0.848,20.621 5.301,28.758 1.336,2.43 5.281,9.875 3.926,12.769 -1.371,2.898 -29.141,8.52 -45.484,0 0,0 -1.195,-5.281 2.375,-14.648 3.582,-9.363 5.633,-19.59 6.309,-25.547 0.676,-5.965 4.605,-6.133 4.605,-6.133 z"
   id="path75" />

						<path
   style="fill:#f4a27a"
   d="m 211.922,969.527 c 0,0 -12.574,-0.336 -16.867,-0.914 0,0 -3.062,8.734 1.191,11.859 0,0 12.266,0.574 16.699,0.918 0,10e-4 1.008,-8.968 -1.023,-11.863 z"
   id="path76" />

						<path
   style="fill:#f4a27a"
   d="m 260.98,947.191 c 0,0 0,16.477 1.871,22.719 0,0 -2.719,10.949 -11.242,10.949 -8.793,0 -10.395,-8.504 -11.246,-10.949 0,0 3.926,-17.438 3.246,-22.719 z"
   id="path77" />

						<path
   style="fill:#554743"
   d="M 172.711,904.973 C 164.035,841.7 154.395,726.59 154.422,695.09 c 0.023,-40.711 13.305,-78.098 13.305,-78.098 l 60.895,1.234 60.891,-1.234 c 0,0 13.27,37.387 13.316,78.098 0.016,31.5 -9.617,146.609 -18.301,209.883 -0.001,0 -53.106,19.758 -111.817,0 z"
   id="path78" />

						<path
   style="fill:#001d2f"
   d="m 260.32,967.125 c 0,0 2.531,-1.164 4.746,3.945 2.219,5.109 0.855,20.625 5.309,28.754 1.328,2.434 5.273,9.883 3.918,12.781 -1.363,2.894 -29.133,8.516 -45.484,0 0,0 -1.191,-5.281 2.387,-14.645 3.574,-9.375 5.621,-19.594 6.305,-25.559 0.668,-5.957 4.598,-6.133 4.598,-6.133 z"
   id="path79" />

						<path
   style="fill:#f4a27a"
   d="m 259.965,969.91 c 0,0 -12.594,-0.336 -16.879,-0.914 0,0 -3.063,8.731 1.203,11.863 0,0 12.254,0.574 16.691,0.918 0,0 1.008,-8.972 -1.015,-11.867 z"
   id="path80" />

					</g>

					<path
   style="fill:#8b8e85"
   d="m 171.84,307.871 c 0,0 -7.789,35.254 7.902,40.922 15.711,5.664 31.555,-0.813 31.555,-0.813 L 184.16,302.394 Z"
   id="path81" />

					<g
   id="g128">
						<g
   id="g125">
							<g
   id="g124">
								<g
   id="g123">
									<g
   id="g94">
										<g
   id="g93">
											<path
   style="fill:#f4a27a"
   d="m 131.125,452.41 27.781,17.414 c -5.426,19.977 -12.367,58.859 -12.367,58.859 -0.828,37.648 -16.691,108.141 -16.691,108.141 l -9.09,-0.453 c 3.328,-70.086 7.492,-108.059 7.492,-108.059 1.445,-9.867 1.719,-31.347 2.875,-75.902 z"
   id="path82" />

											<path
   style="fill:#e38a62"
   d="m 155.258,484.844 c -0.922,-1.129 -1.566,-1.801 -1.566,-1.801 l -23.25,-3.543 c -0.297,12.035 -0.543,21.594 -0.828,29.164 6.152,1.047 13.508,1.48 20.711,-0.063 1.445,-7.39 3.171,-15.878 4.933,-23.757 z"
   id="path83" />

											<path
   style="fill:#cf6744"
   d="m 131.703,646.824 c 0.141,2.129 0.641,12.277 3.121,15.418 2.922,3.707 6.121,8.328 4.055,9.301 -2.063,0.98 -6.813,-2.984 -10.555,-9.262 -1.359,-2.277 -2.766,-5.613 -3.992,-9.18 z"
   id="path84" />

											<path
   style="fill:#db7b58"
   d="m 130.219,648.047 c 0.137,2.129 1.883,14.352 4.363,17.504 2.918,3.699 6.109,8.32 4.043,9.301 -2.055,0.973 -6.805,-2.988 -10.547,-9.266 -1.359,-2.277 -2.766,-5.617 -3.992,-9.184 z"
   id="path85" />

											<path
   style="fill:#f4a27a"
   d="m 130.145,635.75 c 0,0 8.914,10.43 10.684,14.555 0,0 5.457,7.668 6.914,8.891 1.457,1.227 -1.227,4.219 -7.074,-1.797 -5.859,-6.012 -9.887,-7.305 -10.953,-6.785 0,0 0.395,12.426 3.035,16.336 5.293,7.828 9.211,12.07 7.051,12.859 -2.141,0.785 -12.336,-9.219 -15.512,-15.809 -3.176,-6.586 -4.121,-23.961 -3.461,-28.977 z"
   id="path86" />

											<path
   style="fill:#e98e66"
   d="m 154.895,397.301 c 0.574,-2.668 3.047,-5.07 3.598,-5.367 3.883,-2.121 45.832,-14.059 45.832,-14.059 7.559,-10.559 5.949,-26.141 5.949,-26.141 l 15.328,-6.961 v -0.109 l 0.133,0.055 0.137,-0.055 v 0.109 l 15.313,6.961 c 0,0 0.027,19.246 5.957,26.141 0,0 43.801,12.707 47.688,14.828 0.559,0.305 1.125,1.93 1.648,4.598 l -74.516,39.336 z"
   id="path87" />

											<path
   style="fill:#64cae0"
   d="m 261.445,387.719 c 0,0 19.746,-0.379 34.328,2.934 12.535,2.848 64.207,46.574 64.207,46.574 0,0 4.648,18.336 -12.016,29.891 l -57.539,-20.82 z"
   id="path88" />

											<path
   style="fill:#58bdcf"
   d="m 347.965,467.117 -52.191,-18.883 -24.637,-37.641 c -1.211,-1.895 -1.566,-2.719 -0.777,-2.133 6.297,4.734 14.574,0.957 42.996,13.273 25.977,11.254 40.168,33.766 42.422,37.57 -1.856,2.752 -4.38,5.427 -7.813,7.814 z"
   id="path89" />

											<path
   style="fill:#64cae0"
   d="m 171.125,387.719 c 0,0 -24.574,4.355 -33.582,19.246 -6.652,10.996 -12.012,81.332 -12.012,81.332 0,0 9.336,16.449 29.363,13.242 l 16.473,-42.648 z"
   id="path90" />

											<path
   style="fill:#58bdcf"
   d="m 143.578,466.043 c -0.34,-15.895 21.277,-55.633 21.277,-55.633 l 6.391,13.57 0.121,34.91 -16.473,42.648 c -4.25,0.68 -8,0.473 -11.301,-0.27 0.059,-3.62 0.298,-21.057 -0.015,-35.225 z"
   id="path91" />

											<path
   style="fill:#c66a42"
   d="m 242.176,363.875 c -7.094,4.789 -19.063,12.012 -25.223,10.813 -3.371,-0.656 -6.434,-2.238 -8.965,-3.977 3.273,-9.277 2.285,-18.977 2.285,-18.977 l 15.328,-6.961 v -0.109 l 0.133,0.055 0.137,-0.055 v 0.109 l 15.313,6.961 c 0,0 0.007,5.786 0.992,12.141 z"
   id="path92" />

											<path
   style="fill:#64cae0"
   d="m 279.406,551.875 c 1.93,19.039 9.184,49.688 12.492,70.816 0,0 -19.266,16.25 -66.211,16.25 -50.887,0 -62.27,-16.25 -62.27,-16.25 1.406,-8.609 3.18,-20.316 4.797,-33.551 4.07,-33.406 3.945,-65.203 -2.316,-87.188 0,0 -7.789,-24.313 -9.379,-45.977 -1.668,-23.047 11.695,-67.273 11.695,-67.273 l 21.254,-7.195 c 0,0 15.371,15.602 30.164,15.863 8.254,0.148 33.484,-1.793 40.355,-15.723 l 22.465,6.449 c 0,0 25.281,57.504 6.203,109.957 0.001,0.002 -11.264,33.924 -9.249,53.822 z"
   id="path93" />

										</g>

									</g>

									<g
   id="g122">
										<g
   id="g121">
											<g
   id="g120">
												<g
   id="g113">
													<g
   id="g112">
														<g
   id="g100">
															<path
   style="fill:#f4a27a"
   d="m 180.77,297.961 c 0,0 -4.758,-8.344 -12.164,-8.461 -4.391,-0.063 -3.09,17.988 1.441,22.648 4.523,4.664 11.117,3.105 12.582,-1.023 z"
   id="path94" />

															<path
   style="opacity:0.4;fill:#cf6244"
   d="m 179.742,310.535 c 0,0 -5.516,1.945 -7.902,-2.664 -2.379,-4.602 -4.699,-10.137 -2.855,-14.203 0,0 5.105,1.188 9.813,10.695 -0.001,0 -3.454,4.293 0.944,6.172 z"
   id="path95" />

															<g
   id="g97">
																<g
   id="g96">
																	<path
   style="fill:#91554a"
   d="m 168.234,299.457 c -0.125,-1.742 -0.344,-3.48 0.109,-5.281 0.078,-0.23 0.176,-0.465 0.367,-0.699 0.215,-0.262 0.754,-0.328 0.98,-0.141 l 1.145,0.617 c 0.793,0.348 1.418,1.074 2.137,1.598 1.484,1.082 2.52,2.516 3.707,3.836 0.633,0.629 0.918,1.523 1.391,2.27 l 1.273,2.348 0.113,0.207 -0.184,0.215 c -0.813,0.973 -1.52,2.23 -1.473,3.496 l 0.203,0.93 0.598,0.773 c 0.16,0.316 0.531,0.395 0.801,0.594 l 0.891,0.527 -0.961,-0.406 c -0.301,-0.168 -0.699,-0.207 -0.918,-0.512 l -0.773,-0.781 c -0.129,-0.344 -0.254,-0.703 -0.363,-1.066 -0.152,-1.523 0.516,-2.906 1.359,-4.09 l -0.066,0.418 -1.281,-2.207 c -0.473,-0.703 -0.738,-1.539 -1.371,-2.129 -1.18,-1.223 -2.125,-2.719 -3.473,-3.711 -0.664,-0.523 -1.184,-1.176 -1.965,-1.602 l -1.105,-0.699 c -0.133,-0.168 -0.289,-0.008 -0.461,0.414 -0.48,1.558 -0.609,3.358 -0.68,5.081 z"
   id="path96" />

																</g>

															</g>

															<g
   id="g99">
																<g
   id="g98">
																	<path
   style="fill:#91554a"
   d="m 169.832,300.281 c 0,0 0.047,-0.461 0.469,-1.051 0.445,-0.547 1.348,-1.07 2.305,-1.129 0.941,-0.012 1.859,0.172 2.438,0.531 0.598,0.328 0.949,0.59 0.949,0.59 0,0 -0.465,0.008 -1.098,-0.055 -0.313,-0.055 -0.676,-0.098 -1.055,-0.09 -0.371,0.012 -0.781,-0.113 -1.152,0.008 -1.536,-0.003 -2.883,1.114 -2.856,1.196 z"
   id="path97" />

																</g>

															</g>

														</g>

														<path
   style="fill:#f4a27a"
   d="m 219.863,365.641 c 0,0 -21.137,-10.746 -28.48,-22.824 -6.035,-8.469 -13.164,-51.664 -13.883,-58.375 -0.023,-0.223 -0.051,-0.441 -0.066,-0.664 -0.027,-0.211 -0.043,-0.328 -0.043,-0.328 l 0.016,0.008 c -0.133,-1.391 -0.203,-2.793 -0.203,-4.207 0,-25.867 20.977,-46.832 46.832,-46.832 25.867,0 46.832,20.965 46.832,46.832 0,1.684 -0.094,3.34 -0.266,4.977 v 0 c 0,0 -7.293,49.313 -13.902,58.59 -7.781,13.848 -28.492,22.824 -28.492,22.824 0,0 -3.962,1.444 -8.345,-10e-4 z"
   id="path100" />

														<g
   id="g103">
															<g
   id="g101">
																<path
   style="fill:#050001"
   d="m 261.176,301.734 c 0,0 -0.254,0.395 -3.262,0.746 0,0 -9.648,-14.941 -23.52,2.363 0,0 15.203,-11.523 23.691,0.672 0.001,0.001 1.024,0.102 3.091,-3.781 z"
   id="path101" />

															</g>

															<g
   id="g102">
																<path
   style="fill:#050001"
   d="m 187.922,302.574 c 0,0 0.258,0.391 3.281,0.68 0,0 9.301,-15.16 23.555,1.824 0,0 -15.445,-11.176 -23.664,1.207 0,0 -1.016,0.129 -3.172,-3.711 z"
   id="path102" />

															</g>

														</g>

														<path
   style="fill:#8b8e85"
   d="m 196.816,243.766 c 0,0 -17.605,17.695 -17.074,42.336 0,0 -8.691,-39.305 17.074,-42.336 z"
   id="path103" />

														<path
   style="fill:#8b8e85"
   d="m 199.582,243.383 c 0,0 32.961,-0.379 46.223,10.266 0,0 -19.027,-20.535 -27.406,-22.813 -8.387,-2.281 -19.364,7.223 -18.817,12.547 z"
   id="path104" />

														<g
   id="g111">
															<path
   style="fill:#f4a27a"
   d="m 266.965,299.934 c 0,0 4.75,-8.344 12.152,-8.457 4.395,-0.074 3.098,17.984 -1.43,22.641 -4.527,4.664 -11.121,3.109 -12.594,-1.02 z"
   id="path105" />

															<path
   style="opacity:0.4;fill:#cf6244"
   d="m 267.98,312.508 c 0,0 5.527,1.941 7.902,-2.664 2.387,-4.609 4.707,-10.141 2.855,-14.211 0,0 -5.094,1.191 -9.801,10.703 0.002,0 3.451,4.289 -0.956,6.172 z"
   id="path106" />

															<g
   id="g108">
																<g
   id="g107">
																	<path
   style="fill:#91554a"
   d="m 279.492,301.43 c -0.07,-1.723 -0.199,-3.523 -0.676,-5.082 -0.176,-0.418 -0.332,-0.582 -0.465,-0.414 l -1.102,0.699 c -0.785,0.426 -1.305,1.082 -1.969,1.598 -1.348,0.996 -2.293,2.492 -3.469,3.715 -0.637,0.59 -0.902,1.43 -1.371,2.133 l -1.277,2.207 -0.07,-0.422 c 0.844,1.184 1.508,2.566 1.355,4.09 -0.105,0.363 -0.234,0.723 -0.363,1.063 l -0.773,0.781 c -0.219,0.305 -0.613,0.344 -0.918,0.512 l -0.957,0.41 0.891,-0.527 c 0.27,-0.199 0.641,-0.281 0.801,-0.594 l 0.594,-0.777 0.207,-0.926 c 0.043,-1.266 -0.66,-2.52 -1.473,-3.492 l -0.18,-0.219 0.109,-0.203 1.273,-2.348 c 0.473,-0.746 0.754,-1.645 1.387,-2.273 1.188,-1.32 2.223,-2.754 3.707,-3.832 0.715,-0.527 1.344,-1.254 2.137,-1.602 l 1.148,-0.617 c 0.23,-0.191 0.762,-0.117 0.977,0.141 0.195,0.234 0.293,0.469 0.367,0.699 0.458,1.799 0.235,3.538 0.11,5.28 z"
   id="path107" />

																</g>

															</g>

															<g
   id="g110">
																<g
   id="g109">
																	<path
   style="fill:#91554a"
   d="m 277.898,302.254 c 0.027,-0.078 -1.32,-1.199 -2.859,-1.199 -0.371,-0.117 -0.781,0.004 -1.156,-0.008 -0.375,-0.008 -0.742,0.039 -1.051,0.09 -0.637,0.063 -1.105,0.059 -1.105,0.059 0,0 0.355,-0.266 0.953,-0.59 0.578,-0.363 1.5,-0.547 2.441,-0.531 0.961,0.055 1.863,0.582 2.309,1.129 0.422,0.589 0.468,1.05 0.468,1.05 z"
   id="path108" />

																</g>

															</g>

														</g>

														<path
   style="fill:#5f221b"
   d="m 217.164,319.973 c 0,0 -0.063,6.125 1.625,7.012 1.691,0.89 0.691,-3.438 -1.625,-7.012 z"
   id="path111" />

													</g>

												</g>

												<g
   id="g114">
													<path
   style="fill:#85453e"
   d="m 253.902,314.313 c 0,0 -0.273,-0.152 -0.641,-0.422 -0.352,-0.293 -0.82,-0.684 -1.285,-1.07 -0.406,-0.457 -0.813,-0.91 -1.113,-1.25 -0.289,-0.359 -0.445,-0.629 -0.445,-0.629 0,0 0.277,0.148 0.645,0.422 0.348,0.293 0.816,0.684 1.281,1.07 0.406,0.457 0.813,0.91 1.113,1.25 0.285,0.359 0.445,0.629 0.445,0.629 z"
   id="path113" />

												</g>

												<g
   id="g115">
													<path
   style="fill:#85453e"
   d="m 249.648,311.648 c 0,0 0.289,0.344 0.668,0.898 0.352,0.563 0.824,1.316 1.297,2.066 0.395,0.797 0.789,1.594 1.086,2.188 0.273,0.609 0.418,1.039 0.418,1.039 0,0 -0.289,-0.348 -0.668,-0.898 -0.352,-0.563 -0.824,-1.316 -1.297,-2.07 -0.395,-0.793 -0.789,-1.59 -1.09,-2.188 -0.269,-0.605 -0.414,-1.035 -0.414,-1.035 z"
   id="path114" />

												</g>

												<g
   id="g116">
													<path
   style="fill:#85453e"
   d="m 247.574,312.629 c 0.035,-0.023 0.703,0.777 1.266,1.641 0.477,0.91 0.848,1.883 0.809,1.906 -0.039,0.023 -0.707,-0.777 -1.266,-1.641 -0.477,-0.91 -0.848,-1.883 -0.809,-1.906 z"
   id="path115" />

												</g>

												<g
   id="g117">
													<path
   style="fill:#85453e"
   d="m 194.285,316.441 c 0,0 0.16,-0.27 0.445,-0.629 0.305,-0.34 0.707,-0.789 1.113,-1.242 0.469,-0.391 0.934,-0.781 1.281,-1.074 0.371,-0.273 0.648,-0.422 0.648,-0.422 0,0 -0.16,0.27 -0.445,0.629 -0.305,0.34 -0.711,0.793 -1.113,1.246 -0.469,0.391 -0.938,0.777 -1.285,1.07 -0.37,0.27 -0.644,0.422 -0.644,0.422 z"
   id="path116" />

												</g>

												<g
   id="g118">
													<path
   style="fill:#85453e"
   d="m 198.543,313.777 c 0,0 -0.145,0.43 -0.418,1.039 -0.297,0.594 -0.691,1.391 -1.086,2.188 -0.473,0.754 -0.945,1.508 -1.301,2.07 -0.379,0.551 -0.668,0.898 -0.668,0.898 0,0 0.145,-0.43 0.418,-1.039 0.297,-0.598 0.691,-1.395 1.086,-2.191 0.473,-0.75 0.945,-1.504 1.301,-2.066 0.379,-0.555 0.668,-0.899 0.668,-0.899 z"
   id="path117" />

												</g>

												<g
   id="g119">
													<path
   style="fill:#85453e"
   d="m 200.625,314.758 c 0.039,0.023 -0.332,0.996 -0.813,1.91 -0.563,0.863 -1.23,1.66 -1.27,1.641 -0.039,-0.023 0.332,-0.996 0.809,-1.91 0.567,-0.86 1.235,-1.665 1.274,-1.641 z"
   id="path118" />

												</g>

												<path
   style="fill:#d9dad9"
   d="m 235.215,281.289 c 0,0 10.961,-6.293 19.309,-4.148 0,0 6.016,1.305 6.227,3.258 -10e-4,-10e-4 -9.731,-2.129 -25.536,0.89 z"
   id="path119" />

												<path
   style="fill:#d9dad9"
   d="m 211.188,281.289 c 0,0 -11.098,-6.293 -19.441,-4.148 0,0 -5.883,1.305 -6.102,3.258 0,-10e-4 9.742,-2.133 25.543,0.89 z"
   id="path120" />

											</g>

										</g>

									</g>

								</g>

							</g>

							<path
   style="fill:#58bdcf"
   d="m 279.906,588.961 c 0,-9.969 -13.441,-31.789 -17.672,-39.734 -4.242,-7.949 17.672,-35.5 17.672,-35.5 -9.344,0 -26.164,-7.945 -35.168,-15.899 -9.004,-7.941 -40.797,-12.75 -40.797,-12.75 10.598,-4.277 28.617,4.277 53.824,7.984 19.414,2.863 31.418,-8.438 35.895,-13.773 -1.117,6.258 -2.742,12.543 -5.004,18.766 0,0 -11.266,33.922 -9.25,53.82 1.93,19.039 9.184,49.688 12.492,70.816 0,0 -19.266,16.25 -66.211,16.25 -16.445,0 -28.746,-1.699 -37.879,-3.992 73.587,0.215 92.098,-34.336 92.098,-45.988 z"
   id="path124" />

						</g>

						<g
   id="g126">
							<path
   style="fill:#ffffff"
   d="m 209.941,334.031 c 0,0 3.598,6.383 13.969,6.383 2.02,0 7.43,-0.84 10.621,-6.383 0,0 -20.922,0.469 -24.59,0 z"
   id="path125" />

						</g>

						<g
   id="g127">
							<path
   style="fill:#8e4327"
   d="m 165.84,296.234 c -0.035,-0.379 -0.078,-0.895 -0.129,-1.551 0.043,0.563 0.094,1.075 0.129,1.551 z"
   id="path126" />

						</g>

					</g>

					<path
   style="fill:#d9dad9"
   d="m 187.809,232.418 c -1.684,-10.398 27.414,-25.098 47.406,-23.258 24.844,2.281 62.059,63.562 65.324,76.055 3.27,12.5 -8.066,18.02 -8.066,18.02 2.043,27.094 -6.602,33.102 -6.602,33.102 -5.695,13.426 -40.406,12.797 -40.406,12.797 51.984,-40.543 -18.84,-116.648 -28.301,-116.215 -9.465,0.434 -17.582,10.465 -17.582,10.465 0,0 -7.684,-0.297 -13.508,8.441 -8.117,12.172 -6.652,45.098 -6.652,45.098 l -10.426,-7.422 c 0,0 -5.746,-32.051 2.371,-47.254 5.617,-10.552 16.442,-9.829 16.442,-9.829 z"
   id="path128" />

					<path
   style="opacity:0.5;fill:#8b8e85"
   d="m 168.996,289.5 c 0,0 -3.641,-20.305 -1.035,-36.258 2.059,16.434 6.855,35.949 8.031,36.258 1.535,0.398 1.211,-0.395 1.211,-0.395 -5.441,-24.816 0,-42.875 0,-42.875 1.129,-7.125 21.34,-6.27 21.34,-6.27 0,0 1.488,-19.391 18.621,-19.391 17.129,0 50.816,63.305 50.816,63.305 19.363,7.066 28.496,-8.109 28.496,-8.109 5.766,21.547 -29.039,18.855 -29.039,18.855 5.816,29.566 -9.613,48.852 -9.613,48.852 9.047,-2.871 20.074,-28.469 20.074,-28.469 -0.836,19.363 -8.57,28.469 -8.57,28.469 17.121,-5.48 15.164,-39.195 15.164,-39.195 3.676,-0.078 6.535,-0.699 8.285,-1.207 -0.184,0.109 -0.305,0.164 -0.305,0.164 2.043,27.094 -6.602,33.102 -6.602,33.102 -5.695,13.426 -40.406,12.797 -40.406,12.797 51.984,-40.543 -18.84,-116.648 -28.301,-116.215 -9.465,0.434 -17.582,10.465 -17.582,10.465 0,0 -7.684,-0.297 -13.508,8.441 -8.117,12.172 -6.652,45.098 -6.652,45.098 z"
   id="path129" />

					<path
   style="fill:#223f60"
   d="m 247.141,377.875 c 0,0 34.645,26.719 17.953,97.824 0,0 -21.617,46.387 -20.102,63.879 0,0 37.648,-1.523 44.867,-11.406 0,0 0.406,-15.359 3.801,-53.055 3.469,-38.48 -6.113,-74.059 -20.195,-91.434 -15.039,-18.539 -31.289,-19.809 -31.289,-19.809 0,0 1.054,10.153 4.965,14.001 z"
   id="path130" />

					<path
   style="fill:#0d2a45"
   d="m 265.094,475.699 c 16.691,-71.105 -17.953,-97.824 -17.953,-97.824 -1.359,-1.352 -2.395,-3.484 -3.141,-5.676 13.055,6.895 46.402,32.102 30.82,105.023 -5.539,25.879 -8.828,45.547 -10.734,60.453 -10.055,1.539 -19.094,1.902 -19.094,1.902 -1.515,-17.491 20.102,-63.878 20.102,-63.878 z"
   id="path131" />

					<path
   style="fill:#223f60"
   d="m 204.977,375.93 c 0,0 -34.645,26.727 -17.961,97.828 0,0 21.625,46.391 20.109,63.875 0,0 -37.641,-1.523 -44.867,-11.41 0,0 -0.398,-15.352 -3.801,-53.047 -3.469,-38.48 6.113,-74.059 20.195,-91.43 15.031,-18.551 31.289,-19.813 31.289,-19.813 0,0 -1.046,10.153 -4.964,13.997 z"
   id="path132" />

					<path
   style="fill:#0d2a45"
   d="m 187.016,473.758 c -16.684,-71.102 17.961,-97.828 17.961,-97.828 1.367,-1.348 2.395,-3.477 3.141,-5.672 -13.047,6.887 -46.402,32.102 -30.82,105.02 5.535,25.879 8.836,45.551 10.734,60.457 10.063,1.535 19.094,1.898 19.094,1.898 1.515,-17.485 -20.11,-63.875 -20.11,-63.875 z"
   id="path133" />

					<path
   style="opacity:0.3;fill:#3c2e2c"
   d="m 299.172,760.754 c -3.594,46.644 -9.297,105.258 -14.645,144.219 0,0 -53.105,19.758 -111.816,0 -3.047,-22.195 -6.207,-50.766 -9.031,-79.863 55.328,39.706 101.914,-5.856 135.492,-64.356 z"
   id="path134" />

				</g>

			</g>
  </g>
</svg>
