<?xml version="1.0" encoding="UTF-8" standalone="no"?>
<!-- Generator: Adobe Illustrator 27.5.0, SVG Export Plug-In . SVG Version: 6.00 Build 0)  -->

<svg
   version="1.1"
   x="0px"
   y="0px"
   viewBox="0 0 383.42657 1475.9389"
   xml:space="preserve"
   id="svg1"
   sodipodi:docname="oldwoman1.svg"
   width="383.42657"
   height="1475.9388"
   inkscape:version="1.4.2 (f4327f4, 2025-05-13)"
   xmlns:inkscape="http://www.inkscape.org/namespaces/inkscape"
   xmlns:sodipodi="http://sodipodi.sourceforge.net/DTD/sodipodi-0.dtd"
   xmlns="http://www.w3.org/2000/svg"
   xmlns:svg="http://www.w3.org/2000/svg"><defs
   id="defs1" /><sodipodi:namedview
   id="namedview1"
   pagecolor="#ffffff"
   bordercolor="#000000"
   borderopacity="0.25"
   inkscape:showpageshadow="2"
   inkscape:pageopacity="0.0"
   inkscape:pagecheckerboard="0"
   inkscape:deskcolor="#d1d1d1"
   inkscape:zoom="0.689"
   inkscape:cx="143.6865"
   inkscape:cy="554.4267"
   inkscape:window-width="2880"
   inkscape:window-height="1676"
   inkscape:window-x="-12"
   inkscape:window-y="-12"
   inkscape:window-maximized="1"
   inkscape:current-layer="svg1" />

<g
   id="OBJECTS"
   transform="translate(-23.960851,287.81277)">
	
	
	
	
</g>
<g
   id="g219"
   transform="translate(-672.45974,-430.81975)">
		<g
   id="g160">
			<path
   style="fill:#f4a27a"
   d="m 799.547,1779.055 c 0,0 -35.176,-289.227 -38.906,-357.684 h 87.106 c 0,0 -13.582,268.809 -16.465,357.684 -0.001,0 -21.442,16.711 -31.735,0 z"
   id="path152" />
			<path
   style="fill:#f4a27a"
   d="m 918.496,1782.793 c 0,0 35.18,-289.23 38.914,-357.684 h -87.109 c 0,0 14.359,269.371 17.242,358.25 0,0 20.668,16.145 30.953,-0.566 z"
   id="path153" />
			<path
   style="fill:#f4a27a"
   d="m 887.281,1778.355 c 0,0 0,30.09 -3.422,41.48 0,0 4.977,20 20.531,20 16.063,0 18.981,-15.527 20.535,-20 0,0 -7.16,-31.84 -5.91,-41.48 z"
   id="path154" />
			<path
   style="fill:#001d2f"
   d="m 888.484,1814.75 c 0,0 -4.629,-2.125 -8.672,7.207 -4.043,9.332 -1.555,37.668 -9.691,52.527 -2.426,4.445 -9.641,18.047 -7.148,23.328 2.488,5.293 53.199,15.559 83.066,0 0,0 2.176,-9.641 -4.359,-26.75 -6.535,-17.113 -10.266,-35.777 -11.512,-46.668 -1.242,-10.883 -8.399,-11.195 -8.399,-11.195 z"
   id="path155" />
			<path
   style="fill:#f4a27a"
   d="m 889.148,1819.836 c 0,0 22.981,-0.605 30.797,-1.66 0,0 5.598,15.941 -2.18,21.66 0,0 -22.394,1.047 -30.484,1.672 0,0 -1.859,-16.375 1.867,-21.672 z"
   id="path156" />
			<path
   style="fill:#f4a27a"
   d="m 799.547,1779.055 c 0,0 0,30.086 -3.418,41.488 0,0 4.973,20 20.531,20 16.063,0 18.977,-15.531 20.531,-20 0,0 -7.152,-31.844 -5.91,-41.488 z"
   id="path157" />
			<path
   style="fill:#554743"
   d="m 960.769,1701.938 c 15.852,-115.563 33.457,-325.793 33.41,-383.34 -0.063,-74.348 -24.309,-142.629 -24.309,-142.629 l -111.219,2.254 -111.215,-2.254 c 0,0 -24.242,68.281 -24.309,142.629 -0.047,57.547 17.559,267.777 33.41,383.34 0.002,0 96.994,36.085 204.232,0 z"
   id="path158" />
			<path
   style="fill:#001d2f"
   d="m 800.75,1815.449 c 0,0 -4.625,-2.117 -8.668,7.211 -4.043,9.336 -1.555,37.668 -9.688,52.523 -2.434,4.441 -9.644,18.047 -7.156,23.332 2.492,5.285 53.203,15.555 83.066,0 0,0 2.176,-9.641 -4.356,-26.754 -6.531,-17.109 -10.269,-35.773 -11.508,-46.668 -1.25,-10.891 -8.402,-11.195 -8.402,-11.195 z"
   id="path159" />
			<path
   style="fill:#f4a27a"
   d="m 801.414,1820.543 c 0,0 22.98,-0.609 30.801,-1.672 0,0 5.602,15.953 -2.176,21.672 0,0 -22.402,1.043 -30.492,1.664 0,0 -1.856,-16.375 1.867,-21.664 z"
   id="path160" />
		</g>
		<path
   style="fill:#8b8e85"
   d="m 962.352,611.394 c 0,0 14.223,64.379 -14.449,74.727 -28.668,10.352 -57.613,-1.473 -57.613,-1.473 l 49.566,-83.258 z"
   id="path161" />
		<g
   id="g213">
			<g
   id="g210">
				<g
   id="g209">
					<g
   id="g208">
						<g
   id="g179">
							<g
   id="g178">
								<path
   style="fill:#f4a27a"
   d="m 1036.707,875.383 -50.723,31.801 c 9.898,36.481 22.586,107.496 22.586,107.496 1.5,68.77 30.48,197.508 30.48,197.508 l 16.582,-0.828 c -6.059,-128 -13.66,-197.348 -13.66,-197.348 -2.652,-18.039 -3.14,-57.254 -5.265,-138.629 z"
   id="path162" />
								<path
   style="fill:#e38a62"
   d="m 992.641,934.621 c 1.68,-2.07 2.856,-3.301 2.856,-3.301 l 42.457,-6.465 c 0.547,21.98 1.004,39.438 1.527,53.258 -11.254,1.918 -24.672,2.707 -37.828,-0.105 -2.645,-13.504 -5.801,-29.004 -9.012,-43.387 z"
   id="path163" />
								<path
   style="fill:#cf6744"
   d="m 1035.656,1230.449 c -0.258,3.902 -1.168,22.43 -5.703,28.164 -5.34,6.773 -11.168,15.211 -7.395,16.988 3.777,1.789 12.43,-5.449 19.273,-16.918 2.477,-4.156 5.039,-10.254 7.289,-16.762 z"
   id="path164" />
								<path
   style="fill:#db7b58"
   d="m 1038.371,1232.684 c -0.254,3.898 -3.434,26.223 -7.965,31.969 -5.336,6.766 -11.164,15.211 -7.395,16.988 3.77,1.781 12.43,-5.461 19.273,-16.922 2.477,-4.156 5.043,-10.254 7.289,-16.77 z"
   id="path165" />
								<path
   style="fill:#f4a27a"
   d="m 1038.496,1210.23 c 0,0 -16.273,19.047 -19.504,26.582 0,0 -9.969,14 -12.625,16.234 -2.66,2.234 2.234,7.707 12.926,-3.277 10.691,-10.98 18.051,-13.344 20,-12.398 0,0 -0.738,22.699 -5.559,29.836 -9.656,14.301 -16.797,22.047 -12.879,23.488 3.914,1.438 22.543,-16.836 28.34,-28.867 5.801,-12.027 7.543,-43.77 6.324,-52.93 z"
   id="path166" />
								<path
   style="fill:#e98e66"
   d="m 993.301,774.727 c -1.063,-4.867 -5.555,-9.258 -6.566,-9.809 -7.098,-3.871 -83.715,-25.676 -83.715,-25.676 -13.797,-19.281 -10.871,-47.738 -10.871,-47.738 l -27.984,-12.727 v -0.188 l -0.25,0.094 -0.246,-0.094 v 0.188 l -27.957,12.727 c 0,0 -0.055,35.156 -10.894,47.738 0,0 -80,23.211 -87.094,27.086 -1.016,0.547 -2.063,3.531 -3.016,8.398 l 136.109,71.844 z"
   id="path167" />
								<path
   style="fill:#f4a27a"
   d="m 691.637,875.383 50.723,31.801 c -9.898,36.481 -22.582,107.496 -22.582,107.496 -1.504,68.77 -30.484,197.508 -30.484,197.508 l -16.586,-0.828 c 6.059,-128 13.664,-197.348 13.664,-197.348 2.647,-18.039 3.144,-57.254 5.265,-138.629 z"
   id="path168" />
								<path
   style="fill:#e38a62"
   d="m 735.707,934.621 c -1.68,-2.07 -2.855,-3.301 -2.855,-3.301 l -42.461,-6.465 c -0.551,21.98 -1.004,39.438 -1.523,53.258 11.25,1.918 24.668,2.707 37.82,-0.105 2.652,-13.504 5.804,-29.004 9.019,-43.387 z"
   id="path169" />
								<path
   style="fill:#64cae0"
   d="m 764.559,757.223 c 0,0 -44.895,7.957 -61.344,35.156 -12.144,20.082 -21.933,148.539 -21.933,148.539 0,0 17.055,30.043 53.633,24.188 l 30.07,-77.895 z"
   id="path170" />
								<path
   style="fill:#58bdcf"
   d="m 734.914,965.106 30.07,-77.895 -0.309,-93.734 c -0.793,-4.027 -1.371,-5.566 -1.66,-3.809 -2.324,14.226 -18,19.703 -39.883,71.879 -20,47.664 -10.23,95.289 -8.394,103.156 5.91,1.274 12.621,1.613 20.176,0.403 z"
   id="path171" />
								<path
   style="fill:#64cae0"
   d="m 963.656,757.223 c 0,0 44.891,7.957 61.348,35.156 12.141,20.082 21.934,148.539 21.934,148.539 0,0 -17.063,30.043 -53.637,24.188 l -30.07,-77.895 z"
   id="path172" />
								<path
   style="fill:#58bdcf"
   d="m 1013.961,900.273 c 0.633,-29.031 -38.852,-101.605 -38.852,-101.605 l -11.668,24.781 -0.211,63.762 30.07,77.895 c 7.75,1.242 14.621,0.863 20.641,-0.496 -0.097,-6.606 -0.539,-38.454 0.02,-64.337 z"
   id="path173" />
								<path
   style="fill:#c66a42"
   d="m 833.891,713.68 c 12.953,8.746 34.813,21.93 46.063,19.746 6.156,-1.195 11.75,-4.09 16.387,-7.27 -6.004,-16.941 -4.191,-34.652 -4.191,-34.652 l -27.984,-12.727 v -0.188 l -0.25,0.094 -0.246,-0.094 v 0.188 l -27.957,12.727 c -0.002,0 -0.025,10.562 -1.822,22.176 z"
   id="path174" />
								<path
   style="fill:#64cae0"
   d="m 765.883,1057.035 c -3.523,34.781 -16.766,90.754 -22.816,129.344 0,0 35.176,29.684 120.941,29.684 92.93,0 113.734,-29.684 113.734,-29.684 -2.578,-15.723 -5.82,-37.109 -8.77,-61.281 -7.438,-61.004 -7.199,-119.078 4.227,-159.234 0,0 14.246,-44.406 17.125,-83.973 3.066,-42.098 -21.352,-122.867 -21.352,-122.867 l -38.824,-13.141 c 0,0 -28.07,28.488 -55.086,28.973 -15.086,0.269 -61.16,-3.281 -73.715,-28.723 l -39.875,12.07 c 0,0 -47.313,104.742 -12.477,200.539 10e-4,0 20.575,61.949 16.888,98.293 z"
   id="path175" />
								<path
   style="fill:#cf6744"
   d="m 692.688,1230.449 c 0.254,3.902 1.172,22.43 5.703,28.164 5.336,6.773 11.164,15.211 7.391,16.988 -3.77,1.789 -12.426,-5.449 -19.27,-16.918 -2.473,-4.156 -5.043,-10.254 -7.289,-16.762 z"
   id="path176" />
								<path
   style="fill:#db7b58"
   d="m 689.977,1232.684 c 0.254,3.898 3.434,26.223 7.961,31.969 5.34,6.766 11.164,15.211 7.398,16.988 -3.773,1.781 -12.43,-5.461 -19.273,-16.922 -2.481,-4.156 -5.047,-10.254 -7.293,-16.77 z"
   id="path177" />
								<path
   style="fill:#f4a27a"
   d="m 689.852,1210.23 c 0,0 16.273,19.047 19.496,26.582 0,0 9.973,14 12.629,16.234 2.66,2.234 -2.23,7.707 -12.922,-3.277 -10.695,-10.98 -18.059,-13.344 -20,-12.398 0,0 0.734,22.699 5.559,29.836 9.656,14.301 16.793,22.047 12.875,23.488 -3.91,1.438 -22.543,-16.836 -28.34,-28.867 -5.801,-12.027 -7.543,-43.77 -6.32,-52.93 z"
   id="path178" />
							</g>
						</g>
						<g
   id="g207">
							<g
   id="g206">
								<g
   id="g205">
									<g
   id="g198">
										<g
   id="g197">
											<g
   id="g185">
												<path
   style="fill:#f4a27a"
   d="m 946.051,593.293 c 0,0 8.684,-15.238 22.199,-15.453 8.031,-0.125 5.66,32.84 -2.613,41.359 -8.273,8.516 -20.316,5.68 -22.992,-1.867 z"
   id="path179" />
												<path
   style="opacity:0.4;fill:#cf6244"
   d="m 947.902,616.262 c 0,0 10.098,3.539 14.449,-4.867 4.352,-8.414 8.586,-18.527 5.207,-25.949 0,0 -9.309,2.168 -17.91,19.543 0,-10e-4 6.305,7.831 -1.746,11.273 z"
   id="path180" />
												<g
   id="g182">
													<g
   id="g181">
														<path
   style="fill:#91554a"
   d="m 968.938,596.019 c -0.09,-1.594 -0.18,-3.18 -0.356,-4.754 -0.199,-1.555 -0.394,-3.156 -0.887,-4.535 -0.137,-0.34 -0.309,-0.613 -0.473,-0.801 -0.203,-0.019 -0.094,-0.137 -0.422,0.059 -0.734,0.348 -1.398,0.754 -1.969,1.215 -1.195,0.828 -2.457,1.871 -3.613,2.883 -2.344,2.07 -4.43,4.418 -6.359,6.859 -1.047,1.164 -1.766,2.551 -2.672,3.82 -0.465,0.629 -0.719,1.367 -1.09,2.047 l -1.039,2.082 -0.125,-0.769 c 1.547,2.16 2.805,4.68 2.504,7.477 -0.152,1.387 -0.984,2.641 -2.043,3.41 -1.019,0.848 -2.262,1.273 -3.473,1.629 1.137,-0.566 2.273,-1.137 3.117,-2.027 0.898,-0.828 1.395,-1.965 1.445,-3.109 0.105,-2.324 -1.219,-4.621 -2.711,-6.398 l -0.313,-0.371 0.188,-0.402 1.031,-2.215 c 0.371,-0.723 0.633,-1.516 1.098,-2.18 0.906,-1.348 1.637,-2.824 2.691,-4.059 1.93,-2.613 4.246,-4.902 6.695,-7.012 1.273,-1.027 2.445,-2.055 3.941,-2.918 0.723,-0.477 1.445,-0.84 2.176,-1.125 0.363,-0.277 1.371,-0.219 1.773,0.262 0.352,0.43 0.539,0.863 0.672,1.277 0.473,1.656 0.512,3.262 0.504,4.871 -0.013,1.601 -0.095,3.199 -0.29,4.784 z"
   id="path181" />
													</g>
												</g>
												<g
   id="g184">
													<g
   id="g183">
														<path
   style="fill:#91554a"
   d="m 966.023,597.527 c 0,0 -0.605,-0.594 -1.531,-1.168 -0.508,-0.234 -1.035,-0.543 -1.684,-0.68 -0.59,-0.273 -1.301,-0.309 -2.004,-0.34 -0.676,-0.219 -1.43,0.008 -2.109,-0.016 -0.691,-0.016 -1.355,0.07 -1.926,0.168 -1.148,0.133 -2.012,0.102 -2.012,0.102 0,0 0.637,-0.504 1.738,-1.078 0.559,-0.246 1.18,-0.676 1.98,-0.734 0.785,-0.066 1.594,-0.391 2.477,-0.234 0.871,0.125 1.719,0.281 2.461,0.695 0.793,0.27 1.285,0.961 1.754,1.363 0.794,1.067 0.856,1.922 0.856,1.922 z"
   id="path182" />
													</g>
												</g>
											</g>
											<path
   style="fill:#f4a27a"
   d="m 874.644,716.902 c 0,0 38.606,-19.633 52.024,-41.684 11.019,-15.473 24.019,-94.371 25.351,-106.621 0.039,-0.41 0.09,-0.805 0.129,-1.215 0.039,-0.391 0.059,-0.602 0.059,-0.602 l -0.012,0.012 c 0.227,-2.535 0.356,-5.09 0.356,-7.684 0,-47.238 -38.289,-85.531 -85.527,-85.531 -47.238,0 -85.535,38.293 -85.535,85.531 0,3.078 0.168,6.109 0.484,9.094 h -0.008 c 0,0 13.328,90.07 25.41,107.016 14.199,25.281 52.023,41.684 52.023,41.684 0,0 7.235,2.645 15.246,0 z"
   id="path185" />
											<g
   id="g188">
												<g
   id="g186">
													<path
   style="fill:#050001"
   d="m 799.199,600.176 c 0,0 0.457,0.73 5.945,1.367 0,0 17.621,-27.289 42.957,4.313 0,0 -27.766,-21.039 -43.266,1.23 10e-4,0 -1.87,0.191 -5.636,-6.91 z"
   id="path186" />
												</g>
												<g
   id="g187">
													<path
   style="fill:#050001"
   d="m 932.977,601.715 c 0,0 -0.473,0.719 -5.98,1.234 0,0 -16.992,-27.68 -43.039,3.336 0,0 28.231,-20.406 43.227,2.207 -10e-4,0 1.87,0.235 5.792,-6.777 z"
   id="path187" />
												</g>
											</g>
											<path
   style="fill:#8b8e85"
   d="m 916.75,494.297 c 0,0 32.141,32.332 31.152,77.336 0,0 15.879,-71.789 -31.152,-77.336 z"
   id="path188" />
											<path
   style="fill:#8b8e85"
   d="m 911.684,493.605 c 0,0 -60.195,-0.691 -84.414,18.754 0,0 34.731,-37.504 50.047,-41.672 15.316,-4.164 35.363,13.196 34.367,22.918 z"
   id="path189" />
											<g
   id="g196">
												<path
   style="fill:#f4a27a"
   d="m 788.621,596.891 c 0,0 -8.684,-15.238 -22.207,-15.453 -8.027,-0.121 -5.652,32.848 2.621,41.363 8.273,8.516 20.313,5.676 22.988,-1.863 z"
   id="path190" />
												<path
   style="opacity:0.4;fill:#cf6244"
   d="m 786.766,619.859 c 0,0 -10.098,3.547 -14.449,-4.867 -4.352,-8.414 -8.582,-18.523 -5.211,-25.949 0,0 9.313,2.176 17.918,19.547 -10e-4,0 -6.309,7.832 1.742,11.269 z"
   id="path191" />
												<g
   id="g193">
													<g
   id="g192">
														<path
   style="fill:#91554a"
   d="m 765.734,599.621 c -0.195,-1.586 -0.277,-3.184 -0.297,-4.789 -0.008,-1.605 0.035,-3.211 0.504,-4.871 0.137,-0.414 0.32,-0.848 0.676,-1.277 0.398,-0.48 1.41,-0.539 1.773,-0.262 0.731,0.285 1.453,0.648 2.172,1.125 0.758,0.418 1.422,0.906 2.047,1.406 0.633,0.504 1.313,0.957 1.898,1.516 2.449,2.109 4.766,4.395 6.695,7.008 1.051,1.238 1.789,2.719 2.691,4.063 0.465,0.668 0.727,1.461 1.098,2.184 l 1.031,2.215 0.184,0.402 -0.309,0.371 c -1.496,1.777 -2.82,4.074 -2.715,6.395 0.055,1.148 0.547,2.285 1.449,3.113 0.844,0.887 1.981,1.461 3.113,2.027 -1.207,-0.355 -2.453,-0.781 -3.469,-1.633 -1.059,-0.766 -1.891,-2.02 -2.043,-3.406 -0.301,-2.797 0.953,-5.316 2.504,-7.48 l -0.129,0.773 -1.035,-2.086 c -0.371,-0.68 -0.629,-1.414 -1.094,-2.047 -0.902,-1.266 -1.625,-2.656 -2.672,-3.82 -1.926,-2.441 -4.008,-4.793 -6.356,-6.863 -1.156,-1.012 -2.418,-2.055 -3.613,-2.883 -0.57,-0.461 -1.234,-0.867 -1.969,-1.215 -0.332,-0.191 -0.219,-0.078 -0.422,-0.059 -0.168,0.191 -0.336,0.461 -0.473,0.801 -0.496,1.379 -0.688,2.984 -0.891,4.539 -0.172,1.57 -0.258,3.159 -0.348,4.753 z"
   id="path192" />
													</g>
												</g>
												<g
   id="g195">
													<g
   id="g194">
														<path
   style="fill:#91554a"
   d="m 768.644,601.125 c 0,0 0.063,-0.859 0.859,-1.918 0.469,-0.406 0.961,-1.094 1.75,-1.367 0.738,-0.414 1.594,-0.566 2.461,-0.691 0.879,-0.156 1.691,0.164 2.473,0.231 0.801,0.063 1.426,0.492 1.981,0.738 1.101,0.57 1.734,1.074 1.734,1.074 0,0 -0.859,0.035 -2.012,-0.102 -0.566,-0.098 -1.23,-0.18 -1.922,-0.164 -0.676,0.02 -1.43,-0.203 -2.105,0.016 -0.703,0.027 -1.41,0.063 -2.004,0.336 -0.648,0.137 -1.176,0.445 -1.684,0.68 -0.921,0.569 -1.531,1.167 -1.531,1.167 z"
   id="path193" />
													</g>
												</g>
											</g>
											<path
   style="fill:#5f221b"
   d="m 879.574,633.488 c 0,0 0.109,11.191 -2.973,12.813 -3.078,1.625 -1.269,-6.274 2.973,-12.813 z"
   id="path196" />
										</g>
									</g>
									<g
   id="g199">
										<path
   style="fill:#85453e"
   d="m 812.473,623.152 c 0,0 1.227,-1.914 2.844,-3.426 1.563,-1.563 3.519,-2.723 3.519,-2.723 0,0 -1.223,1.914 -2.844,3.426 -1.566,1.563 -3.519,2.723 -3.519,2.723 z"
   id="path198" />
									</g>
									<g
   id="g200">
										<path
   style="fill:#85453e"
   d="m 820.238,618.285 c 0,0 -1.125,3.086 -2.742,5.898 -1.551,2.844 -3.598,5.418 -3.594,5.418 0,0 1.125,-3.086 2.746,-5.898 1.551,-2.844 3.594,-5.418 3.59,-5.418 z"
   id="path199" />
									</g>
									<g
   id="g201">
										<path
   style="fill:#85453e"
   d="m 824.035,620.082 c 0,0 -0.496,1.883 -1.477,3.484 -0.914,1.641 -2.32,2.992 -2.32,2.992 0.004,0 0.496,-1.883 1.48,-3.484 0.915,-1.636 2.321,-2.992 2.317,-2.992 z"
   id="path200" />
									</g>
									<g
   id="g202">
										<path
   style="fill:#85453e"
   d="m 921.348,627.047 c 0,0 -1.957,-1.16 -3.523,-2.727 -1.617,-1.512 -2.844,-3.426 -2.844,-3.426 0,0 1.957,1.16 3.523,2.727 1.617,1.512 2.844,3.426 2.844,3.426 z"
   id="path201" />
									</g>
									<g
   id="g203">
										<path
   style="fill:#85453e"
   d="m 913.582,622.184 c -0.004,0 2.043,2.57 3.594,5.414 1.617,2.808 2.738,5.891 2.742,5.891 0,0 -2.043,-2.566 -3.594,-5.414 -1.613,-2.809 -2.738,-5.891 -2.742,-5.891 z"
   id="path202" />
									</g>
									<g
   id="g204">
										<path
   style="fill:#85453e"
   d="m 909.785,623.973 c -0.004,0 1.398,1.355 2.316,2.992 0.984,1.602 1.477,3.484 1.48,3.484 0,0 -1.402,-1.356 -2.32,-2.992 -0.98,-1.598 -1.476,-3.484 -1.476,-3.484 z"
   id="path203" />
									</g>
									<path
   style="fill:#d9dad9"
   d="m 846.609,562.844 c 0,0 -20.027,-11.504 -35.273,-7.574 0,0 -10.977,2.379 -11.367,5.949 0,0 17.773,-3.891 46.64,1.625 z"
   id="path204" />
									<path
   style="fill:#d9dad9"
   d="m 890.492,562.844 c 0,0 20.266,-11.504 35.512,-7.574 0,0 10.734,2.379 11.129,5.949 0,0 -17.774,-3.899 -46.641,1.625 z"
   id="path205" />
								</g>
							</g>
						</g>
					</g>
				</g>
				<path
   style="fill:#58bdcf"
   d="m 764.984,1124.777 c 0,-18.215 24.543,-58.063 32.285,-72.578 7.746,-14.516 -32.285,-64.836 -32.285,-64.836 17.063,0 47.77,-14.512 64.219,-29.027 16.453,-14.516 74.516,-23.293 74.516,-23.293 -19.355,-7.809 -52.262,7.809 -98.289,14.586 -35.484,5.215 -57.387,-15.422 -65.57,-25.16 2.043,11.422 5.004,22.91 9.137,34.273 0,0 20.574,61.949 16.887,98.293 -3.523,34.781 -16.766,90.754 -22.816,129.344 0,0 35.176,29.684 120.941,29.684 30.031,0 52.492,-3.105 69.191,-7.305 -134.415,0.406 -168.216,-62.695 -168.216,-83.981 z"
   id="path209" />
			</g>
			<g
   id="g211">
				<path
   style="fill:#ffffff"
   d="m 892.762,659.172 c 0,0 -6.566,11.656 -25.508,11.656 -3.691,0 -13.566,-1.539 -19.395,-11.656 0,0 38.211,0.863 44.903,0 z"
   id="path210" />
			</g>
			<g
   id="g212">
				<path
   style="fill:#8e4327"
   d="m 973.313,590.129 c 0.063,-0.68 0.144,-1.625 0.238,-2.828 -0.086,1.031 -0.168,1.957 -0.238,2.828 z"
   id="path211" />
			</g>
		</g>
		<path
   style="fill:#d9dad9"
   d="m 933.199,473.578 c 3.07,-18.988 -50.078,-45.82 -86.59,-42.473 -45.367,4.164 -113.359,116.086 -119.32,138.906 -5.957,22.82 14.73,32.91 14.73,32.91 -3.726,49.48 12.066,60.457 12.066,60.457 10.414,24.519 73.785,23.367 73.785,23.367 -94.926,-74.051 34.414,-213.035 51.703,-212.25 17.289,0.785 32.109,19.109 32.109,19.109 0,0 14.039,-0.535 24.676,15.422 14.813,22.223 12.152,82.367 12.152,82.367 l 19.035,-13.555 c 0,0 10.5,-58.539 -4.316,-86.312 -10.276,-19.256 -30.03,-17.948 -30.03,-17.948 z"
   id="path213" />
		<path
   style="opacity:0.5;fill:#8b8e85"
   d="m 967.547,577.84 c 0,0 6.648,-37.082 1.894,-66.226 -3.758,30.02 -12.523,65.668 -14.684,66.226 -2.797,0.727 -2.207,-0.73 -2.207,-0.73 9.945,-45.324 0,-78.297 0,-78.297 -2.055,-13.02 -38.969,-11.457 -38.969,-11.457 0,0 -2.723,-35.418 -34.008,-35.418 -31.285,0 -92.809,115.625 -92.809,115.625 -35.367,12.902 -52.059,-14.809 -52.059,-14.809 -10.523,39.359 53.039,34.43 53.039,34.43 -10.613,54 17.563,89.231 17.563,89.231 -16.512,-5.242 -36.664,-52 -36.664,-52 1.535,35.375 15.652,52 15.652,52 -31.266,-10.004 -27.691,-71.59 -27.691,-71.59 -6.707,-0.141 -11.934,-1.273 -15.141,-2.199 0.355,0.195 0.555,0.297 0.555,0.297 -3.726,49.48 12.066,60.457 12.066,60.457 10.414,24.519 73.785,23.367 73.785,23.367 -94.926,-74.051 34.414,-213.035 51.703,-212.25 17.289,0.785 32.109,19.109 32.109,19.109 0,0 14.039,-0.535 24.676,15.422 14.813,22.223 12.152,82.367 12.152,82.367 z"
   id="path214" />
		<path
   style="fill:#223f60"
   d="m 824.816,739.242 c 0,0 -63.262,48.809 -32.793,178.668 0,0 39.496,84.723 36.723,116.668 0,0 -68.754,-2.781 -81.949,-20.832 0,0 -0.73,-28.047 -6.938,-96.894 -6.324,-70.281 11.152,-135.254 36.887,-166.992 27.461,-33.867 57.144,-36.18 57.144,-36.18 0,0 -1.925,18.539 -9.074,25.562 z"
   id="path215" />
		<path
   style="fill:#0d2a45"
   d="m 792.023,917.91 c -30.469,-129.859 32.793,-178.668 32.793,-178.668 2.508,-2.465 4.375,-6.355 5.738,-10.359 -23.828,12.582 -84.734,58.633 -56.277,191.809 10.098,47.269 16.125,83.195 19.602,110.418 18.371,2.801 34.867,3.469 34.867,3.469 2.773,-31.946 -36.723,-116.669 -36.723,-116.669 z"
   id="path216" />
		<path
   style="fill:#223f60"
   d="m 901.84,735.695 c 0,0 63.258,48.809 32.789,178.668 0,0 -39.492,84.723 -36.719,116.668 0,0 68.75,-2.781 81.945,-20.832 0,0 0.734,-28.051 6.934,-96.895 6.336,-70.281 -11.145,-135.254 -36.879,-166.992 -27.461,-33.867 -57.148,-36.184 -57.148,-36.184 0,0 1.929,18.548 9.078,25.567 z"
   id="path217" />
		<path
   style="fill:#0d2a45"
   d="M 934.629,914.363 C 965.098,784.504 901.84,735.695 901.84,735.695 c -2.512,-2.465 -4.375,-6.356 -5.738,-10.359 23.824,12.582 84.734,58.633 56.277,191.809 -10.102,47.27 -16.129,83.195 -19.602,110.418 -18.371,2.801 -34.867,3.469 -34.867,3.469 -2.773,-31.946 36.719,-116.669 36.719,-116.669 z"
   id="path218" />
		<path
   style="opacity:0.3;fill:#3c2e2c"
   d="m 729.793,1438.531 c 6.562,85.199 16.984,192.246 26.746,263.406 0,0 96.992,36.086 204.23,0 5.559,-40.531 11.336,-92.711 16.484,-145.863 -101.058,72.524 -186.128,-10.687 -247.46,-117.543 z"
   id="path219" />
	</g></svg>
