<?xml version="1.0" encoding="UTF-8" standalone="no"?>
<!-- Created with Inkscape (http://www.inkscape.org/) -->

<svg
   width="36.137089mm"
   height="63.594658mm"
   viewBox="0 0 36.137094 63.594657"
   version="1.1"
   id="svg1"
   inkscape:version="1.4.2 (f4327f4, 2025-05-13)"
   sodipodi:docname="Pine Tree-20.svg"
   xmlns:inkscape="http://www.inkscape.org/namespaces/inkscape"
   xmlns:sodipodi="http://sodipodi.sourceforge.net/DTD/sodipodi-0.dtd"
   xmlns="http://www.w3.org/2000/svg"
   xmlns:svg="http://www.w3.org/2000/svg">
  <sodipodi:namedview
     id="namedview1"
     pagecolor="#ffffff"
     bordercolor="#000000"
     borderopacity="0.25"
     inkscape:showpageshadow="2"
     inkscape:pageopacity="0.0"
     inkscape:pagecheckerboard="0"
     inkscape:deskcolor="#d1d1d1"
     inkscape:document-units="mm"
     inkscape:zoom="1.2275954"
     inkscape:cx="227.27358"
     inkscape:cy="-188.17275"
     inkscape:window-width="2880"
     inkscape:window-height="1676"
     inkscape:window-x="-12"
     inkscape:window-y="-12"
     inkscape:window-maximized="1"
     inkscape:current-layer="g30" />
  <defs
     id="defs1" />
  <g
     inkscape:label="图层 1"
     inkscape:groupmode="layer"
     id="layer1"
     transform="translate(-113.41178,-267.0618)">
    <g
       id="g30"
       transform="matrix(0.26458333,0,0,0.26458333,149.64621,130.62585)">
		
		
		
		
		
		
		
			
		
		
		
	<g
   id="g22"
   transform="translate(-276.71755,511.9452)">
		<g
   id="g16">
			<path
   style="fill:#925534"
   d="m 224.949,235.759 c -3.687,-7.456 -5.338,-14.897 -5.924,-23.909 -1.072,-16.507 -1.619,-33.089 -2.429,-49.635 -0.031,-0.555 -0.059,-1.109 -0.104,-1.663 -0.508,-6.292 -0.198,-13.067 -2.315,-18.84 -0.53,-1.447 -2.682,-2.762 -3.718,-1.679 -1.037,-1.083 -3.188,0.233 -3.719,1.679 -2.117,5.773 -1.807,12.547 -2.315,18.84 -0.045,0.553 -0.073,1.108 -0.104,1.663 -0.809,16.546 -1.357,33.128 -2.428,49.635 -0.585,9.013 -2.237,16.454 -5.924,23.909 -0.653,1.321 -1.404,2.794 -2.241,4.238 0.342,1.75 1.349,2.823 3.29,3.389 3.147,0.92 23.735,0.92 26.882,0 1.94,-0.567 2.948,-1.639 3.29,-3.389 -0.837,-1.445 -1.588,-2.918 -2.241,-4.238 z"
   id="path12-6" />

			<path
   style="opacity:0.68;fill:#c37249"
   d="m 210.77,196.096 c 0.862,-0.525 1.941,0.158 1.961,1.125 0.076,3.812 0.287,7.622 0.693,11.413 1.154,10.773 4.196,25.239 13.694,31.585 0.019,-0.079 0.056,-0.141 0.072,-0.223 -0.837,-1.444 -1.588,-2.917 -2.241,-4.238 -3.687,-7.456 -5.338,-14.897 -5.924,-23.909 -1.072,-16.507 -1.619,-33.089 -2.429,-49.635 -0.031,-0.555 -0.059,-1.109 -0.104,-1.663 -0.508,-6.292 -0.198,-13.067 -2.315,-18.84 -0.53,-1.447 -2.682,-2.762 -3.719,-1.679 -1.037,-1.082 -3.188,0.233 -3.719,1.679 -2.117,5.773 -1.807,12.547 -2.315,18.84 -0.045,0.553 -0.073,1.108 -0.104,1.663 -0.564,11.52 -1.008,23.057 -1.583,34.574 2.226,1.502 5.846,0.64 8.033,-0.692 z"
   id="path13-6" />

			<path
   style="fill:#72b755"
   d="m 273.471,140.006 c -7.461,-0.443 -14.105,-4.185 -20.401,-7.905 -1.216,-0.718 -2.444,-1.442 -3.665,-2.172 -1.346,-0.962 -2.726,-1.878 -4.038,-2.883 -1.687,-1.293 -3.34,-2.7 -4.99,-4.103 -0.043,-0.048 -0.088,-0.093 -0.132,-0.141 1.395,0.535 2.812,1.014 4.275,1.316 2.185,0.452 4.829,0.916 6.96,-0.002 1.547,-0.667 0.921,-2.455 -0.068,-3.285 -1.967,-1.649 -4.271,-2.739 -6.436,-4.056 3.339,1.092 6.886,1.696 10.398,1.515 4.139,-0.212 8.085,-1.623 12.071,-2.631 2.808,-0.71 0.567,-3.51 -1.275,-3.778 -2.314,-0.337 -4.612,-1.046 -6.877,-1.894 -0.06,-0.039 -0.121,-0.075 -0.181,-0.113 -1.79,-0.947 -3.689,-1.655 -5.551,-2.494 -1.897,-1.031 -3.74,-2.129 -5.43,-3.325 -2.709,-1.917 -5.162,-4.112 -7.416,-6.546 -0.628,-0.678 -1.256,-1.358 -1.884,-2.036 2.3,0.468 4.618,0.401 6.788,-0.493 0.164,-0.067 0.165,-0.236 0.258,-0.354 -1.576,-1.246 -3.003,-2.666 -4.368,-4.157 4.036,1.65 8.34,2.488 12.797,1.832 2.435,-0.358 0.768,-2.957 -0.646,-3.439 -1.753,-0.597 -3.429,-1.487 -5.051,-2.516 0.116,-0.653 -0.095,-1.289 -0.929,-1.662 -5.555,-2.487 -9.208,-9.237 -12.335,-14.166 -4.24,-6.682 -7.644,-13.831 -10.507,-21.199 -2.811,-7.233 -5.363,-14.577 -7.516,-22.034 -1.114,-3.859 -2.402,-7.681 -3.401,-11.571 -0.93,-3.623 -1.189,-7.389 -2.368,-10.946 -0.626,-1.89 -3.369,-0.902 -4.085,0.414 -1.41,2.591 -1.312,5.622 -1.906,8.456 -0.876,4.181 -1.954,8.327 -3.205,12.411 -2.52,8.223 -5.675,16.242 -9.2,24.083 -3.524,7.84 -7.305,15.695 -12.221,22.773 -0.401,0.578 -0.861,1.108 -1.279,1.673 -2.134,2.448 -4.249,4.911 -6.379,7.361 -3.293,2.92 -6.89,5.584 -10.823,6.924 -1.415,0.482 -3.082,3.081 -0.646,3.439 4.457,0.656 8.762,-0.182 12.798,-1.832 -1.365,1.491 -2.792,2.911 -4.368,4.157 0.093,0.118 0.094,0.286 0.258,0.354 2.169,0.894 4.487,0.962 6.787,0.493 -0.628,0.678 -1.256,1.358 -1.884,2.036 -2.254,2.434 -4.707,4.629 -7.416,6.546 -1.69,1.195 -3.533,2.294 -5.43,3.325 -1.863,0.839 -3.762,1.547 -5.551,2.494 -0.059,0.038 -0.121,0.075 -0.181,0.113 -2.264,0.847 -4.563,1.556 -6.877,1.894 -1.843,0.268 -4.083,3.068 -1.276,3.778 3.986,1.009 7.933,2.419 12.072,2.631 3.512,0.181 7.059,-0.423 10.398,-1.515 -2.165,1.317 -4.469,2.408 -6.436,4.056 -0.99,0.83 -1.615,2.618 -0.068,3.285 2.131,0.918 4.775,0.454 6.96,0.002 1.463,-0.303 2.88,-0.781 4.275,-1.316 -0.044,0.048 -0.088,0.093 -0.132,0.141 -1.649,1.404 -3.302,2.811 -4.989,4.103 -1.313,1.005 -2.692,1.921 -4.038,2.883 -1.221,0.73 -2.449,1.454 -3.665,2.172 -6.295,3.719 -12.939,7.462 -20.4,7.905 -2.056,0.122 -4.506,3.714 -1.408,4.17 3.327,0.49 6.521,1.583 9.835,2.132 2.971,0.492 5.991,0.407 8.962,-0.05 2.829,-0.435 5.704,-1.17 8.46,-2.204 -3.922,2.558 -8.303,4.39 -11.533,7.906 -0.858,0.934 -0.852,2.609 0.452,3.14 3.657,1.491 7.81,0.598 11.484,-0.648 -1.882,1.297 -3.794,2.553 -5.739,3.753 -3.525,2.174 -7.08,4.327 -10.753,6.243 -3.093,1.613 -7.029,2.329 -9.405,5.008 -0.646,0.728 -0.939,2.142 -0.059,2.834 6.529,5.14 16.755,3.096 24.057,0.943 0.359,-0.106 0.749,-0.219 1.121,-0.328 -1.165,0.918 -2.316,1.848 -3.544,2.71 -3.487,2.448 -7.192,4.828 -11.084,6.585 -3.078,1.389 -6.431,2.425 -7.582,5.94 -0.294,0.898 0.377,1.781 1.138,2.141 7.842,3.708 17.704,0.313 25.322,-2.455 0.308,-0.112 0.629,-0.243 0.94,-0.359 -1.824,1.524 -3.504,3.194 -4.844,5.304 -0.425,0.67 -0.368,1.926 0.341,2.409 4.218,2.876 10.094,0.106 14.167,-1.799 1.831,-0.856 3.512,-1.879 5.135,-2.969 -0.232,1.997 0.524,3.457 3.202,3.495 3.406,0.049 5.984,-3.331 7.764,-5.808 0.008,-0.011 0.016,-0.024 0.024,-0.035 1.241,2.786 3.436,4.926 6.844,4.939 0.801,0.003 1.491,-0.115 2.117,-0.3 0.626,0.185 1.316,0.303 2.117,0.3 3.408,-0.013 5.603,-2.153 6.844,-4.939 0.008,0.011 0.016,0.024 0.024,0.035 1.78,2.476 4.358,5.857 7.764,5.808 2.677,-0.039 3.434,-1.499 3.201,-3.495 1.623,1.091 3.304,2.113 5.136,2.969 4.073,1.905 9.949,4.674 14.167,1.799 0.709,-0.483 0.766,-1.74 0.341,-2.409 -1.34,-2.11 -3.02,-3.78 -4.844,-5.304 0.311,0.116 0.632,0.247 0.939,0.359 7.618,2.768 17.48,6.163 25.322,2.455 0.762,-0.36 1.433,-1.243 1.138,-2.141 -1.151,-3.515 -4.504,-4.551 -7.581,-5.94 -3.892,-1.756 -7.597,-4.137 -11.084,-6.585 -1.228,-0.863 -2.379,-1.792 -3.544,-2.71 0.372,0.108 0.762,0.222 1.121,0.328 7.302,2.153 17.528,4.197 24.057,-0.943 0.879,-0.692 0.587,-2.106 -0.059,-2.834 -2.376,-2.679 -6.312,-3.394 -9.405,-5.008 -3.673,-1.916 -7.228,-4.069 -10.753,-6.243 -1.946,-1.2 -3.857,-2.456 -5.739,-3.753 3.674,1.247 7.827,2.14 11.484,0.648 1.304,-0.532 1.31,-2.207 0.452,-3.14 -3.23,-3.516 -7.611,-5.348 -11.533,-7.906 2.755,1.035 5.63,1.769 8.46,2.204 2.971,0.457 5.99,0.542 8.962,0.05 3.314,-0.549 6.508,-1.642 9.835,-2.132 3.095,-0.457 0.645,-4.049 -1.411,-4.171 z"
   id="path14-1" />

			<path
   style="opacity:0.5;fill:#37754b"
   d="m 273.471,140.006 c -7.461,-0.442 -14.105,-4.185 -20.4,-7.905 -1.216,-0.718 -2.444,-1.442 -3.665,-2.172 -1.346,-0.962 -2.726,-1.878 -4.038,-2.883 -1.687,-1.293 -3.34,-2.699 -4.99,-4.103 -0.044,-0.048 -0.088,-0.093 -0.132,-0.141 1.395,0.535 2.812,1.014 4.275,1.316 2.185,0.452 4.829,0.916 6.96,-0.002 1.547,-0.667 0.921,-2.455 -0.068,-3.285 -1.967,-1.649 -4.271,-2.739 -6.436,-4.056 3.339,1.092 6.885,1.696 10.398,1.515 4.139,-0.212 8.085,-1.623 12.071,-2.631 2.808,-0.71 0.567,-3.51 -1.275,-3.778 -2.314,-0.337 -4.612,-1.046 -6.877,-1.894 -0.06,-0.039 -0.121,-0.075 -0.181,-0.113 -1.79,-0.947 -3.689,-1.655 -5.551,-2.494 -1.897,-1.031 -3.74,-2.129 -5.43,-3.325 -2.709,-1.917 -5.162,-4.112 -7.416,-6.546 -0.628,-0.678 -1.256,-1.358 -1.884,-2.036 2.3,0.468 4.618,0.401 6.787,-0.493 0.164,-0.067 0.165,-0.236 0.258,-0.354 -1.576,-1.246 -3.003,-2.666 -4.368,-4.157 4.036,1.65 8.34,2.488 12.797,1.832 2.436,-0.358 0.768,-2.958 -0.646,-3.439 -1.753,-0.597 -3.429,-1.487 -5.051,-2.516 0.116,-0.653 -0.095,-1.289 -0.929,-1.662 -5.555,-2.487 -9.208,-9.237 -12.335,-14.166 -4.24,-6.682 -7.644,-13.831 -10.507,-21.199 -2.811,-7.233 -5.363,-14.577 -7.516,-22.034 -1.114,-3.859 -2.402,-7.681 -3.401,-11.571 -0.824,-3.212 -1.156,-6.529 -2.034,-9.721 0.275,4.529 0.296,9.08 0.201,13.609 -0.184,8.794 -0.803,17.578 -0.818,26.376 -0.009,5.397 0.232,10.773 -0.163,16.166 -0.726,9.927 -3.185,22.988 -14.033,26.525 -0.747,0.244 -1.734,-0.427 -1.649,-1.256 0.448,-4.407 2.155,-8.438 3.866,-12.473 -1.752,2.363 -3.549,4.69 -5.548,6.862 -3.764,4.089 -8.5,8.089 -14.308,8.355 -1.089,0.05 -1.487,-1.121 -1.125,-1.96 2.422,-5.627 7.076,-10.081 9.634,-15.585 -4.295,3.761 -8.177,7.989 -12.538,11.68 -4.259,3.604 -8.924,6.393 -14.172,7.829 0.165,0.075 0.335,0.147 0.575,0.182 4.457,0.656 8.762,-0.182 12.797,-1.832 -1.365,1.491 -2.792,2.911 -4.368,4.157 0.093,0.118 0.094,0.286 0.258,0.354 2.169,0.894 4.487,0.962 6.787,0.493 -0.628,0.678 -1.256,1.358 -1.884,2.036 -2.254,2.434 -4.707,4.629 -7.416,6.546 -1.69,1.195 -3.533,2.294 -5.43,3.325 -0.936,0.422 -1.882,0.811 -2.818,1.214 9.041,-3.111 17.724,-7.305 26.535,-11.066 1.387,-0.592 2.516,0.859 1.579,2.047 -3.348,4.241 -7.428,7.741 -11.576,11.161 5.139,-0.117 10.223,-1.646 14.992,-3.467 5.916,-2.259 11.543,-5.179 17.198,-8.01 0.949,-0.475 2.3,0.32 1.914,1.471 -4.028,12.027 -15.601,19.057 -28.118,17.338 -0.619,-0.085 -0.931,-0.687 -0.925,-1.277 -5.666,2.744 -11.505,5.151 -17.617,5.759 -0.082,0.629 0.149,1.237 0.917,1.568 2.131,0.918 4.775,0.454 6.96,0.002 1.463,-0.303 2.88,-0.781 4.275,-1.316 -0.044,0.048 -0.088,0.093 -0.132,0.141 -1.649,1.404 -3.302,2.811 -4.989,4.103 -1.313,1.005 -2.692,1.921 -4.038,2.883 -1.221,0.73 -2.449,1.454 -3.665,2.172 -3.575,2.112 -7.269,4.21 -11.154,5.728 15.493,-2.011 30.473,-9.501 44.779,-15.071 1.107,-0.431 1.992,1.007 1.471,1.914 -2.786,4.856 -8.046,7.339 -11.808,11.223 7.567,-2.494 14.21,-8.022 19.849,-13.378 0.951,-0.903 2.489,-0.002 2.178,1.268 -0.539,2.195 -1.396,4.323 -2.096,6.485 1.729,-2.39 3.004,-5.121 4.326,-7.777 0.542,-1.089 2.024,-0.647 2.381,0.311 2.319,6.222 6.234,11.684 8.646,17.869 0.339,0.87 -0.717,1.973 -1.603,1.603 -1.803,-0.755 -3.262,-2.118 -4.839,-3.244 -1.146,-0.819 -3.511,-2.762 -5.002,-1.826 -1.379,0.867 -1.966,3.416 -2.616,4.802 -0.787,1.676 -1.809,3.355 -3.543,4.172 -0.701,0.33 -1.737,0.112 -1.914,-0.779 -0.371,-1.873 -0.412,-3.79 -0.667,-5.673 -5.637,5.371 -13.452,5.87 -21.029,6.897 -8.175,1.108 -15.841,4.435 -23.877,6.074 -0.34,0.906 -0.121,1.99 0.886,2.401 3.657,1.491 7.81,0.598 11.484,-0.648 -1.882,1.297 -3.794,2.553 -5.739,3.753 -3.525,2.174 -7.08,4.327 -10.753,6.243 -1.789,0.933 -3.854,1.574 -5.742,2.46 4.704,-0.359 9.34,-2.009 13.644,-4.024 6.817,-3.192 13.102,-7.396 19.912,-10.595 1.031,-0.484 2.658,0.635 1.783,1.783 -2.663,3.492 -5.864,6.47 -8.906,9.606 6.812,-2.082 12.586,-7.101 19.54,-8.926 1.135,-0.298 1.988,0.917 1.471,1.914 -1.213,2.34 -3.119,4.267 -4.274,6.637 -0.322,0.661 -0.671,1.085 -0.079,1.432 0.531,0.312 1.596,0.136 2.164,0.098 1.058,-0.072 2.095,-0.275 3.115,-0.562 7.642,-2.151 13.294,-8.656 21.237,-10.096 0.854,-0.155 1.608,0.356 1.649,1.256 0.125,2.725 -1.499,5.325 -3.069,7.417 -4.174,5.561 -9.911,10.101 -15.758,13.789 -2.714,1.712 -5.569,3.271 -8.592,4.367 -2.008,0.728 -4.387,1.383 -6.509,0.757 -0.749,-0.221 -1.006,-0.894 -0.91,-1.603 0.269,-1.983 1.239,-3.69 2.034,-5.471 -3.686,1.297 -7.04,3.58 -10.348,5.583 -3.777,2.288 -7.701,4.014 -11.799,5.641 -4.796,1.904 -10.105,3.811 -15.45,4.561 7.764,3.366 17.385,0.067 24.855,-2.647 0.308,-0.112 0.628,-0.243 0.939,-0.359 -1.824,1.524 -3.504,3.194 -4.844,5.304 -0.425,0.67 -0.368,1.926 0.341,2.409 4.218,2.876 10.094,0.106 14.167,-1.798 1.831,-0.856 3.512,-1.879 5.135,-2.969 -0.232,1.997 0.524,3.457 3.202,3.495 3.406,0.049 5.984,-3.331 7.764,-5.808 0.008,-0.011 0.016,-0.024 0.024,-0.035 1.241,2.786 3.436,4.926 6.844,4.939 0.801,0.003 1.491,-0.115 2.117,-0.3 0.626,0.186 1.316,0.303 2.117,0.3 3.408,-0.013 5.603,-2.153 6.844,-4.939 0.008,0.011 0.016,0.024 0.024,0.035 1.78,2.476 4.358,5.857 7.764,5.808 2.678,-0.039 3.434,-1.499 3.201,-3.495 1.623,1.091 3.304,2.113 5.135,2.969 4.073,1.905 9.949,4.674 14.167,1.798 0.708,-0.483 0.766,-1.739 0.341,-2.409 -1.34,-2.11 -3.02,-3.78 -4.844,-5.304 0.311,0.116 0.632,0.247 0.939,0.359 7.618,2.768 17.48,6.163 25.322,2.455 0.761,-0.36 1.433,-1.243 1.138,-2.141 -1.151,-3.515 -4.504,-4.551 -7.581,-5.94 -3.892,-1.756 -7.597,-4.136 -11.084,-6.585 -1.228,-0.863 -2.379,-1.792 -3.544,-2.71 0.372,0.108 0.762,0.222 1.121,0.327 7.302,2.153 17.529,4.197 24.057,-0.943 0.879,-0.692 0.587,-2.106 -0.059,-2.834 -2.377,-2.679 -6.312,-3.394 -9.405,-5.008 -3.673,-1.916 -7.228,-4.069 -10.753,-6.243 -1.946,-1.2 -3.857,-2.456 -5.739,-3.753 3.674,1.247 7.827,2.14 11.484,0.648 1.304,-0.532 1.31,-2.207 0.452,-3.14 -3.23,-3.516 -7.611,-5.349 -11.533,-7.906 2.755,1.035 5.63,1.769 8.46,2.204 2.971,0.457 5.99,0.542 8.962,0.05 3.314,-0.549 6.508,-1.642 9.835,-2.132 3.094,-0.458 0.644,-4.05 -1.412,-4.172 z"
   id="path15-8" />

			<path
   style="opacity:0.5;fill:#37754b"
   d="m 273.471,140.006 c -7.461,-0.442 -14.105,-4.185 -20.4,-7.905 -1.216,-0.718 -2.444,-1.442 -3.665,-2.172 -1.346,-0.962 -2.726,-1.878 -4.038,-2.883 -1.687,-1.293 -3.34,-2.699 -4.99,-4.103 -0.044,-0.048 -0.088,-0.093 -0.132,-0.141 1.395,0.535 2.812,1.014 4.275,1.316 2.185,0.452 4.829,0.916 6.96,-0.002 1.547,-0.667 0.921,-2.455 -0.068,-3.285 -1.967,-1.649 -4.271,-2.739 -6.436,-4.056 3.339,1.092 6.885,1.696 10.398,1.515 4.139,-0.212 8.085,-1.623 12.071,-2.631 2.808,-0.71 0.567,-3.51 -1.275,-3.778 -2.314,-0.337 -4.612,-1.046 -6.877,-1.894 -0.06,-0.039 -0.121,-0.075 -0.181,-0.113 -1.79,-0.947 -3.689,-1.655 -5.551,-2.494 -1.897,-1.031 -3.74,-2.129 -5.43,-3.325 -2.709,-1.917 -5.162,-4.112 -7.416,-6.546 -0.628,-0.678 -1.256,-1.358 -1.884,-2.036 2.3,0.468 4.618,0.401 6.787,-0.493 0.164,-0.067 0.165,-0.236 0.258,-0.354 -1.576,-1.246 -3.003,-2.666 -4.368,-4.157 4.036,1.65 8.34,2.488 12.797,1.832 2.436,-0.358 0.768,-2.958 -0.646,-3.439 -1.753,-0.597 -3.429,-1.487 -5.051,-2.516 0.116,-0.653 -0.095,-1.289 -0.929,-1.662 -5.555,-2.487 -9.208,-9.237 -12.335,-14.166 -4.24,-6.682 -7.644,-13.831 -10.507,-21.199 -2.811,-7.233 -5.363,-14.577 -7.516,-22.034 -1.114,-3.859 -2.402,-7.681 -3.401,-11.571 -0.153,-0.597 -0.277,-1.201 -0.403,-1.804 0.259,2.173 0.572,4.341 0.988,6.494 1.144,5.918 2.771,11.732 4.551,17.487 1.76,5.69 3.419,11.513 5.763,16.995 4.354,10.184 11,19.116 16.914,28.409 0.677,1.064 -0.443,2.056 -1.471,1.914 -6.012,-0.829 -10.866,-5.355 -14.591,-9.837 -0.017,-0.02 -0.031,-0.041 -0.047,-0.061 0.692,1.526 1.439,3.027 2.262,4.508 1.44,2.59 2.897,5.21 3.604,8.111 0.219,0.898 -0.625,1.954 -1.603,1.603 -3.586,-1.289 -6.596,-3.462 -9.298,-6.022 1.41,2.533 2.855,5.048 4.285,7.567 0.587,1.035 -0.379,2.134 -1.471,1.914 -3.311,-0.665 -6.487,-1.818 -9.724,-2.751 9.205,10.471 25.13,12.338 36.234,20.257 1.111,0.792 0.628,2.26 -0.657,2.428 -5.356,0.699 -10.845,0.04 -16.138,-1.49 2.433,1.849 4.876,3.693 6.9,5.967 0.896,1.007 0.012,2.415 -1.268,2.178 -4.937,-0.917 -9.726,-2.452 -14.25,-4.555 2.81,3.837 6.565,7.175 9.905,10.17 2.8,2.511 5.66,4.703 8.844,6.713 3.129,1.976 6.334,3.948 8.874,6.678 0.66,0.709 0.397,1.912 -0.575,2.178 -3.068,0.837 -6.375,-0.131 -9.287,-1.131 -3.175,-1.091 -6.311,-2.341 -9.263,-3.949 -4.513,-2.458 -8.509,-5.675 -12.106,-9.306 2.03,3.54 4.667,6.776 7.213,9.899 1.694,2.079 3.335,4.026 5.36,5.793 1.829,1.596 3.605,3.215 4.51,5.521 0.38,0.968 -0.725,1.826 -1.603,1.603 -2.912,-0.739 -5.671,-2.035 -8.274,-3.656 2.268,2.909 4.76,5.66 7.241,8.335 2.603,2.807 5.343,5.163 8.472,7.373 2.83,1.999 5.733,3.962 8.096,6.521 0.748,0.81 0.245,2.237 -0.921,2.224 -7.102,-0.078 -13.852,-2.959 -19.806,-7.141 2.134,2.589 4.59,4.969 6.71,7.241 2.109,2.26 4.457,4.105 6.869,6.029 2.322,1.851 4.749,3.877 6.054,6.61 0.441,0.923 -0.097,1.884 -1.125,1.961 -5.835,0.433 -11.518,-2.727 -16.18,-5.894 -0.304,-0.207 -0.592,-0.436 -0.892,-0.647 0.999,1.863 1.795,3.814 2.117,5.973 0.109,0.73 -0.322,1.763 -1.256,1.649 -6.69,-0.814 -9.824,-7.09 -14.561,-11.052 0.947,3.061 2.322,5.99 3.496,8.97 0.571,1.449 -1.62,2.162 -2.381,1.004 -2.02,-3.072 -3.75,-7.046 -6.64,-9.502 -1.817,3.806 -2.443,8.07 -6.013,10.847 -0.689,0.536 -1.982,0.5 -2.178,-0.575 -0.397,-2.183 -0.119,-4.447 -0.261,-6.648 -2.226,3.32 -4.737,6.475 -7.505,9.337 -1.97,2.038 -4.229,4.137 -6.75,5.701 0.201,0.023 0.398,0.051 0.627,0.054 3.406,0.049 5.984,-3.331 7.764,-5.808 0.008,-0.011 0.016,-0.024 0.024,-0.035 1.241,2.786 3.436,4.926 6.844,4.939 0.801,0.003 1.491,-0.115 2.117,-0.3 0.626,0.186 1.316,0.303 2.117,0.3 3.408,-0.013 5.603,-2.153 6.844,-4.939 0.008,0.011 0.016,0.024 0.024,0.035 1.78,2.476 4.358,5.857 7.764,5.808 2.678,-0.039 3.434,-1.499 3.201,-3.495 1.623,1.091 3.304,2.113 5.135,2.969 4.073,1.905 9.949,4.674 14.167,1.798 0.708,-0.483 0.766,-1.739 0.341,-2.409 -1.34,-2.11 -3.02,-3.78 -4.844,-5.304 0.311,0.116 0.632,0.247 0.939,0.359 7.618,2.768 17.48,6.163 25.322,2.455 0.761,-0.36 1.433,-1.243 1.138,-2.141 -1.151,-3.515 -4.504,-4.551 -7.581,-5.94 -3.892,-1.756 -7.597,-4.136 -11.084,-6.585 -1.228,-0.863 -2.379,-1.792 -3.544,-2.71 0.372,0.108 0.762,0.222 1.121,0.327 7.302,2.153 17.529,4.197 24.057,-0.943 0.879,-0.692 0.587,-2.106 -0.059,-2.834 -2.377,-2.679 -6.312,-3.394 -9.405,-5.008 -3.673,-1.916 -7.228,-4.069 -10.753,-6.243 -1.946,-1.2 -3.857,-2.456 -5.739,-3.753 3.674,1.247 7.827,2.14 11.484,0.648 1.304,-0.532 1.31,-2.207 0.452,-3.14 -3.23,-3.516 -7.611,-5.349 -11.533,-7.906 2.755,1.035 5.63,1.769 8.46,2.204 2.971,0.457 5.99,0.542 8.962,0.05 3.314,-0.549 6.508,-1.642 9.835,-2.132 3.095,-0.456 0.645,-4.048 -1.411,-4.17 z"
   id="path16-4" />

		</g>

		<path
   style="opacity:0.59;fill:#c37249"
   d="m 205.742,202.536 c -0.176,-0.407 -0.784,-0.043 -0.734,0.321 0.422,3.056 -0.408,6.307 -0.65,9.357 -0.276,3.481 -0.469,6.974 -1.006,10.428 -0.521,3.349 -1.485,6.468 -2.771,9.593 -0.52,1.263 -1.016,2.544 -1.644,3.76 -0.606,1.174 -1.518,2.155 -2.129,3.305 -0.182,0.342 0.006,0.808 0.463,0.66 2.585,-0.836 4.154,-4.08 5.254,-6.342 1.529,-3.145 2.591,-6.386 3.241,-9.823 0.717,-3.794 1.021,-7.666 1.126,-11.521 0.091,-3.328 0.194,-6.626 -1.15,-9.738 z"
   id="path17-9" />

		<path
   style="opacity:0.59;fill:#c37249"
   d="m 208.273,229.266 c -0.147,-0.235 -0.499,-0.364 -0.762,-0.361 -0.343,0.005 -0.731,0.107 -0.998,0.329 -0.479,0.398 -0.845,0.846 -1.048,1.445 -0.134,0.398 -0.2,0.836 -0.206,1.256 -0.011,0.706 0.067,1.493 0.356,2.147 0.021,0.078 0.091,0.12 0.13,0.185 0.008,0.021 0.005,0.045 0.014,0.066 0.068,0.16 0.14,0.307 0.288,0.41 0.192,0.134 0.435,0.157 0.66,0.135 0.48,-0.048 0.968,-0.346 1.219,-0.764 0.021,-0.035 0.026,-0.078 0.045,-0.113 0.304,-0.343 0.547,-0.757 0.593,-1.217 0.013,-0.128 -0.031,-0.247 -0.052,-0.37 0.06,-0.25 0.133,-0.498 0.171,-0.751 0.124,-0.823 0.039,-1.681 -0.41,-2.397 z"
   id="path18-6" />

		<path
   style="opacity:0.59;fill:#c37249"
   d="m 212.127,208.592 c -0.002,-0.153 0,-0.31 -0.008,-0.454 -0.059,-0.995 -0.207,-2.053 -0.686,-2.944 -0.198,-0.368 -0.781,-0.342 -1.1,-0.239 -0.479,0.155 -0.791,0.488 -1.004,0.932 -0.361,0.753 -0.37,1.651 -0.303,2.467 0.074,0.9 0.218,1.816 0.697,2.601 0.037,0.06 0.113,0.066 0.165,0.109 0.097,0.229 0.322,0.359 0.566,0.366 0.351,0.01 0.636,-0.173 0.888,-0.395 0.245,-0.146 0.466,-0.33 0.592,-0.564 0.185,-0.345 0.335,-0.704 0.353,-1.101 0.01,-0.249 -0.042,-0.537 -0.16,-0.778 z"
   id="path19-3" />

		<path
   style="opacity:0.59;fill:#c37249"
   d="m 215.744,231.296 c 0.011,-0.091 -0.008,-0.181 -0.017,-0.272 -0.013,-0.13 -0.025,-0.259 -0.043,-0.388 -0.03,-0.211 -0.254,-0.377 -0.439,-0.436 -0.109,-0.034 -0.224,-0.016 -0.338,-0.018 -0.001,-0.005 -0.004,-0.01 -0.004,-0.014 -0.014,-0.082 -0.085,-0.146 -0.156,-0.179 -0.082,-0.038 -0.178,-0.047 -0.267,-0.025 -0.198,0.048 -0.398,0.193 -0.462,0.394 -0.017,0.054 -0.01,0.113 -0.024,0.169 -0.03,0.026 -0.069,0.041 -0.097,0.068 -0.124,0.122 -0.22,0.288 -0.282,0.451 -0.029,0.076 -0.049,0.157 -0.049,0.238 0,0.029 0.013,0.201 0.021,0.229 0.007,0.026 0.079,0.183 0.093,0.204 0.024,0.035 0.13,0.136 0.164,0.162 0.021,0.016 0.05,0.023 0.074,0.034 0.007,0.016 0.014,0.032 0.021,0.048 0.031,0.069 0.04,0.089 0.082,0.137 0.016,0.018 0.033,0.037 0.049,0.055 0.035,0.039 0.061,0.085 0.091,0.129 0.042,0.042 0.084,0.083 0.127,0.124 0.079,0.056 0.166,0.086 0.261,0.09 0.173,0.025 0.36,-0.001 0.519,-0.076 0.145,-0.069 0.278,-0.162 0.393,-0.275 0.081,-0.078 0.142,-0.169 0.184,-0.272 0.051,-0.087 0.079,-0.182 0.085,-0.284 -0.005,-0.062 -0.008,-0.121 0,-0.182 0.003,-0.039 0.01,-0.075 0.014,-0.111 z"
   id="path20-7" />

		<path
   style="opacity:0.59;fill:#c37249"
   d="m 217.542,239.424 c -0.034,-0.095 -0.082,-0.183 -0.124,-0.275 0.028,0.061 0.056,0.122 0.083,0.182 -0.006,-0.012 -0.011,-0.025 -0.016,-0.037 -0.025,-0.065 -0.054,-0.128 -0.086,-0.189 l -0.145,-0.143 c -0.092,-0.072 -0.304,-0.13 -0.417,-0.122 -0.029,0.002 -0.058,0.004 -0.087,0.003 -0.114,-0.004 -0.222,0.015 -0.326,0.057 -0.007,0.002 -0.012,0.007 -0.019,0.009 -0.01,0.004 -0.022,0 -0.031,0.005 -0.018,0.008 -0.031,0.024 -0.048,0.034 -0.079,0.031 -0.16,0.058 -0.229,0.111 -0.063,0.054 -0.126,0.108 -0.189,0.162 -0.106,0.11 -0.185,0.236 -0.237,0.379 -0.009,0.021 -0.018,0.043 -0.025,0.066 -10e-4,0.004 -0.003,0.008 -0.004,0.012 l -0.045,0.217 c 0.005,0.07 0.011,0.141 0.018,0.211 0.003,0.035 0.017,0.068 0.043,0.097 0.018,0.069 0.057,0.124 0.115,0.164 0.042,0.058 0.098,0.097 0.167,0.116 0.034,0.016 0.068,0.032 0.102,0.047 0.003,0.001 0.006,0.002 0.008,0.003 0.004,0.003 0.009,0.006 0.013,0.009 0.018,0.013 0.042,0.01 0.061,0.021 0.015,0.006 0.03,0.012 0.044,0.018 -0.008,-0.004 -0.016,-0.007 -0.024,-0.011 0.112,0.055 0.231,0.074 0.357,0.067 0.004,0 0.007,0.003 0.01,0.003 l 0.186,-0.019 c 0.138,-0.031 0.264,-0.086 0.379,-0.168 0.073,-0.061 0.145,-0.123 0.216,-0.185 0.108,-0.111 0.188,-0.24 0.241,-0.385 0.049,-0.148 0.049,-0.253 0.022,-0.405 -0.001,-0.018 -0.006,-0.036 -0.013,-0.054 z"
   id="path21-8" />

		<path
   style="opacity:0.59;fill:#c37249"
   d="m 215.908,197.698 c -0.014,-0.158 0.003,-0.104 -0.063,-0.247 -0.015,-0.033 -0.037,-0.093 -0.062,-0.132 -0.004,-0.007 -0.007,-0.013 -0.011,-0.02 -0.071,-0.108 -0.165,-0.181 -0.283,-0.22 -0.037,-0.03 -0.077,-0.047 -0.121,-0.053 -0.132,-0.04 -0.264,-0.048 -0.398,-0.023 -0.149,0.005 -0.292,0.04 -0.428,0.107 -0.281,0.134 -0.557,0.334 -0.713,0.609 -0.049,0.085 -0.091,0.173 -0.127,0.264 -0.059,0.165 -0.07,0.332 -0.032,0.502 0.003,0.016 0.005,0.033 0.009,0.05 0.032,0.152 0.07,0.187 0.115,0.238 0.042,0.116 0.086,0.231 0.114,0.351 0.043,0.18 0.082,0.367 0.099,0.551 -0.004,-0.051 -0.009,-0.102 -0.013,-0.153 0.002,-0.001 0.004,-0.002 0.006,-0.003 0.004,0.064 -0.008,0.128 0.01,0.191 0.094,0.341 0.482,0.463 0.799,0.386 0.158,-0.038 0.307,-0.107 0.443,-0.196 0.199,-0.13 0.34,-0.331 0.43,-0.546 0.135,-0.322 0.193,-0.676 0.218,-1.023 0.009,-0.123 0.014,-0.247 0.009,-0.37 -0.001,-0.026 -0.001,-0.05 0.002,-0.076 0.008,-0.071 0.004,-0.103 -0.003,-0.187 z"
   id="path22-8" />

	</g>
</g>
  </g>
</svg>
