<?xml version="1.0" encoding="UTF-8" standalone="no"?>
<!-- Created with Inkscape (http://www.inkscape.org/) -->

<svg
   width="37.613346mm"
   height="86.756912mm"
   viewBox="0 0 37.613346 86.756912"
   version="1.1"
   id="svg1"
   inkscape:version="1.4.2 (f4327f4, 2025-05-13)"
   sodipodi:docname="Rose-1.svg"
   xmlns:inkscape="http://www.inkscape.org/namespaces/inkscape"
   xmlns:sodipodi="http://sodipodi.sourceforge.net/DTD/sodipodi-0.dtd"
   xmlns="http://www.w3.org/2000/svg"
   xmlns:svg="http://www.w3.org/2000/svg">
  <sodipodi:namedview
     id="namedview1"
     pagecolor="#ffffff"
     bordercolor="#000000"
     borderopacity="0.25"
     inkscape:showpageshadow="2"
     inkscape:pageopacity="0.0"
     inkscape:pagecheckerboard="0"
     inkscape:deskcolor="#d1d1d1"
     inkscape:document-units="mm"
     inkscape:zoom="1.2275954"
     inkscape:cx="13.848211"
     inkscape:cy="101.01048"
     inkscape:window-width="2880"
     inkscape:window-height="1676"
     inkscape:window-x="-12"
     inkscape:window-y="-12"
     inkscape:window-maximized="1"
     inkscape:current-layer="layer1" />
  <defs
     id="defs1" />
  <g
     inkscape:label="图层 1"
     inkscape:groupmode="layer"
     id="layer1"
     transform="translate(-101.33542,-121.70833)">
    <g
       id="g46"
       transform="matrix(0.26458333,0,0,0.26458333,2.5328567,97.377984)">
		<path
   style="fill:#8e8574"
   d="m 405.074,296.931 c 9.092,-3.666 17.951,-8.068 27.298,-11.071 -0.848,0.066 -1.697,0.141 -2.545,0.238 -7.839,0.9 -15.571,2.927 -22.858,5.948 -6.767,2.805 -13.169,6.532 -18.953,11.031 0.298,0.034 0.598,0.063 0.897,0.095 2.554,-1.109 5.187,-2.018 7.796,-2.993 2.802,-1.046 5.591,-2.129 8.365,-3.248 z"
   id="path34" />

		<path
   style="fill:#8e8574"
   d="m 410.922,282.7 c 3.133,0.086 6.249,-0.228 9.375,-0.369 4.324,-0.195 8.746,0.162 12.983,1.192 -2.119,-1.181 -4.31,-2.243 -6.51,-3.305 -4.185,-2.021 -8.464,-3.557 -13.01,-4.54 -4.388,-0.949 -8.844,-1.506 -13.279,-2.177 -4.461,-0.675 -8.885,-1.499 -13.176,-2.921 -2.231,-0.739 -4.443,-1.525 -6.717,-2.128 -2.273,-0.603 -4.581,-1.059 -6.91,-1.381 -0.102,-0.014 -0.183,-0.047 -0.251,-0.09 0.086,0.38 0.339,0.787 0.481,1.07 2.201,4.389 6.245,7.522 10.636,9.535 5.381,2.466 11.377,3.343 17.182,4.206 3.048,0.454 6.113,0.823 9.196,0.908 z"
   id="path35" />

		<path
   style="fill:#8e8574"
   d="m 451.203,342.044 c -2.407,3.895 -4.902,7.737 -7.434,11.554 0.239,-0.258 0.477,-0.518 0.717,-0.772 2.807,-2.969 5.767,-5.789 8.507,-8.823 2.828,-3.131 5.235,-6.561 7.214,-10.289 3.539,-6.664 5.751,-13.918 7.769,-21.172 -1.596,2.98 -3.176,5.968 -4.795,8.935 -3.8,6.966 -7.808,13.819 -11.978,20.567 z"
   id="path36" />

		<path
   style="fill:#8e8574"
   d="m 450.898,268.125 c -3.287,-0.057 -6.572,-0.097 -9.859,-0.109 -0.81,-0.003 -1.62,-0.006 -2.43,-0.008 0.515,0.127 1.03,0.257 1.546,0.38 4.033,0.966 8.096,1.804 12.166,2.598 3.546,0.692 7.183,1.684 10.821,1.345 1.838,-0.171 3.651,-0.605 5.442,-1.036 1.767,-0.425 3.52,-0.906 5.255,-1.448 1.735,-0.542 3.451,-1.142 5.145,-1.8 0.224,-0.087 0.446,-0.177 0.669,-0.266 -3.11,0.4 -6.226,0.64 -9.367,0.672 -6.458,0.064 -12.931,-0.216 -19.388,-0.328 z"
   id="path37" />

		<path
   style="fill:#8e8574"
   d="m 455.447,251.141 c -3.323,2.331 -6.758,4.498 -10.081,6.828 -1.758,1.233 -3.516,2.468 -5.255,3.727 2.229,-0.935 4.444,-1.9 6.61,-2.982 7.051,-3.52 13.684,-7.894 19.681,-13.008 3.054,-2.605 6.125,-5.346 8.048,-8.927 1.701,-3.168 2.561,-6.701 3.332,-10.198 -1.474,3.616 -3.548,6.932 -5.978,9.982 -4.583,5.752 -10.367,10.377 -16.357,14.578 z"
   id="path38" />

		<path
   style="fill:#8e8574"
   d="m 478.545,100.461 c -4.315,0.038 -8.63,-0.119 -12.935,-0.41 -3.299,-0.223 -6.59,-0.538 -9.877,-0.886 1.118,0.444 2.215,0.918 3.286,1.413 2.923,1.352 5.389,3.164 7.494,5.605 2.274,2.636 4.45,5.363 6.669,8.045 2.206,2.666 4.391,5.351 6.623,7.995 1.886,2.235 4.001,4.514 6.86,5.448 2.73,0.892 5.835,0.615 8.33,-0.825 0.91,-0.525 1.665,-1.196 2.297,-1.956 0.684,-1.416 0.745,-2.889 0.566,-4.435 -0.041,-0.353 0.186,-0.59 0.473,-0.691 -0.286,-2.794 -1.107,-5.515 -2.402,-8.008 -0.037,-0.029 -0.074,-0.057 -0.103,-0.097 -0.35,-0.472 -0.603,-0.981 -0.812,-1.509 -0.242,-0.384 -0.495,-0.764 -0.761,-1.134 -0.25,-0.347 -0.159,-0.742 0.081,-1.027 -0.204,-0.72 -0.423,-1.435 -0.757,-2.109 -0.698,-1.41 -1.81,-2.49 -3.12,-3.32 -0.256,0.283 -0.674,0.437 -1.134,0.242 -1.401,-0.594 -2.758,-1.332 -4.104,-2.076 -2.202,-0.322 -4.481,-0.285 -6.674,-0.265 z"
   id="path39" />

		<path
   style="fill:#8e8574"
   d="m 495.82,129.635 c -2.585,2.079 -5.799,3.153 -9.096,3.316 -2.97,0.146 -5.961,-0.452 -8.67,-1.666 -2.569,-1.151 -4.829,-2.979 -6.785,-4.981 -3.951,-4.042 -6.815,-9.014 -10.488,-13.295 -1.786,-2.083 -3.765,-4.034 -6.092,-5.509 -2.834,-1.795 -6.086,-2.748 -9.414,-3.054 -3.527,-0.324 -7.098,-0.035 -10.593,0.476 -2.789,0.408 -5.658,1.078 -7.681,3.129 0.8,1.161 1.597,2.324 2.401,3.48 3.936,5.661 7.92,11.292 11.802,16.99 3.426,5.027 6.773,10.334 8.247,16.307 0.293,1.186 0.473,2.364 0.595,3.536 1.889,-3.617 5.187,-6.419 8.854,-8.213 5.008,-2.45 10.636,-3.029 16.134,-3.281 5.171,-0.237 10.699,0.088 15.621,-1.788 2.167,-0.826 4.113,-2.223 5.41,-4.162 0.617,-0.922 1.091,-1.927 1.458,-2.973 -0.537,0.643 -1.121,1.219 -1.703,1.688 z"
   id="path40" />

		<path
   style="fill:#8e8574"
   d="m 455.027,97.266 c 4.422,0.475 8.853,0.869 13.294,1.108 4.33,0.233 8.648,0.166 12.979,0.243 -1.376,-0.727 -2.754,-1.45 -4.145,-2.147 -3.465,-1.738 -7.062,-3.252 -10.884,-3.989 -3.883,-0.749 -7.922,-0.688 -11.787,0.14 -3.616,0.775 -7.075,2.104 -10.612,3.159 -0.127,0.038 -0.259,0.075 -0.387,0.113 1.391,0.155 2.779,0.345 4.172,0.517 2.455,0.302 4.911,0.592 7.37,0.856 z"
   id="path41" />

		<path
   style="fill:#8e8574"
   d="m 426.271,106.431 c -0.058,0.112 -0.131,0.19 -0.208,0.259 0.087,0.126 0.173,0.252 0.261,0.378 1.767,-2.407 5.171,-3.119 7.973,-3.548 3.836,-0.588 7.747,-0.935 11.618,-0.491 3.254,0.374 6.426,1.3 9.235,3.015 2.359,1.44 4.405,3.341 6.229,5.405 3.702,4.189 6.62,8.996 10.522,13.021 1.886,1.946 4.001,3.706 6.452,4.897 2.591,1.259 5.496,1.841 8.372,1.692 2.05,-0.107 4.11,-0.62 5.934,-1.58 -1.921,0.461 -3.962,0.453 -5.861,-0.043 -2.985,-0.779 -5.351,-2.81 -7.363,-5.063 -2.254,-2.523 -4.364,-5.184 -6.531,-7.782 -2.304,-2.761 -4.6,-5.529 -6.915,-8.281 -1.064,-1.264 -2.162,-2.522 -3.461,-3.553 -1.173,-0.93 -2.497,-1.676 -3.841,-2.329 -3.002,-1.458 -6.215,-2.615 -9.45,-3.432 -2.645,-0.668 -5.369,-1.048 -8.095,-0.971 0,0 0,0 0,0 -0.192,0.048 -0.376,0.04 -0.557,0.015 -0.438,0.023 -0.877,0.056 -1.315,0.104 -5.306,0.585 -10.507,3.449 -12.999,8.287 z"
   id="path42" />

		<path
   style="fill:#8e8574"
   d="m 434.354,97.451 c -1.317,0.124 -2.61,0.419 -3.849,0.913 -1.512,0.602 -2.922,1.509 -4.12,2.608 -0.572,0.525 -1.11,1.094 -1.589,1.706 -0.254,0.324 -0.489,0.663 -0.71,1.01 -0.027,0.043 -0.053,0.087 -0.079,0.13 0.308,0.422 0.623,0.84 0.926,1.266 1.989,-3.691 5.503,-6.239 9.421,-7.633 z"
   id="path43" />

		<path
   style="fill:#8e8574"
   d="m 419.5,112.985 c 0.473,1.708 0.879,3.449 1.174,5.208 1.485,3.04 3.733,5.752 6.069,8.124 3.291,3.342 6.996,6.257 10.109,9.778 1.554,1.758 2.974,3.658 4.048,5.75 1.186,2.309 1.886,4.801 2.317,7.352 0.458,2.712 0.721,5.463 0.989,8.199 0.254,2.59 0.503,5.189 0.594,7.791 0.02,0.577 0.03,1.157 0.025,1.738 0.793,-2.049 1.541,-4.116 2.149,-6.228 0.827,-2.872 1.4,-5.821 1.464,-8.816 0.063,-2.941 -0.403,-5.828 -1.321,-8.62 -1.873,-5.699 -5.383,-10.686 -8.766,-15.573 -3.914,-5.655 -7.829,-11.308 -11.744,-16.962 -1.405,-2.029 -2.792,-4.161 -4.289,-6.207 -0.006,-0.006 -0.01,-0.015 -0.016,-0.022 -1.832,-2.502 -3.831,-4.872 -6.263,-6.736 -0.135,0.651 -0.202,1.312 -0.188,1.992 0.048,2.258 0.776,4.452 1.506,6.568 0.763,2.205 1.52,4.413 2.143,6.664 z"
   id="path44" />

		<path
   style="fill:#8e8574"
   d="m 420.611,163.447 c 1.153,1.795 2.369,3.589 3.755,5.214 1.458,1.708 3.153,2.997 5.153,4.011 1.919,0.973 3.923,1.773 5.857,2.718 1.532,0.749 3.029,1.572 4.497,2.441 -0.116,-0.342 -0.02,-0.726 0.222,-1.024 3.192,-3.935 2.951,-9.534 2.607,-14.292 -0.2,-2.765 -0.436,-5.527 -0.718,-8.284 -0.27,-2.633 -0.55,-5.279 -1.247,-7.841 -1.249,-4.588 -4.16,-8.292 -7.46,-11.611 -4.052,-4.076 -9.051,-8.091 -12.176,-13.06 0.125,1.766 0.109,3.539 -0.093,5.302 -0.492,4.284 -2.015,8.319 -3.338,12.394 -1.297,3.994 -2.397,8.152 -1.847,12.384 0.548,4.217 2.516,8.112 4.788,11.648 z"
   id="path45" />

		<path
   style="fill:#8e8574"
   d="m 515.315,128.199 c -0.875,-4.731 -3.373,-9.381 -6.694,-12.843 -3.124,-3.256 -7.298,-5.514 -11.799,-5.842 2.033,3.325 3.214,7.15 3.447,11.036 0.064,0.429 0.077,0.854 0.042,1.273 0.006,1.177 -0.059,2.356 -0.237,3.524 -0.378,2.479 -1.245,4.961 -2.747,6.989 -1.496,2.019 -3.509,3.45 -5.825,4.392 -4.892,1.99 -10.461,1.746 -15.638,1.957 -5.547,0.227 -11.329,0.67 -16.361,3.23 -4.085,2.078 -7.668,5.446 -8.863,9.992 -0.079,0.299 -0.258,0.483 -0.474,0.578 -0.059,1.319 -0.214,2.628 -0.431,3.931 0.106,-0.163 0.211,-0.328 0.32,-0.489 2.667,-3.895 6.515,-6.93 10.918,-8.629 2.324,-0.897 4.766,-1.326 7.253,-1.386 1.601,-0.039 3.199,0.047 4.8,0.075 0.798,0.014 1.595,0.016 2.393,0.031 0.735,0.014 1.486,-0.121 2.163,0.216 0.286,0.143 0.339,0.593 0.104,0.804 -0.612,0.548 -1.483,0.553 -2.266,0.644 -0.837,0.097 -1.672,0.094 -2.513,0.077 -1.679,-0.033 -3.359,-0.134 -5.039,-0.094 -4.597,0.109 -9.032,1.766 -12.576,4.702 -1.691,1.401 -3.183,3.043 -4.379,4.885 -1.237,1.904 -2.06,4.001 -2.857,6.116 -0.034,0.09 -0.095,0.156 -0.165,0.212 -0.288,0.854 -0.596,1.704 -0.917,2.55 -1.671,2.304 -3.154,4.749 -4.374,7.318 -0.297,0.624 -0.567,1.25 -0.825,1.879 -0.227,0.028 -0.436,0.17 -0.522,0.473 -0.348,1.234 -0.637,2.484 -0.902,3.74 -2.004,-0.574 -4.01,-1.136 -6.079,-1.428 -2.905,-0.409 -6.104,-0.228 -8.736,1.175 -2.751,1.467 -4.217,4.135 -4.931,7.083 -0.703,2.905 -0.893,6.016 -0.688,9.005 0.09,-0.383 0.192,-0.764 0.312,-1.139 1.594,-4.975 5.448,-8.705 9.993,-11.09 2.319,-1.217 4.809,-2.1 7.336,-2.771 0.907,-0.241 1.828,-0.457 2.754,-0.646 -0.124,0.595 -0.254,1.188 -0.362,1.786 -0.889,0.193 -1.775,0.406 -2.649,0.65 -4.658,1.299 -9.342,3.364 -12.577,7.082 -3.021,3.471 -4.626,8.397 -3.177,12.887 0.006,0.018 10e-4,0.032 0.005,0.049 0.164,0.345 0.342,0.683 0.534,1.013 0.753,-2.505 1.494,-5.016 2.345,-7.487 0.792,-2.298 1.737,-4.593 3.151,-6.585 1.382,-1.949 3.163,-3.504 5.262,-4.644 2.241,-1.217 4.663,-1.99 7.076,-2.788 -1.023,5.748 -1.369,11.655 -1.751,17.437 -0.522,7.898 -0.997,15.799 -1.438,23.702 -0.89,15.983 -1.58,31.978 -1.929,47.983 -0.079,3.634 -0.137,7.269 -0.182,10.904 -1.516,-1.551 -3.079,-3.057 -4.685,-4.514 -2.054,-1.864 -4.126,-3.773 -6.694,-4.905 -2.693,-1.188 -5.692,-1.799 -8.529,-2.546 -2.966,-0.781 -5.942,-1.523 -8.938,-2.179 -5.962,-1.305 -12.005,-2.271 -18.11,-2.531 -3.025,-0.129 -6.059,-0.084 -9.076,0.182 -1.342,0.119 -2.794,0.169 -4.087,0.571 -0.038,0.012 -0.083,0.029 -0.124,0.043 2.568,0.367 5.111,0.894 7.607,1.603 2.557,0.726 5.044,1.675 7.602,2.397 8.764,2.472 17.96,2.709 26.768,4.964 4.532,1.16 8.745,3.029 12.91,5.128 1.748,0.881 3.593,1.782 5.339,2.829 -0.016,1.419 -0.014,2.837 -0.025,4.255 -1.286,0.358 -2.566,0.738 -3.835,1.139 -4.698,1.483 -9.293,3.257 -13.848,5.129 -4.589,1.886 -9.151,3.835 -13.772,5.643 -2.371,0.927 -4.752,1.829 -7.142,2.705 -1.691,0.619 -3.383,1.23 -5.103,1.754 3.372,0.339 6.757,0.587 10.138,0.591 4.391,0.006 8.791,-0.445 13,-1.742 3.78,-1.165 7.311,-3.008 10.58,-5.221 3.303,-2.237 6.328,-4.859 9.183,-7.638 0.261,-0.254 0.525,-0.524 0.79,-0.799 -0.061,9.993 0.002,19.987 0.252,29.977 0.204,8.153 0.527,16.303 0.975,24.445 -0.239,-0.411 -0.479,-0.826 -0.715,-1.228 -1.787,-3.05 -3.605,-6.085 -5.704,-8.933 -1.997,-2.709 -4.322,-5.154 -6.858,-7.362 -2.532,-2.204 -5.251,-4.167 -8.06,-5.999 0.18,0.183 0.361,0.367 0.541,0.548 4.82,4.848 9.426,9.907 13.796,15.165 2.161,2.599 4.21,5.286 6.349,7.902 0.243,0.297 0.475,0.603 0.713,0.904 0.038,0.674 0.086,1.348 0.126,2.022 -0.934,-1.288 -1.869,-2.575 -2.848,-3.827 -4.017,-5.14 -8.313,-10.066 -12.775,-14.824 -2.206,-2.353 -4.461,-4.659 -6.762,-6.918 -1.946,-1.91 -3.931,-4.051 -6.43,-5.242 0.37,1.652 0.975,3.26 1.613,4.817 0.713,1.74 1.546,3.432 2.47,5.069 3.272,5.8 7.827,10.947 13.189,14.899 2.714,2 5.623,3.67 8.679,5.086 0.961,0.445 1.947,0.932 2.897,1.475 0.39,6.532 0.844,13.06 1.413,19.58 1.381,15.829 3.305,31.613 5.873,47.294 0.32,1.952 0.68,3.886 1.106,5.817 0.207,0.94 1.837,0.753 1.711,-0.232 -1.006,-7.832 -2.431,-15.61 -3.474,-23.44 -1.043,-7.829 -1.933,-15.679 -2.686,-23.541 -0.445,-4.644 -0.828,-9.294 -1.18,-13.946 1.889,-2.631 3.743,-5.283 5.534,-7.987 4.381,-6.616 8.59,-13.346 12.567,-20.212 3.603,-6.22 7.125,-12.522 10.246,-19.004 -0.24,0.119 -0.484,0.232 -0.721,0.359 -0.932,0.5 -1.834,1.057 -2.705,1.658 -1.716,1.185 -3.296,2.555 -4.775,4.024 -2.727,2.709 -5.097,5.749 -7.336,8.866 -2.491,3.468 -4.917,7 -7.061,10.695 -2.854,4.919 -5.21,10.361 -6.145,16.006 -0.629,-9.247 -1.108,-18.505 -1.418,-27.768 -0.426,-12.708 -0.557,-25.424 -0.474,-38.139 0.036,-0.036 0.07,-0.072 0.106,-0.108 -0.035,0.008 -0.07,0.02 -0.105,0.028 0.006,-0.892 0.018,-1.785 0.026,-2.677 0.026,-0.008 0.052,-0.017 0.079,-0.025 -0.026,-0.029 -0.052,-0.059 -0.078,-0.088 0.02,-2.24 0.032,-4.479 0.066,-6.719 0.052,-3.458 0.126,-6.916 0.207,-10.373 10e-4,0 0.002,0 0.003,0 1.83,0.061 3.661,0.123 5.491,0.18 6.404,0.202 12.813,0.307 19.22,0.403 5.722,0.086 11.64,0.276 17.308,-0.76 -2.808,-1.048 -5.692,-1.898 -8.624,-2.516 -11.043,-2.329 -22.721,-1.579 -33.387,2.109 0.034,-1.398 0.076,-2.796 0.113,-4.194 2.747,-2.001 5.579,-3.878 8.457,-5.69 6.5,-4.093 13.014,-8.412 18.73,-13.565 4.996,-4.504 9.258,-9.728 12.049,-15.863 -1.416,0.242 -2.813,0.715 -4.149,1.16 -2.002,0.666 -3.96,1.456 -5.862,2.369 -6.791,3.26 -12.825,7.937 -17.965,13.422 -4.714,5.03 -8.878,10.724 -11.233,17.207 0.291,-10.472 0.693,-20.941 1.199,-31.404 0.383,-7.91 0.824,-15.816 1.31,-23.721 0.488,-7.934 0.856,-15.919 2.095,-23.78 0.145,-0.921 0.301,-1.841 0.462,-2.76 0.119,-0.258 0.238,-0.516 0.358,-0.775 0.049,0.014 0.098,0.03 0.147,0.044 1.282,1.016 2.539,2.063 3.743,3.167 2.91,2.67 6.347,5.815 7.193,9.852 0.423,2.018 0.042,3.987 -0.636,5.902 -0.232,0.654 -0.492,1.307 -0.738,1.965 1.431,-1.42 2.736,-2.958 3.62,-4.785 1.147,-2.371 1.384,-5.11 0.124,-7.482 -1.169,-2.202 -3.173,-3.869 -5.197,-5.26 -0.417,-0.286 -0.852,-0.542 -1.278,-0.813 0.217,0.099 0.437,0.19 0.652,0.293 0.997,0.222 1.996,0.43 2.988,0.645 0.234,0.05 0.469,0.106 0.704,0.159 1.798,1.506 3.38,3.31 4.175,5.549 0.997,2.806 0.346,5.889 -1.057,8.434 -0.999,1.812 -2.379,3.355 -3.859,4.794 2.502,-1.173 4.897,-2.584 6.688,-4.721 1.99,-2.374 2.852,-5.479 1.734,-8.438 -0.687,-1.819 -1.952,-3.319 -3.473,-4.503 0.635,0.206 1.265,0.428 1.88,0.681 0.781,0.003 1.567,-0.053 2.368,-0.2 2.346,-0.429 4.564,-1.37 6.556,-2.674 3.801,-2.486 6.507,-6.313 8.571,-10.29 2.247,-4.327 3.743,-8.978 5.448,-13.531 1.656,-4.423 3.501,-8.844 6.304,-12.68 1.265,-1.731 2.692,-3.357 4.347,-4.726 1.616,-1.337 3.476,-2.644 5.523,-3.196 0.888,-0.24 1.448,1.046 0.629,1.492 -1.069,0.583 -2.173,1.098 -3.198,1.76 -1.016,0.657 -1.956,1.413 -2.844,2.234 -1.269,1.175 -2.398,2.486 -3.414,3.881 2.104,-1.275 4.452,-2.2 6.774,-2.939 2.454,-0.781 4.964,-1.23 7.491,-1.694 2.231,-0.409 4.537,-0.859 6.559,-1.934 1.918,-1.02 3.423,-2.628 4.125,-4.703 0.709,-2.093 0.695,-4.376 0.298,-6.526 z"
   id="path46" />

	</g>
  </g>
</svg>
