<?xml version="1.0" encoding="UTF-8" standalone="no"?>
<!-- Created with Inkscape (http://www.inkscape.org/) -->

<svg
   width="35.577614mm"
   height="83.177765mm"
   viewBox="0 0 35.577614 83.177765"
   version="1.1"
   id="svg1"
   inkscape:version="1.4.2 (f4327f4, 2025-05-13)"
   sodipodi:docname="Sunflower-3.svg"
   xmlns:inkscape="http://www.inkscape.org/namespaces/inkscape"
   xmlns:sodipodi="http://sodipodi.sourceforge.net/DTD/sodipodi-0.dtd"
   xmlns="http://www.w3.org/2000/svg"
   xmlns:svg="http://www.w3.org/2000/svg">
  <sodipodi:namedview
     id="namedview1"
     pagecolor="#ffffff"
     bordercolor="#000000"
     borderopacity="0.25"
     inkscape:showpageshadow="2"
     inkscape:pageopacity="0.0"
     inkscape:pagecheckerboard="0"
     inkscape:deskcolor="#d1d1d1"
     inkscape:document-units="mm"
     inkscape:zoom="1.2275954"
     inkscape:cx="-325.02566"
     inkscape:cy="-89.606071"
     inkscape:window-width="2880"
     inkscape:window-height="1676"
     inkscape:window-x="-12"
     inkscape:window-y="-12"
     inkscape:window-maximized="1"
     inkscape:current-layer="layer1" />
  <defs
     id="defs1" />
  <g
     inkscape:label="图层 1"
     inkscape:groupmode="layer"
     id="layer1"
     transform="translate(-191.02916,-172.24375)">
    <g
       id="g60"
       transform="matrix(0.26458333,0,0,0.26458333,122.83111,146.51702)">
		<path
   style="fill:#8e8574"
   d="m 337.78,206.932 c 1.594,0.869 4.073,2.288 5.654,0.729 1.385,-1.365 1.868,-3.776 2.1,-5.625 0.273,-2.183 0.089,-4.398 -0.53,-6.506 -3.771,-0.667 -7.307,-2.342 -10.187,-4.891 0.091,0.396 0.181,0.793 0.247,1.194 0.658,4.043 0.032,8.232 -1.737,11.915 1.464,1.104 2.824,2.296 4.453,3.184 z"
   id="path32" />

		<path
   style="fill:#8e8574"
   d="m 353.598,193.595 c 1.599,-0.436 3.656,-1.229 3.502,-3.235 -0.145,-1.886 -1.702,-3.705 -2.859,-5.104 -1.205,-1.456 -2.554,-2.794 -4.017,-3.991 -1.479,-1.21 -3.091,-2.265 -4.78,-3.158 -0.824,-0.436 -1.668,-0.837 -2.533,-1.184 -0.905,-0.363 -1.847,-0.613 -2.695,-1.095 -0.091,0.217 -0.205,0.427 -0.367,0.612 -1.027,1.172 -2.591,0.99 -3.647,0.118 -0.281,0.634 -0.749,1.166 -1.463,1.332 -0.481,0.112 -0.965,0.031 -1.369,-0.182 -0.215,0.321 -0.529,0.576 -0.94,0.698 -0.433,0.128 -0.916,0.086 -1.318,-0.12 -0.008,-0.004 -0.017,-0.011 -0.025,-0.016 0.02,0.519 -0.112,1.04 -0.426,1.476 -0.28,0.388 -0.635,0.649 -1.018,0.805 0.158,0.378 0.319,0.753 0.48,1.126 1.632,1.802 2.93,3.904 3.823,6.166 0.754,0.83 1.57,1.603 2.447,2.296 3.174,2.506 7.147,3.922 11.179,4.106 2.031,0.092 4.063,-0.115 6.026,-0.65 z"
   id="path33" />

		<path
   style="fill:#8e8574"
   d="m 350.296,198.153 c 1.473,0.81 3.022,1.473 4.624,1.98 1.427,0.452 2.897,0.79 4.383,0.978 1.252,0.159 2.75,0.325 3.896,-0.327 2.349,-1.335 1.06,-5.18 0.379,-7.126 -0.888,-2.542 -2.317,-4.881 -4.132,-6.868 -0.891,-0.976 -1.865,-1.893 -2.921,-2.689 -0.546,-0.412 -1.115,-0.794 -1.7,-1.149 -0.243,-0.148 -0.47,-0.278 -0.687,-0.414 1.085,1.158 2.084,2.398 2.97,3.713 1.202,1.783 2.331,4.134 1.184,6.226 -0.985,1.796 -3.215,2.471 -5.079,2.882 -2.146,0.473 -4.366,0.605 -6.554,0.395 0.006,0.025 0.009,0.051 0.015,0.077 1.223,0.737 2.367,1.632 3.622,2.322 z"
   id="path34-6" />

		<path
   style="fill:#8e8574"
   d="m 372.483,182.496 c 1.207,-0.269 2.393,-0.63 3.543,-1.083 0.619,-0.244 2.47,-0.802 2.305,-1.729 -0.091,-0.509 -0.697,-0.966 -1.045,-1.307 -0.407,-0.399 -0.824,-0.788 -1.25,-1.168 -0.844,-0.753 -1.723,-1.466 -2.637,-2.133 -3.677,-2.686 -7.814,-4.705 -12.147,-6.089 -2.189,-0.699 -4.428,-1.242 -6.691,-1.638 -1.118,-0.196 -2.242,-0.359 -3.37,-0.483 -1.036,-0.114 -2.153,-0.085 -3.181,-0.293 0.009,0.181 -10e-4,0.363 -0.059,0.54 -0.206,0.624 -0.846,1.122 -1.503,1.166 0.28,0.478 0.31,1.073 0.055,1.619 -0.173,0.37 -0.482,0.694 -0.841,0.891 -0.399,0.219 -0.8,0.242 -1.243,0.213 -0.05,-0.003 -0.128,0.002 -0.193,-0.002 0.019,0.121 0.012,0.294 0.012,0.402 -10e-4,0.493 -0.216,0.921 -0.615,1.211 -0.286,0.208 -0.588,0.295 -0.893,0.311 0.051,0.505 -0.087,1.021 -0.497,1.383 -0.005,0.005 -0.012,0.007 -0.017,0.012 0.025,0.009 0.051,0.01 0.076,0.024 0.848,0.475 1.685,0.969 2.521,1.464 0.844,0.387 1.675,0.803 2.478,1.269 0.668,0.387 1.315,0.81 1.951,1.248 0.161,0.084 0.318,0.175 0.48,0.257 2.551,1.293 5.196,2.398 7.945,3.197 4.781,1.39 9.929,1.809 14.816,0.718 z"
   id="path35-1" />

		<path
   style="fill:#8e8574"
   d="m 379.918,164.295 c -0.032,-0.005 -0.055,-0.029 -0.086,-0.039 -3.113,1.746 -6.616,2.905 -10.07,3.503 -1.744,0.302 -3.51,0.468 -5.279,0.489 3.56,1.403 6.937,3.235 9.996,5.52 0.452,-0.014 0.904,-0.026 1.355,-0.052 1.07,-0.06 2.145,-0.154 3.203,-0.323 1.919,-0.307 3.807,-0.804 5.619,-1.509 0.932,-0.363 1.84,-0.789 2.721,-1.264 0.435,-0.235 0.863,-0.483 1.282,-0.746 0.345,-0.216 0.796,-0.424 1.07,-0.729 0.792,-0.886 -3.511,-2.924 -4.167,-3.222 -1.787,-0.811 -3.704,-1.343 -5.644,-1.628 z"
   id="path36-5" />

		<path
   style="fill:#8e8574"
   d="m 348.837,162.258 c 0.21,0.175 0.402,0.372 0.551,0.604 0.369,0.575 0.495,1.337 0.271,1.991 0.793,0.064 1.59,0.185 2.339,0.277 1.424,0.174 2.841,0.398 4.247,0.685 1.282,0.262 2.554,0.576 3.813,0.935 1.064,0.116 2.135,0.189 3.204,0.206 2.468,0.04 4.936,-0.209 7.344,-0.749 2.136,-0.479 4.231,-1.172 6.221,-2.087 0.992,-0.456 1.96,-0.963 2.898,-1.523 0.914,-0.545 1.934,-1.111 2.669,-1.891 1.632,-1.731 -0.168,-4.021 -1.497,-5.289 -1.527,-1.457 -3.318,-2.61 -5.239,-3.477 -3.94,-1.779 -8.445,-2.253 -12.703,-1.633 -2.301,0.335 -4.557,0.97 -6.72,1.818 -1.093,0.428 -2.159,0.922 -3.202,1.46 -1.039,0.536 -2.021,1.179 -3.085,1.66 -0.072,0.033 -0.147,0.047 -0.221,0.054 -0.026,0.23 -0.084,0.458 -0.176,0.675 0.733,0.908 0.635,2.195 -0.086,3.021 0.312,0.327 0.514,0.77 0.511,1.244 -0.006,0.827 -0.483,1.552 -1.139,2.019 z"
   id="path37-4" />

		<path
   style="fill:#8e8574"
   d="m 369.279,146.642 c -0.747,0.652 -1.534,1.261 -2.361,1.805 3.854,0.05 7.715,1.02 11.075,2.912 0.057,-0.04 0.107,-0.084 0.182,-0.114 2.002,-0.78 3.907,-2.088 5.535,-3.475 1.433,-1.22 2.723,-2.616 3.815,-4.15 0.287,-0.403 0.562,-0.815 0.821,-1.237 0.198,-0.322 0.606,-0.895 0.491,-1.303 -0.128,-0.455 -0.871,-0.463 -1.251,-0.508 -0.539,-0.063 -1.079,-0.113 -1.621,-0.151 -2.203,-0.154 -4.42,-0.102 -6.614,0.153 -1.978,0.23 -3.886,0.746 -5.83,1.111 -1.172,1.84 -2.601,3.524 -4.242,4.957 z"
   id="path38-2" />

		<path
   style="fill:#8e8574"
   d="m 348.518,148.031 c -0.028,0.205 -0.137,0.345 -0.277,0.441 0.041,0.574 -0.071,1.161 -0.358,1.659 0.271,0.62 0.352,1.301 0.236,1.976 -0.045,0.264 -0.134,0.561 -0.271,0.834 0.399,0.043 0.781,0.165 1.061,0.376 0.232,0.175 0.41,0.387 0.544,0.619 1.032,-0.801 2.213,-1.413 3.378,-1.995 1.3,-0.649 2.639,-1.226 4.007,-1.718 2.388,-0.858 4.883,-1.417 7.411,-1.65 1.637,-1.022 3.235,-2.092 4.651,-3.425 1.208,-1.137 2.272,-2.413 3.189,-3.79 -10e-4,-0.134 0.061,-0.266 0.229,-0.351 0.007,-0.004 0.015,-0.007 0.022,-0.01 0.323,-0.507 0.625,-1.029 0.904,-1.563 1.105,-2.114 1.841,-4.415 2.206,-6.772 0.185,-1.198 0.249,-2.419 0.224,-3.631 -0.022,-1.039 0.003,-2.308 -0.441,-3.272 -0.468,-1.016 -1.668,-0.954 -2.623,-0.876 -1.075,0.087 -2.14,0.264 -3.194,0.489 -2.156,0.461 -4.258,1.174 -6.238,2.146 -8.018,3.939 -13.447,11.691 -14.66,20.513 z"
   id="path39-0" />

		<path
   style="fill:#8e8574"
   d="m 352.948,130.867 c -1.277,2.234 -2.895,4.291 -4.752,6.071 -0.939,0.899 -1.942,1.728 -3.006,2.475 -0.549,0.385 -1.097,0.745 -1.672,1.049 0.472,0.408 0.779,1.022 0.775,1.641 0,0.069 -0.022,0.132 -0.029,0.2 0.302,0.094 0.582,0.264 0.792,0.523 0.402,0.499 0.559,1.171 0.46,1.801 -0.072,0.458 -0.265,0.855 -0.502,1.232 0.187,-0.021 0.374,-0.025 0.552,-0.011 0.565,0.043 1.107,0.229 1.563,0.558 0.865,-4.855 2.979,-9.426 6.141,-13.228 3.069,-3.689 7.111,-6.492 11.584,-8.206 0.034,-0.102 0.09,-0.202 0.194,-0.293 1.566,-1.364 2.454,-3.252 2.875,-5.261 0.427,-2.039 0.284,-4.174 0.058,-6.229 -0.106,-0.961 -0.145,-1.992 -0.389,-2.93 -0.26,-0.998 -1.174,-0.531 -1.845,-0.189 -1.789,0.911 -3.518,1.944 -5.173,3.08 -1.43,0.981 -2.805,2.037 -4.217,3.04 0.253,5.105 -0.861,10.218 -3.409,14.677 z"
   id="path40-9" />

		<path
   style="fill:#8e8574"
   d="m 335.912,127.825 c -0.111,1.326 -0.132,2.66 -0.062,3.99 0.058,1.105 0.238,2.187 0.381,3.277 0.28,0.16 0.452,0.463 0.325,0.786 0.841,0.474 1.451,1.311 1.712,2.247 0.461,-0.117 0.97,-0.068 1.369,0.204 0.699,0.478 0.971,1.233 0.978,2.016 0.011,-0.007 0.021,-0.016 0.033,-0.022 0.486,-0.271 1.044,-0.397 1.591,-0.361 0.802,-0.611 1.657,-1.14 2.47,-1.751 1.079,-0.81 2.098,-1.703 3.044,-2.665 1.843,-1.875 3.388,-4.025 4.59,-6.363 2.019,-3.929 2.952,-8.423 2.673,-12.836 -0.02,-0.077 -0.022,-0.157 -0.008,-0.237 -0.047,-0.649 -0.121,-1.297 -0.222,-1.94 -0.409,-2.606 -1.193,-5.168 -2.37,-7.532 -0.271,-0.545 -0.569,-1.167 -1.254,-1.205 -0.559,-0.031 -1.128,0.261 -1.598,0.528 -1.065,0.603 -2.081,1.329 -3.036,2.093 -3.862,3.092 -6.953,7.182 -8.754,11.798 -0.997,2.549 -1.634,5.246 -1.862,7.973 z"
   id="path41-7" />

		<path
   style="fill:#8e8574"
   d="m 329.655,134.923 c 0.431,-0.335 1.029,-0.478 1.568,-0.313 0.81,0.247 1.261,0.892 1.541,1.623 0.023,-0.018 0.048,-0.04 0.071,-0.057 0.533,-0.394 1.172,-0.624 1.828,-0.683 -0.32,-1.409 -0.408,-2.926 -0.448,-4.342 -0.047,-1.664 0.054,-3.326 0.279,-4.975 0.443,-3.24 1.414,-6.391 2.88,-9.315 1.509,-3.01 3.545,-5.754 5.968,-8.095 -0.491,-2.723 -1.275,-5.381 -2.349,-7.933 -0.37,-0.88 -0.772,-1.954 -1.555,-2.557 -0.915,-0.705 -1.936,-0.067 -2.67,0.589 -1.653,1.478 -3.058,3.281 -4.213,5.167 -1.186,1.938 -2.104,4.024 -2.751,6.202 -0.632,2.128 -0.838,4.287 -1.146,6.471 0.166,1.611 0.279,3.228 0.292,4.845 0.032,3.993 -0.343,8.109 -1.305,11.999 0.781,0.258 1.48,0.732 2.01,1.374 z"
   id="path42-3" />

		<path
   style="fill:#8e8574"
   d="m 327.536,178.488 c 0.024,0.052 0.033,0.106 0.052,0.158 0.004,-0.002 0.009,-0.004 0.013,-0.005 0.276,0.914 1.473,1.162 2.035,0.361 0.263,-0.375 0.291,-0.845 0.036,-1.231 -0.28,-0.424 -0.723,-0.523 -1.119,-0.787 -0.258,-0.171 -0.34,-0.646 0,-0.796 0.621,-0.274 1.283,-0.015 1.768,0.428 0.317,0.08 0.619,0.268 0.912,0.479 0.288,0.208 0.605,0.413 0.959,0.2 0.295,-0.177 0.35,-0.506 0.254,-0.815 l 0.011,-10e-4 c -0.01,-0.054 -0.028,-0.104 -0.033,-0.16 -0.06,-0.7 1.026,-0.807 1.196,-0.162 0.015,0.059 0.02,0.118 0.03,0.176 0.063,0.381 0.691,0.399 0.943,0.263 0.496,-0.269 0.643,-0.941 0.665,-1.455 0.025,-0.582 0.899,-0.927 1.185,-0.321 0.39,0.826 1.389,1.595 2.271,0.924 0.34,-0.259 0.512,-0.679 0.294,-1.07 -0.258,-0.465 -0.709,-0.352 -1.102,-0.595 -0.296,-0.183 -0.316,-0.546 -0.103,-0.798 0.449,-0.53 1.155,-0.311 1.69,0.082 -0.003,-0.066 -0.024,-0.126 -0.014,-0.195 0.055,-0.392 0.577,-0.347 0.757,-0.099 0.171,0.236 0.301,0.445 0.598,0.527 0.225,0.062 0.482,0.052 0.639,-0.101 0.263,-0.255 0.15,-0.667 -0.09,-0.896 -0.145,-0.069 -0.288,-0.141 -0.425,-0.218 -0.605,-0.341 -0.184,-1.245 0.46,-1.091 0.199,0.048 0.372,0.143 0.533,0.258 0.221,0.103 0.454,0.186 0.676,0.159 0.314,-0.037 0.373,-0.168 0.36,-0.438 -0.022,-0.453 -0.004,-0.892 0.353,-1.224 0.351,-0.326 0.815,-0.313 1.259,-0.286 0.288,0.018 0.514,-0.034 0.703,-0.289 0.137,-0.185 0.153,-0.407 0.091,-0.527 -0.036,-0.069 -0.075,-0.108 -0.146,-0.152 -0.078,-0.049 -0.102,-0.056 -0.126,-0.064 -0.018,-0.006 -0.123,-0.027 -0.148,-0.035 -0.21,-0.014 -0.502,0.096 -0.697,0.128 -0.273,0.045 -0.622,-0.119 -0.593,-0.452 0.076,-0.892 1.035,-1.076 1.78,-0.853 0.049,-0.189 0.198,-0.342 0.443,-0.326 0.223,0.015 0.396,0.006 0.548,-0.076 0.133,-0.071 0.168,-0.088 0.252,-0.189 0.014,-0.018 0.058,-0.09 0.073,-0.135 0.019,-0.06 0.017,-0.154 0.011,-0.183 -0.031,-0.146 -0.037,-0.153 -0.116,-0.262 -0.006,-0.008 -0.014,-0.01 -0.02,-0.017 -0.191,-0.061 -0.376,-0.143 -0.549,-0.26 -0.622,-0.424 -0.216,-1.287 0.493,-1.169 0.212,0.035 0.407,0.122 0.585,0.236 0.006,0 0.004,-10e-4 0.012,0 0.049,0.001 0.098,-0.002 0.146,-0.003 0.104,-0.129 0.233,-0.233 0.4,-0.257 0.124,-0.018 0.255,-0.014 0.382,-0.024 0.155,-0.145 0.221,-0.223 0.273,-0.359 0.017,-0.045 0.047,-0.171 0.048,-0.199 0.003,-0.056 0.003,-0.111 0.002,-0.167 0,-0.019 -0.005,-0.054 -0.007,-0.076 -0.018,-0.096 -0.044,-0.192 -0.08,-0.283 -0.012,-0.02 -0.053,-0.108 -0.054,-0.109 -0.022,-0.04 -0.046,-0.078 -0.07,-0.117 -0.021,-0.033 -0.024,-0.04 -0.028,-0.048 -0.007,-0.007 -0.011,-0.01 -0.031,-0.034 -0.037,-0.043 -0.077,-0.083 -0.117,-0.123 -0.014,-0.014 -0.055,-0.051 -0.065,-0.061 -0.039,-0.029 -0.079,-0.055 -0.12,-0.08 -0.04,-0.024 -0.081,-0.046 -0.123,-0.066 -0.02,-0.006 -0.114,-0.041 -0.115,-0.042 -0.071,-0.027 -0.152,-0.055 -0.219,-0.093 -0.076,-0.041 -0.138,-0.098 -0.184,-0.169 -0.082,-0.1 -0.067,-0.09 0.046,0.031 -0.402,-0.27 -0.299,-0.799 0.127,-0.971 -0.045,0.013 -0.041,0.005 0.012,-0.024 0.102,-0.059 0.213,-0.089 0.331,-0.09 0.049,-0.001 0.099,0.014 0.149,0.021 0.31,-0.353 0.658,-0.689 0.818,-1.121 0.14,-0.38 0.053,-1.123 -0.519,-0.926 -0.778,0.152 -1.091,-0.946 -0.329,-1.192 1.027,-0.219 1.244,-1.378 0.437,-2.011 -0.304,-0.238 -0.195,-0.671 0,-0.923 0.279,-0.361 0.151,-1.015 -0.233,-1.248 -0.517,-0.314 -1.001,0.089 -1.435,0.302 -0.43,0.211 -0.913,-0.134 -0.803,-0.617 0.088,-0.387 0.329,-0.657 0.635,-0.843 0.124,-0.449 0.393,-0.862 0.465,-1.336 0.078,-0.515 -0.034,-1.028 -0.309,-1.467 -0.11,-0.175 -0.126,-0.463 0,-0.637 0.462,-0.636 0.483,-1.574 -0.095,-2.155 -0.255,-0.256 -0.609,-0.403 -0.963,-0.435 -0.214,-0.019 -0.411,-0.002 -0.616,0.055 -0.227,0.063 -0.423,0.201 -0.652,0.257 -0.483,0.118 -1.065,-0.46 -0.711,-0.925 0.08,-0.106 0.186,-0.186 0.29,-0.267 -0.015,-0.062 -0.02,-0.125 0.004,-0.187 0.264,-0.674 0.703,-1.609 0.391,-2.313 -0.047,-0.107 -0.127,-0.226 -0.209,-0.291 0.003,0.002 -0.179,-0.096 -0.094,-0.062 -0.039,-0.013 -0.078,-0.024 -0.118,-0.033 -0.011,-0.001 -0.017,-0.001 -0.04,-0.002 -0.003,0 -0.007,0.001 -0.01,0 -0.182,0.226 -0.395,0.429 -0.656,0.573 -0.466,0.257 -1.062,-0.169 -0.911,-0.7 0.114,-0.4 0.371,-0.676 0.685,-0.852 0.16,-0.45 -0.051,-0.991 -0.558,-1.13 -0.471,-0.129 -0.968,0.112 -1.337,0.392 -0.197,0.149 -0.374,0.33 -0.544,0.509 -0.103,0.109 -0.198,0.234 -0.32,0.323 -0.15,0.109 -0.314,0.135 -0.457,0.162 -0.302,0.056 -0.649,-0.133 -0.633,-0.482 0.015,-0.318 0.05,-0.502 0.266,-0.755 0.018,-0.021 0.039,-0.04 0.057,-0.061 0.039,-0.599 0.154,-1.258 -0.19,-1.767 -0.116,-0.171 -0.313,-0.373 -0.542,-0.344 -0.079,0.01 -0.163,0.054 -0.22,0.108 -0.023,0.021 -0.042,0.06 -0.059,0.09 -0.013,0.121 -0.013,0.243 -0.039,0.362 -0.068,0.314 -0.401,0.492 -0.699,0.456 -0.34,-0.041 -0.513,-0.311 -0.552,-0.626 -0.026,-0.206 0.004,-0.389 0.056,-0.561 0.002,-1.076 -0.826,-2.154 -1.911,-2.303 -0.593,-0.081 -1.219,0.125 -1.689,0.485 -0.239,0.182 -0.418,0.405 -0.586,0.649 -0.181,0.262 -0.317,0.634 -0.564,0.835 -0.217,0.176 -0.604,0.206 -0.749,-0.096 -0.235,-0.493 -0.079,-1.022 0.22,-1.489 -0.12,-0.412 -0.272,-0.834 -0.575,-1.129 -0.154,-0.15 -0.398,-0.321 -0.629,-0.283 -0.108,0.018 -0.337,0.144 -0.316,0.28 0.05,0.324 -0.056,0.629 -0.375,0.763 -0.269,0.113 -0.676,0.028 -0.808,-0.265 -0.427,-0.949 -1.347,-1.694 -2.374,-1.861 -0.171,0.026 -0.345,0.02 -0.512,-0.033 -0.157,0.005 -0.314,0.02 -0.472,0.055 -0.673,0.15 -1.272,0.537 -1.703,1.076 -0.441,0.552 -0.548,1.302 -0.997,1.832 -0.187,0.22 -0.574,0.147 -0.706,-0.091 -0.285,-0.513 -0.18,-1.104 0.066,-1.645 -0.155,-0.248 -0.35,-0.471 -0.625,-0.549 -0.142,-0.04 -0.607,-0.012 -0.464,0.24 0.345,0.608 -0.483,1.268 -0.974,0.752 -0.623,-0.654 -1.487,-1.133 -2.403,-0.762 -0.447,0.181 -0.797,0.556 -1.012,0.98 -0.107,0.211 -0.173,0.446 -0.228,0.676 -0.035,0.148 -0.046,0.3 -0.125,0.435 -0.055,0.094 -0.13,0.168 -0.224,0.224 -0.032,0.014 -0.05,0.022 -0.072,0.031 -0.141,0.084 -0.315,0.115 -0.463,0.018 0.145,0.096 -0.189,-0.115 -0.22,-0.147 -0.092,-0.091 -0.138,-0.201 -0.169,-0.322 -0.031,-0.12 -0.036,-0.246 -0.033,-0.372 -0.482,-0.289 -1.059,-0.574 -1.585,-0.411 -0.163,0.051 -0.333,0.152 -0.38,0.314 0.258,0.188 0.477,0.443 0.61,0.801 0.173,0.465 -0.364,0.994 -0.826,0.826 -0.327,-0.119 -0.578,-0.322 -0.758,-0.567 -0.17,-0.054 -0.362,-0.05 -0.558,0.01 -0.482,0.15 -0.778,0.63 -0.998,1.074 -0.111,0.224 -0.207,0.481 -0.304,0.746 0.018,0.013 0.038,0.025 0.055,0.038 0.383,0.286 0.09,0.868 -0.338,0.709 -0.315,0.778 -0.734,1.488 -1.606,1.626 -0.234,0.037 -0.503,-0.146 -0.418,-0.413 -0.203,0.168 -0.504,0.216 -0.735,0.072 -0.17,-0.106 -0.177,-0.129 -0.338,-0.234 -0.048,-0.032 -0.099,-0.06 -0.149,-0.087 -0.016,-0.008 -0.052,-0.025 -0.073,-0.034 -0.114,-0.042 -0.233,-0.074 -0.353,-0.094 -0.014,-0.002 -0.016,-0.003 -0.017,-0.004 -0.008,10e-4 -0.017,10e-4 -0.042,10e-4 -0.07,0.001 -0.139,-0.004 -0.21,-0.002 -0.01,0 -0.084,0.008 -0.117,0.01 -0.032,0.007 -0.104,0.021 -0.114,0.023 -0.068,0.016 -0.133,0.038 -0.2,0.059 -0.024,0.008 -0.034,0.01 -0.041,0.012 0.004,0 0.004,0.001 -0.016,0.012 -0.051,0.027 -0.102,0.053 -0.152,0.084 -0.004,0.003 -0.096,0.072 -0.106,0.076 -0.035,0.031 -0.069,0.063 -0.102,0.097 -0.015,0.015 -0.047,0.054 -0.058,0.067 -0.035,0.051 -0.063,0.105 -0.097,0.157 -0.013,0.021 -0.019,0.029 -0.023,0.035 0,10e-4 0,0.004 -0.005,0.017 -0.034,0.087 -0.055,0.18 -0.075,0.272 0.124,0.085 0.228,0.186 0.293,0.311 0.094,0.183 0.046,0.404 -0.134,0.513 -0.023,0.014 -0.048,0.019 -0.071,0.03 0.046,0.104 0.093,0.206 0.153,0.303 0.083,0.134 0.144,0.167 0.224,0.355 0.058,0.135 0.098,0.265 0.102,0.414 0.005,0.21 -0.148,0.374 -0.336,0.441 -0.837,0.297 -1.473,-0.854 -1.603,-1.508 0,-0.001 0,-0.002 0,-0.003 -0.144,0.002 -0.286,0.018 -0.422,0.075 -0.128,0.053 -0.345,0.258 -0.397,0.433 0.211,0.141 0.401,0.323 0.557,0.548 0.332,0.48 -0.218,1.067 -0.723,0.941 -0.341,-0.085 -0.592,-0.283 -0.771,-0.531 -0.417,-0.074 -0.948,0.213 -1.224,0.434 -0.547,0.439 -0.968,1.022 -1.273,1.649 -0.103,0.212 -0.168,0.441 -0.239,0.667 0.024,0.068 0.056,0.132 0.077,0.202 0.076,0.26 -0.06,0.456 -0.254,0.541 -0.034,0.207 -0.08,0.412 -0.091,0.619 -0.018,0.353 -0.053,0.723 -0.042,1.074 0.011,0.344 0.121,0.695 0.043,1.034 -0.071,0.31 -0.447,0.355 -0.659,0.174 -0.116,-0.099 -0.196,-0.232 -0.263,-0.375 -0.02,-0.015 -0.04,-0.024 -0.059,-0.044 -0.02,-0.021 -0.021,-0.019 -0.029,-0.025 -0.028,0.001 -0.045,0.002 -0.051,0.002 -0.032,0.008 -0.065,0.017 -0.098,0.022 -0.02,0.002 -0.014,0.002 -0.023,0.004 -0.02,0.038 -0.04,0.081 -0.043,0.104 -0.041,0.343 0.404,0.584 0.675,0.728 0.739,0.436 0.069,1.584 -0.673,1.151 -0.029,-0.015 -0.04,-0.022 -0.046,-0.026 -0.005,-0.001 -0.017,-0.004 -0.048,-0.015 -0.026,-0.009 -0.03,-0.012 -0.04,-0.016 -0.003,0.001 -10e-4,0.003 -0.014,0.002 -0.044,-0.003 -0.089,-0.001 -0.134,0.002 -0.013,0.006 -0.119,0.027 -0.125,0.029 -0.032,0.009 -0.042,0.011 -0.046,0.012 -0.001,0.001 -0.006,0.004 -0.02,0.01 -0.053,0.025 -0.104,0.055 -0.154,0.086 -0.058,0.036 -0.099,0.069 -0.19,0.168 -0.089,0.096 -0.168,0.247 -0.184,0.412 -0.022,0.231 0.024,0.428 0.113,0.621 0.223,0.482 0.64,0.822 1.132,1.019 0.314,0.125 0.65,0.204 0.977,0.286 0.175,0.044 0.339,0.101 0.506,0.17 0.165,0.068 0.262,0.18 0.403,0.279 0.178,0.125 0.22,0.417 0,0.533 -0.2,0.105 -0.352,0.216 -0.583,0.252 -0.252,0.039 -0.486,0.033 -0.737,0.001 -0.096,-0.012 -0.184,-0.041 -0.278,-0.059 -0.016,0.066 -0.04,0.129 -0.079,0.18 -0.152,0.197 -0.385,0.214 -0.6,0.12 -0.167,-0.073 -0.381,0.015 -0.516,0.098 -0.147,0.09 -0.268,0.233 -0.278,0.347 -0.021,0.248 0.371,0.479 0.586,0.408 0.064,-0.021 0.122,-0.053 0.189,-0.069 0.699,-0.167 1.192,0.861 0.505,1.198 -0.052,0.025 -0.108,0.033 -0.162,0.053 0.002,0.004 0.004,0.009 0.005,0.013 -0.572,0.145 -0.902,0.682 -0.963,1.24 0.014,0.009 0.029,0.017 0.043,0.026 0.337,0.235 0.309,0.619 0.107,0.847 0.177,0.372 0.477,0.7 0.793,0.946 0.035,0.027 0.074,0.047 0.11,0.073 0.234,-0.029 0.476,-0.017 0.716,0.083 0.277,0.116 0.339,0.383 0.25,0.582 0.062,0.048 0.133,0.084 0.19,0.137 0.183,0.17 0.073,0.448 -0.138,0.522 -0.345,0.122 -0.737,0.092 -1.113,-0.02 -0.021,0.045 -0.035,0.099 -0.046,0.166 0.003,0.011 0.002,0.078 0,0.112 0.002,-0.005 0.006,0.006 0.012,0.034 10e-4,0.002 10e-4,10e-4 10e-4,0.003 0.009,0.017 0.019,0.032 0.03,0.048 0.006,0.005 0.013,0.012 0.034,0.035 0.02,0.019 0.023,0.024 0.026,0.029 0.007,0.003 0.012,0.005 0.033,0.017 0.01,0.006 0.074,0.034 0.095,0.045 0.277,-0.153 0.591,-0.25 0.94,-0.255 0.591,-0.01 0.928,0.773 0.49,1.183 -0.266,0.249 -0.595,0.381 -0.936,0.43 -0.016,0.016 -0.032,0.031 -0.047,0.048 0.037,-0.042 -0.09,0.136 -0.108,0.171 -0.013,0.027 -0.018,0.036 -0.024,0.047 -0.016,0.046 -0.03,0.092 -0.042,0.14 -0.019,0.081 -0.02,0.084 -0.017,0.216 0.003,0.124 0.053,0.328 0.114,0.457 0.178,0.37 0.476,0.627 0.849,0.82 0.411,0.213 0.871,0.299 1.271,0.535 0.388,0.228 0.254,0.737 -0.116,0.885 -0.241,0.097 -0.508,0.109 -0.779,0.089 0.002,-0.001 0.007,0 -0.018,0.041 -0.016,0.029 -0.031,0.058 -0.047,0.087 -0.002,0.008 -0.006,0.019 -0.015,0.046 -0.003,0.013 -0.003,0.013 -0.005,0.022 10e-4,0.029 10e-4,0.04 10e-4,0.048 0.004,0.041 -0.019,-0.024 0.032,0.055 0.04,0.062 0.108,0.112 0.178,0.144 0.028,0.013 0.055,0.016 0.082,0.024 0.443,-0.504 1.059,-0.862 1.762,-0.945 0.238,-0.028 0.466,0.173 0.554,0.372 0.107,0.244 0.029,0.466 -0.125,0.662 -0.376,0.48 -0.872,0.906 -1.474,1.065 -0.01,0.003 -0.021,0.002 -0.031,0.004 -0.043,0.097 -0.071,0.195 -0.11,0.355 -0.028,0.117 -0.018,0.364 0.023,0.516 0.005,0.017 0.033,0.103 0.04,0.131 0.013,0.025 0.05,0.106 0.059,0.122 0.03,0.055 0.063,0.107 0.097,0.16 0.017,0.026 0.035,0.052 0.054,0.077 -0.03,-0.039 -0.03,-0.042 -0.002,-0.008 0.077,0.087 0.16,0.164 0.245,0.243 0.022,0.021 0.03,0.029 0.034,0.034 0.005,0.002 0.012,0.006 0.034,0.02 0.053,0.035 0.105,0.07 0.16,0.101 0.048,0.028 0.086,0.05 0.123,0.071 0.163,-0.283 0.406,-0.515 0.726,-0.618 0.383,-0.123 0.6,0.44 0.268,0.635 -0.103,0.061 -0.148,0.152 -0.171,0.249 0.118,0.028 0.24,0.063 0.371,0.126 0.025,0.012 0.037,0.034 0.056,0.05 0.058,-0.05 0.111,-0.106 0.173,-0.152 0.571,-0.42 1.478,-0.646 2.056,-0.108 0.669,0.622 0.306,1.56 -0.396,1.964 -0.396,0.228 -0.894,0.308 -1.374,0.277 -0.009,0.042 -0.018,0.085 -0.024,0.127 0,0.012 0,0.019 0,0.04 0,0.1 -0.003,0.199 10e-4,0.299 0,0.01 0.004,0.035 0.007,0.055 0.007,0.038 0.015,0.077 0.024,0.115 0.003,0.011 0.008,0.022 0.011,0.034 0.672,-0.554 1.847,0.23 1.3,1.081 -0.048,0.074 -0.103,0.143 -0.151,0.216 0.033,0.016 0.064,0.036 0.097,0.05 -0.046,-0.02 0.04,0.01 0.113,0.035 0.208,-0.412 0.532,-0.771 1.01,-0.839 0.167,-0.024 0.31,0.007 0.419,0.143 0.1,0.126 0.109,0.303 0.031,0.442 -0.049,0.088 -0.089,0.181 -0.136,0.27 -0.004,0.008 -0.009,0.017 -0.013,0.026 0.006,-0.007 0.004,-0.005 -0.004,0.013 0.099,-0.019 0.2,-0.029 0.296,-0.057 0.232,-0.067 0.49,-0.108 0.709,-0.204 0.234,-0.102 0.405,-0.233 0.673,-0.151 0.141,0.043 0.211,0.157 0.227,0.298 0.045,0.401 -0.425,0.716 -0.692,0.952 -0.304,0.267 -0.779,0.418 -1.167,0.504 -0.024,0.005 -0.048,0.005 -0.072,0.01 0.008,0.014 0.015,0.028 0.023,0.042 0.006,0.01 0.021,0.031 0.036,0.052 0.018,0.021 0.037,0.044 0.046,0.053 0.025,0.026 0.052,0.049 0.078,0.073 0.043,0.029 0.088,0.055 0.135,0.079 0.074,0.024 0.147,0.043 0.223,0.059 0.006,0.001 0.012,0.001 0.018,0.001 0.042,0.002 0.084,0.003 0.126,0.002 0.035,-0.001 0.07,-0.003 0.104,-0.006 0.095,-0.018 0.189,-0.042 0.281,-0.075 0.002,-0.001 0.005,-0.002 0.007,-0.003 0.032,-0.016 0.064,-0.031 0.096,-0.048 0.047,-0.025 0.092,-0.053 0.136,-0.083 10e-4,-10e-4 0.003,-0.002 0.004,-0.003 0.053,-0.05 0.107,-0.098 0.158,-0.15 0.129,-0.132 0.256,-0.259 0.4,-0.374 0.166,-0.133 0.347,-0.208 0.563,-0.149 0.14,0.039 0.262,0.152 0.336,0.287 0.521,0.115 0.739,0.913 0.196,1.23 -0.189,0.11 -0.218,0.235 -0.168,0.344 0.175,-0.014 0.348,-0.048 0.524,-0.055 0.196,-0.008 0.335,0.1 0.412,0.244 0.373,-0.148 0.699,-0.466 0.96,-0.737 0.496,-0.518 1.455,0.012 1.226,0.714 -0.198,0.606 0.101,1.351 0.744,1.555 0.723,0.229 1.528,-0.417 1.606,-1.136 0.092,-0.854 1.278,-0.873 1.344,0 0.05,0.656 0.185,1.684 0.568,2.454 0.409,-0.063 0.831,0.11 0.932,0.637 0.02,0.106 0.026,0.214 0.045,0.321 0.052,0.017 0.112,0.019 0.167,0.03 0.009,-0.014 0.017,-0.028 0.027,-0.042 0.183,-0.255 0.565,-0.215 0.7,0.005 1.623,-0.447 1.788,-2.403 2.398,-3.69 0.097,-0.205 0.288,-0.272 0.475,-0.249 0.243,-0.414 0.937,-0.333 0.987,0.254 0.033,0.385 0.448,0.808 0.857,0.701 0.39,-0.102 0.546,-0.553 0.433,-0.903 -0.154,-0.784 0.964,-1.106 1.204,-0.332 0.125,0.603 0.621,1.339 1.331,1.264 0.186,-0.02 0.388,-0.137 0.543,-0.298 0.048,-0.14 0.126,-0.267 0.226,-0.38 0.03,-0.119 0.027,-0.242 -0.027,-0.358 0.002,-10e-4 0.003,-10e-4 0.005,-0.002 -0.02,-0.053 -0.053,-0.095 -0.07,-0.151 -0.207,-0.686 0.863,-1.155 1.171,-0.493 z"
   id="path43-7" />

		<path
   style="fill:#8e8574"
   d="m 305.974,176.453 c 0.001,0 0.002,0 0.003,-0.001 0.002,-0.005 0.005,-0.009 0.007,-0.014 -0.003,0.004 -0.003,-0.003 -0.008,0.009 -10e-4,0.002 -10e-4,0.004 -0.002,0.006 z"
   id="path44-2" />

		<path
   style="fill:#8e8574"
   d="m 308.568,141.294 c 0.133,-0.34 0.262,-0.682 0.402,-1.021 -0.085,0.012 -0.172,0.017 -0.251,0.051 -0.135,0.057 -0.276,0.226 -0.315,0.316 -0.047,0.108 -0.05,0.165 -0.049,0.215 0,0.015 0.002,0.016 0.003,0.023 0.045,0.057 0.106,0.101 0.142,0.165 -0.006,0.003 -0.012,0.007 -0.018,0.01 0.045,0.076 0.073,0.156 0.086,0.241 z"
   id="path45-6" />

		<path
   style="fill:#8e8574"
   d="m 318.279,134.115 c 0.76,-0.081 1.582,0.107 2.224,0.529 0.254,-0.296 0.622,-0.502 1.056,-0.519 0.663,-0.027 1.167,0.322 1.514,0.811 0.026,-0.032 0.052,-0.068 0.077,-0.098 0.612,-0.727 1.497,-1.279 2.437,-1.447 0.037,-0.007 0.074,-0.006 0.111,-0.012 0.974,-4.194 1.54,-8.372 1.454,-12.69 -0.149,-7.561 -2.001,-15.253 -5.63,-21.914 -0.328,-0.602 -0.78,-1.445 -1.543,-1.533 -0.799,-0.092 -1.519,0.73 -1.962,1.288 -1.152,1.455 -2.075,3.159 -2.87,4.83 -1.66,3.492 -2.486,7.193 -3.084,10.991 -0.003,0.02 -0.014,0.032 -0.019,0.051 3.121,6.041 4.71,12.815 6.226,19.413 0.026,0.108 0.02,0.205 0.009,0.3 z"
   id="path46-0" />

		<path
   style="fill:#8e8574"
   d="m 308.973,138.677 c 0.075,0.2 0.053,0.371 -0.007,0.523 0.134,0.008 0.269,0.025 0.402,0.057 0.242,-0.633 0.521,-1.249 0.98,-1.76 0.475,-0.53 1.226,-0.845 1.944,-0.856 0.1,-0.321 0.291,-0.623 0.607,-0.849 0.505,-0.362 1.193,-0.444 1.788,-0.295 0.386,0.097 0.72,0.299 1.028,0.54 0.041,-0.091 0.074,-0.186 0.122,-0.273 0.248,-0.452 0.613,-0.827 1.037,-1.114 -0.1,-0.096 -0.185,-0.215 -0.224,-0.388 -1.012,-4.444 -2.017,-8.906 -3.522,-13.215 -2.298,-6.58 -5.981,-13.09 -11.887,-17.061 -1.384,-0.931 -3.38,-2.017 -4.988,-0.959 -1.221,0.804 -1.631,2.482 -1.789,3.845 -0.438,3.78 0.304,7.414 1.261,11.04 6.176,5.65 10.319,12.983 13.248,20.765 z"
   id="path47" />

		<path
   style="fill:#8e8574"
   d="m 283.115,130.342 c 0.396,1.065 0.852,2.105 1.365,3.118 0.481,0.95 1.043,1.858 1.467,2.835 2.381,0.984 4.671,2.199 6.745,3.72 1.404,1.03 2.761,2.162 3.936,3.451 0.594,0.652 1.153,1.335 1.68,2.042 0.111,0.149 0.221,0.299 0.33,0.449 0.065,-0.122 0.125,-0.247 0.199,-0.365 0.525,-0.838 1.269,-1.643 2.201,-2.019 0.299,-0.121 0.61,-0.173 0.916,-0.172 0.062,-0.256 0.186,-0.5 0.373,-0.703 0.375,-0.406 0.934,-0.612 1.476,-0.645 0.05,-0.003 0.107,-0.003 0.163,-0.003 0.078,-0.358 0.226,-0.7 0.461,-1.001 0.481,-0.616 1.237,-0.944 2.011,-0.966 0.285,-0.008 0.595,0.047 0.896,0.137 0.104,-0.225 0.256,-0.422 0.434,-0.59 -0.19,-0.088 -0.35,-0.249 -0.429,-0.503 -1.319,-4.272 -3.313,-8.329 -5.766,-12.064 -2.158,-3.285 -4.716,-6.305 -7.663,-8.91 -1.486,-1.313 -3.071,-2.509 -4.747,-3.569 -1.596,-1.01 -3.836,-2.31 -5.75,-1.394 -1.621,0.775 -2.089,2.796 -2.224,4.427 -0.174,2.1 -0.044,4.263 0.272,6.343 0.33,2.176 0.888,4.319 1.654,6.382 z"
   id="path48" />

		<path
   style="fill:#8e8574"
   d="m 270.69,127.39 c 0.056,0.979 0.129,1.956 0.231,2.931 0.09,0.855 0.257,1.729 0.238,2.593 4.005,0.366 7.999,1.035 11.829,2.28 0.425,0.138 0.842,0.305 1.264,0.457 -0.434,-0.682 -0.809,-1.405 -1.162,-2.128 -0.578,-1.184 -1.085,-2.406 -1.517,-3.651 -0.615,-1.772 -1.058,-3.6 -1.35,-5.452 -0.113,-0.033 -0.227,-0.085 -0.34,-0.172 -1.358,-1.049 -2.969,-1.867 -4.606,-2.376 -0.824,-0.256 -1.667,-0.454 -2.52,-0.586 -0.676,-0.105 -1.842,-0.413 -2.079,0.47 -0.223,0.83 -0.098,1.842 -0.091,2.694 0.009,0.981 0.047,1.961 0.103,2.94 z"
   id="path49" />

		<path
   style="fill:#8e8574"
   d="m 268.03,142.485 c 0.453,0.631 0.969,1.218 1.522,1.763 0.557,0.548 1.194,1.002 1.716,1.583 0.075,0.083 0.125,0.169 0.159,0.255 0.975,0.028 1.948,0.095 2.915,0.201 4.035,0.441 7.963,1.543 11.752,2.975 1.906,0.721 3.779,1.534 5.629,2.388 1.306,0.603 2.64,1.204 3.904,1.912 -0.023,-0.657 0.212,-1.301 0.732,-1.742 0.151,-0.128 0.319,-0.236 0.495,-0.322 -0.19,-0.41 -0.23,-0.868 0.02,-1.333 0.201,-0.374 0.612,-0.63 1.04,-0.632 -0.074,-0.39 -0.063,-0.792 -0.018,-1.19 0.035,-0.308 0.098,-0.611 0.173,-0.911 -0.381,-0.449 -0.728,-0.932 -1.112,-1.377 -0.558,-0.646 -1.153,-1.255 -1.767,-1.848 -1.281,-1.239 -2.659,-2.347 -4.146,-3.33 -5.879,-3.887 -12.808,-5.612 -19.758,-6.271 -0.911,-0.086 -1.824,-0.159 -2.738,-0.211 -0.656,-0.038 -1.406,-0.107 -2.013,0.203 -1.296,0.663 -0.89,2.607 -0.568,3.715 0.439,1.502 1.151,2.903 2.063,4.172 z"
   id="path50" />

		<path
   style="fill:#8e8574"
   d="m 259.367,153.225 c 2.643,2.259 5.705,4.024 8.977,5.195 0.047,0.017 0.076,0.049 0.117,0.071 0.016,-0.003 0.032,-0.007 0.048,-0.01 2.365,-0.451 4.756,-0.759 7.145,-1.051 2.611,-0.319 5.232,-0.597 7.864,-0.634 4.135,-0.059 8.778,0.446 12.491,2.507 0.098,-0.291 0.223,-0.572 0.401,-0.817 -0.418,-0.319 -0.701,-0.801 -0.648,-1.392 0.06,-0.674 0.526,-1.155 1.093,-1.347 -0.265,-0.197 -0.501,-0.435 -0.697,-0.701 -1.785,-0.638 -3.496,-1.51 -5.229,-2.268 -1.933,-0.845 -3.893,-1.631 -5.883,-2.331 -6.672,-2.347 -13.986,-3.653 -20.987,-2.058 -1.686,0.384 -3.344,0.924 -4.91,1.661 -0.616,0.29 -1.684,0.659 -1.318,1.52 0.288,0.673 0.998,1.194 1.536,1.655 z"
   id="path51" />

		<path
   style="fill:#8e8574"
   d="m 267.218,170.962 c 3.442,1.009 6.992,0.915 10.399,-0.173 0.193,-0.062 0.354,-0.041 0.496,0.011 1.294,-0.654 2.612,-1.223 3.895,-1.717 2.604,-1.004 5.322,-1.714 8.084,-2.114 2.356,-0.341 4.941,-0.624 7.333,-0.232 -0.048,-0.106 -0.101,-0.21 -0.137,-0.322 -0.185,-0.58 -0.111,-1.193 0.137,-1.715 -0.217,-0.171 -0.396,-0.395 -0.508,-0.67 -0.197,-0.483 -0.096,-0.981 0.164,-1.379 -0.576,-0.446 -1.028,-1.069 -1.183,-1.79 -0.016,-0.075 -0.013,-0.152 -0.023,-0.227 -1.971,-0.929 -3.977,-1.654 -6.147,-2.038 -2.486,-0.441 -5.026,-0.498 -7.542,-0.37 -2.385,0.122 -4.758,0.412 -7.124,0.721 -2.191,0.286 -4.38,0.602 -6.545,1.045 -0.101,0.059 -0.223,0.08 -0.355,0.076 -2.02,0.426 -4.02,0.965 -5.948,1.706 -1.003,0.385 -2.036,0.806 -2.956,1.367 -0.855,0.522 -1.313,1.143 -0.672,2.061 0.999,1.432 2.474,2.639 3.925,3.587 1.455,0.953 3.038,1.684 4.707,2.173 z"
   id="path52" />

		<path
   style="fill:#8e8574"
   d="m 275.469,187.438 c -2.033,-0.542 -4,-1.32 -5.838,-2.35 -0.484,-0.271 -1.422,-0.639 -1.594,-1.213 -0.16,-0.534 0.013,-1.288 0.095,-1.827 0.194,-1.284 0.654,-2.526 1.279,-3.662 1.122,-2.04 2.772,-3.728 4.673,-5.137 -0.744,0.077 -1.495,0.105 -2.246,0.09 -0.267,0.095 -0.534,0.192 -0.794,0.305 -1.262,0.549 -2.454,1.286 -3.533,2.139 -2.092,1.653 -3.833,3.716 -5.435,5.834 -0.746,0.986 -1.706,2.017 -2.22,3.148 -0.557,1.227 0.481,1.91 1.493,2.347 4.45,1.927 9.586,1.969 14.12,0.326 z"
   id="path53" />

		<path
   style="fill:#8e8574"
   d="m 298.608,168.059 c -0.189,-0.109 -0.357,-0.244 -0.515,-0.39 -1.326,0.126 -2.666,0.092 -3.998,0.157 -1.337,0.065 -2.675,0.196 -3.997,0.403 -4.095,0.638 -8.082,1.956 -11.732,3.919 -0.083,0.086 -0.185,0.16 -0.317,0.209 -0.037,0.014 -0.075,0.021 -0.112,0.035 -0.354,0.197 -0.709,0.391 -1.056,0.601 -3.698,2.228 -7.282,5.667 -7.382,10.245 2.494,1.377 5.129,2.424 7.933,2.983 9.447,1.884 19.296,-2.077 24.884,-9.841 -0.469,-0.707 -0.668,-1.584 -0.462,-2.439 0.013,-0.053 0.036,-0.102 0.052,-0.154 -0.182,-0.166 -0.331,-0.358 -0.421,-0.585 -0.272,-0.06 -0.529,-0.16 -0.724,-0.276 -0.616,-0.368 -1.122,-0.998 -1.263,-1.711 -0.085,-0.43 -0.049,-0.85 0.067,-1.243 -0.146,-0.07 -0.284,-0.156 -0.406,-0.264 -0.44,-0.392 -0.571,-1.013 -0.342,-1.548 -0.069,-0.035 -0.145,-0.064 -0.209,-0.101 z"
   id="path54" />

		<path
   style="fill:#8e8574"
   d="m 275.235,200.068 c 0.019,0.583 -0.05,1.321 0.19,1.869 0.408,0.931 1.966,0.917 2.823,0.986 1.151,0.092 2.306,0.087 3.456,-0.029 4.51,-0.455 8.589,-2.637 11.681,-5.903 -0.062,-4.257 1.374,-8.488 4.125,-11.765 2.217,-2.641 5.327,-4.739 8.706,-5.652 -0.079,-0.013 -0.158,-0.026 -0.237,-0.049 -0.552,-0.161 -1.044,-0.548 -1.301,-1.067 -0.099,-0.201 -0.164,-0.426 -0.206,-0.655 -0.292,-0.059 -0.578,-0.15 -0.855,-0.283 -2.916,3.937 -6.875,7.031 -11.415,8.907 -4.16,1.719 -8.725,2.265 -13.175,1.71 -0.216,0.262 -0.495,0.467 -0.773,0.724 -0.465,0.43 -0.872,0.915 -1.216,1.446 -0.703,1.084 -1.171,2.298 -1.451,3.557 -0.296,1.331 -0.379,2.696 -0.388,4.057 -0.004,0.715 0.012,1.431 0.036,2.147 z"
   id="path55" />

		<path
   style="fill:#8e8574"
   d="m 294.061,215.543 c 0.885,0.819 2.134,-0.071 2.947,-0.584 1.877,-1.184 3.545,-2.674 4.965,-4.379 0.706,-0.848 1.336,-1.758 1.897,-2.708 0.299,-0.507 0.578,-1.025 0.835,-1.555 0.049,-0.1 0.092,-0.197 0.136,-0.294 -0.818,0.359 -1.65,0.686 -2.512,0.933 -2.403,0.687 -5.035,0.836 -6.619,-1.435 -1.238,-1.774 -1.86,-4.1 -2.15,-6.253 -0.377,0.359 -0.777,0.693 -1.186,1.017 -0.793,1.52 -1.272,3.171 -1.338,4.936 -0.093,2.509 0.552,4.963 1.466,7.28 0.382,0.967 0.772,2.313 1.559,3.042 z"
   id="path56" />

		<path
   style="fill:#8e8574"
   d="m 313.206,196.318 c 0.676,-1.199 1.197,-2.477 1.594,-3.793 0.009,-0.868 0.053,-1.735 0.169,-2.597 0.144,-1.066 0.357,-2.167 0.671,-3.236 -0.014,-1.135 -0.128,-2.269 -0.346,-3.385 -0.043,-0.054 -0.089,-0.106 -0.129,-0.163 -0.311,-0.438 -0.495,-0.928 -0.628,-1.436 -0.582,0.491 -1.353,0.741 -2.168,0.562 -0.892,-0.197 -1.571,-0.888 -1.865,-1.716 -0.786,0.43 -1.685,0.556 -2.516,-0.039 -0.043,-0.031 -0.078,-0.068 -0.117,-0.102 -4.008,1.083 -7.65,3.223 -10.101,6.685 -2.545,3.595 -3.518,8.204 -2.701,12.529 0.207,1.099 0.519,2.182 0.944,3.217 0.383,0.931 0.879,1.92 1.759,2.474 0.968,0.609 2.192,0.417 3.244,0.169 0.995,-0.234 1.977,-0.552 2.92,-0.948 3.882,-1.627 7.205,-4.553 9.27,-8.221 z"
   id="path57" />

		<path
   style="fill:#8e8574"
   d="m 315.24,197.134 c -0.047,-0.223 -0.073,-0.45 -0.113,-0.674 -0.447,0.873 -0.938,1.725 -1.515,2.527 -1.743,2.422 -3.996,4.454 -6.566,5.949 0.629,2.199 1.204,4.41 2.076,6.535 0.838,2.043 1.894,4.003 3.12,5.839 0.471,0.705 1.058,1.917 2.079,1.622 0.932,-0.269 1.653,-1.148 2.244,-1.868 1.253,-1.527 2.145,-3.355 2.641,-5.263 0.253,-0.973 0.403,-1.965 0.44,-2.97 0.032,-0.877 -0.152,-1.799 -0.048,-2.666 -2.134,-2.613 -3.661,-5.746 -4.358,-9.031 z"
   id="path58" />

		<path
   style="fill:#8e8574"
   d="m 319.173,276.222 c 1.369,0.978 2.591,2.115 3.67,3.373 -2.139,-3.506 -4.881,-6.65 -7.88,-9.478 -5.169,-4.874 -10.99,-9.058 -16.925,-12.942 -11.672,-7.64 -24.091,-14.038 -35.98,-21.32 0.023,0.068 0.041,0.138 0.064,0.206 2.227,6.517 5.869,12.544 10.488,17.643 4.643,5.126 10.264,9.332 16.533,12.262 3.166,1.48 6.477,2.547 9.866,3.381 3.52,0.866 7.085,1.553 10.57,2.558 3.372,0.973 6.721,2.266 9.594,4.317 z"
   id="path59" />

		<path
   style="fill:#8e8574"
   d="m 350.283,304.601 c -6.158,3.044 -12.416,6.119 -17.846,10.377 -2.679,2.101 -5.158,4.492 -7.218,7.209 -0.66,0.871 -1.267,1.78 -1.85,2.704 0.214,-1.37 0.431,-2.74 0.635,-4.111 0.363,-0.472 0.725,-0.944 1.111,-1.399 2.247,-2.644 4.866,-4.939 7.661,-6.986 5.683,-4.161 12.073,-7.207 18.356,-10.335 7.304,-3.636 14.541,-7.408 21.707,-11.308 5.12,-2.786 10.188,-5.666 15.232,-8.588 -6.117,1.212 -12.389,1.58 -18.573,2.329 -3.76,0.456 -7.515,1.077 -11.156,2.14 -3.479,1.015 -6.78,2.481 -9.867,4.378 -6.037,3.711 -11.105,8.84 -15.432,14.41 -3.351,4.314 -6.29,8.952 -8.816,13.8 1.323,-9.022 2.452,-18.072 3.298,-27.152 0.144,-1.544 0.278,-3.089 0.406,-4.634 0.051,0.211 0.117,0.418 0.164,0.63 0.031,-0.829 0.059,-1.659 0.088,-2.488 -0.02,-0.133 -0.053,-0.263 -0.075,-0.396 0.348,-4.455 0.635,-8.915 0.842,-13.379 1.912,-1.828 3.951,-3.526 6.121,-5.055 4.826,-3.399 10.232,-5.963 15.916,-7.556 5.969,-1.673 12.172,-2.414 18.073,-4.342 2.894,-0.945 5.681,-2.209 8.175,-3.969 2.189,-1.545 4.118,-3.429 6.018,-5.308 1.862,-1.842 3.745,-3.732 5.789,-5.387 -6.157,1.394 -12.292,2.891 -18.323,4.762 -7.054,2.188 -13.97,4.889 -20.438,8.478 -5.832,3.236 -11.296,7.169 -15.988,11.923 -1.951,1.977 -3.725,4.104 -5.339,6.342 0.049,-1.069 0.087,-2.138 0.128,-3.208 1.649,-2.091 3.432,-4.079 5.365,-5.927 4.97,-4.751 10.706,-8.678 16.781,-11.877 6.766,-3.562 13.983,-6.209 21.309,-8.361 6.49,-1.907 13.082,-3.425 19.686,-4.883 -6.225,-1.816 -12.541,-3.458 -19.03,-3.816 -6.074,-0.336 -12.378,0.443 -17.869,3.192 -5.432,2.72 -9.577,7.272 -13.19,12.054 -3.803,5.034 -7.488,10.221 -10.851,15.559 -0.758,1.203 -1.48,2.429 -2.185,3.665 0.205,-5.55 0.299,-11.105 0.254,-16.66 -0.109,-13.452 -0.862,-26.903 -2.656,-40.241 -0.101,-0.749 -0.209,-1.494 -0.323,-2.239 0.062,-0.013 0.118,-0.04 0.18,-0.055 0.213,-0.304 0.574,-0.434 0.919,-0.397 0.474,-0.297 0.899,-0.684 1.276,-1.086 1.395,-1.488 2.503,-3.267 3.305,-5.139 1.597,-3.728 1.924,-7.949 0.853,-11.862 -0.326,-1.191 -0.784,-2.322 -1.336,-3.399 -0.301,-0.429 -0.587,-0.868 -0.855,-1.317 -0.198,-0.331 -0.388,-0.673 -0.572,-1.02 -0.953,-1.329 -2.07,-2.546 -3.337,-3.616 -0.213,0.154 -0.454,0.276 -0.726,0.34 -0.799,0.189 -1.558,-0.134 -2.112,-0.682 -0.261,0.314 -0.617,0.549 -1.039,0.631 -0.63,0.122 -1.254,-0.145 -1.667,-0.599 -0.36,1.806 -1.601,3.638 -3.528,3.761 -0.018,10e-4 -0.034,-0.002 -0.052,-0.002 -0.108,0.333 -0.215,0.665 -0.32,0.997 0.18,2.896 -0.206,5.821 -1.179,8.546 0.104,1.31 0.328,2.609 0.696,3.876 1.13,3.89 3.5,7.514 6.732,9.983 0.179,0.137 0.372,0.276 0.573,0.408 -0.004,-0.023 -0.007,-0.047 -0.011,-0.07 -0.062,-0.399 0.164,-0.692 0.451,-0.826 0.692,6.335 1.501,12.65 1.998,19.007 0.525,6.719 0.835,13.455 0.953,20.194 0.19,10.909 -0.166,21.834 -0.912,32.723 -2.126,-6.313 -5.859,-11.785 -10.557,-16.495 -4.971,-4.983 -10.659,-9.347 -16.451,-13.328 -5.728,-3.937 -11.793,-7.463 -18.223,-10.128 -3.184,-1.32 -6.455,-2.436 -9.795,-3.29 -1.702,-0.435 -3.421,-0.803 -5.152,-1.096 -1.002,-0.169 -2.01,-0.278 -3.017,-0.389 6.35,3.861 12.847,7.468 19.29,11.169 6.475,3.719 12.911,7.524 19.081,11.737 5.921,4.043 11.788,8.412 16.726,13.64 2.332,2.469 4.461,5.164 6.157,8.113 0.651,1.132 1.202,2.309 1.696,3.507 -0.104,1.364 -0.209,2.728 -0.325,4.09 -1.138,13.43 -2.879,26.803 -5.024,40.107 -2.136,13.252 -4.688,26.435 -7.481,39.563 -2.796,13.138 -6.07,26.171 -8.859,39.308 -0.349,1.644 -0.673,3.277 -0.924,4.939 -0.124,0.82 0.994,1.169 1.266,0.349 2.116,-6.387 3.458,-13.063 4.975,-19.613 1.522,-6.575 3.01,-13.158 4.441,-19.753 2.861,-13.184 5.498,-26.418 7.736,-39.723 0.324,-1.927 0.62,-3.858 0.926,-5.788 0.284,-0.375 0.555,-0.759 0.852,-1.124 4.22,-5.19 9.577,-9.327 15.639,-12.144 6.677,-3.103 13.856,-4.836 20.816,-7.159 3.46,-1.155 6.874,-2.469 10.092,-4.198 3.158,-1.697 6.066,-3.8 8.74,-6.184 4.195,-3.742 7.81,-8.054 11.268,-12.476 -6.269,3.653 -12.594,7.209 -18.981,10.653 -7.029,3.791 -14.134,7.432 -21.292,10.97 z"
   id="path60" />

	</g>
  </g>
</svg>
