<?xml version="1.0" encoding="UTF-8" standalone="no"?>
<!-- Created with Inkscape (http://www.inkscape.org/) -->

<svg
   width="31.400221mm"
   height="47.900696mm"
   viewBox="0 0 31.400224 47.900696"
   version="1.1"
   id="svg1"
   inkscape:version="1.4.2 (f4327f4, 2025-05-13)"
   sodipodi:docname="Street Light-8.svg"
   xmlns:inkscape="http://www.inkscape.org/namespaces/inkscape"
   xmlns:sodipodi="http://sodipodi.sourceforge.net/DTD/sodipodi-0.dtd"
   xmlns="http://www.w3.org/2000/svg"
   xmlns:svg="http://www.w3.org/2000/svg">
  <sodipodi:namedview
     id="namedview1"
     pagecolor="#ffffff"
     bordercolor="#000000"
     borderopacity="0.25"
     inkscape:showpageshadow="2"
     inkscape:pageopacity="0.0"
     inkscape:pagecheckerboard="0"
     inkscape:deskcolor="#d1d1d1"
     inkscape:document-units="mm"
     inkscape:zoom="4.9103816"
     inkscape:cx="-8.1460064"
     inkscape:cy="58.447596"
     inkscape:window-width="2880"
     inkscape:window-height="1676"
     inkscape:window-x="-12"
     inkscape:window-y="-12"
     inkscape:window-maximized="1"
     inkscape:current-layer="g30" />
  <defs
     id="defs1" />
  <g
     inkscape:label="图层 1"
     inkscape:groupmode="layer"
     id="layer1"
     transform="translate(-199.42555,-201.44513)">
    <g
       id="g30"
       transform="matrix(0.26458333,0,0,0.26458333,149.64621,130.62585)">
		
		
		
		
		
		
		
			
		
		
		
	<path
   style="fill:#231f20"
   d="m 305.9604,270.19744 c -3.052,-1.682 -6.181,-2.534 -9.301,-2.534 -5.377,0 -8.841,2.551 -8.986,2.66 l -0.665,0.499 v 0.866 c -16.165,0.398 -29.616,6.053 -39.527,12.178 -9.911,-6.125 -23.363,-11.78 -39.527,-12.178 v -0.866 l -0.665,-0.499 c -0.145,-0.109 -3.609,-2.66 -8.986,-2.66 -3.12,0 -6.249,0.852 -9.301,2.534 l -0.86,0.474 v 6.136 h 19.811 v -1.8 c 14.723,0.379 27.097,5.319 36.435,10.855 -10.095,6.814 -15.767,13.544 -15.88,13.681 l -1.513,1.831 2.239,0.794 c 13.346,4.736 14.492,21.602 14.519,26.825 h -2.555 v 119.712 h 12.683 v -119.712 h -2.674 c 0.02,-5.219 1.146,-22.079 14.522,-26.825 l 2.239,-0.794 -1.513,-1.831 c -0.113,-0.137 -5.79,-6.871 -15.892,-13.688 9.332,-5.533 21.706,-10.47 36.445,-10.848 v 1.8 h 19.812 v -6.136 z m -43.606,29.777 c -13.401,6.433 -14.496,23.44 -14.483,29.019 h -0.78 c 0.014,-5.579 -1.081,-22.588 -14.485,-29.02 2.383,-2.496 7.485,-7.393 14.863,-12.198 7.386,4.805 12.497,9.703 14.885,12.199 z"
   id="path61" />
</g>
  </g>
</svg>
