<?xml version="1.0" encoding="UTF-8" standalone="no"?>
<!-- Generator: Adobe Illustrator 27.5.0, SVG Export Plug-In . SVG Version: 6.00 Build 0)  -->

<svg
   version="1.1"
   x="0px"
   y="0px"
   viewBox="0 0 525.31403 891.81"
   xml:space="preserve"
   id="svg12"
   sodipodi:docname="eiffel-tower.svg"
   width="525.31403"
   height="891.81"
   inkscape:version="1.4.2 (f4327f4, 2025-05-13)"
   xmlns:inkscape="http://www.inkscape.org/namespaces/inkscape"
   xmlns:sodipodi="http://sodipodi.sourceforge.net/DTD/sodipodi-0.dtd"
   xmlns="http://www.w3.org/2000/svg"
   xmlns:svg="http://www.w3.org/2000/svg"><defs
   id="defs12" /><sodipodi:namedview
   id="namedview12"
   pagecolor="#ffffff"
   bordercolor="#000000"
   borderopacity="0.25"
   inkscape:showpageshadow="2"
   inkscape:pageopacity="0.0"
   inkscape:pagecheckerboard="0"
   inkscape:deskcolor="#d1d1d1"
   inkscape:zoom="1.378"
   inkscape:cx="264.87663"
   inkscape:cy="444.84761"
   inkscape:window-width="2880"
   inkscape:window-height="1676"
   inkscape:window-x="-12"
   inkscape:window-y="-12"
   inkscape:window-maximized="1"
   inkscape:current-layer="svg12" />

<g
   id="Layer_3"
   transform="translate(-234.861,-55.198)">
	<g
   id="g12">
		<g
   id="g1">
			<polygon
   style="fill:#ffffff;stroke:#231f20;stroke-miterlimit:10"
   points="403.846,630 462.674,603.625 462.411,617.75 399.431,642.709 "
   id="polygon1" />
		</g>
		<g
   id="g2">
			<polygon
   style="fill:#ffffff;stroke:#231f20;stroke-miterlimit:10"
   points="400.431,597.667 465.532,567.667 464.077,586.319 408.991,610.767 "
   id="polygon2" />
		</g>
		<g
   id="g4">
			<g
   id="g3">
				<path
   style="fill:#58595b"
   d="m 247.825,945.001 c 0,0 73.443,-113.895 115.425,-118.029 32.674,-3.218 30.025,29.441 30.025,29.441 -29.236,0.308 -90.061,38.15 -104.951,88.588 -15.449,0 -40.499,0 -40.499,0 z"
   id="path2" />
			</g>
		</g>
		<g
   id="g6">
			<g
   id="g5">
				<polygon
   style="fill:#ffffff;stroke:#231f20;stroke-miterlimit:10"
   points="455.099,171.169 471.142,158.886 477.097,176.668 462.122,188.243 "
   id="polygon4" />
			</g>
		</g>
		<path
   style="fill:#58595b"
   d="m 470.117,149.896 c -0.011,0.009 -16.071,12.518 -16.464,13.949 -0.581,2.109 -0.086,4.915 -0.059,7.133 -0.033,0.19 -0.024,0.389 0.059,0.589 2.323,5.647 4.646,11.294 6.969,16.941 -0.012,13.005 -1.706,44.212 -4.601,83.829 l -0.092,0.218 0.074,0.031 c -7.64,104.476 -23.608,267.174 -39.1,308.923 l -18.516,8.55 v 6.896 l -0.163,0.075 9.646,14.761 -5.451,17.744 -4.152,11.952 -40.169,108.329 -32.209,8.655 1.038,3.863 2.567,-0.689 -0.746,17.033 -4.105,0.933 3.923,19.093 -93.705,146.295 h 12.964 2.2 l 37.739,-54.015 c 39.22,-46.766 73.303,-70.036 91.169,-62.249 11.102,4.837 15.181,21.778 11.798,48.992 l -15.52,69.271 h 32.143 l -9.201,-24.8 0.619,-0.732 h 12.49 v -3 h -9.953 l 16.262,-19.231 -1.146,-0.969 1.344,-0.666 -9.812,-19.814 13.994,-1.519 -0.323,-2.982 -11.089,1.203 16.812,-19.073 -1.125,-0.992 -0.2,-1.486 -13.269,1.785 3.947,-18.083 0.082,-0.099 0.242,-0.04 8.548,15.511 2.627,-1.447 -8.039,-14.587 10.804,-1.8 -0.493,-2.959 -10.758,1.793 16.126,-19.417 -1.253,-1.041 0.613,-0.102 -0.491,-2.959 -26.32,4.369 1.781,-7.802 27.811,-5.591 -0.591,-2.941 -2.499,0.503 3.386,-4.277 0.403,-0.046 -0.046,-0.404 0.674,-0.851 -0.848,-0.672 -0.442,-3.86 0.013,-0.031 2.564,-2.896 -0.969,-0.858 0.379,-0.893 -1.841,-0.781 -0.608,1.431 -0.234,-2.046 4.686,-5.131 -1.42,-1.298 2.008,-0.457 v -20.975 l 0.04,0.068 2.576,-1.537 -8.388,-14.059 5.015,-7.002 3.944,-1.06 -0.869,-3.233 6.486,-9.055 -0.636,-0.455 1.988,-0.563 -0.816,-2.887 -12.556,3.551 2.058,-13.897 8.217,10.964 2.4,-1.799 -8.996,-12.002 12.916,-18.645 -1.233,-0.855 -0.367,-1.454 -9.782,2.468 2.013,-13.598 0.282,-0.383 7.036,10.261 2.475,-1.697 -7.625,-11.119 11.91,-16.144 -1.207,-0.891 -0.4,-1.445 -9.697,2.683 1.077,-7.275 -2.968,-0.439 -1.271,8.59 -8.029,2.222 0.746,-4.806 2.233,-1.497 -1.625,-2.425 2.671,-17.207 21.675,-8.59 0.326,-17.487 -0.825,0.37 -2.491,-5.18 4.292,-9.015 0.31,-0.138 1.723,-22.093 -1.571,0.724 0.518,-7.197 -4.691,2.166 -1.417,-2.144 7.475,-16.497 -0.598,-0.27 1.732,-0.864 -1.182,-2.367 1.257,-0.873 -6.49,-9.343 8.35,-18.036 -1.361,-0.63 -0.705,-1.324 -11.644,6.197 5.383,-13.145 5.228,7.388 2.449,-1.732 -6.33,-8.944 6.381,-15.582 1.459,-0.768 -1.378,-2.62 1.312,-0.886 -6.339,-9.379 6.971,-16.576 0.873,-0.546 -0.795,-1.272 1.177,-0.93 -7.11,-8.996 6.027,-13.918 2.095,-1.422 -0.294,-0.433 0.704,-0.4 -1.484,-2.607 -0.91,0.518 -5.547,-8.169 6.108,-14.508 2.337,-1.567 -1.03,-1.536 0.095,-0.225 1.387,-1.002 -1.758,-2.432 -1.467,1.06 -4.499,-6.708 6.733,-16.184 1.328,-0.957 -6.478,-8.994 5.821,-14.814 1.367,-0.931 -1.689,-2.479 -0.745,0.508 -4.261,-5.893 4.94,-13.953 2.091,-1.642 -0.58,-0.739 0.272,-0.194 -1.742,-2.442 -0.384,0.274 -3.831,-4.879 4.787,-12.813 1.766,-1.466 -5.472,-6.589 5.404,-13.994 -0.191,-0.074 0.794,-0.616 -1.84,-2.37 -0.223,0.173 -3.22,-3.683 4.677,-11.942 -0.248,-0.097 0.132,-0.106 -0.248,-0.308 1.16,-1.033 -5.005,-5.623 3.619,-10.511 1.38,-1.148 -0.854,-1.025 0.546,-0.552 -4.155,-4.106 3.675,-9.466 -0.313,-0.122 1.021,-0.954 -0.211,-0.226 0.28,-0.258 -4.17,-4.532 2.821,-8.993 1.369,-1.161 -1.615,-1.906 0.828,-0.798 -2.623,-2.722 2.155,-6.169 -0.606,-0.211 2.673,-2.288 -1.951,-2.279 -4.634,3.966 1.476,-4.125 1.425,1.285 2.01,-2.227 -2.342,-2.112 2.42,-6.762 -0.568,-0.204 1.365,-1.182 -1.965,-2.268 -5.474,4.742 c 0.021,-0.677 0.038,-1.274 0.053,-1.763 2.443,-1.889 4.888,-3.777 7.331,-5.667 0.108,-0.07 0.204,-0.154 0.288,-0.249 0.451,-0.452 0.447,-0.999 0.185,-1.451 -0.787,-2.348 -1.573,-4.695 -2.359,-7.044 l 0.108,-0.074 -0.259,-0.376 c -0.922,-2.75 1.109,-16.803 1.109,-16.803 0,0 -6.711,-2.194 -6.981,-1.938 z m 0.267,11.445 c 0.731,2.184 1.463,4.369 2.194,6.553 l -13.418,9.233 c -0.75,-1.823 -1.5,-3.646 -2.25,-5.47 4.491,-3.438 8.983,-6.877 13.474,-10.316 z m -3.26,40.264 c -0.01,0.317 -0.02,0.638 -0.031,0.961 l -1.472,1.26 0.885,-2.863 z m -2.451,42.549 1.071,-3.225 c -0.053,1.399 -0.107,2.816 -0.161,4.248 z m 0.248,4.791 -2.542,2.115 1.202,-3.62 z m -1.927,-9.256 -0.624,1.878 -0.629,-0.707 z m -0.685,-3.466 2.098,-4.853 1.504,1.487 z m 3.375,-7.808 0.566,-1.31 c -0.021,0.601 -0.042,1.197 -0.064,1.806 z m -3.48,-4.45 3.369,-2.855 -2.179,5.042 -1.244,-1.229 c 0.018,-0.32 0.036,-0.641 0.054,-0.958 z m 2.77,-6.279 0.567,-1.638 0.598,0.65 z m 1.682,-4.857 0.103,-0.301 c -0.004,0.132 -0.009,0.268 -0.014,0.4 z m -1.589,-4.581 -0.718,2.074 -0.751,-0.816 z m -1.747,-7.136 c 0.043,-1.158 0.083,-2.271 0.117,-3.333 l 0.691,0.717 z m -0.086,12.43 -0.552,1.593 c 0.036,-0.702 0.071,-1.395 0.105,-2.078 z m -1.118,15.565 -0.244,0.563 c 0.015,-0.252 0.03,-0.508 0.045,-0.759 z m -1.168,15.373 0.332,0.372 -0.443,1.335 c 0.036,-0.572 0.074,-1.139 0.111,-1.707 z m -0.831,12.366 3.781,-3.147 -2.576,6.096 -1.306,-1.494 c 0.034,-0.488 0.067,-0.97 0.101,-1.455 z m 4.942,1.813 c -0.067,1.71 -0.137,3.433 -0.207,5.173 l -1.334,-1.526 z m -15.996,308.002 -3.107,-4.059 3.776,-6.72 -0.52,10.71 z m 5.737,-156.071 -4.818,10.285 -2.748,-4.819 z m -5.418,0.214 4.157,-10.595 3.458,5.093 z m 6.953,3.583 c -0.397,4.546 -0.888,9.613 -1.459,15.069 l -3.074,-5.392 z m -2.779,18.811 -8.225,4.68 4.913,-10.488 z m -10.242,9.28 9.175,-5.221 -5.614,12.302 -3.492,-6.554 -0.137,0.073 c 0.023,-0.201 0.045,-0.4 0.068,-0.6 z m 10.147,-0.125 c -0.587,5.131 -1.227,10.485 -1.911,15.979 l -2.898,-5.439 z m -3.075,20.174 -8.579,5.364 5.276,-11.563 z m -1.419,4.426 -5.879,12.056 -2.832,-6.609 z m 0.811,5.181 c -0.745,5.628 -1.526,11.331 -2.336,17.033 l -2.793,-6.516 z m -4.274,20.129 -7.456,3.923 4.863,-9.972 z m -2.721,27.53 -0.179,0.532 -2.763,-7.043 6.021,-13.257 c -0.997,6.703 -2.028,13.335 -3.079,19.768 z m -1.001,23.359 c 0.774,-4.088 1.544,-8.35 2.308,-12.747 l 1.325,4.092 z m 5.05,-4.28 2.74,8.457 -7.955,3.969 z m -1.549,-14.515 5.65,-3.008 -3.738,8.907 z m -4.677,-0.909 -7.1,3.779 4.605,-10.139 z m -2.504,22.781 -2.613,-4.189 5.355,-10.756 c -0.909,5.206 -1.825,10.214 -2.742,14.945 z m -0.852,4.303 c -0.224,1.111 -0.447,2.205 -0.671,3.279 l -9.25,4.615 6.59,-13.235 z m 11.824,0.398 -5.102,9.08 -3.62,-4.729 z m -0.462,-16.297 2.431,-5.793 -0.561,11.565 z m -2.888,-13.909 c 0.028,-0.173 0.057,-0.347 0.085,-0.52 l 3.814,-11.35 1.851,8.81 z m 4.003,-25.967 c 0.069,-0.478 0.139,-0.957 0.208,-1.435 l 2.118,-1.115 -1.761,5.239 z m 0.733,-5.101 c 1.232,-8.682 2.396,-17.371 3.465,-25.803 l 0.278,-0.174 -1.194,24.636 z m 4.408,-92.832 3.517,-8.961 c -0.31,4.377 -0.626,8.632 -0.948,12.744 z m 2.15,-13.692 -4.192,10.684 -3.578,-5.269 z m -6.524,0.89 4.413,-10.635 3.456,5.152 z m 5.793,-13.962 3.854,-9.289 c -0.278,4.664 -0.564,9.256 -0.854,13.76 z m -2.401,-12.587 3.159,-8.37 3.005,4.172 z m -2.39,5.256 6.391,-4.352 -3.606,8.691 -2.8,-4.174 c 0.005,-0.055 0.01,-0.11 0.015,-0.165 z m 6.82,-16.995 3.14,-8.318 c -0.21,3.952 -0.425,7.881 -0.645,11.782 z m 1.089,-22.725 3.188,-8.012 c -0.188,3.874 -0.38,7.751 -0.577,11.624 z m 0.82,6.255 -4.621,3.297 2.486,-6.249 z m 0.553,-27.893 2.754,-6.531 c -0.142,3.147 -0.286,6.311 -0.434,9.487 z m 0.829,5.913 -4.906,3.757 2.745,-6.51 z m 0.313,-16.342 -3.26,7.731 -1.503,-1.914 c 0.06,-0.756 0.119,-1.508 0.178,-2.26 z m -2.167,-2.116 1.319,-3.88 1.442,1.737 z m 2.453,-7.211 2.178,-6.401 c -0.119,2.835 -0.241,5.697 -0.365,8.583 z m -2.248,-2.707 -1.311,-1.58 c 0.049,-0.665 0.099,-1.329 0.147,-1.99 l 3.277,-2.642 z m 3.977,-11.567 -3.86,3.113 2.145,-5.075 z m -5.11,14.899 -0.703,2.067 c 0.068,-0.893 0.136,-1.785 0.203,-2.67 z m -1.497,19.593 -0.706,1.675 c 0.063,-0.782 0.124,-1.559 0.187,-2.337 z m -1.697,13.807 5.002,-3.83 -3.311,8.319 -1.852,-2.561 c 0.055,-0.645 0.108,-1.286 0.161,-1.928 z m 0.377,7.792 -1.308,3.288 c 0.13,-1.525 0.259,-3.047 0.387,-4.562 z m -2.243,14.128 6.064,-4.328 -3.617,9.582 -2.593,-3.601 c 0.049,-0.551 0.098,-1.104 0.146,-1.653 z m 1.176,8.621 -2.545,6.743 c 0.277,-3.058 0.551,-6.104 0.82,-9.139 z m -2.041,24.215 -2.754,6.639 c 0.302,-3.143 0.599,-6.281 0.894,-9.414 z m -1.402,26.805 -4.513,11.499 c 0.544,-5.246 1.08,-10.51 1.606,-15.78 z m -3.073,26.999 -4.022,8.586 c 0.482,-4.352 0.958,-8.733 1.428,-13.134 z m -5.751,23.854 2.633,4.941 -4.347,9.527 c 0.577,-4.764 1.149,-9.59 1.714,-14.468 z m -1.323,34.517 -3.996,8.193 c 0.591,-4.39 1.178,-8.864 1.759,-13.412 z m -5.358,18.087 8.262,-4.348 -5.941,13.079 -2.613,-6.661 c 0.097,-0.687 0.195,-1.378 0.292,-2.07 z m 0.592,12.539 -3.636,8.004 c 0.632,-4.037 1.261,-8.196 1.886,-12.466 z m -5.358,18.642 8.148,-4.337 -5.75,11.55 -2.846,-4.563 c 0.149,-0.876 0.298,-1.76 0.448,-2.65 z m 0.828,10.364 -4.247,8.529 c 0.736,-3.738 1.469,-7.686 2.198,-11.813 z m -6.796,20.607 8.249,-4.115 -6.415,11.313 -2.549,-4.098 -0.012,0.008 c 0.241,-1.014 0.484,-2.044 0.727,-3.108 z m 9.335,0.051 c -1.052,4.522 -2.092,8.529 -3.106,11.915 l -1.109,0.512 -1.481,-2.381 z m -6.96,13.695 -1.092,0.504 0.67,-1.182 z m 7.46,-3.445 c 1.201,-4.285 2.426,-9.34 3.657,-14.985 l 3.621,4.73 -5.231,9.31 z m 9.262,-7.663 1.915,2.502 -4.484,2.07 z m 7.928,-0.274 0.575,-11.853 3.789,5.733 -2.351,5.189 z m 2.072,-42.723 4.458,6.417 -5.327,11.506 z m -2.846,-19.21 0.905,-2.694 -0.276,5.69 z m 5.734,-40.349 4.425,6.548 -5.361,12.748 z m 1.305,-26.921 4.164,5.268 -4.977,11.492 z m 1.285,-26.492 3.539,5.212 -4.286,10.179 z m 1.862,-25.971 2.858,4.262 -3.828,9.2 c 0.33,-4.35 0.653,-8.845 0.97,-13.462 z m 1.625,-25.692 2.815,3.909 -3.613,9.195 c 0.272,-4.299 0.537,-8.673 0.798,-13.104 z m 1.252,-22.539 2.094,2.897 -2.654,7.499 c 0.19,-3.446 0.376,-6.914 0.56,-10.396 z m 1.142,-22.76 1.669,2.126 -2.038,5.456 c 0.126,-2.529 0.248,-5.057 0.369,-7.582 z m 0.96,-20.823 1.758,2.116 -2.097,5.429 c 0.115,-2.526 0.229,-5.043 0.339,-7.545 z m 0.867,-20.227 1.591,1.82 -1.867,4.767 c 0.094,-2.215 0.186,-4.407 0.276,-6.587 z m 0.752,-18.733 1.355,1.524 -1.599,4.643 c 0.084,-2.079 0.165,-4.137 0.244,-6.167 z m 0.64,-16.889 1.15,1.137 -1.319,3.398 c 0.058,-1.531 0.114,-3.045 0.169,-4.535 z m 0.557,-15.505 1.004,1.091 -1.175,3.744 c 0.059,-1.652 0.116,-3.255 0.171,-4.835 z m 0.536,-15.725 1.189,1.234 -1.361,3.894 c 0.06,-1.782 0.117,-3.489 0.172,-5.128 z m -4.887,-9.394 -0.644,-0.669 1.161,-1.006 z m -5.419,67.301 0.303,0.346 -0.393,0.93 c 0.03,-0.427 0.06,-0.852 0.09,-1.276 z m -36.192,307.436 1.879,3.021 -3.538,6.239 -1.176,0.543 c 0.944,-2.847 1.889,-6.132 2.835,-9.803 z m 40.309,0.142 -1.186,15.212 -39.609,17.578 -0.25,-0.051 -0.036,0.178 -13.207,5.861 -6.912,-10.576 z m -13.503,27.018 -1.389,-2.442 3.647,-1.619 z m 3.314,0.212 -0.564,4.624 -1.015,-1.784 z m -22.018,14.646 -1.407,-1.85 2.497,-3.652 z m 5.036,-9.986 1.612,2.366 -3.016,4.719 z m 3.45,5.063 2.631,3.862 -7.146,3.204 z m 1.757,-2.75 2.548,-3.987 -0.835,6.503 z m 5.804,-5.788 0.951,1.672 -1.515,2.725 z m -7.641,3.091 -1.557,-2.286 4.213,-1.87 z m -11.726,6.003 -2.147,-2.823 5.853,-2.598 z m -11.671,8.576 4.628,-5.873 -1.833,8.984 z m 8.169,-8.224 1.717,2.258 -3.104,4.54 z m -10.204,5.96 -2.572,-2.863 7.423,-3.294 z m -1.884,2.392 -5.082,6.449 2.771,-9.021 z m 2.034,2.265 3.13,3.483 -9.083,4.072 z m 13.685,-5.843 2.412,3.172 -0.074,0.374 -6.867,3.078 z m 12.67,2.202 -1.595,10.273 -15.585,6.177 3.882,-10.488 z m 9.254,-11.699 1.932,3.397 -5.088,2.28 z m 6.572,-8.082 0.64,1.33 -1.079,2.266 z m -51.885,35.948 18.926,-8.485 -3.796,10.254 -18.259,7.236 z m 24.958,167.911 -2.218,0.446 2.032,-2.296 z m 1.619,-3.889 2.227,-2.515 -2.005,4.719 z m -34.421,67.715 6.154,12.429 -9.221,1.001 z m -6.306,33.928 12.771,-14.488 -3.162,14.488 z m 8.953,3 -3.721,17.047 -6.391,-17.047 z m -6.42,-20.405 9.74,-1.057 -12.82,14.544 z m 0.115,39.105 h -9.044 l 3.423,-14.992 z m 1.124,3 0.052,0.138 -14.983,17.719 4.078,-17.856 h 10.853 z m 2.222,5.927 6.038,16.105 h -9.553 z m -6.585,16.105 h -10.169 l 13.707,-16.209 z m 12.615,-43.732 h 10.266 l -13.838,16.364 z m 0.655,-3 3.19,-14.616 7.237,14.616 z m -4.625,-37.161 9.958,-1.34 -3.25,14.888 z m -3.975,-184.278 -3.696,10.055 -2.979,-6.715 z m -3.108,-1.801 6.911,-8.545 -2.292,6.233 z m 34.964,33.369 -14.675,9.39 3.101,-11.101 11.605,1.514 z m -94.673,101.822 3.022,-2.949 0.028,1.361 -2.997,2.967 z m -1.875,3.287 -3.243,3.209 -0.084,-1.419 3.273,-3.194 z m 7.314,-13.161 2.366,-0.538 -2.878,2.809 -0.035,-1.715 z m 36.072,-49.071 2.233,-0.601 v 3.308 l -4.283,11.57 -3.292,-7.529 0.463,-1.26 z m 36.922,40.957 -0.173,-2.872 1.138,-1.352 z m 5.147,-9.062 0.144,-0.631 4.168,-0.948 -4.062,4.572 z m -3.3,0.973 -0.142,-0.119 -2.053,2.44 -0.155,-2.56 0.052,-0.059 2.496,-0.567 z m -14.87,22.753 -0.079,-2.176 2.961,-3.518 -2.441,5.195 z m -0.436,-12.105 -0.066,-1.839 1.811,-1.933 z m 3.892,-6.031 0.122,2.176 -2.35,2.638 z m -3.765,9.547 4.046,-4.542 0.174,3.111 -4.096,4.867 z m -1.796,5.716 -3.337,3.964 3.228,-6.976 z m 7.894,-9.379 -0.168,-2.996 3.701,-4.155 -3.139,6.683 z m 4.909,-7.728 0.106,1.769 -2.121,2.52 z m -5.235,1.903 -0.118,-2.106 0.184,-0.196 -0.206,-0.192 -0.046,-0.82 3.936,-0.896 z m -2.163,-2.848 -3.904,4.166 -0.118,-3.268 4.021,-0.915 z m -22.965,24.506 V 806.6 l 3.519,-3.931 -2.475,5.193 z m -11.79,-8.863 0.007,-2.05 2.999,-3.322 -2.153,4.404 z m 11.146,-51.297 h -0.025 l 0.028,-0.008 z m 3.555,-0.961 5.588,-1.502 v 14.827 l -8.5,6.292 v -11.751 z m 29.581,12.27 -7.604,-7.345 8.904,-6.592 v 13.641 z m -26.232,36.483 -0.068,-1.93 2.507,-2.882 -2.126,4.462 z m -8.26,-4.586 v 3.175 l -3.232,3.598 3.219,-6.757 z m 2,-2.345 3.721,-0.847 -3.721,4.142 z m 2.725,3.253 -2.726,5.42 v -2.387 z m 1.385,-0.529 0.056,1.561 -1.992,2.29 z m 1.892,-3.118 0.446,-0.497 -0.358,-0.321 0.061,-0.122 -0.089,-0.045 3.778,-0.859 -3.751,4.313 z m 6.734,-44.069 7.519,7.263 -9.755,7.222 v -13.883 z m 3.379,-0.907 5.587,-1.501 v 6.898 z m 3.805,12.151 -1.945,6.966 -7.475,1.698 v -1.689 z m -11.42,9.119 -1.294,0.294 1.294,-0.958 z m 13.202,-4.345 v 1.345 l -0.401,0.091 z m 2,-5.426 5.294,5.113 -5.294,1.203 z m 0,-13.538 0.196,-0.053 -0.196,0.702 z m -10.943,-1.203 -2.907,-2.808 9.738,0.973 z m -3.378,0.909 -4.767,1.281 1.604,-4.336 z m -11.381,25.989 -2.34,0.532 -0.21,-0.482 2.55,-6.891 z m -27.555,31.929 -0.82,0.792 -0.188,-2.746 1.717,-1.699 2.225,-0.506 z m -4.651,-2.434 1.582,-0.36 0.004,0.062 -3.146,3.114 0.009,-1.302 z m 1.766,2.338 0.184,2.703 -3.55,3.426 0.02,-2.817 z m 8.514,-2.681 1.677,-2.378 1.034,-0.234 -2.7,2.852 z m 2.573,0.443 -2.332,4.789 -0.102,-2.219 z m 1.601,-1.004 v 1.629 l -1.798,2.064 z m 2.001,-2.839 2.358,-0.536 -2.358,2.707 z m 2.207,2.682 -2.21,4.665 v -2.129 z m 1.772,-1.406 -0.008,2.301 -2.277,2.523 z m 2.009,-2.638 3.07,-0.698 -3.079,3.413 z m 3.909,2.76 -0.008,0.539 -0.574,0.651 z m 2.055,-3.681 0.495,-0.548 2.053,-0.468 -2.576,2.926 z m 1.374,3.344 -1.468,3.082 0.021,-1.438 z m 2.425,3.413 v 2.863 l -4.008,4.608 0.045,-3.06 z m -2.113,8.338 -1.91,3.799 -0.055,0.062 0.024,-1.628 z m 2.113,-1.974 v 1.281 l -1.469,1.64 z m 2,-2.754 4.27,-4.908 0.066,1.867 -4.336,4.842 z m 10.773,-12.031 0.09,1.699 -1.923,2.148 z m 1.846,-2.961 3.037,-0.691 -2.901,3.241 z m 2.524,2.879 -2.135,4.474 -0.104,-1.973 z m 1.895,-1.647 0.096,2.653 -2.776,2.963 z m 18.755,-28.664 v -14.667 l 7.901,-5.849 0.225,0.315 -2.953,19.024 z m 0,-18.4 v -1.956 l 4.147,-1.114 z m -2,1.48 -8.631,6.39 2.104,-7.534 6.527,-1.754 z m -23.643,-7.182 19.1,-12.222 -3.839,13.745 z m -1.655,-2.503 10.563,-28.536 10.647,14.964 z m 8.277,-32.336 -6.719,2.686 3.584,-9.751 z m -1.625,-11.059 11.505,-14.301 -8.119,21.934 z m -1.273,15.448 -8.006,9.686 2.794,-7.603 z m -11.123,18.164 11.165,-13.506 -8.238,22.255 -3.001,-8.548 z m -1.689,21.222 -0.458,0.123 0.707,-0.795 z m -12.132,16.382 3.286,7.517 -0.473,1.277 -5.401,1.228 v -2.979 z m -26.701,40.346 -0.009,1.329 -2.953,2.924 -0.027,-1.335 z m -4.868,8.954 0.053,2.579 -2.907,2.807 -0.094,-2.467 z m 1.961,-1.942 2.878,-2.849 -0.02,2.767 -2.805,2.708 z m 2.839,2.718 -0.007,0.977 -2.68,3.799 -0.043,-2.141 z m 2.013,-1.943 0.126,-0.121 -0.126,0.179 z m 3.159,0.783 0.829,-0.876 0.217,3.179 -4.259,4.891 0.019,-2.664 z m 2.699,-2.851 4.271,-4.512 0.125,2.72 -4.19,4.811 z m 2.531,3.396 -2.017,4.142 -0.115,-1.693 z m 2.018,-1.861 0.087,1.901 -2.202,2.439 z m 1.882,-2.618 3.783,-4.344 -10e-4,2.684 -3.671,4.068 z m 2.175,3.106 -1.853,3.911 -0.081,-1.768 z m 1.606,-1.055 -10e-4,1.536 -1.573,1.786 z m 2.001,-2.942 3.964,-4.393 -0.007,2.104 -3.958,4.494 z m 3.492,1.265 -3.106,6.357 -0.389,0.433 0.001,-2.82 z m 0.447,1.365 -0.004,1.041 -1.108,1.233 z m 2.014,-4.123 0.041,-0.083 3.854,-4.376 -0.045,3.092 -3.859,4.296 z m 1.18,4.596 -1.204,2.528 0.004,-1.192 z m -0.798,3.999 3.154,-6.622 0.268,-0.299 -0.045,3.136 -3.273,3.764 z m 3.331,-0.685 v 0.016 l -0.016,0.003 z m 6.089,-2.267 v 1.058 l -1.156,0.232 z m 6.484,-5.866 0.042,1.18 -1.229,1.313 z m 1.878,-3.474 4.65,-5.193 0.146,2.769 -4.705,5.021 z m 2.891,2.533 -2.608,5.463 -0.091,-2.583 z m 2.063,-2 0.14,2.642 -3.02,3.391 z m 1.885,-2.213 4.034,-4.305 0.093,2.568 -3.981,4.47 z m 2.504,3.092 -2.1,4.538 -0.109,-2.059 z m 1.962,4.596 0.016,0.433 -0.457,0.093 z m 6.133,-6.112 0.071,1.272 -1.419,1.599 z m 1.817,-3.333 5.028,-5.974 0.167,2.767 -5.056,5.691 z m 10.285,-5.926 0.578,-0.65 0.19,2.273 -1.53,1.713 z m 2.413,-2.715 2.985,-3.36 -1.308,3.981 -1.487,1.664 z m 5.412,-4.336 0.069,0.699 -0.473,0.529 z m -1.963,5.975 2.299,-2.573 0.258,2.61 -0.036,0.077 -3.977,4.313 z m 4.109,-4.599 1.278,-1.431 -1.171,2.512 z m 4.419,-3.434 0.148,1.47 -1.687,1.83 z m -4.686,0.732 -0.227,-2.289 0.121,-0.136 2.853,-0.649 z m -17.09,-44.92 3.871,-13.862 7.659,10.764 z m 2.672,-20.722 -9.198,-12.929 12.358,1.613 z m -8.139,-15.815 15.29,-9.788 -3.175,11.369 z m 16.501,-14.126 -18.094,11.583 10.405,-28.111 8.016,15.358 z m -21.241,-5.512 2.679,-7.288 5.331,-2.667 z m -12.002,23.96 -5.045,2.017 7.925,-9.851 z m -1.392,3.786 -3.8,10.339 -2.716,-7.734 z m -3.864,19.209 2.72,7.747 -6.273,1.919 z m -7.154,10.768 -5.182,1.586 8.282,-10.018 z m 7.136,0.955 -5.702,6.414 -1.05,0.282 1.918,-5.218 z m -12.344,13.216 -0.342,-0.782 0.699,-0.188 z m -1.998,2.919 -0.349,0.393 v -1.191 z m -2.35,8.909 -2.682,7.297 -5.673,1.289 v -0.938 l 8.355,-9.4 z m -28.259,35.288 -2.092,2.128 -0.063,-1.638 z m 1.106,1.728 0.033,1.635 -3.069,2.995 -0.057,-1.483 z m -4.965,6.512 -3.326,3.246 -0.074,-1.248 3.346,-3.404 z m -5.289,3.92 0.069,1.175 -2.54,2.479 -0.074,-1.065 z m 0.226,3.816 0.085,1.444 -2.498,2.473 -0.102,-1.462 z m -4.319,5.337 -1.445,0.29 1.372,-1.339 z m 4.561,-1.233 0.018,0.312 -0.418,0.084 z m 1.998,-0.087 -0.105,-1.786 3.189,-3.156 0.093,2.421 -2.465,2.379 z m 5.234,-1.052 -0.025,-0.651 2.86,-2.761 0.058,2.831 z m 7.484,-1.709 -0.001,0.205 -0.167,0.033 z m 5.216,-0.843 1.238,-1.422 0.079,1.156 z m 5.678,-1.142 1.787,-1.981 0.074,1.606 z m 7.23,-2.725 -10e-4,1.271 -1.361,0.273 z m 5.928,-0.834 -0.003,0.914 -0.998,0.2 z m 18.455,-4.391 0.056,1.583 -1.897,0.382 z m 6.981,-1.458 0.086,1.632 -1.875,0.377 z m 11.165,-0.596 1.259,-1.417 0.064,1.151 z m 3.144,-3.538 5.068,-5.705 0.121,2.003 -0.097,0.422 -4.965,5.557 z m 8.305,-3.876 2.68,-3 0.197,2.353 -0.06,0.181 -3.604,3.909 z m 7.28,-2.356 -2.152,4.615 -0.175,-2.091 z m 3.208,-2.146 0.177,1.796 -2.075,2.271 z m 1.695,-3.174 4.304,-4.669 0.296,2.94 -4.305,4.713 z m 2.923,3.073 -2.134,4.908 -0.229,-2.32 z m 3.194,-9.709 1.945,-2.11 -1.752,4.031 z m -0.267,-2.661 -0.268,-2.672 3.456,-0.786 z m -6.735,-23.358 2.463,-3.439 v 2.879 z m -0.71,-4.159 2.658,-17.124 0.515,-0.138 v 12.832 z m 5.173,-17.8 3.018,-0.81 2.336,3.914 -5.354,7.475 z m -1.844,-3.647 0.655,-4.219 2.078,3.484 z m -3.169,0.852 -1.832,0.492 -9.161,-12.876 14.339,-9.175 z m 4.451,-28.676 -11.25,-1.468 3.737,-13.381 7.567,14.501 z m -14.937,-35.558 9.708,1.379 -3.134,11.22 z m -11.983,1.081 4.234,-11.519 0.094,-0.116 3.081,7.929 z m 2.659,-15.93 -1.068,2.907 -11.082,13.703 L 400,645.44 Z m -0.73,-10.158 5.225,-2.071 -2.931,7.975 z m -12.766,45.749 -10.558,13.123 7.458,-20.111 z m -12.405,33.585 -10.409,12.591 7.617,-20.541 z m -13.741,21.578 7.082,-2.166 -1.863,5.068 -4.009,1.077 -1.453,-3.323 z m -1.175,14.03 -6.911,7.775 4.607,-12.424 2.304,-0.619 z m -13.137,15.94 -8.32,1.891 0.823,-17.553 10.28,-2.763 v 10.922 z m -19.14,29.702 -3.095,3.148 3.034,-4.737 z m -9.506,13.16 0.028,0.4 -0.757,0.738 z m -5.28,8.244 17.879,-3.595 -4.616,6.543 -17.435,3.563 z m 9.259,6.829 -11.631,10.917 6.671,-9.903 z m -19.016,16.513 3.615,-13.365 6.247,-1.276 z m -17.493,25.971 -6.227,9.244 2.004,-8.887 z m -1.272,-2.905 8.779,-8.24 -5.355,7.95 z m 5.108,2.579 1.593,-0.135 -4.218,4.031 z m -26.674,34.231 -6.207,9.215 3.136,-9.067 z m -0.217,-2.992 6.267,-5.99 -3.96,5.88 z m 3.954,2.813 2.431,-0.116 -7.282,7.319 z m 2.091,-3.103 4.339,-6.442 -1.421,6.303 z m 21.749,-26.275 -6.901,9.783 -3.534,0.19 z m 1.248,-7.868 3.886,-5.768 -1.506,5.567 z m 25.681,-30.306 -6.608,9.368 -4.286,0.858 z m -18.327,11.716 -4.03,0.807 6.599,-10.304 z m -6.278,4.317 3.995,-0.801 -8.733,8.198 z m -17.569,32.374 -3.278,0.177 4.999,-7.804 z m -5.271,3.289 2.149,-0.116 -5.35,5.113 z m -18.533,31.296 h -1.512 l 3.286,-5.131 z m -1.038,3 -0.115,0.333 -6.999,7.036 4.719,-7.369 z m -8.674,13.19 -2.475,3.673 h -1.18 z m 4.636,-1.513 -1.794,5.186 h -1.7 z m 6.524,-9.686 0.039,-0.059 1.923,-1.933 h 1.907 l -6.24,8.846 z m 4.947,-4.991 3.57,-3.589 -2.65,3.757 v -0.168 z m 19.836,-31.711 3.713,-0.2 -5.392,7.643 z m 23.144,-34.452 1.867,-2.773 5.613,-1.124 -10.423,14.775 z m 25.01,-23.542 0.133,3.297 c -1.971,1.61 -3.978,3.293 -6.028,5.06 z m 3.041,0.955 -0.201,-4.982 4.169,-5.91 0.101,7.732 c -1.336,1.012 -2.693,2.067 -4.069,3.16 z m 7.041,-5.377 -0.116,-8.934 4.662,-0.938 -1.426,7.646 c -1.028,0.719 -2.066,1.456 -3.12,2.226 z m 7.717,-10.509 2.153,-0.433 -1.004,4.888 c -0.744,0.471 -1.494,0.956 -2.252,1.456 z m 5.348,-1.075 1.513,-0.304 -0.915,2.942 c -0.43,0.245 -0.858,0.488 -1.293,0.744 z m 4.864,-0.978 4.934,-0.992 c -1.753,0.741 -3.562,1.598 -5.42,2.555 z m 30.854,-6.203 -1.171,2.857 c -0.599,-0.231 -1.208,-0.443 -1.832,-0.62 -1.369,-0.389 -2.801,-0.642 -4.291,-0.771 z m 3.535,-0.711 1.319,-0.265 -2.857,5.377 c -0.149,-0.089 -0.3,-0.177 -0.451,-0.262 z m 5.123,-1.029 1.596,-0.321 -5.352,8.533 c -0.14,-0.117 -0.279,-0.235 -0.421,-0.349 z m 5.647,-1.136 3.083,-0.62 -9.096,13.429 c -0.382,-0.469 -0.772,-0.921 -1.173,-1.352 z m 0.073,23.773 c -0.566,-1.482 -1.172,-2.881 -1.82,-4.195 l 3.968,-5.212 z m 6.012,-12.852 7.352,13.339 -0.393,1.799 -10.828,1.804 z m -4.59,20.103 9.585,-1.597 -12.716,15.311 z m 6.87,-22.18 8.753,-1.454 -2.71,12.419 z m -4.529,-1.551 -7.148,9.39 c -0.267,-0.447 -0.543,-0.876 -0.822,-1.299 l 9.237,-13.636 z m 1.543,-11.434 1.434,-1.604 -0.315,1.38 z m 6.879,-2.114 -0.257,0.782 -0.569,0.114 z m 9.619,-4.147 0.286,2.887 -3.58,0.72 z m 4.892,-1.204 1.447,-3.329 0.153,1.522 z m 7.132,-16.404 0.15,1.311 -1.375,1.505 z m -7.193,-23.709 v -5.216 l 4.473,-6.245 -1.6,10.809 z m 6.029,-22.564 0.091,-0.024 -0.021,0.143 z m -2.129,-3.569 -3.571,-5.985 7.518,-2.126 -1.087,7.343 z m 0.459,-38.422 6.659,8.885 -0.239,1.616 -10.375,14.975 z m 1.355,-3.193 7.367,-1.858 -1.445,9.759 z m -3.632,-1.701 -1.815,11.689 -6.066,-11.624 8.739,-5.594 -0.807,5.195 -0.178,0.241 z m 1.472,-9.485 -10.192,6.524 3.843,-13.76 7.311,1.038 z m 1.423,-9.162 -6.957,-0.988 2.456,-8.793 4.741,8.237 z m -9.954,-1.413 -9.115,-1.294 11.659,-7.815 z m -16.004,-11.707 9.125,-11.283 -2.333,-1.887 -5.844,7.227 3.445,-9.375 7.48,-2.964 -9.258,25.012 z m -45.23,93.856 0.026,0.059 -0.053,0.015 z m -7.784,12.365 v -6.065 l 2.498,-0.672 z m -22.375,-0.054 8.067,-2.167 -0.819,17.468 -7.998,1.817 z m 48.612,64.884 c -9.466,-4.122 -23.084,-0.565 -39.386,10.292 -11.428,7.611 -24.224,18.847 -37.675,33.009 l 12.044,-17.073 0.167,0.181 c 31.213,-28.668 53.38,-40.62 67.772,-36.525 7.835,2.227 13.371,9.233 16.92,21.382 l -5.121,22.426 c -0.222,-18.017 -5.201,-29.543 -14.721,-33.692 z m 42.311,30.462 -13.374,15.172 3.007,-13.777 z m -12.849,-1.298 -9.301,1.251 12.246,-14.745 z m 8.5,-24.877 3.392,-15.542 11.038,-1.833 z m 18.461,-37.561 -1.23,1.552 1.108,-2.607 z m -0.625,-5.461 -4.573,5.165 -0.326,-3.236 0.366,-0.842 4.138,-4.53 z m 1.092,-8.038 -0.324,-2.829 0.092,-0.1 3.668,-0.835 z m -3.12,-24.427 1.823,-12.317 6.253,10.481 z m 3.245,-21.924 0.022,-0.148 0.104,-0.028 z m 10.2,-14.24 -6.399,8.935 -3.14,0.844 1.094,-7.39 z m -17.806,1.919 8.136,-11.744 -1.459,9.855 z m 21.695,-36.586 -8.71,12.574 1.596,-10.779 z m -9.789,-0.623 -6.701,1.691 8.07,-10.941 z m 14.249,-31.762 -8.15,11.047 1.357,-9.168 z m -10.837,8.715 -3.295,-4.805 4.177,-1.156 z m -6.354,-3.959 5.707,8.322 -0.461,3.111 -9.883,13.396 3.819,-24.604 z m -4.664,5.449 -4.097,-7.117 5.805,-3.892 z m 2.334,-15.039 -5.645,3.784 1.637,-5.861 -2.89,-0.807 -1.879,6.729 -4.071,-7.073 -2.6,1.496 5.021,8.723 -13.413,8.99 10.197,-27.549 16.451,-6.52 z m 24.756,-30.012 -18.179,7.204 1.622,-10.454 16.757,-7.513 z m -0.275,-13.837 -3.564,1.598 2.155,-4.526 z m -1.423,-9.879 -1.149,-2.388 2.897,-1.286 z m -0.507,-30.809 -0.264,0.122 0.141,-0.31 z m -0.615,-6.373 -4.674,-7.073 10.18,-5.078 z m 7.848,-16.672 -11.184,5.579 6.022,-13.009 z m -10.418,-20.256 10.469,-5.573 -5.735,12.389 z m -0.668,-7.088 0.937,-19.326 4.419,6.246 z m 6.704,-16.37 -4.25,-6.007 8.553,-4.501 z m 7.23,-15.438 -0.514,0.27 -0.433,-0.177 -0.212,0.516 -9.531,5.015 5.558,-13.218 z m -5.748,-13.865 -3.798,-5.62 8.359,-5.227 z m 6.839,-15.809 -10.765,6.732 5.694,-13.148 z m -9.889,-17.35 8.336,-4.743 -4.277,9.878 z m 9.693,-8.967 -9.201,5.236 4.882,-11.596 z m -8.584,-17.984 8.484,-6.129 -4.84,11.497 z m 8.891,-10.126 -7.99,5.773 4.541,-10.914 z m -7.512,-16.586 7.854,-5.473 -4.412,10.604 z m 9.105,-10.001 -7.193,5.013 3.814,-9.705 z m -7.317,-15.293 6.662,-4.537 -3.505,8.92 z m 7.515,-8.748 -5.881,4.005 2.885,-8.149 z m -6.977,-14.772 c 0.015,-0.288 0.03,-0.575 0.044,-0.863 l 6.453,-4.604 -3.435,9.703 z m 7.349,-9.761 -5.265,3.756 2.648,-7.089 z m -6.238,-12.804 c 0.003,-0.064 0.006,-0.129 0.009,-0.193 l 5.632,-4.313 -2.959,7.921 z m 6.686,-9.085 -4.142,3.171 2.151,-5.569 z m -2.949,-8.247 -2.799,-3.371 c 0.002,-0.046 0.004,-0.092 0.007,-0.139 l 5.922,-4.595 z m 3.766,-12.396 -4.322,3.354 2.244,-5.731 z m -3.07,-8.069 -2.118,-2.422 4.481,-3.613 z m 3.676,-10.947 -4.04,3.257 1.936,-5.622 z m -3.271,-8.187 -1.547,-1.738 3.007,-2.503 z m 3.524,-9.862 -3.852,3.206 1.968,-5.068 z m -3.027,-7.209 -1.027,-1.015 2.23,-2.084 z m 2.762,-8.661 -2.257,2.108 1.067,-3.401 z m -2.499,-7.146 -1.068,-1.161 1.951,-1.654 z m 3.157,-8.674 -2.207,1.871 1.067,-3.054 z m -2.363,-6.777 -0.338,-0.35 0.656,-0.561 z m -1.975,-8.032 c 0.041,-1.303 0.079,-2.515 0.114,-3.638 l 0.897,0.81 z m 2.105,-5.883 -0.623,-0.563 1.195,-1.035 z m -4.896,-0.831 -3.963,3.433 c 0.013,-0.854 0.021,-1.654 0.024,-2.398 1.334,-1.031 2.668,-2.063 4.001,-3.093 -0.018,0.622 -0.039,1.311 -0.062,2.058 z m 7.783,-11.785 c -2.364,1.827 -10.925,8.444 -12.585,9.727 -0.81,-1.969 -1.62,-3.937 -2.43,-5.906 l 13.243,-9.111 c 0.591,1.763 1.181,3.526 1.772,5.29 z"
   id="path6" />
		<polygon
   style="fill:#ffffff;stroke:#231f20;stroke-miterlimit:10"
   points="462.674,603.625 562.246,619.333 566.58,632.774 461.423,617.75 "
   id="polygon6" />
		<polygon
   style="fill:#ffffff;stroke:#231f20;stroke-miterlimit:10"
   points="465.532,567.667 563.869,585.604 556.021,601.75 464.077,586.691 "
   id="polygon7" />
		<g
   id="g7">
			<path
   style="fill:#58595b"
   d="m 476.195,872.887 c 0,0 16.478,28.113 19.801,72.114 h 64.643 c 0,0 -27.158,-74.768 9.645,-99.189 19.757,-13.112 82.482,56.188 99.234,100.689 12.633,0 45.176,0.5 45.176,0.5 0,0 -77.536,-128.001 -161.379,-128.681 -61.086,-0.664 -77.12,54.567 -77.12,54.567 z"
   id="path7" />
		</g>
		<g
   id="g8">
			<polygon
   style="fill:#58595b"
   points="462.411,617.75 566.58,632.774 497.568,656 399.431,642.709 "
   id="polygon8" />
		</g>
		<g
   id="g9">
			<polygon
   style="fill:#ffffff;stroke:#231f20;stroke-miterlimit:10"
   points="481.575,158.886 509.324,166.034 501.99,183.266 477.097,176.668 "
   id="polygon9" />
		</g>
		<g
   id="g10">
			<path
   style="fill:#58595b"
   d="m 481.575,136.871 c -19.807,0 -24.344,16.224 -26.476,27.374 l 16.043,-13.266 h 10.433 l 27.75,7.907 c -2.38,-8.96 -11.757,-22.015 -27.75,-22.015 z"
   id="path9" />
		</g>
		<path
   style="fill:#58595b"
   d="m 603.467,764.998 -0.08,-0.007 v -0.143 c 0.025,0.05 0.053,0.1 0.08,0.15 z"
   id="path10" />
		<path
   style="fill:#58595b"
   d="m 601.248,751.402 0.139,0.094 v 0.207 c -0.047,-0.099 -0.094,-0.201 -0.139,-0.301 z"
   id="path11" />
		<polygon
   style="fill:#58595b"
   points="468.849,734.49 468.844,734.494 468.844,734.484 "
   id="polygon11" />
		<polygon
   style="fill:#58595b"
   points="600.555,790.56 600.432,790.597 600.496,790.481 "
   id="polygon12" />
		<path
   style="fill:#58595b"
   d="M 757.338,943.768 C 710.695,884.247 673.719,834.786 644.02,788.247 l 2.066,-15.569 0.092,0.008 0.342,-3.984 -3.197,-0.275 v -17.091 l 0.125,0.013 0.412,-3.978 -25.951,-2.691 c -1.943,-3.486 -3.854,-6.97 -5.723,-10.452 l 0.121,-0.15 -0.357,-0.29 c -6.674,-12.455 -12.865,-24.904 -18.631,-37.493 l 0.135,-0.161 -0.336,-0.28 c -5.322,-11.643 -10.281,-23.408 -14.908,-35.413 l 0.127,-0.148 -0.275,-0.237 c -3.144,-8.176 -6.137,-16.465 -8.99,-24.9 l -5.711,-17.667 c -1.73,-5.611 -3.398,-11.305 -5.02,-17.071 l 7.209,-14.832 0.139,-1.169 v -6.002 l -13.877,-2.74 c -1.691,-6.858 -3.32,-13.846 -4.892,-20.972 l 0.064,-0.056 -0.105,-0.124 c -2.19,-9.924 -4.27,-20.125 -6.256,-30.636 l 0.027,-0.021 -0.041,-0.052 C 524.433,438.153 514.588,331.68 503.857,182.69 c 2.252,-5.29 4.504,-10.581 6.754,-15.871 0.131,-0.211 0.215,-0.467 0.215,-0.779 v -7.125 c 0.004,-0.138 -0.012,-0.279 -0.053,-0.421 -3.047,-10.626 -11.144,-18.861 -21.375,-21.875 V 125.73 c 0,-2.812 -1.98,-5.23 -4.795,-6.259 v -61.2 c 0,-1.694 -1.357,-3.073 -3.026,-3.073 -1.669,0 -3.027,1.378 -3.027,3.073 v 61.2 c -2.814,1.029 -4.794,3.447 -4.794,6.259 v 10.81 c -11.848,3.489 -17.589,14.419 -20.101,27.313 l -0.059,7.133 18.231,-13.313 5.667,18.167 -2.15,4.072 c 0,186.295 -5.369,314.583 -14.371,421.426 l -0.099,-0.016 -1.608,18.146 0.116,0.017 c -3.589,39.383 -7.729,74.805 -12.349,107.478 l -5.553,-0.576 -0.216,2.086 h -0.053 v 0.509 l -0.144,1.384 0.144,0.015 v 21.383 l -0.282,3.28 0.171,0.015 v 10.852 c -10.774,65.934 -23.648,121.443 -37.94,178.612 l -0.677,2.485 h 60.969 l 0.287,-1.664 10.46,-61.298 c 8.729,-31.849 27.746,-53.775 53.97,-61.367 21.103,-6.11 45.896,-2.617 71.693,10.106 26.904,13.268 53.881,35.724 80.271,66.797 l 34.018,46.604 0.545,0.821 h 45.479 z m -9.545,-5.715 -18.764,-10.908 10.033,-0.313 c 2.872,3.702 5.782,7.443 8.731,11.221 z m -22.287,-28.805 c 3.453,4.506 6.957,9.06 10.529,13.676 l -13.502,0.421 -0.047,-0.063 z m -15.387,-2.647 h 11.865 l -2.67,12.403 z m 3.691,11.696 -20.117,-11.696 h 11.447 z m -6.656,-15.696 -7.496,-10.113 17.387,10.113 z m 9.647,-4.769 -16.975,-9.874 9.545,0.038 c 2.445,3.252 4.922,6.529 7.43,9.836 z m -19.442,-25.953 c 2.951,3.997 5.949,8.029 9.002,12.105 l -12.322,-0.05 z m -40.722,-30.707 -24.09,-14.435 14.258,1.142 -0.014,0.01 z m -19.166,-6.82 19.596,11.74 -11.186,-0.221 z m 1.726,9.148 c -2.459,-1.973 -4.967,-3.879 -7.525,-5.705 l 0.617,-3.76 z m 19.715,6.631 -2.967,9.531 -7.102,-9.729 z m 4.164,0.083 0.268,0.005 10.644,14.358 -14.85,-0.541 -0.254,-0.35 z m 8.74,4.717 17.002,10.186 -9.713,-0.354 z m 5.223,13.76 7.834,10.569 -18.861,-10.971 z m 5.117,0.187 11.764,0.429 -3.1,11.258 z m 6.949,-8.252 -17.082,-10.235 9.824,0.193 c 2.385,3.323 4.803,6.67 7.258,10.042 z m -10.162,-14.101 -13.557,-0.268 -0.762,-1.027 4.105,-13.196 c 3.331,4.784 6.736,9.612 10.214,14.491 z m -17.269,-5.275 -9.6,-12.949 13.297,1.064 z m 2.361,-16.004 -35.271,-2.823 -5.523,-7.567 35.52,2.651 c 1.735,2.568 3.493,5.147 5.274,7.739 z m -101.373,-29.691 1.826,-2.834 5.385,4.779 -1.785,2.799 z m 3.795,7.302 -1.517,2.381 -1.471,-4.994 z m -14.555,-7.465 2.18,-3.354 4.654,4.069 -2.262,3.51 z m 2.924,6.785 -1.34,2.078 -1.191,-4.417 z m -14.43,-7.617 2.371,-3.521 5.24,4.839 -2.178,3.349 z m 3.784,7.204 -1.537,2.364 -1.33,-4.826 z m -73.319,-13.194 2.505,-3.333 5.748,4.776 -2.581,3.516 z m 3.89,7.386 -1.839,2.504 -1.378,-5.316 z m -11.129,-2.749 -5.061,-4.423 3.076,-4.294 5.151,4.504 z m 2.176,5.887 -2.697,-0.201 0.978,-1.301 z m -3.985,-3.482 -1.218,1.621 -0.826,-3.408 z m -15.53,-9.06 2.112,-2.666 6.142,5.366 -1.771,2.473 z m 4.733,7.615 -2.296,3.205 -1.479,-6.218 z m -7.066,-18.151 6.418,0.547 -2.37,2.991 z m 2.183,5.893 -0.84,1.061 -0.539,-2.267 z m 6.762,-3.705 1.731,7.142 -4.366,-3.815 z m 0.469,17.836 2.939,2.345 -4.384,-0.327 z m 1.749,-2.442 1.131,-1.578 0.745,3.075 z m 1.282,-13.691 2.973,2.6 -1.75,2.443 z m 1.46,-2.708 5.01,0.426 -1.742,2.432 z m 5.537,4.841 1.591,-2.221 1.21,4.67 z m 4.784,10.102 1.69,6.523 -3.98,-3.478 z m 1.342,-6.78 -1.098,-4.235 2.636,2.189 z m 0.071,-7.165 4.995,0.426 -1.725,2.293 z m 5.581,4.639 1.732,-2.303 1.264,4.792 z m 1.848,15.102 2.493,2.18 -3.881,-0.289 z m 1.781,-2.427 1.511,-2.057 1.158,4.39 z m 1.345,-14.444 3.312,3.032 -1.848,2.518 z m 2.524,-1.757 4.052,0.345 -1.478,2.012 z m 3.014,6.827 1.004,0.919 -0.8,4.686 -2.683,-2.229 z m -0.378,9.021 -0.566,3.319 -1.281,-4.854 z m 2.05,34.143 c -1.642,1.615 -3.211,3.307 -4.688,5.094 l 1.576,-9.237 z m -2.417,-8.215 1.038,-6.079 7.361,9.071 c -1.301,1.007 -2.564,2.058 -3.785,3.154 z m 1.709,-10.014 1.08,-6.331 0.103,0.008 11.71,15.058 c -1.294,0.791 -2.558,1.617 -3.787,2.484 z m 15.254,-19.498 -2.809,3.77 -5.227,-4.802 2.869,-3.875 z m -3.367,-7.337 1.055,-1.425 0.99,3.366 z m 14.774,9.455 -1.883,2.788 -5.525,-5.248 1.855,-2.491 z m -3.752,-7.364 1.852,-2.486 1.52,5.493 z m 4.019,16.332 -2.572,-0.192 0.926,-1.371 z m -3.851,-3.658 -1.565,2.317 -1.551,-5.276 z m -2.418,-14.679 -3.615,-3.224 5.66,0.482 z m -1.799,2.413 -1.174,1.575 -1.045,-3.554 z m -0.684,13.875 -3.51,-3.226 1.836,-2.465 z m -3.172,1.158 -3.415,-0.255 1.275,-1.711 z m -4.36,-4.007 -1.613,2.164 -1.347,-4.883 z m -0.948,-15.606 -1.945,-1.848 3.116,0.265 z m -1.8,2.43 -2.257,3.048 -1.013,-3.675 0.364,-2.134 z m -1.649,16.53 -4.491,-0.335 1.65,-9.67 0.108,0.1 z m -1.028,3.934 5.815,0.435 7.533,11.175 c -1.041,0.514 -2.057,1.059 -3.065,1.616 z m 9.627,0.719 4.908,0.366 0.029,0.027 0.022,-0.023 2.49,0.186 4.727,6.805 c -1.947,0.686 -3.848,1.435 -5.695,2.253 z m 11.303,0.843 6.512,0.486 1.606,3.831 c -1.451,0.367 -2.881,0.766 -4.285,1.199 z m 4.631,-19.025 -1.326,1.967 -1.137,-4.106 z m -1.719,-5.465 5.115,0.435 -1.705,2.525 z m 0.437,18.842 -2.516,-2.39 1.316,-1.948 z m 2.391,-2.61 1.969,1.756 -1.066,1.504 z m -1.277,-5.156 2.451,-3.63 5.121,4.445 -2.58,3.636 z m 4.14,-6.135 1.406,-2.082 1.223,4.364 z m 7.34,1.44 -1.313,1.851 -1.098,-3.921 z m -1.703,-5.417 5.23,0.445 -1.783,2.515 z m 0.69,19.445 -3.221,-2.873 1.732,-2.44 z m -4.967,-0.411 1.5,1.337 -2.326,-0.173 z m 6.258,5.703 0.227,1.414 c -1.822,0.285 -3.602,0.633 -5.359,1.014 l -1.217,-2.902 z m -0.164,-14.292 2.174,-3.065 5.393,4.631 -2.127,3.157 z m 3.916,-5.521 1.672,-2.357 1.369,4.968 z m -0.164,12.752 -1.594,2.367 -1.391,-4.958 z m 3.884,7.619 c -0.822,0.068 -1.644,0.132 -2.459,0.22 -0.613,0.065 -1.207,0.16 -1.813,0.236 l -0.125,-0.784 z m -2.568,-4.202 0.965,-1.435 1.9,1.649 z m 2.654,-3.943 1.338,-1.986 1.139,4.137 z m 1.188,-13.821 2.777,2.565 -1.469,2.181 z m 1.986,-2.248 3.813,0.325 -1.328,1.97 z m 4.715,4.354 1.189,-1.766 1.031,3.816 z m 2.014,15.215 1.76,1.511 -2.615,-0.195 z m 1.65,-2.538 1.008,-1.551 0.85,3.147 z m 0.855,-13.619 2.818,2.464 -1.521,2.339 z m 1.721,-2.479 4.086,0.348 -1.336,2.056 z m 5.031,4.398 0.992,-1.525 0.949,3.223 z m 1.329,14.745 1.961,1.809 -2.982,-0.223 z m 1.65,-2.559 1.408,-2.187 1.412,4.791 z m 2.433,-9.317 -1.041,-3.537 2.111,1.875 z m 0.307,-6.353 3.59,0.306 -1.18,1.834 z m 4.68,4.154 1.359,-2.111 1.459,4.612 z m 2.609,14.686 2.404,2.102 -3.574,-0.267 z m 1.631,-2.558 1.082,-1.698 1.156,3.656 z m 3.232,-10.652 -1.225,1.921 -1.332,-4.217 z m -0.695,-4.655 3.475,0.296 -1.145,1.795 z m 5.137,24.493 -0.182,0.887 c -1.805,-0.47 -3.609,-0.908 -5.412,-1.304 z m -2.959,-9.353 2.58,2.291 -1.203,2.066 z m -1.311,-5.175 2.09,-3.277 5.293,4.752 -1.951,3.347 z m 3.725,-5.842 1.057,-1.656 1.121,3.612 z m 2.455,15.339 1.432,1.271 -2.082,-0.155 z m 1.106,5.257 4.975,0.371 v 2.664 c -1.754,-0.564 -3.512,-1.094 -5.27,-1.59 z m 10.937,-12.38 -1.81,3.177 -5.207,-4.676 1.801,-3.09 z m -3.678,-7.229 1.104,-1.894 1.152,3.878 z m 4.104,16.447 -2.137,-0.16 0.664,-1.163 z m -6.399,-18.466 -2.486,-2.186 3.582,0.305 z m -1.539,2.641 -1.156,1.984 -1.285,-4.131 z m -1.998,9.385 1.107,3.564 -2.1,-1.863 z m 3.287,0.469 2.893,2.597 -1.35,2.367 z m 3.26,13.006 v -3.278 l 6.768,0.506 -0.219,5.344 c -2.33,-0.918 -4.67,-1.772 -7.018,-2.571 h 0.469 z m 4.234,-12.424 0.856,2.883 -1.654,-1.484 z m -0.177,-11.142 2.064,1.775 -1.012,1.774 z m 0.836,-3.238 3.896,0.332 -1.154,2.024 z m 3.547,7.002 5.131,4.407 -1.771,2.918 -5.019,-4.413 z m 1.513,-2.654 1.201,-2.109 1.287,4.248 z m 4.422,16.24 -2.742,-0.204 0.873,-1.44 z m -4.156,-3.656 -1.408,2.32 -1.43,-4.816 z m -0.457,7.322 4.813,0.359 v 8.178 c -1.684,-0.77 -3.373,-1.515 -5.07,-2.223 z m 4.324,-7.914 0.895,-1.475 0.934,3.083 z m 1.762,-15.407 3.91,0.333 -1.473,2.189 -1.244,-1.048 -0.063,0.074 z m 4.947,16.684 -1.225,2.05 -1.271,-4.194 z m -0.203,-12.218 1.24,-1.842 1.865,4.456 z m -2.848,4.914 1.424,1.951 -1.715,-1.473 z m -0.17,14.525 6.977,0.521 -1.363,11.673 c -1.859,-0.982 -3.729,-1.936 -5.613,-2.842 v -9.352 z m 4.594,-3.668 0.938,-1.568 2.088,1.794 z M 442.073,783.192 c 0.026,-0.153 0.054,-0.305 0.08,-0.458 l 0.153,0.644 z m 0.002,3.84 -0.866,1.093 c 0.091,-0.521 0.183,-1.043 0.274,-1.565 z m 201.284,11.646 -2.092,-1.814 0.816,-1.477 z m -6.789,0.484 -1.369,-3.593 2.266,1.968 z m 0.871,10.702 -2.25,-2 0.879,-1.592 z m -1.357,-17.5 4.051,0.345 -1.184,2.143 z m -8.35,8.871 1.666,-3.017 5.164,4.573 -1.672,3.028 z m 3.67,7.278 -0.56,1.016 -0.877,-2.294 z m -5.603,-3.773 1.721,4.501 -2.871,-2.417 z m -0.754,-10.375 2.051,1.816 -0.801,1.451 z m 1.332,-2.826 3.133,0.267 -0.93,1.684 z m 4.506,3.988 0.645,-1.167 1,2.623 z m 2.82,15.03 1.313,1.168 -1.881,-0.141 z m -10.932,-13.733 -2.435,-2.166 0.98,-1.641 z m -3.695,-5.907 -1.023,1.712 -2.236,-1.989 z m -2.59,4.334 -0.674,1.128 -1.15,-2.75 z m -1.144,7.77 0.996,2.383 -1.33,-1.824 z m 1.238,11.338 1.422,0.105 3.465,4.746 -1.154,11.15 c -1.734,-1.04 -3.484,-2.045 -5.246,-3.019 z m 3.711,-7.283 0.541,0.455 -0.199,0.361 z m -2.535,-6.057 -0.502,-1.2 1.516,-2.538 5.178,4.604 -1.639,2.969 z m 5.416,8.482 1.744,1.47 -2.455,-0.184 z m 6.633,21.133 -0.863,5.263 c -1.908,-1.307 -3.842,-2.568 -5.793,-3.791 l 0.959,-9.275 z m 9.875,-23.312 2.082,1.844 -0.822,1.461 z m 14.558,4.771 0.783,0.68 0.309,-0.356 c 0.195,0.289 0.387,0.578 0.582,0.867 l -2.307,-0.172 z m -2.295,-1.991 -0.578,0.934 -0.84,-2.165 z m -3.078,-7.449 c 0.406,0.621 0.81,1.241 1.221,1.863 l -1.525,-1.323 z m -2.348,4.176 1.498,3.867 -2.451,-2.171 z m -3.105,5.523 0.648,-1.151 1.479,1.31 z m -0.146,-5.862 -4.914,-4.351 1.432,-2.592 4.963,4.308 z m -192.952,-54.659 3.654,-2.468 v 2.781 z m 20.633,-32.413 -0.51,9.966 -0.977,-0.101 -10.229,-10.974 z m -13.182,-5.265 13.975,-10.256 -0.589,11.521 z m 12.202,24.407 -0.762,14.896 -0.363,-0.031 V 739.32 Z m -3.125,2.11 v 12.582 l -10.874,-0.936 v -4.304 z m -10.874,2.518 v -11.282 l 10.874,1.128 v 2.812 z m 19.833,-40.406 13.532,14.356 -14.197,-1.343 z m -0.136,-75.657 -5.508,-6.106 5.777,0.825 z m 3.401,112.462 v -5.286 l 11.591,1.201 v 16.518 z m 8.97,15.487 -8.97,-0.772 v -8.851 z m -6.226,-24.511 10.934,-7.383 -0.075,8.509 z m -2.259,-101.111 0.359,-7.04 7.537,1.077 z m 13.477,-5.166 0.583,0.083 -0.197,22.436 -12.237,-13.569 z m -5.187,22.313 -9.132,-0.685 0.456,-8.933 z m 3.382,4.264 -13.291,10.251 0.573,-11.205 z m 2.125,3.413 -0.222,25.288 -13.46,-14.736 z m -3.591,27.531 -12.804,-1.553 0.603,-11.806 z m 3.293,6.453 -0.235,26.742 -14.803,-15.707 z m -3.434,-2.442 -13.451,9.871 0.584,-11.432 z m -0.931,35.278 -13.07,8.825 -1.194,-0.124 0.511,-10.002 z m -11.619,12.997 v 3.349 l -2.102,-2.255 1.683,-1.137 z m -2.346,-88.479 -9.038,-0.679 9.436,-7.126 z m -0.205,3.995 -0.463,9.071 -8.929,-9.776 z m 2.551,93.698 v 10.824 l -3.873,-0.333 0.71,-13.885 z m -4.093,-63.536 -10.96,-1.329 11.48,-8.853 z m -0.204,4.004 -0.483,9.444 -10.112,-10.73 z m 10.773,-85.015 -2.955,2.784 0.473,-5.938 z m -0.806,-7.492 7.461,1.222 -3.731,3.517 z m 3.291,10.649 3.026,3.845 -6.088,-0.961 z m 2.923,-2.755 4.923,-4.639 -0.095,10.775 z m 17.847,2.843 3.674,-3.332 0.762,8.261 z m 0.605,6.651 -6.763,-1.067 3.195,-2.898 z m -3.281,-9.625 -4.496,-4.998 8.477,1.389 z m -2.963,2.687 -3.375,3.062 0.059,-6.747 z m 10.492,11.659 1.217,0.191 2.16,0.341 0.35,0.056 15.715,2.479 c 0.877,3.03 1.818,6.258 2.814,9.642 l -36.265,-5.182 0.086,-9.725 z m 12.742,-9.136 2.432,-2.622 c 0.449,1.556 0.93,3.226 1.447,5.027 0.145,0.508 0.301,1.05 0.451,1.574 z m 2.186,7.441 -7.924,-1.25 3.019,-3.257 z m -5.129,-10.147 -5.201,-4.778 8.361,1.369 z m -2.721,2.934 -3.371,3.636 -0.678,-7.357 z m 32.661,1.949 -4.56,-4.653 6.402,1.049 z m 4.013,9.811 -4.195,-0.662 1.215,-2.378 z m -5.933,-6.054 -2.154,4.217 -6.744,-6.744 2.42,-4.085 z m -8.203,3.824 -4.074,-0.643 1.275,-2.155 z m -3.614,-9.27 -5.342,-5.342 7.752,1.27 z m -2.103,3.552 -1.781,3.009 c -0.58,-2.011 -1.135,-3.941 -1.652,-5.747 -0.096,-0.335 -0.188,-0.649 -0.281,-0.976 z m -0.397,22.024 c 2.508,8.454 5.352,17.809 8.514,27.768 l -11.18,-6.244 3.27,-8.682 -4.895,1.647 -1.008,2.676 -0.687,-2.106 -3.789,1.275 0.484,1.486 -1.842,-1.03 -0.047,0.017 c -0.037,0.027 -0.076,0.055 -0.127,0.071 -0.018,0.005 -0.035,0.011 -0.053,0.017 -0.002,10e-4 -0.004,0 -0.006,10e-4 -0.043,0.028 -0.09,0.055 -0.15,0.069 -0.023,0.005 -0.045,0.011 -0.068,0.017 -0.045,0.011 -0.084,0.003 -0.125,0.003 l -3.139,1.057 c -0.002,0 -0.004,10e-4 -0.006,0.002 -0.002,10e-4 -0.004,10e-4 -0.004,10e-4 l -0.547,0.185 c -0.018,0.007 -0.035,0.014 -0.055,0.021 -0.008,0.003 -0.014,0.003 -0.022,0.004 l -0.023,0.008 c -0.014,0.008 -0.025,0.017 -0.041,0.022 -0.102,0.028 -0.203,0.063 -0.303,0.094 l -0.406,0.137 8.631,4.82 -4.117,10.934 -4.605,-15.724 -1.953,0.657 c -0.406,0.143 -0.812,0.288 -1.225,0.42 -0.01,0.003 -0.018,-10e-4 -0.029,0.002 l -0.588,0.198 0.244,0.832 -7.762,8.503 -0.674,-6.578 -2.914,0.981 0.656,6.434 -7.199,-7.78 0.242,-27.579 z m 19.08,14.472 -7.617,9.36 c -2.41,-7.649 -4.629,-14.92 -6.646,-21.666 z m -8.976,-13.029 5.613,0.802 c 0.469,1.34 1.164,3.315 2.047,5.808 z m 11.226,16.604 c 1.072,2.988 2.254,6.266 3.531,9.784 l -10.65,-1.037 z m -1.146,-15.164 7.459,1.065 -4.93,6.06 c -1.033,-2.894 -1.888,-5.31 -2.529,-7.125 z m 41.512,118.249 c 1.572,3.435 3.09,6.624 4.537,9.52 v 3.863 l -10.346,-0.89 v -3.198 z m -5.809,1.746 v -7.271 l 2.543,0.264 1.287,0.878 z m 6.629,-10.605 -0.4,-0.041 c -1.476,-3.376 -2.988,-6.921 -4.519,-10.585 l 11.059,0.803 z m -6.635,-14.762 c -1.168,-2.831 -2.342,-5.72 -3.52,-8.648 l 11.4,9.221 z m -2.779,3.81 c 1.215,2.92 2.418,5.771 3.605,8.533 l -13.572,-9.257 z m -25.873,15.17 1.84,-3.665 3.594,0.373 v 6.685 z m 5.433,8.108 v 7.029 l -0.627,-0.055 -3.02,-9.251 z m -36.609,-19.219 -6.225,-51.525 15.371,52.475 z m 3.967,4.433 v 19.009 l -1.146,-0.099 -1.06,-8.784 -0.231,-1.907 -1.037,-8.579 z m -11.918,-1.235 2.447,0.254 v 2.186 z m 2.447,6.679 v 12.751 l -8.18,-0.703 -1.996,-19.528 2.984,0.31 z m -6.947,-11.168 -3.613,-3.601 11.121,-11.011 1.883,15.587 z m -4.332,-7.113 -1.109,-10.861 11.449,0.626 z m 0.056,30.067 -0.133,-0.012 v -1.302 z m -5.964,-19.994 3.832,0.398 v 19.412 l -9.572,-0.823 v -13.304 z m -5.741,1.459 v -2.055 l 1.879,0.195 z m 15.819,-58.936 -9.129,-1.129 -1.002,-9.82 z m -10.639,-15.913 -0.051,-0.499 8.34,-9.136 3.596,12.274 1.418,11.737 z m 11.441,19.035 -8.551,9.262 -1.066,-10.452 z m 2.616,1.589 3.285,27.19 -13.844,-15.75 z m -10.627,42.457 -11.383,-11.353 10.282,0.563 z m 0.343,-26.159 11.488,13.07 -10.211,-0.558 z m 16.911,38.555 0.662,5.469 -1.598,-1.593 v -3.974 z m -0.936,8.115 2.18,2.174 1.092,9.036 -3.272,-0.281 z m 4.516,-79.952 2.406,7.374 -7.764,-5.729 z m -4.631,-2.763 1.998,-5.303 1.391,4.264 z m 15.185,35.113 3.193,9.783 -11.51,-7.465 -0.014,-0.041 z m -8.015,-1.954 3.951,-10.502 2.824,8.65 z m 10.636,-2.908 -3.09,-9.473 10.199,7.528 z m 8.217,1.898 -3.842,11.509 -3.133,-9.602 z m -6.164,18.473 -4.861,14.564 -6.406,-21.87 z m 2.282,5.801 2.912,8.928 -6.336,1.332 z m 2.492,-7.471 5.09,-15.252 c 2.912,8.108 5.99,16.325 9.217,24.529 z m -10.711,-33.733 4.975,-13.22 c 2.367,7.273 4.893,14.804 7.566,22.477 z m -2.531,-4.632 -2.935,-8.996 7.146,-2.193 z m -4.178,-12.8 -1.965,-6.023 7.656,4.277 z m 1.898,18.854 -4.685,12.451 -5.947,-20.299 z m -2.592,16.696 -0.787,0.216 -0.17,-0.575 z m 3.067,42.148 4.395,0.456 5.68,19.383 -10.074,-0.866 v -18.973 z m 8.693,0.901 0.051,0.005 1.836,1.146 v 5.288 z m 1.385,-3.877 -2.322,-1.45 8.959,-1.884 1.359,4.163 z m 9.353,4.991 0.348,1.066 -1.977,-1.235 z m -6.851,1.286 7.42,4.633 -5.84,11.632 -1.58,-5.398 z m 7.947,12.495 v 4.941 l -2.377,-0.204 z m -1.123,-26.759 -3.301,-10.119 12.592,8.166 z m 8.975,2.202 -3.666,7.303 -2.283,-0.236 -1.777,-5.442 z m -5.852,20.573 0.063,-0.122 3.098,9.491 -3.16,-0.271 v -9.098 z m 6.44,-12.829 3.83,-7.629 c 1.143,2.805 2.307,5.601 3.484,8.388 z m 3.675,16.844 10.412,6.499 V 763 l -10.412,-0.894 z m 0,-4.715 v -7.727 l 5.434,0.564 c 1.627,3.774 3.287,7.521 4.979,11.229 v 2.434 z m 10.002,-6.69 0.41,0.043 v 0.901 c -0.138,-0.314 -0.273,-0.629 -0.41,-0.944 z M 578,740.538 c -0.992,-2.322 -1.969,-4.654 -2.935,-6.992 l 11.566,7.888 z m 4.229,4.46 6.813,0.707 v 10.678 l -2.293,3.668 c -1.531,-3.247 -3.037,-6.529 -4.519,-9.842 v -5.211 z m -9.362,-18.5 8.662,-11.45 c 1.674,4.217 3.354,8.382 5.019,12.443 z m -2.172,-3.761 c -3.262,-8.256 -6.371,-16.531 -9.316,-24.704 l 17.377,14.052 z m 3.916,-25.431 c 1.166,3.039 2.346,6.093 3.535,9.142 l -12.023,-9.724 z m -0.185,-11.829 10.203,8.506 -7.16,-0.49 c -1.029,-2.694 -2.045,-5.37 -3.043,-8.016 z m -13.719,6.869 -0.574,-0.465 8.275,-10.964 c 1.498,4.007 3.049,8.115 4.631,12.273 z m -2.809,-4.144 c -2.73,-7.833 -5.31,-15.522 -7.723,-22.94 l 15.367,12.811 z m 7.459,-15.492 -13.631,-11.362 9.807,0.955 c 1.211,3.315 2.488,6.798 3.824,10.407 z m -3.537,-21.388 9.133,7.88 -6.502,-0.634 c -0.924,-2.533 -1.803,-4.958 -2.631,-7.246 z m -54.029,40.539 -10.16,-11.556 9.093,1.125 z m -4.164,-28.16 -6.421,7.032 0.121,-13.839 z m 1.564,2.734 1.221,11.934 -9.263,-1.146 0.018,-1.997 z m 2.223,29.544 -10.53,11.408 0.203,-23.155 z m 1.125,3.206 1.435,14.047 -13.135,-0.718 0.006,-0.661 z m 2.346,31.6 -2.555,2.528 -11.663,-1.209 0.135,-15.364 z m -10.11,5.767 v 4.242 l -4.221,4.178 0.078,-8.85 z m 0,8.465 v 11.152 l -4.315,-0.371 0.058,-6.565 z m 109.403,12.475 v 8.083 l -1.939,-0.166 c -1.504,-2.703 -3.133,-5.892 -4.852,-9.467 v -3.082 z m -6.791,-9.473 v -0.826 l 6.791,0.704 v 4.754 z m 8.791,17.728 v -6.891 l 9.918,6.764 v 0.98 z m 20.492,-15.518 8.652,0.897 v 17.127 l -8.652,-0.743 z m -8.574,-0.889 6.574,0.682 v 16.687 c -2.236,-3.726 -4.428,-7.44 -6.574,-11.146 z m -2,-0.207 v 2.962 c -0.6,-1.05 -1.193,-2.099 -1.787,-3.147 z m 0,10.269 v 1.376 l -9.918,-6.764 v -5.911 l 3.695,0.384 c 2.033,3.633 4.107,7.271 6.223,10.915 z M 609.58,737.013 c 1.291,2.401 2.596,4.804 3.92,7.207 l -11.4,-1.182 5.014,-8.021 z m -4.742,-8.979 -20.348,-16.455 c -0.039,-0.098 -0.076,-0.194 -0.115,-0.292 l 7.404,-9.786 c 4.133,8.887 8.483,17.717 13.059,26.533 z M 582.66,706.925 c -1.215,-3.102 -2.42,-6.214 -3.613,-9.315 l 10.137,0.693 z m 4.172,-16.314 -15.25,-12.713 c -0.1,-0.266 -0.197,-0.528 -0.297,-0.793 l 6.33,-8.386 c 2.942,7.366 6.012,14.656 9.217,21.892 z m -10.939,-26.25 -6.262,8.296 c -1.27,-3.425 -2.494,-6.745 -3.656,-9.922 l 9.65,0.939 c 0.09,0.23 0.178,0.459 0.268,0.687 z m -3.526,-9.223 -12.576,-10.851 6.053,-7.438 c 2.096,6.166 4.271,12.257 6.523,18.289 z m -8.697,-24.8 -25.34,-3.572 -0.465,-1.396 c -0.844,-2.868 -1.646,-5.618 -2.406,-8.238 l 10.617,1.676 0.617,0.097 14.02,2.212 c 0.969,3.096 1.955,6.169 2.957,9.221 z m -5.274,-16.77 -4.053,-4.137 1.799,-3.521 c 0.741,2.569 1.493,5.122 2.254,7.658 z m -14.554,-55.913 c 1.309,5.837 2.654,11.582 4.041,17.238 l -4.684,-0.925 -6.789,-7.429 7.129,-8.945 z m -34.713,0.566 -7.021,-8.892 11.986,2.392 z m 2.402,9.496 -4.018,-0.793 1.668,-2.184 z m -30.057,-12.871 -8.245,-11.277 16.18,3.227 z m 0.136,6.963 -1.157,-0.229 0.568,-0.576 z m 35.318,-44.763 6.293,-8.641 9.271,11.638 z m 17.045,7.355 -5.861,8.109 -9.426,-11.053 z m -23.182,-15.767 -4.793,-9.291 2.705,-5.233 z m -2.023,-42.159 6.752,8.715 -4.641,5.952 z m -5.02,28.509 -4.152,-8.047 6.81,1.32 0.338,0.931 z m -4.33,-41.008 0.903,-5.773 1.52,6.244 z m 3.312,4.718 -1.275,4.143 -1.711,-4.722 z m -3.231,10.492 -0.54,1.753 0.028,-3.165 z m 2.263,6.246 3.059,8.443 -5.34,-1.035 z m 1.955,-6.35 0.945,-3.068 1.354,9.415 z m 3.011,-16.786 -2.252,-15.663 7.211,9.536 z m -4.019,-27.95 -2.388,-16.602 7.996,10.025 z m -3.364,-28.056 -0.613,-17.43 7.462,10.442 z m -0.588,97.744 2.739,5.308 -2.833,5.48 z m 0.069,19.183 4.918,-9.517 6.191,11.999 -11.349,-2.186 0.003,-0.42 z m 11.354,6.602 -4.488,6.856 -5.742,-8.825 z m -6.883,10.512 -4.924,7.521 0.131,-14.89 z m 2.383,3.662 8.951,13.757 -15.883,-3.169 z m 2.394,-3.656 4.787,-7.313 2.709,18.834 z m 7.299,-17.95 -2.43,-16.88 7.691,9.654 z m 7.705,-10.581 -9.721,-12.201 15.68,3.039 0.367,0.474 z m -10.441,-16.415 5.41,-6.937 7.277,9.396 z m -3.938,-25.538 15.629,3.035 0.385,0.511 -6.656,8.537 z m 0.309,-4.015 5.164,-6.382 6.545,8.655 z m -3.385,-24.32 15.477,3.018 -6.82,8.43 z m -0.256,-4.125 5.488,-6.438 7.092,8.891 z m -3.361,-23.952 15.164,3.943 -6.211,7.285 z m -0.014,-4.135 6.563,-6.699 7.377,10.323 z m 1.264,-20.992 11.307,2.448 -5.527,5.639 z m -3.46,-4.842 -0.287,-0.402 7.126,-6.681 7.25,10.134 z m 2.395,-20.172 9.809,2.578 -4.768,4.469 z m -3.263,-4.993 5.884,-5.704 6.359,8.921 z m 1.187,-19.188 9.879,2.891 -4.623,4.482 z m -2.427,-4.877 5.466,-5.22 5.867,8.536 z m 2.153,-17.098 7.854,2.011 -3.906,3.731 z m -2.167,-4.685 4.548,-4.217 4.67,6.578 z m 0.734,-16.499 8.43,2.551 -3.992,3.7 z m -0.689,-4.387 3.138,-2.946 3.407,4.925 z m 0.434,-13.884 6.373,2.007 -3.022,2.837 z m -1.894,-4.791 3.351,-2.978 3.693,5.196 z m -1.428,-34.484 2.68,-2.261 2.951,4.128 z m 6.831,6.477 -2.278,1.944 -2.561,-3.547 z m -7.01,-27.599 -1.906,1.583 -0.159,-4.52 z m -2.428,-13.237 -0.116,-3.308 1.54,2.112 z m 3.786,2.043 2.033,2.788 -3.855,-1.257 z m -0.571,-7.573 2.566,0.672 -1.287,1.081 z m -0.915,24.074 2.436,-2.023 2.476,3.521 z m 5.796,5.949 -2.075,1.752 -2.181,-3.049 z m -5.143,4.34 -1.882,1.589 -0.156,-4.44 z m 2.561,-18.159 -1.583,-2.251 3.084,1.005 z m -4.774,124.024 0.432,12.251 -5.382,-7.523 z m 0.932,-87.233 -0.202,-5.735 2.638,3.655 z m 0.37,124.213 -5.449,-7.626 5.01,-4.856 z m 5.78,-157.721 1.551,-1.289 c 0.096,1.302 0.193,2.61 0.289,3.906 z m -0.965,-14.494 1.459,-1.226 c 0.087,1.202 0.174,2.388 0.262,3.585 z m -7.23,-10.067 -0.047,-1.333 c 2.718,0.72 5.436,1.441 8.155,2.162 0.032,0.441 0.063,0.88 0.096,1.321 z m 0.365,124.067 0.39,11.067 -4.905,-6.882 z m -5.591,-88.358 2.409,-2.001 0.197,5.611 z m 2.961,13.68 0.226,6.394 -2.926,-4.116 z m -2.99,-28.832 1.919,-1.612 0.159,4.518 z m 0.384,-14.58 1.051,-0.767 0.084,2.381 z m -6.251,-8.891 -1.171,-1.665 c 2.735,0.725 5.47,1.45 8.205,2.175 l 0.047,1.345 z m 5.532,33.725 -1.982,1.647 -2.083,-2.886 z m -1.13,-28.437 -0.452,0.33 -0.387,-0.55 z m 0.843,9.126 -4.538,-1.48 2.312,-1.687 z m 0.128,4.249 -1.839,1.545 -1.999,-2.796 z m -2.577,7.389 2.429,3.397 -4.75,-1.448 z m 0.016,15.133 2.799,3.877 -5.337,-1.769 z m 3.252,8.241 -2.232,1.883 -2.439,-3.432 z m -2.973,7.743 2.975,4.185 -5.685,-1.898 z m 4.216,8.817 -2.844,2.428 -3.037,-4.391 z m 2.153,3.421 0.231,6.565 -2.941,-4.252 z m -5.768,4.923 3.806,5.501 -7.487,-2.358 z m 3.909,9.727 -3.122,2.774 -3.435,-4.839 z m 2.486,3.141 0.278,7.924 -3.558,-5.01 z m -2.435,11.013 -7.429,-2.248 3.576,-3.178 z m 1.553,4.648 -3.9,3.662 -4.203,-6.114 z m 1.574,4.009 0.282,8.027 -3.464,-5.039 z m -1.003,13.218 -10.273,-2.63 5.144,-4.83 z m -0.931,3.891 -4.214,3.906 -4.346,-6.098 z m 0.581,17.524 -10.34,-3.025 4.928,-4.567 z m -0.24,4.097 -4.252,4.06 -4.798,-6.708 z m 2.576,20.48 -14.296,-3.756 6.896,-6.587 z m -1.441,3.758 -4.585,4.444 -4.97,-6.955 z m 2.931,21.84 -16.115,-3.49 8.047,-7.8 z m -3.066,3.428 -5.361,5.025 -5.174,-7.307 z m 3.769,1.951 0.592,16.804 -7.388,-10.434 z m -0.17,-118.494 -0.234,-6.676 2.999,4.22 z m 2.644,-9.531 5.875,1.961 -2.747,2.441 z m -1.142,-4.597 2.665,-2.275 3.01,4.17 z m 4.563,-21.406 2.14,-1.807 c 0.135,1.801 0.271,3.582 0.406,5.369 z m 0.552,-42.078 c -3.146,-0.833 -6.292,-1.667 -9.437,-2.501 l -1.993,-0.528 c -3.535,-0.937 -7.07,-1.874 -10.604,-2.811 v -0.774 c 0.441,-1.754 0.883,-3.508 1.325,-5.261 l 23.188,6.052 c -0.827,1.941 -1.653,3.882 -2.479,5.823 z m -19.684,7.026 -2.365,1.726 c 0.003,-1.689 0.005,-3.384 0.007,-5.08 z m -0.256,14.814 -2.147,1.804 c 0.006,-1.594 0.011,-3.186 0.016,-4.787 z m 0.004,15.145 -2.212,1.837 c 0.008,-1.617 0.015,-3.246 0.022,-4.871 z m 0.299,15.964 -2.605,2.2 c 0.013,-1.933 0.025,-3.871 0.037,-5.814 z m 0.64,17.125 -3.385,2.89 c 0.023,-2.556 0.044,-5.116 0.065,-7.689 z m 0.066,18.481 -3.638,3.232 c 0.03,-2.734 0.06,-5.477 0.088,-8.232 z m 0.883,19.787 -4.786,4.495 c 0.052,-3.73 0.103,-7.472 0.149,-11.24 z m -0.681,21.333 -4.427,4.103 c 0.057,-3.345 0.11,-6.709 0.163,-10.086 z m 0.34,21.825 -5.188,4.954 c 0.08,-3.94 0.158,-7.896 0.231,-11.883 z m 0.82,24.646 -6.59,6.387 c 0.122,-5.001 0.239,-10.039 0.352,-15.117 z m -0.953,25.796 -6.311,5.916 c 0.136,-4.724 0.268,-9.479 0.395,-14.272 z m 2.334,3.295 7.072,9.989 -13.879,-3.608 z m 9.184,14.671 -7.654,6.96 -7.617,-10.93 z m -0.912,23.629 -15.751,-3.071 8.331,-7.576 z m -0.542,3.97 -8.085,7.469 -7.048,-10.42 z m -2.247,23.237 -14.056,-2.729 7.514,-6.942 z m 2.947,4.647 -8.68,8.085 -8.055,-11.335 z m -1.999,24.392 -15.164,-2.939 7.867,-7.329 z m 0.547,4.181 -8.615,8.239 -8.004,-11.461 z m -0.628,26.66 -17.864,-3.441 9.27,-8.865 z m -1.043,3.872 -8.011,7.588 -8.206,-10.71 z m 2.065,27.316 -20.722,-4.134 10.172,-9.635 z m 1.788,4.434 0.182,0.037 -0.145,16.514 -6.739,-1.331 -3.535,-4.835 z m -9.417,-20.969 9.865,-9.345 -0.192,21.97 z m 0.938,-29.756 9.184,-8.783 -0.19,21.66 z m 1.406,-28.756 8.018,-7.469 -0.162,18.524 z m -0.174,-28.437 8.445,-7.803 -0.176,20.028 z m 1.924,-28.151 6.754,-6.142 -0.137,15.637 z m 6.416,-133.208 -0.297,-8.441 3.656,5.287 z m 4.692,16.498 -3.982,3.69 -0.345,-9.782 z m 0.971,20.731 -4.21,4.021 -0.377,-10.692 z m 1.606,23.625 -4.956,4.805 -0.436,-12.37 z m 1.822,23.798 -5.914,5.545 -0.512,-14.53 z m -6.029,187.801 8.365,10.592 -3.482,4.56 -5.007,-0.988 z m 19.07,3.168 2.188,15.217 -1.945,-0.384 -5.883,-7.448 z m 0.008,-28.037 8.365,9.809 -5.801,8.024 z m 11.035,12.942 11.828,13.87 -19.098,-3.81 z m -3.547,14.88 14.301,2.853 -5.447,6.835 z m 6.328,12.857 -3.355,4.21 -4.121,-0.813 -1.977,-13.741 z m 2.733,2.99 2.701,2.955 -4.369,-0.862 z m 7.976,-21.072 -11.078,-12.991 6.596,-9.128 c 1.443,7.525 2.936,14.897 4.482,22.119 z M 532.01,496.48 c 1.199,7.205 2.436,14.265 3.709,21.191 l -10.055,-12.621 6.291,-8.64 z m -4.608,-29.524 c 1.057,7.218 2.139,14.301 3.252,21.244 l -10.07,-13 6.627,-8.497 z m -1.175,-8.19 -9.463,-12.513 6.652,-8.22 c 0.914,7.039 1.852,13.948 2.811,20.733 z m -3.993,-29.96 -8.734,-10.952 6.482,-7.604 c 0.739,6.282 1.487,12.472 2.252,18.556 z m -3.427,-28.731 -7.408,-10.369 5.631,-5.747 c 0.585,5.444 1.177,10.816 1.777,16.116 z m -3.004,-27.747 -6.223,-8.699 4.873,-4.568 c 0.445,4.47 0.895,8.892 1.35,13.267 z m -2.469,-24.663 -5.615,-7.879 4.455,-4.319 c 0.385,4.106 0.771,8.171 1.16,12.198 z m -2.266,-24.191 -4.984,-7.25 3.99,-3.811 c 0.33,3.721 0.662,7.401 0.994,11.061 z m -1.99,-22.487 -3.897,-5.487 3.176,-2.943 c 0.239,2.828 0.479,5.637 0.721,8.43 z m -1.685,-19.942 -3.588,-5.186 2.934,-2.755 c 0.218,2.662 0.435,5.31 0.654,7.941 z m -1.573,-19.289 -3.203,-4.508 2.658,-2.361 c 0.182,2.299 0.364,4.591 0.545,6.869 z m -1.849,-23.576 c 0.145,1.878 0.289,3.746 0.434,5.609 l -2.67,-3.7 z m 0.826,-65.307 -23.643,-6.171 c 0.502,-1.996 1.005,-3.991 1.507,-5.987 8.204,2.113 16.408,4.227 24.613,6.34 -0.827,1.939 -1.651,3.879 -2.477,5.818 z m -31.607,-22.009 -5.615,1.127 c 0,0 -6.689,5.531 -10.034,8.297 2.535,-9.586 7.221,-17.597 16.213,-20.624 0,0 3.342,-1.257 7.739,-1.257 4.397,0 7.903,1.342 7.903,1.342 8.009,2.635 14.446,8.862 17.581,16.908 l -13.016,-3.708 c -3.684,-1.05 -6.463,-1.973 -10.421,-2.391 z m 2.781,249.415 7.518,10.789 -8.111,7.376 c 0.205,-5.999 0.404,-12.051 0.593,-18.165 z m -0.982,29.13 6.628,9.798 -7.262,6.71 c 0.219,-5.455 0.431,-10.955 0.634,-16.508 z m -1.08,27.282 7.832,11.021 -8.686,8.091 c 0.295,-6.302 0.58,-12.672 0.854,-19.112 z m -1.314,28.646 7.786,11.149 -8.8,8.417 c 0.35,-6.45 0.689,-12.97 1.014,-19.566 z m -1.601,30.132 8.326,10.868 -9.521,9.017 c 0.412,-6.551 0.811,-13.177 1.195,-19.885 z m -1.804,29.352 9.439,12.91 -2.878,2.92 -7.535,-1.487 c 0.332,-4.739 0.657,-9.52 0.974,-14.343 z m -2.139,30.354 0.358,-5.741 93.858,17.145 -6.809,13.395 -88.211,-14.446 c 0.273,-3.433 0.542,-6.877 0.804,-10.353 z m 5.074,19.438 -3.986,-5.736 8.525,1.396 z m 1.146,8.658 -3.788,-0.598 2.026,-1.938 z m 3.792,-7.845 -0.45,5.645 -2.177,-3.133 z m -11.362,-3.049 3.498,5.034 -4.255,4.069 c 0.256,-3.016 0.508,-6.051 0.757,-9.103 z m -1.275,15.133 0.155,-1.584 11.499,1.839 0.98,0.155 15.634,2.466 1.042,0.189 -0.039,9.688 -1.747,-0.171 -25.974,-3.711 -2.265,-0.369 c 0.194,-2.164 0.525,-6.322 0.715,-8.502 z m -1.122,12.529 0.671,0.096 11.31,12.54 -14.243,10.755 c 0.78,-7.679 1.534,-15.474 2.262,-23.391 z m -3.343,33.803 c 0.148,-1.388 0.293,-2.784 0.439,-4.181 l 13.367,14.636 -0.002,0.032 -16.385,12.636 c 0.885,-7.577 1.747,-15.274 2.581,-23.123 z m -3.24,28.694 15.278,16.211 -18.409,13.509 -0.557,-0.597 c 1.274,-9.504 2.503,-19.202 3.688,-29.123 z m -4.584,35.748 0.779,-0.572 0.322,0.031 10.172,10.912 -12.54,-1.301 c 0.427,-3.002 0.849,-6.028 1.267,-9.07 z m -1.837,13.033 3.669,0.38 v 12.84 l -6.271,4.234 c 0.885,-5.75 1.753,-11.567 2.602,-17.454 z m -7.092,-0.735 3.258,0.338 c -0.989,6.892 -2.001,13.659 -3.033,20.319 l -0.226,-0.02 v -20.637 z m -3.109,63.776 3.706,-4.679 1.883,7.913 -6.09,-0.454 c 0.168,-0.925 0.335,-1.853 0.501,-2.78 z m -1.221,6.737 44.841,3.348 -1.26,7.384 -45.071,-2.709 c 0.502,-2.664 0.997,-5.34 1.49,-8.023 z m -16.283,95.174 22.158,-16.051 -2.931,16.051 z m 18.497,4 -3.159,17.297 -16.782,-17.297 z m 7.902,-43.27 -2.329,12.755 -12.115,-13.118 z m -16.471,-4.415 19.708,-13.316 -2.511,13.749 z m 12.635,47.685 h 18.898 L 442.31,915.86 Z m 0.73,-4 3.272,-17.917 16.547,17.917 z m 7.152,-39.167 16.244,0.408 -18.806,13.623 z m -13.075,-43.823 16.827,1.011 -2.519,13.793 z m 13.803,39.84 3.042,-16.657 16.576,17.15 z m 27.338,-33.361 -2.255,13.214 -16.171,-0.764 z m -23.231,10.868 2.939,-16.095 19.176,1.152 z m -21.64,-15.451 15.985,16.539 -19.051,-0.9 c 1.039,-5.183 2.061,-10.394 3.066,-15.639 z m -3.86,19.606 18.086,0.854 -21.23,14.345 c 1.064,-5.045 2.114,-10.108 3.144,-15.199 z m -4.523,21.686 1.121,0.028 15.684,16.982 -20.38,-0.622 c 1.211,-5.449 2.403,-10.91 3.575,-16.388 z m -4.459,20.362 18.443,0.563 -22.245,16.113 c 1.287,-5.555 2.555,-11.111 3.802,-16.676 z m -5.853,25.463 15.21,15.677 h -18.949 c 1.263,-5.234 2.511,-10.457 3.739,-15.677 z m -4.707,19.677 h 20.957 l -25.439,18.238 c 1.517,-6.103 3.012,-12.18 4.482,-18.238 z m 20.457,21.032 h -21.97 l 25.28,-18.125 z m 4.065,0 3.118,-17.073 16.564,17.073 z m 23.101,-2.221 -18.251,-18.811 h 21.461 z m 3.892,-22.811 h -18.114 l 20.639,-14.798 z m 4.187,-24.535 -14.47,-15.668 17.054,0.521 z m 3.263,-19.128 -18.118,-0.553 20.781,-15.053 z m -9.693,-38.121 16.068,0.76 -2.301,13.484 z m 139.083,-6.097 c -26.481,-13.06 -52.018,-16.621 -73.856,-10.297 -22.365,6.475 -39.669,22.884 -50.143,46.705 l 4.377,-25.652 c 11.491,-16.657 29.696,-26.776 52.784,-29.261 27.309,-2.932 58.406,5.422 85.623,22.067 l -0.004,0.047 0.096,0.01 c 9.629,5.898 18.766,12.838 27.08,20.68 l 16.731,22.92 c -20.71,-21.042 -41.708,-36.872 -62.688,-47.219 z m 64.146,42.435 19.559,11.375 -11.287,-0.045 z m 20.111,27.552 -8.912,-12.21 12.262,0.049 z m 7.049,-10.533 9.682,13.059 h -13.277 z m 1.014,21.578 21.434,12.461 -12.063,0.376 z m 21.24,29.098 -9.014,-12.348 11.75,-0.366 z m 3.492,2.783 3.125,-14.515 10.76,14.515 z m 18.863,0 -8.514,-11.484 19.754,11.484 z"
   id="path12" />
	</g>
</g>
</svg>
