<?xml version="1.0" encoding="UTF-8" standalone="no"?>
<!-- Created with Inkscape (http://www.inkscape.org/) -->

<svg
   width="13.431044mm"
   height="38.475445mm"
   viewBox="0 0 13.431044 38.475445"
   version="1.1"
   id="svg1"
   inkscape:version="1.4.2 (f4327f4, 2025-05-13)"
   sodipodi:docname="Leaning Tower of Pisa-56.svg"
   xmlns:inkscape="http://www.inkscape.org/namespaces/inkscape"
   xmlns:sodipodi="http://sodipodi.sourceforge.net/DTD/sodipodi-0.dtd"
   xmlns="http://www.w3.org/2000/svg"
   xmlns:svg="http://www.w3.org/2000/svg">
  <sodipodi:namedview
     id="namedview1"
     pagecolor="#ffffff"
     bordercolor="#000000"
     borderopacity="0.25"
     inkscape:showpageshadow="2"
     inkscape:pageopacity="0.0"
     inkscape:pagecheckerboard="0"
     inkscape:deskcolor="#d1d1d1"
     inkscape:document-units="mm"
     inkscape:zoom="1.2275954"
     inkscape:cx="-131.1507"
     inkscape:cy="6.5168051"
     inkscape:window-width="2880"
     inkscape:window-height="1676"
     inkscape:window-x="-12"
     inkscape:window-y="-12"
     inkscape:window-maximized="1"
     inkscape:current-layer="layer1" />
  <defs
     id="defs1" />
  <g
     inkscape:label="图层 1"
     inkscape:groupmode="layer"
     id="layer1"
     transform="translate(-139.7,-146.84375)">
    <g
       id="g430"
       transform="matrix(0.26458333,0,0,0.26458333,41.813427,141.18881)">
	<polygon
   style="fill:#dbb57d"
   points="388.712,23.177 388.582,26.27 387.424,37.994 415.897,40.958 416.542,34.773 417.313,27.171 413.319,24.724 409.069,22.791 401.982,21.373 394.381,21.76 "
   id="polygon362" />

	<polygon
   style="fill:#efcd97"
   points="407.523,26.055 398.332,25.109 391.461,25.712 387.938,27.858 387.51,25.798 390.517,24.08 394.553,23.65 404.688,23.736 409.584,24.766 414.31,26.828 417.658,28.976 417.401,29.663 417.314,30.35 414.738,28.46 "
   id="polygon363" />

	<polygon
   style="fill:#c49a62"
   points="391.461,25.712 398.332,25.109 407.523,26.055 414.738,28.46 417.314,30.35 417.401,29.663 417.416,29.619 414.997,27.858 411.904,26.655 407.78,25.281 401.081,24.337 394.64,24.423 390.517,25.109 387.723,26.817 387.938,27.858 "
   id="polygon364" />

	<polygon
   style="fill:#c49a62"
   points="417.251,27.795 417.313,27.171 413.319,24.724 409.069,22.791 401.982,21.373 394.381,21.76 388.712,23.177 388.672,24.119 395.327,22.275 400.823,22.104 407.008,23.049 411.904,24.853 415.081,26.57 "
   id="polygon365" />

	<polygon
   style="fill:#c49a62"
   points="412.591,37.994 412.318,40.585 414.358,40.797 414.909,35.762 415.167,31.896 414.565,29.92 413.879,29.835 413.02,32.411 "
   id="polygon366" />

	<polygon
   style="fill:#c49a62"
   points="405.892,26.742 404.86,27.43 404.345,29.233 404.087,33.527 403.543,39.672 411.363,40.486 411.818,33.441 412.075,30.522 411.646,28.632 410.443,27.944 409.069,28.117 408.554,29.062 408.038,28.89 408.211,27.773 407.436,26.914 "
   id="polygon367" />

	<polygon
   style="fill:#aa7752"
   points="402.54,34.473 403.056,30.006 402.369,27.858 401.167,26.914 399.707,27.343 398.676,28.976 398.16,34.473 397.935,39.088 402.321,39.544 "
   id="polygon368" />

	<polygon
   style="fill:#8c6144"
   points="398.676,28.976 398.16,34.473 397.935,39.088 398.625,39.16 399.277,31.037 399.707,28.804 400.994,28.117 402.112,28.804 402.997,30.517 403.056,30.006 402.369,27.858 401.167,26.914 399.707,27.343 "
   id="polygon369" />

	<polygon
   style="fill:#c49a62"
   points="389.743,29.663 389.142,33.871 388.62,38.119 396.514,38.94 397.13,32.153 397.302,28.374 395.754,26.828 394.209,27.171 393.693,29.233 393.093,29.062 393.007,27.602 392.234,27 390.688,27.687 "
   id="polygon370" />

	<polygon
   style="fill:#aa7752"
   points="393.608,29.835 392.061,29.663 390.517,33.013 390.117,38.275 394.849,38.767 395.154,33.957 395.154,31.381 "
   id="polygon371" />

	<polygon
   style="fill:#8c6144"
   points="392.061,29.663 390.517,33.013 390.117,38.275 391.719,38.441 391.977,34.902 392.147,31.981 393.265,31.037 395.059,31.284 393.608,29.835 "
   id="polygon372" />

	<polygon
   style="fill:#aa7752"
   points="408.468,30.866 406.234,30.866 405.118,32.411 404.258,35.933 404.334,39.755 410.061,40.35 410.443,34.473 410.101,31.725 "
   id="polygon373" />

	<polygon
   style="fill:#8c6144"
   points="409.326,35.503 408.91,40.229 410.061,40.35 410.443,34.473 410.101,31.725 408.468,30.866 406.234,30.866 405.118,32.411 404.947,33.109 406.75,32.239 409.326,33.185 "
   id="polygon374" />

	<polygon
   style="fill:#c49a62"
   points="416.799,98.678 415.124,124.575 413.578,144.932 374.024,140.811 378.018,96.359 379.435,77.42 380.595,58.738 381.884,42.375 381.884,38.639 386.006,37.479 392.448,37.221 406.492,38.381 413.449,39.412 418.603,40.958 420.406,42.375 420.02,51.007 419.505,61.057 418.346,78.45 "
   id="polygon375" />

	<polygon
   style="fill:#8c6144"
   points="413.319,48.302 418.475,50.362 419.979,51.814 420.02,51.007 420.406,42.375 418.603,40.958 413.449,39.412 406.492,38.381 392.448,37.221 386.006,37.479 381.884,38.639 381.884,42.375 381.333,49.363 386.908,46.111 396.7,45.08 405.204,45.339 "
   id="polygon376" />

	<polygon
   style="fill:#dbb57d"
   points="383.235,45.467 383.235,44.372 382.657,44.308 383.173,42.439 384.847,41.279 385.813,41.666 386.265,43.921 385.489,44.372 385.489,44.823 386.006,44.952 385.749,53.455 386.844,53.326 387.166,44.759 387.938,44.629 388.003,43.921 387.358,43.728 387.747,41.666 388.905,40.894 390.259,41.086 390.709,42.697 390.259,43.213 390.259,43.663 390.709,43.728 390.451,53.133 391.417,53.068 391.675,43.599 392.384,43.599 392.384,42.504 391.868,42.439 392.576,40.378 394.059,39.798 395.541,40.12 396.378,41.086 396.442,42.568 395.604,42.697 395.604,43.342 396.121,43.599 396.121,53.262 397.086,53.197 397.28,43.792 397.989,43.792 397.858,42.955 397.28,42.697 397.73,40.765 399.405,39.798 400.822,39.991 402.176,41.216 402.369,43.147 401.726,43.147 401.66,43.921 402.176,44.049 401.982,53.326 403.207,53.392 403.722,44.501 404.366,44.372 404.559,43.147 403.978,42.955 404.945,40.958 406.556,40.507 408.038,40.635 409.392,41.795 409.584,44.049 409.005,43.921 408.939,45.016 409.262,45.145 408.81,54.229 409.648,54.356 410.228,45.273 410.872,45.339 411.065,44.308 410.486,43.984 411.452,42.053 413.256,41.795 414.996,42.568 415.897,43.792 416.22,45.273 414.931,45.339 414.867,46.176 415.832,46.498 415.188,55.581 416.155,55.774 416.864,46.82 417.766,46.82 417.7,45.854 417.185,45.339 417.959,44.372 419.183,44.308 419.635,46.111 418.99,46.111 418.99,46.885 419.697,47.142 419.054,56.483 419.728,56.676 420.02,51.007 420.406,42.375 418.603,40.958 413.449,39.412 406.492,38.381 392.448,37.221 386.006,37.479 381.884,38.639 381.884,42.375 380.975,53.906 381.723,53.906 382.237,45.499 "
   id="polygon377" />

	<polygon
   style="fill:#8c6144"
   points="388.884,63.247 396.957,63.591 404.517,64.622 410.528,66.082 414.651,68.314 418.752,72.356 419.505,61.059 408.897,57.063 395.669,55.603 386.908,55.688 381.668,56.29 380.75,56.762 380.595,58.738 380.149,65.929 383.645,64.363 "
   id="polygon378" />

	<polygon
   style="fill:#dbb57d"
   points="381.143,63.988 382.142,63.955 382.142,62.861 381.561,62.797 382.076,60.929 383.752,59.769 384.718,60.154 385.169,62.409 384.395,62.861 384.395,63.313 384.91,63.44 384.654,71.943 385.749,71.814 386.07,63.247 386.844,63.118 386.908,62.409 386.265,62.217 386.65,60.154 387.81,59.383 389.162,59.575 389.613,61.186 389.162,61.701 389.162,62.152 389.613,62.217 389.355,71.622 390.323,71.558 390.579,62.088 391.289,62.088 391.289,60.992 390.773,60.929 391.481,58.867 392.963,58.287 394.445,58.608 395.283,59.575 395.347,61.057 394.51,61.186 394.51,61.83 395.025,62.088 395.025,71.751 395.991,71.687 396.185,62.281 396.893,62.281 396.765,61.443 396.185,61.186 396.637,59.253 398.31,58.287 399.728,58.48 401.08,59.704 401.274,61.637 400.63,61.637 400.565,62.409 401.08,62.538 400.888,71.814 402.112,71.879 402.628,62.989 403.27,62.861 403.464,61.637 402.885,61.443 403.85,59.446 405.461,58.995 406.942,59.124 408.295,60.284 408.489,62.538 407.909,62.409 407.844,63.505 408.167,63.634 407.717,72.718 408.554,72.846 409.133,63.763 409.777,63.827 409.971,62.797 409.392,62.474 410.357,60.541 412.161,60.284 413.9,61.057 414.802,62.281 415.124,63.763 413.835,63.827 413.771,64.664 414.737,64.986 414.095,74.069 415.06,74.263 415.769,65.31 416.671,65.31 416.607,64.342 416.091,63.827 416.864,62.861 418.089,62.797 418.538,64.601 417.895,64.601 417.895,65.373 418.603,65.631 417.959,74.972 418.565,75.145 419.505,61.057 419.592,59.356 414.029,56.547 399.02,54.293 383.173,54.1 380.853,55.454 380.595,58.738 379.748,72.395 380.627,72.395 "
   id="polygon379" />

	<polygon
   style="fill:#8c6144"
   points="399.277,81.542 406.492,82.917 412.418,84.807 415.081,86.61 417.547,88.894 418.316,78.83 407.78,74.844 395.326,73.727 384.418,74.156 379.546,75.632 379.435,77.42 378.894,84.647 383.043,82.658 390.945,81.629 "
   id="polygon380" />

	<polygon
   style="fill:#dbb57d"
   points="380.98,80.77 380.401,80.705 380.917,78.838 382.591,77.678 383.559,78.063 384.01,80.318 383.235,80.77 383.235,81.221 383.752,81.349 383.493,89.853 384.588,89.725 384.91,81.156 385.684,81.027 385.749,80.318 385.103,80.126 385.489,78.063 386.65,77.291 388.003,77.484 388.454,79.095 388.003,79.61 388.003,80.061 388.454,80.126 388.196,89.531 389.162,89.467 389.42,79.997 390.13,79.997 390.13,78.901 389.613,78.838 390.323,76.776 391.805,76.196 393.286,76.518 394.124,77.484 394.188,78.966 393.35,79.095 393.35,79.739 393.864,79.997 393.864,89.66 394.831,89.596 395.025,80.19 395.734,80.19 395.604,79.352 395.025,79.095 395.476,77.162 397.151,76.196 398.567,76.389 399.921,77.613 400.115,79.546 399.47,79.546 399.405,80.318 399.921,80.447 399.728,89.725 400.951,89.788 401.466,80.898 402.112,80.77 402.304,79.546 401.726,79.352 402.691,77.354 404.302,76.904 405.783,77.033 407.136,78.193 407.328,80.447 406.749,80.318 406.685,81.414 407.008,81.542 406.556,90.626 407.394,90.754 407.973,81.672 408.618,81.736 408.81,80.705 408.231,80.383 409.198,78.45 411.002,78.193 412.74,78.966 413.643,80.19 413.964,81.672 412.677,81.736 412.613,82.573 413.578,82.896 412.934,91.979 413.9,92.173 414.61,83.219 415.512,83.219 415.445,82.251 414.931,81.736 415.704,80.77 416.928,80.705 417.379,82.509 416.734,82.509 416.734,83.282 417.443,83.54 416.799,92.881 417.233,93.004 418.346,78.45 418.425,77.262 412.869,74.456 397.858,72.202 382.012,72.009 379.686,73.367 379.435,77.42 378.471,90.304 379.468,90.304 379.982,81.897 380.98,81.864 "
   id="polygon381" />

	<polygon
   style="fill:#8c6144"
   points="416.34,105.773 416.799,98.678 416.989,96.194 403.915,91.936 390.43,90.646 381.583,91.249 378.316,92.367 378.018,96.359 377.568,101.361 385.534,99.322 396.185,100.353 407.008,100.955 412.677,102.93 "
   id="polygon382" />

	<polygon
   style="fill:#dbb57d"
   points="379.242,98.1 379.759,96.23 381.432,95.071 382.398,95.457 382.85,97.712 382.076,98.163 382.076,98.614 382.591,98.742 382.335,107.246 383.429,107.118 383.752,98.55 384.524,98.421 384.588,97.712 383.944,97.52 384.332,95.457 385.489,94.685 386.844,94.878 387.295,96.488 386.844,97.004 386.844,97.454 387.295,97.52 387.037,106.925 388.003,106.86 388.262,97.391 388.969,97.391 388.969,96.295 388.454,96.23 389.162,94.169 390.645,93.59 392.127,93.911 392.963,94.878 393.028,96.359 392.19,96.488 392.19,97.133 392.706,97.391 392.706,107.053 393.672,106.989 393.864,97.584 394.574,97.584 394.445,96.746 393.864,96.488 394.315,94.556 395.991,93.59 397.408,93.782 398.762,95.007 398.954,96.939 398.31,96.939 398.246,97.712 398.762,97.841 398.567,107.118 399.792,107.183 400.307,98.292 400.951,98.163 401.145,96.939 400.565,96.746 401.532,94.748 403.142,94.298 404.625,94.427 405.977,95.587 406.17,97.841 405.59,97.712 405.526,98.808 405.847,98.937 405.396,108.02 406.234,108.147 406.813,99.065 407.457,99.13 407.651,98.1 407.071,97.776 408.038,95.844 409.841,95.587 411.581,96.359 412.483,97.584 412.806,99.065 411.518,99.13 411.452,99.967 412.418,100.289 411.774,109.372 412.74,109.566 413.449,100.61 414.352,100.61 414.287,99.646 413.771,99.13 414.545,98.163 415.769,98.1 416.22,99.903 415.575,99.903 415.575,100.675 416.283,100.934 415.64,110.274 416.042,110.389 416.799,98.678 417.112,94.578 411.71,91.85 396.7,89.596 380.852,89.402 378.433,90.817 378.018,96.359 376.999,107.697 378.308,107.697 378.823,99.291 379.821,99.259 379.821,98.163 "
   id="polygon383" />

	<polygon
   style="fill:#8c6144"
   points="406.663,119.079 411.818,120.882 415.175,123.788 415.815,113.893 406.147,110.145 391.633,107.741 383.473,108.514 377.03,109.887 376.791,110.013 375.99,118.932 380.208,117.188 387.853,116.76 399.02,117.36 "
   id="polygon384" />

	<polygon
   style="fill:#dbb57d"
   points="378.211,113.237 379.887,112.079 380.852,112.465 381.304,114.72 380.53,115.17 380.53,115.622 381.046,115.75 380.788,124.254 381.884,124.124 382.205,115.558 382.977,115.429 383.043,114.72 382.398,114.526 382.785,112.465 383.944,111.691 385.298,111.885 385.749,113.496 385.298,114.011 385.298,114.462 385.749,114.526 385.489,123.932 386.457,123.867 386.715,114.397 387.424,114.397 387.424,113.302 386.908,113.237 387.616,111.177 389.098,110.596 390.579,110.919 391.417,111.885 391.481,113.366 390.645,113.496 390.645,114.139 391.16,114.397 391.16,124.061 392.127,123.997 392.319,114.59 393.028,114.59 392.899,113.753 392.319,113.496 392.77,111.563 394.445,110.596 395.862,110.79 397.215,112.015 397.408,113.946 396.765,113.946 396.7,114.72 397.215,114.848 397.022,124.124 398.246,124.189 398.762,115.3 399.405,115.17 399.599,113.946 399.02,113.753 399.985,111.756 401.596,111.306 403.077,111.434 404.431,112.593 404.625,114.848 404.043,114.72 403.978,115.814 404.302,115.943 403.85,125.026 404.688,125.155 405.268,116.072 405.912,116.136 406.106,115.105 405.526,114.784 406.492,112.852 408.295,112.593 410.035,113.366 410.936,114.59 411.259,116.072 409.971,116.136 409.906,116.975 410.872,117.297 410.228,126.38 411.194,126.572 411.903,117.619 412.806,117.619 412.74,116.651 412.225,116.136 412.999,115.17 414.222,115.105 414.674,116.91 414.029,116.91 414.029,117.683 414.737,117.94 414.095,127.281 414.901,127.513 415.124,124.575 415.952,111.78 410.164,108.857 395.153,106.602 379.307,106.409 376.992,107.761 375.471,124.705 376.762,124.705 377.277,116.298 378.276,116.266 378.276,115.17 377.695,115.105 "
   id="polygon385" />

	<path
   style="fill:#8c6144"
   d="m 414.638,130.974 -7.63,-3.22 -10.395,-1.804 -8.072,-0.773 -7.903,0.688 -5.458,2.086 -0.792,8.823 5.219,-2.063 c 0,0 7.732,-0.515 7.988,-0.602 0.259,-0.086 9.878,0.258 9.878,0.258 l 7.903,2.147 5.841,1.461 2.753,1.802 z"
   id="path385" />

	<polygon
   style="fill:#dbb57d"
   points="376.859,132.821 376.279,132.757 376.794,130.89 378.469,129.73 379.435,130.115 379.887,132.371 379.112,132.821 379.112,133.273 379.629,133.401 379.386,141.369 380.477,141.482 380.788,133.208 381.561,133.079 381.625,132.371 380.98,132.178 381.368,130.115 382.527,129.343 383.88,129.537 384.332,131.146 383.88,131.662 383.88,132.113 384.332,132.178 384.072,141.583 385.04,141.519 385.298,132.048 386.006,132.048 386.006,130.953 385.489,130.89 386.199,128.827 387.681,128.248 389.162,128.569 390.001,129.537 390.063,131.018 389.227,131.146 389.227,131.791 389.743,132.048 389.743,141.712 390.709,141.648 390.901,132.241 391.61,132.241 391.481,131.405 390.901,131.146 391.352,129.214 393.028,128.248 394.445,128.441 395.798,129.665 395.991,131.598 395.347,131.598 395.283,132.371 395.798,132.499 395.604,141.776 396.828,141.841 397.344,132.95 397.989,132.821 398.182,131.598 397.602,131.405 398.567,129.408 400.179,128.956 401.66,129.085 403.014,130.245 403.207,132.499 402.628,132.371 402.563,133.466 402.885,133.595 402.434,142.678 403.27,142.807 403.85,133.724 404.495,133.788 404.688,132.757 404.109,132.436 405.074,130.502 406.879,130.245 408.618,131.018 409.52,132.241 409.841,133.724 408.554,133.788 408.489,134.625 409.455,134.947 408.81,144.03 409.777,144.225 410.486,135.27 411.388,135.27 411.322,134.304 410.808,133.788 411.581,132.821 412.806,132.757 413.256,134.561 412.613,134.561 412.613,135.334 413.319,135.592 412.683,144.84 413.578,144.932 414.747,129.54 408.746,126.508 393.737,124.254 377.89,124.061 375.396,125.517 374.024,140.811 375.431,140.956 375.86,133.949 376.859,133.917 "
   id="polygon386" />

	<polygon
   style="fill:#efcd97"
   points="418.408,40.463 414.931,39.239 408.746,38.209 398.89,37.242 391.739,36.599 387.294,36.921 383.621,37.564 381.431,38.337 381.495,40.271 383.686,39.497 390.193,38.853 396.956,39.239 404.881,39.883 412.031,40.463 416.734,41.623 419.246,42.976 420.6,43.685 420.728,41.945 "
   id="polygon387" />

	<polygon
   style="fill:#c49a62"
   points="396.956,39.239 404.881,39.883 412.031,40.463 416.734,41.623 419.246,42.976 420.6,43.685 420.642,43.114 418.668,41.816 416.799,40.85 412.74,39.755 405.074,38.853 395.475,37.822 385.813,38.016 381.465,39.319 381.495,40.271 383.686,39.497 390.193,38.853 "
   id="polygon388" />

	<polygon
   style="fill:#efcd97"
   points="420.02,58.051 417.7,56.891 413.127,55.603 403.528,54.057 395.282,53.734 386.844,53.605 380.465,54.894 380.337,53.798 383.043,53.025 388.262,52.445 394.895,52.252 402.111,52.768 407.328,53.283 413.514,54.507 416.283,55.022 420.213,56.633 420.085,57.406 "
   id="polygon389" />

	<polygon
   style="fill:#c49a62"
   points="403.528,54.057 413.127,55.603 417.7,56.891 420.02,58.051 420.085,57.406 420.104,57.277 419.504,56.826 416.734,56.053 411.58,54.829 404.944,53.862 397.086,53.197 387.745,53.283 380.391,54.255 380.465,54.894 386.844,53.605 395.282,53.734 "
   id="polygon390" />

	<polygon
   style="fill:#efcd97"
   points="410.034,74.349 399.534,72.61 389.42,72.352 383.172,72.867 379.112,73.576 378.919,71.386 382.913,70.676 390.709,70.29 398.246,70.483 405.011,70.935 410.486,71.9 415.64,73.188 418.99,74.929 418.796,76.731 415.382,75.638 "
   id="polygon391" />

	<polygon
   style="fill:#c49a62"
   points="410.034,74.349 415.382,75.638 418.796,76.731 418.89,75.86 415.382,74.22 411.645,73.188 404.495,72.287 397.215,71.644 387.294,71.771 379.044,72.795 379.112,73.576 383.172,72.867 389.42,72.352 399.534,72.61 "
   id="polygon392" />

	<polygon
   style="fill:#efcd97"
   points="399.405,90.52 389.807,90.067 382.656,90.261 377.824,91.549 378.018,89.617 381.495,88.328 389.42,88.07 396.956,88.264 403.528,89.036 409.391,90.004 412.869,90.711 417.7,92.387 417.442,94.255 410.615,92.064 "
   id="polygon393" />

	<polygon
   style="fill:#c49a62"
   points="399.405,90.52 410.615,92.064 417.442,94.255 417.595,93.152 416.091,92.451 411.645,91.162 403.914,89.81 398.438,89.165 391.609,89.165 384.782,89.295 377.938,90.406 377.824,91.549 382.656,90.261 389.807,90.067 "
   id="polygon394" />

	<polygon
   style="fill:#efcd97"
   points="405.46,108.491 395.798,107.46 387.423,107.332 380.144,108.041 376.407,109.007 376.471,106.752 379.95,105.722 387.615,105.464 396.055,105.722 401.145,105.979 407.587,106.688 412.805,108.299 416.412,110.103 416.283,112.293 412.353,110.488 "
   id="polygon395" />

	<polygon
   style="fill:#c49a62"
   points="405.46,108.491 412.353,110.488 416.283,112.293 416.351,111.153 411.451,108.942 407.265,107.525 400.243,106.688 390.709,106.495 381.689,106.688 376.438,107.881 376.407,109.007 380.144,108.041 387.423,107.332 395.798,107.46 "
   id="polygon396" />

	<polygon
   style="fill:#efcd97"
   points="385.876,124.21 377.051,125.112 374.861,126.014 374.732,124.34 378.018,123.115 387.036,122.407 395.411,122.6 403.657,123.953 409.713,125.369 415.188,127.303 415.06,129.106 408.295,126.916 396.055,124.726 "
   id="polygon397" />

	<polygon
   style="fill:#c49a62"
   points="408.295,126.916 415.06,129.106 415.123,128.219 409.583,126.272 403.142,124.855 395.733,123.566 388.003,123.244 380.015,124.082 374.792,125.126 374.861,126.014 377.051,125.112 385.876,124.21 396.055,124.726 "
   id="polygon398" />

	<polygon
   style="fill:#efcd97"
   points="414.673,145.533 412.933,166.792 369.965,166.664 370.867,154.553 372.734,140.767 379.758,141.861 402.304,144.052 "
   id="polygon399" />

	<path
   style="fill:#dbb57d"
   d="m 411.858,166.789 1.074,0.003 1.74,-21.259 -12.369,-1.481 -22.546,-2.191 -7.023,-1.095 -1.867,13.786 -0.902,12.111 1.808,0.006 0.513,-6.255 0.707,-7.666 0.387,-3.994 0.838,-2.77 1.417,-1.676 2.061,-0.387 1.74,0.645 1.546,1.868 0.322,2.642 -0.838,8.245 -0.321,6.12 -0.165,3.252 1.998,0.006 0.551,-10.344 0.386,-6.764 1.675,-3.737 2.126,-0.966 1.611,0.386 1.224,1.547 -0.129,3.672 -0.561,16.227 2.316,0.007 0.5,-14.495 c 0,0 0.708,-3.478 0.708,-3.671 0,-0.193 1.675,-2.706 1.675,-2.706 l 1.805,-0.773 2.319,0.708 0.837,1.354 0.321,2.834 -0.192,12.239 -0.559,4.532 2.066,0.006 0.425,-11.172 0.451,-6.12 0.772,-2.319 1.546,-1.096 1.354,0.129 1.288,1.354 0.58,1.675 v 6.893 l -0.482,10.675 2.1,0.006 0.25,-11.775 0.516,-5.283 0.902,-2.512 1.997,-0.129 1.031,1.481 -0.709,7.731 z"
   id="path399" />

	<polygon
   style="fill:#aa7752"
   points="380.98,146.436 381.222,148.402 381.495,147.209 380.98,145.212 380.401,143.536 378.532,142.57 376.149,142.764 374.346,144.117 373.25,147.531 373.388,148.723 374.217,145.985 375.634,144.31 377.694,143.923 379.435,144.567 "
   id="polygon400" />

	<polygon
   style="fill:#aa7752"
   points="389.871,145.599 388.711,143.923 386.844,143.343 384.717,144.31 383.365,146.5 382.85,148.561 382.934,149.548 384.588,145.855 386.714,144.89 388.325,145.275 389.549,146.822 389.487,148.543 "
   id="polygon401" />

	<path
   style="fill:#aa7752"
   d="m 396.764,144.245 -2.125,0.064 -1.677,1.61 -0.965,2.835 -0.047,2.112 c 0.199,-0.997 0.433,-2.194 0.433,-2.306 0,-0.193 1.675,-2.706 1.675,-2.706 l 1.805,-0.773 2.319,0.708 0.837,1.354 0.153,1.35 0.105,-1.801 -0.58,-1.418 z"
   id="path401" />

	<polygon
   style="fill:#aa7752"
   points="406.988,148.969 407.2,147.209 406.428,145.727 404.752,144.89 403.076,144.954 401.788,146.308 401.338,148.818 401.448,150.586 401.531,149.464 402.304,147.145 403.85,146.049 405.203,146.178 406.491,147.531 "
   id="polygon402" />

	<polygon
   style="fill:#aa7752"
   points="413.195,150.622 413.77,147.981 412.998,146.308 411.322,145.92 409.84,146.693 409.261,149.27 409.341,150.878 409.454,149.721 410.356,147.209 412.353,147.08 413.385,148.561 "
   id="polygon403" />

	<polygon
   style="fill:#c49a62"
   points="373.895,148.818 371.318,148.305 371.575,145.985 374.538,146.5 "
   id="polygon404" />

	<polygon
   style="fill:#c49a62"
   points="383.172,149.979 380.787,149.206 380.465,147.016 384.072,147.852 "
   id="polygon405" />

	<polygon
   style="fill:#c49a62"
   points="392.383,149.785 392.962,147.917 389.097,147.467 389.162,149.721 "
   id="polygon406" />

	<polygon
   style="fill:#c49a62"
   points="401.725,149.979 402.304,148.111 398.825,147.788 398.953,150.043 "
   id="polygon407" />

	<polygon
   style="fill:#c49a62"
   points="409.713,150.494 410.034,148.691 406.556,148.497 406.749,150.365 "
   id="polygon408" />

	<polygon
   style="fill:#c49a62"
   points="414.609,150.815 414.737,148.948 412.998,148.948 412.869,150.752 "
   id="polygon409" />

	<polygon
   style="fill:#efcd97"
   points="414.737,148.948 412.998,148.948 412.95,149.612 414.675,149.859 "
   id="polygon410" />

	<polygon
   style="fill:#efcd97"
   points="410.034,148.691 406.556,148.497 406.645,149.375 409.877,149.574 "
   id="polygon411" />

	<polygon
   style="fill:#efcd97"
   points="402.304,148.111 398.825,147.788 398.882,148.784 402.019,149.03 "
   id="polygon412" />

	<polygon
   style="fill:#efcd97"
   points="392.962,147.917 389.097,147.467 389.127,148.489 392.682,148.82 "
   id="polygon413" />

	<polygon
   style="fill:#efcd97"
   points="384.072,147.852 380.465,147.016 380.629,148.131 383.724,148.678 "
   id="polygon414" />

	<polygon
   style="fill:#efcd97"
   points="374.538,146.5 371.575,145.985 371.489,146.771 374.297,147.373 "
   id="polygon415" />

	<polygon
   style="fill:#dbb57d"
   points="379.692,147.273 379.629,147.852 377.566,150.236 377.115,150.172 375.117,147.788 375.184,147.016 377.761,144.824 378.21,144.954 "
   id="polygon416" />

	<polygon
   style="fill:#dbb57d"
   points="388.453,148.497 388.453,148.948 386.328,150.815 385.876,150.752 384.138,149.013 384.202,148.497 386.457,145.92 387.101,145.92 "
   id="polygon417" />

	<polygon
   style="fill:#dbb57d"
   points="397.858,148.691 397.858,149.206 396.248,151.847 395.669,151.782 393.349,149.206 393.414,148.691 395.669,146.178 396.055,146.178 "
   id="polygon418" />

	<polygon
   style="fill:#dbb57d"
   points="406.169,149.142 406.105,149.593 404.495,152.105 404.043,152.04 402.304,149.334 402.304,148.818 404.301,146.822 404.752,146.887 "
   id="polygon419" />

	<polygon
   style="fill:#dbb57d"
   points="411.451,147.724 411.838,147.788 412.676,149.657 411.518,152.362 410.164,149.785 "
   id="polygon420" />

	<polygon
   style="fill:#aa7752"
   points="377.373,149.27 378.855,147.467 377.824,145.727 375.955,147.401 "
   id="polygon421" />

	<polygon
   style="fill:#aa7752"
   points="386.006,149.85 387.423,148.626 386.65,146.951 385.169,148.691 "
   id="polygon422" />

	<polygon
   style="fill:#aa7752"
   points="395.862,150.689 396.956,148.948 395.733,147.401 394.252,148.948 "
   id="polygon423" />

	<polygon
   style="fill:#aa7752"
   points="404.237,150.945 405.332,149.334 404.495,147.852 403.206,149.206 "
   id="polygon424" />

	<polygon
   style="fill:#aa7752"
   points="411.518,150.815 411.967,149.721 411.645,148.691 411.065,149.593 "
   id="polygon425" />

	<polygon
   style="fill:#dbb57d"
   points="379.112,153.2 377.438,152.427 375.505,152.813 374.152,154.488 373.83,159.448 373.274,166.674 379.077,166.69 379.821,155.584 "
   id="polygon426" />

	<polygon
   style="fill:#c49a62"
   points="375.184,158.74 375.569,155.584 377.631,154.359 378.919,155.325 378.919,158.869 "
   id="polygon427" />

	<polygon
   style="fill:#aa7752"
   points="373.443,158.611 376.728,158.354 379.95,158.611 379.821,159.384 373.507,159.319 "
   id="polygon428" />

	<polygon
   style="fill:#c49a62"
   points="402.69,144.31 392.512,143.408 385.489,142.699 378.532,141.926 372.928,141.991 372.219,141.797 372.285,140.122 375.764,140.122 384.974,140.96 393.092,141.346 397.666,141.605 404.43,142.506 410.486,143.15 414.802,144.245 414.995,145.985 412.869,145.727 "
   id="polygon429" />

	<polygon
   style="fill:#efcd97"
   points="384.974,140.96 375.764,140.122 372.285,140.122 372.244,141.148 378.662,141.024 390.193,142.119 402.433,143.021 410.356,144.181 414.909,145.219 414.802,144.245 410.486,143.15 404.43,142.506 397.666,141.605 393.092,141.346 "
   id="polygon430" />

</g>
  </g>
</svg>
