<?xml version="1.0" encoding="UTF-8" standalone="no"?>
<!-- Created with Inkscape (http://www.inkscape.org/) -->

<svg
   width="23.973368mm"
   height="57.55349mm"
   viewBox="0 0 23.97337 57.553491"
   version="1.1"
   id="svg1"
   inkscape:version="1.4.2 (f4327f4, 2025-05-13)"
   sodipodi:docname="Typical Residential Building 10 Floors-30.svg"
   xmlns:inkscape="http://www.inkscape.org/namespaces/inkscape"
   xmlns:sodipodi="http://sodipodi.sourceforge.net/DTD/sodipodi-0.dtd"
   xmlns="http://www.w3.org/2000/svg"
   xmlns:svg="http://www.w3.org/2000/svg">
  <sodipodi:namedview
     id="namedview1"
     pagecolor="#ffffff"
     bordercolor="#000000"
     borderopacity="0.25"
     inkscape:showpageshadow="2"
     inkscape:pageopacity="0.0"
     inkscape:pagecheckerboard="0"
     inkscape:deskcolor="#d1d1d1"
     inkscape:document-units="mm"
     inkscape:zoom="4.9103816"
     inkscape:cx="-18.124864"
     inkscape:cy="92.864473"
     inkscape:window-width="2880"
     inkscape:window-height="1676"
     inkscape:window-x="-12"
     inkscape:window-y="-12"
     inkscape:window-maximized="1"
     inkscape:current-layer="g30" />
  <defs
     id="defs1" />
  <g
     inkscape:label="图层 1"
     inkscape:groupmode="layer"
     id="layer1"
     transform="translate(-202.07139,-183.71805)">
    <g
       id="g30"
       transform="matrix(0.26458333,0,0,0.26458333,149.64621,130.62585)">
		
		
		
		
		
		
		
			
		
		
		
	<g
   id="g973"
   transform="translate(179.91941,-16.954542)">
	<g
   id="g972">
		<polygon
   style="fill:#eadcf5"
   points="18.223,235.549 18.223,266.684 25.046,276.686 25.046,435.143 102.009,435.143 102.009,276.686 108.831,266.684 108.831,235.549 "
   id="polygon823" />

		<rect
   x="25.046"
   y="425.82101"
   style="fill:#c5b9cf"
   width="76.962997"
   height="9.3210001"
   id="rect823" />

		<rect
   x="38.557999"
   y="420.09799"
   style="fill:#c5b9cf"
   width="8.6400003"
   height="15.045"
   id="rect824" />

		<rect
   x="79.857002"
   y="420.09799"
   style="fill:#c5b9cf"
   width="8.6389999"
   height="15.045"
   id="rect825" />

		<rect
   x="26.700001"
   y="230.33299"
   style="fill:#c5b9cf"
   width="73.654999"
   height="5.2160001"
   id="rect826" />

		<rect
   x="38.110001"
   y="223.67999"
   style="fill:#eadcf5"
   width="50.834"
   height="6.6529999"
   id="rect827" />

		<rect
   x="61.257"
   y="235.549"
   style="fill:#c5b9cf"
   width="4.5409999"
   height="199.59399"
   id="rect828" />

		<polygon
   style="fill:#c5b9cf"
   points="25.046,276.686 18.223,266.684 108.831,266.684 102.009,276.686 "
   id="polygon828" />

		<rect
   x="28.656"
   y="282.82101"
   style="fill:#b8adc2"
   width="29.341"
   height="10.759"
   id="rect829" />

		<rect
   x="69.057999"
   y="282.82101"
   style="fill:#b8adc2"
   width="29.341"
   height="10.759"
   id="rect830" />

		<rect
   x="29.471001"
   y="283.474"
   style="fill:#ffffff"
   width="27.711"
   height="9.4540005"
   id="rect831" />

		<rect
   x="69.873001"
   y="283.474"
   style="fill:#ffffff"
   width="27.711"
   height="9.4540005"
   id="rect832" />

		<rect
   x="30.122999"
   y="283.96201"
   style="fill:#b0f0ff"
   width="26.407"
   height="8.4770002"
   id="rect833" />

		<rect
   x="70.525002"
   y="283.96201"
   style="fill:#b0f0ff"
   width="26.407"
   height="8.4770002"
   id="rect834" />

		<g
   id="g836">
			<rect
   x="37.845001"
   y="283.71799"
   style="fill:#ffffff"
   width="0.56999999"
   height="8.9250002"
   id="rect835" />

			<rect
   x="48.237"
   y="283.71799"
   style="fill:#ffffff"
   width="0.56999999"
   height="8.9250002"
   id="rect836" />

		</g>

		<g
   id="g838">
			<rect
   x="78.247002"
   y="283.71799"
   style="fill:#ffffff"
   width="0.56999999"
   height="8.9250002"
   id="rect837" />

			<rect
   x="88.639"
   y="283.71799"
   style="fill:#ffffff"
   width="0.57099998"
   height="8.9250002"
   id="rect838" />

		</g>

		<rect
   x="24.865999"
   y="253.60201"
   style="fill:#b8adc2"
   width="29.341"
   height="7.0910001"
   id="rect839" />

		<rect
   x="72.848"
   y="253.60201"
   style="fill:#b8adc2"
   width="29.341"
   height="7.0910001"
   id="rect840" />

		<rect
   x="26.027"
   y="254.58"
   style="fill:#ffffff"
   width="27.833"
   height="5.9299998"
   id="rect841" />

		<rect
   x="73.194"
   y="254.58"
   style="fill:#ffffff"
   width="27.833"
   height="5.9299998"
   id="rect842" />

		<rect
   x="18.223"
   y="235.549"
   style="fill:#ffffff"
   width="43.034"
   height="12.471"
   id="rect843" />

		<rect
   x="65.796997"
   y="235.549"
   style="fill:#ffffff"
   width="43.034"
   height="12.471"
   id="rect844" />

		<rect
   x="18.223"
   y="235.549"
   style="fill:#b0f0ff"
   width="42.056"
   height="11.329"
   id="rect845" />

		<rect
   x="66.775002"
   y="235.549"
   style="fill:#b0f0ff"
   width="42.056"
   height="11.329"
   id="rect846" />

		<rect
   x="28.666"
   y="235.549"
   style="fill:#ffffff"
   width="0.56999999"
   height="11.614"
   id="rect847" />

		<rect
   x="97.818001"
   y="235.549"
   style="fill:#ffffff"
   width="0.56999999"
   height="11.614"
   id="rect848" />

		<rect
   x="39.108002"
   y="235.549"
   style="fill:#ffffff"
   width="0.57099998"
   height="11.614"
   id="rect849" />

		<rect
   x="87.375999"
   y="235.549"
   style="fill:#ffffff"
   width="0.56999999"
   height="11.614"
   id="rect850" />

		<rect
   x="49.550999"
   y="235.549"
   style="fill:#ffffff"
   width="0.56999999"
   height="11.614"
   id="rect851" />

		<rect
   x="76.932999"
   y="235.549"
   style="fill:#ffffff"
   width="0.56999999"
   height="11.614"
   id="rect852" />

		<rect
   x="26.669001"
   y="255.131"
   style="fill:#b0f0ff"
   width="26.549999"
   height="4.8280001"
   id="rect853" />

		<rect
   x="73.835999"
   y="255.131"
   style="fill:#b0f0ff"
   width="26.549999"
   height="4.8280001"
   id="rect854" />

		<rect
   x="43.326"
   y="217.618"
   style="fill:#c5b9cf"
   width="4.9109998"
   height="6.0619998"
   id="rect855" />

		<rect
   x="78.817001"
   y="217.618"
   style="fill:#c5b9cf"
   width="4.9109998"
   height="6.0619998"
   id="rect856" />

		<polygon
   style="opacity:0.4;fill:#ffffff"
   points="28.187,236.1 28.187,246.186 24.947,236.1 "
   id="polygon856" />

		<polygon
   style="opacity:0.4;fill:#ffffff"
   points="76.434,236.1 76.434,246.186 73.194,236.1 "
   id="polygon857" />

		<polygon
   style="opacity:0.4;fill:#ffffff"
   points="38.67,236.1 38.67,246.186 35.431,236.1 "
   id="polygon858" />

		<polygon
   style="opacity:0.4;fill:#ffffff"
   points="86.917,236.1 86.917,246.186 83.677,236.1 "
   id="polygon859" />

		<polygon
   style="opacity:0.4;fill:#ffffff"
   points="52.821,255.467 52.821,259.756 49.582,255.467 "
   id="polygon860" />

		<polygon
   style="opacity:0.4;fill:#ffffff"
   points="99.988,255.467 99.988,259.756 96.748,255.467 "
   id="polygon861" />

		<polygon
   style="opacity:0.4;fill:#ffffff"
   points="56.153,284.329 56.153,292.112 52.913,284.329 "
   id="polygon862" />

		<polygon
   style="opacity:0.4;fill:#ffffff"
   points="96.555,284.329 96.555,292.112 93.315,284.329 "
   id="polygon863" />

		<polygon
   style="opacity:0.4;fill:#ffffff"
   points="47.88,284.329 47.88,292.112 44.641,284.329 "
   id="polygon864" />

		<polygon
   style="opacity:0.4;fill:#ffffff"
   points="88.282,284.329 88.282,292.112 85.043,284.329 "
   id="polygon865" />

		<polygon
   style="opacity:0.4;fill:#ffffff"
   points="37.448,284.329 37.448,292.112 34.208,284.329 "
   id="polygon866" />

		<polygon
   style="opacity:0.4;fill:#ffffff"
   points="77.85,284.329 77.85,292.112 74.61,284.329 "
   id="polygon867" />

		<rect
   x="28.656"
   y="299.936"
   style="fill:#b8adc2"
   width="29.341"
   height="10.759"
   id="rect867" />

		<rect
   x="69.057999"
   y="299.936"
   style="fill:#b8adc2"
   width="29.341"
   height="10.759"
   id="rect868" />

		<rect
   x="29.471001"
   y="300.58899"
   style="fill:#ffffff"
   width="27.711"
   height="9.4540005"
   id="rect869" />

		<rect
   x="69.873001"
   y="300.58899"
   style="fill:#ffffff"
   width="27.711"
   height="9.4540005"
   id="rect870" />

		<rect
   x="30.122999"
   y="301.078"
   style="fill:#b0f0ff"
   width="26.407"
   height="8.4770002"
   id="rect871" />

		<rect
   x="70.525002"
   y="301.078"
   style="fill:#b0f0ff"
   width="26.407"
   height="8.4770002"
   id="rect872" />

		<g
   id="g874">
			<rect
   x="37.845001"
   y="300.83401"
   style="fill:#ffffff"
   width="0.56999999"
   height="8.9239998"
   id="rect873" />

			<rect
   x="48.237"
   y="300.83401"
   style="fill:#ffffff"
   width="0.56999999"
   height="8.9239998"
   id="rect874" />

		</g>

		<g
   id="g876">
			<rect
   x="78.247002"
   y="300.83401"
   style="fill:#ffffff"
   width="0.56999999"
   height="8.9239998"
   id="rect875" />

			<rect
   x="88.639"
   y="300.83401"
   style="fill:#ffffff"
   width="0.57099998"
   height="8.9239998"
   id="rect876" />

		</g>

		<polygon
   style="opacity:0.4;fill:#ffffff"
   points="56.153,301.444 56.153,309.228 52.913,301.444 "
   id="polygon876" />

		<polygon
   style="opacity:0.4;fill:#ffffff"
   points="96.555,301.444 96.555,309.228 93.315,301.444 "
   id="polygon877" />

		<polygon
   style="opacity:0.4;fill:#ffffff"
   points="47.88,301.444 47.88,309.228 44.641,301.444 "
   id="polygon878" />

		<polygon
   style="opacity:0.4;fill:#ffffff"
   points="88.282,301.444 88.282,309.228 85.043,301.444 "
   id="polygon879" />

		<polygon
   style="opacity:0.4;fill:#ffffff"
   points="37.448,301.444 37.448,309.228 34.208,301.444 "
   id="polygon880" />

		<polygon
   style="opacity:0.4;fill:#ffffff"
   points="77.85,301.444 77.85,309.228 74.61,301.444 "
   id="polygon881" />

		<rect
   x="28.656"
   y="317.05301"
   style="fill:#b8adc2"
   width="29.341"
   height="10.759"
   id="rect881" />

		<rect
   x="69.057999"
   y="317.05301"
   style="fill:#b8adc2"
   width="29.341"
   height="10.759"
   id="rect882" />

		<rect
   x="29.471001"
   y="317.70499"
   style="fill:#ffffff"
   width="27.711"
   height="9.4540005"
   id="rect883" />

		<rect
   x="69.873001"
   y="317.70499"
   style="fill:#ffffff"
   width="27.711"
   height="9.4540005"
   id="rect884" />

		<rect
   x="30.122999"
   y="318.19299"
   style="fill:#b0f0ff"
   width="26.407"
   height="8.4759998"
   id="rect885" />

		<rect
   x="70.525002"
   y="318.19299"
   style="fill:#b0f0ff"
   width="26.407"
   height="8.4759998"
   id="rect886" />

		<g
   id="g888">
			<rect
   x="37.845001"
   y="317.94901"
   style="fill:#ffffff"
   width="0.56999999"
   height="8.9250002"
   id="rect887" />

			<rect
   x="48.237"
   y="317.94901"
   style="fill:#ffffff"
   width="0.56999999"
   height="8.9250002"
   id="rect888" />

		</g>

		<g
   id="g890">
			<rect
   x="78.247002"
   y="317.94901"
   style="fill:#ffffff"
   width="0.56999999"
   height="8.9250002"
   id="rect889" />

			<rect
   x="88.639"
   y="317.94901"
   style="fill:#ffffff"
   width="0.57099998"
   height="8.9250002"
   id="rect890" />

		</g>

		<polygon
   style="opacity:0.4;fill:#ffffff"
   points="56.153,318.56 56.153,326.344 52.913,318.56 "
   id="polygon890" />

		<polygon
   style="opacity:0.4;fill:#ffffff"
   points="96.555,318.56 96.555,326.344 93.315,318.56 "
   id="polygon891" />

		<polygon
   style="opacity:0.4;fill:#ffffff"
   points="47.88,318.56 47.88,326.344 44.641,318.56 "
   id="polygon892" />

		<polygon
   style="opacity:0.4;fill:#ffffff"
   points="88.282,318.56 88.282,326.344 85.043,318.56 "
   id="polygon893" />

		<polygon
   style="opacity:0.4;fill:#ffffff"
   points="37.448,318.56 37.448,326.344 34.208,318.56 "
   id="polygon894" />

		<polygon
   style="opacity:0.4;fill:#ffffff"
   points="77.85,318.56 77.85,326.344 74.61,318.56 "
   id="polygon895" />

		<rect
   x="28.656"
   y="334.168"
   style="fill:#b8adc2"
   width="29.341"
   height="10.759"
   id="rect895" />

		<rect
   x="69.057999"
   y="334.168"
   style="fill:#b8adc2"
   width="29.341"
   height="10.759"
   id="rect896" />

		<rect
   x="29.471001"
   y="334.82001"
   style="fill:#ffffff"
   width="27.711"
   height="9.4540005"
   id="rect897" />

		<rect
   x="69.873001"
   y="334.82001"
   style="fill:#ffffff"
   width="27.711"
   height="9.4540005"
   id="rect898" />

		<rect
   x="30.122999"
   y="335.31"
   style="fill:#b0f0ff"
   width="26.407"
   height="8.4759998"
   id="rect899" />

		<rect
   x="70.525002"
   y="335.31"
   style="fill:#b0f0ff"
   width="26.407"
   height="8.4759998"
   id="rect900" />

		<g
   id="g902">
			<rect
   x="37.845001"
   y="335.065"
   style="fill:#ffffff"
   width="0.56999999"
   height="8.9250002"
   id="rect901" />

			<rect
   x="48.237"
   y="335.065"
   style="fill:#ffffff"
   width="0.56999999"
   height="8.9250002"
   id="rect902" />

		</g>

		<g
   id="g904">
			<rect
   x="78.247002"
   y="335.065"
   style="fill:#ffffff"
   width="0.56999999"
   height="8.9250002"
   id="rect903" />

			<rect
   x="88.639"
   y="335.065"
   style="fill:#ffffff"
   width="0.57099998"
   height="8.9250002"
   id="rect904" />

		</g>

		<polygon
   style="opacity:0.4;fill:#ffffff"
   points="56.153,335.676 56.153,343.46 52.913,335.676 "
   id="polygon904" />

		<polygon
   style="opacity:0.4;fill:#ffffff"
   points="96.555,335.676 96.555,343.46 93.315,335.676 "
   id="polygon905" />

		<polygon
   style="opacity:0.4;fill:#ffffff"
   points="47.88,335.676 47.88,343.46 44.641,335.676 "
   id="polygon906" />

		<polygon
   style="opacity:0.4;fill:#ffffff"
   points="88.282,335.676 88.282,343.46 85.043,335.676 "
   id="polygon907" />

		<polygon
   style="opacity:0.4;fill:#ffffff"
   points="37.448,335.676 37.448,343.46 34.208,335.676 "
   id="polygon908" />

		<polygon
   style="opacity:0.4;fill:#ffffff"
   points="77.85,335.676 77.85,343.46 74.61,335.676 "
   id="polygon909" />

		<rect
   x="28.656"
   y="351.284"
   style="fill:#b8adc2"
   width="29.341"
   height="10.759"
   id="rect909" />

		<rect
   x="69.057999"
   y="351.284"
   style="fill:#b8adc2"
   width="29.341"
   height="10.759"
   id="rect910" />

		<rect
   x="29.471001"
   y="351.936"
   style="fill:#ffffff"
   width="27.711"
   height="9.4540005"
   id="rect911" />

		<rect
   x="69.873001"
   y="351.936"
   style="fill:#ffffff"
   width="27.711"
   height="9.4540005"
   id="rect912" />

		<rect
   x="30.122999"
   y="352.42499"
   style="fill:#b0f0ff"
   width="26.407"
   height="8.4770002"
   id="rect913" />

		<rect
   x="70.525002"
   y="352.42499"
   style="fill:#b0f0ff"
   width="26.407"
   height="8.4770002"
   id="rect914" />

		<g
   id="g916">
			<rect
   x="37.845001"
   y="352.181"
   style="fill:#ffffff"
   width="0.56999999"
   height="8.9250002"
   id="rect915" />

			<rect
   x="48.237"
   y="352.181"
   style="fill:#ffffff"
   width="0.56999999"
   height="8.9250002"
   id="rect916" />

		</g>

		<g
   id="g918">
			<rect
   x="78.247002"
   y="352.181"
   style="fill:#ffffff"
   width="0.56999999"
   height="8.9250002"
   id="rect917" />

			<rect
   x="88.639"
   y="352.181"
   style="fill:#ffffff"
   width="0.57099998"
   height="8.9250002"
   id="rect918" />

		</g>

		<polygon
   style="opacity:0.4;fill:#ffffff"
   points="56.153,352.792 56.153,360.575 52.913,352.792 "
   id="polygon918" />

		<polygon
   style="opacity:0.4;fill:#ffffff"
   points="96.555,352.792 96.555,360.575 93.315,352.792 "
   id="polygon919" />

		<polygon
   style="opacity:0.4;fill:#ffffff"
   points="47.88,352.792 47.88,360.575 44.641,352.792 "
   id="polygon920" />

		<polygon
   style="opacity:0.4;fill:#ffffff"
   points="88.282,352.792 88.282,360.575 85.043,352.792 "
   id="polygon921" />

		<polygon
   style="opacity:0.4;fill:#ffffff"
   points="37.448,352.792 37.448,360.575 34.208,352.792 "
   id="polygon922" />

		<polygon
   style="opacity:0.4;fill:#ffffff"
   points="77.85,352.792 77.85,360.575 74.61,352.792 "
   id="polygon923" />

		<rect
   x="28.656"
   y="368.39999"
   style="fill:#b8adc2"
   width="29.341"
   height="10.758"
   id="rect923" />

		<rect
   x="69.057999"
   y="368.39999"
   style="fill:#b8adc2"
   width="29.341"
   height="10.758"
   id="rect924" />

		<rect
   x="29.471001"
   y="369.052"
   style="fill:#ffffff"
   width="27.711"
   height="9.4540005"
   id="rect925" />

		<rect
   x="69.873001"
   y="369.052"
   style="fill:#ffffff"
   width="27.711"
   height="9.4540005"
   id="rect926" />

		<rect
   x="30.122999"
   y="369.54099"
   style="fill:#b0f0ff"
   width="26.407"
   height="8.4770002"
   id="rect927" />

		<rect
   x="70.525002"
   y="369.54099"
   style="fill:#b0f0ff"
   width="26.407"
   height="8.4770002"
   id="rect928" />

		<g
   id="g930">
			<rect
   x="37.845001"
   y="369.297"
   style="fill:#ffffff"
   width="0.56999999"
   height="8.9239998"
   id="rect929" />

			<rect
   x="48.237"
   y="369.297"
   style="fill:#ffffff"
   width="0.56999999"
   height="8.9239998"
   id="rect930" />

		</g>

		<g
   id="g932">
			<rect
   x="78.247002"
   y="369.297"
   style="fill:#ffffff"
   width="0.56999999"
   height="8.9239998"
   id="rect931" />

			<rect
   x="88.639"
   y="369.297"
   style="fill:#ffffff"
   width="0.57099998"
   height="8.9239998"
   id="rect932" />

		</g>

		<polygon
   style="opacity:0.4;fill:#ffffff"
   points="56.153,369.907 56.153,377.691 52.913,369.907 "
   id="polygon932" />

		<polygon
   style="opacity:0.4;fill:#ffffff"
   points="96.555,369.907 96.555,377.691 93.315,369.907 "
   id="polygon933" />

		<polygon
   style="opacity:0.4;fill:#ffffff"
   points="47.88,369.907 47.88,377.691 44.641,369.907 "
   id="polygon934" />

		<polygon
   style="opacity:0.4;fill:#ffffff"
   points="88.282,369.907 88.282,377.691 85.043,369.907 "
   id="polygon935" />

		<polygon
   style="opacity:0.4;fill:#ffffff"
   points="37.448,369.907 37.448,377.691 34.208,369.907 "
   id="polygon936" />

		<polygon
   style="opacity:0.4;fill:#ffffff"
   points="77.85,369.907 77.85,377.691 74.61,369.907 "
   id="polygon937" />

		<rect
   x="28.656"
   y="385.51599"
   style="fill:#b8adc2"
   width="29.341"
   height="10.759"
   id="rect937" />

		<rect
   x="69.057999"
   y="385.51599"
   style="fill:#b8adc2"
   width="29.341"
   height="10.759"
   id="rect938" />

		<rect
   x="29.471001"
   y="386.168"
   style="fill:#ffffff"
   width="27.711"
   height="9.4540005"
   id="rect939" />

		<rect
   x="69.873001"
   y="386.168"
   style="fill:#ffffff"
   width="27.711"
   height="9.4540005"
   id="rect940" />

		<rect
   x="30.122999"
   y="386.65601"
   style="fill:#b0f0ff"
   width="26.407"
   height="8.4759998"
   id="rect941" />

		<rect
   x="70.525002"
   y="386.65601"
   style="fill:#b0f0ff"
   width="26.407"
   height="8.4759998"
   id="rect942" />

		<g
   id="g944">
			<rect
   x="37.845001"
   y="386.41199"
   style="fill:#ffffff"
   width="0.56999999"
   height="8.9250002"
   id="rect943" />

			<rect
   x="48.237"
   y="386.41199"
   style="fill:#ffffff"
   width="0.56999999"
   height="8.9250002"
   id="rect944" />

		</g>

		<g
   id="g946">
			<rect
   x="78.247002"
   y="386.41199"
   style="fill:#ffffff"
   width="0.56999999"
   height="8.9250002"
   id="rect945" />

			<rect
   x="88.639"
   y="386.41199"
   style="fill:#ffffff"
   width="0.57099998"
   height="8.9250002"
   id="rect946" />

		</g>

		<polygon
   style="opacity:0.4;fill:#ffffff"
   points="56.153,387.023 56.153,394.807 52.913,387.023 "
   id="polygon946" />

		<polygon
   style="opacity:0.4;fill:#ffffff"
   points="96.555,387.023 96.555,394.807 93.315,387.023 "
   id="polygon947" />

		<polygon
   style="opacity:0.4;fill:#ffffff"
   points="47.88,387.023 47.88,394.807 44.641,387.023 "
   id="polygon948" />

		<polygon
   style="opacity:0.4;fill:#ffffff"
   points="88.282,387.023 88.282,394.807 85.043,387.023 "
   id="polygon949" />

		<polygon
   style="opacity:0.4;fill:#ffffff"
   points="37.448,387.023 37.448,394.807 34.208,387.023 "
   id="polygon950" />

		<polygon
   style="opacity:0.4;fill:#ffffff"
   points="77.85,387.023 77.85,394.807 74.61,387.023 "
   id="polygon951" />

		<rect
   x="28.656"
   y="402.63101"
   style="fill:#b8adc2"
   width="29.341"
   height="10.759"
   id="rect951" />

		<rect
   x="69.057999"
   y="402.63101"
   style="fill:#b8adc2"
   width="29.341"
   height="10.759"
   id="rect952" />

		<rect
   x="29.471001"
   y="403.28299"
   style="fill:#ffffff"
   width="27.711"
   height="9.4549999"
   id="rect953" />

		<rect
   x="69.873001"
   y="403.28299"
   style="fill:#ffffff"
   width="27.711"
   height="9.4549999"
   id="rect954" />

		<rect
   x="30.122999"
   y="403.772"
   style="fill:#b0f0ff"
   width="26.407"
   height="8.4759998"
   id="rect955" />

		<rect
   x="70.525002"
   y="403.772"
   style="fill:#b0f0ff"
   width="26.407"
   height="8.4759998"
   id="rect956" />

		<g
   id="g958">
			<rect
   x="37.845001"
   y="403.52802"
   style="fill:#ffffff"
   width="0.56999999"
   height="8.9239998"
   id="rect957" />

			<rect
   x="48.237"
   y="403.52802"
   style="fill:#ffffff"
   width="0.56999999"
   height="8.9239998"
   id="rect958" />

		</g>

		<g
   id="g960">
			<rect
   x="78.247002"
   y="403.52802"
   style="fill:#ffffff"
   width="0.56999999"
   height="8.9239998"
   id="rect959" />

			<rect
   x="88.639"
   y="403.52802"
   style="fill:#ffffff"
   width="0.57099998"
   height="8.9239998"
   id="rect960" />

		</g>

		<polygon
   style="opacity:0.4;fill:#ffffff"
   points="56.153,404.14 56.153,411.923 52.913,404.14 "
   id="polygon960" />

		<polygon
   style="opacity:0.4;fill:#ffffff"
   points="96.555,404.14 96.555,411.923 93.315,404.14 "
   id="polygon961" />

		<polygon
   style="opacity:0.4;fill:#ffffff"
   points="47.88,404.14 47.88,411.923 44.641,404.14 "
   id="polygon962" />

		<polygon
   style="opacity:0.4;fill:#ffffff"
   points="88.282,404.14 88.282,411.923 85.043,404.14 "
   id="polygon963" />

		<polygon
   style="opacity:0.4;fill:#ffffff"
   points="37.448,404.14 37.448,411.923 34.208,404.14 "
   id="polygon964" />

		<polygon
   style="opacity:0.4;fill:#ffffff"
   points="77.85,404.14 77.85,411.923 74.61,404.14 "
   id="polygon965" />

		<polygon
   style="opacity:0.4;fill:#ffffff"
   points="49.154,236.1 49.154,246.186 45.914,236.1 "
   id="polygon966" />

		<polygon
   style="opacity:0.4;fill:#ffffff"
   points="97.4,236.1 97.4,246.186 94.161,236.1 "
   id="polygon967" />

		<polygon
   style="opacity:0.4;fill:#ffffff"
   points="59.882,236.1 59.882,246.186 56.642,236.1 "
   id="polygon968" />

		<polygon
   style="opacity:0.4;fill:#ffffff"
   points="108.128,236.1 108.128,246.186 104.889,236.1 "
   id="polygon969" />

		<rect
   x="39.292"
   y="420.698"
   style="fill:#f8f0ff"
   width="7.1719999"
   height="14.444"
   id="rect969" />

		<rect
   x="80.589996"
   y="420.698"
   style="fill:#f8f0ff"
   width="7.1719999"
   height="14.444"
   id="rect970" />

		<rect
   x="45.689999"
   y="428.08099"
   style="fill:#c5b9cf"
   width="0.30599999"
   height="1.467"
   id="rect971" />

		<rect
   x="81.058998"
   y="428.08099"
   style="fill:#c5b9cf"
   width="0.30599999"
   height="1.467"
   id="rect972" />

	</g>

	<polygon
   style="opacity:0.07"
   points="26.7,235.549 18.223,235.549 18.223,246.878 18.223,248.02 18.223,266.684 25.046,276.686 25.046,425.821 25.046,435.143 38.558,435.143 39.292,435.143 46.464,435.143 47.198,435.143 61.257,435.143 63.527,435.143 63.527,223.68 48.237,223.68 48.237,217.618 43.326,217.618 43.326,223.68 38.11,223.68 38.11,230.333 26.7,230.333 "
   id="polygon972" />

</g>
</g>
  </g>
</svg>
