<?xml version="1.0" encoding="UTF-8" standalone="no"?>
<!-- Created with Inkscape (http://www.inkscape.org/) -->

<svg
   width="42.929714mm"
   height="56.187172mm"
   viewBox="0 0 42.929714 56.187171"
   version="1.1"
   id="svg1"
   inkscape:version="1.4.2 (f4327f4, 2025-05-13)"
   sodipodi:docname="baby-4.svg"
   xmlns:inkscape="http://www.inkscape.org/namespaces/inkscape"
   xmlns:sodipodi="http://sodipodi.sourceforge.net/DTD/sodipodi-0.dtd"
   xmlns:xlink="http://www.w3.org/1999/xlink"
   xmlns="http://www.w3.org/2000/svg"
   xmlns:svg="http://www.w3.org/2000/svg">
  <sodipodi:namedview
     id="namedview1"
     pagecolor="#ffffff"
     bordercolor="#000000"
     borderopacity="0.25"
     inkscape:showpageshadow="2"
     inkscape:pageopacity="0.0"
     inkscape:pagecheckerboard="0"
     inkscape:deskcolor="#d1d1d1"
     inkscape:document-units="mm"
     inkscape:zoom="1.2275954"
     inkscape:cx="-96.937476"
     inkscape:cy="-136.85291"
     inkscape:window-width="2880"
     inkscape:window-height="1676"
     inkscape:window-x="-12"
     inkscape:window-y="-12"
     inkscape:window-maximized="1"
     inkscape:current-layer="layer1" />
  <defs
     id="defs1">
    <clipPath
       id="SVGID_00000088121129661639828090000009030817169387899820_">
					<use
   xlink:href="#SVGID_00000135674649815856159650000014007452505633724579_"
   style="overflow:visible"
   id="use71" />

				</clipPath>
    <clipPath
       id="clipPath1">
					<use
   xlink:href="#SVGID_00000135674649815856159650000014007452505633724579_"
   style="overflow:visible"
   id="use1" />

				</clipPath>
    <path
       id="SVGID_00000135674649815856159650000014007452505633724579_"
       d="m 399.452,117.804 c 15.234,0.932 18.105,-13.146 18.635,-19.311 0.127,-1.501 -1.074,-2.781 -2.578,-2.734 l -31.598,0.976 c -1.514,0.047 -2.637,1.411 -2.402,2.909 0.869,5.529 4.322,17.324 17.943,18.16 z" />
    <clipPath
       id="SVGID_00000017498171802402560420000001507340208870439346_">
					<use
   xlink:href="#SVGID_00000110459576704814089500000014062906513019997571_"
   style="overflow:visible"
   id="use94" />

				</clipPath>
    <clipPath
       id="clipPath1-1">
					<use
   xlink:href="#SVGID_00000110459576704814089500000014062906513019997571_"
   style="overflow:visible"
   id="use1-1" />

				</clipPath>
    <path
       id="SVGID_00000110459576704814089500000014062906513019997571_"
       d="m 401.622,352.871 c 15.234,0.932 18.105,-13.146 18.635,-19.311 0.127,-1.502 -1.074,-2.781 -2.578,-2.734 l -31.598,0.977 c -1.514,0.047 -2.637,1.411 -2.402,2.909 0.869,5.528 4.322,17.323 17.943,18.159 z" />
  </defs>
  <g
     inkscape:label="图层 1"
     inkscape:groupmode="layer"
     id="layer1"
     transform="translate(-130.70412,-184.67944)">
    <g
       id="g101"
       transform="matrix(0.26458333,0,0,0.26458333,46.418904,115.53005)">
		<g
   id="g79">
			<path
   style="clip-rule:evenodd;fill:#f0d0b0;fill-rule:evenodd"
   d="m 456.671,318.824 c -3.713,-3.041 -9.229,-2.529 -12.303,1.223 -3.041,3.713 -2.49,9.26 1.223,12.301 3.715,3.042 9.26,2.49 12.301,-1.222 3.074,-3.753 2.492,-9.26 -1.221,-12.302 z"
   id="path78" />

			<path
   style="clip-rule:evenodd;fill:#e2b586;fill-rule:evenodd"
   d="m 451.954,320.935 c -2.732,-2.237 -6.789,-1.86 -9.049,0.9 -2.238,2.731 -1.832,6.812 0.898,9.048 2.732,2.238 6.813,1.833 9.049,-0.898 2.262,-2.76 1.833,-6.812 -0.898,-9.05 z"
   id="path79" />

		</g>

		<g
   id="g81">
			<path
   style="clip-rule:evenodd;fill:#f0d0b0;fill-rule:evenodd"
   d="m 347.069,318.824 c 3.713,-3.041 9.227,-2.529 12.301,1.223 3.041,3.713 2.492,9.26 -1.223,12.301 -3.713,3.042 -9.258,2.49 -12.3,-1.222 -3.074,-3.753 -2.491,-9.26 1.222,-12.302 z"
   id="path80" />

			<path
   style="clip-rule:evenodd;fill:#e2b586;fill-rule:evenodd"
   d="m 351.786,320.935 c 2.732,-2.237 6.787,-1.86 9.049,0.9 2.238,2.731 1.832,6.812 -0.898,9.048 -2.732,2.238 -6.813,1.833 -9.049,-0.898 -2.262,-2.76 -1.834,-6.812 0.898,-9.05 z"
   id="path81" />

		</g>

		<path
   style="clip-rule:evenodd;fill:#f0d0b0;fill-rule:evenodd"
   d="m 454.31,367.133 1.055,-1.795 c 0,0 0.803,-2.789 3.344,-4.77 -0.807,-10.343 6.367,-9.878 5.76,-0.558 0,0 8.57,-6.844 11.684,-3.67 10.916,11.127 0.332,20.455 -8.092,20.516 0,0 -3.842,1.982 -8.113,1.549 z"
   id="path82" />

		<path
   style="clip-rule:evenodd;fill:#f0d0b0;fill-rule:evenodd"
   d="m 345.061,367.133 -1.055,-1.795 c 0,0 -0.805,-2.789 -3.344,-4.77 0.805,-10.343 -6.369,-9.878 -5.762,-0.558 0,0 -8.568,-6.844 -11.682,-3.67 -10.916,11.127 -0.334,20.455 8.092,20.516 0,0 3.84,1.982 8.113,1.549 z"
   id="path83" />

		<path
   style="clip-rule:evenodd;fill:#92d2c2;fill-rule:evenodd"
   d="m 368.017,419.207 c 0,0 -1.734,23.846 12.016,35.24 0,0 -12.346,4.037 -16.436,8.371 -4.025,4.273 -0.535,6.68 9.994,9.529 10.467,2.91 22.234,1.363 24.279,-6.504 2.043,-7.865 -0.4,-35.217 3.316,-43.639 3.713,8.422 2.074,35.773 4.115,43.639 2.043,7.867 13.935,9.414 24.402,6.504 10.529,-2.85 16.77,-4.824 12.744,-9.098 -4.088,-4.334 -19.185,-8.803 -19.185,-8.803 13.75,-11.395 12.016,-35.24 12.016,-35.24 l -5.016,-31.959 c 18.395,4.893 32.33,-8.053 32.33,-8.053 0.805,-9.537 -5.141,-14.617 -5.141,-14.617 -5.016,-1.236 -19.012,5.139 -19.012,5.139 C 425,360.859 401.648,356.341 401.648,356.341 v 0 c 0,0 -20.438,5.565 -33.879,14.422 0,0 -18.947,-8.799 -23.902,-7.561 0,0 -7.73,5.727 -6.928,15.264 0,0 18.916,17 36.156,8.781 z"
   id="path84" />

		<path
   style="clip-rule:evenodd;fill:#f0d0b0;fill-rule:evenodd"
   d="m 413.786,356.57 c -6.935,-0.93 -12.137,-0.93 -12.137,-0.93 0,0 -4.275,0 -10.221,0.744 0.186,13.006 11.272,14.367 11.272,14.367 9.662,0.497 11.086,-14.181 11.086,-14.181 z"
   id="path85" />

		<path
   style="clip-rule:evenodd;fill:#f0d0b0;fill-rule:evenodd"
   d="m 447.544,306.278 c 4.522,39.267 -12.76,56.423 -46.641,57.167 -33.752,-2.168 -50.289,-20.067 -44.16,-59.088 7.311,-46.636 85.41,-44.964 90.801,1.921 z"
   id="path86" />

		<path
   style="clip-rule:evenodd;fill:#e2b586;fill-rule:evenodd"
   d="m 439.491,336.565 c -6.566,15.855 -21.553,23.226 -43.543,23.721 -10.279,-0.68 -18.951,-2.786 -25.887,-6.502 7.553,5.697 17.961,8.857 30.842,9.662 21.928,-0.496 36.853,-7.805 43.48,-23.598 2.477,-5.76 3.777,-12.697 3.84,-20.873 0.063,-3.902 -0.123,-8.175 -0.68,-12.696 -1.611,-13.935 -9.603,-23.846 -20.316,-29.729 8.176,6.008 14.061,14.865 15.361,26.57 0.742,6.193 0.867,11.768 0.557,16.909 -0.433,6.254 -1.673,11.767 -3.654,16.536 z"
   id="path87" />

		<g
   id="g100">
			<g
   id="g90">
				<path
   style="fill:#ffffff"
   d="m 388.966,316.723 c 0.141,4.578 -3.457,8.404 -8.035,8.547 -4.578,0.141 -8.404,-3.456 -8.547,-8.034 -0.141,-4.577 3.457,-8.404 8.035,-8.546 4.578,-0.142 8.404,3.455 8.547,8.033 z"
   id="path88" />

				<path
   style="fill:#382417"
   d="m 387.634,317.295 c 0.105,3.401 -2.565,6.242 -5.967,6.348 -3.4,0.105 -6.242,-2.566 -6.348,-5.967 -0.105,-3.4 2.566,-6.242 5.967,-6.348 3.402,-0.105 6.242,2.567 6.348,5.967 z"
   id="path89" />

				<path
   style="fill:#ffffff"
   d="m 384.519,315.883 c 0.029,0.936 -0.707,1.719 -1.643,1.748 -0.936,0.029 -1.719,-0.707 -1.748,-1.644 -0.027,-0.936 0.707,-1.719 1.645,-1.747 0.935,-0.029 1.716,0.706 1.746,1.643 z"
   id="path90" />

			</g>

			<g
   id="g93">
				<path
   style="fill:#ffffff"
   d="m 429.784,315.461 c 0.141,4.578 -3.455,8.405 -8.033,8.546 -4.578,0.142 -8.404,-3.454 -8.547,-8.033 -0.141,-4.577 3.457,-8.404 8.033,-8.546 4.58,-0.141 8.405,3.455 8.547,8.033 z"
   id="path91" />

				<path
   style="fill:#382417"
   d="m 428.454,316.033 c 0.105,3.401 -2.566,6.242 -5.967,6.348 -3.4,0.105 -6.242,-2.566 -6.348,-5.967 -0.105,-3.4 2.566,-6.242 5.967,-6.347 3.403,-0.105 6.245,2.566 6.348,5.966 z"
   id="path92" />

				<path
   style="fill:#ffffff"
   d="m 425.339,314.621 c 0.029,0.936 -0.707,1.719 -1.643,1.748 -0.936,0.029 -1.719,-0.708 -1.748,-1.644 -0.027,-0.936 0.707,-1.718 1.643,-1.747 0.937,-0.029 1.719,0.707 1.748,1.643 z"
   id="path93" />

			</g>

			<path
   style="fill:#e2b586"
   d="m 406.446,324.836 c 0,0 0.408,-4.607 -3.926,-4.533 -4.496,0.08 -3.603,5.283 -3.603,5.283 z"
   id="path94" />

			<g
   id="g98">
				<defs
   id="defs94">
					<path
   id="path2"
   d="m 401.622,352.871 c 15.234,0.932 18.105,-13.146 18.635,-19.311 0.127,-1.502 -1.074,-2.781 -2.578,-2.734 l -31.598,0.977 c -1.514,0.047 -2.637,1.411 -2.402,2.909 0.869,5.528 4.322,17.323 17.943,18.159 z" />

				</defs>

				<clipPath
   id="clipPath2-2">
					<use
   xlink:href="#SVGID_00000110459576704814089500000014062906513019997571_"
   style="overflow:visible"
   id="use2-7" />

				</clipPath>

				<g
   clip-path="url(#SVGID_00000017498171802402560420000001507340208870439346_)"
   id="g96">
					<g
   id="g95">
						<path
   style="fill:#e8a2cc"
   d="m 401.622,352.871 c 15.234,0.932 18.105,-13.146 18.635,-19.311 0.127,-1.502 -1.074,-2.781 -2.578,-2.734 l -31.598,0.977 c -1.514,0.047 -2.637,1.411 -2.402,2.909 0.869,5.528 4.322,17.323 17.943,18.159 z"
   id="path95" />

					</g>

				</g>

				<g
   clip-path="url(#SVGID_00000017498171802402560420000001507340208870439346_)"
   id="g97">
					<path
   style="fill:#382417"
   d="m 388.114,345.877 c 9.025,-6.918 20.566,-10.443 31.517,-8.093 0.338,-1.589 0.525,-3.05 0.625,-4.224 0.127,-1.502 -1.074,-2.781 -2.578,-2.734 l -31.598,0.977 c -1.514,0.047 -2.637,1.411 -2.402,2.909 0.448,2.845 1.585,7.348 4.436,11.165 z"
   id="path96" />

				</g>

			</g>

			<path
   style="fill:#382417"
   d="m 379.356,298.953 c -2.592,0.152 -4.674,1.266 -6.85,2.618 -2,1.243 -4.188,3.011 -4.697,5.399 -0.043,0.195 -0.117,0.916 0.195,0.963 0.695,0.104 1.229,-0.583 1.699,-1.044 0.965,-0.948 2.107,-1.718 3.234,-2.452 2.221,-1.45 4.459,-2.777 6.522,-4.445 0.163,-0.131 0.165,-1.056 -0.103,-1.039 z"
   id="path98" />

			<path
   style="fill:#382417"
   d="m 432.911,301.518 c -3.096,-3.413 -7.555,-6.023 -12.146,-6.646 -0.182,-0.023 -0.123,0.733 0.01,0.82 2.041,1.316 4.098,2.547 6.199,3.766 1.912,1.111 3.789,2.377 5.947,2.954 0.209,0.057 0.084,-0.792 -0.01,-0.894 z"
   id="path99" />

			<path
   style="fill:#e5b242"
   d="m 408.657,265.365 c -2.447,-8.763 -11.471,-1.252 -12.848,4.326 -1.031,4.182 -0.643,8.877 0.867,13.084 -1.361,1.168 -2.858,2.18 -4.551,2.988 -0.369,0.178 0.17,1.57 0.525,1.606 2.035,0.204 3.787,-0.481 5.328,-1.615 0.543,1.035 1.156,2.021 1.844,2.935 3.959,5.258 12.229,8.417 16.635,1.684 0.199,-0.306 -0.234,-1.698 -0.682,-1.587 -4.748,1.165 -8.197,3.599 -12.906,0.559 -1.697,-1.094 -3.002,-2.609 -3.969,-4.344 2.033,-1.815 3.682,-4.325 5.119,-6.363 2.72,-3.852 6.019,-8.325 4.638,-13.273 z m -11.06,16.576 c -0.742,-2.397 -0.988,-4.967 -0.811,-7.34 0.17,-2.248 0.902,-4.385 1.988,-6.346 0.813,-1.468 2.037,-2.58 3.389,-3.542 2.543,-1.812 7.279,-1.899 4.797,4.294 -1.277,3.188 -3.922,6.082 -5.895,8.869 -1.054,1.494 -2.201,2.851 -3.468,4.065 z"
   id="path100" />

		</g>

	</g>
  </g>
</svg>
