<?xml version="1.0" encoding="UTF-8" standalone="no"?>
<!-- Created with Inkscape (http://www.inkscape.org/) -->

<svg
   width="48.988312mm"
   height="43.766861mm"
   viewBox="0 0 48.988312 43.76686"
   version="1.1"
   id="svg1"
   inkscape:version="1.4.2 (f4327f4, 2025-05-13)"
   sodipodi:docname="baby-5.svg"
   xmlns:inkscape="http://www.inkscape.org/namespaces/inkscape"
   xmlns:sodipodi="http://sodipodi.sourceforge.net/DTD/sodipodi-0.dtd"
   xmlns:xlink="http://www.w3.org/1999/xlink"
   xmlns="http://www.w3.org/2000/svg"
   xmlns:svg="http://www.w3.org/2000/svg">
  <sodipodi:namedview
     id="namedview1"
     pagecolor="#ffffff"
     bordercolor="#000000"
     borderopacity="0.25"
     inkscape:showpageshadow="2"
     inkscape:pageopacity="0.0"
     inkscape:pagecheckerboard="0"
     inkscape:deskcolor="#d1d1d1"
     inkscape:document-units="mm"
     inkscape:zoom="1.2275954"
     inkscape:cx="-49.690639"
     inkscape:cy="131.9653"
     inkscape:window-width="2880"
     inkscape:window-height="1676"
     inkscape:window-x="-12"
     inkscape:window-y="-12"
     inkscape:window-maximized="1"
     inkscape:current-layer="layer1" />
  <defs
     id="defs1">
    <clipPath
       id="SVGID_00000088121129661639828090000009030817169387899820_">
					<use
   xlink:href="#SVGID_00000135674649815856159650000014007452505633724579_"
   style="overflow:visible"
   id="use71" />

				</clipPath>
    <clipPath
       id="clipPath1">
					<use
   xlink:href="#SVGID_00000135674649815856159650000014007452505633724579_"
   style="overflow:visible"
   id="use1" />

				</clipPath>
    <path
       id="SVGID_00000135674649815856159650000014007452505633724579_"
       d="m 399.452,117.804 c 15.234,0.932 18.105,-13.146 18.635,-19.311 0.127,-1.501 -1.074,-2.781 -2.578,-2.734 l -31.598,0.976 c -1.514,0.047 -2.637,1.411 -2.402,2.909 0.869,5.529 4.322,17.324 17.943,18.16 z" />
    <clipPath
       id="SVGID_00000017498171802402560420000001507340208870439346_">
					<use
   xlink:href="#SVGID_00000110459576704814089500000014062906513019997571_"
   style="overflow:visible"
   id="use94" />

				</clipPath>
    <clipPath
       id="clipPath1-1">
					<use
   xlink:href="#SVGID_00000110459576704814089500000014062906513019997571_"
   style="overflow:visible"
   id="use1-1" />

				</clipPath>
    <path
       id="SVGID_00000110459576704814089500000014062906513019997571_"
       d="m 401.622,352.871 c 15.234,0.932 18.105,-13.146 18.635,-19.311 0.127,-1.502 -1.074,-2.781 -2.578,-2.734 l -31.598,0.977 c -1.514,0.047 -2.637,1.411 -2.402,2.909 0.869,5.528 4.322,17.323 17.943,18.159 z" />
    <clipPath
       id="SVGID_00000025407708497837215170000013032430034765681836_">
					<use
   xlink:href="#SVGID_00000135664674739120191490000015620846390263678084_"
   style="overflow:visible"
   id="use43" />

				</clipPath>
    <clipPath
       id="clipPath1-4">
					<use
   xlink:href="#SVGID_00000135664674739120191490000015620846390263678084_"
   style="overflow:visible"
   id="use1-2" />

				</clipPath>
    <path
       id="SVGID_00000135664674739120191490000015620846390263678084_"
       d="m 140.177,397.871 c -14.999,-2.824 -14.338,-17.176 -13.343,-23.281 0.244,-1.488 1.722,-2.434 3.169,-2.021 l 30.398,8.68 c 1.457,0.416 2.213,2.012 1.618,3.408 -2.196,5.146 -8.43,15.738 -21.842,13.214 z" />
  </defs>
  <g
     inkscape:label="图层 1"
     inkscape:groupmode="layer"
     id="layer1"
     transform="translate(-118.2687,-113.50652)">
    <g
       id="g50"
       transform="matrix(0.26458333,0,0,0.26458333,113.19173,31.936733)">
		<g
   id="g24">
			<path
   style="clip-rule:evenodd;fill:#f0d0b0;fill-rule:evenodd"
   d="m 96.358,346.543 c 4.345,-2.041 9.565,-0.195 11.628,4.195 2.04,4.345 0.149,9.588 -4.195,11.627 -4.345,2.041 -9.587,0.15 -11.628,-4.193 -2.063,-4.391 -0.15,-9.588 4.195,-11.629 z"
   id="path23" />

			<path
   style="clip-rule:evenodd;fill:#e2b586;fill-rule:evenodd"
   d="m 100.415,349.742 c 3.196,-1.499 7.037,-0.142 8.554,3.088 1.501,3.195 0.109,7.053 -3.086,8.553 -3.196,1.502 -7.053,0.111 -8.554,-3.085 -1.518,-3.23 -0.111,-7.054 3.086,-8.556 z"
   id="path24" />

		</g>

		<g
   id="g26">
			<path
   style="clip-rule:evenodd;fill:#f0d0b0;fill-rule:evenodd"
   d="m 202.626,373.361 c -2.855,-3.857 -8.327,-4.711 -12.227,-1.824 -3.856,2.855 -4.681,8.367 -1.824,12.225 2.856,3.859 8.368,4.682 12.226,1.826 3.9,-2.887 4.682,-8.369 1.825,-12.227 z"
   id="path25" />

			<path
   style="clip-rule:evenodd;fill:#e2b586;fill-rule:evenodd"
   d="m 197.537,374.254 c -2.101,-2.838 -6.126,-3.465 -8.993,-1.342 -2.839,2.102 -3.443,6.156 -1.343,8.994 2.101,2.838 6.156,3.443 8.994,1.342 2.867,-2.123 3.443,-6.156 1.342,-8.994 z"
   id="path26" />

		</g>

		<path
   style="clip-rule:evenodd;fill:#e2b586;fill-rule:evenodd"
   d="m 140.547,410.68 c 0,0 6.689,7.867 8.485,16.848 0,0 12.572,-3.16 16.97,-2.602 0,0 1.858,-5.883 8.733,-5.389 6.875,0.494 7.061,15.918 -1.487,14.865 0,0 -16.288,8.176 -25.517,8.422 -9.29,0.248 -15.358,-12.139 -15.358,-12.139 z"
   id="path27" />

		<path
   style="clip-rule:evenodd;fill:#e2b586;fill-rule:evenodd"
   d="m 105.801,441.338 2.354,1.426 c 0,0 5.389,5.945 4.273,14.988 -1.176,8.98 -17.712,13.254 -39.7,9.537 l 6.504,-23.658 z"
   id="path28" />

		<path
   style="clip-rule:evenodd;fill:#f0d0b0;fill-rule:evenodd"
   d="m 122.834,380.207 23.103,17.529 c 0,0 -6.752,46.326 -36.048,42.24 0,0 -2.849,10.094 -23.597,7.369 0,0 -30.102,-3.838 -29.978,-30.348 0.186,-26.57 26.074,-32.641 41.621,-26.076 0,0 1.237,0.744 0.371,3.16 0.001,10e-4 13.937,-1.796 24.528,-13.874 z"
   id="path29" />

		<path
   style="clip-rule:evenodd;fill:#def3e1;fill-rule:evenodd"
   d="m 109.889,439.977 c 0,0 -2.849,10.094 -23.597,7.369 0,0 -30.102,-3.838 -29.978,-30.348 0.186,-26.57 26.074,-32.641 41.621,-26.076 0,0 1.237,0.744 0.371,3.16 0.001,0 -18.27,26.137 11.583,45.895 z"
   id="path30" />

		<path
   style="clip-rule:evenodd;fill:#f0d0b0;fill-rule:evenodd"
   d="m 90.007,437.56 c -0.311,12.82 -9.105,32.949 -16.04,34.561 -6.939,1.672 -33.323,-1.053 -39.517,-0.063 -6.192,0.99 -12.387,3.035 -14.802,0.248 -2.416,-2.787 4.83,-23.287 18.58,-16.475 0,0 9.291,-5.326 15.67,-2.912 -5.636,-42.114 36.791,-43.726 36.109,-15.359 z"
   id="path31" />

		<path
   style="clip-rule:evenodd;fill:#e2b586;fill-rule:evenodd"
   d="m 27.576,455.895 c 2.912,-1.674 6.503,-2.168 10.653,-0.063 0,0 9.291,-5.326 15.67,-2.912 -1.549,-11.395 0.496,-19.818 4.151,-25.455 -0.186,0.682 -5.638,21.926 0.247,29.42 0,0 -5.823,-3.469 -13.317,-1.363 -7.555,2.168 -9.229,5.885 -9.229,5.885 0,0 1.241,-6.69 -8.175,-5.512 z"
   id="path32" />

		<path
   style="clip-rule:evenodd;fill:#f0d0b0;fill-rule:evenodd"
   d="m 126.983,401.391 c 0,0 4.83,-0.496 6.627,8.484 1.797,9.043 -1.547,42.674 3.532,51.406 0,0 11.706,0.063 13.192,6.504 0.99,4.273 -24.713,9.91 -25.456,0.311 0,0 -3.531,-8.982 -5.638,-25.518 -2.167,-16.537 -8.359,-21.244 -8.359,-21.244 0,0 -3.469,-22.793 16.102,-19.943 z"
   id="path33" />

		<path
   style="clip-rule:evenodd;fill:#e2b586;fill-rule:evenodd"
   d="m 126.983,401.391 c 0,0 4.83,-0.496 6.627,8.484 1.797,9.043 -1.547,42.674 3.532,51.406 -6.381,-4.273 -4.398,-19.633 -5.452,-32.764 -1.052,-13.068 -2.973,-20.996 -2.973,-20.996 -4.646,-0.93 -8.546,-2.725 -11.706,-4.707 2.355,-1.423 5.576,-2.105 9.972,-1.423 z"
   id="path34" />

		<path
   style="clip-rule:evenodd;fill:#f0d0b0;fill-rule:evenodd"
   d="m 104.13,344.595 c -10.035,38.214 4.646,57.663 38.028,63.175 33.755,2.725 52.645,-12.697 52.149,-52.15 -0.681,-47.196 -78.224,-56.671 -90.177,-11.025 z"
   id="path35" />

		<path
   style="clip-rule:evenodd;fill:#e2b586;fill-rule:evenodd"
   d="m 107.784,375.688 c 4.272,16.66 18.085,26.074 39.762,29.666 10.222,0.807 19.14,-0.06 26.572,-2.725 -8.362,4.584 -19.076,6.193 -31.959,5.141 -21.615,-3.529 -35.365,-12.945 -39.701,-29.482 -1.549,-6.068 -1.858,-13.129 -0.868,-21.243 0.559,-3.901 1.363,-8.052 2.541,-12.449 3.529,-13.563 12.881,-22.297 24.34,-26.57 -8.981,4.831 -16.042,12.759 -19.015,24.155 -1.549,6.008 -2.539,11.52 -2.909,16.661 -0.436,6.254 -0.063,11.89 1.237,16.846 z"
   id="path36" />

		<g
   id="g49">
			<g
   id="g39">
				<path
   style="fill:#ffffff"
   d="m 161.295,365.92 c -1.257,4.404 1.294,8.994 5.698,10.252 4.404,1.258 8.995,-1.293 10.253,-5.697 1.257,-4.404 -1.295,-8.994 -5.7,-10.252 -4.403,-1.258 -8.993,1.294 -10.251,5.697 z"
   id="path37" />

				<path
   style="fill:#382417"
   d="m 162.446,366.801 c -0.934,3.271 0.96,6.68 4.232,7.615 3.273,0.934 6.681,-0.961 7.615,-4.234 0.934,-3.27 -0.961,-6.68 -4.233,-7.613 -3.272,-0.934 -6.681,0.96 -7.614,4.232 z"
   id="path38" />

				<path
   style="fill:#ffffff"
   d="m 165.811,366.193 c -0.256,0.9 0.267,1.84 1.166,2.098 0.899,0.256 1.839,-0.266 2.097,-1.166 0.257,-0.9 -0.264,-1.84 -1.166,-2.096 -0.901,-0.257 -1.838,0.264 -2.097,1.164 z"
   id="path39" />

			</g>

			<g
   id="g42">
				<path
   style="fill:#ffffff"
   d="m 122.026,354.709 c -1.257,4.404 1.293,8.994 5.698,10.252 4.404,1.258 8.994,-1.293 10.253,-5.698 1.257,-4.403 -1.296,-8.995 -5.699,-10.251 -4.405,-1.258 -8.994,1.293 -10.252,5.697 z"
   id="path40" />

				<path
   style="fill:#382417"
   d="m 123.174,355.59 c -0.933,3.271 0.962,6.68 4.233,7.615 3.272,0.934 6.681,-0.963 7.615,-4.233 0.934,-3.272 -0.961,-6.681 -4.233,-7.614 -3.271,-0.934 -6.68,0.959 -7.615,4.232 z"
   id="path41" />

				<path
   style="fill:#ffffff"
   d="m 126.541,354.982 c -0.257,0.9 0.265,1.84 1.165,2.096 0.9,0.258 1.839,-0.266 2.097,-1.166 0.257,-0.9 -0.264,-1.838 -1.164,-2.096 -0.902,-0.256 -1.84,0.266 -2.098,1.166 z"
   id="path42" />

			</g>

			<path
   style="fill:#e2b586"
   d="m 142.362,369.51 c 0,0 0.73,-4.568 4.914,-3.436 4.341,1.178 2.201,6.004 2.201,6.004 z"
   id="path43" />

			<g
   id="g47">
				<defs
   id="defs43">
					<path
   id="path3"
   d="m 140.177,397.871 c -14.999,-2.824 -14.338,-17.176 -13.343,-23.281 0.244,-1.488 1.722,-2.434 3.169,-2.021 l 30.398,8.68 c 1.457,0.416 2.213,2.012 1.618,3.408 -2.196,5.146 -8.43,15.738 -21.842,13.214 z" />

				</defs>

				<clipPath
   id="clipPath2">
					<use
   xlink:href="#SVGID_00000135664674739120191490000015620846390263678084_"
   style="overflow:visible"
   id="use2" />

				</clipPath>

				<g
   clip-path="url(#SVGID_00000025407708497837215170000013032430034765681836_)"
   id="g45">
					<g
   id="g44">
						<path
   style="fill:#e8a2cc"
   d="m 140.177,397.871 c -14.999,-2.824 -14.338,-17.176 -13.343,-23.281 0.244,-1.488 1.722,-2.434 3.169,-2.021 l 30.398,8.68 c 1.457,0.416 2.213,2.012 1.618,3.408 -2.196,5.146 -8.43,15.738 -21.842,13.214 z"
   id="path44" />

					</g>

				</g>

				<g
   clip-path="url(#SVGID_00000025407708497837215170000013032430034765681836_)"
   id="g46">
					<path
   style="fill:#382417"
   d="m 154.987,394.397 c -7.059,-8.916 -17.387,-15.158 -28.579,-15.559 0.061,-1.625 0.237,-3.086 0.427,-4.248 0.244,-1.488 1.722,-2.434 3.169,-2.021 l 30.398,8.68 c 1.457,0.416 2.213,2.012 1.618,3.408 -1.131,2.648 -3.335,6.736 -7.033,9.74 z"
   id="path45" />

				</g>

			</g>

			<path
   style="fill:#382417"
   d="m 174.96,351.041 c 2.476,0.783 4.223,2.371 6.001,4.215 1.635,1.695 3.322,3.945 3.232,6.387 -0.006,0.198 -0.11,0.916 -0.424,0.885 -0.699,-0.07 -1.05,-0.866 -1.394,-1.428 -0.703,-1.156 -1.622,-2.182 -2.535,-3.17 -1.798,-1.949 -3.645,-3.783 -5.236,-5.905 -0.124,-0.167 0.101,-1.064 0.356,-0.984 z"
   id="path47" />

			<path
   style="fill:#382417"
   d="m 122.407,340.425 c 3.836,-2.554 8.798,-3.993 13.402,-3.472 0.182,0.022 -0.061,0.741 -0.211,0.793 -2.301,0.775 -4.596,1.466 -6.931,2.135 -2.127,0.609 -4.256,1.377 -6.49,1.408 -0.217,0.004 0.113,-0.789 0.23,-0.864 z"
   id="path48" />

			<path
   style="fill:#e5b242"
   d="m 156.017,325.31 c 0.896,2.329 1.879,5.166 3.407,7.423 -1.362,1.445 -2.999,2.596 -4.911,3.242 -5.312,1.793 -8.061,-1.41 -12.378,-3.701 -0.407,-0.218 -1.169,1.027 -1.05,1.371 2.626,7.608 11.417,6.566 16.542,2.438 0.89,-0.717 1.726,-1.523 2.504,-2.395 1.219,1.477 2.75,2.57 4.773,2.871 0.352,0.051 1.217,-1.166 0.902,-1.43 -1.444,-1.199 -2.648,-2.546 -3.682,-4.012 2.494,-3.709 4.02,-8.168 4.042,-12.473 0.03,-5.746 -6.882,-15.236 -11.397,-7.338 -2.549,4.46 -0.445,9.604 1.248,14.004 z m 3.05,-0.015 c -1.229,-3.185 -3.085,-6.639 -3.544,-10.042 -0.892,-6.613 3.68,-5.369 5.702,-2.989 1.074,1.262 1.99,2.641 2.419,4.264 0.572,2.166 0.76,4.416 0.374,6.639 -0.407,2.345 -1.274,4.777 -2.582,6.918 -0.931,-1.488 -1.711,-3.085 -2.369,-4.79 z"
   id="path49" />

		</g>

	</g>
  </g>
</svg>
