<?xml version="1.0" encoding="UTF-8" standalone="no"?>
<!-- Created with Inkscape (http://www.inkscape.org/) -->

<svg
   width="184.68892mm"
   height="451.3992mm"
   viewBox="0 0 184.68892 451.3992"
   version="1.1"
   id="svg1"
   inkscape:version="1.4.2 (f4327f4, 2025-05-13)"
   sodipodi:docname="baby01-0.75.svg"
   xmlns:inkscape="http://www.inkscape.org/namespaces/inkscape"
   xmlns:sodipodi="http://sodipodi.sourceforge.net/DTD/sodipodi-0.dtd"
   xmlns="http://www.w3.org/2000/svg"
   xmlns:svg="http://www.w3.org/2000/svg">
  <sodipodi:namedview
     id="namedview1"
     pagecolor="#ffffff"
     bordercolor="#000000"
     borderopacity="0.25"
     inkscape:showpageshadow="2"
     inkscape:pageopacity="0.0"
     inkscape:pagecheckerboard="0"
     inkscape:deskcolor="#d1d1d1"
     inkscape:document-units="mm"
     inkscape:zoom="0.44094973"
     inkscape:cx="79.374128"
     inkscape:cy="435.42379"
     inkscape:window-width="2880"
     inkscape:window-height="1676"
     inkscape:window-x="-12"
     inkscape:window-y="-12"
     inkscape:window-maximized="1"
     inkscape:current-layer="layer1" />
  <defs
     id="defs1" />
  <g
     inkscape:label="图层 1"
     inkscape:groupmode="layer"
     id="layer1"
     transform="translate(-29.897919,20.637534)">
    <g
       transform="matrix(0.03527778,0,0,-0.03527778,9.2604177,430.78012)"
       fill="#000000"
       stroke="none"
       id="g2">
      <path
         d="m 2970,12794 c -174,-22 -282,-55 -479,-143 -151,-69 -229,-126 -332,-242 -205,-232 -306,-419 -358,-664 -37,-174 -42,-385 -11,-485 28,-91 26,-109 -19,-169 -107,-144 -68,-368 113,-646 49,-75 57,-83 98,-93 55,-14 60,-19 92,-105 33,-88 91,-177 204,-311 l 92,-110 -48,-34 c -120,-85 -246,-143 -530,-238 -309,-105 -429,-165 -543,-271 -96,-90 -206,-283 -269,-475 -40,-120 -56,-189 -75,-323 -8,-61 -28,-180 -45,-265 -40,-212 -47,-279 -60,-545 -17,-343 -30,-436 -89,-616 -53,-163 -64,-206 -86,-334 -32,-194 -40,-297 -39,-555 1,-256 2,-270 32,-420 42,-205 42,-293 0,-516 -24,-129 -31,-199 -32,-294 l -1,-126 43,-100 c 30,-70 66,-131 122,-204 122,-163 128,-168 209,-201 43,-17 92,-46 117,-69 35,-32 51,-40 82,-40 50,0 71,17 82,65 12,49 -1,125 -36,226 -15,41 -28,101 -31,134 l -4,60 22,-40 c 46,-86 94,-110 163,-81 60,25 70,63 62,231 -25,548 -26,557 -82,667 -36,71 -35,79 44,298 30,82 67,226 102,400 41,202 80,362 92,375 6,6 7,4 3,-6 -10,-26 13,-132 58,-274 l 42,-130 v -180 c 0,-205 -5,-239 -80,-555 -74,-312 -83,-364 -100,-619 -9,-123 -19,-229 -22,-235 -4,-6 -7,-215 -8,-466 -1,-441 -2,-461 -29,-655 -31,-225 -30,-271 10,-430 19,-77 27,-143 34,-285 10,-202 13,-224 95,-605 95,-444 111,-500 200,-680 35,-71 80,-169 100,-216 l 36,-86 -83,-79 C 1713,924 1632,843 1584,789 c -24,-26 -66,-57 -100,-74 -84,-40 -208,-168 -254,-260 -28,-58 -35,-84 -38,-151 -4,-71 -1,-87 22,-136 15,-31 34,-62 42,-69 16,-13 95,-39 243,-79 88,-24 174,-26 233,-5 24,8 81,37 127,64 52,32 100,53 129,57 85,12 135,45 309,201 118,106 176,143 293,191 149,61 202,87 247,121 63,46 78,80 76,181 -1,84 -7,115 -73,345 -15,55 -31,114 -35,130 -4,17 -11,264 -15,550 -7,515 -8,521 -34,645 -41,186 -36,263 25,395 61,130 67,160 80,376 13,225 27,281 118,477 96,206 111,264 111,427 0,71 4,135 8,140 4,6 54,10 114,10 h 106 l -5,-85 c -8,-120 15,-224 83,-389 126,-305 136,-343 159,-605 20,-228 27,-260 83,-381 59,-128 64,-179 28,-325 -42,-169 -50,-318 -37,-695 8,-225 8,-370 2,-455 -10,-117 -18,-159 -87,-410 -13,-50 -23,-114 -23,-156 l -1,-71 74,-74 c 89,-90 156,-126 263,-139 97,-13 146,-41 279,-163 145,-132 193,-165 295,-203 51,-19 140,-59 198,-88 140,-71 165,-76 241,-42 49,22 68,26 105,20 39,-5 51,-3 83,19 20,14 54,29 74,32 52,10 93,59 109,130 25,111 -25,278 -108,360 -22,22 -88,68 -146,103 -82,48 -123,81 -184,146 -43,47 -115,117 -161,156 -90,78 -117,118 -108,160 3,16 30,86 59,157 84,200 182,499 242,743 54,219 76,367 85,585 7,161 15,240 36,340 38,185 43,347 15,487 -38,194 -44,291 -30,568 9,198 9,282 0,375 -33,333 -85,632 -177,1018 -52,215 -74,362 -74,492 0,149 36,394 85,578 8,32 15,61 16,65 0,4 11,-51 24,-123 46,-261 126,-549 196,-706 57,-128 58,-187 5,-354 l -38,-120 -9,-269 c -10,-291 -6,-324 37,-376 24,-28 31,-30 90,-30 60,0 64,2 79,30 8,16 15,35 15,43 0,8 9,25 20,38 l 19,24 1,-23 c 0,-27 -11,-76 -51,-221 -39,-139 -38,-193 0,-232 22,-22 39,-29 68,-29 33,0 46,7 82,44 24,25 74,59 110,77 46,23 91,57 147,114 85,85 107,117 130,194 7,26 31,71 53,100 67,89 68,200 5,457 -24,102 -37,183 -41,256 -5,100 -3,117 28,235 l 34,128 v 245 c 0,239 -4,280 -45,555 -10,72 -23,166 -29,210 -5,44 -22,114 -37,155 -100,283 -98,270 -124,650 -15,203 -25,267 -80,495 -26,110 -62,287 -79,393 -68,415 -170,651 -345,793 -90,74 -212,129 -486,219 -259,86 -425,158 -552,242 -43,28 -78,52 -78,54 0,2 26,30 58,62 105,105 192,234 250,367 22,54 36,71 82,102 72,51 147,161 184,273 57,169 46,364 -27,477 l -31,48 -1,215 c -1,198 -3,223 -28,322 -103,411 -361,780 -654,935 -181,96 -377,143 -613,148 -85,2 -171,1 -190,-1 z"
         id="path1" />
    </g>
  </g>
</svg>
