<?xml version="1.0" encoding="UTF-8" standalone="no"?>
<!-- Created with Inkscape (http://www.inkscape.org/) -->

<svg
   width="31.999662mm"
   height="50.183247mm"
   viewBox="0 0 31.999662 50.183246"
   version="1.1"
   id="svg1"
   inkscape:version="1.4.2 (f4327f4, 2025-05-13)"
   sodipodi:docname="baby-3.svg"
   xmlns:inkscape="http://www.inkscape.org/namespaces/inkscape"
   xmlns:sodipodi="http://sodipodi.sourceforge.net/DTD/sodipodi-0.dtd"
   xmlns:xlink="http://www.w3.org/1999/xlink"
   xmlns="http://www.w3.org/2000/svg"
   xmlns:svg="http://www.w3.org/2000/svg">
  <sodipodi:namedview
     id="namedview1"
     pagecolor="#ffffff"
     bordercolor="#000000"
     borderopacity="0.25"
     inkscape:showpageshadow="2"
     inkscape:pageopacity="0.0"
     inkscape:pagecheckerboard="0"
     inkscape:deskcolor="#d1d1d1"
     inkscape:document-units="mm"
     inkscape:zoom="1.2275954"
     inkscape:cx="127.8923"
     inkscape:cy="16.292013"
     inkscape:window-width="2880"
     inkscape:window-height="1676"
     inkscape:window-x="-12"
     inkscape:window-y="-12"
     inkscape:window-maximized="1"
     inkscape:current-layer="layer1" />
  <defs
     id="defs1">
    <clipPath
       id="SVGID_00000088121129661639828090000009030817169387899820_">
					<use
   xlink:href="#SVGID_00000135674649815856159650000014007452505633724579_"
   style="overflow:visible"
   id="use71" />

				</clipPath>
    <clipPath
       id="clipPath1">
					<use
   xlink:href="#SVGID_00000135674649815856159650000014007452505633724579_"
   style="overflow:visible"
   id="use1" />

				</clipPath>
    <path
       id="SVGID_00000135674649815856159650000014007452505633724579_"
       d="m 399.452,117.804 c 15.234,0.932 18.105,-13.146 18.635,-19.311 0.127,-1.501 -1.074,-2.781 -2.578,-2.734 l -31.598,0.976 c -1.514,0.047 -2.637,1.411 -2.402,2.909 0.869,5.529 4.322,17.324 17.943,18.16 z" />
  </defs>
  <g
     inkscape:label="图层 1"
     inkscape:groupmode="layer"
     id="layer1"
     transform="translate(-71.172868,-144.19819)">
    <g
       id="g78"
       transform="matrix(0.26458333,0,0,0.26458333,-18.577324,137.2434)">
		<g
   id="g51">
			<path
   style="clip-rule:evenodd;fill:#f0d0b0;fill-rule:evenodd"
   d="m 454.501,83.757 c -3.713,-3.042 -9.229,-2.529 -12.303,1.223 -3.041,3.713 -2.49,9.259 1.223,12.3 3.715,3.042 9.26,2.491 12.301,-1.222 3.074,-3.751 2.492,-9.259 -1.221,-12.301 z"
   id="path50" />

			<path
   style="clip-rule:evenodd;fill:#e2b586;fill-rule:evenodd"
   d="m 449.784,85.868 c -2.732,-2.237 -6.789,-1.86 -9.049,0.9 -2.238,2.731 -1.832,6.811 0.898,9.048 2.732,2.238 6.813,1.833 9.049,-0.899 2.262,-2.759 1.833,-6.811 -0.898,-9.049 z"
   id="path51" />

		</g>

		<g
   id="g53">
			<path
   style="clip-rule:evenodd;fill:#f0d0b0;fill-rule:evenodd"
   d="m 344.899,83.757 c 3.713,-3.042 9.227,-2.529 12.301,1.223 3.041,3.713 2.492,9.259 -1.223,12.3 -3.713,3.042 -9.258,2.491 -12.3,-1.222 -3.074,-3.751 -2.491,-9.259 1.222,-12.301 z"
   id="path52" />

			<path
   style="clip-rule:evenodd;fill:#e2b586;fill-rule:evenodd"
   d="m 349.616,85.868 c 2.732,-2.237 6.787,-1.86 9.049,0.9 2.238,2.731 1.832,6.811 -0.898,9.048 -2.732,2.238 -6.813,1.833 -9.049,-0.899 -2.262,-2.759 -1.833,-6.811 0.898,-9.049 z"
   id="path53" />

		</g>

		<path
   style="clip-rule:evenodd;fill:#f0d0b0;fill-rule:evenodd"
   d="m 399.671,114.603 -27.871,3.221 c 0,0 -13.998,12.449 -12.635,36.17 0,0 -2.539,2.23 -0.682,8.238 1.797,6.008 20.732,30.008 41.728,29.76 21.059,0.247 38.85,-23.752 40.707,-29.76 1.859,-6.008 -0.68,-8.238 -0.68,-8.238 1.361,-23.721 -12.697,-36.17 -12.697,-36.17 z"
   id="path54" />

		<path
   style="clip-rule:evenodd;fill:#e2b586;fill-rule:evenodd"
   d="m 399.671,157.525 c 0,0 -14.184,-0.186 -19.449,-21.368 0,0 2.355,17.157 2.852,25.518 0.432,8.423 -8.055,11.582 -11.892,5.451 -3.842,-6.133 -8.609,-29.854 -8.609,-29.854 0,0 1.982,17.714 0.434,25.58 -1.549,7.866 8.609,11.954 8.609,11.954 h 28.057 28.119 c 0,0 10.156,-4.088 8.609,-11.954 -1.611,-7.866 0.432,-25.58 0.432,-25.58 0,0 -4.768,23.721 -8.609,29.854 -3.84,6.131 -12.324,2.972 -11.891,-5.451 0.496,-8.361 2.85,-25.518 2.85,-25.518 -5.331,21.182 -19.512,21.368 -19.512,21.368 z"
   id="path55" />

		<path
   style="clip-rule:evenodd;fill:#f0d0b0;fill-rule:evenodd"
   d="m 437.638,161.613 3.281,0.619 c 0,0 13.998,7.433 18.395,21.925 4.336,14.494 -9.103,20.192 -16.475,21.06 -7.369,0.928 -17.404,3.344 -17.404,3.344 0,0 2.107,5.079 -2.848,7.061 -4.955,1.919 -23.846,-4.397 -17.033,-20.625 0,0 1.549,-2.168 4.647,-2.478 0,0 8.857,-7.433 18.457,-11.582 z"
   id="path56" />

		<path
   style="clip-rule:evenodd;fill:#e2b586;fill-rule:evenodd"
   d="m 439.866,161.055 1.053,1.177 0.311,0.186 c 0,0 -3.654,9.848 5.697,13.378 0,0 -9.104,0.929 -17.713,4.522 l -0.248,-0.124 5.08,-13.688 c 2.043,-1.921 4.086,-3.841 5.82,-5.451 z"
   id="path57" />

		<path
   style="clip-rule:evenodd;fill:#e2b586;fill-rule:evenodd"
   d="m 459.686,185.768 c 2.973,13.315 -9.787,18.581 -16.848,19.448 -7.369,0.928 -17.404,3.344 -17.404,3.344 2.479,-4.521 -4.52,-13.316 -4.52,-13.316 3.777,2.23 7.246,5.328 22.42,3.593 14.989,-1.672 16.352,-12.759 16.352,-13.069 z"
   id="path58" />

		<path
   style="clip-rule:evenodd;fill:#f0d0b0;fill-rule:evenodd"
   d="m 363.005,162.852 -4.521,-0.62 c 0,0 -13.998,7.433 -18.396,21.925 -4.397,14.494 9.104,20.192 16.476,21.06 7.369,0.928 17.404,3.344 17.404,3.344 0,0 -2.107,5.079 2.848,7.061 4.955,1.919 23.846,-4.397 17.033,-20.625 0,0 -1.549,-2.168 -4.644,-2.478 0,0 -7.34,-8.811 -16.941,-12.96 z"
   id="path59" />

		<path
   style="clip-rule:evenodd;fill:#e2b586;fill-rule:evenodd"
   d="m 359.536,161.055 -1.053,1.177 -0.311,0.186 c 0,0 3.594,9.848 -5.697,13.378 0,0 0.309,0.062 0.805,0.124 2.479,0.309 11.42,0.545 18.48,3.457 l 0.248,-0.124 -6.65,-12.747 c -2.045,-1.921 -4.088,-3.841 -5.822,-5.451 z"
   id="path60" />

		<path
   style="clip-rule:evenodd;fill:#e2b586;fill-rule:evenodd"
   d="m 339.655,185.768 c -2.974,13.315 9.785,18.581 16.908,19.448 7.369,0.928 17.404,3.344 17.404,3.344 -2.478,-4.521 4.522,-13.316 4.522,-13.316 -3.842,2.23 -7.248,5.328 -22.484,3.593 -14.988,-1.672 -16.288,-12.759 -16.35,-13.069 z"
   id="path61" />

		<path
   style="clip-rule:evenodd;fill:#def3e1;fill-rule:evenodd"
   d="m 359.165,153.994 c 0,0 -2.539,2.23 -0.682,8.238 1.797,6.008 20.732,30.008 41.728,29.76 21.059,0.247 36.082,-14.88 40.707,-29.76 1.867,-6.005 -0.68,-8.238 -0.68,-8.238 0,0 -7.434,21.864 -40.568,20.006 -33.073,1.858 -40.505,-20.006 -40.505,-20.006 z"
   id="path62" />

		<polyline
   style="clip-rule:evenodd;fill:#f0d0b0;fill-rule:evenodd"
   points="391.556,195.298 388.583,175.734 380.161,136.157     368.083,132.131 362.571,137.272 365.915,156.286 373.968,182.423 373.968,182.423   "
   id="polyline62" />

		<polyline
   style="clip-rule:evenodd;fill:#f0d0b0;fill-rule:evenodd"
   points="407.798,195.298 410.819,175.734 419.181,136.157     431.257,132.131 436.831,137.272 433.487,156.286 426.958,184.601   "
   id="polyline63" />

		<path
   style="clip-rule:evenodd;fill:#f0d0b0;fill-rule:evenodd"
   d="m 445.13,76.079 c 5.328,39.144 -11.643,56.672 -45.459,58.096 -33.816,-1.424 -50.726,-18.952 -45.398,-58.096 6.378,-46.761 84.48,-46.761 90.857,0 z"
   id="path63" />

		<path
   style="clip-rule:evenodd;fill:#e2b586;fill-rule:evenodd"
   d="m 437.698,106.49 c -6.256,15.979 -21.059,23.722 -43.045,24.651 -10.281,-0.434 -19.014,-2.354 -26.012,-5.946 7.68,5.574 18.146,8.424 31.029,8.981 21.926,-0.929 36.728,-8.609 42.982,-24.465 2.353,-5.884 3.469,-12.821 3.406,-20.934 0,-3.963 -0.309,-8.175 -0.93,-12.697 -1.918,-13.873 -10.156,-23.659 -20.934,-29.295 8.299,5.822 14.309,14.555 15.918,26.26 0.805,6.132 1.115,11.769 0.867,16.847 -0.308,6.316 -1.423,11.828 -3.281,16.598 z"
   id="path64" />

		<g
   id="g77">
			<g
   id="g67">
				<path
   style="fill:#ffffff"
   d="m 386.796,81.656 c 0.141,4.578 -3.457,8.404 -8.035,8.546 -4.578,0.141 -8.404,-3.456 -8.547,-8.034 -0.141,-4.577 3.457,-8.404 8.035,-8.546 4.578,-0.141 8.404,3.456 8.547,8.034 z"
   id="path65" />

				<path
   style="fill:#382417"
   d="m 385.464,82.228 c 0.105,3.401 -2.565,6.243 -5.967,6.348 -3.4,0.105 -6.242,-2.566 -6.348,-5.968 -0.105,-3.4 2.566,-6.242 5.967,-6.347 3.403,-0.105 6.242,2.567 6.348,5.967 z"
   id="path66" />

				<path
   style="fill:#ffffff"
   d="m 382.349,80.816 c 0.029,0.936 -0.707,1.719 -1.642,1.748 -0.936,0.029 -1.719,-0.707 -1.748,-1.643 -0.027,-0.936 0.707,-1.719 1.644,-1.747 0.935,-0.03 1.716,0.705 1.746,1.642 z"
   id="path67" />

			</g>

			<g
   id="g70">
				<path
   style="fill:#ffffff"
   d="m 427.614,80.395 c 0.141,4.578 -3.455,8.405 -8.033,8.545 -4.578,0.142 -8.404,-3.455 -8.547,-8.033 -0.141,-4.577 3.457,-8.404 8.033,-8.545 4.58,-0.142 8.405,3.454 8.547,8.033 z"
   id="path68" />

				<path
   style="fill:#382417"
   d="m 426.284,80.967 c 0.105,3.401 -2.566,6.242 -5.967,6.348 -3.4,0.105 -6.242,-2.566 -6.348,-5.967 -0.105,-3.4 2.566,-6.242 5.967,-6.347 3.403,-0.106 6.245,2.565 6.348,5.966 z"
   id="path69" />

				<path
   style="fill:#ffffff"
   d="m 423.169,79.554 c 0.029,0.936 -0.707,1.719 -1.642,1.748 -0.936,0.029 -1.719,-0.708 -1.748,-1.643 -0.027,-0.937 0.707,-1.718 1.643,-1.747 0.936,-0.03 1.718,0.706 1.747,1.642 z"
   id="path70" />

			</g>

			<path
   style="fill:#e2b586"
   d="m 404.276,89.769 c 0,0 0.408,-4.608 -3.926,-4.533 -4.496,0.08 -3.603,5.283 -3.603,5.283 z"
   id="path71" />

			<g
   id="g75">
				<defs
   id="defs71">
					<path
   id="path1"
   d="m 399.452,117.804 c 15.234,0.932 18.105,-13.146 18.635,-19.311 0.127,-1.501 -1.074,-2.781 -2.578,-2.734 l -31.598,0.976 c -1.514,0.047 -2.637,1.411 -2.402,2.909 0.869,5.529 4.322,17.324 17.943,18.16 z" />

				</defs>

				<clipPath
   id="clipPath2">
					<use
   xlink:href="#SVGID_00000135674649815856159650000014007452505633724579_"
   style="overflow:visible"
   id="use2" />

				</clipPath>

				<g
   clip-path="url(#SVGID_00000088121129661639828090000009030817169387899820_)"
   id="g73">
					<g
   id="g72">
						<path
   style="fill:#e8a2cc"
   d="m 399.452,117.804 c 15.234,0.932 18.105,-13.146 18.635,-19.311 0.127,-1.501 -1.074,-2.781 -2.578,-2.734 l -31.598,0.976 c -1.514,0.047 -2.637,1.411 -2.402,2.909 0.869,5.529 4.322,17.324 17.943,18.16 z"
   id="path72" />

					</g>

				</g>

				<g
   clip-path="url(#SVGID_00000088121129661639828090000009030817169387899820_)"
   id="g74">
					<path
   style="fill:#382417"
   d="m 385.944,110.81 c 9.025,-6.917 20.566,-10.443 31.518,-8.093 0.338,-1.589 0.525,-3.05 0.625,-4.224 0.127,-1.501 -1.074,-2.781 -2.578,-2.734 l -31.598,0.976 c -1.514,0.047 -2.637,1.411 -2.402,2.909 0.447,2.846 1.584,7.35 4.435,11.166 z"
   id="path73" />

				</g>

			</g>

			<path
   style="fill:#382417"
   d="m 377.186,63.886 c -2.592,0.153 -4.674,1.266 -6.85,2.619 -2,1.243 -4.188,3.011 -4.697,5.4 -0.043,0.195 -0.117,0.916 0.195,0.962 0.695,0.104 1.228,-0.583 1.699,-1.043 0.965,-0.948 2.107,-1.717 3.234,-2.453 2.221,-1.45 4.459,-2.776 6.521,-4.445 0.164,-0.131 0.166,-1.056 -0.102,-1.04 z"
   id="path75" />

			<path
   style="fill:#382417"
   d="m 430.741,66.451 c -3.096,-3.414 -7.555,-6.024 -12.146,-6.646 -0.182,-0.023 -0.123,0.734 0.01,0.82 2.041,1.316 4.098,2.547 6.199,3.766 1.912,1.111 3.789,2.377 5.947,2.954 0.209,0.057 0.084,-0.792 -0.01,-0.894 z"
   id="path76" />

			<path
   style="fill:#e5b242"
   d="m 406.487,30.299 c -2.447,-8.763 -11.471,-1.253 -12.848,4.326 -1.031,4.181 -0.642,8.876 0.867,13.083 -1.361,1.168 -2.857,2.179 -4.551,2.989 -0.369,0.177 0.17,1.57 0.525,1.606 2.035,0.205 3.787,-0.482 5.328,-1.615 0.543,1.035 1.156,2.021 1.844,2.934 3.959,5.258 12.228,8.417 16.635,1.685 0.199,-0.305 -0.234,-1.698 -0.682,-1.587 -4.748,1.166 -8.197,3.599 -12.906,0.56 -1.697,-1.094 -3.002,-2.61 -3.969,-4.345 2.033,-1.814 3.682,-4.325 5.119,-6.363 2.72,-3.853 6.019,-8.326 4.638,-13.273 z m -11.06,16.575 c -0.742,-2.396 -0.988,-4.966 -0.811,-7.339 0.17,-2.249 0.902,-4.385 1.988,-6.346 0.813,-1.468 2.037,-2.58 3.389,-3.542 2.543,-1.812 7.279,-1.899 4.797,4.294 -1.277,3.188 -3.922,6.081 -5.895,8.869 -1.054,1.493 -2.201,2.85 -3.468,4.064 z"
   id="path77" />

		</g>

	</g>
  </g>
</svg>
