<?xml version="1.0" encoding="UTF-8" standalone="no"?>
<!-- Created with Inkscape (http://www.inkscape.org/) -->

<svg
   width="18.170748mm"
   height="77.709137mm"
   viewBox="0 0 18.170748 77.709138"
   version="1.1"
   id="svg1"
   inkscape:version="1.4.2 (f4327f4, 2025-05-13)"
   sodipodi:docname="genwoman6.svg"
   xmlns:inkscape="http://www.inkscape.org/namespaces/inkscape"
   xmlns:sodipodi="http://sodipodi.sourceforge.net/DTD/sodipodi-0.dtd"
   xmlns="http://www.w3.org/2000/svg"
   xmlns:svg="http://www.w3.org/2000/svg">
  <sodipodi:namedview
     id="namedview1"
     pagecolor="#ffffff"
     bordercolor="#000000"
     borderopacity="0.25"
     inkscape:showpageshadow="2"
     inkscape:pageopacity="0.0"
     inkscape:pagecheckerboard="0"
     inkscape:deskcolor="#d1d1d1"
     inkscape:document-units="mm"
     inkscape:zoom="1.2275954"
     inkscape:cx="-85.533067"
     inkscape:cy="-52.134441"
     inkscape:window-width="2880"
     inkscape:window-height="1676"
     inkscape:window-x="-12"
     inkscape:window-y="-12"
     inkscape:window-maximized="1"
     inkscape:current-layer="layer1" />
  <defs
     id="defs1" />
  <g
     inkscape:label="图层 1"
     inkscape:groupmode="layer"
     id="layer1"
     transform="translate(-127.52889,-162.18931)">
    <path
       d="m 144.61478,195.37059 c 0.29342,0.16827 0.66463,-0.12806 0.74718,-0.45614 0.0823,-0.32809 -0.006,-0.67337 0.0111,-1.01124 0.0238,-0.4572 0.24157,-0.89429 0.21802,-1.35149 -0.018,-0.3474 -0.17357,-0.67046 -0.30797,-0.9914 -1.04537,-2.49634 -0.90726,-5.32315 -0.51303,-8.00073 0.39423,-2.67758 1.02843,-5.34829 0.91652,-8.05259 -0.007,-0.16722 -0.0212,-0.34634 -0.12595,-0.47652 -0.0905,-0.11218 -0.23204,-0.16748 -0.3675,-0.21669 -0.59796,-0.21749 -1.20544,-0.40773 -1.82007,-0.57177 -0.1815,-0.4183 -0.29977,-0.87127 -0.36513,-1.3208 -0.14234,-0.98081 -0.0878,-1.98093 -0.20769,-2.96465 -0.21643,-1.77642 -0.99087,-3.42953 -1.75472,-5.04772 -0.23971,-0.50774 -0.48498,-1.02394 -0.86492,-1.43722 -0.41381,-0.45006 -0.9615,-0.75036 -1.50469,-1.03055 -0.48498,-0.2503 -0.84693,-0.35243 -1.35123,-0.12621 -0.36062,0.16193 -0.47228,-0.0294 -0.83529,-0.0408 -0.89296,-0.028 -1.7989,0.95118 -2.25451,1.6137 -0.40852,0.59372 -0.71755,1.24883 -1.02473,1.90077 -0.41857,0.8882 -0.83688,1.77614 -1.25545,2.66435 -0.3175,0.67389 -0.64188,1.37848 -0.62653,2.12328 0.0132,0.64294 0.36433,1.32027 0.93265,1.57374 -0.0288,0.23336 -0.0664,0.4654 -0.11774,0.69533 -0.0817,0.36539 -0.19526,0.72337 -0.28654,1.08611 -0.72125,0.004 -1.5285,0.22437 -2.22964,0.31512 -0.13494,0.0175 -0.27702,0.0378 -0.38497,0.12065 -0.1016,0.0778 -0.15822,0.19976 -0.20823,0.31776 -0.88027,2.0828 -0.85646,4.42066 -0.81836,6.68153 0.0619,3.69332 0.12409,7.38664 0.18601,11.07995 0.0259,1.55073 0.0331,3.18268 -0.71544,4.54131 -0.10477,0.18997 -0.22436,0.4236 -0.11139,0.60881 0.0593,0.0968 0.16828,0.14975 0.27305,0.19394 0.12965,0.0545 0.26221,0.1016 0.39609,0.14473 -0.0355,0.3122 -0.0709,0.62441 -0.10663,0.93636 -0.0651,0.57202 -0.13018,1.14987 -0.0656,1.7219 0.0439,0.38815 0.14711,0.76809 0.18759,1.15676 0.0434,0.41672 0.014,0.83847 0.0585,1.25519 0.0415,0.3884 0.14685,0.76702 0.25162,1.14352 0.0759,0.27253 0.15664,0.55431 0.34026,0.76941 0.11403,0.13362 0.26141,0.23389 0.40693,0.33232 0.27754,0.18785 0.55536,0.37571 0.8329,0.5633 0.0447,-0.0966 0.0894,-0.19579 0.12965,-0.2966 0.05,2.26086 -0.0648,4.52543 -0.35031,6.76883 0.33205,0.2212 0.70353,0.35746 1.09114,0.45033 0.24554,5.40676 0.32544,10.83071 2.12593,15.89616 0.22172,0.62389 0.4699,1.24301 0.59399,1.89336 0.38179,2.0021 -0.44291,4.01373 -0.70617,6.03462 -0.0775,0.59531 -0.1024,1.22131 0.13044,1.77456 0.23283,0.55324 0.78502,1.01071 1.38324,0.96096 0.94377,-0.0786 1.35758,-1.20729 1.55522,-2.1336 0.39211,-1.83885 0.78211,-3.76819 0.25929,-5.57424 -0.18494,-0.63817 -0.47969,-1.24169 -0.64241,-1.88595 -0.20452,-0.81042 -0.19288,-1.65735 -0.18018,-2.4929 0.0572,-3.76185 0.11457,-7.52369 0.17172,-11.28554 0.0124,-0.81968 0.0249,-1.63936 0.0373,-2.45904 0.002,-0.0995 0.003,-0.19896 0.005,-0.29845 0.67654,0.0312 1.35335,0.0484 2.03015,0.0402 0.0317,0.56594 0.0815,1.13056 0.16087,1.69201 0.16589,1.17554 0.45852,2.33336 0.55562,3.51631 0.13679,1.66847 -0.118,3.34381 -0.11324,5.01783 0.004,1.49701 0.21617,2.99138 0.14552,4.48654 -0.16219,3.43244 -1.78779,6.60691 -2.60059,9.94568 -0.12832,0.52785 -0.21934,1.14142 0.11933,1.56607 0.16986,0.21299 0.42677,0.34211 0.69056,0.40905 1.25783,0.31908 2.52201,-0.71914 2.98715,-1.9304 0.46487,-1.21153 0.36433,-2.55297 0.39317,-3.85022 0.11139,-5.00062 2.23229,-9.77477 2.50058,-14.76931 0.0871,-1.61792 -0.022,-3.23955 -0.014,-4.85986 0.004,-0.74242 0.0349,-1.48431 0.0865,-2.22488 0.0804,-0.0564 0.15267,-0.12171 0.19871,-0.2077 0.0659,-0.12303 0.0712,-0.26829 0.0765,-0.40799 0.0934,-2.45613 0.64294,-4.86833 1.03875,-7.29403 0.27887,-1.11496 0.40244,-2.34633 0.42387,-3.55283 0.35771,-0.0953 0.69638,-0.24659 1.0033,-0.47466 0.0788,-0.0585 0.15689,-0.12488 0.19526,-0.21511 0.0545,-0.12805 0.0177,-0.27437 -0.0193,-0.40825 -0.39528,-1.42557 -0.60166,-2.85035 -0.99668,-4.27434 z m -12.26317,-25.1796 c -0.004,0.47148 -0.008,0.94509 -0.0405,1.41578 -0.10292,-0.12118 -0.18917,-0.25453 -0.24447,-0.40428 -0.13203,-0.35692 -0.0431,-0.81889 0.28496,-1.0115 z m -0.42492,0.97102 c 0.0865,0.20479 0.21748,0.3892 0.37703,0.54398 -0.007,0.0897 -0.0148,0.17939 -0.0241,0.26882 -0.18838,-0.23284 -0.31459,-0.51594 -0.35295,-0.8128 z m -2.28283,27.00761 c 0.0929,0.002 0.18574,0.003 0.27887,2.6e-4 -0.005,0.0937 -0.01,0.18733 -0.0146,0.28072 -0.0476,0.26617 -0.0773,0.53578 -0.0841,0.80804 -0.004,0.15584 -0.001,0.31168 0.006,0.46726 -0.0225,0.31697 -0.0508,0.63367 -0.078,0.95064 -0.086,-0.19711 -0.16378,-0.39661 -0.21114,-0.6051 -0.14234,-0.62521 -0.0116,-1.26365 0.10266,-1.90182 z m 0.53208,5.16016 c 0.0193,0.27517 0.0378,0.55034 0.0521,0.82577 -0.0699,-0.26882 -0.0733,-0.54531 -0.0521,-0.82577 z"
       id="path2"
       style="stroke-width:0.264583" />
  </g>
</svg>
