<?xml version="1.0" encoding="UTF-8" standalone="no"?>
<!-- Created with Inkscape (http://www.inkscape.org/) -->

<svg
   width="23.029737mm"
   height="76.066032mm"
   viewBox="0 0 23.029737 76.066033"
   version="1.1"
   id="svg1"
   inkscape:version="1.4.2 (f4327f4, 2025-05-13)"
   sodipodi:docname="genman4.svg"
   xmlns:inkscape="http://www.inkscape.org/namespaces/inkscape"
   xmlns:sodipodi="http://sodipodi.sourceforge.net/DTD/sodipodi-0.dtd"
   xmlns="http://www.w3.org/2000/svg"
   xmlns:svg="http://www.w3.org/2000/svg">
  <sodipodi:namedview
     id="namedview1"
     pagecolor="#ffffff"
     bordercolor="#000000"
     borderopacity="0.25"
     inkscape:showpageshadow="2"
     inkscape:pageopacity="0.0"
     inkscape:pagecheckerboard="0"
     inkscape:deskcolor="#d1d1d1"
     inkscape:document-units="mm"
     inkscape:zoom="1.2275954"
     inkscape:cx="285.11022"
     inkscape:cy="35.027828"
     inkscape:window-width="2880"
     inkscape:window-height="1676"
     inkscape:window-x="-12"
     inkscape:window-y="-12"
     inkscape:window-maximized="1"
     inkscape:current-layer="layer1" />
  <defs
     id="defs1" />
  <g
     inkscape:label="图层 1"
     inkscape:groupmode="layer"
     id="layer1"
     transform="translate(-29.633336,-139.17076)">
    <path
       d="m 52.649705,212.58771 c -0.0553,-0.22913 -0.265642,-0.38392 -0.469636,-0.50218 -0.440002,-0.25533 -0.919162,-0.43762 -1.361016,-0.68977 -0.620448,-0.35454 -1.155436,-0.84032 -1.659467,-1.347 -0.170656,-0.17171 -0.339196,-0.34713 -0.501915,-0.52784 0.07012,-0.0408 0.142346,-0.0775 0.210344,-0.12171 -0.307181,-0.79878 -0.551391,-1.62189 -0.729721,-2.45904 -0.0717,-0.33655 -0.132556,-0.68738 -0.05292,-1.02208 0.08202,-0.34449 0.3048,-0.63844 0.419629,-0.9734 0.164571,-0.48102 0.09551,-1.00568 0.0426,-1.5113 -0.257969,-2.4601 -0.08864,-4.94295 0.08096,-7.41072 0.03096,-0.44952 0.06324,-0.90567 0.212725,-1.33059 0.10504,-0.29871 0.269611,-0.60245 0.207698,-0.91281 -0.04207,-0.20981 -0.182033,-0.38391 -0.283898,-0.57203 -0.312737,-0.57785 -0.259821,-1.27635 -0.198702,-1.9304 0.365919,-3.91583 0.731838,-7.83167 1.097756,-11.7475 0.4445,-0.39634 0.825236,-0.89059 1.179778,-1.37186 -0.168805,-0.26723 -0.322792,-0.54187 -0.467255,-0.82074 0.283898,-0.23998 0.454555,-0.5969 0.525198,-0.96361 0.0082,-0.0429 0.01058,-0.086 0.01614,-0.12886 0.235744,0.11034 0.486833,0.19289 0.758825,0.23257 -0.487363,-0.47016 -0.233363,-1.47769 -0.248708,-2.15476 -0.04048,-1.76874 -0.0807,-3.53775 -0.12118,-5.30649 -0.0064,-0.27463 -0.01032,-0.56065 0.105834,-0.80962 0.04392,-0.0942 0.10451,-0.18124 0.136525,-0.2802 0.07011,-0.21775 -0.0077,-0.45217 -0.07911,-0.66913 -0.241564,-0.73316 -0.418306,-1.48775 -0.52705,-2.25187 -0.05292,-0.372 -0.08916,-0.75617 0.0069,-1.11918 0.0545,-0.20558 0.150813,-0.40164 0.172773,-0.61331 0.02699,-0.25849 -0.05927,-0.51408 -0.142081,-0.76041 -0.974989,-2.89745 -1.674812,-5.88777 -2.086769,-8.91699 -1.348316,-0.44026 -2.670439,-0.96123 -3.956579,-1.55945 -0.897466,-0.41751 -1.892564,-1.03293 -1.981993,-2.01877 -0.04815,-0.006 -0.09631,-0.0124 -0.144463,-0.0188 0.0082,-0.32755 -0.01005,-0.70088 -0.01588,-1.4269 0.417777,-0.31908 0.716227,-0.7911 0.825235,-1.30518 0.01852,-0.0868 0.03202,-0.17622 0.07276,-0.25506 0.04366,-0.0847 0.115358,-0.15108 0.182033,-0.21908 0.308504,-0.31459 0.53975,-0.70458 0.667279,-1.12633 0.08308,-0.27464 0.104775,-0.61621 -0.110595,-0.80592 5.29e-4,-0.77391 7.93e-4,-1.54781 0.0013,-2.32198 0,-0.13759 -5.29e-4,-0.27887 -0.04868,-0.40773 -0.05715,-0.1524 -0.174889,-0.27225 -0.275167,-0.40031 -0.315118,-0.40243 -0.472016,-0.92551 -0.430212,-1.4351 -0.21934,0.0191 -0.442648,0.0378 -0.65749,-0.0106 -0.214841,-0.0484 -0.423333,-0.17569 -0.51382,-0.37624 -0.02514,-0.0558 -0.04313,-0.11906 -0.09075,-0.15716 -0.08281,-0.0662 -0.203729,-0.0233 -0.309297,-0.0307 -0.225161,-0.0156 -0.364067,-0.25717 -0.572559,-0.34316 -0.403754,-0.16616 -0.940064,0.28231 -1.264444,-0.0101 -0.04657,-0.0421 -0.08202,-0.0963 -0.132027,-0.13441 -0.148431,-0.11298 -0.360891,-0.0489 -0.530754,0.028 -0.851694,0.38603 -1.600993,0.9951 -2.152914,1.74969 -0.08229,0.11271 -0.162454,0.23336 -0.185473,0.37095 -0.02117,0.12673 0.0074,0.26141 -0.03836,0.38126 -0.05927,0.15531 -0.233362,0.25771 -0.253471,0.42254 -0.01164,0.0939 0.03096,0.18468 0.05371,0.27623 0.0799,0.32067 -0.07858,0.64611 -0.143934,0.97022 -0.09578,0.4744 0.01931,0.98743 0.308505,1.37584 -0.136261,-0.0109 -0.261409,0.091 -0.320411,0.21405 -0.059,0.12329 -0.06535,0.26431 -0.06826,0.40084 -0.009,0.41857 0.0061,0.84746 0.159279,1.23719 0.153194,0.38973 0.467519,0.73739 0.876035,0.82973 0.07144,0.0161 0.131234,0.92525 0.142611,1.02923 0.03307,0.30295 0.01349,0.64453 0.09737,0.93848 0.0217,0.0762 0.05741,0.14658 0.09657,0.21537 -1.577975,1.35255 -3.367881,2.45772 -5.287433,3.25438 -0.639763,0.26564 -1.299633,0.50059 -1.878012,0.88185 -0.113507,0.0749 -0.231775,0.16695 -0.261673,0.29978 -0.02223,0.0992 0.0098,0.20187 0.04233,0.29845 0.166687,0.49556 0.347133,1.06415 0.08361,1.51579 -0.121443,0.20797 -0.328612,0.36777 -0.397933,0.59849 -0.04445,0.14764 -0.02593,0.30586 -0.01164,0.45932 0.07699,0.82682 0.01984,1.66581 -0.168539,2.47465 -0.05239,0.22436 -0.114036,0.46407 -0.03228,0.67971 0.05768,0.15187 0.182562,0.27702 0.210608,0.43683 0.05953,0.33761 -0.316971,0.57838 -0.456142,0.89164 -0.09578,0.21511 -0.07488,0.46144 -0.05874,0.69639 0.112448,1.63883 -0.09155,3.28189 -0.329936,4.90696 0.184679,0.0296 0.341842,0.18679 0.371211,0.37147 0.02937,0.18468 -0.07091,0.38286 -0.237332,0.46858 -0.141287,0.65881 0.410898,1.25783 0.555625,1.91585 0.07435,0.3384 0.04763,0.69982 0.176742,1.02156 0.0635,0.15795 0.16219,0.29977 0.226219,0.45746 0.127529,0.31432 0.108744,0.66569 0.100012,1.00489 -0.01482,0.56726 0.0042,1.13532 0.05662,1.70047 0.03307,0.35719 0.0799,0.71411 0.172244,1.06072 0.304271,1.14459 1.089289,2.1291 1.3081,3.293 0.164835,-0.17224 0.337608,-0.33708 0.513556,-0.49821 0.257969,0.45879 0.588698,0.86149 0.934508,1.11152 0.07594,0.055 0.157163,0.10398 0.240771,0.14737 -0.15531,0.37042 -0.352689,0.72205 -0.599546,1.04378 0.196321,0.10451 0.404813,0.17251 0.61939,0.21881 -0.04736,0.13362 -0.05741,0.28072 -0.06403,0.42413 -0.172508,3.73512 -0.344752,7.46998 -0.517261,11.2051 -0.02196,0.47546 -0.04286,0.96044 0.08546,1.41896 0.05768,0.20611 0.145785,0.40799 0.151342,0.6223 0.005,0.19844 -0.06138,0.39053 -0.116682,0.58103 -0.236273,0.81703 -0.273579,1.6764 -0.309298,2.52624 -0.09022,2.14286 -0.180181,4.28572 -0.270404,6.42858 -0.0127,0.30004 -0.02857,0.61251 -0.172773,0.87604 -0.08625,0.15716 -0.214577,0.28971 -0.288396,0.45323 -0.185208,0.41037 0.01588,0.87974 0.171715,1.30201 0.530754,1.43801 0.532077,3.00911 0.52705,4.54184 0.06694,0.003 0.133615,0.006 0.200554,0.009 -0.354541,0.60193 -0.844285,1.13136 -1.357048,1.61316 -0.327818,0.30798 -0.6731,0.61013 -0.901435,0.99775 -0.206904,0.3511 -0.306388,0.75327 -0.403225,1.14908 -0.02434,0.0998 -0.04789,0.20982 -5.29e-4,0.3011 0.03069,0.059 0.08678,0.10028 0.144198,0.13388 0.201612,0.118 0.436033,0.16483 0.666221,0.20373 0.250031,0.0426 0.503502,0.0783 0.756443,0.063 0.330729,-0.0198 0.649552,-0.12568 0.963613,-0.23072 0.325966,-0.10901 0.653785,-0.21881 0.956733,-0.381 0.313267,-0.16801 0.5969,-0.39158 0.833438,-0.65696 0.13917,-0.15637 0.271197,-0.33364 0.465137,-0.41248 0.11721,-0.0476 0.246327,-0.054 0.371475,-0.0736 0.321998,-0.0505 0.628915,-0.19394 0.874183,-0.40851 0.0381,-0.0333 0.07594,-0.0699 0.0971,-0.11589 0.02699,-0.0587 0.02461,-0.12621 0.02143,-0.19077 -0.0344,-0.7194 -0.07329,-1.4388 -0.134144,-2.15635 0.383117,-0.29316 0.629708,-0.7837 0.83529,-1.23931 0.06588,-0.14578 0.133085,-0.30771 0.08784,-0.46117 -0.05001,-0.16986 -0.221191,-0.27278 -0.31406,-0.42386 -0.138906,-0.22543 -0.08361,-0.51462 -0.02408,-0.77258 0.286543,-1.23958 0.573087,-2.47889 0.859896,-3.71819 0.08308,-0.35904 0.166422,-0.72152 0.173566,-1.09009 0.0069,-0.35216 -0.05636,-0.70141 -0.09472,-1.05145 -0.07885,-0.71834 -0.05398,-1.44357 -0.02143,-2.16535 0.217488,-4.82441 0.773642,-9.63322 1.663171,-14.37984 0.147108,-0.78502 0.304535,-1.57268 0.585523,-2.32066 0.186266,-0.49583 0.426773,-0.97922 0.632619,-1.46976 0.380735,2.65827 1.17131,5.27473 1.513416,7.94782 0.222515,1.73752 0.254,3.49329 0.285221,5.24457 0.03757,2.10846 0.07514,4.21693 0.112713,6.32539 0.01799,1.00251 0.03281,2.02645 -0.272521,2.98133 -0.08017,0.25082 -0.182827,0.51646 -0.109273,0.76914 0.155046,0.53287 0.976048,0.65987 1.093258,1.20227 -0.224896,-0.09 -0.488421,0.0624 -0.605896,0.27437 -0.117475,0.21193 -0.126206,0.46514 -0.132027,0.7075 -0.0217,0.88767 -0.0029,1.88251 0.625475,2.5101 0.02937,0.0294 0.06456,0.0516 0.09578,0.0786 -5.29e-4,0.002 -0.0011,0.003 -0.0013,0.005 -0.153722,0.6395 -0.223308,1.29937 -0.205845,1.95686 0.0029,0.10927 0.0093,0.22251 0.05847,0.32015 0.08493,0.16854 0.276225,0.25241 0.457993,0.30294 0.580496,0.16087 1.194859,0.11007 1.797315,0.10663 0.602456,-0.003 1.236662,0.0524 1.736196,0.3892 0.402166,0.2712 0.686064,0.70618 1.121833,0.91917 0.38444,0.18811 0.832379,0.17674 1.259946,0.15901 0.627856,-0.0259 1.263914,-0.059 1.861873,-0.25135 0.202141,-0.0651 0.403489,-0.15135 0.555095,-0.29951 0.151342,-0.1487 0.245798,-0.36989 0.196057,-0.57626 z m -3.250406,-37.74996 c 0.0021,0.003 0.0045,0.006 0.0066,0.01 -5.29e-4,0.003 -0.0011,0.005 -0.0016,0.008 -0.0016,-0.006 -0.0034,-0.0116 -0.005,-0.0175 z"
       id="path1"
       style="stroke-width:0.264583" />
  </g>
</svg>
