<?xml version="1.0" encoding="UTF-8" standalone="no"?>
<!-- Created with Inkscape (http://www.inkscape.org/) -->

<svg
   width="28.734966mm"
   height="111.54366mm"
   viewBox="0 0 28.734966 111.54367"
   version="1.1"
   id="svg1"
   inkscape:version="1.4.2 (f4327f4, 2025-05-13)"
   sodipodi:docname="generic_woman02-1.62.svg"
   xmlns:inkscape="http://www.inkscape.org/namespaces/inkscape"
   xmlns:sodipodi="http://sodipodi.sourceforge.net/DTD/sodipodi-0.dtd"
   xmlns="http://www.w3.org/2000/svg"
   xmlns:svg="http://www.w3.org/2000/svg">
  <sodipodi:namedview
     id="namedview1"
     pagecolor="#ffffff"
     bordercolor="#000000"
     borderopacity="0.25"
     inkscape:showpageshadow="2"
     inkscape:pageopacity="0.0"
     inkscape:pagecheckerboard="0"
     inkscape:deskcolor="#d1d1d1"
     inkscape:document-units="mm"
     inkscape:zoom="1.2275954"
     inkscape:cx="-202.02096"
     inkscape:cy="1.6292013"
     inkscape:window-width="2880"
     inkscape:window-height="1676"
     inkscape:window-x="-12"
     inkscape:window-y="-12"
     inkscape:window-maximized="1"
     inkscape:current-layer="layer1" />
  <defs
     id="defs1" />
  <g
     inkscape:label="图层 1"
     inkscape:groupmode="layer"
     id="layer1"
     transform="translate(-160.92696,-209.23759)">
    <g
       id="g912"
       stroke="#000000"
       stroke-width="1pt"
       transform="matrix(0.26458333,0,0,0.26458333,150.95349,206.22058)">
      <g
         id="g910"
         transform="translate(5,-17.5)">
        <path
           id="path919"
           fill-rule="evenodd"
           fill="#f0f0f0"
           d="M 89.312,34.053 C 87.82,33.986 77.095,33.95 72.058,43.147 c -3.818,11.06 -4.425,27.984 3.594,34.965 0.596,3.269 0.581,6.979 -0.719,9.424 -8.722,8.217 -25.12,5.202 -31.795,11.228 -11.418,13.306 -9.231,80.746 -7.397,85.266 -6.826,18.13 3.233,50.71 3.509,61 2.338,7 -0.902,19.06 8.844,28.44 -0.563,-7.53 -1.215,-17.23 -1.933,-28 -0.718,-10.77 0.964,-27.33 3.317,-39.47 -0.946,-5.42 2.207,-16.55 0.053,-21.58 4.444,-7.91 5.219,-36.68 1.938,-48.42 5.351,12.23 8.314,34.95 8.955,44.71 -23.836,33.3 -13.463,104.55 1.201,153.7 -10.992,39.69 0.58,69.46 1.375,91.71 5.743,2.88 -6.527,18.3 -4.281,20.44 4.307,5.03 16.606,3.66 19.187,-0.22 1.344,-2.64 -2.087,-8.72 -1.156,-13.03 -0.306,-4.31 0.062,-12.88 0.062,-16.47 0,-3.59 9.021,-60.35 3.719,-75.59 1.679,-4.9 3.889,-13.96 1.75,-21.66 1.397,-6.87 4.374,-77.41 3.657,-83.87 -0.017,-0.15 0.128,-2.09 0.124,-2.38 -0.005,0.19 0.106,1.65 0.094,1.75 -0.718,6.47 3.577,69.94 1.438,76.82 -2.139,7.69 -1.679,23.81 0,28.71 -5.744,8.62 -0.719,68.92 -0.719,72.5 0,3.59 -1.851,14.35 -2.156,18.66 0.931,4.31 -2.063,11.73 -0.719,14.38 2.581,3.88 16.19,3.9 20.5,-1.13 2.25,-2.14 -10.462,-17.53 -4.719,-20.41 0.799,-22.25 14.169,-51.59 10.689,-90.84 14.66,-49.15 24.59,-120.4 2.97,-153.25 0.64,-9.76 6.25,-33.37 7.18,-45.15 -1.95,11.3 0.56,42.24 5,50.15 -2.15,5.03 -1.17,13.98 -2.12,19.41 2.35,10.37 3.56,28.7 2.84,39.47 -0.71,10.77 -1.78,20.87 -2.34,28.4 9.75,-9.37 6.47,-21.41 8.81,-28.4 0.28,-10.3 12.58,-42.91 5.75,-61.03 1.84,-4.53 3.11,-64.87 -5.22,-77.29 C 126.67,96.974 108.5,94.686 99.781,86.469 98.481,84.024 98.466,78.957 99.062,75.688 107.08,68.707 106.47,54.466 102.66,43.406 98.273,35.402 93.846,34.26 89.312,34.053 Z" />
        <path
           id="path922"
           fill="none"
           d="m 65.849,233.95 c 14.142,5.3 21.214,1.33 21.214,-6.63 -0.442,10.17 11.048,10.17 19.447,7.51" />
      </g>
      <path
         id="path911"
         fill-rule="evenodd"
         fill="#808080"
         d="M 72.944,65.387 C 69.628,57.335 69.155,33.178 74.839,21.81 81.47,9.968 103.73,8.074 109.42,20.863 c 7.1,16.104 6.15,37.893 3.31,44.05 -6.16,-0.947 -34.576,-5.684 -39.786,0.474 z" />
    </g>
  </g>
</svg>
