<?xml version="1.0" encoding="UTF-8" standalone="no"?>
<!-- Created with Inkscape (http://www.inkscape.org/) -->

<svg
   width="24.509415mm"
   height="76.887367mm"
   viewBox="0 0 24.509415 76.887369"
   version="1.1"
   id="svg1"
   inkscape:version="1.4.2 (f4327f4, 2025-05-13)"
   sodipodi:docname="genman7.svg"
   xmlns:inkscape="http://www.inkscape.org/namespaces/inkscape"
   xmlns:sodipodi="http://sodipodi.sourceforge.net/DTD/sodipodi-0.dtd"
   xmlns="http://www.w3.org/2000/svg"
   xmlns:svg="http://www.w3.org/2000/svg">
  <sodipodi:namedview
     id="namedview1"
     pagecolor="#ffffff"
     bordercolor="#000000"
     borderopacity="0.25"
     inkscape:showpageshadow="2"
     inkscape:pageopacity="0.0"
     inkscape:pagecheckerboard="0"
     inkscape:deskcolor="#d1d1d1"
     inkscape:document-units="mm"
     inkscape:zoom="1.2275954"
     inkscape:cx="53.763642"
     inkscape:cy="-48.061438"
     inkscape:window-width="2880"
     inkscape:window-height="1676"
     inkscape:window-x="-12"
     inkscape:window-y="-12"
     inkscape:window-maximized="1"
     inkscape:current-layer="layer1" />
  <defs
     id="defs1" />
  <g
     inkscape:label="图层 1"
     inkscape:groupmode="layer"
     id="layer1"
     transform="translate(-90.488706,-161.13025)">
    <path
       d="m 114.59362,184.27266 c -0.14208,-0.15266 0.0683,-0.39185 0.0426,-0.59901 -0.0116,-0.0947 -0.0733,-0.17436 -0.1143,-0.26035 -0.127,-0.2667 -0.0336,-0.61913 0.20875,-0.7882 -0.26193,-0.186 -0.35824,-0.53446 -0.35374,-0.85566 0.004,-0.3212 0.0905,-0.63606 0.11138,-0.95647 0.0273,-0.41645 -0.0556,-0.83132 -0.13811,-1.24037 -0.13335,-0.66119 -0.26643,-1.32265 -0.39978,-1.98411 -0.0167,-0.0825 -0.0352,-0.16933 -0.09,-0.23336 -0.0474,-0.0553 -0.11615,-0.0868 -0.18256,-0.11668 -1.72376,-0.77761 -3.39884,-1.6637 -5.01174,-2.65113 -0.40085,-0.24526 -0.80407,-0.50244 -1.11125,-0.85777 -0.30718,-0.3556 -0.51038,-0.82868 -0.43974,-1.29329 -0.1225,-0.0373 -0.245,-0.0746 -0.36724,-0.11192 0.0122,-0.51276 0.0336,-1.03055 0.18732,-1.51897 0.19897,-0.63182 0.60484,-1.17396 0.91679,-1.75868 0.37941,-0.7112 0.61939,-1.48696 0.85725,-2.25716 0.11774,-0.38153 0.23653,-0.76862 0.2495,-1.16761 0.0111,-0.33708 -0.0661,-0.65326 -0.23892,-0.94245 -0.004,-0.006 -0.007,-0.0127 -0.0111,-0.0191 10e-4,-7.9e-4 0.003,-7.9e-4 0.005,-0.002 0.0995,-0.0672 0.0923,-0.20109 0.10424,-0.31565 0.0352,-0.33946 -0.0418,-0.68078 -0.19658,-0.98346 -0.19235,-0.37597 -0.4908,-0.68765 -0.81518,-0.95805 -0.36962,-0.30798 -0.7964,-0.57627 -1.27371,-0.63421 -0.0979,-0.0119 -0.19685,-0.0148 -0.29395,-0.031 -0.12806,-0.0214 -0.25109,-0.0659 -0.37438,-0.10768 -1.45548,-0.49266 -3.03213,-0.6231 -4.54872,-0.37677 -0.38179,0.0619 -0.7665,0.15002 -1.1004,0.34502 0.0786,-0.0413 0.17251,0.0487 0.17542,0.13732 0.003,0.0886 -0.0492,0.16827 -0.0894,0.24738 -0.12383,0.24421 -0.14394,0.52599 -0.16166,0.79931 0.12964,-0.0511 0.2278,0.14578 0.18309,0.27807 -0.0447,0.13203 -0.15637,0.23998 -0.17251,0.37836 -0.0257,0.22304 0.19923,0.38973 0.27464,0.60113 0.0595,0.16748 0.0145,0.36724 -0.11113,0.49292 0.0296,0.10822 0.0958,0.19897 0.17913,0.27384 -0.21352,0.57177 -0.40455,1.15359 -0.606694,1.72932 -0.02328,0.0664 -0.04683,0.13732 -0.03016,0.20558 0.0127,0.0521 0.0471,0.0955 0.07699,0.13997 0.193144,0.28681 0.213524,0.66648 0.111124,0.99695 -0.102392,0.33046 -0.315117,0.61648 -0.557211,0.86333 -0.0299,0.0304 -0.06138,0.0619 -0.07673,0.1016 -0.03836,0.0992 0.03519,0.20717 0.119591,0.27199 0.08414,0.0648 0.186532,0.11377 0.24183,0.20453 0.138906,0.22754 -0.09472,0.56912 0.0762,0.7739 0.02646,0.0317 0.06165,0.058 0.07646,0.0966 0.03254,0.0857 -0.05186,0.17198 -0.05662,0.26352 -0.0061,0.11404 0.106627,0.195 0.15664,0.29792 0.0474,0.0979 0.0354,0.21299 0.0251,0.32147 -0.0272,0.2884 -0.0339,0.57891 -0.0201,0.86836 0.01,0.19738 0.0391,0.41646 0.19182,0.5424 0.17145,0.14155 0.4228,0.10663 0.64135,0.0638 0.25188,-0.0492 0.50377,-0.0997 0.75538,-0.15187 -0.095,0.20082 -0.16113,0.41381 -0.20081,0.63924 -0.0328,0.18573 -0.0474,0.38655 -0.16431,0.53472 -0.0725,0.0921 -0.17701,0.15293 -0.27967,0.20955 -1.696773,0.93636 -3.614738,1.37689 -5.504392,1.8071 -0.05212,0.51621 -0.286808,1.01203 -0.652463,1.38007 -0.160602,0.16166 -0.364331,0.36883 -0.275431,0.57864 0.0381,0.0897 0.126206,0.15664 0.142081,0.25268 -0.214841,0.0984 -0.27252,0.37148 -0.302947,0.6059 -0.174361,1.34276 -0.348986,2.68552 -0.523346,4.02854 l 0.08811,-0.13282 c -0.0545,0.44556 -0.08228,0.91228 -0.08811,1.43272 -0.02355,2.12884 -0.08784,4.56618 -0.287602,6.68602 -0.01111,0.11801 -0.02461,0.24209 -0.0934,0.33867 -0.05239,0.0733 -0.131234,0.12303 -0.190765,0.19076 -0.131498,0.14923 -0.151871,0.3638 -0.157956,0.56251 -0.07911,2.64398 1.297781,5.07788 2.673879,7.34774 -0.01005,0.0251 -0.01667,0.0516 -0.02725,0.0767 -0.06191,0.14711 -0.133615,0.29845 -0.123031,0.45773 0.01614,0.23971 0.211137,0.42465 0.398727,0.57494 0.0087,0.007 0.01826,0.0135 0.02699,0.0204 0.103982,2.68473 -0.427302,5.43507 -0.530754,8.12879 -0.06641,1.73038 -0.0799,3.46287 -0.04048,5.1943 0.01693,0.74322 0.04498,1.49464 0.246592,2.21033 0.116945,0.41487 0.290777,0.81175 0.40931,1.22635 0.135202,0.47334 0.19685,0.96387 0.257704,1.45256 0.0926,0.74004 0.184944,1.48061 0.251354,2.22356 0.258763,2.90036 0.114829,5.83644 -0.426243,8.69765 -0.0016,0.008 -0.0026,0.0159 -0.004,0.0238 -0.0344,0.0169 -0.068,0.0357 -0.100013,0.0585 -0.229393,0.16166 -0.345281,0.51197 -0.482864,0.7456 -0.373857,0.6342 -0.80354,1.25121 -1.389857,1.70735 -0.832908,0.6477 -1.896797,0.91123 -2.816489,1.42822 -0.292365,0.16431 -0.578115,0.36195 -0.760677,0.64347 -0.247386,0.38127 -0.268023,0.89853 -0.05159,1.29858 1.01256,0.42783 2.164821,0.39237 3.244321,0.18388 1.0795,-0.20849 2.1209,-0.58102 3.195637,-0.81174 1.427957,-0.30665 2.915709,-0.36407 4.290215,-0.85804 -0.0542,-1.30625 -0.29236,-2.60456 -0.70458,-3.84519 -0.0852,-0.045 -0.17489,-0.0738 -0.26644,-0.0966 0.33682,-0.35745 0.46117,-0.87392 0.55404,-1.3626 0.56065,-2.94931 0.72972,-5.97297 0.50165,-8.96647 -0.0714,-0.93847 -0.18203,-1.87589 -0.17463,-2.81728 0.0209,-2.7096 1.00674,-5.29775 1.66291,-7.93194 0.16087,1.47293 0.322,2.94587 0.48286,4.41907 0.11192,1.02367 0.21749,2.0484 0.3355,3.07128 0.0339,0.31089 0.0685,0.62442 0.1643,0.92234 0.0746,0.23177 0.18548,0.45032 0.26988,0.67866 0.2024,0.54768 0.24976,1.1385 0.29527,1.72058 0.0812,1.04299 0.16272,2.08809 0.13441,3.13373 -0.055,2.03835 -0.52626,4.06056 -0.42042,6.09679 0.013,0.24686 0.0325,0.50403 -0.0622,0.73237 -0.0712,0.17145 -0.20717,0.33999 -0.16272,0.52017 0.0257,0.10398 0.10716,0.1823 0.19077,0.25082 -0.0426,0.19712 -0.0825,0.39132 -0.13124,0.5678 -0.19314,0.69929 -0.41328,1.39091 -0.65219,2.07565 -0.4826,1.38351 -1.0422,2.73897 -1.61925,4.08544 -0.12436,0.29024 -0.24263,0.64849 -0.0508,0.89931 0.13996,0.18283 0.39211,0.22913 0.62124,0.25506 0.67627,0.0762 1.35943,0.0897 2.03808,0.0402 0.78158,-0.0569 1.58644,-0.20876 2.22356,-0.66543 0.63421,-0.45429 1.03346,-1.15861 1.41314,-1.84044 0.0418,-0.0749 0.0841,-0.15214 0.0953,-0.23707 0.0201,-0.15504 -0.0659,-0.30083 -0.12277,-0.44661 -0.1524,-0.39132 -0.0979,-0.82815 -0.0624,-1.24646 0.0566,-0.66622 0.0598,-1.33561 0.0627,-2.00395 5.3e-4,-0.12621 -10e-4,-0.25347 -0.007,-0.38021 0.0376,-0.0114 0.0741,-0.0257 0.10716,-0.0474 0.11377,-0.0746 0.17383,-0.20743 0.2159,-0.33681 0.30454,-0.93663 -0.0233,-2.05502 0.51726,-2.8784 0.11986,-0.18256 0.27781,-0.33999 0.37836,-0.53393 0.24368,-0.46911 0.10636,-1.0332 0.0783,-1.56104 -0.0418,-0.78661 0.1733,-1.56078 0.34052,-2.33072 0.33443,-1.54067 0.48101,-3.12182 0.43577,-4.69767 -0.0116,-0.40826 -0.0368,-0.81915 -0.14049,-1.21418 -0.10822,-0.41142 -0.29925,-0.79613 -0.42625,-1.20226 -0.2405,-0.76994 -0.24262,-1.59147 -0.24262,-2.39819 -2.7e-4,-2.04602 0,-4.09734 0.22913,-6.13066 0.12462,-1.10516 0.3167,-2.2053 0.34316,-3.31681 0.0259,-1.08294 -0.1061,-2.16297 -0.23759,-3.23824 -0.002,-0.0145 -0.004,-0.0294 -0.006,-0.0442 0.1778,-0.0254 0.35534,-0.0508 0.53287,-0.0762 -0.10345,-0.32887 -0.20955,-0.66066 -0.2913,-0.99483 0.15689,0.0397 0.31168,0.0865 0.46116,0.14843 1.49146,-1.92511 3.16495,-3.98595 3.47372,-6.40159 0.11509,-0.90064 0.88821,-1.65814 0.84032,-2.56487 -0.0135,-0.25665 -0.0825,-0.55219 0.0913,-0.74136 0.031,-0.0339 0.0701,-0.0643 0.0828,-0.10822 0.0222,-0.077 -0.0442,-0.14896 -0.0664,-0.22569 -0.0532,-0.18283 0.14023,-0.33364 0.22596,-0.50377 0.0601,-0.11932 0.0669,-0.2577 0.0712,-0.39131 0.0524,-1.70471 -0.20743,-3.41181 -0.39714,-5.1062 z m -17.885305,7.82585 c -0.100806,-0.51806 -0.173302,-1.07791 0.05397,-1.55416 -0.12991,-0.0217 -0.255852,-0.0677 -0.369094,-0.13521 0.08043,-1.75868 0.415925,-3.77719 0.690034,-5.63112 -0.0037,0.12065 -0.0026,0.2413 -0.0085,0.36195 -0.02646,0.5371 -0.07488,1.07632 -0.02011,1.61131 0.0381,0.37147 0.125677,0.73686 0.165629,1.10807 0.05133,0.47414 0.02513,0.95277 -0.0085,1.42849 -0.08176,1.15914 -0.207962,2.31405 -0.356394,3.46657 -0.05106,-0.21802 -0.104246,-0.43603 -0.147108,-0.6559 z m 14.639925,-1.31657 c -0.52493,1.39012 -1.0496,2.78024 -1.57454,4.17036 -0.0188,0.0495 -0.0376,0.099 -0.0561,0.14844 -0.0595,-0.94721 -0.12726,-1.89786 -0.10742,-2.86068 0.0175,-0.84772 0.019,-1.70841 0.25109,-2.52386 0.1106,-0.38894 0.27385,-0.76756 0.31036,-1.17025 0.0466,-0.51197 -0.11404,-1.0369 0.005,-1.53697 0.0614,-0.25823 0.19288,-0.49371 0.28893,-0.74083 0.0659,0.25109 0.12329,0.51885 0.11271,0.7747 -0.0561,-0.0381 -0.11245,-0.0762 -0.16854,-0.11456 0.31512,0.81465 0.54769,1.66131 0.69268,2.5228 0.0209,0.12356 0.041,0.25056 0.10557,0.35798 0.0429,0.0714 0.10424,0.1315 0.13679,0.20823 0.10742,0.254 -0.13997,0.50852 -0.36063,0.67415 0.12171,0.0299 0.24315,0.0603 0.36433,0.0905 z"
       id="path1"
       style="stroke-width:0.264583" />
  </g>
</svg>
