<?xml version="1.0" encoding="UTF-8" standalone="no"?>
<!-- Created with Inkscape (http://www.inkscape.org/) -->

<svg
   width="90.468925mm"
   height="192.02942mm"
   viewBox="0 0 90.468928 192.0294"
   version="1.1"
   id="svg1"
   inkscape:version="1.4.2 (f4327f4, 2025-05-13)"
   sodipodi:docname="generic_woman11-1.62.svg"
   xmlns:inkscape="http://www.inkscape.org/namespaces/inkscape"
   xmlns:sodipodi="http://sodipodi.sourceforge.net/DTD/sodipodi-0.dtd"
   xmlns="http://www.w3.org/2000/svg"
   xmlns:svg="http://www.w3.org/2000/svg">
  <sodipodi:namedview
     id="namedview1"
     pagecolor="#ffffff"
     bordercolor="#000000"
     borderopacity="0.25"
     inkscape:showpageshadow="2"
     inkscape:pageopacity="0.0"
     inkscape:pagecheckerboard="0"
     inkscape:deskcolor="#d1d1d1"
     inkscape:document-units="mm"
     inkscape:zoom="1.2471942"
     inkscape:cx="-160.35996"
     inkscape:cy="327.13431"
     inkscape:window-width="2880"
     inkscape:window-height="1676"
     inkscape:window-x="-12"
     inkscape:window-y="-12"
     inkscape:window-maximized="1"
     inkscape:current-layer="g5268" />
  <defs
     id="defs1" />
  <g
     inkscape:label="图层 1"
     inkscape:groupmode="layer"
     id="layer1"
     transform="translate(-120.91458,-97.366621)">
    <g
       id="g5268"
       transform="matrix(0.26458333,0,0,0.26458333,-25.537283,75.587411)">
	
	
	
	
	
	
	
	
	
	
	
	
	
	
	
	
	
	
	
	
	
	
	
	
	
	
	
	
	
	
	
	
	
	
	
	
	
	
	
	
	
	
	
	
	
	
	
	
	
	
	
	
	
	
	
	
	
	
	
	
	
	
	
	
	
	
	
	
	
	
	
	
	
	
	
	
	
	
<g
   id="g5553"
   transform="translate(531.42583,-805.32236)">
	<path
   id="path3055"
   fill="none"
   stroke="#000000"
   stroke-width="1.7916"
   stroke-linecap="round"
   d="m 201.261,1282.575 c 0,0 -0.184,1.19 -0.275,1.78 -0.161,1.06 -0.345,2.11 -0.481,3.16 -0.168,1.31 -0.365,2.61 -0.412,3.92 -0.025,0.69 0.051,1.38 0.069,2.06 0.032,1.22 -0.005,2.43 0.069,3.65 0.108,1.77 0.356,3.53 0.55,5.29 0.131,1.19 0.264,2.38 0.412,3.57 0.192,1.54 0.423,3.07 0.618,4.61 0.218,1.71 0.493,3.42 0.618,5.15 0.127,1.74 0.07,3.48 0.137,5.22 0.087,2.23 0.17,4.45 0.344,6.67 0.068,0.87 0.18,1.74 0.275,2.61 0.11,1.01 0.298,2.01 0.344,3.02 0.043,0.97 -0.033,1.93 -0.069,2.89 -0.034,0.92 -0.126,1.83 -0.138,2.75 -0.022,1.79 0.138,5.02 0.138,5.36 0,0.34 0.091,1.28 0.137,1.92 0.114,1.58 0.242,3.16 0.344,4.75 0.079,1.23 0.12,2.47 0.206,3.71 0.095,1.37 0.298,2.74 0.344,4.12 0.045,1.35 -0.025,2.7 -0.069,4.05 -0.047,1.45 -0.127,2.89 -0.206,4.33 -0.101,1.86 -0.246,3.71 -0.344,5.57 -0.083,1.58 -0.132,3.16 -0.206,4.74 -0.064,1.35 -0.172,2.7 -0.206,4.06 -0.028,1.1 0.017,2.2 0,3.3 -0.023,1.46 -0.086,2.93 -0.138,4.39 -0.042,1.2 -0.115,2.39 -0.137,3.58 -0.019,0.98 -0.01,1.97 0,2.95 0.012,1.08 0.025,2.16 0.069,3.23 0.031,0.76 0.045,1.52 0.137,2.27 0.122,1 0.349,1.97 0.55,2.96 0.211,1.03 0.439,2.06 0.687,3.09 0.256,1.06 0.505,2.12 0.825,3.16 0.322,1.05 0.724,2.06 1.1,3.09 0.403,1.11 0.86,2.19 1.237,3.3 0.43,1.27 0.772,2.57 1.168,3.85 0.405,1.31 0.888,2.59 1.237,3.92 0.281,1.06 0.49,2.14 0.687,3.23 0.219,1.2 0.313,2.43 0.55,3.64 0.168,0.85 0.475,1.68 0.618,2.54 0.163,0.98 0.206,1.97 0.275,2.96 0.068,0.96 0.106,1.92 0.138,2.88 0.042,1.26 0.116,2.52 0.069,3.78 -0.046,1.24 -0.212,2.48 -0.344,3.71 -0.162,1.52 -0.344,3.03 -0.55,4.54 -0.269,1.97 -0.587,3.94 -0.893,5.91 -0.267,1.72 -0.564,3.43 -0.825,5.15 -0.291,1.93 -0.568,3.85 -0.825,5.78 -0.198,1.48 -0.357,2.98 -0.55,4.46 -0.175,1.36 -0.427,2.7 -0.55,4.06 -0.136,1.5 -0.195,3.02 -0.206,4.53 -0.01,1.49 0.033,2.98 0.138,4.47 0.103,1.47 0.327,2.93 0.481,4.4 0.191,1.81 0.246,3.63 0.55,5.43 0.181,1.07 0.538,2.1 0.756,3.16 0.299,1.46 0.508,2.93 0.756,4.4 0.209,1.23 0.402,2.47 0.618,3.71 0.197,1.12 0.439,2.24 0.618,3.37 0.189,1.18 0.333,2.38 0.481,3.57 0.15,1.21 0.262,2.43 0.412,3.64 0.168,1.35 0.401,2.7 0.55,4.06 0.15,1.37 0.228,2.74 0.344,4.12 0.136,1.62 0.278,3.25 0.412,4.88 0.14,1.69 0.313,3.39 0.412,5.08 0.075,1.28 0.091,2.57 0.137,3.85 0.045,1.26 0.115,2.52 0.138,3.78 0.033,1.83 0.028,3.67 0,5.5 -0.023,1.51 -0.137,3.02 -0.138,4.53 0,1.54 0.102,3.07 0.138,4.61 0.032,1.4 0.026,2.79 0.069,4.19 0.031,1.03 0.138,3.09 0.138,3.09" />

	<path
   id="path3825"
   fill="none"
   stroke="#000000"
   stroke-width="1.7916"
   stroke-linecap="round"
   d="m 214.661,1562.545 c 0,0 -0.893,2.05 -1.306,3.09 -0.46,1.16 -0.823,2.36 -1.306,3.51 -0.313,0.74 -0.73,1.45 -1.031,2.2 -0.215,0.54 -0.483,1.07 -0.55,1.65 -0.058,0.5 0.043,1.01 0.137,1.51 0.107,0.56 0.277,1.11 0.481,1.65 0.208,0.54 0.58,1.02 0.756,1.58 0.126,0.4 0.172,0.82 0.206,1.24 0.047,0.57 -0.047,1.14 0,1.71 0.046,0.56 0.133,1.11 0.275,1.65 0.204,0.78 0.615,1.49 0.825,2.27 0.134,0.49 0.229,1 0.275,1.51 0.039,0.43 0,1.31 0,1.31" />

	<path
   id="path3827"
   fill="none"
   stroke="#000000"
   stroke-width="1.7916"
   stroke-linecap="round"
   d="m 214.661,1579.724 c 0,0 -0.028,3.04 -0.275,4.54 -0.212,1.28 -0.787,2.49 -1.031,3.78 -0.236,1.24 -0.286,2.51 -0.412,3.78 -0.126,1.25 -0.313,2.51 -0.344,3.78 -0.026,1.07 0.218,2.15 0.138,3.23 -0.054,0.72 -0.185,1.44 -0.412,2.13 -0.216,0.65 -0.741,1.18 -0.893,1.85 -0.107,0.47 0,0.96 0,1.44 0,0.42 0.009,0.83 0,1.24 -0.012,0.55 -0.137,1.11 -0.069,1.65 0.06,0.48 0.218,0.94 0.412,1.37 0.251,0.57 0.546,1.13 0.962,1.59 0.365,0.4 0.839,0.69 1.306,0.96 0.629,0.37 1.287,0.71 1.993,0.89 0.579,0.15 1.194,0.06 1.787,0.14 0.762,0.1 1.502,0.35 2.268,0.41 0.823,0.06 1.649,-0.06 2.474,-0.07 0.985,-0.01 1.971,0.04 2.955,0 1.308,-0.04 2.625,-0.06 3.917,-0.27 1.075,-0.18 2.129,-0.48 3.161,-0.83 0.847,-0.28 1.681,-0.62 2.474,-1.03 0.649,-0.34 1.278,-0.72 1.855,-1.17 0.474,-0.37 0.953,-0.75 1.306,-1.23 0.313,-0.44 0.488,-0.95 0.687,-1.45 0.162,-0.4 0.412,-1.23 0.412,-1.23" />

	<path
   id="path3829"
   fill="none"
   stroke="#000000"
   stroke-width="1.7916"
   stroke-linecap="round"
   d="m 238.645,1606.805 c 0,0 0.68,-0.34 1.031,-0.49 1.08,-0.44 2.173,-0.86 3.299,-1.16 1.418,-0.39 2.908,-0.46 4.329,-0.83 0.981,-0.25 1.907,-0.7 2.886,-0.96 1.197,-0.32 2.419,-0.56 3.642,-0.76 0.934,-0.15 1.892,-0.14 2.818,-0.34 0.914,-0.2 1.809,-0.49 2.68,-0.82 0.544,-0.22 1.152,-0.36 1.581,-0.76 0.369,-0.34 0.496,-0.88 0.756,-1.31 0.266,-0.44 0.503,-0.9 0.825,-1.3 0.182,-0.23 0.454,-0.38 0.618,-0.62 0.226,-0.33 0.481,-1.1 0.481,-1.1" />

	<path
   id="path3831"
   fill="none"
   stroke="#000000"
   stroke-width="1.7916"
   stroke-linecap="round"
   d="m 263.11,1597.594 c 0,0 0.731,-0.4 1.031,-0.69 0.333,-0.31 0.619,-0.69 0.825,-1.1 0.182,-0.36 0.277,-0.77 0.344,-1.17 0.083,-0.49 0.144,-1.01 0.069,-1.51 -0.091,-0.6 -0.263,-1.22 -0.618,-1.72 -0.324,-0.45 -0.891,-0.66 -1.306,-1.03 -0.194,-0.17 -0.321,-0.42 -0.55,-0.55 -0.412,-0.22 -0.908,-0.24 -1.374,-0.27 -0.412,-0.03 -0.826,0.03 -1.237,0.07 -0.345,0.03 -0.684,0.14 -1.031,0.13 -0.324,0 -0.649,-0.05 -0.962,-0.13 -0.358,-0.1 -1.031,-0.41 -1.031,-0.41" />

	<path
   id="path3833"
   fill="none"
   stroke="#000000"
   stroke-width="1.7916"
   stroke-linecap="round"
   d="m 261.392,1589.484 c 0,0 -0.527,-0.62 -0.893,-0.76 -0.344,-0.12 -0.733,0 -1.1,0 -0.481,0 -0.962,0 -1.443,0 -0.412,0 -0.835,0.09 -1.237,0 -0.42,-0.09 -0.781,-0.36 -1.168,-0.55 -0.461,-0.22 -0.876,-0.57 -1.374,-0.68 -0.401,-0.1 -0.825,0 -1.237,0 -0.298,0 -0.603,0.06 -0.893,0 -0.37,-0.09 -0.687,-0.33 -1.031,-0.49 -0.549,-0.25 -1.104,-0.49 -1.649,-0.75 -0.231,-0.11 -0.442,-0.27 -0.687,-0.34 -0.354,-0.11 -0.733,-0.1 -1.1,-0.14 -0.183,-0.03 -0.55,-0.07 -0.55,-0.07" />

	<path
   id="path3835"
   fill="none"
   stroke="#000000"
   stroke-width="1.7916"
   stroke-linecap="round"
   d="m 247.716,1586.665 c 0,0 -0.753,-1.03 -1.168,-1.51 -0.476,-0.55 -0.973,-1.09 -1.512,-1.58 -0.518,-0.47 -1.041,-0.96 -1.649,-1.31 -0.384,-0.22 -0.834,-0.29 -1.237,-0.48 -0.448,-0.2 -0.85,-0.5 -1.306,-0.69 -0.221,-0.09 -0.687,-0.2 -0.687,-0.2" />

	<path
   id="path3837"
   fill="none"
   stroke="#000000"
   stroke-width="1.7916"
   stroke-linecap="round"
   d="m 243.387,1587.285 c 0,0 -0.733,-1.6 -1.1,-2.41 -0.367,-0.8 -0.667,-1.63 -1.1,-2.4 -0.38,-0.68 -0.844,-1.3 -1.306,-1.93 -0.369,-0.49 -1.168,-1.44 -1.168,-1.44" />

	<path
   id="path3839"
   fill="none"
   stroke="#000000"
   stroke-width="1.7916"
   stroke-linecap="round"
   d="m 238.714,1588.525 c 0,0 0.286,-2.06 0.344,-3.1 0.065,-1.16 0.086,-2.34 0,-3.5 -0.092,-1.25 -0.425,-2.47 -0.55,-3.71 -0.087,-0.87 -0.051,-1.75 -0.138,-2.61 -0.094,-0.95 -0.308,-1.88 -0.412,-2.82 -0.101,-0.91 -0.155,-1.83 -0.206,-2.75 -0.071,-1.28 -0.146,-2.57 -0.137,-3.85 0.007,-0.92 0.06,-1.83 0.137,-2.75 0.114,-1.33 0.267,-2.66 0.481,-3.98 0.22,-1.37 0.535,-2.71 0.825,-4.06 0.37,-1.72 0.766,-3.44 1.168,-5.15 0.333,-1.43 0.592,-2.87 1.031,-4.26 0.34,-1.08 0.803,-2.12 1.237,-3.17 0.633,-1.52 1.375,-3 1.993,-4.53 0.521,-1.29 0.999,-2.6 1.443,-3.92 0.475,-1.41 0.871,-2.84 1.306,-4.26 0.505,-1.65 0.968,-3.31 1.512,-4.95 0.491,-1.47 1.046,-2.93 1.581,-4.4 0.361,-0.98 0.82,-1.94 1.1,-2.95 0.303,-1.1 0.446,-2.24 0.618,-3.37 0.227,-1.48 0.341,-2.98 0.55,-4.46 0.265,-1.89 0.629,-3.76 0.893,-5.64 0.263,-1.87 0.44,-3.76 0.687,-5.63 0.299,-2.27 0.643,-4.54 0.962,-6.81 0.299,-2.13 0.6,-4.26 0.893,-6.39 0.256,-1.85 0.558,-3.7 0.756,-5.56 0.189,-1.79 0.283,-3.58 0.412,-5.36 0.147,-2.04 0.314,-4.08 0.412,-6.12 0.115,-2.38 0.22,-4.76 0.206,-7.15 -0.014,-2.27 -0.1,-4.54 -0.275,-6.8 -0.171,-2.21 -0.507,-4.4 -0.756,-6.6 -0.255,-2.24 -0.48,-4.49 -0.756,-6.73 -0.274,-2.23 -0.67,-4.44 -0.893,-6.67 -0.206,-2.05 -0.242,-4.12 -0.412,-6.18 -0.115,-1.4 -0.263,-2.8 -0.412,-4.19 -0.106,-0.99 -0.211,-1.98 -0.344,-2.96 -0.161,-1.19 -0.45,-2.37 -0.55,-3.57 -0.149,-1.81 -0.143,-3.62 -0.069,-5.43 0.079,-1.93 0.446,-3.85 0.55,-5.78 0.097,-1.8 0.044,-3.62 0.069,-5.42 0.021,-1.56 0.057,-3.12 0.069,-4.68 0.014,-1.97 -0.048,-3.94 0,-5.91 0.034,-1.4 0.117,-2.79 0.206,-4.19 0.093,-1.47 0.139,-2.94 0.344,-4.4 0.192,-1.36 0.612,-2.69 0.825,-4.05 0.358,-2.3 0.46,-4.63 0.756,-6.94 0.259,-2.03 0.582,-4.04 0.893,-6.05 0.373,-2.41 0.696,-4.83 1.168,-7.22 0.273,-1.38 0.657,-2.74 0.962,-4.12 0.41,-1.85 0.747,-3.72 1.168,-5.57 0.576,-2.53 1.29,-5.03 1.855,-7.56 0.581,-2.6 1.04,-5.22 1.581,-7.83 0.67,-3.23 1.258,-6.49 2.062,-9.69 0.441,-1.76 1.052,-3.47 1.512,-5.22 0.812,-3.1 1.386,-6.26 2.199,-9.35 0.751,-2.86 1.732,-5.66 2.474,-8.52 0.671,-2.59 1.279,-5.2 1.787,-7.83 0.527,-2.74 0.987,-5.49 1.306,-8.25 0.253,-2.19 0.463,-4.39 0.481,-6.6 0.014,-1.63 -0.158,-3.25 -0.275,-4.88 -0.188,-2.61 -0.476,-5.22 -0.687,-7.83 -0.2,-2.48 -0.354,-4.95 -0.55,-7.42 -0.151,-1.91 -0.266,-3.81 -0.481,-5.71 -0.183,-1.61 -0.465,-3.2 -0.687,-4.81 -0.307,-2.22 -0.572,-4.45 -0.893,-6.66 -0.363,-2.51 -0.86,-4.99 -1.168,-7.5 -0.249,-2.03 -0.375,-4.07 -0.55,-6.11 -0.145,-1.7 -0.317,-3.39 -0.412,-5.09 -0.082,-1.46 -0.058,-2.93 -0.137,-4.39 -0.097,-1.79 -0.236,-3.58 -0.412,-5.36 -0.132,-1.34 -0.197,-2.68 -0.481,-3.99 -0.321,-1.48 -0.898,-2.89 -1.374,-4.33 -0.419,-1.26 -0.854,-2.53 -1.306,-3.78 -0.531,-1.47 -1.076,-2.94 -1.649,-4.4 -0.462,-1.17 -0.972,-2.33 -1.443,-3.5 -0.468,-1.17 -0.999,-2.31 -1.374,-3.51 -0.325,-1.03 -0.465,-2.12 -0.756,-3.16 -0.303,-1.09 -0.685,-2.15 -1.031,-3.23 -0.478,-1.49 -0.935,-2.99 -1.443,-4.47 -0.435,-1.26 -0.875,-2.53 -1.374,-3.78 -0.615,-1.53 -1.262,-3.05 -1.993,-4.53 -0.694,-1.41 -1.481,-2.77 -2.268,-4.12 -0.552,-0.96 -1.158,-1.88 -1.718,-2.82 -0.633,-1.07 -1.361,-2.09 -1.855,-3.23 -0.497,-1.15 -0.777,-2.37 -1.1,-3.58 -0.292,-1.09 -0.588,-2.18 -0.756,-3.3 -0.14,-0.93 -0.19,-1.87 -0.206,-2.81 -0.021,-1.2 0.035,-2.39 0.137,-3.58 0.133,-1.54 0.358,-3.08 0.618,-4.6 0.228,-1.34 0.472,-2.68 0.825,-3.99 0.376,-1.4 0.916,-2.75 1.374,-4.12 0.481,-1.44 0.929,-2.9 1.443,-4.33 0.323,-0.9 0.655,-1.8 1.031,-2.68 0.169,-0.4 0.55,-1.17 0.55,-1.17" />

	<path
   id="path3841"
   fill="none"
   stroke="#000000"
   stroke-width="1.7916"
   stroke-linecap="round"
   d="m 255.688,1049.885 c 0,0 -0.048,1.6 -0.069,2.4 -0.026,1.03 -0.093,2.06 -0.069,3.09 0.023,0.99 0.206,1.97 0.206,2.96 0,1.31 -0.113,2.62 -0.275,3.92 -0.208,1.66 -0.535,3.31 -0.893,4.94 -0.334,1.53 -0.806,3.02 -1.168,4.54 -0.397,1.66 -0.756,3.34 -1.1,5.02 -0.295,1.44 -0.575,2.88 -0.825,4.32 -0.256,1.49 -0.524,2.97 -0.687,4.47 -0.115,1.05 -0.163,2.11 -0.206,3.16 -0.058,1.45 -0.08,2.89 -0.069,4.33 0.012,1.45 0.047,2.89 0.137,4.33 0.108,1.72 0.375,3.43 0.481,5.16 0.094,1.53 0.064,3.07 0.138,4.6 0.167,3.49 0.209,6.99 0.687,10.45 0.106,0.76 0.321,1.51 0.481,2.26 0.252,1.19 0.911,2.37 0.756,3.58 -0.012,0.1 -0.123,0.17 -0.137,0.27 -0.176,1.25 0.495,2.47 0.687,3.71 0.255,1.65 0.374,3.31 0.618,4.95 0.178,1.2 0.446,2.38 0.618,3.58 0.142,0.98 0.199,1.97 0.344,2.95 0.152,1.04 0.379,2.06 0.55,3.09 0.173,1.05 0.239,2.13 0.481,3.16 0.12,0.52 0.385,1 0.481,1.52 0.071,0.38 -0.091,0.81 0.069,1.16 0.053,0.12 0.173,0.2 0.275,0.28 0.105,0.08 0.29,0.08 0.344,0.2 0.095,0.22 -0.129,0.46 -0.137,0.69 -0.007,0.19 -0.003,0.38 0.069,0.55 0.114,0.27 0.303,0.53 0.55,0.69 0.159,0.1 0.434,-0.01 0.55,0.14 0.127,0.16 -0.01,0.41 0,0.62 0.012,0.23 0.005,0.46 0.069,0.68 0.071,0.25 0.194,0.48 0.344,0.69 0.038,0.05 0.113,0.08 0.137,0.14 0.114,0.27 -0.014,0.59 0,0.89 0.012,0.25 -0.022,0.52 0.069,0.76 0.041,0.1 0.15,0.17 0.206,0.27 0.208,0.37 0.319,0.78 0.481,1.17 0.431,1.03 0.861,2.06 1.306,3.09 0.807,1.86 1.688,3.7 2.474,5.57 0.772,1.84 1.407,3.73 2.199,5.56 0.854,1.98 1.87,3.88 2.749,5.85 0.67,1.49 1.283,3.02 1.924,4.53 0.641,1.51 1.259,3.04 1.924,4.54 0.797,1.8 1.674,3.56 2.474,5.36 0.78,1.75 1.486,3.54 2.268,5.29 0.71,1.59 1.421,3.18 2.199,4.74 1.496,3 3.106,5.94 4.742,8.87 0.997,1.78 2.083,3.51 3.092,5.29 0.983,1.73 1.936,3.47 2.886,5.22 1.229,2.26 2.52,4.49 3.642,6.8 1.025,2.12 1.81,4.34 2.818,6.46 0.773,1.63 1.674,3.2 2.474,4.81 1.205,2.44 2.273,4.94 3.505,7.36 0.414,0.81 0.864,1.6 1.306,2.4 0.293,0.53 0.637,1.04 0.893,1.58 0.165,0.36 0.269,0.74 0.412,1.1 0.154,0.4 0.313,0.79 0.481,1.17 0.262,0.6 0.574,1.18 0.825,1.79 0.178,0.43 0.4,0.85 0.481,1.3 0.121,0.68 0,1.38 0,2.07 0,1 -0.088,2.02 0,3.02 0.069,0.79 0.241,1.57 0.412,2.34 0.211,0.95 0.509,1.87 0.756,2.82 0.234,0.89 0.507,1.77 0.687,2.68 0.158,0.79 0.183,1.61 0.344,2.4 0.178,0.88 0.401,1.76 0.687,2.61 0.268,0.8 0.689,1.54 0.962,2.34 0.223,0.65 0.39,1.32 0.55,1.99 0.162,0.68 0.325,1.37 0.412,2.06 0.109,0.87 0.124,1.74 0.138,2.62 0.016,1.05 -0.045,2.1 -0.069,3.16 -0.022,0.96 -0.088,1.92 -0.069,2.88 0.014,0.71 0.104,1.42 0.138,2.13 0.036,0.76 0.057,1.51 0.069,2.27 0.009,0.6 0.01,1.19 0,1.79 -0.012,0.66 -0.11,1.33 -0.069,1.99 0.036,0.58 0.191,1.14 0.275,1.72 0.101,0.68 0.378,2.34 0.378,2.34" />

	<path
   id="path3843"
   fill="none"
   stroke="#000000"
   stroke-width="1.7916"
   stroke-linecap="round"
   d="m 313.208,1297.825 c -0.177,0.1 -0.342,0.23 -0.45,0.4 -0.106,0.17 -0.14,0.37 -0.169,0.56 -0.05,0.35 -0.012,0.69 0,1.04 0.017,0.48 -0.175,1.05 0.103,1.44 0.115,0.16 0.351,0.22 0.55,0.24 0.196,0.02 0.392,-0.06 0.584,-0.1 0.327,-0.08 0.733,-0.07 0.962,-0.31 0.2,-0.22 0.189,-0.57 0.206,-0.86 0.023,-0.39 -0.052,-0.79 -0.138,-1.17 -0.063,-0.28 -0.123,-0.58 -0.275,-0.82 -0.094,-0.16 -0.229,-0.28 -0.378,-0.38 -0.134,-0.09 -0.287,-0.16 -0.447,-0.17 -0.186,-0.02 -0.38,0.05 -0.548,0.13 z" />

	<path
   id="path3845"
   fill="none"
   stroke="#000000"
   stroke-width="1.7916"
   stroke-linecap="round"
   d="m 313.14,1301.475 c 0,0 0.376,0.38 0.618,0.48 0.471,0.18 1.046,0.33 1.512,0.13 0.435,-0.18 0.599,-0.73 0.893,-1.1 0.255,-0.32 0.615,-0.58 0.756,-0.96 0.206,-0.56 0.081,-1.19 0.069,-1.79 -0.012,-0.57 -0.102,-1.14 -0.138,-1.71 -0.032,-0.53 -0.024,-1.06 -0.069,-1.58 -0.061,-0.72 -0.28,-1.42 -0.275,-2.14 0.005,-0.64 0.161,-1.28 0.275,-1.92 0.115,-0.64 0.272,-1.28 0.412,-1.92 0.135,-0.62 0.287,-1.24 0.412,-1.86 0.101,-0.5 0.229,-1 0.275,-1.51 0.027,-0.3 -0.034,-0.6 0,-0.89 0.046,-0.4 0.041,-0.85 0.275,-1.17 0.205,-0.28 0.573,-0.41 0.893,-0.55 0.24,-0.1 0.507,-0.29 0.756,-0.21 0.31,0.1 0.466,0.47 0.618,0.76 0.19,0.36 0.244,0.77 0.344,1.17 0.161,0.63 0.3,1.28 0.412,1.92 0.118,0.68 0.147,1.38 0.275,2.06 0.125,0.68 0.303,1.34 0.481,2 0.187,0.69 0.411,1.37 0.618,2.06 0.228,0.75 0.4,1.53 0.687,2.27 0.306,0.78 0.79,1.48 1.1,2.26 0.424,1.08 0.623,2.23 1.031,3.3 0.338,0.9 0.826,1.72 1.168,2.61 0.346,0.9 0.587,1.84 0.893,2.75 0.2,0.6 0.352,1.22 0.618,1.79 0.169,0.36 0.395,0.7 0.618,1.03 0.128,0.19 0.412,0.55 0.412,0.55" />

	<path
   id="path3847"
   fill="none"
   stroke="#000000"
   stroke-width="1.7916"
   stroke-linecap="round"
   d="m 329.221,1309.375 c 0.244,0.23 0.629,0.27 0.962,0.27 0.4,0.01 0.8,-0.12 1.168,-0.27 0.275,-0.12 0.563,-0.25 0.756,-0.48 0.113,-0.14 0.165,-0.31 0.206,-0.48 0.08,-0.34 0.137,-0.7 0.069,-1.03 -0.061,-0.31 -0.271,-0.56 -0.412,-0.83 -0.179,-0.34 -0.265,-0.56 -0.55,-0.82 -0.165,-0.16 -0.409,-0.4 -0.618,-0.48 -0.249,-0.1 -0.492,-0.23 -0.756,-0.28 -0.226,-0.04 -0.461,-0.04 -0.687,0 -0.215,0.03 -0.446,0.07 -0.618,0.21 -0.131,0.1 -0.217,0.25 -0.275,0.41 -0.122,0.32 -0.16,0.68 -0.137,1.03 0.023,0.35 0.169,0.69 0.275,1.03 0.18,0.58 0.172,1.3 0.617,1.72 z" />

	<path
   id="path3849"
   fill="none"
   stroke="#000000"
   stroke-width="1.7916"
   stroke-linecap="round"
   d="m 329.358,1309.445 c 0,0 0.504,0.47 0.825,0.55 0.403,0.09 0.841,-0.01 1.237,-0.14 0.498,-0.16 1.008,-0.38 1.374,-0.76 0.309,-0.31 0.529,-0.73 0.618,-1.16 0.061,-0.3 -0.014,-0.61 -0.069,-0.9 -0.088,-0.47 -0.27,-0.92 -0.412,-1.37 -0.244,-0.78 -0.484,-1.57 -0.756,-2.34 -0.342,-0.97 -0.765,-1.91 -1.1,-2.89 -0.381,-1.11 -0.722,-2.23 -1.031,-3.36 -0.285,-1.05 -0.404,-2.14 -0.756,-3.16 -0.18,-0.53 -0.168,-0.9 -0.275,-1.45 -0.115,-0.58 -0.277,-1.26 -0.344,-1.85 -0.069,-0.61 -0.357,-1.18 -0.481,-1.79 -0.098,-0.47 -0.138,-0.96 -0.206,-1.44 -0.046,-0.32 -0.102,-0.64 -0.137,-0.96 -0.033,-0.3 -0.134,-0.61 -0.069,-0.9 0.04,-0.18 0.098,-0.42 0.275,-0.48 0.196,-0.06 0.406,0.13 0.55,0.28 0.337,0.34 0.406,0.87 0.618,1.3 0.466,0.95 1.014,1.86 1.443,2.82 0.419,0.94 0.703,1.94 1.1,2.89 0.213,0.51 0.523,0.98 0.687,1.51 0.117,0.38 0.066,0.8 0.206,1.17 0.124,0.32 0.395,0.58 0.55,0.89 0.142,0.29 0.221,0.6 0.344,0.89 0.3,0.72 0.67,1.41 0.962,2.13 0.382,0.95 0.715,1.92 1.031,2.89 0.251,0.77 0.448,1.56 0.687,2.34 0.198,0.64 0.44,1.27 0.618,1.92 0.218,0.79 0.405,1.6 0.55,2.41 0.094,0.52 0.087,1.06 0.206,1.58 0.113,0.49 0.481,1.44 0.481,1.44" />

	<path
   id="path3851"
   fill="none"
   stroke="#000000"
   stroke-width="1.7916"
   stroke-linecap="round"
   d="m 338.154,1309.515 c -0.116,0.44 -0.057,0.91 -0.069,1.37 -0.009,0.34 -0.065,0.69 0,1.03 0.07,0.36 0.162,0.76 0.412,1.03 0.208,0.23 0.523,0.35 0.825,0.41 0.36,0.08 0.747,0.04 1.1,-0.07 0.403,-0.11 0.837,-0.28 1.1,-0.61 0.149,-0.19 0.179,-0.45 0.206,-0.69 0.042,-0.37 -0.024,-0.74 -0.069,-1.1 -0.031,-0.25 -0.037,-0.52 -0.138,-0.76 -0.123,-0.28 -0.353,-0.51 -0.55,-0.75 -0.215,-0.27 -0.416,-0.55 -0.687,-0.76 -0.082,-0.06 -0.182,-0.09 -0.275,-0.14 -0.158,-0.07 -0.307,-0.2 -0.481,-0.2 -0.217,-0.01 -0.434,0.09 -0.618,0.2 -0.193,0.12 -0.348,0.3 -0.481,0.49 -0.12,0.16 -0.223,0.35 -0.275,0.55 z" />

	<path
   id="path3853"
   fill="none"
   stroke="#000000"
   stroke-width="1.7916"
   stroke-linecap="round"
   d="m 339.254,1313.425 c 0,0 1.156,0.18 1.718,0.07 0.543,-0.1 1.103,-0.31 1.512,-0.69 0.273,-0.24 0.412,-0.61 0.55,-0.96 0.176,-0.43 0.31,-0.9 0.344,-1.37 0.047,-0.67 -0.142,-1.33 -0.206,-1.99 -0.049,-0.51 -0.069,-1.01 -0.137,-1.52 -0.12,-0.87 -0.317,-1.74 -0.481,-2.61 -0.112,-0.59 -0.225,-1.19 -0.344,-1.78 -0.133,-0.67 -0.279,-1.33 -0.412,-2 -0.189,-0.93 -0.32,-1.89 -0.55,-2.82 -0.287,-1.16 -0.753,-2.27 -1.031,-3.43 -0.211,-0.88 -0.257,-1.8 -0.481,-2.68 -0.161,-0.63 -0.348,-1.26 -0.618,-1.86 -0.299,-0.65 -0.779,-1.21 -1.1,-1.85 -0.243,-0.49 -0.385,-1.02 -0.618,-1.51 -0.268,-0.57 -0.632,-1.09 -0.893,-1.65 -0.134,-0.29 -0.317,-0.58 -0.344,-0.89 -0.02,-0.24 -0.031,-0.53 0.137,-0.69 0.1,-0.1 0.273,-0.06 0.412,-0.07 0.16,-0.01 0.333,-0.06 0.481,0 0.12,0.05 0.203,0.17 0.275,0.27 0.264,0.4 0.342,0.88 0.55,1.31 0.288,0.59 0.66,1.13 0.962,1.72 0.245,0.47 0.486,0.95 0.687,1.44 0.266,0.65 0.445,1.33 0.687,1.99 0.195,0.54 0.389,1.07 0.618,1.59 0.25,0.56 0.56,1.09 0.825,1.64 0.358,0.75 0.719,1.5 1.031,2.27 0.384,0.95 0.721,1.91 1.031,2.89 0.231,0.72 0.456,1.45 0.618,2.2 0.158,0.72 0.168,1.48 0.344,2.2 0.12,0.49 0.308,0.96 0.481,1.44 0.193,0.53 0.618,1.58 0.618,1.58" />

	<path
   id="path3855"
   fill="none"
   stroke="#000000"
   stroke-width="1.7916"
   stroke-linecap="round"
   d="m 345.92,1304.215 c -0.149,0.39 -0.016,0.83 0,1.24 0.012,0.3 0.106,0.54 0.206,0.83 0.121,0.34 0.249,0.68 0.481,0.96 0.187,0.22 0.35,0.5 0.618,0.62 0.339,0.14 0.752,0.12 1.106,0.02 0.447,-0.13 0.874,-0.41 1.161,-0.78 0.165,-0.21 0.239,-0.49 0.275,-0.75 0.036,-0.28 -0.016,-0.56 -0.069,-0.83 -0.059,-0.31 -0.144,-0.61 -0.275,-0.89 -0.161,-0.35 -0.391,-0.66 -0.618,-0.96 -0.126,-0.17 -0.26,-0.34 -0.412,-0.49 -0.105,-0.1 -0.339,-0.03 -0.481,-0.06 -0.227,-0.06 -0.33,-0.15 -0.55,-0.07 -0.27,0.09 -0.53,0.23 -0.756,0.41 -0.266,0.21 -0.563,0.44 -0.686,0.75 z" />

	<path
   id="path3857"
   fill="none"
   stroke="#000000"
   stroke-width="1.7916"
   stroke-linecap="round"
   d="m 349.631,1306.965 c 0,0 0.737,-0.25 0.962,-0.55 0.274,-0.35 0.26,-0.86 0.344,-1.3 0.111,-0.59 0.225,-1.19 0.206,-1.79 -0.02,-0.65 -0.228,-1.28 -0.344,-1.92 -0.136,-0.76 -0.222,-1.53 -0.412,-2.27 -0.144,-0.56 -0.367,-1.1 -0.55,-1.65 -0.092,-0.28 -0.208,-0.54 -0.275,-0.83 -0.145,-0.6 -0.178,-1.23 -0.275,-1.85 -0.108,-0.69 -0.218,-1.38 -0.344,-2.06 -0.126,-0.69 -0.238,-1.39 -0.412,-2.06 -0.227,-0.89 -0.521,-1.75 -0.825,-2.62 -0.335,-0.95 -0.734,-1.87 -1.1,-2.81 -0.321,-0.83 -0.608,-1.67 -0.962,-2.48 -0.357,-0.81 -0.842,-1.57 -1.168,-2.4 -0.228,-0.58 -0.384,-1.19 -0.55,-1.79 -0.282,-1.02 -0.452,-2.08 -0.756,-3.09 -0.216,-0.73 -0.589,-1.4 -0.756,-2.13 -0.097,-0.43 -0.106,-0.87 -0.138,-1.31 -0.044,-0.62 0.012,-1.24 -0.069,-1.85 -0.107,-0.82 -0.375,-1.61 -0.55,-2.41 -0.169,-0.78 -0.304,-1.56 -0.481,-2.34 -0.084,-0.36 -0.281,-0.72 -0.275,-1.1 0.005,-0.33 0.135,-0.65 0.275,-0.96 0.104,-0.22 0.242,-0.44 0.412,-0.62 0.157,-0.16 0.338,-0.32 0.55,-0.41 0.299,-0.12 0.641,-0.1 0.962,-0.14 0.206,-0.02 0.412,-0.09 0.618,-0.07 0.338,0.04 0.65,0.21 0.962,0.35 0.403,0.18 0.792,0.39 1.168,0.62 0.477,0.29 0.918,0.64 1.374,0.96 0.483,0.34 0.946,0.71 1.443,1.03 0.423,0.27 0.871,0.5 1.306,0.76 0.665,0.38 1.3,0.83 1.993,1.16 0.509,0.25 1.047,0.43 1.581,0.62 0.499,0.18 0.993,0.38 1.512,0.48 0.586,0.12 1.19,0.15 1.787,0.14 0.784,-0.01 1.581,-0.06 2.337,-0.27 0.533,-0.15 1.032,-0.41 1.512,-0.69 0.341,-0.2 0.655,-0.44 0.962,-0.69 0.265,-0.21 0.962,-1.16 0.962,-1.16" />

	<path
   id="path3859"
   fill="none"
   stroke="#000000"
   stroke-width="1.7916"
   stroke-linecap="round"
   d="m 358.015,1261.685 c -0.3,0.12 -0.438,0.48 -0.618,0.75 -0.244,0.37 -0.512,0.74 -0.618,1.17 -0.055,0.22 -0.076,0.47 0,0.69 0.049,0.14 0.161,0.25 0.275,0.34 0.159,0.13 0.371,0.18 0.55,0.28 0.423,0.23 0.8,0.55 1.237,0.75 0.439,0.21 0.898,0.39 1.374,0.48 0.473,0.1 0.981,0.21 1.443,0.07 0.269,-0.08 0.462,-0.31 0.687,-0.48 0.21,-0.15 0.49,-0.6 0.618,-0.82 0.193,-0.35 0.132,-0.44 0.138,-0.83 0.004,-0.25 0.088,-0.56 -0.069,-0.76 -0.045,-0.05 -0.244,-0.17 -0.309,-0.2 -0.195,-0.09 -0.258,-0.1 -0.447,-0.21 -0.357,-0.2 -0.717,-0.4 -1.1,-0.55 -0.399,-0.15 -0.822,-0.23 -1.237,-0.34 -0.387,-0.1 -0.773,-0.21 -1.168,-0.28 -0.25,-0.04 -0.523,-0.16 -0.756,-0.06 z" />

	<path
   id="path3861"
   fill="none"
   stroke="#000000"
   stroke-width="1.7916"
   stroke-linecap="round"
   d="m 358.393,1261.795 c 0,0 -1.568,-0.76 -2.332,-1.17 -0.396,-0.21 -0.778,-0.45 -1.166,-0.68 -0.94,-0.55 -1.957,-0.98 -2.818,-1.65 -0.834,-0.64 -1.543,-1.44 -2.235,-2.24 -0.881,-1.01 -1.613,-2.14 -2.43,-3.2 -0.45,-0.59 -0.862,-1.21 -1.361,-1.75 -0.448,-0.49 -0.908,-0.99 -1.458,-1.36 -0.623,-0.43 -1.357,-0.66 -2.041,-0.98 -1.224,-0.56 -2.448,-1.13 -3.693,-1.65 -1.25,-0.52 -2.57,-0.87 -3.79,-1.45 -1.217,-0.59 -2.382,-1.29 -3.499,-2.05 -0.477,-0.32 -0.878,-0.75 -1.361,-1.07 -0.461,-0.3 -0.995,-0.48 -1.458,-0.77 -0.583,-0.38 -1.175,-0.76 -1.652,-1.27 -0.513,-0.54 -0.794,-1.26 -1.263,-1.84 -0.65,-0.8 -1.456,-1.46 -2.138,-2.24 -0.442,-0.5 -0.95,-0.96 -1.263,-1.55 -0.524,-0.99 -0.55,-2.18 -0.972,-3.21 -0.344,-0.85 -0.849,-1.62 -1.263,-2.43 -0.592,-1.16 -1.166,-2.33 -1.749,-3.5 -0.939,-1.88 -1.917,-3.74 -2.818,-5.64 -0.914,-1.92 -1.807,-3.86 -2.624,-5.83 -0.558,-1.34 -1.08,-2.7 -1.555,-4.08 -0.464,-1.35 -0.785,-2.74 -1.263,-4.08 -0.435,-1.22 -1.024,-2.38 -1.458,-3.6 -0.886,-2.49 -1.593,-5.04 -2.333,-7.58 -0.752,-2.58 -1.488,-5.17 -2.138,-7.77 -0.538,-2.16 -0.977,-4.34 -1.458,-6.51 -0.524,-2.37 -1.012,-4.74 -1.555,-7.1 -0.434,-1.88 -0.82,-3.78 -1.361,-5.64 -0.699,-2.4 -1.668,-4.71 -2.43,-7.09 -0.381,-1.19 -0.605,-2.44 -1.069,-3.6 -0.688,-1.72 -1.691,-3.3 -2.527,-4.95 -0.751,-1.49 -1.483,-2.99 -2.235,-4.48 -0.706,-1.39 -1.61,-2.7 -2.138,-4.17 -0.459,-1.28 -0.573,-2.66 -0.875,-3.99 -0.376,-1.65 -0.822,-3.29 -1.166,-4.96 -0.26,-1.25 -0.68,-3.2 -0.68,-3.79 0,-0.58 -0.333,-2.58 -0.389,-3.88 -0.095,-2.24 0.12,-4.47 0.097,-6.71 -0.019,-1.85 -0.047,-3.7 -0.194,-5.54 -0.104,-1.3 -0.335,-2.59 -0.486,-3.89 -0.245,-2.1 -0.422,-4.21 -0.68,-6.32 -0.26,-2.1 -0.601,-4.2 -0.875,-6.31 -0.277,-2.14 -0.501,-4.28 -0.777,-6.42 -0.366,-2.82 -0.795,-5.63 -1.166,-8.45 -0.204,-1.56 -0.452,-3.1 -0.583,-4.67 -0.19,-2.26 -0.285,-4.53 -0.292,-6.8 -0.009,-3.47 0.244,-6.93 0.389,-10.4 0.117,-2.82 0.434,-5.63 0.389,-8.45 -0.027,-1.66 -0.275,-3.31 -0.389,-4.96 -0.15,-2.17 -0.17,-4.35 -0.389,-6.51 -0.184,-1.82 -0.568,-3.62 -0.777,-5.44 -0.256,-2.23 -0.327,-4.48 -0.583,-6.71 -0.183,-1.59 -0.353,-3.19 -0.68,-4.76 -0.199,-0.96 -0.442,-1.91 -0.777,-2.82 -0.345,-0.94 -0.77,-1.85 -1.263,-2.72 -0.483,-0.85 -1.097,-1.62 -1.652,-2.43 -0.739,-1.07 -1.423,-2.19 -2.235,-3.21 -0.601,-0.75 -1.202,-1.52 -1.944,-2.14 -1.434,-1.18 -3.168,-1.95 -4.762,-2.91 -1.032,-0.62 -2.052,-1.27 -3.11,-1.85 -0.89,-0.48 -1.756,-1.05 -2.721,-1.36 -1.343,-0.43 -2.797,-0.4 -4.179,-0.68 -1.177,-0.24 -2.347,-0.53 -3.499,-0.88 -1.776,-0.53 -3.519,-1.17 -5.248,-1.84 -1.936,-0.75 -3.852,-1.56 -5.734,-2.43 -2.076,-0.97 -4.047,-2.15 -6.123,-3.112 -2.87,-1.333 -8.067,-3.499 -8.747,-3.693 -0.68,-0.194 -4.035,-1.722 -5.928,-2.818 -0.887,-0.513 -1.944,-1.458 -2.527,-1.749 -0.583,-0.291 -1.761,-0.909 -2.138,-1.749 -0.319,-0.71 0.097,-2.333 0.097,-2.333" />

	<path
   id="path3863"
   fill="none"
   stroke="#000000"
   stroke-width="1.7916"
   stroke-linecap="round"
   d="m 250.903,1004.245 c 0,0 1.723,0.84 2.624,1.17 1.139,0.41 2.311,0.74 3.499,0.97 0.832,0.16 2.527,0.29 2.527,0.29" />

	<path
   id="path3865"
   fill="none"
   stroke="#000000"
   stroke-width="1.7916"
   stroke-linecap="round"
   d="m 271.219,1143.415 c 0,0 1.663,2.22 2.337,3.43 0.877,1.58 1.569,3.26 2.199,4.95 0.385,1.03 0.962,3.16 0.962,3.16" />

	<path
   id="path3867"
   fill="none"
   stroke="#000000"
   stroke-width="1.7916"
   stroke-linecap="round"
   d="m 261.598,1156.605 c 0,0 1.609,2.81 2.337,4.26 0.838,1.67 2.337,5.09 2.337,5.09" />

	<path
   id="path3869"
   fill="none"
   stroke="#000000"
   stroke-width="1.7916"
   stroke-linecap="round"
   d="m 211.569,1068.915 c 0,0 -2.523,-4.64 -3.299,-7.15 -0.893,-2.88 -1.128,-5.93 -1.512,-8.93 -0.468,-3.65 -0.892,-7.32 -0.962,-11 -0.071,-3.71 0.063,-7.44 0.55,-11.13 0.368,-2.79 1.787,-8.24 1.787,-8.24" />

	<path
   id="path3871"
   fill="none"
   stroke="#000000"
   stroke-width="1.7916"
   stroke-linecap="round"
   d="m 195.9,1230.135 c 0,0 0.476,1.37 0.687,2.06 0.25,0.82 0.572,1.63 0.687,2.48 0.161,1.18 0.021,2.38 0,3.57 -0.046,2.57 -0.111,5.14 -0.275,7.7 -0.159,2.48 -0.508,4.94 -0.687,7.42 -0.191,2.65 -0.211,5.32 -0.412,7.97 -0.209,2.76 -0.423,5.52 -0.825,8.25 -0.244,1.66 -0.377,3.37 -0.962,4.95 -0.386,1.04 -1.034,1.96 -1.649,2.88 -0.707,1.06 -1.366,2.2 -2.337,3.03 -0.953,0.81 -2.141,1.31 -3.299,1.79 -1.235,0.5 -2.56,0.75 -3.848,1.09 -1.095,0.3 -2.215,0.5 -3.299,0.83 -1.026,0.31 -2.008,0.76 -3.024,1.1 -1.455,0.49 -2.89,1.08 -4.398,1.37 -1.715,0.34 -3.477,0.4 -5.223,0.42 -2.478,0.02 -4.974,-0.03 -7.422,-0.42 -2.667,-0.42 -5.244,-1.3 -7.834,-2.06 -1.988,-0.58 -3.966,-1.21 -5.91,-1.92 -1.581,-0.58 -3.132,-1.25 -4.673,-1.93 -1.668,-0.73 -3.245,-1.68 -4.948,-2.33 -1.34,-0.52 -2.764,-0.78 -4.123,-1.24 -1.113,-0.38 -3.299,-1.24 -3.299,-1.24" />

	<path
   id="path3873"
   fill="none"
   stroke="#000000"
   stroke-width="1.7916"
   stroke-linecap="round"
   d="m 194.938,1270.405 c 0,0 0.072,2.34 0.412,3.44 0.381,1.23 1.112,2.33 1.787,3.43 0.824,1.35 1.751,2.63 2.749,3.85 0.595,0.73 1.178,1.49 1.924,2.07 1.317,1.01 2.872,1.68 4.398,2.33 1.332,0.57 2.755,0.9 4.123,1.38 1.013,0.35 2.001,0.77 3.024,1.1 1.855,0.58 3.726,1.14 5.635,1.51 1.495,0.29 3.013,0.54 4.536,0.55 1.614,0 3.206,-0.37 4.811,-0.55 1.695,-0.19 3.414,-0.21 5.085,-0.55 1.406,-0.29 2.744,-0.84 4.123,-1.24 1.324,-0.38 2.676,-0.67 3.986,-1.1 1.351,-0.44 2.656,-1.01 3.986,-1.51 1.601,-0.6 3.165,-1.32 4.811,-1.79 1.348,-0.38 4.123,-0.82 4.123,-0.82" />

	<path
   id="path3875"
   fill="none"
   stroke="#000000"
   stroke-width="1.7916"
   stroke-linecap="round"
   d="m 172.959,991.464 c 4.593,-0.922 16.263,-2.567 20.879,-3.365 4.409,-0.763 8.829,-1.49 13.195,-2.474 2.45,-0.552 4.799,-1.564 7.285,-1.924 1.542,-0.223 3.209,0.396 4.673,-0.138 2.36,-0.859 4.316,-2.732 5.91,-4.673 1.339,-1.631 2.033,-3.705 2.886,-5.635 0.633,-1.432 1.374,-3.299 1.649,-4.398 0.275,-1.1 2.51,-4.363 3.299,-6.735 1.014,-3.053 1.238,-6.314 1.787,-9.484 0.601,-3.473 1.565,-6.922 1.649,-10.446 0.07,-2.949 -0.508,-5.882 -0.962,-8.796 -0.497,-3.187 -1.183,-6.344 -1.924,-9.484 -0.687,-2.91 -1.222,-5.885 -2.337,-8.659 -1.246,-3.101 -2.913,-6.045 -4.811,-8.796 -1.642,-2.381 -3.602,-4.54 -5.635,-6.597 -1.369,-1.386 -2.754,-2.803 -4.398,-3.848 -1.731,-1.101 -3.673,-1.874 -5.635,-2.474 -1.959,-0.599 -4.133,-0.37 -6.048,-1.1 -0.903,-0.344 -1.617,-1.065 -2.474,-1.512 -0.71,-0.37 -1.494,-0.584 -2.199,-0.962 -0.672,-0.36 -1.19,-1.032 -1.924,-1.237 -1.589,-0.443 -3.3,0.06 -4.948,0.138 -0.688,0.032 -1.425,-0.125 -2.062,0.138 -0.841,0.346 -1.525,1.052 -2.062,1.787 -0.617,0.845 -0.311,2.399 -1.237,2.886 -1.034,0.544 -2.268,-0.657 -3.436,-0.687 -1.574,-0.04 -3.109,0.503 -4.673,0.687 -1.553,0.183 -3.256,-0.249 -4.673,0.412 -1.468,0.685 -2.577,2.063 -3.436,3.436 -0.745,1.192 -0.957,2.644 -1.374,3.986 -0.508,1.635 -0.768,3.347 -1.374,4.948 -0.704,1.859 -1.698,3.595 -2.611,5.36 -1.225,2.367 -2.839,4.543 -3.848,7.01 -0.703,1.718 -0.947,3.592 -1.512,5.36 -0.621,1.946 -1.321,3.868 -2.062,5.773 -0.684,1.761 -1.635,3.42 -2.199,5.223 -0.531,1.698 -0.795,3.47 -1.1,5.223 -0.404,2.324 -0.882,4.653 -0.962,7.01 -0.069,2.019 0.218,4.036 0.412,6.048 0.284,2.941 1.259,5.846 1.1,8.796 -0.097,1.786 -0.992,3.451 -1.237,5.223 -0.296,2.135 -0.255,4.305 -0.275,6.46 -0.018,1.925 0.485,3.88 0.137,5.773 -0.482,2.628 -1.969,4.968 -3.024,7.422 -0.834,1.94 -1.76,3.84 -2.611,5.773 -0.984,2.235 -2.048,4.443 -2.886,6.733 -0.378,1.04 -0.962,3.16 -0.962,3.16" />

	<path
   id="path3881"
   fill="none"
   stroke="#000000"
   stroke-width="1.7916"
   stroke-linecap="round"
   d="m 193.369,1068.775 c 0,0 0.083,13.36 0.389,20.02 0.247,5.39 0.745,10.76 1.166,16.14 0.421,5.38 1.035,10.74 1.361,16.13 0.321,5.31 0.67,10.62 0.583,15.94 -0.107,6.56 -0.65,13.11 -1.361,19.63 -0.333,3.06 -1.361,9.14 -1.361,9.14" />

	<path
   id="path3883"
   fill="none"
   stroke="#000000"
   stroke-width="1.7916"
   stroke-linecap="round"
   d="m 180.929,1020.185 c 0,0 1.715,4.73 2.138,7.19 0.647,3.77 0.457,7.64 0.583,11.47 0.141,4.27 0.39,8.56 0.194,12.83 -0.167,3.64 -0.405,7.31 -1.166,10.88 -0.526,2.47 -2.332,7.2 -2.332,7.2" />

	<path
   id="path3885"
   fill="none"
   stroke="#000000"
   stroke-width="1.7916"
   stroke-linecap="round"
   d="m 197.353,1234.675 c 0,0 0.416,-1.44 0.68,-2.14 0.313,-0.82 1.069,-2.43 1.069,-2.43" />

	<path
   id="path3887"
   fill="none"
   stroke="#000000"
   stroke-width="1.7916"
   stroke-linecap="round"
   d="m 173.056,991.611 c 0,0 -2.978,0.85 -4.471,1.263 -2.264,0.627 -4.583,1.077 -6.803,1.847 -1.563,0.542 -3.036,1.318 -4.568,1.944 -1.481,0.6 -3.039,1.03 -4.471,1.75 -1.158,0.58 -2.18,1.4 -3.304,2.04 -1.335,0.76 -2.703,1.46 -4.082,2.14 -1.536,0.75 -3.152,1.34 -4.665,2.14 -0.334,0.17 -0.665,0.36 -0.972,0.58 -0.242,0.17 -0.433,0.41 -0.68,0.58 -0.575,0.39 -1.197,0.73 -1.847,0.97 -0.374,0.15 -0.778,0.2 -1.166,0.3 -0.844,0.21 -1.677,0.48 -2.527,0.68 -0.836,0.19 -1.701,0.25 -2.527,0.48 -0.632,0.18 -1.267,0.38 -1.847,0.68 -0.739,0.39 -1.353,0.99 -2.041,1.46 -0.865,0.6 -1.725,1.21 -2.624,1.75 -0.98,0.59 -2.087,0.98 -3.013,1.65 -0.685,0.5 -1.239,1.16 -1.847,1.75 -0.689,0.67 -1.428,1.3 -2.041,2.04 -0.624,0.76 -1.162,1.58 -1.652,2.43 -0.631,1.09 -1.155,2.24 -1.652,3.4 -0.437,1.02 -0.874,2.04 -1.166,3.11 -0.295,1.08 -0.405,2.2 -0.583,3.31 -0.214,1.32 -0.429,2.65 -0.583,3.98 -0.176,1.52 -0.243,3.05 -0.389,4.57 -0.146,1.52 -0.31,3.05 -0.486,4.57 -0.18,1.55 -0.486,3.1 -0.583,4.66 -0.103,1.65 -0.05,3.31 0,4.96 0.049,1.59 0.164,3.17 0.292,4.76 0.157,1.95 0.343,3.89 0.583,5.83 0.218,1.76 0.589,3.49 0.778,5.25 0.208,1.94 0.242,3.89 0.389,5.83 0.174,2.3 0.486,4.59 0.583,6.9 0.09,2.14 0.035,4.28 0,6.41 -0.032,2.01 -0.072,4.02 -0.194,6.03 -0.154,2.53 -0.285,5.08 -0.68,7.58 -0.342,2.17 -1.097,4.25 -1.458,6.42 -0.349,2.08 -0.515,4.2 -0.68,6.31 -0.104,1.33 -0.147,2.66 -0.194,3.99 -0.05,1.39 -0.039,2.78 -0.097,4.18 -0.068,1.62 -0.162,3.24 -0.292,4.86 -0.104,1.29 -0.225,2.59 -0.389,3.88 -0.161,1.27 -0.338,2.54 -0.583,3.79 -0.269,1.38 -0.607,2.74 -0.972,4.09 -0.291,1.07 -0.506,2.19 -0.972,3.2 -0.529,1.15 -1.399,2.12 -2.041,3.21 -0.69,1.17 -1.255,2.42 -1.944,3.59 -0.796,1.36 -1.781,2.61 -2.527,3.99 -0.86,1.59 -1.526,3.29 -2.235,4.96 -0.683,1.6 -1.336,3.22 -1.944,4.86 -0.764,2.05 -1.394,4.15 -2.138,6.22 -0.529,1.46 -1.143,2.9 -1.652,4.37 -0.565,1.64 -1.071,3.29 -1.555,4.96 -0.488,1.67 -0.824,3.39 -1.361,5.05 -0.618,1.91 -1.451,3.75 -2.138,5.64 -0.774,2.13 -1.461,4.28 -2.235,6.41 -0.687,1.89 -1.319,3.8 -2.138,5.64 -0.431,0.96 -0.978,1.87 -1.458,2.82 -0.263,0.51 -0.573,1.01 -0.778,1.55 -0.225,0.6 -0.269,1.25 -0.486,1.85 -0.573,1.58 -1.374,3.07 -2.138,4.57 -0.942,1.84 -2.029,3.61 -3.013,5.44 -1.059,1.96 -1.918,4.04 -3.11,5.93 -0.692,1.09 -1.584,2.05 -2.332,3.11 -0.54,0.76 -1.12,1.5 -1.555,2.33 -0.325,0.62 -0.467,1.32 -0.778,1.94 -0.504,1.02 -1.065,2.02 -1.749,2.92 -0.485,0.64 -1.073,1.19 -1.652,1.75 -0.712,0.68 -1.522,1.26 -2.235,1.94 -0.612,0.59 -1.009,1.44 -1.749,1.85 -0.549,0.31 -1.262,0.16 -1.847,0.39 -0.987,0.39 -1.775,1.17 -2.721,1.65 -1.814,0.92 -3.716,1.67 -5.637,2.33 -1.24,0.43 -2.538,0.68 -3.79,1.07 -0.753,0.24 -1.526,0.43 -2.235,0.78 -0.485,0.24 -0.934,0.55 -1.361,0.88 -0.453,0.35 -0.863,0.75 -1.263,1.16 -0.513,0.53 -0.99,1.09 -1.458,1.65 -0.574,0.7 -1.038,1.48 -1.652,2.14 -0.532,0.57 -1.109,1.11 -1.749,1.56 -0.904,0.63 -1.95,1.02 -2.916,1.55 -0.979,0.54 -1.854,1.31 -2.916,1.65 -0.527,0.17 -1.007,0.26 -1.561,0.29" />

	<path
   id="path3889"
   fill="none"
   stroke="#000000"
   stroke-width="1.7916"
   stroke-linecap="round"
   d="m 56.14,1242.745 c 0,0 1.974,-0.57 2.916,-0.97 1.079,-0.47 2.213,-0.9 3.11,-1.66 0.406,-0.34 0.972,-1.26 0.972,-1.26" />

	<path
   id="path3891"
   fill="none"
   stroke="#000000"
   stroke-width="1.7916"
   stroke-linecap="round"
   d="m 329.917,1245.175 c 0,0 -1.333,-0.44 -1.944,-0.78 -0.771,-0.43 -1.528,-0.92 -2.138,-1.56 -0.162,-0.16 -0.389,-0.58 -0.389,-0.58" />

	<path
   id="path3893"
   fill="none"
   stroke="#000000"
   stroke-width="1.7916"
   stroke-linecap="round"
   d="m 247.579,1383.795 c 0,0 -0.229,4.22 -0.275,6.33 -0.042,1.92 -0.113,3.85 0,5.77 0.092,1.57 0.361,3.12 0.55,4.67 0.267,2.2 0.687,4.39 0.825,6.6 0.125,2.01 0.048,4.03 0,6.05 -0.046,1.92 -0.275,5.77 -0.275,5.77" />

	<path
   id="path3895"
   fill="none"
   stroke="#000000"
   stroke-width="1.7916"
   stroke-linecap="round"
   d="m 224.763,1397.815 c 0,0 -1.086,5.85 -1.374,8.8 -0.223,2.28 -0.333,4.58 -0.275,6.87 0.077,3.04 0.368,6.07 0.825,9.07 0.197,1.3 0.825,3.85 0.825,3.85" />

	<path
   id="path3092"
   fill="none"
   stroke="#000000"
   stroke-width="1.7916"
   stroke-linecap="round"
   d="m 29.308,1257.315 c -0.091,-0.28 -0.209,-0.56 -0.365,-0.82 -0.101,-0.16 -0.205,-0.34 -0.365,-0.45 -0.158,-0.11 -0.219,-0.04 -0.411,-0.05 -0.339,-0.02 -0.719,0.15 -1.05,0.23 -0.618,0.15 -1.305,0.19 -1.917,0.36 -0.575,0.17 -1.216,0.16 -1.734,0.46 -0.149,0.09 -0.291,0.21 -0.365,0.37 -0.131,0.27 -0.106,0.6 -0.091,0.91 0.015,0.31 0.018,0.65 0.183,0.91 0.345,0.55 0.958,0.92 1.552,1.19 0.283,0.13 0.603,0.17 0.913,0.18 0.4,0.01 0.797,-0.09 1.187,-0.18 0.497,-0.12 0.984,-0.28 1.46,-0.46 0.343,-0.13 0.739,-0.2 1.004,-0.45 0.147,-0.15 0.239,-0.35 0.274,-0.55 0.041,-0.24 -0.052,-0.49 -0.091,-0.73 -0.052,-0.31 -0.09,-0.62 -0.184,-0.92 z" />

	<path
   id="path3862"
   fill="none"
   stroke="#000000"
   stroke-width="1.7916"
   stroke-linecap="round"
   d="m 24.288,1260.285 c 0,0 0.791,0.74 1.232,1.05 0.473,0.33 0.968,0.65 1.506,0.87 0.596,0.24 1.238,0.35 1.871,0.45 0.633,0.11 1.275,0.21 1.917,0.19 0.37,-0.02 0.734,-0.1 1.095,-0.19 0.911,-0.2 1.821,-0.44 2.693,-0.77 0.901,-0.35 1.767,-0.79 2.601,-1.28 0.51,-0.3 0.954,-0.7 1.46,-1 0.618,-0.38 1.279,-0.67 1.917,-1.01 0.488,-0.26 0.933,-0.61 1.46,-0.78 0.41,-0.12 0.85,-0.15 1.278,-0.13 0.387,0.02 0.803,0.04 1.141,0.23 0.216,0.12 0.368,0.34 0.502,0.54 0.232,0.36 0.439,0.77 0.502,1.19 0.083,0.56 -0.067,1.13 -0.183,1.69 -0.156,0.75 -0.457,1.46 -0.685,2.19 -0.26,0.84 -0.606,1.65 -0.776,2.51 -0.065,0.33 -0.043,0.67 -0.091,1 -0.056,0.39 -0.124,0.77 -0.228,1.15 -0.348,1.24 -0.898,2.42 -1.323,3.65 -0.174,0.5 -0.335,1 -0.502,1.5 -0.167,0.5 -0.299,1.02 -0.502,1.51 -0.364,0.88 -0.838,1.71 -1.278,2.55 -0.487,0.94 -1.035,1.84 -1.506,2.79 -0.359,0.72 -0.67,1.46 -1.004,2.19 -0.244,0.53 -0.493,1.06 -0.73,1.6 -0.343,0.77 -0.742,1.52 -1.004,2.32 -0.106,0.33 -0.144,0.67 -0.228,1.01 -0.139,0.55 -0.294,1.1 -0.456,1.64 -0.186,0.63 -0.422,1.24 -0.593,1.87 -0.126,0.47 -0.18,0.95 -0.319,1.42 -0.136,0.45 -0.367,0.87 -0.502,1.32 -0.161,0.54 -0.229,1.1 -0.365,1.64 -0.138,0.55 -0.341,1.09 -0.456,1.64 -0.112,0.55 -0.161,1.1 -0.228,1.65 -0.052,0.42 -0.159,0.85 -0.137,1.28 0.023,0.43 0.09,0.88 0.274,1.27 0.178,0.39 0.433,0.76 0.776,1.01 0.222,0.16 0.776,0.27 0.776,0.27" />

	<path
   id="path3864"
   fill="none"
   stroke="#000000"
   stroke-width="1.7916"
   stroke-linecap="round"
   d="m 36.974,1301.865 c 0.263,-0.53 0.201,-1.16 0.228,-1.74 0.019,-0.41 0.092,-0.84 -0.046,-1.23 -0.076,-0.22 -0.223,-0.42 -0.411,-0.55 -0.182,-0.12 -0.42,-0.15 -0.639,-0.18 -0.226,-0.03 -0.465,-0.06 -0.685,0 -0.171,0.05 -0.319,0.16 -0.456,0.27 -0.192,0.16 -0.354,0.35 -0.502,0.55 -0.159,0.21 -0.34,0.43 -0.411,0.69 -0.085,0.3 0.009,0.63 0,0.95 -0.008,0.28 -0.054,0.55 -0.046,0.83 0.012,0.38 -0.079,0.82 0.137,1.14 0.126,0.18 0.38,0.25 0.593,0.32 0.321,0.1 0.683,0.24 1.004,0.13 0.544,-0.17 0.977,-0.68 1.234,-1.18 z" />

	<path
   id="path3866"
   fill="none"
   stroke="#000000"
   stroke-width="1.7916"
   stroke-linecap="round"
   d="m 37.239,1301.095 c 0,0 0.657,-1.18 0.904,-1.81 0.362,-0.92 0.539,-1.9 0.839,-2.84 0.262,-0.82 0.512,-1.65 0.839,-2.45 0.415,-1.02 0.966,-1.97 1.42,-2.97 0.427,-0.94 0.634,-2 1.226,-2.84 0.288,-0.41 0.861,-0.59 1.097,-1.03 0.185,-0.35 0.065,-0.8 0.194,-1.17 0.322,-0.93 0.929,-1.73 1.42,-2.58 0.54,-0.93 1.201,-1.8 1.678,-2.77 0.183,-0.38 0.215,-0.83 0.452,-1.17 0.148,-0.21 0.326,-0.46 0.581,-0.51 0.247,-0.05 0.557,0.06 0.71,0.26 0.157,0.2 0.11,0.52 0.065,0.77 -0.063,0.35 -0.282,0.66 -0.452,0.97 -0.505,0.93 -1.156,1.78 -1.678,2.71 -0.557,0.99 -1.097,1.99 -1.549,3.03 -0.428,0.99 -0.747,2.02 -1.097,3.04 -0.495,1.43 -0.962,2.87 -1.42,4.32 -0.489,1.54 -0.906,3.11 -1.42,4.65 -0.24,0.71 -0.622,1.39 -0.774,2.13 -0.074,0.36 -0.011,0.73 -0.065,1.09 -0.095,0.64 -0.344,1.24 -0.452,1.87 -0.109,0.65 -0.161,1.29 -0.194,1.94 -0.021,0.43 -0.099,0.87 0,1.29 0.077,0.33 0.245,0.64 0.452,0.91 0.262,0.33 0.568,0.69 0.968,0.83 0.242,0.1 0.774,0 0.774,0" />

	<path
   id="path3868"
   fill="none"
   stroke="#000000"
   stroke-width="1.7916"
   stroke-linecap="round"
   d="m 41.173,1305.515 c -0.146,0.4 -0.13,0.85 -0.137,1.27 -0.006,0.4 -0.033,0.81 0.091,1.19 0.09,0.27 0.254,0.53 0.456,0.73 0.241,0.24 0.539,0.45 0.867,0.55 0.292,0.08 0.625,0.1 0.913,0 0.256,-0.09 0.492,-0.28 0.639,-0.5 0.136,-0.22 0.121,-0.49 0.183,-0.73 0.166,-0.66 0.398,-1.3 0.502,-1.97 0.04,-0.25 0.066,-0.51 0.046,-0.77 -0.011,-0.14 -0.014,-0.29 -0.091,-0.41 -0.113,-0.18 -0.331,-0.25 -0.502,-0.37 -0.209,-0.14 -0.396,-0.34 -0.639,-0.41 -0.146,-0.04 -0.304,-0.01 -0.456,0 -0.183,0.01 -0.375,-0.02 -0.548,0.05 -0.297,0.11 -0.555,0.32 -0.776,0.55 -0.23,0.23 -0.436,0.51 -0.548,0.82 z" />

	<path
   id="path3870"
   fill="none"
   stroke="#000000"
   stroke-width="1.7916"
   stroke-linecap="round"
   d="m 44.322,1307.705 c 0,0 0.496,-0.93 0.685,-1.42 0.194,-0.5 0.291,-1.04 0.456,-1.55 0.183,-0.57 0.404,-1.12 0.593,-1.69 0.111,-0.33 0.24,-0.66 0.319,-1 0.094,-0.41 0.046,-0.84 0.183,-1.24 0.26,-0.74 0.826,-1.35 1.187,-2.05 0.472,-0.92 0.86,-1.88 1.278,-2.83 0.341,-0.77 0.637,-1.57 1.004,-2.33 0.21,-0.43 0.442,-0.86 0.685,-1.27 0.072,-0.13 0.162,-0.24 0.228,-0.37 0.091,-0.18 0.177,-0.36 0.228,-0.55 0.06,-0.22 0.015,-0.46 0.091,-0.68 0.088,-0.25 0.279,-0.46 0.411,-0.69 0.206,-0.36 0.382,-0.74 0.593,-1.09 0.286,-0.48 0.649,-0.92 0.913,-1.42 0.49,-0.92 0.747,-1.95 1.232,-2.87 0.318,-0.61 0.723,-1.16 1.095,-1.74 0.209,-0.32 0.33,-0.73 0.639,-0.95 0.128,-0.1 0.274,-0.14 0.456,-0.14 0.182,0 0.335,0.16 0.411,0.32 0.08,0.16 0.009,0.36 0,0.55 -0.015,0.32 -0.029,0.64 -0.091,0.96 -0.081,0.4 -0.232,0.79 -0.365,1.18 -0.126,0.37 -0.278,0.73 -0.411,1.1 -0.126,0.34 -0.272,0.69 -0.365,1.05 -0.089,0.34 -0.113,0.7 -0.183,1.05 -0.135,0.67 -0.263,1.35 -0.456,2 -0.264,0.9 -0.643,1.77 -0.958,2.65 -0.293,0.82 -0.73,2.24 -0.867,2.47 -0.137,0.22 -0.676,1.39 -1.004,2.09 -0.326,0.7 -0.666,1.39 -0.958,2.1 -0.302,0.74 -0.488,1.52 -0.821,2.24 -0.169,0.36 -0.481,0.66 -0.593,1.05 -0.085,0.29 -0.045,0.61 -0.046,0.91 0,0.32 -0.027,0.65 0.046,0.96 0.061,0.26 0.125,0.55 0.319,0.73 0.165,0.15 0.639,0.23 0.639,0.23" />

	<path
   id="path3872"
   fill="none"
   stroke="#000000"
   stroke-width="1.7916"
   stroke-linecap="round"
   d="m 53.769,1305.735 c 0.29,-0.75 0.758,-1.44 0.913,-2.23 0.056,-0.29 0.041,-0.58 0,-0.87 -0.038,-0.27 -0.083,-0.55 -0.228,-0.77 -0.087,-0.14 -0.218,-0.26 -0.365,-0.33 -0.21,-0.09 -0.455,-0.07 -0.685,-0.09 -0.228,-0.01 -0.467,-0.06 -0.685,0 -0.177,0.06 -0.327,0.19 -0.456,0.32 -0.192,0.2 -0.32,0.45 -0.456,0.69 -0.26,0.45 -0.496,0.92 -0.685,1.41 -0.097,0.25 -0.161,0.52 -0.228,0.78 -0.035,0.13 -0.104,0.27 -0.091,0.41 0.011,0.11 0.081,0.22 0.137,0.32 0.169,0.31 0.3,0.4 0.593,0.59 0.207,0.14 0.484,0.38 0.73,0.41 0.287,0.04 0.582,0.1 0.867,0.05 0.389,0.09 0.448,-0.48 0.639,-0.69 z" />

	<path
   id="path3874"
   fill="none"
   stroke="#000000"
   stroke-width="1.7916"
   stroke-linecap="round"
   d="m 53.955,1305.605 c 0,0 0.586,-0.8 0.839,-1.22 0.556,-0.94 1.014,-1.93 1.484,-2.91 0.704,-1.46 1.316,-2.97 2.001,-4.45 0.461,-0.99 0.956,-1.97 1.42,-2.97 0.439,-0.94 0.857,-1.89 1.291,-2.84 0.406,-0.88 0.895,-1.73 1.226,-2.64 0.341,-0.95 0.514,-1.94 0.774,-2.91 0.255,-0.94 0.522,-1.89 0.774,-2.84 0.154,-0.58 0.198,-1.2 0.452,-1.74 0.078,-0.17 0.177,-0.34 0.323,-0.45 0.182,-0.15 0.421,-0.2 0.645,-0.26 0.189,-0.05 0.389,-0.1 0.581,-0.07 0.284,0.06 0.578,0.18 0.774,0.39 0.191,0.21 0.26,0.5 0.323,0.78 0.169,0.73 0.093,1.5 0.129,2.26 0.027,0.55 0.019,1.12 0.065,1.67 0.028,0.35 0.082,0.69 0.129,1.04 0.1,0.73 0.256,1.45 0.323,2.19 0.055,0.6 0.085,1.2 0.065,1.81 -0.014,0.41 -0.08,0.81 -0.129,1.22 -0.077,0.65 -0.185,1.29 -0.258,1.94 -0.078,0.69 -0.149,1.37 -0.194,2.06 -0.04,0.63 -0.09,1.25 -0.065,1.88 0.015,0.36 -0.032,0.76 0.129,1.09 0.186,0.39 0.546,0.67 0.904,0.91 0.251,0.16 0.54,0.31 0.839,0.32 0.156,0.01 0.968,-0.32 0.968,-0.32" />

	<path
   id="path3876"
   fill="none"
   stroke="#000000"
   stroke-width="1.7916"
   stroke-linecap="round"
   d="m 71.122,1298.965 c 0.28,-0.68 0.212,-1.5 0,-2.2 -0.045,-0.14 -0.148,-0.27 -0.258,-0.38 -0.165,-0.17 -0.358,-0.32 -0.581,-0.39 -0.185,-0.06 -0.392,-0.05 -0.581,0 -0.187,0.04 -0.365,0.14 -0.516,0.26 -0.156,0.12 -0.308,0.27 -0.387,0.45 -0.078,0.18 -0.069,0.38 -0.065,0.58 0.009,0.41 0.107,0.82 0.194,1.23 0.051,0.24 0.018,0.53 0.194,0.71 0.19,0.18 0.509,0.17 0.774,0.19 0.28,0.02 0.584,0.05 0.839,-0.06 0.166,-0.08 0.317,-0.22 0.387,-0.39 z" />

	<path
   id="path3878"
   fill="none"
   stroke="#000000"
   stroke-width="1.7916"
   stroke-linecap="round"
   d="m 71.251,1296.765 c 0,0 0.452,-1.58 0.581,-2.39 0.132,-0.83 0.161,-1.67 0.194,-2.51 0.018,-0.48 -0.027,-0.95 0,-1.42 0.054,-0.95 0.258,-2.58 0.323,-2.84 0.065,-0.26 0.395,-1.63 0.516,-2.45 0.185,-1.26 0.269,-2.54 0.323,-3.81 0.052,-1.23 -0.125,-2.46 0,-3.68 0.065,-0.64 0.197,-1.27 0.387,-1.87 0.426,-1.36 1.174,-2.61 1.678,-3.94 0.969,-2.57 1.739,-5.2 2.582,-7.81 0.506,-1.57 1.107,-3.11 1.484,-4.71 0.22,-0.93 0.299,-1.89 0.452,-2.84 0.149,-0.93 0.299,-1.85 0.452,-2.78 0.085,-0.51 0.12,-1.04 0.258,-1.54 0.11,-0.41 0.269,-0.79 0.452,-1.17 0.792,-1.62 1.842,-3.1 2.775,-4.64 1.344,-2.23 2.741,-4.42 4.066,-6.65 1.519,-2.56 2.897,-5.21 4.453,-7.75 1.194,-1.95 2.468,-3.84 3.743,-5.74 1.475,-2.19 2.985,-4.36 4.518,-6.52 1.375,-1.93 2.807,-3.82 4.195,-5.74 1.95,-2.7 3.922,-5.39 5.809,-8.13 0.774,-1.13 1.535,-2.27 2.259,-3.42 1.39,-2.23 3.743,-6.52 4.001,-6.78 0.258,-0.26 3.194,-5.89 4.776,-8.84 1.84,-3.44 3.615,-6.91 5.486,-10.33 1.41,-2.58 2.926,-5.1 4.324,-7.68 1.465,-2.71 2.976,-5.4 4.26,-8.2 0.435,-0.94 0.938,-1.88 1.162,-2.9 0.088,-0.4 0.042,-0.82 0.065,-1.23 0.021,-0.38 -0.115,-0.81 0.065,-1.16 0.114,-0.22 0.42,-0.27 0.581,-0.45 0.114,-0.13 0.176,-0.3 0.258,-0.45 0.091,-0.17 0.137,-0.37 0.258,-0.52 0.087,-0.11 0.239,-0.15 0.323,-0.26 0.229,-0.3 0.375,-0.66 0.452,-1.03 0.031,-0.15 -0.032,-0.31 0,-0.45 0.099,-0.46 0.482,-0.83 0.581,-1.29 0.063,-0.3 -0.007,-0.6 0,-0.91 0.01,-0.49 0.031,-0.99 0.065,-1.48 0.064,-0.95 0.16,-1.9 0.258,-2.84 0.134,-1.29 0.29,-2.58 0.452,-3.87 0.302,-2.42 0.584,-4.83 0.968,-7.23 0.408,-2.55 1.054,-5.06 1.42,-7.62 0.398,-2.78 0.578,-5.59 0.839,-8.39 0.232,-2.49 0.465,-4.99 0.645,-7.48 0.101,-1.4 0.196,-2.85 0.234,-4.26 0.022,-0.82 -0.232,-1.67 0.153,-2.39 0.102,-0.19 0.339,-0.91 0.403,-1.38 0.247,-1.85 0.014,-3.73 -0.101,-5.59 -0.143,-2.32 -0.458,-4.63 -0.73,-6.93 -0.302,-2.56 -0.66,-5.12 -1.004,-7.67 -0.267,-1.98 -0.73,-5.21 -0.821,-5.93 -0.091,-0.73 -0.554,-3.26 -1.004,-4.84 -0.389,-1.37 -0.987,-2.67 -1.46,-4.02 -0.971,-2.76 -1.887,-5.53 -2.829,-8.3 -0.487,-1.43 -1.46,-4.29 -1.46,-4.29" />

	<path
   id="path3880"
   fill="none"
   stroke="#000000"
   stroke-width="1.7916"
   stroke-linecap="round"
   d="m 144.762,1102.695 c 0,0 0.025,2.41 0.065,3.62 0.074,2.23 0.211,4.47 0.323,6.71 0.083,1.66 0.133,3.31 0.258,4.97 0.147,1.94 0.351,3.87 0.581,5.8 0.149,1.26 0.327,2.5 0.516,3.75 0.217,1.42 0.476,2.84 0.71,4.26 0.152,0.92 0.338,1.84 0.452,2.77 0.128,1.05 0.166,2.11 0.258,3.17 0.081,0.92 0.235,1.84 0.258,2.77 0.037,1.49 -0.082,2.97 -0.194,4.45 -0.106,1.41 -0.299,2.8 -0.452,4.2 -0.169,1.55 -0.196,3.12 -0.516,4.64 -0.237,1.13 -0.63,2.22 -1.033,3.3 -0.527,1.4 -1.186,2.76 -1.807,4.13 -0.501,1.1 -1.032,2.19 -1.549,3.29 -0.558,1.18 -1.161,2.35 -1.678,3.55 -0.446,1.04 -0.843,2.1 -1.226,3.16 -0.438,1.22 -0.828,2.45 -1.226,3.68 -0.486,1.5 -0.922,3.02 -1.42,4.52 -0.431,1.3 -0.902,2.58 -1.355,3.87 -0.408,1.16 -0.778,2.34 -1.226,3.48 -0.811,2.08 -1.769,4.09 -2.646,6.14 -0.562,1.31 -1.177,2.6 -1.678,3.93 -0.659,1.76 -1.231,3.55 -1.743,5.36 -0.398,1.41 -0.701,2.84 -1.033,4.26 -0.246,1.05 -0.5,2.1 -0.71,3.16 -0.297,1.5 -0.563,3.01 -0.774,4.52 -0.249,1.78 -0.347,3.58 -0.581,5.36 -0.221,1.68 -0.531,3.35 -0.774,5.03 -0.298,2.06 -0.506,4.14 -0.839,6.2 -0.594,3.67 -1.297,7.33 -2.065,10.97 -0.702,3.33 -1.569,6.62 -2.323,9.94 -0.552,2.42 -1.095,4.85 -1.613,7.29 -0.38,1.78 -0.722,3.57 -1.097,5.36 -0.231,1.1 -0.516,2.18 -0.71,3.29 -0.165,0.94 -0.313,1.89 -0.387,2.84 -0.084,1.07 -0.095,2.15 -0.065,3.23 0.032,1.12 0.078,2.25 0.258,3.35 0.199,1.23 0.582,2.42 0.904,3.62 0.284,1.06 0.639,2.1 0.904,3.16 0.175,0.7 0.33,1.41 0.452,2.13 0.394,2.31 0.504,4.66 0.904,6.97 0.346,1.99 0.851,3.96 1.291,5.94 0.484,2.17 1.007,4.34 1.484,6.51 0.513,2.35 0.913,4.71 1.484,7.04 0.645,2.62 1.587,5.17 2.194,7.81 0.624,2.7 1.072,5.45 1.484,8.2 0.296,1.97 0.407,3.96 0.71,5.93 0.283,1.84 0.772,3.65 1.033,5.49 0.287,2.03 0.423,4.08 0.581,6.13 0.139,1.81 0.192,3.62 0.323,5.42 0.274,3.77 0.675,7.53 0.968,11.3 0.383,4.92 0.711,9.85 1.033,14.78 0.185,2.83 0.43,5.67 0.516,8.51 0.054,1.79 0.066,3.58 0,5.36 -0.075,2.05 -0.349,4.09 -0.452,6.13 -0.08,1.59 -0.144,3.19 -0.129,4.78 0.014,1.42 0.135,2.84 0.194,4.26 0.072,1.74 0.191,3.48 0.194,5.23 0.002,1.25 0.012,2.5 -0.129,3.74 -0.178,1.57 -0.514,3.12 -0.904,4.65 -0.351,1.37 -1.003,2.67 -1.291,4.06 -0.306,1.48 -0.297,3.01 -0.452,4.52 -0.21,2.04 -0.367,4.09 -0.645,6.13 -0.263,1.93 -0.591,3.84 -0.968,5.74 -0.282,1.43 -0.715,2.83 -0.968,4.26 -0.238,1.35 -0.325,2.72 -0.516,4.07 -0.332,2.35 -0.802,4.68 -1.097,7.04 -0.199,1.58 -0.399,3.17 -0.452,4.77 -0.05,1.51 0.115,3.01 0.129,4.52 0.022,2.28 -0.16,4.56 -0.065,6.84 0.068,1.62 0.275,3.23 0.452,4.84 0.168,1.53 0.394,3.06 0.581,4.58 0.223,1.83 0.402,3.67 0.645,5.49 0.424,3.17 1.008,6.32 1.42,9.49 0.329,2.53 0.522,5.08 0.839,7.61 0.25,2.01 0.471,4.02 0.839,6 0.504,2.72 1.176,5.4 1.872,8.07 0.468,1.8 1.061,3.57 1.549,5.36 0.548,2.01 0.936,4.07 1.549,6.07 0.745,2.42 1.732,4.77 2.582,7.16 0.763,2.15 1.588,4.28 2.259,6.46 0.295,0.95 0.559,1.92 0.774,2.9 0.268,1.21 0.448,2.45 0.645,3.68 0.283,1.76 0.53,3.52 0.774,5.29 0.297,2.15 0.632,4.29 0.839,6.45 0.133,1.4 0.215,2.8 0.258,4.2 0.031,1.01 0.102,2.03 0,3.03 -0.087,0.85 -0.26,1.7 -0.516,2.52 -0.098,0.31 -0.321,0.58 -0.387,0.9 -0.061,0.3 -0.007,0.61 0,0.91 0.01,0.43 0.089,0.86 0.065,1.29 -0.023,0.39 -0.142,0.77 -0.194,1.16 -0.057,0.43 -0.131,0.86 -0.129,1.29 0.002,0.61 0.113,1.21 0.194,1.81 0.09,0.67 0.19,1.34 0.323,2 0.127,0.63 0.259,1.26 0.452,1.87 0.195,0.62 0.458,1.21 0.71,1.81 0.203,0.48 0.495,0.92 0.645,1.42 0.157,0.52 0.258,1.61 0.258,1.61" />

	<path
   id="path3882"
   fill="none"
   stroke="#000000"
   stroke-width="1.7916"
   stroke-linecap="round"
   d="m 138.437,1383.895 c 0,0 0.71,4.99 0.516,7.49 -0.15,1.93 -0.84,3.79 -1.291,5.68 -0.494,2.07 -1.289,4.08 -1.549,6.19 -0.221,1.8 -0.12,3.62 0,5.42 0.086,1.3 0.516,3.88 0.516,3.88" />

	<path
   id="path3884"
   fill="none"
   stroke="#000000"
   stroke-width="1.7916"
   stroke-linecap="round"
   d="m 159.864,1417.975 1.291,-19.36" />

	<path
   id="path3886"
   fill="none"
   stroke="#000000"
   stroke-width="1.7916"
   stroke-linecap="round"
   d="m 141.573,1580.515 c 0,0 -0.929,0.97 -1.46,1.37 -0.794,0.6 -1.772,0.93 -2.556,1.55 -0.372,0.29 -0.561,0.84 -1.004,1.01 -0.4,0.14 -0.851,-0.1 -1.278,-0.1 -1.008,0.01 -2.011,0.16 -3.012,0.28 -0.397,0.05 -0.796,0.1 -1.187,0.18 -0.649,0.14 -1.364,0.18 -1.917,0.55 -0.324,0.21 -0.73,0.91 -0.73,0.91" />

	<path
   id="path3888"
   fill="none"
   stroke="#000000"
   stroke-width="1.7916"
   stroke-linecap="round"
   d="m 129.707,1586.444 c 0,0 -1.267,-0.35 -1.917,-0.36 -0.43,-0.01 -0.867,0.05 -1.278,0.18 -0.455,0.14 -0.897,0.35 -1.278,0.64 -0.43,0.32 -0.859,0.7 -1.095,1.19 -0.244,0.49 -0.26,1.08 -0.274,1.64 -0.012,0.52 0.023,1.05 0.183,1.55 0.192,0.6 0.513,1.16 0.913,1.64 0.151,0.19 0.548,0.46 0.548,0.46" />

	<path
   id="path3890"
   fill="none"
   stroke="#000000"
   stroke-width="1.7916"
   stroke-linecap="round"
   d="m 125.326,1592.104 c 0,0 0.025,0.8 0.091,1.19 0.099,0.59 0.159,1.21 0.456,1.73 0.429,0.75 1.155,1.29 1.825,1.83 0.788,0.63 1.644,1.2 2.556,1.64 0.84,0.41 1.769,0.6 2.647,0.92 1.376,0.49 2.731,1.05 4.107,1.55 0.696,0.25 1.441,0.39 2.099,0.73 0.232,0.12 0.469,0.25 0.639,0.45 0.177,0.21 0.235,0.49 0.365,0.73 0.372,0.69 0.735,1.38 1.187,2.01 0.627,0.88 1.313,1.73 2.099,2.47 0.333,0.31 0.704,0.58 1.095,0.82 0.864,0.51 1.775,0.98 2.738,1.27 1.65,0.51 3.39,0.7 5.111,0.82 1.76,0.13 3.531,0.01 5.294,-0.09 1.708,-0.09 3.429,-0.14 5.111,-0.45 0.871,-0.16 1.815,-0.25 2.556,-0.73 0.56,-0.37 0.953,-0.97 1.278,-1.55 0.419,-0.76 0.604,-1.63 0.821,-2.47 0.248,-0.96 0.511,-1.93 0.548,-2.92 0.021,-0.55 -0.147,-1.09 -0.183,-1.64 -0.104,-1.61 -0.101,-3.23 -0.091,-4.84 0.005,-1 0.076,-2.01 0.091,-3.01 0.019,-1.22 0.032,-2.43 0,-3.65 -0.03,-1.16 -0.183,-3.47 -0.183,-3.47" />

	<path
   id="path3892"
   fill="none"
   stroke="#000000"
   stroke-width="1.7916"
   stroke-linecap="round"
   d="m 166.947,1594.755 c 0,0 -0.044,-2.31 0,-3.47 0.046,-1.19 0.1,-2.38 0.274,-3.56 0.186,-1.26 0.617,-2.48 0.821,-3.74 0.279,-1.72 0.116,-3.51 0.548,-5.2 0.098,-0.39 0.367,-0.71 0.456,-1.1 0.11,-0.47 0.04,-0.97 0.091,-1.46 0.087,-0.82 0.217,-1.65 0.365,-2.46 0.155,-0.86 0.548,-1.69 0.548,-2.56 0,-0.44 -0.181,-0.85 -0.274,-1.28 -0.12,-0.54 -0.198,-1.1 -0.365,-1.64 -0.361,-1.16 -0.869,-2.27 -1.369,-3.38 -0.392,-0.87 -0.943,-1.66 -1.278,-2.55 -0.298,-0.8 -0.43,-1.64 -0.639,-2.47 -0.155,-0.61 -0.294,-1.22 -0.456,-1.82 -0.115,-0.43 -0.248,-0.85 -0.365,-1.28 -0.284,-1.03 -0.683,-2.04 -0.821,-3.1 -0.169,-1.3 -0.023,-2.62 0,-3.93 0.03,-1.76 0.089,-3.53 0.183,-5.29 0.135,-2.53 0.343,-5.05 0.548,-7.58 0.22,-2.71 0.548,-7.76 0.73,-8.12 0.183,-0.37 0.563,-5.19 1.004,-7.76 0.516,-3 1.313,-5.96 1.917,-8.94 0.582,-2.89 1.151,-5.78 1.643,-8.67 0.412,-2.43 0.749,-4.87 1.095,-7.31 0.354,-2.49 0.752,-4.98 1.004,-7.48 0.226,-2.25 0.38,-4.5 0.456,-6.75 0.08,-2.38 0.022,-4.75 0,-7.12 -0.016,-1.62 0.024,-3.23 -0.091,-4.84 -0.088,-1.22 -0.327,-2.43 -0.456,-3.65 -0.184,-1.73 -0.336,-3.47 -0.456,-5.21 -0.166,-2.4 -0.215,-4.8 -0.365,-7.21 -0.128,-2.04 -0.36,-4.07 -0.456,-6.11 -0.072,-1.52 -0.124,-3.04 -0.091,-4.56 0.031,-1.47 0.155,-2.93 0.274,-4.39 0.149,-1.82 0.292,-3.66 0.548,-5.47 0.237,-1.69 0.551,-3.36 0.913,-5.02 0.368,-1.69 0.799,-3.36 1.278,-5.02 0.603,-2.09 1.29,-4.16 2.008,-6.21 0.741,-2.11 2.191,-5.93 2.373,-6.3 0.183,-0.36 1.227,-3.5 1.734,-5.29 0.461,-1.63 0.943,-3.26 1.187,-4.93 0.25,-1.72 0.179,-3.47 0.274,-5.2 0.118,-2.16 0.27,-4.32 0.365,-6.48 0.085,-1.95 0.125,-3.9 0.183,-5.84 0.13,-4.41 0.279,-8.82 0.365,-13.24 0.051,-2.61 -0.007,-5.23 0.091,-7.85 0.072,-1.92 0.204,-3.83 0.365,-5.75 0.171,-2.04 0.346,-4.08 0.639,-6.11 0.239,-1.66 0.65,-3.28 0.913,-4.93 0.217,-1.37 0.353,-2.74 0.548,-4.11 0.286,-2.01 0.63,-4.01 0.913,-6.02 0.231,-1.64 0.31,-3.31 0.639,-4.93 0.226,-1.11 0.616,-2.19 0.913,-3.29 0.656,-2.43 1.403,-4.83 1.917,-7.3 0.484,-2.32 0.693,-4.69 1.095,-7.03 0.362,-2.1 0.838,-4.19 1.187,-6.29 0.387,-2.34 0.772,-4.68 1.004,-7.03 0.218,-2.22 0.363,-4.44 0.365,-6.67 0.002,-1.73 -0.12,-3.47 -0.274,-5.2 -0.152,-1.71 -0.339,-3.42 -0.639,-5.11 -0.213,-1.2 -0.821,-3.56 -0.821,-3.56" />

	<path
   id="path4148"
   fill="none"
   stroke="#000000"
   stroke-width="1.7916"
   stroke-linecap="round"
   d="m 116.727,1155.705 c 0,0 1.821,-4.83 3.152,-7.03 1.014,-1.67 3.637,-4.6 3.637,-4.6" />

</g>
</g>
  </g>
</svg>
