<?xml version="1.0" encoding="UTF-8" standalone="no"?>
<!-- Created with Inkscape (http://www.inkscape.org/) -->

<svg
   width="29.402126mm"
   height="112.23172mm"
   viewBox="0 0 29.402127 112.23171"
   version="1.1"
   id="svg1"
   inkscape:version="1.4.2 (f4327f4, 2025-05-13)"
   sodipodi:docname="generic_man12-1.75.svg"
   xmlns:inkscape="http://www.inkscape.org/namespaces/inkscape"
   xmlns:sodipodi="http://sodipodi.sourceforge.net/DTD/sodipodi-0.dtd"
   xmlns="http://www.w3.org/2000/svg"
   xmlns:svg="http://www.w3.org/2000/svg">
  <sodipodi:namedview
     id="namedview1"
     pagecolor="#ffffff"
     bordercolor="#000000"
     borderopacity="0.25"
     inkscape:showpageshadow="2"
     inkscape:pageopacity="0.0"
     inkscape:pagecheckerboard="0"
     inkscape:deskcolor="#d1d1d1"
     inkscape:document-units="mm"
     inkscape:zoom="0.88189945"
     inkscape:cx="-102.05245"
     inkscape:cy="102.05245"
     inkscape:window-width="2880"
     inkscape:window-height="1676"
     inkscape:window-x="-12"
     inkscape:window-y="-12"
     inkscape:window-maximized="1"
     inkscape:current-layer="g5268" />
  <defs
     id="defs1" />
  <g
     inkscape:label="图层 1"
     inkscape:groupmode="layer"
     id="layer1"
     transform="translate(-59.795822,-141.02287)">
    <g
       id="g5268"
       transform="matrix(0.26458333,0,0,0.26458333,-25.537283,75.587411)">
	
	
	
	
	
	
	
	
	
	
	
	
	
	
	
	
	
	
	
	
	
	
	
	
	
	
	
	
	
	
	
	
	
	
	
	
	
	
	
	
	
	
	
	
	
	
	
	
	
	
	
	
	
	
	
	
	
	
	
	
	
	
	
	
	
	
	
	
	
	
	
	
	
	
	
	
	
	
<g
   id="g1535"
   stroke="#000000"
   stroke-width="1pt"
   transform="translate(272.81932,235.90285)">
  <g
     id="g1534"
     transform="translate(0,-26.25)">
    <path
       id="path920"
       fill-rule="evenodd"
       fill="#f0f0f0"
       d="m 82.5,40.438 c -8.61,-0.516 -17.451,6.577 -17.156,17.468 0,0 -0.581,30.584 8.25,29.406 2.518,-0.335 5.467,-1.128 8.437,-2.312 -2.092,1.211 -4.172,2.266 -6.093,2.906 -0.001,0 3.537,7.656 0.593,11.188 -1.649,1.976 5.008,2.986 11.5,2.496 -4.963,1.04 -9.979,0.81 -12.687,-1.902 -4.121,-0.589 -26.857,7.802 -17.438,28.402 0,5.3 1.74,20.61 0.563,32.97 -0.589,8.24 0.695,24.74 1.312,32.63 -2.096,5.35 -1.922,34.17 -0.156,43 -3.532,1.47 -0.757,65.64 8,88.75 -1.251,8.98 0.356,18.27 3.594,18.56 2.355,3.53 8.245,72.99 7.656,79.47 -0.589,6.47 -19.667,19.17 -25.906,27.65 -7.477,3.95 3.531,1.78 3.531,4.72 0,2.95 10.035,3.55 14.156,5.32 8.831,-1.18 14.7,-6.5 27.063,-6.5 8.241,0 8.831,-11.01 7.061,-25.72 -1.76,-14.72 12.75,-65.13 1.56,-90.44 2.36,-19.43 5.51,-72.91 6.1,-84.69 8.53,-7.12 3.8,-43.36 -0.85,-52.65 -2.51,0.23 41.23,-9.93 48.53,-28.47 1.18,-7.66 -29.53,-67.23 -33.06,-71.35 -5.88,-0.58 -27,-5.184 -27,-5.184 -0.261,0.235 -0.755,0.426 -1.06,0.656 1.41,-5.939 -2.48,-15.525 -3.625,-21.25 -0.061,0.049 -0.277,0.197 -0.344,0.25 1.652,-2.162 2.85,-4.578 3.281,-7.312 C 99.49,49.073 91.11,40.953 82.5,40.438 Z m 38.38,88.402 c 3.53,4.71 9.97,33.3 14.68,38.6 -7.71,5.04 -23.23,17.81 -26.84,18.75 1.24,-18.54 14.03,-49.37 12.16,-57.35 z" />
    <path
       id="path923"
       fill="none"
       d="m 68.289,242.54 c 0,0 -0.589,59.66 5.886,70.84 0.589,9.42 -2.354,25.32 6.476,33.56 2.355,5.3 4.71,73.59 2.944,84.18 -7.653,8.24 -19.663,16.54 -27.08,22.96" />
    <path
       id="path912"
       fill="none"
       d="m 112.28,200.99 c -2.52,0.24 -5.67,1.01 -6,1.26 -2.94,4.71 -0.81,6.18 -3.17,9.12 -2.35,2.95 -5.302,6.47 -8.245,6.47 -2.944,0 -12.938,-5.88 -12.938,-10 0.876,-4.67 15.41,-14.16 27.423,-21.97" />
  </g>
  <path
     id="path913"
     fill-rule="evenodd"
     fill="#808080"
     d="m 61.027,26.933 c 0.413,-1.65 1.237,-15.257 22.679,-14.845 13.195,1.237 19.384,14.432 18.144,21.855 -1.24,2.474 -1.24,5.36 -1.24,5.36 l -5.358,-0.412 c 0,0 3.299,-5.361 1.237,-7.835 -2.062,-2.474 -4.536,1.237 -4.536,1.237 0,0 0.825,-2.474 -1.237,-6.597 -2.062,-4.124 -26.802,-0.825 -29.689,1.237 z" />
</g>
</g>
  </g>
</svg>
