<?xml version="1.0" encoding="UTF-8" standalone="no"?>
<!-- Created with Inkscape (http://www.inkscape.org/) -->

<svg
   width="23.82946mm"
   height="74.365753mm"
   viewBox="0 0 23.82946 74.365754"
   version="1.1"
   id="svg1"
   inkscape:version="1.4.2 (f4327f4, 2025-05-13)"
   sodipodi:docname="genman6.svg"
   xmlns:inkscape="http://www.inkscape.org/namespaces/inkscape"
   xmlns:sodipodi="http://sodipodi.sourceforge.net/DTD/sodipodi-0.dtd"
   xmlns="http://www.w3.org/2000/svg"
   xmlns:svg="http://www.w3.org/2000/svg">
  <sodipodi:namedview
     id="namedview1"
     pagecolor="#ffffff"
     bordercolor="#000000"
     borderopacity="0.25"
     inkscape:showpageshadow="2"
     inkscape:pageopacity="0.0"
     inkscape:pagecheckerboard="0"
     inkscape:deskcolor="#d1d1d1"
     inkscape:document-units="mm"
     inkscape:zoom="1.2275954"
     inkscape:cx="-187.35815"
     inkscape:cy="-88.79147"
     inkscape:window-width="2880"
     inkscape:window-height="1676"
     inkscape:window-x="-12"
     inkscape:window-y="-12"
     inkscape:window-maximized="1"
     inkscape:current-layer="layer1" />
  <defs
     id="defs1" />
  <g
     inkscape:label="图层 1"
     inkscape:groupmode="layer"
     id="layer1"
     transform="translate(-154.51642,-171.97888)">
    <path
       d="m 178.29865,197.90128 c -0.0966,-0.6776 -0.3474,-1.32212 -0.59663,-1.9595 -0.44715,-1.14433 -0.8943,-2.28865 -1.34144,-3.43297 -0.0982,-0.25109 -0.19791,-0.51171 -0.18389,-0.78079 0.0111,-0.21246 0.0929,-0.41724 0.0968,-0.6297 0.003,-0.1614 -0.0392,-0.31962 -0.081,-0.47546 -0.41302,-1.5412 -0.82603,-3.08213 -1.23878,-4.62307 -0.2032,-0.75856 -0.49107,-1.61713 -1.21841,-1.9132 -0.21934,-0.0913 -0.41778,-0.12859 -0.59901,-0.12462 -0.0251,-0.008 -0.0503,-0.0167 -0.0754,-0.0238 -1.05093,-0.30692 -2.1545,-0.41328 -3.19432,-0.75538 -1.07764,-0.35455 -1.93807,-0.9742 -2.48046,-1.9738 -5.3e-4,0.001 -0.001,0.002 -0.002,0.003 -0.002,-0.38656 0.0286,-0.77311 0.0934,-1.15438 0.0185,-0.10874 0.046,-0.22754 0.13494,-0.29263 0.0635,-0.0463 0.14526,-0.0558 0.22146,-0.0751 0.35851,-0.0913 0.61303,-0.4273 0.71305,-0.78343 0.10001,-0.35613 0.073,-0.73395 0.0452,-1.10305 -0.0164,-0.21775 -0.0685,-0.48313 -0.27649,-0.54901 0.31062,-1.49225 -0.0733,-3.11467 -1.01997,-4.30927 -0.0519,-0.0656 -0.10689,-0.13097 -0.1778,-0.17542 -0.0847,-0.0526 -0.18573,-0.0714 -0.27702,-0.11191 -0.17224,-0.0767 -0.30453,-0.23019 -0.48313,-0.29052 -0.12647,-0.0426 -0.26352,-0.0344 -0.39687,-0.041 -0.34264,-0.0172 -0.67945,-0.13996 -0.95276,-0.34739 -0.045,0.17912 -0.21855,0.30136 -0.39767,0.34528 -0.17913,0.0442 -0.36698,0.0257 -0.5514,0.0175 -0.56647,-0.0251 -1.13744,0.0505 -1.67798,0.22225 0.16192,0.27411 0.11588,0.62759 -0.0103,0.91969 -0.12621,0.29237 -0.32359,0.54822 -0.46778,0.83212 -0.42228,0.82973 -0.35904,1.81266 -0.28575,2.74081 -0.23522,-0.0442 -0.37413,0.25691 -0.39873,0.49477 -0.0744,0.7239 0.0979,1.47082 0.48207,2.08889 0.0741,0.11906 0.22437,0.24659 0.33417,0.15928 0.19261,0.68924 0.30744,1.39965 0.34528,2.11428 -0.0619,0.14976 -0.10451,0.32544 -0.15796,0.42519 -0.13176,0.24553 -0.29342,0.47308 -0.52467,0.63474 -0.24447,0.17065 -0.53816,0.25214 -0.81041,0.37332 -0.7665,0.34105 -1.34806,0.98849 -2.04179,1.46024 -1.03505,0.70379 -2.28865,0.99721 -3.41551,1.54225 -0.11721,0.0566 -0.23839,0.12065 -0.3093,0.22966 -0.0921,0.14129 -0.0796,0.32332 -0.0699,0.4916 0.0362,0.61304 -0.006,1.23058 -0.12382,1.83303 -0.16484,0.839 -0.47943,1.67111 -0.39661,2.52227 0.0513,0.53049 0.25505,1.03241 0.38576,1.54888 0.22119,0.87444 0.23204,1.78699 0.22489,2.68896 -0.0156,1.95209 -0.11059,3.90366 -0.28469,5.84808 -0.0664,0.74163 -0.14419,1.49013 -0.0489,2.22885 0.0931,0.72337 0.34925,1.41446 0.60377,2.09788 0.43022,1.1565 0.86069,2.31325 1.29091,3.46975 0.18785,-0.12541 0.37174,-0.25665 0.55218,-0.39238 0.21961,0.449 0.54848,0.88027 0.77259,1.16179 0.10451,0.13123 0.22357,0.26088 0.37068,0.33549 -0.006,0.0913 -0.013,0.18283 -0.0185,0.27331 -0.12304,2.01957 -0.24607,4.03913 -0.3691,6.05843 -0.0548,0.89879 -0.10954,1.7989 -0.0881,2.69902 0.0352,1.48484 0.27305,3.00672 -0.14949,4.43044 -0.0582,0.19659 -0.12912,0.40693 -0.063,0.60114 0.0743,0.21801 0.30056,0.35004 0.40322,0.55615 0.15558,0.31142 -0.008,0.67734 -0.11986,1.00727 -0.11139,0.32994 -0.12329,0.77973 0.18759,0.9361 -0.23045,0.3175 -0.30638,0.79772 -0.44979,1.16284 0.0709,0.0183 0.14182,0.0362 0.21299,0.0545 -0.0209,1.32133 0.0116,2.64372 0.0974,3.9624 0.0545,0.83794 0.13044,1.67879 0.0688,2.51619 -0.0619,0.84005 -0.24051,1.76901 0.24262,2.45877 0.20188,0.2884 0.51647,0.52785 0.56357,0.87683 0.0781,0.5768 -0.58738,0.94166 -0.89509,1.4359 0.50774,0.44952 0.74189,1.15781 0.70882,1.83515 -0.0331,0.67733 -0.30956,1.32503 -0.68554,1.88939 -0.31247,0.46937 -0.7112,0.90276 -1.22661,1.13162 -0.0974,0.0431 -0.20584,0.0855 -0.25717,0.17859 -0.0402,0.0725 -0.0362,0.16034 -0.0312,0.24316 0.0185,0.30585 0.037,0.61171 0.0556,0.91757 0.006,0.0984 0.0138,0.20241 0.0704,0.2831 0.0524,0.0746 0.13838,0.11748 0.22225,0.15293 0.66358,0.27887 1.40679,0.27596 2.12646,0.26829 0.32199,-0.003 0.65087,-0.008 0.95514,-0.11324 0.30427,-0.1053 0.58579,-0.33126 0.67125,-0.64188 0.0328,-0.11933 0.0392,-0.25294 0.118,-0.34793 0.0669,-0.0807 0.17278,-0.11615 0.27358,-0.14525 0.3228,-0.0929 0.6567,-0.15955 0.95753,-0.30957 0.30057,-0.15001 0.80222,-0.37782 0.73263,-0.7067 -0.24765,-1.17104 -0.29871,-2.38336 -0.15055,-3.57108 0.0185,-0.14896 0.0402,-0.30162 0.006,-0.44767 -0.0444,-0.1905 -0.18045,-0.35507 -0.19817,-0.54981 -0.0246,-0.27067 0.17938,-0.4998 0.31273,-0.7366 0.29237,-0.5199 0.2413,-1.21258 -0.12409,-1.68407 -0.23151,-0.29845 -0.59663,-0.57547 -0.54901,-0.95012 0.0288,-0.22701 0.20717,-0.40031 0.35375,-0.576 0.90514,-1.08373 0.79005,-2.65932 0.66887,-4.06611 -0.13071,-1.51712 -0.2114,-3.03874 -0.24183,-4.56116 -0.12197,-0.12779 -0.24395,-0.25532 -0.36565,-0.38311 0.3503,-0.13864 0.56012,-0.51091 0.62785,-0.88159 0.0677,-0.37069 0.0209,-0.75116 0.0109,-1.12792 -0.0281,-1.03876 0.22331,-2.06269 0.48683,-3.06785 0.60405,-2.30399 1.28588,-4.58734 2.03571,-6.84821 0.0706,0.39847 0.15848,0.79561 0.23786,1.1901 0.55403,2.75749 0.68924,5.5798 0.82312,8.38914 0.0317,0.66887 0.0638,1.33774 0.0955,2.00687 0.0198,0.41963 0.0384,0.85116 -0.0992,1.24777 -0.0921,0.26538 -0.25056,0.50403 -0.33628,0.77153 -0.0625,0.19447 -0.0847,0.39952 -0.10293,0.60298 -0.25241,2.82999 0.22358,5.792 -0.79798,8.44339 0.28019,0.26961 0.62309,0.47386 0.99378,0.59213 -0.14553,0.26432 -0.38233,0.47705 -0.66067,0.59373 0.3474,0.54028 0.56885,1.15914 0.6514,1.79599 -0.0944,0.2585 -0.15054,0.53578 -0.19182,0.8083 -0.0881,0.57997 -0.13229,1.16655 -0.13203,1.75313 0,0.14049 0.006,0.29051 0.0852,0.40614 0.0497,0.0722 0.12383,0.12382 0.19923,0.16854 0.52705,0.31247 1.22291,0.39211 1.58644,0.88529 0.13203,0.17939 0.20453,0.39688 0.33629,0.57653 0.19685,0.26802 0.51303,0.42968 0.83793,0.50006 0.32491,0.0704 0.66173,0.0577 0.99351,0.0352 0.40693,-0.0278 0.81254,-0.0706 1.21629,-0.12806 0.1061,-0.0151 0.22014,-0.0352 0.29554,-0.11139 0.0661,-0.0667 0.0897,-0.16377 0.10663,-0.25638 0.0463,-0.25109 0.0664,-0.50694 0.0601,-0.76226 -0.003,-0.1278 -0.0138,-0.25744 -0.0608,-0.37624 -0.0839,-0.21034 -0.27094,-0.35825 -0.43074,-0.51858 -0.51462,-0.51647 -0.78582,-1.2237 -0.99272,-1.92273 -0.10081,-0.34025 -0.1987,-0.67839 -0.30507,-1.01362 0.19183,-0.29686 0.42466,-0.56753 0.69004,-0.80116 -0.46831,-0.72178 -0.41116,-1.65232 -0.32385,-2.50825 0.25135,-2.46565 0.6133,-4.91992 1.08426,-7.35303 0.14579,-0.75354 0.23072,-1.69625 -0.40349,-2.12858 0.31115,-0.16219 0.62257,-0.32437 0.93372,-0.48656 -0.57918,-0.78132 -0.3048,-1.87087 -0.0789,-2.81676 0.45641,-1.91082 0.60907,-3.87932 0.75988,-5.83829 0.18283,-2.37305 0.36645,-4.75139 0.32174,-7.13344 -0.002,-0.12779 -0.006,-0.25029 -0.0109,-0.36988 0.77814,-0.21855 1.44595,-0.82233 1.83224,-1.56078 0.17991,0.16933 0.3982,0.31565 0.62732,0.25215 1.05199,-2.67071 1.76054,-5.46153 2.46619,-8.24389 0.28336,-1.11786 0.56938,-2.27145 0.40666,-3.41392 z m -20.20173,2.45904 c 0.19711,-1.23613 0.39423,-2.47227 0.59108,-3.7084 0.1524,0.52096 0.28866,1.0451 0.35692,1.58327 0.25162,1.98516 -0.43921,3.95922 -0.58843,5.95497 -0.0937,-0.46434 -0.18336,-0.92974 -0.26511,-1.3962 -0.0593,-0.33814 -0.11351,-0.69665 0.0124,-1.01574 0.0463,-0.11774 0.11721,-0.22992 0.12409,-0.35639 0.0127,-0.23019 -0.18653,-0.41646 -0.24156,-0.64029 -0.0339,-0.13732 -0.0117,-0.28152 0.0106,-0.42122 z m 16.59546,-0.95277 c -0.19341,0.14791 -0.38656,0.29581 -0.57997,0.44371 0.20558,0.24633 0.41143,0.49292 0.61701,0.73925 -0.47784,0.19473 -0.68315,0.74692 -0.83608,1.23983 -0.31697,1.02103 -0.63368,2.04179 -0.95065,3.06282 -0.51065,-3.79016 -0.576,-7.63984 -0.19367,-11.44534 0.1516,0.46487 0.30321,0.92974 0.45481,1.39435 0.4961,1.52188 0.99219,3.04377 1.48855,4.56538 z"
       id="path3"
       style="stroke-width:0.264583" />
  </g>
</svg>
