<?xml version="1.0" encoding="UTF-8" standalone="no"?>
<svg
   version="1.0"
   width="400.05176pt"
   height="1279.8501pt"
   viewBox="0 0 400.05176 1279.8501"
   preserveAspectRatio="xMidYMid"
   id="svg1"
   sodipodi:docname="generic_woman03-1.62.svg"
   inkscape:version="1.4.2 (f4327f4, 2025-05-13)"
   xmlns:inkscape="http://www.inkscape.org/namespaces/inkscape"
   xmlns:sodipodi="http://sodipodi.sourceforge.net/DTD/sodipodi-0.dtd"
   xmlns="http://www.w3.org/2000/svg"
   xmlns:svg="http://www.w3.org/2000/svg">
  <defs
     id="defs1" />
  <sodipodi:namedview
     id="namedview1"
     pagecolor="#ffffff"
     bordercolor="#000000"
     borderopacity="0.25"
     inkscape:showpageshadow="2"
     inkscape:pageopacity="0.0"
     inkscape:pagecheckerboard="0"
     inkscape:deskcolor="#d1d1d1"
     inkscape:document-units="pt"
     inkscape:zoom="0.80742188"
     inkscape:cx="-435.95549"
     inkscape:cy="876.86502"
     inkscape:window-width="2880"
     inkscape:window-height="1676"
     inkscape:window-x="-12"
     inkscape:window-y="-12"
     inkscape:window-maximized="1"
     inkscape:current-layer="svg1" />
  <metadata
     id="metadata1">
Created by potrace 1.15, written by Peter Selinger 2001-2017
</metadata>
  <g
     transform="matrix(0.1,0,0,-0.1,-119.73623,1279.8955)"
     fill="#000000"
     stroke="none"
     id="g1">
    <path
       d="m 3363,12789 c -103,-17 -202,-68 -275,-141 -90,-90 -180,-357 -220,-658 -18,-139 -16,-483 5,-595 16,-92 41,-165 55,-165 4,1 65,9 135,19 105,14 130,15 134,5 7,-20 -27,-277 -39,-292 -20,-24 -133,-70 -208,-86 -41,-8 -136,-19 -210,-25 -337,-27 -356,-35 -478,-206 -48,-66 -156,-214 -242,-330 -445,-600 -643,-895 -749,-1115 -73,-152 -85,-203 -65,-298 23,-113 85,-264 204,-497 205,-402 481,-832 663,-1030 38,-42 48,-47 107,-56 36,-6 85,-7 109,-4 l 44,7 -7,-58 c -3,-31 -12,-102 -18,-158 -15,-135 -15,-644 0,-831 45,-544 134,-1047 336,-1905 88,-375 91,-391 72,-464 -38,-144 -50,-285 -50,-561 0,-498 73,-1027 260,-1883 25,-114 45,-227 45,-253 0,-25 -14,-101 -32,-169 -28,-110 -31,-129 -21,-167 11,-39 7,-58 -40,-230 -47,-172 -52,-198 -52,-298 -1,-127 10,-167 60,-219 117,-120 431,-167 556,-83 30,20 34,30 41,87 16,124 -22,490 -62,605 -18,51 -18,58 -3,112 25,92 22,343 -6,453 -28,111 -29,279 -2,702 36,576 41,692 41,963 0,287 -15,451 -50,563 -16,54 -17,68 -6,134 32,186 44,374 49,773 4,349 30,1048 40,1080 3,10 7,-69 26,-470 6,-110 13,-351 17,-537 6,-312 5,-339 -12,-374 -40,-85 -24,-289 36,-464 28,-82 29,-91 29,-270 -2,-535 123,-1671 213,-1948 16,-49 20,-78 15,-98 -29,-106 -16,-282 27,-403 18,-48 21,-69 14,-84 -45,-83 -99,-425 -99,-628 0,-82 3,-100 20,-122 27,-34 76,-47 176,-47 205,0 424,105 470,226 29,77 17,135 -57,270 -74,135 -120,245 -120,283 0,14 3,61 7,103 4,55 0,118 -16,225 l -22,148 30,250 c 84,694 107,1045 99,1520 -6,345 -20,507 -63,714 -15,69 -29,137 -31,151 -2,14 19,135 47,270 96,462 179,885 206,1056 l 28,170 59,11 c 200,38 351,212 403,462 18,87 20,282 5,387 -12,83 -6,146 44,459 114,702 140,901 157,1196 14,233 3,413 -33,524 -20,63 -22,88 -20,255 3,202 -7,345 -45,664 -61,524 -157,1020 -228,1179 -44,100 -121,134 -431,187 -225,38 -323,62 -400,99 -98,46 -99,48 -129,211 -33,183 -33,200 -3,200 42,0 125,-30 157,-56 17,-15 32,-25 34,-23 11,11 46,147 58,220 21,134 17,607 -6,734 -46,254 -92,362 -195,457 -151,140 -373,203 -588,167 z M 2546,9823 c 20,-70 14,-128 -26,-247 -52,-155 -38,-223 68,-315 l 58,-50 12,-148 c 25,-310 34,-507 30,-670 l -4,-168 -48,-69 c -55,-80 -86,-138 -138,-256 -29,-66 -42,-86 -60,-90 -13,-3 -39,-17 -58,-31 -55,-41 -76,-42 -104,-6 -115,153 -425,869 -476,1098 l -13,56 38,59 c 52,81 154,214 349,454 92,113 206,260 253,327 48,67 90,120 95,117 4,-3 15,-30 24,-61 z m 1944,-333 c 68,-655 118,-988 182,-1205 19,-64 19,-78 9,-172 -15,-131 -15,-597 0,-908 6,-132 12,-357 13,-500 1,-236 -1,-263 -18,-295 -10,-19 -27,-55 -38,-80 l -19,-45 6,70 c 10,125 7,637 -5,770 -38,434 -151,823 -303,1044 -30,44 -30,47 -35,196 -5,158 8,436 33,715 20,216 19,213 65,245 46,32 80,96 80,151 0,21 -9,81 -20,133 -23,108 -25,183 -8,232 l 12,34 8,-45 c 4,-25 21,-178 38,-340 z m 276,-3606 c 10,-39 -24,-99 -103,-185 -37,-41 -81,-90 -96,-109 l -29,-35 6,35 c 3,19 11,74 17,123 10,71 15,87 29,87 10,0 45,25 79,55 34,30 68,55 76,55 8,0 18,-12 21,-26 z"
       id="path1" />
  </g>
</svg>
