<?xml version="1.0" encoding="UTF-8" standalone="no"?>
<!-- Created with Inkscape (http://www.inkscape.org/) -->

<svg
   width="50.854763mm"
   height="119.68134mm"
   viewBox="0 0 50.854763 119.68134"
   version="1.1"
   id="svg1"
   inkscape:version="1.4.2 (f4327f4, 2025-05-13)"
   sodipodi:docname="generic_man06-1.75.svg"
   xmlns:inkscape="http://www.inkscape.org/namespaces/inkscape"
   xmlns:sodipodi="http://sodipodi.sourceforge.net/DTD/sodipodi-0.dtd"
   xmlns="http://www.w3.org/2000/svg"
   xmlns:svg="http://www.w3.org/2000/svg">
  <sodipodi:namedview
     id="namedview1"
     pagecolor="#ffffff"
     bordercolor="#000000"
     borderopacity="0.25"
     inkscape:showpageshadow="2"
     inkscape:pageopacity="0.0"
     inkscape:pagecheckerboard="0"
     inkscape:deskcolor="#d1d1d1"
     inkscape:document-units="mm"
     inkscape:zoom="0.86804103"
     inkscape:cx="-543.7531"
     inkscape:cy="179.71501"
     inkscape:window-width="2880"
     inkscape:window-height="1676"
     inkscape:window-x="-12"
     inkscape:window-y="-12"
     inkscape:window-maximized="1"
     inkscape:current-layer="layer1" />
  <defs
     id="defs1" />
  <g
     inkscape:label="图层 1"
     inkscape:groupmode="layer"
     id="layer1"
     transform="translate(-211.66663,-121.70836)">
    <path
       d="m 262.27862,185.07228 c -0.3339,-0.4109 -1.0078,-1.9857 -1.30889,-2.50719 -0.30083,-0.52149 -1.42425,-2.2815 -2.28653,-3.10409 -0.21299,-0.20294 -0.42704,-0.34766 -0.62865,-0.45085 -0.62389,-1.4314 -1.38192,-7.18952 -1.80843,-11.56891 -0.45138,-4.63338 -1.92564,-6.4688 -1.92564,-6.4688 0.21061,-3.79095 -1.05304,-7.73244 -1.01282,-8.6651 0.0402,-0.93266 0,-3.84122 0,-3.84122 -0.22066,-4.77388 -2.74796,-5.69648 -5.49593,-6.57913 -2.74796,-0.88265 -6.09758,-2.56752 -6.59923,-3.00858 -0.50139,-0.44132 -0.50139,-1.16337 -0.5215,-2.34685 -0.0193,-1.14512 0.46779,-2.36564 0.86281,-3.75179 1.06336,-0.0251 1.69042,-3.21839 1.16284,-3.50917 -0.19023,-0.10504 -0.33311,-0.11298 -0.43947,-0.0767 0.16695,-1.62428 0.0968,-3.45334 -0.68368,-4.87759 -1.48432,-2.70775 -4.37277,-2.60747 -4.37277,-2.60747 h -0.25347 c 0,0 -2.88846,-0.10028 -4.37277,2.60747 -0.78079,1.42425 -0.85064,3.25305 -0.68368,4.87759 -0.10637,-0.0362 -0.24924,-0.0283 -0.43948,0.0767 -0.52731,0.29104 0.0995,3.48403 1.16311,3.50917 0.39502,1.38615 0.88239,2.60667 0.86281,3.75179 -0.0201,1.18348 -0.0201,1.90553 -0.5215,2.34685 -0.50138,0.44133 -3.85127,2.12619 -6.59923,3.00858 -2.74797,0.88265 -5.27527,1.80525 -5.49593,6.57913 0,0 -0.0402,2.90856 0,3.84122 0.0402,0.93266 -1.22343,4.87415 -1.01282,8.6651 0,0 -1.47426,1.83542 -1.92564,6.4688 -0.42651,4.37939 -1.18454,10.13751 -1.80843,11.56891 -0.20161,0.10319 -0.41566,0.24791 -0.62865,0.45085 -0.86254,0.82232 -1.9857,2.5826 -2.28653,3.10409 -0.30083,0.52149 -0.97499,2.09629 -1.30889,2.50719 -0.39106,0.48128 -0.33735,1.19142 0.36115,0.85752 0.69189,-0.331 1.38907,-1.13824 1.66979,-1.61978 0.28072,-0.48154 0.48128,-0.60167 0.48128,-0.60167 0,0 -0.37333,3.1541 -0.47731,4.11242 -0.11536,1.0631 -0.51567,2.51698 0.036,2.66727 0.60616,0.16536 0.76227,-0.64188 0.86254,-1.26365 0.10028,-0.62177 0.72285,-3.61077 0.92049,-3.79095 0.24659,-0.22463 0.13785,0.12356 0.0823,0.84243 -0.0188,0.24315 -0.10027,1.4642 -0.22066,2.24658 -0.12038,0.78237 -0.52149,2.5273 0.32094,2.42702 0.84243,-0.10028 1.04299,-4.81383 1.18348,-5.15488 0.1405,-0.34104 0.26088,-0.20055 0.18045,0.64188 -0.0254,0.26644 -0.46143,3.43006 -0.30083,4.07168 0.1606,0.64187 0.78237,0.5416 0.98292,-0.28073 0.20056,-0.82232 0.40111,-4.1521 0.54161,-4.39261 0.14049,-0.24077 0.18044,0.20055 0.14023,0.80248 -0.0294,0.44027 -0.28073,2.84824 0.20055,2.94852 0.48128,0.10028 0.67707,-0.19553 0.81042,-1.95554 0.11694,-1.5412 0.13229,-2.39712 0.21246,-3.37978 0.0802,-0.98293 0.18044,-3.87112 -0.30083,-4.75377 0,0 0.60166,-2.96863 1.8452,-5.53614 1.24354,-2.56752 3.08901,-7.06041 3.00858,-9.26677 -0.0667,-1.83224 1.47108,-8.20076 2.04047,-10.35421 0.054,0.53684 0.13255,1.10543 0.24606,1.6891 0.56171,2.88846 1.40414,6.37858 1.28376,8.54472 -0.12039,2.16641 -0.36116,5.45571 -0.60167,6.73947 -0.24077,1.28376 -1.68486,6.25819 -1.64491,12.39599 0.0402,6.13781 0.88265,13.37866 1.28376,14.90319 0.40111,1.52453 0.51673,3.0353 0.39634,4.07829 -0.12038,1.04298 -0.35639,3.36311 -0.11562,4.92786 0,0 -0.96282,4.09178 -0.20055,9.66788 0.76226,5.57609 2.12619,11.71389 2.12619,12.35577 0,0.0574 0,0.14473 0,0.25506 -0.0656,0.29924 -0.13811,0.59717 -0.204,0.89641 -0.0794,0.36195 -0.13282,0.7239 -0.14287,1.09484 -0.01,0.36672 0.0109,0.73237 0.0172,1.09908 0.005,0.25691 -0.003,0.51356 -0.0275,0.76888 -0.18441,0.37412 -0.40666,0.73396 -0.63447,1.07818 -0.3093,0.46725 -0.65908,0.90593 -1.01468,1.33826 -0.35904,0.43657 -0.72548,0.86704 -1.06786,1.31683 -0.17012,0.22358 -0.33443,0.45165 -0.48842,0.68686 -0.1606,0.24501 -0.3421,0.50271 -0.39925,0.7956 -0.0529,0.27014 0.0238,0.54266 0.28098,0.67099 0.0513,0.0257 0.10584,0.0418 0.16034,0.0489 -0.007,0.0828 -0.002,0.16721 0.022,0.25452 0.0873,0.31936 0.41249,0.54928 0.73978,0.55854 0.0442,0.1524 0.15637,0.26802 0.3302,0.31776 0.21272,0.0606 0.4437,-0.003 0.63367,-0.11297 0.01,0.0487 0.0251,0.0963 0.0487,0.14234 0.11853,0.23178 0.38311,0.331 0.63182,0.32359 0.29396,-0.009 0.54346,-0.18203 0.73898,-0.38947 0.10134,-0.10742 0.19341,-0.22251 0.28523,-0.33708 -0.0386,0.15478 -0.0421,0.31644 0.0153,0.46699 0.10716,0.28046 0.41196,0.42201 0.69215,0.4617 0.26591,0.0378 0.53472,-0.0156 0.77391,-0.13494 0.0918,-0.0458 0.18573,-0.10424 0.27305,-0.17303 0.16377,-0.0804 0.313,-0.19738 0.44026,-0.32385 0.28311,-0.28099 0.47837,-0.63077 0.62548,-0.99828 0.32597,-0.81386 0.43074,-1.69809 0.60087,-2.55243 0.032,-0.1606 0.0653,-0.32279 0.10213,-0.48445 0.0212,0.0146 0.0545,0.013 0.0833,-0.0161 0.36486,-0.37016 0.50562,-0.96917 0.54928,-1.47056 0.0534,-0.61463 -0.0402,-1.22793 -0.15399,-1.83039 -0.12065,-0.63949 -0.23998,-1.27688 -0.31565,-1.92378 -0.0754,-0.64638 -0.11695,-1.29593 -0.1479,-1.94548 -0.0169,-0.35719 -0.0323,-0.71438 -0.0476,-1.07157 -0.001,-0.0262 -0.003,-0.0524 -0.004,-0.0786 0.073,-0.99192 0.15743,-1.95791 0.25347,-2.78368 0.40111,-3.4499 1.80525,-9.1866 1.4441,-12.15522 -0.36116,-2.96863 0.0788,-10.55053 0.46143,-12.71693 0.38259,-2.16641 2.22647,-14.36159 1.82536,-17.85171 l 0.44767,-0.0407 0.44768,0.0407 c -0.40111,3.49012 1.44277,15.68556 1.82536,17.85171 0.38259,2.16614 0.82232,9.7483 0.46143,12.71693 -0.36115,2.96862 1.04299,8.70532 1.4441,12.15522 0.096,0.82577 0.18044,1.79203 0.25347,2.78368 -0.001,0.0262 -0.003,0.0524 -0.004,0.0786 -0.0153,0.35719 -0.0307,0.71438 -0.0476,1.07157 -0.0307,0.64981 -0.0725,1.29937 -0.14791,1.94548 -0.0757,0.6469 -0.19499,1.28402 -0.31564,1.92378 -0.11377,0.60246 -0.20744,1.21576 -0.15399,1.83039 0.0436,0.50139 0.18415,1.10014 0.54927,1.47056 0.0288,0.0291 0.0622,0.0309 0.0833,0.0161 0.0368,0.16166 0.0701,0.32385 0.10213,0.48445 0.17012,0.85434 0.2749,1.73857 0.60087,2.55243 0.1471,0.36777 0.34237,0.71729 0.62547,0.99828 0.12753,0.12647 0.27649,0.24341 0.44027,0.32385 0.0873,0.0685 0.18124,0.127 0.27305,0.17303 0.23918,0.11959 0.508,0.17278 0.7739,0.13494 0.2802,-0.04 0.585,-0.18124 0.69215,-0.4617 0.0574,-0.15055 0.054,-0.31221 0.0154,-0.46699 0.0918,0.11483 0.18362,0.22966 0.28522,0.33708 0.19579,0.20744 0.44503,0.38047 0.73925,0.38947 0.2487,0.008 0.51329,-0.0916 0.63182,-0.32359 0.0236,-0.046 0.0392,-0.0937 0.0487,-0.14234 0.18997,0.11006 0.42096,0.17356 0.63368,0.11297 0.17383,-0.0497 0.28575,-0.16536 0.3302,-0.31776 0.32729,-0.009 0.65246,-0.23892 0.73978,-0.55854 0.0238,-0.0873 0.0288,-0.17197 0.022,-0.25452 0.0545,-0.007 0.109,-0.0236 0.1606,-0.0489 0.25717,-0.12833 0.3339,-0.40111 0.28099,-0.67099 -0.0571,-0.29289 -0.23866,-0.55059 -0.39926,-0.7956 -0.15399,-0.23495 -0.31829,-0.46328 -0.48842,-0.68686 -0.34237,-0.44979 -0.70882,-0.88026 -1.06786,-1.31683 -0.3556,-0.43233 -0.70538,-0.87127 -1.01468,-1.33826 -0.2278,-0.34422 -0.45005,-0.70406 -0.63447,-1.07818 -0.0246,-0.25506 -0.0318,-0.5117 -0.0275,-0.76888 0.006,-0.36644 0.027,-0.73236 0.0172,-1.09908 -0.0101,-0.37094 -0.0632,-0.73289 -0.14287,-1.09484 -0.0656,-0.29924 -0.13838,-0.59717 -0.204,-0.89641 0,-0.1106 0,-0.19791 0,-0.25506 0,-0.64188 1.36393,-6.77968 2.1262,-12.35577 0.76226,-5.5761 -0.20056,-9.66788 -0.20056,-9.66788 0.24077,-1.56448 0.005,-3.88461 -0.11562,-4.92786 -0.12039,-1.04299 -0.005,-2.55403 0.39635,-4.07829 0.4011,-1.52427 1.24354,-8.76538 1.28375,-14.90319 0.0402,-6.1378 -1.40414,-11.11223 -1.64465,-12.39599 -0.24077,-1.28376 -0.48127,-4.57332 -0.60166,-6.73947 -0.12038,-2.16641 0.72205,-5.65626 1.28376,-8.54472 0.11351,-0.5834 0.19209,-1.15226 0.24606,-1.6891 0.56939,2.15345 2.10714,8.52197 2.04047,10.35421 -0.0802,2.20636 1.76503,6.69951 3.00858,9.26677 1.24354,2.56751 1.84546,5.53614 1.84546,5.53614 -0.48154,0.88265 -0.381,3.77084 -0.30083,4.75377 0.0802,0.98292 0.0955,1.83858 0.21246,3.37978 0.13362,1.76001 0.32915,2.05582 0.81069,1.95554 0.48127,-0.10028 0.23018,-2.50825 0.20055,-2.94852 -0.0402,-0.60193 0,-1.04299 0.14023,-0.80248 0.14049,0.24077 0.34105,3.57029 0.5416,4.39261 0.20056,0.82233 0.82233,0.9226 0.98293,0.28073 0.1606,-0.64188 -0.27543,-3.80551 -0.30083,-4.07168 -0.0802,-0.84243 0.0402,-0.98292 0.18044,-0.64188 0.1405,0.34105 0.34105,5.0546 1.18349,5.15488 0.84243,0.10028 0.44132,-1.64465 0.32093,-2.42702 -0.12038,-0.78238 -0.20187,-2.00316 -0.22066,-2.24658 -0.0556,-0.71887 -0.1643,-1.06706 0.0823,-0.84243 0.19791,0.18018 0.82021,3.16918 0.92048,3.79095 0.10028,0.62177 0.25638,1.42901 0.86254,1.26365 0.55166,-0.15055 0.15135,-1.60417 0.036,-2.66727 -0.10398,-0.95832 -0.47731,-4.11242 -0.47731,-4.11242 0,0 0.20055,0.12039 0.48154,0.60167 0.28072,0.48127 0.9779,1.28878 1.66979,1.61978 0.69956,0.3339 0.75327,-0.37624 0.36221,-0.85752 z"
       id="path1"
       style="stroke-width:0.264583" />
  </g>
</svg>
