<?xml version="1.0" encoding="UTF-8" standalone="no"?>
<!-- Created with Inkscape (http://www.inkscape.org/) -->

<svg
   width="84.840569mm"
   height="203.41312mm"
   viewBox="0 0 84.840571 203.4131"
   version="1.1"
   id="svg1"
   inkscape:version="1.4.2 (f4327f4, 2025-05-13)"
   sodipodi:docname="generic_man09-1.75.svg"
   xmlns:inkscape="http://www.inkscape.org/namespaces/inkscape"
   xmlns:sodipodi="http://sodipodi.sourceforge.net/DTD/sodipodi-0.dtd"
   xmlns="http://www.w3.org/2000/svg"
   xmlns:svg="http://www.w3.org/2000/svg">
  <sodipodi:namedview
     id="namedview1"
     pagecolor="#ffffff"
     bordercolor="#000000"
     borderopacity="0.25"
     inkscape:showpageshadow="2"
     inkscape:pageopacity="0.0"
     inkscape:pagecheckerboard="0"
     inkscape:deskcolor="#d1d1d1"
     inkscape:document-units="mm"
     inkscape:zoom="1.2471942"
     inkscape:cx="198.84634"
     inkscape:cy="322.32351"
     inkscape:window-width="2880"
     inkscape:window-height="1676"
     inkscape:window-x="-12"
     inkscape:window-y="-12"
     inkscape:window-maximized="1"
     inkscape:current-layer="g5268" />
  <defs
     id="defs1" />
  <g
     inkscape:label="图层 1"
     inkscape:groupmode="layer"
     id="layer1"
     transform="translate(-25.929163,-98.689542)">
    <g
       id="g5268"
       transform="matrix(0.26458333,0,0,0.26458333,-25.537283,75.587411)">
	
	
	
	
	
	
	
	
	
	
	
	
	
	
	
	
	
	
	
	
	
	
	
	
	
	
	
	
	
	
	
	
	
	
	
	
	
	
	
	
	
	
	
	
	
	
	
	
	
	
	
	
	
	
	
	
	
	
	
	
	
	
	
	
	
	
	
	
	
	
	
	
	
	
	
	
	
	
<g
   id="g5423"
   transform="translate(-286.14218,73.111323)">
	<path
   id="path4024"
   fill="none"
   stroke="#000000"
   stroke-width="1.7916"
   d="m 619.019,116.322 c 0,0 0.215,2.919 0.274,4.381 0.069,1.733 0.091,3.468 0.091,5.203 10e-4,1.826 0.01,3.653 -0.091,5.476 -0.036,0.641 -0.022,1.295 -0.183,1.917 -0.191,0.739 -0.586,1.41 -0.913,2.099 -0.513,1.082 -0.971,2.203 -1.643,3.195 -0.702,1.035 -1.555,1.971 -2.464,2.829 -1.371,1.296 -2.909,2.413 -4.472,3.468 -2.452,1.656 -5.098,3.004 -7.667,4.472 -2.27,1.298 -4.511,2.654 -6.845,3.833 -1.908,0.964 -3.897,1.758 -5.841,2.647 -1.981,0.906 -3.945,1.848 -5.933,2.738 -1.393,0.624 -2.819,1.173 -4.199,1.825 -1.267,0.599 -2.436,1.408 -3.742,1.917 -1.912,0.745 -3.957,1.087 -5.933,1.643 -1.919,0.54 -3.896,0.911 -5.75,1.643 -1.24,0.49 -2.401,1.165 -3.56,1.825 -1.188,0.678 -2.4,1.337 -3.468,2.191 -0.941,0.752 -1.75,1.66 -2.556,2.556 -0.81,0.901 -1.645,1.799 -2.282,2.829 -0.616,0.996 -1.097,2.082 -1.46,3.195 -0.376,1.151 -0.567,2.359 -0.73,3.56 -0.242,1.783 -0.275,3.588 -0.365,5.385 -0.093,1.855 -0.095,3.713 -0.183,5.568 -0.093,1.979 -0.192,3.959 -0.365,5.933 -0.117,1.342 -0.38,2.671 -0.456,4.016 -0.086,1.519 -0.084,3.045 0,4.564 0.076,1.375 0.289,2.74 0.456,4.107 0.306,2.498 0.659,4.991 1.004,7.484 0.207,1.492 0.382,2.988 0.639,4.472 0.312,1.805 0.79,3.579 1.095,5.385 0.189,1.12 0.394,2.243 0.456,3.377 0.066,1.216 0.005,2.437 -0.091,3.651 -0.109,1.377 -0.337,2.742 -0.548,4.107 -0.376,2.442 -0.823,4.873 -1.278,7.302 -0.257,1.372 -0.604,2.728 -0.821,4.107 -0.205,1.301 -0.328,2.614 -0.456,3.925 -0.187,1.914 -0.258,3.838 -0.456,5.75 -0.222,2.136 -0.523,4.263 -0.821,6.389 -0.393,2.804 -0.88,5.594 -1.278,8.397 -0.328,2.309 -0.5,4.641 -0.913,6.937 -0.265,1.475 -0.609,2.936 -1.004,4.381 -0.37,1.355 -0.827,2.686 -1.278,4.016 -0.519,1.531 -1.022,3.071 -1.643,4.564 -0.737,1.772 -1.568,3.506 -2.464,5.203 -0.478,0.904 -1.077,1.741 -1.552,2.647 -0.637,1.218 -1.194,2.478 -1.734,3.742 -0.36,0.841 -0.725,1.684 -1.004,2.556 -0.344,1.075 -0.582,2.182 -0.821,3.286 -0.321,1.481 -0.526,2.986 -0.821,4.472 -0.34,1.709 -0.732,3.407 -1.095,5.111 -0.337,1.582 -0.718,3.155 -1.004,4.746 -0.147,0.817 -0.264,1.64 -0.365,2.464 -0.193,1.578 -0.351,3.16 -0.456,4.746 -0.111,1.671 -0.152,3.346 -0.183,5.02 -0.023,1.247 0.026,2.495 0,3.742 -0.03,1.461 -0.059,2.925 -0.183,4.381 -0.101,1.192 -0.231,2.385 -0.456,3.56 -0.207,1.08 -0.553,2.128 -0.821,3.195 -0.497,1.975 -0.94,3.964 -1.46,5.933 -0.743,2.812 -1.498,5.623 -2.373,8.397 -0.611,1.936 -1.218,3.88 -2.008,5.75 -0.45,1.065 -1.224,1.994 -1.552,3.103 -0.234,0.793 -0.063,1.665 -0.274,2.464 -0.236,0.896 -0.539,1.814 -1.095,2.556 -0.402,0.536 -0.953,0.978 -1.552,1.278 -1.372,0.688 -3.037,0.551 -4.472,1.095 -1.222,0.463 -2.306,1.229 -3.468,1.825 -1.453,0.745 -2.89,1.525 -4.381,2.191 -1.135,0.507 -2.286,0.984 -3.468,1.369 -0.807,0.263 -1.748,0.185 -2.464,0.639 -0.401,0.254 -0.603,0.735 -0.913,1.095 -0.478,0.555 -1.008,1.066 -1.46,1.643 -0.662,0.843 -1.273,1.729 -1.825,2.647 -0.442,0.735 -0.712,1.568 -1.187,2.282 -0.527,0.791 -1.229,1.45 -1.825,2.191 -0.435,0.54 -0.779,1.16 -1.278,1.643 -0.297,0.288 -0.689,0.461 -1.004,0.73 -0.131,0.112 -0.261,0.228 -0.365,0.365 -0.298,0.39 -0.472,0.861 -0.73,1.278 -0.288,0.467 -0.628,0.9 -0.913,1.369 -0.36,0.594 -0.579,1.277 -1.004,1.825 -0.435,0.561 -1.026,0.983 -1.552,1.46 -0.479,0.435 -0.949,0.882 -1.46,1.278 -0.554,0.429 -1.181,0.757 -1.734,1.187 -0.256,0.198 -0.562,0.363 -0.73,0.639 -0.196,0.321 -0.315,0.721 -0.274,1.095 0.037,0.338 0.238,0.652 0.456,0.913 0.292,0.35 0.699,0.594 1.095,0.821 0.544,0.312 1.119,0.606 1.734,0.73 0.477,0.096 0.976,0.05 1.46,0 0.742,-0.076 1.475,-0.247 2.191,-0.456 0.906,-0.264 1.806,-0.576 2.647,-1.004 0.745,-0.379 1.466,-0.824 2.099,-1.369 0.555,-0.478 0.966,-1.102 1.46,-1.643 0.45,-0.493 1.015,-0.895 1.369,-1.46 0.225,-0.359 0.256,-0.813 0.456,-1.187 0.124,-0.23 0.294,-0.433 0.456,-0.639 0.574,-0.728 1.185,-1.429 1.825,-2.099 0.61,-0.638 1.223,-1.28 1.917,-1.825 0.694,-0.545 0.973,-0.755 1.552,-0.913 0.411,-0.112 0.857,-0.068 1.278,0 0.57,0.092 1.121,0.3 1.643,0.548 0.618,0.293 1.734,1.095 1.734,1.095" />

	<path
   id="path4034"
   fill="none"
   stroke="#000000"
   stroke-width="1.7916"
   d="m 509.492,404.651 c 0,0 3.682,-0.53 5.476,-1.004 2.149,-0.567 4.219,-0.855 6.298,-1.643 1.722,-0.653 3.653,-1.522 5.111,-2.647 1.359,-1.048 2.229,-2.631 3.103,-4.107 0.833,-1.406 2.008,-4.472 2.008,-4.472" />

	<path
   id="path4036"
   fill="none"
   stroke="#000000"
   stroke-width="1.7916"
   d="m 501.825,403.829 c 0,0 0.001,1.162 0.091,1.734 0.147,0.933 0.559,1.809 0.73,2.738 0.16,0.872 0.27,1.76 0.274,2.647 0.005,0.978 -0.119,1.955 -0.274,2.921 -0.238,1.479 -0.621,2.933 -1.004,4.381 -0.162,0.614 -0.455,1.197 -0.548,1.825 -0.084,0.572 0.054,1.159 0,1.734 -0.061,0.648 -0.194,1.289 -0.365,1.917 -0.213,0.78 -0.529,1.528 -0.821,2.282 -0.286,0.737 -0.619,1.456 -0.913,2.191 -0.411,1.028 -0.796,2.067 -1.187,3.103 -0.309,0.82 -0.545,1.669 -0.913,2.464 -0.235,0.507 -0.615,0.941 -0.821,1.46 -0.186,0.466 -0.265,0.969 -0.365,1.46 -0.117,0.573 -0.128,1.167 -0.274,1.734 -0.201,0.783 -0.545,1.522 -0.821,2.282 -0.332,0.914 -0.678,1.822 -1.004,2.738 -0.281,0.789 -0.577,1.573 -0.821,2.373 -0.138,0.452 -0.26,0.909 -0.365,1.369 -0.18,0.785 -0.337,1.576 -0.456,2.373 -0.127,0.847 -0.275,1.699 -0.274,2.556 10e-4,0.551 -0.023,1.132 0.183,1.643 0.187,0.463 0.562,0.832 0.913,1.187 0.381,0.385 0.761,0.841 1.278,1.004 0.523,0.165 1.133,0.112 1.643,-0.091 0.481,-0.192 0.85,-0.61 1.187,-1.004 0.533,-0.622 0.913,-1.366 1.278,-2.099 0.553,-1.113 0.968,-2.292 1.369,-3.468 0.46,-1.349 0.748,-2.751 1.187,-4.107 0.388,-1.199 0.757,-2.412 1.278,-3.56 0.259,-0.571 0.604,-1.098 0.913,-1.643 0.33,-0.581 0.73,-1.125 1.004,-1.734 0.277,-0.614 0.406,-1.285 0.639,-1.917 0.364,-0.986 0.794,-1.946 1.187,-2.921 0.368,-0.912 0.514,-1.945 1.095,-2.738 0.256,-0.349 0.618,-0.627 1.004,-0.821 0.224,-0.113 0.481,-0.21 0.73,-0.183 0.271,0.03 0.563,0.151 0.73,0.365 0.173,0.221 0.175,0.541 0.182,0.821 0.01,0.37 -0.068,0.743 -0.182,1.095 -0.189,0.582 -0.578,1.081 -0.821,1.643 -0.245,0.565 -0.429,1.155 -0.639,1.734 -0.34,0.941 -0.592,1.917 -1.004,2.829 -0.258,0.571 -0.635,1.081 -0.913,1.643 -0.338,0.684 -0.672,1.375 -0.913,2.099 -0.375,1.127 -0.558,2.31 -0.821,3.468 -0.38,1.67 -0.724,3.348 -1.095,5.02 -0.21,0.944 -0.461,1.879 -0.639,2.829 -0.227,1.209 -0.436,2.425 -0.548,3.651 -0.083,0.909 -0.147,1.827 -0.091,2.738 0.036,0.584 0.071,1.185 0.274,1.734 0.161,0.436 0.392,0.868 0.73,1.187 0.327,0.308 0.77,0.471 1.187,0.639 0.527,0.212 1.08,0.536 1.643,0.456 0.46,-0.065 0.822,-0.442 1.187,-0.73 0.338,-0.267 0.716,-0.53 0.913,-0.913 0.339,-0.658 0.227,-1.463 0.365,-2.191 0.191,-1.008 0.329,-2.034 0.639,-3.012 0.14,-0.442 0.443,-0.827 0.548,-1.278 0.131,-0.564 0.016,-1.16 0.091,-1.734 0.115,-0.864 0.321,-1.714 0.548,-2.556 0.332,-1.236 0.744,-2.45 1.187,-3.651 0.33,-0.896 0.64,-1.808 1.095,-2.647 0.282,-0.519 0.779,-0.914 1.004,-1.46 0.13,-0.314 0.126,-0.669 0.182,-1.004 0.066,-0.395 0.105,-0.794 0.183,-1.187 0.151,-0.768 0.406,-1.513 0.548,-2.282 0.128,-0.694 0.129,-1.409 0.274,-2.099 0.201,-0.961 0.478,-1.909 0.821,-2.829 0.152,-0.408 0.194,-0.932 0.548,-1.187 0.224,-0.161 0.566,-0.194 0.821,-0.091 0.22,0.089 0.375,0.324 0.456,0.548 0.114,0.315 0.046,0.673 0,1.004 -0.092,0.658 -0.36,1.279 -0.548,1.917 -0.207,0.702 -0.472,1.387 -0.639,2.099 -0.127,0.54 -0.21,1.091 -0.274,1.643 -0.108,0.939 -0.127,1.886 -0.183,2.829 -0.034,0.578 -0.019,1.16 -0.091,1.734 -0.155,1.231 -0.481,2.435 -0.73,3.651 -0.268,1.309 -0.586,2.609 -0.821,3.925 -0.146,0.818 -0.21,1.649 -0.365,2.464 -0.175,0.921 -0.483,1.814 -0.639,2.738 -0.097,0.573 -0.184,1.153 -0.183,1.734 0.002,0.551 -0.044,1.141 0.183,1.643 0.186,0.412 0.547,0.738 0.913,1.004 0.297,0.217 0.645,0.379 1.004,0.456 0.476,0.103 0.98,0.078 1.46,0 0.38,-0.062 0.768,-0.163 1.095,-0.365 0.403,-0.249 0.739,-0.612 1.004,-1.004 0.26,-0.384 0.401,-0.838 0.548,-1.278 0.446,-1.337 0.702,-2.731 1.004,-4.107 0.273,-1.241 0.484,-2.495 0.73,-3.742 0.391,-1.978 0.744,-3.965 1.187,-5.933 0.138,-0.612 0.226,-1.242 0.456,-1.825 0.23,-0.583 0.726,-1.045 0.913,-1.643 0.183,-0.584 0.152,-1.215 0.183,-1.825 0.042,-0.851 -0.053,-1.705 0,-2.556 0.076,-1.224 0.297,-2.435 0.456,-3.651 0.088,-0.67 0.146,-1.345 0.274,-2.008 0.071,-0.37 0.089,-0.768 0.274,-1.095 0.085,-0.15 0.211,-0.288 0.365,-0.365 0.192,-0.096 0.456,-0.204 0.639,-0.091 0.082,0.051 0.086,0.178 0.091,0.274 0.014,0.28 -0.145,0.543 -0.183,0.822 -0.085,0.634 -0.06,1.278 -0.091,1.917 -0.03,0.609 -0.119,1.217 -0.091,1.825 0.03,0.645 0.157,1.282 0.274,1.917 0.125,0.675 0.38,1.326 0.456,2.008 0.132,1.179 0,2.373 0,3.56 0,1.612 -0.022,3.225 0,4.837 0.016,1.126 -0.212,2.293 0.091,3.377 0.132,0.472 0.389,0.925 0.73,1.278 0.323,0.334 0.735,0.621 1.187,0.73 0.385,0.093 0.814,0.046 1.187,-0.091 0.388,-0.143 0.729,-0.421 1.004,-0.73 0.371,-0.417 0.605,-0.945 0.821,-1.46 0.38,-0.906 0.603,-1.872 0.821,-2.829 0.164,-0.722 0.304,-1.453 0.365,-2.191 0.048,-0.576 0.005,-1.156 0,-1.734 -0.016,-1.734 -0.18,-3.47 -0.091,-5.203 0.039,-0.765 0.211,-1.518 0.274,-2.282 0.055,-0.668 0.076,-1.338 0.091,-2.008 0.024,-1.065 -0.057,-2.131 0,-3.195 0.046,-0.856 0.11,-1.715 0.274,-2.556 0.085,-0.435 0.22,-0.859 0.365,-1.278 0.42,-1.212 0.981,-2.37 1.46,-3.56 0.587,-1.457 1.134,-2.93 1.734,-4.381 0.557,-1.347 1.102,-2.702 1.734,-4.016 0.673,-1.398 1.552,-2.693 2.191,-4.107 0.642,-1.421 1.219,-2.88 1.643,-4.381 0.261,-0.925 0.405,-1.879 0.548,-2.829 0.254,-1.695 0.427,-3.402 0.548,-5.111 0.126,-1.792 0.152,-3.589 0.183,-5.385 0.016,-0.943 0.168,-1.901 0,-2.829 -0.093,-0.512 -0.548,-1.46 -0.548,-1.46" />

	<path
   id="path4038"
   fill="none"
   stroke="#000000"
   stroke-width="1.7916"
   d="m 542.807,391.325 c 0,0 0.216,-1.187 0.456,-1.734 0.567,-1.291 1.596,-2.328 2.282,-3.56 0.755,-1.355 1.388,-2.776 2.008,-4.199 0.993,-2.279 1.933,-4.585 2.738,-6.937 0.739,-2.159 1.204,-4.404 1.917,-6.572 0.911,-2.771 2.025,-5.47 3.012,-8.215 0.557,-1.548 1.024,-3.13 1.643,-4.655 0.82,-2.018 1.823,-3.956 2.738,-5.933 1.001,-2.161 2.07,-4.293 3.012,-6.48 1.01,-2.345 1.794,-4.785 2.829,-7.119 0.839,-1.89 1.835,-3.707 2.738,-5.568 0.707,-1.457 1.555,-2.856 2.099,-4.381 0.389,-1.091 0.609,-2.238 0.821,-3.377 0.214,-1.146 0.327,-2.309 0.456,-3.468 0.149,-1.336 0.365,-4.016 0.365,-4.016" />

	<path
   id="path4040"
   fill="none"
   stroke="#000000"
   stroke-width="1.7916"
   d="m 571.558,318.307 c 0,0 0.976,-1.59 1.278,-2.464 0.323,-0.936 0.501,-1.931 0.548,-2.921 0.048,-1.007 -0.352,-2.007 -0.274,-3.012 0.068,-0.875 0.487,-1.691 0.639,-2.556 0.154,-0.874 0.242,-1.76 0.274,-2.647 0.033,-0.943 0.007,-1.891 -0.091,-2.829 -0.09,-0.861 -0.354,-1.696 -0.456,-2.556 -0.119,-0.999 -0.254,-2.009 -0.183,-3.012 0.075,-1.053 0.446,-2.065 0.639,-3.103 0.305,-1.637 0.534,-3.288 0.821,-4.929 0.406,-2.316 0.837,-4.627 1.278,-6.937 0.559,-2.924 1.16,-5.841 1.734,-8.762 0.52,-2.646 1.126,-5.278 1.552,-7.941 0.31,-1.938 0.484,-3.895 0.73,-5.841 0.15,-1.187 0.456,-3.56 0.456,-3.56" />

	<path
   id="path4043"
   fill="none"
   stroke="#000000"
   stroke-width="1.7916"
   d="m 575.209,210.789 c 0,0 0.652,2.04 1.095,3.012 0.78,1.71 1.773,3.316 2.738,4.929 0.78,1.304 1.504,2.657 2.464,3.833 1.102,1.35 2.616,2.321 3.742,3.651 1.102,1.301 2.921,4.199 2.921,4.199" />

	<path
   id="path4045"
   fill="none"
   stroke="#000000"
   stroke-width="1.7916"
   d="m 579.498,219.551 c 0,0 1.31,2.434 1.734,3.742 0.392,1.209 0.645,2.474 0.73,3.742 0.104,1.551 -0.177,3.104 -0.274,4.655 -0.115,1.826 -0.259,3.65 -0.365,5.476 -0.142,2.433 -0.234,4.868 -0.365,7.302 -0.085,1.582 -0.228,3.162 -0.274,4.746 -0.044,1.521 0,3.042 0,4.564 0,1.187 -0.02,2.373 0,3.56 0.03,1.765 0.165,3.528 0.183,5.294 0.019,2.008 -0.169,4.017 -0.091,6.024 0.051,1.313 0.232,2.618 0.365,3.925 0.168,1.644 0.396,3.283 0.548,4.929 0.115,1.245 0.208,2.493 0.274,3.742 0.1,1.915 0.051,3.837 0.182,5.75 0.099,1.435 0.295,2.861 0.456,4.29 0.144,1.279 0.366,2.55 0.456,3.833 0.096,1.366 0.163,2.74 0.091,4.107 -0.075,1.44 -0.338,2.864 -0.548,4.29 -0.323,2.197 -0.721,4.383 -1.095,6.572 -0.386,2.253 -0.816,4.499 -1.187,6.754 -0.424,2.582 -0.821,5.168 -1.187,7.758 -0.232,1.64 -0.453,3.283 -0.639,4.929 -0.285,2.521 -0.608,5.042 -0.73,7.576 -0.052,1.094 -0.02,2.191 0,3.286 0.016,0.852 0.076,1.703 0.091,2.556 0.016,0.852 0.076,1.707 0,2.556 -0.061,0.678 -0.207,1.346 -0.365,2.008 -0.347,1.451 -0.967,2.83 -1.278,4.29 -0.294,1.38 -0.314,2.807 -0.548,4.199 -0.35,2.083 -0.833,4.142 -1.278,6.207 -0.467,2.165 -1.018,4.311 -1.46,6.48 -0.507,2.485 -0.854,5.001 -1.369,7.484 -0.355,1.713 -0.869,3.391 -1.187,5.111 -0.363,1.963 -0.62,3.946 -0.821,5.933 -0.286,2.821 -0.41,5.656 -0.548,8.488 -0.09,1.855 -0.152,3.711 -0.183,5.568 -0.027,1.673 0.088,3.349 0,5.02 -0.107,2.016 -0.384,4.021 -0.639,6.024 -0.366,2.868 -0.892,5.714 -1.278,8.58 -0.442,3.28 -0.917,6.559 -1.187,9.857 -0.286,3.49 -0.362,6.995 -0.456,10.496 -0.079,2.95 -0.091,5.902 -0.091,8.853 0,2.951 0.066,5.902 0.091,8.853 0.037,4.29 -0.033,8.581 0.091,12.869 0.104,3.593 0.377,7.18 0.548,10.77 0.13,2.738 0.174,5.48 0.365,8.215 0.089,1.28 0.236,2.556 0.365,3.833 0.288,2.862 0.59,5.722 0.913,8.58 0.403,3.562 0.784,7.128 1.278,10.679 0.454,3.265 0.941,6.527 1.552,9.766 0.37,1.959 0.954,3.875 1.278,5.841 0.179,1.087 0.241,2.191 0.365,3.286 0.09,0.791 0.24,1.578 0.274,2.373 0.042,1.004 -0.076,2.008 -0.091,3.012 -0.029,1.917 0.063,3.834 0,5.75 -0.076,2.316 -0.287,4.626 -0.456,6.937 -0.165,2.253 -0.394,4.501 -0.548,6.754 -0.112,1.642 -0.264,3.283 -0.274,4.929 -0.009,1.401 0.13,2.799 0.183,4.198 0.071,1.886 0.129,3.772 0.183,5.659 0.035,1.247 0.165,2.497 0.091,3.742 -0.051,0.859 -0.211,1.709 -0.365,2.556 -0.352,1.932 -0.802,3.845 -1.278,5.75 -0.634,2.542 -1.425,5.044 -2.099,7.576 -0.695,2.61 -1.366,5.226 -2.008,7.849 -0.668,2.731 -1.315,5.468 -1.917,8.215 -0.552,2.518 -1.179,5.025 -1.552,7.576 -0.15,1.028 -0.196,2.068 -0.274,3.103 -0.185,2.462 -0.35,4.926 -0.456,7.393 -0.107,2.493 -0.209,4.989 -0.183,7.484 0.014,1.34 0.097,2.679 0.183,4.016 0.118,1.858 0.227,3.72 0.456,5.568 0.228,1.837 0.654,3.644 0.913,5.476 0.369,2.608 0.631,5.23 0.913,7.849 0.265,2.462 0.384,4.941 0.73,7.393 0.446,3.155 1.213,6.257 1.734,9.401 0.513,3.094 0.833,6.219 1.369,9.31 0.212,1.223 0.461,2.439 0.73,3.651 0.333,1.498 0.727,2.982 1.095,4.472 0.663,2.679 1.474,5.324 2.008,8.032 0.369,1.87 0.617,3.764 0.822,5.659 0.184,1.698 0.286,3.405 0.365,5.111 0.067,1.459 0.12,2.921 0.091,4.381 -0.03,1.524 -0.274,4.564 -0.274,4.564" />

	<path
   id="path4047"
   fill="none"
   stroke="#000000"
   stroke-width="1.7916"
   d="m 573.292,715.799 c 0,0 -0.727,2.052 -1.004,3.103 -0.269,1.021 -0.342,2.09 -0.639,3.103 -0.238,0.813 -0.627,1.575 -0.913,2.373 -0.292,0.815 -0.604,1.626 -0.821,2.464 -0.248,0.959 -0.456,1.934 -0.548,2.921 -0.082,0.879 -0.09,1.769 0,2.647 0.076,0.742 0.268,1.469 0.456,2.191 0.153,0.586 0.432,1.139 0.548,1.734 0.075,0.389 0.076,0.79 0.091,1.187 0.028,0.73 0,2.19 0,2.19" />

	<path
   id="path4049"
   fill="none"
   stroke="#000000"
   stroke-width="1.7916"
   d="m 574.022,733.78 c 0,0 -1.116,2.49 -1.825,3.651 -0.59,0.966 -1.37,1.803 -2.008,2.738 -0.609,0.892 -1.328,1.737 -1.734,2.738 -0.28,0.691 -0.345,1.453 -0.456,2.191 -0.146,0.967 -0.174,1.948 -0.274,2.921 -0.056,0.548 0.016,1.129 -0.183,1.643 -0.243,0.63 -0.772,1.109 -1.187,1.643 -0.291,0.375 -0.687,0.677 -0.913,1.095 -0.347,0.644 -0.319,1.442 -0.639,2.099 -0.325,0.668 -0.828,1.234 -1.278,1.826 -0.55,0.722 -1.111,1.439 -1.734,2.099 -0.798,0.845 -1.71,1.575 -2.556,2.373 -0.767,0.724 -1.494,1.49 -2.282,2.191 -0.501,0.445 -1.12,0.766 -1.552,1.278 -0.474,0.563 -0.837,1.228 -1.095,1.917 -0.218,0.581 -0.243,1.217 -0.365,1.826 -0.122,0.608 -0.361,1.205 -0.365,1.825 -0.004,0.495 0.165,0.977 0.274,1.46 0.131,0.583 0.368,1.143 0.456,1.734 0.117,0.783 -0.214,1.643 0.091,2.373 0.257,0.616 0.844,1.049 1.369,1.46 0.44,0.345 0.937,0.627 1.46,0.822 0.582,0.216 1.208,0.304 1.825,0.365 0.333,0.033 1.004,0 1.004,0" />

	<path
   id="path4053"
   fill="none"
   stroke="#000000"
   stroke-width="1.7916"
   d="m 561.426,768.098 c 0,0 -0.553,0.566 -0.73,0.913 -0.259,0.506 -0.35,1.085 -0.456,1.643 -0.109,0.571 -0.128,1.156 -0.182,1.734 -0.069,0.729 -0.189,1.458 -0.183,2.19 0.007,0.917 0.056,1.847 0.274,2.738 0.117,0.477 0.252,0.976 0.548,1.369 0.209,0.277 0.502,0.503 0.821,0.639 0.396,0.168 0.848,0.165 1.278,0.182 0.518,0.021 1.552,-0.091 1.552,-0.091" />

	<path
   id="path4055"
   fill="none"
   stroke="#000000"
   stroke-width="1.7916"
   d="m 567.45,768.646 c 0,0 -0.319,0.934 -0.548,1.369 -0.204,0.388 -0.556,0.692 -0.73,1.095 -0.161,0.373 -0.172,0.794 -0.274,1.187 -0.111,0.429 -0.175,0.878 -0.365,1.278 -0.16,0.335 -0.505,0.566 -0.639,0.913 -0.088,0.229 -0.027,0.493 -0.091,0.73 -0.121,0.447 -0.303,0.884 -0.548,1.278 -0.148,0.238 -0.45,0.376 -0.548,0.639 -0.179,0.485 -0.135,1.052 0,1.552 0.11,0.408 0.316,0.823 0.639,1.095 0.397,0.335 0.955,0.425 1.46,0.548 0.506,0.123 1.032,0.152 1.552,0.183 0.456,0.027 0.913,0.019 1.369,0 0.366,-0.016 1.095,-0.091 1.095,-0.091" />

	<path
   id="path4057"
   fill="none"
   stroke="#000000"
   stroke-width="1.7916"
   d="m 572.927,769.376 c 0,0 -0.598,0.823 -0.821,1.278 -0.2,0.406 -0.291,0.857 -0.456,1.278 -0.169,0.431 -0.339,0.864 -0.548,1.278 -0.19,0.378 -0.48,0.704 -0.639,1.095 -0.142,0.349 -0.18,0.731 -0.274,1.095 -0.118,0.457 -0.216,0.921 -0.365,1.369 -0.155,0.466 -0.435,0.891 -0.548,1.369 -0.084,0.357 -0.156,0.735 -0.091,1.095 0.089,0.496 0.296,1.001 0.639,1.369 0.427,0.458 1.036,0.756 1.643,0.913 0.412,0.107 0.853,0.028 1.278,0 0.919,-0.061 1.831,-0.209 2.738,-0.365 0.582,-0.1 1.17,-0.19 1.734,-0.365 0.378,-0.117 0.783,-0.214 1.095,-0.456 0.24,-0.187 0.451,-0.442 0.548,-0.73 0.058,-0.173 0,-0.548 0,-0.548" />

	<path
   id="path4059"
   fill="none"
   stroke="#000000"
   stroke-width="1.7916"
   d="m 582.967,768.007 c 0,0 -0.678,1.134 -1.095,1.643 -0.6,0.732 -1.388,1.293 -2.008,2.008 -0.399,0.46 -0.841,0.908 -1.095,1.46 -0.234,0.51 -0.252,1.093 -0.365,1.643 -0.131,0.637 -0.399,1.267 -0.365,1.917 0.033,0.634 0.342,1.224 0.548,1.825 0.137,0.401 0.22,0.835 0.456,1.187 0.373,0.554 0.896,1.013 1.46,1.369 0.774,0.489 1.65,0.872 2.556,1.004 1.058,0.154 2.14,-0.098 3.195,-0.274 0.742,-0.124 1.474,-0.319 2.19,-0.548 0.716,-0.228 1.452,-0.439 2.099,-0.821 0.409,-0.242 0.778,-0.559 1.095,-0.913 0.44,-0.49 0.904,-1.013 1.095,-1.643 0.132,-0.437 -0.027,-0.913 0,-1.369 0.031,-0.52 0.08,-1.041 0.183,-1.552 0.087,-0.434 0.365,-1.278 0.365,-1.278" />

	<path
   id="path4061"
   fill="none"
   stroke="#000000"
   stroke-width="1.7916"
   d="m 592.915,776.86 c 0,0 0.952,-0.356 1.369,-0.639 0.588,-0.399 1.156,-0.871 1.552,-1.46 0.473,-0.704 0.703,-1.552 0.913,-2.373 0.228,-0.892 0.304,-1.819 0.365,-2.738 0.069,-1.032 0.175,-2.084 0,-3.103 -0.17,-0.986 -0.633,-1.9 -1.004,-2.829 -0.333,-0.835 -0.598,-1.715 -1.095,-2.464 -0.369,-0.556 -0.86,-1.029 -1.369,-1.46 -0.335,-0.284 -1.095,-0.73 -1.095,-0.73" />

	<path
   id="path4063"
   fill="none"
   stroke="#000000"
   stroke-width="1.7916"
   d="m 594.376,760.34 c 0,0 0.228,-1.883 0.274,-2.829 0.028,-0.577 -0.088,-1.163 0,-1.734 0.092,-0.599 0.413,-1.143 0.548,-1.734 0.239,-1.049 0.314,-2.128 0.456,-3.195 0.13,-0.972 0.277,-1.944 0.365,-2.921 0.049,-0.546 -0.023,-1.106 0.091,-1.643 0.142,-0.669 0.629,-1.241 0.73,-1.917 0.068,-0.452 -0.076,-0.912 -0.091,-1.369 -0.017,-0.517 -0.037,-1.036 0,-1.552 0.061,-0.858 0.304,-1.697 0.365,-2.556 0.03,-0.425 -0.032,-0.853 0,-1.278 0.091,-1.197 0.308,-2.383 0.548,-3.56 0.32,-1.569 0.886,-3.082 1.187,-4.655 0.179,-0.934 0.444,-1.882 0.365,-2.829 -0.061,-0.729 -0.444,-1.394 -0.639,-2.099 -0.234,-0.846 -0.351,-1.726 -0.639,-2.556 -0.437,-1.261 -1.121,-2.423 -1.643,-3.651 -0.256,-0.603 -0.73,-1.825 -0.73,-1.825" />

	<path
   id="path4065"
   fill="none"
   stroke="#000000"
   stroke-width="1.7916"
   d="m 596.749,726.934 c 0,0 -0.512,-2.544 -0.639,-3.833 -0.095,-0.969 -0.076,-1.947 -0.091,-2.921 -0.014,-0.943 0.107,-1.892 0,-2.829 -0.092,-0.807 -0.377,-1.579 -0.548,-2.373 -0.229,-1.062 -0.443,-2.126 -0.639,-3.195 -0.2,-1.092 -0.456,-2.179 -0.548,-3.286 -0.073,-0.879 0.07,-1.767 0,-2.647 -0.122,-1.536 -0.641,-3.026 -0.73,-4.564 -0.081,-1.398 0.086,-2.801 0.182,-4.199 0.133,-1.921 0.2,-3.857 0.548,-5.75 0.394,-2.141 1.144,-4.202 1.734,-6.298 0.566,-2.011 1.213,-4.001 1.734,-6.024 0.444,-1.722 0.848,-3.456 1.187,-5.203 0.293,-1.512 0.457,-3.047 0.73,-4.564 0.385,-2.138 0.735,-4.286 1.278,-6.389 0.527,-2.04 1.197,-4.043 1.917,-6.024 0.685,-1.885 1.581,-3.688 2.282,-5.568 1.066,-2.858 2.082,-5.739 2.921,-8.671 0.473,-1.653 0.97,-3.314 1.187,-5.02 0.188,-1.479 0.139,-2.982 0.091,-4.472 -0.058,-1.801 -0.283,-3.592 -0.456,-5.385 -0.217,-2.254 -0.579,-4.495 -0.73,-6.754 -0.158,-2.369 -0.084,-4.747 -0.183,-7.119 -0.044,-1.066 -0.166,-2.128 -0.182,-3.195 -0.018,-1.156 0.058,-2.312 0.091,-3.468 0.028,-1.004 -0.085,-2.023 0.091,-3.012 0.118,-0.663 0.368,-1.3 0.639,-1.917 0.631,-1.434 1.486,-2.758 2.282,-4.107 1.021,-1.731 2.19,-3.371 3.195,-5.111 0.81,-1.403 1.572,-2.834 2.282,-4.29 0.919,-1.885 1.724,-3.825 2.556,-5.75 0.811,-1.878 1.699,-3.728 2.373,-5.659 0.666,-1.91 1.273,-3.853 1.643,-5.841 0.297,-1.592 0.38,-3.22 0.456,-4.837 0.106,-2.249 0.121,-4.506 0,-6.754 -0.107,-1.986 -0.532,-3.947 -0.639,-5.933 -0.101,-1.884 0,-3.773 0,-5.659 0,-1.947 0.009,-3.894 0,-5.841 -0.016,-3.255 -0.133,-6.511 -0.091,-9.766 0.033,-2.618 0.154,-5.234 0.274,-7.849 0.049,-1.065 0.078,-2.133 0.183,-3.195 0.172,-1.743 0.455,-3.473 0.73,-5.203 0.355,-2.228 0.827,-4.436 1.187,-6.663 0.372,-2.306 0.577,-4.64 1.004,-6.937 0.325,-1.749 0.87,-3.452 1.187,-5.203 0.529,-2.93 0.627,-5.929 1.187,-8.853 0.448,-2.341 1.217,-4.61 1.734,-6.937 0.552,-2.481 1.07,-4.973 1.46,-7.484 0.405,-2.603 0.651,-5.228 0.913,-7.849 0.291,-2.916 0.608,-5.834 0.73,-8.762 0.128,-3.07 0.024,-6.146 0,-9.219 -0.016,-1.947 -0.091,-5.841 -0.091,-5.841" />

	
	<path
   id="path4070"
   fill="none"
   stroke="#000000"
   stroke-width="1.7916"
   d="m 651.239,434.588 c 0,0 -0.092,-2.19 -0.091,-3.286 10e-4,-2.1 -0.113,-4.219 0.183,-6.298 0.239,-1.68 0.796,-3.301 1.278,-4.929 0.328,-1.107 1.095,-3.286 1.095,-3.286" />

	
	
	
	<path
   id="path4079"
   fill="none"
   stroke="#000000"
   stroke-width="1.7916"
   d="m 649.048,442.529 c 0,0 -0.085,4.016 -0.091,6.024 -0.01,3.468 -0.079,6.941 0.091,10.405 0.134,2.715 0.467,5.417 0.73,8.123 0.198,2.04 0.335,4.088 0.639,6.115 0.492,3.281 1.216,6.524 1.917,9.766 0.727,3.361 1.714,6.665 2.373,10.04 0.496,2.538 0.769,5.115 1.187,7.667 0.434,2.651 0.988,5.282 1.369,7.941 0.417,2.91 0.629,5.846 1.004,8.762 0.165,1.28 0.389,2.552 0.548,3.833 0.251,2.034 0.56,4.067 0.639,6.115 0.044,1.125 -0.081,2.251 -0.091,3.377 -0.03,3.347 0.058,6.693 0.091,10.04 0.028,2.89 0.143,5.781 0.091,8.671 -0.071,3.928 -0.432,7.847 -0.548,11.774 -0.073,2.494 -0.338,5.002 -0.091,7.484 0.187,1.888 0.656,3.746 1.187,5.568 0.536,1.839 1.318,3.598 2.008,5.385 0.827,2.14 1.615,4.297 2.556,6.389 0.995,2.212 2.124,4.362 3.263,6.504 1.112,2.092 2.354,4.113 3.485,6.196 0.487,0.896 0.99,1.786 1.42,2.711 0.431,0.927 0.923,1.845 1.162,2.84 0.242,1.008 0.215,2.063 0.258,3.098 0.079,1.892 0.036,3.787 0,5.679 -0.053,2.798 -0.153,5.596 -0.318,8.39 -0.112,1.896 -0.26,3.79 -0.456,5.679 -0.211,2.028 -0.706,4.029 -0.774,6.067 -0.033,0.983 0.048,1.97 0.176,2.945 0.258,1.97 0.695,3.916 1.187,5.841 0.433,1.697 0.987,3.362 1.552,5.02 0.45,1.321 0.974,2.616 1.46,3.925 1.096,2.951 2.323,5.856 3.286,8.853 0.743,2.312 1.405,4.654 1.917,7.028 0.487,2.259 0.649,4.578 1.095,6.845 0.386,1.962 0.864,3.906 1.369,5.841 0.583,2.236 1.37,4.417 1.917,6.663 0.367,1.507 0.638,3.037 0.913,4.564 0.376,2.092 0.818,4.18 1.004,6.298 0.152,1.728 0.187,3.471 0.091,5.203 -0.105,1.899 -0.528,3.768 -0.73,5.659 -0.191,1.791 -0.172,3.606 -0.456,5.385 -0.221,1.383 -0.806,2.698 -0.968,4.089 -0.125,1.068 0.073,2.154 0,3.227 -0.065,0.953 -0.323,1.887 -0.387,2.84 -0.076,1.116 0,3.356 0,3.356" />

	<path
   id="path4081"
   fill="none"
   stroke="#000000"
   stroke-width="1.7916"
   d="m 581.952,551.337 c 0,0 -0.068,3.271 0,4.905 0.086,2.071 0.43,4.125 0.516,6.196 0.068,1.634 0.169,3.279 0,4.905 -0.173,1.662 -0.509,3.318 -1.033,4.905 -0.712,2.157 -2.355,3.976 -2.84,6.196 -0.44,2.018 -0.3,4.152 0,6.196 0.261,1.778 1.549,5.163 1.549,5.163" />

	<path
   id="path4083"
   fill="none"
   stroke="#000000"
   stroke-width="1.7916"
   d="m 605.444,589.544 c 0,0 2.097,-5.271 2.84,-8.003 0.598,-2.199 1.114,-4.441 1.291,-6.712 0.194,-2.489 0.308,-5.055 -0.258,-7.487 -0.428,-1.838 -1.41,-3.512 -2.323,-5.163 -0.901,-1.629 -3.098,-4.647 -3.098,-4.647" />

	<path
   id="path4085"
   fill="none"
   stroke="#000000"
   stroke-width="1.7916"
   d="m 613.963,563.987 c 0,0 2.629,-6.349 3.872,-9.552 1.163,-2.995 2.537,-5.929 3.356,-9.036 0.689,-2.613 1.291,-8.003 1.291,-8.003" />

	<path
   id="path4087"
   fill="none"
   stroke="#000000"
   stroke-width="1.7916"
   d="m 660.432,545.141 c 0,0 2.02,6.711 3.614,9.81 1.19,2.313 2.861,4.348 4.389,6.454 1.405,1.937 4.389,5.679 4.389,5.679" />

	<path
   id="path4089"
   fill="none"
   stroke="#000000"
   stroke-width="1.7916"
   d="m 701.221,551.079 c 0,0 -0.424,4.144 -0.774,6.196 -0.341,1.997 -1.313,3.912 -1.291,5.938 0.024,2.212 0.886,4.343 1.549,6.454 0.637,2.028 1.822,3.872 2.323,5.938 0.592,2.438 0.7,4.979 0.774,7.487 0.059,1.98 0.239,4.02 -0.258,5.938 -0.386,1.49 -2.065,4.13 -2.065,4.13" />

	<path
   id="path4091"
   fill="none"
   stroke="#000000"
   stroke-width="1.7916"
   d="m 674.372,563.212 c 0,0 -1.073,2.705 -1.291,4.13 -0.312,2.042 -0.268,4.148 0,6.196 0.347,2.649 0.979,5.304 2.065,7.745 0.834,1.876 2.09,3.548 3.356,5.163 1.164,1.485 3.872,4.13 3.872,4.13" />

	<path
   id="path4093"
   fill="none"
   stroke="#000000"
   stroke-width="1.7916"
   d="m 607.768,603.227 c 0,0 -5.007,4.109 -7.228,6.454 -2.274,2.4 -6.196,7.745 -6.196,7.745" />

	<path
   id="path4095"
   fill="none"
   stroke="#000000"
   stroke-width="1.7916"
   d="m 673.856,603.743 c 0,0 4.198,6.498 6.196,9.81 1.693,2.806 4.905,8.519 4.905,8.519" />

	<path
   id="path4097"
   fill="none"
   stroke="#000000"
   stroke-width="1.7916"
   d="m 623.257,407.285 c 0,0 -6.9,-9.926 -10.584,-14.715 -3.057,-3.973 -6.316,-7.788 -9.552,-11.617 -2.795,-3.308 -8.519,-9.81 -8.519,-9.81" />

	<path
   id="path4099"
   fill="none"
   stroke="#000000"
   stroke-width="1.7916"
   d="m 694.509,367.529 c 0,0 -6.353,4.985 -9.294,7.745 -3.285,3.082 -6.198,6.538 -9.294,9.81 -2.928,3.096 -6.096,5.982 -8.777,9.294 -2.764,3.414 -7.487,10.843 -7.487,10.843" />

	<path
   id="path4101"
   fill="none"
   stroke="#000000"
   stroke-width="1.7916"
   d="m 686.441,716.945 c 0,0 -0.856,1.513 -1.162,2.323 -0.267,0.708 -0.364,1.469 -0.581,2.194 -0.234,0.782 -0.544,1.54 -0.774,2.323 -0.22,0.746 -0.427,1.497 -0.581,2.259 -0.116,0.576 -0.23,1.156 -0.258,1.743 -0.019,0.409 0.009,0.821 0.065,1.226 0.067,0.481 0.203,0.95 0.323,1.42 0.254,0.997 0.616,1.965 0.839,2.969 0.203,0.915 0.213,1.869 0.452,2.775 0.111,0.421 0.375,0.797 0.452,1.226 0.083,0.466 0.01,0.947 0,1.42 -0.01,0.452 -0.126,0.907 -0.065,1.355 0.056,0.404 0.312,0.76 0.387,1.162 0.083,0.445 0.089,0.904 0.065,1.355 -0.023,0.413 -0.216,0.813 -0.194,1.226 0.044,0.823 0.537,1.571 0.645,2.388 0.065,0.491 -0.047,0.992 0,1.484 0.054,0.567 0.2,1.122 0.323,1.678 0.134,0.606 0.376,1.191 0.452,1.807 0.076,0.619 -0.104,1.256 0,1.872 0.087,0.517 0.414,0.971 0.516,1.484 0.143,0.719 0.086,1.463 0.129,2.194 0.043,0.731 0.071,1.464 0.129,2.194 0.034,0.431 0.194,1.42 0.194,1.42" />

	<path
   id="path4103"
   fill="none"
   stroke="#000000"
   stroke-width="1.7916"
   d="m 690.378,757.992 c 0,0 -1.001,0.935 -1.484,1.42 -0.441,0.442 -0.932,0.845 -1.291,1.355 -0.359,0.512 -0.575,1.111 -0.839,1.678 -0.435,0.935 -0.948,1.847 -1.226,2.84 -0.211,0.753 -0.292,1.542 -0.323,2.323 -0.029,0.732 0.075,1.464 0.129,2.194 0.054,0.732 0.037,1.477 0.194,2.194 0.205,0.937 0.464,1.894 0.968,2.711 0.36,0.583 0.852,1.101 1.42,1.484 0.384,0.259 1.291,0.516 1.291,0.516" />

	<path
   id="path4105"
   fill="none"
   stroke="#000000"
   stroke-width="1.7916"
   d="m 688.894,773.869 c 0,0 0.356,0.801 0.452,1.226 0.105,0.464 0.029,0.955 0.129,1.42 0.111,0.512 0.281,1.016 0.516,1.484 0.292,0.581 0.613,1.179 1.097,1.614 0.544,0.489 1.255,0.765 1.936,1.033 1.015,0.399 2.09,0.641 3.162,0.839 0.808,0.149 1.631,0.241 2.452,0.258 0.69,0.014 1.399,0.05 2.065,-0.129 0.743,-0.2 1.525,-0.484 2.065,-1.033 0.452,-0.459 0.624,-1.135 0.839,-1.743 0.281,-0.792 0.53,-1.614 0.581,-2.453 0.036,-0.583 -0.065,-1.173 -0.194,-1.743 -0.116,-0.511 -0.272,-1.021 -0.516,-1.484 -0.287,-0.544 -0.718,-1 -1.097,-1.484 -0.395,-0.506 -0.773,-1.03 -1.226,-1.484 -0.572,-0.573 -1.357,-0.923 -1.872,-1.549 -0.373,-0.454 -0.839,-1.549 -0.839,-1.549" />

	<path
   id="path4107"
   fill="none"
   stroke="#000000"
   stroke-width="1.7916"
   d="m 703.415,779.484 c 0,0 0.706,0.786 1.162,1.033 0.647,0.35 1.403,0.463 2.13,0.581 0.766,0.124 1.548,0.098 2.323,0.129 0.86,0.035 1.777,0.372 2.582,0.065 0.469,-0.179 0.866,-0.587 1.097,-1.033 0.14,-0.27 0.108,-0.6 0.129,-0.904 0.037,-0.515 0.119,-1.046 0,-1.549 -0.099,-0.421 -0.45,-0.749 -0.581,-1.162 -0.086,-0.27 -0.086,-0.559 -0.129,-0.839 -0.043,-0.28 -0.058,-0.565 -0.129,-0.839 -0.093,-0.356 -0.23,-0.701 -0.387,-1.033 -0.128,-0.27 -0.326,-0.503 -0.452,-0.774 -0.163,-0.352 -0.249,-0.735 -0.387,-1.097 -0.141,-0.37 -0.24,-0.763 -0.452,-1.097 -0.188,-0.296 -0.562,-0.457 -0.71,-0.774 -0.138,-0.295 -0.129,-0.968 -0.129,-0.968" />

	<path
   id="path4109"
   fill="none"
   stroke="#000000"
   stroke-width="1.7916"
   d="m 712.709,780.581 c 0,0 1.163,-0.021 1.743,-0.065 0.756,-0.057 1.551,0.012 2.259,-0.258 0.418,-0.159 0.78,-0.459 1.097,-0.774 0.262,-0.261 0.532,-0.551 0.645,-0.904 0.118,-0.369 0.068,-0.781 0,-1.162 -0.076,-0.429 -0.217,-0.859 -0.452,-1.226 -0.115,-0.179 -0.332,-0.275 -0.452,-0.452 -0.184,-0.271 -0.305,-0.586 -0.387,-0.904 -0.054,-0.209 -0.012,-0.436 -0.065,-0.645 -0.068,-0.271 -0.201,-0.523 -0.323,-0.774 -0.097,-0.199 -0.267,-0.366 -0.323,-0.581 -0.065,-0.25 0.032,-0.518 0,-0.774 -0.032,-0.264 -0.092,-0.529 -0.194,-0.774 -0.096,-0.232 -0.26,-0.43 -0.387,-0.645 -0.152,-0.257 -0.356,-0.491 -0.452,-0.774 -0.056,-0.164 -0.065,-0.516 -0.065,-0.516" />

	<path
   id="path4111"
   fill="none"
   stroke="#000000"
   stroke-width="1.7916"
   d="m 718.001,779.29 c 0,0 0.904,0.194 1.162,0.194 0.258,0 0.829,-0.13 1.226,-0.258 0.403,-0.13 0.829,-0.254 1.162,-0.516 0.277,-0.218 0.532,-0.505 0.645,-0.839 0.139,-0.407 -0.022,-0.861 0,-1.291 0.054,-1.037 0.33,-2.06 0.323,-3.098 -0.005,-0.736 -0.186,-1.461 -0.258,-2.194 -0.053,-0.537 0.07,-1.112 -0.129,-1.613 -0.102,-0.256 -0.325,-0.447 -0.516,-0.645 -0.138,-0.143 -0.452,-0.387 -0.452,-0.387" />

	<path
   id="path4113"
   fill="none"
   stroke="#000000"
   stroke-width="1.7916"
   d="m 722.325,777.741 c 0,0 1.118,0.165 1.678,0.129 0.636,-0.041 1.289,-0.13 1.872,-0.387 0.535,-0.237 1.042,-0.586 1.42,-1.033 0.373,-0.44 0.627,-0.991 0.774,-1.549 0.105,-0.396 0.054,-0.817 0.065,-1.226 0.009,-0.344 -0.046,-0.691 0,-1.033 0.065,-0.486 0.287,-0.94 0.387,-1.42 0.12,-0.575 0.293,-1.156 0.258,-1.743 -0.029,-0.49 -0.251,-0.949 -0.387,-1.42 -0.163,-0.562 -0.308,-1.131 -0.516,-1.678 -0.202,-0.531 -0.422,-1.059 -0.71,-1.549 -0.203,-0.345 -0.453,-0.661 -0.71,-0.968 -0.361,-0.432 -0.733,-0.861 -1.162,-1.226 -0.436,-0.371 -0.979,-0.603 -1.42,-0.968 -0.469,-0.388 -0.885,-0.837 -1.291,-1.291 -0.367,-0.411 -0.644,-0.9 -1.033,-1.291 -0.41,-0.412 -0.931,-0.7 -1.355,-1.097 -0.3,-0.281 -0.572,-0.591 -0.839,-0.904 -0.408,-0.478 -0.831,-0.95 -1.162,-1.484 -0.289,-0.466 -0.492,-0.981 -0.71,-1.484 -0.33,-0.763 -0.5,-1.597 -0.904,-2.323 -0.313,-0.564 -0.826,-0.998 -1.162,-1.549 -0.36,-0.592 -0.58,-1.259 -0.904,-1.872 -0.302,-0.571 -0.65,-1.116 -0.968,-1.678 -0.327,-0.578 -0.64,-1.165 -0.968,-1.743 -0.381,-0.671 -1.162,-2.001 -1.162,-2.001" />

	<path
   id="path4115"
   fill="none"
   stroke="#000000"
   stroke-width="1.7916"
   d="m 714.645,748.57 c 0,0 -0.194,-0.943 -0.258,-1.42 -0.098,-0.728 -0.069,-1.471 -0.194,-2.194 -0.117,-0.679 -0.226,-1.376 -0.516,-2.001 -0.266,-0.574 -0.731,-1.033 -1.097,-1.549 -0.366,-0.516 -0.727,-1.036 -1.097,-1.549 -0.468,-0.649 -1.043,-1.23 -1.42,-1.936 -0.237,-0.444 -0.516,-1.42 -0.516,-1.42" />

	<path
   id="path4117"
   fill="none"
   stroke="#000000"
   stroke-width="1.7916"
   d="m 711.676,739.986 c 0,0 -0.12,-0.815 -0.129,-1.226 -0.016,-0.711 0.024,-1.426 0.129,-2.13 0.095,-0.635 0.246,-1.264 0.452,-1.872 0.188,-0.557 0.568,-1.043 0.71,-1.613 0.209,-0.837 0.204,-1.719 0.194,-2.582 -0.01,-0.865 -0.11,-1.73 -0.258,-2.582 -0.122,-0.699 -0.237,-1.413 -0.516,-2.065 -0.19,-0.445 -0.572,-0.787 -0.774,-1.226 -0.396,-0.859 -0.6,-1.796 -0.839,-2.711 -0.156,-0.596 -0.28,-1.2 -0.387,-1.807 -0.245,-1.39 -0.453,-2.789 -0.581,-4.195 -0.09,-0.987 -0.129,-2.711 -0.129,-2.969 0,-0.258 0.104,-2.626 0.194,-3.937 0.084,-1.228 0.194,-2.455 0.323,-3.679 0.148,-1.401 0.316,-2.8 0.516,-4.195 0.17,-1.187 0.342,-2.375 0.581,-3.55 0.344,-1.692 1.162,-4.776 1.226,-5.034 0.064,-0.258 0.805,-2.918 1.162,-4.389 0.447,-1.841 0.893,-3.685 1.226,-5.55 0.279,-1.56 0.388,-3.147 0.645,-4.711 0.203,-1.232 0.499,-2.448 0.71,-3.679 0.54,-3.152 1.002,-6.317 1.42,-9.487 0.223,-1.696 0.401,-3.398 0.581,-5.099 0.209,-1.978 0.389,-3.958 0.581,-5.938 0.173,-1.785 0.234,-3.585 0.516,-5.357 0.264,-1.655 0.844,-3.249 1.097,-4.905 0.235,-1.536 0.253,-3.098 0.387,-4.647 0.145,-1.679 0.421,-3.35 0.452,-5.034 0.029,-1.616 -0.184,-3.226 -0.258,-4.84 -0.051,-1.118 -0.092,-2.237 -0.129,-3.356 -0.051,-1.549 -0.014,-3.102 -0.129,-4.647 -0.146,-1.967 -0.415,-3.923 -0.71,-5.873 -0.216,-1.427 -0.504,-2.842 -0.774,-4.26 -0.267,-1.401 -0.544,-2.8 -0.839,-4.195 -0.246,-1.164 -0.487,-2.33 -0.774,-3.485 -0.566,-2.274 -1.256,-4.516 -1.872,-6.777 -0.392,-1.44 -0.838,-2.867 -1.162,-4.324 -0.322,-1.45 -0.391,-2.954 -0.774,-4.389 -0.342,-1.282 -0.993,-2.467 -1.355,-3.743 -0.288,-1.015 -0.371,-2.08 -0.645,-3.098 -0.142,-0.525 -0.411,-1.015 -0.516,-1.549 -0.187,-0.952 -0.152,-1.935 -0.194,-2.904 -0.047,-1.075 -0.064,-2.151 -0.065,-3.227 0,-1.119 0.03,-2.238 0.065,-3.356 0.047,-1.528 0.065,-4.324 0.194,-4.582 0.129,-0.258 -0.037,-1.936 -0.065,-2.904 -0.036,-1.27 -0.065,-2.539 -0.129,-3.808 -0.114,-2.261 -0.351,-4.515 -0.452,-6.777 -0.084,-1.892 -0.036,-3.788 -0.129,-5.679 -0.098,-1.983 -0.358,-3.955 -0.452,-5.938 -0.054,-1.139 -0.054,-2.28 -0.065,-3.421 -0.01,-1.097 -0.127,-2.202 0,-3.292 0.13,-1.12 0.54,-2.189 0.774,-3.292 0.287,-1.349 0.535,-2.707 0.774,-4.066 0.374,-2.125 0.712,-4.256 1.033,-6.389 0.349,-2.32 0.69,-4.641 0.968,-6.97 0.308,-2.576 0.481,-5.167 0.774,-7.745 0.346,-3.038 0.834,-6.06 1.162,-9.1 0.315,-2.92 0.774,-8.519 0.774,-8.777 0,-0.258 0.138,-4.216 0.194,-6.325 0.052,-1.979 0.079,-3.959 0.129,-5.938 0.076,-2.991 0.17,-5.981 0.258,-8.971 0.126,-4.281 0.348,-8.56 0.387,-12.843 0.032,-3.571 -0.028,-7.144 -0.129,-10.714 -0.055,-1.937 -0.146,-3.874 -0.258,-5.809 -0.245,-4.22 -0.434,-8.449 -0.904,-12.65 -0.285,-2.552 -0.785,-5.076 -1.162,-7.616 -0.31,-2.086 -0.584,-4.176 -0.904,-6.26 -0.142,-0.926 -0.382,-1.841 -0.452,-2.775 -0.121,-1.631 0.042,-3.27 0.065,-4.905 0.02,-1.441 0.101,-2.883 0.065,-4.324 -0.099,-3.987 -0.359,-7.973 -0.774,-11.94 -0.172,-1.643 -0.451,-3.273 -0.71,-4.905 -0.198,-1.251 -0.393,-2.503 -0.645,-3.743 -0.845,-4.158 -2.004,-8.246 -2.904,-12.392 -0.489,-2.251 -0.914,-4.516 -1.355,-6.777 -0.55,-2.816 -1.016,-5.648 -1.613,-8.455 -0.313,-1.47 -0.763,-2.91 -1.033,-4.389 -0.09,-0.491 -0.194,-1.226 -0.194,-1.484 0,-0.258 0.046,-1.936 0.065,-2.904 0.026,-1.334 0.12,-2.669 0.065,-4.001 -0.054,-1.296 -0.257,-2.582 -0.387,-3.872 -0.213,-2.108 -0.395,-4.221 -0.645,-6.325 -0.283,-2.372 -0.575,-4.744 -0.968,-7.099 -0.31,-1.86 -1.033,-5.228 -1.097,-5.55 -0.065,-0.323 -0.645,-4.697 -1.033,-7.035 -0.232,-1.403 -0.577,-2.787 -0.774,-4.195 -0.156,-1.113 -0.251,-2.234 -0.323,-3.356 -0.087,-1.375 -0.18,-2.754 -0.129,-4.131 0.061,-1.643 0.328,-3.272 0.516,-4.905 0.179,-1.551 0.445,-3.092 0.581,-4.647 0.151,-1.738 0.16,-3.486 0.258,-5.228 0.076,-1.356 0.143,-2.713 0.258,-4.066 0.172,-2.026 0.538,-4.036 0.645,-6.067 0.081,-1.525 -0.019,-3.055 0,-4.582 0.021,-1.721 0.126,-3.442 0.129,-5.163 0.002,-1.011 -0.131,-2.024 -0.065,-3.033 0.037,-0.565 0.053,-1.15 0.258,-1.678 0.056,-0.145 0.213,-0.239 0.258,-0.387 0.225,-0.741 0.022,-1.549 0,-2.323 -0.086,-3.016 -0.381,-6.022 -0.516,-9.036 -0.147,-3.268 -0.232,-6.54 -0.323,-9.81 -0.079,-2.818 -0.322,-5.639 -0.194,-8.455 0.034,-0.757 0.115,-1.515 0.258,-2.259 0.185,-0.963 0.368,-1.947 0.774,-2.84 0.418,-0.918 1.121,-1.677 1.678,-2.517 0.755,-1.139 1.677,-2.184 2.259,-3.421 0.565,-1.201 1.162,-3.808 1.162,-3.808" />

	<path
   id="path4119"
   fill="none"
   stroke="#000000"
   stroke-width="1.7916"
   d="m 701.931,255.36 c 0,0 0.143,2.369 0.258,3.55 0.189,1.941 0.405,3.882 0.71,5.809 0.37,2.338 0.89,4.65 1.355,6.97 0.376,1.874 0.803,3.738 1.162,5.615 0.467,2.446 0.826,4.911 1.291,7.357 0.34,1.791 0.722,3.573 1.097,5.357 0.336,1.594 0.86,3.156 1.033,4.776 0.123,1.155 0.041,2.324 0,3.485 -0.043,1.228 -0.139,2.455 -0.258,3.679 -0.101,1.036 -0.37,2.057 -0.387,3.098 -0.016,0.95 0.064,1.909 0.258,2.84 0.125,0.599 0.483,1.138 0.581,1.743 0.072,0.446 -0.005,0.904 0,1.355 0.01,0.925 -0.023,1.854 0.065,2.775 0.062,0.651 0.154,1.304 0.323,1.936 0.207,0.776 0.577,1.499 0.839,2.259 0.162,0.47 0.34,0.936 0.452,1.42 0.231,0.996 0.323,2.019 0.452,3.033 0.104,0.815 0.042,1.659 0.258,2.452 0.355,1.3 1.085,2.468 1.678,3.679 0.673,1.374 1.452,2.695 2.13,4.066 0.926,1.872 1.807,3.767 2.646,5.679 0.953,2.173 1.764,4.407 2.711,6.583 0.803,1.845 1.687,3.653 2.517,5.486 1.022,2.254 2.133,4.471 3.033,6.777 1.082,2.769 1.885,5.639 2.84,8.455 0.832,2.455 1.783,4.872 2.517,7.357 0.276,0.936 0.404,1.913 0.71,2.84 0.299,0.907 0.712,1.772 1.097,2.646 0.431,0.978 0.891,1.942 1.355,2.904 0.23,0.476 0.492,0.938 0.71,1.42 0.354,0.783 0.623,1.602 0.968,2.388 0.364,0.828 0.728,1.659 1.162,2.453 0.39,0.712 0.908,1.349 1.291,2.065 0.222,0.416 0.482,0.829 0.581,1.291 0.104,0.484 0.005,0.99 0,1.484 -0.01,1.054 -0.096,2.109 -0.065,3.162 0.048,1.596 0.224,3.187 0.387,4.776 0.178,1.725 0.304,3.463 0.645,5.163 0.268,1.336 0.617,2.662 1.097,3.937 0.472,1.251 1.18,2.401 1.743,3.614 0.734,1.581 1.414,3.187 2.13,4.776 0.427,0.948 0.895,1.878 1.291,2.84 0.401,0.976 0.653,2.012 1.097,2.969 0.313,0.673 0.829,1.244 1.097,1.936 0.175,0.453 0.159,0.963 0.323,1.42 0.194,0.543 0.631,0.99 0.774,1.549 0.139,0.542 0.025,1.12 0.065,1.678 0.059,0.841 0.215,1.675 0.258,2.517 0.059,1.16 -0.05,2.325 0,3.485 0.021,0.496 0.112,0.988 0.129,1.484 0.049,1.376 -0.054,2.754 -0.065,4.13 -0.009,1.076 -0.033,2.152 0,3.227 0.021,0.711 -0.023,1.435 0.129,2.13 0.153,0.699 0.547,1.323 0.774,2.001 0.199,0.594 0.296,1.221 0.516,1.807 0.142,0.378 0.274,0.774 0.516,1.097 0.293,0.39 0.662,0.749 1.097,0.968 0.275,0.139 0.596,0.187 0.904,0.194 0.392,0.009 0.83,0.017 1.162,-0.194 0.287,-0.182 0.399,-0.551 0.581,-0.839 0.185,-0.293 0.427,-0.568 0.516,-0.904 0.116,-0.437 0.005,-0.904 0,-1.355 -0.021,-1.592 -0.126,-3.183 -0.129,-4.776 -0.002,-0.925 0.04,-1.85 0.065,-2.775 0.019,-0.71 0.042,-1.42 0.065,-2.13 0.021,-0.667 -0.083,-1.35 0.065,-2.001 0.083,-0.366 0.352,-0.67 0.452,-1.033 0.184,-0.669 0.233,-1.372 0.258,-2.065 0.031,-0.84 -0.005,-1.686 -0.129,-2.517 -0.052,-0.351 -0.215,-0.68 -0.258,-1.033 -0.026,-0.214 -0.059,-0.439 0,-0.645 0.056,-0.195 0.145,-0.418 0.323,-0.516 0.094,-0.052 0.223,-0.041 0.323,0 0.169,0.07 0.294,0.231 0.387,0.387 0.115,0.193 0.131,0.43 0.194,0.645 0.112,0.386 0.228,0.771 0.323,1.162 0.15,0.619 0.313,1.239 0.387,1.872 0.083,0.705 0.046,1.42 0.065,2.13 0.026,1.033 -0.014,2.068 0.065,3.098 0.05,0.649 0.116,1.301 0.258,1.936 0.109,0.485 0.281,0.953 0.452,1.42 0.232,0.634 0.575,1.227 0.774,1.872 0.338,1.092 0.519,2.229 0.71,3.356 0.17,1.005 0.213,2.029 0.387,3.033 0.188,1.085 0.437,2.16 0.71,3.227 0.266,1.042 0.622,2.06 0.904,3.098 0.209,0.771 0.278,1.585 0.581,2.323 0.209,0.509 0.455,1.026 0.839,1.42 0.283,0.291 0.646,0.521 1.033,0.645 0.308,0.1 0.646,0.089 0.968,0.065 0.396,-0.03 0.78,-0.149 1.162,-0.258 0.373,-0.107 0.782,-0.162 1.097,-0.387 0.424,-0.303 0.808,-0.731 0.968,-1.226 0.159,-0.492 -0.044,-1.033 -0.065,-1.549 -0.023,-0.559 0.036,-1.127 -0.065,-1.678 -0.11,-0.602 -0.439,-1.147 -0.581,-1.743 -0.276,-1.163 -0.293,-2.375 -0.516,-3.55 -0.21,-1.107 -0.564,-2.184 -0.774,-3.292 -0.195,-1.025 -0.298,-2.066 -0.452,-3.098 -0.106,-0.71 -0.259,-1.415 -0.323,-2.13 -0.072,-0.815 10e-4,-1.637 -0.065,-2.452 -0.064,-0.801 -0.125,-1.609 -0.323,-2.388 -0.164,-0.647 -0.521,-1.232 -0.71,-1.872 -0.174,-0.591 -0.22,-1.214 -0.387,-1.807 -0.105,-0.373 -0.336,-0.713 -0.387,-1.097 -0.037,-0.278 -0.134,-0.641 0.065,-0.839 0.198,-0.198 0.559,-0.088 0.839,-0.065 0.177,0.016 0.379,0.016 0.516,0.129 0.312,0.257 0.39,0.713 0.516,1.097 0.206,0.625 0.263,1.29 0.387,1.936 0.202,1.053 0.287,2.132 0.581,3.162 0.145,0.511 0.409,0.981 0.581,1.484 0.173,0.509 0.376,1.017 0.452,1.549 0.046,0.319 -0.06,0.651 0,0.968 0.12,0.636 0.44,1.219 0.71,1.807 0.345,0.752 0.838,1.432 1.162,2.194 0.433,1.021 0.705,2.103 1.032,3.162 0.272,0.878 0.582,1.748 0.774,2.646 0.164,0.764 0.174,1.556 0.323,2.323 0.186,0.958 0.513,1.884 0.71,2.84 0.189,0.918 0.235,1.863 0.452,2.775 0.099,0.417 0.176,0.854 0.387,1.226 0.256,0.451 0.598,0.879 1.033,1.162 0.416,0.271 0.924,0.43 1.42,0.452 0.594,0.027 1.232,-0.081 1.743,-0.387 0.51,-0.306 0.862,-0.841 1.162,-1.355 0.288,-0.494 0.491,-1.049 0.581,-1.613 0.119,-0.744 -0.014,-1.507 -0.065,-2.259 -0.068,-1.015 -0.177,-2.027 -0.323,-3.033 -0.204,-1.407 -0.469,-2.806 -0.774,-4.195 -0.391,-1.778 -0.928,-3.522 -1.355,-5.292 -0.342,-1.415 -0.478,-2.889 -0.968,-4.26 -0.292,-0.815 -0.794,-1.54 -1.162,-2.323 -0.409,-0.872 -0.792,-1.757 -1.162,-2.646 -0.497,-1.195 -0.993,-2.392 -1.42,-3.614 -0.193,-0.552 -0.453,-1.096 -0.516,-1.678 -0.028,-0.258 -0.044,-0.539 0.065,-0.774 0.128,-0.276 0.364,-0.529 0.645,-0.645 0.219,-0.091 0.486,-0.077 0.71,0 0.362,0.125 0.658,0.416 0.904,0.71 0.5,0.598 0.788,1.35 1.097,2.065 0.478,1.105 0.795,2.274 1.162,3.421 0.205,0.642 0.289,1.329 0.581,1.936 0.328,0.683 0.905,1.219 1.291,1.872 0.367,0.621 0.677,1.276 0.968,1.936 0.363,0.822 0.687,1.663 0.968,2.517 0.329,0.996 0.518,2.035 0.839,3.033 0.4,1.244 0.852,2.473 1.355,3.679 0.43,1.03 0.925,2.033 1.42,3.033 0.247,0.5 0.376,1.093 0.774,1.484 0.274,0.27 0.663,0.409 1.033,0.516 0.415,0.12 0.862,0.187 1.291,0.129 0.412,-0.056 0.821,-0.214 1.162,-0.452 0.4,-0.279 0.722,-0.676 0.968,-1.097 0.264,-0.452 0.435,-0.967 0.516,-1.484 0.14,-0.893 0.031,-1.812 -0.065,-2.711 -0.097,-0.915 -0.291,-1.819 -0.516,-2.711 -0.227,-0.897 -0.561,-1.764 -0.839,-2.646 -0.346,-1.097 -0.665,-2.202 -1.033,-3.292 -0.344,-1.019 -0.784,-2.005 -1.097,-3.033 -0.259,-0.848 -0.385,-1.734 -0.645,-2.582 -0.276,-0.898 -0.624,-1.772 -0.968,-2.646 -0.487,-1.238 -1.071,-2.437 -1.549,-3.679 -0.352,-0.914 -0.614,-1.862 -0.968,-2.775 -0.415,-1.069 -1.015,-2.067 -1.355,-3.162 -0.163,-0.524 -0.221,-1.074 -0.323,-1.613 -0.137,-0.73 -0.284,-1.459 -0.387,-2.194 -0.115,-0.814 -0.106,-1.645 -0.258,-2.453 -0.091,-0.482 -0.281,-0.941 -0.387,-1.42 -0.193,-0.874 -0.338,-1.759 -0.452,-2.646 -0.128,-1.007 -0.29,-2.019 -0.258,-3.033 0.032,-1.022 0.307,-2.021 0.452,-3.033 0.089,-0.623 0.178,-1.247 0.258,-1.872 0.069,-0.537 0.194,-1.613 0.194,-1.613" />

	<path
   id="path4121"
   fill="none"
   stroke="#000000"
   stroke-width="1.7916"
   d="m 753.304,392.57 c 0,0 1.018,2.335 1.678,3.421 0.959,1.577 1.936,3.2 3.292,4.453 1.043,0.965 2.317,1.68 3.614,2.259 1.349,0.602 2.814,0.922 4.26,1.226 1.572,0.331 3.176,0.504 4.776,0.645 1.03,0.091 2.065,0.108 3.098,0.129 0.516,0.01 1.549,0 1.549,0" />

	<path
   id="path4123"
   fill="none"
   stroke="#000000"
   stroke-width="1.7916"
   d="m 777.506,402.316 c 0,0 0.696,-0.073 1.033,0 0.508,0.11 0.993,0.349 1.42,0.645 0.5,0.347 0.854,0.867 1.291,1.291 0.764,0.742 1.578,1.433 2.323,2.194 0.65,0.664 1.361,1.289 1.872,2.065 0.286,0.434 0.383,0.971 0.645,1.42 0.404,0.691 0.868,1.357 1.42,1.936 0.401,0.421 0.897,0.74 1.355,1.097 0.848,0.661 1.615,1.464 2.582,1.936 0.881,0.431 1.878,0.581 2.84,0.774 0.808,0.163 1.628,0.343 2.453,0.323 0.721,-0.018 1.486,-0.061 2.13,-0.387 0.475,-0.24 0.871,-0.651 1.162,-1.097 0.211,-0.325 0.366,-0.71 0.387,-1.097 0.02,-0.375 -0.056,-0.78 -0.258,-1.097 -0.206,-0.323 -0.594,-0.484 -0.904,-0.71 -0.588,-0.43 -1.211,-0.808 -1.807,-1.226 -0.479,-0.336 -1.015,-0.61 -1.42,-1.033 -0.483,-0.504 -0.793,-1.15 -1.162,-1.743 -0.499,-0.802 -0.901,-1.663 -1.42,-2.452 -0.397,-0.604 -0.819,-1.195 -1.291,-1.743 -0.437,-0.507 -0.963,-0.931 -1.42,-1.42 -0.76,-0.814 -1.486,-1.659 -2.194,-2.517 -0.556,-0.674 -1.166,-1.315 -1.613,-2.065 -0.385,-0.645 -0.523,-1.417 -0.904,-2.065 -0.451,-0.768 -1.051,-1.439 -1.613,-2.13 -0.433,-0.532 -0.877,-1.057 -1.355,-1.549 -0.286,-0.295 -0.553,-0.625 -0.904,-0.839 -0.703,-0.429 -1.546,-0.569 -2.323,-0.839 -1.028,-0.357 -2.775,-0.968 -3.098,-1.033 -0.323,-0.065 -2.142,-1.01 -3.227,-1.484 -1.643,-0.719 -3.307,-1.391 -4.97,-2.065 -1.029,-0.417 -2.071,-0.803 -3.098,-1.226 -0.606,-0.25 -1.278,-0.388 -1.807,-0.774 -0.345,-0.252 -0.575,-0.632 -0.839,-0.968 -0.391,-0.498 -0.791,-0.995 -1.097,-1.549 -0.135,-0.245 -0.263,-0.501 -0.323,-0.774 -0.12,-0.547 0.052,-1.131 -0.065,-1.678 -0.169,-0.793 -0.621,-1.499 -0.904,-2.259 -0.46,-1.237 -0.812,-2.513 -1.291,-3.743 -0.391,-1.006 -0.963,-1.941 -1.291,-2.969 -0.254,-0.796 -0.321,-1.64 -0.516,-2.452 -0.328,-1.365 -0.679,-2.726 -1.097,-4.066 -0.402,-1.286 -0.961,-2.52 -1.355,-3.808 -0.429,-1.402 -0.795,-2.825 -1.097,-4.26 -0.328,-1.557 -0.574,-3.133 -0.774,-4.711 -0.212,-1.671 -0.353,-3.352 -0.452,-5.034 -0.134,-2.277 -0.105,-4.562 -0.194,-6.841 -0.101,-2.604 -0.09,-5.22 -0.387,-7.809 -0.207,-1.803 -0.609,-3.578 -0.968,-5.357 -0.489,-2.42 -1.13,-4.807 -1.613,-7.228 -0.364,-1.821 -0.559,-3.674 -0.968,-5.486 -0.285,-1.263 -0.628,-2.514 -1.033,-3.743 -0.375,-1.138 -0.807,-2.259 -1.291,-3.356 -0.446,-1.012 -0.966,-1.991 -1.484,-2.969 -0.844,-1.591 -1.897,-3.073 -2.646,-4.711 -0.818,-1.789 -1.306,-3.71 -2.001,-5.55 -0.58,-1.536 -1.338,-3.009 -1.807,-4.582 -0.697,-2.337 -1.484,-6.777 -1.484,-7.164 0,-0.387 -0.688,-5.077 -1.033,-7.616 -0.473,-3.485 -1.052,-6.958 -1.42,-10.455 -0.181,-1.716 -0.211,-3.446 -0.387,-5.163 -0.187,-1.813 -0.475,-3.614 -0.71,-5.421 -0.173,-1.334 -0.304,-2.673 -0.516,-4.001 -0.398,-2.487 -1.061,-4.929 -1.42,-7.422 -0.222,-1.54 -0.365,-3.093 -0.452,-4.647 -0.085,-1.525 -0.119,-3.056 -0.065,-4.582 0.054,-1.51 0.173,-3.022 0.387,-4.518 0.339,-2.368 1.014,-4.677 1.42,-7.035 0.361,-2.099 0.661,-4.209 0.904,-6.325 0.256,-2.231 0.495,-4.468 0.581,-6.712 0.088,-2.279 0.021,-4.562 -0.065,-6.841 -0.086,-2.284 -0.266,-4.563 -0.452,-6.841 -0.272,-3.339 -0.676,-6.666 -0.968,-10.004 -0.12,-1.376 -0.014,-2.785 -0.323,-4.131 -0.264,-1.149 -0.726,-2.257 -1.291,-3.292 -0.458,-0.839 -1.065,-1.59 -1.678,-2.323 -0.517,-0.619 -1.08,-1.202 -1.678,-1.743 -1.501,-1.356 -3.106,-2.601 -4.776,-3.743 -1.115,-0.762 -2.241,-1.541 -3.485,-2.065 -1.068,-0.45 -2.233,-0.618 -3.356,-0.904 -2.23,-0.568 -4.515,-0.931 -6.712,-1.613 -1.892,-0.588 -3.729,-1.349 -5.55,-2.13 -1.751,-0.751 -3.433,-1.653 -5.163,-2.452 -2.526,-1.167 -5.119,-2.192 -7.616,-3.421 -4.491,-2.21 -8.916,-4.563 -13.231,-7.099 -2.027,-1.191 -3.97,-2.521 -5.938,-3.808 -1.039,-0.679 -3.098,-2.065 -3.098,-2.065" />

	<path
   id="path4125"
   fill="none"
   stroke="#000000"
   stroke-width="1.7916"
   d="m 673.017,145.643 c 0,0 -1.523,-0.726 -2.194,-1.226 -0.866,-0.645 -1.65,-1.414 -2.323,-2.259 -0.439,-0.551 -0.792,-1.172 -1.097,-1.807 -0.653,-1.362 -1.144,-2.804 -1.549,-4.26 -0.299,-1.077 -0.645,-3.292 -0.645,-3.292" />

	<path
   id="path4127"
   fill="none"
   stroke="#000000"
   stroke-width="1.7916"
   d="m 664.756,141.642 c 0,0 -0.304,-3.096 -0.258,-4.647 0.039,-1.32 0.314,-2.623 0.452,-3.937 0.119,-1.139 0.2,-2.282 0.323,-3.421 0.325,-3.016 0.781,-6.018 1.097,-9.036 0.23,-2.191 0.289,-4.4 0.581,-6.583 0.29,-2.167 0.677,-4.322 1.162,-6.454 0.341,-1.501 0.845,-2.962 1.226,-4.453 0.301,-1.178 0.599,-2.358 0.839,-3.55 0.026,-0.128 0.065,-0.387 0.065,-0.387" />

	<path
   id="path4129"
   fill="none"
   stroke="#000000"
   stroke-width="1.7916"
   d="m 664.111,107.888 c 0,0 1.394,-3.539 2.13,-5.292 0.645,-1.537 1.268,-3.086 2.001,-4.582 0.474,-0.968 1.177,-1.828 1.549,-2.84 0.401,-1.093 0.386,-2.302 0.71,-3.421 0.204,-0.706 0.774,-2.065 0.774,-2.065" />

	<path
   id="path4131"
   fill="none"
   stroke="#000000"
   stroke-width="1.7916"
   d="m 668.499,100.53 c 0,0 0.528,-0.981 0.968,-1.291 0.239,-0.168 0.55,-0.215 0.839,-0.258 0.596,-0.09 1.21,0.081 1.807,0 0.796,-0.109 1.589,-0.319 2.323,-0.645 0.698,-0.31 1.386,-0.696 1.936,-1.226 0.602,-0.579 1.009,-1.338 1.42,-2.065 0.64,-1.131 1.15,-2.335 1.613,-3.55 0.257,-0.674 0.491,-1.361 0.645,-2.065 0.181,-0.826 0.127,-1.694 0.323,-2.517 0.179,-0.755 0.516,-1.463 0.774,-2.194 0.343,-0.968 0.792,-1.905 1.033,-2.904 0.346,-1.435 0.588,-2.913 0.581,-4.389 -0.004,-0.761 -0.414,-3.08 -0.414,-3.08" />

	<path
   id="path4139"
   fill="none"
   stroke="#000000"
   stroke-width="1.7916"
   d="m 669.767,97.246 c 0,0 -0.703,0.926 -0.913,1.46 -0.237,0.606 -0.261,1.275 -0.365,1.917 -0.147,0.909 -0.206,1.831 -0.365,2.738 -0.247,1.411 -0.596,2.802 -0.913,4.199 -0.263,1.159 -0.488,2.328 -0.821,3.468 -0.362,1.237 -0.709,2.494 -1.278,3.651 -0.64,1.303 -1.539,2.463 -2.373,3.651 -0.898,1.28 -1.789,2.575 -2.829,3.742 -1.26,1.414 -2.663,2.7 -4.107,3.925 -1.393,1.18 -2.788,2.395 -4.381,3.286 -1.228,0.687 -2.599,1.08 -3.925,1.552 -1.233,0.439 -2.452,0.968 -3.742,1.187 -1.05,0.178 -2.133,0.176 -3.195,0.091 -1.297,-0.104 -2.566,-0.439 -3.833,-0.73 -1.597,-0.367 -3.227,-0.664 -4.746,-1.278 -1.225,-0.495 -2.419,-1.115 -3.468,-1.917 -1.214,-0.927 -2.145,-2.176 -3.195,-3.286 -1.42,-1.502 -2.964,-2.906 -4.199,-4.564 -0.782,-1.05 -1.495,-2.172 -2.008,-3.377 -0.494,-1.161 -0.686,-2.429 -1.004,-3.651 -0.482,-1.849 -1.053,-3.683 -1.369,-5.568 -0.333,-1.989 -0.385,-4.014 -0.548,-6.024 -0.035,-0.426 -0.091,-1.278 -0.091,-1.278" />

	<path
   id="path4141"
   fill="none"
   stroke="#000000"
   stroke-width="1.7916"
   d="m 618.563,105.917 c 0,0 -1.167,-2.761 -1.825,-4.107 -0.425,-0.868 -0.955,-1.683 -1.369,-2.556 -0.679,-1.429 -1.368,-2.867 -1.825,-4.381 -0.323,-1.068 -0.496,-2.179 -0.639,-3.286 -0.121,-0.937 -0.025,-1.898 -0.183,-2.829 -0.095,-0.56 -0.456,-1.643 -0.456,-1.643" />

	<path
   id="path4143"
   fill="none"
   stroke="#000000"
   stroke-width="1.7916"
   d="m 615.825,99.893 c 0,0 -1.046,-0.979 -1.643,-1.369 -0.114,-0.075 -0.234,-0.147 -0.365,-0.183 -0.412,-0.113 -0.86,-0.003 -1.278,-0.091 -0.537,-0.112 -1.091,-0.249 -1.552,-0.548 -0.704,-0.457 -1.237,-1.149 -1.734,-1.825 -0.742,-1.01 -1.349,-2.127 -1.825,-3.286 -0.3,-0.731 -0.444,-1.516 -0.639,-2.282 -0.269,-1.059 -0.516,-2.123 -0.73,-3.195 -0.212,-1.059 -0.337,-2.135 -0.548,-3.195 -0.134,-0.673 -0.36,-1.328 -0.456,-2.008 -0.222,-1.569 -0.379,-3.165 -0.274,-4.746 0.053,-0.804 0.297,-1.583 0.456,-2.373 0.117,-0.579 0.365,-1.734 0.365,-1.734" />

	<path
   id="path4145"
   fill="none"
   stroke="#000000"
   stroke-width="1.7916"
   d="m 671.41,91.131 c 0.629,0.284 1.154,-0.805 1.552,-1.369 0.472,-0.669 0.681,-1.496 0.913,-2.282 0.315,-1.07 0.532,-2.175 0.639,-3.286 0.064,-0.666 -0.11,-1.348 0,-2.008 0.185,-1.11 0.644,-2.163 1.095,-3.195 0.514,-1.172 1.123,-2.307 1.825,-3.377 0.594,-0.906 1.221,-1.811 2.008,-2.556 0.27,-0.255 0.542,-0.662 0.913,-0.639 0.409,0.025 0.608,0.549 0.913,0.821 0.273,0.244 0.535,0.502 0.821,0.73 0.205,0.163 0.424,0.605 0.639,0.456 0.492,-0.339 -0.348,-1.146 -0.456,-1.734 -0.155,-0.843 -0.313,-1.7 -0.274,-2.556 0.07,-1.55 0.723,-3.024 0.913,-4.564 0.234,-1.905 0.087,-3.84 0.274,-5.75 0.242,-2.479 0.912,-4.909 1.095,-7.393 0.112,-1.517 0.175,-3.052 0,-4.564 -0.23,-1.987 -0.753,-3.939 -1.369,-5.841 -0.68,-2.102 -1.571,-4.138 -2.556,-6.115 -1.13,-2.27 -2.232,-4.605 -3.833,-6.572 -1.265,-1.553 -2.921,-2.748 -4.472,-4.016 -2.054,-1.679 -4.093,-3.418 -6.389,-4.746 -1.981,-1.146 -4.152,-1.941 -6.298,-2.738 -2.688,-0.999 -5.379,-2.125 -8.215,-2.556 -2.617,-0.398 -5.294,0 -7.941,0 -2.738,0 -5.49,-0.278 -8.215,0 -2.101,0.214 -4.224,0.549 -6.207,1.278 -2.377,0.874 -4.637,2.132 -6.663,3.651 -1.239,0.929 -2.246,2.138 -3.286,3.286 -1.321,1.458 -2.607,2.957 -3.742,4.564 -0.985,1.393 -1.829,2.884 -2.647,4.381 -0.861,1.576 -1.576,3.228 -2.373,4.837 -0.996,2.012 -2.254,3.911 -3.012,6.024 -0.506,1.41 -0.623,2.932 -1.004,4.381 -0.38,1.443 -0.985,2.827 -1.278,4.29 -0.342,1.71 -0.423,3.463 -0.548,5.203 -0.115,1.61 -0.203,3.224 -0.183,4.837 0.019,1.433 0.245,2.857 0.274,4.29 0.026,1.308 -0.377,2.648 -0.091,3.925 0.223,0.996 0.825,1.875 1.369,2.738 0.37,0.587 0.834,1.11 1.278,1.643 0.731,0.877 1.747,1.546 2.282,2.556 0.411,0.776 0.404,1.709 0.639,2.556 0.195,0.705 0.541,1.374 0.639,2.099 0.146,1.086 -0.144,2.191 -0.091,3.286 0.047,0.98 0.033,1.998 0.365,2.921 0.134,0.373 0.377,0.706 0.639,1.004 0.314,0.357 0.699,1.175 1.095,0.913 0.795,-0.525 -0.714,-1.791 -0.821,-2.738 -0.107,-0.939 -0.024,-1.907 0.183,-2.829 0.235,-1.053 0.822,-1.996 1.187,-3.012 0.465,-1.295 1.163,-2.554 1.278,-3.925 0.139,-1.655 -0.726,-3.268 -0.73,-4.929 -0.003,-1.076 0.218,-2.146 0.456,-3.195 0.247,-1.089 0.801,-2.097 1.004,-3.195 0.272,-1.469 0.274,-4.016 0.274,-4.472 0,-0.456 1.004,-5.568 1.004,-5.933 0,-0.365 0.536,-2.419 1.004,-3.56 0.885,-2.154 1.801,-4.401 3.377,-6.115 1.337,-1.453 3.084,-2.581 4.929,-3.286 1.407,-0.537 2.968,-0.707 4.472,-0.639 1.187,0.054 2.341,0.446 3.468,0.821 1.228,0.409 2.307,1.226 3.56,1.552 1.213,0.315 2.49,0.425 3.742,0.365 1.27,-0.061 2.481,-0.57 3.742,-0.73 1.512,-0.192 3.042,-0.19 4.564,-0.274 1.217,-0.067 3.103,-0.183 3.651,-0.183 0.548,0 3.651,0.091 4.107,0.091 0.456,0 1.978,0.853 2.921,1.369 1.199,0.657 2.456,1.271 3.468,2.191 0.883,0.802 1.638,1.772 2.191,2.829 0.517,0.989 0.774,2.102 1.004,3.195 0.284,1.348 0.288,2.74 0.456,4.107 0.139,1.127 0.357,2.245 0.456,3.377 0.132,1.517 -0.216,3.094 0.182,4.564 0.271,0.998 1.369,2.373 1.46,2.738 0.091,0.365 0.687,1.494 0.913,2.282 0.238,0.832 0.443,1.69 0.456,2.556 0.02,1.261 -0.481,2.483 -0.548,3.742 -0.082,1.551 0.019,3.111 0.182,4.655 0.169,1.597 0.559,3.162 0.821,4.746 0.191,1.155 0.456,2.302 0.548,3.468 0.042,0.518 -0.47,1.341 0.002,1.554 z" />

	<path
   id="path4147"
   fill="none"
   stroke="#000000"
   stroke-width="1.7916"
   d="m 628.968,108.564 c 0,0 1.092,0.165 1.643,0.183 0.67,0.022 1.34,-0.038 2.008,-0.091 0.794,-0.064 1.579,-0.212 2.373,-0.274 0.759,-0.059 1.525,-0.169 2.282,-0.091 0.374,0.039 0.723,0.219 1.095,0.274 0.603,0.09 1.216,0.076 1.825,0.091 0.669,0.017 1.339,0.016 2.008,0 0.67,-0.016 1.339,-0.126 2.008,-0.091 0.614,0.032 1.216,0.188 1.825,0.274 0.699,0.098 1.399,0.189 2.099,0.274 0.547,0.066 1.643,0.183 1.643,0.183" />

	<path
   id="path4149"
   fill="none"
   stroke="#000000"
   stroke-width="1.7916"
   d="m 630.885,109.842 c 0,0 1.437,0.952 2.191,1.369 1.154,0.64 2.299,1.345 3.56,1.734 0.999,0.309 2.058,0.419 3.103,0.456 1.22,0.043 2.465,0.014 3.651,-0.274 0.835,-0.202 1.588,-0.657 2.373,-1.004 0.797,-0.352 1.588,-0.718 2.373,-1.095 0.368,-0.177 1.095,-0.548 1.095,-0.548" />

	<path
   id="path4151"
   fill="none"
   stroke="#000000"
   stroke-width="1.7916"
   d="m 630.337,107.195 c 0,0 1.448,-0.474 2.191,-0.639 1.352,-0.301 2.731,-0.478 4.107,-0.639 1.152,-0.135 2.309,-0.242 3.468,-0.274 1.247,-0.034 2.495,0.039 3.742,0.091 0.518,0.021 1.043,-0.007 1.552,0.091 0.756,0.146 1.499,0.392 2.191,0.73 0.887,0.434 2.464,1.643 2.464,1.643" />

	<path
   id="path4153"
   fill="none"
   stroke="#000000"
   stroke-width="1.7916"
   d="m 635.905,97.611 c 0,0 -0.963,-0.395 -1.187,-0.821 -0.127,-0.243 -0.179,-0.615 0,-0.821 0.141,-0.162 0.425,-0.113 0.639,-0.091 0.45,0.045 0.878,0.244 1.278,0.456 0.5,0.265 0.955,0.618 1.369,1.004 0.379,0.353 0.597,0.866 1.004,1.187 0.428,0.336 0.92,0.662 1.46,0.73 0.432,0.055 0.911,-0.039 1.278,-0.274 0.384,-0.246 0.54,-0.736 0.821,-1.095 0.267,-0.34 0.473,-0.748 0.821,-1.004 0.264,-0.194 0.608,-0.243 0.913,-0.365 0.304,-0.122 0.587,-0.332 0.913,-0.365 0.338,-0.034 0.703,0.025 1.004,0.183 0.229,0.12 0.462,0.304 0.548,0.548 0.091,0.26 0.066,0.595 -0.091,0.821 -0.195,0.279 -0.913,0.456 -0.913,0.456" />

	<path
   id="path4155"
   fill="none"
   stroke="#000000"
   stroke-width="1.7916"
   d="m 647.04,98.433 c 0,0 1.308,-0.102 1.825,-0.456 0.522,-0.358 0.852,-0.967 1.095,-1.552 0.202,-0.485 0.289,-1.027 0.274,-1.552 -0.019,-0.656 -0.217,-1.305 -0.456,-1.917 -0.204,-0.52 -0.821,-1.46 -0.821,-1.46" />

	<path
   id="path4157"
   fill="none"
   stroke="#000000"
   stroke-width="1.7916"
   d="m 634.444,98.159 c 0,0 -1.082,-0.116 -1.552,-0.365 -0.475,-0.252 -0.912,-0.632 -1.187,-1.095 -0.256,-0.432 -0.356,-0.959 -0.365,-1.46 -0.01,-0.591 0.105,-1.204 0.365,-1.734 0.352,-0.717 1.552,-1.825 1.552,-1.825" />

	<path
   id="path4159"
   fill="none"
   stroke="#000000"
   stroke-width="1.7916"
   d="m 645.397,77.166 c 0,0 -0.645,1.863 -0.821,2.829 -0.208,1.141 -0.241,2.309 -0.274,3.468 -0.038,1.338 -0.152,2.699 0.091,4.016 0.165,0.89 0.913,2.556 0.913,2.556" />

	<path
   id="path4161"
   fill="none"
   stroke="#000000"
   stroke-width="1.7916"
   d="m 637.913,77.531 c 0,0 -0.131,2.864 -0.274,4.29 -0.134,1.344 -0.32,2.684 -0.548,4.016 -0.204,1.194 -0.73,3.56 -0.73,3.56" />

	<path
   id="path4163"
   fill="none"
   stroke="#000000"
   stroke-width="1.7916"
   d="m 649.048,80.908 c 0,0 -0.005,-1.22 0.274,-1.734 0.371,-0.681 1.11,-1.091 1.734,-1.552 0.428,-0.316 0.861,-0.662 1.369,-0.821 0.844,-0.265 1.763,-0.203 2.647,-0.183 1.317,0.031 2.625,0.242 3.925,0.456 0.86,0.142 1.753,0.209 2.556,0.548 0.808,0.341 2.191,1.46 2.191,1.46" />

	<path
   id="path4165"
   fill="none"
   stroke="#000000"
   stroke-width="1.7916"
   d="m 649.687,78.9 c 0,0 0.301,0.604 0.548,0.821 0.306,0.27 0.711,0.41 1.095,0.548 0.764,0.275 1.561,0.536 2.373,0.548 0.931,0.014 1.858,-0.246 2.738,-0.548 0.643,-0.221 1.334,-0.442 1.825,-0.913 0.226,-0.217 0.378,-0.518 0.456,-0.821 0.031,-0.118 0.037,-0.249 0,-0.365 -0.112,-0.354 -0.639,-0.913 -0.639,-0.913" />

	<path
   id="path4167"
   fill="none"
   stroke="#000000"
   stroke-width="1.7916"
   stroke-linecap="round"
   stroke-opacity="0.99"
   d="m 656.717,76.825 c 0.491,1.161 -0.052,2.5 -1.212,2.991 -1.161,0.491 -2.5,-0.052 -2.991,-1.212 -0.247,-0.585 -0.24,-1.246 0.021,-1.825" />

	<path
   id="path4169"
   fill="none"
   stroke="#000000"
   stroke-width="1.7916"
   stroke-linecap="round"
   stroke-opacity="0.99"
   d="m 655.402,76.678 c 0.413,0.537 0.311,1.307 -0.226,1.719 -0.537,0.412 -1.307,0.311 -1.719,-0.226 -0.342,-0.446 -0.338,-1.067 0.01,-1.508" />

	<path
   id="path4171"
   fill="none"
   stroke="#000000"
   stroke-width="1.7916"
   d="m 633.577,80.498 c 0,0 0.029,-0.617 -0.046,-0.913 -0.095,-0.376 -0.305,-0.715 -0.502,-1.05 -0.227,-0.386 -0.441,-0.798 -0.776,-1.095 -0.311,-0.275 -0.72,-0.415 -1.095,-0.593 -0.431,-0.205 -0.856,-0.448 -1.323,-0.548 -0.551,-0.117 -1.126,-0.056 -1.689,-0.046 -0.93,0.018 -1.864,0.045 -2.784,0.183 -0.788,0.118 -1.552,0.363 -2.327,0.548 -0.822,0.196 -2.464,0.593 -2.464,0.593" />

	<path
   id="path4173"
   fill="none"
   stroke="#000000"
   stroke-width="1.7916"
   d="m 623.811,76.938 c 0,0 -0.329,0.197 -0.365,0.365 -0.028,0.127 0.051,0.267 0.137,0.365 0.318,0.364 0.837,0.486 1.278,0.685 0.636,0.287 1.286,0.557 1.962,0.73 1.028,0.262 2.094,0.346 3.149,0.456 0.47,0.049 0.943,0.126 1.415,0.091 0.217,-0.016 0.448,-0.033 0.639,-0.137 0.132,-0.072 0.243,-0.19 0.319,-0.319 0.112,-0.191 0.179,-0.417 0.182,-0.639 0.004,-0.251 -0.182,-0.73 -0.182,-0.73" />

	<path
   id="path4175"
   fill="none"
   stroke="#000000"
   stroke-width="1.7916"
   stroke-linecap="round"
   stroke-opacity="0.99"
   d="m 631.341,76.95 c 0.027,1.194 -0.792,2.21 -1.909,2.476 m -1.654,-0.177 c -0.816,-0.393 -1.388,-1.219 -1.41,-2.187 -0.005,-0.249 0.026,-0.496 0.094,-0.736" />

	<path
   id="path4178"
   fill="none"
   stroke="#000000"
   stroke-width="1.7916"
   stroke-linecap="round"
   stroke-opacity="0.99"
   d="m 629.695,76.258 c 0.432,0.534 0.349,1.317 -0.185,1.749 -0.534,0.432 -1.317,0.349 -1.749,-0.185 -0.368,-0.455 -0.369,-1.105 -0.002,-1.561" />

	<path
   id="path4180"
   fill="none"
   stroke="#000000"
   stroke-width="1.7916"
   d="m 647.77,74.063 c 0.769,0.351 1.401,-0.976 2.191,-1.278 1.131,-0.433 2.355,-0.608 3.56,-0.73 0.999,-0.101 2.009,-0.053 3.012,0 1.161,0.061 2.331,0.123 3.468,0.365 1.252,0.266 2.398,0.927 3.651,1.187 0.628,0.13 1.442,0.614 1.917,0.183 0.473,-0.43 0.119,-1.289 0,-1.917 -0.17,-0.899 -0.481,-1.804 -1.004,-2.556 -0.443,-0.637 -1.02,-1.248 -1.734,-1.552 -0.758,-0.322 -1.642,-0.132 -2.464,-0.183 -1.216,-0.075 -2.439,-0.312 -3.651,-0.183 -1.284,0.137 -2.482,0.722 -3.742,1.004 -1.177,0.263 -2.538,-0.001 -3.56,0.639 -0.701,0.439 -1.095,1.265 -1.46,2.008 -0.238,0.484 -0.429,1.013 -0.456,1.552 -0.026,0.495 -0.178,1.255 0.272,1.461 z" />

	<path
   id="path4182"
   fill="none"
   stroke="#000000"
   stroke-width="1.7916"
   d="m 637,73.424 c 0.574,-0.974 -0.617,-2.259 -1.369,-3.103 -0.681,-0.763 -1.724,-1.11 -2.647,-1.552 -1.086,-0.519 -2.214,-0.969 -3.377,-1.278 -1.131,-0.3 -2.3,-0.476 -3.468,-0.548 -0.911,-0.056 -1.836,-0.05 -2.738,0.091 -1.313,0.206 -2.616,0.561 -3.833,1.095 -0.588,0.258 -1.272,0.48 -1.643,1.004 -0.252,0.355 -0.243,0.843 -0.274,1.278 -0.03,0.426 -0.193,0.959 0.091,1.278 0.33,0.37 0.968,0.22 1.46,0.274 0.908,0.1 1.83,0.188 2.738,0.091 0.748,-0.079 1.453,-0.397 2.191,-0.548 0.755,-0.154 1.514,-0.304 2.282,-0.365 0.849,-0.068 1.71,-0.106 2.556,0 1.34,0.169 2.659,0.532 3.925,1.004 0.574,0.214 1.082,0.577 1.643,0.821 0.477,0.208 0.945,0.478 1.46,0.548 0.332,0.046 0.833,0.199 1.003,-0.09 z" />

	<path
   id="path4188"
   fill="none"
   stroke="#000000"
   stroke-width="1.7916"
   stroke-linecap="round"
   stroke-opacity="0.99"
   d="m 605.227,227.268 c 0.968,1.816 -0.123,4.288 -2.436,5.52 -2.313,1.233 -4.973,0.76 -5.941,-1.056 -0.968,-1.816 0.123,-4.288 2.436,-5.52 2.314,-1.233 4.973,-0.76 5.941,1.056 z" />

	<path
   id="path4190"
   fill="none"
   stroke="#000000"
   stroke-width="1.7916"
   stroke-linecap="round"
   stroke-opacity="0.99"
   d="m 601.951,230.276 c 0,0.832 -0.674,1.506 -1.506,1.506 -0.832,0 -1.506,-0.674 -1.506,-1.506 0,-0.832 0.674,-1.506 1.506,-1.506 0.832,0 1.506,0.674 1.506,1.506 z" />

	<path
   id="path4192"
   fill="none"
   stroke="#000000"
   stroke-width="1.7916"
   stroke-linecap="round"
   stroke-opacity="0.99"
   d="m 685.23,232.117 c -1.108,1.612 -3.74,1.726 -5.878,0.256 -2.138,-1.47 -2.973,-3.969 -1.865,-5.581 1.108,-1.612 3.74,-1.726 5.878,-0.256 2.139,1.471 2.974,3.969 1.865,5.581 z" />

	<path
   id="path4194"
   fill="none"
   stroke="#000000"
   stroke-width="1.7916"
   stroke-linecap="round"
   stroke-opacity="0.99"
   d="m 683.458,230.23 c 0,0.907 -0.736,1.643 -1.643,1.643 -0.907,0 -1.643,-0.736 -1.643,-1.643 0,-0.907 0.736,-1.643 1.643,-1.643 0.907,0 1.643,0.736 1.643,1.643 z" />

	<path
   id="path4196"
   fill="none"
   stroke="#000000"
   stroke-width="1.7916"
   d="m 638.101,326.224 c 0,0 1.287,-0.215 1.936,-0.258 0.816,-0.054 2.452,0 2.452,0" />

</g>
</g>
  </g>
</svg>
