<?xml version="1.0" encoding="UTF-8" standalone="no"?>
<!-- Created with Inkscape (http://www.inkscape.org/) -->

<svg
   width="81.519859mm"
   height="203.93651mm"
   viewBox="0 0 81.519862 203.93649"
   version="1.1"
   id="svg1"
   inkscape:version="1.4.2 (f4327f4, 2025-05-13)"
   sodipodi:docname="generic_man10-1.75.svg"
   xmlns:inkscape="http://www.inkscape.org/namespaces/inkscape"
   xmlns:sodipodi="http://sodipodi.sourceforge.net/DTD/sodipodi-0.dtd"
   xmlns="http://www.w3.org/2000/svg"
   xmlns:svg="http://www.w3.org/2000/svg">
  <sodipodi:namedview
     id="namedview1"
     pagecolor="#ffffff"
     bordercolor="#000000"
     borderopacity="0.25"
     inkscape:showpageshadow="2"
     inkscape:pageopacity="0.0"
     inkscape:pagecheckerboard="0"
     inkscape:deskcolor="#d1d1d1"
     inkscape:document-units="mm"
     inkscape:zoom="1.2471942"
     inkscape:cx="186.01755"
     inkscape:cy="307.89111"
     inkscape:window-width="2880"
     inkscape:window-height="1676"
     inkscape:window-x="-12"
     inkscape:window-y="-12"
     inkscape:window-maximized="1"
     inkscape:current-layer="g5268" />
  <defs
     id="defs1" />
  <g
     inkscape:label="图层 1"
     inkscape:groupmode="layer"
     id="layer1"
     transform="translate(-29.368745,-102.3937)">
    <g
       id="g5268"
       transform="matrix(0.26458333,0,0,0.26458333,-25.537283,75.587411)">
	
	
	
	
	
	
	
	
	
	
	
	
	
	
	
	
	
	
	
	
	
	
	
	
	
	
	
	
	
	
	
	
	
	
	
	
	
	
	
	
	
	
	
	
	
	
	
	
	
	
	
	
	
	
	
	
	
	
	
	
	
	
	
	
	
	
	
	
	
	
	
	
	
	
	
	
	
	
<g
   id="g4158"
   transform="translate(-282.4735,-743.90046)">
	<path
   id="path3191"
   fill="none"
   stroke="#000000"
   stroke-width="1.7916"
   stroke-linecap="round"
   d="m 650.594,1259.235 c 0,0 -0.096,2.02 -0.121,3.03 -0.1,4 -0.165,8 -0.121,12 0.041,3.8 0.086,7.61 0.364,11.4 0.362,4.95 1.075,9.86 1.697,14.79 0.63,4.97 1.336,9.94 2.061,14.91 0.614,4.2 1.371,8.39 1.94,12.6 0.609,4.52 1.212,9.04 1.576,13.58 0.291,3.63 0.349,7.27 0.485,10.91 0.2,5.37 0.536,10.75 0.485,16.12 -0.047,4.94 -0.367,9.87 -0.727,14.79 -0.213,2.92 -0.775,5.81 -0.849,8.73 -0.065,2.59 0.021,5.19 0.364,7.76 0.247,1.84 0.68,3.67 1.212,5.45 1.013,3.4 2.41,6.67 3.758,9.94 1.246,3.03 2.649,5.99 4,8.97 1.157,2.56 2.578,5 3.515,7.64 0.6,1.69 1.109,3.43 1.333,5.21 0.227,1.81 0.062,3.64 0,5.46 -0.101,2.95 -0.39,5.9 -0.606,8.85 -0.228,3.11 -0.385,6.23 -0.727,9.33 -0.219,1.99 -0.707,3.95 -0.849,5.94 -0.138,1.94 -0.156,3.89 0,5.82 0.142,1.76 0.58,3.47 0.849,5.21 0.256,1.66 0.369,3.34 0.727,4.97 0.613,2.8 1.619,5.5 2.424,8.25 0.77,2.62 1.592,5.23 2.303,7.88 0.659,2.45 1.294,4.91 1.818,7.39 0.576,2.73 0.946,5.5 1.455,8.24 0.811,4.37 1.831,8.71 2.546,13.1 0.498,3.05 0.762,6.14 1.212,9.21 0.22,1.5 0.643,2.97 0.727,4.48 0.045,0.81 -0.036,1.62 -0.121,2.43 -0.159,1.5 -0.461,2.99 -0.727,4.48 -0.297,1.66 -0.603,3.33 -0.97,4.97 -0.362,1.63 -0.71,3.26 -1.212,4.85 -0.339,1.08 -0.758,2.12 -1.212,3.15 -0.438,1 -1.017,1.92 -1.455,2.91 -0.454,1.03 -0.929,2.07 -1.212,3.16 -0.216,0.82 -0.374,1.68 -0.364,2.54 0.012,0.98 0.265,1.95 0.485,2.91 0.16,0.7 0.415,1.37 0.606,2.06 0.257,0.93 0.676,1.83 0.727,2.79 0.043,0.81 -0.387,1.61 -0.364,2.42 0.028,0.99 0.505,1.93 0.606,2.91 0.108,1.05 0.044,2.1 0,3.15 -0.02,0.49 -0.115,0.97 -0.121,1.46 -0.009,0.69 0.101,1.37 0.121,2.06 0.018,0.61 -0.097,1.22 0,1.82 0.102,0.63 0.386,1.22 0.606,1.82 0.225,0.61 0.481,1.21 0.727,1.81 0.397,0.98 0.906,1.91 1.212,2.91 0.301,0.99 0.606,3.03 0.606,3.03" />

	<path
   id="path3961"
   fill="none"
   stroke="#000000"
   stroke-width="1.7916"
   stroke-linecap="round"
   d="m 686.84,1560.234 c 0,0 0.635,6.94 0.727,10.42 0.066,2.47 -0.009,4.93 -0.121,7.4 -0.098,2.14 -0.027,4.32 -0.485,6.42 -0.422,1.94 -1.349,3.73 -2.061,5.58 -0.547,1.42 -1.207,2.8 -1.697,4.24 -0.432,1.27 -0.752,2.58 -1.091,3.88 -0.305,1.17 -0.603,2.33 -0.849,3.52 -0.334,1.6 -0.707,3.21 -0.849,4.84 -0.059,0.69 -0.166,1.4 0,2.07 0.187,0.75 0.675,1.4 1.091,2.06 0.325,0.51 0.626,1.06 1.091,1.45 0.832,0.7 1.875,1.13 2.909,1.46 2.104,0.66 4.344,0.84 6.546,0.97 2.341,0.13 4.719,0.14 7.031,-0.25 1.752,-0.29 3.497,-0.79 5.091,-1.57 1.197,-0.59 2.394,-1.3 3.273,-2.3 0.691,-0.79 1.128,-1.8 1.455,-2.79 0.166,-0.51 0.016,-1.1 0.242,-1.58 0.207,-0.44 0.564,-0.82 0.97,-1.09 0.427,-0.28 0.986,-0.28 1.455,-0.48 1.012,-0.44 1.984,-0.98 2.909,-1.58 1.452,-0.94 2.731,-2.13 4.122,-3.15 0.559,-0.42 1.221,-0.71 1.697,-1.22 0.522,-0.55 0.984,-1.21 1.212,-1.93 0.242,-0.78 0.204,-1.62 0.121,-2.43 -0.098,-0.95 -0.39,-1.89 -0.727,-2.79 -0.254,-0.67 -0.629,-1.3 -0.97,-1.94 -0.307,-0.57 -0.536,-1.21 -0.97,-1.69 -0.5,-0.56 -1.117,-1.07 -1.818,-1.34 -0.379,-0.14 -0.811,-0.06 -1.212,-0.12 -0.408,-0.06 -0.801,-0.27 -1.212,-0.24 -0.255,0.02 -0.727,0.24 -0.727,0.24" />

	<path
   id="path3963"
   fill="none"
   stroke="#000000"
   stroke-width="1.7916"
   stroke-linecap="round"
   d="m 714.236,1585.935 c 0,0 -0.572,-0.75 -0.97,-0.97 -0.58,-0.33 -1.278,-0.41 -1.94,-0.49 -0.682,-0.08 -2.061,0 -2.061,0" />

	<path
   id="path3965"
   fill="none"
   stroke="#000000"
   stroke-width="1.7916"
   stroke-linecap="round"
   d="m 694.113,1568.954 c 0,0 -0.577,3.63 -0.606,5.46 -0.04,2.55 0.324,5.1 0.606,7.64 0.284,2.55 0.475,5.14 1.091,7.63 0.462,1.88 1.94,5.46 1.94,5.46" />

	<path
   id="path3967"
   fill="none"
   stroke="#000000"
   stroke-width="1.7916"
   stroke-linecap="round"
   d="m 712.418,1585.935 c 0,0 -2.202,-1.07 -3.152,-1.82 -0.649,-0.52 -1.697,-1.82 -1.697,-1.82" />

	<path
   id="path3969"
   fill="none"
   stroke="#000000"
   stroke-width="1.7916"
   stroke-linecap="round"
   d="m 705.75,1586.655 c 0,0 1.236,-2.54 1.697,-3.88 0.369,-1.06 0.724,-2.15 0.849,-3.27 0.144,-1.28 0.049,-2.6 -0.121,-3.88 -0.208,-1.56 -0.677,-3.08 -1.091,-4.6 -0.288,-1.06 -0.742,-2.08 -0.97,-3.16 -0.211,-0.99 -0.256,-2.01 -0.364,-3.03 -0.138,-1.29 -0.369,-2.58 -0.364,-3.88 0.009,-2.39 0.409,-4.77 0.727,-7.15 0.327,-2.43 0.798,-4.85 1.212,-7.27 0.394,-2.31 0.726,-4.62 1.212,-6.91 0.589,-2.77 1.412,-5.49 2.061,-8.24 0.816,-3.47 1.594,-6.94 2.303,-10.43 0.925,-4.55 1.768,-9.12 2.546,-13.7 0.623,-3.67 1.013,-7.37 1.697,-11.03 0.586,-3.13 1.455,-6.2 2.061,-9.33 0.654,-3.38 1.356,-6.76 1.697,-10.18 0.357,-3.59 0.38,-7.2 0.364,-10.79 -0.012,-2.84 -0.144,-5.67 -0.364,-8.49 -0.168,-2.15 -0.443,-4.29 -0.727,-6.43 -0.458,-3.44 -0.918,-6.89 -1.576,-10.3 -0.707,-3.67 -1.797,-7.25 -2.546,-10.91 -0.7,-3.42 -1.026,-6.91 -1.818,-10.3 -0.459,-1.97 -1.251,-3.85 -1.697,-5.82 -0.389,-1.72 -0.707,-3.46 -0.849,-5.21 -0.169,-2.1 -0.075,-4.21 0,-6.31 0.081,-2.27 0.438,-4.52 0.485,-6.79 0.055,-2.66 -0.173,-5.33 -0.242,-8 -0.048,-1.86 -0.073,-3.72 -0.121,-5.57 -0.07,-2.71 -0.215,-5.42 -0.242,-8.13 -0.042,-4.2 0,-8.4 0.121,-12.6 0.073,-2.51 0.26,-5.01 0.364,-7.52 0.245,-5.94 0.561,-11.88 0.606,-17.82 0.016,-2.14 -0.121,-6.42 -0.121,-6.42" />

	<path
   id="path3971"
   fill="none"
   stroke="#000000"
   stroke-width="1.7916"
   stroke-linecap="round"
   d="m 677.99,1380.575 c 0,0 -0.14,10.19 0,15.28 0.101,3.68 0.235,7.36 0.606,11.03 0.334,3.29 1.455,9.82 1.455,9.82" />

	<path
   id="path3973"
   fill="none"
   stroke="#000000"
   stroke-width="1.7916"
   stroke-linecap="round"
   d="m 702.477,1390.155 3.152,12.36" />

	<path
   id="path3975"
   fill="none"
   stroke="#000000"
   stroke-width="1.7916"
   stroke-linecap="round"
   d="m 712.054,1354.515 c 0,0 1.836,-11.56 2.788,-17.33 0.947,-5.75 2.115,-11.45 2.909,-17.22 0.832,-6.04 1.375,-12.11 1.94,-18.18 0.473,-5.09 0.901,-10.18 1.212,-15.28 0.345,-5.65 0.63,-11.3 0.727,-16.97 0.081,-4.72 0.121,-9.46 -0.121,-14.18 -0.287,-5.59 -1.023,-11.15 -1.576,-16.73 -0.462,-4.65 -0.969,-9.29 -1.455,-13.94 -0.283,-2.71 -0.661,-5.41 -0.849,-8.12 -0.248,-3.59 -0.149,-7.2 -0.364,-10.79 -0.141,-2.35 -0.224,-4.71 -0.606,-7.03 -0.358,-2.18 -1.052,-4.28 -1.576,-6.43 -0.81,-3.31 -1.583,-6.63 -2.424,-9.94 -0.505,-1.98 -1.151,-3.93 -1.576,-5.94 -0.212,-1 -0.367,-2.01 -0.485,-3.03 -0.13,-1.12 -0.242,-2.91 -0.242,-3.39 0,-0.49 -0.657,-2.18 -0.97,-3.27 -0.334,-1.17 -0.807,-2.31 -0.97,-3.52 -0.217,-1.6 0.019,-3.23 0,-4.85 -0.02,-1.74 -0.026,-3.48 -0.121,-5.21 -0.154,-2.8 -0.398,-5.59 -0.727,-8.37 -0.192,-1.62 -0.466,-3.23 -0.727,-4.84 -0.414,-2.56 -0.911,-5.09 -1.333,-7.64 -0.469,-2.83 -0.994,-5.64 -1.333,-8.49 -0.351,-2.94 -0.574,-5.89 -0.727,-8.85 -0.096,-1.85 -0.233,-3.72 -0.121,-5.57 0.137,-2.28 0.765,-4.51 0.97,-6.79 0.192,-2.14 0.103,-4.29 0.242,-6.43 0.228,-3.48 0.777,-6.94 0.97,-10.42 0.127,-2.3 -0.041,-4.61 0.121,-6.91 0.277,-3.94 0.974,-7.84 1.455,-11.76 0.367,-2.99 0.691,-5.98 1.091,-8.97 0.704,-5.26 1.188,-10.57 2.303,-15.76 0.433,-2.01 1.089,-3.97 1.697,-5.94 0.415,-1.34 0.862,-2.68 1.333,-4 0.42,-1.18 1.002,-2.31 1.333,-3.52 0.434,-1.58 0.679,-3.21 0.849,-4.85 0.125,-1.2 -0.07,-2.43 0.121,-3.63 0.205,-1.29 1.091,-3.76 1.091,-3.76" />

	<path
   id="path3977"
   fill="none"
   stroke="#000000"
   stroke-width="1.7916"
   stroke-linecap="round"
   d="m 706.599,1069.035 c 0,0 0.738,5.18 1.212,7.76 0.846,4.59 2.067,9.11 2.909,13.7 0.62,3.37 0.767,6.84 1.576,10.18 0.271,1.12 0.756,2.17 1.091,3.27 0.574,1.89 1.201,3.77 1.576,5.7 0.41,2.12 0.638,4.27 0.727,6.42 0.055,1.34 -0.004,2.68 -0.121,4 -0.122,1.39 -0.526,2.74 -0.606,4.13 -0.074,1.29 -0.009,2.59 0.121,3.87 0.12,1.19 0.417,2.35 0.606,3.52 0.13,0.81 0.303,1.61 0.364,2.42 0.066,0.89 -0.129,1.79 0,2.67 0.245,1.67 0.924,3.25 1.455,4.85 0.447,1.35 0.727,2.78 1.455,4 0.778,1.3 2.086,2.21 3.031,3.4" />

	<path
   id="path3979"
   fill="none"
   stroke="#000000"
   stroke-width="1.7916"
   stroke-linecap="round"
   d="m 718.236,1144.555 c 0,0 0.565,2.35 0.849,3.52 0.323,1.33 0.629,2.67 0.97,4 0.385,1.5 0.661,3.04 1.212,4.48 0.9,2.37 2.395,4.47 3.394,6.79 0.748,1.74 1.286,3.56 1.94,5.34 0.879,2.38 1.755,4.77 2.667,7.15 1.183,3.08 2.504,6.11 3.637,9.21 1.565,4.28 3.002,8.62 4.364,12.97 0.954,3.05 1.846,6.12 2.667,9.21 0.352,1.33 0.591,2.69 0.97,4 0.741,2.58 1.539,5.15 2.546,7.64 0.841,2.08 2.075,3.98 2.909,6.06 0.776,1.94 1.697,5.34 1.94,5.94 0.242,0.61 0.422,1.61 0.485,2.43 0.072,0.92 -0.065,1.86 -0.121,2.78 -0.126,2.07 -0.434,4.12 -0.485,6.19 -0.035,1.41 -0.002,2.83 0.121,4.24 0.121,1.38 0.306,2.76 0.606,4.12 0.337,1.52 0.903,2.99 1.333,4.49 0.543,1.89 1.061,3.79 1.576,5.69 0.371,1.38 0.77,2.74 1.091,4.13 0.186,0.8 0.404,1.6 0.485,2.42 0.076,0.76 0.017,1.54 0,2.3 -0.02,0.89 -0.038,1.78 -0.121,2.67 -0.067,0.71 -0.235,1.41 -0.303,2.12 -0.079,0.83 -0.051,1.66 -0.121,2.49 -0.071,0.83 -0.18,1.66 -0.303,2.48 -0.103,0.69 -0.285,1.37 -0.364,2.06 -0.044,0.38 -0.05,0.77 -0.061,1.15 -0.009,0.37 -0.029,0.73 0,1.09 0.061,0.76 0.239,1.5 0.364,2.25 0.118,0.71 0.052,1.47 0.364,2.12 0.224,0.46 0.594,0.88 1.03,1.15 0.374,0.23 0.832,0.36 1.273,0.36 0.397,0.01 0.807,-0.1 1.152,-0.3 0.372,-0.21 0.694,-0.54 0.909,-0.91 0.306,-0.52 0.378,-1.16 0.485,-1.76 0.128,-0.71 0.09,-1.45 0.182,-2.18 0.091,-0.71 0.259,-1.41 0.364,-2.12 0.095,-0.64 0.202,-1.29 0.242,-1.94 0.036,-0.58 0.047,-1.3 0.121,-1.88 0.061,-0.47 0.087,-0.82 0.242,-1.27 0.2,-0.58 0.468,-1.14 0.727,-1.7 0.209,-0.45 0.527,-0.85 0.667,-1.33 0.108,-0.37 0.101,-0.77 0.121,-1.15 0.027,-0.51 -0.062,-1.02 0,-1.52 0.01,-0.08 -0.007,-0.19 0.061,-0.24 0.277,-0.2 0.717,-0.08 1.03,0.06 0.339,0.15 0.646,0.45 0.788,0.79 0.085,0.21 0.012,0.44 0,0.67 -0.03,0.52 -0.119,1.05 -0.182,1.57 -0.078,0.65 -0.202,1.29 -0.242,1.94 -0.039,0.63 -0.058,1.26 0,1.88 0.071,0.76 0.3,1.49 0.424,2.25 0.14,0.84 0.259,1.69 0.364,2.54 0.144,1.17 0.258,2.34 0.364,3.52 0.071,0.78 0.04,1.58 0.182,2.36 0.091,0.5 0.313,0.96 0.424,1.45 0.112,0.5 0.177,1.01 0.242,1.52 0.078,0.6 -0.009,1.24 0.182,1.82 0.161,0.49 0.443,0.95 0.788,1.33 0.337,0.38 0.756,0.69 1.212,0.91 0.301,0.14 0.638,0.21 0.97,0.24 0.483,0.05 0.995,0.1 1.455,-0.06 0.303,-0.1 0.539,-0.34 0.788,-0.55 0.323,-0.26 0.722,-0.47 0.909,-0.84 0.156,-0.31 0.101,-0.69 0.121,-1.03 0.039,-0.67 0.055,-1.34 0,-2 -0.04,-0.49 -0.187,-0.97 -0.242,-1.46 -0.075,-0.66 -0.079,-1.33 -0.121,-2 -0.039,-0.6 -0.009,-1.22 -0.121,-1.82 -0.075,-0.39 -0.286,-0.75 -0.364,-1.15 -0.094,-0.48 -0.084,-0.97 -0.121,-1.45 -0.045,-0.59 -0.121,-1.17 -0.121,-1.76 0,-0.59 0.074,-1.17 0.121,-1.76 0.053,-0.65 0.181,-1.29 0.182,-1.94 10e-4,-0.45 -0.061,-0.89 -0.121,-1.33 -0.061,-0.45 -0.18,-0.89 -0.242,-1.34 -0.087,-0.62 -0.043,-1.26 -0.182,-1.88 -0.052,-0.23 -0.218,-0.43 -0.242,-0.66 -0.014,-0.14 -0.047,-0.33 0.061,-0.43 0.214,-0.18 0.567,-0.03 0.849,0 0.288,0.04 0.611,0.02 0.849,0.19 0.276,0.19 0.451,0.52 0.545,0.85 0.08,0.27 -0.005,0.56 0,0.84 0.01,0.51 0.05,1.01 0.061,1.52 0.009,0.46 -0.042,0.93 0,1.39 0.041,0.45 0.135,0.9 0.242,1.34 0.146,0.59 0.325,1.18 0.546,1.75 0.224,0.59 0.592,1.11 0.788,1.7 0.22,0.67 0.237,1.39 0.424,2.06 0.212,0.77 0.611,1.47 0.788,2.24 0.2,0.88 0.21,1.78 0.303,2.67 0.088,0.85 0.151,1.7 0.242,2.55 0.072,0.67 0.136,1.34 0.242,2 0.082,0.51 0.193,1.01 0.303,1.51 0.093,0.43 0.071,0.91 0.303,1.28 0.291,0.46 0.768,0.82 1.273,1.03 0.544,0.22 1.177,0.28 1.758,0.18 0.508,-0.09 0.984,-0.36 1.394,-0.67 0.319,-0.24 0.553,-0.58 0.788,-0.91 0.277,-0.38 0.577,-0.76 0.727,-1.21 0.176,-0.52 0.151,-1.09 0.182,-1.64 0.058,-1.05 0,-2.1 0,-3.15 0,-0.83 0.137,-1.67 0,-2.48 -0.102,-0.61 -0.451,-1.16 -0.606,-1.76 -0.235,-0.91 -0.315,-1.86 -0.485,-2.79 -0.096,-0.52 -0.364,-1.33 -0.303,-1.57 0.061,-0.25 -0.021,-1.26 -0.121,-1.88 -0.076,-0.48 -0.251,-0.93 -0.364,-1.4 -0.131,-0.54 -0.159,-1.11 -0.364,-1.63 -0.146,-0.38 -0.476,-0.66 -0.606,-1.03 -0.147,-0.43 -0.078,-0.9 -0.182,-1.34 -0.129,-0.54 -0.415,-1.03 -0.545,-1.57 -0.067,-0.28 -0.09,-0.57 -0.121,-0.85 -0.029,-0.26 -0.206,-0.57 -0.061,-0.79 0.071,-0.11 0.238,-0.1 0.364,-0.12 0.159,-0.03 0.337,-0.07 0.485,0 0.222,0.1 0.375,0.33 0.485,0.54 0.177,0.36 0.181,0.77 0.242,1.16 0.06,0.38 0.034,0.77 0.121,1.15 0.093,0.4 0.302,0.76 0.424,1.15 0.144,0.46 0.207,0.94 0.364,1.39 0.165,0.48 0.414,0.93 0.606,1.4 0.213,0.52 0.418,1.04 0.606,1.57 0.241,0.68 0.489,1.37 0.667,2.07 0.243,0.95 0.375,1.93 0.546,2.9 0.173,0.99 0.294,1.99 0.485,2.97 0.123,0.63 0.243,1.27 0.424,1.88 0.183,0.62 0.367,1.25 0.667,1.82 0.195,0.37 0.463,0.7 0.727,1.03 0.225,0.28 0.432,0.59 0.727,0.79 0.322,0.22 0.709,0.34 1.091,0.42 0.416,0.09 0.859,0.16 1.273,0.06 0.291,-0.06 0.553,-0.24 0.788,-0.42 0.237,-0.18 0.395,-0.45 0.606,-0.67 0.252,-0.25 0.623,-0.41 0.788,-0.72 0.141,-0.27 0.09,-0.61 0.121,-0.91 0.084,-0.81 0.162,-1.62 0.182,-2.43 0.02,-0.81 -0.05,-1.61 -0.061,-2.42 -0.005,-0.49 0.123,-0.99 0,-1.46 -0.094,-0.35 -0.411,-0.62 -0.546,-0.97 -0.195,-0.5 -0.289,-1.04 -0.364,-1.57 -0.054,-0.38 0.01,-0.78 -0.061,-1.15 -0.083,-0.44 -0.346,-0.84 -0.424,-1.28 -0.123,-0.69 0.017,-1.41 -0.061,-2.12 -0.058,-0.53 -0.137,-1.06 -0.303,-1.57 -0.118,-0.36 -0.357,-0.68 -0.485,-1.03 -0.252,-0.71 -0.319,-1.47 -0.546,-2.19 -0.203,-0.64 -0.538,-1.23 -0.727,-1.88 -0.227,-0.77 -0.244,-1.59 -0.485,-2.36 -0.138,-0.44 -0.442,-0.82 -0.546,-1.27 -0.099,-0.44 -0.08,-0.89 -0.061,-1.34 0.014,-0.3 0.059,-0.6 0.121,-0.9 0.09,-0.44 0.278,-0.84 0.364,-1.28 0.106,-0.54 0.197,-1.09 0.182,-1.63 -0.01,-0.37 -0.146,-0.73 -0.182,-1.09 -0.065,-0.67 -10e-4,-1.34 -0.061,-2 -0.036,-0.41 -0.162,-0.81 -0.182,-1.22 -0.018,-0.38 -0.007,-0.77 0.061,-1.15 0.048,-0.27 0.148,-0.53 0.242,-0.79 0.212,-0.57 0.592,-1.09 0.727,-1.69 0.116,-0.52 0.01,-1.06 0.061,-1.58 0.051,-0.53 0.248,-1.04 0.242,-1.57 -0.004,-0.35 -0.182,-1.03 -0.182,-1.03" />

	<path
   id="path3993"
   fill="none"
   stroke="#000000"
   stroke-width="1.7916"
   stroke-linecap="round"
   d="m 753.937,1288.085 c 0.424,0 0.849,-0.01 1.273,0 0.364,0.01 0.803,0.28 1.091,0.06 0.163,-0.13 0.083,-0.4 0.121,-0.61 0.085,-0.44 0.214,-0.88 0.242,-1.33 0.023,-0.36 0.043,-0.74 -0.061,-1.09 -0.092,-0.31 -0.256,-0.62 -0.485,-0.85 -0.198,-0.2 -0.469,-0.31 -0.727,-0.42 -0.212,-0.09 -0.436,-0.19 -0.667,-0.18 -0.192,0 -0.377,0.09 -0.546,0.18 -0.227,0.12 -0.42,0.3 -0.606,0.48 -0.134,0.13 -0.278,0.26 -0.364,0.43 -0.115,0.22 -0.163,0.48 -0.182,0.72 -0.017,0.23 0.04,0.45 0.061,0.67 0.039,0.42 0.063,0.85 0.121,1.27 0.031,0.23 -0.052,0.53 0.121,0.67 0.157,0.13 0.406,0 0.608,0 z" />

	<path
   id="path3995"
   fill="none"
   stroke="#000000"
   stroke-width="1.7916"
   stroke-linecap="round"
   d="m 765.392,1293.725 c 0.325,0.27 0.847,0.1 1.273,0.12 0.484,0.02 0.973,0.05 1.455,0 0.37,-0.04 0.849,0.04 1.091,-0.24 0.21,-0.25 0.076,-0.65 0.061,-0.97 -0.025,-0.51 -0.07,-1.04 -0.242,-1.52 -0.094,-0.26 -0.244,-0.51 -0.424,-0.73 -0.221,-0.26 -0.494,-0.48 -0.788,-0.66 -0.224,-0.14 -0.468,-0.26 -0.727,-0.31 -0.3,-0.05 -0.626,-0.04 -0.909,0.07 -0.362,0.14 -0.68,0.41 -0.909,0.72 -0.166,0.23 -0.258,0.51 -0.303,0.79 -0.071,0.44 -0.005,0.89 0.061,1.33 0.069,0.48 -0.004,1.09 0.361,1.4 z" />

	<path
   id="path3997"
   fill="none"
   stroke="#000000"
   stroke-width="1.7916"
   stroke-linecap="round"
   d="m 775.575,1295.295 c 0.239,0.25 0.685,0.11 1.03,0.12 0.747,0.04 1.502,0.05 2.243,-0.06 0.495,-0.07 1.154,0.04 1.455,-0.36 0.328,-0.44 0.058,-1.1 -0.061,-1.64 -0.124,-0.55 -0.348,-1.1 -0.667,-1.57 -0.112,-0.17 -0.25,-0.33 -0.424,-0.43 -0.362,-0.2 -0.796,-0.32 -1.212,-0.3 -0.236,0.01 -0.451,0.15 -0.667,0.24 -0.231,0.11 -0.46,0.22 -0.667,0.37 -0.222,0.15 -0.433,0.33 -0.606,0.54 -0.15,0.18 -0.277,0.39 -0.364,0.61 -0.106,0.27 -0.162,0.56 -0.182,0.85 -0.037,0.54 -0.256,1.24 0.122,1.63 z" />

	<path
   id="path3999"
   fill="none"
   stroke="#000000"
   stroke-width="1.7916"
   stroke-linecap="round"
   d="m 785.394,1290.995 c 0.256,0.21 0.64,0.19 0.97,0.24 0.4,0.06 0.808,0.09 1.212,0.06 0.368,-0.02 0.745,-0.05 1.091,-0.18 0.332,-0.12 0.751,-0.23 0.909,-0.54 0.172,-0.35 -0.039,-0.78 -0.121,-1.16 -0.081,-0.37 -0.162,-0.76 -0.364,-1.09 -0.135,-0.22 -0.337,-0.39 -0.545,-0.54 -0.22,-0.16 -0.464,-0.3 -0.727,-0.37 -0.236,-0.05 -0.486,-0.02 -0.727,0 -0.327,0.03 -0.654,0.09 -0.97,0.19 -0.209,0.06 -0.412,0.14 -0.606,0.24 -0.234,0.12 -0.495,0.22 -0.667,0.42 -0.13,0.15 -0.222,0.35 -0.242,0.55 -0.03,0.29 0.091,0.57 0.182,0.85 0.152,0.46 0.23,1.02 0.605,1.33 z" />

	<path
   id="path4001"
   fill="none"
   stroke="#000000"
   stroke-width="1.7916"
   stroke-linecap="round"
   d="m 786.257,1262.715 c 0,0 0.162,1.26 0.257,1.88 0.13,0.86 0.272,1.72 0.429,2.58 0.131,0.71 0.166,1.46 0.429,2.14 0.3,0.77 0.739,1.51 1.286,2.14 0.627,0.72 1.459,1.24 2.229,1.8 0.581,0.43 1.163,0.86 1.8,1.2 0.6,0.32 1.215,0.67 1.886,0.77 0.368,0.06 0.751,0 1.114,-0.08 0.238,-0.06 0.5,-0.1 0.686,-0.26 0.175,-0.15 0.142,-0.12 0.282,-0.3 0.123,-0.16 0.412,-0.54 0.489,-0.73 0.077,-0.18 0.051,-0.41 0,-0.6 -0.059,-0.22 -0.222,-0.4 -0.343,-0.6 -0.68,-1.11 -1.77,-2.01 -2.143,-3.26 -0.049,-0.16 0,-0.34 0,-0.51 0,-0.34 0.05,-0.69 0,-1.03 -0.043,-0.3 -0.206,-0.56 -0.257,-0.86 -0.089,-0.5 -0.045,-1.03 -0.086,-1.54 -0.066,-0.83 -0.113,-1.67 -0.257,-2.49 -0.102,-0.58 -0.198,-1.17 -0.429,-1.71 -0.211,-0.5 -0.627,-0.88 -0.857,-1.37 -0.462,-0.98 -0.646,-2.07 -1.029,-3.09 -0.208,-0.55 -0.509,-1.06 -0.686,-1.63 -0.123,-0.39 -0.141,-0.8 -0.257,-1.2 -0.182,-0.61 -0.538,-1.17 -0.686,-1.8 -0.132,-0.56 -0.035,-1.15 -0.171,-1.71 -0.073,-0.3 -0.181,-0.6 -0.343,-0.86 -0.181,-0.29 -0.448,-0.52 -0.686,-0.77 -0.825,-0.86 -1.721,-1.65 -2.572,-2.49 -1.297,-1.27 -2.593,-2.55 -3.857,-3.85 -1.251,-1.29 -2.509,-2.58 -3.686,-3.95 -0.838,-0.96 -1.613,-1.99 -2.4,-3 -0.727,-0.93 -1.481,-1.84 -2.143,-2.82 -0.466,-0.69 -0.897,-1.41 -1.286,-2.15 -0.352,-0.66 -0.735,-1.33 -0.943,-2.05 -0.246,-0.86 -0.223,-1.78 -0.343,-2.66 -0.136,-1 -0.272,-2 -0.429,-3 -0.157,-1 -0.31,-2.01 -0.514,-3 -0.468,-2.28 -1.065,-4.52 -1.629,-6.77 -0.523,-2.09 -1.068,-4.18 -1.629,-6.26 -0.748,-2.78 -1.635,-5.52 -2.314,-8.32 -0.662,-2.72 -1.176,-5.47 -1.714,-8.22 -0.335,-1.71 -0.722,-3.42 -0.943,-5.15 -0.2,-1.56 -0.254,-3.14 -0.343,-4.71 -0.081,-1.43 -0.111,-2.86 -0.171,-4.29 -0.108,-2.54 -0.2,-5.08 -0.343,-7.63 -0.119,-2.11 -0.257,-4.23 -0.429,-6.34 -0.172,-2.12 -0.234,-4.25 -0.6,-6.34 -0.158,-0.9 -0.473,-1.77 -0.686,-2.66 -0.279,-1.17 -0.628,-2.32 -0.771,-3.51 -0.141,-1.17 0.009,-2.35 -0.086,-3.52 -0.135,-1.66 -0.39,-3.32 -0.686,-4.97 -0.326,-1.81 -0.712,-3.62 -1.2,-5.4 -0.534,-1.94 -1.242,-3.83 -1.886,-5.74 -0.725,-2.15 -1.387,-4.33 -2.229,-6.43 -0.769,-1.92 -1.738,-3.76 -2.572,-5.66 -1,-2.27 -2.052,-4.53 -2.914,-6.86 -0.853,-2.3 -1.622,-4.64 -2.229,-7.03 -0.704,-2.76 -1.174,-5.58 -1.629,-8.39 -0.427,-2.65 -0.634,-5.33 -1.029,-7.98 -0.329,-2.2 -0.833,-4.38 -1.114,-6.6 -0.253,-1.99 -0.313,-4 -0.514,-6 -0.249,-2.46 -0.565,-4.91 -0.857,-7.37 -0.279,-2.34 -0.458,-4.7 -0.857,-7.03 -0.312,-1.81 -0.896,-3.58 -1.2,-5.4 -0.294,-1.76 -0.549,-3.53 -0.6,-5.31 -0.044,-1.55 0.053,-3.1 0.257,-4.63 0.254,-1.91 0.814,-3.77 1.2,-5.66 0.415,-2.02 0.883,-4.04 1.2,-6.08 0.388,-2.51 0.674,-5.02 0.857,-7.55 0.13,-1.79 0.143,-3.6 0.171,-5.4 0.026,-1.65 0.09,-3.31 0,-4.97 -0.1,-1.84 -0.397,-3.66 -0.6,-5.48 -0.169,-1.52 -0.428,-3.03 -0.514,-4.55 -0.119,-2.11 0.187,-4.24 0,-6.34 -0.143,-1.62 -0.437,-3.231 -0.857,-4.801 -0.283,-1.056 -0.613,-2.114 -1.114,-3.086 -0.414,-0.803 -0.978,-1.524 -1.543,-2.229 -0.948,-1.184 -2.008,-2.276 -3.086,-3.343 -1.15,-1.139 -2.323,-2.263 -3.6,-3.257 -0.813,-0.633 -1.657,-1.24 -2.572,-1.714 -0.843,-0.438 -1.756,-0.728 -2.657,-1.029 -1.295,-0.433 -2.651,-0.672 -3.943,-1.114 -1.662,-0.568 -3.281,-1.259 -4.886,-1.971 -2.091,-0.929 -4.16,-1.912 -6.172,-3 -2.694,-1.457 -5.179,-3.283 -7.886,-4.714 -1.921,-1.016 -3.959,-1.795 -5.915,-2.743 -2.507,-1.215 -4.962,-2.534 -7.457,-3.772 -1.992,-0.988 -3.998,-1.947 -6,-2.914 -2.198,-1.062 -4.462,-1.994 -6.6,-3.172 -1.653,-0.91 -3.307,-1.847 -4.8,-3 -1.12,-0.865 -2.18,-1.828 -3.086,-2.914 -0.437,-0.523 -0.729,-1.152 -1.114,-1.714 -0.717,-1.047 -2.229,-3.086 -2.229,-3.086" />

	<path
   id="path4003"
   fill="none"
   stroke="#000000"
   stroke-width="1.7916"
   stroke-linecap="round"
   d="m 667.623,949.842 c 0,0 -0.428,-1.066 -0.514,-1.629 -0.261,-1.694 -0.061,-3.43 0,-5.143 0.1,-2.806 0.36,-5.603 0.6,-8.4 0.123,-1.431 0.256,-2.861 0.429,-4.286 0.17,-1.404 0.38,-2.803 0.6,-4.2 0.262,-1.661 0.56,-3.316 0.857,-4.972 0.303,-1.688 0.943,-5.057 0.943,-5.057" />

	<path
   id="path4005"
   fill="none"
   stroke="#000000"
   stroke-width="1.7916"
   stroke-linecap="round"
   d="m 668.652,926.527 c 0,0 0.94,-1.282 1.457,-1.886 0.486,-0.568 0.904,-1.241 1.543,-1.629 0.356,-0.216 0.808,-0.203 1.2,-0.343 0.615,-0.219 1.276,-0.382 1.8,-0.771 0.749,-0.556 1.296,-1.358 1.8,-2.143 0.649,-1.011 1.058,-2.158 1.543,-3.257 0.548,-1.243 1.218,-2.453 1.543,-3.772 0.288,-1.17 0.243,-2.399 0.343,-3.6 0.066,-0.799 0.047,-1.608 0.171,-2.4 0.205,-1.308 0.785,-2.543 0.943,-3.857 0.147,-1.22 0.025,-2.458 0,-3.686 -0.014,-0.715 0.092,-1.451 -0.086,-2.143 -0.175,-0.681 -0.943,-1.886 -0.943,-1.886" />

	<path
   id="path4007"
   fill="none"
   stroke="#000000"
   stroke-width="1.7916"
   stroke-linecap="round"
   d="m 655.537,922.241 c 2.175,-0.653 4.219,-1.682 6.343,-2.486 2.418,-0.915 5.004,-1.442 7.286,-2.657 1.029,-0.548 2.066,-1.176 2.829,-2.057 1.564,-1.807 2.401,-4.147 3.343,-6.343 1.022,-2.383 1.853,-4.857 2.486,-7.372 0.46,-1.827 -0.064,-3.98 0.943,-5.572 0.186,-0.295 0.508,-0.604 0.857,-0.6 0.531,0.005 1.286,0.943 1.286,0.943 0,0 0.3,-0.493 0.343,-0.771 0.232,-1.506 -0.365,-3.026 -0.514,-4.543 -0.269,-2.739 -0.634,-5.477 -0.686,-8.229 -0.058,-3.117 0.921,-6.265 0.429,-9.343 -0.483,-3.018 -1.903,-5.832 -3.257,-8.572 -1.49,-3.014 -3.15,-6 -5.315,-8.572 -1.772,-2.106 -3.823,-4.05 -6.172,-5.486 -2.825,-1.727 -6.01,-2.954 -9.258,-3.6 -2.579,-0.513 -5.26,-0.036 -7.886,-0.171 -2.806,-0.145 -5.592,-0.629 -8.4,-0.686 -2.802,-0.057 -5.61,0.083 -8.4,0.343 -2.76,0.257 -5.615,0.278 -8.229,1.2 -2.754,0.972 -5.235,2.668 -7.543,4.457 -1.788,1.387 -3.2,3.2 -4.8,4.8 -1.943,1.943 -4.351,3.512 -5.829,5.829 -1.702,2.667 -2.543,5.833 -3.257,8.915 -0.493,2.127 -0.507,4.338 -0.686,6.515 -0.159,1.94 -0.42,3.884 -0.343,5.829 0.082,2.075 0.579,4.113 0.857,6.172 0.294,2.17 0.488,4.356 0.857,6.515 0.187,1.094 0.686,3.257 0.686,3.257 0,0 0.625,-1.319 1.2,-1.714 0.388,-0.267 0.955,-0.564 1.372,-0.343 0.591,0.314 0.522,1.237 0.686,1.886 0.383,1.512 0.268,3.126 0.686,4.629 0.398,1.432 0.946,2.843 1.714,4.114 1.343,2.223 3.319,3.997 4.972,6 1.318,1.597 2.267,3.584 3.943,4.8 2.036,1.477 4.587,2.139 7.029,2.743 2.959,0.732 6.043,0.857 9.086,1.029 3.423,0.193 6.857,0 10.286,0 2.343,0 4.699,0.245 7.029,0 1.364,-0.145 2.712,-0.464 4.027,-0.859 z" />

	<path
   id="path4009"
   fill="none"
   stroke="#000000"
   stroke-width="1.7916"
   stroke-linecap="round"
   d="m 603.592,899.868 c 0,0 -0.121,1.086 -0.086,1.629 0.051,0.783 0.201,1.563 0.429,2.314 0.315,1.041 0.908,1.98 1.286,3 0.364,0.983 0.707,1.979 0.943,3 0.26,1.126 0.326,2.288 0.514,3.429 0.184,1.117 0.295,2.253 0.6,3.343 0.321,1.15 0.804,2.251 1.286,3.343 0.49,1.111 0.801,2.369 1.629,3.257 0.611,0.656 1.487,1.026 2.314,1.372 0.627,0.261 1.306,0.38 1.971,0.514 0.396,0.08 0.842,-0.016 1.2,0.171 0.448,0.235 0.736,0.702 1.029,1.114 0.318,0.449 0.771,1.457 0.771,1.457" />

	<path
   id="path4011"
   fill="none"
   stroke="#000000"
   stroke-width="1.7916"
   stroke-linecap="round"
   d="m 616.364,920.869 c 0,0 0.852,2.901 1.2,4.372 0.403,1.701 0.754,3.416 1.029,5.143 0.457,2.87 0.661,5.775 1.029,8.657 0.321,2.517 0.823,5.014 1.029,7.543 0.086,1.054 0.154,2.116 0.086,3.172 -0.036,0.549 -0.257,1.629 -0.257,1.629" />

	<path
   id="path4013"
   fill="none"
   stroke="#000000"
   stroke-width="1.7916"
   stroke-linecap="round"
   d="m 613.364,924.812 c 0,0 0.334,1.018 0.429,1.543 0.239,1.326 0.08,2.707 0.343,4.029 0.258,1.294 0.682,2.558 1.2,3.772 0.563,1.317 1.264,2.579 2.057,3.772 0.405,0.609 0.994,1.087 1.371,1.714 0.594,0.987 1.372,3.172 1.372,3.172" />

	<path
   id="path4015"
   fill="none"
   stroke="#000000"
   stroke-width="1.7916"
   stroke-linecap="round"
   d="m 622.364,946.156 c 0,0 -0.616,2.196 -1.029,3.257 -0.343,0.881 -0.584,1.854 -1.2,2.572 -1.007,1.172 -2.518,1.801 -3.857,2.572 -1.462,0.841 -3.027,1.489 -4.543,2.229 -1.998,0.975 -4.006,1.931 -6,2.914 -1.605,0.791 -3.172,1.66 -4.8,2.4 -2.671,1.214 -5.423,2.244 -8.143,3.343 -2.224,0.898 -4.483,1.708 -6.686,2.657 -2.489,1.072 -4.862,2.406 -7.372,3.429 -1.675,0.682 -3.4,1.232 -5.117,1.801 -2.069,0.685 -4.177,1.247 -6.243,1.94 -1.751,0.587 -3.549,1.077 -5.213,1.879 -1.005,0.485 -1.956,1.089 -2.849,1.758 -0.87,0.652 -1.632,1.438 -2.424,2.182 -0.969,0.909 -1.968,1.794 -2.849,2.788 -0.793,0.895 -1.591,1.809 -2.182,2.849 -0.538,0.946 -0.862,2.001 -1.212,3.031 -0.311,0.914 -0.571,1.847 -0.788,2.788 -0.258,1.12 -0.46,2.254 -0.606,3.394 -0.131,1.026 -0.164,2.066 -0.242,3.086 -0.166,2.17 -0.301,4.33 -0.485,6.49 -0.108,1.27 -0.239,2.55 -0.364,3.82 -0.137,1.39 -0.345,2.78 -0.424,4.18 -0.098,1.74 -0.132,3.48 -0.061,5.21 0.053,1.3 0.208,2.59 0.364,3.88 0.182,1.5 0.416,3 0.667,4.49 0.272,1.62 0.63,3.23 0.909,4.85 0.243,1.41 0.533,2.81 0.667,4.24 0.121,1.29 0.129,2.59 0.121,3.88 -0.009,1.42 -0.115,2.83 -0.182,4.24 -0.074,1.58 -0.143,3.16 -0.242,4.73 -0.12,1.9 -0.24,3.8 -0.424,5.7 -0.148,1.52 -0.435,3.02 -0.546,4.54 -0.113,1.56 -0.094,3.12 -0.121,4.67 -0.039,2.22 -0.019,4.45 -0.061,6.67 -0.04,2.12 -0.054,4.24 -0.182,6.36 -0.079,1.32 -0.21,2.63 -0.364,3.94 -0.233,1.99 -0.569,3.96 -0.849,5.94 -0.245,1.74 -0.426,3.49 -0.727,5.21 -0.372,2.14 -0.806,4.27 -1.333,6.37 -0.63,2.51 -1.335,5.01 -2.182,7.45 -0.834,2.41 -1.909,4.73 -2.849,7.1 -0.776,1.95 -1.591,3.9 -2.303,5.88 -0.504,1.4 -0.961,2.81 -1.394,4.24 -0.61,2.01 -1.239,4.01 -1.697,6.06 -0.371,1.66 -0.61,3.35 -0.849,5.03 -0.248,1.75 -0.433,3.51 -0.606,5.27 -0.243,2.48 -0.372,4.98 -0.606,7.46 -0.178,1.88 -0.468,3.75 -0.606,5.63 -0.19,2.61 -0.211,5.22 -0.303,7.82 -0.068,1.92 -0.144,3.84 -0.182,5.76 -0.053,2.73 -0.031,5.46 -0.061,8.18 -0.016,1.44 0.047,2.88 -0.061,4.31 -0.078,1.03 -0.276,2.06 -0.424,3.09 -0.174,1.21 -0.34,2.43 -0.546,3.64 -0.307,1.8 -0.657,3.6 -1.03,5.39 -0.468,2.25 -0.93,4.5 -1.515,6.73 -0.285,1.08 -0.685,2.13 -0.97,3.21 -0.258,0.98 -0.41,1.99 -0.667,2.97 -0.41,1.57 -0.956,3.1 -1.394,4.67 -0.366,1.3 -0.66,2.63 -1.03,3.94 -0.207,0.73 -0.515,1.43 -0.667,2.18 -0.154,0.75 -0.171,1.53 -0.242,2.3 -0.07,0.75 -0.132,1.5 -0.182,2.24 -0.026,0.39 0.053,0.79 -0.061,1.16 -0.126,0.4 -0.399,0.76 -0.667,1.09 -0.403,0.5 -0.934,0.88 -1.394,1.33 -0.858,0.84 -1.635,1.76 -2.546,2.55 -0.856,0.73 -1.801,1.35 -2.727,2 -1.846,1.28 -3.621,2.7 -5.637,3.69 -0.441,0.22 -0.943,0.29 -1.394,0.49 -0.879,0.38 -1.689,0.9 -2.546,1.33 -0.801,0.4 -1.718,0.6 -2.424,1.15 -0.499,0.39 -0.864,0.93 -1.212,1.46 -0.414,0.62 -0.737,1.31 -1.03,2 -0.442,1.04 -0.609,2.19 -1.091,3.21 -0.344,0.73 -0.841,1.38 -1.273,2.06 -0.437,0.69 -0.928,1.35 -1.333,2.06 -0.314,0.55 -0.528,1.16 -0.849,1.7 -0.236,0.4 -0.579,0.74 -0.788,1.15 -0.364,0.73 -0.568,1.52 -0.788,2.31 -0.151,0.53 -0.181,1.1 -0.364,1.63 -0.198,0.57 -0.627,1.05 -0.788,1.64 -0.06,0.21 -0.061,0.66 -0.061,0.66" />

	<path
   id="path4017"
   fill="none"
   stroke="#000000"
   stroke-width="1.7916"
   stroke-linecap="round"
   d="m 796.425,1272.145 c 0,0 -0.883,-0.3 -1.152,-0.49 -0.344,-0.23 -0.701,-0.46 -0.97,-0.78 -0.239,-0.29 -0.452,-0.62 -0.545,-0.97 -0.082,-0.32 -0.094,-0.66 0,-0.97 0.042,-0.14 0.103,-0.33 0.242,-0.37 0.148,-0.04 0.424,0.18 0.424,0.18" />

	<path
   id="path4019"
   fill="none"
   stroke="#000000"
   stroke-width="1.7916"
   stroke-linecap="round"
   d="m 494.095,1253.595 c -0.201,-0.02 -0.349,0.22 -0.485,0.37 -0.839,0.92 -2.212,1.99 -1.94,3.21 0.016,0.07 0.114,0.09 0.182,0.12 0.229,0.09 0.483,0.14 0.727,0.12 0.344,-0.03 0.693,-0.16 0.97,-0.36 0.347,-0.26 0.598,-0.65 0.788,-1.03 0.175,-0.36 0.294,-0.76 0.303,-1.16 0.007,-0.29 -0.053,-0.59 -0.182,-0.85 -0.082,-0.16 -0.178,-0.4 -0.363,-0.42 z" />

	<path
   id="path4021"
   fill="none"
   stroke="#000000"
   stroke-width="1.7916"
   stroke-linecap="round"
   d="m 491.428,1257.175 c 0,0 -0.401,0.53 -0.485,0.85 -0.073,0.27 -0.07,0.57 0,0.85 0.062,0.24 0.166,0.51 0.364,0.66 0.345,0.28 0.834,0.32 1.273,0.37 0.524,0.05 1.065,0 1.576,-0.12 0.685,-0.17 1.293,-0.57 1.94,-0.85 1.011,-0.45 2.128,-0.7 3.031,-1.34 0.456,-0.32 0.806,-0.77 1.152,-1.21 0.389,-0.49 0.723,-1.03 1.03,-1.57 0.483,-0.86 0.848,-1.78 1.273,-2.67 0.242,-0.51 0.513,-1 0.727,-1.52 0.14,-0.33 0.186,-0.71 0.364,-1.03 0.204,-0.36 0.521,-0.65 0.788,-0.97 0.597,-0.71 1.248,-1.38 1.818,-2.12 0.302,-0.39 0.45,-0.92 0.849,-1.21 0.222,-0.16 0.516,-0.2 0.788,-0.24 0.16,-0.03 0.485,0 0.485,0" />

	<path
   id="path4023"
   fill="none"
   stroke="#000000"
   stroke-width="1.7916"
   stroke-linecap="round"
   d="m 506.46,1240.925 c 0,0 1.042,1.65 1.394,2.55 0.243,0.62 0.355,1.29 0.485,1.94 0.107,0.54 0.181,1.09 0.242,1.64 0.088,0.78 0.202,1.57 0.182,2.36 -0.02,0.79 -0.156,1.58 -0.303,2.36 -0.154,0.82 -0.474,1.61 -0.606,2.43 -0.132,0.82 -0.161,1.65 -0.182,2.48 -0.024,0.93 0.188,1.87 0.061,2.79 -0.104,0.75 -0.438,1.46 -0.667,2.18 -0.294,0.93 -0.599,1.86 -0.909,2.79 -0.257,0.77 -0.464,1.56 -0.788,2.3 -0.256,0.59 -0.716,1.09 -0.909,1.7 -0.202,0.64 -0.179,1.33 -0.242,2 -0.083,0.87 -0.034,1.75 -0.182,2.61 -0.128,0.74 -0.407,1.45 -0.606,2.18 -0.226,0.83 -0.487,1.65 -0.667,2.48 -0.159,0.74 -0.291,1.49 -0.364,2.25 -0.06,0.62 -0.05,1.25 -0.061,1.88 -0.01,0.6 -0.012,1.21 0,1.81 0.01,0.49 -0.066,0.99 0.061,1.46 0.102,0.37 0.335,0.7 0.546,1.03 0.179,0.28 0.326,0.61 0.606,0.79 0.332,0.21 0.762,0.19 1.152,0.24 0.461,0.06 0.935,0.13 1.394,0.06 0.385,-0.06 0.769,-0.2 1.091,-0.42 0.295,-0.2 0.522,-0.5 0.727,-0.79 0.379,-0.54 0.701,-1.13 0.909,-1.76 0.194,-0.58 0.191,-1.21 0.303,-1.82 0.165,-0.89 0.347,-1.78 0.546,-2.67 0.205,-0.91 0.415,-1.82 0.667,-2.72 0.29,-1.04 0.58,-2.09 0.97,-3.09 0.329,-0.86 0.784,-1.65 1.152,-2.49 0.212,-0.48 0.449,-0.95 0.606,-1.45 0.173,-0.56 0.249,-1.13 0.364,-1.7 0.215,-1.07 0.463,-2.13 0.606,-3.21 0.069,-0.53 -0.156,-1.13 0.121,-1.58 0.124,-0.2 0.383,-0.29 0.606,-0.36 0.154,-0.06 0.338,-0.14 0.485,-0.06 0.106,0.05 0.14,0.19 0.182,0.3 0.08,0.21 0.131,0.44 0.121,0.66 -0.02,0.46 -0.236,0.9 -0.364,1.34 -0.193,0.67 -0.412,1.33 -0.606,2 -0.169,0.58 -0.323,1.17 -0.485,1.76 -0.101,0.36 -0.153,0.74 -0.303,1.09 -0.216,0.5 -0.645,0.89 -0.849,1.39 -0.209,0.52 -0.257,1.09 -0.364,1.64 -0.094,0.48 -0.194,0.96 -0.242,1.45 -0.062,0.63 0.002,1.26 -0.061,1.88 -0.084,0.84 -0.202,1.68 -0.424,2.49 -0.224,0.81 -0.666,1.55 -0.909,2.36 -0.244,0.81 -0.391,1.65 -0.546,2.49 -0.172,0.92 -0.317,1.85 -0.424,2.78 -0.09,0.79 -0.162,1.58 -0.182,2.37 -0.019,0.75 -0.219,1.55 0.061,2.24 0.235,0.58 0.749,1.05 1.273,1.39 0.447,0.3 0.982,0.49 1.515,0.55 0.525,0.06 1.082,0.01 1.576,-0.18 0.393,-0.15 0.733,-0.43 1.03,-0.73 0.297,-0.3 0.57,-0.64 0.727,-1.03 0.199,-0.49 0.154,-1.05 0.242,-1.58 0.093,-0.54 0.185,-1.09 0.303,-1.63 0.106,-0.49 0.277,-0.96 0.364,-1.46 0.067,-0.38 0.054,-0.77 0.121,-1.15 0.289,-1.62 0.759,-3.21 1.212,-4.79 0.31,-1.08 0.647,-2.15 1.03,-3.21 0.312,-0.86 0.755,-1.67 1.03,-2.54 0.243,-0.78 0.404,-1.57 0.546,-2.37 0.171,-0.96 0.246,-1.94 0.364,-2.91 0.083,-0.69 0.131,-1.38 0.242,-2.06 0.08,-0.49 -0.007,-1.07 0.303,-1.45 0.153,-0.2 0.436,-0.23 0.667,-0.31 0.334,-0.11 0.678,-0.23 1.03,-0.24 0.329,-0.01 0.707,-0.02 0.97,0.18 0.252,0.19 0.377,0.54 0.424,0.85 0.073,0.49 -0.139,0.98 -0.242,1.46 -0.132,0.61 -0.285,1.22 -0.485,1.81 -0.153,0.46 -0.437,0.87 -0.546,1.34 -0.133,0.57 -0.086,1.17 -0.121,1.75 -0.023,0.39 -0.066,0.77 -0.061,1.16 0.007,0.48 0.085,0.97 0.121,1.45 0.046,0.63 0.155,1.25 0.121,1.88 -0.032,0.6 -0.214,1.17 -0.303,1.76 -0.164,1.09 -0.243,2.19 -0.424,3.27 -0.149,0.9 -0.376,1.78 -0.546,2.67 -0.196,1.03 -0.407,2.05 -0.546,3.09 -0.059,0.44 -0.115,0.89 -0.121,1.33 -0.005,0.33 -0.024,0.66 0.061,0.97 0.082,0.31 0.239,0.6 0.424,0.85 0.15,0.21 0.326,0.41 0.546,0.55 0.29,0.17 0.652,0.19 0.97,0.3 0.247,0.09 0.47,0.25 0.727,0.3 0.297,0.06 0.607,0.03 0.909,0 0.265,-0.02 0.543,-0.01 0.788,-0.12 0.372,-0.15 0.696,-0.43 0.97,-0.72 0.308,-0.34 0.564,-0.73 0.727,-1.15 0.213,-0.56 0.201,-1.18 0.303,-1.76 0.12,-0.69 0.214,-1.38 0.364,-2.06 0.221,-1 0.58,-1.97 0.788,-2.97 0.137,-0.66 0.186,-1.34 0.303,-2 0.16,-0.92 0.454,-1.81 0.546,-2.73 0.046,-0.46 -0.048,-0.93 0,-1.4 0.091,-0.88 0.341,-1.74 0.546,-2.6 0.164,-0.69 0.446,-1.36 0.545,-2.06 0.125,-0.88 0.089,-1.78 0.061,-2.67 -0.037,-1.18 -0.293,-2.34 -0.303,-3.52 -0.005,-0.58 -0.191,-1.26 0.121,-1.75 0.173,-0.28 0.547,-0.36 0.849,-0.49 0.29,-0.12 0.597,-0.21 0.909,-0.24 0.342,-0.04 0.736,-0.12 1.03,0.06 0.302,0.18 0.451,0.57 0.546,0.91 0.081,0.29 0.007,0.61 0,0.91 -0.01,0.48 -0.135,0.97 -0.061,1.45 0.072,0.47 0.291,0.91 0.485,1.34 0.226,0.5 0.626,0.92 0.788,1.45 0.119,0.39 0.091,0.81 0.121,1.21 0.063,0.85 0.048,1.7 0.121,2.55 0.07,0.81 0.234,1.61 0.303,2.42 0.074,0.87 0.032,1.74 0.121,2.61 0.065,0.63 0.146,1.26 0.303,1.88 0.09,0.35 0.128,0.75 0.364,1.03 0.298,0.35 0.781,0.5 1.212,0.67 0.349,0.13 0.722,0.29 1.091,0.24 0.457,-0.07 0.866,-0.36 1.212,-0.67 0.282,-0.25 0.507,-0.57 0.667,-0.91 0.283,-0.6 0.329,-1.29 0.485,-1.94 0.189,-0.78 0.466,-1.56 0.546,-2.36 0.065,-0.67 -0.029,-1.33 -0.061,-2 -0.045,-0.95 -0.068,-1.91 -0.182,-2.85 -0.069,-0.57 -0.239,-1.13 -0.303,-1.7 -0.143,-1.26 -0.001,-2.55 -0.182,-3.82 -0.085,-0.59 -0.294,-1.16 -0.424,-1.75 -0.155,-0.71 -0.334,-1.41 -0.424,-2.12 -0.096,-0.77 -0.136,-1.54 -0.121,-2.31 0.012,-0.67 0.07,-1.34 0.182,-2 0.195,-1.15 0.567,-2.26 0.848,-3.39 0.366,-1.48 0.706,-2.96 1.091,-4.43 0.536,-2.05 1.186,-4.06 1.697,-6.12 0.385,-1.54 0.684,-3.11 1.03,-4.67 0.18,-0.8 0.43,-1.6 0.545,-2.42 0.146,-1.04 0.151,-2.1 0.182,-3.15 0.052,-1.8 -0.047,-3.6 0,-5.4 0.02,-0.77 0.02,-1.54 0.121,-2.3 0.076,-0.57 0.213,-1.14 0.364,-1.7 0.237,-0.88 0.565,-1.73 0.849,-2.6 0.423,-1.3 0.863,-2.58 1.273,-3.88 0.419,-1.33 0.794,-2.67 1.212,-4 0.293,-0.93 0.606,-1.86 0.909,-2.79 0.746,-2.28 1.587,-4.54 2.243,-6.85 0.895,-3.16 1.519,-6.39 2.303,-9.57 0.772,-3.14 1.526,-6.28 2.364,-9.4 0.687,-2.56 1.438,-5.1 2.182,-7.64 1.345,-4.59 2.609,-9.21 4.122,-13.76 1,-3 2.168,-5.94 3.273,-8.91 1.018,-2.73 2.184,-5.41 3.091,-8.18 0.633,-1.93 1.154,-3.9 1.637,-5.88 0.279,-1.14 0.519,-2.29 0.727,-3.45 0.242,-1.35 0.395,-2.71 0.606,-4.06 0.155,-0.99 0.245,-2 0.485,-2.97 0.199,-0.81 0.655,-1.55 0.788,-2.37 0.107,-0.66 -0.016,-1.33 0,-2 0.02,-0.85 0.048,-1.7 0.121,-2.54 0.07,-0.81 0.208,-1.62 0.303,-2.43 0.064,-0.54 0.199,-1.09 0.182,-1.63 -0.026,-0.82 -0.286,-1.62 -0.424,-2.43 -0.104,-0.6 -0.185,-1.21 -0.303,-1.82 -0.124,-0.63 -0.327,-1.24 -0.424,-1.88 -0.113,-0.74 -0.175,-1.49 -0.182,-2.24 -0.012,-1.3 0.105,-2.59 0.242,-3.88 0.201,-1.89 0.546,-3.76 0.849,-5.64 0.379,-2.34 0.774,-4.69 1.212,-7.03 0.3,-1.6 0.717,-3.18 0.97,-4.78 0.449,-2.86 0.649,-5.74 0.97,-8.61 0.264,-2.37 0.527,-4.73 0.788,-7.09 0.223,-2.02 0.528,-4.04 0.667,-6.06 0.101,-1.48 0.121,-4.43 0.121,-4.43" />

	<path
   id="path4025"
   fill="none"
   stroke="#000000"
   stroke-width="1.7916"
   stroke-linecap="round"
   d="m 566.829,1010.365 c 0,0 0.662,2.94 0.97,4.42 0.319,1.54 0.625,3.07 0.909,4.61 0.216,1.17 0.341,2.36 0.606,3.52 0.164,0.71 0.368,1.42 0.606,2.12 0.317,0.92 0.724,1.82 1.091,2.72 0.5,1.24 1.09,2.44 1.515,3.7 0.374,1.11 0.602,2.27 0.909,3.39 0.418,1.54 0.859,3.07 1.273,4.61 0.705,2.62 1.522,5.22 2.061,7.88 0.364,1.8 0.492,3.64 0.788,5.46 0.364,2.22 0.818,4.44 1.212,6.66 0.311,1.76 0.565,3.53 0.909,5.28 0.271,1.38 0.565,2.75 0.909,4.12 0.38,1.51 0.89,2.98 1.273,4.48 0.408,1.61 0.837,3.21 1.091,4.85 0.252,1.62 0.3,3.27 0.424,4.91 0.141,1.86 0.239,3.72 0.364,5.58 0.118,1.76 0.137,3.52 0.364,5.27 0.18,1.39 0.542,2.75 0.788,4.12 0.216,1.21 0.43,2.42 0.606,3.64 0.213,1.47 0.348,2.95 0.546,4.43 0.168,1.25 0.464,2.49 0.545,3.75 0.08,1.25 -0.043,2.51 -0.061,3.76 -0.023,1.62 0.028,3.24 -0.061,4.85 -0.057,1.03 -0.184,2.06 -0.303,3.09 -0.176,1.52 -0.386,3.03 -0.606,4.55 -0.168,1.15 -0.377,2.3 -0.546,3.45 -0.418,2.87 -0.812,5.73 -1.152,8.61 -0.209,1.77 -0.385,3.55 -0.546,5.33 -0.14,1.56 -0.263,3.11 -0.364,4.67 -0.101,1.56 -0.234,3.11 -0.242,4.67 -0.005,0.99 0.06,1.98 0.121,2.97 0.06,0.97 0.135,1.94 0.242,2.91 0.13,1.17 0.3,2.34 0.485,3.51 0.09,0.57 0.265,1.13 0.303,1.7 0.031,0.46 -0.061,1.39 -0.061,1.39" />

	<path
   id="path4027"
   fill="none"
   stroke="#000000"
   stroke-width="1.7916"
   stroke-linecap="round"
   d="m 584.83,1161.405 c 0,0 -0.204,1.42 -0.364,2.12 -0.131,0.58 -0.298,1.14 -0.485,1.7 -0.303,0.9 -0.745,1.76 -1.03,2.67 -0.46,1.47 -0.827,2.97 -1.091,4.48 -0.23,1.32 -0.27,2.67 -0.424,4 -0.15,1.3 -0.243,2.6 -0.485,3.88 -0.274,1.46 -0.737,2.87 -1.091,4.3 -0.353,1.44 -0.675,2.88 -1.03,4.31 -0.372,1.5 -0.768,2.99 -1.152,4.48 -0.425,1.66 -0.907,3.3 -1.273,4.97 -0.361,1.65 -0.66,3.31 -0.909,4.97 -0.259,1.73 -0.408,3.48 -0.606,5.22 -0.248,2.18 -0.508,4.36 -0.727,6.54 -0.158,1.58 -0.277,3.15 -0.424,4.73 -0.194,2.08 -0.368,4.17 -0.606,6.24 -0.193,1.68 -0.392,3.36 -0.667,5.03 -0.374,2.28 -0.943,4.52 -1.333,6.79 -0.328,1.91 -0.615,3.83 -0.849,5.76 -0.333,2.74 -0.632,5.49 -0.788,8.24 -0.129,2.28 -0.082,4.57 -0.121,6.85 -0.021,1.21 -0.041,2.43 -0.061,3.64 -0.041,2.48 -0.173,4.97 -0.121,7.45 0.044,2.09 0.238,4.17 0.364,6.25 0.098,1.61 0.226,3.23 0.303,4.85 0.175,3.67 0.175,7.35 0.364,11.03 0.104,2.02 0.266,4.04 0.424,6.06 0.146,1.86 0.329,3.71 0.485,5.57 0.272,3.23 0.441,6.48 0.788,9.7 0.309,2.88 0.743,5.74 1.152,8.61 0.248,1.74 0.521,3.47 0.788,5.21 0.497,3.23 0.99,6.47 1.515,9.7 0.408,2.51 0.856,5.01 1.273,7.51 0.37,2.23 0.802,4.44 1.091,6.67 0.164,1.27 0.262,2.55 0.364,3.82 0.125,1.57 0.228,3.15 0.303,4.73 0.092,1.94 0.143,3.88 0.182,5.82 0.044,2.2 0.061,4.4 0.061,6.61 -10e-4,2.08 -0.025,4.16 -0.061,6.24 -0.042,2.48 -0.107,4.97 -0.182,7.45 -0.085,2.81 -0.253,5.62 -0.303,8.43 -0.022,1.21 -0.042,2.42 0,3.64 0.071,2.04 0.422,4.07 0.424,6.12 0.002,1.52 -0.147,3.03 -0.303,4.54 -0.149,1.44 -0.32,2.89 -0.606,4.31 -0.313,1.55 -0.806,3.07 -1.212,4.6 -0.241,0.91 -0.502,1.82 -0.727,2.73 -0.219,0.89 -0.432,1.77 -0.606,2.67 -0.384,1.97 -0.565,3.97 -0.97,5.94 -0.353,1.71 -0.897,3.38 -1.273,5.09 -0.371,1.69 -0.65,3.39 -0.97,5.09 -0.388,2.06 -1.152,5.88 -1.152,6.18 0,0.3 -0.447,3.03 -0.606,4.55 -0.194,1.85 -0.303,3.71 -0.424,5.57 -0.17,2.63 -0.433,5.25 -0.424,7.88 0.005,1.68 0.243,3.35 0.303,5.03 0.065,1.84 -0.007,3.68 0.061,5.52 0.059,1.6 0.135,3.2 0.303,4.79 0.275,2.6 0.871,5.16 1.152,7.76 0.192,1.77 0.098,3.57 0.364,5.33 0.276,1.83 0.872,3.59 1.273,5.39 0.686,3.09 1.26,6.19 1.94,9.28 0.674,3.06 1.388,6.11 2.121,9.15 0.624,2.59 1.267,5.18 1.94,7.76 0.739,2.83 1.604,5.64 2.303,8.48 0.583,2.37 1.058,4.77 1.576,7.16 0.43,1.97 0.874,3.95 1.273,5.94 0.474,2.35 0.95,4.71 1.333,7.09 0.289,1.79 0.568,3.59 0.727,5.39 0.085,0.97 0.133,1.94 0.121,2.91 -0.012,0.91 -0.089,1.82 -0.182,2.73 -0.165,1.6 -0.431,3.19 -0.667,4.79 -0.191,1.29 -0.416,2.58 -0.606,3.88 -0.172,1.17 -0.363,2.34 -0.485,3.51 -0.121,1.17 -0.242,2.34 -0.242,3.52 0,0.59 0.065,1.17 0.121,1.76 0.047,0.48 0.037,0.98 0.182,1.45 0.195,0.63 0.597,1.18 0.909,1.76 0.373,0.69 0.778,1.37 1.152,2.06 0.249,0.46 0.727,1.39 0.727,1.39" />

	<path
   id="path4029"
   fill="none"
   stroke="#000000"
   stroke-width="1.7916"
   stroke-linecap="round"
   d="m 581.906,1402.605 c 0,0 3.371,-5.7 4.629,-8.74 1.571,-3.82 2.791,-7.79 3.6,-11.83 0.451,-2.26 0.686,-6.86 0.686,-6.86" />

	<path
   id="path4031"
   fill="none"
   stroke="#000000"
   stroke-width="1.7916"
   stroke-linecap="round"
   d="m 616.021,1391.805 -3.257,17.66" />

	<path
   id="path4033"
   fill="none"
   stroke="#000000"
   stroke-width="1.7916"
   stroke-linecap="round"
   d="m 583.877,1580.724 c 0,0 -0.208,0.75 -0.343,1.11 -0.174,0.47 -0.367,0.93 -0.6,1.38 -0.252,0.47 -0.454,1.01 -0.857,1.37 -0.401,0.35 -0.976,0.44 -1.457,0.68 -0.779,0.39 -1.527,0.84 -2.314,1.2 -0.673,0.32 -1.321,0.76 -2.057,0.86 -0.228,0.03 -0.455,-0.09 -0.686,-0.09 -0.489,0 -1,0 -1.457,0.17 -0.555,0.22 -1.062,0.59 -1.457,1.03 -0.238,0.27 -0.329,0.64 -0.514,0.95 -0.266,0.44 -0.631,0.82 -0.857,1.28 -0.318,0.65 -0.507,1.36 -0.686,2.06 -0.2,0.79 -0.4,1.59 -0.429,2.4 -0.028,0.8 0.025,1.63 0.257,2.4 0.233,0.77 0.522,1.6 1.114,2.14 0.433,0.4 1.12,0.39 1.629,0.69 0.843,0.49 1.524,1.22 2.314,1.8 0.866,0.63 1.759,1.22 2.657,1.8 0.733,0.47 1.471,0.94 2.229,1.37 0.477,0.27 1.457,0.77 1.457,0.77" />

	<path
   id="path4035"
   fill="none"
   stroke="#000000"
   stroke-width="1.7916"
   stroke-linecap="round"
   d="m 581.649,1603.954 c 0,0 -0.056,1.39 0.086,2.06 0.177,0.84 0.567,1.62 0.943,2.4 0.493,1.01 0.947,2.09 1.714,2.91 0.686,0.74 1.597,1.24 2.486,1.71 1.246,0.67 2.573,1.21 3.943,1.55 1.451,0.36 2.962,0.47 4.457,0.51 1.545,0.05 3.091,-0.11 4.629,-0.26 1.637,-0.16 3.313,-0.2 4.886,-0.68 1.125,-0.35 2.275,-0.78 3.172,-1.54 0.641,-0.55 1.102,-1.3 1.457,-2.06 0.287,-0.62 0.464,-1.3 0.514,-1.97 0.06,-0.81 -0.163,-1.6 -0.257,-2.4 -0.105,-0.89 -0.235,-1.77 -0.343,-2.66 -0.091,-0.74 -0.206,-1.48 -0.257,-2.23 -0.09,-1.31 0.014,-2.63 -0.086,-3.94 -0.05,-0.66 -0.134,-1.32 -0.257,-1.97 -0.263,-1.39 -0.66,-2.75 -1.029,-4.12 -0.24,-0.89 -0.445,-1.79 -0.771,-2.66 -0.379,-1 -1.059,-1.88 -1.372,-2.91 -0.497,-1.63 -0.628,-3.36 -0.771,-5.06 -0.137,-1.62 -0.086,-4.88 -0.086,-4.88" />

	<path
   id="path4037"
   fill="none"
   stroke="#000000"
   stroke-width="1.7916"
   stroke-linecap="round"
   d="m 597.506,1571.635 c 0,0 0.415,2.91 0.429,4.37 0.021,2.18 -0.279,4.35 -0.514,6.52 -0.202,1.86 -0.23,3.78 -0.771,5.57 -0.476,1.58 -1.423,2.98 -2.143,4.46 -0.653,1.34 -1.515,2.6 -1.972,4.03 -0.424,1.32 -0.686,4.11 -0.686,4.11" />

	<path
   id="path4039"
   fill="none"
   stroke="#000000"
   stroke-width="1.7916"
   stroke-linecap="round"
   d="m 608.907,1599.495 c 0,0 0.639,-1.76 1.114,-2.57 0.404,-0.68 1.059,-1.2 1.457,-1.89 0.45,-0.77 0.82,-1.61 1.029,-2.48 0.173,-0.73 0.198,-1.49 0.171,-2.23 -0.021,-0.58 -0.173,-1.14 -0.257,-1.71 -0.058,-0.4 -0.056,-0.82 -0.171,-1.2 -0.135,-0.46 -0.6,-1.29 -0.6,-1.29" />

	<path
   id="path4041"
   fill="none"
   stroke="#000000"
   stroke-width="1.7916"
   stroke-linecap="round"
   d="m 610.964,1590.925 c 0,0 0.376,-2.75 0.6,-4.11 0.206,-1.27 0.492,-2.51 0.686,-3.78 0.244,-1.59 0.275,-3.22 0.6,-4.8 0.228,-1.1 0.613,-2.17 0.943,-3.25 0.245,-0.81 0.505,-1.61 0.771,-2.4 0.221,-0.66 0.57,-1.29 0.686,-1.97 0.109,-0.65 0.095,-1.33 0,-1.98 -0.217,-1.47 -0.884,-2.85 -1.286,-4.28 -0.398,-1.42 -0.617,-2.9 -1.114,-4.29 -0.551,-1.54 -1.499,-2.92 -2.057,-4.45 -0.485,-1.34 -0.815,-2.73 -1.114,-4.12 -0.378,-1.75 -0.702,-3.53 -0.857,-5.31 -0.181,-2.08 -0.071,-4.18 -0.086,-6.26 -0.009,-1.37 -0.145,-2.75 0,-4.12 0.244,-2.29 1,-4.5 1.457,-6.77 0.518,-2.56 1.001,-5.13 1.457,-7.71 0.672,-3.8 1.244,-7.6 1.886,-11.4 0.28,-1.66 0.464,-3.34 0.857,-4.97 0.743,-3.09 1.856,-6.07 2.829,-9.09 1.025,-3.18 2.359,-6.27 3.172,-9.52 0.536,-2.13 0.866,-4.32 1.114,-6.51 0.284,-2.5 0.275,-5.03 0.429,-7.54 0.107,-1.75 0.345,-3.49 0.343,-5.23 -0.004,-2.95 -0.242,-5.9 -0.6,-8.83 -0.278,-2.28 -0.848,-4.51 -1.2,-6.77 -0.265,-1.71 -0.583,-3.42 -0.686,-5.15 -0.12,-2.02 0.005,-4.06 0.086,-6.08 0.069,-1.75 0.112,-3.5 0.343,-5.23 0.266,-2 0.654,-3.98 1.2,-5.92 0.702,-2.48 1.743,-4.86 2.657,-7.28 0.748,-1.98 1.527,-3.95 2.314,-5.92 1.092,-2.72 2.36,-5.38 3.343,-8.14 0.76,-2.14 1.423,-4.31 1.971,-6.52 0.536,-2.14 1.04,-4.31 1.286,-6.51 0.231,-2.07 0.143,-4.17 0.171,-6.26 0.038,-2.74 -0.018,-5.48 0,-8.23 0.029,-4.6 0.143,-9.2 0.171,-13.8 0.028,-4.43 -0.162,-8.86 0,-13.28 0.086,-2.35 0.26,-4.7 0.514,-7.03 0.259,-2.38 0.683,-4.75 1.029,-7.12 0.538,-3.69 1.076,-7.37 1.629,-11.06 0.703,-4.68 1.511,-9.36 2.143,-14.05 0.591,-4.39 0.964,-8.81 1.543,-13.2 0.566,-4.3 1.382,-8.56 1.886,-12.86 0.304,-2.59 0.544,-5.2 0.686,-7.8 0.15,-2.77 0.182,-5.54 0.171,-8.32 -0.007,-2.03 -0.063,-4.06 -0.171,-6.08 -0.097,-1.81 -0.429,-5.4 -0.429,-5.4" />

	<path
   id="path4048"
   fill="none"
   stroke="#000000"
   stroke-width="1.7916"
   stroke-linecap="round"
   d="m 642.594,1264.595 c 0,0 1.345,0.65 2.057,0.86 0.752,0.22 1.53,0.41 2.314,0.43 0.606,0.01 1.204,-0.15 1.8,-0.26 0.518,-0.09 1.543,-0.34 1.543,-0.34" />

	<path
   id="path4051"
   fill="none"
   stroke="#000000"
   stroke-width="1.7916"
   stroke-linecap="round"
   d="m 613.621,1264.945 c 0,0 3.128,0.62 4.714,0.68 1.802,0.07 3.608,-0.14 5.4,-0.34 2.992,-0.34 5.986,-0.76 8.915,-1.46 2.478,-0.59 4.925,-1.35 7.286,-2.31 1.302,-0.53 2.599,-1.11 3.772,-1.89 0.626,-0.41 1.242,-0.87 1.714,-1.46 0.717,-0.88 1.231,-1.93 1.629,-3 0.511,-1.37 0.729,-2.84 0.943,-4.28 0.381,-2.58 0.454,-5.2 0.6,-7.8 0.181,-3.23 0.26,-6.46 0.343,-9.69 0.046,-1.77 0.231,-3.55 0.086,-5.31 -0.052,-0.64 -0.208,-1.26 -0.343,-1.89 -0.075,-0.34 -0.257,-1.03 -0.257,-1.03" />

	<path
   id="path4060"
   fill="none"
   stroke="#000000"
   stroke-width="1.7916"
   stroke-linecap="round"
   d="m 647.394,1254.315 c 0,0 0.364,1.21 0.6,1.8 0.248,0.61 0.439,1.28 0.857,1.8 0.589,0.73 1.425,1.23 2.229,1.71 1.667,1 3.477,1.77 5.314,2.4 1.919,0.66 3.92,1.07 5.915,1.46 2.861,0.55 5.757,0.92 8.657,1.2 2.165,0.2 4.343,0.45 6.515,0.34 1.53,-0.07 4.543,-0.69 4.543,-0.69" />

	<path
   id="path4066"
   fill="none"
   stroke="#000000"
   stroke-width="1.7916"
   stroke-linecap="round"
   d="m 649.108,1227.995 c 0,0 0.571,-1.98 0.686,-3 0.102,-0.91 0,-2.74 0,-2.74" />

	<path
   id="path4073"
   fill="none"
   stroke="#000000"
   stroke-width="1.7916"
   stroke-linecap="round"
   d="m 621.5,1007.815 c 0,0 -4.073,7.91 -6.789,11.4 -3.018,3.87 -10.425,10.42 -10.425,10.42" />

	<path
   id="path4133"
   fill="none"
   stroke="#000000"
   stroke-width="1.7916"
   stroke-linecap="round"
   d="m 654.715,1008.065 c 0,0 4.486,11.33 8.001,16.24 2.795,3.9 10.183,10.18 10.183,10.18" />

	<path
   id="path4135"
   fill="none"
   stroke="#000000"
   stroke-width="1.7916"
   stroke-linecap="round"
   d="m 643.805,1003.215 c 0,0 1.492,20.52 2.182,30.79 0.684,10.18 1.616,20.35 1.94,30.54 0.22,6.95 0,20.86 0,20.86" />

	<path
   id="path4137"
   fill="none"
   stroke="#000000"
   stroke-width="1.7916"
   stroke-linecap="round"
   d="m 648.423,1123.845 -1.372,30.86" />

	<path
   id="path4152"
   fill="none"
   stroke="#000000"
   stroke-width="1.7916"
   stroke-linecap="round"
   d="m 557.252,1110.135 c 0,0 -1.813,5.7 -2.909,8.48 -1.234,3.13 -4.122,9.21 -4.122,9.21" />

	<path
   id="path4154"
   fill="none"
   stroke="#000000"
   stroke-width="1.7916"
   stroke-linecap="round"
   d="m 747.088,1135.585 c 0,0 0.5,-6.66 0,-9.94 -0.409,-2.68 -1.293,-5.29 -2.424,-7.76 -0.637,-1.38 -2.424,-3.88 -2.424,-3.88" />

	<path
   id="path4134"
   fill="none"
   stroke="#000000"
   stroke-width="1.7916"
   d="m 503.066,1284.975 c 0.277,0.4 0.896,0.39 1.366,0.51 0.353,0.09 0.721,0.11 1.082,0.17 0.512,0.08 1.108,0.52 1.537,0.23 0.274,-0.19 0.172,-0.64 0.228,-0.97 0.09,-0.53 0.173,-1.06 0.171,-1.59 -0.002,-0.33 -0.039,-0.66 -0.114,-0.97 -0.051,-0.22 -0.075,-0.47 -0.228,-0.63 -0.099,-0.1 -0.264,-0.11 -0.398,-0.17 -0.301,-0.12 -0.587,-0.32 -0.911,-0.34 -0.391,-0.02 -0.768,0.16 -1.138,0.28 -0.274,0.1 -0.585,0.15 -0.797,0.35 -0.299,0.27 -0.431,0.69 -0.569,1.08 -0.125,0.34 -0.19,0.71 -0.228,1.08 -0.035,0.32 -0.185,0.7 -0.001,0.97 z" />

	<path
   id="path4136"
   fill="none"
   stroke="#000000"
   stroke-width="1.7916"
   d="m 510.409,1290.385 c 0.095,0.25 0.41,0.35 0.626,0.51 0.35,0.26 0.668,0.6 1.082,0.74 0.306,0.1 0.645,0.07 0.968,0.05 0.442,-0.02 0.899,-0.06 1.309,-0.22 0.278,-0.12 0.595,-0.25 0.74,-0.52 0.211,-0.38 0.103,-0.87 0.057,-1.3 -0.055,-0.53 -0.205,-1.05 -0.398,-1.54 -0.102,-0.26 -0.239,-0.51 -0.398,-0.74 -0.115,-0.17 -0.233,-0.34 -0.398,-0.46 -0.133,-0.09 -0.304,-0.11 -0.455,-0.17 -0.191,-0.07 -0.365,-0.22 -0.569,-0.23 -0.336,-0.01 -0.679,0.12 -0.968,0.29 -0.3,0.18 -0.55,0.45 -0.74,0.74 -0.232,0.36 -0.319,0.79 -0.455,1.19 -0.107,0.32 -0.209,0.64 -0.285,0.97 -0.054,0.23 -0.198,0.47 -0.116,0.69 z" />

	<path
   id="path4150"
   fill="none"
   stroke="#000000"
   stroke-width="1.7916"
   d="m 522.419,1290.545 c 0.307,0.51 1.079,0.52 1.651,0.69 0.536,0.15 1.093,0.27 1.651,0.28 0.325,0.01 0.691,0.06 0.968,-0.11 0.117,-0.07 0.179,-0.21 0.228,-0.34 0.101,-0.27 0.099,-0.57 0.114,-0.86 0.033,-0.64 0.01,-1.29 -0.057,-1.93 -0.022,-0.21 -0.024,-0.44 -0.114,-0.63 -0.063,-0.13 -0.192,-0.22 -0.285,-0.34 -0.136,-0.17 -0.226,-0.38 -0.398,-0.51 -0.163,-0.12 -0.369,-0.19 -0.569,-0.23 -0.224,-0.04 -0.459,-0.04 -0.683,0 -0.337,0.06 -0.651,0.21 -0.968,0.34 -0.291,0.12 -0.632,0.18 -0.854,0.4 -0.192,0.19 -0.261,0.48 -0.341,0.74 -0.132,0.42 -0.169,0.87 -0.228,1.31 -0.054,0.4 -0.321,0.85 -0.115,1.19 z" />

	<path
   id="path4156"
   fill="none"
   stroke="#000000"
   stroke-width="1.7916"
   d="m 537.732,1281.615 c 0.305,0.26 0.797,-0.05 1.195,-0.06 0.626,0 1.417,0.48 1.878,0.06 0.504,-0.46 0.119,-1.37 0.114,-2.05 -0.003,-0.53 0.126,-1.12 -0.114,-1.59 -0.157,-0.32 -0.469,-0.57 -0.797,-0.69 -0.249,-0.09 -0.533,-0.03 -0.797,0 -0.233,0.03 -0.477,0.06 -0.683,0.17 -0.295,0.16 -0.576,0.39 -0.74,0.69 -0.142,0.25 -0.136,0.56 -0.171,0.85 -0.051,0.42 -0.073,0.84 -0.057,1.25 0.019,0.46 -0.18,1.07 0.172,1.37 z" />

</g>
</g>
  </g>
</svg>
