<?xml version="1.0" encoding="UTF-8" standalone="no"?>
<!-- Created with Inkscape (http://www.inkscape.org/) -->

<svg
   width="94.857697mm"
   height="287.30432mm"
   viewBox="0 0 94.857697 287.30432"
   version="1.1"
   id="svg1"
   inkscape:version="1.4.2 (f4327f4, 2025-05-13)"
   sodipodi:docname="generic_man03-1.75.svg"
   xmlns:inkscape="http://www.inkscape.org/namespaces/inkscape"
   xmlns:sodipodi="http://sodipodi.sourceforge.net/DTD/sodipodi-0.dtd"
   xmlns="http://www.w3.org/2000/svg"
   xmlns:svg="http://www.w3.org/2000/svg">
  <sodipodi:namedview
     id="namedview1"
     pagecolor="#ffffff"
     bordercolor="#000000"
     borderopacity="0.25"
     inkscape:showpageshadow="2"
     inkscape:pageopacity="0.0"
     inkscape:pagecheckerboard="0"
     inkscape:deskcolor="#d1d1d1"
     inkscape:document-units="mm"
     inkscape:zoom="0.86804103"
     inkscape:cx="-32.25654"
     inkscape:cy="632.45858"
     inkscape:window-width="2880"
     inkscape:window-height="1676"
     inkscape:window-x="-12"
     inkscape:window-y="-12"
     inkscape:window-maximized="1"
     inkscape:current-layer="layer1" />
  <defs
     id="defs1" />
  <g
     inkscape:label="图层 1"
     inkscape:groupmode="layer"
     id="layer1"
     transform="translate(-76.464554,-26.19375)">
    <path
       id="path3196"
       style="fill:#000000;fill-opacity:1;fill-rule:evenodd;stroke:#000000;stroke-width:0.54864;stroke-linecap:round;stroke-linejoin:round;stroke-opacity:1"
       d="m 123.16359,26.468865 c -1.66687,-0.01355 -3.30729,0.147108 -4.65666,0.522552 -2.54,0.709348 -5.00063,2.39051 -6.72042,4.39076 -1.03188,1.169458 -1.85208,3.447521 -2.16958,4.960938 -0.34396,1.688041 -0.29105,3.963458 0,5.662083 0.21166,1.277937 0.76729,4.103687 0.76729,4.103687 0,0 -1.29646,-1.80975 -1.98438,-1.486958 -1.03187,0.505354 -0.21166,2.709333 -0.0794,3.862917 0.13229,1.486958 0.3175,3.577166 1.08479,4.855104 0.26458,0.423333 1.77271,1.296458 1.77271,1.296458 -0.34396,-1.322917 -0.87313,-4.466167 -0.87313,-4.466167 l 0.87313,4.466167 c 0.37041,1.402292 0.76729,3.386667 1.48166,4.656667 0.39688,0.635 0.92605,1.322916 1.53459,1.984375 0,1.878541 -0.13229,4.048125 -0.74084,5.212291 -1.00541,1.931458 -3.83645,3.439583 -5.76791,4.445 -2.8575,1.481667 -7.34748,1.74625 -10.23144,3.148542 -3.095625,1.508125 -7.609417,3.65125 -9.458854,6.588125 -3.331105,5.23875 -2.852209,14.261041 -3.413125,20.478754 -0.481542,5.31812 0.60325,12.5677 -0.261938,17.85937 -0.669396,4.07458 -3.389312,9.07521 -4.201583,13.12333 -1.260475,6.27063 -2.792413,15.82209 -3.131079,22.19854 -0.214313,4.10105 0.325437,13.54667 0.325437,13.54667 h 0.238125 v 0 h -0.238125 c 0,0 -0.298979,4.65667 -0.34925,5.66208 -0.07408,1.53459 -0.07144,3.57188 -0.103187,5.10646 -0.03175,1.45521 -0.166608,3.41313 -0.105834,4.86834 0.05821,1.34937 0.336021,3.12208 0.470959,4.445 0.116416,1.1377 0.547687,2.2225 0.365125,4.70958 -0.05556,0.76729 0.428625,1.79917 1.068916,1.95792 1.4351,0.34395 0.179917,1.37583 1.030288,2.24895 0.478896,0.47625 1.225021,0.0265 1.719791,0.47625 0.381,0.37042 0.113771,1.66688 0.576792,1.82563 0.394229,0.13229 1.23825,0.18521 1.608667,-0.0265 0.381,-0.23812 0.137583,-1.5875 0.552979,-1.69333 0.420687,-0.0794 1.288521,-0.18521 1.5875,-0.74084 0.965729,-1.79916 0.801687,-2.54 0.767292,-3.57187 -0.02646,-0.71438 0.07408,-3.28083 0.156104,-4.68313 0.06879,-1.16416 0.312208,-2.61937 0.433916,-3.78354 0.129646,-1.19062 1.275292,-2.98979 0.896938,-4.04812 -0.03175,-0.0794 -0.08202,-0.18521 -0.137583,-0.26459 -0.804334,-0.76729 -1.743605,-1.34937 -1.743605,-1.34937 0,0 1.256771,0.58208 1.743605,1.34937 0.425979,0.39688 0.817562,0.84667 1.010708,1.32292 0.3175,0.74083 0.3175,2.16958 0.407458,3.01625 0.0926,0.87313 0.288396,2.14313 0.978958,2.32833 0.508,0.15875 1.447271,-0.0529 1.709209,-0.60854 0.41275,-0.89958 0.272521,-2.61937 0.343958,-3.62479 0.06085,-0.89958 -0.322792,-2.88396 -0.574146,-3.75708 -0.34925,-1.19063 -0.92075,-3.06917 -1.486958,-4.1275 -0.783167,-1.48167 -1.420812,-2.48709 -2.407708,-3.75709 -0.799042,-1.00541 -2.680229,-3.14854 -2.680229,-3.14854 h -0.08467 v 0 h 0.08731 c 0,0 1.690688,-4.89479 2.161646,-6.93208 0.947209,-4.10104 2.719917,-6.05896 3.738563,-10.13354 0.809625,-3.25438 3.780895,-9.47209 4.283604,-12.77938 0.555625,-3.41312 0.529166,-8.06979 0.529166,-11.53583 0,-1.66687 -0.502708,-3.88937 -0.264583,-5.52979 0.370417,-2.24896 1.984375,-4.81542 2.143125,-7.09083 0.02646,-0.52917 0.02646,-1.0848 0,-1.64042 -0.185208,-1.40229 -0.264583,-2.93688 -0.343958,-4.445 0.15875,1.48167 0.3175,2.98979 0.343958,4.445 0.07937,0.47625 0.132292,0.92604 0.238125,1.37583 0.582083,2.91042 2.725203,7.3025 3.148533,10.23938 0.79375,5.715 0.18521,12.67354 -0.52916,18.38854 -0.634998,5.00062 -2.963331,11.35062 -3.94229,16.29833 -0.79375,4.02167 -2.06375,13.49375 -2.090208,13.59958 h -0.02646 c 0,0 -0.449792,12.96459 0.02646,18.60021 0.582083,6.53521 2.169583,15.13417 3.439583,21.56354 0.423334,2.2225 1.534584,5.08 1.719792,7.32896 0.185208,2.19604 -0.396875,5.15938 -0.15875,7.35542 0.15875,1.29646 0.423333,2.8575 0.502703,4.15396 0.18521,3.36021 -1.296453,7.67291 -1.561036,11.03312 -0.396875,4.68313 -0.15875,10.98021 0.238125,15.66334 0.396875,4.97416 1.719791,11.48291 2.434161,16.40416 0.52917,3.54542 1.45521,8.20208 1.71979,11.77396 0.14817,2.09021 0,6.74687 0,7.01146 l -1.29646,2.64583 c -2.196033,4.23333 -4.762491,4.49792 -6.720408,6.61458 -0.687917,0.79375 -2.942167,3.96875 -3.053292,4.49792 -0.111125,0.52917 -0.07673,1.5875 0.187855,2.11667 0.111125,0.26458 0.71702,1.05833 0.933979,1.32291 0.267229,0.26459 1.534583,0.52917 2.06375,0.79375 0.608541,0 1.402291,0.26459 2.010833,0.52917 0.661458,0 2.831042,0 3.492493,0 0.58209,0.26458 1.27,0.79375 1.82563,0.79375 2.89983,0.26458 3.40254,-0.79375 3.50837,-0.79375 0.13229,-0.26458 0.92604,-1.32292 1.45521,-1.5875 0.50271,-0.26458 1.08479,-0.26458 1.08479,-0.79375 0,-0.26458 0.9525,-3.43958 1.85209,-4.7625 0.84666,-1.32292 2.67229,-1.5875 3.28083,-2.91042 0.39687,-0.79375 0.84667,-2.64583 0.0529,-3.175 -0.82021,-0.52916 0.34395,-4.23333 0.3175,-5.02708 h 0.0264 c 0,0 0.66146,-3.12208 -0.60854,-7.09083 -0.39687,-1.27 -0.44979,-5.13292 -0.3175,-5.92667 1.40229,-7.48771 2.19604,-15.31937 2.88396,-23.1775 0.42333,-4.97416 0.82021,-11.66812 0.47625,-16.64229 -0.0794,-1.34937 -0.55562,-4.20687 -0.52917,-5.55625 0.0529,-2.40771 1.03188,-4.33917 1.50813,-6.69396 0.55562,-2.64583 1.42875,-6.13833 1.71979,-8.81062 0.26458,-2.40771 0.0265,-5.66209 0.23813,-8.06979 0.26458,-2.96334 1.05833,-6.85271 1.48166,-9.81605 0.44979,-3.28083 1.16417,-7.69937 1.45521,-11.00666 0.3175,-3.51896 0.0529,-12.77938 0.0529,-12.77938 l -1.00542,-0.92604 c -1.42875,-1.08479 -2.69875,-2.56646 -2.69875,-2.56646 l 2.69875,2.56646 c 0.82021,0.60854 1.69333,1.08479 2.40771,1.08479 0.635,0.0265 1.32292,-0.3175 1.95792,-0.76729 l 2.67229,-2.54 c 0,0 -1.24354,1.56104 -2.67229,2.54 l -0.0529,0.0529 c 0,0 -0.34396,0.89958 -0.15875,2.30187 0,0.0265 -0.0794,5.66209 0,8.09625 0.0529,2.48709 0.13229,5.84729 0.47625,8.30792 0.60854,4.47146 2.51354,10.21292 2.88396,14.71083 0.26458,2.98979 0.21166,7.01146 0.15875,10.02771 -0.0529,3.67771 -0.21167,8.59896 0.23812,12.25021 0.3175,2.48708 1.48167,5.58271 1.61396,8.06979 0.18521,3.41313 -1.45521,7.85813 -1.45521,11.27125 -0.0265,6.08542 1.74625,14.04937 2.43417,20.08187 0.47625,4.1275 2.11666,9.63084 1.48166,13.73188 -0.37041,2.46062 -0.9525,5.68854 -0.9525,5.68854 h 0.29105 c 0,0 0,0 0,0 0,0 0,0 0,0 h -0.29105 c -0.0794,0.79375 0.39688,2.11667 0.87313,3.43958 0.13229,0.52917 0.29104,0.79375 0.44979,1.32292 0.23813,0.52917 0.39688,1.05833 0.34396,1.05833 0,0 -0.15875,-0.52916 -0.34396,-1.05833 -0.13229,-0.26458 -0.29104,-0.79375 -0.44979,-1.32292 -0.13229,-0.26458 -0.23813,-0.52916 -0.29104,-0.26458 -0.21167,0.52917 -1.08479,2.91042 -1.19063,3.43958 -0.74083,3.43959 0.26459,3.43959 0.26459,3.43959 1.08479,1.32291 3.83645,2.64583 4.33916,4.23333 0.76729,2.11667 2.27542,3.70417 2.91042,3.96875 0,0 1.32292,1.5875 1.87854,2.11667 0.58208,0.52916 0.82021,0.52916 1.50813,0.79375 1.32291,0.52916 2.80458,0 3.9952,-0.52917 0.4498,-0.26458 -0.15875,0.52917 1.64042,0.26458 1.82563,0 3.14854,-1.32291 4.23333,-2.91041 0.4498,-0.52917 0.3175,-2.38125 -0.1852,-3.175 -2.3548,-2.91042 -5.31813,-5.02709 -6.93209,-8.20209 -0.58208,-1.05833 -2.59291,-2.91041 -3.06916,-4.7625 -0.15875,-0.52916 0.0265,-1.5875 0.0265,-1.5875 h -0.3175 v 0 h 0.3175 c 0,0 0.0265,-5.74145 0.26459,-8.17562 0.42333,-4.86833 1.79916,-11.29771 2.43416,-16.16604 0.52917,-3.86292 1.11125,-9.07521 1.48167,-12.96458 0.26458,-2.8575 0.76729,-6.69396 0.71438,-9.55146 -0.0529,-3.41313 -1.0848,-7.88459 -1.21709,-11.27125 -0.10583,-2.93688 -0.13229,-6.87917 0.23813,-9.78959 0.52916,-3.96875 2.38125,-9.04875 3.20146,-12.99104 1.05833,-5.10646 2.24895,-11.95916 2.93687,-17.145 0.42333,-3.28083 1.05833,-7.69937 0.97896,-11.00666 -0.0794,-2.75167 -1.03188,-9.07521 -1.03188,-9.07521 v 0 c -0.0265,-0.29104 -0.42333,-10.60979 -1.29645,-15.05479 -0.7673,-3.86292 -3.46605,-8.65188 -3.9423,-12.59417 -0.42333,-3.51896 0.58209,-8.28146 0.79375,-11.82688 0.26459,-4.47145 0.23813,-10.50395 0.7673,-14.94895 0.29104,-2.2225 0.87312,-4.86834 1.40229,-7.35542 0.15875,-2.72521 0.52916,-5.76792 1.11125,-8.51958 0.0794,-0.89959 0.18521,-1.77271 0.39687,-2.51354 0.635,-2.434171 3.41313,-7.620005 3.41313,-7.620005 0,0 -2.51354,5.027084 -3.14854,7.355415 -0.23813,0.84667 -0.47625,1.79917 -0.66146,2.77813 -0.15875,1.64041 -0.18521,3.41312 -0.39688,4.84187 -0.18521,1.11125 -0.42333,2.38125 -0.71437,3.67771 -0.0265,0.60854 -0.0794,1.27 -0.0794,1.82563 -0.0529,3.4925 0.79375,8.06979 0.52917,11.56229 -0.58208,7.43479 0.82021,12.59416 1.82562,17.85937 1.00542,5.21229 4.15396,11.66813 5.5298,16.80104 0.47625,1.82563 1.24354,5.95313 1.27,6.16479 -0.0265,0.0794 -1.19063,2.80459 -1.69334,3.83646 -0.55562,1.08479 -0.82021,2.32834 -1.37583,3.38667 -0.39688,0.79375 -0.74083,2.11667 -0.87313,2.98979 -0.13229,0.76729 -0.37041,1.93146 -0.37041,2.69875 0,1.11125 0.0265,2.43417 0.26458,3.4925 0.13229,0.52917 0.92604,2.2225 1.40229,2.46063 0.635,0.3175 1.27,0.10583 1.79917,-0.42334 0.37042,-0.39687 -0.47625,-1.95791 -0.42333,-2.51354 0.10583,-0.92604 -0.1323,-2.27542 0.21166,-3.14854 0.13229,-0.3175 0.42334,-0.71438 0.74084,-1.08479 0.37041,-0.52917 1.05833,-1.08479 1.05833,-1.08479 0,0 -0.55563,0.52916 -1.05833,1.08479 -0.18521,0.26458 -0.29105,0.52916 -0.23813,0.71437 0.13229,0.47625 1.16417,0 1.50813,0.37042 0.66145,0.68792 0.66145,2.14312 0.87312,3.09562 0.15875,0.74084 0.26458,1.74625 0.34396,2.51355 0.13229,1.03187 0.44979,2.51354 0.23812,3.59833 -0.21166,1.05833 -0.3175,1.98437 -0.635,2.80458 -0.29104,0.82021 -0.79375,2.09021 -1.34937,2.59292 -0.26458,0.23812 0,1.13771 0.0794,1.48167 0.15875,0.92604 1.16417,0.5027 2.06375,0.3175 0.60855,-0.10584 2.24896,-0.68792 3.6248,-1.905 0.92604,-0.87313 2.19604,-2.14313 2.93687,-3.12209 1.13771,-1.45521 1.95792,-3.75708 2.46063,-5.52979 0.34395,-1.21708 0.23812,-2.8575 0.29104,-4.1275 0.0794,-1.45521 0.10583,-3.36021 -0.34396,-4.7625 -0.52917,-1.66687 -1.48167,-3.78354 -2.01083,-5.45042 -0.21167,-0.68791 -0.60855,-2.19604 -0.635,-2.32833 l 0.0794,0.0265 c 0,0 0.26458,-2.61938 0,-3.67771 -0.29104,-1.21708 -1.40229,-4.02167 -1.56104,-5.26521 -0.44979,-3.96875 -0.44979,-10.37166 -0.52917,-15.47812 -0.0794,-4.81542 0.39688,-14.04938 -0.26458,-16.03375 -1.21708,-3.62479 -2.38125,-10.60979 -2.91042,-15.24 -0.76729,-7.11729 -0.58208,-16.827501 -0.76729,-23.997709 -0.15875,-6.006042 -1.93146,-9.445625 -4.73604,-12.22375 -2.19604,-2.196042 -6.79979,-2.619375 -9.71021,-3.677709 -3.06917,-1.137708 -7.64646,-1.719791 -10.23937,-3.677708 -1.64042,-1.243542 -3.175,-3.65125 -3.9423,-5.529791 -0.29104,-0.661459 -0.5027,-1.772709 -0.66145,-2.8575 0.29104,-0.3175 0.58208,-0.635 0.79375,-0.9525 0.58208,-0.79375 1.08479,-2.090209 1.29645,-3.069167 0.10584,-0.47625 0.18521,-1.11125 0.23813,-1.825625 0,0.02646 -0.0265,0.05292 -0.0265,0.05292 l 0.18521,-5.154084 c 0,0 0.0529,2.854855 -0.15875,5.101167 0.15875,-0.105833 1.74625,-1.375833 2.24896,-2.143125 0.68791,-1.071562 1.37583,-2.754312 1.48166,-4.048125 0.0529,-1.000125 0.21167,-2.846917 -0.68791,-3.267604 -0.74084,-0.341313 -2.38125,1.285875 -2.38125,1.285875 0,0 0.71437,-3.484563 0.87312,-4.537604 0.26459,-1.910292 -0.13229,-5.36575 -0.71437,-7.421563 -0.68792,-2.36802 -1.71979,-3.836458 -3.57188,-5.466291 -1.29646,-1.143 -2.83104,-1.887802 -4.52437,-2.284677 -1.34938,-0.32094 -3.01625,-0.508794 -4.65667,-0.522552 z M 93.511738,94.853072 c 0,0 2.460625,4.418542 3.042708,6.826248 0.02646,0.0529 0.07937,0.18521 0.105834,0.26459 0.211666,0.74083 0.343958,1.56104 0.449791,2.4077 -0.132291,-0.74083 -0.3175,-1.48166 -0.423333,-2.24895 -0.02646,-0.1323 -0.07937,-0.29105 -0.132292,-0.42334 -0.687916,-2.35479 -3.042708,-6.826248 -3.042708,-6.826248 z m 3.677708,10.265838 c 0,0.0794 0.02646,0.15875 0.02646,0.23812 0,0.10583 0.02646,0.26458 0.02646,0.37042 -0.02646,-0.18521 -0.02646,-0.39688 -0.05292,-0.60854 z" />
  </g>
</svg>
