<?xml version="1.0" encoding="UTF-8" standalone="no"?>
<!-- Created with Inkscape (http://www.inkscape.org/) -->

<svg
   width="44.276054mm"
   height="128.9482mm"
   viewBox="0 0 44.276055 128.9482"
   version="1.1"
   id="svg1"
   inkscape:version="1.4.2 (f4327f4, 2025-05-13)"
   sodipodi:docname="man2.svg"
   xmlns:inkscape="http://www.inkscape.org/namespaces/inkscape"
   xmlns:sodipodi="http://sodipodi.sourceforge.net/DTD/sodipodi-0.dtd"
   xmlns="http://www.w3.org/2000/svg"
   xmlns:svg="http://www.w3.org/2000/svg">
  <sodipodi:namedview
     id="namedview1"
     pagecolor="#ffffff"
     bordercolor="#000000"
     borderopacity="0.25"
     inkscape:showpageshadow="2"
     inkscape:pageopacity="0.0"
     inkscape:pagecheckerboard="0"
     inkscape:deskcolor="#d1d1d1"
     inkscape:document-units="mm"
     inkscape:zoom="1.2275954"
     inkscape:cx="421.14853"
     inkscape:cy="166.17853"
     inkscape:window-width="2880"
     inkscape:window-height="1676"
     inkscape:window-x="-12"
     inkscape:window-y="-12"
     inkscape:window-maximized="1"
     inkscape:current-layer="layer1" />
  <defs
     id="defs1" />
  <g
     inkscape:label="图层 1"
     inkscape:groupmode="layer"
     id="layer1"
     transform="translate(6.3500007,-104.51041)">
    <g
       id="XMLID_832_"
       transform="matrix(0.26458333,0,0,0.26458333,-117.94527,91.379687)">
	<g
   id="XMLID_820_">
		<path
   id="XMLID_926_"
   style="fill:#fda98b"
   d="m 495.772,108.279 c 0.138,11.329 3.891,19.73 -16.944,29.534 12.402,17.062 24.616,23.367 24.616,23.367 0,0 26.13,-11.762 35.109,-19.545 -11.046,-8.037 -19.074,-9.003 -18.869,-19.778 0.049,-2.587 -0.072,-13.162 -0.141,-13.367 z" />

		<path
   id="XMLID_924_"
   style="fill:#fda98b"
   d="m 499.467,119.804 c 4.57,3.092 9.973,2.431 15.443,0.933 5.916,-1.621 16.469,-18.241 13.68,-40.035 -3.5,-27.342 -42.847,-27.585 -41.492,8.938 0.37,9.999 4.035,24.526 12.369,30.164 z" />

		<g
   id="XMLID_985_">
			<path
   id="XMLID_1335_"
   style="fill:#382823"
   d="m 513.171,69.765 c -0.445,-0.738 1.001,-10.427 1.478,-11.47 3.493,-7.635 16.467,0.65 18.373,7.3 1.27,4.433 0.69,19.148 -4.278,30.134 -0.391,-4.557 -2.55,-10.334 -4.05,-14.655 -4.252,-12.244 -10.337,-9.339 -11.523,-11.309 z" />

			<path
   id="XMLID_1334_"
   style="fill:#382823"
   d="m 517.427,63.715 c 1.038,-3.082 1.634,-4.846 0.237,-7.657 -0.727,-1.462 -15.236,-16.364 -30.083,4.925 -5.467,7.84 -8.479,13.315 0.22,35.569 1.862,-2.451 0.34,-6.762 1.963,-9.696 3.391,-6.131 11.428,-6.208 21.204,-10.176 3.152,-1.278 5.387,-9.78 6.459,-12.965 z" />

			<g
   id="XMLID_1310_">
				<g
   id="XMLID_1327_">
					<path
   id="XMLID_984_"
   style="fill:#4d3931"
   d="m 514.512,68.872 c 0.025,-0.069 2.45,-6.915 2.112,-11.396 -0.119,-1.574 2.813,0.024 -1.355,11.666 -0.179,0.502 -0.936,0.231 -0.757,-0.27 z" />

				</g>

				<g
   id="XMLID_1325_">
					<path
   id="XMLID_983_"
   style="fill:#4d3931"
   d="m 499.571,57.926 c -0.828,-0.291 1.336,-4.278 5.222,-5.279 4.27,-1.102 9.624,2.739 8.912,3.538 -0.149,0.166 -0.403,0.18 -0.568,0.032 -6.941,-6.194 -12.114,-1.21 -13.053,1.462 -0.074,0.212 -0.305,0.32 -0.513,0.247 z" />

				</g>

				<g
   id="XMLID_1323_">
					<path
   id="XMLID_982_"
   style="fill:#4d3931"
   d="m 496.973,69.691 c -0.601,-0.554 3.944,-5.434 8.584,-5.691 3.781,-0.208 5.24,-4.582 7.315,-2.278 0.357,0.396 -0.244,0.932 -0.597,0.538 -0.822,-0.909 -2.139,0.313 -3.047,1.144 -3.58,3.279 -4.555,-1.469 -11.686,6.264 -0.152,0.164 -0.407,0.173 -0.569,0.023 z" />

				</g>

				<g
   id="XMLID_1321_">
					<path
   id="XMLID_981_"
   style="fill:#4d3931"
   d="m 495.913,78.839 c -0.511,-0.009 -0.542,-0.781 0.015,-0.804 4.146,0.088 13.268,-3.763 14.86,-6.772 0.249,-0.471 0.959,-0.094 0.711,0.376 -1.515,2.863 -10.305,7.299 -15.586,7.2 z" />

				</g>

				<g
   id="XMLID_1319_">
					<path
   id="XMLID_980_"
   style="fill:#4d3931"
   d="m 488.213,68.605 c 0.288,-0.445 0.964,-0.01 0.676,0.437 -1.852,2.862 -2.449,6.509 -1.62,9.815 0.206,0.128 0.237,0.41 0.14,0.581 -1.103,1.94 -2.679,-5.45 0.804,-10.833 z" />

				</g>

				<g
   id="XMLID_1317_">
					<path
   id="XMLID_979_"
   style="fill:#4d3931"
   d="m 528.749,66.648 c -1.306,-2.683 -4.413,-4.59 -6.913,-5.29 -0.214,-0.06 -0.339,-0.282 -0.279,-0.496 0.512,-1.832 9.592,5.064 7.73,5.971 -0.2,0.098 -0.441,0.015 -0.538,-0.185 z" />

				</g>

				<g
   id="XMLID_1315_">
					<path
   id="XMLID_978_"
   style="fill:#4d3931"
   d="m 523.147,66.692 c -0.972,-1.251 -2.341,-2.194 -3.855,-2.657 -1.26,-0.385 1.14,-2.149 4.49,2.164 0.326,0.419 -0.31,0.914 -0.635,0.493 z" />

				</g>

				<g
   id="XMLID_1313_">
					<path
   id="XMLID_977_"
   style="fill:#4d3931"
   d="m 525.85,77.101 c -0.115,-1.686 -2.856,-7.5 -6.215,-8.241 -0.217,-0.048 -0.353,-0.263 -0.306,-0.479 0.367,-1.67 6.972,3.492 7.323,8.666 0.036,0.53 -0.767,0.584 -0.802,0.054 z" />

				</g>

				<g
   id="XMLID_1311_">
					<path
   id="XMLID_976_"
   style="fill:#4d3931"
   d="m 529.625,81.035 0.4,-0.041 -0.403,0.015 c -0.055,-0.53 1.255,-7.26 1.361,-7.825 0.099,-0.528 0.888,-0.371 0.791,0.148 -0.07,0.372 -1.391,7.218 -1.352,7.595 -0.488,0.083 -0.307,0.058 -0.797,0.108 z" />

				</g>

			</g>

		</g>

		<path
   id="XMLID_921_"
   style="fill:#382823"
   d="m 513,85.149 c 1.157,1.038 4.604,0.282 6.478,0.518 0.934,0.118 3.483,1.186 4.294,0.895 2.483,-0.892 -6.115,-4.676 -10.556,-2.994 -0.566,0.215 -0.692,1.155 -0.216,1.581 z" />

		<path
   id="XMLID_918_"
   style="fill:#382823"
   d="m 502.948,83.426 c -4.493,-1.539 -12.939,2.648 -10.421,3.435 0.823,0.257 3.324,-0.917 4.253,-1.074 1.863,-0.315 5.338,0.296 6.45,-0.79 0.458,-0.447 0.355,-1.353 -0.282,-1.571 z" />

		<g
   id="XMLID_906_">
			<g
   id="XMLID_916_">
				<path
   id="XMLID_917_"
   style="fill:#fda98b"
   d="m 531.042,90.297 c -4.102,-1.206 -4.361,7.383 -4.371,11.647 -0.02,8.405 10.832,-9.747 4.371,-11.647 z" />

			</g>

			<g
   id="XMLID_913_">
				<path
   id="XMLID_915_"
   style="fill:#ee795c"
   d="m 530.167,94.497 c -0.121,-0.393 -0.709,-0.207 -0.59,0.181 0.723,2.362 0.005,3.747 -0.966,4.28 -0.149,0.082 -0.204,0.27 -0.122,0.419 0.545,0.993 2.712,-1.502 1.678,-4.88 z" />

			</g>

			<g
   id="XMLID_910_">
				<path
   id="XMLID_911_"
   style="fill:#fda98b"
   d="m 485.25,90.179 c 4.102,-1.206 4.361,7.384 4.371,11.647 0.021,8.405 -10.831,-9.747 -4.371,-11.647 z" />

			</g>

			<g
   id="XMLID_907_">
				<path
   id="XMLID_908_"
   style="fill:#ee795c"
   d="m 486.126,94.379 c 0.121,-0.393 0.709,-0.207 0.59,0.181 -0.723,2.362 -0.005,3.747 0.966,4.28 0.15,0.082 0.204,0.27 0.122,0.419 -0.546,0.993 -2.712,-1.502 -1.678,-4.88 z" />

			</g>

		</g>

		<g
   id="XMLID_902_">
			<path
   id="XMLID_905_"
   style="fill:#382823"
   d="m 517.637,93.927 c 1.344,0 2.395,-5.109 -0.865,-5.109 -1.739,0 -1.334,5.109 0.865,5.109 z" />

			<path
   id="XMLID_904_"
   style="fill:#382823"
   d="m 497.678,94.13 c -1.344,0 -2.395,-5.109 0.865,-5.109 1.739,0 1.333,5.109 -0.865,5.109 z" />

		</g>

		<g
   id="XMLID_900_">
			<path
   id="XMLID_901_"
   style="fill:#ee795c"
   d="m 519.405,117.416 c -0.168,-0.13 -0.41,-0.098 -0.54,0.07 -3.526,4.571 -15.965,6.123 -21.935,-0.402 -0.344,-0.376 -0.91,0.145 -0.568,0.52 8.816,9.631 25.256,1.517 23.043,-0.188 z" />

		</g>

		<g
   id="XMLID_896_">
			<path
   id="XMLID_898_"
   style="fill:#ee795c"
   d="m 509.9,102.246 c 0.135,-0.567 -0.828,-0.619 -1.432,-0.754 -2.218,-0.495 -2.317,0.592 -1.287,-8.716 0.201,-1.817 0.508,-2.793 -0.14,-2.844 -0.613,-0.038 -0.449,0.683 -0.678,2.753 -1.119,10.11 -1.142,8.868 3.04,9.865 0.218,0.053 0.444,-0.08 0.497,-0.304 z" />

		</g>

		<path
   id="XMLID_895_"
   style="fill:#ffffff"
   d="m 512.439,109.287 c 0.333,-1 -0.683,-0.585 -9.811,0.117 -2.644,0.203 6.817,8.869 9.811,-0.117 z" />

	</g>

	<g
   id="XMLID_831_">
		<path
   id="XMLID_971_"
   style="fill:#fda98b"
   d="m 475.686,511.017 c -5.273,2.663 -12.249,-3.787 -12.249,-3.787 l -0.971,-10.481 15.739,-0.598 z" />

		<path
   id="XMLID_970_"
   style="fill:#323d4e"
   d="m 436.558,531.346 c -4.876,0.733 -6.999,-0.536 -7.773,-1.984 -1.747,-3.268 0.673,-1.529 34.598,-23.091 0,0 5.259,5.242 12.61,3.115 12.184,28.728 6.949,14.989 -39.435,21.96 z" />

		<g
   id="XMLID_969_">
			<path
   style="fill:#f2e8de"
   d="m 448.995,522.97 c -0.048,0 -0.098,-0.007 -0.147,-0.022 -2.453,-0.754 -4.024,-1.355 -5.169,-3.336 -0.138,-0.239 -0.056,-0.545 0.183,-0.683 0.237,-0.141 0.544,-0.057 0.683,0.183 0.933,1.614 2.117,2.117 4.597,2.881 0.264,0.081 0.412,0.36 0.331,0.625 -0.066,0.214 -0.264,0.352 -0.478,0.352 z"
   id="path288" />

		</g>

		<g
   id="XMLID_968_">
			<path
   style="fill:#f2e8de"
   d="m 455.736,519.843 c -2.762,-0.143 -5.412,-1.206 -7.49,-2.993 -0.209,-0.18 -0.233,-0.495 -0.053,-0.705 0.18,-0.211 0.496,-0.233 0.705,-0.053 1.91,1.642 4.348,2.62 6.863,2.752 0.276,0.014 0.488,0.249 0.474,0.525 -0.014,0.267 -0.235,0.474 -0.499,0.474 z"
   id="path289" />

		</g>

		<g
   id="XMLID_967_">
			<path
   style="fill:#f2e8de"
   d="m 460.92,516.218 c -0.02,0 -0.041,-10e-4 -0.061,-0.004 -2.584,-0.316 -5.512,-0.675 -7.884,-2.282 -0.228,-0.155 -0.288,-0.466 -0.133,-0.694 0.155,-0.229 0.468,-0.286 0.695,-0.134 2.171,1.473 4.972,1.815 7.443,2.118 0.274,0.033 0.469,0.283 0.435,0.557 -0.03,0.253 -0.246,0.439 -0.495,0.439 z"
   id="path290" />

		</g>

		<path
   id="XMLID_965_"
   style="fill:#fda98b"
   d="m 559.107,511.239 c -4.893,3.31 -12.63,-2.204 -12.63,-2.204 l -2.292,-10.273 15.536,-2.588 z" />

		<path
   id="XMLID_964_"
   style="fill:#323d4e"
   d="m 522.872,536.364 c -8.385,2.377 -9.724,-2.649 -7.259,-4.331 10.837,-7.393 20.549,-15.518 30.688,-23.942 0,0 5.881,4.533 12.903,1.491 15.728,26.951 8.795,13.987 -36.332,26.782 z" />

		<g
   id="XMLID_963_">
			<path
   style="fill:#f2e8de"
   d="m 533.419,526.162 c -0.04,0 -0.081,-0.005 -0.122,-0.015 -2.489,-0.621 -4.091,-1.137 -5.341,-3.054 -0.151,-0.231 -0.085,-0.541 0.146,-0.692 0.231,-0.15 0.541,-0.085 0.692,0.145 1.019,1.564 2.229,2.002 4.745,2.63 0.268,0.067 0.431,0.339 0.364,0.607 -0.056,0.228 -0.26,0.379 -0.484,0.379 z"
   id="path291" />

		</g>

		<g
   id="XMLID_962_">
			<path
   style="fill:#f2e8de"
   d="m 539.964,522.678 c -2.733,0 -5.43,-0.918 -7.595,-2.586 -0.219,-0.169 -0.259,-0.483 -0.091,-0.701 0.167,-0.22 0.482,-0.26 0.701,-0.092 1.991,1.534 4.472,2.379 6.985,2.379 0.293,0 0.517,0.224 0.518,0.499 0,0.283 -0.237,0.507 -0.518,0.501 z"
   id="path292" />

		</g>

		<g
   id="XMLID_961_">
			<path
   style="fill:#f2e8de"
   d="m 544.964,518.779 c -2.631,-0.179 -5.575,-0.379 -8.029,-1.857 -0.237,-0.143 -0.313,-0.45 -0.17,-0.687 0.142,-0.237 0.449,-0.311 0.686,-0.171 2.248,1.354 5.063,1.546 7.547,1.715 0.275,0.019 0.483,0.258 0.465,0.533 -0.019,0.265 -0.239,0.467 -0.499,0.467 z"
   id="path293" />

		</g>

	</g>

	<g
   id="XMLID_940_">
		<path
   style="fill:#73899a"
   d="m 546.003,250.135 c 15.708,-0.41 18.229,253.704 18.229,253.704 -5.332,1.735 -17.414,2.834 -23.002,2.379 -24.5,-111.994 -33.587,-179.488 -33.587,-179.488 0,0 -10.487,122.098 -26.159,178.331 -8.679,2.015 -22.138,-2.991 -22.138,-2.991 -0.159,-1.004 -16.229,-218.538 5.4,-252.813 z"
   id="path294" />

		<path
   style="fill:#3d4a61"
   d="m 544.152,506.818 c -1.113,0 -2.116,-0.033 -2.962,-0.102 l -0.369,-0.029 -0.079,-0.362 c -20.794,-95.053 -30.576,-158.707 -32.987,-175.256 -2.036,22.184 -11.943,124.444 -25.79,174.126 l -0.08,0.286 -0.289,0.067 c -8.726,2.023 -21.87,-2.803 -22.425,-3.01 l -0.274,-0.102 -0.045,-0.289 c -0.31,-1.954 -16.191,-218.83 5.471,-253.158 l 0.149,-0.236 81.528,0.882 c 0.594,-0.033 1.18,0.249 1.727,0.776 14.463,13.952 16.907,243.651 17.004,253.423 l 0.003,0.367 -0.349,0.113 c -4.598,1.498 -14.081,2.503 -20.233,2.504 z m -2.513,-1.072 c 5.472,0.362 16.72,-0.64 22.089,-2.272 -0.117,-10.696 -2.792,-238.933 -16.694,-252.343 -0.355,-0.343 -0.688,-0.517 -1.018,-0.496 -0.018,0 -80.994,-0.875 -80.994,-0.875 -21.02,34.376 -5.969,242.8 -5.208,251.946 1.985,0.698 13.536,4.565 21.268,2.932 15.438,-55.675 25.958,-176.732 26.063,-177.951 l 0.388,-4.521 0.605,4.497 c 0.091,0.674 9.346,68.609 33.501,179.083 z"
   id="path295" />

	</g>

	<g
   id="XMLID_952_">
		<g
   id="XMLID_958_">
			<path
   style="fill:#3d4a61"
   d="m 507.592,318.3 c -0.254,0 -0.471,-0.192 -0.497,-0.45 -1.934,-19.303 -0.817,-35.367 -0.001,-47.097 0.682,-9.81 1.174,-16.898 -0.375,-20.855 -0.101,-0.257 0.026,-0.547 0.283,-0.647 0.255,-0.104 0.546,0.026 0.647,0.283 1.632,4.167 1.133,11.349 0.442,21.289 -0.813,11.694 -1.926,27.71 -0.001,46.928 0.027,0.274 -0.173,0.52 -0.448,0.547 -0.017,10e-4 -0.034,0.002 -0.05,0.002 z"
   id="path296" />

		</g>

		<g
   id="XMLID_957_">
			<path
   style="fill:#3d4a61"
   d="m 478.337,502.616 c -0.028,0 -0.056,-0.002 -0.085,-0.007 -0.272,-0.047 -0.456,-0.305 -0.409,-0.577 12.935,-75.756 23.137,-143.442 25.989,-172.439 0.027,-0.274 0.265,-0.462 0.546,-0.449 0.275,0.027 0.476,0.273 0.449,0.547 -2.854,29.019 -13.059,96.732 -25.999,172.51 -0.04,0.243 -0.251,0.415 -0.491,0.415 z"
   id="path297" />

		</g>

		<g
   id="XMLID_956_">
			<path
   style="fill:#3d4a61"
   d="m 458.854,279.687 c -0.173,0 -0.342,-0.09 -0.435,-0.252 -0.137,-0.24 -0.054,-0.545 0.186,-0.682 12.654,-7.236 13.009,-10.079 14.978,-25.858 0.229,-1.841 0.481,-3.854 0.776,-6.067 0.037,-0.274 0.287,-0.467 0.561,-0.43 0.274,0.037 0.466,0.288 0.43,0.562 -0.294,2.21 -0.545,4.221 -0.775,6.06 -1.975,15.825 -2.386,19.118 -15.474,26.602 -0.078,0.044 -0.163,0.065 -0.247,0.065 z"
   id="path298" />

		</g>

		<g
   id="XMLID_955_">
			<path
   style="fill:#3d4a61"
   d="m 551.847,280.103 c -0.075,0 -0.15,-0.017 -0.222,-0.052 -13.504,-6.704 -14.107,-9.967 -17.006,-25.65 -0.337,-1.822 -0.705,-3.814 -1.128,-6.003 -0.053,-0.271 0.125,-0.534 0.396,-0.586 0.273,-0.057 0.534,0.124 0.586,0.396 0.424,2.192 0.793,4.188 1.13,6.011 2.89,15.637 3.411,18.455 16.467,24.936 0.247,0.123 0.349,0.423 0.225,0.67 -0.088,0.176 -0.264,0.278 -0.448,0.278 z"
   id="path299" />

		</g>

		<g
   id="XMLID_954_">
			<path
   style="fill:#3d4a61"
   d="m 507.795,323.384 c -0.021,0 -0.043,-0.001 -0.066,-0.003 -0.298,-0.027 -0.54,-0.235 -0.618,-0.529 -0.668,-2.528 -3.011,-4.586 -5.57,-4.892 -0.274,-0.032 -0.47,-0.281 -0.438,-0.556 0.032,-0.273 0.279,-0.479 0.556,-0.437 2.754,0.328 5.206,2.31 6.192,4.922 2.649,-5.03 6.605,-6.008 9.269,-5.264 0.266,0.073 0.422,0.349 0.349,0.615 -0.074,0.266 -0.352,0.423 -0.615,0.348 -2.406,-0.665 -6.053,0.348 -8.428,5.39 -0.119,0.252 -0.362,0.406 -0.631,0.406 z"
   id="path300" />

		</g>

		<g
   id="XMLID_953_">
			<path
   style="fill:#3d4a61"
   d="m 506.534,298.944 c -1.879,0 -3.671,-0.862 -5.182,-2.494 -3.939,-4.253 -8.116,-16.065 -5.647,-48.187 0.021,-0.275 0.268,-0.483 0.537,-0.46 0.275,0.021 0.482,0.262 0.461,0.537 -2.441,31.761 1.58,43.324 5.384,47.431 1.335,1.442 2.832,2.173 4.448,2.173 0.276,0 0.5,0.224 0.5,0.5 0,0.276 -0.224,0.5 -0.501,0.5 z"
   id="path301" />

		</g>

	</g>

	<g
   id="XMLID_951_">
		<path
   style="fill:#824b4c"
   d="m 461.24,257.349 c 31.074,3.029 72.865,2.605 89.329,0.639 0,0 -1.832,-8.038 -4.566,-7.853 l -81.257,-0.878 c 0,0 -2.986,5.278 -3.506,8.092 z"
   id="path302" />

		<path
   style="fill:#824b4c"
   d="m 512.109,260.044 c -16.351,0 -34.781,-0.624 -50.918,-2.198 l -0.543,-0.053 0.099,-0.536 c 0.529,-2.864 3.439,-8.029 3.563,-8.248 l 0.146,-0.257 0.295,0.003 81.257,0.878 c 2.986,-0.23 4.85,7.376 5.047,8.242 l 0.123,0.542 -0.552,0.066 c -7.79,0.932 -22.107,1.561 -38.517,1.561 z m -50.257,-3.138 c 31.802,3.046 72.266,2.443 88.098,0.65 -0.743,-2.939 -2.348,-7.042 -3.914,-6.922 l -80.998,-0.874 c -0.553,1.006 -2.554,4.734 -3.186,7.146 z"
   id="path303" />

	</g>

	<g
   id="XMLID_948_">
		<path
   id="XMLID_950_"
   style="fill:#73899a"
   d="m 527.92,262.745 c 0.378,0 0.231,-14.531 0.231,-14.189 0,-0.4 -2.715,-0.231 -2.358,-0.231 -0.378,0 -0.231,14.531 -0.231,14.189 0,0.4 2.715,0.231 2.358,0.231 z" />

		<path
   id="XMLID_949_"
   style="fill:#73899a"
   d="m 481.228,261.745 c 0.378,0 0.231,-14.531 0.231,-14.189 0,-0.4 -2.715,-0.231 -2.358,-0.231 -0.378,0 -0.231,14.531 -0.231,14.189 0,0.4 2.715,0.231 2.358,0.231 z" />

	</g>

	<g
   id="XMLID_947_">
		<path
   style="fill:#323d4e"
   d="m 512.169,261.92 c -1.681,0 -4.293,-0.181 -8.554,-0.477 -2.74,-0.189 -6.155,-0.426 -10.412,-0.69 -0.505,-0.031 -1.237,-0.143 -1.765,-0.747 -0.872,-0.997 -0.757,-2.582 -0.415,-7.289 0.092,-1.267 0.2,-2.76 0.309,-4.519 0.026,-0.417 0.074,-1.193 0.695,-1.737 1.055,-0.926 2.87,-0.8 11.587,-0.196 2.741,0.19 6.157,0.427 10.417,0.691 0.505,0.031 1.237,0.143 1.765,0.747 0.872,0.997 0.757,2.583 0.416,7.29 -0.092,1.267 -0.2,2.759 -0.31,4.518 -0.026,0.417 -0.074,1.192 -0.695,1.737 -0.54,0.473 -1.279,0.672 -3.038,0.672 z m -19.225,-3.23 c 10e-4,0 0.08,0.048 0.383,0.067 4.263,0.265 7.682,0.501 10.426,0.691 5.958,0.413 9.563,0.665 10.134,0.296 -0.043,0.006 0.002,-0.09 0.019,-0.357 0.109,-1.767 0.218,-3.267 0.31,-4.539 0.222,-3.054 0.396,-5.466 0.074,-5.83 -10e-4,0 -0.08,-0.048 -0.383,-0.067 -4.265,-0.265 -7.686,-0.501 -10.431,-0.691 -5.955,-0.413 -9.56,-0.663 -10.129,-0.296 0.01,-0.012 -0.002,0.09 -0.019,0.357 -0.109,1.767 -0.218,3.267 -0.311,4.54 -0.221,3.054 -0.396,5.465 -0.073,5.829 z"
   id="path304" />

	</g>

	<g
   id="XMLID_931_">
		<path
   id="XMLID_933_"
   style="fill:#ee795c"
   d="m 571.183,321.652 c -1.652,-0.284 -4.276,1.123 -2.201,2.491 0.682,0.449 2.485,0.597 3.212,0.224 0.031,1.822 -4.209,1.558 -4.364,3.323 -0.295,3.343 16.467,3.776 16.449,-6.206 -0.004,-2.134 -1.887,-0.912 -3.369,-1.052 -9.94,-0.94 -14.699,-3.485 -9.727,1.22 z" />

		<path
   id="XMLID_930_"
   style="fill:#fda98b"
   d="m 575.32,304.713 c -8.053,-25.406 -26.184,-106.423 -26.402,-107.425 -0.478,-2.204 -0.227,-3.596 3.429,-4.342 22.833,-4.658 18.006,-11.977 25.55,35.818 3.612,23.085 3.146,51.434 7.208,75.736 5.307,17.623 4.162,16.94 3.184,18.576 -3.377,5.652 -1.186,6.702 -6.043,8.559 -8.592,3.285 -14.198,3.177 -12.614,0.547 1.752,-2.91 14.626,-1.01 13.182,-12.141 -1.025,-7.897 -8.49,-3.483 -8.64,0.694 -0.038,1.056 0.666,3.656 -1.428,5.755 -0.276,0.276 -0.753,0.231 -0.951,-0.105 -4.194,-7.101 0.216,-11.249 3.525,-21.672 z" />

	</g>

	<g
   id="XMLID_932_">
		<path
   id="XMLID_939_"
   style="fill:#ee795c"
   d="m 439.71,318.475 c 1.654,-0.275 4.269,1.146 2.187,2.503 -0.684,0.446 -2.489,0.583 -3.213,0.206 -0.042,1.822 4.2,1.581 4.346,3.347 0.276,3.345 -16.488,3.685 -16.414,-6.297 0.016,-2.134 1.892,-0.901 3.375,-1.033 9.943,-0.885 14.717,-3.404 9.719,1.274 z" />

		<path
   id="XMLID_938_"
   style="fill:#fda98b"
   d="m 435.667,301.513 c 8.194,-25.361 26.775,-106.276 26.998,-107.277 0.49,-2.202 0.247,-3.595 -3.405,-4.361 -22.807,-4.785 -17.939,-12.077 -25.748,35.676 -3.74,23.065 -3.432,51.415 -7.629,75.695 -5.405,17.593 -4.256,16.916 -3.287,18.558 3.346,5.671 1.149,6.708 5.996,8.592 8.573,3.332 14.18,3.255 12.611,0.617 -1.736,-2.919 -14.62,-1.092 -13.114,-12.214 1.069,-7.891 8.51,-3.436 8.636,0.742 0.032,1.056 -0.686,3.652 1.396,5.762 0.274,0.278 0.752,0.235 0.952,-0.1 4.232,-7.077 -0.155,-11.249 -3.406,-21.69 z" />

	</g>

	<g
   id="XMLID_929_">
		<path
   style="fill:#fffffb"
   d="m 568.077,148.544 c 6.938,9.374 16.124,48.595 12.432,51.609 -9.905,8.089 -23.985,12.966 -35.258,14.027 -10.947,-30.438 -10.107,-64.203 -6.405,-69.925 6.751,-10.434 23.62,-3.292 29.231,4.289 z"
   id="path305" />

		<path
   style="fill:#f2e8de"
   d="m 544.912,214.714 -0.131,-0.365 c -11.342,-31.536 -9.97,-64.777 -6.354,-70.366 2.219,-3.431 5.718,-5.317 10.118,-5.456 7.702,-0.226 16.336,4.856 19.934,9.718 6.992,9.447 16.339,49.034 12.347,52.295 -9.076,7.411 -23.021,12.96 -35.527,14.137 z m 4.172,-75.194 c -0.17,0 -0.339,0.003 -0.508,0.008 -4.116,0.13 -7.248,1.812 -9.31,4.999 -3.422,5.29 -4.583,38.501 6.325,69.118 12.222,-1.236 25.763,-6.66 34.602,-13.878 3.279,-2.678 -5.267,-41.127 -12.518,-50.925 -3.369,-4.553 -11.354,-9.322 -18.591,-9.322 z"
   id="path306" />

	</g>

	<g
   id="XMLID_946_">
		<path
   style="fill:#fffffb"
   d="m 447.737,148.544 c -6.938,9.374 -16.124,48.595 -12.433,51.609 9.905,8.089 23.985,12.966 35.258,14.027 10.947,-30.438 10.107,-64.203 6.405,-69.925 -6.75,-10.434 -23.618,-3.292 -29.23,4.289 z"
   id="path307" />

		<path
   style="fill:#f2e8de"
   d="m 470.902,214.714 -0.386,-0.037 c -12.506,-1.176 -26.452,-6.726 -35.528,-14.137 -3.992,-3.26 5.355,-42.847 12.347,-52.295 3.599,-4.862 12.222,-9.959 19.934,-9.718 4.4,0.139 7.899,2.025 10.118,5.456 3.616,5.589 4.987,38.83 -6.354,70.366 z m -22.763,-65.873 c -7.251,9.798 -15.797,48.247 -12.518,50.925 8.839,7.218 22.38,12.642 34.603,13.878 10.908,-30.616 9.746,-63.828 6.325,-69.118 -2.062,-3.188 -5.194,-4.869 -9.31,-4.999 -7.367,-0.207 -15.651,4.655 -19.1,9.314 z"
   id="path308" />

	</g>

	<g
   id="XMLID_928_">
		<path
   style="fill:#fffffb"
   d="m 523.42,131.623 c -6.547,15.889 -27.492,15.664 -33.76,-0.337 -9.263,2.822 -19.392,5.645 -28.655,8.468 2.217,26.538 -17.483,107.134 6.836,110.382 28.725,3.836 76.232,3.752 81.257,-0.878 1.735,-1.598 7.955,-6.088 7.775,-8.44 -6.831,-89.127 -8.323,-90.518 -5.052,-101.504 10e-4,-0.001 -10.428,-2.406 -28.401,-7.691 z"
   id="path309" />

		<path
   style="fill:#f2e8de"
   d="m 514.768,253.406 c -15.63,0 -33.503,-0.974 -46.992,-2.775 -17.233,-2.302 -13.166,-40.61 -9.578,-74.409 1.54,-14.51 2.996,-28.216 2.31,-36.427 l -0.034,-0.402 0.386,-0.118 c 4.631,-1.411 9.558,-2.845 14.323,-4.232 4.769,-1.388 9.7,-2.824 14.332,-4.235 l 0.442,-0.135 0.168,0.431 c 2.829,7.221 9.089,11.747 16.34,11.81 0.051,0 0.103,0 0.154,0 7.164,0 13.414,-4.387 16.337,-11.481 l 0.171,-0.417 0.432,0.127 c 17.75,5.22 28.269,7.659 28.373,7.683 l 0.519,0.12 -0.152,0.51 c -2.431,8.167 -2.175,11.298 0.959,49.64 1.019,12.465 2.415,29.536 4.112,51.684 0.15,1.966 -2.95,4.698 -6.417,7.559 -0.63,0.521 -1.167,0.963 -1.518,1.286 -2.805,2.587 -17.361,3.781 -34.667,3.781 z M 461.536,140.114 c 0.616,8.343 -0.822,21.887 -2.343,36.213 -3.365,31.694 -7.553,71.139 8.716,73.312 30.054,4.013 76.146,3.585 80.851,-0.75 0.36,-0.332 0.912,-0.788 1.559,-1.322 2.16,-1.783 6.18,-5.101 6.057,-6.712 -1.697,-22.145 -3.093,-39.214 -4.112,-51.678 -3.084,-37.722 -3.394,-41.517 -1.071,-49.499 -2.299,-0.547 -12.159,-2.952 -27.486,-7.45 -3.174,7.285 -9.729,11.71 -17.25,11.685 -7.522,-0.066 -14.031,-4.657 -17.089,-12.016 -4.509,1.37 -9.284,2.76 -13.906,4.105 -4.63,1.348 -9.413,2.741 -13.926,4.112 z"
   id="path310" />

	</g>

	<path
   id="XMLID_818_"
   style="fill:#e5d7d6"
   d="m 535.402,200.87 c -19.726,3.451 -49.08,7.555 -59.796,0 -2.145,-1.512 -4.752,-2.399 -4.752,-5.358 0,-10.675 -1.234,-16.06 4.752,-16.907 22.859,-3.236 59.796,0 59.796,0 2.624,0 4.752,2.399 4.752,5.358 0,11.066 1.21,15.864 -4.752,16.907 z" />

	<g
   id="XMLID_829_">
		<g
   id="XMLID_972_">
			<path
   style="fill:#f2e8de"
   d="m 483.052,250.358 c -0.132,0 -0.265,-0.052 -0.363,-0.156 -4.623,-4.883 -7.848,-10.931 -9.328,-17.492 -0.061,-0.269 0.108,-0.537 0.378,-0.598 0.267,-0.059 0.537,0.108 0.598,0.378 1.44,6.385 4.58,12.271 9.079,17.024 0.189,0.201 0.181,0.517 -0.02,0.707 -0.097,0.092 -0.221,0.137 -0.344,0.137 z"
   id="path311" />

		</g>

		<g
   id="XMLID_973_">
			<path
   style="fill:#f2e8de"
   d="m 529.56,251.91 c -0.241,0 -0.453,-0.174 -0.493,-0.419 -0.045,-0.272 0.14,-0.53 0.412,-0.574 7.305,-1.201 13.792,-7.02 15.776,-14.151 0.075,-0.267 0.353,-0.419 0.616,-0.348 0.266,0.074 0.422,0.35 0.348,0.616 -2.118,7.613 -8.78,13.588 -16.578,14.87 -0.027,0.004 -0.055,0.006 -0.081,0.006 z"
   id="path312" />

		</g>

		<g
   id="XMLID_974_">
			<path
   style="fill:#f2e8de"
   d="m 503.57,252.554 c -1.927,-0.033 -4.769,-4.346 -5.563,-6.179 -0.109,-0.253 0.007,-0.548 0.26,-0.658 0.255,-0.109 0.548,0.007 0.658,0.26 0.969,2.237 3.579,5.558 4.639,5.576 0.059,-0.006 0.142,0.002 0.239,-0.202 l 5.496,-11.575 c 0.119,-0.25 0.416,-0.355 0.666,-0.237 0.25,0.119 0.356,0.417 0.237,0.666 l -5.497,11.575 c -0.236,0.5 -0.639,0.774 -1.135,0.774 z"
   id="path313" />

		</g>

		<g
   id="XMLID_821_">
			<path
   style="fill:#f2e8de"
   d="m 452.298,206.317 c -0.07,0 -0.142,-0.015 -0.21,-0.046 -5.576,-2.58 -11.036,-5.558 -16.229,-8.85 -0.233,-0.148 -0.303,-0.457 -0.155,-0.69 0.147,-0.234 0.456,-0.304 0.69,-0.155 5.156,3.269 10.577,6.225 16.113,8.787 0.25,0.116 0.36,0.413 0.244,0.664 -0.084,0.183 -0.264,0.29 -0.453,0.29 z"
   id="path314" />

		</g>

		<g
   id="XMLID_826_">
			<path
   style="fill:#f2e8de"
   d="m 557.675,208.125 c -0.242,0 -0.455,-0.176 -0.493,-0.422 -0.043,-0.273 0.143,-0.529 0.416,-0.572 7.616,-1.205 14.853,-5.261 19.855,-11.127 0.178,-0.21 0.496,-0.236 0.705,-0.056 0.211,0.179 0.235,0.495 0.056,0.705 -5.155,6.046 -12.612,10.225 -20.46,11.466 -0.027,0.004 -0.053,0.006 -0.079,0.006 z"
   id="path315" />

		</g>

		<g
   id="XMLID_827_">
			<path
   style="fill:#f2e8de"
   d="m 505.891,148.76 c -0.304,0 -0.609,-0.006 -0.915,-0.018 -8.691,-0.343 -16.21,-5.458 -19.623,-13.348 -0.109,-0.253 0.007,-0.547 0.261,-0.657 0.253,-0.11 0.548,0.007 0.657,0.261 3.258,7.534 10.44,12.418 18.744,12.745 8.27,0.337 15.783,-3.978 19.624,-11.232 0.129,-0.244 0.432,-0.337 0.676,-0.208 0.244,0.129 0.337,0.432 0.208,0.676 -3.881,7.327 -11.344,11.781 -19.632,11.781 z"
   id="path316" />

		</g>

	</g>

</g>
  </g>
</svg>
