<?xml version="1.0" encoding="UTF-8" standalone="no"?>
<!-- Created with Inkscape (http://www.inkscape.org/) -->

<svg
   width="51.622654mm"
   height="127.44884mm"
   viewBox="0 0 51.622654 127.44884"
   version="1.1"
   id="svg1"
   inkscape:version="1.4.2 (f4327f4, 2025-05-13)"
   sodipodi:docname="man4.svg"
   xmlns:inkscape="http://www.inkscape.org/namespaces/inkscape"
   xmlns:sodipodi="http://sodipodi.sourceforge.net/DTD/sodipodi-0.dtd"
   xmlns="http://www.w3.org/2000/svg"
   xmlns:svg="http://www.w3.org/2000/svg">
  <sodipodi:namedview
     id="namedview1"
     pagecolor="#ffffff"
     bordercolor="#000000"
     borderopacity="0.25"
     inkscape:showpageshadow="2"
     inkscape:pageopacity="0.0"
     inkscape:pagecheckerboard="0"
     inkscape:deskcolor="#d1d1d1"
     inkscape:document-units="mm"
     inkscape:zoom="1.2275954"
     inkscape:cx="-166.99313"
     inkscape:cy="73.314058"
     inkscape:window-width="2880"
     inkscape:window-height="1676"
     inkscape:window-x="-12"
     inkscape:window-y="-12"
     inkscape:window-maximized="1"
     inkscape:current-layer="layer1" />
  <defs
     id="defs1" />
  <g
     inkscape:label="图层 1"
     inkscape:groupmode="layer"
     id="layer1"
     transform="translate(-149.22498,-129.11666)">
    <g
       id="XMLID_180_"
       transform="matrix(0.26458333,0,0,0.26458333,-162.06347,114.31649)">
	<g
   id="XMLID_729_">
		<path
   style="fill:#efbea9"
   d="m 1293.716,125.419 c 1.573,4.432 -12.234,10.122 -27.742,10.122 -15.508,0 -30.512,-6.138 -28.043,-10.14 2.255,-3.655 12.446,-1.015 27.954,-1.015 15.508,0 25.703,-4.963 27.831,1.033 z"
   id="path208" />

		<path
   style="fill:#efbea9"
   d="m 1265.974,135.998 c -13.354,0 -26.235,-4.522 -28.406,-8.413 -0.473,-0.847 -0.481,-1.685 -0.025,-2.424 1.629,-2.642 6.46,-2.324 14.461,-1.798 4.034,0.265 8.606,0.566 13.882,0.566 5.624,0 10.628,-0.667 14.649,-1.203 7.308,-0.976 12.138,-1.618 13.612,2.541 0.312,0.876 0.127,1.834 -0.532,2.768 -2.706,3.829 -14.043,7.963 -27.641,7.963 z m -21.501,-12.079 c -3.209,0 -5.337,0.398 -6.153,1.721 -0.279,0.453 -0.265,0.944 0.046,1.5 2.009,3.598 14.771,7.944 27.608,7.944 12.887,0 24.309,-3.918 26.893,-7.577 0.488,-0.69 0.629,-1.341 0.418,-1.935 -1.228,-3.461 -5.52,-2.89 -12.63,-1.941 -4.048,0.54 -9.086,1.211 -14.771,1.211 -5.306,0 -9.894,-0.302 -13.942,-0.568 -2.894,-0.19 -5.406,-0.355 -7.469,-0.355 z"
   id="path209" />

	</g>

	<path
   id="XMLID_673_"
   style="fill:#fda98b"
   d="m 1276.193,113.071 c -0.138,11.329 -3.891,19.73 16.944,29.534 -12.402,17.062 -24.616,23.367 -24.616,23.367 0,0 -26.13,-11.762 -35.109,-19.545 4.672,-3.399 9.549,-5.939 13.858,-8.967 8.512,-5.981 3.49,-19.271 5.152,-24.178 z" />

	<path
   id="XMLID_671_"
   style="fill:#fda98b"
   d="m 1280.041,74.389 c -10.089,-14.108 -33.894,-10.545 -36.665,11.103 -2.749,21.473 7.644,38.382 13.68,40.035 5.47,1.499 10.872,2.159 15.443,-0.933 12.009,-8.123 16.645,-37.476 7.542,-50.205 z" />

	<path
   id="XMLID_1059_"
   style="fill:#7b3b23"
   d="m 1250.583,60.007 c -16.016,12.765 -11.133,21.055 -7.007,41.032 -1.671,-10.821 10.982,-28.125 8.873,-23.726 -6.671,13.916 3.067,0.87 17.27,6.794 1,0.417 1.796,0.233 5.794,-0.928 4.124,-1.197 9.049,15.049 9.049,15.049 4.229,-7.055 4.732,-19.135 4.732,-19.135 -1.312,-23.67 -30.71,-27.654 -32.721,-18.874 -1.239,-0.051 -4.12,-1.702 -5.99,-0.212 z" />

	<g
   id="XMLID_1012_">
		<g
   id="XMLID_1045_">
			<path
   id="XMLID_797_"
   style="fill:#682c1c"
   d="m 1256.859,60.556 c 0.275,0.014 0.487,0.248 0.473,0.523 -0.061,1.227 0.026,5.517 3.722,9.217 0.195,0.195 0.195,0.511 0,0.706 -1.612,1.609 -6.751,-10.551 -4.195,-10.446 z" />

		</g>

		<g
   id="XMLID_1036_">
			<path
   id="XMLID_796_"
   style="fill:#682c1c"
   d="m 1245.382,76.106 c -1.22,-0.19 0.882,-8.648 7.778,-12.872 0.562,-0.345 1.084,0.507 0.522,0.851 -4.102,2.513 -6.992,6.851 -7.73,11.604 -0.042,0.268 -0.291,0.459 -0.57,0.417 z" />

		</g>

		<g
   id="XMLID_1034_">
			<path
   id="XMLID_795_"
   style="fill:#682c1c"
   d="m 1253.081,75.365 c 0.45,-0.26 1.967,-2.138 1.283,-4.581 -0.178,-0.636 0.784,-0.903 0.961,-0.269 0.808,2.887 -0.898,5.226 -1.745,5.715 -0.571,0.329 -1.07,-0.535 -0.499,-0.865 z" />

		</g>

		<g
   id="XMLID_1032_">
			<path
   id="XMLID_794_"
   style="fill:#682c1c"
   d="m 1243.221,87.168 c -1.429,-5.918 -1.845,-6.151 -1.14,-6.346 0.791,-0.216 0.883,1.035 2.111,6.112 0.154,0.641 -0.816,0.876 -0.971,0.234 z" />

		</g>

		<g
   id="XMLID_1030_">
			<path
   id="XMLID_793_"
   style="fill:#682c1c"
   d="m 1272.237,62.086 c -2.691,-2.639 -8.65,-4.087 -12.011,-1.926 -0.232,0.149 -0.541,0.082 -0.69,-0.15 -1.005,-1.565 8.125,-3.808 13.4,1.364 0.471,0.462 -0.228,1.175 -0.699,0.712 z" />

		</g>

		<g
   id="XMLID_1028_">
			<path
   id="XMLID_792_"
   style="fill:#682c1c"
   d="m 1274.442,70.42 c -3.39,-3.535 -8.19,-2.427 -10.59,-0.819 -0.229,0.152 -0.54,0.091 -0.693,-0.137 -0.753,-1.125 7.093,-4.857 12.003,0.265 0.457,0.476 -0.264,1.168 -0.72,0.691 z" />

		</g>

		<g
   id="XMLID_1025_">
			<path
   id="XMLID_791_"
   style="fill:#682c1c"
   d="m 1263.586,62.965 c 4.202,-1.097 3.856,1.791 2.76,1.12 -1.067,-0.656 -3.632,-0.236 -4.357,1.063 -0.627,1.121 -2.239,-1.182 1.597,-2.183 z" />

		</g>

		<g
   id="XMLID_1023_">
			<path
   id="XMLID_790_"
   style="fill:#682c1c"
   d="m 1269.685,82.451 c 0.682,-2.214 -0.417,-5.058 -2.353,-6.085 -0.583,-0.31 -0.116,-1.19 0.468,-0.882 2.365,1.255 3.665,4.58 2.839,7.261 -0.194,0.631 -1.148,0.337 -0.954,-0.294 z" />

		</g>

		<g
   id="XMLID_1021_">
			<path
   id="XMLID_789_"
   style="fill:#682c1c"
   d="m 1255.38,81.546 c 0,-3.468 5.443,-7.872 5.811,-6.134 0.057,0.269 -0.115,0.534 -0.385,0.591 -1.642,0.347 -4.427,3.554 -4.427,5.542 -10e-4,0.661 -0.999,0.661 -0.999,0.001 z" />

		</g>

		<g
   id="XMLID_1019_">
			<path
   id="XMLID_788_"
   style="fill:#682c1c"
   d="m 1276.626,81.703 c 1.466,-1.944 2.64,-4.253 1.312,-7.959 -0.222,-0.619 0.715,-0.96 0.94,-0.337 1.491,4.164 0.101,6.834 -1.455,8.897 -0.398,0.527 -1.195,-0.074 -0.797,-0.601 z" />

		</g>

		<g
   id="XMLID_1015_">
			<path
   id="XMLID_787_"
   style="fill:#682c1c"
   d="m 1284.512,87.275 c -1,-0.376 -0.036,-0.25 1.34,-5.954 0.155,-0.642 1.125,-0.408 0.97,0.234 -0.219,0.91 -1.434,6.05 -2.31,5.72 z" />

		</g>

		<g
   id="XMLID_1013_">
			<path
   id="XMLID_786_"
   style="fill:#682c1c"
   d="m 1286.033,74.754 c -0.508,-3.093 -2.954,-7.347 -6.02,-8.827 -0.249,-0.12 -0.352,-0.418 -0.233,-0.666 1.295,-2.691 9.223,9.512 6.826,9.905 -0.275,0.044 -0.529,-0.143 -0.573,-0.412 z" />

		</g>

	</g>

	<g
   id="XMLID_661_">
		<g
   id="XMLID_668_">
			<path
   id="XMLID_669_"
   style="fill:#fda98b"
   d="m 1240.923,95.089 c 4.102,-1.206 4.36,7.383 4.371,11.647 0.02,8.405 -10.831,-9.747 -4.371,-11.647 z" />

		</g>

		<g
   id="XMLID_666_">
			<path
   id="XMLID_667_"
   style="fill:#ee795c"
   d="m 1241.798,99.289 c 0.121,-0.393 0.709,-0.207 0.59,0.181 -0.723,2.362 0,3.747 0.966,4.28 0.149,0.082 0.204,0.27 0.122,0.419 -0.545,0.993 -2.711,-1.503 -1.678,-4.88 z" />

		</g>

		<g
   id="XMLID_664_">
			<path
   id="XMLID_665_"
   style="fill:#fda98b"
   d="m 1286.715,94.971 c -4.102,-1.206 -4.36,7.384 -4.371,11.647 -0.02,8.405 10.832,-9.747 4.371,-11.647 z" />

		</g>

		<g
   id="XMLID_662_">
			<path
   id="XMLID_663_"
   style="fill:#ee795c"
   d="m 1285.84,99.171 c -0.121,-0.393 -0.709,-0.207 -0.59,0.181 0.723,2.362 0.01,3.747 -0.966,4.28 -0.15,0.082 -0.204,0.27 -0.122,0.419 0.545,0.993 2.712,-1.502 1.678,-4.88 z" />

		</g>

	</g>

	<g
   id="XMLID_654_">
		<path
   id="XMLID_660_"
   style="fill:#382823"
   d="m 1254.328,98.719 c -1.344,0 -2.395,-5.109 0.865,-5.109 1.739,0 1.334,5.109 -0.865,5.109 z" />

		<path
   id="XMLID_659_"
   style="fill:#382823"
   d="m 1274.288,98.922 c 1.344,0 2.395,-5.109 -0.865,-5.109 -1.74,0 -1.334,5.109 0.865,5.109 z" />

	</g>

	<g
   id="XMLID_651_">
		<path
   id="XMLID_653_"
   style="fill:#ee795c"
   d="m 1252.56,122.208 c 0.168,-0.13 0.41,-0.098 0.54,0.07 3.526,4.571 15.965,6.123 21.935,-0.402 0.344,-0.376 0.91,0.145 0.568,0.52 -8.816,9.631 -25.255,1.517 -23.043,-0.188 z" />

	</g>

	<g
   id="XMLID_624_">
		<path
   id="XMLID_646_"
   style="fill:#7b3b23"
   d="m 1258.74,88.461 c -4.412,-1.757 -13.072,1.882 -10.605,2.815 0.806,0.305 3.373,-0.72 4.309,-0.822 1.878,-0.205 5.312,0.61 6.486,-0.409 0.482,-0.418 0.372,-1.36 -0.19,-1.584 z" />

		<path
   id="XMLID_643_"
   style="fill:#7b3b23"
   d="m 1268.726,89.914 c 1.137,1.059 4.598,0.366 6.467,0.636 0.932,0.135 3.461,1.249 4.277,0.973 2.499,-0.846 -6.044,-4.832 -10.499,-3.186 -0.631,0.233 -0.712,1.141 -0.245,1.577 z" />

		<g
   id="XMLID_626_">
			<path
   id="XMLID_627_"
   style="fill:#ee795c"
   d="m 1262.065,107.038 c -0.135,-0.567 0.828,-0.619 1.432,-0.754 2.218,-0.495 2.317,0.592 1.287,-8.716 -0.201,-1.817 -0.508,-2.793 0.14,-2.844 0.612,-0.038 0.449,0.683 0.678,2.753 1.119,10.11 1.142,8.868 -3.04,9.865 -0.218,0.053 -0.443,-0.08 -0.497,-0.304 z" />

		</g>

		<path
   id="XMLID_625_"
   style="fill:#fff5ed"
   d="m 1258.293,114.953 c -0.624,-0.928 1.212,-0.697 12.087,-1.828 2.79,-0.289 -6.859,9.603 -12.087,1.828 z" />

	</g>

	<g
   id="XMLID_178_">
		<path
   id="XMLID_775_"
   style="fill:#fda98b"
   d="m 1301.163,517.759 c 3.762,2.896 7.869,3.633 13.174,0.574 l -0.752,-26.053 -16.809,0.473 z" />

		<g
   id="XMLID_762_">
			<g
   id="XMLID_773_">
				<path
   style="fill:#f2e8de"
   d="m 1316.57,534.234 c -1.752,1.275 -1.499,0.924 -39.566,2.734 -7.622,0.362 -7.958,-3.569 -4.014,-6.023 6.006,-3.736 27.713,-15.749 29.089,-14.94 1.156,0.68 3.933,2.179 6.036,2.217 2.846,0.051 6.384,-0.507 6.629,-0.059 2.579,4.701 6.161,12.915 1.826,16.071 z"
   id="path210" />

				<path
   style="fill:#fffffb"
   d="m 1276.084,537.49 c -3.313,0 -5.468,-0.9 -5.974,-2.521 -0.454,-1.459 0.548,-3.163 2.616,-4.45 3.1,-1.928 27.64,-16.102 29.606,-14.945 1.076,0.634 3.796,2.111 5.791,2.147 1.169,0.021 2.448,-0.061 3.581,-0.135 2.421,-0.156 3.195,-0.18 3.478,0.335 2.627,4.788 6.338,13.326 1.682,16.716 -1.485,1.082 -1.485,1.082 -19.787,1.906 -5.104,0.229 -11.642,0.523 -20.05,0.923 -0.323,0.016 -0.638,0.024 -0.943,0.024 z m 25.69,-21.057 c -1.998,0 -21.587,10.624 -28.521,14.937 -1.637,1.019 -2.496,2.315 -2.188,3.303 0.4,1.283 2.613,1.949 5.915,1.797 8.408,-0.4 14.947,-0.694 20.052,-0.924 17.833,-0.803 18.013,-0.819 19.244,-1.716 4.003,-2.914 0.558,-10.791 -1.907,-15.311 -0.383,-0.077 -1.604,0.002 -2.6,0.065 -1.153,0.074 -2.459,0.156 -3.663,0.138 -2.152,-0.039 -4.859,-1.449 -6.281,-2.286 -0.014,-0.002 -0.032,-0.003 -0.051,-0.003 z"
   id="path211" />

			</g>

			<g
   id="XMLID_771_">
				<path
   style="fill:#f2e8de"
   d="m 1318.327,527.165 c 1.414,6.697 -2.353,7.696 -4.74,8.05 -1.002,0.149 -39.546,3.076 -41.859,1.029 -0.367,-0.324 -1.3,-1.082 -1.196,-2.213 z"
   id="path212" />

				<path
   style="fill:#fffffb"
   d="m 1318.376,527.155 c 0.308,1.12 0.542,2.283 0.487,3.486 -0.051,1.181 -0.4,2.48 -1.32,3.415 -0.904,0.946 -2.162,1.39 -3.333,1.65 -1.24,0.246 -2.34,0.307 -3.509,0.454 -4.614,0.482 -9.239,0.775 -13.865,1.099 -4.633,0.183 -9.267,0.412 -13.914,0.37 -2.324,-0.038 -4.648,-0.08 -6.978,-0.262 -1.164,-0.117 -2.326,-0.232 -3.495,-0.546 l -0.441,-0.152 c -0.147,-0.062 -0.313,-0.176 -0.445,-0.268 -0.206,-0.201 -0.425,-0.419 -0.604,-0.665 -0.362,-0.485 -0.584,-1.117 -0.479,-1.711 l 0.1,0.009 c -0.056,0.568 0.187,1.124 0.556,1.554 0.182,0.22 0.394,0.412 0.613,0.602 0.121,0.068 0.234,0.142 0.365,0.192 l 0.411,0.118 c 1.124,0.238 2.287,0.291 3.44,0.341 2.311,0.091 4.627,0.058 6.94,0.012 4.628,-0.106 9.252,-0.329 13.874,-0.591 4.623,-0.25 9.244,-0.541 13.861,-0.879 1.15,-0.103 2.318,-0.133 3.448,-0.323 1.12,-0.208 2.261,-0.583 3.086,-1.388 0.852,-0.777 1.243,-1.935 1.356,-3.065 0.109,-1.146 -0.04,-2.301 -0.255,-3.433 z"
   id="path213" />

			</g>

			<g
   id="XMLID_769_">
				<path
   style="fill:#f2e8de"
   d="m 1293.241,520.655 c 1.307,1.736 3.097,3.106 5.115,3.914 z"
   id="path214" />

				<g
   id="g215">
					<path
   style="fill:#fffffb"
   d="m 1298.17,525.033 c -2.117,-0.848 -3.959,-2.258 -5.328,-4.077 l 0.799,-0.602 c 1.26,1.674 2.954,2.971 4.9,3.751 z"
   id="path215" />

				</g>

			</g>

			<g
   id="XMLID_767_">
				<path
   style="fill:#f2e8de"
   d="m 1289.489,522.916 c -0.095,1.542 2.992,3.439 4.433,4.085 z"
   id="path216" />

				<g
   id="g217">
					<path
   style="fill:#fffffb"
   d="m 1293.718,527.456 c -0.049,-0.022 -4.872,-2.248 -4.727,-4.571 l 0.998,0.063 c -0.065,1.051 2.366,2.803 4.138,3.597 z"
   id="path217" />

				</g>

			</g>

			<g
   id="XMLID_765_">
				<path
   style="fill:#f2e8de"
   d="m 1285.505,525.197 c 0.854,2.11 3.19,3.07 4.857,3.775 z"
   id="path218" />

				<g
   id="g219">
					<path
   style="fill:#fffffb"
   d="m 1290.168,529.433 c -1.82,-0.769 -4.208,-1.778 -5.127,-4.049 l 0.928,-0.375 c 0.763,1.886 2.93,2.802 4.512,3.47 l -0.118,0.493 z"
   id="path219" />

				</g>

			</g>

			<g
   id="XMLID_763_">
				<path
   style="fill:#f2e8de"
   d="m 1274.648,531.132 c 0.748,3.434 5.759,2.898 9.272,2.901 z"
   id="path220" />

				<g
   id="g221">
					<path
   style="fill:#fffffb"
   d="m 1281.266,534.561 c -3.125,0 -6.455,-0.336 -7.105,-3.322 l 0.977,-0.213 c 0.574,2.633 4.246,2.572 7.494,2.521 0.444,-0.008 0.904,-0.025 1.29,-0.014 v 1 c -0.412,-0.015 -0.835,0.007 -1.274,0.014 -0.451,0.007 -0.915,0.014 -1.382,0.014 z"
   id="path221" />

				</g>

			</g>

		</g>

	</g>

	<path
   id="XMLID_751_"
   style="fill:#ffffff"
   d="m 1238.979,526.951 c 0.307,1.12 0.542,2.283 0.487,3.486 -0.051,1.181 -0.4,2.48 -1.32,3.415 -0.905,0.946 -2.162,1.39 -3.333,1.65 -1.24,0.246 -2.34,0.307 -3.509,0.454 -4.614,0.482 -9.239,0.775 -13.865,1.099 -4.633,0.183 -9.267,0.412 -13.914,0.37 -2.324,-0.038 -4.648,-0.08 -6.978,-0.262 -1.164,-0.117 -2.326,-0.232 -3.495,-0.546 l -0.44,-0.152 c -0.147,-0.062 -0.313,-0.176 -0.445,-0.268 -0.206,-0.201 -0.425,-0.419 -0.604,-0.665 -0.362,-0.485 -0.584,-1.117 -0.479,-1.711 l 0.1,0.009 c -0.056,0.568 0.187,1.124 0.556,1.554 0.182,0.22 0.394,0.412 0.613,0.602 0.121,0.068 0.234,0.142 0.365,0.192 l 0.411,0.118 c 1.124,0.238 2.288,0.291 3.44,0.341 2.311,0.092 4.627,0.058 6.94,0.012 4.628,-0.106 9.253,-0.329 13.874,-0.591 4.623,-0.25 9.244,-0.541 13.861,-0.879 1.15,-0.103 2.319,-0.133 3.449,-0.323 1.12,-0.208 2.261,-0.584 3.086,-1.388 0.852,-0.777 1.243,-1.935 1.356,-3.065 0.109,-1.146 -0.04,-2.301 -0.255,-3.433 z" />

	<g
   id="XMLID_58_">
		<polygon
   id="XMLID_774_"
   style="fill:#fda98b"
   points="1221.529,517.415 1234.841,518.689 1237.216,493.956 1220.938,494.414 " />

		<g
   id="XMLID_761_">
			<path
   style="fill:#f2e8de"
   d="m 1237.174,534.03 c -1.752,1.275 -1.499,0.924 -39.566,2.734 -7.622,0.362 -7.958,-3.569 -4.014,-6.023 6.006,-3.736 27.713,-15.749 29.089,-14.94 3.898,2.294 5.875,2.67 11.993,1.82 1,-0.139 7.747,12.588 2.498,16.409 z"
   id="path222" />

			<path
   style="fill:#fffffb"
   d="m 1196.687,537.287 c -3.313,0 -5.468,-0.9 -5.974,-2.52 -0.454,-1.459 0.548,-3.163 2.616,-4.45 3.099,-1.928 27.645,-16.103 29.606,-14.945 3.653,2.149 5.52,2.61 11.67,1.755 1.28,-0.189 3.357,4.926 3.446,5.144 1.1,2.729 3.247,9.375 -0.585,12.165 -1.486,1.082 -1.486,1.082 -19.787,1.906 -5.103,0.229 -11.642,0.523 -20.05,0.923 -0.322,0.014 -0.637,0.022 -0.942,0.022 z m 25.691,-21.057 c -2,0 -21.588,10.624 -28.521,14.936 -1.637,1.018 -2.496,2.315 -2.188,3.303 0.4,1.283 2.614,1.949 5.915,1.797 8.408,-0.4 14.947,-0.694 20.051,-0.924 17.833,-0.803 18.013,-0.819 19.245,-1.716 l 0.294,0.404 -0.294,-0.404 c 1.291,-0.94 1.882,-2.587 1.755,-4.895 -0.252,-4.606 -3.211,-9.96 -4.013,-10.598 -5.973,0.825 -8.155,0.477 -12.193,-1.9 -0.015,-0.002 -0.033,-0.003 -0.051,-0.003 z"
   id="path223" />

		</g>

		<g
   id="XMLID_749_">
			<path
   style="fill:#ffffff"
   d="m 1218.959,524.866 c -0.063,0 -0.125,-0.012 -0.185,-0.036 -2.116,-0.848 -3.959,-2.258 -5.329,-4.078 -0.166,-0.221 -0.122,-0.534 0.099,-0.7 0.219,-0.165 0.533,-0.124 0.7,0.099 1.26,1.674 2.955,2.972 4.901,3.752 0.257,0.102 0.381,0.394 0.278,0.649 -0.078,0.195 -0.266,0.314 -0.464,0.314 z"
   id="path224" />

		</g>

	</g>

	<g
   id="XMLID_747_">
		<path
   style="fill:#ffffff"
   d="m 1214.524,527.297 c -0.068,0 -0.138,-0.014 -0.204,-0.044 -0.049,-0.021 -4.87,-2.249 -4.728,-4.571 0.018,-0.275 0.258,-0.495 0.529,-0.469 0.276,0.017 0.485,0.254 0.469,0.529 -0.064,1.052 2.366,2.805 4.138,3.599 0.252,0.112 0.365,0.408 0.252,0.66 -0.083,0.186 -0.265,0.296 -0.456,0.296 z"
   id="path225" />

	</g>

	<g
   id="XMLID_745_">
		<path
   style="fill:#ffffff"
   d="m 1210.77,529.23 c -1.82,-0.77 -4.207,-1.778 -5.127,-4.049 -0.104,-0.256 0.02,-0.547 0.276,-0.651 0.255,-0.104 0.547,0.021 0.651,0.276 0.763,1.886 2.929,2.801 4.511,3.47 l -0.117,0.493 z"
   id="path226" />

	</g>

	<g
   id="XMLID_742_">
		<path
   style="fill:#ffffff"
   d="m 1201.868,534.357 c -3.125,0 -6.454,-0.336 -7.105,-3.322 -0.059,-0.27 0.112,-0.536 0.382,-0.595 0.273,-0.058 0.536,0.112 0.595,0.382 0.575,2.633 4.246,2.574 7.494,2.52 0.444,-0.008 0.905,-0.029 1.29,-0.014 0.276,0 0.5,0.225 0.5,0.5 0,0.276 -0.224,0.5 -0.5,0.5 -0.41,-0.016 -0.835,0.007 -1.275,0.014 -0.449,0.009 -0.913,0.015 -1.381,0.015 z"
   id="path227" />

	</g>

	<g
   id="XMLID_703_">
		<path
   style="fill:#748999"
   d="m 1314.203,246.658 c 0.106,4.518 6.554,266.122 3.037,266.463 -2.569,0.249 -19.738,1.532 -20.306,-1.058 -20.423,-93.05 -29.946,-183.941 -29.946,-183.941 -11.303,71.739 1.319,70.667 -27.71,182.339 -0.587,2.257 -21.04,3.585 -21.026,0.208 0.089,-20.982 1.145,-275.81 -0.01,-257.721 13.373,-0.912 95.957,-6.29 95.957,-6.29 z"
   id="path228" />

		<path
   style="fill:#3d4a61"
   d="m 1306.044,514.188 c -4.739,0 -9.25,-0.427 -9.599,-2.018 -17.872,-81.427 -27.496,-162.117 -29.54,-180.236 -3.575,23.613 -4.49,39.022 -5.377,53.95 -1.622,27.309 -3.154,53.103 -21.766,124.702 -0.587,2.259 -12.546,3.054 -17.759,2.379 -2.865,-0.373 -4.256,-1.125 -4.251,-2.298 0.105,-25.105 0.974,-238.375 0.231,-257.201 l -0.272,0.018 0.036,-0.569 c 0.061,-0.964 0.064,-1.424 0.627,-1.386 0.28,0.009 0.44,0.015 0.54,0.871 15.167,-1.025 94.443,-6.189 95.256,-6.242 l 0.52,-0.034 0.037,1.538 c 0.429,17.701 1.91,80.072 2.954,139.482 2.217,126.221 0.583,126.379 -0.394,126.474 -0.431,0.042 -5.978,0.57 -11.243,0.57 z m -38.956,-189.912 0.398,3.794 c 0.096,0.908 9.754,91.929 29.936,183.885 0.336,1.529 11.72,1.431 19.549,0.689 2.194,-6.291 -0.363,-146.206 -3.243,-264.957 l -0.012,-0.497 c -6.924,0.451 -80.187,5.225 -94.728,6.207 0.072,1.48 0.099,4.137 0.146,8.917 0.063,6.235 0.106,15.416 0.127,27.29 0.038,20.191 0.017,48.506 -0.062,84.159 -0.129,58.815 -0.375,119.66 -0.447,136.907 -10e-4,0.304 0.54,0.746 2.063,1.078 5.636,1.234 17.418,-0.179 17.981,-1.422 18.585,-71.497 20.114,-97.244 21.733,-124.503 0.934,-15.724 1.899,-31.982 5.964,-57.78 z"
   id="path229" />

	</g>

	<g
   id="XMLID_607_">
		<g
   id="XMLID_603_">
			<path
   style="fill:#3d4a61"
   d="m 1267.158,318.732 c -0.261,0 -0.485,-0.195 -0.517,-0.46 -2.225,-18.812 -1.457,-30.756 -0.897,-39.477 0.481,-7.495 0.772,-12.019 -1.29,-15.743 -0.14,-0.252 -0.049,-0.569 0.203,-0.708 0.251,-0.139 0.569,-0.049 0.709,0.204 2.211,3.992 1.913,8.63 1.419,16.315 -0.557,8.681 -1.32,20.57 0.892,39.287 0.034,0.286 -0.17,0.546 -0.456,0.579 -0.022,0.001 -0.042,0.003 -0.063,0.003 z"
   id="path230" />

		</g>

		<g
   id="XMLID_599_">
			<path
   style="fill:#3d4a61"
   d="m 1235.785,508.428 c -0.043,0 -0.086,-0.005 -0.13,-0.017 -0.279,-0.071 -0.447,-0.355 -0.375,-0.635 13.346,-51.899 17.14,-96.396 19.909,-128.885 1.826,-21.409 3.144,-36.878 6.403,-46.061 0.095,-0.27 0.394,-0.415 0.666,-0.316 0.271,0.096 0.413,0.395 0.316,0.666 -3.213,9.056 -4.527,24.468 -6.347,45.799 -2.772,32.526 -6.571,77.072 -19.938,129.057 -0.06,0.236 -0.272,0.392 -0.504,0.392 z"
   id="path231" />

		</g>

		<g
   id="XMLID_593_">
			<path
   style="fill:#3d4a61"
   d="m 1220.246,314.11 c -0.16,0 -0.318,-0.073 -0.42,-0.213 -0.171,-0.231 -0.121,-0.559 0.111,-0.728 11.737,-8.625 11.766,-11.489 11.923,-27.382 0.018,-1.855 0.038,-3.883 0.079,-6.114 0,-0.285 0.237,-0.512 0.521,-0.512 0.298,0.005 0.526,0.243 0.521,0.531 -0.041,2.228 -0.061,4.254 -0.079,6.105 -0.157,15.958 -0.19,19.278 -12.349,28.212 -0.091,0.068 -0.2,0.101 -0.307,0.101 z"
   id="path232" />

		</g>

		<g
   id="XMLID_595_">
			<path
   style="fill:#3d4a61"
   d="m 1313.946,313.912 c -0.018,0 -1.967,-0.067 -1.967,-0.067 -13.413,-0.447 -13.418,-0.799 -13.675,-19.228 -0.033,-2.414 -0.071,-5.148 -0.145,-8.244 -0.01,-0.288 0.222,-0.527 0.509,-0.534 0.295,0 0.527,0.226 0.534,0.509 0.073,3.1 0.111,5.836 0.145,8.254 0.126,9.023 0.189,13.552 1.742,15.759 1.497,2.127 4.647,2.232 10.925,2.441 l 1.95,0.066 c 0.288,0.011 0.513,0.253 0.503,0.54 -0.01,0.282 -0.242,0.504 -0.521,0.504 z"
   id="path233" />

		</g>

		<g
   id="XMLID_601_">
			<path
   style="fill:#3d4a61"
   d="m 1267.429,326.409 c -0.022,0 -0.045,-10e-4 -0.066,-0.003 -0.309,-0.028 -0.559,-0.242 -0.639,-0.545 -0.666,-2.52 -3.001,-4.571 -5.552,-4.876 -0.286,-0.034 -0.49,-0.293 -0.456,-0.579 0.033,-0.287 0.296,-0.499 0.579,-0.456 2.747,0.328 5.193,2.294 6.192,4.892 2.656,-5.003 6.607,-5.971 9.271,-5.234 0.278,0.077 0.44,0.364 0.364,0.642 -0.078,0.278 -0.367,0.439 -0.642,0.364 -2.398,-0.668 -6.033,0.348 -8.403,5.379 -0.12,0.257 -0.371,0.416 -0.648,0.416 z"
   id="path234" />

		</g>

	</g>

	<g
   id="XMLID_676_">
		<path
   style="fill:#ffe6d9"
   d="m 1235.546,163.108 c 1.458,30.264 -2.332,122.724 -33.187,132.489 -44.977,9.15 -15.846,-31.921 -18.148,-52.871 -1.849,-16.826 9.055,-31.45 8.12,-41.921 -2.042,-22.883 5.042,-33.63 12.9,-42.541 4.397,-4.986 7.388,-9.682 14.689,-10.36 6.443,-0.598 15.33,9.052 15.626,15.204 z"
   id="path235" />

		<path
   style="fill:#ffcbb2"
   d="m 1191.198,297.401 c -5.413,0 -9.252,-1.259 -11.637,-3.787 -5.444,-5.768 -2.512,-16.859 0.594,-28.6 2.085,-7.883 4.241,-16.034 3.56,-22.233 -1.057,-9.614 1.982,-18.461 4.664,-26.267 2.067,-6.017 3.853,-11.213 3.455,-15.664 -2.104,-23.587 5.619,-34.52 13.023,-42.916 0.572,-0.648 1.12,-1.292 1.657,-1.922 3.653,-4.291 6.809,-7.997 13.36,-8.605 2.687,-0.246 5.934,1.137 9.124,3.907 4.045,3.513 6.877,8.243 7.046,11.771 0.84,17.42 -0.205,48.019 -4.481,74.037 -3.936,23.945 -12.172,53.61 -29.054,58.953 -4.338,0.882 -8.102,1.325 -11.311,1.326 z m 29.292,-149.023 c -0.178,0 -0.352,0.008 -0.524,0.024 -6.146,0.57 -9.179,4.132 -12.691,8.257 -0.54,0.635 -1.092,1.283 -1.668,1.936 -7.267,8.24 -14.847,18.974 -12.777,42.166 0.416,4.663 -1.401,9.953 -3.505,16.078 -2.647,7.707 -5.648,16.441 -4.616,25.833 0.701,6.385 -1.479,14.627 -3.587,22.599 -2.898,10.96 -5.896,22.294 -0.834,27.658 3.543,3.754 10.732,4.467 21.972,2.18 28.835,-9.129 34.595,-94.455 32.787,-131.975 -0.155,-3.221 -2.912,-7.771 -6.704,-11.064 -2.727,-2.37 -5.554,-3.692 -7.853,-3.692 z"
   id="path236" />

	</g>

	<g
   id="XMLID_675_">
		<path
   style="fill:#ffe6d9"
   d="m 1247.271,137.459 c 6.162,15.194 30.595,15.261 36.895,0 6.958,0.297 23.001,5.011 27.277,8 9.845,6.881 18.763,142.129 4.638,152.338 -34.396,2.603 -63.144,0.621 -97.835,-3.395 -21.319,-5.819 -1.672,-144.913 -1.404,-145.915 8.3,-4.352 31.429,-11.355 30.429,-11.028 z"
   id="path237" />

		<path
   style="fill:#ffcbb2"
   d="m 1285.219,299.48 c -22.029,0 -43.029,-1.802 -67.029,-4.58 -22.059,-6.015 -2.193,-145.179 -1.831,-146.54 l 0.057,-0.212 0.194,-0.102 c 5.57,-2.921 25.314,-9.827 29.999,-10.89 0,-0.004 0.508,-0.17 0.508,-0.17 l 0.021,0.065 c 0.013,-0.002 -0.01,-0.069 -0.01,-0.069 l 0.023,0.067 c 0.239,-0.037 0.391,-0.041 0.441,-0.005 l 0.25,0.178 -0.035,0.23 c 3.354,8.023 11.383,10.909 17.813,10.93 0.022,0 0.046,0 0.068,0 6.505,0 14.632,-2.917 18.016,-11.111 l 0.134,-0.324 0.35,0.015 c 6.991,0.298 23.208,5.061 27.542,8.09 6.346,4.435 11.848,57.408 12.172,98.309 0.146,18.345 -0.64,49.865 -7.527,54.844 l -0.114,0.083 -0.141,0.011 c -10.76,0.811 -20.939,1.181 -30.904,1.181 z m -67.927,-150.663 c -0.933,6.043 -19.287,139.542 1.087,145.103 34.674,4.008 63.132,5.983 97.52,3.39 4.695,-3.665 7.247,-23.29 7.004,-53.943 -0.353,-44.474 -6.279,-93.678 -11.744,-97.498 -4.167,-2.912 -19.623,-7.466 -26.668,-7.893 -3.079,7.07 -10.276,11.405 -18.872,11.403 -8.51,-0.027 -15.605,-4.349 -18.634,-11.314 -3.123,0.954 -22.087,6.841 -29.693,10.752 z"
   id="path238" />

	</g>

	<g
   id="XMLID_698_">
		<path
   style="fill:#ffe6d9"
   d="m 1367.237,216.295 c 1.72,3.763 4.713,13.864 3.688,17.872 -0.772,3.019 -6.683,21.114 -19.889,26.86 -13.873,6.036 -18.298,23.621 -29.722,14.725 -6.149,-7.783 -10.081,-24.462 -10.081,-24.462 -6.839,-15.563 7.793,-7.203 18.766,-22.457 2.011,-2.796 1.839,-4.126 -1.061,-6.524 -26.922,-22.261 -17.798,-76.556 -17.798,-76.556 15.795,-1.679 35.067,30.371 38.829,45.789 2.632,10.788 12.985,15.38 17.268,24.753 z"
   id="path239" />

		<path
   style="fill:#ffcbb2"
   d="m 1327.317,278.713 c -1.912,0 -3.979,-0.751 -6.31,-2.566 l -0.085,-0.084 c -6.147,-7.781 -10.014,-23.972 -10.175,-24.658 -1.732,-3.921 -2.173,-6.544 -1.4,-8.42 0.876,-2.127 3.185,-3.037 6.107,-4.189 3.983,-1.57 9.439,-3.72 14.14,-10.255 1.87,-2.6 1.697,-3.639 -0.974,-5.848 -26.834,-22.188 -18.065,-76.479 -17.974,-77.024 l 0.063,-0.374 0.378,-0.04 c 16.776,-1.767 35.813,31.599 39.367,46.167 1.448,5.932 5.379,10.053 9.18,14.038 3.021,3.168 6.146,6.444 8.059,10.627 1.605,3.514 4.808,13.945 3.718,18.204 -0.053,0.207 -5.708,20.9 -20.174,27.195 -5.278,2.297 -9.198,6.328 -12.656,9.883 -3.746,3.852 -7.143,7.344 -11.264,7.344 z m -5.648,-3.318 c 6.622,5.121 10.639,0.988 16.194,-4.723 3.523,-3.622 7.515,-7.728 12.975,-10.103 14.029,-6.105 19.552,-26.323 19.604,-26.526 0.955,-3.732 -1.865,-13.616 -3.659,-17.54 -1.842,-4.03 -4.907,-7.245 -7.872,-10.353 -3.892,-4.08 -7.916,-8.299 -9.427,-14.49 -3.892,-15.95 -22.888,-46.499 -37.91,-45.444 -0.733,4.877 -7.531,54.858 17.684,75.707 3.078,2.545 3.336,4.161 1.149,7.202 -4.873,6.773 -10.486,8.986 -14.586,10.601 -2.807,1.106 -4.835,1.906 -5.55,3.64 -0.651,1.581 -0.199,4.036 1.421,7.723 0.067,0.251 3.99,16.679 9.977,24.306 z"
   id="path240" />

	</g>

	<g
   id="XMLID_702_">
		<path
   style="fill:#ffe6d9"
   d="m 1233.422,143.827 c -4.331,-4.65 -2.035,-10.486 7.723,-8.583 0.663,0.129 1.301,-0.354 1.308,-1.029 0.024,-2.174 -7.235,-8.457 -3.779,-9.002 8.34,-1.313 22.584,23.662 27.21,23.662 5.709,0 8.572,-12.341 11.967,-16.516 1.246,-1.532 11.709,-13.621 15.306,-8.554 1.955,2.753 -0.034,5.274 0.949,8.513 0.952,3.137 3.438,-3.09 6.177,-0.549 3.599,3.34 3.078,9.555 0,13.383 -10.146,12.633 -55.248,11.146 -66.864,-1.325 z"
   id="path241" />

		<path
   style="fill:#ffcbb2"
   d="m 1269.875,154.43 c -13.684,0 -30.128,-3.079 -36.819,-10.262 -2.158,-2.317 -2.807,-5.004 -1.691,-7.014 1.377,-2.481 4.976,-3.357 9.877,-2.401 0.181,0.035 0.367,-0.01 0.508,-0.125 0.075,-0.061 0.202,-0.197 0.204,-0.418 0.01,-0.691 -1.153,-2.235 -2.179,-3.597 -1.562,-2.077 -2.911,-3.871 -2.437,-5.044 0.188,-0.462 0.611,-0.747 1.259,-0.85 5.207,-0.815 12.071,7.433 18.146,14.709 3.673,4.399 7.471,8.948 9.142,8.948 3.476,0 5.959,-5.337 8.15,-10.045 1.157,-2.488 2.251,-4.837 3.429,-6.286 0.083,-0.102 8.348,-10.138 13.452,-9.969 1.105,0.036 1.996,0.521 2.649,1.441 1.216,1.711 1.042,3.364 0.873,4.962 -0.123,1.172 -0.25,2.385 0.148,3.695 0.151,0.498 0.29,0.547 0.292,0.548 0.195,0.048 0.813,-0.434 1.187,-0.728 1.119,-0.881 2.809,-2.217 4.559,-0.59 3.889,3.609 3.167,10.185 0.053,14.063 -4.153,5.17 -14.214,8.418 -27.603,8.907 -1.045,0.037 -2.113,0.056 -3.199,0.056 z m -32.208,-19.049 c -2.665,0 -4.608,0.782 -5.428,2.259 -0.899,1.617 -0.305,3.857 1.549,5.847 6.005,6.447 22.132,10.512 39.249,9.887 12.906,-0.473 22.947,-3.663 26.86,-8.534 2.832,-3.527 3.526,-9.473 0.047,-12.704 -1.044,-0.969 -1.969,-0.374 -3.262,0.643 -0.759,0.597 -1.423,1.112 -2.104,0.895 -0.433,-0.136 -0.743,-0.532 -0.949,-1.211 -0.456,-1.503 -0.312,-2.878 -0.184,-4.09 0.162,-1.543 0.303,-2.875 -0.693,-4.278 -0.47,-0.661 -1.08,-0.995 -1.867,-1.021 -0.033,-0.002 -0.066,-0.002 -0.101,-0.002 -3.861,0 -10.503,7.094 -12.544,9.603 -1.1,1.352 -2.167,3.647 -3.298,6.077 -2.317,4.98 -4.943,10.624 -9.057,10.624 -2.036,0 -5.092,-3.537 -9.909,-9.307 -5.613,-6.722 -12.6,-15.095 -17.223,-14.361 -0.191,0.03 -0.431,0.095 -0.488,0.237 -0.262,0.648 1.285,2.706 2.309,4.067 1.282,1.706 2.391,3.178 2.379,4.209 0,0.459 -0.213,0.891 -0.572,1.183 -0.373,0.303 -0.858,0.422 -1.331,0.331 -1.22,-0.238 -2.356,-0.354 -3.383,-0.354 z"
   id="path242" />

	</g>

	<path
   id="XMLID_727_"
   style="fill:#ffa988"
   d="m 1185.212,298.352 c 5.043,0.504 11.311,-0.105 13.842,-1.632 -0.416,17.891 -0.639,8.462 0.997,14.858 0.927,3.624 6.751,16.404 4.28,19.05 -1.87,2.001 -4.113,-3.913 -5.777,-7.399 -2.307,-4.832 -8.887,4.562 -1.216,15.137 0.758,1.044 4.923,5.897 1.688,8.63 -3.551,-2.962 -6.487,-6.658 -8.568,-10.788 2.28,7.038 1.308,11.894 -0.328,11.536 -2.909,-0.638 -6.622,-25.596 -2.315,-37.592 0.509,-1.42 0.282,-1.444 -2.603,-11.8 z" />

	<polygon
   id="XMLID_724_"
   style="fill:#ffa988"
   points="1314.429,268.079 1302.426,272.37 1297.048,259.493 1309.64,253.867 " />

	<path
   id="XMLID_712_"
   style="fill:#ffcbb2"
   d="m 1183.584,295.597 c 6.055,2.032 14.153,1.747 18.775,0 0.77,4.728 0.233,7.083 -2.823,9.941 -1.456,1.363 -18.458,5.958 -15.952,-9.941 z" />

	<path
   id="XMLID_723_"
   style="fill:#ffcbb2"
   d="m 1306.075,271.924 c 0.989,1 6.741,0.601 11.912,-1.545 -2.251,-3.178 -5.18,-13.279 -7.091,-20.615 -1.192,0.514 -7.669,5.698 -9.359,7.059 -1.059,0.852 1.414,11.941 4.538,15.101 z" />

	<g
   id="XMLID_731_">
		<path
   style="fill:#ffcbb2"
   d="m 1290.874,294.926 c -5.624,0 -9.717,-0.98 -15.17,-2.287 -2.023,-0.485 -4.318,-1.034 -6.92,-1.581 -15.64,-3.285 -31.847,-2.472 -44.219,-1.397 -2.285,0.199 -3.011,-1.035 -4.619,-3.732 -0.653,-1.095 -1.466,-2.458 -2.609,-4.14 -0.963,-1.415 -0.792,-3.324 0.408,-4.539 8.476,-8.59 13.233,-26.623 14.488,-31.945 0.346,-1.462 1.732,-2.422 3.226,-2.218 19.965,2.646 37.917,4.521 55.459,0.656 0.778,-0.171 1.606,-0.011 2.268,0.44 0.668,0.456 1.105,1.146 1.23,1.941 2.08,13.258 6.819,25.063 14.086,35.089 1.501,2.073 0.294,4.363 -1.104,7.015 -0.56,1.061 -1.139,2.158 -1.621,3.36 -0.458,1.141 -1.522,1.978 -2.777,2.184 -4.968,0.814 -8.813,1.154 -12.126,1.154 z m -46.984,-7.209 c 8.07,0 16.66,0.59 25.1,2.363 2.616,0.549 4.918,1.101 6.948,1.587 8.543,2.046 13.698,3.283 26.899,1.118 0.912,-0.149 1.683,-0.751 2.012,-1.569 0.502,-1.25 1.119,-2.421 1.664,-3.454 1.294,-2.454 2.316,-4.392 1.179,-5.961 -7.359,-10.155 -12.159,-22.105 -14.264,-35.521 -0.082,-0.52 -0.368,-0.971 -0.806,-1.271 -0.441,-0.301 -0.97,-0.401 -1.489,-0.289 -17.698,3.901 -35.742,2.019 -55.805,-0.642 -0.986,-0.127 -1.895,0.497 -2.122,1.457 -1.629,6.903 -6.327,23.882 -14.75,32.418 -0.864,0.876 -0.987,2.253 -0.293,3.274 1.161,1.707 1.982,3.084 2.643,4.19 1.636,2.743 2.077,3.383 3.674,3.248 5.782,-0.502 12.4,-0.948 19.41,-0.948 z"
   id="path243" />

	</g>

	<g
   id="XMLID_736_">
		<path
   style="fill:#ffcbb2"
   d="m 1267.093,151.405 c -7.782,0 -13.261,-5.408 -18.108,-10.192 -1.894,-1.869 -3.683,-3.635 -5.451,-4.911 -0.224,-0.161 -0.274,-0.474 -0.112,-0.698 0.162,-0.226 0.475,-0.274 0.698,-0.113 1.83,1.32 3.646,3.112 5.568,5.01 4.709,4.648 10.034,9.904 17.414,9.904 0.165,0 0.331,-0.002 0.499,-0.008 7.403,-0.236 15.739,-5.663 25.484,-16.592 0.184,-0.206 0.499,-0.225 0.706,-0.04 0.206,0.184 0.224,0.499 0.04,0.706 -9.936,11.144 -18.506,16.68 -26.199,16.925 -0.181,0.007 -0.362,0.009 -0.539,0.009 z"
   id="path244" />

	</g>

	<g
   id="XMLID_738_">
		<path
   style="fill:#ffcbb2"
   d="m 1342.793,230.779 c -0.159,0 -0.316,-0.077 -0.413,-0.219 -3.348,-4.922 -6.316,-6.641 -9.331,-5.405 -0.619,0.253 -0.916,-0.105 -0.993,-0.221 -0.863,-1.277 3.273,-8.041 6.624,-11.49 0.192,-0.199 0.509,-0.202 0.707,-0.011 0.198,0.192 0.202,0.509 0.01,0.707 -3.396,3.497 -6.147,8.517 -6.46,9.986 4.535,-1.605 8.02,2.562 10.27,5.872 0.155,0.229 0.097,0.54 -0.132,0.695 -0.087,0.058 -0.184,0.086 -0.282,0.086 z"
   id="path245" />

	</g>

	<g
   id="XMLID_783_">
		<path
   style="fill:#efbea9"
   d="m 1302.554,200.372 c -17.796,53.248 -72.481,15.187 -76.068,0 -2.574,-10.897 10.066,-20.394 31.072,-20.394 21.006,-0.001 48.484,9.957 44.996,20.394 z"
   id="path246" />

		<path
   style="fill:#efbea9"
   d="m 1270.739,228.243 c -0.545,0 -1.082,-0.013 -1.61,-0.037 -19.671,-0.892 -40.768,-17.914 -43.086,-27.73 -0.903,-3.82 -0.016,-7.563 2.564,-10.824 5.021,-6.344 15.843,-10.132 28.951,-10.132 17.918,0 38.558,6.836 44.171,14.629 1.534,2.131 1.958,4.273 1.259,6.367 -7.572,22.657 -21.398,27.727 -32.249,27.727 z m -13.181,-47.808 c -12.831,0 -23.386,3.658 -28.234,9.785 -2.4,3.034 -3.229,6.508 -2.392,10.047 2.026,8.578 22.404,26.127 42.239,27.027 10.744,0.481 25.18,-3.814 32.95,-27.067 0.602,-1.799 0.22,-3.663 -1.134,-5.543 -5.371,-7.458 -26.07,-14.249 -43.429,-14.249 z"
   id="path247" />

	</g>

	<g
   id="XMLID_785_">
		<g
   id="XMLID_779_">
			<path
   style="fill:#efbea9"
   d="m 1261.221,153.766 c -4.245,0 -2.456,-5.348 -0.508,-5.348 4.042,0 3.204,5.348 0.508,5.348 z"
   id="path248" />

			<path
   style="fill:#efbea9"
   d="m 1261.221,154.223 c -1.018,0 -1.806,-0.279 -2.344,-0.83 -0.467,-0.477 -0.713,-1.137 -0.713,-1.906 0,-1.597 1.137,-3.526 2.549,-3.526 1.035,0 1.888,0.327 2.465,0.944 0.499,0.535 0.774,1.277 0.774,2.089 0,1.553 -1.044,3.229 -2.731,3.229 z m -0.508,-5.348 c -0.764,0 -1.635,1.392 -1.635,2.612 0,0.367 0.078,0.884 0.452,1.268 0.359,0.368 0.929,0.554 1.69,0.554 1.123,0 1.817,-1.202 1.817,-2.315 0,-0.579 -0.188,-1.1 -0.528,-1.465 -0.405,-0.434 -1.009,-0.654 -1.796,-0.654 z"
   id="path249" />

		</g>

		<g
   id="XMLID_782_">
			<path
   style="fill:#efbea9"
   d="m 1273.409,152.912 c 4.245,0 2.456,-5.348 0.508,-5.348 -4.043,0 -3.204,5.348 -0.508,5.348 z"
   id="path250" />

			<path
   style="fill:#efbea9"
   d="m 1273.409,153.369 c -1.688,0 -2.731,-1.676 -2.731,-3.229 0,-0.812 0.274,-1.554 0.774,-2.089 0.577,-0.618 1.429,-0.944 2.465,-0.944 1.412,0 2.549,1.929 2.549,3.526 0,0.769 -0.246,1.429 -0.713,1.906 -0.538,0.551 -1.326,0.83 -2.344,0.83 z m 0.508,-5.348 c -0.787,0 -1.392,0.22 -1.797,0.654 -0.341,0.365 -0.528,0.885 -0.528,1.465 0,1.113 0.694,2.315 1.817,2.315 0.762,0 1.331,-0.186 1.69,-0.554 0.374,-0.383 0.452,-0.901 0.452,-1.267 10e-4,-1.221 -0.87,-2.613 -1.634,-2.613 z"
   id="path251" />

		</g>

		<path
   id="XMLID_776_"
   style="fill:#fffffb"
   d="m 1261.757,157.077 c -2.724,5.902 -2.07,41.579 -4.198,22.9 -1.204,-10.566 -0.69,-12.943 -0.331,-14.711 3.252,-16.023 0.501,-17.274 5.176,-14.94 1.171,0.586 0.956,3.277 -0.647,6.751 z" />

		<path
   id="XMLID_778_"
   style="fill:#fffffb"
   d="m 1272.87,156.383 c 2.724,5.902 2.07,41.579 4.199,22.9 1.204,-10.566 0.689,-12.943 0.331,-14.711 -3.252,-16.023 -0.501,-17.274 -5.176,-14.941 -1.172,0.586 -0.957,3.277 0.646,6.752 z" />

	</g>

</g>
  </g>
</svg>
