<?xml version="1.0" encoding="UTF-8" standalone="no"?>
<!-- Created with Inkscape (http://www.inkscape.org/) -->

<svg
   width="30.565264mm"
   height="89.010429mm"
   viewBox="0 0 30.565263 89.01043"
   version="1.1"
   id="svg1"
   inkscape:version="1.4.2 (f4327f4, 2025-05-13)"
   sodipodi:docname="man7.svg"
   xmlns:inkscape="http://www.inkscape.org/namespaces/inkscape"
   xmlns:sodipodi="http://sodipodi.sourceforge.net/DTD/sodipodi-0.dtd"
   xmlns="http://www.w3.org/2000/svg"
   xmlns:svg="http://www.w3.org/2000/svg">
  <sodipodi:namedview
     id="namedview1"
     pagecolor="#ffffff"
     bordercolor="#000000"
     borderopacity="0.25"
     inkscape:showpageshadow="2"
     inkscape:pageopacity="0.0"
     inkscape:pagecheckerboard="0"
     inkscape:deskcolor="#d1d1d1"
     inkscape:document-units="mm"
     inkscape:zoom="1.2275954"
     inkscape:cx="-17.106613"
     inkscape:cy="58.651246"
     inkscape:window-width="2880"
     inkscape:window-height="1676"
     inkscape:window-x="-12"
     inkscape:window-y="-12"
     inkscape:window-maximized="1"
     inkscape:current-layer="layer1" />
  <defs
     id="defs1" />
  <g
     inkscape:label="图层 1"
     inkscape:groupmode="layer"
     id="layer1"
     transform="translate(-109.27291,-132.82083)">
    <g
       id="XMLID_1665_"
       transform="matrix(0.26458333,0,0,0.26458333,45.203307,110.82632)">
		<path
   id="XMLID_57_"
   style="fill:#b18d7a"
   d="m 341.169,229.084 c 0,0 -1.125,2.125 -1.688,3.375 -0.563,1.25 -2.875,5.438 -3.125,5.75 -0.25,0.312 -5.667,-15.063 -5.667,-15.063 l 1.792,-3.438 c 0,0.001 8.5,5.563 8.688,9.376 z" />

		<path
   id="XMLID_52_"
   style="fill:#846649"
   d="m 278.294,219.383 c 0,0 -0.76,2.142 -1.18,4.51 -0.42,2.367 -1.605,10.409 -2.007,11.807 0,0 -0.412,3.045 -0.484,6.794 -0.072,3.749 0.062,18.588 0.038,24.172 -0.024,5.584 0.012,8.085 0.032,11.419 0.02,3.334 -0.535,14.909 -1.119,19.315 -0.584,4.406 0.733,9.599 0.955,11.104 0.221,1.504 0.861,7.268 -0.926,13.568 -1.787,6.3 0.366,20.094 -0.059,29.254 -0.425,9.16 3.045,23.813 2.678,29.973 -0.368,6.161 0.812,15.435 -0.329,17.83 -1.141,2.395 -0.584,3.739 -0.423,4.076 0.16,0.336 1.355,-1.141 3.853,-1.01 2.498,0.131 9.927,3.94 12.745,4.744 2.818,0.804 3.985,0.826 4.583,0.088 0.597,-0.739 -1.258,-3.941 -0.815,-5.35 0.444,-1.408 1.631,-2.469 1.683,-5.219 0.053,-2.75 -1.046,-10.689 -0.324,-13.592 0.722,-2.903 -1.429,-25.532 -0.159,-30.925 1.27,-5.393 1.632,-24.307 1.836,-26.303 0.205,-1.997 2.563,-7.619 2.219,-11.46 -0.343,-3.841 1.677,-31.057 3.764,-35.601 2.087,-4.544 0.843,-9.236 3.674,-9.098 2.831,0.137 3.682,3.571 4.253,8.583 0.571,5.012 -0.579,8.491 1.284,15.694 1.863,7.204 3.564,18.488 3.907,22.329 0.343,3.841 0.466,10.511 1.375,15.279 0.909,4.768 0.248,21.925 1.081,26.276 0.834,4.35 2.71,19.555 2.103,25.128 -0.607,5.573 1.336,8.611 1.29,11.027 -0.046,2.416 -0.918,4.4 -0.634,6.989 0.284,2.589 1.881,6.224 2.708,6.574 0.827,0.349 3.661,-4.056 11.091,-4.664 7.43,-0.608 8.651,0.915 9.484,0.931 0.833,0.016 2.484,-3.516 2.428,-4.934 -0.056,-1.418 -1.837,-4.203 -1.941,-7.455 -0.105,-3.253 0.185,-5.331 -0.339,-8.425 -0.524,-3.094 -1.048,-14.939 -1.064,-18.44 -0.016,-3.501 -2.217,-23.547 -1.726,-27.455 0.492,-3.908 0.789,-6.403 -0.318,-9.508 -1.108,-3.105 -2.669,-34.807 -2.818,-40.061 -0.15,-5.254 -2.541,-24.053 -3.168,-30.483 -0.627,-6.43 -0.255,-12.84 0.216,-15.665 0.471,-2.825 -4.844,-16.938 -7.718,-19.197 -2.873,-2.259 -51.729,-2.619 -51.729,-2.619 z" />

		<path
   id="XMLID_47_"
   style="fill:#64493b"
   d="m 278.481,215.062 -0.699,6.071 c 0,0 6.115,4.534 21.361,6.159 15.246,1.625 30.874,-4.911 30.874,-4.911 l 0.123,-6.43 c 0,0 -14.359,5.575 -27.758,4.485 -13.398,-1.089 -23.901,-5.374 -23.901,-5.374 z" />

		<path
   id="XMLID_46_"
   style="fill:#b18d7a"
   d="m 294.606,131.053 -0.594,7.594 c 0,0 -0.322,6.167 2.844,7.583 3.167,1.417 11.093,1.833 13.922,0 2.828,-1.833 1.912,-10.167 1.912,-10.167 l -0.667,-5.01 z" />

		<path
   id="XMLID_48_"
   style="fill:#a9bbbe"
   d="m 279.439,216.896 c 0,0 -3.417,-2.25 -3.833,-4.5 -0.417,-2.25 1.083,-21.25 1.083,-21.25 0,0 -16.5,13.667 -25.167,14.417 -8.667,0.75 -9,-3.917 -9.333,-5.833 -0.333,-1.917 1.75,-8.583 1.5,-10.667 -0.25,-2.084 1.833,-3.833 1.833,-3.833 0,0 0.833,-2.083 2.083,-3.083 1.25,-1 6.75,-13.333 10.167,-18.667 3.417,-5.333 7.083,-8.667 8.167,-11.833 1.083,-3.167 3,-6.667 4.75,-7.417 1.75,-0.75 18.333,-7.083 18.333,-7.083 l 5.334,-2.904 c 0,0 2.85,8.57 8.467,11.737 0,0 8.09,-5.451 9.687,-11.267 0,0 3.18,1.517 5.013,3.434 0,0 17.083,7.447 19.833,9.307 2.75,1.86 5.917,5.36 7.333,10.443 1.417,5.083 1.333,8.167 1.333,8.167 0,0 1.167,1.583 1.25,3.333 0.083,1.75 0.083,1.75 0.083,1.75 0,0 6.083,19.917 8.083,23.833 2,3.917 2.917,6.917 1.667,12.083 -1.25,5.166 -13.5,23.333 -15.333,24.667 0,0 -3.083,-6.417 -6.333,-8.917 -3.25,-2.5 -4.583,-4 -4.583,-4 l 9.417,-16.167 c 0,0 -2.25,-0.25 -2.333,-2.083 -0.083,-1.833 -0.083,-2.75 -0.083,-2.75 0,0 -3.167,-6.5 -4.417,-9 -1.25,-2.5 -1.667,-4 -1.667,-4 0,0 -0.083,18.167 0.667,20.917 0.75,2.75 1.917,3.917 0.667,7.083 -1.25,3.166 -5,3.917 -5,3.917 0,0 -13.5,5 -24.417,5.417 -10.917,0.416 -24.251,-5.251 -24.251,-5.251 z" />

		<path
   id="XMLID_54_"
   style="fill:#64493b"
   d="m 344.989,402.034 c 0,0 1.512,2.654 3.782,4.886 2.27,2.231 7.491,7.082 8.078,9.094 0.587,2.012 -2.078,3.148 -4.606,3.413 -2.528,0.264 -6.902,0.181 -10.689,-1.204 -3.787,-1.385 -8.177,-3.157 -10.654,-4.392 -2.477,-1.235 -4.155,-1.744 -4.578,-2.525 -0.423,-0.781 0.392,-4.868 0.392,-4.868 0,0 11.025,-7.73 18.275,-4.404 z" />

		<path
   id="XMLID_53_"
   style="fill:#64493b"
   d="m 276.617,401.978 c 0,0 -1.612,2.595 -3.966,4.737 -2.354,2.143 -7.756,6.791 -8.419,8.778 -0.663,1.988 1.956,3.226 4.472,3.586 2.516,0.361 6.891,0.444 10.727,-0.795 3.837,-1.239 8.267,-4.093 10.79,-5.232 2.522,-1.139 3.65,-1.259 4.102,-2.024 0.452,-0.765 0.388,-3.954 0.388,-3.954 0,0 -10.722,-8.144 -18.094,-5.096 z" />

		<path
   id="XMLID_45_"
   style="fill:#64493b"
   d="m 286.731,110.334 c 0,0 -4,-3.75 -3.875,-10.563 0.125,-6.813 7.75,-15.375 17.313,-16.5 9.563,-1.125 18.407,4.563 20.203,12.25 1.797,7.688 -1.891,16.063 -1.891,16.063 l -31.313,-0.313 z" />

		<g
   id="XMLID_1060_">
			<path
   id="XMLID_1093_"
   style="fill:#849da0"
   d="m 289.346,137.815 c -0.388,3.422 -0.653,6.852 -0.755,10.295 -0.035,1.173 -0.341,2.916 1.246,2.925 0.708,0.004 1.506,-0.817 2.081,-1.175 1.246,-0.777 2.474,-1.652 3.767,-2.347 1.742,-0.935 3.17,-1.73 4.54,-0.081 1.011,1.217 1.584,2.803 2.117,4.263 0.219,0.6 1.186,0.341 0.964,-0.266 -1.077,-2.951 -2.667,-7.263 -6.522,-5.665 -1.364,0.565 -2.614,1.515 -3.863,2.294 -0.701,0.437 -1.491,1.157 -2.26,1.408 -0.949,0.31 -0.733,0.679 -1.093,-0.373 -0.469,-1.368 0.141,-3.95 0.238,-5.403 0.132,-1.963 0.321,-3.92 0.542,-5.875 0.071,-0.638 -0.93,-0.633 -1.002,0 z" />

		</g>

		<path
   id="XMLID_44_"
   style="fill:#b18d7a"
   d="m 288.023,120.646 c 0,0 -2.5,0.25 -3.667,-3.75 -1.167,-4 1.667,-6.917 2.417,-6.917 0.75,0 1.833,1.083 1.833,1.083 0,0 -0.333,-8.917 1.167,-11.917 1.5,-3 6.869,-4.083 12.452,-4.5 5.583,-0.417 11.152,2.104 12.819,4.438 1.667,2.333 1.313,12.229 1.313,12.229 0,0 0.917,-1.5 2,-1.417 1.083,0.083 2.833,5.333 1.583,7.667 -1.25,2.333 -3.083,2.083 -3.083,2.083 0,0 -0.25,7.667 -8.667,10.583 -8.417,2.917 -16.333,-2.333 -18.083,-9.25 z" />

		<path
   id="XMLID_575_"
   style="fill:#ffffff"
   d="m 298.14,117.573 c 0,0 2.388,1.366 4.869,1.244 2.482,-0.122 3.746,-1.32 4.768,-0.964 1.021,0.356 -0.4,3.52 -4.275,3.884 -5.845,0.548 -7.199,-4.687 -5.362,-4.164 z" />

		<path
   id="XMLID_51_"
   style="fill:#64493b"
   d="m 316.534,109.251 c 0,0 -0.625,0.069 -0.688,1.754 0,0 0.125,4.809 -1.688,6.559 -1.797,1.735 -6.3,-2.669 -11.494,-2.682 v -0.005 c -0.022,0 -0.044,0.003 -0.066,0.003 -0.022,0 -0.044,-0.003 -0.066,-0.003 v 0.005 c -5.194,0.013 -9.697,4.418 -11.494,2.682 -1.813,-1.75 -1.688,-6.559 -1.688,-6.559 -0.062,-1.684 -0.888,-1.754 -0.888,-1.754 0,0 -0.362,17.625 2.825,21.813 2.705,3.554 9.355,3.686 11.309,3.645 1.955,0.041 8.395,-0.26 11.309,-3.645 4.784,-5.553 2.629,-21.813 2.629,-21.813 z m -6.035,14.729 c -0.313,0.688 -2.375,1.875 -3.625,1.438 -0.909,-0.318 -2.454,-1.578 -4.479,-1.479 -2.125,0.104 -3.57,0.911 -4.479,1.229 -1.25,0.438 -3.313,-0.75 -3.625,-1.438 -0.312,-0.688 -0.688,-1.688 0.875,-3.438 1.446,-1.62 3.938,-3.343 7.434,-3.343 3.211,0 5.578,1.974 7.024,3.593 1.562,1.75 1.187,2.75 0.875,3.438 z" />

		<g
   id="XMLID_1158_">
			<path
   id="XMLID_1092_"
   style="fill:#849da0"
   d="m 302.341,151.696 c 1.267,3.141 1.144,6.983 1.2,10.306 0.092,5.469 -0.128,10.944 -0.39,16.406 -0.541,11.3 -1.522,22.587 -1.855,33.896 -0.076,2.588 -0.693,6.438 0.503,8.879 0.283,0.578 1.146,0.072 0.863,-0.505 -1.065,-2.174 -0.438,-5.871 -0.372,-8.183 0.143,-5.047 0.464,-10.089 0.771,-15.129 0.697,-11.477 1.607,-22.995 1.491,-34.501 -0.037,-3.66 0.151,-7.969 -1.247,-11.436 -0.238,-0.588 -1.205,-0.331 -0.964,0.267 z" />

		</g>

		<path
   id="XMLID_55_"
   style="fill:#b18d7a"
   d="m 278.231,171.146 c 0,0 5.063,-5.25 6.563,-7.375 1.5,-2.125 3.375,-3.25 4.375,-4.125 1,-0.875 4.438,-5.813 5.5,-6.375 1.062,-0.562 2.125,1.875 1.125,3.563 0,0 5.996,-4.375 7.029,-4.375 1.033,0 1.783,2.938 -1.529,5.313 -3.312,2.375 -4.875,4.031 -4.875,4.031 0,0 3.75,1.656 4,3.406 0.25,1.75 -1,3.438 -1,3.438 0,0 0.625,1.125 -0.125,2.5 -0.75,1.375 -1.5,1.688 -1.5,1.688 0,0 0.438,1.25 0.125,2.5 -0.313,1.25 -1.75,2.438 -3,2.438 -1.25,0 -2.125,-0.375 -2.125,-0.375 0,0 -2.688,2.75 -5.063,3.563 -2.375,0.813 -6.438,0.375 -8.125,-0.813 -1.687,-1.188 -3.187,-4.252 -1.375,-9.002 z" />

		<g
   id="XMLID_1011_">
			<path
   id="XMLID_1091_"
   style="fill:#849da0"
   d="m 277.602,170.244 c -5.28,3.469 -10.486,7.11 -15.902,10.365 -2.592,1.558 -5.515,3.32 -8.541,3.752 -2.314,0.331 -3.998,0.387 -5.815,2.022 -0.479,0.431 0.23,1.137 0.707,0.707 2.271,-2.043 5.481,-1.49 8.222,-2.593 2.335,-0.939 4.539,-2.161 6.678,-3.481 5.133,-3.168 10.116,-6.598 15.156,-9.909 0.535,-0.352 0.035,-1.218 -0.505,-0.863 z" />

		</g>

		<g
   id="XMLID_1018_">
			<path
   id="XMLID_1090_"
   style="fill:#849da0"
   d="m 249.266,183.183 c 2.046,-0.232 3.951,0.251 5.636,1.442 0.527,0.372 1.027,-0.494 0.505,-0.863 -1.806,-1.277 -3.941,-1.829 -6.14,-1.579 -0.633,0.072 -0.64,1.073 -0.001,1 z" />

		</g>

		<g
   id="XMLID_1025_">
			<path
   id="XMLID_1089_"
   style="fill:#849da0"
   d="m 275.224,171.893 c 0.287,-3.854 0.429,-7.625 -0.546,-11.398 -1.172,-4.54 -3.277,-8.838 -2.604,-13.651 0.088,-0.629 -0.875,-0.901 -0.964,-0.266 -0.567,4.052 0.611,7.699 1.821,11.529 1.471,4.656 1.652,8.952 1.292,13.785 -0.047,0.643 0.953,0.64 1.001,0.001 z" />

		</g>

		<g
   id="XMLID_1032_">
			<path
   id="XMLID_1087_"
   style="fill:#849da0"
   d="m 268.055,158.445 c 0.376,1.338 1.404,2.465 2.239,3.546 0.94,1.218 1.953,2.352 3.146,3.328 0.494,0.404 1.206,-0.299 0.707,-0.707 -1.042,-0.853 -1.953,-1.822 -2.791,-2.874 -0.832,-1.044 -1.969,-2.254 -2.336,-3.559 -0.174,-0.619 -1.14,-0.356 -0.965,0.266 z" />

		</g>

		<g
   id="XMLID_1039_">
			<path
   id="XMLID_1086_"
   style="fill:#849da0"
   d="m 269.032,166.054 c 1.136,0.531 2.319,0.837 3.57,0.917 0.643,0.041 0.64,-0.959 0,-1 -1.068,-0.068 -2.096,-0.327 -3.065,-0.78 -0.58,-0.272 -1.088,0.59 -0.505,0.863 z" />

		</g>

		<g
   id="XMLID_1046_">
			<path
   id="XMLID_1085_"
   style="fill:#849da0"
   d="m 278.276,190.809 c 1.921,-1.555 3.841,-3.109 5.762,-4.664 1.453,-1.176 2.928,-2.277 3.746,-4.002 0.274,-0.578 -0.588,-1.087 -0.863,-0.505 -0.872,1.838 -2.599,2.997 -4.139,4.244 -1.738,1.407 -3.475,2.813 -5.213,4.22 -0.5,0.405 0.211,1.109 0.707,0.707 z" />

		</g>

		<g
   id="XMLID_1053_">
			<path
   id="XMLID_1084_"
   style="fill:#849da0"
   d="m 269.586,178.227 c -0.517,4.649 2.089,8.753 6.459,10.353 0.605,0.222 0.866,-0.745 0.266,-0.964 -3.981,-1.458 -6.19,-5.201 -5.725,-9.389 0.071,-0.639 -0.929,-0.634 -1,0 z" />

		</g>

		<g
   id="XMLID_1067_">
			<path
   id="XMLID_1083_"
   style="fill:#849da0"
   d="m 304.571,148.31 c 1.798,-1.176 3.405,-2.432 5.613,-1.329 1.46,0.729 2.879,1.55 4.328,2.302 0.993,0.516 3.314,2.443 4.529,1.905 1.182,-0.524 0.574,-3.161 0.517,-3.99 -0.197,-2.89 -0.77,-5.717 -1.619,-8.483 -0.188,-0.613 -1.154,-0.352 -0.964,0.266 0.823,2.684 1.387,5.411 1.583,8.217 0.04,0.573 0.185,1.327 0.078,1.892 -0.175,0.923 0.141,1.099 -1,0.668 -1.34,-0.506 -2.658,-1.355 -3.922,-2.021 -1.531,-0.806 -3.429,-2.322 -5.229,-2.442 -1.652,-0.11 -3.139,1.314 -4.419,2.15 -0.536,0.353 -0.036,1.219 0.505,0.865 z" />

		</g>

		<g
   id="XMLID_1074_">
			<path
   id="XMLID_1082_"
   style="fill:#826654"
   d="m 291.551,169.844 c 1.579,0.802 3.399,1.171 4.816,2.271 0.502,0.39 1.215,-0.313 0.707,-0.707 -1.507,-1.169 -3.343,-1.576 -5.019,-2.427 -0.572,-0.291 -1.079,0.571 -0.504,0.863 z" />

		</g>

		<g
   id="XMLID_1081_">
			<path
   id="XMLID_1080_"
   style="fill:#826654"
   d="m 292.028,165.331 c 1.936,0.751 3.622,1.456 5.265,2.754 0.5,0.395 1.212,-0.308 0.707,-0.707 -0.82,-0.648 -1.644,-1.307 -2.588,-1.767 -1.003,-0.488 -2.08,-0.842 -3.118,-1.245 -0.601,-0.232 -0.861,0.734 -0.266,0.965 z" />

		</g>

		<g
   id="XMLID_1088_">
			<path
   id="XMLID_1079_"
   style="fill:#826654"
   d="m 292.857,161.319 c 0.976,0.099 1.896,0.398 2.753,0.872 0.564,0.312 1.068,-0.551 0.505,-0.863 -1.018,-0.563 -2.102,-0.892 -3.258,-1.009 -0.639,-0.065 -0.635,0.936 0,1 z" />

		</g>

		<g
   id="XMLID_1095_">
			<path
   id="XMLID_1078_"
   style="fill:#826654"
   d="m 289.409,160.512 c 2.09,-0.678 4.099,-1.538 6.032,-2.584 0.566,-0.306 0.062,-1.17 -0.505,-0.863 -1.858,1.005 -3.784,1.831 -5.793,2.483 -0.609,0.197 -0.348,1.163 0.266,0.964 z" />

		</g>

		<g
   id="XMLID_1102_">
			<path
   id="XMLID_1077_"
   style="fill:#849da0"
   d="m 334.961,152.985 c 0.103,5.347 0.153,10.701 -1.202,15.917 -1.243,4.786 -2.543,9.262 -2.674,14.244 -0.017,0.644 0.983,0.643 1,0 0.146,-5.567 1.962,-10.452 3.075,-15.826 0.975,-4.712 0.893,-9.549 0.801,-14.335 -0.013,-0.643 -1.013,-0.645 -1,0 z" />

		</g>

		<g
   id="XMLID_1103_">
			<path
   id="XMLID_1076_"
   style="fill:#849da0"
   d="m 334.941,167.764 c 0.842,-0.366 1.453,-1.449 1.975,-2.181 0.695,-0.976 1.295,-2.009 1.826,-3.083 0.284,-0.575 -0.578,-1.082 -0.863,-0.505 -0.424,0.859 -0.89,1.693 -1.419,2.491 -0.493,0.744 -1.17,2.043 -2.022,2.413 -0.59,0.258 -0.082,1.12 0.503,0.865 z" />

		</g>

		<g
   id="XMLID_1116_">
			<path
   id="XMLID_1075_"
   style="fill:#849da0"
   d="m 338.803,153.435 c -0.529,1.275 -1.204,2.472 -1.998,3.6 -0.371,0.527 0.495,1.028 0.863,0.505 0.846,-1.202 1.535,-2.482 2.098,-3.839 0.247,-0.594 -0.72,-0.853 -0.963,-0.266 z" />

		</g>

		<g
   id="XMLID_1118_">
			<path
   id="XMLID_1073_"
   style="fill:#849da0"
   d="m 344.356,165.062 c -1.115,-0.026 -2.215,0.093 -3.301,0.348 -0.626,0.147 -0.361,1.112 0.266,0.964 1.002,-0.236 2.006,-0.337 3.035,-0.313 0.644,0.016 0.644,-0.984 0,-0.999 z" />

		</g>

		<g
   id="XMLID_1130_">
			<path
   id="XMLID_1072_"
   style="fill:#849da0"
   d="m 341.44,202.968 c 3.627,0.199 6.948,1.351 9.939,3.41 0.531,0.366 1.032,-0.501 0.505,-0.864 -3.13,-2.155 -6.651,-3.338 -10.443,-3.546 -0.644,-0.036 -0.642,0.964 -10e-4,1 z" />

		</g>

		<g
   id="XMLID_1137_">
			<path
   id="XMLID_1070_"
   style="fill:#849da0"
   d="m 339.413,199.163 c 4.654,-0.93 9.223,-0.137 13.307,2.278 0.555,0.328 1.059,-0.536 0.505,-0.863 -4.311,-2.55 -9.167,-3.36 -14.077,-2.379 -0.631,0.126 -0.364,1.09 0.265,0.964 z" />

		</g>

		<g
   id="XMLID_1144_">
			<path
   id="XMLID_1069_"
   style="fill:#849da0"
   d="m 335.549,214.982 c 4.071,1.511 7.271,4.657 8.844,8.706 0.231,0.593 1.198,0.335 0.964,-0.266 -1.712,-4.406 -5.111,-7.76 -9.543,-9.405 -0.603,-0.223 -0.864,0.743 -0.265,0.965 z" />

		</g>

		<g
   id="XMLID_1151_">
			<path
   id="XMLID_1068_"
   style="fill:#849da0"
   d="m 288.525,193.737 c 9.872,5.779 20.477,10.114 31.571,12.903 0.624,0.157 0.891,-0.807 0.266,-0.964 -11.013,-2.769 -21.531,-7.065 -31.332,-12.802 -0.557,-0.327 -1.061,0.537 -0.505,0.863 z" />

		</g>

		<g
   id="XMLID_1165_">
			<path
   id="XMLID_1061_"
   style="fill:#849da0"
   d="m 295.244,189.311 c 6.566,1.99 13.227,3.6 19.977,4.827 0.629,0.114 0.899,-0.849 0.266,-0.964 -6.75,-1.228 -13.411,-2.837 -19.978,-4.827 -0.617,-0.187 -0.88,0.778 -0.265,0.964 z" />

		</g>

		<g
   id="XMLID_1172_">
			<path
   id="XMLID_1071_"
   style="fill:#849da0"
   d="m 283.799,213.649 c 1.042,1.76 2.313,3.352 3.803,4.753 0.469,0.441 1.177,-0.265 0.707,-0.707 -1.431,-1.346 -2.647,-2.86 -3.647,-4.551 -0.327,-0.553 -1.192,-0.051 -0.863,0.505 z" />

		</g>

		<g
   id="XMLID_1179_">
			<path
   id="XMLID_1119_"
   style="fill:#849da0"
   d="m 323.323,216.264 c 1.961,-1.109 3.72,-2.496 5.252,-4.148 0.437,-0.471 -0.268,-1.18 -0.707,-0.707 -1.477,1.592 -3.159,2.922 -5.05,3.991 -0.56,0.317 -0.057,1.181 0.505,0.864 z" />

		</g>

		<g
   id="XMLID_1193_">
			<path
   id="XMLID_1265_"
   style="fill:#5e4f48"
   d="m 302.374,231.28 c 0.178,4.278 0.142,8.634 0.562,12.894 0.292,2.958 1.917,4.392 4.455,5.7 0.571,0.294 1.078,-0.568 0.505,-0.864 -1.524,-0.786 -2.89,-1.576 -3.583,-3.201 -0.648,-1.521 -0.482,-3.591 -0.551,-5.227 -0.129,-3.101 -0.259,-6.203 -0.388,-9.304 -0.027,-0.639 -1.027,-0.643 -1,0.002 z" />

		</g>

		<g
   id="XMLID_1200_">
			<path
   id="XMLID_1264_"
   style="fill:#5e4f48"
   d="m 307.314,232.147 c -0.026,11.716 0.423,23.431 0.129,35.146 -0.016,0.644 0.984,0.643 1,0 0.294,-11.715 -0.155,-23.43 -0.129,-35.146 10e-4,-0.644 -0.999,-0.645 -1,0 z" />

		</g>

		<g
   id="XMLID_1207_">
			<path
   id="XMLID_1262_"
   style="fill:#5e4f48"
   d="m 299.923,270.835 c 2.564,-0.334 4.88,-1.349 7.355,-2.029 3.607,-0.991 7.168,-0.396 10.766,0.307 0.629,0.123 0.898,-0.841 0.266,-0.964 -2.865,-0.56 -5.805,-1.142 -8.736,-0.813 -3.335,0.375 -6.324,2.065 -9.65,2.498 -0.63,0.083 -0.638,1.084 -10e-4,1.001 z" />

		</g>

		<g
   id="XMLID_1214_">
			<path
   id="XMLID_1261_"
   style="fill:#5e4f48"
   d="m 309.863,268.322 c 1.883,0.785 3.68,1.732 5.401,2.825 0.545,0.346 1.047,-0.519 0.505,-0.863 -1.796,-1.14 -3.676,-2.108 -5.64,-2.926 -0.594,-0.248 -0.853,0.719 -0.266,0.964 z" />

		</g>

		<g
   id="XMLID_1221_">
			<path
   id="XMLID_1260_"
   style="fill:#5e4f48"
   d="m 327.488,243.183 c 2.347,1.1 4.789,1.85 7.355,2.231 0.63,0.093 0.901,-0.87 0.266,-0.964 -2.479,-0.367 -4.845,-1.066 -7.116,-2.13 -0.579,-0.272 -1.088,0.59 -0.505,0.863 z" />

		</g>

		<g
   id="XMLID_1228_">
			<path
   id="XMLID_1259_"
   style="fill:#5e4f48"
   d="m 331.106,248.271 c 0.833,0 1.667,0 2.5,0 0.643,0 0.645,-1 0,-1 -0.833,0 -1.667,0 -2.5,0 -0.643,0 -0.645,1 0,1 z" />

		</g>

		<g
   id="XMLID_1235_">
			<path
   id="XMLID_1258_"
   style="fill:#5e4f48"
   d="m 278.861,247.489 c 1.407,-0.262 2.821,-0.443 4.248,-0.543 0.638,-0.045 0.643,-1.045 0,-1 -1.516,0.107 -3.02,0.3 -4.514,0.579 -0.631,0.118 -0.364,1.082 0.266,0.964 z" />

		</g>

		<g
   id="XMLID_1242_">
			<path
   id="XMLID_1251_"
   style="fill:#5e4f48"
   d="m 277.575,250.309 c 1.173,0.468 2.393,0.695 3.656,0.697 0.643,0.001 0.645,-0.999 0,-1 -1.178,-0.001 -2.297,-0.225 -3.39,-0.661 -0.598,-0.239 -0.857,0.728 -0.266,0.964 z" />

		</g>

		<path
   id="XMLID_1249_"
   style="fill:none;stroke:#5e4f48;stroke-linecap:round;stroke-miterlimit:10"
   d="m 326.773,252.48 c 0,0 5.833,57 8.5,67 2.667,10 0,13.833 0.833,16.167 0.833,2.333 1.833,49.667 3.5,52.833 1.667,3.167 3.5,6.833 2.833,9.5" />

		<g
   id="XMLID_1256_">
			<path
   id="XMLID_1257_"
   style="fill:#5e4f48"
   d="m 325.36,245.521 c -0.042,1.046 0.005,2.084 0.141,3.122 0.082,0.629 1.083,0.637 1,0 -0.136,-1.038 -0.182,-2.076 -0.141,-3.122 0.025,-0.643 -0.975,-0.642 -1,0 z" />

		</g>

		<g
   id="XMLID_1263_">
			<path
   id="XMLID_1250_"
   style="fill:#5e4f48"
   d="m 289.251,252.117 c 1.109,9.997 -2.223,19.753 -2.011,29.737 0.014,0.643 1.014,0.645 1,0 -0.212,-9.983 3.12,-19.737 2.011,-29.737 -0.07,-0.633 -1.071,-0.64 -1,0 z" />

		</g>

		<g
   id="XMLID_1270_">
			<path
   id="XMLID_1243_"
   style="fill:#5e4f48"
   d="m 287.242,287.52 c -1.277,14.026 -2.045,28.087 -2.71,42.154 -0.377,7.981 -0.733,15.964 -1.12,23.945 -0.401,8.282 -1.174,16.608 -1.259,24.897 -0.031,3.043 -0.012,6.086 -0.174,9.126 -0.147,2.759 -0.07,6.47 -1.721,8.835 -0.369,0.529 0.497,1.029 0.863,0.505 1.165,-1.669 1.37,-3.959 1.59,-5.925 0.337,-3.021 0.395,-6.072 0.423,-9.109 0.069,-7.596 0.623,-15.173 1.003,-22.759 0.799,-15.907 1.407,-31.824 2.338,-47.724 0.468,-7.99 1.041,-15.974 1.766,-23.944 0.059,-0.642 -0.942,-0.638 -0.999,-0.001 z" />

		</g>

		<g
   id="XMLID_1277_">
			<path
   id="XMLID_1255_"
   style="fill:#5e4f48"
   d="m 276.154,311.9 c 0.727,1.005 1.343,2.067 1.767,3.236 0.263,0.724 0.567,1.393 -0.088,2.142 -0.424,0.485 -1.409,0.631 -2.017,0.753 -0.631,0.126 -0.364,1.09 0.266,0.964 1.19,-0.237 3.137,-0.818 3.234,-2.307 0.114,-1.748 -1.342,-3.969 -2.298,-5.293 -0.375,-0.516 -1.243,-0.018 -0.864,0.505 z" />

		</g>

		<g
   id="XMLID_1284_">
			<path
   id="XMLID_1254_"
   style="fill:#82624d"
   d="m 327.219,409.909 c 4.548,2.561 9.473,4.175 14.487,5.557 4.301,1.186 8.963,2.78 13.313,0.988 0.587,-0.242 0.33,-1.21 -0.266,-0.964 -4.421,1.821 -9.303,-0.006 -13.659,-1.232 -4.63,-1.302 -9.165,-2.845 -13.371,-5.213 -0.56,-0.316 -1.065,0.548 -0.504,0.864 z" />

		</g>

		<g
   id="XMLID_1291_">
			<path
   id="XMLID_1253_"
   style="fill:#82624d"
   d="m 265.645,416.381 c 8.826,1.869 19.037,-1.369 26.561,-5.977 0.548,-0.336 0.046,-1.201 -0.505,-0.863 -7.252,4.441 -17.277,7.679 -25.791,5.876 -0.627,-0.133 -0.895,0.83 -0.265,0.964 z" />

		</g>

		<g
   id="XMLID_1292_">
			<path
   id="XMLID_1252_"
   style="fill:#82624d"
   d="m 274.023,408.059 c 1.077,-0.022 2.138,0.058 3.197,0.255 0.629,0.118 0.899,-0.846 0.266,-0.964 -1.146,-0.214 -2.297,-0.315 -3.462,-0.291 -0.644,0.014 -0.646,1.014 -10e-4,1 z" />

		</g>

		<g
   id="XMLID_1299_">
			<path
   id="XMLID_1236_"
   style="fill:#82624d"
   d="m 276.273,405.982 c 0.92,-0.033 1.814,0.062 2.706,0.294 0.623,0.162 0.889,-0.802 0.266,-0.964 -0.974,-0.253 -1.966,-0.365 -2.972,-0.329 -0.642,0.021 -0.645,1.021 0,0.999 z" />

		</g>

		<g
   id="XMLID_1306_">
			<path
   id="XMLID_1156_"
   style="fill:#82624d"
   d="m 278.69,404.15 c 0.577,-0.04 1.126,0.04 1.653,0.285 0.58,0.27 1.088,-0.592 0.505,-0.863 -0.688,-0.32 -1.397,-0.473 -2.157,-0.421 -0.64,0.043 -0.645,1.043 -10e-4,0.999 z" />

		</g>

		<g
   id="XMLID_1313_">
			<path
   id="XMLID_1147_"
   style="fill:#82624d"
   d="m 340.474,405.498 c 1.276,-0.383 2.556,-0.482 3.877,-0.314 0.637,0.081 0.631,-0.92 0,-1 -1.405,-0.178 -2.787,-0.057 -4.142,0.35 -0.616,0.185 -0.354,1.15 0.265,0.964 z" />

		</g>

		<g
   id="XMLID_1320_">
			<path
   id="XMLID_1143_"
   style="fill:#82624d"
   d="m 343.984,408.438 c 0.703,-0.126 1.408,-0.192 2.122,-0.207 0.643,-0.014 0.645,-1.014 0,-1 -0.803,0.017 -1.597,0.101 -2.387,0.243 -0.633,0.113 -0.365,1.077 0.265,0.964 z" />

		</g>

		<g
   id="XMLID_1327_">
			<path
   id="XMLID_1142_"
   style="fill:#82624d"
   d="m 346.686,411.036 c 0.363,-0.039 0.726,-0.077 1.089,-0.116 0.633,-0.068 0.64,-1.068 0,-1 -0.363,0.039 -0.726,0.077 -1.089,0.116 -0.633,0.067 -0.64,1.068 0,1 z" />

		</g>

		<g
   id="XMLID_1334_">
			<path
   id="XMLID_1141_"
   style="fill:#5e4f48"
   d="m 325.815,396.858 c 0.999,-0.837 2.011,-1.661 2.997,-2.514 0.654,-0.565 1.341,-1.211 1.638,-2.048 0.186,-0.523 0.271,-1.109 -0.141,-1.523 -0.347,-0.349 -1.075,-0.429 -1.527,-0.587 -0.724,-0.253 -1.448,-0.506 -2.172,-0.759 -0.609,-0.213 -0.871,0.753 -0.266,0.964 0.719,0.251 1.788,0.425 2.413,0.843 0.161,0.056 0.322,0.112 0.482,0.169 0.273,0.42 0.265,0.779 -0.025,1.076 -0.146,0.294 -0.457,0.566 -0.69,0.786 -1.077,1.021 -2.28,1.932 -3.418,2.885 -0.492,0.414 0.218,1.118 0.709,0.708 z" />

		</g>

		<g
   id="XMLID_1341_">
			<path
   id="XMLID_1139_"
   style="fill:#5e4f48"
   d="m 294.245,399.522 c -1.168,-0.266 -2.358,-0.408 -3.557,-0.362 -0.632,0.024 -1.997,-0.059 -2.352,0.627 -0.393,0.761 0.494,1.307 1.024,1.628 1.034,0.625 2.119,1.143 3.237,1.596 0.596,0.242 0.855,-0.725 0.266,-0.964 -0.64,-0.26 -1.268,-0.545 -1.88,-0.865 -0.326,-0.17 -0.638,-0.36 -0.961,-0.536 -0.314,-0.171 -1.043,-0.216 -0.413,-0.392 1.327,-0.37 3.066,-0.065 4.371,0.232 0.626,0.143 0.893,-0.821 0.265,-0.964 z" />

		</g>

		<g
   id="XMLID_1775_">
			<path
   id="XMLID_886_"
   style="fill:#64493b"
   d="m 293.146,104.491 c 1.517,-1.161 3.705,-1.865 5.312,-0.385 0.945,0.871 2.363,-0.54 1.414,-1.414 -1.047,-0.964 -2.284,-1.455 -3.716,-1.4 -1.627,0.063 -2.748,0.499 -4.019,1.472 -1.008,0.772 -0.013,2.51 1.009,1.727 z" />

		</g>

		<g
   id="XMLID_1782_">
			<path
   id="XMLID_1146_"
   style="fill:#826654"
   d="m 302.637,108.083 c 0.044,0.87 0.251,1.66 0.701,2.411 0.352,0.588 0.863,1.019 0.626,1.799 -0.265,0.874 -1.187,1.148 -1.981,1.199 -0.639,0.041 -0.644,1.041 0,1 1.258,-0.081 2.548,-0.625 2.945,-1.933 0.178,-0.587 0.102,-1.164 -0.164,-1.712 -0.473,-0.974 -1.068,-1.602 -1.127,-2.764 -0.033,-0.64 -1.033,-0.644 -1,0 z" />

		</g>

		<g
   id="XMLID_1789_">
			<path
   id="XMLID_681_"
   style="fill:#64493b"
   d="m 306.316,103.929 c 0.974,-0.384 1.754,-1.012 2.844,-0.967 1.078,0.045 2.057,0.499 2.85,1.22 0.95,0.865 2.369,-0.546 1.414,-1.414 -1.026,-0.934 -2.22,-1.553 -3.604,-1.742 -0.572,-0.078 -1.143,-0.088 -1.715,0.006 -0.887,0.146 -1.499,0.645 -2.321,0.969 -1.184,0.466 -0.668,2.401 0.532,1.928 z" />

		</g>

		<g
   id="XMLID_1796_">
			<path
   id="XMLID_1318_"
   style="fill:#4c403e"
   d="m 286.976,105.862 c -0.669,-0.638 -1.269,-1.317 -1.755,-2.109 -0.198,-0.325 -0.378,-0.659 -0.537,-1.005 -0.229,-0.458 -0.073,-0.474 0.467,-0.048 0.611,0.121 1.385,0.857 2.042,0.502 0.389,-0.21 0.382,-0.557 0.409,-0.926 0.048,-0.645 -0.693,-1.568 -0.858,-2.188 -0.29,-1.097 -0.292,-2.181 -0.117,-3.294 0.074,-0.472 -0.648,-0.676 -0.723,-0.199 -0.164,1.044 -0.21,2.077 -0.012,3.12 0.056,0.295 0.555,1.425 0.513,1.682 -0.208,1.28 -1.466,0.376 -1.998,0.095 -0.179,-0.094 -0.407,-0.047 -0.513,0.134 -0.836,1.428 1.628,3.886 2.551,4.766 0.35,0.333 0.881,-0.196 0.531,-0.53 z" />

		</g>

		<g
   id="XMLID_1803_">
			<path
   id="XMLID_1317_"
   style="fill:#4c403e"
   d="m 289.518,90.535 c -0.493,1.818 -0.478,3.649 0.047,5.458 0.134,0.463 0.858,0.266 0.723,-0.199 -0.489,-1.687 -0.506,-3.364 -0.047,-5.06 0.127,-0.466 -0.596,-0.665 -0.723,-0.199 z" />

		</g>

		<g
   id="XMLID_1810_">
			<path
   id="XMLID_1316_"
   style="fill:#4c403e"
   d="m 294.511,87.009 c -0.583,1.311 -1.009,2.741 -1.015,4.189 -0.002,0.507 0.097,1.78 0.859,1.804 0.68,0.022 0.908,-1.255 1.1,-1.715 0.613,-1.466 1.267,-2.888 2.407,-4.026 -0.213,-0.088 -0.427,-0.177 -0.64,-0.265 -0.025,1.632 -0.464,3.88 0.252,5.399 0.206,0.436 0.853,0.056 0.648,-0.379 -0.371,-0.787 -0.198,-1.859 -0.185,-2.702 0.012,-0.773 0.024,-1.545 0.035,-2.318 0.005,-0.327 -0.413,-0.492 -0.64,-0.265 -1.136,1.133 -1.823,2.52 -2.443,3.983 -0.145,0.342 -0.285,0.687 -0.429,1.03 -0.57,1.352 -0.224,-0.29 -0.202,-0.754 0.06,-1.254 0.393,-2.461 0.901,-3.604 0.194,-0.435 -0.453,-0.818 -0.648,-0.377 z" />

		</g>

		<g
   id="XMLID_1817_">
			<path
   id="XMLID_1315_"
   style="fill:#4c403e"
   d="m 302.741,86.434 c 0.375,1.713 0.351,3.407 -0.066,5.111 -0.115,0.469 0.608,0.669 0.723,0.199 0.449,-1.832 0.469,-3.667 0.066,-5.509 -0.103,-0.471 -0.826,-0.272 -0.723,0.199 z" />

		</g>

		<g
   id="XMLID_1824_">
			<path
   id="XMLID_1305_"
   style="fill:#4c403e"
   d="m 307.976,87.652 c 0.155,1.214 -0.173,2.235 -0.255,3.415 -0.038,0.544 -0.018,1.099 0.52,1.392 0.45,0.245 0.836,0.081 1.241,-0.175 0.955,-0.606 1.814,-1.457 2.693,-2.168 -0.209,-0.055 -0.418,-0.11 -0.627,-0.165 0.228,0.816 -0.946,3.763 0.449,4.063 0.436,0.094 0.789,-0.178 1.127,-0.411 0.004,-0.003 1.222,-1.09 1.39,-1.03 0.665,0.239 -0.299,1.752 -0.448,1.991 -0.256,0.411 0.392,0.788 0.648,0.379 0.493,-0.79 1.368,-2.494 0.527,-3.296 -0.094,-0.09 -0.237,-0.138 -0.365,-0.096 -0.469,0.152 -2.322,1.88 -2.791,1.184 -0.128,-0.19 0.274,-1.378 0.301,-1.678 0.044,-0.483 0.014,-0.846 -0.115,-1.305 -0.082,-0.293 -0.413,-0.338 -0.627,-0.166 -0.552,0.447 -1.102,0.896 -1.656,1.341 -0.604,0.485 -1.339,1.629 -1.417,-0.203 -0.013,-0.311 0.163,-0.751 0.199,-1.08 0.075,-0.673 0.041,-1.322 -0.044,-1.991 -0.061,-0.473 -0.811,-0.479 -0.75,-0.001 z" />

		</g>

		<g
   id="XMLID_1831_">
			<path
   id="XMLID_1155_"
   style="fill:#4c403e"
   d="m 316.283,98.433 c 1.065,-0.345 1.941,-0.995 2.59,-1.905 0.281,-0.394 -0.369,-0.769 -0.648,-0.379 -0.531,0.744 -1.273,1.279 -2.142,1.56 -0.456,0.148 -0.261,0.873 0.2,0.724 z" />

		</g>

		<g
   id="XMLID_1838_">
			<path
   id="XMLID_1150_"
   style="fill:#4c403e"
   d="m 317.332,101.602 c 0.477,-0.227 1.163,-0.728 1.684,-0.785 -0.121,-0.092 -0.241,-0.184 -0.362,-0.275 0.212,0.602 -0.91,1.335 -1.246,1.735 -0.262,0.312 -0.48,0.682 -0.53,1.094 -0.093,0.768 0.412,1.373 1.164,1.446 0.48,0.047 0.477,-0.703 0,-0.75 -0.817,-0.08 -0.146,-1.223 0.15,-1.53 0.259,-0.268 0.545,-0.503 0.776,-0.798 0.293,-0.374 0.579,-0.917 0.41,-1.398 -0.05,-0.142 -0.193,-0.294 -0.362,-0.275 -0.702,0.077 -1.428,0.586 -2.062,0.888 -0.436,0.208 -0.056,0.854 0.378,0.648 z" />

		</g>

		<ellipse
   id="XMLID_184_"
   style="fill:#64493b"
   cx="296.25201"
   cy="108.615"
   rx="1.124"
   ry="1.75" />

		<ellipse
   id="XMLID_574_"
   style="fill:#64493b"
   cx="308.82401"
   cy="108.615"
   rx="1.124"
   ry="1.75" />

		<g
   id="XMLID_678_">
			<path
   id="XMLID_1154_"
   style="fill:#826654"
   d="m 301.396,135.91 c 0.449,1.055 1.072,2.005 1.841,2.853 0.433,0.478 1.139,-0.231 0.707,-0.707 -0.713,-0.786 -1.269,-1.675 -1.685,-2.651 -0.251,-0.59 -1.112,-0.081 -0.863,0.505 z" />

		</g>

		<g
   id="XMLID_1117_">
			<path
   id="XMLID_1534_"
   style="fill:#826654"
   d="m 285.737,112.941 c 0.557,0.861 1.078,1.743 1.564,2.646 0.305,0.567 1.168,0.063 0.863,-0.505 -0.486,-0.903 -1.007,-1.785 -1.564,-2.646 -0.348,-0.538 -1.214,-0.037 -0.863,0.505 z" />

		</g>

		<g
   id="XMLID_1131_">
			<path
   id="XMLID_1538_"
   style="fill:#826654"
   d="m 286.434,113.9 c -0.424,0.717 -0.64,1.497 -0.649,2.329 -0.008,0.644 0.992,0.644 1,0 0.008,-0.66 0.177,-1.257 0.513,-1.825 0.328,-0.554 -0.536,-1.058 -0.864,-0.504 z" />

		</g>

		<g
   id="XMLID_1134_">
			<path
   id="XMLID_1536_"
   style="fill:#826654"
   d="m 318.25,112.139 c -0.532,0.801 -0.905,1.688 -1.104,2.629 -0.133,0.628 0.831,0.896 0.964,0.266 0.183,-0.867 0.512,-1.652 1.003,-2.39 0.357,-0.538 -0.508,-1.04 -0.863,-0.505 z" />

		</g>

		<g
   id="XMLID_1135_">
			<path
   id="XMLID_1535_"
   style="fill:#826654"
   d="m 317.947,114.231 c 0.403,0.299 0.618,0.726 0.704,1.211 0.113,0.632 1.077,0.365 0.964,-0.266 -0.135,-0.759 -0.552,-1.354 -1.164,-1.809 -0.517,-0.384 -1.016,0.484 -0.504,0.864 z" />

		</g>

	</g>
  </g>
</svg>
