<?xml version="1.0" encoding="UTF-8" standalone="no"?>
<!-- Created with Inkscape (http://www.inkscape.org/) -->

<svg
   width="77.13163mm"
   height="228.80563mm"
   viewBox="0 0 77.131624 228.80563"
   version="1.1"
   id="svg1"
   inkscape:version="1.4.2 (f4327f4, 2025-05-13)"
   sodipodi:docname="man8.svg"
   xmlns:inkscape="http://www.inkscape.org/namespaces/inkscape"
   xmlns:sodipodi="http://sodipodi.sourceforge.net/DTD/sodipodi-0.dtd"
   xmlns:xlink="http://www.w3.org/1999/xlink"
   xmlns="http://www.w3.org/2000/svg"
   xmlns:svg="http://www.w3.org/2000/svg">
  <sodipodi:namedview
     id="namedview1"
     pagecolor="#ffffff"
     bordercolor="#000000"
     borderopacity="0.25"
     inkscape:showpageshadow="2"
     inkscape:pageopacity="0.0"
     inkscape:pagecheckerboard="0"
     inkscape:deskcolor="#d1d1d1"
     inkscape:document-units="mm"
     inkscape:zoom="1.2275954"
     inkscape:cx="-90.420671"
     inkscape:cy="344.57607"
     inkscape:window-width="2880"
     inkscape:window-height="1676"
     inkscape:window-x="-12"
     inkscape:window-y="-12"
     inkscape:window-maximized="1"
     inkscape:current-layer="layer1" />
  <defs
     id="defs1">
    <clipPath
       id="SVGID_00000119818789281150872890000010399472127891452846_">
					<use
   xlink:href="#SVGID_1_"
   style="overflow:visible"
   id="use374" />

				</clipPath>
    <path
       id="SVGID_1_"
       d="m 372.545,399.307 c 0,0 -1.283,0 -3.26,0 -6.713,0 -19.791,0 -19.801,0 0,0.838 4.299,47.073 4.58,51.589 0.954,15.214 4.023,46.87 4.105,48.206 0,0 1.713,0.708 5.477,0 l 3.053,-47.784 3.107,-36.587 c 0,0 0.585,-1.01 1.11,-1.054 0.524,0.044 0.994,1.159 0.994,1.159 l 3.633,36.588 2.381,47.703 c 4.615,0.856 6.041,-0.025 6.041,-0.025 0.084,-1.336 2.072,-29.132 3.002,-48.613 1.178,-24.746 5.303,-50.712 5.303,-51.182 -0.01,0 -13.012,0 -19.725,0 z" />
  </defs>
  <g
     inkscape:label="图层 1"
     inkscape:groupmode="layer"
     id="layer1"
     transform="translate(-128.74477,-57.48599)">
    <g
       id="g207"
       transform="matrix(0.26458333,0,0,0.26458333,58.220118,17.178572)">
				<g
   id="g206">
					<path
   style="fill:#58b6cb"
   d="m 361.207,342.656 c 0,0 -10.258,2.559 -17.602,7.027 -7.355,4.465 -68.145,72.332 -68.145,72.332 v 0.914 l 26.656,19.953 c 0,0 47.617,-34.695 57.164,-42.297 9.548,-7.605 1.927,-57.929 1.927,-57.929 z"
   id="path135" />

					<g
   id="g201">
						<g
   id="g200">
							<path
   style="fill:#f4a27a"
   d="m 535.602,598.676 c 0,0 -1.406,8.727 -3.328,13.488 0,0 -2.453,5.633 -2.633,10.531 -0.168,4.902 -0.871,17.684 0,20.656 0.879,2.98 3.504,8.574 3.504,8.574 0,0 4.731,-1.922 3.324,-9.273 -1.395,-7.355 1.933,-11.867 4.039,-16.242 0,0 7.695,9.066 8.914,16.242 0,0 -0.871,8.047 -1.574,11.902 0,0 -10.258,-0.285 -9.742,6.043 0,0 13.328,-0.5 17.172,-2.891 2.809,-1.75 2.793,-24.746 2.793,-27.195 0,-2.449 -4.965,-29.785 -5.5,-31.836 h -16.969 z"
   id="path136" />

							<path
   style="fill:#7ed2f1"
   d="m 496.387,343.324 c 0,0 17.332,4.754 25.035,15.25 7.695,10.504 13.832,70.973 16.699,85.676 2.871,14.711 4.781,17.59 3.43,33.719 0,0 5.559,7.758 5.254,13.078 -0.285,5.324 0.281,8.75 0.875,17.508 0.641,9.5 6.859,63.981 6.117,75.113 -0.578,8.832 -23.488,3.414 -23.488,3.414 0,0 -7.387,-40.211 -11.688,-60.652 -3.18,-15.105 -7.863,-35.758 -9.453,-43.578 -1.59,-7.824 -14.629,-51.105 -20.172,-50.938 z"
   id="path137" />

							<path
   style="opacity:0.4;fill:#47adcb"
   d="m 553.797,583.668 c 0.023,-0.34 0.035,-0.715 0.051,-1.125 -3.977,0.098 -8.387,-7.031 -11.852,-8.328 -3.746,-1.402 -6.039,5.602 -9.902,6.652 -3.852,1.051 3.863,-13.305 4.555,-16.453 0.695,-3.148 -6.297,-8.402 -7.93,-12.25 -1.633,-3.852 -3.973,-12.957 -3.973,-14.703 0,-1.754 16.457,16.102 17.25,12.949 0.805,-3.148 -14.801,-17.152 -17.949,-23.453 -3.148,-6.301 -5.953,-15.051 -3.32,-16.105 2.637,-1.043 25.723,24.855 26.426,22.055 0.695,-2.797 -28.707,-29.402 -28.707,-29.402 0,0 6.652,-12.949 7.699,-16.109 1.051,-3.145 -14,-13.293 -15.75,-16.449 -1.75,-3.148 2.445,-20.301 4.207,-32.203 1.742,-11.902 -21.711,-38.156 -21.711,-38.156 -1.211,0.348 -0.848,4.543 -1.742,5.488 l -2.152,25.84 c 5.543,-0.168 18.582,43.113 20.172,50.938 1.59,7.82 6.273,28.473 9.453,43.578 4.301,20.441 11.688,60.652 11.688,60.652 0,0 22.909,5.416 23.487,-3.416 z"
   id="path138" />

							<path
   style="fill:#122129"
   d="m 396.977,966.898 c 0,0 1.102,26.027 -0.93,29.906 -2.039,3.879 -7.754,5.305 -12.375,6.231 0,0 -6.371,-1.527 -8.227,-1.488 -2.285,0.051 -2.418,1.258 -7,4.641 -11.027,8.137 -18.035,9.223 -22.836,10.519 -4.816,1.293 -14.859,-0.289 -16.809,-7.019 -0.879,-3.066 -1.836,-7.09 2.895,-12.164 5.852,-6.289 27.586,-20.875 32.027,-27.523 4.438,-6.652 4.977,-7.004 6.637,-7.746 1.668,-0.736 26.618,4.643 26.618,4.643 z"
   id="path139" />

							<path
   style="fill:#122129"
   d="m 457.309,966.898 c 0,0 -1.102,26.027 0.93,29.906 2.031,3.879 7.746,5.305 12.375,6.231 0,0 6.367,-1.527 8.219,-1.488 2.285,0.051 2.43,1.258 7,4.641 11.027,8.137 18.043,9.223 22.852,10.519 4.801,1.293 14.848,-0.289 16.801,-7.019 0.883,-3.066 1.84,-7.09 -2.887,-12.164 C 516.742,991.234 495,976.648 490.563,970 c -4.434,-6.652 -4.977,-7.004 -6.637,-7.746 -1.664,-0.735 -26.617,4.644 -26.617,4.644 z"
   id="path140" />

							<g
   id="g179">
								<g
   id="g178">
									<path
   style="fill:#523932"
   d="m 369.242,968.535 c 0,0 8.684,9.508 30.469,2.793 l 24.664,-309.145 c 0.559,-0.012 8.27,-0.012 8.813,0 l 24.68,309.145 c 21.777,6.715 30.461,-2.793 30.461,-2.793 0,0 8.922,-276.352 7.949,-319.754 -0.66,-29.945 -3.031,-74.48 -3.031,-74.48 l -64.461,4.02 -62.262,-6.902 c 0,0 -4.57,47.418 -5.238,77.363 -0.516,23.531 1.863,115.5 4.156,194.801 0,0 1.168,67.211 -0.668,71.938 0,0 -2.109,2.363 -0.262,6.566 1.836,4.199 2.098,8.137 2.098,8.137 0,0 -4.606,5.254 -3.422,8.141 1.207,2.887 4.211,6.828 4.211,6.828 0,0 -4.461,2.625 -4.211,4.984 0.266,2.367 4.473,7.094 3.945,8.664 -0.524,1.577 -3.512,6.288 2.109,9.694 z"
   id="path141" />

									<path
   style="fill:#0e3251"
   d="m 369.242,968.535 c 0,0 8.684,9.508 30.469,2.793 l 24.664,-309.145 c 0.559,-0.012 8.27,-0.012 8.813,0 l 24.68,309.145 c 21.777,6.715 33.746,-4.43 33.746,-4.43 0,0 5.637,-274.715 4.664,-318.117 -0.66,-29.945 -3.031,-74.48 -3.031,-74.48 l -64.461,4.02 -62.262,-6.902 c 0,0 -4.57,47.418 -5.238,77.363 -0.516,23.531 1.863,115.5 4.156,194.801 0,0 1.168,67.211 -0.668,71.938 0,0 -2.109,2.363 -0.262,6.566 1.836,4.199 2.098,8.137 2.098,8.137 0,0 -4.606,5.254 -3.422,8.141 1.207,2.887 4.211,6.828 4.211,6.828 0,0 -4.461,2.625 -4.211,4.984 0.266,2.367 4.473,7.094 3.945,8.664 -0.524,1.577 -3.512,6.288 2.109,9.694 z"
   id="path142" />

									<g
   id="g144">
										<path
   style="opacity:0.6;fill:#002037"
   d="m 494.594,602.231 c -0.172,-3.867 -0.34,-7.512 -0.5,-10.809 -20.289,3.273 -93.121,13.539 -129.234,-1.238 -0.188,2.293 -0.383,4.746 -0.594,7.301 v 0 c -0.027,0.305 -0.051,0.633 -0.066,0.945 -0.047,0.422 -0.078,0.852 -0.105,1.281 -0.051,0.598 -0.09,1.207 -0.141,1.82 -0.027,0.281 -0.043,0.555 -0.07,0.84 v 0 c -1.133,14.922 -2.273,32.535 -2.598,46.41 -0.516,23.531 1.863,115.5 4.156,194.801 0,0 1.168,67.211 -0.668,71.938 0,0 -2.109,2.363 -0.262,6.566 1.836,4.199 2.098,8.137 2.098,8.137 0,0 -4.606,5.254 -3.422,8.141 1.207,2.887 4.211,6.828 4.211,6.828 0,0 -4.461,2.625 -4.211,4.984 0.266,2.367 4.473,7.094 3.945,8.664 -0.355,1.066 -1.836,3.574 -1.004,6.145 6.137,0.168 11.457,2.969 15.969,1.473 6.297,-2.101 -14.965,-7.617 -10.637,-13.129 4.324,-5.512 14.313,4.199 15.883,0 1.578,-4.203 -14.699,-13.652 -19.355,-17.328 -4.664,-3.672 3.082,-8.926 6.941,-13.652 3.859,-4.727 -3.859,-35.707 -6.941,-45.16 -3.09,-9.449 2.559,-33.078 6.594,-38.852 4.039,-5.777 -5.613,-12.078 -6.594,-18.906 -0.98,-6.824 5.707,-16.277 6.941,-26.254 1.238,-9.977 -6.484,-31.508 -9.961,-35.707 -3.488,-4.199 3.477,-58.805 6.492,-64.063 3.012,-5.246 -2.492,-12.598 -3.473,-21.519 -0.98,-8.934 14.637,-31.508 16.734,-42.895 1.465,-7.891 -1.125,-16.879 -2.844,-21.652 23.665,5.186 64.251,9.366 112.716,-5.11 z"
   id="path143" />

										<path
   style="opacity:0.6;fill:#002037"
   d="m 464.535,955.953 c -4.723,-3.676 -3.145,-7.352 1.574,-22.578 4.723,-15.227 2.625,-29.406 0,-33.082 -2.625,-3.672 -17.477,-44.578 -11.484,-45.684 5.984,-1.102 21.988,27.832 27.98,24.684 5.988,-3.156 -35.605,-44.094 -27.98,-46.211 7.625,-2.117 20.414,25.731 24.504,22.055 4.098,-3.672 -23.52,-34.652 -26.672,-43.582 -3.145,-8.926 7.883,-6.828 9.117,-12.602 1.227,-5.777 -8.059,-25.207 -12.969,-39.379 -4.914,-14.18 15.93,-33.609 15.406,-50.41 -0.527,-16.801 -30.824,-46.981 -30.824,-46.981 l 22.816,309.262 c 14.168,4.367 24.656,1.754 28.957,-0.523 0.449,-1.223 0.668,-2.566 0.574,-4.023 -0.288,-5.001 -16.276,-7.274 -20.999,-10.946 z"
   id="path144" />

									</g>

									<path
   style="fill:#000814"
   d="m 494.289,595.496 c -0.578,-12.402 -1.043,-21.195 -1.043,-21.195 l -64.461,4.02 -62.262,-6.902 c 0,0 -0.996,10.355 -2.129,24.441 18.567,4.691 73.508,15.73 129.895,-0.364 z"
   id="path145" />

									<path
   style="fill:#e98e66"
   d="m 499.594,348.512 c -0.574,-2.645 -1.184,-4.254 -1.727,-4.559 -3.859,-2.098 -47.262,-14.695 -47.262,-14.695 -2.453,-4.203 -2.609,-25.906 -2.609,-25.906 l -18.465,-6.906 v -0.098 l -0.145,0.047 -0.137,-0.047 v 0.098 l -18.469,6.906 c 0,0 -0.16,21.703 -2.613,25.906 0,0 -43.402,12.598 -47.254,14.695 -0.551,0.305 -1.117,1.914 -1.633,4.559 l 69.578,3.855 z"
   id="path146" />

									<path
   style="fill:#c66a42"
   d="m 438.09,326.102 c 4.211,-0.816 7.953,-3.105 10.762,-5.313 -0.785,-7.695 -0.855,-17.438 -0.855,-17.438 l -18.465,-6.906 v -0.098 l -0.145,0.047 -0.137,-0.047 v 0.098 l -18.469,6.906 c 0,0 -0.031,4.738 -0.32,10.215 6.238,4.399 20.668,13.891 27.629,12.536 z"
   id="path147" />

									<g
   id="g171">
										<g
   id="g163">
											<g
   id="g162">
												<g
   id="g154">
													<path
   style="fill:#f4a27a"
   d="m 474.34,248.535 c 0,0 4.688,-8.219 11.98,-8.336 4.328,-0.066 3.059,17.723 -1.418,22.316 -4.461,4.598 -10.953,3.063 -12.398,-1.004 z"
   id="path148" />

													<path
   style="opacity:0.4;fill:#cf6244"
   d="m 475.344,260.93 c 0,0 5.441,1.914 7.789,-2.629 2.352,-4.535 4.637,-9.992 2.82,-13.996 0,0 -5.031,1.168 -9.668,10.547 0,0 3.395,4.222 -0.941,6.078 z"
   id="path149" />

													<g
   id="g151">
														<g
   id="g150">
															<path
   style="fill:#91554a"
   d="m 486.695,250.012 c -0.074,-1.699 -0.199,-3.473 -0.676,-5.008 -0.172,-0.414 -0.328,-0.57 -0.457,-0.406 l -1.086,0.691 c -0.773,0.422 -1.285,1.066 -1.941,1.578 -1.32,0.977 -2.254,2.453 -3.418,3.656 -0.625,0.586 -0.887,1.41 -1.352,2.102 l -1.258,2.176 -0.07,-0.418 c 0.832,1.168 1.488,2.527 1.34,4.027 -0.102,0.359 -0.227,0.715 -0.355,1.051 l -0.762,0.77 c -0.215,0.301 -0.605,0.34 -0.906,0.504 l -0.941,0.402 0.875,-0.523 c 0.266,-0.191 0.633,-0.27 0.789,-0.582 l 0.59,-0.762 0.199,-0.914 c 0.047,-1.25 -0.652,-2.484 -1.453,-3.441 l -0.18,-0.215 0.113,-0.203 1.254,-2.309 c 0.465,-0.738 0.738,-1.617 1.367,-2.238 1.168,-1.301 2.188,-2.715 3.648,-3.781 0.707,-0.52 1.328,-1.23 2.105,-1.578 l 1.133,-0.605 c 0.223,-0.188 0.75,-0.121 0.965,0.133 0.188,0.23 0.285,0.465 0.359,0.688 0.454,1.775 0.236,3.49 0.118,5.205 z"
   id="path150" />

														</g>

													</g>

													<g
   id="g153">
														<g
   id="g152">
															<path
   style="fill:#91554a"
   d="m 485.121,250.828 c 0.027,-0.078 -1.301,-1.184 -2.82,-1.184 -0.363,-0.121 -0.77,0 -1.137,-0.012 -0.375,-0.008 -0.734,0.035 -1.043,0.09 -0.621,0.059 -1.086,0.055 -1.086,0.055 0,0 0.348,-0.258 0.938,-0.582 0.574,-0.355 1.48,-0.535 2.41,-0.52 0.945,0.055 1.836,0.574 2.273,1.113 0.422,0.587 0.465,1.04 0.465,1.04 z"
   id="path151" />

														</g>

													</g>

												</g>

												<path
   style="fill:#f4a27a"
   d="m 435.809,315.234 c 0,0 22.059,-10.59 29.652,-22.492 6.246,-8.348 11.383,-50.918 12.102,-57.527 0.027,-0.219 0.051,-0.438 0.066,-0.66 0.027,-0.207 0.047,-0.32 0.047,-0.32 l -0.02,0.008 c 0.117,-1.371 0.195,-2.75 0.195,-4.148 0,-25.488 -20.668,-46.148 -46.156,-46.148 -25.492,0 -46.152,20.66 -46.152,46.148 0,1.664 0.094,3.293 0.262,4.906 v 0 c 0,0 5.293,48.598 12.129,57.742 8.043,13.641 29.656,22.492 29.656,22.492 0,0 3.902,1.425 8.219,-0.001 z"
   id="path154" />

												<g
   id="g161">
													<path
   style="fill:#f4a27a"
   d="m 388.605,250.477 c 0,0 -4.68,-8.219 -11.965,-8.328 -4.344,-0.074 -3.055,17.723 1.402,22.313 4.469,4.598 10.961,3.059 12.41,-1.004 z"
   id="path155" />

													<path
   style="opacity:0.4;fill:#cf6244"
   d="m 387.609,262.875 c 0,0 -5.449,1.914 -7.797,-2.629 -2.344,-4.539 -4.629,-9.996 -2.809,-14 0,0 5.027,1.172 9.664,10.547 0.001,0 -3.394,4.223 0.942,6.082 z"
   id="path156" />

													<g
   id="g158">
														<g
   id="g157">
															<path
   style="fill:#91554a"
   d="m 376.266,251.953 c -0.117,-1.715 -0.34,-3.43 0.109,-5.203 0.074,-0.227 0.172,-0.461 0.359,-0.691 0.215,-0.254 0.746,-0.316 0.965,-0.133 l 1.133,0.609 c 0.777,0.344 1.398,1.055 2.105,1.574 1.461,1.066 2.48,2.48 3.648,3.781 0.629,0.621 0.902,1.5 1.367,2.238 l 1.254,2.313 0.113,0.199 -0.18,0.215 c -0.801,0.957 -1.5,2.195 -1.453,3.441 l 0.199,0.914 0.59,0.762 c 0.156,0.309 0.523,0.387 0.789,0.586 l 0.875,0.52 -0.941,-0.402 c -0.301,-0.164 -0.691,-0.203 -0.906,-0.504 l -0.762,-0.77 c -0.129,-0.336 -0.25,-0.691 -0.355,-1.051 -0.148,-1.5 0.508,-2.859 1.34,-4.023 l -0.07,0.414 -1.258,-2.176 c -0.465,-0.691 -0.727,-1.52 -1.352,-2.102 -1.16,-1.203 -2.094,-2.676 -3.418,-3.656 -0.656,-0.512 -1.168,-1.156 -1.941,-1.578 l -1.086,-0.691 c -0.129,-0.164 -0.281,-0.008 -0.453,0.406 -0.472,1.535 -0.601,3.309 -0.671,5.008 z"
   id="path157" />

														</g>

													</g>

													<g
   id="g160">
														<g
   id="g159">
															<path
   style="fill:#91554a"
   d="m 377.824,252.762 c 0,0 0.047,-0.453 0.465,-1.035 0.441,-0.539 1.332,-1.055 2.277,-1.109 0.926,-0.016 1.836,0.168 2.406,0.523 0.59,0.324 0.938,0.582 0.938,0.582 0,0 -0.461,0.004 -1.086,-0.055 -0.309,-0.051 -0.668,-0.098 -1.039,-0.09 -0.367,0.012 -0.773,-0.109 -1.141,0.008 -1.515,-0.004 -2.847,1.102 -2.82,1.176 z"
   id="path158" />

														</g>

													</g>

												</g>

												<path
   style="fill:#5f221b"
   d="m 437.367,268.934 c 0,0 0,8.145 -1.668,9.016 -1.656,0.878 0.094,-4.723 1.668,-9.016 z"
   id="path161" />

											</g>

										</g>

										<g
   id="g164">
											<path
   style="fill:#85453e"
   d="m 402.258,264.652 c 0,0 0.16,-0.266 0.438,-0.621 0.301,-0.336 0.699,-0.781 1.102,-1.23 0.461,-0.379 0.918,-0.766 1.262,-1.055 0.363,-0.27 0.637,-0.414 0.637,-0.414 0,0 -0.156,0.266 -0.438,0.621 -0.301,0.332 -0.699,0.781 -1.098,1.227 -0.461,0.383 -0.922,0.77 -1.266,1.055 -0.364,0.269 -0.637,0.417 -0.637,0.417 z"
   id="path163" />

										</g>

										<g
   id="g165">
											<path
   style="fill:#85453e"
   d="m 406.449,262.023 c 0,0 -0.141,0.422 -0.414,1.023 -0.289,0.59 -0.68,1.375 -1.066,2.156 -0.465,0.746 -0.934,1.488 -1.281,2.043 -0.371,0.543 -0.66,0.883 -0.66,0.883 0,0 0.141,-0.422 0.414,-1.023 0.293,-0.586 0.68,-1.371 1.066,-2.156 0.469,-0.742 0.934,-1.484 1.281,-2.039 0.375,-0.543 0.66,-0.887 0.66,-0.887 z"
   id="path164" />

										</g>

										<g
   id="g166">
											<path
   style="fill:#85453e"
   d="m 408.504,262.988 c 0.039,0.023 -0.332,0.984 -0.801,1.887 -0.555,0.848 -1.215,1.637 -1.254,1.613 -0.039,-0.023 0.328,-0.98 0.801,-1.883 0.559,-0.847 1.215,-1.636 1.254,-1.617 z"
   id="path165" />

										</g>

										<g
   id="g167">
											<path
   style="fill:#85453e"
   d="m 461.016,266.75 c 0,0 -0.273,-0.148 -0.637,-0.414 -0.344,-0.293 -0.801,-0.672 -1.262,-1.059 -0.402,-0.445 -0.801,-0.891 -1.102,-1.227 -0.281,-0.355 -0.438,-0.621 -0.438,-0.621 0,0 0.273,0.148 0.637,0.414 0.344,0.289 0.805,0.672 1.266,1.059 0.398,0.445 0.797,0.895 1.098,1.227 0.281,0.355 0.438,0.621 0.438,0.621 z"
   id="path166" />

										</g>

										<g
   id="g168">
											<path
   style="fill:#85453e"
   d="m 456.824,264.129 c 0,0 0.285,0.34 0.656,0.883 0.348,0.559 0.816,1.297 1.281,2.039 0.387,0.785 0.773,1.57 1.066,2.156 0.266,0.602 0.41,1.023 0.41,1.023 0,0 -0.285,-0.34 -0.656,-0.887 -0.348,-0.555 -0.813,-1.297 -1.281,-2.035 -0.387,-0.785 -0.773,-1.57 -1.066,-2.156 -0.265,-0.601 -0.41,-1.023 -0.41,-1.023 z"
   id="path167" />

										</g>

										<g
   id="g169">
											<path
   style="fill:#85453e"
   d="m 454.777,265.094 c 0.039,-0.023 0.695,0.766 1.25,1.617 0.473,0.898 0.836,1.859 0.797,1.883 -0.035,0.02 -0.695,-0.77 -1.246,-1.617 -0.473,-0.903 -0.84,-1.864 -0.801,-1.883 z"
   id="path168" />

										</g>

										<path
   style="fill:#231114"
   d="m 421.094,234.105 c 0,0 -8.754,-9.598 -20.965,-6.59 0,0 -3.996,3.789 -4.207,5.719 0,0 9.586,-2.101 25.172,0.871 z"
   id="path169" />

										<path
   style="fill:#231114"
   d="m 443.215,234.105 c 0,0 10.648,-8.914 18.867,-6.797 0,0 4.91,1.637 6.297,5.926 0,0 -9.59,-2.101 -25.164,0.871 z"
   id="path170" />

										<path
   style="fill:#e38a62"
   d="m 427.59,315.234 c 0,0 3.047,1.109 6.73,0.391 -30.91,-10.32 -43.969,-49.137 -43.969,-49.137 v 0 c 2.055,11.371 4.68,22.371 7.582,26.254 8.044,13.641 29.657,22.492 29.657,22.492 z"
   id="path171" />

									</g>

									<path
   style="fill:#7ed2f1"
   d="m 359.941,343.047 c 0,0 -11.816,53.332 7.094,105.313 0,0 1.59,45.695 1.234,58.645 -0.324,12.047 -11.977,73.863 -2.074,78.305 0,0 65.797,18.84 125.309,1.16 0,0 11.391,2.523 4.855,-42.711 -2.301,-15.871 -4.063,-55.387 -7.508,-80.691 0,0 12.09,-39.965 13.656,-61.438 1.656,-22.84 -2.516,-57.211 -2.516,-57.211 l -49.98,-16.668 c 0,0 -17.445,23.215 -21.066,23.148 -2.934,-0.059 -13.031,-15.949 -20.176,-23.148 z"
   id="path172" />

									<path
   style="fill:#000f2a"
   d="m 423.063,381.02 c 0,0 -9.816,121.992 -8.605,126.453 0,0 5.813,12.078 11.063,16.277 0,0 7.141,-5.246 11.594,-18.117 l -5.418,-125.164 z"
   id="path173" />

									<path
   style="fill:#000f2a"
   d="m 431.695,361.324 c 0,0 13.898,-21.875 17.156,-29.402 l 2.922,3.496 c 0,0 -13.363,22.582 -17.453,30.805 z"
   id="path174" />

									<path
   style="fill:#000f2a"
   d="m 418.695,363.941 c 0,0 -9.809,-20.117 -11.383,-25.723 l 3.148,-2.801 c 0,0 6.477,16.949 12.602,26.875 z"
   id="path175" />

									<path
   style="fill:#0f294a"
   d="m 417.461,362.023 c 0,0 3.684,14.051 6.484,17.18 2.801,3.125 7.75,1.266 7.75,1.266 0,0 6.07,-15.121 5.367,-20.016 l -3.852,-1.582 c 0,0 -6.797,1.676 -12.246,1.23 z"
   id="path176" />

									<path
   style="opacity:0.4;fill:#47adcb"
   d="m 433.551,587.672 c -25.02,0.156 -49.523,-8.207 -59.215,-15.391 -9.684,-7.183 0,-22.219 0,-22.219 12.367,5.598 48.195,17.852 50.293,14.703 2.102,-3.152 -4.73,-5.953 -4.73,-5.953 -14.523,-5.25 -41.82,-24.852 -44.969,-28.004 -3.141,-3.148 -4.555,-12.605 -0.594,-14.355 3.961,-1.746 22.285,22.055 29.285,17.508 7.012,-4.555 -25.543,-28.707 -28.691,-36.754 -3.141,-8.055 17.496,-57.762 21.031,-66.867 3.008,-7.746 -29.816,-40.34 -39.652,-49.871 -0.219,19.258 1.93,43.719 10.727,67.891 0,0 1.59,45.695 1.234,58.645 -0.324,12.047 -11.977,73.863 -2.074,78.305 0,0 64.578,18.484 123.641,1.641 -7.841,-2.435 -36.489,0.6 -56.286,0.721 z"
   id="path177" />

									<path
   style="fill:#b9e5f4"
   d="m 394.008,409.809 c 0,0 -89.813,49.918 -103.965,51.09 -25.465,2.098 -32.262,-31.555 -10.238,-41.379 20.109,-8.965 109.215,-28.352 109.215,-28.352 z"
   id="path178" />

								</g>

							</g>

							<g
   id="g191">
								<g
   id="g185">
									<g
   id="g184">
										<path
   style="fill:#ffffff"
   d="m 422.004,251.98 c 0,0 -2.055,-6.605 -6.633,-10.324 -6.559,-5.313 -18.445,-3.242 -17.824,6.715 0,0 0.457,9.18 8.77,10.383 6.718,0.969 13.203,-2.012 15.687,-6.774 z"
   id="path179" />

										<path
   style="fill:#ffffff"
   d="m 422.004,251.98 c 0,0 -2.055,-6.605 -6.633,-10.324 -6.559,-5.313 -18.445,-3.242 -17.824,6.715 0,0 0.457,9.18 8.77,10.383 6.718,0.969 13.203,-2.012 15.687,-6.774 z"
   id="path180" />

										<path
   style="fill:#231114"
   d="m 415.371,241.656 c -1.488,-1.207 -3.27,-2.031 -5.094,-2.465 -2.043,2.238 -3.184,6.297 -2.762,10.801 0.328,3.629 1.617,6.769 3.352,8.824 4.926,-0.566 9.207,-3.16 11.129,-6.809 0,-0.02 0,-0.035 0,-0.051 -0.082,-0.296 -2.156,-6.667 -6.625,-10.3 z"
   id="path181" />

										<g
   id="g183">
											<g
   id="g182">
												<path
   style="fill:#231114"
   d="m 422.004,251.98 c 0,0 -0.238,-0.527 -0.723,-1.41 -0.5,-0.875 -1.129,-2.141 -2.152,-3.496 -0.508,-0.672 -0.922,-1.504 -1.602,-2.176 -0.688,-0.66 -1.418,-1.34 -2.117,-2.09 -0.531,-0.699 -1.723,-1.387 -2.547,-1.785 -0.898,-0.465 -1.961,-0.797 -3,-1.02 -2.078,-0.52 -4.313,-0.48 -6.207,0.137 -0.934,0.324 -1.844,0.684 -2.574,1.223 -0.762,0.492 -1.391,1.125 -1.832,1.789 -0.969,1.305 -1.344,2.688 -1.512,3.656 -0.121,0.996 -0.191,1.563 -0.191,1.563 0,0 -0.055,-0.578 -0.148,-1.59 0.031,-0.996 0.063,-2.563 1.016,-4.156 0.422,-0.805 1.066,-1.609 1.887,-2.277 0.785,-0.711 1.785,-1.273 2.871,-1.648 2.172,-0.785 4.688,-0.918 7.07,-0.41 1.191,0.305 2.324,0.695 3.41,1.305 1.141,0.652 1.941,1.109 2.773,2.082 0.766,0.82 1.457,1.664 2.109,2.441 0.641,0.789 0.988,1.699 1.438,2.453 0.922,1.492 1.262,2.949 1.629,3.883 0.312,0.952 0.402,1.526 0.402,1.526 z"
   id="path182" />

											</g>

										</g>

									</g>

								</g>

								<g
   id="g190">
									<g
   id="g189">
										<path
   style="fill:#ffffff"
   d="m 441.391,251.98 c 0,0 2.055,-6.605 6.641,-10.324 6.551,-5.313 18.445,-3.242 17.816,6.715 0,0 -0.457,9.18 -8.758,10.383 -6.723,0.969 -13.203,-2.012 -15.699,-6.774 z"
   id="path185" />

										<path
   style="fill:#231114"
   d="m 457.09,258.754 c 8.301,-1.203 8.758,-10.383 8.758,-10.383 0.422,-6.863 -5.078,-9.977 -10.688,-9.512 -2.242,2.156 -3.539,6.398 -3.098,11.133 0.336,3.672 1.648,6.863 3.426,8.914 0.535,-0.031 1.059,-0.078 1.602,-0.152 z"
   id="path186" />

										<g
   id="g188">
											<g
   id="g187">
												<path
   style="fill:#231114"
   d="m 441.391,251.98 c 0,0 0.09,-0.574 0.402,-1.527 0.371,-0.934 0.707,-2.391 1.629,-3.883 0.453,-0.75 0.801,-1.66 1.441,-2.453 0.652,-0.777 1.34,-1.621 2.113,-2.438 0.828,-0.973 1.625,-1.434 2.77,-2.086 1.086,-0.609 2.215,-1 3.406,-1.305 2.387,-0.508 4.902,-0.375 7.074,0.41 1.086,0.375 2.082,0.938 2.871,1.648 0.816,0.668 1.465,1.473 1.883,2.277 0.957,1.594 0.984,3.16 1.016,4.156 -0.094,1.012 -0.148,1.59 -0.148,1.59 0,0 -0.07,-0.566 -0.191,-1.563 -0.172,-0.969 -0.543,-2.355 -1.512,-3.656 -0.438,-0.664 -1.066,-1.297 -1.828,-1.789 -0.734,-0.539 -1.641,-0.898 -2.578,-1.223 -1.895,-0.617 -4.129,-0.656 -6.207,-0.137 -1.035,0.223 -2.102,0.555 -2.996,1.023 -0.828,0.398 -2.016,1.09 -2.551,1.785 -0.695,0.75 -1.426,1.426 -2.117,2.086 -0.676,0.672 -1.094,1.508 -1.602,2.176 -1.023,1.355 -1.652,2.621 -2.152,3.496 -0.485,0.886 -0.723,1.413 -0.723,1.413 z"
   id="path187" />

											</g>

										</g>

									</g>

								</g>

							</g>

							<path
   style="fill:#b9e5f4"
   d="m 410.191,317.84 c 0,0 -2.445,-1.043 -4.496,2.496 l -5.797,10.195 c 0,0 3.809,25.645 5.797,32.602 0,0 11.332,-18.121 16.309,-15.621 4.988,2.492 6.934,8.617 6.934,8.617 0,0 0.422,-4.684 -0.5,-8.883 -0.922,-4.203 -17.083,-20.48 -18.247,-29.406 z"
   id="path191" />

							<path
   style="fill:#b9e5f4"
   d="m 448.48,317.84 c 0,0 2.438,-1.043 4.488,2.496 l 5.805,10.195 c 0,0 -3.809,25.645 -5.805,32.602 0,0 -11.328,-18.121 -16.305,-15.621 -4.984,2.492 -7.727,8.617 -7.727,8.617 0,0 -0.422,-4.551 0.5,-8.75 0.916,-4.203 17.869,-20.613 19.044,-29.539 z"
   id="path192" />

							<path
   style="fill:#ffffff"
   d="M 364.969,596.988"
   id="path193" />

							<path
   style="fill:#316c8e"
   d="m 369.234,585.176 c 0,0 -1.836,12.574 -1.051,13.488 0.785,0.922 4.07,1.973 4.988,1.445 0.918,-0.523 1.707,-13.355 1.707,-13.355 0,0 0.328,-1.578 -0.66,-1.973 -1.741,-0.695 -4.73,-1.675 -4.984,0.395 z"
   id="path194" />

							<path
   style="fill:#316c8e"
   d="m 393.738,590.074 c 0,0 -1.836,12.57 -1.051,13.488 0.785,0.918 4.07,1.969 4.984,1.445 0.922,-0.527 1.711,-13.356 1.711,-13.356 0,0 0.328,-1.578 -0.652,-1.969 -1.753,-0.698 -4.738,-1.678 -4.992,0.392 z"
   id="path195" />

							<path
   style="fill:#316c8e"
   d="m 484.824,586.859 c 0,0 1.836,12.566 1.059,13.492 -0.797,0.918 -4.078,1.969 -4.992,1.445 -0.926,-0.527 -1.711,-13.359 -1.711,-13.359 0,0 -0.328,-1.578 0.66,-1.969 1.75,-0.699 4.738,-1.675 4.984,0.391 z"
   id="path196" />

							<path
   style="fill:#316c8e"
   d="m 460.32,591.762 c 0,0 1.844,12.566 1.051,13.484 -0.785,0.918 -4.07,1.969 -4.992,1.445 -0.914,-0.527 -1.703,-13.356 -1.703,-13.356 0,0 -0.32,-1.574 0.66,-1.969 1.754,-0.698 4.734,-1.675 4.984,0.396 z"
   id="path197" />

							<path
   style="fill:#91afb8"
   d="m 441.035,604.805 c 0,0.582 -0.469,1.055 -1.043,1.055 h -24.809 c -0.582,0 -1.059,-0.473 -1.059,-1.055 v -12.266 c 0,-0.582 0.477,-1.055 1.059,-1.055 h 24.809 c 0.574,0 1.043,0.473 1.043,1.055 z"
   id="path198" />

							<path
   style="fill:#74969d"
   d="m 414.125,600.734 v 4.07 c 0,0.582 0.477,1.055 1.059,1.055 h 24.809 c 0.574,0 1.043,-0.473 1.043,-1.055 v -4.07 z"
   id="path199" />

							<path
   style="fill:#d5e5e9"
   d="m 441.035,593.117 v -0.578 c 0,-0.582 -0.469,-1.055 -1.043,-1.055 h -24.809 c -0.582,0 -1.059,0.473 -1.059,1.055 v 0.578 z"
   id="path200" />

							<polygon
   style="fill:#7ed2f1"
   points="532.289,602.047 528.719,584.867 554.832,582.375 555.277,600.074 "
   id="polygon200" />

						</g>

					</g>

					<path
   style="fill:#ffffff"
   d="m 410.461,246.074 c 0,1.039 -1.457,1.875 -3.242,1.875 -1.793,0 -3.234,-0.836 -3.234,-1.875 0,-1.043 1.441,-1.879 3.234,-1.879 1.785,0 3.242,0.836 3.242,1.879 z"
   id="path201" />

					<path
   style="fill:#ffffff"
   d="m 455.328,245.398 c 0,1.039 -1.445,1.875 -3.234,1.875 -1.793,0 -3.242,-0.836 -3.242,-1.875 0,-1.039 1.449,-1.879 3.242,-1.879 1.789,0.001 3.234,0.84 3.234,1.879 z"
   id="path202" />

					<g
   id="g203">
						<path
   style="fill:#85453e"
   d="m 421.094,283.395 c 0,0 1.852,0.094 4.586,0.055 1.367,0.09 2.961,-0.109 4.656,-0.086 1.688,-0.086 3.496,-0.203 5.281,-0.422 1.766,-0.293 3.598,-0.34 5.215,-0.809 1.609,-0.473 3.23,-0.602 4.488,-1.09 2.531,-0.934 4.348,-1.457 4.348,-1.457 0,0 -1.516,1.02 -3.984,2.395 -1.246,0.641 -2.816,1.109 -4.488,1.66 -1.672,0.555 -3.547,0.703 -5.383,1.078 -3.723,0.309 -7.461,0.23 -10.211,-0.27 -2.758,-0.398 -4.508,-1.054 -4.508,-1.054 z"
   id="path203" />

					</g>

					<path
   style="fill:#050001"
   d="m 386.23,247.273 c 0,0 -2.59,-8.141 -5.359,-16.75 -4.25,-13.215 -7.797,-22.469 2.176,-29.293 0,0 -6.484,-4.203 -4.996,-7.004 1.5,-2.801 14.035,-39.43 25.934,-40.133 0,0 5.781,-1.75 0,14.176 0,0 7.602,-10.332 17.109,-9.449 9.492,0.871 49.789,-1.227 53.016,-6.477 0,0 0.594,5.074 -8.234,8.75 0,0 14.793,-2.273 23.191,-7 0,0 2.793,-1.926 3.156,1.926 0.348,3.852 -1.074,17.238 -13.188,23.801 0,0 12.129,3.063 14.734,6.039 2.617,2.973 -6.473,36.645 -11.688,55.344 l -5.984,4.871 c 0,0 -4.559,-16.547 -3.594,-33.348 0,0 -39.816,7.352 -62.043,-12.43 l -11.543,4.027 c 0,0 -4.098,39.074 -8.566,44.672 10e-4,0.001 -0.355,3.427 -4.121,-1.722 z"
   id="path204" />

					<path
   style="fill:#f4a27a"
   d="m 403.324,378.039 c 0,0 5.52,-17.457 9.016,-17.723 2.676,-0.203 7.133,-1.707 10.723,-5.203 0,0 1.008,-0.48 1.398,0 0.391,0.48 1.309,4.938 -4.586,7.566 0,0 -3.547,3.813 -4.082,4.336 -0.516,0.52 1.844,2.621 7.27,1.313 2.777,-0.676 11.113,-6.434 12.824,-6.828 0,0 1.703,-0.262 2.496,0.523 0.785,0.789 0.391,3.285 0,3.48 -0.398,0.195 -3.156,4.398 -4.594,5.969 0,0 2.488,3.414 -0.137,6.039 0,0 -0.102,4.992 -1.957,6.172 0,0 -0.262,3.02 -2.047,4.203 -1.77,1.18 -16.73,9.453 -22.777,9.711 l -9.445,5.91 c 0,0 -3.156,-9.715 -3.418,-12.867 0,0.001 6.914,-6.796 9.316,-12.601 z"
   id="path205" />

					<path
   style="fill:#b9e5f4"
   d="m 396.461,386.355 c 0,0 5.602,16.449 5.426,21.527 l -10.859,5.25 -5.066,-22.402 z"
   id="path206" />

				</g>

			</g>
  </g>
</svg>
