<?xml version="1.0" encoding="UTF-8" standalone="no"?>
<!-- Created with Inkscape (http://www.inkscape.org/) -->

<svg
   width="37.753014mm"
   height="121.99115mm"
   viewBox="0 0 37.753014 121.99115"
   version="1.1"
   id="svg1"
   inkscape:version="1.4.2 (f4327f4, 2025-05-13)"
   sodipodi:docname="woman2.svg"
   xmlns:inkscape="http://www.inkscape.org/namespaces/inkscape"
   xmlns:sodipodi="http://sodipodi.sourceforge.net/DTD/sodipodi-0.dtd"
   xmlns="http://www.w3.org/2000/svg"
   xmlns:svg="http://www.w3.org/2000/svg">
  <sodipodi:namedview
     id="namedview1"
     pagecolor="#ffffff"
     bordercolor="#000000"
     borderopacity="0.25"
     inkscape:showpageshadow="2"
     inkscape:pageopacity="0.0"
     inkscape:pagecheckerboard="0"
     inkscape:deskcolor="#d1d1d1"
     inkscape:document-units="mm"
     inkscape:zoom="1.2275954"
     inkscape:cx="127.0777"
     inkscape:cy="118.11709"
     inkscape:window-width="2880"
     inkscape:window-height="1676"
     inkscape:window-x="-12"
     inkscape:window-y="-12"
     inkscape:window-maximized="1"
     inkscape:current-layer="layer1" />
  <defs
     id="defs1" />
  <g
     inkscape:label="图层 1"
     inkscape:groupmode="layer"
     id="layer1"
     transform="translate(-71.437496,-117.21041)">
    <g
       id="XMLID_190_"
       transform="matrix(0.26458333,0,0,0.26458333,-92.37522,97.000984)">
	<path
   id="XMLID_449_"
   style="fill:#fd434c"
   d="m 677.868,140.802 c -3.96,-2.253 28.726,-1.628 25.016,0 -8.617,3.782 -20.398,2.628 -25.016,0 z" />

	<path
   id="XMLID_1249_"
   style="fill:#4d3931"
   d="m 646.783,169.019 c 2.839,-4.702 8.222,-8.275 8.716,-13.717 0.462,-5.092 -3.628,-9.443 -4.865,-14.41 -2.522,-10.12 6.528,-14.621 8.334,-17.014 5.359,-7.098 -3.275,-33.542 13.595,-44.668 5.597,-3.691 13.843,-3.914 18.699,0.674 2.94,-0.907 6.896,-3.444 11.236,-2.154 4.771,1.419 12.68,11.672 13.768,18.351 1.245,7.646 -2.759,15.872 0.309,23.007 2.769,6.442 12.32,10.98 10.312,25.146 -0.243,1.713 -3.635,8.337 -4.751,9.677 -3.535,4.241 2.628,10.969 4.006,16.276 z" />

	<g
   id="XMLID_54_">
		<path
   id="XMLID_217_"
   style="fill:#fb9a8b"
   d="m 723.5,165.287 c -13.463,-9.255 -25.985,-9.048 -20.873,-33.072 l -23.165,-1.378 c -0.941,17.831 0.281,19.095 -7.538,25.685 -1.722,1.451 -12.703,7.455 -12.703,7.455 17.422,14.79 49.253,13.566 64.279,1.31 z" />

		<path
   id="XMLID_188_"
   style="fill:#fb9a8b"
   d="m 669.71,99.904 c -4.675,35.238 26.28,55.021 37.312,26.767 C 726.931,75.684 673.515,71.225 669.71,99.904 Z" />

		<g
   id="XMLID_182_">
			<path
   id="XMLID_184_"
   style="fill:#fb9a8b"
   d="m 711.982,110.766 c -3.522,-1.024 -3.764,6.208 -3.783,9.797 -0.036,7.078 9.33,-8.183 3.783,-9.797 z" />

		</g>

		<g
   id="XMLID_169_">
			<path
   id="XMLID_173_"
   style="fill:#fb9a8b"
   d="m 668.185,110.308 c 3.528,-1.006 3.731,6.227 3.73,9.817 -10e-4,7.077 -9.286,-8.232 -3.73,-9.817 z" />

		</g>

		<path
   id="XMLID_168_"
   style="fill:#382823"
   d="m 679.548,113.892 c -1.221,-0.003 -2.164,-4.554 0.798,-4.546 1.58,0.004 1.199,4.551 -0.798,4.546 z" />

		<path
   id="XMLID_143_"
   style="fill:#382823"
   d="m 700.471,113.946 c 1.221,0.003 2.188,-4.543 -0.773,-4.55 -1.581,-0.004 -1.225,4.545 0.773,4.55 z" />

		<path
   id="XMLID_141_"
   style="fill:#4d3931"
   d="m 681.765,103.542 c 1.963,0.124 1.869,1.661 0.422,2.033 -1.938,0.498 -2.341,-0.198 -6.498,1.204 -4.591,1.548 0.832,-3.568 6.076,-3.237 z" />

		<path
   id="XMLID_138_"
   style="fill:#4d3931"
   d="m 697.055,103.999 c -1.967,0.041 -1.94,1.581 -0.511,2.013 1.914,0.58 2.643,-0.014 6.439,1.478 4.507,1.772 -0.631,-3.601 -5.928,-3.491 z" />

		<path
   id="XMLID_133_"
   style="fill:#ec795c"
   d="m 687.477,121.282 c 4.195,1.683 3.914,-0.269 2.665,-0.188 -4.147,0.269 0.011,-1.485 0.152,-8.222 0.015,-0.708 -0.823,-0.716 -0.912,-0.134 -0.061,0.402 -0.108,1.883 -0.203,2.306 -1.186,5.25 -3.041,5.7 -1.702,6.238 z" />

		<path
   id="XMLID_128_"
   style="fill:#ffffff"
   d="m 695.46,127.391 c 0.388,-0.106 0.691,0.33 0.442,0.641 -7.589,9.489 -13.216,-0.32 -11.93,-0.761 2.616,-0.898 6.748,1.409 11.488,0.12 z" />

		<g
   id="XMLID_122_">
			<path
   id="XMLID_125_"
   style="fill:#ec795c"
   d="m 668.928,113.846 c 0.105,-0.331 0.61,-0.173 0.507,0.153 -0.626,1.988 -0.013,3.155 0.82,3.606 0.128,0.069 0.175,0.228 0.104,0.353 -0.471,0.836 -2.327,-1.27 -1.431,-4.112 z" />

		</g>

		<g
   id="XMLID_111_">
			<path
   id="XMLID_112_"
   style="fill:#ec795c"
   d="m 710.639,118.086 c 0.766,-0.869 0.631,-2.228 0.444,-3.434 -0.053,-0.341 0.472,-0.416 0.524,-0.078 0.702,4.524 -1.672,4.307 -0.968,3.512 z" />

		</g>

		<g
   id="XMLID_107_">
			<path
   id="XMLID_109_"
   style="fill:#ec795c"
   d="m 680.226,134.994 c 7.055,7.639 17.899,4.915 20.9,0.591 1.185,-1.685 0.098,4.1 -8.904,4.711 -9.943,0.675 -14.029,-7.51 -11.996,-5.302 z" />

		</g>

	</g>

	<g
   id="XMLID_374_">
		<path
   id="XMLID_373_"
   style="fill:#ff9c8a"
   d="m 665.984,515.269 c 2.674,7.578 12.148,7.524 13.496,-1.139 l -0.11,-20.945 -16.861,-0.109 z" />

		<path
   id="XMLID_365_"
   style="fill:#ff9c8a"
   d="m 711.872,515.224 c 2.463,7.647 11.934,7.844 13.522,-0.779 l 0.471,-20.94 -16.852,-0.558 z" />

		<g
   id="XMLID_332_">
			<g
   id="XMLID_360_">
				<path
   style="fill:#f2e8de"
   d="m 640.345,536.216 c -0.504,-0.77 -0.598,-1.761 -0.266,-2.617 0.966,-2.492 26.901,-18.986 25.905,-18.331 4.769,2.9 11.119,1.388 13.496,-1.139 1.663,3.337 6.47,15.367 1.727,16.609 -2.832,0.744 -38.734,8.73 -40.862,5.478 z"
   id="path137" />

				<path
   style="fill:#fffffb"
   d="m 644.217,537.451 c -2.276,10e-4 -3.839,-0.281 -4.286,-0.965 -0.591,-0.901 -0.708,-2.048 -0.313,-3.065 0.926,-2.388 20.893,-15.262 25.486,-18.108 l -0.044,-0.027 0.653,-0.43 0.043,0.058 c 0.173,-0.104 0.271,-0.158 0.283,-0.158 0,0 0.358,0.02 0.358,0.02 l 0.052,0.194 c 4.589,2.635 10.535,1.092 12.671,-1.178 l 0.486,-0.518 0.317,0.636 c 1.419,2.848 5.083,11.831 3.359,15.628 -0.4,0.882 -1.056,1.447 -1.95,1.682 -0.314,0.082 -26.48,6.231 -37.115,6.231 z m 21.77,-21.606 c -3.202,1.986 -24.673,15.938 -25.447,17.934 -0.275,0.71 -0.191,1.54 0.219,2.166 1.742,2.659 34.426,-4.14 40.323,-5.683 0.599,-0.157 1.024,-0.528 1.299,-1.134 1.354,-2.982 -1.359,-10.555 -3.054,-14.176 -2.71,2.279 -8.596,3.604 -13.34,0.893 z"
   id="path138" />

			</g>

			<g
   id="XMLID_333_">
				<g
   id="XMLID_357_">
					<path
   style="fill:#fffffb"
   d="m 654.104,530.122 c -1.066,0 -2.299,-0.35 -3.222,-0.789 -0.8,-0.381 -1.81,-1.035 -2.074,-1.988 -0.146,-0.527 0.163,-1.072 0.689,-1.219 0.528,-0.144 1.069,0.161 1.217,0.685 0.057,0.132 0.453,0.516 1.336,0.875 1.161,0.474 2.221,0.533 2.541,0.394 0.501,-0.22 1.085,0.011 1.303,0.512 0.219,0.501 -0.01,1.084 -0.511,1.303 -0.365,0.159 -0.806,0.227 -1.279,0.227 z"
   id="path139" />

				</g>

				<g
   id="XMLID_354_">
					<path
   style="fill:#fffffb"
   d="m 659.405,526.428 c -2.062,0 -4.085,-1.065 -5.195,-2.788 -0.296,-0.46 -0.164,-1.072 0.296,-1.368 0.459,-0.297 1.072,-0.164 1.368,0.296 0.823,1.278 2.474,2.035 4.005,1.853 0.545,-0.06 1.036,0.319 1.102,0.862 0.066,0.543 -0.32,1.036 -0.863,1.103 -0.237,0.028 -0.475,0.042 -0.713,0.042 z"
   id="path140" />

				</g>

				<g
   id="XMLID_334_">
					<path
   style="fill:#fffffb"
   d="m 664.081,522.851 c -1.856,0 -3.714,-0.688 -5.092,-1.91 -0.409,-0.362 -0.447,-0.988 -0.084,-1.396 0.362,-0.409 0.988,-0.45 1.397,-0.084 1.163,1.03 2.792,1.545 4.349,1.381 0.554,-0.06 1.032,0.337 1.089,0.88 0.058,0.544 -0.336,1.031 -0.88,1.089 -0.259,0.026 -0.519,0.04 -0.779,0.04 z"
   id="path141" />

				</g>

			</g>

		</g>

		<g
   id="XMLID_315_">
			<g
   id="XMLID_327_">
				<path
   style="fill:#f2e8de"
   d="m 685.661,535.48 c -1.439,-2.336 0.785,-4.351 3.102,-5.814 10.816,-6.824 23.109,-14.443 23.109,-14.443 4.686,3.026 11.076,1.684 13.522,-0.779 1.384,2.979 6.181,15.507 1.187,16.668 -2.87,0.668 -38.862,7.711 -40.92,4.368 z"
   id="path142" />

				<path
   style="fill:#fffffb"
   d="m 690.31,536.82 c -2.716,0 -4.596,-0.31 -5.07,-1.08 -1.305,-2.12 -0.208,-4.304 3.26,-6.492 10.693,-6.747 22.989,-14.369 23.112,-14.445 l 0.266,-0.165 0.263,0.17 c 4.534,2.929 10.67,1.535 12.903,-0.711 l 0.5,-0.504 0.299,0.644 c 1.337,2.878 4.743,11.937 2.916,15.682 -0.437,0.895 -1.132,1.459 -2.066,1.677 -0.31,0.07 -25.304,5.224 -36.383,5.224 z m -4.228,-1.599 c 1.683,2.735 34.233,-3.16 40.387,-4.591 0.638,-0.148 1.097,-0.523 1.4,-1.146 1.451,-2.975 -1.011,-10.472 -2.65,-14.221 -2.771,2.203 -8.686,3.37 -13.349,0.544 -1.84,1.142 -13.018,8.08 -22.843,14.279 -3.942,2.486 -3.569,4.122 -2.945,5.135 z"
   id="path143" />

			</g>

			<g
   id="XMLID_318_">
				<g
   id="XMLID_324_">
					<path
   style="fill:#fffffb"
   d="m 698.938,530.802 c -0.049,0 -0.098,-0.004 -0.147,-0.011 -1.3,-0.193 -4.753,-0.706 -5.006,-3.656 -0.047,-0.545 0.357,-1.024 0.902,-1.071 0.547,-0.034 1.024,0.358 1.071,0.901 0.056,0.648 0.484,1.445 3.325,1.867 0.541,0.081 0.914,0.584 0.833,1.125 -0.073,0.491 -0.496,0.845 -0.978,0.845 z"
   id="path144" />

				</g>

				<g
   id="XMLID_320_">
					<path
   style="fill:#fffffb"
   d="m 704.054,527.026 c -2.105,-0.085 -4.117,-1.176 -5.29,-2.849 -0.314,-0.447 -0.206,-1.064 0.242,-1.379 0.448,-0.313 1.065,-0.204 1.379,0.242 0.826,1.179 2.247,1.947 3.709,2.006 0.546,0.022 0.971,0.483 0.949,1.029 -0.022,0.532 -0.461,0.951 -0.989,0.951 z"
   id="path145" />

				</g>

				<g
   id="XMLID_319_">
					<path
   style="fill:#fffffb"
   d="m 708.386,523.64 c -1.667,0 -3.681,-1.051 -4.416,-2.021 -0.33,-0.436 -0.244,-1.057 0.191,-1.387 0.436,-0.331 1.057,-0.243 1.387,0.191 0.46,0.607 2.387,1.478 3.198,1.19 0.514,-0.188 1.081,0.083 1.266,0.598 0.184,0.516 -0.084,1.082 -0.599,1.266 -0.314,0.113 -0.663,0.163 -1.027,0.163 z"
   id="path146" />

				</g>

			</g>

		</g>

	</g>

	<path
   id="XMLID_266_"
   style="fill:#323d4d"
   d="m 687.298,504.136 c -0.033,1.155 -0.995,2.076 -2.174,2.082 -28.567,0.14 -29.422,0.907 -29.535,-1.923 -8.768,-219.158 -8.496,-205.024 -7.74,-210.562 2.194,-16.072 6.869,-38.576 11.646,-48.54 20.002,0.126 42.938,-0.285 63.159,-1.02 5.6,10.062 11.837,32.966 14.574,48.644 1.221,6.993 -4.664,211.996 -4.638,211.016 -0.03,1.153 -0.986,2.075 -2.163,2.086 -28.379,0.28 -29.268,1.053 -29.387,-1.786 l -7.869,-187.792 c -0.702,-5.642 -5.901,188.791 -5.873,187.795 z" />

	<g
   id="XMLID_450_">
		<g
   id="XMLID_453_">
			<path
   style="fill:#fffffb"
   d="m 693.38,305.29 c -0.192,0 -0.375,-0.113 -0.456,-0.302 -3.407,-8.037 -4.988,-16.879 -4.573,-25.571 0.013,-0.274 0.25,-0.49 0.518,-0.471 0.273,0.013 0.484,0.245 0.471,0.517 -0.408,8.544 1.146,17.237 4.496,25.138 0.107,0.252 -0.011,0.542 -0.262,0.649 -0.064,0.027 -0.129,0.04 -0.194,0.04 z"
   id="path147" />

		</g>

		<g
   id="XMLID_452_">
			<path
   style="fill:#fffffb"
   d="m 649.48,285.975 c -0.145,0 -0.288,-0.063 -0.385,-0.184 -0.172,-0.213 -0.139,-0.524 0.073,-0.696 l 0.742,-0.598 c 6.518,-5.245 9.217,-7.415 13.334,-33.853 0.043,-0.27 0.299,-0.454 0.565,-0.413 0.27,0.042 0.455,0.295 0.413,0.565 -4.177,26.817 -6.962,29.058 -13.692,34.472 l -0.739,0.596 c -0.092,0.075 -0.202,0.111 -0.311,0.111 z"
   id="path148" />

		</g>

		<g
   id="XMLID_451_">
			<path
   style="fill:#fffffb"
   d="m 733.815,285.842 c -0.075,0 -0.151,-0.017 -0.222,-0.053 -8.556,-4.308 -9.872,-4.97 -18.794,-35.709 -0.076,-0.263 0.075,-0.537 0.337,-0.613 0.268,-0.078 0.538,0.075 0.613,0.337 8.802,30.326 10.066,30.962 18.289,35.101 0.244,0.123 0.342,0.421 0.219,0.665 -0.087,0.172 -0.261,0.272 -0.442,0.272 z"
   id="path149" />

		</g>

	</g>

	<g
   id="XMLID_445_">
		<g
   id="XMLID_413_">
			<path
   id="XMLID_397_"
   style="fill:#ee795c"
   d="m 685.302,312.629 c 2.437,-0.196 10.463,-1.268 10.785,-6.889 0.421,-7.349 -11.17,-4.541 -12.77,2.388 -0.401,1.733 0.326,4.634 1.985,4.501 z" />

			<path
   id="XMLID_443_"
   style="fill:#ff9c8a"
   d="m 717.449,272.38 11.941,8.347 c -12.887,13.887 -31.652,35.126 -36.426,34.374 -17.537,-2.765 -2.367,-6.344 0.032,-8.187 4.174,-3.206 -2.956,-6.218 -5.361,-4 -1.533,1.413 -0.91,4.522 -3.118,5.275 -0.795,0.271 -1.7,-0.085 -1.865,-0.894 -0.25,-1.233 2.34,-2.689 0.982,-3.582 -0.974,-0.64 -0.296,-4.175 3.19,-5.821 21.957,-10.361 8.988,10.197 30.625,-25.512 z" />

		</g>

		<g
   id="XMLID_391_">
			<g
   id="XMLID_388_">
				<path
   id="XMLID_393_"
   style="fill:#ee795c"
   d="m 694.948,298.297 c -0.744,-1.526 2.308,-2.358 2.489,-0.153 0.059,0.724 -0.381,1.43 -0.995,1.836 1.436,0.806 2.849,-1.849 4.322,-1.213 2.789,1.204 -4.206,14.456 -12.139,10.16 -1.696,-0.918 -0.14,-1.994 0.638,-3.077 5.227,-7.281 1.585,-13.517 5.685,-7.553 z" />

			</g>

			<path
   id="XMLID_441_"
   style="fill:#ff9c8a"
   d="m 654.167,282.572 9.246,-10.192 13.849,22.099 c 11.652,2.384 16.574,0.281 20.574,6.572 0.266,0.418 0.06,0.984 -0.429,1.096 -2.451,0.562 -4.126,-1.009 -4.955,-1.419 -3.389,-1.675 -10.169,2.25 -4.335,6.437 8.222,5.901 12.348,-4.949 15.43,-5.067 2.786,-0.106 0.417,4.31 -5.958,9.598 -3.604,2.989 -3.479,0.831 -9.455,1.039 -3.593,0.126 0.16,1.558 -33.967,-30.163 z" />

			<g
   id="XMLID_427_">
				<path
   style="fill:#ee795c"
   d="m 693.454,313.704 c -0.801,0 -1.465,-0.226 -2.087,-0.437 -0.6,-0.204 -1.118,-0.379 -1.67,-0.292 -2.883,0.461 -4.62,0.309 -5.167,-0.445 -0.27,-0.371 -0.178,-0.787 -0.082,-0.975 0.063,-0.121 0.214,-0.167 0.333,-0.106 0.121,0.061 0.169,0.21 0.108,0.331 -0.007,0.015 -0.115,0.25 0.045,0.465 0.197,0.266 1.048,0.821 4.684,0.242 0.675,-0.108 1.273,0.096 1.907,0.311 2.007,0.681 4.76,1.618 12.569,-8.608 0.499,-0.653 0.567,-1.31 0.174,-1.672 -0.357,-0.33 -1.071,-0.348 -1.742,0.254 -8.634,7.773 -13.178,6.257 -14.733,5.244 -1.708,-1.114 -2.46,-3.234 -1.828,-5.156 0.627,-1.908 2.395,-2.966 4.713,-2.833 0.818,0.048 1.538,0.421 2.233,0.782 0.387,0.201 0.788,0.409 1.193,0.552 2.661,0.938 3.43,0.59 3.638,0.397 0.144,-0.134 0.178,-0.347 0.099,-0.631 -0.361,-1.311 -3.001,-3.672 -6.317,-4.389 -0.134,-0.029 -0.219,-0.161 -0.189,-0.294 0.028,-0.134 0.16,-0.222 0.294,-0.189 3.277,0.709 6.234,3.087 6.69,4.742 0.163,0.593 -0.04,0.938 -0.239,1.124 -0.603,0.563 -1.995,0.463 -4.139,-0.292 -0.438,-0.154 -0.854,-0.37 -1.257,-0.579 -0.68,-0.353 -1.322,-0.687 -2.034,-0.728 -2.089,-0.121 -3.662,0.813 -4.214,2.493 -0.562,1.709 0.108,3.596 1.628,4.587 3.033,1.979 8.317,0.036 14.131,-5.196 0.891,-0.802 1.884,-0.733 2.409,-0.251 0.451,0.417 0.691,1.278 -0.117,2.337 -5.824,7.627 -8.91,9.212 -11.033,9.212 z"
   id="path150" />

			</g>

		</g>

	</g>

	<g
   id="XMLID_268_">
		<path
   style="fill:#fffffb"
   d="m 676.265,153.092 c 5.823,5.747 21.335,5.747 28.914,0.598 0.603,-0.409 -1.87,-1.138 23.804,8.809 3.66,20.528 5.838,71.307 -6.328,81.672 -14.929,12.72 -53.144,10.865 -63.159,1.02 -15.032,-14.776 -7.07,-58.036 -5.198,-83.853 0.749,-1.058 21.11,-9.092 21.967,-8.246 z"
   id="path151" />

		<path
   style="fill:#f2e8de"
   d="m 689.635,253.611 c -12.851,0 -25.203,-2.874 -30.486,-8.067 -12.546,-12.332 -9.329,-43.863 -6.745,-69.197 0.551,-5.395 1.071,-10.492 1.401,-15.044 l 0.01,-0.138 0.08,-0.112 c 0.879,-1.244 18.881,-8.241 21.888,-8.507 0.287,-0.025 0.61,-0.022 0.83,0.195 5.542,5.468 20.612,5.756 28.289,0.541 0.423,-0.539 0.42,-0.538 9.014,2.821 3.442,1.346 8.32,3.252 15.247,5.936 l 0.26,0.1 0.049,0.274 c 3.266,18.314 6.214,71.308 -6.494,82.136 -7.306,6.223 -20.571,9.062 -33.343,9.062 z m -34.857,-92.043 c -0.332,4.517 -0.846,9.553 -1.389,14.879 -2.563,25.124 -5.753,56.392 6.454,68.391 10.3,10.125 48.128,11.194 62.492,-1.044 11.546,-9.838 10.163,-58.43 6.21,-80.935 -6.791,-2.631 -11.59,-4.507 -14.99,-5.836 -5.354,-2.092 -7.43,-2.904 -7.977,-3.022 -0.033,0.032 -0.072,0.066 -0.12,0.098 -7.957,5.406 -23.591,5.085 -29.463,-0.579 -2.08,-0.189 -19.501,6.786 -21.217,8.048 z"
   id="path152" />

	</g>

	<g
   id="XMLID_276_">
		<path
   style="fill:#e95b4b"
   d="m 629.228,186.738 c -17.578,71.928 -14.634,57.501 40.407,112.229 1.44,1.432 10.695,-4.553 9.547,-6.574 l -31.148,-54.86 c 6.361,-24.589 -4.498,-50.458 13.013,-70.428 2.19,-2.497 14.825,-14.436 14.825,-14.436 -33.033,9.615 -40.424,8.616 -46.644,34.069 z"
   id="path153" />

		<path
   style="fill:#bd2f2f"
   d="m 670.323,299.672 c -0.433,0 -0.79,-0.107 -1.038,-0.354 -8.954,-8.903 -16.665,-16.103 -22.862,-21.888 -32.465,-30.312 -32.465,-30.312 -18.118,-89.006 l 0.441,-1.804 c 5.578,-22.824 12.156,-24.66 36.63,-31.49 3.142,-0.876 6.581,-1.836 10.356,-2.935 l 1.968,-0.573 -1.49,1.408 c -0.126,0.119 -12.643,11.952 -14.792,14.402 -10.77,12.282 -10.685,26.747 -10.596,42.061 0.054,9.183 0.109,18.677 -2.26,27.97 l 31.049,54.686 c 0.782,1.377 -1.443,3.372 -2.839,4.438 -1.79,1.368 -4.716,3.085 -6.449,3.085 z m -41.095,-112.934 0.481,0.118 -0.441,1.804 c -14.21,58.131 -14.21,58.131 17.831,88.047 6.201,5.79 13.919,12.996 22.884,21.911 0.429,0.423 3.373,-0.666 6.188,-2.816 2.224,-1.698 2.762,-2.841 2.58,-3.163 l -31.247,-55.034 0.05,-0.194 c 2.387,-9.229 2.332,-18.726 2.278,-27.91 -0.091,-15.508 -0.176,-30.155 10.841,-42.72 1.753,-1.999 9.963,-9.828 13.378,-13.069 -3.02,0.868 -5.816,1.649 -8.409,2.373 -24.034,6.708 -30.494,8.51 -35.934,30.772 z"
   id="path154" />

	</g>

	<g
   id="XMLID_286_">
		<path
   style="fill:#e95b4b"
   d="m 752.046,187.434 c 17.574,71.913 13.026,52.056 -39.071,113.165 -1.246,1.461 -9.988,-6.708 -9.068,-8.402 L 733.24,238.23 c -6.361,-24.589 4.498,-50.458 -13.013,-70.428 -1.527,-1.741 -14.639,-14.391 -14.639,-14.391 32.843,9.579 40.241,8.582 46.458,34.023 z"
   id="path155" />

		<path
   style="fill:#bd2f2f"
   d="m 712.546,301.268 c -0.613,0 -1.463,-0.377 -2.566,-1.135 -2.314,-1.589 -7.459,-6.421 -6.507,-8.173 l 29.24,-53.796 c -2.371,-9.294 -2.315,-18.79 -2.261,-27.975 0.089,-15.314 0.174,-29.779 -10.596,-42.061 -1.496,-1.706 -14.48,-14.235 -14.611,-14.361 l -1.444,-1.393 1.926,0.562 c 3.759,1.096 7.184,2.054 10.313,2.929 24.365,6.813 30.913,8.644 36.487,31.452 l 0.237,0.97 c 13.638,55.802 13.638,55.802 -12.248,82.832 -7.134,7.45 -16.014,16.723 -27.164,29.802 -0.197,0.23 -0.465,0.347 -0.806,0.347 z m -5.178,-146.826 c 3.462,3.348 11.996,11.624 13.232,13.034 11.018,12.564 10.932,27.211 10.841,42.719 -0.054,9.185 -0.109,18.681 2.278,27.911 l 0.049,0.189 -0.093,0.171 -29.333,53.967 c -0.134,0.282 0.578,1.77 2.897,4.085 2.809,2.805 4.987,3.932 5.371,3.75 11.157,-13.091 20.047,-22.375 27.191,-29.834 25.51,-26.638 25.51,-26.638 12.001,-81.913 l -0.237,-0.969 c -5.437,-22.246 -11.867,-24.044 -35.792,-30.734 -2.591,-0.725 -5.386,-1.506 -8.405,-2.376 z"
   id="path156" />

	</g>

	<g
   id="XMLID_448_">
		<path
   style="fill:#e95b4b"
   d="m 706.301,153.618 c -6.987,6.429 -25.545,7.373 -31.554,-0.621 6.104,-23.848 -1.567,-4.191 27.582,-12.043 0.909,-0.244 0.714,0.445 3.972,12.664 z"
   id="path157" />

		<path
   style="fill:#bd2f2f"
   d="m 689.935,159.212 c -0.961,0 -1.923,-0.042 -2.876,-0.129 -5.787,-0.529 -10.3,-2.584 -12.708,-5.787 l -0.143,-0.19 0.059,-0.23 c 0.585,-2.288 1.044,-4.175 1.42,-5.724 1.144,-4.705 1.529,-6.291 2.498,-6.787 0.676,-0.346 1.395,-0.054 2.484,0.39 2.652,1.078 8.172,3.322 21.53,-0.277 0.137,-0.037 0.458,-0.122 0.773,0.061 0.545,0.319 0.737,1.072 1.803,5.251 0.469,1.837 1.104,4.331 2.003,7.703 l 0.077,0.289 -0.22,0.203 c -3.5,3.219 -10.082,5.227 -16.7,5.227 z m -14.649,-6.326 c 2.274,2.871 6.474,4.718 11.863,5.21 7.12,0.652 14.705,-1.253 18.595,-4.644 -0.859,-3.228 -1.472,-5.633 -1.928,-7.419 -0.729,-2.861 -1.131,-4.437 -1.36,-4.652 -13.681,3.737 -19.407,1.409 -22.16,0.291 -0.807,-0.328 -1.391,-0.564 -1.661,-0.426 -0.565,0.29 -1.04,2.245 -1.987,6.14 -0.363,1.498 -0.804,3.313 -1.362,5.5 z"
   id="path158" />

	</g>

	<path
   id="XMLID_1243_"
   style="fill:#4d3931"
   d="m 720.275,124.568 c -2.611,-7.597 4.612,-29.121 -4.848,-41.432 -8.596,-11.186 -29.699,-7.055 -24.085,2.081 25.701,41.825 9.041,21.133 28.933,39.351 z" />

	<path
   id="XMLID_1242_"
   style="fill:#4d3931"
   d="m 658.968,123.878 c 2.75,-8 1.354,-31.826 8.206,-40.742 8.089,-10.526 23.758,-6.227 24.563,-3.256 0.293,1.869 2.287,6.202 0.705,7.284 -18.878,12.905 -18.247,16.594 -20.754,28.455 -1.069,5.058 -12.381,8.083 -12.72,8.259 z" />

	<g
   id="XMLID_454_">
		<g
   id="XMLID_532_">
			<path
   id="XMLID_533_"
   style="fill:#382823"
   d="m 691.409,79.595 c 0.063,-0.527 0.873,-0.432 0.811,0.093 -0.259,2.16 -0.407,4.396 0.851,5.924 0.807,0.981 -2.6,1.809 -1.662,-6.017 z" />

		</g>

		<g
   id="XMLID_530_">
			<path
   id="XMLID_531_"
   style="fill:#382823"
   d="m 675.101,80.516 c 4.791,-5.277 16.173,-1.396 14.952,-0.024 -0.148,0.167 -0.405,0.184 -0.576,0.039 -2.171,-1.856 -10.205,-3.405 -13.766,0.517 -0.36,0.395 -0.967,-0.139 -0.61,-0.532 z" />

		</g>

		<g
   id="XMLID_528_">
			<path
   id="XMLID_529_"
   style="fill:#382823"
   d="m 690.483,82.284 c 0.554,0.024 0.479,0.844 -0.036,0.799 -1.619,-0.068 -3.255,0.219 -4.743,0.838 -1.094,0.454 -0.995,-1.897 4.779,-1.637 z" />

		</g>

		<g
   id="XMLID_526_">
			<path
   id="XMLID_527_"
   style="fill:#382823"
   d="m 676.595,94.626 c 2.802,-5.142 11.129,-4.691 13.503,-9.628 0.232,-0.481 0.967,-0.134 0.739,0.341 -2.55,5.302 -10.897,4.848 -13.522,9.664 -0.254,0.465 -0.974,0.09 -0.72,-0.377 z" />

		</g>

		<g
   id="XMLID_524_">
			<path
   id="XMLID_525_"
   style="fill:#382823"
   d="m 698.928,94.933 c -2.328,-2.919 -1.138,-9.26 -5.269,-9.607 -2.047,-0.171 2.884,-3.363 4.489,5.255 0.262,1.373 0.568,2.786 1.424,3.86 0.333,0.418 -0.313,0.909 -0.644,0.492 z" />

		</g>

		<g
   id="XMLID_522_">
			<path
   id="XMLID_523_"
   style="fill:#382823"
   d="m 694.154,82.452 c -0.566,0.087 -1.531,-1.621 2.999,-0.401 1.029,0.278 2.003,0.54 2.947,0.331 0.525,-0.118 0.708,0.663 0.181,0.78 -2.147,0.476 -4.198,-1.002 -6.127,-0.71 z" />

		</g>

		<g
   id="XMLID_511_">
			<path
   id="XMLID_521_"
   style="fill:#382823"
   d="m 694.606,79.437 c 3.099,-1.886 6.917,-2.512 10.472,-1.719 0.528,0.118 0.343,0.897 -0.181,0.78 -3.35,-0.748 -6.943,-0.157 -9.861,1.618 -0.457,0.28 -0.889,-0.399 -0.43,-0.679 z" />

		</g>

		<g
   id="XMLID_507_">
			<path
   id="XMLID_520_"
   style="fill:#382823"
   d="m 668.326,88.175 c 0.325,-0.424 0.977,0.058 0.653,0.48 -2.904,3.79 -4.431,8.486 -4.3,13.223 0.072,2.765 -3.239,-4.718 3.647,-13.703 z" />

		</g>

		<g
   id="XMLID_491_">
			<path
   id="XMLID_519_"
   style="fill:#382823"
   d="m 664.064,115.345 c 2.671,-0.602 7.406,-5.212 6.821,-10.635 -0.056,-0.53 0.756,-0.602 0.812,-0.084 0.617,5.726 -4.329,10.795 -7.451,11.498 -0.524,0.12 -0.709,-0.661 -0.182,-0.779 z" />

		</g>

		<g
   id="XMLID_488_">
			<path
   id="XMLID_518_"
   style="fill:#382823"
   d="m 704.504,101.848 c 0,-0.529 0.816,-0.529 0.816,0 0,1.126 0.336,6.987 6.973,11.841 0.181,0.132 0.218,0.383 0.083,0.56 -0.742,0.98 -7.872,-5.613 -7.872,-12.401 z" />

		</g>

		<g
   id="XMLID_485_">
			<path
   id="XMLID_517_"
   style="fill:#382823"
   d="m 713.843,107.719 c -2.223,-3.753 0.456,-8.25 0.702,-11.897 0.295,-4.383 -2.826,-8.84 -7.105,-10.147 -0.215,-0.066 -0.335,-0.29 -0.268,-0.501 0.41,-1.298 8.709,2.96 8.187,10.7 -0.249,3.695 -2.818,8.054 -0.81,11.443 0.271,0.458 -0.437,0.858 -0.706,0.402 z" />

		</g>

		<g
   id="XMLID_475_">
			<path
   id="XMLID_516_"
   style="fill:#382823"
   d="m 659.455,154.681 c 3.169,-17.995 -15.74,-17.175 5.505,-30.691 0.451,-0.289 0.898,0.382 0.444,0.671 -20.652,13.143 -1.873,11.574 -5.145,30.156 -0.092,0.521 -0.896,0.385 -0.804,-0.136 z" />

		</g>

		<g
   id="XMLID_462_">
			<path
   id="XMLID_515_"
   style="fill:#382823"
   d="m 672.007,150.958 c 1.551,-2.207 -1.306,-7.444 0.728,-9.438 0.382,-0.374 0.959,0.191 0.577,0.565 -1.61,1.578 1.136,6.811 -0.633,9.326 -0.307,0.436 -0.979,-0.018 -0.672,-0.453 z" />

		</g>

		<g
   id="XMLID_461_">
			<path
   id="XMLID_514_"
   style="fill:#382823"
   d="m 665.607,150.805 c 3.982,-6.363 -1.908,-9.024 1.837,-15.545 0.266,-0.462 0.976,-0.068 0.711,0.392 -3.544,6.172 2.344,8.865 -1.852,15.571 -0.282,0.45 -0.977,0.032 -0.696,-0.418 z" />

		</g>

		<g
   id="XMLID_458_">
			<path
   id="XMLID_513_"
   style="fill:#382823"
   d="m 705.705,139.812 c 0.053,-0.532 0.862,-0.448 0.813,0.075 -0.304,3.15 -0.853,8.032 2,11.196 1.216,1.353 -4.021,1.495 -2.813,-11.271 z" />

		</g>

		<g
   id="XMLID_457_">
			<path
   id="XMLID_512_"
   style="fill:#382823"
   d="m 714.116,152.646 c -3.887,-5.311 0.679,-6.913 -1.747,-16.001 -0.137,-0.515 0.655,-0.711 0.79,-0.203 2.477,9.281 -2.014,10.771 1.621,15.738 0.314,0.431 -0.349,0.896 -0.664,0.466 z" />

		</g>

		<g
   id="XMLID_455_">
			<path
   id="XMLID_456_"
   style="fill:#382823"
   d="m 720.654,142.315 c 6.537,-10.812 -3.919,-18.729 -6.918,-18.729 -0.54,0 -0.54,-0.8 0,-0.8 3.652,0 14.479,8.591 7.62,19.936 -2.204,3.644 -3.527,9.653 -1.823,13.007 0.1,0.198 0.018,0.438 -0.184,0.536 -1.33,0.647 -2.771,-7.21 1.305,-13.95 z" />

		</g>

	</g>

</g>
  </g>
</svg>
