<?xml version="1.0" encoding="UTF-8" standalone="no"?>
<!-- Created with Inkscape (http://www.inkscape.org/) -->

<svg
   width="48.176083mm"
   height="122.26807mm"
   viewBox="0 0 48.176083 122.26807"
   version="1.1"
   id="svg1"
   inkscape:version="1.4.2 (f4327f4, 2025-05-13)"
   sodipodi:docname="woman3.svg"
   xmlns:inkscape="http://www.inkscape.org/namespaces/inkscape"
   xmlns:sodipodi="http://sodipodi.sourceforge.net/DTD/sodipodi-0.dtd"
   xmlns="http://www.w3.org/2000/svg"
   xmlns:svg="http://www.w3.org/2000/svg">
  <sodipodi:namedview
     id="namedview1"
     pagecolor="#ffffff"
     bordercolor="#000000"
     borderopacity="0.25"
     inkscape:showpageshadow="2"
     inkscape:pageopacity="0.0"
     inkscape:pagecheckerboard="0"
     inkscape:deskcolor="#d1d1d1"
     inkscape:document-units="mm"
     inkscape:zoom="1.2275954"
     inkscape:cx="7.3314058"
     inkscape:cy="2.4438019"
     inkscape:window-width="2880"
     inkscape:window-height="1676"
     inkscape:window-x="-12"
     inkscape:window-y="-12"
     inkscape:window-maximized="1"
     inkscape:current-layer="layer1" />
  <defs
     id="defs1" />
  <g
     inkscape:label="图层 1"
     inkscape:groupmode="layer"
     id="layer1"
     transform="translate(-103.18749,-147.90208)">
    <g
       id="XMLID_198_"
       transform="matrix(0.26458333,0,0,0.26458333,-154.22005,127.97514)">
	<path
   id="XMLID_859_"
   style="fill:#2f333e"
   d="m 1034.144,118.44 c -8.103,10.206 -11.161,15.823 -8.434,21.927 2.761,6.181 76.291,15.887 69.754,-3.182 -1.425,-4.157 -5.082,-7.567 -5.33,-10.674 -0.162,-2.026 1.97,-3.767 1.795,-5.792 -0.193,-2.225 -4.771,-3.847 -6.435,-5.416 -2.28,-2.151 -1.065,-4.978 -2.57,-7.65 -2.357,-4.184 -1.677,-6.99 -2.243,-8.204 -7.053,-15.127 -38.501,-10.611 -44.009,-1.153 -3.544,6.084 3.06,13.106 -2.528,20.144 z" />

	<path
   id="XMLID_279_"
   style="fill:#fd9c8d"
   d="m 1091.734,167.006 c -13.463,-9.445 -25.985,-9.234 -20.873,-33.753 l -23.165,-1.406 c -0.941,18.198 0.281,19.488 -7.538,26.214 -1.722,1.481 -12.703,7.609 -12.703,7.609 17.422,15.094 49.253,13.845 64.279,1.336 z" />

	<path
   id="XMLID_277_"
   style="fill:#fd9c8d"
   d="m 1038.215,99.317 c -5.947,35.775 24.272,57.05 36.32,28.624 21.741,-51.297 -31.48,-57.74 -36.32,-28.624 z" />

	<path
   id="XMLID_823_"
   style="fill:#2f333e"
   d="m 1060.771,88.244 c 15.003,2.644 15.733,22.63 17.089,30.265 1.423,-5.88 10.498,-12.801 6.03,-22.566 -3.745,-8.184 -7.01,-22.656 -23.401,-20.391 -9.981,1.379 -20.747,6.22 -22.521,15.504 -1.499,7.847 -1.948,19.366 0.578,27.748 1.402,-6.527 0.279,-11.358 3.269,-17.31 3.742,-7.451 11.255,-14.607 18.956,-13.25 z" />

	<g
   id="XMLID_390_">
		<g
   id="XMLID_813_">
			<path
   id="XMLID_435_"
   style="fill:#353b49"
   d="m 1048.483,80.79 c 0.187,-0.604 1.1,-0.32 0.912,0.283 -0.882,2.847 -0.478,6.063 1.083,8.602 0.138,0.225 0.068,0.519 -0.157,0.657 -0.809,0.497 -3.413,-4.461 -1.838,-9.542 z" />

		</g>

		<g
   id="XMLID_811_">
			<path
   id="XMLID_434_"
   style="fill:#353b49"
   d="m 1071.498,92.531 c 2.488,-0.917 4.305,-3.406 4.418,-6.055 0.026,-0.632 0.98,-0.587 0.955,0.041 -0.13,3.023 -2.203,5.865 -5.042,6.911 -0.593,0.218 -0.924,-0.678 -0.331,-0.897 z" />

		</g>

		<g
   id="XMLID_809_">
			<path
   id="XMLID_433_"
   style="fill:#353b49"
   d="m 1076.285,99.514 c 1.148,-0.006 2.259,-0.841 2.583,-1.942 0.179,-0.604 1.095,-0.336 0.917,0.27 -0.446,1.514 -1.916,2.619 -3.495,2.628 -0.635,-0.002 -0.634,-0.952 0,-0.956 z" />

		</g>

		<g
   id="XMLID_807_">
			<path
   id="XMLID_432_"
   style="fill:#353b49"
   d="m 1057.92,86.2 c -2.252,-3.908 0.93,-8.993 1.895,-7.964 0.181,0.192 0.172,0.494 -0.021,0.675 -1.808,1.699 -2.268,4.692 -1.046,6.812 0.315,0.548 -0.512,1.024 -0.828,0.477 z" />

		</g>

		<g
   id="XMLID_805_">
			<path
   id="XMLID_431_"
   style="fill:#353b49"
   d="m 1065.938,88.298 c 0.911,-2.163 1.726,-4.662 0.867,-6.802 -0.612,-1.522 3.352,-0.752 0.014,7.173 -0.246,0.581 -1.127,0.211 -0.881,-0.371 z" />

		</g>

		<g
   id="XMLID_803_">
			<path
   id="XMLID_430_"
   style="fill:#353b49"
   d="m 1043.168,96.24 c -3.073,-3.593 -1.785,-7.452 -0.764,-6.926 0.234,0.121 0.326,0.409 0.206,0.644 -0.838,1.624 -0.357,3.74 1.285,5.661 0.41,0.481 -0.318,1.1 -0.727,0.621 z" />

		</g>

	</g>

	<g
   id="XMLID_274_">
		<path
   id="XMLID_275_"
   style="fill:#fd9c8d"
   d="m 1080.066,111.895 c -3.483,-1.17 -3.986,6.198 -4.135,9.859 -0.292,7.217 9.621,-8.016 4.135,-9.859 z" />

	</g>

	<g
   id="XMLID_255_">
		<path
   id="XMLID_273_"
   style="fill:#fd9c8d"
   d="m 1036.314,109.874 c 3.562,-0.901 3.503,6.483 3.372,10.145 -0.258,7.218 -8.982,-8.725 -3.372,-10.145 z" />

	</g>

	<g
   id="XMLID_166_">
		<path
   id="XMLID_254_"
   style="fill:#382823"
   d="m 1047.539,113.933 c -1.22,-0.047 -1.997,-4.721 0.962,-4.609 1.579,0.061 1.035,4.685 -0.962,4.609 z" />

		<path
   id="XMLID_253_"
   style="fill:#382823"
   d="m 1068.448,114.73 c 1.22,0.047 2.351,-4.556 -0.608,-4.669 -1.58,-0.06 -1.389,4.593 0.608,4.669 z" />

		<path
   id="XMLID_252_"
   style="fill:#353b4a"
   d="m 1050.265,103.742 c 1.934,0.359 1.653,1.906 0.172,2.11 -1.984,0.274 -2.513,-1.088 -6.599,0.446 -4.49,1.686 0.383,-3.68 6.427,-2.556 z" />

		<path
   id="XMLID_251_"
   style="fill:#353b4a"
   d="m 1066.363,104.544 c -1.967,-10e-4 -1.974,1.571 -0.555,2.043 1.901,0.632 2.67,-0.61 6.406,1.646 4.106,2.478 0.297,-3.688 -5.851,-3.689 z" />

		<path
   id="XMLID_248_"
   style="fill:#ee795c"
   d="m 1055.196,121.752 c 4.131,1.866 3.921,-0.135 2.67,-0.097 -4.154,0.127 0.065,-1.514 0.45,-8.38 0.041,-0.722 -0.797,-0.759 -0.906,-0.17 -0.076,0.408 -0.176,1.917 -0.286,2.345 -1.377,5.312 -3.247,5.706 -1.928,6.302 z" />

		<path
   id="XMLID_230_"
   style="fill:#ee795c"
   d="m 1063.439,128.152 c 0.23,-0.075 0.421,0.191 0.268,0.379 -8.469,10.393 -13.68,-1.073 -12.126,-0.465 2.452,0.96 6.93,1.693 11.858,0.086 z" />

	</g>

	<g
   id="XMLID_164_">
		<path
   id="XMLID_165_"
   style="fill:#ee795c"
   d="m 1036.928,113.509 c 0.117,-0.333 0.616,-0.155 0.501,0.175 -0.698,2.005 -0.127,3.217 0.689,3.707 0.126,0.075 0.166,0.238 0.091,0.364 -0.501,0.835 -2.279,-1.379 -1.281,-4.246 z" />

	</g>

	<g
   id="XMLID_160_">
		<path
   id="XMLID_162_"
   style="fill:#ee795c"
   d="m 1078.459,119.313 c 0.797,-0.859 0.711,-2.25 0.568,-3.487 -0.04,-0.349 0.487,-0.407 0.527,-0.061 0.538,4.64 -1.827,4.334 -1.095,3.548 z" />

	</g>

	<g
   id="XMLID_145_">
		<path
   id="XMLID_159_"
   style="fill:#ee795c"
   d="m 1048.967,136.96 c 7.848,6.998 18.332,3.075 20.845,-1.633 0.995,-1.836 0.545,4.15 -8.34,5.732 -9.812,1.746 -14.768,-6.123 -12.505,-4.099 z" />

	</g>

	<g
   id="XMLID_312_">
		<g
   id="XMLID_311_">
			<path
   id="XMLID_313_"
   style="fill:#ee795c"
   d="m 987.605,329.281 c 1.697,-0.315 1.726,2.854 -0.494,2.444 -0.729,-0.134 -1.311,-0.746 -1.552,-1.447 -1.167,1.173 1.084,3.241 0.075,4.495 -1.91,2.375 -13.158,-7.888 -6.866,-14.413 1.345,-1.395 2.002,0.393 2.868,1.431 5.819,6.976 12.91,5.109 5.969,7.49 z" />

		</g>

		<path
   id="XMLID_294_"
   style="fill:#ff9c8a"
   d="m 996.169,311.945 c 29.852,-66.282 30.619,-80.915 30.567,-109.71 -5.57,-0.881 -11.069,-2.653 -16.609,-3.43 -2.838,7.888 -4.347,34.063 -4.181,35.049 -2.282,20.491 -14.305,73.663 -14.305,73.663 -2.061,0.442 -5.332,2.878 -14.519,8.439 -1.438,0.87 -1.593,1.238 -1.982,2.923 -1.345,5.826 -3.44,5.135 -1.428,9.406 3.559,7.556 7.298,11.013 7.916,8.295 0.683,-3.008 -8.942,-9.864 -0.993,-16.243 5.64,-4.526 7.751,3.061 5.221,5.891 -0.692,0.773 -3.089,2.185 -2.628,5.356 8.307,-1.893 8.422,-9.818 10.467,-13.903 0.482,-0.963 2.243,-3.393 2.474,-5.736 z" />

	</g>

	<g
   id="XMLID_293_">
		<path
   style="fill:#fffffb"
   d="m 1025.872,163.649 c -13.413,2.835 -12.182,2.117 -24.732,49.08 -1.012,3.788 10.28,9.719 26.752,9.46 10.204,-22.292 19.807,-39.68 13.976,-51.808 -2.111,-4.391 -13.351,-7.291 -15.996,-6.732 z"
   id="path102" />

		<path
   style="fill:#f2e8de"
   d="m 1026.862,222.697 c -12.8,0 -22.606,-3.735 -25.432,-7.357 -0.733,-0.939 -1,-1.887 -0.772,-2.74 0.952,-3.564 1.825,-6.854 2.631,-9.892 9.786,-36.87 9.786,-36.87 22.072,-39.463 l 0.407,-0.086 c 2.999,-0.632 14.351,2.428 16.55,7.005 5.264,10.948 -1.693,25.862 -10.5,44.744 -1.134,2.431 -2.299,4.928 -3.471,7.489 l -0.132,0.287 -0.315,0.005 c -0.347,0.005 -0.695,0.008 -1.038,0.008 z m -0.887,-58.559 -0.408,0.086 c -11.684,2.466 -11.684,2.466 -21.311,38.741 -0.806,3.038 -1.68,6.328 -2.632,9.893 -0.146,0.547 0.054,1.175 0.594,1.867 2.34,2.999 11.714,7.119 25.351,6.968 1.129,-2.463 2.25,-4.866 3.343,-7.208 8.695,-18.642 15.563,-33.367 10.506,-43.887 -1.938,-4.032 -12.791,-7.021 -15.443,-6.46 z"
   id="path103" />

	</g>

	<g
   id="XMLID_316_">
		<path
   id="XMLID_314_"
   style="fill:#ee795c"
   d="m 1141.014,316.34 c 3.553,1.304 5.361,2.533 7.943,5.301 3.473,3.725 5.506,1.821 4.349,0.696 -6.975,-6.777 -14.45,-9.514 -15.233,-8.244 0.896,0.85 1.884,1.605 2.941,2.247 z" />

		<g
   id="XMLID_307_">
			<path
   id="XMLID_310_"
   style="fill:#ff9c8a"
   d="m 1129.425,308.55 c 20.097,3.417 25.761,11.862 25.53,12.768 -0.611,2.396 -5.223,-1.566 -10.954,-4.002 -10.094,-4.291 -14.038,0.659 -9.689,2.355 1.527,0.595 4.884,0.286 5.673,3.623 0.143,0.603 -0.01,2.061 -1.365,1.369 -3.044,-1.554 -2.885,1.056 -11.902,-5.604 -3.17,-2.341 -8.093,-3.752 -8.861,-6.715 -3.69,-11.5 -22.845,-69.522 -29.711,-106.458 -1.439,-7.741 19.96,-12.68 19.631,-14.214 4.828,22.497 18.062,115.949 18.062,115.949 0,0 3.271,0.876 3.586,0.929 z" />

		</g>

	</g>

	<g
   id="XMLID_292_">
		<path
   style="fill:#fffffb"
   d="m 1085.553,161.269 c 13.663,0.863 13.247,-0.576 32.402,43.867 1.864,4.326 -14.536,12.374 -25.927,14.349 -13.323,-20.58 -25.342,-36.395 -21.328,-49.239 1.454,-4.651 12.155,-9.148 14.853,-8.977 z"
   id="path104" />

		<path
   style="fill:#f2e8de"
   d="m 1091.788,220.034 -0.18,-0.278 c -1.531,-2.366 -3.046,-4.669 -4.521,-6.912 -11.446,-17.406 -20.487,-31.155 -16.865,-42.748 1.517,-4.848 12.277,-9.523 15.362,-9.327 l 1.253,0.076 c 12.785,0.764 13.08,1.176 31.577,44.092 0.316,0.735 0.233,1.559 -0.249,2.449 -2.597,4.798 -16.496,10.934 -26.053,12.591 z m -6.423,-58.271 c -2.924,0 -12.877,4.44 -14.188,8.632 -3.482,11.141 5.444,24.715 16.745,41.9 1.419,2.157 2.873,4.369 4.345,6.639 10.038,-1.823 22.812,-7.945 25.02,-12.024 0.333,-0.616 0.401,-1.132 0.21,-1.578 -18.428,-42.754 -18.658,-42.768 -30.719,-43.489 l -1.256,-0.077 c -0.049,-0.001 -0.102,-0.003 -0.157,-0.003 z"
   id="path105" />

	</g>

	<g
   id="XMLID_290_">
		<path
   style="fill:#fffffb"
   d="m 1043.273,155.596 c 3.74,7.847 25.042,11.757 29.446,-1.7 13.914,4.389 19.016,8.022 19.016,8.022 1.464,19.839 15.583,76.302 0.989,86.358 -26.014,3.45 -44.981,4.967 -66.629,0.383 -11.263,-4.977 -4.042,-83.223 -3.852,-84.218 0,0 7.575,-2.344 21.03,-8.845 z"
   id="path106" />

		<path
   style="fill:#f2e8de"
   d="m 1053.928,252.028 c -9.534,0.001 -18.442,-0.87 -27.935,-2.879 l -0.099,-0.032 c -11.788,-5.208 -4.287,-84.006 -4.141,-84.77 l 0.057,-0.294 0.287,-0.089 c 0.075,-0.023 7.7,-2.412 20.958,-8.818 l 0.453,-0.219 0.216,0.454 c 1.976,4.146 9.461,7.269 16.329,6.833 3.592,-0.231 9.953,-1.639 12.189,-8.474 l 0.154,-0.47 0.472,0.148 c 13.83,4.363 18.945,7.942 19.156,8.092 l 0.191,0.136 0.018,0.234 c 0.354,4.803 1.447,11.722 2.713,19.733 3.952,25.019 9.365,59.284 -1.939,67.074 l -0.1,0.068 -0.119,0.016 c -15.214,2.019 -27.482,3.257 -38.86,3.257 z m -27.675,-3.846 c 20.625,4.358 38.523,3.292 66.285,-0.385 10.657,-7.568 5.32,-41.344 1.421,-66.027 -1.248,-7.899 -2.328,-14.739 -2.704,-19.571 -1.031,-0.669 -6.339,-3.891 -18.224,-7.68 -1.885,5.126 -6.563,8.284 -12.914,8.692 -7.122,0.459 -14.615,-2.632 -17.063,-6.955 -11.604,5.582 -18.835,8.064 -20.359,8.565 -0.835,6.359 -6.748,78.584 3.558,83.361 z"
   id="path107" />

	</g>

	<path
   id="XMLID_411_"
   style="fill:#ff9c8a"
   d="m 1034.1,514.822 c 2.674,7.734 12.147,7.678 13.496,-1.162 l -0.11,-21.376 -16.861,-0.111 z" />

	<path
   id="XMLID_408_"
   style="fill:#ff9c8a"
   d="m 1079.987,514.775 c 2.463,7.804 11.934,8.006 13.522,-0.795 l 0.471,-21.371 -16.852,-0.569 z" />

	<g
   id="XMLID_402_">
		<g
   id="XMLID_407_">
			<path
   style="fill:#f2e8de"
   d="m 1008.461,536.2 c -0.504,-0.786 -0.598,-1.798 -0.266,-2.67 0.966,-2.544 26.901,-19.377 25.905,-18.708 4.769,2.96 11.119,1.417 13.496,-1.162 1.663,3.405 6.47,15.683 1.727,16.951 -2.832,0.757 -38.735,8.908 -40.862,5.589 z"
   id="path108" />

			<path
   style="fill:#fffffb"
   d="m 1012.253,537.43 c -2.242,0 -3.778,-0.28 -4.213,-0.96 -0.588,-0.919 -0.706,-2.084 -0.313,-3.117 0.919,-2.419 20.92,-15.589 25.497,-18.486 l -0.046,-0.028 0.643,-0.432 0.044,0.059 c 0.175,-0.106 0.272,-0.162 0.285,-0.162 l 0.361,0.016 0.057,0.201 c 4.581,2.692 10.525,1.117 12.66,-1.199 l 0.495,-0.538 0.321,0.657 c 1.426,2.919 5.1,12.118 3.345,15.971 -0.401,0.881 -1.054,1.447 -1.938,1.685 -0.314,0.082 -26.614,6.333 -37.198,6.333 z m -3.372,-1.499 c 1.74,2.712 34.417,-4.227 40.313,-5.803 0.589,-0.157 1.01,-0.527 1.285,-1.132 1.38,-3.029 -1.337,-10.781 -3.04,-14.496 -2.716,2.322 -8.596,3.666 -13.337,0.906 -3.257,2.061 -24.655,16.232 -25.441,18.302 -0.276,0.728 -0.192,1.579 0.22,2.223 z"
   id="path109" />

		</g>

		<g
   id="XMLID_403_">
			<g
   id="XMLID_406_">
				<path
   style="fill:#fffffb"
   d="m 1022.21,529.974 c -1.037,0 -2.227,-0.337 -3.162,-0.781 -0.826,-0.392 -1.867,-1.067 -2.135,-2.055 -0.145,-0.532 0.17,-1.082 0.703,-1.227 0.524,-0.148 1.08,0.168 1.226,0.699 0.053,0.133 0.444,0.524 1.331,0.894 1.155,0.481 2.207,0.543 2.524,0.402 0.507,-0.224 1.096,0.004 1.32,0.508 0.224,0.504 0,1.096 -0.508,1.32 -0.373,0.167 -0.821,0.24 -1.299,0.24 z"
   id="path110" />

			</g>

			<g
   id="XMLID_405_">
				<path
   style="fill:#fffffb"
   d="m 1027.52,526.2 c -2.069,0 -4.098,-1.088 -5.209,-2.85 -0.295,-0.467 -0.155,-1.084 0.313,-1.379 0.467,-0.293 1.084,-0.154 1.379,0.313 0.821,1.301 2.457,2.073 3.988,1.888 0.535,-0.078 1.048,0.32 1.115,0.869 0.068,0.548 -0.32,1.047 -0.869,1.115 -0.238,0.031 -0.478,0.044 -0.717,0.044 z"
   id="path111" />

			</g>

			<g
   id="XMLID_404_">
				<path
   style="fill:#fffffb"
   d="m 1032.194,522.549 c -1.861,0 -3.724,-0.703 -5.104,-1.953 -0.409,-0.37 -0.441,-1.003 -0.07,-1.412 0.37,-0.409 1.003,-0.442 1.412,-0.07 1.158,1.048 2.774,1.568 4.331,1.405 0.555,-0.06 1.043,0.337 1.103,0.886 0.059,0.55 -0.337,1.043 -0.886,1.102 -0.261,0.028 -0.524,0.042 -0.786,0.042 z"
   id="path112" />

			</g>

		</g>

	</g>

	<g
   id="XMLID_389_">
		<g
   id="XMLID_401_">
			<path
   style="fill:#f2e8de"
   d="m 1053.776,535.449 c -1.439,-2.384 0.785,-4.441 3.102,-5.933 10.816,-6.965 23.109,-14.741 23.109,-14.741 4.686,3.088 11.076,1.719 13.522,-0.795 1.384,3.041 6.181,15.826 1.187,17.011 -2.87,0.681 -38.862,7.87 -40.92,4.458 z"
   id="path113" />

			<path
   style="fill:#fffffb"
   d="m 1058.423,536.811 c -2.72,10e-4 -4.6,-0.315 -5.074,-1.104 -1.302,-2.156 -0.206,-4.381 3.259,-6.611 10.694,-6.886 22.989,-14.665 23.112,-14.743 l 0.273,-0.172 0.27,0.177 c 4.527,2.987 10.659,1.565 12.889,-0.726 l 0.511,-0.524 0.303,0.666 c 1.343,2.951 4.759,12.231 2.899,16.027 -0.439,0.894 -1.129,1.458 -2.053,1.677 -0.309,0.073 -25.305,5.333 -36.389,5.333 z m 21.563,-21.443 c -1.86,1.178 -13.023,8.249 -22.838,14.567 -3.947,2.542 -3.57,4.217 -2.944,5.255 1.683,2.788 34.226,-3.227 40.377,-4.686 0.628,-0.149 1.081,-0.523 1.385,-1.144 1.479,-3.018 -0.987,-10.696 -2.634,-14.544 -2.778,2.246 -8.685,3.429 -13.346,0.552 z"
   id="path114" />

		</g>

		<g
   id="XMLID_392_">
			<g
   id="XMLID_400_">
				<path
   style="fill:#fffffb"
   d="m 1067.053,530.664 c -0.05,0 -0.101,-0.004 -0.151,-0.012 -1.177,-0.178 -4.758,-0.722 -5.011,-3.723 -0.047,-0.55 0.361,-1.034 0.912,-1.08 0.55,-0.049 1.034,0.362 1.08,0.912 0.057,0.665 0.484,1.483 3.319,1.914 0.546,0.082 0.921,0.592 0.838,1.139 -0.074,0.496 -0.501,0.85 -0.987,0.85 z"
   id="path115" />

			</g>

			<g
   id="XMLID_398_">
				<path
   style="fill:#fffffb"
   d="m 1072.17,526.81 c -2.114,-0.087 -4.131,-1.201 -5.305,-2.91 -0.313,-0.455 -0.197,-1.078 0.258,-1.391 0.455,-0.313 1.077,-0.197 1.391,0.258 0.825,1.2 2.241,1.983 3.696,2.044 0.552,0.023 0.981,0.488 0.958,1.04 -0.023,0.538 -0.465,0.959 -0.998,0.959 z"
   id="path116" />

			</g>

			<g
   id="XMLID_394_">
				<path
   style="fill:#fffffb"
   d="m 1076.501,523.355 c -1.674,0 -3.692,-1.074 -4.429,-2.066 -0.329,-0.443 -0.236,-1.069 0.207,-1.398 0.442,-0.329 1.068,-0.236 1.399,0.207 0.501,0.675 2.412,1.488 3.175,1.211 0.517,-0.188 1.092,0.077 1.282,0.597 0.189,0.518 -0.077,1.093 -0.597,1.282 -0.317,0.115 -0.669,0.167 -1.037,0.167 z"
   id="path117" />

			</g>

		</g>

	</g>

	<g
   id="XMLID_323_">
		<path
   style="fill:#f6bb7e"
   d="m 1055.266,504.052 c -0.033,1.178 -0.995,2.118 -2.174,2.124 -28.567,0.143 -29.422,0.926 -29.535,-1.963 -8.071,-205.884 -12.719,-223.077 2.539,-255.553 20.002,0.129 46.407,0.367 66.629,-0.383 7.654,14.036 13.287,38.203 13.115,48.545 l -5.281,206.92 c -0.03,1.176 -0.986,2.118 -2.163,2.13 -28.379,0.285 -29.268,1.074 -29.387,-1.822 l -7.868,-191.659 c -0.704,-5.759 -5.903,192.677 -5.875,191.661 z"
   id="path118" />

		<path
   style="fill:#ce8b35"
   d="m 1031.08,506.878 c -7.556,0 -7.935,-0.446 -8.022,-2.645 -1.529,-39.009 -2.958,-71.77 -4.106,-98.094 -4.964,-113.771 -5.727,-131.257 6.693,-157.691 l 0.136,-0.289 4.346,0.028 c 19.468,0.13 43.7,0.291 62.58,-0.409 l 0.309,-0.012 0.147,0.272 c 7.52,13.788 13.357,37.967 13.177,48.793 l -5.28,206.924 c -0.037,1.453 -1.205,2.603 -2.658,2.617 -5.978,0.06 -10.734,0.143 -14.522,0.208 -14.682,0.253 -15.255,0.265 -15.369,-2.51 l -7.461,-181.754 c -1.528,39.055 -5.245,180.121 -5.282,181.75 0,0.003 -0.057,0.482 -0.057,0.482 -0.254,1.22 -1.323,2.121 -2.614,2.128 -6.026,0.03 -10.818,0.089 -14.631,0.136 -3.017,0.036 -5.44,0.066 -7.386,0.066 z m -4.667,-257.716 c -12.175,26.053 -11.399,43.791 -6.463,156.934 1.148,26.324 2.578,59.086 4.107,98.098 0.067,1.743 0.472,1.786 14.396,1.618 3.814,-0.047 8.608,-0.106 14.637,-0.136 0.914,-0.005 1.65,-0.723 1.677,-1.636 0.039,-1.608 1.304,-49.633 2.613,-95.876 0.789,-27.826 1.451,-50.005 1.97,-65.921 0.992,-30.413 1.074,-30.42 1.717,-30.475 0.08,-0.008 0.501,-0.016 0.571,0.561 l 7.872,191.699 c 0.071,1.748 0.472,1.794 14.353,1.551 3.789,-0.065 8.549,-0.147 14.529,-0.208 0.912,-0.009 1.645,-0.73 1.668,-1.643 l 5.28,-206.92 c 0.177,-10.631 -5.529,-34.318 -12.907,-48.021 -18.855,0.688 -42.941,0.527 -62.313,0.398 z"
   id="path119" />

	</g>

	<g
   id="XMLID_322_">
		<path
   style="fill:#f6bb7e"
   d="m 1092.725,248.277 c -19.513,3.989 -44.449,4.15 -66.629,0.383 -10.787,-8.484 9.167,-31.123 10.539,-50.616 0.037,-0.53 0.466,-0.942 0.997,-0.942 45.837,0 44.07,-0.436 44.152,0.96 1.19,20.237 23.406,40.996 10.941,50.215 z"
   id="path120" />

		<path
   style="fill:#ce8b35"
   d="m 1059.211,251.882 c -11.103,0 -22.473,-0.908 -33.198,-2.729 l -0.125,-0.021 -0.101,-0.079 c -6.648,-5.229 -2.322,-15.196 2.688,-26.737 3.329,-7.671 7.104,-16.366 7.662,-24.307 0.057,-0.802 0.699,-1.407 1.496,-1.407 11.013,0 19.276,-0.025 25.479,-0.044 19.155,-0.059 19.154,-0.059 19.169,1.351 v 0.124 c 0.489,8.336 4.672,16.931 8.362,24.515 5.354,11.004 9.979,20.508 2.375,26.131 l -0.196,0.088 c -10.149,2.074 -21.728,3.115 -33.614,3.115 z m -32.904,-3.693 c 22.018,3.723 46.747,3.581 66.207,-0.38 6.809,-5.141 2.37,-14.266 -2.768,-24.824 -3.73,-7.668 -7.96,-16.359 -8.461,-24.894 l -0.01,-0.172 c 0,-0.046 0,-0.088 0,-0.127 -0.448,-0.288 -4.907,-0.275 -18.161,-0.234 -6.203,0.019 -14.469,0.044 -25.483,0.044 -0.265,0 -0.479,0.205 -0.498,0.477 -0.571,8.112 -4.382,16.89 -7.743,24.635 -4.816,11.1 -8.98,20.695 -3.083,25.475 z"
   id="path121" />

	</g>

	<g
   id="XMLID_353_">
		<path
   style="fill:#ce8b35"
   d="m 1093.903,250.516 c -23.585,2.674 -56.324,2.757 -68.798,0.094 l 0.992,-1.951 c -0.445,-0.181 -1.551,-1.017 -2.02,-1.928 24.278,0.988 55.194,0.325 71.032,-0.917 -1.056,1.456 -1.808,2.382 -2.383,2.462 z"
   id="path122" />

		<path
   style="fill:#ce8b35"
   d="m 1054.775,253.055 c -12.542,0 -23.658,-0.65 -29.775,-1.956 l -0.636,-0.136 1.069,-2.104 c -0.592,-0.39 -1.393,-1.105 -1.802,-1.9 l -0.393,-0.763 0.857,0.035 c 24.436,0.993 55.273,0.315 70.972,-0.916 l 1.079,-0.084 -0.635,0.876 c -0.905,1.248 -1.535,2.032 -2.097,2.408 l 1.271,2.415 -0.727,0.082 c -11.995,1.361 -26.337,2.043 -39.183,2.043 z m -28.927,-2.803 c 12.627,2.465 44.107,2.401 67.272,-0.151 l -1.17,-2.221 0.705,-0.098 c 0.302,-0.042 0.894,-0.733 1.398,-1.385 -15.802,1.163 -45.219,1.79 -68.961,0.876 0.449,0.471 0.975,0.836 1.192,0.924 l 0.505,0.204 z"
   id="path123" />

	</g>

	<g
   id="XMLID_300_">
		<g
   id="XMLID_358_">
			<path
   style="fill:#ce8b35"
   d="m 1040.42,198.996 -1.665,0.245 c -0.395,-11.894 -4.807,-25.545 -5.731,-38.971 l 1.388,-0.593 c 1.191,13.399 6.086,31.875 6.008,39.319 z"
   id="path124" />

			<path
   style="fill:#ce8b35"
   d="m 1038.273,199.817 -0.019,-0.559 c -0.202,-6.104 -1.456,-12.603 -2.783,-19.484 -1.229,-6.365 -2.498,-12.947 -2.947,-19.469 l -0.024,-0.355 2.35,-1.003 0.061,0.686 c 0.578,6.503 2.059,14.357 3.367,21.287 1.44,7.628 2.684,14.215 2.642,18.082 l -0.01,0.427 z m -4.725,-39.227 c 0.466,6.347 1.706,12.774 2.905,18.995 1.295,6.712 2.521,13.063 2.78,19.081 l 0.686,-0.101 c -0.055,-3.845 -1.304,-10.465 -2.624,-17.46 -1.267,-6.712 -2.696,-14.287 -3.317,-20.698 z"
   id="path125" />

		</g>

		<g
   id="XMLID_362_">
			<path
   style="fill:#ce8b35"
   d="m 1077.751,199.479 1.664,0.245 c 0.395,-11.894 4.903,-27.76 5.828,-41.186 l -1.208,-0.535 c -1.191,13.399 -6.362,34.032 -6.284,41.476 z"
   id="path126" />

			<path
   style="fill:#ce8b35"
   d="m 1079.896,200.3 -2.641,-0.389 -0.01,-0.427 c -0.041,-3.886 1.344,-11.388 2.809,-19.33 1.36,-7.372 2.902,-15.728 3.478,-22.195 l 0.062,-0.695 2.167,0.959 -0.023,0.35 c -0.446,6.482 -1.729,13.555 -2.97,20.396 -1.365,7.525 -2.654,14.632 -2.857,20.772 z m -1.644,-1.253 0.684,0.101 c 0.263,-6.081 1.521,-13.022 2.852,-20.359 1.214,-6.69 2.468,-13.604 2.932,-19.936 l -0.251,-0.111 c -0.623,6.408 -2.109,14.459 -3.426,21.593 -1.403,7.607 -2.732,14.808 -2.791,18.712 z"
   id="path127" />

		</g>

	</g>

	<g
   id="XMLID_416_">
		<path
   id="XMLID_364_"
   style="fill:#fffffb"
   d="m 1041.602,199.24 c 1.664,-3.26 -3.124,-3.088 -3.919,-1.607 -1.131,2.109 2.386,4.609 3.919,1.607 z" />

		<path
   id="XMLID_370_"
   style="fill:#fffffb"
   d="m 1076.339,199.236 c -1.664,-3.26 3.124,-3.088 3.919,-1.607 1.13,2.11 -2.387,4.61 -3.919,1.607 z" />

	</g>

	<g
   id="XMLID_418_">
		<g
   id="XMLID_371_">
			<path
   style="fill:#ce8b35"
   d="m 1058.178,232.223 c -2.999,0 -5.998,-0.052 -8.979,-0.157 -1.051,-0.037 -1.475,-0.503 -1.463,-1.607 0.069,-6.379 0.619,-9.606 0.643,-9.74 l 0.05,-0.291 0.28,-0.096 c 4.842,-1.664 19.247,-1.728 20.778,-0.744 0.249,0.16 0.318,0.361 0.332,0.502 0.01,0.091 0.795,9.148 -1.174,11.4 -0.389,0.445 -0.813,0.551 -1.099,0.562 -3.107,0.114 -6.238,0.171 -9.368,0.171 z m -8.86,-11.038 c -0.135,0.932 -0.526,4.066 -0.582,9.285 -0.01,0.58 0.022,0.581 0.498,0.598 6.068,0.212 12.216,0.209 18.275,-0.014 0.084,-0.003 0.216,-0.029 0.383,-0.221 1.3,-1.487 1.156,-8.066 0.948,-10.456 -1.668,-0.671 -14.627,-0.699 -19.522,0.808 z"
   id="path128" />

		</g>

		<g
   id="XMLID_372_">
			<path
   style="fill:#fffffb"
   d="m 1048.862,220.312 -0.051,-2.688 c -0.011,-0.566 20.53,-1.005 20.524,-0.006 l -0.012,2.054 c 0,0.53 -20.442,1.641 -20.461,0.64 z"
   id="path129" />

			<path
   style="fill:#fffffb"
   d="m 1052.984,221.216 c -4.383,0 -4.611,-0.33 -4.622,-0.895 l -0.057,-2.979 0.285,-0.189 c 1.044,-0.618 19.238,-1.036 20.902,-0.081 0.312,0.179 0.344,0.443 0.343,0.548 l -0.012,2.054 c 0,0.537 0,0.738 -6.05,1.139 -3.447,0.229 -7.335,0.382 -10.145,0.4 -0.223,0.002 -0.438,0.003 -0.644,0.003 z m -3.627,-1.178 c 2.131,0.56 17.124,-0.199 19.469,-0.705 l 0.01,-1.453 c -2.077,-0.595 -17.155,-0.322 -19.516,0.09 z"
   id="path130" />

		</g>

	</g>

	<g
   id="XMLID_386_">
		<g
   id="XMLID_409_">
			<path
   id="XMLID_425_"
   style="fill:#353b49"
   d="m 1037.124,99.629 c 0.047,-0.632 1,-0.558 0.953,0.07 -0.126,1.713 0.147,3.459 0.788,5.052 0.447,1.106 -2.22,1.375 -1.741,-5.122 z" />

		</g>

		<g
   id="XMLID_410_">
			<path
   id="XMLID_424_"
   style="fill:#353b49"
   d="m 1078.779,107.102 c 1.686,-1.32 2.888,-3.281 3.297,-5.382 0.122,-0.619 1.058,-0.437 0.938,0.183 -0.453,2.323 -1.782,4.492 -3.647,5.951 -0.496,0.389 -1.086,-0.362 -0.588,-0.752 z" />

		</g>

		<g
   id="XMLID_417_">
			<path
   id="XMLID_376_"
   style="fill:#353b49"
   d="m 1079.507,139.847 c -6.898,-10.235 -2.473,-12.058 -2.753,-10.311 -0.593,3.709 1.808,7.202 3.545,9.778 0.353,0.523 -0.44,1.057 -0.792,0.533 z" />

		</g>

		<g
   id="XMLID_420_">
			<path
   id="XMLID_375_"
   style="fill:#353b49"
   d="m 1090.161,139.596 c -1.879,-3.906 -3.89,-4.828 -5.041,-6.96 -2.708,-5.006 2.362,-7.709 2.116,-10.976 -0.065,-0.866 -0.693,-1.859 -1.596,-1.956 -0.64,-0.069 -0.531,-1.016 0.094,-0.951 1.354,0.142 4.032,1.903 1.014,7.042 -3.964,6.754 1.089,6.763 4.276,13.386 0.114,0.238 0.014,0.523 -0.224,0.637 -0.237,0.116 -0.524,0.017 -0.639,-0.222 z" />

		</g>

		<g
   id="XMLID_421_">
			<path
   id="XMLID_281_"
   style="fill:#353b49"
   d="m 1082.683,135.481 c -0.325,-0.543 0.493,-1.034 0.819,-0.492 3.408,5.677 4.122,6.276 3.453,6.679 -0.671,0.402 -0.865,-0.512 -4.272,-6.187 z" />

		</g>

		<g
   id="XMLID_117_">
			<path
   id="XMLID_384_"
   style="fill:#353b49"
   d="m 1028.159,139.493 c -4.033,-7.676 7.355,-20.325 8.485,-18.721 0.158,0.226 0.103,0.538 -0.123,0.696 -4.805,3.361 -10.181,12.415 -7.476,17.56 0.307,0.586 -0.579,1.048 -0.886,0.465 z" />

		</g>

		<g
   id="XMLID_129_">
			<path
   id="XMLID_377_"
   style="fill:#353b49"
   d="m 1032.344,140.689 c 0.408,-1.546 0.206,-2.642 0.01,-3.701 -0.868,-4.686 3.002,-9.066 3.757,-8.397 0.208,0.182 0.229,0.498 0.046,0.706 -5.493,6.258 -1.56,6.77 -2.845,11.647 -0.17,0.64 -1.135,0.383 -0.967,-0.255 z" />

		</g>

		<g
   id="XMLID_130_">
			<path
   id="XMLID_285_"
   style="fill:#353b49"
   d="m 1038.153,139.479 c -0.772,-0.247 0.063,-1.628 0.41,-2.372 0.851,-1.826 1.816,-3.896 1.008,-6.119 -0.521,-1.43 3.392,-0.959 -0.101,6.541 -0.65,1.393 -0.675,2.155 -1.317,1.95 z" />

		</g>

		<g
   id="XMLID_131_">
			<path
   id="XMLID_284_"
   style="fill:#353b49"
   d="m 1042.671,143.335 c -0.582,-0.193 -0.263,-0.796 -0.052,-1.372 0.473,-1.287 1.265,-3.441 1.002,-4.723 -0.185,-0.899 2.354,-2.349 -0.317,5.778 -0.089,0.265 -0.373,0.403 -0.633,0.317 z" />

		</g>

		<g
   id="XMLID_137_">
			<path
   id="XMLID_282_"
   style="fill:#353b49"
   d="m 1072.439,135.538 c 0.276,-0.016 0.512,0.195 0.528,0.47 0.171,2.94 1.245,5.453 2.804,6.559 0.225,0.16 0.277,0.472 0.118,0.697 -1.324,1.865 -5.423,-7.637 -3.45,-7.726 z" />

		</g>

	</g>

	<g
   id="XMLID_439_">
		<g
   id="XMLID_419_">
			<path
   style="fill:#ce8b35"
   d="m 1061.278,310.01 c -0.196,0 -0.382,-0.116 -0.462,-0.309 -3.406,-8.199 -4.987,-17.222 -4.571,-26.091 0.012,-0.275 0.247,-0.491 0.522,-0.476 0.275,0.013 0.489,0.247 0.476,0.523 -0.408,8.723 1.147,17.597 4.497,25.661 0.105,0.255 -0.015,0.547 -0.271,0.653 -0.062,0.027 -0.126,0.039 -0.191,0.039 z"
   id="path131" />

		</g>

		<g
   id="XMLID_422_">
			<path
   style="fill:#ce8b35"
   d="m 1017.377,290.298 c -0.144,0 -0.287,-0.062 -0.386,-0.182 -0.176,-0.213 -0.146,-0.528 0.067,-0.704 l 0.742,-0.61 c 6.519,-5.354 9.218,-7.569 13.336,-34.555 0.042,-0.273 0.306,-0.46 0.569,-0.419 0.273,0.042 0.461,0.296 0.419,0.569 -4.176,27.365 -6.961,29.652 -13.69,35.177 l -0.739,0.609 c -0.093,0.077 -0.206,0.115 -0.318,0.115 z"
   id="path132" />

		</g>

		<g
   id="XMLID_423_">
			<path
   style="fill:#ce8b35"
   d="m 1101.713,290.162 c -0.077,0 -0.155,-0.018 -0.229,-0.055 -8.557,-4.397 -9.872,-5.073 -18.793,-36.442 -0.076,-0.266 0.078,-0.542 0.344,-0.618 0.268,-0.077 0.542,0.079 0.617,0.344 8.803,30.952 10.066,31.602 18.289,35.826 0.246,0.126 0.343,0.428 0.216,0.673 -0.088,0.173 -0.263,0.272 -0.444,0.272 z"
   id="path133" />

		</g>

	</g>

	<g
   id="XMLID_426_">
		<path
   style="fill:#f6bb7e"
   d="m 1051.067,250.917 c -8.46,0 -16.207,-0.5 -24.865,-1.734 -0.274,-0.039 -0.464,-0.292 -0.425,-0.565 0.039,-0.273 0.298,-0.465 0.565,-0.425 19.851,2.829 34.943,1.778 65.004,-0.312 l 0.86,-0.06 c 0.285,-0.016 0.515,0.189 0.534,0.464 0.019,0.275 -0.188,0.514 -0.464,0.534 l -0.861,0.06 c -17.058,1.185 -29.31,2.038 -40.348,2.038 z"
   id="path134" />

	</g>

	<g
   id="XMLID_436_">
		<path
   style="fill:#ee795c"
   d="m 994.788,310.952 c -0.053,0 -0.106,-0.009 -0.16,-0.026 -1.215,-0.409 -2.27,-1.283 -2.895,-2.399 -0.135,-0.24 -0.049,-0.545 0.191,-0.681 0.242,-0.135 0.546,-0.049 0.681,0.192 0.506,0.902 1.359,1.609 2.342,1.94 0.262,0.088 0.402,0.371 0.314,0.633 -0.07,0.209 -0.264,0.341 -0.473,0.341 z"
   id="path135" />

	</g>

	<g
   id="XMLID_437_">
		<path
   style="fill:#ee795c"
   d="m 1121.152,310.695 c -0.043,0 -0.084,-10e-4 -0.127,-0.002 -0.275,-0.008 -0.493,-0.238 -0.485,-0.515 0.01,-0.275 0.23,-0.491 0.515,-0.485 1.146,0.041 2.335,-0.533 3.029,-1.482 0.163,-0.223 0.478,-0.271 0.698,-0.108 0.224,0.163 0.271,0.476 0.108,0.698 -0.86,1.176 -2.283,1.894 -3.738,1.894 z"
   id="path136" />

	</g>

</g>
  </g>
</svg>
