<?xml version="1.0" encoding="UTF-8" standalone="no"?>
<!-- Created with Inkscape (http://www.inkscape.org/) -->

<svg
   width="50.641068mm"
   height="120.56452mm"
   viewBox="0 0 50.641068 120.56452"
   version="1.1"
   id="svg1"
   inkscape:version="1.4.2 (f4327f4, 2025-05-13)"
   sodipodi:docname="woman4.svg"
   xmlns:inkscape="http://www.inkscape.org/namespaces/inkscape"
   xmlns:sodipodi="http://sodipodi.sourceforge.net/DTD/sodipodi-0.dtd"
   xmlns="http://www.w3.org/2000/svg"
   xmlns:svg="http://www.w3.org/2000/svg">
  <sodipodi:namedview
     id="namedview1"
     pagecolor="#ffffff"
     bordercolor="#000000"
     borderopacity="0.25"
     inkscape:showpageshadow="2"
     inkscape:pageopacity="0.0"
     inkscape:pagecheckerboard="0"
     inkscape:deskcolor="#d1d1d1"
     inkscape:document-units="mm"
     inkscape:zoom="1.2275954"
     inkscape:cx="65.982652"
     inkscape:cy="106.71268"
     inkscape:window-width="2880"
     inkscape:window-height="1676"
     inkscape:window-x="-12"
     inkscape:window-y="-12"
     inkscape:window-maximized="1"
     inkscape:current-layer="layer1" />
  <defs
     id="defs1" />
  <g
     inkscape:label="图层 1"
     inkscape:groupmode="layer"
     id="layer1"
     transform="translate(-87.577065,-120.38541)">
    <g
       id="XMLID_209_"
       transform="matrix(0.26458333,0,0,0.26458333,-273.61081,98.74539)">
	<path
   id="XMLID_335_"
   style="fill:#4d3932"
   d="m 1498.541,100.713 c 1.915,12.351 -2.463,20.619 1.669,32.445 3.946,11.292 22.538,6.432 16.819,33.073 -1.797,8.368 14.472,10.145 10.885,17.871 -3.923,8.451 8.592,16.889 1.181,26.594 -0.792,1.037 -2.011,1.646 -3.229,2.043 -15.389,5.022 -27.495,-7.046 -41.414,-11.399 -19.79,-6.188 -43.414,3.752 -51.981,0.222 -14.701,-6.058 -17.374,-27.879 -9.297,-35.824 3.353,-3.298 8.168,-4.489 11.847,-7.392 17.766,-14.017 2.636,-65.118 28.227,-75.181 10.04,-3.946 32.604,0.205 35.293,17.548 z" />

	<path
   id="XMLID_92_"
   style="fill:#fd9c8d"
   d="m 1494.622,178.341 c -20.211,-15.232 -17.536,-14.653 -16.031,-37.266 l -23.167,-1.436 c 2.13,25.827 -10.277,24.053 -24.776,32.083 13.415,14.72 44.864,19.96 63.974,6.619 z" />

	<path
   id="XMLID_88_"
   style="fill:#fd9c8d"
   d="m 1482.03,141.27 c 7.267,-8.434 16.818,-34.426 2.824,-47.607 -8.556,-8.06 -32.114,-8.784 -34.703,17.519 -3.528,35.819 16.502,47.933 31.879,30.088 z" />

	<g
   id="XMLID_363_">
		<path
   id="XMLID_321_"
   style="fill:#4d3932"
   d="m 1450.165,121.841 c -1.354,-6.646 0.01,-13.376 1.345,-20.024 2,-9.917 9.053,-5.526 5.872,-0.668 -6.206,9.477 -4.51,6.357 -7.217,20.692 z" />

		<path
   id="XMLID_317_"
   style="fill:#4d3932"
   d="m 1488.082,130.784 c 8.438,-9.915 8.859,-4.734 10.148,-18.755 3.388,-36.829 -31.878,-31.218 -42.858,-18.291 -3.784,4.455 -0.627,6.556 2.661,9.392 27.398,23.637 27.953,-4.817 30.049,27.654 z" />

	</g>

	<g
   id="XMLID_74_">
		<path
   id="XMLID_79_"
   style="fill:#fd9c8d"
   d="m 1448.767,115.986 c 3.622,-0.636 2.976,6.977 2.554,10.743 -0.832,7.425 -8.26,-9.741 -2.554,-10.743 z" />

	</g>

	<g
   id="XMLID_68_">
		<path
   id="XMLID_71_"
   style="fill:#fd9c8d"
   d="m 1492.302,120.95 c -3.379,-1.494 -4.467,6.065 -4.906,9.83 -0.866,7.42 10.228,-7.478 4.906,-9.83 z" />

	</g>

	<g
   id="XMLID_366_">
		<path
   id="XMLID_66_"
   style="fill:#382823"
   d="m 1476.583,123.295 c 1.212,0.148 2.706,-4.506 -0.234,-4.866 -1.57,-0.192 -1.75,4.623 0.234,4.866 z" />

		<path
   id="XMLID_64_"
   style="fill:#382823"
   d="m 1455.804,120.751 c -1.212,-0.149 -1.615,-5.035 1.326,-4.675 1.57,0.192 0.658,4.918 -1.326,4.675 z" />

		<path
   id="XMLID_63_"
   style="fill:#573f39"
   d="m 1475.827,114.081 c -1.96,-0.17 -2.098,1.45 -0.724,2.06 0.401,0.178 8.117,2.703 7.845,2.181 -0.574,-1.102 -3.412,-3.919 -7.121,-4.241 z" />

		<path
   id="XMLID_62_"
   style="fill:#573f39"
   d="m 1459.495,111.595 c 1.955,0.221 1.791,1.839 0.33,2.165 -0.69,0.154 -8.576,1.113 -8.017,0.487 0.903,-1.01 4.11,-3.056 7.687,-2.652 z" />

		<path
   id="XMLID_61_"
   style="fill:#ee795c"
   d="m 1464.863,130.059 c 4.371,1.244 3.852,-0.769 2.623,-0.529 -4.084,0.797 -0.171,-1.559 -0.857,-8.64 -0.072,-0.745 -0.905,-0.648 -0.922,-0.028 -0.012,0.429 0.124,1.988 0.081,2.443 -0.534,5.653 -2.321,6.356 -0.925,6.754 z" />

		<path
   id="XMLID_60_"
   style="fill:#ffffff"
   d="m 1460.06,136.022 c 5.694,10.9 11.822,1.118 10.131,0.83 -8.595,-1.467 -10.83,-2.168 -10.131,-0.83 z" />

	</g>

	<g
   id="XMLID_57_">
		<path
   id="XMLID_59_"
   style="fill:#ee795c"
   d="m 1491.131,124.567 c -0.063,-0.36 -0.584,-0.257 -0.522,0.098 0.378,2.162 -0.374,3.31 -1.256,3.679 -0.136,0.057 -0.201,0.217 -0.146,0.357 0.364,0.935 2.465,-1.042 1.924,-4.134 z" />

	</g>

	<g
   id="XMLID_53_">
		<path
   id="XMLID_55_"
   style="fill:#ee795c"
   d="m 1449.203,123.827 c -0.654,-1.007 -0.353,-2.415 -0.02,-3.656 0.094,-0.351 -0.418,-0.495 -0.511,-0.147 -1.251,4.658 1.132,4.725 0.531,3.803 z" />

	</g>

	<g
   id="XMLID_49_">
		<path
   id="XMLID_50_"
   style="fill:#ee795c"
   d="m 1477.322,145.338 c -7.941,7.133 -18.372,2.929 -20.821,-1.978 -0.97,-1.914 -0.6,4.287 8.262,6.047 9.788,1.943 14.848,-6.132 12.559,-4.069 z" />

	</g>

	<g
   id="XMLID_69_">
		<g
   id="XMLID_381_">
			<path
   id="XMLID_383_"
   style="fill:#ee795c"
   d="m 1541.812,339.705 c -1.699,-0.317 -1.711,2.962 0.507,2.527 0.729,-0.143 2.573,-1.06 2.81,-1.787 1.173,1.208 -2.332,3.641 -1.317,4.933 1.923,2.447 13.118,-8.233 6.792,-14.952 -1.352,-1.436 -2,0.417 -2.86,1.496 -5.785,7.25 -12.886,5.355 -5.932,7.783 z" />

		</g>

		<path
   id="XMLID_385_"
   style="fill:#ff9c8a"
   d="m 1514.406,210.508 c 4.702,47.868 24.969,107.365 24.969,107.365 2.216,1.127 5.795,3.617 12.852,7.986 1.442,0.893 1.599,1.273 1.997,3.015 1.375,6.022 3.466,5.296 1.476,9.727 -3.52,7.839 -7.242,11.436 -7.873,8.626 -0.699,-3.109 8.891,-10.256 0.909,-16.815 -5.663,-4.654 -7.735,3.209 -5.191,6.124 0.696,0.797 3.1,2.244 2.655,5.529 -8.316,-1.915 -8.472,-10.116 -10.538,-14.333 -0.453,-0.924 -2.017,-3.153 -2.43,-5.409 -16.667,-45.287 -24.328,-49.281 -40.149,-116.554 7.795,-1.495 12.624,-0.718 20.532,-0.135 0.532,3.121 1.065,6.242 1.597,9.362 z" />

	</g>

	<g
   id="XMLID_199_">
		<g
   id="XMLID_202_">
			<path
   id="XMLID_208_"
   style="fill:#ee795c"
   d="m 1388.215,336.303 c 1.689,-0.371 1.799,2.906 -0.431,2.542 -0.732,-0.12 -2.603,-0.976 -2.862,-1.695 -1.136,1.245 2.44,3.564 1.464,4.888 -1.848,2.508 -13.358,-7.808 -7.237,-14.727 1.309,-1.479 2.011,0.353 2.904,1.404 5.999,7.06 13.04,4.938 6.162,7.588 z" />

		</g>

		<path
   id="XMLID_201_"
   style="fill:#ff9c8a"
   d="m 1411.734,206.288 c -3.265,47.996 -21.738,108.115 -21.738,108.115 -2.181,1.197 -5.684,3.801 -12.607,8.395 -1.415,0.939 -1.56,1.323 -1.905,3.077 -1.193,6.063 -3.306,5.405 -1.184,9.77 3.754,7.722 7.581,11.198 8.128,8.369 0.605,-3.13 -9.194,-9.965 -1.413,-16.778 5.521,-4.834 7.828,2.959 5.372,5.954 -0.671,0.819 -3.031,2.343 -2.488,5.612 8.255,-2.182 8.165,-10.383 10.104,-14.664 0.425,-0.939 1.921,-3.216 2.267,-5.484 15.301,-45.8 22.839,-50.038 36.635,-117.787 -7.837,-1.244 -8.439,-0.784 -16.326,0.053 -0.439,3.136 -5.077,6.744 -5.516,9.881 z" />

	</g>

	<path
   id="XMLID_206_"
   style="fill:#ff9c8a"
   d="m 1394.189,515.959 c 1.605,8.305 11,9.571 13.529,0.694 l 2.777,-21.935 -16.692,-2.47 z" />

	<path
   id="XMLID_192_"
   style="fill:#ff9c8a"
   d="m 1494.603,515.935 c 2.047,8.2 11.495,8.926 13.546,-0.083 l 1.598,-22.06 -16.799,-1.509 z" />

	<path
   id="XMLID_378_"
   style="fill:#323d4d"
   d="m 1410.265,306.536 c -18.308,203.289 -23.174,206.094 -18.617,206.638 18.675,2.23 19.595,2.963 20.133,0.649 l 46.859,-201.469 c 33.571,211.318 30.995,199.86 33.319,199.953 18.648,0.747 20.356,1.503 20.354,-1.244 -0.018,-19.706 -0.226,-174.691 -2.408,-196.658 -3.501,-35.242 -14.428,-57.997 -17.052,-57.914 -69.821,2.212 -65.609,1.675 -66.156,2.983 -2.412,5.761 -15.576,37.56 -16.432,47.062 z" />

	<g
   id="XMLID_207_">
		<g
   id="XMLID_186_">
			<path
   style="fill:#fffffb"
   d="m 1502.816,287.326 c -0.104,0 -0.21,-0.032 -0.301,-0.098 l -0.521,-0.38 c -6.937,-5.064 -15.57,-11.366 -17.816,-29.465 -0.034,-0.279 0.163,-0.533 0.442,-0.567 0.274,-0.032 0.532,0.163 0.567,0.442 2.192,17.662 10.628,23.82 17.407,28.769 l 0.521,0.381 c 0.227,0.166 0.275,0.484 0.109,0.711 -0.097,0.135 -0.251,0.207 -0.408,0.207 z"
   id="path67" />

		</g>

		<g
   id="XMLID_187_">
			<path
   style="fill:#fffffb"
   d="m 1417.109,289.197 c -0.156,0 -0.311,-0.072 -0.41,-0.208 -0.166,-0.227 -0.117,-0.545 0.109,-0.711 l 0.524,-0.382 c 6.778,-4.949 15.213,-11.107 17.405,-28.768 0.035,-0.28 0.294,-0.475 0.567,-0.442 0.279,0.035 0.477,0.289 0.442,0.567 -2.246,18.098 -10.879,24.4 -17.815,29.464 l -0.522,0.382 c -0.09,0.066 -0.195,0.098 -0.3,0.098 z"
   id="path68" />

		</g>

		<g
   id="XMLID_174_">
			<path
   style="fill:#fffffb"
   d="m 1464.786,298.744 c -2.534,0 -4.523,-0.706 -6.039,-2.135 -4.672,-4.404 -3.805,-14.806 -2.8,-26.851 0.316,-3.795 0.643,-7.721 0.804,-11.605 0.012,-0.28 0.259,-0.478 0.528,-0.487 0.281,0.012 0.499,0.249 0.487,0.529 -0.16,3.906 -0.488,7.841 -0.806,11.648 -0.943,11.292 -1.831,21.958 2.484,26.025 1.717,1.619 4.186,2.172 7.548,1.69 0.277,-0.038 0.535,0.152 0.576,0.431 0.039,0.278 -0.153,0.536 -0.432,0.576 -0.829,0.12 -1.614,0.179 -2.35,0.179 z"
   id="path69" />

		</g>

		<g
   id="XMLID_175_">
			<path
   style="fill:#fffffb"
   d="m 1458.684,309.48 -0.39,-0.663 c -0.123,-0.209 -0.238,-0.419 -0.354,-0.628 -0.883,-1.604 -1.647,-2.993 -5.382,-2.993 -0.06,0 -0.121,-0.013 -0.18,10e-4 -0.278,0 -0.506,-0.224 -0.509,-0.503 0,-0.281 0.223,-0.512 0.503,-0.515 0.062,-10e-4 0.122,-10e-4 0.182,-10e-4 4.307,0 5.31,1.762 6.255,3.479 1.961,-2.201 4.769,-3.058 6.688,-2.932 0.872,0.064 1.462,0.341 1.707,0.799 0.133,0.248 0.039,0.557 -0.208,0.689 -0.251,0.133 -0.557,0.039 -0.689,-0.208 -0.026,-0.046 -0.261,-0.227 -0.933,-0.268 -1.503,-0.092 -4.414,0.664 -6.234,3.124 z"
   id="path70" />

		</g>

		<g
   id="XMLID_177_">
			<path
   style="fill:#fffffb"
   d="m 1410.22,512.426 c -0.037,0 -0.074,-0.004 -0.112,-0.013 -0.273,-0.062 -0.445,-0.334 -0.384,-0.608 11.679,-51.702 21.509,-94.831 29.407,-129.485 7.325,-32.139 12.617,-55.359 15.519,-68.477 0.061,-0.273 0.34,-0.445 0.606,-0.388 0.274,0.062 0.448,0.333 0.388,0.607 -2.902,13.122 -8.195,36.344 -15.52,68.483 -7.899,34.654 -17.73,77.782 -29.407,129.484 -0.055,0.237 -0.264,0.397 -0.497,0.397 z"
   id="path71" />

		</g>

		<g
   id="XMLID_179_">
			<path
   style="fill:#fffffb"
   d="m 1510.484,510.877 c -0.268,0 -0.491,-0.209 -0.507,-0.48 -1.035,-18.197 -1.197,-41.065 -1.385,-67.546 -0.346,-48.865 -0.738,-104.251 -6.698,-153.749 -0.034,-0.279 0.165,-0.532 0.444,-0.566 0.273,-0.036 0.531,0.165 0.565,0.444 5.967,49.556 6.359,104.972 6.706,153.865 0.188,26.466 0.35,49.323 1.383,67.494 0.016,0.281 -0.198,0.522 -0.479,0.537 -0.01,0.001 -0.019,0.001 -0.029,0.001 z"
   id="path72" />

		</g>

	</g>

	<g
   id="XMLID_369_">
		<path
   style="fill:#e95b4b"
   d="m 1496.647,173.369 c 13.338,3.278 12.125,2.503 23.505,51.413 0.918,3.945 -10.518,9.791 -26.978,9.1 -9.647,-23.325 -18.815,-41.561 -12.684,-53.959 2.219,-4.488 13.527,-7.2 16.157,-6.554 z"
   id="path73" />

		<path
   style="fill:#bd2f2f"
   d="m 1495.783,234.446 c -0.864,0 -1.74,-0.018 -2.631,-0.055 l -0.324,-0.014 -0.124,-0.3 c -1.109,-2.682 -2.212,-5.296 -3.286,-7.843 -8.332,-19.753 -14.913,-35.356 -9.385,-46.536 2.316,-4.682 13.765,-7.549 16.735,-6.823 l 0.405,0.1 c 12.223,2.999 12.223,2.999 21.086,41.379 0.731,3.167 1.523,6.597 2.388,10.314 0.213,0.914 -0.105,1.917 -0.92,2.9 -2.873,3.466 -12.073,6.878 -23.944,6.878 z m -2.263,-1.059 c 12.642,0.467 22.523,-2.967 25.425,-6.469 0.421,-0.508 0.887,-1.271 0.713,-2.02 -0.865,-3.718 -1.657,-7.148 -2.389,-10.315 -8.723,-37.77 -8.723,-37.77 -20.337,-40.62 l -0.405,-0.099 c -2.294,-0.566 -13.443,1.962 -15.581,6.286 -5.321,10.763 1.18,26.176 9.41,45.69 1.034,2.452 2.095,4.968 3.164,7.547 z"
   id="path74" />

	</g>

	<g
   id="XMLID_98_">
		<path
   style="fill:#e95b4b"
   d="m 1437.044,169.372 c -13.68,0.541 -13.229,-0.936 -33.482,44.551 -1.971,4.427 14.224,13.176 25.563,15.512 13.83,-20.949 26.238,-37.002 22.545,-50.394 -1.338,-4.848 -11.925,-9.775 -14.626,-9.669 z"
   id="path75" />

		<path
   style="fill:#bd2f2f"
   d="m 1429.359,230.003 -0.337,-0.07 c -9.416,-1.939 -23.124,-8.605 -25.698,-13.62 -0.491,-0.957 -0.567,-1.831 -0.227,-2.598 19.558,-43.925 19.863,-44.343 32.672,-44.805 l 1.254,-0.047 c 0.036,-0.001 0.073,-0.002 0.11,-0.002 3.199,0 13.648,5.049 15.025,10.044 3.331,12.077 -6.048,26.066 -17.921,43.778 -1.529,2.281 -3.1,4.624 -4.688,7.031 z m 7.705,-60.122 -1.258,0.047 c -12.066,0.435 -12.296,0.443 -31.779,44.203 -0.21,0.471 -0.142,1.049 0.202,1.719 2.19,4.266 14.776,10.891 24.662,13.017 1.525,-2.308 3.032,-4.557 4.502,-6.749 11.729,-17.495 20.992,-31.313 17.785,-42.941 -1.275,-4.627 -11.563,-9.298 -14.044,-9.298 -0.024,0.001 -0.047,0.001 -0.07,0.002 z"
   id="path76" />

	</g>

	<g
   id="XMLID_368_">
		<path
   style="fill:#e95b4b"
   d="m 1479.452,164.59 c -3.933,8.022 -25.326,11.52 -29.395,-2.516 -14.018,4.183 -19.21,7.811 -19.21,7.811 -1.478,15.482 -18.486,86.83 -1.992,89.506 25.336,4.111 44.022,6.047 65.456,1.923 11.383,-4.859 6.109,-85.997 5.943,-87.033 0,0.002 -7.513,-2.618 -20.802,-9.691 z"
   id="path77" />

		<path
   style="fill:#bd2f2f"
   d="m 1470.156,264.101 c -12.344,0 -25.362,-1.608 -41.381,-4.208 -1.675,-0.271 -3.091,-1.206 -4.211,-2.78 -7.387,-10.378 -1.004,-46.951 3.22,-71.152 1.255,-7.189 2.246,-12.867 2.557,-16.125 l 0.022,-0.234 0.193,-0.135 c 0.215,-0.15 5.419,-3.723 19.355,-7.881 l 0.491,-0.146 0.143,0.492 c 2.08,7.176 8.455,8.776 12.07,9.091 6.933,0.607 14.282,-2.382 16.379,-6.657 l 0.231,-0.472 0.465,0.247 c 13.093,6.968 20.656,9.635 20.731,9.661 l 0.286,0.1 0.048,0.3 c 0.128,0.795 5.642,82.506 -6.246,87.581 l -0.104,0.032 c -8.229,1.583 -16.093,2.286 -24.249,2.286 z m -38.826,-93.924 c -0.339,3.331 -1.315,8.924 -2.543,15.959 -3.94,22.574 -10.534,60.355 -3.394,70.387 0.97,1.362 2.129,2.136 3.544,2.366 26.466,4.294 44.707,5.875 65.222,1.936 10.226,-4.603 6.282,-79.669 5.626,-86.173 -1.517,-0.56 -8.678,-3.311 -20.124,-9.376 -2.544,4.372 -10.073,7.378 -17.133,6.76 -6.4,-0.558 -11.039,-3.948 -12.808,-9.33 -11.969,3.614 -17.348,6.81 -18.39,7.471 z"
   id="path78" />

	</g>

	<g
   id="XMLID_250_">
		<g
   id="XMLID_194_">
			<path
   style="fill:#1e2635"
   d="m 1365.898,534.299 c -0.393,-0.876 -0.35,-1.927 0.097,-2.776 1.301,-2.473 29.271,-16.111 28.194,-15.565 4.325,3.701 10.825,3.006 13.529,0.694 1.188,3.724 4.293,16.986 -0.577,17.624 -2.908,0.382 -39.583,3.724 -41.243,0.023 z"
   id="path79" />

			<path
   style="fill:#323d4d"
   d="m 1377.978,536.521 c -6.587,0 -11.862,-0.495 -12.543,-2.014 -0.457,-1.017 -0.415,-2.221 0.11,-3.22 1.216,-2.312 22.872,-13.073 27.777,-15.401 l -0.043,-0.037 0.681,-0.345 0.037,0.067 c 0.199,-0.091 0.304,-0.127 0.307,-0.13 l 0.363,0.06 0.034,0.222 c 4.17,3.399 10.264,2.617 12.687,0.543 l 0.583,-0.498 0.232,0.73 c 1.027,3.222 3.438,13.238 1.12,16.886 -0.515,0.811 -1.227,1.28 -2.116,1.396 -0.256,0.035 -17.002,1.741 -29.229,1.741 z m 16.132,-19.966 c -3.549,1.682 -26.611,13.202 -27.665,15.206 -0.376,0.715 -0.407,1.607 -0.083,2.331 1.36,3.029 34.66,0.473 40.712,-0.318 0.586,-0.077 1.04,-0.383 1.391,-0.934 1.824,-2.871 0.175,-11.259 -1.022,-15.346 -3.013,1.994 -9.007,2.545 -13.333,-0.939 z"
   id="path80" />

		</g>

		<g
   id="XMLID_249_">
			<g
   id="XMLID_225_">
				<path
   style="fill:#fffffb"
   d="m 1380.931,529.856 c -1.126,0 -2.491,-0.552 -3.497,-1.206 -0.816,-0.53 -1.818,-1.389 -1.955,-2.467 -0.07,-0.558 0.325,-1.066 0.882,-1.137 0.578,-0.071 1.066,0.323 1.137,0.88 0.026,0.137 0.363,0.607 1.197,1.113 1.071,0.651 2.091,0.859 2.415,0.766 0.538,-0.168 1.104,0.143 1.268,0.68 0.162,0.538 -0.142,1.106 -0.68,1.268 -0.237,0.07 -0.495,0.103 -0.767,0.103 z"
   id="path81" />

			</g>

			<g
   id="XMLID_226_">
				<path
   style="fill:#fffffb"
   d="m 1386.861,526.746 c -2.348,-0.028 -4.563,-1.519 -5.525,-3.707 -0.226,-0.515 0.01,-1.114 0.522,-1.341 0.514,-0.226 1.114,0.007 1.341,0.523 0.636,1.448 2.147,2.472 3.675,2.49 0.562,0.007 1.012,0.468 1.005,1.03 -0.01,0.558 -0.461,1.005 -1.018,1.005 z"
   id="path82" />

			</g>

			<g
   id="XMLID_228_">
				<path
   style="fill:#fffffb"
   d="m 1392.068,523.667 c -2.164,-0.062 -4.258,-1.104 -5.629,-2.791 -0.354,-0.435 -0.289,-1.076 0.147,-1.431 0.436,-0.354 1.076,-0.29 1.431,0.147 1.003,1.233 2.528,1.995 4.079,2.04 0.562,0.016 1.004,0.484 0.987,1.046 -0.015,0.553 -0.467,0.989 -1.015,0.989 z"
   id="path83" />

			</g>

		</g>

	</g>

	<g
   id="XMLID_99_">
		<g
   id="XMLID_247_">
			<path
   style="fill:#1e2635"
   d="m 1467.086,535.679 c -0.429,-0.858 -0.429,-1.91 -0.019,-2.777 1.197,-2.529 28.59,-17.561 27.536,-16.967 4.475,3.505 10.94,2.348 13.546,-0.083 1.342,3.668 4.98,17.115 0.14,17.969 -2.89,0.509 -39.391,5.481 -41.203,1.858 z"
   id="path84" />

			<path
   style="fill:#323d4d"
   d="m 1474.912,537.466 c -4.458,0 -7.71,-0.419 -8.281,-1.56 -0.498,-0.996 -0.507,-2.2 -0.023,-3.223 1.129,-2.386 22.335,-14.217 27.131,-16.78 l -0.048,-0.038 0.663,-0.374 0.042,0.065 c 0.183,-0.095 0.286,-0.143 0.3,-0.143 l 0.365,0.045 0.044,0.219 c 4.249,3.158 10.321,2.019 12.698,-0.197 l 0.56,-0.523 0.264,0.721 c 0.958,2.62 4.068,13.209 1.794,17.156 -0.48,0.833 -1.168,1.334 -2.043,1.488 -0.286,0.05 -21.339,3.143 -33.466,3.144 z m 19.642,-20.931 c -3.574,1.92 -26.073,14.568 -27.026,16.584 -0.346,0.73 -0.341,1.624 0.014,2.332 1.48,2.961 34.646,-1.071 40.66,-2.132 0.573,-0.102 1.011,-0.427 1.339,-0.995 1.788,-3.103 -0.39,-11.894 -1.631,-15.616 -2.963,2.168 -8.946,3.063 -13.356,-0.173 z"
   id="path85" />

		</g>

		<g
   id="XMLID_191_">
			<g
   id="XMLID_234_">
				<path
   style="fill:#fffffb"
   d="m 1481.762,530.573 c -1.097,0 -2.405,-0.476 -3.392,-1.058 -0.835,-0.493 -1.869,-1.306 -2.05,-2.377 -0.094,-0.554 0.279,-1.078 0.834,-1.172 0.552,-0.099 1.077,0.279 1.172,0.832 0.032,0.136 0.388,0.588 1.237,1.056 1.099,0.604 2.125,0.771 2.447,0.658 0.532,-0.185 1.111,0.095 1.296,0.624 0.185,0.53 -0.094,1.11 -0.624,1.296 -0.277,0.098 -0.589,0.141 -0.92,0.141 z"
   id="path86" />

			</g>

			<g
   id="XMLID_233_">
				<path
   style="fill:#fffffb"
   d="m 1487.524,527.201 c -2.27,0 -4.456,-1.373 -5.483,-3.461 -0.248,-0.505 -0.04,-1.114 0.464,-1.362 0.507,-0.249 1.114,-0.04 1.362,0.464 0.697,1.417 2.288,2.342 3.772,2.323 0.553,-0.055 1.031,0.422 1.05,0.983 0.019,0.561 -0.422,1.032 -0.983,1.05 -0.061,0.002 -0.121,0.003 -0.182,0.003 z"
   id="path87" />

			</g>

			<g
   id="XMLID_229_">
				<path
   style="fill:#fffffb"
   d="m 1492.652,523.892 c -2.099,0 -4.186,-0.943 -5.602,-2.54 -0.373,-0.42 -0.335,-1.063 0.086,-1.436 0.418,-0.373 1.062,-0.335 1.436,0.086 1.053,1.186 2.588,1.894 4.158,1.854 0.571,0 1.025,0.445 1.034,1.001 0.01,0.563 -0.439,1.024 -1.001,1.034 -0.037,0.001 -0.074,0.001 -0.111,0.001 z"
   id="path88" />

			</g>

		</g>

	</g>

	<g
   id="XMLID_508_">
		<g
   id="XMLID_325_">
			<path
   style="fill:#573f39"
   d="m 1496.853,114.904 c -0.252,0 -0.471,-0.188 -0.504,-0.445 -0.578,-4.557 -0.141,-7.797 0.21,-10.399 0.513,-3.801 0.852,-6.313 -2.247,-10.144 -3.859,-4.773 -9.75,-7.728 -15.757,-7.905 -0.281,-0.008 -0.502,-0.243 -0.494,-0.523 0.01,-0.28 0.256,-0.53 0.523,-0.493 6.301,0.186 12.476,3.282 16.519,8.282 3.374,4.173 2.992,7.003 2.465,10.92 -0.344,2.544 -0.771,5.71 -0.209,10.136 0.035,0.279 -0.162,0.533 -0.44,0.568 -0.023,0.002 -0.044,0.003 -0.066,0.003 z"
   id="path89" />

		</g>

		<g
   id="XMLID_326_">
			<path
   style="fill:#573f39"
   d="m 1479.141,110.721 c -4.815,0 -10.098,-1.938 -13.715,-5.251 -3.147,-2.881 -4.535,-6.326 -3.909,-9.7 0.051,-0.276 0.318,-0.46 0.593,-0.407 0.276,0.051 0.459,0.317 0.407,0.593 -0.559,3.016 0.718,6.128 3.596,8.764 4.459,4.083 11.564,5.97 16.892,4.486 0.274,-0.076 0.552,0.083 0.627,0.354 0.075,0.271 -0.083,0.551 -0.353,0.627 -1.301,0.361 -2.699,0.534 -4.138,0.534 z"
   id="path90" />

		</g>

		<g
   id="XMLID_328_">
			<path
   style="fill:#573f39"
   d="m 1450.632,112.213 c -0.298,-0.01 -0.518,-0.245 -0.509,-0.525 0.154,-4.67 1.637,-9.37 4.177,-13.233 0.155,-0.235 0.473,-0.298 0.704,-0.146 0.234,0.154 0.3,0.47 0.146,0.705 -2.438,3.709 -3.861,8.223 -4.009,12.708 -0.01,0.274 -0.236,0.491 -0.509,0.491 z"
   id="path91" />

		</g>

		<g
   id="XMLID_329_">
			<path
   style="fill:#573f39"
   d="m 1488.371,121.783 c -0.239,0 -0.452,-0.17 -0.499,-0.414 -0.184,-0.97 -0.096,-2.014 -0.011,-3.023 0.134,-1.576 0.26,-3.065 -0.594,-4.185 -0.171,-0.223 -0.128,-0.543 0.096,-0.713 0.226,-0.17 0.544,-0.127 0.713,0.097 1.092,1.432 0.943,3.188 0.799,4.887 -0.083,0.985 -0.161,1.915 0,2.749 0.052,0.276 -0.129,0.542 -0.405,0.594 -0.033,0.005 -0.064,0.008 -0.096,0.008 z"
   id="path92" />

		</g>

		<g
   id="XMLID_330_">
			<path
   style="fill:#573f39"
   d="m 1477.188,99.372 c -0.135,0 -0.269,-0.053 -0.369,-0.159 -1.91,-2.018 -4.67,-3.733 -7.104,-5.248 -3.115,-1.937 -5.365,-3.336 -5.372,-4.905 0,-0.766 0.32,-1.36 0.935,-1.72 2.684,-1.567 10.608,1.928 13.039,3.309 0.244,0.139 0.33,0.449 0.191,0.694 -0.139,0.244 -0.452,0.329 -0.693,0.191 -3.047,-1.731 -10.048,-4.469 -12.023,-3.315 -0.3,0.175 -0.433,0.433 -0.431,0.837 0,1.006 2.489,2.551 4.892,4.045 2.487,1.546 5.306,3.299 7.306,5.412 0.193,0.204 0.185,0.526 -0.02,0.719 -0.1,0.093 -0.225,0.14 -0.351,0.14 z"
   id="path93" />

		</g>

		<g
   id="XMLID_331_">
			<path
   style="fill:#573f39"
   d="m 1512.651,159.685 c -0.083,0 -0.167,-0.02 -0.244,-0.063 -0.247,-0.135 -0.337,-0.444 -0.202,-0.69 3.365,-6.143 -2.656,-10.771 -8.479,-15.247 -3.54,-2.721 -6.884,-5.292 -7.9,-8.103 -0.814,-2.25 -0.49,-4.448 0.156,-8.829 l 0.3,-2.064 c 0.039,-0.279 0.309,-0.473 0.575,-0.432 0.278,0.039 0.472,0.297 0.432,0.575 -0.106,0.741 -0.207,1.428 -0.302,2.069 -0.621,4.211 -0.933,6.325 -0.205,8.334 0.915,2.531 4.145,5.014 7.563,7.642 5.876,4.516 12.535,9.635 8.752,16.542 -0.092,0.17 -0.266,0.266 -0.446,0.266 z"
   id="path94" />

		</g>

		<g
   id="XMLID_352_">
			<path
   style="fill:#573f39"
   d="m 1525.133,202.926 c -0.075,0 -0.15,-0.017 -0.222,-0.051 -0.253,-0.123 -0.358,-0.427 -0.236,-0.68 0.77,-1.589 0.436,-3.709 -0.993,-6.301 -3.519,-6.382 -2.731,-8.556 -2.035,-10.473 0.394,-1.085 0.733,-2.023 0.174,-3.755 -0.45,-1.392 -1.496,-2.183 -2.944,-3.277 -1.646,-1.243 -3.695,-2.79 -5.716,-5.893 -0.153,-0.235 -0.087,-0.551 0.148,-0.704 0.232,-0.152 0.551,-0.087 0.703,0.148 1.925,2.954 3.895,4.441 5.477,5.637 1.537,1.161 2.752,2.078 3.301,3.776 0.666,2.063 0.233,3.259 -0.186,4.414 -0.651,1.798 -1.326,3.657 1.97,9.635 1.597,2.898 1.939,5.332 1.018,7.235 -0.089,0.183 -0.271,0.289 -0.459,0.289 z"
   id="path95" />

		</g>

		<g
   id="XMLID_355_">
			<path
   style="fill:#573f39"
   d="m 1489.181,163.485 c -0.068,0 -0.137,-0.014 -0.203,-0.042 -0.258,-0.112 -0.375,-0.412 -0.263,-0.669 1.071,-2.457 0.477,-4.297 -0.275,-6.626 -1.16,-3.595 -2.604,-8.07 1.105,-16.902 0.107,-0.259 0.406,-0.382 0.666,-0.272 0.259,0.108 0.381,0.407 0.271,0.665 -3.563,8.485 -2.184,12.76 -1.075,16.196 0.786,2.434 1.464,4.536 0.238,7.345 -0.082,0.191 -0.268,0.305 -0.464,0.305 z"
   id="path96" />

		</g>

		<g
   id="XMLID_356_">
			<path
   style="fill:#573f39"
   d="m 1481.013,161.283 c -0.222,0 -0.425,-0.146 -0.489,-0.369 -1.342,-4.684 -1.108,-9.76 0.659,-14.29 0.102,-0.262 0.398,-0.391 0.658,-0.289 0.262,0.103 0.392,0.397 0.289,0.659 -1.687,4.324 -1.909,9.168 -0.628,13.64 0.077,0.27 -0.079,0.552 -0.349,0.629 -0.047,0.013 -0.095,0.02 -0.14,0.02 z"
   id="path97" />

		</g>

		<g
   id="XMLID_359_">
			<path
   style="fill:#573f39"
   d="m 1507.076,169.946 c -0.264,0 -0.486,-0.204 -0.506,-0.472 -0.343,-4.687 -2.721,-6.827 -5.021,-8.896 -2.515,-2.263 -5.114,-4.604 -4.738,-10.045 0.018,-0.281 0.286,-0.495 0.543,-0.472 0.28,0.019 0.491,0.262 0.473,0.543 -0.343,4.947 1.856,6.927 4.403,9.219 2.336,2.102 4.982,4.484 5.354,9.579 0.021,0.28 -0.189,0.524 -0.47,0.544 -0.013,0 -0.025,0 -0.038,0 z"
   id="path98" />

		</g>

		<g
   id="XMLID_361_">
			<path
   style="fill:#573f39"
   d="m 1444.755,152.778 c -0.318,-0.022 -0.529,-0.266 -0.508,-0.546 0.107,-1.45 0.569,-2.969 1.104,-4.728 1.082,-3.56 2.429,-7.99 1.999,-15.001 -0.017,-0.281 0.196,-0.522 0.477,-0.539 0.295,-0.011 0.521,0.197 0.539,0.477 0.44,7.194 -0.994,11.914 -2.041,15.359 -0.517,1.701 -0.964,3.169 -1.063,4.507 -0.021,0.267 -0.244,0.471 -0.507,0.471 z"
   id="path99" />

		</g>

		<g
   id="XMLID_367_">
			<path
   style="fill:#573f39"
   d="m 1447.864,159.359 c -0.09,0 -0.182,-0.024 -0.264,-0.074 -0.24,-0.145 -0.317,-0.458 -0.171,-0.699 2.327,-3.841 3.765,-8.26 4.155,-12.779 0.024,-0.279 0.275,-0.479 0.551,-0.463 0.279,0.024 0.487,0.271 0.463,0.551 -0.404,4.673 -1.891,9.244 -4.3,13.218 -0.095,0.158 -0.262,0.246 -0.434,0.246 z"
   id="path100" />

		</g>

		<g
   id="XMLID_506_">
			<path
   style="fill:#573f39"
   d="m 1424.053,170.456 c -0.056,0 -0.113,-0.009 -0.169,-0.029 -0.265,-0.093 -0.404,-0.384 -0.31,-0.649 1.932,-5.494 5.898,-6.662 9.398,-7.693 2.602,-0.767 4.849,-1.428 5.949,-3.699 0.122,-0.255 0.429,-0.359 0.68,-0.236 0.253,0.123 0.358,0.427 0.236,0.679 -1.297,2.676 -3.862,3.431 -6.578,4.231 -3.425,1.009 -6.968,2.053 -8.727,7.055 -0.073,0.21 -0.269,0.341 -0.479,0.341 z"
   id="path101" />

		</g>

	</g>

</g>
  </g>
</svg>
