<?xml version="1.0" encoding="UTF-8" standalone="no"?>
<!-- Created with Inkscape (http://www.inkscape.org/) -->

<svg
   width="46.545971mm"
   height="110.35092mm"
   viewBox="0 0 46.545971 110.35092"
   version="1.1"
   id="svg1"
   inkscape:version="1.4.2 (f4327f4, 2025-05-13)"
   sodipodi:docname="generic-agender-2.svg"
   xmlns:inkscape="http://www.inkscape.org/namespaces/inkscape"
   xmlns:sodipodi="http://sodipodi.sourceforge.net/DTD/sodipodi-0.dtd"
   xmlns="http://www.w3.org/2000/svg"
   xmlns:svg="http://www.w3.org/2000/svg">
  <sodipodi:namedview
     id="namedview1"
     pagecolor="#ffffff"
     bordercolor="#000000"
     borderopacity="0.25"
     inkscape:showpageshadow="2"
     inkscape:pageopacity="0.0"
     inkscape:pagecheckerboard="0"
     inkscape:deskcolor="#d1d1d1"
     inkscape:document-units="mm"
     inkscape:zoom="1.2275954"
     inkscape:cx="-206.90856"
     inkscape:cy="-29.325623"
     inkscape:window-width="2880"
     inkscape:window-height="1676"
     inkscape:window-x="-12"
     inkscape:window-y="-12"
     inkscape:window-maximized="1"
     inkscape:current-layer="layer1" />
  <defs
     id="defs1" />
  <g
     inkscape:label="图层 1"
     inkscape:groupmode="layer"
     id="layer1"
     transform="translate(-159.80832,-156.10433)">
    <path
       style="fill:#784b41;stroke-width:0.264583"
       d="m 177.73776,198.12555 c 0,0 -1.54782,0.23178 -5.08106,1.20676 -3.17765,0.87683 -4.38494,1.04881 -4.38494,1.04881 0,0 -0.57388,-0.47307 -1.35044,-0.95832 -0.10001,-0.0624 -0.20796,-0.10768 -0.32226,-0.13626 -0.36221,-0.0897 -1.24063,-0.28839 -2.16535,-0.35824 -0.14499,-0.0109 -0.29051,0.0119 -0.42915,0.0558 -0.83926,0.26564 -1.69281,0.37412 -1.8759,0.60775 -0.19817,0.25241 0.24236,0.72734 0.9099,0.67098 0.3138,-0.0264 0.57468,-0.0317 0.79534,-0.0251 -0.37809,0.005 -0.85698,0.0251 -1.36789,0.078 -1.2626,0.3265 -2.18361,0.80619 -2.15662,1.08982 0.0206,0.21564 0.18573,0.33258 0.49027,0.36724 -0.6223,0.25506 -1.01918,0.48128 -0.98981,0.66966 0.0458,0.29237 0.29448,0.46382 0.88239,0.43101 -0.43471,0.20743 -0.68289,0.40058 -0.67098,0.55351 0.0251,0.32543 0.43656,0.46117 1.25941,0.35057 -0.52758,0.19844 -0.84825,0.40005 -0.8165,0.64003 0.0701,0.53075 0.86042,0.50667 2.05184,0.22278 0.69691,0.0273 1.93516,0.1016 1.93516,0.1016 1.09247,0.22542 2.98583,0.34263 3.8481,-0.38577 5.35385,-0.23283 11.12917,-0.80592 11.12917,-0.80592 0.88345,-0.091 1.68487,-0.34792 1.68487,-0.34792 1.86372,-2.20822 3.70046,-6.15501 4.42383,-7.7978 -2.59556,-0.50298 -4.56882,-1.5629 -5.45041,-2.10371 -0.97605,2.02618 -2.34897,4.82468 -2.34897,4.82468 z"
       id="path1" />
    <path
       style="opacity:0.5;fill:#784b41;stroke-width:0.264583"
       d="m 177.73776,198.12555 c 0,0 -1.54782,0.23178 -5.08106,1.20676 -3.17765,0.87683 -4.38494,1.04881 -4.38494,1.04881 0,0 -0.57388,-0.47307 -1.35044,-0.95832 -0.10001,-0.0624 -0.20796,-0.10768 -0.32226,-0.13626 -0.36221,-0.0897 -1.24063,-0.28839 -2.16535,-0.35824 -0.14499,-0.0109 -0.29051,0.0119 -0.42915,0.0558 -0.83926,0.26564 -1.69281,0.37412 -1.8759,0.60775 -0.19817,0.25241 0.24236,0.72734 0.9099,0.67098 0.3138,-0.0264 0.57468,-0.0317 0.79534,-0.0251 -0.37809,0.005 -0.85698,0.0251 -1.36789,0.078 -1.2626,0.3265 -2.18361,0.80619 -2.15662,1.08982 0.0206,0.21564 0.18573,0.33258 0.49027,0.36724 -0.6223,0.25506 -1.01918,0.48128 -0.98981,0.66966 0.0458,0.29237 0.29448,0.46382 0.88239,0.43101 -0.43471,0.20743 -0.68289,0.40058 -0.67098,0.55351 0.0251,0.32543 0.43656,0.46117 1.25941,0.35057 -0.52758,0.19844 -0.84825,0.40005 -0.8165,0.64003 0.0701,0.53075 0.86042,0.50667 2.05184,0.22278 0.69691,0.0273 1.93516,0.1016 1.93516,0.1016 1.09247,0.22542 2.98583,0.34263 3.8481,-0.38577 5.35385,-0.23283 11.12917,-0.80592 11.12917,-0.80592 0.88345,-0.091 1.68487,-0.34792 1.68487,-0.34792 1.86372,-2.20822 3.70046,-6.15501 4.42383,-7.7978 -2.59556,-0.50298 -4.56882,-1.5629 -5.45041,-2.10371 -0.97605,2.02618 -2.34897,4.82468 -2.34897,4.82468 z"
       id="path2" />
    <path
       style="fill:#ffe160;stroke-width:0.264583"
       d="m 186.82434,194.65342 c 1.0205,-4.78604 -0.13996,-6.80138 -2.33442,-6.80138 -1.58644,0 -2.35426,1.10808 -3.7891,4.15899 -0.16457,0.34978 -0.64558,0.79692 -0.88238,1.28905 1.00965,0.90223 3.12235,1.84071 5.71791,2.34394 0.20611,-0.46831 0.32253,-0.99033 0.32253,-0.99033 h 0.96546 z"
       id="path3" />
    <path
       style="opacity:0.5;fill:#ffe160;stroke-width:0.264583"
       d="m 186.82434,194.65342 c 1.0205,-4.78604 -0.13996,-6.80138 -2.33442,-6.80138 -1.58644,0 -2.35426,1.10808 -3.7891,4.15899 -0.16457,0.34978 -0.64558,0.79692 -0.88238,1.28905 1.00965,0.90223 3.12235,1.84071 5.71791,2.34394 0.20611,-0.46831 0.32253,-0.99033 0.32253,-0.99033 h 0.96546 z"
       id="path4" />
    <g
       id="g7"
       transform="matrix(0.26458333,0,0,0.26458333,104.504,145.16708)">
				<path
   style="opacity:0.5;fill:#784b41"
   d="m 226.571,225.163 c 4.129,0.852 11.285,1.295 14.544,-1.458 1.005,-0.044 2.014,-0.091 3.024,-0.141 -1.138,-5.052 -2.022,-10.416 -2.669,-14.955 -0.306,0.053 -0.458,0.075 -0.458,0.075 0,0 -2.169,-1.788 -5.104,-3.622 -0.378,-0.236 -0.786,-0.407 -1.218,-0.515 -1.369,-0.339 -4.689,-1.09 -8.184,-1.354 -0.548,-0.041 -1.098,0.045 -1.622,0.211 -3.172,1.004 -6.398,1.414 -7.09,2.297 -0.749,0.954 0.916,2.749 3.439,2.536 1.186,-0.1 2.172,-0.12 3.006,-0.095 -1.429,0.02 -3.239,0.095 -5.17,0.295 -4.772,1.234 -8.253,3.047 -8.151,4.119 0.078,0.815 0.702,1.257 1.853,1.388 -2.352,0.964 -3.852,1.819 -3.741,2.531 0.173,1.105 1.113,1.753 3.335,1.629 -1.643,0.784 -2.581,1.514 -2.536,2.092 0.095,1.23 1.65,1.743 4.76,1.325 -1.994,0.75 -3.206,1.512 -3.086,2.419 0.265,2.006 3.252,1.915 7.755,0.842 2.632,0.1 7.313,0.381 7.313,0.381 z"
   id="path5" />

				<path
   style="opacity:0.5;fill:#784b41"
   d="m 278.152,197.375 c 0.827,1.864 1.64,3.213 2.042,3.834 -0.223,1.657 -1.027,7.89 -1.472,14.626 -0.022,0.322 0.097,0.637 0.322,0.867 0.167,0.169 0.382,0.278 0.612,0.316 -0.072,1.365 -0.119,2.692 -0.15,3.986 2.326,-0.214 3.67,-0.347 3.67,-0.347 3.339,-0.344 6.368,-1.315 6.368,-1.315 7.044,-8.346 13.986,-23.263 16.72,-29.472 -9.81,-1.901 -17.268,-5.907 -20.6,-7.951 -2.514,5.224 -5.723,11.798 -7.512,15.456 z"
   id="path6" />

				<path
   style="opacity:0.5;fill:#784b41"
   d="m 269.662,212.32 c -0.288,-0.903 -1.473,-4.605 -3.224,-9.921 -2.474,0.61 -5.41,1.37 -8.854,2.321 -5.976,1.649 -10.105,2.638 -12.749,3.216 1.385,3.672 2.818,7.45 4.106,10.801 0.093,0.399 0.467,1.932 1.28,4.499 9.533,-0.561 18.637,-1.293 24.852,-1.833 -1.677,-3.602 -3.475,-6.76 -5.411,-9.083 z"
   id="path7" />

			</g>
    <path
       style="fill:#784b41;stroke-width:0.264583"
       d="m 191.17277,258.61115 c -0.0468,-2.59424 -0.12198,-6.99055 -0.15822,-10.32536 -0.8853,0.16139 -1.93728,0.29554 -3.00302,0.29554 -1.02368,0 -2.03597,-0.0828 -2.89904,-0.18495 0.4781,3.03398 0.89032,6.56987 1.01414,10.21477 z"
       id="path8" />
    <path
       style="opacity:0.5;fill:#784b41;stroke-width:0.264583"
       d="m 191.17277,258.61115 c -0.0468,-2.59424 -0.12198,-6.99055 -0.15822,-10.32536 -0.8853,0.16139 -1.93728,0.29554 -3.00302,0.29554 -1.02368,0 -2.03597,-0.0828 -2.89904,-0.18495 0.4781,3.03398 0.89032,6.56987 1.01414,10.21477 z"
       id="path9" />
    <path
       style="fill:#ffdc46;stroke-width:0.264583"
       d="m 192.00065,263.3173 c -0.23257,-1.01177 -0.50615,-2.52439 -0.50615,-2.52439 0,0 -0.0164,-1.13851 -0.0405,-2.46328 h -4.0677 l -0.0818,0.28126 -0.0818,-0.28126 h -1.37715 c 0.0246,0.72417 0.0386,1.73355 0.0386,2.46328 0,0 -0.7501,1.55813 -2.52783,2.63366 0,0 -4.34552,0.52678 -4.34552,3.02868 h 13.05851 c -2.6e-4,0 0.30427,-1.51394 -0.0688,-3.13795 z"
       id="path10" />
    <path
       style="opacity:0.5;fill:#ffdc46;stroke-width:0.264583"
       d="m 192.00065,263.3173 c -0.23257,-1.01177 -0.50615,-2.52439 -0.50615,-2.52439 0,0 -0.0164,-1.13851 -0.0405,-2.46328 h -4.0677 l -0.0818,0.28126 -0.0818,-0.28126 h -1.37715 c 0.0246,0.72417 0.0386,1.73355 0.0386,2.46328 0,0 -0.7501,1.55813 -2.52783,2.63366 0,0 -4.34552,0.52678 -4.34552,3.02868 h 13.05851 c -2.6e-4,0 0.30427,-1.51394 -0.0688,-3.13795 z"
       id="path11" />
    <path
       style="opacity:0.5;fill:#ffdc46;stroke-width:0.264583"
       d="m 184.47775,264.18566 c 2.10529,-1.29223 2.82681,-3.39275 2.82681,-3.39275 v -2.18176 l -0.0818,-0.28125 h -1.37715 c 0.0246,0.72416 0.0386,1.73355 0.0386,2.46327 0,0 -0.7501,1.55813 -2.52783,2.63366 0.62759,0.21564 1.1213,0.75883 1.1213,0.75883 z"
       id="path12" />
    <path
       style="fill:#784b41;stroke-width:0.264583"
       d="m 177.84015,258.61115 h 5.11148 c 0.20982,-2.57307 0.5715,-6.917 0.88742,-10.23673 -0.90012,0.11219 -1.98014,0.20691 -3.07499,0.20691 -1.01944,0 -2.02803,-0.082 -2.88872,-0.18362 0.099,2.96571 0.12382,6.46191 -0.0352,10.21344 z"
       id="path13" />
    <path
       style="fill:#ffdc46;stroke-width:0.264583"
       d="m 183.56309,263.3173 c -0.23231,-1.01177 -0.50615,-2.52439 -0.50615,-2.52439 0,0 0.068,-1.13851 0.17595,-2.46328 h -4.1402 l -0.0818,0.28126 -0.0818,-0.28126 h -1.37001 c -0.0304,0.71861 -0.0677,1.728 -0.11218,2.46328 0,0 -0.75036,1.55813 -2.5281,2.63366 0,0 -4.34525,0.52678 -4.34525,3.02868 h 13.05825 c -2.7e-4,0 0.30427,-1.51394 -0.0688,-3.13795 z"
       id="path14" />
    <path
       style="fill:#ff7575;stroke-width:0.264583"
       d="m 191.29606,248.84829 c 0,-1.53987 -0.30215,-3.59383 -0.30215,-3.59383 0,-5.92561 -2.0193,-10.62223 -2.0193,-10.62223 0,0 0.13176,-11.71972 0.13176,-18.21603 h -9.12998 c 0,0 1.54623,13.08047 2.07275,18.25995 0,0 0.28125,2.98476 1.15914,4.52094 0,0 0.77338,4.36853 1.62295,9.76153 0.86281,0.1024 2.15662,0.18521 3.1803,0.18521 1.06574,0 2.39897,-0.13414 3.28453,-0.29554 z"
       id="path15" />
    <path
       style="opacity:0.5;fill:#ff7575;stroke-width:0.264583"
       d="m 191.29606,248.84829 c 0,-1.53987 -0.30215,-3.59383 -0.30215,-3.59383 0,-5.92561 -2.0193,-10.62223 -2.0193,-10.62223 0,0 0.13176,-11.71972 0.13176,-18.21603 h -9.12998 c 0,0 1.54623,13.08047 2.07275,18.25995 0,0 0.28125,2.98476 1.15914,4.52094 0,0 0.77338,4.36853 1.62295,9.76153 0.86281,0.1024 2.15662,0.18521 3.1803,0.18521 1.06574,0 2.39897,-0.13414 3.28453,-0.29554 z"
       id="path16" />
    <path
       style="opacity:0.5;fill:#ff7575;stroke-width:0.264583"
       d="m 179.97639,216.4162 c 0,0 0.65485,5.54064 1.25757,10.83786 0.38417,0.45244 0.79692,0.90276 1.25412,1.34937 l 0.27676,0.26988 0.19023,-0.33682 c 0.007,-0.0132 0.76862,-1.3454 2.31458,-2.70959 0.2241,-0.19791 0.45614,-0.38312 0.69083,-0.56304 v 2.87126 l 1.4687,-3.83302 c 0.39211,-0.2196 0.79057,-0.42492 1.20253,-0.59796 0.14631,-0.0614 0.29527,-0.11535 0.44397,-0.17065 0.0177,-2.53789 0.0307,-5.08344 0.0307,-7.11703 h -9.12998 z"
       id="path17" />
    <path
       style="fill:#462d23;stroke-width:0.264583"
       d="m 174.49158,160.42401 c 0.12303,0.31301 0.40799,0.59902 0.3392,0.92816 -0.0505,0.24183 -0.2749,0.39873 -0.4408,0.58182 -0.4863,0.53763 -0.44556,1.46632 0.0857,1.95924 0.17938,0.16642 0.42598,0.33364 0.4056,0.57759 -0.0156,0.18785 -0.18679,0.31644 -0.32173,0.44793 -0.46355,0.45191 -0.59452,1.17396 -0.44053,1.80261 0.15399,0.62865 0.55721,1.17184 1.02923,1.61502 0.33946,0.31856 0.75406,0.60722 1.21946,0.6096 0.29872,0.002 0.58526,-0.11563 0.88212,-0.14896 0.29687,-0.0331 0.64797,0.0532 0.77206,0.32491 0.0598,0.1307 0.0688,0.30215 0.19261,0.37544 0.0905,0.0537 0.20559,0.0294 0.30824,0.0513 0.20744,0.0439 0.32518,0.25929 0.49504,0.38576 0.56277,0.41884 1.40229,-0.24712 2.04629,0.0312 0.13044,0.0564 0.24156,0.14817 0.36221,0.22331 0.74718,0.46567 1.86637,0.1434 2.25134,-0.64849 0.10636,-0.21881 0.1741,-0.47784 0.37571,-0.6141 0.18468,-0.12462 0.42545,-0.10769 0.6477,-0.1233 1.0713,-0.0744 1.96771,-1.14406 1.85314,-2.21191 -0.0476,-0.44424 -0.22781,-0.94854 0.05,-1.29858 0.15134,-0.19076 0.37359,-0.20902 0.46434,-0.43524 0.0841,-0.20981 -0.16669,-0.49742 -0.11059,-0.71623 0.0807,-0.31459 0.27569,-0.25691 0.34078,-0.35507 0.20796,-0.31432 0.25241,-0.81465 0.25082,-1.47055 -0.001,-0.44265 0.007,-0.89932 -0.16351,-1.30757 -0.17066,-0.40825 -0.5625,-0.7583 -1.00462,-0.73713 -0.14711,0.007 -0.30163,0.0526 -0.43683,-0.006 -0.46381,-0.20108 -0.0204,-0.75909 -0.24791,-1.15094 -0.22384,-0.3855 -0.53261,-0.25559 -0.60325,-0.40508 -0.0474,-0.10027 0.009,-0.21537 0.0389,-0.32226 0.13256,-0.47281 -0.27226,-0.9226 -0.68315,-1.19142 -0.77788,-0.50906 -1.78409,-0.76888 -2.64875,-0.42756 -0.35692,0.14102 -0.72072,0.38285 -1.09114,0.28257 -0.39502,-0.10716 -0.26167,-0.54001 -1.02685,-0.6477 -0.46117,-0.0648 -0.89561,0.37492 -1.34805,0.26485 -0.11721,-0.0286 -0.22172,-0.0937 -0.33364,-0.13838 -0.92207,-0.3675 -1.68936,0.39 -1.90923,1.12686 -0.0807,0.27067 0.05,0.65273 -0.19235,0.81915 -0.36354,0.24977 -0.77232,0.32279 -1.08241,0.66622 -0.30772,0.34158 -0.50192,0.83185 -0.32518,1.2827 z"
       id="path18" />
    <g
       style="opacity:0.5"
       id="g23"
       transform="matrix(0.26458333,0,0,0.26458333,104.504,145.16708)">
				
					<path
   style="fill:none;stroke:#462d23;stroke-width:0.375;stroke-linecap:round;stroke-linejoin:round;stroke-miterlimit:10"
   d="m 304.211,76.444 c 0.101,0.932 0.188,1.94 -0.293,2.744 -0.842,1.41 -2.835,1.418 -4.476,1.356 -1.641,-0.062 -3.702,0.273 -4.168,1.848 -0.268,0.908 0.133,1.947 -0.267,2.804 -0.426,0.912 -1.548,1.219 -2.534,1.424 -1.242,0.257 -2.529,0.515 -3.769,0.246 -1.24,-0.269 -2.427,-1.214 -2.559,-2.476 -0.031,-0.295 -0.008,-0.611 -0.157,-0.868 -0.144,-0.249 -0.421,-0.388 -0.694,-0.481 -1.15,-0.392 -2.491,-0.159 -3.443,0.596 -0.951,0.755 -1.482,2.009 -1.362,3.217"
   id="path19" />

				
					<path
   style="fill:none;stroke:#462d23;stroke-width:0.375;stroke-linecap:round;stroke-linejoin:round;stroke-miterlimit:10"
   d="m 288.327,82.306 c -0.385,-0.839 -1.206,-1.41 -2.077,-1.717 -1.586,-0.558 -3.431,-0.316 -4.819,0.632 -0.393,0.268 -0.781,0.601 -1.254,0.64 -1.012,0.084 -1.597,-1.129 -2.496,-1.602 -0.8,-0.421 -1.768,-0.214 -2.655,-0.036 -0.887,0.178 -1.899,0.289 -2.611,-0.268 -0.777,-0.608 -0.858,-1.763 -0.649,-2.726 0.092,-0.425 0.227,-0.877 0.071,-1.284 -0.282,-0.737 -1.268,-0.836 -2.057,-0.813"
   id="path20" />

				
					<path
   style="fill:none;stroke:#462d23;stroke-width:0.375;stroke-linecap:round;stroke-linejoin:round;stroke-miterlimit:10"
   d="m 306.694,63.752 c 0.358,-0.521 -0.05,-1.235 -0.536,-1.64 -0.486,-0.406 -1.098,-0.755 -1.274,-1.362 -0.24,-0.831 0.459,-1.611 0.705,-2.44 0.388,-1.304 -0.586,-2.837 -1.931,-3.042 -0.447,-0.068 -0.904,-0.008 -1.355,-0.042 -1.26,-0.095 -2.424,-0.992 -2.836,-2.186 -0.274,-0.792 -0.108,-1.865 0.671,-2.174"
   id="path21" />

				
					<path
   style="fill:none;stroke:#462d23;stroke-width:0.375;stroke-linecap:round;stroke-linejoin:round;stroke-miterlimit:10"
   d="m 300.621,71.419 c 0.256,-0.746 0.409,-1.528 0.454,-2.315 0.028,-0.495 -10e-4,-1.034 -0.317,-1.416 -0.56,-0.674 -1.741,-0.543 -2.267,-1.244 -0.413,-0.549 -0.217,-1.331 0.058,-1.96 0.275,-0.629 0.62,-1.302 0.45,-1.967 -0.149,-0.581 -0.675,-1.004 -1.244,-1.194 -0.568,-0.19 -1.181,-0.187 -1.78,-0.181"
   id="path22" />

				
					<path
   style="fill:none;stroke:#462d23;stroke-width:0.375;stroke-linecap:round;stroke-linejoin:round;stroke-miterlimit:10"
   d="m 301.065,74.325 c -0.022,0.421 -0.345,0.78 -0.728,0.956 -0.383,0.176 -0.816,0.2 -1.237,0.199 -0.353,-0.001 -0.715,-0.021 -1.038,-0.163 -0.634,-0.28 -0.998,-0.978 -1.617,-1.29 -1.324,-0.666 -2.928,0.734 -4.342,0.29 -0.57,-0.179 -1.016,-0.644 -1.3,-1.17 -0.285,-0.526 -0.429,-1.114 -0.571,-1.694"
   id="path23" />

			</g>
    <path
       style="opacity:0.5;fill:#462d23;stroke-width:0.264583"
       d="m 187.38658,161.00848 c -0.17066,-0.40825 -0.5625,-0.7583 -1.00462,-0.73713 0.15293,0.685 -0.92102,1.94865 -1.16232,1.77324 -0.2413,-0.17569 -1.84361,-0.32915 -2.30452,-0.22014 -0.4609,0.10901 -1.33879,0.43974 -2.11508,0.54928 -0.77628,0.1098 -1.13294,0.39502 -1.94495,0.5707 -0.81201,0.17569 -1.47055,2.5019 -1.60205,2.98874 -0.13176,0.48683 -0.72417,0.91784 -1.36075,1.00568 -0.63633,0.0878 -1.05331,-0.54875 -1.18507,-0.96573 -0.13176,-0.41698 -0.14738,-1.05384 -0.14738,-1.05384 -0.46355,0.45191 -0.59451,1.17396 -0.44053,1.80261 0.15426,0.62865 0.55722,1.17184 1.02923,1.61502 0.33946,0.31856 0.75407,0.60722 1.21947,0.6096 0.29871,0.002 0.58526,-0.11563 0.88212,-0.1487 0.29686,-0.0331 0.64796,0.0532 0.77205,0.32491 0.0598,0.1307 0.0688,0.30215 0.19262,0.37544 0.0905,0.0534 0.20558,0.0294 0.30824,0.0511 0.20743,0.0442 0.32517,0.25929 0.4953,0.38602 0.56277,0.41884 1.40229,-0.24712 2.04629,0.0312 0.13044,0.0564 0.24156,0.14816 0.36221,0.2233 0.74718,0.46567 1.86637,0.14341 2.25134,-0.64849 0.10636,-0.21881 0.1741,-0.47784 0.37571,-0.6141 0.18468,-0.12462 0.42545,-0.10768 0.6477,-0.12303 1.0713,-0.0744 1.9677,-1.14406 1.85314,-2.21192 -0.0476,-0.44423 -0.22781,-0.94853 0.05,-1.29857 0.15134,-0.19077 0.37359,-0.20902 0.46434,-0.43524 0.0839,-0.20981 -0.16669,-0.49742 -0.1106,-0.71623 0.0807,-0.31459 0.2757,-0.25691 0.34079,-0.35507 0.2077,-0.31432 0.25241,-0.81465 0.25082,-1.47055 -0.001,-0.44291 0.007,-0.89985 -0.16351,-1.3081 z"
       id="path24" />
    <path
       style="fill:#784b41;stroke-width:0.264583"
       d="m 187.05982,187.31997 c -0.33046,-0.51991 -0.59373,-0.83926 -0.59373,-0.83926 v -2.98477 h -3.93752 v 2.98477 c -0.4117,0.78872 -1.20809,1.56395 -1.57216,1.89521 -0.12832,0.11694 -0.22622,0.26061 -0.28892,0.42254 l -0.3183,0.82047 c 0,0 1.08982,-0.12832 2.28045,-0.97472 1.46923,-1.04431 2.96254,-1.54226 4.43018,-1.32424 z"
       id="path25" />
    <path
       style="opacity:0.5;fill:#784b41;stroke-width:0.264583"
       d="m 187.05982,187.31997 c -0.33046,-0.51991 -0.59373,-0.83926 -0.59373,-0.83926 v -2.98477 h -3.93752 v 1.87802 c 0.7022,-0.11563 1.66343,-0.34211 2.8276,-0.79005 -0.0699,0.0487 -0.13838,0.10398 -0.20558,0.17304 -0.18442,0.0611 -0.41619,0.13996 -0.6395,0.21987 -0.22596,0.081 -0.42863,0.21828 -0.58605,0.39767 -0.29078,0.33205 -0.70274,0.81147 -1.01415,1.21046 -0.0836,0.1061 -0.14843,0.2212 -0.1987,0.35216 -0.11933,0.31301 -0.36672,1.02844 -0.55404,2.01031 0.15399,-0.0894 0.31194,-0.18918 0.47202,-0.30295 1.4687,-1.04457 2.96201,-1.54252 4.42965,-1.3245 z"
       id="path26" />
    <path
       style="opacity:0.5;fill:#784b41;stroke-width:0.264583"
       d="m 182.52857,185.00354 c 0.59928,-0.0929 1.81107,-0.31618 2.75193,-0.72364 v -0.78422 h -2.75193 z"
       id="path27" />
    <path
       style="fill:#784b41;stroke-width:0.264583"
       d="m 178.74741,204.7404 c 0.007,0.51011 0.0421,1.14803 0.096,1.86081 4.48336,-0.18494 9.07759,-1.86081 9.07759,-1.86081 0,0 0.0735,-1.8624 0.16113,-4.23095 -2.18149,0.58684 -5.46947,1.29063 -9.25513,1.50256 -0.0564,0.85276 -0.0926,1.78568 -0.0796,2.72839 z"
       id="path28" />
    <path
       style="opacity:0.5;fill:#784b41;stroke-width:0.264583"
       d="m 178.80508,202.38958 c 0.76571,-0.0254 2.13863,-0.0934 3.84493,-0.27491 -0.19791,0.42228 -0.39926,0.84799 -0.60299,1.27873 -0.46963,0.99113 -0.95382,2.01454 -1.42213,3.06229 3.84148,-0.45535 7.29641,-1.71503 7.29641,-1.71503 0,0 0.0736,-1.8624 0.16113,-4.23095 -2.18149,0.58685 -5.46946,1.29064 -9.25512,1.50257 -0.008,0.12303 -0.0151,0.25082 -0.0222,0.3773 z"
       id="path29" />
    <path
       style="fill:#ffe160;stroke-width:0.264583"
       d="m 187.05982,187.31997 c -1.46764,-0.21802 -2.96122,0.27993 -4.42992,1.32424 -1.19062,0.8464 -2.28044,0.97472 -2.28044,0.97472 0,0 -2.6117,2.65562 -2.6117,4.82838 0,2.17276 1.21099,3.88462 1.21099,3.88462 0,0 -0.26458,1.87589 -0.40296,3.96134 3.78593,-0.21193 7.63614,-0.91599 9.81763,-1.50257 0,-3.37185 0.005,-8.2976 0.005,-9.67978 2.6e-4,-1.46103 -0.74983,-2.9128 -1.3081,-3.79095 z"
       id="path30" />
    <path
       style="opacity:0.5;fill:#ffe160;stroke-width:0.264583"
       d="m 182.6299,188.64421 c -0.16007,0.11377 -0.31803,0.21352 -0.47202,0.30294 -0.064,0.33523 -0.12117,0.70089 -0.16377,1.093 -0.0542,0.4953 -0.0365,1.01944 0.0524,1.55734 0.36275,2.20133 1.10173,5.84014 1.60814,8.27272 -0.1606,0.38762 -0.32861,0.77999 -0.51197,1.18216 -0.12409,0.27199 -0.25347,0.54848 -0.38232,0.82444 2.23599,-0.3093 4.24392,-0.72019 5.60335,-1.08585 0,-3.37185 0.004,-8.2976 0.004,-9.67978 0,-1.46129 -0.75009,-2.91306 -1.30836,-3.79121 -1.46764,-0.21802 -2.96095,0.27993 -4.42992,1.32424 z"
       id="path31" />
    <path
       style="fill:#ff7575;stroke-width:0.264583"
       d="m 184.12003,248.93693 c 0.1995,-1.89177 0.0397,-3.68247 0.0397,-3.68247 0.66675,-5.70627 -0.62812,-10.09571 -0.62812,-10.09571 0,0 4.03913,-10.69658 5.57451,-18.74282 0,0 1.8026,-2.49872 1.4814,-5.66235 -0.29633,-2.91888 -2.49767,-6.18225 -2.49767,-6.18225 0,0 -4.93183,1.67613 -9.4152,1.86081 0.29078,3.82641 1.30149,9.98353 1.30149,9.98353 0,0 -2.23864,10.79791 -3.20437,18.25995 0,0 -0.37306,2.22753 0.47599,4.52094 0,0 0.16166,4.23889 0.34581,9.76286 0.86069,0.10186 2.15053,0.18388 3.16971,0.18388 1.09537,5.3e-4 2.45692,-0.0942 3.35676,-0.20637 z"
       id="path32" />
    <path
       style="opacity:0.5;fill:#ff7575;stroke-width:0.264583"
       d="m 188.08984,204.57159 c 0,0 -3.55811,1.20862 -7.37711,1.68619 -0.58579,1.3007 -1.14829,2.64134 -1.62983,4.00818 0.39714,3.12631 0.89323,6.15024 0.89323,6.15024 0,0 -0.59743,2.88237 -1.30784,6.69554 0.76253,1.8632 1.98782,3.7039 3.81927,5.49169 l 0.27675,0.26988 0.19023,-0.33682 c 0.007,-0.0132 0.76862,-1.3454 2.31458,-2.70959 0.56965,-0.50298 1.17766,-0.94113 1.81213,-1.32477 0.78819,-2.676 1.53432,-5.51577 2.02459,-8.08593 0,0 1.80261,-2.49873 1.4814,-5.66235 -0.2958,-2.91889 -2.4974,-6.18226 -2.4974,-6.18226 z"
       id="path33" />
    <path
       style="opacity:0.5;fill:none;stroke:#ff7575;stroke-width:0.0992187;stroke-linecap:round;stroke-linejoin:round;stroke-miterlimit:10"
       d="m 185.3731,218.77496 c 0,0 -0.10372,7.05167 -3.98304,16.09037 0,0 1.15597,7.98777 0.29607,13.71573"
       id="path34" />
    <path
       style="fill:#784b41;stroke-width:0.264583"
       d="m 185.74881,202.95737 c 0,0 0.80698,0.72046 1.03875,0.98372 l 0.13177,0.16801 c 0.31538,0.40243 0.86121,0.54346 1.33032,0.33999 0.17648,-0.0765 0.36989,-0.16986 0.56886,-0.28204 1.1631,-0.65644 1.81239,-1.95236 1.67057,-3.28057 -0.16854,-1.57904 -0.46884,-4.29313 -0.76755,-6.4987 -2.27806,0.83873 -4.45611,1.15279 -5.38904,1.25598 0.31433,1.57083 0.93901,4.72069 1.41632,7.31361 z"
       id="path35" />
    <path
       style="fill:#ffe160;stroke-width:0.264583"
       d="m 186.06446,187.85231 c -2.19472,0 -3.69861,1.98332 -2.89693,6.80138 h 0.96573 c 0,0 0.0757,0.37359 0.19923,0.99033 0.93319,-0.10318 3.11124,-0.41751 5.38904,-1.25597 -0.12541,-0.92578 -0.2503,-1.76398 -0.36486,-2.3876 -0.52679,-2.86438 -1.70551,-4.14814 -3.29221,-4.14814 z"
       id="path36" />
    <path
       style="opacity:0.5;fill:#ffe160;stroke-width:0.264583"
       d="m 186.06446,187.85231 c -2.19472,0 -3.69861,1.98332 -2.89693,6.80138 h 0.96573 c 0,0 0.0757,0.37359 0.19923,0.99033 0.93319,-0.10318 3.11124,-0.41751 5.38904,-1.25597 -0.12541,-0.92578 -0.2503,-1.76398 -0.36486,-2.3876 -0.52679,-2.86438 -1.70551,-4.14814 -3.29221,-4.14814 z"
       id="path37" />
    <path
       style="fill:#784b41;stroke-width:0.264583"
       d="m 178.46457,182.85777 c 0.54742,0.43736 1.19538,0.86228 1.75048,1.202 0.8509,0.52044 1.85076,0.73581 2.84136,0.61913 2.61832,-0.30877 7.75123,-1.46818 9.36175,-5.82401 1.99893,-2.46301 2.53048,-4.96623 2.41829,-7.12788 -0.24103,-4.64502 -4.08834,-8.25764 -8.73522,-8.45449 -0.19076,-0.008 -0.37914,-0.0114 -0.56515,-0.0103 -5.06544,0.0267 -9.194,4.2082 -9.01594,9.27073 0.054,1.53538 0.33602,2.86809 0.21061,4.37119 -0.28945,3.46868 0.0804,4.63311 1.73382,5.95365 z"
       id="path38" />
    <g
       id="g50"
       transform="matrix(0.26458333,0,0,0.26458333,104.504,145.16708)">
				<g
   id="g39">
					<path
   style="fill:#462d23"
   d="m 300.56,132.619 c -1.174,0.605 -2.421,0.933 -3.688,1.182 -1.269,0.234 -2.558,0.326 -3.845,0.347 -1.286,-0.021 -2.576,-0.113 -3.845,-0.347 -1.267,-0.249 -2.515,-0.576 -3.688,-1.182 -0.105,-0.054 -0.146,-0.183 -0.092,-0.288 0.049,-0.095 0.159,-0.138 0.257,-0.105 l 0.018,0.006 c 1.159,0.387 2.401,0.624 3.628,0.788 1.234,0.151 2.476,0.246 3.721,0.227 1.245,0.019 2.488,-0.076 3.721,-0.227 1.226,-0.163 2.469,-0.401 3.628,-0.788 l 0.018,-0.006 c 0.112,-0.037 0.233,0.023 0.27,0.135 0.036,0.101 -0.011,0.21 -0.103,0.258 z"
   id="path39" />

				</g>

				<g
   id="g40">
					<path
   style="fill:#462d23"
   d="m 288.554,115.455 c -0.257,2.315 -0.67,4.666 -1.598,6.864 -0.224,0.546 -0.467,1.066 -0.605,1.575 -0.072,0.255 -0.109,0.513 -0.135,0.776 l -0.014,0.401 c 0,0.113 0.018,0.202 0.039,0.32 0.262,0.934 0.999,1.895 1.81,2.562 l 0.015,0.013 c 0.108,0.088 0.123,0.247 0.035,0.355 -0.072,0.088 -0.192,0.114 -0.292,0.073 -0.593,-0.248 -1.073,-0.66 -1.488,-1.121 -0.411,-0.469 -0.752,-0.998 -0.947,-1.664 -0.252,-1.402 0.345,-2.59 0.796,-3.621 0.449,-1.051 0.831,-2.118 1.122,-3.232 0.291,-1.11 0.534,-2.24 0.764,-3.375 0.026,-0.136 0.157,-0.226 0.294,-0.2 0.13,0.023 0.216,0.146 0.204,0.274 z"
   id="path40" />

				</g>

				<path
   style="opacity:0.5;fill:#ff8f8f"
   d="m 322.689,122.433 c 0,2.701 -2.189,4.89 -4.89,4.89 -2.701,0 -4.89,-2.189 -4.89,-4.89 0,-2.701 2.189,-4.89 4.89,-4.89 2.701,0 4.89,2.19 4.89,4.89 z"
   id="path41" />

				<path
   style="fill:#372319"
   d="m 312.927,113.236 c 0,2.348 -1.428,4.252 -3.189,4.252 -1.761,0 -3.189,-1.904 -3.189,-4.252 0,-2.348 1.428,-4.252 3.189,-4.252 1.761,0 3.189,1.904 3.189,4.252 z"
   id="path42" />

				<g
   id="g43">
					<path
   style="fill:#372319"
   d="m 303.162,112.55 c 0.267,-1.128 0.889,-2.206 1.814,-3.027 0.913,-0.831 2.179,-1.355 3.477,-1.361 1.298,-0.003 2.568,0.517 3.485,1.344 0.929,0.817 1.556,1.894 1.825,3.022 0.035,0.147 -0.056,0.295 -0.203,0.33 -0.109,0.026 -0.218,-0.017 -0.281,-0.101 l -0.003,-0.004 c -0.656,-0.864 -1.374,-1.608 -2.191,-2.136 -0.817,-0.52 -1.716,-0.825 -2.627,-0.809 -0.911,-0.01 -1.808,0.298 -2.624,0.822 -0.816,0.531 -1.531,1.278 -2.184,2.145 l -0.003,0.004 c -0.091,0.121 -0.263,0.145 -0.383,0.054 -0.09,-0.068 -0.126,-0.18 -0.102,-0.283 z"
   id="path43" />

				</g>

				<g
   id="g44">
					<path
   style="fill:#372319"
   d="m 300.918,104.209 c 0.647,-1.343 1.907,-2.321 3.242,-2.931 1.349,-0.618 2.829,-0.917 4.297,-0.92 1.469,0 2.949,0.296 4.299,0.911 1.336,0.607 2.598,1.582 3.249,2.923 0.077,0.158 0.011,0.349 -0.148,0.426 -0.096,0.047 -0.205,0.041 -0.292,-0.007 l -0.017,-0.01 c -1.161,-0.643 -2.312,-1.011 -3.497,-1.268 -1.184,-0.248 -2.387,-0.342 -3.591,-0.35 -1.205,0.009 -2.407,0.106 -3.591,0.356 -1.185,0.26 -2.335,0.63 -3.492,1.278 l -0.016,0.009 c -0.154,0.086 -0.348,0.031 -0.434,-0.122 -0.052,-0.095 -0.051,-0.205 -0.009,-0.295 z"
   id="path44" />

				</g>

				<g
   id="g45">
					<path
   style="fill:#372319"
   d="m 312.83,110.961 c 0.211,-0.012 0.48,-0.056 0.719,-0.112 0.245,-0.057 0.487,-0.132 0.721,-0.222 0.471,-0.179 0.907,-0.438 1.282,-0.77 l 0.008,-0.007 c 0.129,-0.115 0.327,-0.103 0.441,0.026 0.105,0.119 0.104,0.295 0.002,0.412 -0.387,0.446 -0.862,0.815 -1.379,1.093 -0.258,0.14 -0.526,0.262 -0.802,0.364 -0.282,0.102 -0.544,0.186 -0.872,0.25 -0.283,0.055 -0.557,-0.13 -0.612,-0.413 -0.055,-0.283 0.13,-0.557 0.413,-0.612 0.022,-0.004 0.044,-0.007 0.066,-0.008 z"
   id="path45" />

				</g>

				<path
   style="fill:#372319"
   d="m 280.352,113.235 c 0,2.348 1.127,4.252 2.518,4.252 1.391,0 2.518,-1.903 2.518,-4.252 0,-2.348 -1.127,-4.252 -2.518,-4.252 -1.391,10e-4 -2.518,1.904 -2.518,4.252 z"
   id="path46" />

				<g
   id="g47">
					<path
   style="fill:#372319"
   d="m 285.362,112.743 c -0.514,-0.805 -1.048,-1.549 -1.684,-2.116 -0.636,-0.561 -1.358,-0.918 -2.08,-0.911 -0.722,-0.013 -1.444,0.34 -2.082,0.897 -0.638,0.563 -1.175,1.305 -1.691,2.109 l -0.003,0.005 c -0.073,0.113 -0.223,0.146 -0.336,0.073 -0.083,-0.053 -0.123,-0.149 -0.109,-0.241 0.152,-0.993 0.549,-1.977 1.241,-2.808 0.671,-0.829 1.762,-1.497 2.986,-1.496 1.224,0.012 2.308,0.684 2.975,1.516 0.688,0.834 1.082,1.818 1.231,2.811 0.02,0.133 -0.071,0.257 -0.204,0.277 -0.098,0.015 -0.191,-0.031 -0.241,-0.109 z"
   id="path47" />

				</g>

				<g
   id="g48">
					<path
   style="fill:#372319"
   d="m 287.131,104.579 c -1.754,-1.283 -3.616,-1.77 -5.534,-1.785 -1.919,0.012 -3.78,0.494 -5.541,1.769 l -0.01,0.007 c -0.135,0.098 -0.325,0.068 -0.423,-0.068 -0.06,-0.082 -0.071,-0.186 -0.041,-0.275 0.396,-1.161 1.324,-2.121 2.409,-2.739 1.086,-0.637 2.356,-0.943 3.61,-0.944 1.254,0.005 2.523,0.315 3.607,0.955 1.082,0.621 2.008,1.583 2.4,2.745 0.053,0.159 -0.032,0.33 -0.19,0.384 -0.096,0.032 -0.198,0.014 -0.274,-0.041 z"
   id="path48" />

				</g>

				<g
   id="g49">
					<path
   style="fill:#372319"
   d="m 278.031,111.934 c -0.291,-0.068 -0.506,-0.155 -0.741,-0.262 -0.228,-0.106 -0.446,-0.232 -0.651,-0.376 -0.412,-0.283 -0.766,-0.649 -1.042,-1.057 -0.086,-0.127 -0.052,-0.3 0.075,-0.386 0.116,-0.079 0.271,-0.057 0.362,0.044 l 0.006,0.007 c 0.281,0.313 0.613,0.574 0.984,0.76 0.184,0.095 0.376,0.174 0.572,0.234 0.189,0.06 0.412,0.109 0.57,0.121 l 0.008,10e-4 c 0.255,0.021 0.446,0.244 0.425,0.5 -0.021,0.255 -0.244,0.446 -0.5,0.425 -0.022,-0.002 -0.047,-0.006 -0.068,-0.011 z"
   id="path49" />

				</g>

				<path
   style="opacity:0.5;fill:#ff8f8f"
   d="m 272.799,122.432 c 0,2.7 1.183,4.89 2.642,4.89 1.459,0 2.642,-2.189 2.642,-4.89 0,-2.701 -1.183,-4.89 -2.642,-4.89 -1.459,0 -2.642,2.189 -2.642,4.89 z"
   id="path50" />

			</g>
    <g
       id="g55"
       transform="matrix(0.26458333,0,0,0.26458333,104.504,145.16708)">
				<path
   style="fill:#784b41"
   d="m 306.518,150.253 c 0,0 -1.96,0.626 -3.75,1.267 -0.676,0.242 -1.274,0.646 -1.748,1.186 -0.926,1.057 -2.571,2.961 -3.796,4.527 -0.25,0.32 -0.439,0.66 -0.584,1.038 -0.569,1.49 -2.025,5.72 -2.647,11.448 -0.202,1.859 -0.114,3.736 0.19,5.581 1.949,11.834 6.732,34.447 7.895,39.903 0.18,0.844 0.613,1.612 1.242,2.203 1.689,1.587 3.376,2.592 4.392,3.118 0.624,0.323 1.176,0.747 1.67,1.247 1.001,1.013 2.967,2.635 5.305,2.635 4.21,0 7.074,-4.926 6.58,-15.038 -0.016,-0.334 -0.072,-0.666 -0.164,-0.987 -0.572,-1.986 -2.925,-9.867 -6.91,-19.579 -4.73,-11.527 -6.955,-19.008 -6.955,-19.008 0,0 1.032,-0.693 2.442,-2.133 0.017,-0.03 3.194,-4.45 3.453,-8.945 -0.762,-4.612 -0.219,-7.591 -0.974,-8.544 -0.753,-0.951 -2.691,0.284 -3.271,2.749 -0.297,1.264 -0.388,3.271 -0.691,4.308 -0.304,1.037 -1.928,2.261 -1.928,2.261 z"
   id="path51" />

				<path
   style="opacity:0.5;fill:#784b41"
   d="m 305.433,150.607 c -0.446,0.148 -0.987,0.329 -1.561,0.527 l -2.14,5.79 c 0,0 1.4,-2.729 3.246,-5.746 0.126,-0.209 0.292,-0.389 0.455,-0.571 z"
   id="path52" />

				<path
   style="opacity:0.5;fill:#784b41"
   d="m 306.571,159.246 c 0.263,1.186 0.928,4.758 0.891,10.388 0.374,-0.278 1.194,-0.925 2.219,-1.972 0.017,-0.03 3.194,-4.45 3.453,-8.945 -0.762,-4.612 -0.219,-7.591 -0.973,-8.544 -0.753,-0.951 -2.691,0.284 -3.271,2.749 -0.297,1.264 -0.388,3.271 -0.691,4.308 -0.223,0.758 -1.144,1.609 -1.628,2.016 z"
   id="path53" />

				<path
   style="opacity:0.5;fill:#784b41"
   d="m 321.269,209.369 c -0.016,-0.333 -0.072,-0.666 -0.164,-0.987 -0.572,-1.986 -2.925,-9.867 -6.91,-19.579 -3.905,-9.517 -6.098,-16.263 -6.746,-18.331 -0.147,7.968 -1.714,19.73 -7.535,34.415 0.969,4.676 1.774,8.475 2.167,10.316 0.18,0.844 0.613,1.612 1.242,2.203 1.689,1.587 3.376,2.592 4.392,3.118 0.624,0.323 1.176,0.747 1.67,1.247 1,1.013 2.967,2.634 5.305,2.634 4.209,0.002 7.072,-4.924 6.579,-15.036 z"
   id="path54" />

				<path
   style="fill:#784b41"
   d="m 306.269,159.491 c 0,0 0.762,-3.152 2.613,-6.035 4.51,-3.604 5.772,-5.757 4.496,-7.062 -0.703,-0.718 -2.996,0.943 -6.986,3.385 -0.571,0.349 -1.065,0.827 -1.414,1.398 -1.846,3.017 -3.246,5.746 -3.246,5.746 z"
   id="path55" />

			</g>
    <g
       id="g61"
       transform="matrix(0.26458333,0,0,0.26458333,104.504,145.16708)">
				<path
   style="fill:#32aff5"
   d="m 304.652,257.641 c 0.987,-22.711 12.924,-47.632 13.106,-70.122 0.135,-16.784 -5.872,-26.814 -10.264,-31.453 -0.267,0.599 -0.491,1.157 -0.666,1.645 3.199,5.186 8.448,17.78 3.943,40.455 -6.576,33.097 -40.069,69.575 -6.259,105.845 3.355,-2.962 7.685,-5.976 13.016,-8.215 -8.247,-9.135 -13.624,-20.943 -12.876,-38.155 z"
   id="path56" />

				<path
   style="fill:#9150f0"
   d="m 306.465,158.8 c 1.844,4.139 6.718,20.153 -8.225,52.887 -14.162,31.022 -37.386,69.014 -2.713,102.857 0,0 2.909,-5.171 8.984,-10.533 -33.81,-36.27 -0.317,-72.748 6.259,-105.845 4.505,-22.675 -0.744,-35.269 -3.943,-40.455 -0.154,0.431 -0.274,0.798 -0.362,1.089 z"
   id="path57" />

				<path
   style="fill:#fa5a5a"
   d="m 341.646,213.512 c -10.777,-39.602 -16.977,-59.273 -31.054,-61.497 -0.363,0.323 -0.773,0.666 -1.2,1.017 4.671,1.821 12.221,6.609 16.909,19.089 3.919,10.432 6.968,36.935 10.452,54.249 4.979,24.745 19.612,46.794 39.35,51.835 3.288,-3.054 6.266,-6.884 8.843,-11.768 10e-4,-0.002 -31.892,-11.003 -43.3,-52.925 z"
   id="path58" />

				<path
   style="fill:#ff9b41"
   d="m 336.753,226.369 c -3.484,-17.314 -6.533,-43.817 -10.452,-54.249 -4.688,-12.479 -12.238,-17.268 -16.909,-19.089 -0.176,0.144 -0.323,0.276 -0.51,0.425 -0.094,0.146 -0.173,0.294 -0.261,0.441 5.823,3.303 16.336,11.975 16.934,31.785 0.748,24.764 -1.338,61.97 10.286,81.083 5.984,9.839 14.414,16.772 21.522,21.313 6.882,-1.868 13.25,-4.775 18.74,-9.875 -19.738,-5.04 -34.371,-27.089 -39.35,-51.834 z"
   id="path59" />

				<path
   style="fill:#5ac828"
   d="m 317.758,248.682 c 1.503,-20.29 6.636,-53.096 4.148,-70.921 -1.721,-12.329 -9.341,-19.525 -13.881,-22.797 -0.195,0.377 -0.372,0.744 -0.531,1.102 4.392,4.638 10.4,14.668 10.264,31.453 -0.182,22.49 -12.118,47.411 -13.106,70.122 -0.748,17.213 4.629,29.02 12.876,38.155 3.149,-1.323 6.642,-2.38 10.505,-2.985 2.482,-0.389 4.962,-0.721 7.427,-1.039 -10.418,-9.763 -19.081,-24.47 -17.702,-43.09 z"
   id="path60" />

				<path
   style="fill:#ffdc46"
   d="m 335.841,266.765 c -11.624,-19.113 -9.538,-56.318 -10.286,-81.083 -0.598,-19.81 -11.111,-28.482 -16.934,-31.785 -0.215,0.358 -0.414,0.712 -0.596,1.066 4.54,3.271 12.159,10.468 13.881,22.797 2.488,17.825 -2.645,50.632 -4.148,70.921 -1.379,18.619 7.284,33.327 17.702,43.09 7.569,-0.976 14.993,-1.818 21.904,-3.694 -7.11,-4.54 -15.539,-11.473 -21.523,-21.312 z"
   id="path61" />

			</g>
    <path
       style="fill:#462d23;stroke-width:0.264583"
       d="m 191.90461,174.6623 c -1.11046,0 -0.86916,-1.49066 -2.58102,-2.59503 -1.71079,-1.10384 -0.32914,-2.4728 -2.5437,-3.72375 -2.40321,-1.35758 -3.68935,0.18838 -5.12471,0.18838 -1.1983,0 -1.81769,-0.96916 -2.76596,-0.53948 -1.71529,0.77761 -1.15993,2.39607 -2.28838,2.98662 0,0 -0.0325,0.26008 -0.0585,0.53154 0,0 -1.42425,-1.97088 0.55668,-4.24259 1.51421,-2.47994 3.13187,-3.79915 5.79411,-4.4114 2.19472,-0.50482 3.06361,-0.21405 4.29498,-0.0603 1.72535,0.21563 2.96942,-0.2966 5.53456,1.42081 1.90262,1.2737 2.78976,3.73115 3.07525,5.72823 0.28548,1.99707 -0.39502,3.96875 -0.43894,4.71673 -0.0439,0.74797 -0.54875,3.26945 -2.94085,4.19232 0,0 -0.51355,-0.56965 -0.51355,-1.30466 l 0.55747,-1.29778 z"
       id="path62" />
    <g
       style="opacity:0.5"
       id="g68"
       transform="matrix(0.26458333,0,0,0.26458333,104.504,145.16708)">
				
					<path
   style="fill:none;stroke:#462d23;stroke-width:0.375;stroke-linecap:round;stroke-linejoin:round;stroke-miterlimit:10"
   d="m 331.113,75.567 c -2.157,-1.327 -5.143,-3.816 -8.958,-2.986 -3.816,0.83 -7.821,-1.244 -7.821,-1.244"
   id="path63" />

				
					<path
   style="fill:none;stroke:#462d23;stroke-width:0.375;stroke-linecap:round;stroke-linejoin:round;stroke-miterlimit:10"
   d="m 316.762,78.387 c 1.742,0 5.724,-3.152 7.963,-2.82 2.24,0.332 6.387,1.398 6.387,1.398"
   id="path64" />

				
					<path
   style="fill:none;stroke:#462d23;stroke-width:0.375;stroke-linecap:round;stroke-linejoin:round;stroke-miterlimit:10"
   d="m 320.246,88.424 c 0.962,-2.309 1.659,-3.235 3.691,-3.899 2.032,-0.664 6.113,-3.733 6.395,-4.479 0.282,-0.746 1.493,-1.277 1.493,-1.277"
   id="path65" />

				
					<path
   style="fill:none;stroke:#462d23;stroke-width:0.375;stroke-linecap:round;stroke-linejoin:round;stroke-miterlimit:10"
   d="m 333.103,82.535 c 0.415,0.829 1.198,5.966 0,6.968 -1.198,1.002 -2.804,4.87 -2.771,6.168 0.033,1.298 1.443,4.948 0.78,6.855 -0.663,1.908 -2.405,3.331 -2.405,3.331"
   id="path66" />

				
					<path
   style="fill:none;stroke:#462d23;stroke-width:0.375;stroke-linecap:round;stroke-linejoin:round;stroke-miterlimit:10"
   d="m 337.251,99.954 c 0.166,-1.659 -0.498,-2.747 -0.995,-4.567 -0.498,-1.82 0,-2.489 0,-4.519 0,-2.03 0.47,-4.352 -0.221,-5.182 -0.691,-0.83 -0.619,-2.628 -0.619,-2.628"
   id="path67" />

				
					<path
   style="fill:none;stroke:#462d23;stroke-width:0.375;stroke-linecap:round;stroke-linejoin:round;stroke-miterlimit:10"
   d="m 340.497,101.669 c 0.934,-0.897 0.846,-2.442 0.97,-4.507 0.124,-2.065 -0.793,-5.477 -0.97,-5.656 -0.177,-0.179 -1.09,-3.331 -1.09,-4.492 0,-1.161 -0.664,-3.417 -0.664,-3.417"
   id="path68" />

			</g>
    <path
       style="opacity:0.5;fill:#462d23;stroke-width:0.264583"
       d="m 192.7227,164.21708 c -1.55152,-1.03875 -2.61911,-1.26074 -3.60283,-1.32239 0.1942,0.56886 0.67204,1.28799 0.62071,1.47611 -0.0659,0.24157 -1.31683,1.14142 -0.61463,2.80935 0.70221,1.66793 1.97512,3.35783 2.6117,3.3139 0.63659,-0.0439 1.60206,-0.23971 1.7997,8e-4 0.19738,0.2405 0.84323,0.63553 1.05648,0.63553 0.37015,0 0.52361,0.7022 0.38047,1.29937 -0.0915,0.38232 -0.33946,0.76358 -0.55906,0.85143 -0.21934,0.0878 -2.0193,-0.21934 -2.5109,1.38086 l 0.55748,1.58988 -0.55748,1.29778 c 0,0.73501 0.51356,1.30466 0.51356,1.30466 2.39209,-0.92313 2.89692,-3.44435 2.94084,-4.19232 0.0439,-0.74798 0.72417,-2.71966 0.43894,-4.71673 -0.28495,-1.99708 -1.17236,-4.45453 -3.07498,-5.72823 z"
       id="path69" />
    <path
       style="fill:#462d23;stroke-width:0.264583"
       d="m 189.90515,160.29992 c 0.12806,0.32623 0.42492,0.62389 0.35322,0.96679 -0.0526,0.25188 -0.28655,0.4154 -0.45905,0.60616 -0.50642,0.55986 -0.46408,1.52744 0.0894,2.041 0.18707,0.17356 0.44371,0.34766 0.42228,0.60166 -0.0164,0.19553 -0.19473,0.32941 -0.33523,0.46646 -0.48286,0.47069 -0.61939,1.2229 -0.45878,1.87775 0.1606,0.65484 0.58049,1.22079 1.07209,1.68222 0.35374,0.33179 0.78554,0.63235 1.27053,0.635 0.31115,0.002 0.6096,-0.12039 0.91889,-0.15505 0.3093,-0.0344 0.67496,0.0553 0.80434,0.33841 0.0622,0.13626 0.0717,0.31485 0.20055,0.39105 0.0942,0.0558 0.21405,0.0307 0.32121,0.0532 0.21616,0.0458 0.33866,0.27014 0.51593,0.4019 0.58632,0.4363 1.46077,-0.25744 2.13149,0.0326 0.13573,0.0587 0.25162,0.15451 0.37729,0.23283 0.77814,0.48525 1.94416,0.14922 2.345,-0.67548 0.11086,-0.22807 0.18124,-0.49795 0.39159,-0.63976 0.19235,-0.12991 0.44317,-0.11219 0.67469,-0.12833 1.11601,-0.0775 2.04946,-1.19168 1.9304,-2.30399 -0.0495,-0.46275 -0.23734,-0.98822 0.0521,-1.35255 0.15769,-0.1987 0.3892,-0.21775 0.48366,-0.45323 0.0876,-0.21855 -0.17357,-0.51805 -0.1151,-0.74612 0.0841,-0.32782 0.28734,-0.2675 0.35481,-0.36989 0.21643,-0.32756 0.26273,-0.84852 0.26114,-1.53194 -0.001,-0.4609 0.008,-0.93689 -0.17012,-1.36207 -0.1778,-0.42519 -0.58606,-0.78979 -1.04643,-0.76783 -0.1532,0.007 -0.31433,0.055 -0.45508,-0.006 -0.48313,-0.20955 -0.0214,-0.79084 -0.25824,-1.19883 -0.2331,-0.40164 -0.55483,-0.26643 -0.62812,-0.42201 -0.0492,-0.10451 0.009,-0.22437 0.0405,-0.33575 0.13785,-0.49239 -0.28363,-0.96097 -0.71146,-1.24117 -0.81042,-0.53022 -1.85844,-0.80089 -2.75908,-0.44529 -0.37174,0.14684 -0.75088,0.39873 -1.13638,0.29422 -0.41143,-0.11166 -0.27252,-0.56251 -1.06945,-0.67469 -0.48022,-0.0677 -0.93292,0.39053 -1.40441,0.2757 -0.12197,-0.0296 -0.23098,-0.0976 -0.34766,-0.1442 -0.96044,-0.38259 -1.75974,0.4064 -1.98887,1.17369 -0.0841,0.28205 0.0521,0.67971 -0.20029,0.85328 -0.37889,0.26009 -0.8046,0.33629 -1.12766,0.694 -0.32146,0.35613 -0.52387,0.86704 -0.33972,1.33641 z"
       id="path70" />
    <path
       style="opacity:0.5;fill:#ffdc46;stroke-width:0.264583"
       d="m 176.04019,264.18566 c 1.9341,-1.25915 2.97048,-3.39275 2.97048,-3.39275 v -2.18202 2.6e-4 l -0.0818,-0.28125 h -1.37001 c -0.0304,0.71861 -0.0677,1.72799 -0.11219,2.46327 0,0 -0.75035,1.55813 -2.52809,2.63366 0.62786,0.21564 1.12157,0.75883 1.12157,0.75883 z"
       id="path71" />
    <g
       id="g74"
       transform="matrix(0.26458333,0,0,0.26458333,104.504,145.16708)">
				<path
   style="fill:#784b41"
   d="m 330.333,111.478 c 0.943,-2.851 5.262,-5.155 8.459,-2.113 2.407,2.289 1.992,7.704 0.447,10.377 -3.069,5.309 -7.301,4.65 -8.906,2.65 z"
   id="path72" />

				<g
   id="g73">
					<path
   style="fill:#462d23"
   d="m 337.951,112.072 c -0.564,-0.67 -1.343,-1.141 -2.138,-1.121 -0.793,-0.004 -1.525,0.458 -2.037,1.124 -0.545,0.648 -0.887,1.478 -1.161,2.324 -0.265,0.854 -0.438,1.749 -0.586,2.657 l -0.341,-0.161 c 0.603,-0.64 1.312,-1.17 2.18,-1.488 0.431,-0.155 0.916,-0.252 1.416,-0.182 0.498,0.065 0.985,0.295 1.351,0.627 0.189,0.162 0.344,0.348 0.488,0.538 0.156,0.223 0.268,0.487 0.312,0.75 0.098,0.53 -0.016,1.039 -0.213,1.478 -0.403,0.843 -1.232,1.611 -2.25,1.535 -0.112,-0.008 -0.195,-0.106 -0.187,-0.217 0.007,-0.092 0.075,-0.166 0.162,-0.184 l 0.026,-0.005 c 0.707,-0.144 1.248,-0.779 1.485,-1.45 0.124,-0.334 0.163,-0.688 0.104,-0.986 -0.025,-0.154 -0.097,-0.275 -0.169,-0.404 -0.106,-0.147 -0.216,-0.29 -0.344,-0.405 -0.496,-0.497 -1.216,-0.569 -1.958,-0.38 -0.735,0.199 -1.468,0.606 -2.125,1.07 l -0.008,0.006 c -0.096,0.067 -0.228,0.045 -0.295,-0.051 -0.025,-0.035 -0.038,-0.076 -0.039,-0.116 -0.026,-0.941 0.066,-1.889 0.282,-2.825 0.22,-0.933 0.599,-1.854 1.218,-2.656 0.617,-0.779 1.62,-1.422 2.714,-1.342 1.089,0.064 1.987,0.786 2.449,1.638 0.054,0.099 0.017,0.223 -0.082,0.277 -0.087,0.045 -0.193,0.022 -0.254,-0.051 z"
   id="path73" />

				</g>

			</g>
    <g
       style="opacity:0.5"
       id="g78"
       transform="matrix(0.26458333,0,0,0.26458333,104.504,145.16708)">
				
					<path
   style="fill:none;stroke:#462d23;stroke-width:0.375;stroke-linecap:round;stroke-linejoin:round;stroke-miterlimit:10"
   d="m 330.69,76.444 c -0.101,0.932 -0.188,1.94 0.293,2.744 0.842,1.41 2.835,1.418 4.477,1.356 1.641,-0.062 3.702,0.273 4.168,1.848 0.268,0.908 -0.133,1.947 0.267,2.804 0.426,0.912 1.548,1.219 2.534,1.424 1.242,0.257 2.529,0.515 3.769,0.246 1.24,-0.269 2.427,-1.214 2.558,-2.476 0.031,-0.295 0.008,-0.611 0.157,-0.868 0.144,-0.249 0.422,-0.388 0.694,-0.481 1.15,-0.392 2.491,-0.159 3.443,0.596 0.951,0.755 1.482,2.009 1.362,3.217"
   id="path74" />

				
					<path
   style="fill:none;stroke:#462d23;stroke-width:0.375;stroke-linecap:round;stroke-linejoin:round;stroke-miterlimit:10"
   d="m 346.573,82.306 c 0.385,-0.839 1.206,-1.41 2.077,-1.717 1.586,-0.558 3.431,-0.316 4.819,0.632 0.393,0.268 0.781,0.601 1.255,0.64 1.012,0.084 1.597,-1.129 2.496,-1.602 0.8,-0.421 1.769,-0.214 2.655,-0.036 0.886,0.178 1.899,0.289 2.611,-0.268 0.777,-0.608 0.858,-1.763 0.649,-2.726 -0.092,-0.425 -0.227,-0.877 -0.071,-1.284 0.282,-0.737 1.268,-0.836 2.057,-0.813"
   id="path75" />

				
					<path
   style="fill:none;stroke:#462d23;stroke-width:0.375;stroke-linecap:round;stroke-linejoin:round;stroke-miterlimit:10"
   d="m 328.207,63.752 c -0.358,-0.521 0.05,-1.235 0.536,-1.64 0.486,-0.406 1.098,-0.755 1.274,-1.362 0.24,-0.831 -0.459,-1.611 -0.706,-2.44 -0.387,-1.304 0.586,-2.837 1.931,-3.042 0.447,-0.068 0.904,-0.008 1.355,-0.042 1.26,-0.095 2.424,-0.992 2.836,-2.186 0.274,-0.792 0.108,-1.865 -0.671,-2.174"
   id="path76" />

				
					<path
   style="fill:none;stroke:#462d23;stroke-width:0.375;stroke-linecap:round;stroke-linejoin:round;stroke-miterlimit:10"
   d="m 334.28,71.419 c -0.256,-0.746 -0.409,-1.528 -0.454,-2.315 -0.028,-0.495 10e-4,-1.034 0.317,-1.416 0.56,-0.674 1.741,-0.543 2.267,-1.244 0.413,-0.549 0.217,-1.331 -0.058,-1.96 -0.275,-0.629 -0.62,-1.302 -0.45,-1.967 0.149,-0.581 0.675,-1.004 1.244,-1.194 0.569,-0.19 1.181,-0.187 1.781,-0.181"
   id="path77" />

				
					<path
   style="fill:none;stroke:#462d23;stroke-width:0.375;stroke-linecap:round;stroke-linejoin:round;stroke-miterlimit:10"
   d="m 333.836,74.325 c 0.021,0.421 0.345,0.78 0.728,0.956 0.382,0.176 0.816,0.2 1.237,0.199 0.353,-0.001 0.715,-0.021 1.038,-0.163 0.634,-0.28 0.998,-0.978 1.617,-1.29 1.324,-0.666 2.928,0.734 4.342,0.29 0.57,-0.179 1.016,-0.644 1.3,-1.17 0.285,-0.526 0.429,-1.114 0.571,-1.694"
   id="path78" />

			</g>
  </g>
</svg>
