<?xml version="1.0" encoding="UTF-8" standalone="no"?>
<!-- Created with Inkscape (http://www.inkscape.org/) -->

<svg
   width="37.020584mm"
   height="42.553165mm"
   viewBox="0 0 37.020584 42.553165"
   version="1.1"
   id="svg1"
   inkscape:version="1.4.2 (f4327f4, 2025-05-13)"
   sodipodi:docname="baby-2.svg"
   xmlns:inkscape="http://www.inkscape.org/namespaces/inkscape"
   xmlns:sodipodi="http://sodipodi.sourceforge.net/DTD/sodipodi-0.dtd"
   xmlns="http://www.w3.org/2000/svg"
   xmlns:svg="http://www.w3.org/2000/svg">
  <sodipodi:namedview
     id="namedview1"
     pagecolor="#ffffff"
     bordercolor="#000000"
     borderopacity="0.25"
     inkscape:showpageshadow="2"
     inkscape:pageopacity="0.0"
     inkscape:pagecheckerboard="0"
     inkscape:deskcolor="#d1d1d1"
     inkscape:document-units="mm"
     inkscape:zoom="1.2275954"
     inkscape:cx="-13.03361"
     inkscape:cy="50.50524"
     inkscape:window-width="2880"
     inkscape:window-height="1676"
     inkscape:window-x="-12"
     inkscape:window-y="-12"
     inkscape:window-maximized="1"
     inkscape:current-layer="layer1" />
  <defs
     id="defs1" />
  <g
     inkscape:label="图层 1"
     inkscape:groupmode="layer"
     id="layer1"
     transform="translate(-108.47912,-135.20236)">
    <g
       id="g7"
       transform="matrix(0.26458333,0,0,0.26458333,95.624807,55.70539)">
		<path
   style="fill:#243159"
   d="m 65.289,394.928 c -4.955,5.578 -8.882,13.11 -7.017,20.662 0.805,3.259 2.474,6.228 4.125,9.152 -1.227,-0.21 -2.838,0.441 -3.893,-0.221 -1.018,-0.64 -2.079,-1.295 -3.271,-1.449 -1.225,-0.159 -2.48,0.241 -3.504,0.932 -2.29,1.545 -4.468,6.156 -1.479,8.149 -3.316,4.107 -1.358,12.53 3.004,15.339 1.746,1.124 3.902,1.365 5.975,1.493 5.448,0.335 10.927,0.095 16.356,0.657 7.373,0.763 14.585,3 21.997,3.114 2.844,0.044 5.775,-0.25 8.302,-1.557 4.607,-2.383 6.968,-7.598 8.324,-12.604 4.31,-1.276 8.352,-3.432 11.744,-6.381 1.823,4.437 6.289,7.629 7.203,12.338 0.417,2.151 0.046,4.477 0.959,6.47 1.297,2.833 5.322,3.972 7.912,2.24 -0.228,2.237 2.412,4.215 4.495,3.368 0.285,-0.116 0.568,-0.275 0.875,-0.263 0.415,0.015 0.746,0.332 1.059,0.605 2.783,2.436 6.921,2.613 10.533,1.816 1.262,-0.279 2.449,-0.131 3.525,-0.847 1.282,-0.852 3.195,-0.553 4.155,0.65 0.384,0.482 0.619,1.067 0.989,1.56 0.554,0.737 1.472,1.247 2.385,1.122 0.913,-0.124 1.715,-1.006 1.579,-1.918 -0.099,-0.664 -0.617,-1.172 -1.012,-1.714 -0.395,-0.543 -0.677,-1.312 -0.289,-1.86 1.639,1.001 3.957,0.941 5.115,2.473 0.29,0.383 0.482,0.844 0.831,1.174 0.622,0.589 1.59,0.621 2.429,0.447 0.383,-0.079 0.778,-0.206 1.041,-0.496 0.263,-0.289 0.335,-0.783 0.06,-1.062 0.584,0.094 1.191,0.187 1.76,0.024 0.569,-0.163 1.088,-0.66 1.074,-1.252 -0.009,-0.385 -0.233,-0.727 -0.448,-1.046 -0.713,-1.056 -1.427,-2.111 -2.14,-3.167 -0.443,-0.655 -0.546,-1.303 -0.903,-2.009 -1.315,-2.6 -4.105,-4.386 -7.016,-4.493 -2.076,-0.076 -4.134,0.637 -6.203,0.451 0.162,-0.852 -0.417,-1.671 -1.073,-2.24 -0.655,-0.569 -1.434,-1.028 -1.905,-1.756 -0.622,-0.959 -0.591,-2.185 -0.538,-3.326 0.932,1.098 2.203,1.854 3.507,2.465 1.772,0.83 4.024,1.378 5.564,0.17 0.576,-0.452 1.157,-1.379 0.483,-1.667 2.264,0.042 4.531,-0.071 6.779,-0.34 0.29,-0.035 0.613,-0.064 0.847,0.111 0.189,0.141 0.271,0.379 0.353,0.6 0.353,0.953 0.971,1.917 1.948,2.195 0.977,0.278 2.229,-0.576 1.975,-1.559 0.272,0.841 1.219,1.402 2.087,1.236 0.868,-0.166 1.542,-1.037 1.484,-1.919 -0.016,-0.249 -0.083,-0.493 -0.079,-0.742 0.013,-0.664 0.514,-1.201 0.815,-1.793 0.659,-1.298 0.303,-2.965 -0.657,-4.06 -0.96,-1.094 -2.421,-1.658 -3.872,-1.769 -1.84,-0.141 -3.839,0.351 -5.442,-0.562 -0.541,-0.308 -0.675,-0.55 -1.175,-0.921 0.623,-2.23 1.245,-4.461 1.868,-6.691 0.329,-1.178 0.653,-2.464 0.185,-3.594 -0.307,-0.742 -0.919,-1.311 -1.338,-1.996 -1.117,-1.823 -0.741,-4.138 -0.598,-6.271 0.409,-6.067 -1.469,-12.262 -5.177,-17.081 -0.92,-1.195 -1.965,-2.339 -2.497,-3.751 -1.282,-3.409 0.768,-7.117 0.874,-10.757 0.135,-4.628 -2.843,-8.69 -5.601,-12.408 -2.271,-3.062 4.705,-4.115 6.624,-4.444 1.313,-0.225 2.664,-0.32 3.91,-0.791 3.429,-1.296 6.749,-5.009 8.186,-8.289 1.279,-2.918 1.654,-6.199 1.181,-9.342 -0.459,-3.054 -2.697,-5.558 -3.076,-8.429 -0.525,-3.979 0.617,-7.932 0.107,-11.892 -0.78,-6.053 -4.893,-12.557 -9.741,-16.189 -5.911,-4.428 -13.475,-6.28 -20.86,-6.204 -9.354,0.096 -19.105,3.492 -24.551,11.487 -3.5,5.139 -4.981,11.539 -4.501,17.739 0.366,4.725 1.814,9.3 3.508,13.726 1.038,2.711 2.182,5.427 2.525,8.31 -1.625,0.237 -2.806,1.446 -3.672,2.841 -0.866,1.395 -1.443,2.961 -2.382,4.308 -1.38,1.98 -3.448,3.362 -5.532,4.58 -9.326,5.446 -19.765,7.681 -29.297,12.579 -7.546,3.877 -14.477,8.954 -20.431,14.998 -0.488,0.491 -0.972,1.007 -1.446,1.541 z"
   id="path6" />

		<path
   style="fill:#243159"
   d="m 171.542,311.696 c 0.677,0.204 1.388,0.346 2.089,0.252 0.836,-0.112 1.594,-0.552 2.255,-1.075 1.4,-1.109 2.484,-2.699 2.699,-4.473 0.215,-1.773 -0.557,-3.704 -2.098,-4.607 1.016,1.87 0.243,4.413 -1.493,5.643 -1.736,1.23 -4.18,1.208 -6.061,0.214 1.46,0.76 3.402,-0.174 4.081,-1.673 0.679,-1.499 0.303,-3.308 -0.564,-4.707 0.325,1.693 -0.788,3.466 -2.359,4.176 -1.571,0.71 -3.462,0.467 -4.98,-0.352 1.056,-0.023 2.072,-0.696 2.503,-1.661 0.431,-0.964 0.256,-2.17 -0.432,-2.972 -0.568,1.736 -2.107,3.118 -3.894,3.497 -0.979,0.207 -2.006,0.132 -2.973,0.391 -0.147,0.039 -0.303,0.094 -0.389,0.22 -0.213,0.315 0.171,0.688 0.503,0.874 2.052,1.149 4.209,2.201 6.194,3.461 1.645,1.043 3.018,2.164 4.919,2.792 z"
   id="path7" />

	</g>
  </g>
</svg>
