<?xml version="1.0" encoding="UTF-8" standalone="no"?>
<!-- Created with Inkscape (http://www.inkscape.org/) -->

<svg
   width="27.079662mm"
   height="51.051197mm"
   viewBox="0 0 27.079662 51.051197"
   version="1.1"
   id="svg1"
   inkscape:version="1.4.2 (f4327f4, 2025-05-13)"
   sodipodi:docname="baby-1.svg"
   xmlns:inkscape="http://www.inkscape.org/namespaces/inkscape"
   xmlns:sodipodi="http://sodipodi.sourceforge.net/DTD/sodipodi-0.dtd"
   xmlns="http://www.w3.org/2000/svg"
   xmlns:svg="http://www.w3.org/2000/svg">
  <sodipodi:namedview
     id="namedview1"
     pagecolor="#ffffff"
     bordercolor="#000000"
     borderopacity="0.25"
     inkscape:showpageshadow="2"
     inkscape:pageopacity="0.0"
     inkscape:pagecheckerboard="0"
     inkscape:deskcolor="#d1d1d1"
     inkscape:document-units="mm"
     inkscape:zoom="1.2275954"
     inkscape:cx="146.62812"
     inkscape:cy="144.18431"
     inkscape:window-width="2880"
     inkscape:window-height="1676"
     inkscape:window-x="-12"
     inkscape:window-y="-12"
     inkscape:window-maximized="1"
     inkscape:current-layer="layer1" />
  <defs
     id="defs1" />
  <g
     inkscape:label="图层 1"
     inkscape:groupmode="layer"
     id="layer1"
     transform="translate(-66.14579,-110.33153)">
    <path
       style="fill:#243159;stroke-width:0.264583"
       d="m 93.117044,127.11075 c -0.348192,1.02209 -1.815571,0.85566 -2.59715,1.19883 -0.426773,0.18732 -0.801423,0.47307 -1.171311,0.75591 -0.256646,0.19606 -0.513556,0.39238 -0.783167,0.57018 -1.308364,0.86254 -3.006989,1.40547 -4.519083,0.76517 -0.67945,-0.28786 -1.267883,-0.76279 -1.761066,-1.31127 -0.115359,-0.12806 -0.215371,-0.29713 -0.370417,-0.22199 -0.150019,0.60352 -0.300302,1.23481 -0.15875,1.84018 0.0598,0.25506 0.170656,0.50086 0.183092,0.76253 0.01561,0.33126 -0.127265,0.64585 -0.211932,0.96652 -0.175154,0.66146 -0.04789,1.27873 -0.02381,1.94363 0.02011,0.55272 -0.06429,1.08109 0.02884,1.6473 0.123561,0.75115 0.413544,1.47531 0.448998,2.23573 0.02064,0.44026 -0.04789,0.89535 0.06668,1.32715 0.08758,0.3302 0.377561,0.68262 0.168011,1.02605 -0.07303,0.11959 -0.197115,0.20214 -0.267229,0.32332 -0.123032,0.21246 -0.05001,0.48736 0.07805,0.69691 0.40296,0.66014 0.379941,1.0332 0.550068,1.73091 0.192882,0.78978 0.835555,1.48537 1.067859,2.29314 0.253735,0.88186 0.269081,1.81213 0.282575,2.72971 0.01773,1.20174 0.112977,2.43231 0.04154,3.6314 -0.05741,0.9652 0.466461,2.19181 0.119063,3.11627 -0.08308,0.22145 -0.223838,0.44397 -0.175948,0.67548 0.02778,0.13467 0.116946,0.24818 0.210344,0.34925 0.505883,0.54663 1.198033,0.87418 1.853406,1.22819 0.483394,0.26115 0.955675,0.54293 1.414727,0.84455 0.227542,0.14949 0.46355,0.31777 0.567796,0.56939 0.153458,0.37041 -0.04075,0.8128 -0.352425,1.06521 -0.311679,0.25241 -0.71464,0.35692 -1.105694,0.44635 -0.69559,0.15902 -1.421077,0.29157 -2.117725,0.13706 -0.560387,-0.12436 -1.066271,-0.42731 -1.620573,-0.57627 -0.846402,-0.22754 -1.756304,-0.0841 -2.607733,-0.29236 -0.20955,-0.0513 -0.421746,-0.12859 -0.572823,-0.28258 -0.311679,-0.31803 -0.259556,-0.8382 -0.128058,-1.26365 0.131498,-0.42545 0.381,-0.72654 0.281516,-1.16046 -0.09128,-0.39767 -0.336814,-0.74268 -0.463021,-1.13056 -0.09737,-0.29925 -0.121443,-0.61648 -0.144991,-0.93028 -0.07223,-0.96758 -0.144198,-1.94522 0.0063,-2.9038 0.317235,-2.01639 -1.08585,-3.21601 -2.411148,-4.49501 -0.141288,-0.13626 -0.28575,-0.2749 -0.462492,-0.36089 -0.239183,-0.11615 -0.51435,-0.12515 -0.779991,-0.13176 -0.103453,-0.003 -0.214578,-0.003 -0.299509,0.0558 -0.0635,0.0439 -0.102658,0.11483 -0.133879,0.18573 -0.233892,0.5297 -0.138112,1.14591 -0.281781,1.70683 -0.224102,0.8763 -1.008063,1.28323 -1.1303,2.17911 -0.227277,1.66185 0.09393,3.34433 -0.130175,5.02655 -0.121179,0.90885 0.206639,1.81928 0.628914,2.63314 0.31168,0.60087 0.686594,1.2012 0.733161,1.87642 0.0074,0.10901 0.0042,0.22569 -0.05662,0.31671 -0.07673,0.11456 -0.222515,0.15716 -0.356658,0.18865 -0.699294,0.1643 -1.415521,0.25558 -2.1336,0.27278 -0.582348,0.014 -1.427957,0.0844 -1.9304,-0.27543 -0.137848,-0.0987 -0.22225,-0.25426 -0.293423,-0.40825 -0.357981,-0.77391 -0.492125,-1.62957 -0.6223,-2.47227 -0.068,-0.43974 -0.134144,-0.90143 0.01693,-1.32001 0.06138,-0.16986 0.15875,-0.34607 0.109802,-0.5199 -0.03122,-0.11113 -0.117475,-0.19659 -0.191294,-0.28522 -0.471487,-0.56621 -0.499797,-1.37504 -0.425979,-2.1082 0.07355,-0.73316 0.224367,-1.48511 0.03096,-2.19604 -0.322528,-1.1856 0.07144,-2.55773 -0.122503,-3.80815 -0.261937,-1.69042 -0.762264,-3.55521 -0.177535,-5.24537 0.136525,-0.39475 0.366713,-0.76544 0.400579,-1.18163 0.02857,-0.3511 -0.08652,-0.69664 -0.125148,-1.04695 -0.07541,-0.68263 0.15584,-1.3933 0.618596,-1.90077 -0.248179,-0.0556 -0.374914,-0.35216 -0.3429,-0.60431 0.03228,-0.25214 0.177006,-0.47307 0.29845,-0.69664 0.294217,-0.54161 0.465931,-1.14909 0.499004,-1.76451 0.01429,-0.26326 0.0042,-0.53367 0.09234,-0.78211 0.08758,-0.24712 0.265642,-0.45349 0.357981,-0.6985 0.08625,-0.2286 0.09366,-0.47837 0.100013,-0.72284 0.02223,-0.85593 0.03413,-1.75789 -0.376767,-2.50931 -0.230717,-0.42174 -0.540279,0.0172 -0.773642,0.20638 -0.279664,0.22674 -0.572293,0.44503 -0.904081,0.58975 -0.519377,0.22701 -1.15279,0.20373 -1.629569,-0.10292 -0.275431,-0.17727 -0.488685,-0.4363 -0.667014,-0.71094 -0.109273,-0.16827 -0.207698,-0.34607 -0.262202,-0.53922 -0.129382,-0.45773 2.64e-4,-0.94562 0.150283,-1.397 0.223838,-0.67336 0.469371,-1.37768 0.858573,-1.96638 0.371739,-0.56224 0.798777,-1.1848 0.96176,-1.84653 0.07673,-0.31194 0.08916,-0.63685 0.16219,-0.94985 0.107685,-0.46302 0.396346,-0.66834 0.674952,-1.016 0.223044,-0.27808 0.273315,-0.68395 0.551656,-0.90673 0.165894,-0.13255 0.383911,-0.17515 0.592931,-0.21352 0.214048,-0.0394 0.428096,-0.0786 0.642144,-0.118 0.128852,-0.0236 0.26379,-0.0471 0.388409,-0.006 0.124354,0.0407 0.230981,0.16854 0.200025,0.2958 -0.02276,0.0945 -0.110067,0.15769 -0.194734,0.20505 -0.121444,0.0677 -0.251089,0.12039 -0.385233,0.15637 -0.159808,0.0429 -0.329936,0.0643 -0.469371,0.15346 -0.139171,0.0892 -0.23495,0.27808 -0.154517,0.42254 0.06906,0.12409 0.23495,0.16007 0.37518,0.13732 0.140229,-0.0228 0.269875,-0.0892 0.408781,-0.11827 0.120121,-0.0251 0.24421,-0.0222 0.366712,-0.0188 0.119063,0.003 0.243682,0.008 0.346075,0.0685 0.102659,0.0603 0.17145,0.19553 0.118004,0.30163 0.848519,-0.0392 1.781969,-0.19712 2.570692,-0.51197 -0.547423,-0.29184 -0.990864,-0.77417 -1.235869,-1.34408 -0.307181,-0.71411 -0.298979,-1.52242 -0.221456,-2.29579 0.07752,-0.77338 0.219869,-1.54729 0.163248,-2.32252 -0.05371,-0.73527 -0.287073,-1.55866 -0.06165,-2.2606 -0.593196,-0.0873 -0.319617,-0.83317 0.113242,-0.93741 -0.182298,-0.14579 -0.266965,-0.41725 -0.164836,-0.62707 0.10213,-0.21008 0.403225,-0.30612 0.59055,-0.16668 -0.119591,-0.1315 -0.160866,-0.32968 -0.103452,-0.49795 0.0598,-0.17568 0.354013,-0.46038 0.5461,-0.31009 -0.130439,-0.40746 0.297392,-0.87577 0.714904,-0.78264 0.0934,-0.3519 0.604044,-0.50297 0.873919,-0.2585 0.068,-0.39899 0.64135,-0.59663 0.940858,-0.32464 0.05133,-0.44847 0.753269,-0.6313 1.017059,-0.26485 0.152135,-0.3302 0.749829,-0.25717 0.817827,0.10001 0.262731,-0.36433 0.909373,-0.33152 1.134004,0.0577 0.108479,-0.19076 0.359569,-0.28628 0.567267,-0.2159 0.207698,0.0704 0.348985,0.29898 0.319087,0.5162 0.32729,-0.24182 0.882121,0.0635 0.852752,0.46938 0.204259,-0.19633 0.572294,-0.0707 0.720196,0.17065 0.147902,0.24157 0.1397,0.54372 0.126735,0.82656 0.142082,-0.18468 0.386292,-0.1479 0.54663,0.0212 0.160337,0.16907 0.127793,0.47969 -0.06403,0.61198 0.183621,-0.0974 0.417513,0.0794 0.45138,0.28442 0.03387,0.20506 -0.06906,0.4064 -0.182563,0.5805 -0.03122,0.0479 -0.06482,0.10345 -0.04895,0.15796 0.01349,0.0458 0.05715,0.0743 0.09499,0.10345 0.31406,0.24262 0.281516,0.70564 0.03916,0.97922 0.04498,0.0132 0.148696,0.0246 0.181769,0.0635 0.214048,0.25162 0.154252,0.68554 -0.120121,0.86969 0.110067,0.082 0.17145,0.22489 0.155046,0.36115 -0.0164,0.13626 -0.110067,0.26035 -0.236273,0.3138 0.130439,0.0169 0.242094,0.13044 0.257175,0.26114 0.01508,0.13071 -0.068,0.26644 -0.191294,0.31248 0.103717,0.0183 0.173302,0.12911 0.170921,0.23468 -0.0024,0.10531 -0.06138,0.20214 -0.134673,0.27781 -0.09287,0.0963 -0.218281,0.15267 -0.314325,0.2376 -0.13679,0.12091 -0.216165,0.24633 -0.399256,0.31432 0.168804,0.21352 0.113506,0.52282 0.03387,0.78317 -0.125677,0.41037 -0.29157,0.80857 -0.494506,1.18692 -0.114035,0.21273 -0.242887,0.42281 -0.424392,0.58182 -0.181504,0.15928 -0.424127,0.263 -0.66331,0.23045 -0.02117,-0.0497 -0.05159,0.004 -0.08969,0.0418 -0.397668,0.39872 -0.52361,0.99324 -0.849841,1.4523 -0.03228,0.0455 -0.06773,0.0923 -0.07461,0.14763 -0.0093,0.0767 0.04101,0.15108 0.106098,0.19288 0.06509,0.0418 0.14314,0.0579 0.219075,0.073 0.641615,-0.27834 1.304925,-0.13679 1.903677,0.22489 0.598752,0.36169 1.05754,0.91255 1.472671,1.47559 0.415131,0.56303 0.802217,1.15358 1.305719,1.63909 0.221191,0.21325 0.44106,0.41328 0.635529,0.65167 0.174096,0.21352 0.233362,0.27517 0.49821,0.10133 0.560123,-0.36777 1.402027,-0.17198 2.026444,-0.36433 0.275696,-0.0849 0.526256,-0.22833 0.783167,-0.35613 0.217487,-0.10821 0.471752,-0.17145 0.658812,-0.32385 0.396081,-0.32279 0.502708,-0.8837 0.889794,-1.21549 0.220133,-0.18865 0.505089,-0.2794 0.769408,-0.39873 0.183886,-0.0828 0.367506,-0.18336 0.568854,-0.19367 0.280723,-0.0143 0.561182,0.14975 0.832909,0.0786 0.0061,-0.24236 0.319881,-0.39317 0.540543,-0.29237 0.220398,0.10081 0.324115,0.37254 0.291836,0.61278 -0.03228,0.24024 -0.173038,0.45217 -0.330465,0.63632 -0.0098,0.13996 0.05794,0.1741 -7.93e-4,0.30136 0.22516,0.21484 0.248708,0.60669 0.05106,0.84693 0.185473,0.0939 0.24474,0.34714 0.177536,0.54425 z"
       id="path1" />
  </g>
</svg>
