<?xml version="1.0" encoding="UTF-8" standalone="no"?>
<!-- Created with Inkscape (http://www.inkscape.org/) -->

<svg
   width="20.401756mm"
   height="66.79351mm"
   viewBox="0 0 20.401756 66.793511"
   version="1.1"
   id="svg1"
   inkscape:version="1.4.2 (f4327f4, 2025-05-13)"
   sodipodi:docname="boy15.svg"
   xmlns:inkscape="http://www.inkscape.org/namespaces/inkscape"
   xmlns:sodipodi="http://sodipodi.sourceforge.net/DTD/sodipodi-0.dtd"
   xmlns="http://www.w3.org/2000/svg"
   xmlns:svg="http://www.w3.org/2000/svg">
  <sodipodi:namedview
     id="namedview1"
     pagecolor="#ffffff"
     bordercolor="#000000"
     borderopacity="0.25"
     inkscape:showpageshadow="2"
     inkscape:pageopacity="0.0"
     inkscape:pagecheckerboard="0"
     inkscape:deskcolor="#d1d1d1"
     inkscape:document-units="mm"
     inkscape:zoom="1.2275954"
     inkscape:cx="95.308275"
     inkscape:cy="17.106613"
     inkscape:window-width="2880"
     inkscape:window-height="1676"
     inkscape:window-x="-12"
     inkscape:window-y="-12"
     inkscape:window-maximized="1"
     inkscape:current-layer="layer1" />
  <defs
     id="defs1" />
  <g
     inkscape:label="图层 1"
     inkscape:groupmode="layer"
     id="layer1"
     transform="translate(-79.796872,-144.00475)">
    <g
       id="g632"
       transform="matrix(0.26458333,0,0,0.26458333,-7.7354953,141.45951)">
	<g
   id="g577">
		<g
   id="g562">
			<path
   style="fill:#ad1836"
   d="m 361.072,241.884 c 0,0 0.192,-1.279 1.652,-0.875 0,0 0.578,-0.158 0.553,1.264 -0.03,1.421 0.24,4.171 0.73,7.322 0.492,3.149 2.095,9.754 -1.905,11.344 -4,1.589 -10.468,1.44 -13.792,-0.072 -3.324,-1.513 -3.1,-5.771 -1.115,-8.805 1.985,-3.035 4.065,-7.755 4.098,-8.338 0.035,-0.584 -0.233,-2.696 0.422,-2.918 0.654,-0.223 2.004,0.062 2.227,0.717 -0.001,0 3.422,-1.888 7.13,0.361 z"
   id="path557" />

			<path
   style="fill:#bfbda6"
   d="m 363.073,252.891 c -1.731,-1.546 -4.055,-2.339 -6.355,-2.484 -4.291,-0.27 -9.207,1.407 -10.934,5.554 -0.197,2.056 0.505,3.987 2.525,4.906 3.324,1.513 9.792,1.661 13.792,0.072 2.071,-0.822 2.638,-2.99 2.637,-5.326 -0.267,-0.982 -0.746,-1.904 -1.665,-2.722 z"
   id="path558" />

			<path
   style="fill:#b0ae9a"
   d="m 363.073,252.891 c -1.731,-1.546 -4.055,-2.339 -6.355,-2.484 -4.291,-0.27 -9.207,1.407 -10.934,5.554 -0.197,2.056 0.505,3.987 2.525,4.906 3.324,1.513 9.792,1.661 13.792,0.072 2.071,-0.822 2.638,-2.99 2.637,-5.326 -0.267,-0.982 -0.746,-1.904 -1.665,-2.722 z"
   id="path559" />

			<path
   style="fill:#400406"
   d="m 364.618,254.949 c -0.073,-0.272 -0.173,-0.531 -0.284,-0.786 -0.897,-1.66 -2.738,-2.724 -4.687,-3.347 0.206,-1.415 0.106,-2.843 0.409,-4.276 0.195,-0.929 0.473,-1.822 0.775,-2.722 0.203,-0.607 0.459,-1.371 0.128,-1.971 -0.003,-0.007 -0.011,0.003 -0.011,0.007 0.334,1.64 -0.961,3.382 -1.131,5.018 -0.137,1.311 -0.109,2.618 -0.268,3.913 -1.234,-0.385 -2.504,-0.598 -3.594,-0.671 -0.998,-0.066 -2.008,0.023 -2.994,0.225 0.262,-1.361 0.56,-2.716 0.826,-4.076 0.305,-1.568 -0.778,-3.365 0.201,-4.763 0.004,-0.008 -0.004,-0.014 -0.01,-0.008 -0.833,1.075 -0.484,2.556 -0.414,3.806 0.096,1.697 -0.32,3.38 -0.633,5.046 -1.039,0.215 -2.055,0.555 -3.01,0.979 -1.821,0.808 -2.967,2.044 -3.783,3.841 -0.002,0.001 0.002,0.002 0.003,0 0.956,-1.886 2.261,-2.896 4.202,-3.634 0.806,-0.306 1.645,-0.53 2.498,-0.68 v 0.001 c 0.225,-0.071 0.463,-0.1 0.705,-0.105 0.76,-0.094 1.525,-0.129 2.283,-0.098 1.168,0.047 2.443,0.196 3.662,0.512 -0.002,0.017 -0.005,0.032 -0.008,0.051 0.029,0.004 0.059,0.012 0.09,0.015 0.004,-0.014 0.006,-0.028 0.009,-0.042 2.316,0.618 4.409,1.864 5.124,4.267 -0.016,-0.17 -0.046,-0.339 -0.088,-0.502 z"
   id="path560" />

			<path
   style="fill:#400406"
   d="m 363.996,258.246 c -2.628,2.158 -6.344,2.694 -9.632,2.698 -1.81,0.003 -3.456,-0.195 -5.162,-0.828 -1.893,-0.703 -2.964,-1.903 -3.358,-3.89 0,0 -0.009,-0.002 -0.006,0.005 0.23,1.508 0.849,2.894 2.287,3.604 1.725,0.855 3.455,1.23 5.373,1.293 3.513,0.12 7.84,-0.29 10.539,-2.816 0.041,-0.038 0.007,-0.105 -0.041,-0.066 z"
   id="path561" />

			<path
   style="fill:#fffad7"
   d="m 361.359,245.96 c -1.115,-1.135 -3.152,-1.146 -4.611,-0.918 -0.057,0.01 -0.119,0.022 -0.178,0.032 -1.232,-0.301 -2.515,-0.396 -3.654,0.259 -0.041,0.023 -0.093,0.093 -0.053,0.14 0.006,0.008 0.012,0.015 0.02,0.022 0.025,0.028 0.057,0.028 0.088,0.006 0.039,-0.027 0.078,-0.054 0.117,-0.081 0.006,-0.004 0.006,-0.013 -0.003,-0.014 0.629,0.105 1.306,0.01 1.97,0.043 -0.934,0.318 -1.814,0.811 -2.379,1.569 -0.024,0.033 -0.016,0.087 0.018,0.099 l -0.004,0.008 c 0.002,-0.004 -0.008,-0.007 -0.012,-0.002 -0.018,0.021 -0.035,0.041 -0.053,0.06 -0.018,0.021 -0.004,0.048 0.022,0.047 0.419,-0.029 0.87,-0.047 1.333,-0.054 -0.74,0.326 -1.362,0.787 -1.424,1.397 l -0.029,0.015 c -0.037,0.022 -0.027,0.089 0.021,0.068 0.009,-0.007 0.022,-0.01 0.034,-0.016 0.02,0.006 0.043,0.002 0.059,-0.01 0.011,-0.008 0.02,-0.016 0.031,-0.023 0.667,-0.251 1.707,-0.193 2.35,-0.178 0.18,0.006 0.357,0.023 0.535,0.049 -1.166,0.253 -3.309,0.74 -3.398,2.02 -0.008,0.117 0.148,0.066 0.173,-0.013 l 0.065,-0.112 c 0.005,-0.005 -0.003,-0.012 -0.008,-0.007 1.098,-0.69 2.809,-1.151 4.27,-1.484 0.109,-0.023 0.217,-0.036 0.326,-0.052 0.266,0.086 0.527,0.178 0.788,0.269 0.746,0.259 1.692,0.745 2.188,1.395 0.158,0.208 0.284,0.405 0.562,0.33 0.111,-0.03 0.23,-0.159 0.184,-0.286 -0.315,-0.851 -1.12,-1.396 -2.002,-1.79 0.178,0.005 0.358,0.011 0.536,0.018 0.532,0.017 0.935,0.347 1.399,0.061 0.078,-0.049 0.152,-0.157 0.125,-0.248 0.004,-0.028 -0.002,-0.057 -0.024,-0.082 -0.456,-0.53 -1.233,-0.986 -2.013,-1.296 0.658,0.077 1.311,0.197 2.006,0.303 0.014,0.009 0.027,0.016 0.04,0.025 0.146,0.095 0.38,-0.042 0.356,-0.224 -0.119,-0.914 -1.707,-1.377 -2.658,-1.661 0.438,0.042 0.869,0.11 1.266,0.213 0.512,0.132 0.883,0.497 1.424,0.508 0.199,0.002 0.348,-0.252 0.197,-0.405 z m -1.785,2.168 c -0.246,-0.022 -0.496,-0.026 -0.73,-0.042 -0.58,-0.037 -1.146,0.006 -1.709,0.086 -0.138,-0.044 -0.273,-0.086 -0.398,-0.129 -0.603,-0.2 -1.809,-0.346 -2.779,-0.192 0.084,-0.047 0.158,-0.092 0.216,-0.119 0.544,-0.268 1.124,-0.41 1.714,-0.494 1.294,0.109 2.594,0.367 3.686,0.89 z m -3.335,-1.564 c -0.137,0.015 -0.305,0.042 -0.493,0.077 -0.252,-0.015 -0.502,-0.026 -0.756,-0.033 -0.275,-0.006 -1.551,0.04 -2.076,0.298 0.252,-0.16 1.234,-0.49 1.479,-0.582 0.69,-0.26 1.38,-0.458 2.101,-0.594 0.322,0.102 0.643,0.221 0.957,0.346 0.283,0.11 0.566,0.214 0.848,0.318 -0.715,0.005 -1.438,0.099 -2.06,0.17 z"
   id="path562" />

		</g>

		<g
   id="g568">
			<path
   style="fill:#ad1836"
   d="m 373.598,241.884 c 0,0 -0.193,-1.279 -1.652,-0.875 0,0 -0.581,-0.158 -0.552,1.264 0.03,1.421 -0.241,4.171 -0.733,7.322 -0.49,3.149 -2.094,9.754 1.906,11.344 4,1.589 10.469,1.44 13.793,-0.072 3.325,-1.513 3.101,-5.771 1.115,-8.805 -1.986,-3.035 -4.064,-7.755 -4.1,-8.338 -0.033,-0.584 0.236,-2.696 -0.42,-2.918 -0.654,-0.223 -2.004,0.062 -2.228,0.717 0.001,0 -3.422,-1.888 -7.129,0.361 z"
   id="path563" />

			<path
   style="fill:#bfbda6"
   d="m 371.598,252.891 c 1.729,-1.546 4.053,-2.339 6.354,-2.484 4.289,-0.27 9.207,1.407 10.932,5.554 0.199,2.056 -0.504,3.987 -2.523,4.906 -3.324,1.513 -9.793,1.661 -13.793,0.072 -2.07,-0.822 -2.637,-2.99 -2.637,-5.326 0.268,-0.982 0.746,-1.904 1.667,-2.722 z"
   id="path564" />

			<path
   style="fill:#b0ae9a"
   d="m 369.93,255.612 c 0,2.336 0.566,4.504 2.637,5.326 4,1.589 10.469,1.44 13.793,-0.072 2.02,-0.919 2.723,-2.851 2.523,-4.906 -1.725,-4.146 -6.643,-5.823 -10.932,-5.554 -2.301,0.146 -4.624,0.938 -6.354,2.484 -0.92,0.819 -1.398,1.741 -1.667,2.722 z"
   id="path565" />

			<path
   style="fill:#400406"
   d="m 370.052,254.949 c 0.073,-0.272 0.173,-0.531 0.283,-0.786 0.897,-1.66 2.739,-2.724 4.687,-3.347 -0.207,-1.415 -0.107,-2.843 -0.408,-4.276 -0.197,-0.929 -0.473,-1.822 -0.775,-2.722 -0.205,-0.607 -0.459,-1.371 -0.128,-1.971 10e-4,-0.007 0.011,0.003 0.009,0.007 -0.332,1.64 0.962,3.382 1.133,5.018 0.138,1.311 0.109,2.618 0.268,3.913 1.233,-0.385 2.504,-0.598 3.594,-0.671 0.997,-0.066 2.006,0.023 2.994,0.225 -0.26,-1.361 -0.563,-2.716 -0.826,-4.076 -0.305,-1.568 0.779,-3.365 -0.201,-4.763 -0.006,-0.008 0.002,-0.014 0.01,-0.008 0.832,1.075 0.484,2.556 0.413,3.806 -0.095,1.697 0.321,3.38 0.634,5.046 1.039,0.215 2.055,0.555 3.011,0.979 1.821,0.808 2.964,2.044 3.782,3.841 0.002,0.001 -0.002,0.002 -0.002,0 -0.957,-1.886 -2.262,-2.896 -4.203,-3.634 -0.806,-0.306 -1.645,-0.53 -2.498,-0.68 v 0.001 c -0.227,-0.071 -0.463,-0.1 -0.705,-0.105 -0.76,-0.094 -1.525,-0.129 -2.285,-0.098 -1.164,0.047 -2.441,0.196 -3.66,0.512 0.001,0.017 0.006,0.032 0.006,0.051 -0.029,0.004 -0.059,0.012 -0.088,0.015 -0.004,-0.014 -0.006,-0.028 -0.009,-0.042 -2.316,0.618 -4.408,1.864 -5.125,4.267 0.017,-0.17 0.047,-0.339 0.089,-0.502 z"
   id="path566" />

			<path
   style="fill:#400406"
   d="m 370.674,258.246 c 2.627,2.158 6.344,2.694 9.633,2.698 1.808,0.003 3.455,-0.195 5.16,-0.828 1.895,-0.703 2.965,-1.903 3.357,-3.89 0.002,-0.005 0.008,-0.002 0.008,0.005 -0.229,1.508 -0.85,2.894 -2.287,3.604 -1.725,0.855 -3.455,1.23 -5.372,1.293 -3.513,0.12 -7.841,-0.29 -10.54,-2.816 -0.039,-0.038 -0.006,-0.105 0.041,-0.066 z"
   id="path567" />

			<path
   style="fill:#fffad7"
   d="m 373.51,246.363 c 0.541,-0.011 0.912,-0.376 1.424,-0.508 0.397,-0.103 0.828,-0.171 1.265,-0.213 -0.95,0.284 -2.536,0.747 -2.657,1.661 -0.023,0.182 0.211,0.318 0.356,0.224 0.012,-0.01 0.027,-0.017 0.04,-0.025 0.696,-0.105 1.349,-0.226 2.007,-0.303 -0.781,0.31 -1.557,0.766 -2.014,1.296 -0.021,0.025 -0.027,0.054 -0.023,0.082 -0.027,0.091 0.047,0.199 0.123,0.248 0.467,0.286 0.867,-0.044 1.4,-0.061 0.178,-0.007 0.359,-0.013 0.537,-0.018 -0.882,0.393 -1.689,0.939 -2.002,1.79 -0.049,0.127 0.072,0.256 0.183,0.286 0.278,0.075 0.404,-0.122 0.563,-0.33 0.495,-0.649 1.441,-1.136 2.187,-1.395 0.26,-0.091 0.523,-0.183 0.789,-0.269 0.109,0.016 0.217,0.028 0.325,0.052 1.462,0.333 3.173,0.794 4.27,1.484 -0.006,-0.005 -0.013,0.002 -0.009,0.007 l 0.067,0.112 c 0.024,0.078 0.179,0.13 0.17,0.013 -0.088,-1.279 -2.232,-1.767 -3.396,-2.02 0.178,-0.025 0.355,-0.043 0.534,-0.049 0.643,-0.016 1.685,-0.073 2.35,0.178 0.011,0.008 0.021,0.016 0.032,0.023 0.016,0.012 0.039,0.016 0.059,0.01 0.012,0.006 0.023,0.009 0.035,0.016 0.047,0.021 0.057,-0.046 0.018,-0.068 l -0.026,-0.015 c -0.063,-0.61 -0.685,-1.071 -1.425,-1.397 0.463,0.007 0.913,0.024 1.333,0.054 0.026,0.001 0.039,-0.025 0.021,-0.047 -0.018,-0.019 -0.034,-0.039 -0.055,-0.06 -0.003,-0.005 -0.012,-0.002 -0.009,0.004 -0.002,-0.002 -0.004,-0.006 -0.004,-0.006 0.033,-0.016 0.041,-0.069 0.017,-0.102 -0.563,-0.759 -1.444,-1.251 -2.379,-1.569 0.663,-0.033 1.343,0.063 1.971,-0.043 -0.008,0.001 -0.009,0.01 -0.003,0.014 0.039,0.027 0.078,0.054 0.117,0.081 0.031,0.022 0.063,0.022 0.088,-0.006 0.006,-0.008 0.014,-0.015 0.019,-0.022 0.042,-0.047 -0.011,-0.117 -0.052,-0.14 -1.14,-0.655 -2.422,-0.56 -3.654,-0.259 -0.06,-0.01 -0.121,-0.022 -0.18,-0.032 -1.459,-0.229 -3.493,-0.217 -4.609,0.918 -0.155,0.154 -0.004,0.408 0.197,0.404 z m 5.273,0.874 c 0.59,0.084 1.17,0.226 1.715,0.494 0.057,0.027 0.131,0.072 0.215,0.119 -0.971,-0.153 -2.176,-0.008 -2.781,0.192 -0.125,0.043 -0.259,0.085 -0.398,0.129 -0.563,-0.08 -1.129,-0.123 -1.707,-0.086 -0.234,0.016 -0.483,0.02 -0.73,0.042 1.089,-0.522 2.389,-0.78 3.686,-0.89 z m -2.412,-0.843 c 0.281,-0.105 0.564,-0.208 0.848,-0.318 0.315,-0.125 0.634,-0.243 0.958,-0.346 0.72,0.136 1.408,0.334 2.097,0.594 0.245,0.092 1.23,0.422 1.48,0.582 -0.523,-0.258 -1.798,-0.304 -2.074,-0.298 -0.254,0.007 -0.506,0.019 -0.756,0.033 -0.188,-0.035 -0.357,-0.063 -0.492,-0.077 -0.625,-0.071 -1.347,-0.165 -2.061,-0.17 z"
   id="path568" />

		</g>

		<g
   id="g569">
			<path
   style="fill:#eec9a5"
   d="m 365.861,141.94 c 0,0 1.282,0 3.26,0 6.713,0 19.789,0 19.801,0 0,0.839 -4.297,47.073 -4.582,51.589 -0.953,15.213 -4.021,46.87 -4.104,48.206 0,0 -1.713,0.707 -5.475,0 l -3.054,-47.785 -3.105,-36.586 c 0,0 -0.587,-1.01 -1.111,-1.053 -0.522,0.043 -0.994,1.158 -0.994,1.158 l -3.633,36.588 -2.383,47.704 c -4.613,0.854 -6.041,-0.026 -6.041,-0.026 -0.084,-1.336 -2.07,-29.133 -3,-48.613 -1.179,-24.747 -5.304,-50.713 -5.304,-51.182 0.011,0 13.011,0 19.725,0 z"
   id="path569" />

		</g>

		<g
   id="g576">
			<g
   id="g570">
				<path
   style="fill:#755433"
   d="m 365.861,141.94 c 0,0 1.282,0 3.26,0 6.713,0 19.789,0 19.801,0 0,0.839 -1.582,45.633 -1.865,50.148 -0.371,5.936 -0.736,11.87 -1.105,17.806 -2.739,0.967 -9.084,2.577 -15.958,-0.014 l -1.534,-51.93 c 0,0 -0.445,-1.002 -0.97,-1.045 -0.522,0.043 -0.969,1.112 -0.969,1.112 l -1.529,51.802 c -2.559,0.934 -8.814,2.639 -15.67,0.244 -1.402,-28.674 -3.187,-67.541 -3.187,-68.124 0.012,0.001 13.012,0.001 19.726,0.001 z"
   id="path570" />

			</g>

			<g
   id="g572">
				<path
   style="fill:#6c4d2e"
   d="m 351.218,193.875 c 4.728,0.058 9.485,-0.047 14.247,-0.099 l -0.473,16.044 c -2.559,0.934 -8.814,2.639 -15.67,0.244 -0.252,-5.176 -0.52,-10.686 -0.785,-16.241 0.895,0.024 1.787,0.041 2.681,0.052 z"
   id="path571" />

				<path
   style="fill:#6c4d2e"
   d="m 386.9,194.644 c -0.318,5.085 -0.632,10.168 -0.948,15.251 -2.739,0.967 -9.084,2.577 -15.958,-0.014 l -0.476,-16.129 c 5.822,-0.007 11.634,0.165 17.382,0.892 z"
   id="path572" />

			</g>

			<g
   id="g573">
				<polygon
   style="fill:#64482c"
   points="387.379,186.268 381.019,186.384 381.301,201.966 386.441,204.477 "
   id="polygon572" />

				<polygon
   style="fill:#8a633d"
   points="387.379,186.268 381.019,186.384 381.082,189.88 387.248,190.352 "
   id="polygon573" />

			</g>

			<g
   id="g575">
				<polygon
   style="fill:#64482c"
   points="348.17,186.268 354.53,186.384 354.248,201.966 349.107,204.477 "
   id="polygon574" />

				<polygon
   style="fill:#8a633d"
   points="348.17,186.268 354.53,186.384 354.468,189.88 348.299,190.352 "
   id="polygon575" />

			</g>

		</g>

	</g>

	<g
   id="g607">
		<g
   id="g601">
			<g
   id="g584">
				<g
   id="g580">
					<path
   style="fill:#eec9a5"
   d="m 337.412,152.115 c 3.115,0.235 3.959,5.049 4.646,7.404 0.539,1.847 0.881,3.021 1.395,5.753 0.141,0.746 0.477,2.596 -0.372,3.069 -1.089,0.608 -1.681,-1.922 -1.915,-2.567 -0.133,-0.361 -1.072,-3.384 -1.451,-1.925 -0.313,1.205 -0.068,1.682 0.172,2.885 0.379,1.91 2.359,5.056 1.559,6.411 -0.799,1.355 -2.043,-0.659 -2.043,-0.659 0,0 0.146,0.332 -0.579,0.535 -0.724,0.204 -1.708,-0.834 -1.731,-0.854 -0.021,-0.02 0.014,0.379 -0.569,0.166 -0.581,-0.214 -1.508,-1.113 -1.823,-1.418 0,0 -0.719,-0.112 -1.416,-1.004 -0.697,-0.891 -3.75,-7.806 0.166,-16.265 0.566,-1.223 1.643,-1.124 2.869,-1.431 0.383,-0.096 0.748,-0.125 1.092,-0.1 z"
   id="path577" />

					<path
   style="fill:#915f2d"
   d="m 337.853,168.755 c -0.632,-1.759 -1.003,-3.628 -1.323,-5.459 -0.002,-0.013 -0.018,-0.005 -0.018,0.005 0.24,1.889 0.578,3.728 1.168,5.55 0.406,1.258 1.06,2.995 1.961,4 0.022,0.023 0.053,-0.012 0.04,-0.035 -0.761,-1.218 -1.346,-2.717 -1.828,-4.061 z"
   id="path578" />

					<path
   style="fill:#915f2d"
   d="m 335.225,168.265 c -0.555,-1.482 -0.637,-3.063 -1.039,-4.574 -10e-4,-0.009 -0.014,-0.001 -0.012,0.005 0.312,1.703 0.462,3.355 1.082,5.003 0.462,1.23 1.033,2.883 2.127,3.737 0.01,0.009 0.021,-0.01 0.014,-0.018 -1.127,-1.009 -1.662,-2.797 -2.172,-4.153 z"
   id="path579" />

					<path
   style="fill:#915f2d"
   d="m 332.596,164.686 c -0.002,-0.013 -0.018,-0.005 -0.016,0.005 0.106,1.248 0.373,2.526 0.795,3.711 0.404,1.127 1.07,2.559 2.074,3.287 0.016,0.011 0.043,-0.019 0.028,-0.031 -1.817,-1.712 -2.569,-4.609 -2.881,-6.972 z"
   id="path580" />

				</g>

				<g
   id="g583">
					<path
   style="fill:#e1b58c"
   d="m 342.48,124.554 3.522,-18.147 c 0.014,-2.082 0.02,-16.498 -0.004,-22.26 0,0 -7.654,0.472 -8.971,5.212 l -4.78,32.905 c 0.929,4.34 8.608,5.535 10.233,2.29 z"
   id="path581" />

					<path
   style="fill:#eec9a5"
   d="m 332.207,122.264 c 0,1.838 -0.006,9.518 0,11.167 0.02,4.368 0.428,10.111 0.937,14.448 0.538,4.567 1.03,7.472 1.566,8.025 l 3.001,-0.113 c 1.939,-0.017 0.767,-4.554 4.672,-28.733 l 0.394,-3.56 c -1.211,-3.682 -9.089,-5.562 -10.57,-1.234 z"
   id="path582" />

					<path
   style="fill:#fff200"
   d="m 343.195,113.918 c 0.258,0.04 1.383,0.081 1.643,0.123 l 1.164,-5.306 c 0.014,-1.824 0.002,-22.878 -0.004,-24.589 0,0 -7.751,0.144 -9.066,4.524 l -6.101,22.284 c 3.081,1.196 9.001,2.432 12.364,2.964 z"
   id="path583" />

				</g>

			</g>

			<g
   id="g591">
				<g
   id="g586">
					<path
   style="fill:#e1b58c"
   d="m 392.068,124.554 -3.52,-17.62 c -0.014,-2.083 -0.021,-17.025 0.003,-22.787 0,0 7.655,0.472 8.97,5.212 l 4.781,32.905 c -0.929,4.34 -8.609,5.535 -10.234,2.29 z"
   id="path584" />

					<path
   style="fill:#eec9a5"
   d="m 402.342,122.264 c 0,1.838 0.008,9.518 0,11.167 -0.019,4.368 -0.426,10.111 -0.938,14.448 -0.537,4.567 -1.027,7.472 -1.564,8.025 l -3.002,-0.113 c -1.939,-0.017 -0.766,-4.554 -4.67,-28.733 l -0.396,-3.56 c 1.212,-3.682 9.089,-5.562 10.57,-1.234 z"
   id="path585" />

					<path
   style="fill:#fff200"
   d="m 391.355,113.918 c -0.258,0.04 -1.385,0.081 -1.643,0.123 l -1.164,-5.306 c -0.014,-1.824 -0.004,-22.878 0.003,-24.589 0,0 7.75,0.144 9.065,4.524 l 6.102,22.284 c -3.081,1.196 -9.001,2.432 -12.363,2.964 z"
   id="path586" />

				</g>

				<g
   id="g590">
					<path
   style="fill:#eec9a5"
   d="m 397.364,152.115 c -3.114,0.235 -3.958,5.049 -4.646,7.404 -0.539,1.847 -0.881,3.021 -1.395,5.753 -0.141,0.746 -0.478,2.596 0.371,3.069 1.09,0.608 1.682,-1.922 1.916,-2.567 0.133,-0.361 1.072,-3.384 1.45,-1.925 0.314,1.205 0.069,1.682 -0.171,2.885 -0.381,1.91 -2.359,5.056 -1.559,6.411 0.799,1.355 2.043,-0.659 2.043,-0.659 0,0 -0.147,0.332 0.578,0.535 0.724,0.204 1.709,-0.834 1.732,-0.854 0.022,-0.02 -0.015,0.379 0.569,0.166 0.581,-0.214 1.508,-1.113 1.822,-1.418 0,0 0.721,-0.112 1.417,-1.004 0.696,-0.891 3.751,-7.806 -0.165,-16.265 -0.566,-1.223 -1.643,-1.124 -2.869,-1.431 -0.383,-0.096 -0.748,-0.125 -1.093,-0.1 z"
   id="path587" />

					<path
   style="fill:#915f2d"
   d="m 396.923,168.755 c 0.632,-1.759 1.004,-3.628 1.325,-5.459 0.002,-0.013 0.018,-0.005 0.018,0.005 -0.24,1.889 -0.58,3.728 -1.168,5.55 -0.406,1.258 -1.059,2.995 -1.963,4 -0.021,0.023 -0.053,-0.012 -0.037,-0.035 0.759,-1.218 1.342,-2.717 1.825,-4.061 z"
   id="path588" />

					<path
   style="fill:#915f2d"
   d="m 399.551,168.265 c 0.555,-1.482 0.639,-3.063 1.039,-4.574 0.002,-0.009 0.014,-0.001 0.013,0.005 -0.312,1.703 -0.46,3.355 -1.081,5.003 -0.463,1.23 -1.033,2.883 -2.128,3.737 -0.008,0.009 -0.021,-0.01 -0.013,-0.018 1.125,-1.009 1.663,-2.797 2.17,-4.153 z"
   id="path589" />

					<path
   style="fill:#915f2d"
   d="m 402.18,164.686 c 0.002,-0.013 0.02,-0.005 0.018,0.005 -0.107,1.248 -0.373,2.526 -0.797,3.711 -0.402,1.127 -1.068,2.559 -2.072,3.287 -0.018,0.011 -0.043,-0.019 -0.029,-0.031 1.818,-1.712 2.568,-4.609 2.88,-6.972 z"
   id="path590" />

				</g>

			</g>

			<path
   style="fill:#d01f3d"
   d="m 345.949,124.374 c 0,0 -0.719,-36.7 -0.266,-40.228 l 21.441,-4.955 21.441,4.955 c 0.449,3.527 -0.268,40.228 -0.268,40.228 0,1.458 1.223,15.997 0.238,18.003 -0.004,0.013 -0.01,0.026 -0.016,0.04 -0.008,0.015 -0.018,0.023 -0.025,0.036 -0.019,0.026 -0.036,0.053 -0.061,0.077 -0.016,0.017 -0.032,0.033 -0.05,0.043 -1.263,1.083 -9.482,1.93 -19.607,1.984 v 0.001 c -0.082,0 -1.307,0.001 -1.652,0.001 -0.348,0 -1.573,-0.001 -1.654,-0.001 v -0.001 c -10.123,-0.055 -18.344,-0.901 -19.607,-1.984 -0.016,-0.01 -0.033,-0.026 -0.049,-0.043 -0.027,-0.024 -0.045,-0.051 -0.063,-0.077 -0.008,-0.013 -0.018,-0.021 -0.025,-0.036 -0.007,-0.014 -0.013,-0.027 -0.018,-0.04 -0.981,-2.006 0.241,-16.545 0.241,-18.003 z"
   id="path591" />

			<path
   style="fill:#c11e38"
   d="m 345.781,114.7 h 42.688 c -0.09,5.581 -0.17,9.674 -0.17,9.674 0,1.458 1.223,15.997 0.238,18.003 -0.004,0.013 -0.01,0.026 -0.016,0.04 -0.008,0.015 -0.018,0.023 -0.025,0.036 -0.019,0.026 -0.036,0.053 -0.061,0.077 -0.016,0.017 -0.032,0.033 -0.05,0.043 -1.263,1.083 -9.482,1.93 -19.607,1.984 v 0.001 c -0.082,0 -1.307,0.001 -1.652,0.001 -0.348,0 -1.573,-0.001 -1.654,-0.001 v -0.001 c -10.123,-0.055 -18.344,-0.901 -19.607,-1.984 -0.016,-0.01 -0.033,-0.026 -0.049,-0.043 -0.027,-0.024 -0.045,-0.051 -0.063,-0.077 -0.008,-0.013 -0.018,-0.021 -0.025,-0.036 -0.007,-0.014 -0.013,-0.027 -0.018,-0.04 -0.983,-2.006 0.239,-16.545 0.239,-18.003 0,0 -0.08,-4.093 -0.168,-9.674 z"
   id="path592" />

			<g
   id="g594">
				<path
   style="fill:#781824"
   d="m 345.098,112.853 -0.26,1.188 c -0.26,-0.042 -1.385,-0.083 -1.643,-0.123 -3.363,-0.532 -9.283,-1.768 -12.364,-2.963 l 0.354,-1.295 c 6.096,2.134 11.762,2.944 13.913,3.193 z"
   id="path593" />

				<path
   style="fill:#781824"
   d="m 403.719,110.955 c -3.082,1.195 -9.002,2.431 -12.363,2.963 -0.258,0.04 -1.385,0.081 -1.643,0.123 l -0.283,-1.287 c 2.673,-0.351 8.135,-1.263 13.861,-3.359 z"
   id="path594" />

			</g>

			<g
   id="g595">
				<path
   style="fill:#fff200"
   d="m 382.265,82.69 c 0,1.27 -11.138,9.452 -15.203,9.452 -4.064,0 -15.164,-8.162 -15.164,-9.432 0,0 5.634,-4.49 15.185,-4.468 10.347,0.026 15.182,4.448 15.182,4.448 z"
   id="path595" />

			</g>

			<path
   style="fill:#e1b58c"
   d="m 361.453,83.979 c 0,1.185 2.836,6.745 5.67,6.745 2.837,0 5.672,-5.561 5.672,-6.745 V 73.396 c 0,-2.367 -1.92,-4.287 -4.287,-4.287 h -2.769 c -2.366,0 -4.286,1.92 -4.286,4.287 z"
   id="path596" />

			<g
   id="g598">
				<path
   style="fill:#a82036"
   d="m 371.443,118.162 c 0.176,0 0.316,-0.143 0.316,-0.316 0,-0.752 -0.039,-18.5 -3.502,-26.183 -0.071,-0.159 -0.258,-0.229 -0.418,-0.158 -0.158,0.071 -0.229,0.259 -0.158,0.417 3.407,7.56 3.447,25.741 3.447,25.924 0.001,0.174 0.142,0.316 0.315,0.316 z"
   id="path597" />

				<path
   style="fill:#a82036"
   d="m 363.721,118.122 c 0.173,0 0.316,-0.141 0.316,-0.315 0,-0.183 0.039,-18.363 3.445,-25.923 0.072,-0.159 0.002,-0.347 -0.158,-0.419 -0.158,-0.072 -0.347,-0.001 -0.418,0.16 -3.463,7.683 -3.502,25.43 -3.502,26.182 0,0.174 0.141,0.315 0.317,0.315 z"
   id="path598" />

			</g>

			<g
   id="g600">
				<path
   style="fill:#e3f1fa"
   d="m 371.585,117.754 c 0.177,0 0.317,-0.141 0.317,-0.316 0,-0.751 -0.039,-18.499 -3.502,-26.182 -0.072,-0.159 -0.258,-0.23 -0.418,-0.159 -0.159,0.071 -0.23,0.259 -0.158,0.418 3.406,7.56 3.445,25.74 3.445,25.923 10e-4,0.175 0.143,0.316 0.316,0.316 z"
   id="path599" />

				<path
   style="fill:#e3f1fa"
   d="m 363.589,117.754 c 0.173,0 0.315,-0.141 0.315,-0.316 0,-0.183 0.039,-18.363 3.445,-25.923 0.072,-0.159 0.002,-0.347 -0.156,-0.418 -0.16,-0.073 -0.346,-10e-4 -0.42,0.159 -3.462,7.683 -3.501,25.431 -3.501,26.182 0,0.175 0.142,0.316 0.317,0.316 z"
   id="path600" />

			</g>

		</g>

		<g
   id="g606">
			<rect
   x="333.008"
   y="149.77299"
   style="fill:#4d4d4c"
   width="6.6760001"
   height="2.983"
   id="rect601" />

			<rect
   x="333.008"
   y="149.77299"
   style="fill:#3b3b3a"
   width="4.9489999"
   height="2.983"
   id="rect602" />

			<g
   id="g603">
				<path
   style="fill:#242422"
   d="m 336.357,150.967 c -0.078,-1.339 -0.824,-2.406 -1.728,-2.566 0.035,-0.004 0.068,-0.019 0.103,-0.021 1.039,-0.06 1.953,1.099 2.039,2.587 0.086,1.489 -0.687,2.745 -1.727,2.805 -0.103,0.006 -0.207,-0.004 -0.309,-0.021 0.986,-0.138 1.706,-1.349 1.622,-2.784 z"
   id="path602" />

				<path
   style="fill:#666564"
   d="m 333.008,151.184 c -0.084,-1.436 0.636,-2.645 1.621,-2.783 0.904,0.16 1.65,1.227 1.728,2.566 0.084,1.436 -0.637,2.646 -1.621,2.783 -0.904,-0.159 -1.651,-1.227 -1.728,-2.566 z"
   id="path603" />

			</g>

			<path
   style="fill:#242422"
   d="m 334.236,151.169 c 0,0.053 0.041,0.095 0.094,0.095 h 1.551 c 0.053,0 0.094,-0.042 0.094,-0.095 v 0 c 0,-0.052 -0.041,-0.094 -0.094,-0.094 h -1.551 c -0.053,0 -0.094,0.042 -0.094,0.094 z"
   id="path604" />

			<path
   style="fill:#242422"
   d="m 334.31,151.264 c 0.041,0 0.074,-0.033 0.074,-0.075 v -1.228 c 0,-0.042 -0.033,-0.075 -0.074,-0.075 v 0 c -0.042,0 -0.074,0.033 -0.074,0.075 v 1.228 c 0,0.041 0.033,0.075 0.074,0.075 z"
   id="path605" />

			<path
   style="fill:#797876"
   d="m 333.008,151.184 c 0.077,1.34 0.824,2.407 1.728,2.566 0.984,-0.137 1.705,-1.348 1.621,-2.783 -0.078,-1.339 -0.824,-2.406 -1.728,-2.566 -0.985,0.138 -1.705,1.347 -1.621,2.783 z m 0.386,-0.106 c -0.063,-1.107 0.491,-2.037 1.246,-2.143 0.698,0.122 1.271,0.944 1.331,1.973 0.063,1.107 -0.492,2.037 -1.246,2.143 -0.699,-0.122 -1.272,-0.944 -1.331,-1.973 z"
   id="path606" />

		</g>

	</g>

	<g
   id="g631">
		<g
   id="g630">
			<path
   style="fill:#62420a"
   d="m 343.869,60.074 c 0,0 -0.787,-6.311 -2.703,-11.631 -1.92,-5.319 -3.448,-10.482 -4.334,-11.204 -0.885,-0.726 -3.06,-0.064 -3.06,-0.064 l 3.312,-3.782 c 0,0 -2.406,0.11 -3.086,0.33 0,0 5.414,-9.503 11.961,-11.873 l -4.172,0.66 c 0,0 4.33,-7.175 15.085,-10.736 10.755,-3.564 26.042,-3.102 30.747,4.4 l 0.701,-4.619 c 0,0 0.961,3.66 0.762,6.71 0,0 3.215,-2.321 7.117,-0.867 l -4.127,1.994 c 0,0 8.463,0.952 15.643,13.408 l -4.033,-1.461 c 0,0 2.402,4.016 4.258,8.267 0,0 -3.108,-1.399 -3.945,-0.792 -0.84,0.612 -6.338,13.442 -8.303,17.043 -1.967,3.602 -7.981,8.005 -7.981,8.005 z"
   id="path607" />

			<path
   style="opacity:0.5;fill:#62420a"
   d="m 403.682,31.339 4.033,1.461 C 400.535,20.344 392.072,19.392 392.072,19.392 l 2.779,-1.344 c -1.711,0.243 -3.4,0.664 -5.07,1.273 5.792,0.929 11.271,3.924 13.764,9.477 0.127,0.281 -0.225,0.503 -0.438,0.293 -2.012,-1.988 -4.563,-4.329 -7.539,-4.458 3.432,3.481 8.079,7.237 7.867,12.549 -0.008,0.151 -0.141,0.247 -0.283,0.248 -2.869,0.014 -8.93,-0.549 -8.93,-0.549 0,0 -1.783,-2.212 -1.992,-3.9 0.022,1.024 -0.012,2.042 -0.178,3.061 -0.029,0.185 -0.351,0.232 -0.351,0.232 l -6.362,-1.471 c 0,0 -0.93,-3.487 -1.446,-5.134 -0.308,1.112 -0.517,2.247 -0.974,3.316 -0.047,0.109 -0.143,0.185 -0.268,0.178 -1.755,-0.103 -5.536,-0.895 -5.536,-0.895 0,0 1.487,-5.173 1.764,-7.058 -0.914,1.457 -1.68,2.969 -2.459,4.511 -0.672,1.327 -1.277,2.064 -2.898,1.843 -2.709,-0.369 -5.264,-0.587 -8.006,-0.344 -2.603,0.228 -5.199,0.576 -7.816,0.583 -0.185,10e-4 -0.277,-0.195 -0.234,-0.353 0.615,-2.322 1.395,-4.595 2.07,-6.897 -2.441,2.667 -4.267,5.845 -6.789,8.449 -0.162,0.167 -0.461,0.002 -0.439,-0.219 0.254,-2.807 1.662,-5.245 2.537,-7.872 -2.616,2.768 -4.977,5.761 -7.586,8.529 -0.191,0.206 -0.508,-0.048 -0.428,-0.286 1.199,-3.592 2.775,-7.102 5.029,-10.155 -3.387,2.296 -6.912,4.389 -10.633,6.097 -0.229,0.105 -0.508,-0.165 -0.34,-0.387 3.807,-5.008 9.032,-9.211 14.871,-11.745 -3.723,1.121 -7.299,2.743 -11.11,3.591 -0.222,0.05 -0.408,-0.218 -0.272,-0.41 0.96,-1.35 2.096,-2.546 3.32,-3.651 -4.119,3.06 -5.908,6.015 -5.908,6.015 l 4.172,-0.66 c -6.547,2.37 -11.961,11.873 -11.961,11.873 0.68,-0.22 3.086,-0.33 3.086,-0.33 l -3.312,3.782 c 0,0 2.175,-0.661 3.06,0.064 0.886,0.723 2.414,5.885 4.334,11.204 1.916,5.32 2.703,11.631 2.703,11.631 l 43.841,3.788 c 0,0 6.015,-4.403 7.981,-8.005 1.965,-3.601 7.463,-16.431 8.303,-17.043 0.838,-0.607 3.945,0.792 3.945,0.792 -1.856,-4.251 -4.258,-8.266 -4.258,-8.266 z"
   id="path608" />

			<g
   id="g610">
				<path
   style="fill:#efcaa6"
   d="m 344.67,49.922 c 0,0 -0.814,-1.971 -1.826,-2.174 -1.014,-0.203 -3.391,0.768 -3.892,3.648 -0.496,2.882 1.176,5.027 2.672,5.553 1.492,0.523 2.299,-1.347 2.299,-1.347 z"
   id="path609" />

				<path
   style="fill:#c39368"
   d="m 342.1,51.006 c -1.328,-0.716 -1.869,1.073 -2.074,2.235 -0.011,0.055 0.056,0.065 0.074,0.021 0.195,-0.445 0.368,-0.916 0.586,-1.349 0.375,-0.737 1.047,-0.541 1.455,-0.075 0.157,0.18 0.277,0.379 0.378,0.59 -0.291,0.059 -0.565,0.326 -0.753,0.572 -0.255,0.337 -0.398,0.752 -0.498,1.171 -0.018,0.063 0.064,0.087 0.096,0.04 0.191,-0.283 0.357,-0.591 0.56,-0.863 0.227,-0.308 0.482,-0.358 0.774,-0.468 0.206,0.653 0.272,1.386 0.401,2.056 0.022,0.123 0.182,0.131 0.205,-0.011 0.192,-1.364 0.012,-3.261 -1.204,-3.919 z"
   id="path610" />

			</g>

			<g
   id="g612">
				<path
   style="fill:#efcaa6"
   d="m 391.34,53.636 c 0,0 1.109,-1.637 2.162,-1.701 1.053,-0.066 3.314,1.042 3.398,3.62 0.084,2.579 -1.923,4.271 -3.51,4.564 -1.586,0.297 -2.125,-1.432 -2.125,-1.432 z"
   id="path611" />

				<path
   style="fill:#c39368"
   d="m 393.777,54.868 c 1.445,-0.481 1.73,1.144 1.77,2.185 0.002,0.049 -0.066,0.051 -0.078,0.008 -0.134,-0.409 -0.238,-0.843 -0.395,-1.243 -0.271,-0.684 -0.98,-0.59 -1.459,-0.226 -0.184,0.138 -0.335,0.301 -0.468,0.476 0.287,0.081 0.525,0.344 0.676,0.581 0.209,0.327 0.293,0.703 0.334,1.081 0.006,0.058 -0.078,0.066 -0.103,0.022 -0.151,-0.269 -0.273,-0.554 -0.439,-0.818 -0.187,-0.289 -0.436,-0.363 -0.713,-0.491 -0.305,0.548 -0.477,1.181 -0.705,1.753 -0.044,0.108 -0.206,0.095 -0.206,-0.03 0.003,-1.218 0.462,-2.858 1.786,-3.298 z"
   id="path612" />

			</g>

			<path
   style="fill:#f4d9bf"
   d="m 345.766,33.027 c 0,0 -2.982,4.865 -1.596,10.151 1.389,5.284 -1.049,12.054 -1.355,14.694 -0.307,2.646 0.051,17.588 22.053,19.287 22,1.699 27.742,-12.844 27.307,-20.466 -0.435,-7.622 0.234,-7.709 0.727,-11.142 0.488,-3.43 1.176,-5.784 0.41,-8.365 l -0.506,3.698 c 0,0 -5.477,-1.822 -7.732,-1.97 l -0.615,-4.836 -0.685,4.351 -8.329,-0.94 c 0,0 0.314,-2.778 1.196,-4.053 0,0 -1.977,1.736 -2.497,3.568 0,0 -15.528,-0.881 -18.249,0.009 0,0 0.005,-2.13 0.791,-3.944 0,0 -1.874,2.145 -2.558,4.497 0,0 -7.022,-0.593 -8.301,0.658 z"
   id="path613" />

			<path
   style="fill:#930323"
   d="m 367.742,73.284 c -3.295,1.422 -6.191,-1.911 -8.217,-4.207 1.057,0.31 2.133,0.483 2.902,0.598 3.42,0.51 7.689,0.399 10.932,-1.313 -1.796,1.756 -3.285,3.918 -5.617,4.922 z"
   id="path614" />

			<path
   style="fill:#f9cbc0"
   d="m 368.44,71.184 c -2.272,-0.732 -4.805,-0.763 -7.188,-0.229 1.814,1.814 4.043,3.387 6.49,2.329 0.842,-0.362 1.569,-0.878 2.247,-1.468 -0.505,-0.248 -1.018,-0.463 -1.549,-0.632 z"
   id="path615" />

			<path
   style="fill:#f9cbc0"
   d="m 355.611,61.661 c -0.082,0.936 -2.059,1.501 -4.416,1.262 -2.357,-0.238 -4.203,-1.19 -4.125,-2.127 0.082,-0.938 2.057,-1.505 4.415,-1.265 2.359,0.24 4.205,1.193 4.126,2.13 z"
   id="path616" />

			<path
   style="fill:#f9cbc0"
   d="m 388.156,63.988 c 0.123,0.933 -1.678,1.916 -4.029,2.2 -2.355,0.287 -4.363,-0.238 -4.492,-1.171 -0.127,-0.931 1.676,-1.918 4.029,-2.2 2.352,-0.283 4.363,0.242 4.492,1.171 z"
   id="path617" />

			<path
   style="fill:#c39368"
   d="m 377.063,66.655 c -1.02,0.012 -2.092,-0.721 -2.673,-1.52 -0.061,-0.086 -0.22,-0.032 -0.181,0.08 0.166,0.478 0.476,0.985 0.875,1.355 -2.922,2.809 -7.295,2.908 -11.123,2.632 -2.139,-0.153 -7.748,-0.752 -7.738,-3.805 0.002,-0.127 -0.201,-0.155 -0.225,-0.024 -0.328,1.937 1.313,2.986 3.145,3.585 1.678,2.417 4.455,5.746 7.747,5.111 1.607,-0.309 2.835,-1.28 3.972,-2.41 1.508,-1.498 3.219,-3.016 4.545,-4.666 0.025,-0.029 0.027,-0.063 0.02,-0.094 0.014,-0.013 0.027,-0.025 0.039,-0.035 0.492,0.301 1.07,0.375 1.658,-0.004 0.093,-0.056 0.053,-0.208 -0.061,-0.205 z m -9.321,6.629 c -3.295,1.422 -6.191,-1.911 -8.217,-4.207 1.057,0.31 2.133,0.483 2.902,0.598 3.42,0.51 7.689,0.399 10.932,-1.313 -1.796,1.756 -3.285,3.918 -5.617,4.922 z"
   id="path618" />

			<path
   style="fill:#c39368"
   d="m 365.596,64.145 c -0.789,-0.179 -1.5,-0.338 -2.207,-0.751 -0.639,-0.372 -1.367,-1.208 -1.383,-1.977 -0.025,-1.308 2.596,-1.097 3.326,-0.994 0.172,0.022 0.246,-0.18 0.108,-0.278 -1.253,-0.885 -3.623,-0.705 -4.19,0.913 -0.326,0.944 0.549,1.944 1.18,2.507 0.861,0.771 2.055,0.824 3.148,0.73 0.08,-0.007 0.104,-0.129 0.018,-0.15 z"
   id="path619" />

			<path
   style="fill:#62420a"
   d="m 381.302,45.233 c -2.419,-0.272 -3.827,2.501 -3.71,4.526 0.01,0.133 0.188,0.15 0.227,0.027 0.533,-1.686 1.142,-3.377 3.178,-3.565 1.945,-0.182 2.092,2.075 2.625,3.318 0.145,0.34 0.625,0.38 0.738,-0.016 0.559,-1.93 -1.175,-4.08 -3.058,-4.29 z"
   id="path620" />

			<path
   style="fill:#62420a"
   d="m 353.637,45.938 c -0.861,-0.321 -1.695,-0.202 -2.419,0.374 -0.982,0.777 -1.137,1.856 -0.858,3.003 0.041,0.174 0.328,0.226 0.4,0.044 0.551,-1.391 1.112,-3.218 2.946,-2.354 1.196,0.563 1.856,1.75 2.175,2.965 0.025,0.099 0.193,0.108 0.209,-0.004 0.205,-1.546 -1.002,-3.486 -2.453,-4.028 z"
   id="path621" />

			<g
   id="g623">
				<path
   style="fill:#3d1a0b"
   d="m 381.537,53.578 c -0.031,1.663 -0.56,3.019 -1.182,3.029 -0.623,0.004 -1.108,-1.335 -1.072,-3.002 0.027,-1.664 0.559,-3.021 1.181,-3.026 0.624,-0.011 1.104,1.334 1.073,2.999 z"
   id="path622" />

				<path
   style="fill:#ffffff"
   d="m 380.269,52.333 c -0.042,0.503 -0.233,0.897 -0.419,0.883 -0.188,-0.016 -0.305,-0.439 -0.26,-0.942 0.043,-0.501 0.23,-0.896 0.421,-0.881 0.187,0.013 0.304,0.437 0.258,0.94 z"
   id="path623" />

			</g>

			<g
   id="g625">
				<path
   style="fill:#3d1a0b"
   d="m 354.273,52.647 c -0.188,1.651 -0.842,2.949 -1.462,2.9 -0.622,-0.052 -0.976,-1.431 -0.784,-3.089 0.186,-1.65 0.844,-2.952 1.462,-2.9 0.622,0.051 0.971,1.434 0.784,3.089 z"
   id="path624" />

				<path
   style="fill:#ffffff"
   d="m 353.131,51.286 c -0.092,0.496 -0.319,0.874 -0.502,0.84 -0.188,-0.035 -0.262,-0.464 -0.17,-0.963 0.09,-0.492 0.314,-0.871 0.5,-0.835 0.188,0.029 0.264,0.462 0.172,0.958 z"
   id="path625" />

			</g>

			<path
   style="fill:#6b797c"
   d="m 361.789,46.676 c -4.42,-9.583 -22.146,-5.628 -20.354,5.433 1.079,6.663 8.2,9.461 14.045,8.029 5.817,-1.424 8.811,-8.038 6.309,-13.462 z m -7.383,12.164 c -4.813,1.17 -10.732,-2.238 -11.01,-7.668 -0.475,-9.328 13.622,-10.719 16.644,-4.049 2.495,5.504 -0.9,10.566 -5.634,11.717 z"
   id="path626" />

			<path
   style="fill:#6b797c"
   d="m 390.927,47.268 c -4.409,-9.56 -22.147,-5.646 -20.354,5.435 1.08,6.66 8.201,9.459 14.047,8.029 5.815,-1.425 8.808,-8.04 6.307,-13.464 z m -7.382,12.165 c -4.814,1.169 -10.733,-2.236 -11.01,-7.667 -0.476,-9.329 13.621,-10.719 16.645,-4.051 2.494,5.505 -0.904,10.567 -5.635,11.718 z"
   id="path627" />

			<path
   style="fill:#3e4849"
   d="m 372.453,53.064 c -0.492,-2.611 -2.418,-5.625 -5.355,-5.819 -3.042,-0.202 -5.346,2.163 -5.922,5.032 -0.096,0.479 0.371,0.761 0.78,0.571 1.886,-0.877 3.122,-3.814 5.552,-2.691 1.746,0.807 2.307,3.217 4.182,3.697 0.498,0.131 0.849,-0.335 0.763,-0.79 z"
   id="path628" />

			<path
   style="fill:#ffffff"
   d="m 381.375,43.916 c -9.443,1.089 -8.31,8.959 -8.31,8.959 0.299,-2.867 2.138,-7.488 8.098,-8.087 5.959,-0.597 8.344,6.494 8.344,6.494 0.02,-5.771 -6.165,-7.593 -8.132,-7.366 z"
   id="path629" />

			<path
   style="fill:#ffffff"
   d="m 351.984,43.199 c -9.443,1.09 -8.311,8.961 -8.311,8.961 0.299,-2.868 2.139,-7.489 8.098,-8.087 5.959,-0.599 8.346,6.492 8.346,6.492 0.022,-5.77 -6.164,-7.593 -8.133,-7.366 z"
   id="path630" />

		</g>

	</g>

</g>
  </g>
</svg>
