<?xml version="1.0" encoding="UTF-8" standalone="no"?>
<!-- Created with Inkscape (http://www.inkscape.org/) -->

<svg
   width="20.836214mm"
   height="64.705269mm"
   viewBox="0 0 20.836214 64.705269"
   version="1.1"
   id="svg1"
   inkscape:version="1.4.2 (f4327f4, 2025-05-13)"
   sodipodi:docname="boy13.svg"
   xmlns:inkscape="http://www.inkscape.org/namespaces/inkscape"
   xmlns:sodipodi="http://sodipodi.sourceforge.net/DTD/sodipodi-0.dtd"
   xmlns="http://www.w3.org/2000/svg"
   xmlns:svg="http://www.w3.org/2000/svg">
  <sodipodi:namedview
     id="namedview1"
     pagecolor="#ffffff"
     bordercolor="#000000"
     borderopacity="0.25"
     inkscape:showpageshadow="2"
     inkscape:pageopacity="0.0"
     inkscape:pagecheckerboard="0"
     inkscape:deskcolor="#d1d1d1"
     inkscape:document-units="mm"
     inkscape:zoom="1.2275954"
     inkscape:cx="165.36393"
     inkscape:cy="2.4438019"
     inkscape:window-width="2880"
     inkscape:window-height="1676"
     inkscape:window-x="-12"
     inkscape:window-y="-12"
     inkscape:window-maximized="1"
     inkscape:current-layer="layer1" />
  <defs
     id="defs1" />
  <g
     inkscape:label="图层 1"
     inkscape:groupmode="layer"
     id="layer1"
     transform="translate(-61.27604,-147.9735)">
    <g
       id="g716"
       transform="matrix(0.26458333,0,0,0.26458333,26.472497,143.34002)">
	<g
   id="g652">
		<g
   id="g637">
			<path
   style="fill:#009562"
   d="m 167.819,241.884 c 0,0 0.192,-1.279 1.652,-0.875 0,0 0.58,-0.158 0.553,1.264 -0.03,1.421 0.241,4.171 0.732,7.322 0.491,3.149 2.095,9.754 -1.905,11.344 -4,1.589 -10.469,1.44 -13.792,-0.072 -3.325,-1.513 -3.101,-5.771 -1.115,-8.805 1.985,-3.035 4.065,-7.755 4.097,-8.338 0.035,-0.584 -0.233,-2.696 0.422,-2.918 0.655,-0.223 2.005,0.062 2.227,0.717 -0.001,0 3.421,-1.888 7.129,0.361 z"
   id="path632" />

			<path
   style="fill:#bfbda6"
   d="m 169.82,252.891 c -1.731,-1.546 -4.054,-2.339 -6.354,-2.484 -4.291,-0.27 -9.207,1.407 -10.934,5.554 -0.197,2.056 0.505,3.987 2.526,4.906 3.324,1.513 9.792,1.661 13.792,0.072 2.07,-0.822 2.638,-2.99 2.637,-5.326 -0.269,-0.982 -0.748,-1.904 -1.667,-2.722 z"
   id="path633" />

			<path
   style="fill:#b0ae9a"
   d="m 169.82,252.891 c -1.731,-1.546 -4.054,-2.339 -6.354,-2.484 -4.291,-0.27 -9.207,1.407 -10.934,5.554 -0.197,2.056 0.505,3.987 2.526,4.906 3.324,1.513 9.792,1.661 13.792,0.072 2.07,-0.822 2.638,-2.99 2.637,-5.326 -0.269,-0.982 -0.748,-1.904 -1.667,-2.722 z"
   id="path634" />

			<path
   style="fill:#400406"
   d="m 171.365,254.949 c -0.073,-0.272 -0.172,-0.531 -0.284,-0.786 -0.896,-1.66 -2.739,-2.724 -4.686,-3.347 0.206,-1.415 0.106,-2.843 0.408,-4.276 0.196,-0.929 0.473,-1.822 0.776,-2.722 0.204,-0.607 0.457,-1.371 0.128,-1.971 -0.004,-0.007 -0.012,0.003 -0.011,0.007 0.334,1.64 -0.961,3.382 -1.131,5.018 -0.137,1.311 -0.109,2.618 -0.268,3.913 -1.235,-0.385 -2.503,-0.598 -3.593,-0.671 -0.999,-0.066 -2.009,0.023 -2.996,0.225 0.261,-1.361 0.561,-2.716 0.827,-4.076 0.305,-1.568 -0.778,-3.365 0.202,-4.763 0.004,-0.008 -0.005,-0.014 -0.01,-0.008 -0.833,1.075 -0.485,2.556 -0.415,3.806 0.095,1.697 -0.321,3.38 -0.633,5.046 -1.039,0.215 -2.056,0.555 -3.01,0.979 -1.821,0.808 -2.966,2.044 -3.783,3.841 -0.002,0.001 0.002,0.002 0.003,0 0.956,-1.886 2.261,-2.896 4.203,-3.634 0.805,-0.306 1.645,-0.53 2.497,-0.68 v 0.001 c 0.225,-0.071 0.463,-0.1 0.705,-0.105 0.76,-0.094 1.526,-0.129 2.284,-0.098 1.167,0.047 2.443,0.196 3.663,0.512 -0.003,0.017 -0.006,0.032 -0.009,0.051 0.03,0.004 0.06,0.012 0.09,0.015 0.003,-0.014 0.006,-0.028 0.008,-0.042 2.316,0.618 4.409,1.864 5.124,4.267 -0.018,-0.17 -0.046,-0.339 -0.089,-0.502 z"
   id="path635" />

			<path
   style="fill:#400406"
   d="m 170.743,258.246 c -2.628,2.158 -6.344,2.694 -9.632,2.698 -1.811,0.003 -3.456,-0.195 -5.162,-0.828 -1.894,-0.703 -2.964,-1.903 -3.357,-3.89 0,0 -0.009,-0.002 -0.007,0.005 0.231,1.508 0.85,2.894 2.288,3.604 1.726,0.855 3.456,1.23 5.373,1.293 3.512,0.12 7.839,-0.29 10.54,-2.816 0.038,-0.038 0.005,-0.105 -0.043,-0.066 z"
   id="path636" />

			<path
   style="fill:#fffad7"
   d="m 168.106,245.96 c -1.115,-1.135 -3.152,-1.146 -4.61,-0.918 -0.058,0.01 -0.12,0.022 -0.179,0.032 -1.232,-0.301 -2.514,-0.396 -3.654,0.259 -0.04,0.023 -0.092,0.093 -0.052,0.14 0.006,0.008 0.012,0.015 0.019,0.022 0.026,0.028 0.058,0.028 0.088,0.006 0.038,-0.027 0.079,-0.054 0.117,-0.081 0.005,-0.004 0.005,-0.013 -0.002,-0.014 0.628,0.105 1.305,0.01 1.969,0.043 -0.934,0.318 -1.814,0.811 -2.379,1.569 -0.025,0.033 -0.015,0.087 0.017,0.099 l -0.004,0.008 c 0.002,-0.004 -0.007,-0.007 -0.011,-0.002 -0.018,0.021 -0.036,0.041 -0.053,0.06 -0.019,0.021 -0.005,0.048 0.022,0.047 0.419,-0.029 0.87,-0.047 1.333,-0.054 -0.739,0.326 -1.362,0.787 -1.424,1.397 l -0.028,0.015 c -0.039,0.022 -0.028,0.089 0.02,0.068 0.01,-0.007 0.023,-0.01 0.034,-0.016 0.02,0.006 0.044,0.002 0.059,-0.01 0.011,-0.008 0.021,-0.016 0.032,-0.023 0.667,-0.251 1.707,-0.193 2.349,-0.178 0.18,0.006 0.358,0.023 0.536,0.049 -1.166,0.253 -3.309,0.74 -3.398,2.02 -0.009,0.117 0.146,0.066 0.171,-0.013 l 0.065,-0.112 c 0.005,-0.005 -0.001,-0.012 -0.007,-0.007 1.098,-0.69 2.808,-1.151 4.27,-1.484 0.109,-0.023 0.216,-0.036 0.326,-0.052 0.266,0.086 0.528,0.178 0.789,0.269 0.747,0.259 1.693,0.745 2.188,1.395 0.158,0.208 0.285,0.405 0.561,0.33 0.112,-0.03 0.231,-0.159 0.184,-0.286 -0.315,-0.851 -1.121,-1.396 -2.002,-1.79 0.179,0.005 0.359,0.011 0.537,0.018 0.532,0.017 0.935,0.347 1.399,0.061 0.078,-0.049 0.152,-0.157 0.125,-0.248 0.004,-0.028 -0.001,-0.057 -0.023,-0.082 -0.456,-0.53 -1.234,-0.986 -2.014,-1.296 0.658,0.077 1.311,0.197 2.006,0.303 0.014,0.009 0.027,0.016 0.041,0.025 0.145,0.095 0.379,-0.042 0.356,-0.224 -0.12,-0.914 -1.708,-1.377 -2.658,-1.661 0.438,0.042 0.87,0.11 1.266,0.213 0.512,0.132 0.882,0.497 1.422,0.508 0.198,0.002 0.348,-0.252 0.197,-0.405 z m -1.785,2.168 c -0.247,-0.022 -0.496,-0.026 -0.73,-0.042 -0.58,-0.037 -1.146,0.006 -1.709,0.086 -0.138,-0.044 -0.272,-0.086 -0.398,-0.129 -0.603,-0.2 -1.809,-0.346 -2.778,-0.192 0.083,-0.047 0.158,-0.092 0.215,-0.119 0.545,-0.268 1.124,-0.41 1.714,-0.494 1.294,0.109 2.595,0.367 3.686,0.89 z m -3.335,-1.564 c -0.136,0.015 -0.305,0.042 -0.493,0.077 -0.251,-0.015 -0.502,-0.026 -0.755,-0.033 -0.276,-0.006 -1.551,0.04 -2.077,0.298 0.252,-0.16 1.235,-0.49 1.48,-0.582 0.69,-0.26 1.38,-0.458 2.099,-0.594 0.323,0.102 0.643,0.221 0.958,0.346 0.283,0.11 0.566,0.214 0.849,0.318 -0.716,0.005 -1.438,0.099 -2.061,0.17 z"
   id="path637" />

		</g>

		<g
   id="g643">
			<path
   style="fill:#009562"
   d="m 180.344,241.884 c 0,0 -0.192,-1.279 -1.651,-0.875 0,0 -0.581,-0.158 -0.553,1.264 0.03,1.421 -0.24,4.171 -0.732,7.322 -0.49,3.149 -2.094,9.754 1.906,11.344 3.999,1.589 10.468,1.44 13.792,-0.072 3.325,-1.513 3.101,-5.771 1.115,-8.805 -1.986,-3.035 -4.065,-7.755 -4.099,-8.338 -0.033,-0.584 0.234,-2.696 -0.42,-2.918 -0.655,-0.223 -2.005,0.062 -2.228,0.717 0.001,0 -3.422,-1.888 -7.13,0.361 z"
   id="path638" />

			<path
   style="fill:#bfbda6"
   d="m 178.345,252.891 c 1.73,-1.546 4.053,-2.339 6.354,-2.484 4.29,-0.27 9.208,1.407 10.933,5.554 0.199,2.056 -0.505,3.987 -2.525,4.906 -3.324,1.513 -9.792,1.661 -13.792,0.072 -2.072,-0.822 -2.638,-2.99 -2.638,-5.326 0.269,-0.982 0.748,-1.904 1.668,-2.722 z"
   id="path639" />

			<path
   style="fill:#b0ae9a"
   d="m 176.676,255.612 c 0,2.336 0.566,4.504 2.638,5.326 3.999,1.589 10.468,1.44 13.792,-0.072 2.02,-0.919 2.723,-2.851 2.525,-4.906 -1.725,-4.146 -6.643,-5.823 -10.933,-5.554 -2.301,0.146 -4.624,0.938 -6.354,2.484 -0.919,0.819 -1.398,1.741 -1.668,2.722 z"
   id="path640" />

			<path
   style="fill:#400406"
   d="m 176.8,254.949 c 0.073,-0.272 0.171,-0.531 0.284,-0.786 0.896,-1.66 2.739,-2.724 4.685,-3.347 -0.206,-1.415 -0.106,-2.843 -0.408,-4.276 -0.196,-0.929 -0.473,-1.822 -0.775,-2.722 -0.205,-0.607 -0.458,-1.371 -0.129,-1.971 0.003,-0.007 0.011,0.003 0.01,0.007 -0.332,1.64 0.961,3.382 1.132,5.018 0.137,1.311 0.11,2.618 0.268,3.913 1.234,-0.385 2.503,-0.598 3.593,-0.671 0.998,-0.066 2.007,0.023 2.996,0.225 -0.262,-1.361 -0.563,-2.716 -0.826,-4.076 -0.307,-1.568 0.778,-3.365 -0.203,-4.763 -0.005,-0.008 0.003,-0.014 0.01,-0.008 0.833,1.075 0.485,2.556 0.415,3.806 -0.095,1.697 0.319,3.38 0.633,5.046 1.039,0.215 2.056,0.555 3.011,0.979 1.821,0.808 2.965,2.044 3.783,3.841 0,0 -0.001,0.002 -0.003,0 -0.956,-1.886 -2.262,-2.896 -4.204,-3.634 -0.804,-0.306 -1.645,-0.53 -2.497,-0.68 v 0.001 c -0.226,-0.071 -0.464,-0.1 -0.706,-0.105 -0.759,-0.094 -1.525,-0.129 -2.284,-0.098 -1.166,0.047 -2.441,0.196 -3.662,0.512 0.002,0.017 0.006,0.032 0.007,0.051 -0.029,0.004 -0.059,0.012 -0.089,0.015 -0.004,-0.014 -0.006,-0.028 -0.009,-0.042 -2.317,0.618 -4.408,1.864 -5.125,4.267 0.021,-0.17 0.05,-0.339 0.093,-0.502 z"
   id="path641" />

			<path
   style="fill:#400406"
   d="m 177.421,258.246 c 2.627,2.158 6.343,2.694 9.632,2.698 1.809,0.003 3.455,-0.195 5.161,-0.828 1.894,-0.703 2.964,-1.903 3.357,-3.89 0.001,-0.005 0.008,-0.002 0.008,0.005 -0.23,1.508 -0.85,2.894 -2.289,3.604 -1.725,0.855 -3.455,1.23 -5.372,1.293 -3.513,0.12 -7.84,-0.29 -10.54,-2.816 -0.038,-0.038 -0.004,-0.105 0.043,-0.066 z"
   id="path642" />

			<path
   style="fill:#fffad7"
   d="m 180.257,246.363 c 0.54,-0.011 0.912,-0.376 1.424,-0.508 0.396,-0.103 0.828,-0.171 1.265,-0.213 -0.95,0.284 -2.537,0.747 -2.658,1.661 -0.023,0.182 0.212,0.318 0.356,0.224 0.012,-0.01 0.027,-0.017 0.041,-0.025 0.695,-0.105 1.348,-0.226 2.006,-0.303 -0.781,0.31 -1.557,0.766 -2.015,1.296 -0.021,0.025 -0.026,0.054 -0.023,0.082 -0.026,0.091 0.048,0.199 0.124,0.248 0.465,0.286 0.867,-0.044 1.4,-0.061 0.179,-0.007 0.359,-0.013 0.538,-0.018 -0.882,0.393 -1.689,0.939 -2.003,1.79 -0.048,0.127 0.072,0.256 0.184,0.286 0.276,0.075 0.403,-0.122 0.561,-0.33 0.495,-0.649 1.441,-1.136 2.188,-1.395 0.259,-0.091 0.523,-0.183 0.789,-0.269 0.109,0.016 0.217,0.028 0.325,0.052 1.463,0.333 3.173,0.794 4.271,1.484 -0.006,-0.005 -0.012,0.002 -0.008,0.007 l 0.066,0.112 c 0.024,0.078 0.179,0.13 0.17,0.013 -0.088,-1.279 -2.231,-1.767 -3.396,-2.02 0.178,-0.025 0.355,-0.043 0.536,-0.049 0.643,-0.016 1.683,-0.073 2.348,0.178 0.011,0.008 0.022,0.016 0.033,0.023 0.015,0.012 0.038,0.016 0.058,0.01 0.011,0.006 0.023,0.009 0.035,0.016 0.048,0.021 0.057,-0.046 0.019,-0.068 l -0.027,-0.015 c -0.063,-0.61 -0.685,-1.071 -1.425,-1.397 0.462,0.007 0.915,0.024 1.333,0.054 0.026,0.001 0.04,-0.025 0.021,-0.047 -0.018,-0.019 -0.035,-0.039 -0.053,-0.06 -0.004,-0.005 -0.012,-0.002 -0.01,0.004 -10e-4,-0.002 -0.003,-0.006 -0.005,-0.01 0.034,-0.012 0.042,-0.065 0.018,-0.099 -0.563,-0.759 -1.445,-1.251 -2.377,-1.569 0.663,-0.033 1.341,0.063 1.969,-0.043 -0.008,0.001 -0.009,0.01 -0.003,0.014 0.039,0.027 0.078,0.054 0.117,0.081 0.031,0.022 0.063,0.022 0.088,-0.006 0.006,-0.008 0.014,-0.015 0.019,-0.022 0.042,-0.047 -0.011,-0.117 -0.051,-0.14 -1.14,-0.655 -2.422,-0.56 -3.655,-0.259 -0.06,-0.01 -0.12,-0.022 -0.179,-0.032 -1.458,-0.229 -3.494,-0.217 -4.609,0.918 -0.156,0.155 -0.006,0.409 0.195,0.405 z m 5.273,0.874 c 0.591,0.084 1.169,0.226 1.715,0.494 0.057,0.027 0.132,0.072 0.214,0.119 -0.97,-0.153 -2.175,-0.008 -2.78,0.192 -0.126,0.043 -0.26,0.085 -0.398,0.129 -0.563,-0.08 -1.129,-0.123 -1.708,-0.086 -0.234,0.016 -0.484,0.02 -0.73,0.042 1.091,-0.522 2.391,-0.78 3.687,-0.89 z m -2.412,-0.843 c 0.281,-0.105 0.565,-0.208 0.848,-0.318 0.314,-0.125 0.635,-0.243 0.958,-0.346 0.72,0.136 1.408,0.334 2.098,0.594 0.246,0.092 1.23,0.422 1.48,0.582 -0.525,-0.258 -1.799,-0.304 -2.075,-0.298 -0.254,0.007 -0.506,0.019 -0.755,0.033 -0.189,-0.035 -0.358,-0.063 -0.494,-0.077 -0.624,-0.071 -1.345,-0.165 -2.06,-0.17 z"
   id="path643" />

		</g>

		<g
   id="g644">
			<path
   style="fill:#eec9a5"
   d="m 172.608,141.94 c 0,0 1.282,0 3.26,0 6.713,0 19.79,0 19.801,0 0,0.839 -4.297,47.073 -4.581,51.589 -0.954,15.213 -4.023,46.87 -4.106,48.206 0,0 -1.711,0.707 -5.474,0 l -3.054,-47.785 -3.105,-36.586 c 0,0 -0.587,-1.01 -1.11,-1.053 -0.523,0.043 -0.996,1.158 -0.996,1.158 l -3.632,36.588 -2.382,47.704 c -4.614,0.854 -6.04,-0.026 -6.04,-0.026 -0.084,-1.336 -2.071,-29.133 -3.001,-48.613 -1.18,-24.747 -5.304,-50.713 -5.304,-51.182 0.01,0 13.011,0 19.724,0 z"
   id="path644" />

		</g>

		<g
   id="g651">
			<g
   id="g645">
				<path
   style="fill:#5c3c28"
   d="m 172.608,141.94 c 0,0 1.282,0 3.26,0 6.713,0 19.79,0 19.801,0 0,0.839 -1.581,45.633 -1.864,50.148 -0.371,5.936 -0.736,11.87 -1.105,17.806 -2.739,0.967 -9.084,2.577 -15.958,-0.014 l -1.534,-51.93 c 0,0 -0.446,-1.002 -0.97,-1.045 -0.523,0.043 -0.97,1.112 -0.97,1.112 l -1.53,51.802 c -2.558,0.934 -8.813,2.639 -15.669,0.244 -1.403,-28.674 -3.187,-67.541 -3.187,-68.124 0.012,0.001 13.013,0.001 19.726,0.001 z"
   id="path645" />

			</g>

			<g
   id="g647">
				<path
   style="fill:#553724"
   d="m 157.965,193.875 c 4.728,0.058 9.486,-0.047 14.248,-0.099 l -0.474,16.044 c -2.558,0.934 -8.813,2.639 -15.669,0.244 -0.253,-5.176 -0.52,-10.686 -0.785,-16.241 0.893,0.024 1.786,0.041 2.68,0.052 z"
   id="path646" />

				<path
   style="fill:#553724"
   d="m 193.647,194.644 c -0.317,5.085 -0.632,10.168 -0.948,15.251 -2.739,0.967 -9.084,2.577 -15.958,-0.014 l -0.476,-16.129 c 5.821,-0.007 11.633,0.165 17.382,0.892 z"
   id="path647" />

			</g>

			<g
   id="g648">
				<polygon
   style="fill:#4f3423"
   points="194.127,186.268 187.766,186.384 188.048,201.966 193.189,204.477 "
   id="polygon647" />

				<polygon
   style="fill:#6d4730"
   points="194.127,186.268 187.766,186.384 187.828,189.88 193.996,190.352 "
   id="polygon648" />

			</g>

			<g
   id="g650">
				<polygon
   style="fill:#4f3423"
   points="154.917,186.268 161.277,186.384 160.996,201.966 155.854,204.477 "
   id="polygon649" />

				<polygon
   style="fill:#6d4730"
   points="154.917,186.268 161.277,186.384 161.215,189.88 155.047,190.352 "
   id="polygon650" />

			</g>

		</g>

	</g>

	<g
   id="g680">
		<g
   id="g674">
			<g
   id="g659">
				<g
   id="g655">
					<path
   style="fill:#eec9a5"
   d="m 143.985,152.115 c 3.117,0.235 3.959,5.049 4.646,7.404 0.541,1.847 0.881,3.021 1.396,5.753 0.139,0.746 0.476,2.596 -0.373,3.069 -1.09,0.608 -1.681,-1.922 -1.915,-2.567 -0.132,-0.361 -1.072,-3.384 -1.451,-1.925 -0.313,1.205 -0.069,1.682 0.172,2.885 0.38,1.91 2.359,5.056 1.559,6.411 -0.8,1.355 -2.044,-0.659 -2.044,-0.659 0,0 0.146,0.332 -0.579,0.535 -0.723,0.204 -1.708,-0.834 -1.731,-0.854 -0.022,-0.02 0.013,0.379 -0.569,0.166 -0.582,-0.214 -1.509,-1.113 -1.823,-1.418 0,0 -0.72,-0.112 -1.417,-1.004 -0.697,-0.891 -3.749,-7.806 0.167,-16.265 0.566,-1.223 1.641,-1.124 2.868,-1.431 0.386,-0.096 0.751,-0.125 1.094,-0.1 z"
   id="path652" />

					<path
   style="fill:#915f2d"
   d="m 144.427,168.755 c -0.632,-1.759 -1.003,-3.628 -1.324,-5.459 -0.002,-0.013 -0.018,-0.005 -0.017,0.005 0.241,1.889 0.579,3.728 1.167,5.55 0.407,1.258 1.06,2.995 1.962,4 0.021,0.023 0.053,-0.012 0.04,-0.035 -0.762,-1.218 -1.346,-2.717 -1.828,-4.061 z"
   id="path653" />

					<path
   style="fill:#915f2d"
   d="m 141.799,168.265 c -0.555,-1.482 -0.638,-3.063 -1.039,-4.574 -0.003,-0.009 -0.015,-0.001 -0.014,0.005 0.313,1.703 0.463,3.355 1.082,5.003 0.463,1.23 1.034,2.883 2.127,3.737 0.01,0.009 0.022,-0.01 0.014,-0.018 -1.125,-1.009 -1.661,-2.797 -2.17,-4.153 z"
   id="path654" />

					<path
   style="fill:#915f2d"
   d="m 139.169,164.686 c -0.002,-0.013 -0.017,-0.005 -0.016,0.005 0.107,1.248 0.373,2.526 0.796,3.711 0.403,1.127 1.068,2.559 2.074,3.287 0.015,0.011 0.042,-0.019 0.027,-0.031 -1.817,-1.712 -2.569,-4.609 -2.881,-6.972 z"
   id="path655" />

				</g>

				<g
   id="g658">
					<path
   style="fill:#e1b58c"
   d="m 149.055,124.554 3.521,-18.147 c 0.012,-2.082 0.02,-16.498 -0.003,-22.26 0,0 -7.656,0.472 -8.971,5.212 l -4.781,32.905 c 0.928,4.34 8.609,5.535 10.234,2.29 z"
   id="path656" />

					<path
   style="fill:#eec9a5"
   d="m 138.781,122.264 c 0,1.838 -0.006,9.518 0,11.167 0.018,4.368 0.427,10.111 0.936,14.448 0.538,4.567 1.029,7.472 1.567,8.025 l 3.001,-0.113 c 1.938,-0.017 0.768,-4.554 4.671,-28.733 l 0.393,-3.56 c -1.21,-3.682 -9.087,-5.562 -10.568,-1.234 z"
   id="path657" />

					<path
   style="fill:#a4cb38"
   d="m 149.769,113.918 c 0.256,0.04 1.383,0.081 1.642,0.123 l 1.165,-5.306 c 0.012,-1.824 0.001,-22.878 -0.003,-24.589 0,0 -7.752,0.144 -9.067,4.524 l -6.101,22.284 c 3.081,1.196 9.001,2.432 12.364,2.964 z"
   id="path658" />

				</g>

			</g>

			<g
   id="g666">
				<g
   id="g661">
					<path
   style="fill:#e1b58c"
   d="m 198.641,124.554 -3.521,-17.62 c -0.013,-2.083 -0.02,-17.025 0.005,-22.787 0,0 7.654,0.472 8.971,5.212 l 4.781,32.905 c -0.931,4.34 -8.611,5.535 -10.236,2.29 z"
   id="path659" />

					<path
   style="fill:#eec9a5"
   d="m 208.915,122.264 c 0,1.838 0.006,9.518 0,11.167 -0.018,4.368 -0.427,10.111 -0.936,14.448 -0.538,4.567 -1.029,7.472 -1.567,8.025 l -3.001,-0.113 c -1.938,-0.017 -0.768,-4.554 -4.671,-28.733 l -0.394,-3.56 c 1.212,-3.682 9.089,-5.562 10.569,-1.234 z"
   id="path660" />

					<path
   style="fill:#a4cb38"
   d="m 197.928,113.918 c -0.257,0.04 -1.384,0.081 -1.644,0.123 l -1.165,-5.306 c -0.013,-1.824 -0.001,-22.878 0.005,-24.589 0,0 7.751,0.144 9.066,4.524 l 6.101,22.284 c -3.081,1.196 -9.001,2.432 -12.363,2.964 z"
   id="path661" />

				</g>

				<g
   id="g665">
					<path
   style="fill:#eec9a5"
   d="m 203.938,152.115 c -3.116,0.235 -3.96,5.049 -4.646,7.404 -0.54,1.847 -0.881,3.021 -1.394,5.753 -0.141,0.746 -0.478,2.596 0.371,3.069 1.091,0.608 1.682,-1.922 1.916,-2.567 0.131,-0.361 1.071,-3.384 1.45,-1.925 0.314,1.205 0.069,1.682 -0.171,2.885 -0.38,1.91 -2.359,5.056 -1.56,6.411 0.8,1.355 2.044,-0.659 2.044,-0.659 0,0 -0.146,0.332 0.579,0.535 0.725,0.204 1.709,-0.834 1.731,-0.854 0.024,-0.02 -0.013,0.379 0.569,0.166 0.582,-0.214 1.509,-1.113 1.823,-1.418 0,0 0.72,-0.112 1.417,-1.004 0.697,-0.891 3.75,-7.806 -0.167,-16.265 -0.565,-1.223 -1.641,-1.124 -2.868,-1.431 -0.386,-0.096 -0.751,-0.125 -1.094,-0.1 z"
   id="path662" />

					<path
   style="fill:#915f2d"
   d="m 203.496,168.755 c 0.632,-1.759 1.004,-3.628 1.325,-5.459 0.001,-0.013 0.017,-0.005 0.016,0.005 -0.24,1.889 -0.579,3.728 -1.167,5.55 -0.406,1.258 -1.06,2.995 -1.961,4 -0.021,0.023 -0.053,-0.012 -0.04,-0.035 0.761,-1.218 1.345,-2.717 1.827,-4.061 z"
   id="path663" />

					<path
   style="fill:#915f2d"
   d="m 206.124,168.265 c 0.555,-1.482 0.638,-3.063 1.039,-4.574 0.002,-0.009 0.015,-0.001 0.014,0.005 -0.313,1.703 -0.463,3.355 -1.082,5.003 -0.463,1.23 -1.033,2.883 -2.127,3.737 -0.01,0.009 -0.023,-0.01 -0.014,-0.018 1.125,-1.009 1.662,-2.797 2.17,-4.153 z"
   id="path664" />

					<path
   style="fill:#915f2d"
   d="m 208.753,164.686 c 0.001,-0.013 0.018,-0.005 0.017,0.005 -0.107,1.248 -0.374,2.526 -0.797,3.711 -0.403,1.127 -1.068,2.559 -2.074,3.287 -0.016,0.011 -0.042,-0.019 -0.027,-0.031 1.817,-1.712 2.569,-4.609 2.881,-6.972 z"
   id="path665" />

				</g>

			</g>

			<path
   style="fill:#4a7642"
   d="m 152.523,124.374 c 0,0 -0.718,-36.7 -0.267,-40.228 l 21.442,-4.955 21.441,4.955 c 0.449,3.527 -0.268,40.228 -0.268,40.228 0,1.458 1.223,15.997 0.239,18.003 -0.005,0.013 -0.01,0.026 -0.017,0.04 -0.007,0.015 -0.017,0.023 -0.025,0.036 -0.019,0.026 -0.036,0.053 -0.062,0.077 -0.016,0.017 -0.033,0.033 -0.049,0.043 -1.265,1.083 -9.484,1.93 -19.608,1.984 v 0.001 c -0.081,0 -1.307,0.001 -1.652,0.001 -0.347,0 -1.572,-0.001 -1.653,-0.001 v -0.001 c -10.125,-0.055 -18.344,-0.901 -19.608,-1.984 -0.016,-0.01 -0.033,-0.026 -0.05,-0.043 -0.025,-0.024 -0.043,-0.051 -0.062,-0.077 -0.007,-0.013 -0.017,-0.021 -0.024,-0.036 -0.008,-0.014 -0.013,-0.027 -0.018,-0.04 -0.982,-2.006 0.241,-16.545 0.241,-18.003 z"
   id="path666" />

			<path
   style="fill:#326541"
   d="m 152.352,114.7 h 42.689 c -0.089,5.581 -0.169,9.674 -0.169,9.674 0,1.458 1.223,15.997 0.239,18.003 -0.005,0.013 -0.01,0.026 -0.017,0.04 -0.007,0.015 -0.017,0.023 -0.025,0.036 -0.019,0.026 -0.036,0.053 -0.062,0.077 -0.016,0.017 -0.033,0.033 -0.049,0.043 -1.265,1.083 -9.484,1.93 -19.608,1.984 v 0.001 c -0.081,0 -1.307,0.001 -1.652,0.001 -0.347,0 -1.572,-0.001 -1.653,-0.001 v -0.001 c -10.125,-0.055 -18.344,-0.901 -19.608,-1.984 -0.016,-0.01 -0.033,-0.026 -0.05,-0.043 -0.025,-0.024 -0.043,-0.051 -0.062,-0.077 -0.007,-0.013 -0.017,-0.021 -0.024,-0.036 -0.008,-0.014 -0.013,-0.027 -0.018,-0.04 -0.983,-2.006 0.239,-16.545 0.239,-18.003 0.001,0 -0.08,-4.093 -0.17,-9.674 z"
   id="path667" />

			<g
   id="g669">
				<path
   style="fill:#326541"
   d="m 151.671,112.853 -0.26,1.188 c -0.259,-0.042 -1.386,-0.083 -1.642,-0.123 -3.363,-0.532 -9.283,-1.768 -12.365,-2.963 l 0.355,-1.295 c 6.096,2.134 11.762,2.944 13.912,3.193 z"
   id="path668" />

				<path
   style="fill:#326541"
   d="m 210.292,110.955 c -3.082,1.195 -9.002,2.431 -12.364,2.963 -0.257,0.04 -1.384,0.081 -1.644,0.123 l -0.283,-1.287 c 2.674,-0.351 8.136,-1.263 13.862,-3.359 z"
   id="path669" />

			</g>

			<g
   id="g670">
				<path
   style="fill:#a4cb38"
   d="m 188.838,82.69 c 0,1.27 -11.139,9.452 -15.203,9.452 -4.063,0 -15.163,-8.162 -15.163,-9.432 0,0 5.632,-4.49 15.183,-4.468 10.347,0.026 15.183,4.448 15.183,4.448 z"
   id="path670" />

			</g>

			<path
   style="fill:#e1b58c"
   d="m 168.026,83.979 c 0,1.185 2.835,6.745 5.67,6.745 2.835,0 5.671,-5.561 5.671,-6.745 V 73.396 c 0,-2.367 -1.919,-4.287 -4.287,-4.287 h -2.769 c -2.368,0 -4.286,1.92 -4.286,4.287 v 10.583 z"
   id="path671" />

			<g
   id="g673">
				<path
   style="fill:#a4cb38"
   d="m 178.159,117.754 c 0.175,0 0.316,-0.141 0.316,-0.316 0,-0.751 -0.04,-18.499 -3.501,-26.182 -0.071,-0.159 -0.258,-0.23 -0.418,-0.159 -0.159,0.071 -0.229,0.259 -0.158,0.418 3.406,7.56 3.446,25.74 3.446,25.923 0,0.175 0.141,0.316 0.315,0.316 z"
   id="path672" />

				<path
   style="fill:#a4cb38"
   d="m 170.162,117.754 c 0.174,0 0.315,-0.141 0.315,-0.316 0,-0.183 0.04,-18.363 3.446,-25.923 0.071,-0.159 0.001,-0.347 -0.158,-0.418 -0.159,-0.073 -0.347,-10e-4 -0.418,0.159 -3.462,7.683 -3.501,25.431 -3.501,26.182 0,0.175 0.141,0.316 0.316,0.316 z"
   id="path673" />

			</g>

		</g>

		<g
   id="g679">
			<rect
   x="139.58"
   y="149.77299"
   style="fill:#4d4d4c"
   width="6.6760001"
   height="2.983"
   id="rect674" />

			<rect
   x="139.58"
   y="149.77299"
   style="fill:#3b3b3a"
   width="4.9499998"
   height="2.983"
   id="rect675" />

			<g
   id="g676">
				<path
   style="fill:#242422"
   d="m 142.93,150.967 c -0.078,-1.339 -0.823,-2.406 -1.729,-2.566 0.036,-0.004 0.069,-0.019 0.104,-0.021 1.04,-0.06 1.953,1.099 2.039,2.587 0.086,1.489 -0.686,2.745 -1.726,2.805 -0.104,0.006 -0.208,-0.004 -0.309,-0.021 0.985,-0.138 1.705,-1.349 1.621,-2.784 z"
   id="path675" />

				<path
   style="fill:#666564"
   d="m 139.58,151.184 c -0.083,-1.436 0.637,-2.645 1.622,-2.783 0.906,0.16 1.651,1.227 1.729,2.566 0.083,1.436 -0.637,2.646 -1.62,2.783 -0.907,-0.159 -1.653,-1.227 -1.731,-2.566 z"
   id="path676" />

			</g>

			<path
   style="fill:#242422"
   d="m 140.809,151.169 c 0,0.053 0.042,0.095 0.094,0.095 h 1.552 c 0.052,0 0.094,-0.042 0.094,-0.095 v 0 c 0,-0.052 -0.042,-0.094 -0.094,-0.094 h -1.552 c -0.052,0 -0.094,0.042 -0.094,0.094 z"
   id="path677" />

			<path
   style="fill:#242422"
   d="m 140.883,151.264 c 0.042,0 0.074,-0.033 0.074,-0.075 v -1.228 c 0,-0.042 -0.032,-0.075 -0.074,-0.075 v 0 c -0.04,0 -0.074,0.033 -0.074,0.075 v 1.228 c 0,0.041 0.034,0.075 0.074,0.075 z"
   id="path678" />

			<path
   style="fill:#797876"
   d="m 139.58,151.184 c 0.078,1.34 0.824,2.407 1.73,2.566 0.983,-0.137 1.704,-1.348 1.62,-2.783 -0.078,-1.339 -0.823,-2.406 -1.729,-2.566 -0.984,0.138 -1.704,1.347 -1.621,2.783 z m 0.388,-0.106 c -0.064,-1.107 0.49,-2.037 1.245,-2.143 0.698,0.122 1.27,0.944 1.331,1.973 0.063,1.107 -0.491,2.037 -1.246,2.143 -0.698,-0.122 -1.271,-0.944 -1.33,-1.973 z"
   id="path679" />

		</g>

	</g>

	<g
   id="g715">
		<g
   id="g714">
			<g
   id="g683">
				<g
   id="g681">
					<path
   style="fill:#ffd3ab"
   d="m 143.853,59.198 c 0.117,4.033 2.339,4.91 4.104,4.396 -0.409,-3.116 1.139,-7.312 1.139,-7.312 -0.538,-2.063 -2.396,-1.656 -2.396,-1.656 0,0 -2.966,0.54 -2.847,4.572 z"
   id="path680" />

				</g>

				<g
   id="g682">
					<path
   style="fill:#ffea52"
   d="m 147.956,63.595 c -1.764,0.514 -3.986,-0.363 -4.104,-4.396 -0.119,-4.032 2.847,-4.571 2.847,-4.571 -2.101,-2.253 -3.048,-6.708 -3.048,-6.708 0,0 -15.319,9.922 -11.498,18.197 3.417,7.399 18.425,3.282 18.425,3.282 -0.865,-1.112 -2.213,-2.689 -2.622,-5.804 z"
   id="path681" />

				</g>

			</g>

			<g
   id="g684">
				<path
   style="fill:#eec9a5"
   d="m 196.244,48.828 c -2.336,-2.737 -6.961,-5.45 -6.961,-5.45 -0.821,3.164 -0.557,4.479 -0.557,4.479 -3.073,-2.137 -4.452,-6.218 -4.452,-6.218 -3.216,1.565 -8.593,2.744 -8.593,2.744 0.744,-1.345 1.73,-2.129 1.73,-2.129 -7.813,1.829 -13.244,3.886 -13.244,3.886 0.449,-1.316 2.159,-3.846 2.159,-3.846 -7.465,1.844 -13.725,5.976 -13.725,5.976 0.327,-2.22 1.458,-3.695 1.458,-3.695 -6.194,3.037 -5.827,6.956 -5.827,6.956 0.997,2.884 0.865,4.753 0.865,4.753 0,0 -1.548,4.195 -1.139,7.312 0.408,3.115 1.757,4.692 2.623,5.804 3.54,5.099 10.299,6.673 10.299,6.673 0,0 14.811,4.563 24.678,-0.421 13.5,-5.708 12.928,-16.351 12.928,-16.351 -0.14,-1.361 -0.601,-2.99 -1.461,-5.5 -0.86,-2.514 -0.781,-4.973 -0.781,-4.973 z"
   id="path683" />

			</g>

			<g
   id="g687">
				<g
   id="g685">
					<path
   style="fill:#663e19"
   d="m 199.567,50.966 1.331,-4.762 c 0,0 -10.766,-6.691 -29.969,-5.653 -19.203,1.038 -27.278,7.368 -27.278,7.368 0,0 0.948,4.455 3.048,6.708 0,0 1.857,-0.406 2.396,1.656 0,0 0.133,-1.869 -0.865,-4.753 0,0 -0.367,-3.919 5.827,-6.956 0,0 -1.13,1.476 -1.458,3.695 0,0 6.26,-4.132 13.725,-5.976 0,0 -1.71,2.529 -2.159,3.846 0,0 5.432,-2.057 13.244,-3.886 0,0 -0.986,0.784 -1.73,2.129 0,0 5.377,-1.179 8.593,-2.744 0,0 1.379,4.081 4.452,6.218 0,0 -0.265,-1.314 0.557,-4.479 0,0 4.625,2.713 6.961,5.45 0,0 -0.048,1.535 0.354,3.416 0.86,-1.774 2.971,-1.277 2.971,-1.277 z"
   id="path684" />

				</g>

				<g
   id="g686">
					<path
   style="fill:#ffd3ab"
   d="m 202.547,55.016 c 0.473,-3.046 -2.98,-4.05 -2.98,-4.05 0,0 -2.111,-0.497 -2.97,1.278 0.109,0.501 0.245,1.026 0.427,1.556 0.86,2.51 1.321,4.139 1.461,5.5 0,0 3.387,0.077 4.062,-4.284 z"
   id="path685" />

				</g>

			</g>

			<g
   id="g689">
				<g
   id="g688">
					<path
   style="fill:#2779f2"
   d="m 170.111,17.569 c -0.243,0.012 -0.483,0.021 -0.729,0.037 -0.398,0.024 -0.789,0.058 -1.175,0.092 -28.357,2.536 -24.555,30.221 -24.555,30.221 0,0 3.854,-3.019 12.561,-5.229 3.902,-0.991 8.774,-1.818 14.717,-2.14 6,-0.325 11.177,0.105 15.459,0.852 9.42,1.639 14.51,4.802 14.51,4.802 2.828,-7.165 -3.092,-29.975 -30.788,-28.635 z"
   id="path687" />

				</g>

				<path
   style="fill:#1664c1"
   d="m 168.207,17.698 c 0,0 -0.471,0.119 -1.26,0.417 -0.789,0.296 -1.885,0.799 -3.112,1.553 -0.605,0.384 -1.254,0.817 -1.883,1.348 -0.629,0.526 -1.265,1.116 -1.856,1.784 -0.311,0.32 -0.579,0.689 -0.87,1.044 -0.26,0.377 -0.551,0.741 -0.784,1.148 -0.515,0.785 -0.916,1.651 -1.296,2.522 -0.351,0.885 -0.665,1.786 -0.879,2.7 -0.105,0.457 -0.223,0.91 -0.285,1.367 -0.073,0.455 -0.16,0.901 -0.191,1.351 -0.105,0.892 -0.139,1.759 -0.176,2.583 0.011,0.824 -0.003,1.607 0.062,2.325 0.023,0.36 0.045,0.704 0.067,1.035 0.034,0.325 0.067,0.636 0.097,0.929 0.055,0.585 0.119,1.093 0.192,1.51 0.124,0.836 0.195,1.314 0.195,1.314 0,0 -0.108,-0.472 -0.296,-1.297 -0.1,-0.412 -0.194,-0.918 -0.285,-1.502 -0.048,-0.291 -0.102,-0.601 -0.156,-0.928 -0.041,-0.328 -0.072,-0.677 -0.11,-1.038 -0.093,-0.724 -0.108,-1.514 -0.151,-2.349 0.005,-0.836 -10e-4,-1.721 0.104,-2.631 0.027,-0.457 0.109,-0.916 0.178,-1.383 0.058,-0.467 0.172,-0.932 0.275,-1.402 0.209,-0.938 0.518,-1.872 0.871,-2.787 0.403,-0.895 0.83,-1.781 1.369,-2.585 0.246,-0.416 0.55,-0.789 0.823,-1.174 0.305,-0.362 0.585,-0.737 0.909,-1.063 0.614,-0.688 1.296,-1.262 1.958,-1.775 0.661,-0.52 1.338,-0.935 1.969,-1.304 1.273,-0.724 2.424,-1.138 3.23,-1.392 0.811,-0.248 1.291,-0.32 1.291,-0.32 z"
   id="path688" />

				<path
   style="fill:#1664c1"
   d="m 186.389,41.402 c 0,0 -0.038,-0.502 -0.105,-1.376 -0.023,-0.439 -0.068,-0.969 -0.141,-1.574 -0.065,-0.605 -0.137,-1.286 -0.251,-2.028 -0.056,-0.37 -0.1,-0.759 -0.172,-1.156 -0.074,-0.395 -0.151,-0.804 -0.231,-1.228 -0.068,-0.422 -0.19,-0.845 -0.289,-1.283 -0.052,-0.22 -0.103,-0.44 -0.155,-0.663 -0.061,-0.221 -0.124,-0.443 -0.187,-0.668 -0.126,-0.447 -0.246,-0.908 -0.41,-1.357 -0.156,-0.453 -0.3,-0.917 -0.494,-1.365 -0.179,-0.455 -0.361,-0.912 -0.582,-1.354 l -0.318,-0.67 -0.356,-0.65 c -0.464,-0.874 -1.008,-1.703 -1.597,-2.475 -0.588,-0.777 -1.251,-1.47 -1.927,-2.103 -0.692,-0.614 -1.404,-1.157 -2.116,-1.62 -0.718,-0.457 -1.439,-0.819 -2.122,-1.114 -0.685,-0.295 -1.337,-0.504 -1.919,-0.671 -0.583,-0.166 -1.104,-0.267 -1.537,-0.336 -0.864,-0.138 -1.368,-0.142 -1.368,-0.142 0,0 0.126,-0.002 0.361,-0.009 0.236,0.003 0.583,0.002 1.019,0.05 0.439,0.044 0.972,0.112 1.572,0.245 0.599,0.133 1.276,0.306 1.981,0.586 1.417,0.538 3.002,1.403 4.436,2.668 0.704,0.643 1.396,1.349 2.009,2.14 0.616,0.788 1.187,1.632 1.672,2.525 l 0.356,0.671 0.319,0.69 c 0.218,0.455 0.4,0.924 0.578,1.39 0.19,0.461 0.333,0.934 0.486,1.397 0.159,0.46 0.278,0.927 0.4,1.384 0.129,0.456 0.241,0.907 0.322,1.356 0.083,0.447 0.191,0.88 0.246,1.31 0.063,0.428 0.127,0.844 0.188,1.246 0.059,0.403 0.088,0.796 0.131,1.171 0.093,0.747 0.123,1.439 0.151,2.052 0.038,0.611 0.052,1.144 0.048,1.583 0.001,0.875 0.002,1.378 0.002,1.378 z"
   id="path689" />

			</g>

			<g
   id="g691">
				<path
   style="fill:#b78155"
   d="m 145.316,58.497 c 0,0 0.005,-0.079 0.02,-0.216 0.003,-0.07 0.043,-0.148 0.076,-0.248 0.028,-0.104 0.105,-0.19 0.18,-0.298 0.093,-0.087 0.193,-0.195 0.337,-0.253 0.067,-0.042 0.142,-0.068 0.222,-0.084 0.079,-0.023 0.162,-0.04 0.247,-0.032 0.17,-0.01 0.35,0.026 0.511,0.102 0.167,0.071 0.306,0.188 0.437,0.309 0.109,0.138 0.219,0.277 0.283,0.433 0.089,0.147 0.114,0.311 0.158,0.46 0.045,0.15 0.038,0.303 0.056,0.441 0.02,0.141 -0.007,0.271 -0.011,0.393 -0.006,0.241 -0.075,0.434 -0.1,0.57 -0.032,0.133 -0.057,0.209 -0.057,0.209 0,0 -0.012,-0.081 -0.02,-0.218 -0.009,-0.136 -0.012,-0.331 -0.051,-0.557 -0.022,-0.112 -0.021,-0.238 -0.057,-0.36 -0.035,-0.123 -0.05,-0.259 -0.1,-0.385 -0.047,-0.126 -0.089,-0.262 -0.16,-0.379 -0.056,-0.128 -0.147,-0.229 -0.23,-0.336 -0.097,-0.09 -0.194,-0.181 -0.313,-0.232 -0.111,-0.056 -0.232,-0.1 -0.354,-0.103 -0.061,-0.011 -0.12,-0.002 -0.179,0.006 -0.06,0.002 -0.118,0.01 -0.17,0.033 -0.113,0.029 -0.203,0.097 -0.296,0.148 -0.069,0.075 -0.163,0.13 -0.205,0.205 -0.05,0.071 -0.109,0.129 -0.132,0.197 -0.053,0.126 -0.092,0.195 -0.092,0.195 z"
   id="path690" />

				<path
   style="fill:#b78155"
   d="m 146.083,59.32 c 0,0 -0.016,-0.041 -0.039,-0.111 -0.02,-0.064 -0.041,-0.189 -0.016,-0.326 0.01,-0.069 0.029,-0.145 0.069,-0.218 0.03,-0.079 0.087,-0.147 0.148,-0.216 0.065,-0.063 0.137,-0.131 0.229,-0.173 0.088,-0.044 0.185,-0.082 0.288,-0.092 0.102,-0.015 0.206,-0.003 0.304,0.017 0.101,0.022 0.189,0.068 0.267,0.122 0.155,0.107 0.248,0.254 0.3,0.379 0.097,0.256 0.059,0.434 0.068,0.431 0,0 -0.03,-0.033 -0.075,-0.091 -0.033,-0.063 -0.11,-0.135 -0.186,-0.216 -0.082,-0.078 -0.176,-0.154 -0.285,-0.201 -0.053,-0.027 -0.111,-0.035 -0.168,-0.049 -0.058,-0.005 -0.117,-0.013 -0.176,0.002 -0.239,0.023 -0.458,0.197 -0.571,0.381 -0.054,0.092 -0.105,0.172 -0.119,0.249 -0.02,0.071 -0.038,0.112 -0.038,0.112 z"
   id="path691" />

			</g>

			<g
   id="g693">
				<path
   style="fill:#b78155"
   d="m 198.559,56.86 c 0,0 -0.034,-0.059 -0.082,-0.166 -0.05,-0.104 -0.11,-0.264 -0.16,-0.472 -0.04,-0.201 -0.068,-0.445 -0.049,-0.708 0.016,-0.263 0.076,-0.541 0.186,-0.808 0.067,-0.13 0.128,-0.262 0.227,-0.376 0.083,-0.12 0.207,-0.22 0.333,-0.295 0.13,-0.08 0.285,-0.11 0.421,-0.111 0.07,0.01 0.137,0.02 0.2,0.031 0.059,0.021 0.111,0.054 0.161,0.079 0.107,0.042 0.167,0.127 0.232,0.183 0.066,0.055 0.101,0.123 0.138,0.171 0.068,0.099 0.101,0.155 0.101,0.155 0,0 -0.061,-0.035 -0.156,-0.101 -0.046,-0.031 -0.098,-0.08 -0.172,-0.107 -0.072,-0.026 -0.143,-0.082 -0.231,-0.092 -0.043,-0.009 -0.085,-0.024 -0.128,-0.028 -0.044,0.004 -0.087,0.006 -0.132,0.004 -0.087,0.021 -0.17,0.053 -0.249,0.112 -0.078,0.058 -0.149,0.136 -0.213,0.23 -0.071,0.085 -0.117,0.199 -0.17,0.304 -0.098,0.221 -0.159,0.462 -0.203,0.691 -0.018,0.117 -0.034,0.231 -0.05,0.336 -0.007,0.11 -0.015,0.214 -0.021,0.31 0.003,0.186 -0.011,0.356 0.009,0.473 0.009,0.119 0.008,0.185 0.008,0.185 z"
   id="path692" />

				<path
   style="fill:#b78155"
   d="m 198.424,56.09 c 0,0 -0.032,-0.148 -0.005,-0.369 0.033,-0.216 0.118,-0.524 0.42,-0.745 0.084,-0.042 0.168,-0.089 0.268,-0.094 0.098,-0.024 0.187,0.007 0.27,0.024 0.158,0.058 0.269,0.151 0.338,0.241 0.085,0.081 0.109,0.178 0.146,0.231 0.027,0.057 0.038,0.094 0.038,0.094 0,0 -0.035,-0.014 -0.095,-0.04 -0.056,-0.025 -0.133,-0.072 -0.227,-0.103 -0.091,-0.04 -0.191,-0.071 -0.283,-0.083 -0.044,0.002 -0.088,-0.001 -0.125,0.013 -0.04,10e-4 -0.075,0.031 -0.115,0.048 -0.079,0.053 -0.154,0.139 -0.229,0.225 -0.068,0.093 -0.138,0.186 -0.193,0.269 -0.12,0.166 -0.208,0.289 -0.208,0.289 z"
   id="path693" />

			</g>

			<path
   style="fill:#b78155"
   d="m 170.814,57.52 c 0,0 0.055,0.138 0.112,0.394 0.049,0.255 0.12,0.633 0.064,1.099 -0.033,0.232 -0.097,0.487 -0.241,0.738 -0.125,0.25 -0.393,0.482 -0.636,0.618 -0.247,0.146 -0.486,0.283 -0.698,0.44 -0.213,0.154 -0.378,0.339 -0.445,0.545 -0.067,0.197 -0.044,0.461 0.049,0.673 0.026,0.081 0.06,0.106 0.085,0.142 0.018,0.037 0.061,0.079 0.102,0.121 0.077,0.085 0.181,0.153 0.286,0.215 0.427,0.251 0.928,0.343 1.348,0.386 0.423,0.034 0.785,0.002 1.027,-0.066 0.118,-0.042 0.217,-0.067 0.274,-0.104 0.064,-0.032 0.096,-0.047 0.096,-0.047 -0.003,-0.009 -0.095,0.118 -0.332,0.246 -0.236,0.117 -0.606,0.251 -1.067,0.275 -0.458,0.021 -1.014,-0.008 -1.568,-0.279 -0.138,-0.069 -0.276,-0.15 -0.4,-0.266 -0.117,-0.085 -0.274,-0.299 -0.322,-0.422 -0.139,-0.314 -0.191,-0.674 -0.082,-1.041 0.125,-0.358 0.392,-0.616 0.647,-0.794 0.258,-0.186 0.532,-0.303 0.767,-0.428 0.239,-0.127 0.405,-0.237 0.536,-0.43 0.126,-0.18 0.214,-0.385 0.274,-0.583 0.105,-0.405 0.136,-0.774 0.131,-1.028 0.003,-0.257 -0.007,-0.404 -0.007,-0.404 z"
   id="path694" />

			<path
   style="fill:#663e19"
   d="m 156.069,50.729 c 0,0 0.694,-3.941 2.71,-4.104 2.5,-0.201 3.285,3.1 3.285,3.1 0,0 -1.588,-2.464 -3.392,-2.016 -2.053,0.513 -2.603,3.02 -2.603,3.02 z"
   id="path695" />

			<path
   style="fill:#663e19"
   d="m 186.611,48.256 c 0,0 -0.552,-3.837 -3.262,-4.184 -2.781,-0.358 -3.89,4.537 -3.89,4.537 0,0 1.677,-3.751 3.577,-3.745 2.347,0.01 3.575,3.392 3.575,3.392 z"
   id="path696" />

			<g
   id="g698">
				<path
   d="m 185.182,53.909 c 0.105,1.569 -0.278,2.872 -0.858,2.911 -0.58,0.039 -1.134,-1.201 -1.239,-2.771 -0.104,-1.568 0.28,-2.871 0.859,-2.911 0.579,-0.038 1.134,1.203 1.238,2.771 z"
   id="path697" />

				<path
   style="fill:#ffffff"
   d="m 184.895,53.343 c 0.053,0.785 -0.14,1.435 -0.429,1.455 -0.289,0.021 -0.567,-0.6 -0.62,-1.385 -0.052,-0.784 0.139,-1.437 0.43,-1.455 0.29,-0.02 0.567,0.6 0.619,1.385 z"
   id="path698" />

			</g>

			<g
   id="g700">
				<path
   d="m 161.138,55.435 c 0.105,1.569 -0.281,2.872 -0.859,2.91 -0.58,0.039 -1.133,-1.202 -1.239,-2.771 -0.105,-1.57 0.28,-2.873 0.859,-2.91 0.579,-0.039 1.134,1.201 1.239,2.771 z"
   id="path699" />

				<path
   style="fill:#ffffff"
   d="m 160.851,54.866 c 0.052,0.785 -0.14,1.438 -0.431,1.457 -0.289,0.019 -0.566,-0.602 -0.619,-1.387 -0.052,-0.783 0.14,-1.435 0.429,-1.455 0.29,-0.018 0.568,0.602 0.621,1.385 z"
   id="path700" />

			</g>

			<g
   style="opacity:0.6"
   id="g701">
				<path
   style="fill:#2b7ad8"
   d="m 162.339,39.351 c 0,0 7.174,-3.126 16.962,-1.081 0,0 -0.747,-9.381 -9.063,-9.027 -8.316,0.354 -7.899,10.108 -7.899,10.108 z"
   id="path701" />

			</g>

			<g
   id="g702">
				<path
   style="fill:#663e19"
   d="m 162.648,38.804 c 0,0 6.745,-2.939 15.949,-1.018 0,0 -0.702,-8.82 -8.521,-8.487 -7.82,0.332 -7.428,9.505 -7.428,9.505 z"
   id="path702" />

			</g>

			<g
   style="opacity:0.4"
   id="g703">
				<path
   style="fill:#663e19"
   d="m 172.768,29.594 c 3.379,1.776 3.748,6.37 3.748,6.37 -7.651,-1.599 -13.257,0.846 -13.257,0.846 0,0 -0.067,-1.61 0.489,-3.377 -1.217,2.564 -1.099,5.371 -1.099,5.371 0,0 6.745,-2.939 15.949,-1.018 0,0 -0.535,-6.681 -5.83,-8.192 z"
   id="path703" />

			</g>

			<g
   id="g708">
				<path
   style="fill:#b78155"
   d="m 162.02,68.039 c 0.902,0.488 1.872,0.833 2.857,1.093 0.494,0.126 0.99,0.243 1.493,0.321 0.499,0.096 1.008,0.141 1.513,0.188 l 0.761,0.044 0.761,0.005 c 0.509,0.02 1.015,-0.039 1.524,-0.055 0.503,-0.067 1.011,-0.096 1.509,-0.193 0.505,-0.092 0.995,-0.166 1.493,-0.301 l 1.496,-0.357 c 0.501,-0.11 0.999,-0.231 1.482,-0.385 l 1.467,-0.433 c 0.491,-0.134 0.963,-0.335 1.446,-0.497 0.48,-0.178 0.968,-0.329 1.434,-0.536 0.469,-0.199 0.951,-0.375 1.411,-0.595 0.456,-0.227 0.931,-0.422 1.374,-0.675 0.452,-0.236 0.901,-0.482 1.325,-0.763 l 0.021,0.103 c -0.157,-0.052 -0.295,-0.124 -0.424,-0.215 -0.067,-0.04 -0.122,-0.096 -0.182,-0.146 -0.062,-0.05 -0.114,-0.106 -0.161,-0.17 -0.047,-0.062 -0.105,-0.114 -0.14,-0.185 l -0.113,-0.203 c -0.042,-0.063 -0.058,-0.142 -0.087,-0.212 l -0.076,-0.216 0.092,0.211 c 0.032,0.067 0.051,0.142 0.1,0.202 l 0.126,0.19 c 0.037,0.066 0.099,0.111 0.146,0.169 0.051,0.058 0.103,0.111 0.164,0.153 0.06,0.045 0.114,0.097 0.18,0.13 0.124,0.081 0.265,0.143 0.4,0.179 l 0.117,0.031 -0.096,0.071 c -0.417,0.308 -0.853,0.58 -1.297,0.841 -0.439,0.271 -0.91,0.483 -1.362,0.728 -0.458,0.238 -0.936,0.43 -1.403,0.648 -0.465,0.222 -0.95,0.397 -1.432,0.576 -0.485,0.172 -0.958,0.377 -1.456,0.52 l -1.479,0.453 c -0.492,0.163 -0.989,0.288 -1.489,0.404 l -1.496,0.353 c -0.494,0.128 -1.021,0.205 -1.526,0.291 -0.508,0.093 -1.027,0.117 -1.54,0.179 -0.518,0.012 -1.035,0.064 -1.552,0.04 -0.259,-0.008 -0.517,-0.013 -0.776,-0.028 l -0.772,-0.069 c -0.512,-0.064 -1.025,-0.129 -1.53,-0.241 -0.506,-0.099 -1.008,-0.226 -1.499,-0.382 -0.492,-0.155 -0.977,-0.335 -1.446,-0.543 -0.468,-0.207 -0.929,-0.441 -1.358,-0.723 z"
   id="path704" />

				<g
   id="g707">
					<path
   style="fill:#aa4d4d"
   d="m 169.561,73.622 c 2.197,1.148 5.449,1.345 8.551,-0.652 -4.596,-2.082 -7.568,-0.173 -8.551,0.652 z"
   id="path705" />

					<path
   style="fill:#ffffff"
   d="m 172.895,71.152 c 4.775,-0.438 7.296,-1.821 7.989,-3.892 -1.871,0.75 -4.339,1.554 -7.441,2.196 -3.08,0.637 -5.653,0.44 -7.575,0.021 1.095,0.912 3.242,2.022 7.027,1.675 z"
   id="path706" />

					<path
   style="fill:#700d0d"
   d="m 180.884,67.26 c -0.693,2.071 -3.214,3.455 -7.989,3.892 -3.784,0.347 -5.932,-0.764 -7.027,-1.676 -0.748,-0.164 -1.4,-0.359 -1.942,-0.555 0,0 1.166,0.684 4.162,3.646 0.406,0.402 0.905,0.758 1.474,1.055 0.983,-0.825 3.955,-2.734 8.551,-0.652 2.006,-1.292 3.949,-3.497 5.503,-6.959 -0.701,0.366 -1.607,0.797 -2.732,1.249 z"
   id="path707" />

				</g>

			</g>

			<path
   style="opacity:0.5;fill:#ffb6b6"
   d="m 193.007,57.659 c 0.015,1.023 -1.628,1.877 -3.671,1.904 -2.041,0.026 -3.707,-0.781 -3.72,-1.805 -0.014,-1.023 1.629,-1.877 3.671,-1.904 2.04,-0.027 3.707,0.782 3.72,1.805 z"
   id="path708" />

			<path
   style="opacity:0.5;fill:#ffb6b6"
   d="m 160.499,60.956 c 0.177,1.009 -1.313,2.11 -3.324,2.459 -2.012,0.35 -3.785,-0.185 -3.96,-1.194 -0.175,-1.01 1.314,-2.11 3.325,-2.459 2.012,-0.35 3.785,0.185 3.959,1.194 z"
   id="path709" />

			<g
   style="opacity:0.6"
   id="g710">
				<path
   style="fill:#f2c5a0"
   d="m 198.485,59.3 c -0.14,-1.361 -0.601,-2.99 -1.461,-5.5 -0.86,-2.513 -0.78,-4.972 -0.78,-4.972 0,0 -0.507,1.318 0.907,7.477 1.415,6.159 -6.935,19.701 -21.349,20.261 -25.812,1.001 -27.845,-12.971 -27.845,-12.971 0.408,3.115 1.757,4.692 2.623,5.804 3.54,5.099 10.299,6.673 10.299,6.673 0,0 14.811,4.563 24.678,-0.421 13.5,-5.709 12.928,-16.351 12.928,-16.351 z"
   id="path710" />

			</g>

			<g
   id="g711">
				<path
   style="fill:#ffea52"
   d="m 147.996,63.848 c -7.555,3.534 -14.321,1.891 -16.191,-2.507 -0.41,1.599 -0.37,3.217 0.35,4.775 3.417,7.399 18.425,3.282 18.425,3.282 -0.845,-1.079 -2.138,-2.604 -2.584,-5.55 z"
   id="path711" />

			</g>

			<g
   style="opacity:0.6"
   id="g712">
				<path
   style="fill:#2b7ad8"
   d="m 170.111,17.569 c -0.243,0.012 -0.483,0.021 -0.729,0.037 -0.398,0.024 -0.789,0.058 -1.175,0.092 -28.357,2.536 -24.555,30.221 -24.555,30.221 0,0 3.854,-3.019 12.561,-5.229 3.902,-0.991 8.774,-1.818 14.717,-2.14 6,-0.325 11.177,0.105 15.459,0.852 9.42,1.639 14.51,4.802 14.51,4.802 2.828,-7.165 -3.092,-29.975 -30.788,-28.635 z m 24.337,24.444 c -7.508,-1.809 -8.453,-6.028 -8.453,-6.028 -1.3,3.357 -3.865,1.795 -15.767,2.912 -11.9,1.114 -14.745,-1.515 -14.745,-1.515 0.013,3.487 -3.151,5.371 -6.985,5.348 -3.835,-0.023 -5.887,-1.318 -1.702,-10.845 4.184,-9.525 16.386,-13.412 15.354,-12.381 0,0 -4.389,3.751 -6.342,10.669 0,0 5.328,-11.138 12.842,-11.816 7.514,-0.681 12.806,5.338 16.266,12.401 0,0 -0.653,-6.686 -6.249,-10.73 -5.594,-4.044 11.896,-0.284 18.046,9.399 4.638,7.298 5.245,14.393 -2.265,12.586 z"
   id="path712" />

			</g>

			<g
   id="g713">
				<path
   style="fill:#ffea52"
   d="m 167.993,37.442 c 0,0 -0.306,1.655 0.354,3.284 0,0 4.534,-0.546 4.742,-0.748 0.211,-0.201 0.008,-2.297 -0.139,-2.568 -0.144,-0.271 -4.957,0.032 -4.957,0.032 z"
   id="path713" />

			</g>

		</g>

	</g>

</g>
  </g>
</svg>
