<?xml version="1.0" encoding="UTF-8" standalone="no"?>
<!-- Created with Inkscape (http://www.inkscape.org/) -->

<svg
   width="23.124674mm"
   height="66.559868mm"
   viewBox="0 0 23.124674 66.559868"
   version="1.1"
   id="svg1"
   inkscape:version="1.4.2 (f4327f4, 2025-05-13)"
   sodipodi:docname="boy14.svg"
   xmlns:inkscape="http://www.inkscape.org/namespaces/inkscape"
   xmlns:sodipodi="http://sodipodi.sourceforge.net/DTD/sodipodi-0.dtd"
   xmlns="http://www.w3.org/2000/svg"
   xmlns:svg="http://www.w3.org/2000/svg">
  <sodipodi:namedview
     id="namedview1"
     pagecolor="#ffffff"
     bordercolor="#000000"
     borderopacity="0.25"
     inkscape:showpageshadow="2"
     inkscape:pageopacity="0.0"
     inkscape:pagecheckerboard="0"
     inkscape:deskcolor="#d1d1d1"
     inkscape:document-units="mm"
     inkscape:zoom="1.2275954"
     inkscape:cx="-88.79147"
     inkscape:cy="46.432237"
     inkscape:window-width="2880"
     inkscape:window-height="1676"
     inkscape:window-x="-12"
     inkscape:window-y="-12"
     inkscape:window-maximized="1"
     inkscape:current-layer="layer1" />
  <defs
     id="defs1" />
  <g
     inkscape:label="图层 1"
     inkscape:groupmode="layer"
     id="layer1"
     transform="translate(-128.48021,-136.33183)">
    <g
       id="g789"
       transform="matrix(0.26458333,0,0,0.26458333,67.423292,133.55302)">
	<g
   id="g767">
		<g
   id="g742">
			<g
   id="g737">
				<g
   id="g717">
					<path
   style="fill:#a87752"
   d="m 271.107,141.94 c 0,0 1.282,0 3.26,0 6.713,0 19.789,0 19.801,0 0,0.839 -4.299,47.073 -4.582,51.589 -0.953,15.213 -4.023,46.87 -4.105,48.206 0,0 -1.712,0.708 -5.475,0 l -3.053,-47.784 -3.107,-36.587 c 0,0 -0.585,-1.01 -1.109,-1.053 -0.523,0.043 -0.994,1.158 -0.994,1.158 l -3.633,36.588 -2.383,47.704 c -4.613,0.855 -6.041,-0.026 -6.041,-0.026 -0.083,-1.336 -2.07,-29.132 -3,-48.613 -1.18,-24.746 -5.109,-50.712 -5.109,-51.182 0.009,0 12.817,0 19.53,0 z"
   id="path716" />

				</g>

				<g
   id="g726">
					<g
   id="g723">
						<path
   style="fill:#44519e"
   d="m 266.512,241.885 c 0,0 0.191,-1.28 1.652,-0.876 0,0 0.58,-0.158 0.551,1.265 -0.029,1.421 0.242,4.17 0.733,7.321 0.491,3.15 2.093,9.755 -1.905,11.344 -4,1.589 -10.469,1.44 -13.793,-0.071 -3.324,-1.513 -3.1,-5.77 -1.115,-8.806 1.986,-3.035 4.066,-7.755 4.098,-8.338 0.035,-0.583 -0.232,-2.695 0.422,-2.918 0.655,-0.222 2.006,0.062 2.227,0.717 -0.001,0 3.423,-1.888 7.13,0.362 z"
   id="path717" />

						<path
   style="fill:#91a8d7"
   d="m 258.795,243.885 c -0.552,-0.628 -1.273,-1.063 -2.082,-1.091 -0.021,-0.822 -0.003,-1.838 0.441,-1.988 0.655,-0.222 2.006,0.062 2.227,0.717 0,0 0.035,-0.019 0.087,-0.044 -0.508,0.633 -0.71,1.544 -0.673,2.406 z"
   id="path718" />

						<path
   style="fill:#91a8d7"
   d="m 268.41,243.135 c -0.736,-0.26 -1.224,0.17 -1.579,0.747 0.026,-0.192 0.042,-0.385 0.03,-0.578 -0.021,-0.408 -0.123,-0.846 -0.284,-1.224 -0.033,-0.078 -0.075,-0.146 -0.112,-0.221 0.016,0.009 0.031,0.016 0.047,0.025 0,0 0.191,-1.28 1.652,-0.876 0,0 0.58,-0.158 0.551,1.265 -0.005,0.282 0.004,0.632 0.021,1.013 -0.101,-0.059 -0.209,-0.11 -0.326,-0.151 z"
   id="path719" />

						<path
   style="fill:#ffea57"
   d="m 268.895,251.802 c -0.497,-0.769 -1.039,-1.532 -1.691,-2.181 -0.527,-0.523 -1.453,-1.028 -2.027,-1.601 1.547,-0.311 3.034,0.407 4.266,1.535 0.002,0.014 0.004,0.026 0.007,0.039 0.183,1.18 0.522,2.844 0.666,4.547 -0.323,-0.838 -0.766,-1.638 -1.221,-2.339 z"
   id="path720" />

						<path
   style="fill:#ffea57"
   d="m 257.327,246.332 c 0.804,0.2 1.55,0.488 2.253,0.885 -1.795,0.211 -3.769,0.893 -5.047,2.119 -0.298,0.287 -0.561,0.596 -0.806,0.913 0.728,-1.292 1.413,-2.668 1.945,-3.828 0.556,-0.114 1.111,-0.225 1.655,-0.089 z"
   id="path721" />

						<path
   style="fill:#264586"
   d="m 254.43,251.895 c 0.979,2.848 4.568,3.664 7.377,3.634 1.516,-0.016 5.426,-0.039 5.623,-2.073 0.984,1.25 1.727,2.953 1.78,4.494 0.017,0.523 0.018,1.121 -0.042,1.716 -0.395,0.548 -0.918,0.991 -1.625,1.273 -4,1.589 -10.469,1.44 -13.793,-0.071 -1.674,-0.762 -2.445,-2.219 -2.551,-3.865 0.533,-2.01 1.592,-3.898 3.231,-5.108 z"
   id="path722" />

						<path
   style="fill:#400406"
   d="m 269.435,258.247 c -2.629,2.157 -6.344,2.693 -9.633,2.698 -1.809,0.002 -3.455,-0.195 -5.162,-0.829 -1.893,-0.702 -2.963,-1.903 -3.357,-3.89 0,0 -0.008,-10e-4 -0.006,0.005 0.23,1.508 0.85,2.894 2.287,3.604 1.727,0.854 3.455,1.229 5.372,1.293 3.513,0.119 7.841,-0.291 10.541,-2.816 0.041,-0.037 0.005,-0.105 -0.042,-0.065 z"
   id="path723" />

					</g>

					<path
   style="fill:#77b765"
   d="m 265.684,247.217 c 0.331,-1.834 1.713,-3.507 0.77,-5.401 -0.002,-0.005 0.004,-0.008 0.007,-0.004 0.747,1.052 0.509,2.234 0.079,3.357 -0.787,2.058 -1.314,4.225 -1.41,6.439 -0.002,0.02 -0.027,0.011 -0.027,-0.005 0.038,-1.488 0.317,-2.927 0.581,-4.386 z"
   id="path724" />

					<path
   style="fill:#77b765"
   d="m 258.735,245.118 c -0.077,-1.193 -0.309,-2.722 0.722,-3.594 0.014,-0.011 0.037,0.012 0.025,0.023 -1.146,1.283 -0.59,3.261 -0.58,4.819 0.006,1.514 -0.49,3.29 -0.922,4.73 -0.004,0.018 -0.029,0.003 -0.025,-0.012 0.516,-1.835 0.902,-4.072 0.78,-5.966 z"
   id="path725" />

					<path
   style="fill:#fffad7"
   d="m 266.799,245.961 c -1.115,-1.136 -3.152,-1.146 -4.611,-0.918 -0.057,0.01 -0.119,0.022 -0.178,0.032 -1.232,-0.302 -2.516,-0.397 -3.654,0.258 -0.041,0.023 -0.094,0.094 -0.053,0.14 0.007,0.008 0.012,0.015 0.02,0.022 0.025,0.028 0.057,0.028 0.088,0.007 0.039,-0.027 0.08,-0.055 0.117,-0.082 0.006,-0.003 0.006,-0.013 -0.002,-0.014 0.627,0.106 1.306,0.01 1.969,0.044 -0.934,0.317 -1.814,0.811 -2.379,1.569 -0.025,0.032 -0.014,0.086 0.018,0.099 l -0.004,0.007 c 0.002,-0.004 -0.007,-0.006 -0.011,-0.001 -0.017,0.02 -0.036,0.04 -0.054,0.06 -0.018,0.021 -0.004,0.048 0.023,0.047 0.418,-0.03 0.869,-0.047 1.332,-0.055 -0.739,0.326 -1.363,0.787 -1.424,1.397 l -0.028,0.016 c -0.038,0.021 -0.028,0.089 0.018,0.067 0.011,-0.007 0.024,-0.01 0.035,-0.015 0.019,0.005 0.043,0.001 0.059,-0.01 0.01,-0.009 0.021,-0.016 0.031,-0.023 0.666,-0.252 1.707,-0.193 2.349,-0.178 0.181,0.005 0.358,0.023 0.536,0.048 -1.165,0.253 -3.31,0.74 -3.398,2.02 -0.008,0.117 0.148,0.066 0.172,-0.013 l 0.065,-0.111 c 0.005,-0.006 -10e-4,-0.013 -0.007,-0.008 1.098,-0.69 2.809,-1.151 4.27,-1.484 0.109,-0.023 0.217,-0.035 0.326,-0.052 0.266,0.087 0.528,0.178 0.789,0.27 0.746,0.259 1.692,0.744 2.188,1.394 0.156,0.209 0.285,0.406 0.56,0.33 0.114,-0.03 0.231,-0.158 0.185,-0.285 -0.314,-0.852 -1.119,-1.396 -2.002,-1.791 0.18,0.006 0.359,0.012 0.537,0.018 0.53,0.018 0.936,0.347 1.398,0.061 0.078,-0.048 0.152,-0.156 0.125,-0.248 0.004,-0.028 -0.001,-0.057 -0.023,-0.081 -0.457,-0.53 -1.234,-0.987 -2.014,-1.297 0.658,0.078 1.311,0.197 2.006,0.303 0.014,0.009 0.027,0.016 0.041,0.025 0.145,0.096 0.379,-0.042 0.355,-0.223 -0.119,-0.915 -1.707,-1.378 -2.658,-1.661 0.438,0.041 0.871,0.109 1.267,0.212 0.511,0.133 0.882,0.498 1.423,0.509 0.2,0.002 0.348,-0.253 0.198,-0.405 z m -1.785,2.167 c -0.246,-0.021 -0.496,-0.026 -0.73,-0.041 -0.58,-0.038 -1.147,0.005 -1.709,0.086 -0.139,-0.044 -0.272,-0.087 -0.398,-0.13 -0.604,-0.2 -1.809,-0.345 -2.779,-0.192 0.084,-0.047 0.159,-0.091 0.215,-0.118 0.547,-0.269 1.125,-0.411 1.715,-0.495 1.293,0.109 2.596,0.367 3.686,0.89 z m -3.336,-1.564 c -0.135,0.014 -0.305,0.041 -0.492,0.077 -0.25,-0.016 -0.502,-0.027 -0.755,-0.034 -0.276,-0.006 -1.552,0.04 -2.078,0.299 0.253,-0.161 1.236,-0.491 1.482,-0.583 0.689,-0.259 1.38,-0.458 2.1,-0.593 0.322,0.102 0.643,0.221 0.957,0.345 0.283,0.111 0.566,0.215 0.849,0.318 -0.719,0.006 -1.439,0.101 -2.063,0.171 z"
   id="path726" />

				</g>

				<g
   id="g736">
					<g
   id="g733">
						<path
   style="fill:#44519e"
   d="m 278.844,241.885 c 0,0 -0.193,-1.28 -1.652,-0.876 0,0 -0.58,-0.158 -0.552,1.265 0.028,1.421 -0.242,4.17 -0.733,7.321 -0.49,3.15 -2.094,9.755 1.904,11.344 4,1.589 10.47,1.44 13.793,-0.071 3.326,-1.513 3.102,-5.77 1.115,-8.806 -1.984,-3.035 -4.064,-7.755 -4.097,-8.338 -0.034,-0.583 0.233,-2.695 -0.423,-2.918 -0.654,-0.222 -2.004,0.062 -2.227,0.717 0.001,0 -3.421,-1.888 -7.128,0.362 z"
   id="path727" />

						<path
   style="fill:#91a8d7"
   d="m 286.56,243.885 c 0.551,-0.628 1.274,-1.063 2.08,-1.091 0.023,-0.822 0.003,-1.838 -0.441,-1.988 -0.654,-0.222 -2.004,0.062 -2.227,0.717 0,0 -0.035,-0.019 -0.086,-0.044 0.508,0.633 0.71,1.544 0.674,2.406 z"
   id="path728" />

						<path
   style="fill:#91a8d7"
   d="m 276.943,243.135 c 0.738,-0.26 1.223,0.17 1.579,0.747 -0.025,-0.192 -0.042,-0.385 -0.029,-0.578 0.022,-0.408 0.122,-0.846 0.284,-1.224 0.033,-0.078 0.075,-0.146 0.113,-0.221 -0.018,0.009 -0.031,0.016 -0.047,0.025 0,0 -0.193,-1.28 -1.652,-0.876 0,0 -0.58,-0.158 -0.552,1.265 0.004,0.282 -0.004,0.632 -0.02,1.013 0.1,-0.059 0.208,-0.11 0.324,-0.151 z"
   id="path729" />

						<path
   style="fill:#ffea57"
   d="m 276.459,251.802 c 0.498,-0.769 1.041,-1.532 1.692,-2.181 0.528,-0.523 1.452,-1.028 2.028,-1.601 -1.547,-0.311 -3.036,0.407 -4.268,1.535 -0.002,0.014 -0.004,0.026 -0.006,0.039 -0.184,1.18 -0.523,2.844 -0.666,4.547 0.321,-0.838 0.767,-1.638 1.22,-2.339 z"
   id="path730" />

						<path
   style="fill:#ffea57"
   d="m 288.027,246.332 c -0.805,0.2 -1.55,0.488 -2.254,0.885 1.795,0.211 3.77,0.893 5.047,2.119 0.299,0.287 0.561,0.596 0.807,0.913 -0.729,-1.292 -1.413,-2.668 -1.945,-3.828 -0.557,-0.114 -1.112,-0.225 -1.655,-0.089 z"
   id="path731" />

						<path
   style="fill:#264586"
   d="m 290.926,251.895 c -0.98,2.848 -4.568,3.664 -7.378,3.634 -1.515,-0.016 -5.425,-0.039 -5.622,-2.073 -0.984,1.25 -1.727,2.953 -1.782,4.494 -0.017,0.523 -0.019,1.121 0.043,1.716 0.394,0.548 0.919,0.991 1.624,1.273 4,1.589 10.47,1.44 13.793,-0.071 1.674,-0.762 2.447,-2.219 2.551,-3.865 -0.532,-2.01 -1.59,-3.898 -3.229,-5.108 z"
   id="path732" />

						<path
   style="fill:#400406"
   d="m 275.919,258.247 c 2.628,2.157 6.345,2.693 9.632,2.698 1.81,0.002 3.455,-0.195 5.162,-0.829 1.895,-0.702 2.964,-1.903 3.357,-3.89 0,0 0.008,-10e-4 0.008,0.005 -0.23,1.508 -0.851,2.894 -2.287,3.604 -1.726,0.854 -3.456,1.229 -5.373,1.293 -3.514,0.119 -7.84,-0.291 -10.541,-2.816 -0.039,-0.037 -0.005,-0.105 0.042,-0.065 z"
   id="path733" />

					</g>

					<path
   style="fill:#77b765"
   d="m 279.67,247.217 c -0.33,-1.834 -1.713,-3.507 -0.768,-5.401 0.003,-0.005 -0.005,-0.008 -0.008,-0.004 -0.747,1.052 -0.507,2.234 -0.077,3.357 0.785,2.058 1.313,4.225 1.41,6.439 0.001,0.02 0.027,0.011 0.027,-0.005 -0.04,-1.488 -0.32,-2.927 -0.584,-4.386 z"
   id="path734" />

					<path
   style="fill:#77b765"
   d="m 286.619,245.118 c 0.076,-1.193 0.309,-2.722 -0.723,-3.594 -0.012,-0.011 -0.035,0.012 -0.024,0.023 1.146,1.283 0.589,3.261 0.581,4.819 -0.006,1.514 0.488,3.29 0.92,4.73 0.006,0.018 0.029,0.003 0.025,-0.012 -0.515,-1.835 -0.9,-4.072 -0.779,-5.966 z"
   id="path735" />

					<path
   style="fill:#fffad7"
   d="m 278.756,246.364 c 0.539,-0.011 0.91,-0.376 1.422,-0.509 0.396,-0.103 0.828,-0.171 1.266,-0.212 -0.949,0.283 -2.537,0.746 -2.656,1.661 -0.023,0.181 0.211,0.318 0.353,0.223 0.015,-0.01 0.028,-0.017 0.041,-0.025 0.697,-0.105 1.35,-0.225 2.006,-0.303 -0.779,0.31 -1.557,0.767 -2.014,1.297 -0.021,0.024 -0.026,0.053 -0.022,0.081 -0.026,0.092 0.048,0.2 0.125,0.248 0.464,0.286 0.867,-0.043 1.399,-0.061 0.177,-0.006 0.357,-0.012 0.535,-0.018 -0.881,0.395 -1.688,0.939 -2.001,1.791 -0.048,0.127 0.071,0.255 0.184,0.285 0.276,0.076 0.403,-0.121 0.562,-0.33 0.494,-0.649 1.441,-1.135 2.188,-1.394 0.26,-0.092 0.523,-0.183 0.788,-0.27 0.11,0.017 0.217,0.028 0.325,0.052 1.463,0.333 3.172,0.794 4.271,1.484 -0.007,-0.005 -0.013,0.002 -0.008,0.008 l 0.065,0.111 c 0.025,0.078 0.181,0.13 0.172,0.013 -0.09,-1.279 -2.232,-1.767 -3.398,-2.02 0.178,-0.024 0.357,-0.043 0.536,-0.048 0.644,-0.016 1.683,-0.074 2.349,0.178 0.012,0.008 0.022,0.015 0.033,0.023 0.014,0.011 0.036,0.015 0.057,0.01 0.012,0.005 0.025,0.008 0.035,0.015 0.049,0.021 0.059,-0.046 0.02,-0.067 l -0.027,-0.016 c -0.063,-0.61 -0.686,-1.071 -1.424,-1.397 0.461,0.008 0.914,0.024 1.332,0.055 0.027,10e-4 0.041,-0.026 0.021,-0.047 -0.018,-0.02 -0.035,-0.04 -0.053,-0.06 -0.004,-0.005 -0.012,-0.003 -0.012,0.004 l -0.004,-0.01 c 0.033,-0.013 0.043,-0.066 0.019,-0.099 -0.563,-0.759 -1.444,-1.252 -2.379,-1.569 0.663,-0.034 1.341,0.063 1.97,-0.044 -0.008,0.001 -0.008,0.011 -0.003,0.014 0.038,0.027 0.079,0.055 0.116,0.082 0.031,0.021 0.063,0.021 0.09,-0.007 0.006,-0.008 0.012,-0.015 0.019,-0.022 0.04,-0.046 -0.013,-0.116 -0.052,-0.14 -1.141,-0.655 -2.422,-0.56 -3.654,-0.258 -0.061,-0.01 -0.121,-0.022 -0.18,-0.032 -1.459,-0.229 -3.496,-0.218 -4.61,0.918 -0.153,0.154 -0.003,0.409 0.198,0.405 z m 5.273,0.873 c 0.59,0.084 1.168,0.227 1.713,0.495 0.057,0.027 0.133,0.071 0.215,0.118 -0.971,-0.152 -2.176,-0.008 -2.779,0.192 -0.125,0.043 -0.26,0.086 -0.397,0.13 -0.563,-0.081 -1.129,-0.124 -1.71,-0.086 -0.234,0.015 -0.482,0.02 -0.73,0.041 1.091,-0.522 2.391,-0.78 3.688,-0.89 z m -2.414,-0.843 c 0.282,-0.104 0.565,-0.207 0.85,-0.318 0.314,-0.124 0.633,-0.243 0.957,-0.345 0.719,0.135 1.409,0.334 2.098,0.593 0.246,0.092 1.228,0.422 1.48,0.583 -0.525,-0.259 -1.799,-0.305 -2.076,-0.299 -0.252,0.007 -0.504,0.019 -0.754,0.034 -0.189,-0.036 -0.359,-0.064 -0.494,-0.077 -0.623,-0.071 -1.345,-0.166 -2.061,-0.171 z"
   id="path736" />

				</g>

			</g>

			<g
   id="g738">
				<path
   style="fill:#936a48"
   d="m 276.348,186.828 -2.502,-29.464 c 0,0 -0.585,-1.01 -1.109,-1.053 -0.523,0.043 -0.994,1.158 -0.994,1.158 l -2.915,29.358 H 256.33 c -1.461,-22.666 -4.754,-44.458 -4.754,-44.888 h 19.531 c 0,0 1.282,0 3.26,0 h 19.801 c 0,0.676 -2.793,30.846 -4.024,44.888 h -13.796 z"
   id="path737" />

			</g>

			<g
   id="g741">
				<g
   id="g739">
					<path
   style="fill:#16194f"
   d="m 274.46,176.931 -0.562,-18.979 c 0,0 -0.445,-1.002 -0.968,-1.045 -0.525,0.043 -0.971,1.112 -0.971,1.112 l -0.558,18.912 h -18.225 c -0.884,-18.821 -1.602,-34.619 -1.602,-34.99 h 19.725 c 0,0 1.281,0 3.26,0 h 19.801 c 0,0.555 -0.691,20.35 -1.243,34.99 z"
   id="path738" />

				</g>

				<rect
   x="274.09601"
   y="175.855"
   style="fill:#001d6d"
   width="19.57"
   height="2.632"
   id="rect739" />

				<rect
   x="252.48599"
   y="175.855"
   style="fill:#001d6d"
   width="19.57"
   height="2.632"
   id="rect740" />

				<path
   style="fill:#0b0c2d"
   d="m 252.172,142.502 0.486,13.665 c 0,0 7.264,-4.194 7.658,-13.665 z"
   id="path740" />

				<path
   style="fill:#0b0c2d"
   d="m 293.691,142.502 -0.486,13.665 c 0,0 -7.264,-4.194 -7.658,-13.665 z"
   id="path741" />

			</g>

		</g>

		<g
   id="g766">
			<g
   id="g762">
				<g
   id="g749">
					<g
   id="g745">
						<path
   style="fill:#a87752"
   d="m 242.746,151.468 c 3.117,0.235 3.96,5.048 4.646,7.403 0.541,1.847 0.88,3.021 1.396,5.753 0.139,0.746 0.476,2.596 -0.373,3.07 -1.09,0.608 -1.681,-1.923 -1.916,-2.567 -0.131,-0.362 -1.072,-3.385 -1.451,-1.926 -0.313,1.206 -0.068,1.682 0.172,2.885 0.381,1.91 2.359,5.057 1.561,6.411 -0.801,1.354 -2.045,-0.658 -2.045,-0.658 0,0 0.146,0.331 -0.578,0.534 -0.723,0.204 -1.707,-0.834 -1.73,-0.853 -0.023,-0.02 0.012,0.378 -0.57,0.166 -0.582,-0.215 -1.508,-1.114 -1.822,-1.419 0,0 -0.721,-0.112 -1.417,-1.003 -0.696,-0.892 -3.749,-7.807 0.167,-16.266 0.566,-1.222 1.641,-1.123 2.867,-1.431 0.386,-0.095 0.751,-0.126 1.093,-0.099 z"
   id="path742" />

						<path
   style="fill:#915f2d"
   d="m 243.188,168.107 c -0.631,-1.76 -1.002,-3.629 -1.323,-5.459 -0.003,-0.013 -0.019,-0.006 -0.017,0.004 0.24,1.889 0.578,3.728 1.167,5.55 0.407,1.259 1.06,2.996 1.962,4 0.021,0.023 0.053,-0.011 0.039,-0.034 -0.762,-1.219 -1.346,-2.717 -1.828,-4.061 z"
   id="path743" />

						<path
   style="fill:#915f2d"
   d="m 240.561,167.616 c -0.557,-1.481 -0.638,-3.063 -1.04,-4.574 -0.002,-0.008 -0.015,-0.001 -0.013,0.006 0.313,1.702 0.463,3.354 1.082,5.003 0.463,1.23 1.033,2.882 2.127,3.737 0.01,0.008 0.023,-0.011 0.014,-0.019 -1.126,-1.008 -1.661,-2.796 -2.17,-4.153 z"
   id="path744" />

						<path
   style="fill:#915f2d"
   d="m 237.932,164.039 c -0.004,-0.013 -0.018,-0.006 -0.017,0.004 0.107,1.248 0.372,2.526 0.795,3.711 0.404,1.127 1.069,2.56 2.075,3.287 0.014,0.011 0.042,-0.018 0.026,-0.031 -1.817,-1.712 -2.568,-4.61 -2.879,-6.971 z"
   id="path745" />

					</g>

					<g
   id="g748">
						<path
   style="fill:#936a48"
   d="m 247.816,123.906 3.521,-18.149 c 0.012,-2.082 0.02,-16.498 -0.004,-22.259 0,0 -7.656,0.471 -8.971,5.211 l -4.781,32.905 c 0.931,4.342 8.61,5.537 10.235,2.292 z"
   id="path746" />

						<path
   style="fill:#a87752"
   d="m 237.543,121.615 c 0,1.838 -0.008,9.518 0,11.168 0.018,4.367 0.426,10.11 0.934,14.447 0.54,4.567 1.03,7.472 1.567,8.026 l 3.002,-0.114 c 1.938,-0.016 0.768,-4.554 4.671,-28.733 l 0.393,-3.559 c -1.21,-3.682 -9.087,-5.562 -10.567,-1.235 z"
   id="path747" />

						<path
   style="fill:#005cab"
   d="m 248.53,113.27 c 0.257,0.041 1.384,0.082 1.643,0.123 l 1.165,-5.305 c 0.012,-1.825 0.001,-22.878 -0.004,-24.589 0,0 -7.752,0.143 -9.068,4.523 l -6.1,22.285 c 3.082,1.196 9,2.431 12.364,2.963 z"
   id="path748" />

					</g>

				</g>

				<g
   id="g756">
					<g
   id="g751">
						<path
   style="fill:#936a48"
   d="m 297.402,123.906 -3.521,-17.621 c -0.012,-2.082 -0.02,-17.025 0.006,-22.786 0,0 7.654,0.471 8.971,5.211 l 4.781,32.905 c -0.932,4.341 -8.612,5.536 -10.237,2.291 z"
   id="path749" />

						<path
   style="fill:#a87752"
   d="m 307.677,121.615 c 0,1.838 0.005,9.518 0,11.168 -0.019,4.367 -0.427,10.11 -0.937,14.447 -0.538,4.567 -1.03,7.472 -1.566,8.026 l -3.001,-0.114 c -1.939,-0.016 -0.768,-4.554 -4.671,-28.733 l -0.395,-3.559 c 1.211,-3.682 9.088,-5.562 10.57,-1.235 z"
   id="path750" />

						<path
   style="fill:#005cab"
   d="m 296.69,113.27 c -0.256,0.041 -1.384,0.082 -1.643,0.123 l -1.166,-5.305 c -0.012,-1.825 0,-22.878 0.006,-24.589 0,0 7.75,0.143 9.065,4.523 l 6.101,22.285 c -3.082,1.196 -9.001,2.431 -12.363,2.963 z"
   id="path751" />

					</g>

					<g
   id="g755">
						<path
   style="fill:#a87752"
   d="m 302.699,151.468 c -3.115,0.235 -3.959,5.048 -4.646,7.403 -0.541,1.847 -0.881,3.021 -1.395,5.753 -0.14,0.746 -0.477,2.596 0.372,3.07 1.091,0.608 1.681,-1.923 1.915,-2.567 0.132,-0.362 1.072,-3.385 1.451,-1.926 0.313,1.206 0.068,1.682 -0.172,2.885 -0.381,1.91 -2.359,5.057 -1.56,6.411 0.8,1.354 2.044,-0.658 2.044,-0.658 0,0 -0.145,0.331 0.578,0.534 0.725,0.204 1.71,-0.834 1.731,-0.853 0.024,-0.02 -0.013,0.378 0.569,0.166 0.582,-0.215 1.508,-1.114 1.822,-1.419 0,0 0.721,-0.112 1.418,-1.003 0.697,-0.892 3.75,-7.807 -0.168,-16.266 -0.564,-1.222 -1.641,-1.123 -2.867,-1.431 -0.383,-0.095 -0.748,-0.126 -1.092,-0.099 z"
   id="path752" />

						<path
   style="fill:#915f2d"
   d="m 302.258,168.107 c 0.632,-1.76 1.004,-3.629 1.324,-5.459 0.002,-0.013 0.018,-0.006 0.018,0.004 -0.24,1.889 -0.58,3.728 -1.168,5.55 -0.406,1.259 -1.06,2.996 -1.961,4 -0.022,0.023 -0.055,-0.011 -0.04,-0.034 0.76,-1.219 1.344,-2.717 1.827,-4.061 z"
   id="path753" />

						<path
   style="fill:#915f2d"
   d="m 304.886,167.616 c 0.556,-1.481 0.637,-3.063 1.038,-4.574 0.004,-0.008 0.016,-0.001 0.014,0.006 -0.313,1.702 -0.463,3.354 -1.082,5.003 -0.462,1.23 -1.032,2.882 -2.127,3.737 -0.01,0.008 -0.021,-0.011 -0.014,-0.019 1.125,-1.008 1.662,-2.796 2.171,-4.153 z"
   id="path754" />

						<path
   style="fill:#915f2d"
   d="m 307.516,164.039 c 0,-0.013 0.018,-0.006 0.016,0.004 -0.107,1.248 -0.373,2.526 -0.796,3.711 -0.403,1.127 -1.069,2.56 -2.075,3.287 -0.016,0.011 -0.041,-0.018 -0.027,-0.031 1.817,-1.712 2.569,-4.61 2.882,-6.971 z"
   id="path755" />

					</g>

				</g>

				<path
   style="fill:#35b4df"
   d="m 251.283,123.726 c 0,0 -0.717,-36.699 -0.266,-40.227 l 21.442,-4.956 21.441,4.956 c 0.448,3.527 -0.269,40.227 -0.269,40.227 0,1.459 1.223,15.997 0.24,18.003 -0.005,0.014 -0.01,0.026 -0.017,0.04 -0.008,0.015 -0.017,0.023 -0.024,0.037 -0.02,0.025 -0.036,0.052 -0.063,0.077 -0.015,0.017 -0.032,0.032 -0.048,0.043 -1.266,1.083 -9.484,1.93 -19.609,1.983 v 0.001 c -0.081,0.001 -1.307,0.002 -1.651,0.002 -0.347,0 -1.573,-0.001 -1.653,-0.002 v -0.001 c -10.125,-0.054 -18.344,-0.9 -19.608,-1.983 -0.017,-0.011 -0.033,-0.026 -0.051,-0.043 -0.025,-0.025 -0.042,-0.052 -0.062,-0.077 -0.006,-0.014 -0.016,-0.022 -0.024,-0.037 -0.007,-0.014 -0.013,-0.026 -0.017,-0.04 -0.983,-2.006 0.239,-16.544 0.239,-18.003 z"
   id="path756" />

				<g
   id="g761">
					<rect
   x="238.342"
   y="149.12399"
   style="fill:#4d4d4c"
   width="6.6760001"
   height="2.983"
   id="rect756" />

					<rect
   x="238.342"
   y="149.12399"
   style="fill:#3b3b3a"
   width="4.9489999"
   height="2.983"
   id="rect757" />

					<g
   id="g758">
						<path
   style="fill:#242422"
   d="m 241.691,150.319 c -0.077,-1.34 -0.822,-2.407 -1.729,-2.566 0.035,-0.005 0.068,-0.018 0.104,-0.021 1.041,-0.059 1.952,1.099 2.039,2.588 0.086,1.488 -0.686,2.744 -1.725,2.804 -0.105,0.006 -0.208,-0.004 -0.309,-0.021 0.984,-0.138 1.704,-1.348 1.62,-2.784 z"
   id="path757" />

						<path
   style="fill:#666564"
   d="m 238.342,150.536 c -0.084,-1.437 0.636,-2.646 1.621,-2.783 0.906,0.159 1.651,1.227 1.729,2.566 0.084,1.436 -0.637,2.645 -1.619,2.782 -0.907,-0.158 -1.653,-1.226 -1.731,-2.565 z"
   id="path758" />

					</g>

					<path
   style="fill:#242422"
   d="m 239.57,150.521 c 0,0.053 0.043,0.094 0.094,0.094 h 1.553 c 0.052,0 0.094,-0.041 0.094,-0.094 v 0 c 0,-0.052 -0.042,-0.095 -0.094,-0.095 h -1.553 c -0.051,0.001 -0.094,0.044 -0.094,0.095 z"
   id="path759" />

					<path
   style="fill:#242422"
   d="m 239.644,150.615 c 0.043,0 0.075,-0.033 0.075,-0.074 v -1.229 c 0,-0.041 -0.032,-0.074 -0.075,-0.074 v 0 c -0.04,0 -0.073,0.033 -0.073,0.074 v 1.229 c -0.001,0.041 0.033,0.074 0.073,0.074 z"
   id="path760" />

					<path
   style="fill:#797876"
   d="m 238.342,150.536 c 0.078,1.339 0.824,2.407 1.73,2.565 0.982,-0.137 1.703,-1.347 1.619,-2.782 -0.077,-1.34 -0.822,-2.407 -1.729,-2.566 -0.985,0.138 -1.704,1.347 -1.62,2.783 z m 0.387,-0.106 c -0.064,-1.107 0.49,-2.037 1.246,-2.143 0.698,0.123 1.27,0.945 1.331,1.974 0.063,1.107 -0.491,2.037 -1.246,2.142 -0.699,-0.123 -1.271,-0.943 -1.331,-1.973 z"
   id="path761" />

				</g>

				<path
   style="fill:#936a48"
   d="m 266.787,83.331 c 0,1.184 2.836,6.744 5.672,6.744 2.835,0 5.67,-5.561 5.67,-6.744 V 72.749 c 0,-2.368 -1.919,-4.288 -4.286,-4.288 h -2.769 c -2.367,0 -4.287,1.92 -4.287,4.288 z"
   id="path762" />

			</g>

			<g
   id="g765">
				<path
   style="fill:#9adbf9"
   d="m 276.236,105.36 c 0,2.792 2.262,5.055 5.055,5.055 2.791,0 5.055,-2.263 5.055,-5.055 0,-2.792 -2.264,-5.055 -5.055,-5.055 -2.793,10e-4 -5.055,2.263 -5.055,5.055 z m 2.143,-2.925 c 0.379,-0.375 0.831,-0.676 1.331,-0.882 l 1.046,2.724 c -0.116,0.058 -0.225,0.13 -0.314,0.22 z m 1.474,-0.935 c 0.427,-0.157 0.884,-0.248 1.36,-0.257 v 2.911 c -0.11,0.008 -0.215,0.029 -0.316,0.063 z m 1.514,-0.257 c 0.556,0.01 1.085,0.127 1.564,0.334 l -1.184,2.661 c -0.117,-0.049 -0.248,-0.075 -0.381,-0.084 v -2.911 z m 1.703,0.402 c 0.42,0.2 0.805,0.466 1.133,0.79 l -2.063,2.062 c -0.074,-0.075 -0.163,-0.136 -0.256,-0.188 z m -0.566,3.715 c 0,-0.095 -0.014,-0.188 -0.035,-0.276 l 2.738,-1.052 c 0.148,0.422 0.233,0.874 0.233,1.347 h -2.938 c 0,-0.007 0.002,-0.013 0.002,-0.019 z m 2.928,0.171 c -0.018,0.543 -0.137,1.058 -0.347,1.529 l -2.692,-1.199 c 0.049,-0.104 0.078,-0.215 0.094,-0.33 z m -1.299,2.874 c -0.377,0.355 -0.818,0.641 -1.306,0.835 l -1.061,-2.763 c 0.1,-0.043 0.19,-0.101 0.272,-0.167 z m -1.451,0.888 c -0.412,0.147 -0.854,0.232 -1.314,0.241 v -2.969 c 0.086,-0.004 0.17,-0.02 0.252,-0.042 z m -1.469,0.241 c -0.535,-0.01 -1.047,-0.119 -1.514,-0.314 l 1.207,-2.714 c 0.098,0.032 0.201,0.053 0.307,0.06 z m -1.654,-0.378 c -0.411,-0.19 -0.785,-0.443 -1.11,-0.751 l 2.095,-2.095 c 0.068,0.054 0.142,0.101 0.221,0.139 z m 0.605,-3.351 -2.75,1.057 c -0.158,-0.416 -0.25,-0.862 -0.266,-1.33 h 2.945 c 0.014,0.095 0.036,0.187 0.071,0.273 z m -3.023,-0.426 c 0.002,-0.549 0.111,-1.072 0.307,-1.551 l 2.684,1.195 c -0.031,0.107 -0.054,0.22 -0.054,0.337 0,0.006 0.001,0.012 0.001,0.019 z m 1.131,-2.833 2.067,2.067 c -0.063,0.081 -0.119,0.168 -0.16,0.263 l -2.672,-1.188 c 0.192,-0.424 0.453,-0.808 0.765,-1.142 z m 6.884,1.342 -2.732,1.049 c -0.043,-0.118 -0.107,-0.226 -0.184,-0.323 l 2.066,-2.067 c 0.364,0.385 0.654,0.839 0.85,1.341 z m -0.912,4.413 -2.088,-2.091 c 0.062,-0.063 0.115,-0.136 0.164,-0.213 l 2.698,1.201 c -0.196,0.409 -0.458,0.782 -0.774,1.103 z m -6.776,-1.295 2.765,-1.063 c 0.055,0.098 0.117,0.188 0.193,0.267 l -2.091,2.091 c -0.364,-0.371 -0.661,-0.81 -0.867,-1.295 z"
   id="path763" />

				<path
   style="fill:#9adbf9"
   d="m 258.572,105.36 c 0,2.792 2.263,5.055 5.055,5.055 2.792,0 5.055,-2.263 5.055,-5.055 0,-2.792 -2.263,-5.055 -5.055,-5.055 -2.792,10e-4 -5.055,2.263 -5.055,5.055 z m 2.142,-2.925 c 0.38,-0.375 0.831,-0.676 1.331,-0.882 l 1.047,2.724 c -0.117,0.058 -0.224,0.13 -0.316,0.22 z m 1.477,-0.935 c 0.424,-0.157 0.881,-0.248 1.359,-0.257 v 2.911 c -0.111,0.008 -0.216,0.029 -0.318,0.063 z m 1.512,-0.257 c 0.555,0.01 1.084,0.127 1.565,0.334 l -1.184,2.661 c -0.117,-0.049 -0.248,-0.075 -0.381,-0.084 z m 1.703,0.402 c 0.421,0.2 0.804,0.466 1.133,0.79 l -2.063,2.062 c -0.074,-0.075 -0.162,-0.136 -0.256,-0.188 z m -0.566,3.715 c 0,-0.095 -0.012,-0.188 -0.033,-0.276 l 2.738,-1.052 c 0.147,0.422 0.23,0.874 0.232,1.347 h -2.938 c 0,-0.007 10e-4,-0.013 10e-4,-0.019 z m 2.929,0.171 c -0.019,0.543 -0.14,1.058 -0.345,1.529 l -2.693,-1.199 c 0.047,-0.104 0.076,-0.215 0.092,-0.33 z m -1.3,2.874 c -0.375,0.355 -0.816,0.641 -1.307,0.835 l -1.061,-2.763 c 0.1,-0.043 0.189,-0.101 0.271,-0.167 z m -1.45,0.888 c -0.413,0.147 -0.854,0.232 -1.315,0.241 v -2.969 c 0.088,-0.004 0.17,-0.02 0.252,-0.042 z m -1.468,0.241 c -0.537,-0.01 -1.049,-0.119 -1.518,-0.314 l 1.21,-2.714 c 0.097,0.032 0.2,0.053 0.308,0.06 z m -1.654,-0.378 c -0.412,-0.19 -0.786,-0.443 -1.113,-0.751 l 2.096,-2.095 c 0.069,0.054 0.143,0.101 0.221,0.139 z m 0.603,-3.351 -2.748,1.057 c -0.158,-0.416 -0.25,-0.862 -0.268,-1.33 h 2.945 c 0.014,0.095 0.036,0.187 0.071,0.273 z m -3.022,-0.426 c 0,-0.549 0.111,-1.072 0.306,-1.551 l 2.684,1.195 c -0.031,0.107 -0.053,0.22 -0.053,0.337 0,0.006 0.002,0.012 0.002,0.019 z m 1.132,-2.833 2.066,2.067 c -0.063,0.081 -0.12,0.168 -0.161,0.263 l -2.67,-1.188 c 0.19,-0.424 0.45,-0.808 0.765,-1.142 z m 6.882,1.342 -2.732,1.049 c -0.045,-0.118 -0.107,-0.226 -0.183,-0.323 l 2.066,-2.067 c 0.365,0.385 0.654,0.839 0.849,1.341 z m -0.911,4.413 -2.089,-2.091 c 0.063,-0.063 0.115,-0.136 0.164,-0.213 l 2.701,1.201 c -0.201,0.409 -0.46,0.782 -0.776,1.103 z m -6.776,-1.295 2.764,-1.063 c 0.055,0.098 0.117,0.188 0.193,0.267 l -2.088,2.091 c -0.367,-0.371 -0.663,-0.81 -0.869,-1.295 z"
   id="path764" />

				<path
   style="fill:#9adbf9"
   d="m 261.073,99.17 c 0,0.337 0.276,0.61 0.618,0.61 h 1.629 v 5.58 c 0,0 0.002,0.011 0.002,0.016 0.002,0.03 0.009,0.059 0.018,0.087 0.004,0.008 0.004,0.017 0.008,0.023 0.002,0.003 0.002,0.006 0.002,0.008 0.016,0.03 0.033,0.056 0.057,0.078 0.004,0.006 0.012,0.01 0.018,0.015 0.022,0.02 0.044,0.035 0.07,0.047 0.008,0.005 0.018,0.009 0.027,0.013 0.033,0.013 0.068,0.021 0.105,0.021 v 0.05 l 9.676,1.246 -0.218,0.786 -0.616,-0.169 c -0.178,-0.05 -0.361,0.055 -0.41,0.232 -0.048,0.177 0.056,0.36 0.232,0.409 l 1.702,0.471 c 0.177,0.048 0.359,-0.056 0.409,-0.232 0.05,-0.177 -0.055,-0.36 -0.232,-0.409 l -0.492,-0.137 0.24,-0.871 c 0.004,0 0.008,0.001 0.012,0.001 0.928,0 1.682,-0.754 1.682,-1.684 0,-0.212 -0.041,-0.413 -0.111,-0.6 l 5.394,-7.738 0.091,8.342 c 0.001,0.168 0.138,0.303 0.307,0.303 0,0 0,0 0.002,0 0.171,0 0.307,-0.14 0.305,-0.31 l -0.098,-9.203 0.023,-0.034 c 0.154,0 0.316,-0.003 0.486,-0.011 0.171,-0.007 0.302,-0.148 0.295,-0.319 -0.006,-0.169 -0.146,-0.298 -0.318,-0.295 -1.477,0.058 -1.908,-0.166 -2.034,-0.306 -0.1,-0.107 -0.083,-0.257 -0.054,-0.488 0.016,-0.1 0.027,-0.195 0.027,-0.281 0,-0.242 -0.094,-0.448 -0.272,-0.596 -0.443,-0.367 -1.26,-0.235 -1.418,-0.206 -0.166,0.031 -0.276,0.192 -0.244,0.358 0.029,0.167 0.189,0.275 0.357,0.246 0.271,-0.051 0.748,-0.062 0.912,0.075 0.023,0.02 0.049,0.047 0.049,0.122 0,0.061 -0.01,0.128 -0.02,0.198 -0.035,0.263 -0.089,0.658 0.207,0.984 0.24,0.265 0.654,0.424 1.3,0.485 l -4.716,6.764 c -0.042,-0.063 -0.104,-0.114 -0.184,-0.138 l -1.701,-0.47 c -0.179,-0.049 -0.361,0.055 -0.41,0.232 -0.049,0.177 0.055,0.36 0.231,0.409 l 0.493,0.137 -0.193,0.702 c -0.076,-0.019 -0.153,-0.032 -0.234,-0.039 l -3.512,-5.797 h 0.777 c 0.281,0 0.512,-0.229 0.512,-0.513 0,-0.282 -0.23,-0.512 -0.512,-0.512 h -3.202 c -0.282,0 -0.511,0.229 -0.511,0.512 0,0.283 0.229,0.513 0.511,0.513 h 0.962 l -5.175,6.584 V 99.78 h 1.626 c 0.342,0 0.621,-0.273 0.621,-0.61 0,-0.337 -0.279,-0.609 -0.621,-0.609 h -3.869 c -0.341,0 -0.618,0.272 -0.618,0.609 z m 3.416,5.59 5.38,-6.844 3.528,5.822 z m 10.655,-0.562 c -0.079,-0.083 -0.166,-0.157 -0.257,-0.222 l 0.219,-0.79 0.615,0.17 c 0.004,0.001 0.006,0 0.008,0.001 z"
   id="path765" />

			</g>

		</g>

	</g>

	<g
   id="g784">
		<g
   id="g783">
			<g
   id="g782">
				<path
   style="fill:#5c3c28"
   d="m 313.006,31.44 c -1.263,-1.5 -2.531,-2.94 -4.127,-3.772 0.301,-0.132 0.602,-0.261 0.904,-0.367 1.736,-0.603 3.439,-0.908 5.252,-0.618 0.213,0.035 0.346,-0.239 0.175,-0.381 -0.081,-0.067 -0.167,-0.131 -0.255,-0.188 -0.004,-0.048 -0.02,-0.093 -0.055,-0.135 -2.043,-2.47 -5.953,-3.676 -8.869,-4.708 -1.693,-0.597 -3.619,-0.966 -5.371,-0.601 0.717,-0.671 1.483,-1.307 2.256,-1.919 0.244,-0.139 0.484,-0.284 0.713,-0.447 0.214,-0.153 0.125,-0.463 -0.114,-0.521 -0.45,-0.112 -0.9,-0.079 -1.343,0.032 -2.73,-0.3 -5.782,0.779 -7.713,2.76 -0.059,-0.496 -0.197,-1.001 -0.279,-1.445 -0.381,-2.037 -0.724,-4.111 -1.475,-6.055 -0.053,-0.132 -0.283,-0.136 -0.297,0.025 -0.008,0.1 -0.012,0.198 -0.018,0.297 -0.002,0.006 -0.008,0.01 -0.012,0.015 -0.506,0.85 -0.738,1.803 -1.139,2.705 -0.188,0.422 -0.413,0.876 -0.574,1.34 -1.16,-1.275 -2.398,-2.317 -4.076,-3.236 -2.487,-1.362 -5.125,-2.481 -7.674,-3.705 -0.117,-0.057 -0.209,0.08 -0.15,0.181 0.025,0.042 0.053,0.081 0.08,0.124 0.012,1.287 0.863,2.471 1.377,3.608 0.014,0.03 0.027,0.061 0.043,0.095 -4.497,-2.5 -9.905,-3.348 -14.996,-3.144 -5.178,0.209 -10.041,2.218 -14.438,4.904 -0.072,0.04 -0.146,0.079 -0.219,0.116 -1.308,0.689 -2.688,1.435 -3.73,2.502 -0.012,0.003 -0.025,0.004 -0.035,0.005 -0.152,0.021 -0.2,0.225 -0.054,0.293 0.741,0.346 1.53,0.569 2.3,0.85 -3.289,1.095 -6.307,3.316 -8.834,5.485 -3.721,3.19 -7.35,7.465 -9.311,11.998 -0.154,0.093 -0.037,0.346 0.131,0.329 1.207,-0.119 2.354,-0.175 3.553,-0.024 -0.953,0.522 -1.793,1.16 -2.33,1.815 -0.026,0.019 -0.046,0.041 -0.056,0.065 -0.02,0.023 -0.04,0.045 -0.058,0.068 -0.101,0.134 0.025,0.297 0.18,0.256 0.074,-0.018 0.146,-0.043 0.219,-0.064 0.787,0.024 1.58,0.014 2.367,0.066 0.074,0.006 0.148,0.016 0.223,0.024 -0.051,0.037 -0.104,0.075 -0.152,0.113 -1.398,1.03 -3.192,2.339 -4.119,3.835 -0.148,0.006 -0.198,0.227 -0.053,0.3 1.225,0.608 2.551,0.668 3.779,1.298 1.677,0.857 3.264,1.908 4.771,3.036 2.532,1.898 4.387,4.186 6.419,6.504 2.091,4.487 7.472,6.445 11.86,8.071 5.839,2.164 11.959,2.985 18.166,2.92 5.658,-0.059 11.363,-1.305 16.169,-4.378 2.437,-1.557 4.948,-3.316 7.144,-5.197 1.184,-1.014 3.98,-5.694 8.559,-8.574 2.291,-1.442 5.381,-2.857 8.176,-2.415 -0.053,-2.019 -1.83,-4.328 -2.051,-4.581 -0.136,-0.152 -0.279,-0.315 -0.43,-0.482 0.816,0.371 1.537,0.909 2.367,1.289 0.191,0.089 0.414,-0.15 0.271,-0.327 -0.058,-0.074 -0.121,-0.144 -0.186,-0.214 -0.211,-0.643 -0.555,-1.228 -0.976,-1.763 0.944,0.173 1.858,0.441 2.683,0.969 0.064,0.067 0.127,0.137 0.195,0.2 0.16,0.144 0.412,-0.006 0.397,-0.209 -0.23,-3.305 -3.135,-6.615 -5.16,-9.023 z"
   id="path767" />

				<path
   style="opacity:0.5;fill:#985400"
   d="m 309.219,34.258 c 1.916,1.733 4.3,3.346 4.885,5.982 0.043,0.19 -0.176,0.319 -0.32,0.188 -1.037,-0.945 -1.924,-2.02 -3.287,-2.421 0.484,1.417 1.283,2.707 1.685,4.158 0.056,0.198 -0.181,0.304 -0.321,0.188 -1.899,-1.571 -2.833,-4.774 -5.344,-5.506 0.506,1.511 1.132,2.982 1.182,4.6 0.004,0.139 -0.17,0.248 -0.289,0.165 -3.748,-2.617 -6.334,-6.459 -9.797,-9.391 -4.243,-3.594 -9.994,-5.754 -15.445,-6.608 -5.74,-0.902 -11.609,-0.382 -17.133,1.407 -5.065,1.642 -9.688,4.192 -14.121,7.106 -3.928,2.583 -8.309,5.706 -10.186,10.192 -0.079,0.188 -0.381,0.183 -0.379,-0.052 0.02,-1.276 0.214,-2.536 0.352,-3.804 -1.621,0.662 -2.847,2.026 -4.469,2.708 -0.172,0.07 -0.282,-0.15 -0.219,-0.284 1.037,-2.096 2.813,-3.625 4.686,-4.963 -2.134,0.059 -4.186,0.741 -6.315,0.893 -0.172,0.012 -0.248,-0.217 -0.136,-0.328 0.463,-0.464 1.21,-0.712 1.788,-1.005 0.602,-0.307 1.199,-0.623 1.789,-0.948 -2.352,0.104 -4.635,0.578 -6.871,1.281 0.035,0.03 0.077,0.048 0.127,0.045 1.207,-0.119 2.354,-0.175 3.553,-0.024 -0.953,0.522 -1.793,1.16 -2.33,1.815 -0.026,0.019 -0.046,0.041 -0.056,0.065 -0.02,0.023 -0.04,0.045 -0.058,0.068 -0.101,0.134 0.025,0.297 0.18,0.256 0.074,-0.018 0.146,-0.043 0.219,-0.064 0.787,0.024 1.58,0.014 2.367,0.066 0.074,0.006 0.148,0.016 0.223,0.024 -0.051,0.037 -0.104,0.075 -0.152,0.113 -1.398,1.03 -3.192,2.339 -4.119,3.835 -0.148,0.006 -0.198,0.227 -0.053,0.3 1.225,0.608 2.551,0.668 3.779,1.298 1.677,0.857 3.264,1.908 4.771,3.036 2.532,1.898 4.387,4.186 6.419,6.504 2.091,4.487 7.472,6.445 11.86,8.071 5.839,2.164 11.959,2.985 18.166,2.92 5.658,-0.059 11.363,-1.305 16.169,-4.378 2.437,-1.557 4.948,-3.316 7.144,-5.197 1.184,-1.014 3.98,-5.694 8.559,-8.574 2.291,-1.442 5.381,-2.857 8.176,-2.415 -0.053,-2.019 -1.83,-4.328 -2.051,-4.581 -0.136,-0.152 -0.279,-0.315 -0.43,-0.482 0.816,0.371 1.537,0.909 2.367,1.289 0.191,0.089 0.414,-0.15 0.271,-0.327 -0.058,-0.074 -0.121,-0.144 -0.186,-0.214 -0.211,-0.643 -0.555,-1.228 -0.976,-1.763 0.944,0.173 1.858,0.441 2.683,0.969 0.064,0.067 0.127,0.137 0.195,0.2 0.037,0.034 0.081,0.051 0.125,0.055 -2.421,-2.832 -5.173,-5.437 -8.677,-6.468 z"
   id="path768" />

				<path
   style="fill:#936a48"
   d="m 249.682,52.928 c -1.733,-1.637 -3.754,-3.271 -6.159,-0.579 -2.404,2.696 -0.192,7.603 2.405,7.891 2.6,0.289 3.945,-0.866 3.945,-0.866 z"
   id="path769" />

				<path
   style="fill:#936a48"
   d="m 296.247,52.063 0.29,6.542 c 0,0 1.057,1.635 3.27,1.731 2.215,0.096 4.524,-1.636 4.139,-5.868 -0.211,-2.335 -2.238,-3.716 -4.041,-3.85 -1.47,-0.108 -2.663,0.753 -3.658,1.445 z"
   id="path770" />

				<path
   style="fill:#563f28"
   d="m 244.287,54.948 c -0.044,0.042 0.021,0.096 0.068,0.071 0.928,-0.481 1.844,-0.134 2.576,0.515 -0.793,0.217 -1.428,0.747 -1.82,1.476 -0.029,0.053 0.054,0.105 0.088,0.056 0.487,-0.711 1.165,-1.062 1.973,-1.303 0.467,0.482 0.842,1.076 1.067,1.614 0.033,0.082 0.145,0.037 0.126,-0.047 -0.385,-1.646 -2.369,-4.029 -4.078,-2.382 z"
   id="path771" />

				<path
   style="fill:#563f28"
   d="m 302.289,55.333 c -1.275,-2.408 -4.45,1.447 -5.213,2.577 -0.065,0.095 0.014,0.277 0.146,0.211 0.496,-0.252 1.182,-1.077 1.918,-1.828 0.092,0.059 0.194,0.098 0.307,0.152 0.229,0.114 0.43,0.286 0.627,0.442 0.414,0.328 0.705,0.797 1.028,1.206 0.041,0.054 0.138,0.011 0.108,-0.055 -0.213,-0.516 -0.514,-0.971 -0.859,-1.404 -0.174,-0.221 -0.525,-0.558 -0.869,-0.682 0.951,-0.902 1.949,-1.527 2.719,-0.557 0.045,0.058 0.119,10e-4 0.088,-0.062 z"
   id="path772" />

				<path
   style="fill:#a87752"
   d="m 298.353,42.375 c -0.306,-3.451 -0.655,-6.912 -1.159,-10.342 0.188,0.155 0.541,-0.015 0.439,-0.302 -0.631,-1.759 -2.268,-2.884 -3.877,-3.679 -2.268,-1.117 -4.844,-1.804 -7.297,-2.366 -5.088,-1.165 -10.345,-1.349 -15.514,-0.724 -4.544,0.549 -9.063,1.701 -12.973,4.14 -1.686,1.05 -3.286,2.241 -4.733,3.604 -1.271,1.198 -2.562,2.694 -2.803,4.488 0,10e-4 0.003,10e-4 0.003,0.003 -0.003,0.002 -0.003,0.002 -0.004,0.003 -1.506,2.064 -2.08,4.39 -2.277,6.905 -0.227,2.872 -0.178,5.757 -0.395,8.631 -0.161,2.141 -0.107,4.296 0.178,6.424 0.535,4.018 2.104,7.865 4.83,10.895 3.078,3.424 7.334,5.291 11.744,6.322 9.398,2.196 19.891,0.311 27.301,-6.061 3.471,-2.983 5.592,-6.803 6.368,-11.291 0.949,-5.482 0.66,-11.138 0.169,-16.65 z"
   id="path773" />

				<path
   style="fill:#936a48"
   d="m 273.285,61.241 c -0.814,0.37 -1.546,0.539 -2.34,0.036 -0.46,-0.291 -0.793,-0.765 -0.997,-1.259 -0.192,-0.469 -0.226,-1.026 0.104,-1.438 0.706,-0.883 2.04,-0.208 2.569,0.478 0.045,0.057 0.147,0.012 0.115,-0.06 -0.262,-0.662 -0.784,-1.104 -1.406,-1.253 0.119,-0.556 -0.041,-1.129 -0.148,-1.681 -0.111,-0.572 -0.242,-1.132 -0.441,-1.68 -0.023,-0.061 -0.119,-0.042 -0.109,0.021 0.1,0.558 0.209,1.118 0.25,1.684 0.041,0.535 -0.055,1.08 0.047,1.605 -0.205,-0.004 -0.416,0.015 -0.629,0.076 -0.813,0.236 -1.129,1.053 -1.043,1.825 0.201,1.821 2.696,3.53 4.135,1.793 0.055,-0.067 -0.019,-0.188 -0.107,-0.147 z"
   id="path774" />

				<path
   style="fill:#5c3c28"
   d="m 299.963,33.78 c -0.057,-0.165 -0.173,-0.27 -0.311,-0.321 -0.954,-3.864 -4.336,-6.855 -7.66,-8.813 -4.595,-2.701 -10.128,-3.594 -15.387,-3.5 -5.598,0.101 -11.076,1.776 -15.983,4.404 -2.508,1.341 -4.892,2.996 -6.876,5.036 -0.047,0.047 -0.088,0.097 -0.131,0.146 -0.004,0.002 -0.008,0.004 -0.013,0.009 -2.667,2.351 -5.821,6.372 -6.532,10.072 -0.004,0.003 -0.009,0.007 -0.014,0.011 -0.113,0.087 -0.105,0.219 -0.034,0.302 -0.021,0.138 -0.046,0.274 -0.06,0.409 -0.008,0.063 0.006,0.114 0.033,0.154 -0.004,0.016 -0.012,0.027 -0.016,0.042 -0.061,0.199 0.236,0.317 0.355,0.165 1.142,-1.47 2.75,-2.342 4.179,-3.474 1.529,-0.891 3.029,-1.817 4.545,-2.735 1.816,-1.1 3.729,-2.027 5.688,-2.843 -0.047,0.063 -0.094,0.129 -0.141,0.192 -1.08,1.512 -2.182,3.364 -2.438,5.225 -0.008,0.062 0.004,0.113 0.03,0.153 -0.073,0.093 0.022,0.25 0.147,0.204 3.566,-1.298 7.051,-2.74 10.544,-4.229 1.644,-0.7 3.453,-1.393 5.208,-2.191 -0.732,0.997 -1.529,1.915 -2.498,2.726 -0.102,0.085 -0.029,0.279 0.107,0.233 -0.041,0.095 0,0.219 0.131,0.243 3.328,0.632 6.843,-0.29 9.992,-1.341 1.715,-0.572 3.395,-1.246 5.076,-1.911 -0.33,1.67 -0.512,3.497 -0.01,3.683 -0.01,0.073 -0.025,0.147 -0.031,0.223 -0.018,0.237 0.271,0.333 0.393,0.122 0.531,-0.931 1.053,-1.773 1.702,-2.579 0.275,0.677 0.602,1.327 0.94,1.915 1.074,1.876 2.111,3.939 3.6,5.523 0.01,0.011 0.018,0.013 0.027,0.021 0.016,0.059 0.032,0.12 0.054,0.178 0.046,0.125 0.239,0.115 0.261,-0.022 0.22,-1.43 0.787,-2.789 1.094,-4.206 0.006,-0.032 0.013,-0.063 0.02,-0.093 0.859,2.437 2.828,4.621 4.21,6.604 0.001,0.008 0.003,0.016 0.005,0.022 0.031,0.121 0.232,0.104 0.242,-0.021 0.279,-3.154 0.569,-6.691 -0.448,-9.738 z"
   id="path775" />

				<path
   style="opacity:0.5;fill:#985400"
   d="m 264.283,29.363 c 0.194,-0.224 0.395,-0.451 0.598,-0.676 -1.781,1.109 -3.579,2.194 -5.377,3.277 -3.33,2.009 -6.561,4.419 -10.111,6.024 -0.162,0.073 -0.308,-0.045 -0.282,-0.218 0.313,-2.161 2,-3.896 3.194,-5.626 0.132,-0.191 0.27,-0.381 0.405,-0.568 -2.439,2.398 -5.009,5.944 -5.64,9.237 -0.004,0.003 -0.009,0.007 -0.014,0.011 -0.113,0.087 -0.105,0.219 -0.034,0.302 -0.021,0.138 -0.046,0.274 -0.06,0.409 -0.008,0.063 0.006,0.114 0.033,0.154 -0.004,0.016 -0.012,0.027 -0.016,0.042 -0.061,0.199 0.236,0.317 0.355,0.165 1.142,-1.47 2.75,-2.342 4.179,-3.474 1.529,-0.891 3.029,-1.817 4.545,-2.735 1.806,-1.094 3.705,-2.016 5.651,-2.83 0.769,-1.232 1.641,-2.404 2.574,-3.494 z"
   id="path776" />

				<path
   style="opacity:0.5;fill:#985400"
   d="m 299.963,33.78 c -0.057,-0.165 -0.173,-0.27 -0.311,-0.321 -0.561,-2.268 -1.957,-4.23 -3.688,-5.864 2.213,4.003 4.516,8.183 3.836,12.876 -0.023,0.158 -0.225,0.166 -0.32,0.085 -2.449,-2.031 -2.084,-5.366 -3.608,-7.894 -0.295,1.888 -0.32,3.844 -1.288,5.545 -0.062,0.11 -0.213,0.126 -0.304,0.04 -2.395,-2.322 -2.336,-5.767 -3.189,-8.789 -0.859,1.529 -1.467,3.188 -2.598,4.556 -0.137,0.165 -0.348,-0.021 -0.322,-0.187 0.309,-1.992 1.176,-3.844 1.476,-5.834 -4.449,2.641 -8.85,6.098 -14.278,5.98 -0.139,-0.004 -0.25,-0.165 -0.166,-0.291 1.957,-2.919 4.694,-5.194 6.742,-8.039 -3.674,1.527 -6.885,3.906 -10.424,5.706 -1.778,0.905 -3.652,1.576 -5.522,2.269 -1.065,0.396 -2.147,0.772 -3.147,1.308 -0.788,0.424 -1.567,0.846 -2.442,1.062 -0.175,0.043 -0.281,-0.132 -0.217,-0.283 0.387,-0.875 0.836,-1.728 1.334,-2.554 -1.055,1.491 -2.109,3.295 -2.359,5.111 -0.008,0.062 0.004,0.113 0.03,0.153 -0.073,0.093 0.022,0.25 0.147,0.204 3.566,-1.298 7.051,-2.74 10.544,-4.229 1.644,-0.7 3.453,-1.393 5.208,-2.191 -0.732,0.997 -1.529,1.915 -2.498,2.726 -0.102,0.085 -0.029,0.279 0.107,0.233 -0.041,0.095 0,0.219 0.131,0.243 3.328,0.632 6.843,-0.29 9.992,-1.341 1.715,-0.572 3.395,-1.246 5.076,-1.911 -0.33,1.67 -0.512,3.497 -0.01,3.683 -0.01,0.073 -0.025,0.147 -0.031,0.223 -0.018,0.237 0.271,0.333 0.393,0.122 0.531,-0.931 1.053,-1.773 1.702,-2.579 0.275,0.677 0.602,1.327 0.94,1.915 1.074,1.876 2.111,3.939 3.6,5.523 0.01,0.011 0.018,0.013 0.027,0.021 0.016,0.059 0.032,0.12 0.054,0.178 0.046,0.125 0.239,0.115 0.261,-0.022 0.22,-1.43 0.787,-2.789 1.094,-4.206 0.006,-0.032 0.013,-0.063 0.02,-0.093 0.859,2.437 2.828,4.621 4.21,6.604 10e-4,0.008 0.003,0.016 0.005,0.022 0.031,0.121 0.232,0.104 0.242,-0.021 0.278,-3.155 0.568,-6.692 -0.449,-9.739 z"
   id="path777" />

				<g
   id="g779">
					<path
   style="fill:#3d1a0b"
   d="m 262.676,51.823 c -0.07,1.568 -0.629,2.812 -1.252,2.776 -0.621,-0.036 -1.071,-1.338 -1,-2.909 0.068,-1.569 0.629,-2.812 1.252,-2.775 0.621,0.037 1.068,1.339 1,2.908 z"
   id="path778" />

					<path
   style="fill:#ffffff"
   d="m 261.44,50.559 c -0.057,0.473 -0.254,0.831 -0.442,0.804 -0.185,-0.028 -0.292,-0.434 -0.236,-0.907 0.057,-0.47 0.252,-0.831 0.441,-0.802 0.188,0.026 0.293,0.434 0.237,0.905 z"
   id="path779" />

				</g>

				<g
   id="g781">
					<path
   style="fill:#3d1a0b"
   d="m 283.522,51.95 c -0.068,1.57 -0.628,2.813 -1.253,2.778 -0.618,-0.036 -1.07,-1.338 -1,-2.908 0.071,-1.57 0.629,-2.813 1.253,-2.778 0.621,0.038 1.068,1.339 1,2.908 z"
   id="path780" />

					<path
   style="fill:#ffffff"
   d="m 282.285,50.687 c -0.055,0.472 -0.254,0.831 -0.441,0.804 -0.185,-0.028 -0.291,-0.434 -0.236,-0.907 0.057,-0.47 0.253,-0.83 0.441,-0.801 0.187,0.025 0.294,0.431 0.236,0.904 z"
   id="path781" />

				</g>

			</g>

		</g>

	</g>

	<g
   id="g788">
		<path
   style="fill:#563f28"
   d="m 260.26,64.427 c 0.905,0.67 1.905,1.194 2.936,1.628 0.519,0.213 1.039,0.417 1.573,0.58 0.528,0.181 1.075,0.308 1.616,0.436 l 0.821,0.164 0.827,0.123 c 0.551,0.1 1.109,0.114 1.664,0.176 0.559,0.005 1.113,0.052 1.67,0.021 0.564,-0.021 1.109,-0.026 1.67,-0.097 l 1.682,-0.158 c 0.563,-0.042 1.121,-0.096 1.67,-0.19 l 1.662,-0.243 c 0.555,-0.069 1.097,-0.216 1.648,-0.318 0.548,-0.119 1.102,-0.207 1.641,-0.36 0.541,-0.146 1.092,-0.261 1.625,-0.43 0.531,-0.176 1.076,-0.315 1.598,-0.522 0.527,-0.186 1.055,-0.385 1.557,-0.624 l 0.008,0.115 c -0.162,-0.081 -0.301,-0.181 -0.426,-0.299 -0.068,-0.054 -0.119,-0.123 -0.176,-0.187 -0.059,-0.065 -0.107,-0.134 -0.148,-0.21 -0.042,-0.074 -0.097,-0.141 -0.123,-0.223 l -0.092,-0.237 c -0.037,-0.075 -0.041,-0.162 -0.063,-0.244 l -0.048,-0.246 0.067,0.243 c 0.024,0.078 0.033,0.164 0.076,0.235 l 0.107,0.227 c 0.031,0.076 0.091,0.137 0.133,0.206 0.047,0.069 0.095,0.137 0.154,0.19 0.057,0.06 0.109,0.124 0.176,0.171 0.123,0.106 0.266,0.194 0.407,0.255 l 0.122,0.052 -0.114,0.063 c -0.499,0.271 -1.016,0.5 -1.54,0.714 -0.518,0.228 -1.063,0.386 -1.592,0.58 -0.534,0.19 -1.084,0.324 -1.625,0.489 -0.541,0.17 -1.096,0.286 -1.646,0.406 -0.553,0.112 -1.1,0.263 -1.662,0.34 l -1.676,0.266 c -0.563,0.102 -1.121,0.16 -1.682,0.209 l -1.681,0.153 c -0.556,0.063 -1.141,0.066 -1.704,0.082 -0.566,0.022 -1.135,-0.031 -1.699,-0.045 -0.566,-0.066 -1.135,-0.088 -1.693,-0.194 -0.281,-0.049 -0.561,-0.094 -0.84,-0.149 l -0.83,-0.195 c -0.546,-0.148 -1.094,-0.298 -1.625,-0.498 -0.535,-0.184 -1.063,-0.399 -1.57,-0.646 -0.51,-0.245 -1.012,-0.515 -1.49,-0.813 -0.478,-0.298 -0.943,-0.622 -1.365,-0.996 z"
   id="path784" />

		<g
   id="g787">
			<path
   style="fill:#aa4d4d"
   d="m 267.596,71.658 c 2.211,1.586 5.715,2.301 9.395,0.607 -4.676,-2.971 -8.2,-1.353 -9.395,-0.607 z"
   id="path785" />

			<path
   style="fill:#ffffff"
   d="m 271.6,69.486 c 5.258,0.26 8.212,-0.855 9.283,-2.999 -2.148,0.525 -4.955,1.019 -8.426,1.239 -3.445,0.218 -6.213,-0.392 -8.238,-1.146 1.05,1.162 3.215,2.7 7.381,2.906 z"
   id="path786" />

			<path
   style="fill:#700d0d"
   d="m 280.883,66.487 c -1.071,2.144 -4.025,3.259 -9.283,2.999 -4.166,-0.206 -6.331,-1.744 -7.381,-2.905 -0.788,-0.292 -1.467,-0.605 -2.025,-0.901 0,0 1.162,0.923 3.963,4.604 0.379,0.499 0.866,0.963 1.44,1.374 1.195,-0.746 4.719,-2.364 9.395,0.607 2.381,-1.095 4.833,-3.193 7.055,-6.717 -0.819,0.291 -1.871,0.621 -3.164,0.939 z"
   id="path787" />

		</g>

	</g>

	<path
   style="fill:#563f28"
   d="m 260.742,43.278 c -1.006,0.133 -1.768,0.624 -2.5,1.302 -0.318,0.296 -0.609,0.712 -0.778,1.108 -0.132,0.311 -0.085,0.504 -0.067,0.516 -0.024,-0.016 -0.047,10e-4 -0.063,0.021 -0.031,0.04 -0.057,0.067 -0.072,0.114 -0.037,0.122 0.103,0.156 0.173,0.069 0.863,-1.059 1.905,-1.896 3.351,-1.743 0.745,0.078 1.213,0.295 1.773,0.801 0.464,0.422 0.51,0.893 1.152,1.057 0.254,0.066 0.549,-0.113 0.619,-0.369 0.547,-1.958 -1.971,-3.088 -3.588,-2.876 z"
   id="path788" />

	<path
   style="fill:#563f28"
   d="m 282.197,43.278 c 1.005,0.133 1.768,0.624 2.498,1.302 0.32,0.296 0.61,0.712 0.779,1.108 0.133,0.311 0.086,0.504 0.066,0.516 0.025,-0.016 0.049,10e-4 0.063,0.021 0.031,0.04 0.059,0.067 0.073,0.114 0.038,0.122 -0.103,0.156 -0.173,0.069 -0.863,-1.059 -1.904,-1.896 -3.35,-1.743 -0.746,0.078 -1.215,0.295 -1.773,0.801 -0.465,0.422 -0.512,0.893 -1.154,1.057 -0.252,0.066 -0.547,-0.113 -0.619,-0.369 -0.547,-1.958 1.973,-3.088 3.59,-2.876 z"
   id="path789" />

</g>
  </g>
</svg>
