<?xml version="1.0" encoding="UTF-8" standalone="no"?>
<!-- Created with Inkscape (http://www.inkscape.org/) -->

<svg
   width="30.614319mm"
   height="52.906876mm"
   viewBox="0 0 30.614319 52.906876"
   version="1.1"
   id="svg1"
   inkscape:version="1.4.2 (f4327f4, 2025-05-13)"
   sodipodi:docname="boy3.svg"
   xmlns:inkscape="http://www.inkscape.org/namespaces/inkscape"
   xmlns:sodipodi="http://sodipodi.sourceforge.net/DTD/sodipodi-0.dtd"
   xmlns="http://www.w3.org/2000/svg"
   xmlns:svg="http://www.w3.org/2000/svg">
  <sodipodi:namedview
     id="namedview1"
     pagecolor="#ffffff"
     bordercolor="#000000"
     borderopacity="0.25"
     inkscape:showpageshadow="2"
     inkscape:pageopacity="0.0"
     inkscape:pagecheckerboard="0"
     inkscape:deskcolor="#d1d1d1"
     inkscape:document-units="mm"
     inkscape:zoom="1.2275954"
     inkscape:cx="-257.4138"
     inkscape:cy="12.21901"
     inkscape:window-width="2880"
     inkscape:window-height="1676"
     inkscape:window-x="-12"
     inkscape:window-y="-12"
     inkscape:window-maximized="1"
     inkscape:current-layer="layer1" />
  <defs
     id="defs1" />
  <g
     inkscape:label="图层 1"
     inkscape:groupmode="layer"
     id="layer1"
     transform="translate(-173.0375,-145.25626)">
    <g
       id="g278"
       transform="matrix(0.26458333,0,0,0.26458333,124.54602,77.53642)">
		<path
   style="fill:#c6ac89"
   d="m 233.714,448.116 c -2.146,0 -3.774,-0.321 -4.943,-0.951 -5.293,0.376 -8.709,4.093 -9.008,6.056 -0.07,0.457 0.073,0.502 0.12,0.516 1.058,0.331 5.586,0.599 10.094,0.599 6.506,0 9.009,-0.496 9.477,-0.777 0.672,-1.255 0.333,-4.698 -0.147,-5.917 -0.059,0.008 -0.111,0.014 -0.172,0.023 -1.452,0.19 -3.442,0.451 -5.421,0.451 z"
   id="path240" />

		<path
   style="fill:#c6ac89"
   d="m 268.508,447.202 c -2.244,0.764 -5.117,1.065 -7.457,1.065 -1.487,0 -2.752,-0.123 -3.587,-0.34 -0.425,1.402 -0.676,4.464 -0.051,5.633 0.467,0.282 2.971,0.777 9.478,0.777 h 10e-4 c 4.507,0 9.034,-0.268 10.092,-0.599 0.047,-0.014 0.189,-0.06 0.12,-0.516 -0.291,-1.912 -3.539,-5.486 -8.596,-6.02 z"
   id="path241" />

		<path
   style="fill:#ffd79f"
   d="m 278.927,376.572 c -2.366,1.525 -5.427,2.634 -8.01,3.38 0.873,1.861 1.841,3.772 2.797,5.654 3.261,6.419 6.077,11.964 4.566,14.554 -1.051,1.803 -1.396,3.704 -0.945,5.216 0.237,0.793 0.686,1.405 1.234,1.678 h 10e-4 c 0.58,0 1.896,-1.904 2.458,-2.718 0.948,-1.371 1.47,-2.127 2.217,-2.127 0.381,0 0.718,0.219 0.901,0.586 0.729,1.455 -0.233,3.359 -1.689,6.24 l -0.463,0.919 c -0.213,0.427 -0.426,0.829 -0.627,1.208 -0.49,0.926 -1.16,2.194 -0.989,2.509 0.006,0.011 0.16,0.272 1.29,0.374 0.068,0.006 0.134,0.009 0.203,0.009 2.925,-10e-4 7.241,-5.099 7.241,-9.679 0,-2.89 -1.127,-4.453 -2.319,-6.106 -0.851,-1.18 -1.73,-2.4 -2.258,-4.115 -1.456,-4.732 -3.827,-12.091 -5.608,-17.582 z"
   id="path242" />

		<path
   style="fill:#a18d71"
   d="m 264.112,355.937 c 1.206,5.741 2.962,14.396 4.469,23.005 3.81,-0.946 10,-2.904 12.031,-6.011 0.59,-0.904 0.759,-1.819 0.514,-2.798 -1.1,-4.399 -8.612,-11.035 -14.103,-15.402 -0.974,0.446 -1.945,0.845 -2.911,1.206 z"
   id="path243" />

		<path
   style="fill:#ffd79f"
   d="m 214.502,376.572 c -1.781,5.491 -4.152,12.85 -5.608,17.583 -0.529,1.715 -1.407,2.935 -2.258,4.115 -1.192,1.653 -2.319,3.216 -2.319,6.106 0,4.581 4.316,9.679 7.241,9.679 0.068,0 0.135,-0.003 0.203,-0.009 1.131,-0.102 1.284,-0.362 1.29,-0.374 0.171,-0.316 -0.5,-1.584 -0.989,-2.511 -0.2,-0.378 -0.413,-0.78 -0.626,-1.206 l -0.463,-0.919 c -1.455,-2.881 -2.418,-4.785 -1.69,-6.24 0.183,-0.367 0.52,-0.586 0.902,-0.586 0.747,0 1.269,0.756 2.217,2.128 0.562,0.814 1.879,2.72 2.445,2.721 0.561,-0.278 1.011,-0.889 1.247,-1.682 0.451,-1.512 0.105,-3.413 -0.945,-5.217 -1.512,-2.59 1.305,-8.134 4.566,-14.554 0.956,-1.882 1.924,-3.793 2.798,-5.654 -2.584,-0.746 -5.645,-1.855 -8.011,-3.38 z"
   id="path244" />

		<path
   style="fill:#a18d71"
   d="m 224.783,378.925 c 1.085,-7.724 2.493,-15.943 3.797,-23.201 -0.783,-0.274 -1.559,-0.564 -2.326,-0.872 -5.476,4.368 -12.861,10.923 -13.951,15.281 -0.245,0.979 -0.076,1.894 0.515,2.798 2.019,3.09 8.15,5.043 11.965,5.994 z"
   id="path245" />

		<path
   style="fill:#a18d71"
   d="m 245.028,411.263 c -0.001,0 -0.001,0 -0.002,0 -5.729,0 -14.955,-0.436 -19.169,-2.975 0.326,11.218 1.439,33.743 2.512,36.316 0.536,1.286 2.335,1.939 5.346,1.939 1.876,0 3.807,-0.254 5.216,-0.438 0.412,-0.054 0.775,-0.102 1.076,-0.135 1.049,-0.562 3.072,-8.129 4.282,-12.651 2.477,-9.261 3.291,-11.591 4.721,-11.591 1.441,0 2.086,2.151 4.01,10.624 1.137,5.005 3.04,13.383 4.573,13.972 0.464,0.179 1.617,0.37 3.458,0.37 3.049,0 6.927,-0.561 8.721,-1.817 0.73,-0.772 1.301,-7.432 0.429,-23.6 -0.257,-4.763 -0.577,-9.224 -0.897,-12.968 -4.234,1.848 -15.074,2.954 -24.276,2.954 z"
   id="path246" />

		<path
   style="fill:#c6ac89"
   d="m 262.618,356.463 c -0.556,0.185 -1.109,0.356 -1.658,0.516 -2.461,3.933 -5.902,8.728 -8.057,8.728 -2.553,0 -4.999,-4.303 -6.2,-6.788 -1.201,2.485 -3.646,6.788 -6.2,6.788 -2.166,0 -5.632,-4.847 -8.095,-8.792 -0.779,-0.213 -1.552,-0.443 -2.319,-0.689 -5.252,29.281 -6.831,45.97 -4.69,49.593 1.411,2.387 8.931,3.87 19.627,3.87 10e-4,0 0.002,0 0.003,0 12.113,0 23.178,-1.82 24.615,-3.387 1.873,-2.042 -2.071,-26.257 -7.026,-49.839 z"
   id="path247" />

		<path
   style="fill:#dacbb6"
   d="m 240.503,364.134 c 1.276,0 3.114,-2.653 4.462,-5.263 -3.47,-0.138 -6.929,-0.609 -10.309,-1.387 2.445,3.716 4.831,6.65 5.847,6.65 z"
   id="path248" />

		<path
   style="fill:#dacbb6"
   d="m 252.903,364.134 c 1.007,0 3.361,-2.882 5.783,-6.551 -3.77,0.896 -7.28,1.241 -10.227,1.319 1.347,2.601 3.176,5.232 4.444,5.232 z"
   id="path249" />

		<path
   style="fill:#ffd79f"
   d="m 201.601,338.184 c 1.086,0 2.108,-0.201 2.948,-0.438 -1.517,-2.584 -2.703,-5.421 -3.567,-8.409 -0.18,-0.048 -0.359,-0.118 -0.533,-0.218 -2.168,-1.255 -3.537,-4.48 -4.377,-8.558 -0.536,0.348 -1.011,0.779 -1.404,1.297 -1.576,2.08 -1.801,5.345 -0.651,9.441 1.282,4.569 3.835,6.885 7.584,6.885 z"
   id="path250" />

		<path
   style="fill:#ffd79f"
   d="m 293.97,320.187 c -0.347,1.39 -0.704,2.661 -1.063,3.766 -1.093,3.359 -2.003,4.767 -2.753,5.338 -0.725,1.814 -1.563,3.635 -2.534,5.461 -0.544,1.023 -1.112,1.991 -1.691,2.931 0.879,0.265 1.992,0.502 3.178,0.502 3.749,0 6.3,-2.317 7.582,-6.885 1.15,-4.097 0.925,-7.361 -0.651,-9.441 -0.547,-0.724 -1.251,-1.286 -2.068,-1.672 z"
   id="path251" />

		<path
   style="fill:#ffd79f"
   d="m 286.232,334.012 c 0.81,-1.522 1.522,-3.041 2.155,-4.553 -2.094,-1.014 -3.017,-5.419 -4.407,-12.844 -1.38,-7.374 -3.098,-16.552 -6.864,-18.644 -3.514,-1.952 -18.293,-3.539 -32.945,-3.539 -16.242,0 -27.733,1.9 -29.987,4.959 -2.533,3.437 -4.509,10.412 -6.253,16.566 -2.072,7.313 -3.47,11.91 -5.403,13.117 1.62,5.501 4.407,10.45 8.288,14.167 9.223,8.835 22.786,14.109 36.282,14.109 9.977,10e-4 28.329,-3.031 39.134,-23.338 z m -23.534,-19.945 c 2.413,0 4.37,1.956 4.37,4.37 0,2.413 -1.956,4.37 -4.37,4.37 -2.413,0 -4.369,-1.957 -4.369,-4.37 0,-2.414 1.956,-4.37 4.369,-4.37 z m -16.195,10.667 c 0.338,-0.653 1.337,-0.898 2.007,-0.718 0.66,0.177 1.186,0.652 1.472,1.269 0.651,1.406 -0.246,3.422 -1.966,3.314 -0.545,-0.034 -0.749,-0.72 -0.277,-1.023 0.413,-0.265 0.954,-0.433 1.17,-0.914 0.142,-0.316 0.097,-0.702 -0.033,-1.014 -0.128,-0.304 -0.405,-0.584 -0.733,-0.656 -0.485,-0.107 -0.887,0.185 -1.35,0.247 -0.272,0.037 -0.393,-0.307 -0.29,-0.505 z m -4.279,12.508 c 4.426,2.304 8.333,1.023 12.762,-0.483 0.627,-0.213 0.993,0.726 0.442,1.048 -3.813,2.226 -10.172,3.474 -13.671,0.039 -0.321,-0.314 0.087,-0.802 0.467,-0.604 z m -18.153,-18.806 c 0,-2.413 1.956,-4.37 4.37,-4.37 2.413,0 4.369,1.956 4.369,4.37 0,2.413 -1.956,4.37 -4.369,4.37 -2.414,0 -4.37,-1.957 -4.37,-4.37 z"
   id="path252" />

		<path
   style="fill:#fcb531"
   d="m 201.238,327.757 c 0.085,0.049 0.161,0.075 0.224,0.075 1.468,0 3.484,-7.111 4.955,-12.304 1.781,-6.283 3.798,-13.404 6.501,-17.071 3.724,-5.053 23.096,-5.598 31.253,-5.598 13.262,0 29.497,1.398 33.709,3.738 4.412,2.451 6.13,11.63 7.645,19.729 0.986,5.267 2.102,11.23 3.614,11.751 0.748,-0.315 2.915,-4.488 4.754,-15.243 2.996,-17.524 2.621,-37.677 -4.97,-43.197 -6.591,-4.793 -11.071,-5.8 -13.667,-5.8 -2.871,0 -4.124,1.166 -4.176,1.217 -0.248,0.238 -0.627,0.291 -0.926,0.129 -0.128,-0.07 -13.062,-6.996 -28.657,-6.996 -5.905,0 -11.49,0.989 -16.598,2.939 -4.835,1.846 -9.765,2.783 -14.654,2.783 -8.77,0.001 -15.605,-2.924 -20.128,-4.858 -1.995,-0.853 -3.571,-1.528 -4.379,-1.528 -0.125,0 -0.221,0.019 -0.242,0.047 -0.82,1.149 -1.243,9.339 1.151,17.963 1.46,5.258 4.381,12.037 10,14.472 0.314,0.136 0.504,0.459 0.47,0.799 -0.897,9.095 -1.907,33.464 4.121,36.953 z"
   id="path253" />

		<path
   style="fill:#ffffff"
   d="m 261.649,318.786 c 0.965,0 1.748,-0.782 1.748,-1.748 0,-0.965 -0.783,-1.748 -1.748,-1.748 -0.965,0 -1.748,0.782 -1.748,1.748 10e-4,0.965 0.783,1.748 1.748,1.748 z"
   id="path254" />

		<path
   style="fill:#ffffff"
   d="m 229.14,317.038 c 0,-0.965 -0.782,-1.748 -1.748,-1.748 -0.965,0 -1.748,0.782 -1.748,1.748 0,0.965 0.783,1.748 1.748,1.748 0.965,0 1.748,-0.783 1.748,-1.748 z"
   id="path255" />

		<path
   style="fill:#f16559"
   d="m 267.374,327.58 c -0.802,0.017 -1.353,0.511 -1.971,0.971 -0.489,0.364 -1.165,0.775 -1.541,1.255 -0.351,0.448 -0.155,1.118 0.472,1.14 0.642,0.022 1.29,-0.421 1.837,-0.71 0.7,-0.369 1.475,-0.751 1.911,-1.423 0.336,-0.521 -0.105,-1.246 -0.708,-1.233 z"
   id="path256" />

		<path
   style="fill:#f16559"
   d="m 270.295,329.683 c -1.273,0.323 -2.28,1.293 -3.326,2.044 -0.504,0.362 -1.028,0.693 -1.54,1.043 -0.21,0.144 -0.433,0.269 -0.646,0.407 -0.062,0.04 -0.522,0.345 -0.28,0.216 -0.415,0.222 -0.244,0.749 0.117,0.898 0.957,0.395 2.168,-0.434 2.996,-0.883 1.202,-0.653 2.574,-1.286 3.499,-2.315 0.56,-0.622 0.023,-1.624 -0.82,-1.41 z"
   id="path257" />

		<path
   style="fill:#f16559"
   d="m 270.334,333.67 c -1.094,0.402 -2.081,1.127 -2.894,1.962 -0.499,0.512 0.165,1.448 0.784,1.016 0.914,-0.638 2.086,-0.911 2.788,-1.814 0.376,-0.484 0.056,-1.434 -0.678,-1.164 z"
   id="path258" />

		<path
   style="fill:#f16559"
   d="m 226.125,328.828 c -0.897,-0.049 -1.644,0.507 -2.337,1.023 -0.434,0.324 -1.489,0.824 -0.965,1.501 0.416,0.536 1.287,0.18 1.795,-0.016 0.731,-0.281 1.477,-0.645 2.068,-1.151 0.565,-0.484 0.074,-1.322 -0.561,-1.357 z"
   id="path259" />

		<path
   style="fill:#f16559"
   d="m 229.144,330.739 c -1.342,-0.487 -2.611,0.553 -3.561,1.389 -1.136,0.999 -2.105,1.991 -3.405,2.788 -0.457,0.28 -0.281,1.031 0.277,1.023 1.237,-0.017 2.248,-0.779 3.205,-1.486 0.546,-0.403 1.086,-0.807 1.664,-1.165 0.645,-0.4 1.42,-0.558 2.02,-1.021 0.579,-0.448 0.526,-1.264 -0.2,-1.528 z"
   id="path260" />

		<path
   style="fill:#f16559"
   d="m 228.611,334.16 c -0.53,0.31 -1.044,0.558 -1.522,0.949 -0.453,0.37 -0.904,0.74 -1.353,1.116 -0.433,0.363 0.03,1.062 0.534,0.918 0.638,-0.183 1.235,-0.416 1.811,-0.748 0.595,-0.342 0.972,-0.847 1.37,-1.394 0.377,-0.518 -0.339,-1.134 -0.84,-0.841 z"
   id="path261" />

		<path
   style="fill:#ffffff"
   d="m 294.95,280.376 c -1.582,-6.158 -4.229,-11.332 -10.289,-13.939 -4.219,-1.815 -10.203,-4.148 -14.23,-1.024 -5.613,-5.643 -14.999,-6.863 -22.565,-6.99 -3.627,-0.061 -8.089,-0.606 -12.059,-0.025 -0.071,-0.022 -0.151,-0.033 -0.244,-0.027 -11.149,0.757 -20.497,6.631 -32.064,5.055 -4.281,-0.583 -7.948,-2.192 -11.641,-4.365 -2.077,-1.222 -4.429,-2.746 -6.925,-2.4 -0.461,0.064 -0.382,0.737 0,0.853 0.137,0.042 0.269,0.098 0.404,0.144 -1.377,2.384 -1.195,5.629 -0.62,8.779 -0.089,0.051 -0.164,0.129 -0.178,0.263 -0.39,3.952 0.23,8.649 2.583,11.93 0.177,0.247 0.453,0.241 0.631,0.107 1.48,4.304 3.682,8.367 6.96,11.51 0.447,0.428 1.392,0.005 1.123,-0.654 -0.802,-1.963 -1.989,-3.149 -3.26,-4.929 -1.78,-2.493 -2.682,-5.98 -3.569,-8.898 -1.413,-4.649 -3.535,-12.652 -2.248,-17.54 2.521,1.157 4.77,2.923 7.131,4.35 3.334,2.013 7.421,2.902 11.251,3.259 9.766,0.908 20.651,-2.129 29.72,-5.851 3.081,-0.031 6.609,0.521 9.336,0.746 9.085,0.749 17.374,0.692 25.131,6.288 0.234,0.169 0.474,0.201 0.69,0.144 0.15,0.041 0.319,0.029 0.487,-0.064 4.979,-2.745 13.328,0.109 17.463,3.576 3.991,3.346 5.067,9.859 6.067,14.691 1.392,6.728 0.042,13.176 -0.554,19.856 -0.563,6.315 -1.017,15.548 -5.245,20.793 -0.912,1.132 0.65,2.758 1.622,1.622 4.39,-5.129 5.334,-14.097 5.757,-20.575 0.604,-9.26 1.691,-17.515 -0.665,-26.685 z m -108.224,-5.031 c -0.548,-1.648 -0.917,-3.338 -1.163,-5.057 0.236,0.981 0.462,1.906 0.631,2.737 0.158,0.773 0.335,1.547 0.532,2.32 z"
   id="path262" />

		<path
   style="fill:#ffffff"
   d="m 203.314,336.532 c -3.276,1.054 -6.666,-2.067 -8.224,-4.674 -1.991,-3.332 -0.572,-7.272 1.309,-10.224 0.507,-0.796 -0.597,-1.538 -1.248,-0.963 -3.498,3.087 -3.868,8.219 -1.857,12.237 1.729,3.455 6.654,6.796 10.548,5.536 1.21,-0.392 0.693,-2.305 -0.528,-1.912 z"
   id="path263" />

		<path
   style="fill:#ffffff"
   d="m 201.445,327.866 c -1.259,-5.335 -2.452,-10.586 -3.313,-16.004 -1.093,-6.876 0.092,-14.24 -0.084,-21.217 -0.025,-1.004 -1.416,-0.955 -1.524,0 -1.41,12.499 -1.824,26.111 3.663,37.751 0.345,0.733 1.43,0.201 1.258,-0.53 z"
   id="path264" />

		<path
   style="fill:#ffffff"
   d="m 297.095,323.43 c -0.341,-0.806 -0.892,-3.759 -1.846,-4.078 l -0.033,-0.011 c -0.221,-0.074 -0.467,0.047 -0.583,0.237 -0.964,1.579 0.981,5.114 1.434,6.698 0.704,2.464 -0.516,4.711 -1.676,6.83 -0.803,1.469 -1.582,2.848 -3.318,3.539 -1.214,0.483 -2.967,0.229 -4.393,0.386 0.402,-0.752 0.775,-1.512 1.082,-2.29 0.307,-0.778 -0.883,-1.456 -1.41,-0.821 -4.05,4.877 -7.473,9.777 -12.751,13.47 -3.208,2.244 -8.028,4.407 -10.39,7.493 -0.088,0.115 0.057,0.284 0.185,0.241 8.156,-2.773 17.678,-8.921 22.509,-16.73 0.085,0.084 0.184,0.155 0.314,0.186 6.78,1.634 10.954,-3.324 12.157,-9.66 0.373,-1.959 -0.539,-3.74 -1.281,-5.49 z"
   id="path265" />

		<path
   style="fill:#ffffff"
   d="m 227.229,407.093 c -1.247,-4.263 -1.401,-8.072 -1.062,-12.486 0.381,-4.963 -0.484,-9.914 -0.145,-14.823 0.018,-0.259 -0.16,-0.419 -0.369,-0.472 0.103,-0.407 0.007,-0.86 -0.425,-1.083 -3.096,-1.605 -11.585,-3.542 -10.819,-8.273 0.818,-5.055 7.206,-9.957 10.585,-13.502 0.57,-0.598 -0.264,-1.361 -0.88,-0.881 -4.9,3.82 -12.314,9.681 -11.884,16.654 0.087,1.408 1.026,2.581 2.368,3.567 -0.121,0.112 -0.227,0.249 -0.286,0.443 -2.249,7.27 -4.174,15.886 -8.279,22.363 -3.585,5.657 -1.582,9.947 1.908,14.979 0.295,0.426 0.99,0.173 0.854,-0.36 -0.948,-3.695 -3.405,-5.826 -2.734,-10.158 0.422,-2.727 2.923,-4.874 3.867,-7.414 2.333,-6.278 4.38,-12.431 6.329,-18.82 2.851,1.535 6.463,2.517 8.211,3.215 0.174,0.07 0.333,0.064 0.481,0.031 -0.972,4.689 -0.462,9.766 -0.903,14.535 -0.38,4.104 -0.974,9.618 1.675,13.123 0.527,0.704 1.791,0.33 1.508,-0.638 z"
   id="path266" />

		<path
   style="fill:#ffffff"
   d="m 288.496,399.531 c -0.54,-1.234 -1.708,-2.422 -2.518,-3.491 -1.514,-1.997 -1.948,-4.388 -2.488,-6.765 -0.964,-4.245 -4.101,-8.737 -4.068,-13.161 10e-4,-0.115 -0.038,-0.204 -0.097,-0.272 2.162,-1.643 3.558,-3.767 2.902,-6.447 -1.213,-4.955 -6.322,-10.604 -11.285,-12.077 -0.324,-0.096 -0.454,0.332 -0.215,0.509 3.549,2.638 6.727,6.083 8.734,10.036 3.48,6.854 -7.115,7.768 -10.728,10.835 -0.639,0.542 0.049,1.504 0.773,1.328 2.336,-0.568 6.113,-1.723 8.975,-3.591 -0.333,1.612 0.394,3.135 0.737,4.786 0.823,3.953 2.117,7.767 2.947,11.725 0.441,2.101 1.77,3.764 3.08,5.391 4.103,5.102 1.973,9.211 -0.74,14.1 -0.48,0.866 0.743,1.536 1.302,0.761 3.239,-4.495 5.076,-8.214 2.689,-13.667 z"
   id="path267" />

		<path
   style="fill:#ffffff"
   d="m 244.639,358.441 c -0.059,-0.04 -0.129,-0.063 -0.197,-0.083 -0.47,-0.136 -0.85,0.165 -1.016,0.577 -0.136,0.337 -0.263,0.677 -0.391,1.016 -0.656,0.791 -1.393,1.506 -2.087,2.261 -2.129,-0.952 -3.231,-3.491 -5.436,-4.367 -0.469,-0.186 -0.711,0.455 -0.446,0.767 1.326,1.563 2.628,3.65 4.406,4.846 -0.014,0.047 -0.017,0.098 0.003,0.151 0.559,1.5 2.516,0.585 3.247,-0.182 1.035,-1.086 1.569,-2.531 2.215,-3.855 0.207,-0.429 0.094,-0.86 -0.298,-1.131 z"
   id="path268" />

		<path
   style="fill:#ffffff"
   d="m 258.315,357.369 c -1.257,-0.309 -1.901,0.899 -2.554,1.788 -0.901,1.229 -1.652,2.615 -2.776,3.654 -0.573,-0.659 -1.146,-1.319 -1.7,-1.994 -0.624,-0.76 -1.158,-2.081 -2.061,-2.528 -0.232,-0.115 -0.514,-0.022 -0.59,0.24 -0.284,0.986 0.571,2.051 1.054,2.858 0.734,1.227 1.588,2.369 2.472,3.491 0.265,0.336 0.855,0.368 1.197,0.155 1.299,-0.812 2.207,-1.938 3.095,-3.166 0.517,-0.715 0.995,-1.453 1.552,-2.138 0.46,-0.566 0.93,-0.827 0.877,-1.617 -0.023,-0.338 -0.218,-0.657 -0.566,-0.743 z"
   id="path269" />

		<path
   style="fill:#ffffff"
   d="m 231.432,446.714 c -3.152,-4.567 -3.031,-12.758 -3.756,-18.177 -0.403,-3.011 0.385,-6.95 -1.321,-9.612 -0.258,-0.403 -0.847,-0.052 -0.637,0.372 0.933,1.882 0.363,4.441 0.303,6.464 -0.086,2.873 0.235,5.612 0.639,8.454 0.626,4.409 0.311,9.977 3.781,13.264 0.504,0.477 1.412,-0.156 0.991,-0.765 z"
   id="path270" />

		<path
   style="fill:#ffffff"
   d="m 277.645,452.681 c -0.695,-1.519 -1.345,-2.852 -2.701,-3.876 -1.594,-1.204 -3.725,-1.249 -5.549,-1.938 1.732,-1.436 1.605,-4.52 1.657,-6.615 0.167,-6.703 -0.592,-13.557 0.153,-20.223 0.075,-0.67 -1.057,-0.82 -1.175,-0.159 -0.822,4.598 -0.849,9.413 -0.883,14.074 -0.029,3.863 0.795,8.949 -1.413,12.319 -0.335,0.512 0.227,1.343 0.838,1.096 1.226,0.998 2.642,1.645 4.039,2.37 1.84,0.955 2.354,2.257 3.279,3.978 0.631,1.172 2.29,0.144 1.755,-1.026 z"
   id="path271" />

		<path
   style="fill:#ffffff"
   d="m 228.528,446.599 c -1.023,-0.009 -2.177,0.499 -3.163,0.765 -1.288,0.348 -2.555,0.77 -3.742,1.384 -2.185,1.129 -3.235,3.488 -2.012,5.726 0.219,0.4 0.865,0.221 0.855,-0.232 -0.05,-2.291 1.09,-3.382 3.15,-4.187 1.595,-0.624 4.04,-0.63 5.396,-1.67 0.714,-0.548 0.552,-1.778 -0.484,-1.786 z"
   id="path272" />

		<path
   style="fill:#ffffff"
   d="m 268.157,379.261 c -0.037,-0.73 -1.087,-0.727 -1.131,0 -0.556,9.209 2.538,18.656 0.698,27.8 -0.242,1.201 1.438,1.669 1.833,0.505 2.998,-8.822 -0.951,-19.364 -1.4,-28.305 z"
   id="path273" />

		<path
   style="fill:#573f45"
   d="m 294.338,318.647 c 3.493,-15.266 5.478,-43.035 -4.488,-50.283 -5.566,-4.048 -10.477,-6.101 -14.593,-6.101 -2.53,0 -4.092,0.805 -4.812,1.299 -2.481,-1.246 -14.616,-6.949 -28.947,-6.949 -6.098,0 -11.87,1.024 -17.159,3.044 -4.655,1.777 -9.396,2.678 -14.093,2.678 -8.447,0.001 -15.105,-2.847 -19.509,-4.731 -2.245,-0.961 -3.867,-1.655 -4.998,-1.655 -0.841,0 -1.291,0.384 -1.522,0.707 -1.44,2.017 -1.301,11.316 0.916,19.297 1.508,5.429 4.524,12.402 10.368,15.254 -0.28,3.097 -1.425,17.454 0.273,27.724 -0.921,0.487 -1.729,1.147 -2.358,1.977 -1.314,1.735 -2.54,5.019 -0.911,10.818 1.863,6.638 5.975,8.032 9.097,8.032 1.462,0 2.8,-0.304 3.824,-0.629 1.257,1.917 2.68,3.694 4.303,5.25 4.21,4.032 9.296,7.341 14.861,9.782 -5.554,4.49 -12.659,10.977 -13.812,15.592 -0.352,1.407 -0.109,2.766 0.724,4.04 0.425,0.65 0.993,1.252 1.662,1.809 -1.799,5.541 -4.27,13.207 -5.773,18.091 -0.452,1.469 -1.219,2.532 -2.031,3.657 -1.285,1.784 -2.616,3.628 -2.616,7.027 0,5.581 5.128,11.252 8.814,11.252 0.116,0 0.23,-0.005 0.344,-0.015 0.852,-0.078 2.041,-0.285 2.532,-1.191 0.574,-1.057 -0.113,-2.354 -0.981,-3.996 -0.195,-0.368 -0.402,-0.76 -0.609,-1.174 l -0.466,-0.926 c -0.707,-1.398 -1.352,-2.675 -1.627,-3.61 0.124,0.176 0.247,0.354 0.359,0.516 1.155,1.671 2.349,3.399 3.739,3.4 0.251,0 0.491,-0.057 0.717,-0.17 0.949,-0.474 1.673,-1.41 2.038,-2.635 0.575,-1.927 0.175,-4.282 -1.095,-6.459 -1.079,-1.849 1.944,-7.8 4.61,-13.048 1.004,-1.977 2.024,-3.987 2.936,-5.948 0.175,0.045 0.346,0.088 0.513,0.129 -1.659,12.219 -2.416,22.914 -0.521,26.121 0.054,0.091 0.137,0.171 0.2,0.259 0.238,10.855 1.39,35.251 2.671,38.329 0.083,0.199 0.191,0.381 0.303,0.56 -5.35,0.963 -8.665,4.947 -9.012,7.215 -0.169,1.106 0.294,1.969 1.206,2.255 1.41,0.44 6.38,0.671 10.563,0.671 9.904,0 10.526,-1.035 10.79,-1.478 0.981,-1.634 0.666,-5.404 0.076,-7.168 1.489,-1.067 2.757,-5.285 4.965,-13.539 1.01,-3.775 2.357,-8.815 3.187,-10.185 0.706,1.298 1.726,5.789 2.491,9.16 1.652,7.273 2.939,12.452 4.604,14.37 -0.632,1.668 -1.007,5.666 0.01,7.362 0.265,0.443 0.887,1.478 10.791,1.478 h 10e-4 c 4.181,0 9.15,-0.23 10.561,-0.671 0.913,-0.286 1.375,-1.149 1.206,-2.255 -0.321,-2.098 -3.182,-5.662 -7.843,-6.948 2.422,-2.569 1.173,-25.074 -0.048,-38.637 0.01,-0.011 0.024,-0.021 0.034,-0.032 1.759,-1.919 0.234,-14.125 -1.951,-26.864 0.17,-0.042 0.345,-0.086 0.524,-0.132 0.912,1.961 1.932,3.97 2.937,5.948 2.667,5.249 5.689,11.199 4.609,13.048 -1.27,2.177 -1.668,4.531 -1.095,6.458 0.366,1.225 1.089,2.161 2.038,2.636 0.225,0.113 0.466,0.17 0.717,0.17 1.391,0 2.585,-1.729 3.74,-3.401 0.112,-0.161 0.235,-0.339 0.358,-0.515 -0.275,0.935 -0.921,2.212 -1.627,3.611 l -0.466,0.925 c -0.207,0.415 -0.415,0.807 -0.61,1.176 -0.867,1.642 -1.554,2.938 -0.981,3.994 0.492,0.906 1.68,1.113 2.532,1.191 0.114,0.01 0.227,0.015 0.344,0.015 3.686,-0.001 8.814,-5.671 8.814,-11.252 0,-3.398 -1.33,-5.243 -2.616,-7.027 -0.812,-1.126 -1.579,-2.189 -2.031,-3.657 -1.502,-4.884 -3.974,-12.55 -5.773,-18.091 0.668,-0.556 1.237,-1.158 1.662,-1.809 0.833,-1.274 1.076,-2.633 0.724,-4.04 -1.17,-4.682 -8.466,-11.291 -14.053,-15.786 5.84,-2.974 11.654,-7.651 16.454,-14.909 1.048,0.35 2.482,0.7 4.053,0.7 0.001,0 0.001,0 0.001,0 3.121,0 7.233,-1.394 9.096,-8.032 1.628,-5.798 0.402,-9.083 -0.911,-10.818 -0.761,-1.005 -1.781,-1.766 -2.954,-2.261 z m 2.352,12.652 c -1.282,4.569 -3.833,6.885 -7.582,6.885 -1.186,0 -2.299,-0.238 -3.178,-0.502 0.579,-0.94 1.147,-1.908 1.691,-2.931 0.971,-1.826 1.809,-3.648 2.534,-5.461 0.75,-0.57 1.66,-1.979 2.753,-5.338 0.359,-1.104 0.716,-2.376 1.063,-3.766 0.817,0.386 1.521,0.948 2.069,1.671 1.575,2.081 1.8,5.346 0.65,9.442 z m -15.564,38.834 c 0.245,0.979 0.076,1.894 -0.514,2.798 -2.031,3.107 -8.221,5.065 -12.031,6.011 -1.507,-8.608 -3.262,-17.264 -4.469,-23.005 0.965,-0.361 1.937,-0.76 2.911,-1.206 5.491,4.367 13.003,11.003 14.103,15.402 z m 7.986,34.242 c 0,4.58 -4.316,9.678 -7.241,9.679 -0.069,0 -0.135,-0.003 -0.203,-0.009 -1.131,-0.102 -1.284,-0.362 -1.29,-0.374 -0.171,-0.315 0.5,-1.583 0.989,-2.509 0.201,-0.379 0.414,-0.781 0.627,-1.208 l 0.463,-0.919 c 1.455,-2.881 2.418,-4.785 1.689,-6.24 -0.183,-0.367 -0.52,-0.586 -0.901,-0.586 -0.748,0 -1.269,0.756 -2.217,2.127 -0.562,0.814 -1.878,2.718 -2.458,2.718 h -10e-4 c -0.548,-0.273 -0.997,-0.886 -1.234,-1.678 -0.451,-1.512 -0.105,-3.413 0.945,-5.216 1.512,-2.59 -1.305,-8.134 -4.566,-14.554 -0.956,-1.882 -1.924,-3.793 -2.797,-5.654 2.583,-0.746 5.643,-1.855 8.01,-3.38 1.781,5.491 4.152,12.85 5.608,17.583 0.528,1.715 1.407,2.935 2.258,4.115 1.192,1.652 2.319,3.215 2.319,6.105 z m -19.34,40.502 c -1.794,1.255 -5.673,1.817 -8.721,1.817 -1.841,0 -2.995,-0.191 -3.458,-0.37 -1.533,-0.589 -3.436,-8.967 -4.573,-13.972 -1.924,-8.474 -2.569,-10.624 -4.01,-10.624 -1.43,0 -2.244,2.33 -4.721,11.591 -1.21,4.522 -3.233,12.089 -4.282,12.651 -0.301,0.033 -0.665,0.081 -1.076,0.135 -1.409,0.184 -3.34,0.438 -5.216,0.438 -3.011,0 -4.81,-0.652 -5.346,-1.939 -1.072,-2.573 -2.185,-25.098 -2.512,-36.316 4.214,2.539 13.439,2.975 19.169,2.975 10e-4,0 10e-4,0 0.002,0 9.202,0 20.043,-1.107 24.276,-2.954 0.32,3.743 0.641,8.205 0.897,12.968 0.872,16.168 0.301,22.828 -0.429,23.6 z m 7.212,8.861 c -1.058,0.331 -5.585,0.599 -10.092,0.599 h -10e-4 c -6.507,0 -9.011,-0.496 -9.478,-0.777 -0.625,-1.169 -0.374,-4.23 0.051,-5.633 0.834,0.217 2.1,0.34 3.587,0.34 2.34,0 5.213,-0.3 7.457,-1.065 5.057,0.534 8.305,4.108 8.596,6.019 0.07,0.457 -0.073,0.502 -0.12,0.517 z m -37.53,-0.178 c -0.468,0.282 -2.971,0.777 -9.477,0.777 -4.508,0 -9.036,-0.268 -10.094,-0.599 -0.047,-0.014 -0.189,-0.06 -0.12,-0.516 0.299,-1.963 3.715,-5.68 9.008,-6.056 1.169,0.63 2.797,0.951 4.943,0.951 1.979,0 3.968,-0.261 5.421,-0.452 0.061,-0.008 0.113,-0.015 0.172,-0.023 0.481,1.22 0.819,4.663 0.147,5.918 z m 30.189,-47.257 c -1.437,1.567 -12.501,3.387 -24.615,3.387 -0.001,0 -0.002,0 -0.003,0 -10.696,0 -18.216,-1.483 -19.627,-3.87 -2.141,-3.624 -0.561,-20.312 4.69,-49.593 0.768,0.245 1.54,0.476 2.319,0.689 2.464,3.945 5.929,8.792 8.095,8.792 2.553,0 4.999,-4.303 6.2,-6.788 1.201,2.485 3.647,6.788 6.2,6.788 2.155,0 5.596,-4.795 8.057,-8.728 0.549,-0.16 1.102,-0.331 1.658,-0.516 4.956,23.581 8.9,47.796 7.026,49.839 z m -54.494,-6.143 c 1.051,1.804 1.396,3.705 0.945,5.217 -0.237,0.793 -0.686,1.404 -1.247,1.682 -0.565,-0.001 -1.882,-1.907 -2.445,-2.721 -0.948,-1.372 -1.471,-2.128 -2.217,-2.128 -0.382,0 -0.719,0.219 -0.902,0.586 -0.728,1.455 0.234,3.359 1.69,6.24 l 0.463,0.919 c 0.213,0.426 0.426,0.829 0.626,1.206 0.49,0.927 1.16,2.195 0.989,2.511 -0.006,0.011 -0.16,0.272 -1.29,0.374 -0.068,0.006 -0.135,0.009 -0.203,0.009 -2.925,0 -7.241,-5.098 -7.241,-9.679 0,-2.89 1.127,-4.453 2.319,-6.106 0.851,-1.18 1.73,-2.4 2.258,-4.115 1.456,-4.733 3.827,-12.092 5.608,-17.583 2.367,1.525 5.427,2.634 8.01,3.38 -0.873,1.862 -1.841,3.772 -2.798,5.654 -3.26,6.419 -6.077,11.964 -4.565,14.554 z m -2.331,-27.229 c -0.591,-0.904 -0.76,-1.819 -0.515,-2.798 1.09,-4.358 8.474,-10.913 13.951,-15.281 0.768,0.308 1.543,0.598 2.326,0.872 -1.304,7.258 -2.712,15.477 -3.797,23.201 -3.815,-0.951 -9.946,-2.904 -11.965,-5.994 z m 21.838,-15.446 c 3.38,0.778 6.839,1.249 10.309,1.387 -1.348,2.609 -3.187,5.263 -4.462,5.263 -1.016,-10e-4 -3.402,-2.935 -5.847,-6.65 z m 13.803,1.418 c 2.947,-0.078 6.458,-0.424 10.227,-1.319 -2.422,3.669 -4.776,6.551 -5.783,6.551 -1.268,-10e-4 -3.097,-2.632 -4.444,-5.232 z m -1.362,-1.552 c -13.496,0 -27.058,-5.274 -36.282,-14.109 -3.881,-3.717 -6.668,-8.667 -8.288,-14.167 1.933,-1.207 3.331,-5.805 5.403,-13.117 1.744,-6.154 3.721,-13.129 6.253,-16.566 2.254,-3.059 13.745,-4.959 29.987,-4.959 14.652,0 29.431,1.587 32.945,3.539 3.766,2.092 5.483,11.27 6.864,18.644 1.389,7.425 2.313,11.83 4.407,12.844 -0.633,1.512 -1.345,3.031 -2.155,4.553 -10.804,20.306 -29.156,23.338 -39.134,23.338 z m -52.429,-35.493 c 0.393,-0.518 0.868,-0.949 1.404,-1.297 0.84,4.078 2.209,7.302 4.377,8.558 0.174,0.101 0.353,0.171 0.533,0.218 0.864,2.988 2.05,5.825 3.567,8.409 -0.84,0.237 -1.862,0.438 -2.948,0.438 -3.749,0 -6.301,-2.317 -7.584,-6.885 -1.15,-4.096 -0.925,-7.361 0.651,-9.441 z m 1.979,-31.854 c -5.618,-2.434 -8.539,-9.214 -10,-14.472 -2.394,-8.624 -1.971,-16.814 -1.151,-17.963 0.021,-0.028 0.117,-0.047 0.242,-0.047 0.808,0 2.384,0.675 4.379,1.528 4.522,1.935 11.358,4.859 20.128,4.858 4.889,0 9.819,-0.936 14.654,-2.783 5.108,-1.95 10.693,-2.939 16.598,-2.939 15.595,0 28.529,6.926 28.657,6.996 0.299,0.162 0.678,0.109 0.926,-0.129 0.052,-0.05 1.305,-1.217 4.176,-1.217 2.596,0 7.076,1.007 13.667,5.8 7.591,5.52 7.966,25.674 4.97,43.197 -1.839,10.755 -4.006,14.927 -4.754,15.243 -1.513,-0.52 -2.628,-6.484 -3.614,-11.751 -1.515,-8.099 -3.233,-17.278 -7.645,-19.729 -4.212,-2.34 -20.447,-3.738 -33.709,-3.738 -8.157,0 -27.529,0.545 -31.253,5.598 -2.703,3.667 -4.72,10.788 -6.501,17.071 -1.471,5.192 -3.486,12.304 -4.955,12.304 -0.064,0 -0.139,-0.026 -0.224,-0.075 -6.028,-3.489 -5.018,-27.858 -4.121,-36.954 0.034,-0.34 -0.155,-0.662 -0.47,-0.798 z"
   id="path274" />

		<path
   style="fill:#573f45"
   d="m 262.698,322.806 c 2.413,0 4.37,-1.957 4.37,-4.37 0,-2.413 -1.956,-4.37 -4.37,-4.37 -2.413,0 -4.369,1.956 -4.369,4.37 0,2.413 1.956,4.37 4.369,4.37 z m -1.049,-7.516 c 0.965,0 1.748,0.782 1.748,1.748 0,0.965 -0.783,1.748 -1.748,1.748 -0.965,0 -1.748,-0.782 -1.748,-1.748 10e-4,-0.965 0.783,-1.748 1.748,-1.748 z"
   id="path275" />

		<path
   style="fill:#573f45"
   d="m 232.81,318.436 c 0,-2.413 -1.956,-4.37 -4.369,-4.37 -2.413,0 -4.37,1.956 -4.37,4.37 0,2.413 1.956,4.37 4.37,4.37 2.413,0 4.369,-1.957 4.369,-4.37 z m -7.166,-1.398 c 0,-0.965 0.783,-1.748 1.748,-1.748 0.965,0 1.748,0.782 1.748,1.748 0,0.965 -0.782,1.748 -1.748,1.748 -0.965,0 -1.748,-0.783 -1.748,-1.748 z"
   id="path276" />

		<path
   style="fill:#573f45"
   d="m 246.793,325.239 c 0.463,-0.062 0.865,-0.354 1.35,-0.247 0.328,0.072 0.605,0.352 0.733,0.656 0.13,0.311 0.175,0.698 0.033,1.014 -0.215,0.481 -0.756,0.648 -1.17,0.914 -0.472,0.302 -0.268,0.988 0.277,1.023 1.719,0.108 2.617,-1.908 1.966,-3.314 -0.286,-0.617 -0.812,-1.091 -1.472,-1.269 -0.671,-0.18 -1.669,0.065 -2.007,0.718 -0.103,0.198 0.018,0.542 0.29,0.505 z"
   id="path277" />

		<path
   style="fill:#573f45"
   d="m 255.428,337.808 c 0.551,-0.322 0.185,-1.262 -0.442,-1.048 -4.429,1.506 -8.336,2.786 -12.762,0.483 -0.381,-0.198 -0.788,0.289 -0.467,0.605 3.499,3.434 9.859,2.186 13.671,-0.04 z"
   id="path278" />

	</g>
  </g>
</svg>
