<?xml version="1.0" encoding="UTF-8" standalone="no"?>
<!-- Created with Inkscape (http://www.inkscape.org/) -->

<svg
   width="102.06557mm"
   height="205.18227mm"
   viewBox="0 0 102.06557 205.18227"
   version="1.1"
   id="svg1"
   inkscape:version="1.4.2 (f4327f4, 2025-05-13)"
   sodipodi:docname="boy4.svg"
   xmlns:inkscape="http://www.inkscape.org/namespaces/inkscape"
   xmlns:sodipodi="http://sodipodi.sourceforge.net/DTD/sodipodi-0.dtd"
   xmlns="http://www.w3.org/2000/svg"
   xmlns:svg="http://www.w3.org/2000/svg">
  <sodipodi:namedview
     id="namedview1"
     pagecolor="#ffffff"
     bordercolor="#000000"
     borderopacity="0.25"
     inkscape:showpageshadow="2"
     inkscape:pageopacity="0.0"
     inkscape:pagecheckerboard="0"
     inkscape:deskcolor="#d1d1d1"
     inkscape:document-units="mm"
     inkscape:zoom="1.2275954"
     inkscape:cx="30.954824"
     inkscape:cy="226.45898"
     inkscape:window-width="2880"
     inkscape:window-height="1676"
     inkscape:window-x="-12"
     inkscape:window-y="-12"
     inkscape:window-maximized="1"
     inkscape:current-layer="layer1" />
  <defs
     id="defs1">
    <clipPath
       clipPathUnits="userSpaceOnUse"
       id="clipPath119">
      <path
         d="m 2429.58,8528.87 v 0 l -1.54,4.27 c 7.66,35.49 -15.79,67.53 -15.79,67.53 10.47,20.59 15.22,39.01 16.15,55.3 95.03,81.21 245.93,222.7 239.94,298.46 -6.68,84.06 -297.09,299.7 -435.14,397.71 -1.96,12.33 -3.87,24.38 -5.72,36.02 -4.67,29.42 -8.97,56.5 -12.82,80.63 v 0 c 0,0 399.66,-281.36 528.14,-436.13 0,0 44.89,-42.39 44.81,-102.96 0,-4.99 -0.32,-10.11 -0.98,-15.34 -8.76,-68.62 -357.05,-385.49 -357.05,-385.49"
         transform="translate(0,2.5000001e-4)"
         id="path119" />
    </clipPath>
  </defs>
  <g
     inkscape:label="图层 1"
     inkscape:groupmode="layer"
     id="layer1"
     transform="translate(-96.572913,-88.63539)">
    <path
       id="path117"
       d="m 173.91158,163.60929 0.78952,-0.29245 c 0,0 14.09912,9.92576 18.63161,15.3857 0,0 1.85526,1.75225 1.54622,4.17336 -0.30903,2.42076 -12.59593,13.59923 -12.59593,13.59923 l -3.11785,-8.65434 c 0,0 6.43996,-5.97535 5.87375,-6.69714 -0.56621,-0.72072 -9.73561,-7.41715 -9.73561,-7.41715 l -1.39171,-10.09721"
       style="fill:#60795b;fill-opacity:1;fill-rule:nonzero;stroke:none;stroke-width:0.0352778" />
    <path
       id="path118"
       d="m 2214.66,8528.87 h 573.031 v 939.918 H 2214.66 Z"
       style="fill:#42583e;fill-opacity:1;fill-rule:nonzero;stroke:none"
       transform="matrix(0.03527778,0,0,-0.03527778,96.572813,497.35473)"
       clip-path="url(#clipPath119)" />
    <path
       id="path120"
       d="m 150.31745,163.29991 -0.85936,-0.53199 c 0,0 -13.56537,11.1954 -14.54327,16.24506 -0.97966,5.0479 7.05662,18.4404 7.05662,18.4404 l 6.44031,-5.04789 c 0,0 -8.96444,-10.25067 -6.74935,-13.03197 2.21686,-2.78306 7.62494,-6.59483 7.62494,-6.59483 l 1.03011,-9.47878"
       style="fill:#60795b;fill-opacity:1;fill-rule:nonzero;stroke:none;stroke-width:0.0352778" />
    <path
       id="path121"
       d="m 144.89138,195.16491 c -2.01013,-3.79377 -5.88257,-11.34498 -6.93632,-15.08231 -1.03717,-3.67488 7.24394,-10.01783 11.98316,-13.29443 l -0.65088,5.99052 c 0,0 -5.40808,3.81177 -7.62494,6.59483 -0.24447,0.30692 -0.35278,0.70485 -0.35207,1.16981 0.006,3.74897 7.10142,11.86216 7.10142,11.86216 l -3.52037,2.75942"
       style="fill:#42583e;fill-opacity:1;fill-rule:nonzero;stroke:none;stroke-width:0.0352778" />
    <path
       id="path122"
       d="m 167.96975,291.88353 c 2.54564,0.51259 9.2015,0.9077 11.87873,-2.33468 0.21555,-0.84137 0.28928,-1.73426 0.27693,-2.57175 -0.0145,-0.77752 -0.0667,-1.55716 -0.12418,-2.33116 -0.13299,-1.82492 -0.30409,-3.73238 -0.91863,-5.46488 -0.24835,-0.69285 -0.67098,-2.04293 -1.56422,-2.11949 -1.64888,-0.13687 -6.18137,-0.51364 -7.62529,1.78718 0,0 -0.78916,2.57527 -2.84974,5.70018 -0.93486,1.41393 -1.64465,2.91888 -2.04223,4.25556 0.004,0.0543 0.18345,2.5153 2.96863,3.07904"
       style="fill:#2e8a72;fill-opacity:1;fill-rule:nonzero;stroke:none;stroke-width:0.0352778" />
    <path
       id="path123"
       d="m 169.42002,280.10957 c -3.6e-4,-3.5e-4 -0.001,-7e-4 -0.001,-7e-4 0.10442,-0.25118 0.19085,-0.47025 0.25964,-0.65229 3.5e-4,0 7.1e-4,0 0.001,3.6e-4 -0.0684,0.18203 -0.15452,0.4011 -0.25929,0.65263"
       style="fill:#a5ddca;fill-opacity:1;fill-rule:nonzero;stroke:none;stroke-width:0.0352778" />
    <path
       id="path124"
       d="m 173.48719,280.86664 c -1.40123,0 -2.83739,-0.21908 -4.06717,-0.75707 0.10477,-0.25153 0.19085,-0.4706 0.25929,-0.65263 1.44956,0.3884 2.73438,0.55068 3.86962,0.55068 2.35902,0 4.07247,-0.70097 5.27367,-1.53035 0.10513,0.25824 0.18945,0.5073 0.26,0.70379 0.0448,0.13159 0.0861,0.26811 0.12735,0.40288 -0.92921,0.49882 -1.98649,0.80821 -2.9845,1.00965 -0.84596,0.17145 -1.78399,0.27305 -2.73826,0.27305"
       style="fill:#26735e;fill-opacity:1;fill-rule:nonzero;stroke:none;stroke-width:0.0352778" />
    <path
       id="path125"
       d="m 167.96975,291.88353 c -2.78518,-0.56374 -2.9651,-3.02471 -2.96863,-3.07904 -0.48013,1.61537 -0.50165,2.98556 0.11677,3.64349 1.13454,1.20191 8.75948,2.16288 12.29607,0.41169 1.35008,-0.66816 2.08386,-1.92476 2.43452,-3.31082 -2.67723,3.24238 -9.33309,2.84727 -11.87873,2.33468"
       style="fill:#f8a917;fill-opacity:1;fill-rule:nonzero;stroke:none;stroke-width:0.0352778" />
    <path
       id="path126"
       d="m 125.28148,276.47808 c 0,0 -1.54615,2.06128 -6.31941,-4.67007 -4.77351,-6.73171 -4.91021,-8.00347 -4.91021,-8.00347 0,0 10.61131,3.77825 11.22962,12.67354"
       style="fill:#070909;fill-opacity:1;fill-rule:nonzero;stroke:none;stroke-width:0.0352778" />
    <path
       id="path127"
       d="m 177.98017,202.75881 c 0,0 -0.1023,2.83527 -1.64677,8.45044 -1.54622,5.61481 -3.86573,24.62318 -1.90747,32.60866 1.95792,7.98477 6.02827,24.62354 6.80121,31.9906 0,0 -3.24697,7.15998 -14.11676,2.7813 0,0 -1.85385,-25.49984 -1.54446,-32.40405 0.3108,-6.90104 -1.03046,-31.31962 -1.03046,-31.31962 0,0 -7.82991,-0.72072 -8.96268,-1.33949 0,0 -8.24336,12.36415 -15.14545,23.90316 -6.9021,11.53901 -15.14585,39.04827 -15.14585,39.04827 0,0 0.10266,-8.13929 -11.22962,-12.67354 0,0 26.6845,-44.09582 33.5866,-53.16291 0,0 -0.73872,-4.7237 -0.92745,-6.04344 l 31.26916,-1.83938"
       style="fill:#183f38;fill-opacity:1;fill-rule:nonzero;stroke:none;stroke-width:0.0352778" />
    <path
       id="path128"
       d="m 124.51391,273.12775 c 0,0 -1.5463,-5.19077 -9.30092,-8.82862 0,0 -4.25168,-0.23636 -6.82833,-2.29693 -2.57623,-2.05952 -8.19118,-8.34496 -11.643451,-3.50309 0,0 -0.09508,0.0681 -0.141662,0.3108 0,0 1.22411,-1.80234 3.439303,0.33443 1.88405,1.81681 3.32811,4.25944 4.84724,6.37223 2.22762,3.09386 4.47492,6.18278 6.64877,9.31368 1.18844,1.71098 2.5079,3.3207 4.05941,4.717 0.3725,0.33302 2.58191,1.86725 2.19718,2.68252 0.29118,-0.13864 0.62935,-0.34431 0.99949,-0.65193 1.23525,-1.02906 5.72297,-8.45009 5.72297,-8.45009"
       style="fill:#2e8a72;fill-opacity:1;fill-rule:nonzero;stroke:none;stroke-width:0.0352778" />
    <path
       id="path129"
       d="m 124.42931,273.2671 c 4.3e-4,-7.1e-4 8.1e-4,-0.001 0.002,-0.002 -5.7e-4,7.1e-4 -10e-4,10e-4 -0.002,0.002 m 0.0101,-0.0166 c 7e-4,-10e-4 0.001,-0.002 0.002,-0.003 -7.1e-4,10e-4 -0.001,0.002 -0.002,0.003 m 0.005,-0.008 c 4.2e-4,-3.5e-4 8.1e-4,-0.001 10e-4,-0.002 -4.2e-4,7.1e-4 -8.1e-4,10e-4 -10e-4,0.002 m 0.004,-0.006 c 5.7e-4,-7.1e-4 0.001,-0.002 0.002,-0.003 -5.3e-4,0.001 -0.001,0.002 -0.002,0.003 m 0.01,-0.0159 c 6.7e-4,-10e-4 0.001,-0.002 0.002,-0.003 -6.7e-4,10e-4 -10e-4,0.002 -0.002,0.003 m 0.003,-0.006 c 4.2e-4,-7.1e-4 8.5e-4,-0.001 0.001,-0.002 -4.2e-4,7.1e-4 -8.5e-4,10e-4 -0.001,0.002 m 0.004,-0.006 c 0.0237,-0.0392 0.0393,-0.0649 0.0459,-0.0758 -0.007,0.0109 -0.0222,0.0367 -0.0459,0.0758 m 0.0463,-0.0765 c 1.4e-4,-3.5e-4 2.9e-4,-7e-4 5.7e-4,-7e-4 -2.8e-4,0 -4.3e-4,3.5e-4 -5.7e-4,7e-4 m 8.5e-4,-10e-4 c 1.4e-4,0 1.4e-4,-3.5e-4 2.8e-4,-3.5e-4 -1.4e-4,0 -1.4e-4,3.5e-4 -2.8e-4,3.5e-4 m 6.7e-4,-10e-4 c 1.4e-4,-3.5e-4 4.2e-4,-7e-4 5.6e-4,-0.001 -1.4e-4,3.6e-4 -4.2e-4,7.1e-4 -5.6e-4,0.001"
       style="fill:#060808;fill-opacity:1;fill-rule:nonzero;stroke:none;stroke-width:0.0352778" />
    <path
       id="path130"
       d="m 123.36671,274.98936 c -2.24716,-4.21146 -5.3038,-7.96043 -9.14591,-10.79747 0.60565,0.0864 0.99219,0.10724 0.99219,0.10724 4.38037,2.05493 6.77993,4.60552 8.03864,6.43608 0.56156,0.84773 0.96767,1.66017 1.26161,2.3936 -1.4e-4,3.5e-4 -2.8e-4,7e-4 -4.3e-4,7e-4 -1.4e-4,3.6e-4 -4.2e-4,7.1e-4 -5.6e-4,0.001 -1.4e-4,0 -2.5e-4,3.5e-4 -3.9e-4,7.1e-4 -1.4e-4,0 -1.4e-4,3.5e-4 -2.8e-4,3.5e-4 -1.4e-4,3.5e-4 -1.4e-4,3.5e-4 -2.8e-4,7.1e-4 -2.8e-4,0 -4.3e-4,3.5e-4 -5.7e-4,7e-4 -10e-5,3.5e-4 -2.4e-4,3.5e-4 -3.8e-4,7.1e-4 -0.007,0.0109 -0.0222,0.0367 -0.0459,0.0758 -8.5e-4,10e-4 -0.002,0.002 -0.002,0.004 -4.2e-4,7.1e-4 -8.5e-4,0.001 -0.001,0.002 -3.9e-4,7e-4 -9.5e-4,0.001 -0.001,0.002 -6.7e-4,10e-4 -10e-4,0.002 -0.002,0.003 -0.003,0.004 -0.005,0.008 -0.008,0.0131 -5.3e-4,0.001 -0.001,0.002 -0.002,0.003 -8.1e-4,0.001 -0.002,0.003 -0.002,0.004 -4.2e-4,7.1e-4 -8.1e-4,10e-4 -0.001,0.002 -8.5e-4,0.002 -0.002,0.003 -0.003,0.005 -7.1e-4,10e-4 -10e-4,0.002 -0.002,0.003 -0.003,0.005 -0.006,0.01 -0.009,0.0145 -7.1e-4,7.1e-4 -0.001,0.001 -0.002,0.002 -0.16425,0.27022 -0.55509,0.90946 -1.0626,1.72226"
       style="fill:#26735e;fill-opacity:1;fill-rule:nonzero;stroke:none;stroke-width:0.0352778" />
    <path
       id="path131"
       d="m 115.59442,279.54725 c -1.55166,-1.3963 -2.87112,-3.00602 -4.05956,-4.717 -2.17385,-3.1309 -4.42129,-6.21947 -6.64877,-9.31368 -1.51913,-2.11279 -2.96319,-4.55542 -4.8471,-6.37223 -2.215195,-2.13677 -3.439443,-0.33443 -3.439443,-0.33443 -0.08819,0.4505 -0.01447,1.50848 1.121724,3.91407 1.751347,3.70805 13.135589,19.98592 18.957129,19.78166 0,0 0.42979,0.0487 1.11319,-0.27587 0.38459,-0.81527 -1.82482,-2.3495 -2.19717,-2.68252"
       style="fill:#f8a917;fill-opacity:1;fill-rule:nonzero;stroke:none;stroke-width:0.0352778" />
    <path
       id="path132"
       d="m 152.94424,212.23865 c 0,0 0.23565,0.0995 0.65087,0.2593 0.40993,0.16651 1.01212,0.369 1.73143,0.61595 0.36125,0.11359 0.75142,0.25047 1.17052,0.36159 0.41522,0.12559 0.85937,0.2406 1.31763,0.35525 0.45684,0.12912 0.93874,0.21096 1.4224,0.32632 0.48542,0.0995 0.98319,0.17956 1.48166,0.26035 0.49989,0.055 0.99766,0.14217 1.4919,0.17004 0.49424,0.0198 0.98002,0.0917 1.45098,0.0699 0.16122,-0.003 0.32102,-0.001 0.47872,7e-4 0.30303,0.004 0.59795,0.007 0.88053,-0.0257 0.42968,-0.0423 0.84314,-0.0356 1.21355,-0.11112 0.37218,-0.0667 0.71544,-0.11889 1.02306,-0.16581 0.30021,-0.0572 0.55562,-0.14076 0.77329,-0.19226 0.42933,-0.11113 0.67768,-0.17251 0.67768,-0.17251 0,0 -0.23741,0.09 -0.65475,0.248 -0.21026,0.072 -0.46214,0.17886 -0.762,0.26811 -0.30021,0.0744 -0.6417,0.15981 -1.01776,0.24271 -0.37395,0.097 -0.7927,0.11571 -1.22802,0.18239 -0.43674,0.0744 -0.90241,0.0709 -1.3843,0.09 -0.48155,0.0307 -0.97614,-0.019 -1.48132,-0.0367 -0.50518,-0.0236 -1.01247,-0.10725 -1.52294,-0.15946 -0.50341,-0.0882 -1.00859,-0.17356 -1.50283,-0.2794 -0.49107,-0.11782 -0.97473,-0.22401 -1.43122,-0.36477 -0.23213,-0.0674 -0.45685,-0.13511 -0.67804,-0.19967 -0.21908,-0.0755 -0.43145,-0.14746 -0.63994,-0.21943 -0.41698,-0.13758 -0.8001,-0.29563 -1.15993,-0.43145 -1.41994,-0.57291 -2.30117,-1.0922 -2.30117,-1.0922"
       style="fill:#090e0d;fill-opacity:1;fill-rule:nonzero;stroke:none;stroke-width:0.0352778" />
    <path
       id="path133"
       d="m 125.28148,276.47808 v 0 0 m 0,-3.5e-4 c 1.4e-4,-0.0127 0.007,-0.87666 -0.37123,-2.19322 -0.0193,-0.0709 -0.0394,-0.14147 -0.0601,-0.21167 0.4404,1.43475 0.43144,2.39183 0.4313,2.40489"
       style="fill:#7ca69c;fill-opacity:1;fill-rule:nonzero;stroke:none;stroke-width:0.0352778" />
    <path
       id="path134"
       d="m 124.91025,274.28451 c -0.10184,-0.3549 -0.23166,-0.7426 -0.39701,-1.1557 v 0 h 1.4e-4 c 0,0 0,-3.6e-4 1.4e-4,-3.6e-4 0,0 0,0 1.1e-4,0 1.4e-4,-3.5e-4 2.8e-4,-7e-4 2.8e-4,-7e-4 v 0 0 0 c 0,0 -0.003,-0.009 -0.009,-0.0272 0.13822,0.3429 0.25164,0.66816 0.34495,0.97225 0.0206,0.0702 0.0408,0.14076 0.0601,0.21167 m -1.5609,-3.40537 c -0.0319,-0.0476 -0.0644,-0.0956 -0.0977,-0.14393 -0.0622,-0.0938 -0.12622,-0.18838 -0.19222,-0.28293 4.2e-4,-0.001 5.2e-4,-0.002 9.5e-4,-0.003 0.10075,0.14393 0.1972,0.28786 0.28899,0.43003"
       style="fill:#060708;fill-opacity:1;fill-rule:nonzero;stroke:none;stroke-width:0.0352778" />
    <path
       id="path135"
       d="m 125.28148,276.47808 v 0 0 -3.5e-4 c 1.4e-4,-0.0131 0.009,-0.97014 -0.4313,-2.40489 -0.0933,-0.30409 -0.20673,-0.62935 -0.34495,-0.97225 -0.0522,-0.16052 -0.35359,-1.02235 -1.15588,-2.22145 -0.0918,-0.14217 -0.18824,-0.2861 -0.28899,-0.43003 2.05038,-7.24994 12.04743,-30.10394 17.77866,-39.80816 8.55063,-14.48047 12.10522,-18.4023 12.10522,-18.4023 v 0 c 0,0 0.88123,0.51929 2.30117,1.0922 0.35983,0.13582 0.74295,0.29387 1.15993,0.43145 0.0773,0.0265 0.15522,0.0533 0.23389,0.0801 -0.49812,-0.10548 -0.87665,-0.21202 -1.06645,-0.31573 0,0 -8.24336,12.36415 -15.14545,23.90316 -6.9021,11.53901 -15.14585,39.04827 -15.14585,39.04827 m 38.19741,-61.81655 c -0.41346,0 -0.8375,-0.0568 -1.26824,-0.0741 -0.49424,-0.0279 -0.99201,-0.11501 -1.4919,-0.17004 -0.49847,-0.0808 -0.99624,-0.16087 -1.48166,-0.26035 -0.48366,-0.11536 -0.96556,-0.1972 -1.4224,-0.32632 -0.45826,-0.11465 -0.90241,-0.22966 -1.31763,-0.35525 -0.4191,-0.11112 -0.80927,-0.248 -1.17052,-0.36159 -0.71931,-0.24695 -1.3215,-0.44944 -1.73143,-0.61595 -0.41522,-0.15981 -0.65087,-0.2593 -0.65087,-0.2593 0,0 3.57469,0.87983 8.31709,0.87983 3.20992,0 6.95572,-0.40358 10.48737,-1.75648 0,0 -0.72143,1.75366 -3.79059,2.81905 -0.20144,0.0515 -0.43321,0.12347 -0.70062,0.17427 -0.30762,0.0469 -0.65088,0.0991 -1.02306,0.16581 -0.37041,0.0755 -0.78387,0.0688 -1.21355,0.11112 -0.19332,0.0226 -0.39264,0.0279 -0.59655,0.0279 -0.0938,0 -0.18838,-10e-4 -0.28398,-0.002 -0.0949,-0.001 -0.19086,-0.002 -0.28717,-0.002 -0.0639,0 -0.1277,7.1e-4 -0.19155,0.002 -0.0607,0.003 -0.12136,0.004 -0.18274,0.004"
       style="fill:#102723;fill-opacity:1;fill-rule:nonzero;stroke:none;stroke-width:0.0352778" />
    <path
       id="path136"
       d="m 124.51324,273.12881 v 0 0 0 m 1.4e-4,0 c 0,0 0,-3.6e-4 1.4e-4,-3.6e-4 -1.4e-4,0 -1.4e-4,3.6e-4 -1.4e-4,3.6e-4 m 2.5e-4,-3.6e-4 c 1.4e-4,-3.5e-4 2.8e-4,-7e-4 2.8e-4,-7e-4 0,0 -1.4e-4,3.5e-4 -2.8e-4,7e-4"
       style="fill:#1c5446;fill-opacity:1;fill-rule:nonzero;stroke:none;stroke-width:0.0352778" />
    <path
       id="path137"
       d="m 124.51324,273.12881 h 1.4e-4 -1.4e-4 m 2.8e-4,-3.6e-4 c 0,0 0,0 1.1e-4,0 -1.1e-4,0 -1.1e-4,0 -1.1e-4,0"
       style="fill:#050707;fill-opacity:1;fill-rule:nonzero;stroke:none;stroke-width:0.0352778" />
    <path
       id="path138"
       d="m 124.51324,273.12881 c -0.29394,-0.73343 -0.70005,-1.54587 -1.26161,-2.3936 0.96958,1.41005 1.26228,2.39254 1.26228,2.39254 v 0 c 0,0 -1.4e-4,3.5e-4 -2.8e-4,7e-4 -1.1e-4,0 -1.1e-4,0 -1.1e-4,0 -1.4e-4,0 -1.4e-4,3.6e-4 -1.4e-4,3.6e-4 h -1.4e-4 v 0"
       style="fill:#174639;fill-opacity:1;fill-rule:nonzero;stroke:none;stroke-width:0.0352778" />
    <path
       id="path139"
       d="m 164.53722,214.8859 -0.002,-0.0198 c 0,0 -5.42432,-0.49953 -7.89623,-1.02376 v 0 c -0.0787,-0.0268 -0.15663,-0.0536 -0.23389,-0.0801 -0.41698,-0.13758 -0.8001,-0.29563 -1.15993,-0.43145 -1.41994,-0.57291 -2.30117,-1.0922 -2.30117,-1.0922 v 0 c 0,0 0.23565,0.0995 0.65087,0.2593 0.40993,0.16651 1.01212,0.369 1.73143,0.61595 0.36125,0.11359 0.75142,0.25047 1.17052,0.36159 0.41522,0.12559 0.85937,0.2406 1.31763,0.35525 0.45684,0.12912 0.93874,0.21096 1.4224,0.32632 0.48542,0.0995 0.98319,0.17956 1.48166,0.26035 0.49989,0.055 0.99766,0.14217 1.4919,0.17004 0.43074,0.0173 0.85478,0.0741 1.26824,0.0741 0.0614,0 0.12206,-10e-4 0.18274,-0.004 0.0639,-0.001 0.1277,-0.002 0.19155,-0.002 0.0963,0 0.19227,0.001 0.28717,0.002 0.0956,0.001 0.19014,0.002 0.28398,0.002 0.20391,0 0.40323,-0.005 0.59655,-0.0279 0.42968,-0.0423 0.84314,-0.0356 1.21355,-0.11112 0.37218,-0.0667 0.71544,-0.11889 1.02306,-0.16581 0.26741,-0.0508 0.49918,-0.12277 0.70062,-0.17427 -0.91652,0.31785 -2.04259,0.57467 -3.42089,0.70485"
       style="fill:#080b0b;fill-opacity:1;fill-rule:nonzero;stroke:none;stroke-width:0.0352778" />
    <path
       id="path140"
       d="m 181.22714,275.80921 c 0,-3.5e-4 0,-3.5e-4 0,-3.5e-4 0,0 0,0 0,3.5e-4"
       style="fill:#7ca69c;fill-opacity:1;fill-rule:nonzero;stroke:none;stroke-width:0.0352778" />
    <path
       id="path141"
       d="m 175.61973,279.80689 c 0.32879,-14.19966 -3.66783,-23.00534 -4.5794,-32.96215 -0.96168,-10.5096 -0.80398,-25.92846 0.70837,-33.20909 0.3609,-1.74237 0.41487,-3.66889 0.33056,-5.44159 2.36431,-0.50695 4.18429,-1.0788 5.33823,-1.52718 0.14852,-0.74965 0.25823,-1.39206 0.33902,-1.92687 0,0 3.5e-4,0 7.1e-4,-3.5e-4 -0.21308,1.40934 -0.62583,3.56834 -1.42382,6.46959 -1.125,4.08517 -2.65923,15.2594 -2.65747,24.12047 3.5e-4,3.31859 0.21625,6.31261 0.75,8.48819 1.95792,7.98477 6.02827,24.62354 6.80121,31.9906 v 0 3.5e-4 c 0,0 0,0 0,3.5e-4 -0.0198,0.0423 -1.47003,3.17289 -5.60741,3.99768"
       style="fill:#102723;fill-opacity:1;fill-rule:nonzero;stroke:none;stroke-width:0.0352778" />
    <path
       id="path142"
       d="m 147.23947,208.08364 v 0 c -0.0907,-0.59091 -0.18592,-1.21144 -0.27235,-1.7773 0.0864,0.56586 0.18204,1.18675 0.27376,1.77765 m -0.35525,-2.31352 c -0.0741,-0.48718 -0.13617,-0.90134 -0.17462,-1.17228 v 0 c 0.0388,0.27094 0.10054,0.6851 0.17462,1.17228"
       style="fill:#91b1a8;fill-opacity:1;fill-rule:nonzero;stroke:none;stroke-width:0.0352778" />
    <path
       id="path143"
       d="m 160.06082,209.4249 c -3.87914,0 -8.2042,-0.36795 -12.82135,-1.34126 -0.0903,-0.59055 -0.18592,-1.21144 -0.27235,-1.7773 -0.0282,-0.18556 -0.0557,-0.36512 -0.0815,-0.53587 -0.0741,-0.48718 -0.13582,-0.90134 -0.17462,-1.17228 l 22.45219,-1.32045 c -0.87242,1.48132 -1.79705,2.95522 -2.77601,4.40302 1.87042,-0.19155 3.75426,-0.49141 5.59223,-0.9345 0.0416,0.46531 0.0762,0.95073 0.0998,1.4478 -3.14078,0.6731 -7.24147,1.23084 -12.01844,1.23084"
       style="fill:#122b26;fill-opacity:1;fill-rule:nonzero;stroke:none;stroke-width:0.0352778" />
    <path
       id="path144"
       d="m 172.07926,208.19406 c -0.0236,-0.49707 -0.0582,-0.98249 -0.0998,-1.4478 0.41769,-0.1009 0.83291,-0.20885 1.24531,-0.32491 1.56809,-0.44027 3.09174,-0.99342 4.53178,-1.68134 -0.0808,0.53481 -0.1905,1.17722 -0.33902,1.92687 -1.15394,0.44838 -2.97392,1.02023 -5.33823,1.52718"
       style="fill:#0c1c19;fill-opacity:1;fill-rule:nonzero;stroke:none;stroke-width:0.0352778" />
    <path
       id="path145"
       d="m 156.72531,172.26999 c -1.46368,2.78941 -3.07799,5.86105 -4.83447,9.19233 1.29258,2.75025 2.76684,5.8353 4.41008,9.20009 1.77271,-3.34469 3.40748,-6.49041 4.90114,-9.40999 -1.69157,-3.33164 -3.18558,-6.34119 -4.47675,-8.98243"
       style="fill:#d4d7ac;fill-opacity:1;fill-rule:nonzero;stroke:none;stroke-width:0.0352778" />
    <path
       id="path146"
       d="m 156.30092,190.66241 c 1.49401,3.05929 3.13055,6.34965 4.90114,9.83403 1.76212,-3.44593 3.39795,-6.71371 4.90114,-9.77194 -1.78329,-3.38455 -3.41947,-6.55144 -4.90114,-9.47208 -1.49366,2.91958 -3.12843,6.0653 -4.90114,9.40999"
       style="fill:#1b5639;fill-opacity:1;fill-rule:nonzero;stroke:none;stroke-width:0.0352778" />
    <path
       id="path147"
       d="m 165.68057,172.32643 c -1.73284,-3.30623 -3.23426,-6.17855 -4.48945,-8.58767 -1.27988,2.45216 -2.77213,5.30472 -4.46581,8.53123 1.29117,2.64124 2.78518,5.65079 4.47675,8.98243 1.67393,-3.27414 3.16794,-6.26216 4.47851,-8.92599"
       style="fill:#77b92b;fill-opacity:1;fill-rule:nonzero;stroke:none;stroke-width:0.0352778" />
    <path
       id="path148"
       d="m 174.10067,173.88783 c -1.77306,-3.36938 -3.36761,-6.40927 -4.77555,-9.10097 -0.98884,2.0881 -2.20592,4.61998 -3.64455,7.53957 1.45839,2.77883 3.07623,5.8614 4.85105,9.22902 1.36984,-2.89666 2.56187,-5.46947 3.56905,-7.66762"
       style="fill:#77b92b;fill-opacity:1;fill-rule:nonzero;stroke:none;stroke-width:0.0352778" />
    <path
       id="path149"
       d="m 166.1032,190.7245 c 1.53705,2.91712 3.18241,5.99334 4.93713,9.21173 1.68451,-3.14536 3.13549,-6.25581 4.36562,-9.14894 -1.73355,-3.27483 -3.36056,-6.35811 -4.87433,-9.23184 -1.31445,2.77495 -2.794,5.84765 -4.42842,9.16905"
       style="fill:#1b5639;fill-opacity:1;fill-rule:nonzero;stroke:none;stroke-width:0.0352778" />
    <path
       id="path150"
       d="m 165.68057,172.32643 c -1.31057,2.66383 -2.80458,5.65185 -4.47851,8.92599 1.48167,2.92064 3.11785,6.08753 4.90114,9.47208 1.63442,-3.3214 3.11397,-6.3941 4.42842,-9.16905 -1.77482,-3.36762 -3.39266,-6.45019 -4.85105,-9.22902"
       style="fill:#d4d7ac;fill-opacity:1;fill-rule:nonzero;stroke:none;stroke-width:0.0352778" />
    <path
       id="path151"
       d="m 166.38719,207.68076 c 2.70792,-0.27728 5.44406,-0.78175 8.02781,-1.61889 -1.16487,-2.09198 -2.29024,-4.13632 -3.37467,-6.12564 -1.39171,2.59539 -2.9397,5.21018 -4.65314,7.74453"
       style="fill:#77b92b;fill-opacity:1;fill-rule:nonzero;stroke:none;stroke-width:0.0352778" />
    <path
       id="path152"
       d="m 171.04033,199.93623 c 1.08443,1.98932 2.2098,4.03366 3.37467,6.12564 2.35726,-0.76412 4.58999,-1.8027 6.55532,-3.19864 0,0 -0.13335,-0.82867 -0.35772,-2.25813 -1.83021,-3.43958 -3.56553,-6.71548 -5.20665,-9.81781 -1.23013,2.89313 -2.68111,6.00358 -4.36562,9.14894"
       style="fill:#d4d7ac;fill-opacity:1;fill-rule:nonzero;stroke:none;stroke-width:0.0352778" />
    <path
       id="path153"
       d="m 170.53162,181.55545 c 1.51377,2.87373 3.14078,5.95701 4.87433,9.23184 1.01741,-2.39994 1.88383,-4.65102 2.59962,-6.64351 -0.21202,-1.34514 -0.42792,-2.70439 -0.64382,-4.06118 -1.14512,-2.1717 -2.23485,-4.23968 -3.26108,-6.19477 -1.00718,2.19815 -2.19921,4.77096 -3.56905,7.66762"
       style="fill:#d4d7ac;fill-opacity:1;fill-rule:nonzero;stroke:none;stroke-width:0.0352778" />
    <path
       id="path154"
       d="m 175.40595,190.78729 c 1.64112,3.10233 3.37644,6.37823 5.20665,9.81781 -0.51612,-3.26143 -1.52859,-9.64918 -2.60703,-16.46132 -0.71579,1.99249 -1.58221,4.24357 -2.59962,6.64351"
       style="fill:#1b5639;fill-opacity:1;fill-rule:nonzero;stroke:none;stroke-width:0.0352778" />
    <path
       id="path155"
       d="m 153.10052,164.6962 c -1.41817,2.71216 -3.00955,5.74075 -4.76074,9.0678 0.96555,2.13254 2.15406,4.71946 3.55106,7.69832 1.75648,-3.33128 3.37079,-6.40292 4.83447,-9.19233 -1.47779,-3.03213 -2.68958,-5.57918 -3.62479,-7.57379"
       style="fill:#77b92b;fill-opacity:1;fill-rule:nonzero;stroke:none;stroke-width:0.0352778" />
    <path
       id="path156"
       d="m 147.07401,190.58057 c 1.17052,2.89595 2.58551,6.07095 4.24533,9.31897 1.7653,-3.21839 3.42653,-6.30378 4.98158,-9.23713 -1.64324,-3.36479 -3.1175,-6.44984 -4.41008,-9.20009 -1.50318,2.8515 -3.11044,5.89386 -4.81683,9.11825"
       style="fill:#1b5639;fill-opacity:1;fill-rule:nonzero;stroke:none;stroke-width:0.0352778" />
    <path
       id="path157"
       d="m 164.97043,207.80388 c -1.31586,-2.5153 -2.57457,-4.95688 -3.76837,-7.30744 -1.21885,2.37914 -2.49732,4.84435 -3.83328,7.38012 2.36078,0.115 4.95158,0.12347 7.60165,-0.0727"
       style="fill:#77b92b;fill-opacity:1;fill-rule:nonzero;stroke:none;stroke-width:0.0352778" />
    <path
       id="path158"
       d="m 147.52204,206.74485 c 1.4164,0.26634 4.47146,0.7747 8.30968,1.03998 -1.67005,-2.60173 -3.17323,-5.26662 -4.51238,-7.88529 -1.21567,2.22039 -2.48355,4.50321 -3.7973,6.84531"
       style="fill:#77b92b;fill-opacity:1;fill-rule:nonzero;stroke:none;stroke-width:0.0352778" />
    <path
       id="path159"
       d="m 151.89084,181.46232 c -1.397,-2.97886 -2.58551,-5.56578 -3.55106,-7.69832 -0.71367,1.35643 -1.45274,2.76155 -2.22038,4.21534 -0.32562,2.51531 -0.58244,5.28285 -0.71367,8.25677 0.48895,1.34902 1.04457,2.8074 1.66828,4.34446 1.70639,-3.22439 3.31365,-6.26675 4.81683,-9.11825"
       style="fill:#d4d7ac;fill-opacity:1;fill-rule:nonzero;stroke:none;stroke-width:0.0352778" />
    <path
       id="path160"
       d="m 153.10052,164.6962 c -0.38841,-0.83361 -0.7299,-1.5688 -1.0213,-2.20415 l -2.62113,0.27587 c 0,0 -1.14512,3.14819 -2.23309,8.5157 0.33091,0.74013 0.70309,1.5688 1.11478,2.48038 1.75119,-3.32705 3.34257,-6.35564 4.76074,-9.0678"
       style="fill:#d4d7ac;fill-opacity:1;fill-rule:nonzero;stroke:none;stroke-width:0.0352778" />
    <path
       id="path161"
       d="m 145.40573,186.23611 c -0.10619,2.39853 -0.13159,4.92971 -0.0434,7.57273 0.58102,-1.09503 1.15076,-2.16994 1.71167,-3.22827 -0.62371,-1.53706 -1.17933,-2.99544 -1.66828,-4.34446"
       style="fill:#1b5639;fill-opacity:1;fill-rule:nonzero;stroke:none;stroke-width:0.0352778" />
    <path
       id="path162"
       d="m 147.225,171.28362 c -0.39546,1.95368 -0.78211,4.19911 -1.1056,6.69572 0.76764,-1.45379 1.50671,-2.85891 2.22038,-4.21534 -0.41169,-0.91158 -0.78387,-1.74025 -1.11478,-2.48038"
       style="fill:#77b92b;fill-opacity:1;fill-rule:nonzero;stroke:none;stroke-width:0.0352778" />
    <path
       id="path163"
       d="m 166.1032,190.7245 c -1.50319,3.05823 -3.13902,6.32601 -4.90114,9.77194 1.1938,2.35056 2.45251,4.79214 3.76837,7.30744 0.47131,-0.0342 0.94227,-0.0762 1.41676,-0.12312 1.71344,-2.53435 3.26143,-5.14914 4.65314,-7.74453 -1.75472,-3.21839 -3.40008,-6.29461 -4.93713,-9.21173"
       style="fill:#d4d7ac;fill-opacity:1;fill-rule:nonzero;stroke:none;stroke-width:0.0352778" />
    <path
       id="path164"
       d="m 161.20206,200.49644 c -1.77059,-3.48438 -3.40713,-6.77474 -4.90114,-9.83403 -1.55505,2.93335 -3.21628,6.01874 -4.98158,9.23713 1.33915,2.61867 2.84233,5.28356 4.51238,7.88529 0.49989,0.0353 1.01247,0.0677 1.53706,0.0917 1.33596,-2.53577 2.61443,-5.00098 3.83328,-7.38012"
       style="fill:#d4d7ac;fill-opacity:1;fill-rule:nonzero;stroke:none;stroke-width:0.0352778" />
    <path
       id="path165"
       d="m 177.36175,180.0826 c -0.5468,-3.45193 -1.08938,-6.87634 -1.5748,-9.92716 -0.48366,1.08161 -1.04845,2.33221 -1.68628,3.73239 1.02623,1.95509 2.11596,4.02307 3.26108,6.19477"
       style="fill:#77b92b;fill-opacity:1;fill-rule:nonzero;stroke:none;stroke-width:0.0352778" />
    <path
       id="path166"
       d="m 147.07401,190.58057 c -0.56091,1.05833 -1.13065,2.13324 -1.71167,3.22827 0.13511,4.02554 0.53057,8.30756 1.29787,12.76244 0,0 0.30585,0.0684 0.86183,0.17357 1.31375,-2.3421 2.58163,-4.62492 3.7973,-6.84531 -1.65982,-3.24802 -3.07481,-6.42302 -4.24533,-9.31897"
       style="fill:#d4d7ac;fill-opacity:1;fill-rule:nonzero;stroke:none;stroke-width:0.0352778" />
    <path
       id="path167"
       d="m 170.44695,162.39574 c -0.71367,-0.0882 -1.54093,-0.17816 -2.5153,-0.27164 0.44238,0.8449 0.90628,1.73249 1.39347,2.66276 0.41346,-0.877 0.7874,-1.67393 1.12183,-2.39112"
       style="fill:#1b5639;fill-opacity:1;fill-rule:nonzero;stroke:none;stroke-width:0.0352778" />
    <path
       id="path168"
       d="m 154.38251,162.25075 -2.30329,0.24094 c 0.2914,0.63571 0.63289,1.3709 1.0213,2.20451 0.44414,-0.84561 0.87242,-1.66299 1.28199,-2.44545"
       style="fill:#1b5639;fill-opacity:1;fill-rule:nonzero;stroke:none;stroke-width:0.0352778" />
    <path
       id="path169"
       d="m 174.10067,173.88783 c 0.63783,-1.40018 1.20262,-2.65078 1.68628,-3.73239 -0.41733,-2.62749 -0.78916,-4.98123 -1.08585,-6.8386 0,0 -0.0649,-0.40605 -4.25415,-0.9211 -0.33443,0.71719 -0.70837,1.51412 -1.12183,2.39112 1.40794,2.6917 3.00249,5.73159 4.77555,9.10097"
       style="fill:#d4d7ac;fill-opacity:1;fill-rule:nonzero;stroke:none;stroke-width:0.0352778" />
    <path
       id="path170"
       d="m 165.68057,172.32643 c 1.43863,-2.91959 2.65571,-5.45147 3.64455,-7.53957 -0.48719,-0.93027 -0.95109,-1.81786 -1.39347,-2.66276 -1.51906,-0.14358 -3.38914,-0.29281 -5.66879,-0.44027 -0.33796,0.64876 -0.69568,1.33562 -1.07174,2.05493 1.25519,2.40912 2.75661,5.28144 4.48945,8.58767"
       style="fill:#d4d7ac;fill-opacity:1;fill-rule:nonzero;stroke:none;stroke-width:0.0352778" />
    <path
       id="path171"
       d="m 156.72531,172.26999 c 1.69368,-3.22651 3.18593,-6.07907 4.46581,-8.53123 -0.38629,-0.74083 -0.7493,-1.43898 -1.08938,-2.09127 l -5.71923,0.60326 c -0.40957,0.78246 -0.83785,1.59984 -1.28199,2.44545 0.93521,1.99461 2.147,4.54166 3.62479,7.57379"
       style="fill:#d4d7ac;fill-opacity:1;fill-rule:nonzero;stroke:none;stroke-width:0.0352778" />
    <path
       id="path172"
       d="m 162.26286,161.68383 c -0.50341,-0.0328 -1.02129,-0.0649 -1.56774,-0.097 l -0.59338,0.0607 c 0.34008,0.65229 0.70309,1.35044 1.08938,2.09127 0.37606,-0.71931 0.73378,-1.40617 1.07174,-2.05493"
       style="fill:#77b92b;fill-opacity:1;fill-rule:nonzero;stroke:none;stroke-width:0.0352778" />
    <path
       id="path173"
       d="m 145.31048,191.23426 c 0,0 -1.58786,-1.09572 -1.82669,0.89641 0,0 -2.98838,1.81928 -1.06433,5.32271 0,0 -1.20297,1.75296 -0.0702,3.26214 0,0 -0.23213,1.92405 1.4291,2.57669 1.663,0.65334 2.76896,-0.65264 2.41653,-1.61361 0,0 0.61313,-1.09502 0.0663,-1.68381 0,0 0.48578,-1.09784 0.22649,-1.71555 0,0 0.80786,-0.37818 0.67098,-1.5801 -0.13864,-1.2012 -2.12337,-2.06516 -1.8482,-5.46488"
       style="fill:#f1cead;fill-opacity:1;fill-rule:nonzero;stroke:none;stroke-width:0.0352778" />
    <path
       id="path174"
       d="m 143.48379,192.13067 c 0,0 -0.007,0.11677 -0.009,0.31891 -0.007,0.20144 0.009,0.48931 0.0342,0.82974 0.0141,0.16968 0.0325,0.35348 0.0628,0.54469 0.0197,0.19438 0.0723,0.39299 0.10795,0.59901 0.0487,0.20461 0.10795,0.41416 0.17427,0.62195 0.0758,0.20567 0.13864,0.4198 0.24483,0.61489 l 0.13828,0.30127 0.1711,0.28187 c 0.10231,0.19368 0.2406,0.35878 0.36477,0.52635 0.11642,0.17427 0.27129,0.30656 0.399,0.45191 0.12594,0.14569 0.26952,0.25999 0.39899,0.369 0.13335,0.10337 0.24094,0.22437 0.35983,0.29739 0.11501,0.079 0.21414,0.14782 0.29845,0.20497 0.16722,0.115 0.25859,0.18662 0.25859,0.18662 0,0 -0.1076,-0.0385 -0.29634,-0.11642 -0.0935,-0.0399 -0.21025,-0.0903 -0.34149,-0.14393 -0.13511,-0.0505 -0.26634,-0.14746 -0.4191,-0.23813 -0.15098,-0.0921 -0.3182,-0.1905 -0.46743,-0.33302 -0.14922,-0.13829 -0.3309,-0.26423 -0.46743,-0.4438 -0.14217,-0.17286 -0.31115,-0.33796 -0.42404,-0.5468 l -0.19085,-0.30198 c -0.0557,-0.10689 -0.10407,-0.21555 -0.1584,-0.3235 -0.10936,-0.2159 -0.1725,-0.44661 -0.248,-0.66957 -0.0702,-0.22507 -0.10971,-0.45297 -0.15099,-0.67169 -0.0631,-0.44026 -0.0773,-0.8576 -0.0504,-1.20897 0.0469,-0.70767 0.2106,-1.15076 0.2106,-1.15076"
       style="fill:#b88459;fill-opacity:1;fill-rule:nonzero;stroke:none;stroke-width:0.0352778" />
    <path
       id="path175"
       d="m 142.41946,197.45338 c -0.002,0 0.10054,0.31362 0.33973,0.71614 0.115,0.2032 0.27128,0.42192 0.46178,0.63042 0.0469,0.0497 0.0974,0.1023 0.14605,0.15451 l 0.16687,0.14147 c 0.10442,0.10477 0.23918,0.17321 0.35983,0.2607 0.12771,0.0727 0.26035,0.14287 0.39194,0.20743 0.14181,0.0441 0.27305,0.11148 0.40993,0.15276 0.13828,0.0314 0.2734,0.0709 0.40075,0.109 0.13159,0.0226 0.25682,0.0441 0.37218,0.0646 0.23001,0.0529 0.42968,0.0494 0.57185,0.072 0.14041,0.0215 0.22084,0.0324 0.22084,0.0324 0,0 -0.0772,0.0208 -0.21766,0.0512 -0.1397,0.0197 -0.34114,0.0854 -0.58773,0.0797 -0.12559,0.004 -0.25858,0.0102 -0.40252,0.004 -0.14217,-0.0159 -0.29316,-0.0346 -0.44767,-0.0617 -0.15487,-0.0325 -0.31292,-0.0836 -0.47131,-0.13688 -0.15276,-0.0653 -0.30727,-0.14111 -0.4565,-0.22472 -0.13829,-0.10301 -0.28928,-0.18768 -0.4064,-0.31186 -0.12947,-0.10795 -0.23354,-0.23812 -0.3309,-0.36477 -0.10231,-0.12312 -0.17251,-0.26352 -0.24236,-0.38841 -0.0632,-0.12947 -0.11889,-0.25435 -0.15487,-0.37465 -0.0826,-0.23565 -0.10936,-0.44344 -0.12206,-0.58702 -0.0109,-0.14323 -0.002,-0.22578 -0.002,-0.22578"
       style="fill:#b88459;fill-opacity:1;fill-rule:nonzero;stroke:none;stroke-width:0.0352778" />
    <path
       id="path176"
       d="m 142.34926,200.71552 c 0,0 0.21378,0.18521 0.5394,0.41734 0.1651,0.11394 0.35771,0.24271 0.57185,0.3563 0.10442,0.0607 0.22084,0.10478 0.33408,0.16052 0.11889,0.0406 0.23213,0.10054 0.35631,0.12311 0.12029,0.0395 0.24271,0.0684 0.36477,0.0811 0.12241,0.0251 0.24271,0.0303 0.36336,0.0346 0.11853,0.012 0.23354,-0.007 0.34502,-0.0123 0.10936,0 0.21413,-0.025 0.31115,-0.043 0.0952,-0.0215 0.1905,-0.0236 0.26775,-0.0522 0.079,-0.0215 0.14923,-0.0413 0.20497,-0.0575 0.12065,-0.0289 0.18697,-0.0448 0.18697,-0.0448 0,0 -0.0501,0.0448 -0.14922,0.11748 -0.0505,0.037 -0.11148,0.0801 -0.18133,0.13053 -0.0706,0.0547 -0.16193,0.0861 -0.25929,0.13405 -0.097,0.0427 -0.2032,0.097 -0.32703,0.11853 -0.1203,0.0258 -0.248,0.073 -0.38664,0.0709 -0.13653,0.006 -0.28046,0.0261 -0.42404,-7e-4 -0.14605,-0.0109 -0.28963,-0.0399 -0.4318,-0.0819 -0.14358,-0.0335 -0.27305,-0.10442 -0.4064,-0.15557 -0.12735,-0.0656 -0.24977,-0.13582 -0.35913,-0.2159 -0.22331,-0.15205 -0.40287,-0.32914 -0.53975,-0.49072 -0.27869,-0.32208 -0.381,-0.58984 -0.381,-0.58984"
       style="fill:#b88459;fill-opacity:1;fill-rule:nonzero;stroke:none;stroke-width:0.0352778" />
    <path
       id="path177"
       d="m 178.58624,187.81444 c 0,0 1.55152,-1.14265 1.8535,0.84066 0,0 3.04376,1.72615 1.2319,5.28709 0,0 1.25483,1.71414 0.16898,3.25931 0,0 0.2928,1.91311 -1.34902,2.61973 -1.63936,0.70485 -2.78801,-0.56656 -2.46627,-1.53811 0,0 -0.64735,-1.07598 -0.11677,-1.68028 0,0 -0.51964,-1.08338 -0.28258,-1.70957 0,0 -0.81774,-0.35066 -0.7172,-1.55716 0.1009,-1.2065 2.05705,-2.13042 1.67746,-5.52167"
       style="fill:#f1cead;fill-opacity:1;fill-rule:nonzero;stroke:none;stroke-width:0.0352778" />
    <path
       id="path178"
       d="m 180.43974,188.6551 c 0,0 0.17639,0.43851 0.24659,1.14265 0.0374,0.35137 0.036,0.768 -0.0145,1.21074 -0.0325,0.22048 -0.0667,0.44873 -0.12771,0.67627 -0.0681,0.22472 -0.12594,0.45826 -0.23001,0.67698 -0.0469,0.10795 -0.0935,0.21908 -0.1457,0.32808 l -0.18133,0.30833 c -0.1083,0.21132 -0.26987,0.38206 -0.40851,0.56021 -0.12771,0.18345 -0.30727,0.31539 -0.45332,0.4565 -0.14358,0.14816 -0.30904,0.25047 -0.4565,0.34748 -0.14922,0.0974 -0.27657,0.19791 -0.40957,0.25189 -0.133,0.0593 -0.24307,0.11183 -0.33832,0.15416 -0.1852,0.0825 -0.29492,0.12488 -0.29492,0.12488 0,0 0.0935,-0.0748 0.25541,-0.19438 0.0808,-0.0603 0.17992,-0.13123 0.29316,-0.21307 0.11501,-0.0773 0.21908,-0.20038 0.34855,-0.30833 0.12594,-0.11395 0.26599,-0.23178 0.38699,-0.38171 0.12383,-0.14852 0.27305,-0.28716 0.38453,-0.46496 0.12065,-0.1711 0.25188,-0.34078 0.35066,-0.53587 l 0.15981,-0.28786 0.13123,-0.3048 c 0.097,-0.19932 0.15487,-0.41487 0.22472,-0.62372 0.0596,-0.20955 0.11148,-0.4198 0.15487,-0.62688 0.0286,-0.20708 0.0755,-0.40675 0.0878,-0.60219 0.0254,-0.19121 0.0377,-0.37536 0.0473,-0.54646 0.0141,-0.33972 0.0212,-0.62829 0.007,-0.82973 -0.007,-0.20214 -0.018,-0.31821 -0.018,-0.31821"
       style="fill:#b88459;fill-opacity:1;fill-rule:nonzero;stroke:none;stroke-width:0.0352778" />
    <path
       id="path179"
       d="m 181.67164,193.94219 c 0,0 0.009,0.0825 0.002,0.22542 -0.006,0.14288 -0.0289,0.35243 -0.10266,0.58985 -0.0325,0.12311 -0.0843,0.2487 -0.14217,0.38029 -0.0681,0.12771 -0.13299,0.26846 -0.23177,0.39546 -0.0917,0.13018 -0.19262,0.26318 -0.31821,0.37748 -0.11324,0.12417 -0.26246,0.21554 -0.39581,0.32349 -0.14711,0.0864 -0.30022,0.16828 -0.45085,0.23813 -0.15664,0.0568 -0.31327,0.11253 -0.46602,0.15134 -0.15452,0.0314 -0.30551,0.0529 -0.44591,0.0755 -0.14358,0.009 -0.27835,0.008 -0.40076,0.008 -0.248,0.0138 -0.4512,-0.0448 -0.59302,-0.0607 -0.14076,-0.025 -0.21766,-0.0434 -0.21766,-0.0434 0,0 0.0808,-0.0145 0.21942,-0.0385 0.14006,-0.0296 0.33973,-0.0314 0.56974,-0.0921 0.11501,-0.024 0.23918,-0.0494 0.37042,-0.0755 0.1277,-0.0413 0.25894,-0.0854 0.39723,-0.12312 0.13476,-0.043 0.26458,-0.115 0.40287,-0.16439 0.13123,-0.0674 0.26246,-0.14111 0.38805,-0.22119 0.11713,-0.0889 0.25012,-0.16157 0.3489,-0.26952 l 0.16369,-0.14747 c 0.0487,-0.054 0.0952,-0.10512 0.14217,-0.1591 0.18309,-0.21413 0.33267,-0.43674 0.44238,-0.64382 0.22261,-0.40993 0.31821,-0.72601 0.31821,-0.72601"
       style="fill:#b88459;fill-opacity:1;fill-rule:nonzero;stroke:none;stroke-width:0.0352778" />
    <path
       id="path180"
       d="m 181.84062,197.2015 c 0,0 -0.0938,0.27093 -0.3616,0.60219 -0.133,0.16404 -0.30727,0.34537 -0.52493,0.50694 -0.10619,0.0801 -0.22649,0.15664 -0.35066,0.22578 -0.133,0.0568 -0.26071,0.12982 -0.40252,0.16828 -0.14041,0.0466 -0.28434,0.0801 -0.42969,0.0959 -0.14217,0.0307 -0.2861,0.0162 -0.42262,0.0134 -0.13865,0.007 -0.26812,-0.0367 -0.39018,-0.0593 -0.12417,-0.0187 -0.23001,-0.067 -0.3309,-0.11042 -0.097,-0.0423 -0.1905,-0.0727 -0.26282,-0.12312 -0.0716,-0.0483 -0.13265,-0.0896 -0.18486,-0.12488 -0.10089,-0.0709 -0.15451,-0.11324 -0.15451,-0.11324 0,0 0.0699,0.0145 0.18873,0.0377 0.0575,0.0152 0.12771,0.0321 0.20849,0.0529 0.0773,0.025 0.17287,0.0236 0.26988,0.0448 0.0967,0.0134 0.20108,0.0346 0.31256,0.0325 0.11148,0 0.22684,0.0162 0.34537,0 0.11853,-0.008 0.23883,-0.0162 0.36124,-0.0448 0.12065,-0.0155 0.24272,-0.0504 0.36125,-0.0928 0.12277,-0.0275 0.23565,-0.0896 0.35278,-0.13477 0.10971,-0.0582 0.22648,-0.10583 0.32879,-0.17145 0.21237,-0.11994 0.39758,-0.25364 0.56091,-0.37253 0.31821,-0.24342 0.52529,-0.43321 0.52529,-0.43321"
       style="fill:#b88459;fill-opacity:1;fill-rule:nonzero;stroke:none;stroke-width:0.0352778" />
    <path
       id="path181"
       d="m 161.89985,165.09801 -0.88194,-1.02728 c 0.0582,-0.11148 0.11606,-0.22225 0.17321,-0.33197 v 0 0 c 0.22825,0.4378 0.46461,0.89112 0.70873,1.35925"
       style="fill:#689b2d;fill-opacity:1;fill-rule:nonzero;stroke:none;stroke-width:0.0352778" />
    <path
       id="path182"
       d="m 164.0899,167.64825 -2.19005,-2.55024 c -0.24412,-0.46813 -0.48048,-0.92145 -0.70873,-1.35925 0.0286,-0.0543 0.0568,-0.1083 0.0847,-0.16192 l 2.81411,3.27766 2.26977,-2.79259 c 0.0406,0.2106 0.0815,0.42368 0.12312,0.6424 l -2.39289,2.94394"
       style="fill:#b1b67b;fill-opacity:1;fill-rule:nonzero;stroke:none;stroke-width:0.0352778" />
    <path
       id="path183"
       d="m 156.77399,168.02678 c 0,0 -2.16323,-4.1208 -2.4384,-4.50039 -0.19791,-0.27129 -0.11077,-0.66816 -0.0462,-0.86924 0.013,0.0261 0.0286,0.0515 0.0462,0.0758 0.27517,0.37853 2.4384,4.49898 2.4384,4.49898 l 3.43218,-4.89726 c 0.001,0 0.002,0 0.004,0 l 0.63536,0.74012 c 0.11324,0.21732 0.2286,0.43851 0.34607,0.66393 -0.0572,0.10972 -0.115,0.22049 -0.17321,0.33197 l -0.80998,-0.94333 -3.43394,4.89938"
       style="fill:#b1b67b;fill-opacity:1;fill-rule:nonzero;stroke:none;stroke-width:0.0352778" />
    <path
       id="path184"
       d="m 161.19112,163.73876 v 0 c -0.11747,-0.22542 -0.23283,-0.44661 -0.34607,-0.66393 l 0.43074,0.50201 c -0.0279,0.0536 -0.0561,0.10759 -0.0847,0.16192 v 0"
       style="fill:#689b2d;fill-opacity:1;fill-rule:nonzero;stroke:none;stroke-width:0.0352778" />
    <path
       id="path185"
       d="m 177.75722,204.73966 v -3.6e-4 c 0.70414,-0.33619 1.38818,-0.70485 2.04787,-1.10807 -0.65969,0.40358 -1.34373,0.77223 -2.04787,1.10843 m 2.06022,-1.11584 c 0.004,-0.002 0.007,-0.005 0.0109,-0.007 -0.004,0.002 -0.007,0.004 -0.0109,0.007 m 0.0388,-0.024 c 0,0 3.6e-4,0 3.6e-4,-3.5e-4 0,3.5e-4 -3.6e-4,3.5e-4 -3.6e-4,3.5e-4 m 1.11408,-0.73695 c -0.002,-0.0152 -0.13547,-0.84173 -0.35772,-2.25778 v 0 c -0.0388,-0.24412 -0.0801,-0.50518 -0.12383,-0.78281 v 0 c 0.29951,1.89018 0.47837,3.02224 0.48155,3.04059 m -5.56437,-12.07559 v 0 c 1.01741,-2.39994 1.88383,-4.65102 2.59962,-6.64351 -0.0215,-0.13476 -0.0427,-0.26987 -0.0642,-0.40534 0.21907,1.38183 0.43532,2.74602 0.64593,4.07529 -3.5e-4,3.5e-4 -3.5e-4,3.5e-4 -7e-4,3.5e-4 -0.1898,-1.19838 -0.38418,-2.42711 -0.58103,-3.6703 -0.71579,1.99249 -1.58221,4.24357 -2.59962,6.64351 m 2.03482,-10.20727 c -0.0261,-0.1658 -0.0526,-0.33161 -0.079,-0.49742 v 0 c -0.14852,-0.93874 -0.29704,-1.87572 -0.44415,-2.80352 0.17322,1.0922 0.3482,2.19534 0.52317,3.30094"
       style="fill:#d4d7ac;fill-opacity:1;fill-rule:nonzero;stroke:none;stroke-width:0.0352778" />
    <path
       id="path186"
       d="m 176.37644,173.86525 c -0.2032,-1.27953 -0.40075,-2.52272 -0.58949,-3.70981 v 0 c -0.15028,-0.94686 -0.29492,-1.85844 -0.43215,-2.72345 h 3.5e-4 c 0.30974,1.94945 0.65652,4.1335 1.02129,6.43326"
       style="fill:#536643;fill-opacity:1;fill-rule:nonzero;stroke:none;stroke-width:0.0352778" />
    <path
       id="path187"
       d="m 175.35515,167.43199 h -3.5e-4 c -0.0692,-0.43568 -0.13617,-0.85972 -0.20144,-1.2707 0.0653,0.41063 0.13265,0.83573 0.20179,1.2707"
       style="fill:#38492e;fill-opacity:1;fill-rule:nonzero;stroke:none;stroke-width:0.0352778" />
    <path
       id="path188"
       d="m 174.7011,163.31684 v 0 0 m 0,0 c -7e-4,-0.002 -0.0205,-0.0889 -0.44415,-0.23142 0.42404,0.14252 0.44345,0.22895 0.44415,0.23142 m -0.44485,-0.23142 c -0.001,-7.1e-4 -0.002,-0.001 -0.003,-0.001 0.001,3.5e-4 0.002,0.001 0.003,0.001"
       style="fill:#d4d7ac;fill-opacity:1;fill-rule:nonzero;stroke:none;stroke-width:0.0352778" />
    <path
       id="path189"
       d="m 177.75651,204.74001 c 0,0 0,-3.5e-4 0,-7.1e-4 3.5e-4,0 3.5e-4,0 7.1e-4,0 v 3.6e-4 c -3.6e-4,3.5e-4 -7.1e-4,3.5e-4 -7.1e-4,3.5e-4"
       style="fill:#0e211b;fill-opacity:1;fill-rule:nonzero;stroke:none;stroke-width:0.0352778" />
    <path
       id="path190-6"
       d="m 173.22473,206.42135 c 0.39969,-0.11219 0.79692,-0.23213 1.19027,-0.35948 v 0 c 1.149,-0.37254 2.26836,-0.80998 3.34151,-1.32257 0,3.6e-4 0,7.1e-4 0,7.1e-4 -1.44004,0.68792 -2.96369,1.24107 -4.53178,1.68134"
       style="fill:#0b1714;fill-opacity:1;fill-rule:nonzero;stroke:none;stroke-width:0.0352778" />
    <path
       id="path191-8"
       d="m 170.53162,181.55545 c -0.60113,-1.14123 -1.18463,-2.24931 -1.74978,-3.32422 -0.50235,-3.36021 -1.01741,-6.4569 -1.50001,-9.18069 0.76377,-1.57551 1.44533,-3.00073 2.04329,-4.26368 v 0 0 0 0 0 0 c 1.40794,2.6917 3.00249,5.73159 4.77555,9.10097 -1.00718,2.19815 -2.19921,4.77096 -3.56905,7.66762"
       style="fill:#689b2d;fill-opacity:1;fill-rule:nonzero;stroke:none;stroke-width:0.0352778" />
    <path
       id="path192-5"
       d="m 171.20966,199.61873 c -0.40358,-5.53155 -0.99977,-10.96045 -1.66582,-15.98718 0.33902,-0.70944 0.66816,-1.40159 0.98778,-2.0761 v 0 0 0 0 c 1.51377,2.87373 3.14078,5.95701 4.87433,9.23184 -1.18851,2.79542 -2.58374,5.79438 -4.19629,8.83144"
       style="fill:#164729;fill-opacity:1;fill-rule:nonzero;stroke:none;stroke-width:0.0352778" />
    <path
       id="path193-7"
       d="m 169.54384,183.63155 c -0.24659,-1.85949 -0.50271,-3.66571 -0.762,-5.40032 0.56515,1.07491 1.14865,2.18299 1.74978,3.32422 v 0 c -0.31962,0.67451 -0.64876,1.36666 -0.98778,2.0761"
       style="fill:#b1b67b;fill-opacity:1;fill-rule:nonzero;stroke:none;stroke-width:0.0352778" />
    <path
       id="path194-6"
       d="m 171.61571,206.83128 c -0.0836,-2.16571 -0.20391,-4.33388 -0.35455,-6.4897 1.016,1.86125 2.06764,3.77013 3.15384,5.72029 -0.39335,0.12735 -0.79058,0.24729 -1.19027,0.35948 -0.53164,0.14958 -1.06857,0.28575 -1.60902,0.40993"
       style="fill:#689b2d;fill-opacity:1;fill-rule:nonzero;stroke:none;stroke-width:0.0352778" />
    <path
       id="path195-1"
       d="m 174.415,206.06187 v 0 c -1.0862,-1.95016 -2.13784,-3.85904 -3.15384,-5.72029 -0.0166,-0.2413 -0.0339,-0.48225 -0.0515,-0.72285 1.61255,-3.03706 3.00778,-6.03602 4.19629,-8.83144 v 0 0 0 0 c 0.49001,0.92675 0.98848,1.86867 1.49543,2.82575 0.0275,0.79869 0.48789,1.14406 0.66004,1.24602 0.0155,0.0293 0.031,0.0586 0.0466,0.0875 -0.1905,0.63253 0.30057,1.6563 0.30057,1.6563 -0.53058,0.6043 0.11677,1.68028 0.11677,1.68028 -0.25683,0.77576 0.42298,1.74201 1.54199,1.74201 0.21131,0 0.43815,-0.0346 0.67733,-0.11147 0.12242,0.22965 0.24483,0.46002 0.36795,0.69144 v 0 0 c 0.22225,1.41605 0.35525,2.24261 0.35772,2.25778 0,3.5e-4 0,3.5e-4 0,3.5e-4 v 0 c -0.36266,0.25753 -0.73378,0.50271 -1.11372,0.73625 0,3.5e-4 -3.6e-4,3.5e-4 -3.6e-4,3.5e-4 -0.01,0.006 -0.0187,0.0116 -0.0279,0.0173 -0.004,0.002 -0.007,0.004 -0.0109,0.007 -0.004,0.002 -0.008,0.005 -0.0123,0.007 -0.65969,0.40322 -1.34373,0.77188 -2.04787,1.10807 v 0 c -3.6e-4,0 -3.6e-4,0 -7.1e-4,0 -1.07315,0.51259 -2.19251,0.95003 -3.34151,1.32257"
       style="fill:#b1b67b;fill-opacity:1;fill-rule:nonzero;stroke:none;stroke-width:0.0352778" />
    <path
       id="path196-8"
       d="m 175.40595,190.78729 v 0 0 c -1.73355,-3.27483 -3.36056,-6.35811 -4.87433,-9.23184 v 0 c 1.36984,-2.89666 2.56187,-5.46947 3.56905,-7.66762 v 0 0 c 1.02623,1.95509 2.11596,4.02307 3.26108,6.19477 v 0 0 c 0.0265,0.16581 0.0529,0.33162 0.079,0.49742 0.16722,1.0541 0.33479,2.11208 0.5006,3.15842 0.0215,0.13547 0.0427,0.27058 0.0642,0.40534 -0.71579,1.99249 -1.58221,4.24357 -2.59962,6.64351 v 0"
       style="fill:#b1b67b;fill-opacity:1;fill-rule:nonzero;stroke:none;stroke-width:0.0352778" />
    <path
       id="path197-9"
       d="m 180.6126,200.6051 c -0.12312,-0.23142 -0.24553,-0.46179 -0.36795,-0.69144 0.0801,-0.0254 0.16122,-0.0557 0.24412,-0.0914 0.0438,0.27763 0.085,0.53869 0.12383,0.78281 v 0 m -3.00461,-5.65856 c -0.0155,-0.0289 -0.031,-0.0582 -0.0466,-0.0875 0.0402,0.0236 0.0646,0.0342 0.0646,0.0342 -0.006,0.0173 -0.0127,0.0353 -0.018,0.0533 m -0.70661,-1.3335 c -0.50695,-0.95708 -1.00542,-1.899 -1.49543,-2.82575 v 0 c 1.01741,-2.39994 1.88383,-4.65102 2.59962,-6.64351 0.19685,1.24319 0.39123,2.47192 0.58103,3.6703 -3.6e-4,3.6e-4 -3.6e-4,3.6e-4 -3.6e-4,3.6e-4 0.37959,3.39125 -1.57656,4.31517 -1.67746,5.52167 -0.008,0.0977 -0.0102,0.19015 -0.007,0.27693"
       style="fill:#164729;fill-opacity:1;fill-rule:nonzero;stroke:none;stroke-width:0.0352778" />
    <path
       id="path198-2"
       d="m 177.36175,180.0826 c -1.14512,-2.1717 -2.23485,-4.23968 -3.26108,-6.19477 0.63783,-1.40018 1.20262,-2.65078 1.68628,-3.73239 v 0 0 c 0.18874,1.18709 0.38629,2.43028 0.58949,3.70981 0.17674,1.11548 0.35772,2.25707 0.54116,3.41383 0.14711,0.9278 0.29563,1.86478 0.44415,2.80352 v 0"
       style="fill:#689b2d;fill-opacity:1;fill-rule:nonzero;stroke:none;stroke-width:0.0352778" />
    <path
       id="path199-7"
       d="m 169.32512,164.78686 v 0 c -0.48719,-0.92992 -0.95038,-1.8168 -1.39277,-2.66135 0.97085,0.0924 1.80199,0.18309 2.51425,0.27058 -0.33443,0.7172 -0.70802,1.51377 -1.12148,2.39077 v 0"
       style="fill:#164729;fill-opacity:1;fill-rule:nonzero;stroke:none;stroke-width:0.0352778" />
    <path
       id="path200-9"
       d="m 174.10067,173.88783 v 0 0 c -1.77306,-3.36938 -3.36761,-6.40927 -4.77555,-9.10097 v 0 c 0.41346,-0.877 0.78705,-1.67357 1.12148,-2.39077 2.24473,0.27587 3.30553,0.52035 3.80647,0.68792 0.001,3.5e-4 0.002,7e-4 0.003,0.001 3.5e-4,0 7e-4,0 7e-4,0 0.42369,0.14252 0.44345,0.22895 0.44415,0.23142 v 0 0 0 c 0.13547,0.85125 0.28716,1.80622 0.45226,2.84445 0.0653,0.41098 0.13229,0.83502 0.20144,1.2707 0.13723,0.86501 0.28187,1.77659 0.43215,2.72345 v 0 c -0.48366,1.08161 -1.04845,2.33221 -1.68628,3.73239 v 0"
       style="fill:#b1b67b;fill-opacity:1;fill-rule:nonzero;stroke:none;stroke-width:0.0352778" />
    <path
       id="path201-5"
       d="m 167.28183,169.05054 c -0.2801,-1.58186 -0.54963,-3.03777 -0.79904,-4.34623 l 1.04069,-1.28023 c 0,0 0.15276,-0.35489 -0.0445,-0.73907 l 0.0445,-0.0547 c 0,0 0.10372,-0.2413 0.03,-0.54045 0.12841,0.012 0.25541,0.024 0.37888,0.0356 0.44239,0.84455 0.90558,1.73143 1.39277,2.66135 v 0 c -0.59796,1.26295 -1.27952,2.68817 -2.04329,4.26368"
       style="fill:#b1b67b;fill-opacity:1;fill-rule:nonzero;stroke:none;stroke-width:0.0352778" />
    <path
       id="path202-4"
       d="m 179.56732,200.02513 c -1.11901,0 -1.79882,-0.96625 -1.54199,-1.74201 0,0 -0.64735,-1.07598 -0.11677,-1.68028 0,0 -0.49107,-1.02377 -0.30057,-1.6563 0.005,-0.018 0.0116,-0.036 0.018,-0.0533 0,0 -0.0243,-0.0106 -0.0646,-0.0342 -0.17215,-0.10196 -0.63253,-0.44733 -0.66004,-1.24602 -0.003,-0.0868 -7.1e-4,-0.17921 0.007,-0.27693 0.1009,-1.2065 2.05705,-2.13042 1.67746,-5.52167 0,0 0,0 3.6e-4,-3.6e-4 3.5e-4,0 3.5e-4,0 7e-4,-3.5e-4 0.29598,1.87008 0.58067,3.66713 0.84349,5.32624 -0.0455,0.0642 -0.0914,0.12735 -0.13617,0.19085 -0.11148,0.1778 -0.2607,0.31644 -0.38453,0.46496 -0.121,0.14993 -0.26105,0.26776 -0.38699,0.38171 -0.12947,0.10795 -0.23354,0.23107 -0.34855,0.30833 -0.11324,0.0818 -0.21237,0.15275 -0.29316,0.21307 -0.16192,0.1196 -0.25541,0.19438 -0.25541,0.19438 0,0 0.10972,-0.0423 0.29492,-0.12488 0.0953,-0.0423 0.20532,-0.0949 0.33832,-0.15416 0.133,-0.054 0.26035,-0.15452 0.40957,-0.25189 0.14746,-0.097 0.31292,-0.19932 0.4565,-0.34748 0.12171,-0.11748 0.2667,-0.22895 0.38558,-0.36901 0.13618,0.85866 0.26565,1.67746 0.38771,2.44793 -0.0102,0.005 -0.0201,0.0102 -0.0303,0.0155 -0.13829,0.0494 -0.26811,0.12136 -0.40287,0.16439 -0.13829,0.0378 -0.26953,0.0819 -0.39723,0.12312 -0.13124,0.0261 -0.25541,0.0515 -0.37042,0.0755 -0.23001,0.0607 -0.42968,0.0624 -0.56974,0.0921 -0.13864,0.024 -0.21942,0.0385 -0.21942,0.0385 0,0 0.0769,0.0183 0.21766,0.0434 0.12735,0.0141 0.3041,0.0628 0.51823,0.0628 0.0243,0 0.0494,-7e-4 0.0748,-0.002 0.0229,0 0.0466,0 0.0706,0 0.10301,0 0.21378,-7.1e-4 0.3302,-0.008 0.1404,-0.0226 0.29139,-0.0441 0.44591,-0.0755 0.13017,-0.0332 0.26317,-0.0783 0.39652,-0.12629 0.0988,0.62265 0.19191,1.21108 0.27869,1.75965 -0.055,0.0229 -0.11042,0.0434 -0.16827,0.0564 -0.11853,0.0423 -0.2406,0.0773 -0.36125,0.0928 -0.12241,0.0286 -0.24271,0.0367 -0.36124,0.0448 -0.0395,0.005 -0.0787,0.007 -0.11748,0.007 -0.0776,0 -0.15345,-0.007 -0.22789,-0.007 -0.005,0 -0.009,3.5e-4 -0.0141,3.5e-4 -0.10619,0 -0.20567,-0.0198 -0.29845,-0.0328 -0.097,-0.0212 -0.19262,-0.0197 -0.26988,-0.0448 -0.0808,-0.0208 -0.15098,-0.0378 -0.20849,-0.0529 -0.11888,-0.0233 -0.18873,-0.0377 -0.18873,-0.0377 0,0 0.0536,0.0423 0.15451,0.11324 0.0522,0.0353 0.11324,0.0766 0.18486,0.12488 0.0723,0.0504 0.1658,0.0808 0.26282,0.12312 0.10089,0.0434 0.20673,0.0917 0.3309,0.11042 0.1136,0.0212 0.23354,0.06 0.3616,0.06 0.009,0 0.019,0 0.0286,-7e-4 0.0691,0.001 0.1404,0.006 0.21202,0.006 0.0699,0 0.1404,-0.004 0.2106,-0.0194 0.14535,-0.0159 0.28928,-0.0494 0.42969,-0.0959 0.036,-0.01 0.0709,-0.0219 0.10548,-0.0353 0.0649,0.40993 0.12594,0.79516 0.18238,1.15288 v 0 c -0.0829,0.0356 -0.16404,0.066 -0.24412,0.0914 -0.23918,0.0769 -0.46602,0.11147 -0.67733,0.11147"
       style="fill:#c9ae7b;fill-opacity:1;fill-rule:nonzero;stroke:none;stroke-width:0.0352778" />
    <path
       id="path203-3"
       d="m 177.62598,194.89327 c 0,0 0.0935,-0.0748 0.25541,-0.19438 0.0808,-0.0603 0.17992,-0.13123 0.29316,-0.21307 0.11501,-0.0773 0.21908,-0.20038 0.34855,-0.30833 0.12594,-0.11395 0.26599,-0.23178 0.38699,-0.38171 0.12383,-0.14852 0.27305,-0.28716 0.38453,-0.46496 0.0448,-0.0635 0.0907,-0.12665 0.13617,-0.19085 0.0268,0.17004 0.0536,0.33867 0.0801,0.50588 -0.11888,0.14006 -0.26387,0.25153 -0.38558,0.36901 -0.14358,0.14816 -0.30904,0.25047 -0.4565,0.34748 -0.14922,0.0974 -0.27657,0.19791 -0.40957,0.25189 -0.133,0.0593 -0.24307,0.11183 -0.33832,0.15416 -0.1852,0.0825 -0.29492,0.12488 -0.29492,0.12488"
       style="fill:#9b6f42;fill-opacity:1;fill-rule:nonzero;stroke:none;stroke-width:0.0352778" />
    <path
       id="path204-1"
       d="m 178.64445,196.70902 c -0.21413,0 -0.39088,-0.0487 -0.51823,-0.0628 -0.14076,-0.025 -0.21766,-0.0434 -0.21766,-0.0434 0,0 0.0808,-0.0145 0.21942,-0.0385 0.14006,-0.0296 0.33973,-0.0314 0.56974,-0.0921 0.11501,-0.024 0.23918,-0.0494 0.37042,-0.0755 0.1277,-0.0413 0.25894,-0.0854 0.39723,-0.12312 0.13476,-0.043 0.26458,-0.115 0.40287,-0.16439 0.0102,-0.005 0.0201,-0.0102 0.0303,-0.0155 0.0215,0.13617 0.0427,0.27058 0.0639,0.40358 -0.13335,0.048 -0.26635,0.0931 -0.39652,0.12629 -0.15452,0.0314 -0.30551,0.0529 -0.44591,0.0755 -0.11642,0.007 -0.22719,0.008 -0.3302,0.008 -0.024,0 -0.0476,0 -0.0706,0 -0.0254,0.001 -0.0505,0.002 -0.0748,0.002"
       style="fill:#9b6f42;fill-opacity:1;fill-rule:nonzero;stroke:none;stroke-width:0.0352778" />
    <path
       id="path205-2"
       d="m 179.56062,198.82004 c -0.0716,0 -0.14288,-0.005 -0.21202,-0.006 -0.01,7e-4 -0.0194,7e-4 -0.0286,7e-4 -0.12806,0 -0.248,-0.0388 -0.3616,-0.06 -0.12417,-0.0187 -0.23001,-0.067 -0.3309,-0.11042 -0.097,-0.0423 -0.1905,-0.0727 -0.26282,-0.12312 -0.0716,-0.0483 -0.13265,-0.0896 -0.18486,-0.12488 -0.10089,-0.0709 -0.15451,-0.11324 -0.15451,-0.11324 0,0 0.0699,0.0145 0.18873,0.0377 0.0575,0.0152 0.12771,0.0321 0.20849,0.0529 0.0773,0.025 0.17287,0.0236 0.26988,0.0448 0.0928,0.0131 0.19226,0.0328 0.29845,0.0328 0.005,0 0.01,-3.5e-4 0.0141,-3.5e-4 0.0744,0 0.15028,0.007 0.22789,0.007 0.0388,0 0.078,-0.002 0.11748,-0.007 0.11853,-0.008 0.23883,-0.0162 0.36124,-0.0448 0.12065,-0.0155 0.24272,-0.0504 0.36125,-0.0928 0.0579,-0.0131 0.11324,-0.0335 0.16827,-0.0564 0.0222,0.14005 0.0438,0.27764 0.0653,0.4124 -0.0346,0.0134 -0.0695,0.0254 -0.10548,0.0353 -0.14041,0.0466 -0.28434,0.0801 -0.42969,0.0959 -0.0702,0.0152 -0.14075,0.0194 -0.2106,0.0194"
       style="fill:#9b6f42;fill-opacity:1;fill-rule:nonzero;stroke:none;stroke-width:0.0352778" />
    <path
       id="path206-3"
       d="m 166.48279,164.70431 c -0.0416,-0.21872 -0.0825,-0.4318 -0.12312,-0.6424 l 1.11936,-1.3769 c 0.19721,0.38418 0.0445,0.73907 0.0445,0.73907 l -1.04069,1.28023"
       style="fill:#97995b;fill-opacity:1;fill-rule:nonzero;stroke:none;stroke-width:0.0352778" />
    <path
       id="path207-3"
       d="m 158.66347,156.96402 c 0,0 -0.79093,-0.0346 -1.78717,1.09855 -0.99413,1.13277 -2.54071,3.67524 -2.54071,3.67524 0,0 -0.27481,0.61736 0,0.99518 0.27517,0.37853 2.4384,4.49898 2.4384,4.49898 l 3.43394,-4.89938 3.88197,4.52191 3.43358,-4.22417 c 0,0 0.20673,-0.48083 -0.17074,-0.92674 -0.37924,-0.44768 -3.97334,-4.98828 -3.97334,-4.98828 l -4.71593,0.24871"
       style="fill:#183f38;fill-opacity:1;fill-rule:nonzero;stroke:none;stroke-width:0.0352778" />
    <path
       id="path208-4"
       d="m 158.14771,156.20731 v 4.19065 c 0,0 -0.0342,2.12901 2.33539,1.92299 2.36961,-0.20602 2.8836,-2.12972 2.95381,-3.33234 0.0684,-1.20015 0.13652,-3.50132 0.13652,-3.50132 l -5.42572,0.72002"
       style="fill:#eabd92;fill-opacity:1;fill-rule:nonzero;stroke:none;stroke-width:0.0352778" />
    <path
       id="path209-1"
       d="m 160.17018,162.33506 c -1.99319,-3.5e-4 -2.02282,-1.82527 -2.02282,-1.93217 0,-0.003 3.5e-4,-0.005 3.5e-4,-0.005 v -3.22192 c 0.20708,0.005 0.41416,0.008 0.6223,0.008 1.05339,0 2.11843,-0.0706 3.19087,-0.22013 0.49354,-0.0688 1.01988,-0.16228 1.57375,-0.28011 -0.002,0.0709 -0.005,0.14323 -0.008,0.21731 -0.025,0.70132 -0.0575,1.51836 -0.0899,2.08739 -0.0702,1.20262 -0.5842,3.12632 -2.95381,3.33234 -0.0949,0.008 -0.18592,0.0127 -0.27341,0.0138 -0.013,3.5e-4 -0.0264,3.5e-4 -0.0395,3.5e-4"
       style="fill:#e5ae80;fill-opacity:1;fill-rule:nonzero;stroke:none;stroke-width:0.0352778" />
    <path
       id="path210-1"
       d="m 181.73584,98.221927 c -0.11853,-0.338667 -3.63502,-10.075334 -11.4307,-9.567334 -7.93221,0.515056 -16.99966,4.018139 -23.7991,8.036278 -6.80014,4.018139 -16.89696,11.952109 -18.7525,12.054419 -1.85346,0.1023 2.67906,1.03011 5.9763,0 0,0 -3.19472,3.60539 -2.67906,4.12397 0.5165,0.51153 3.0911,-0.9278 3.0911,-0.9278 0,0 0.8248,7.00264 2.26695,9.78605 1.44181,2.77989 1.75119,10.30111 1.13277,16.27717 -0.31855,3.08328 -0.93662,5.06942 -0.71402,6.8774 -0.31256,-3.61068 4.96958,-15.42873 3.29036,-20.26885 -1.75295,-5.04825 -0.61842,-8.75947 0,-13.39497 0.61842,-4.6355 27.50785,-6.80155 30.90792,-6.69572 3.40007,0.1023 3.19511,3.39725 3.19511,3.39725 0.72461,-4.26508 5.79614,-8.406696 7.51487,-9.697863"
       style="fill:#84522a;fill-opacity:1;fill-rule:nonzero;stroke:none;stroke-width:0.0352778" />
    <path
       id="path211-3"
       d="m 195.85683,111.73332 c 0,0 1.85561,0.51505 2.78166,1.34055 0,0 -2.06023,-12.46716 -16.897,-14.837832 l -0.006,-0.01411 c -1.71873,1.291167 -6.79026,5.432782 -7.51487,9.697862 0,0 0.61842,-2.16253 3.09069,-1.74978 2.47367,0.41275 9.78746,10.61156 8.96408,16.73931 -0.82479,6.12775 0.61701,14.27339 0.61701,14.27339 -0.30939,-10.71739 5.05001,-19.26873 9.58286,-19.88609 0,0 -0.41346,-1.95791 -0.92781,-2.47297 0,0 2.06022,0.62089 2.16464,1.13594 0,0 -0.20672,-2.78341 -1.85561,-4.22627"
       style="fill:#734725;fill-opacity:1;fill-rule:nonzero;stroke:none;stroke-width:0.0352778" />
    <path
       id="path212-8"
       d="m 186.27574,122.90932 c 0.82338,-6.12775 -6.49041,-16.32656 -8.96408,-16.73931 -2.47227,-0.41275 -3.09069,1.74978 -3.09069,1.74978 0,0 0.20496,-3.29495 -3.19511,-3.39725 -3.40007,-0.10583 -30.2895,2.06022 -30.90792,6.69572 -0.61842,4.6355 -1.75295,8.34672 0,13.39497 1.67922,4.84012 -4.13173,15.02481 -3.29036,20.26885 0.018,0.14111 0.0399,0.27905 0.0667,0.41593 l 0.002,0.008 c 0.048,0.17251 0.0949,0.35137 0.14006,0.53764 0.42792,1.3469 1.45803,2.68675 3.59586,4.42277 5.46206,4.43019 13.18754,7.83096 21.32859,6.69714 8.13929,-1.13348 25.2409,-9.06675 24.93187,-19.78131 0,0 -1.4418,-8.14564 -0.61701,-14.27339"
       style="fill:#f1cead;fill-opacity:1;fill-rule:nonzero;stroke:none;stroke-width:0.0352778" />
    <path
       id="path213-7"
       d="m 140.09995,130.38115 c 0,0 0.48013,-2.06022 -3.84598,-1.38994 -4.32718,0.67027 -2.96299,9.28158 2.17769,8.24441 0,0 1.46333,-5.51391 1.66829,-6.85447"
       style="fill:#eabd92;fill-opacity:1;fill-rule:nonzero;stroke:none;stroke-width:0.0352778" />
    <path
       id="path214-4"
       d="m 186.16109,130.94912 c 0,0 1.71132,-4.32858 4.54483,-4.79072 2.83352,-0.46567 4.89409,5.20347 2.06023,8.29381 -2.83316,3.09033 -5.96548,2.17311 -5.96548,2.17311 0,0 -0.49777,-2.06728 -0.63958,-5.6762"
       style="fill:#eabd92;fill-opacity:1;fill-rule:nonzero;stroke:none;stroke-width:0.0352778" />
    <path
       id="path215-2"
       d="m 190.70592,131.44301 c 0,0 -0.0952,-0.0141 -0.25717,-0.0212 -0.16157,-0.004 -0.3937,-0.0106 -0.66146,0.0282 -0.13476,0.0106 -0.27517,0.0529 -0.42651,0.0776 -0.14146,0.0494 -0.29633,0.0882 -0.44556,0.15875 -0.1531,0.0564 -0.28927,0.15522 -0.4385,0.23989 -0.13864,0.0952 -0.27552,0.20461 -0.39934,0.32455 -0.11324,0.13053 -0.2533,0.23989 -0.34326,0.39159 -0.0956,0.14464 -0.2159,0.26811 -0.28575,0.42333 -0.0758,0.14817 -0.17286,0.28222 -0.23565,0.42333 -0.0593,0.14464 -0.12242,0.2787 -0.18168,0.4057 -0.11677,0.25047 -0.1778,0.47272 -0.24448,0.62441 -0.0628,0.1517 -0.0988,0.23989 -0.0988,0.23989 0,0 0.007,-0.0917 0.0197,-0.25752 0.0215,-0.16228 0.0229,-0.4057 0.0988,-0.68087 0.036,-0.13758 0.0759,-0.28575 0.12206,-0.4445 0.0452,-0.15875 0.12594,-0.3175 0.19967,-0.4833 0.0684,-0.16933 0.17957,-0.32808 0.28575,-0.49036 0.097,-0.16581 0.25012,-0.29986 0.37959,-0.44803 0.1457,-0.13758 0.30762,-0.25753 0.4692,-0.36689 0.1725,-0.0952 0.34536,-0.18344 0.52493,-0.23989 0.17462,-0.0705 0.35595,-0.0882 0.51964,-0.11994 0.16898,-0.0141 0.32738,-0.0282 0.47308,-0.0141 0.29104,0.0141 0.52669,0.0776 0.68297,0.127 0.1584,0.0529 0.24271,0.1023 0.24271,0.1023"
       style="fill:#b88459;fill-opacity:1;fill-rule:nonzero;stroke:none;stroke-width:0.0352778" />
    <path
       id="path216-7"
       d="m 135.06969,132.64951 c 0,0 0.25859,-0.20108 0.73166,-0.32808 0.11853,-0.0353 0.248,-0.06 0.38806,-0.0776 0.13864,-0.0212 0.28963,-0.0247 0.44414,-0.0247 0.15487,0.0176 0.31821,0.0141 0.47661,0.06 0.16333,0.0282 0.32138,0.0847 0.48013,0.14463 0.15769,0.0564 0.29457,0.15875 0.44026,0.23284 0.13865,0.0882 0.25718,0.20108 0.37748,0.29986 0.10971,0.10936 0.20496,0.22578 0.29668,0.33161 0.09,0.10583 0.15134,0.22578 0.21731,0.32808 0.13688,0.19756 0.19262,0.39864 0.2466,0.52564 0.0504,0.13053 0.072,0.20814 0.072,0.20814 0,0 -0.0504,-0.0635 -0.14217,-0.1658 -0.0935,-0.10584 -0.19755,-0.26812 -0.36477,-0.42687 -0.0843,-0.0811 -0.16016,-0.17991 -0.25717,-0.26458 -0.0952,-0.0847 -0.19756,-0.17286 -0.3041,-0.26105 -0.11465,-0.0776 -0.23177,-0.15523 -0.35207,-0.23989 -0.12947,-0.0565 -0.25012,-0.14464 -0.38876,-0.18698 -0.13441,-0.0564 -0.26917,-0.10936 -0.41134,-0.14111 -0.13653,-0.0423 -0.2787,-0.0564 -0.41381,-0.0811 -0.13829,-0.0106 -0.27129,-0.0318 -0.4004,-0.0318 -0.12806,-0.004 -0.25189,-0.004 -0.36513,0.004 -0.22824,0.0106 -0.42263,0.0353 -0.55739,0.0565 -0.13687,0.0212 -0.21378,0.0388 -0.21378,0.0388"
       style="fill:#b88459;fill-opacity:1;fill-rule:nonzero;stroke:none;stroke-width:0.0352778" />
    <path
       id="path217-7"
       d="m 158.01083,135.46468 c 0,0 -0.14005,0.10936 -0.38841,0.29986 -0.24447,0.1905 -0.5842,0.47625 -0.97613,0.82903 -0.38806,0.3563 -0.82868,0.79728 -1.16523,1.3335 -0.1651,0.26458 -0.29316,0.56797 -0.27693,0.85019 0.009,0.28223 0.19438,0.52564 0.4639,0.6985 0.28575,0.18698 0.57926,0.32809 0.901,0.43039 0.31785,0.0988 0.64523,0.16581 0.96555,0.20109 0.63994,0.0635 1.25483,0.0353 1.77412,-0.0423 0.51999,-0.0811 0.95497,-0.1658 1.25342,-0.25047 0.30021,-0.0811 0.47096,-0.13406 0.47096,-0.13406 0,0 -0.15628,0.0882 -0.44415,0.21167 -0.28928,0.11642 -0.70802,0.28575 -1.23649,0.40217 -0.5274,0.11641 -1.15993,0.22225 -1.85031,0.17639 -0.34149,-0.0247 -0.69956,-0.0741 -1.05022,-0.18345 -0.34678,-0.1023 -0.70274,-0.26458 -1.01389,-0.46919 -0.32173,-0.20461 -0.62406,-0.58561 -0.62935,-1.02306 -0.0109,-0.42333 0.18168,-0.77258 0.37041,-1.06186 0.19403,-0.29633 0.42969,-0.53269 0.65441,-0.74789 0.22648,-0.21519 0.45332,-0.39864 0.6671,-0.56444 0.42615,-0.33161 0.81245,-0.55739 1.07879,-0.71967 0.26953,-0.15875 0.43145,-0.23636 0.43145,-0.23636"
       style="fill:#b88459;fill-opacity:1;fill-rule:nonzero;stroke:none;stroke-width:0.0352778" />
    <path
       id="path218-9"
       d="m 151.21104,145.84411 c 0,0 -0.0448,0.072 -0.11148,0.21449 -0.0646,0.14393 -0.15099,0.36089 -0.21202,0.64487 -0.0575,0.27764 -0.079,0.65264 0.11324,0.99166 0.18521,0.34149 0.58808,0.57538 1.05728,0.69603 0.23177,0.0769 0.496,0.0878 0.75318,0.12983 0.27164,0.0152 0.55386,0.0441 0.83961,0.0497 0.57362,0.0194 1.18286,0.0233 1.80869,7e-4 0.31468,-0.005 0.63289,-0.0243 0.95462,-0.0504 0.32208,-0.0176 0.64735,-0.0529 0.97472,-0.0942 0.32703,-0.0321 0.65441,-0.0818 0.9832,-0.1404 0.32914,-0.0476 0.65651,-0.10866 0.98354,-0.18592 0.65617,-0.12311 1.30175,-0.29668 1.93111,-0.48436 0.31291,-0.10266 0.6223,-0.20426 0.9278,-0.30586 0.29986,-0.11959 0.59478,-0.23812 0.88618,-0.35313 0.29492,-0.10795 0.56092,-0.26564 0.83785,-0.38558 0.27516,-0.12524 0.54292,-0.24836 0.78916,-0.39653 0.25012,-0.1404 0.49636,-0.27728 0.73201,-0.40922 0.23002,-0.14076 0.4438,-0.2921 0.65441,-0.42933 0.42439,-0.27023 0.7874,-0.55421 1.10913,-0.80892 0.16193,-0.12347 0.31468,-0.23989 0.45508,-0.34925 0.12912,-0.11994 0.24977,-0.2293 0.35984,-0.32808 0.43638,-0.39864 0.6865,-0.62442 0.6865,-0.62442 0,0 -0.22824,0.24695 -0.63112,0.68086 -0.10266,0.10584 -0.2159,0.22578 -0.33796,0.35631 -0.13476,0.11641 -0.27869,0.24694 -0.43321,0.38382 -0.15487,0.13758 -0.31856,0.28399 -0.49107,0.43674 -0.17427,0.15663 -0.381,0.28751 -0.5842,0.44168 -0.20672,0.14816 -0.41733,0.31256 -0.64558,0.46461 -0.23354,0.14463 -0.47625,0.2928 -0.72602,0.44591 -0.24482,0.16263 -0.51258,0.29986 -0.78563,0.4385 -0.27552,0.13758 -0.55069,0.29316 -0.84702,0.40993 -0.29492,0.12312 -0.59337,0.248 -0.89747,0.37429 -0.31256,0.1076 -0.62759,0.21555 -0.94192,0.32421 -0.6417,0.19967 -1.2961,0.38841 -1.96532,0.5214 -0.33232,0.0748 -0.66851,0.13053 -1.00471,0.1771 -0.33443,0.0529 -0.67063,0.0988 -1.0033,0.12664 -0.33302,0.037 -0.66358,0.0695 -0.99272,0.0829 -0.32702,0.0215 -0.65052,0.0367 -0.96873,0.0377 -0.63852,0.0205 -1.25342,-0.0152 -1.83762,-0.0593 -0.29492,-0.0173 -0.5715,-0.0575 -0.84313,-0.084 -0.28046,-0.0572 -0.54469,-0.079 -0.79446,-0.17428 -0.49812,-0.14287 -0.94439,-0.44026 -1.12959,-0.84702 -0.18874,-0.40181 -0.13124,-0.79727 -0.0554,-1.07914 0.0808,-0.29034 0.19579,-0.49636 0.27129,-0.63465 0.079,-0.13794 0.13123,-0.20602 0.13123,-0.20602"
       style="fill:#b88459;fill-opacity:1;fill-rule:nonzero;stroke:none;stroke-width:0.0352778" />
    <path
       id="path219-3"
       d="m 166.73432,143.56799 c 0,0 0.14393,-0.11642 0.39017,-0.22225 0.12418,-0.0565 0.26952,-0.11289 0.43533,-0.14817 0.16157,-0.0459 0.34502,-0.0635 0.52846,-0.0741 0.18309,0.004 0.37571,0.0176 0.55175,0.0847 0.0882,0.0282 0.17109,0.0635 0.24447,0.12347 0.0773,0.0423 0.133,0.11289 0.1778,0.17992 0.0543,0.0529 0.0614,0.13406 0.0811,0.1905 0.0254,0.0564 0.0127,0.11289 0.0127,0.15522 -0.009,0.0811 -0.018,0.12348 -0.018,0.12348 0,0 -0.0233,-0.0388 -0.0628,-0.10584 -0.018,-0.0317 -0.0342,-0.0705 -0.0737,-0.10583 -0.0381,-0.0282 -0.0593,-0.0741 -0.11359,-0.0988 -0.084,-0.0564 -0.20285,-0.0917 -0.34114,-0.11289 -0.0649,-0.0176 -0.14605,-0.007 -0.21766,-0.0212 -0.0759,0 -0.15487,-0.004 -0.23566,0 -0.16016,0 -0.32561,0.0106 -0.48189,0.0176 -0.1584,0.007 -0.30727,0.0106 -0.43321,0.0212 -0.26071,0.007 -0.44415,-0.007 -0.44415,-0.007"
       style="fill:#b88459;fill-opacity:1;fill-rule:nonzero;stroke:none;stroke-width:0.0352778" />
    <path
       id="path220-1"
       d="m 169.79255,125.4846 c 0,0 1.68487,-1.92264 3.74509,-1.75331 2.06058,0.17286 3.36585,1.10067 3.36585,1.10067 0,0 -0.72284,-2.85045 -3.36585,-2.88573 -2.64478,-0.0353 -3.64102,2.81517 -3.74509,3.53837"
       style="fill:#734725;fill-opacity:1;fill-rule:nonzero;stroke:none;stroke-width:0.0352778" />
    <path
       id="path221-9"
       d="m 174.61432,131.29485 c -0.0628,1.59808 -0.67945,2.87161 -1.37866,2.84338 -0.69779,-0.0282 -1.21743,-1.34408 -1.15288,-2.93863 0.0596,-1.59809 0.67804,-2.87162 1.3776,-2.84339 0.70132,0.0247 1.21709,1.34055 1.15394,2.93864"
       style="fill:#2e1411;fill-opacity:1;fill-rule:nonzero;stroke:none;stroke-width:0.0352778" />
    <path
       id="path222-8"
       d="m 173.21379,130.02837 c -0.0589,0.47978 -0.27834,0.8502 -0.48683,0.8255 -0.21202,-0.0282 -0.33444,-0.43744 -0.27693,-0.92075 0.0575,-0.47625 0.27693,-0.84666 0.48718,-0.82197 0.21202,0.0247 0.33444,0.43745 0.27658,0.91722"
       style="fill:#ffffff;fill-opacity:1;fill-rule:nonzero;stroke:none;stroke-width:0.0352778" />
    <path
       id="path223-6"
       d="m 143.67606,126.05962 c 0,0 1.68275,-1.92616 3.74332,-1.7533 2.06058,0.17286 3.36586,1.10066 3.36586,1.10066 0,0 -0.72108,-2.85397 -3.36586,-2.88925 -2.64477,-0.0318 -3.64102,2.8187 -3.74332,3.54189"
       style="fill:#734725;fill-opacity:1;fill-rule:nonzero;stroke:none;stroke-width:0.0352778" />
    <path
       id="path224-5"
       d="m 149.91493,131.86987 c -0.0614,1.59809 -0.67945,2.87161 -1.37724,2.84339 -0.69921,-0.0282 -1.2192,-1.34408 -1.15641,-2.94216 0.0614,-1.59809 0.67981,-2.86809 1.37936,-2.84339 0.69921,0.0282 1.21709,1.34408 1.15429,2.94216"
       style="fill:#2e1411;fill-opacity:1;fill-rule:nonzero;stroke:none;stroke-width:0.0352778" />
    <path
       id="path225-0"
       d="m 148.51229,130.6034 c -0.0572,0.47978 -0.27482,0.8502 -0.48542,0.8255 -0.21202,-0.0282 -0.33444,-0.43744 -0.27658,-0.92075 0.0593,-0.47978 0.27658,-0.85019 0.48895,-0.82197 0.20849,0.0247 0.33232,0.43392 0.27305,0.91722"
       style="fill:#ffffff;fill-opacity:1;fill-rule:nonzero;stroke:none;stroke-width:0.0352778" />
    <path
       id="path226-2"
       d="m 179.26957,136.35015 c 0.061,0.92075 -1.68134,1.78153 -3.89078,1.92617 -2.2098,0.14111 -4.05095,-0.48683 -4.11022,-1.40406 -0.0593,-0.92075 1.68275,-1.78153 3.89291,-1.92616 2.20944,-0.14112 4.04847,0.48683 4.10809,1.40405"
       style="fill:#fab9b2;fill-opacity:1;fill-rule:nonzero;stroke:none;stroke-width:0.0352778" />
    <path
       id="path227-8"
       d="m 148.89188,136.75937 c -0.1203,0.9137 -1.99955,1.41817 -4.19277,1.12889 -2.19533,-0.28927 -3.87632,-1.26294 -3.75567,-2.17664 0.1203,-0.91369 1.99708,-1.41816 4.19065,-1.12889 2.19533,0.28928 3.87808,1.26295 3.75779,2.17664"
       style="fill:#fab9b2;fill-opacity:1;fill-rule:nonzero;stroke:none;stroke-width:0.0352778" />
    <path
       id="path228-6"
       d="m 162.88516,130.50815 c -0.36336,-0.46567 -1.58221,-1.6898 -2.81728,-1.72508 -1.1938,-0.0388 -2.47968,1.26647 -2.8321,1.72508 l -1.63407,-1.25589 c 0.20497,-0.26458 2.06058,-2.58939 4.52332,-2.52941 2.47226,0.0706 4.31518,2.42711 4.39243,2.52941 l -1.6323,1.25589"
       style="fill:#102535;fill-opacity:1;fill-rule:nonzero;stroke:none;stroke-width:0.0352778" />
    <path
       id="path229-0"
       d="m 191.9791,125.6504 c -0.54151,-0.45155 -1.13136,-0.60678 -1.7586,-0.6103 l -7.48982,2.81163 0.72425,1.9297 9.0491,-3.05858 c -0.20284,-0.24342 -0.28222,-0.87137 -0.52493,-1.07245"
       style="fill:#102535;fill-opacity:1;fill-rule:nonzero;stroke:none;stroke-width:0.0352778" />
    <path
       id="path230-2"
       d="m 148.507,122.6024 c -0.28046,0 -0.54822,0.004 -0.8001,0.0106 -1.54799,0.0353 -3.07975,0.19403 -4.55048,0.47273 -0.98884,0.18697 -1.80164,0.44097 -2.48109,0.77258 -0.80716,0.39511 -1.54234,0.98072 -1.9237,1.52753 -0.36159,0.51858 -0.61489,1.26647 -0.64911,1.905 -0.3309,6.24416 1.23508,9.3345 5.07894,10.01889 1.15076,0.20461 2.30294,0.31044 3.42371,0.31044 6.93032,0 8.34179,-3.55953 8.56686,-5.67619 l 0.0575,-0.52917 c 0.21202,-1.96144 0.45297,-4.18747 0.0483,-5.96194 -0.4385,-1.91912 -2.65183,-2.85045 -6.77086,-2.85045 z m -1.90183,17.07797 v 0 c -1.24283,0 -2.51389,-0.11641 -3.78672,-0.34219 -7.35012,-1.31233 -6.91691,-9.47561 -6.77298,-12.15672 0.054,-1.02306 0.43357,-2.13431 1.01248,-2.97039 0.5789,-0.83256 1.59138,-1.65806 2.71286,-2.20134 0.84737,-0.4198 1.8288,-0.72672 3.00284,-0.94897 1.58009,-0.29986 3.22369,-0.46919 4.88633,-0.508 0.26634,-0.007 0.55033,-0.0106 0.84702,-0.0106 5.15091,0 8.10683,1.49578 8.78099,4.45558 0.48048,2.10961 0.21943,4.51556 -0.0106,6.63928 l -0.0561,0.52211 c -0.49777,4.70959 -4.46757,7.52122 -10.61614,7.52122"
       style="fill:#163951;fill-opacity:1;fill-rule:nonzero;stroke:none;stroke-width:0.0352778" />
    <path
       id="path231-4"
       d="m 171.61218,122.6024 c -4.11727,0 -6.33236,0.93133 -6.76945,2.85045 -0.40429,1.77447 -0.16334,4.0005 0.0487,5.96194 l 0.0575,0.52917 c 0.22472,2.11666 1.63442,5.67619 8.56545,5.67619 1.12183,0 2.27259,-0.10583 3.423,-0.31044 3.84598,-0.68439 5.41196,-3.77473 5.07929,-10.01889 -0.0346,-0.63853 -0.28751,-1.38642 -0.64911,-1.905 -0.37923,-0.54681 -1.11654,-1.13242 -1.92369,-1.52753 -0.67981,-0.33161 -1.49225,-0.58561 -2.48109,-0.77258 -1.46897,-0.2787 -3.00073,-0.43745 -4.55048,-0.47273 -0.24977,-0.007 -0.51788,-0.0106 -0.8001,-0.0106 z m 1.90218,17.07797 c -6.14716,0 -10.11697,-2.81163 -10.61509,-7.52122 l -0.0575,-0.52211 c -0.22825,-2.12372 -0.48895,-4.52967 -0.009,-6.63928 0.67416,-2.9598 3.62797,-4.45558 8.77923,-4.45558 0.29845,0 0.58032,0.004 0.84878,0.0106 1.66123,0.0388 3.30624,0.20814 4.88668,0.508 1.17193,0.22225 2.15371,0.52917 3.00249,0.94545 1.11972,0.5468 2.13396,1.3723 2.7111,2.20486 0.58067,0.83608 0.95814,1.94733 1.01388,2.97039 0.14217,2.68111 0.57538,10.84439 -6.77439,12.15672 -1.27141,0.22578 -2.54388,0.34219 -3.78636,0.34219"
       style="fill:#163951;fill-opacity:1;fill-rule:nonzero;stroke:none;stroke-width:0.0352778" />
    <path
       id="path232-8"
       d="m 139.18449,119.37801 c -0.0342,-0.11289 -2.23696,-7.36247 0.93169,-10.62919 3.04976,-3.15031 23.2544,-6.30767 29.43119,-6.30767 0.28293,0 0.53693,0.007 0.75777,0.0176 4.62809,0.28575 4.06082,4.63197 3.93453,5.35869 -0.004,0.0176 -0.007,0.0353 -0.0102,0.0564 -0.001,0.004 -0.002,0.0106 -0.003,0.0141 l -0.005,0.0318 c 0,0 0.002,-0.0353 0.002,-0.10583 v 0 c 0,-0.56445 -0.16298,-3.1997 -3.19758,-3.29142 v 0 c -0.005,0 -0.0102,0 -0.0155,0 -0.0737,-0.004 -0.15804,-0.004 -0.25224,-0.004 h -3.5e-4 v 0 0 c -0.0197,0 -0.0402,0 -0.0607,0 -0.0148,0 -0.0296,0 -0.0448,0 -3.35351,0.0247 -17.51471,1.16417 -25.3231,3.49603 -10e-4,0 -0.004,0.004 -0.005,0.004 -10e-4,0 -0.003,0 -0.004,0 -0.0205,0.007 -0.0392,0.0141 -0.0596,0.0176 h -7.1e-4 c -2.77283,0.83608 -4.72969,1.82033 -5.09164,2.96333 -3.5e-4,0 -0.001,0 -0.001,0.004 -0.013,0.0388 -0.0236,0.0811 -0.0321,0.12347 -3.5e-4,0 -3.5e-4,0 -3.5e-4,0 -0.007,0.0317 -0.0116,0.06 -0.0159,0.0917 v 0 0 c -0.1203,0.89958 -0.26,1.76742 -0.39405,2.61408 -0.28258,1.78506 -0.54081,3.48898 -0.54152,5.26698 0,0.0917 7.1e-4,0.18344 0.002,0.27869"
       style="fill:#714021;fill-opacity:1;fill-rule:nonzero;stroke:none;stroke-width:0.0352778" />
    <path
       id="path233-6"
       d="m 174.22944,107.87393 c 0.003,-0.0212 0.007,-0.0388 0.0102,-0.0564 -0.004,0.0212 -0.007,0.0388 -0.0102,0.0564"
       style="fill:#62381d;fill-opacity:1;fill-rule:nonzero;stroke:none;stroke-width:0.0352778" />
    <path
       id="path234-5"
       d="m 139.18484,119.37801 c 0,0 0,0 -3.5e-4,0 -0.001,-0.0953 -0.002,-0.18697 -0.002,-0.27869 7.1e-4,-1.778 0.25894,-3.48192 0.54152,-5.26698 -0.29739,1.88031 -0.56762,3.66889 -0.53905,5.54567 m 0.9331,-8.15975 v 0 0 c 0.004,-0.0318 0.009,-0.06 0.0159,-0.0917 v 0 c -0.007,0.0317 -0.0116,0.06 -0.0159,0.0917 v 0 m 0.0162,-0.0917 v 0 c 0.008,-0.0423 0.019,-0.0847 0.0321,-0.12347 v 0 c -0.013,0.0388 -0.0236,0.0811 -0.0321,0.12347 m 0.0335,-0.127 v 0 c 0.36195,-1.143 2.31881,-2.12725 5.09164,-2.96333 v 0 c -2.77283,0.83608 -4.72969,1.82033 -5.09164,2.96333 m 5.09235,-2.96333 v 0 c 0.0205,-0.004 0.0392,-0.0106 0.0596,-0.0176 v 0 c -0.0205,0.007 -0.0392,0.0141 -0.0596,0.0176 m 0.0639,-0.0176 v 0 c 0.001,0 0.004,-0.004 0.005,-0.004 v 0 c -0.001,0 -0.004,0.004 -0.005,0.004 m 28.89956,-0.20461 c 0,-0.56445 -0.16298,-3.1997 -3.19758,-3.29142 -0.005,0 -0.0102,0 -0.0155,0 v 0 c 0.005,0 0.0106,0 0.0155,0 v 0 c 3.0346,0.0917 3.19758,2.72697 3.19758,3.29142 v 0 m -3.57117,-3.29495 v 0 c 0.0152,0 0.03,0 0.0448,0 v 0 c -0.0148,0 -0.0296,0 -0.0448,0 m 0.10583,0 h -3.5e-4 v 0 0 h 3.5e-4 v 0"
       style="fill:#cca17e;fill-opacity:1;fill-rule:nonzero;stroke:none;stroke-width:0.0352778" />
    <path
       id="path235-0"
       d="m 186.16285,130.94912 c 0.0268,0.38806 0.0575,0.76553 0.0878,1.12889 0.0215,-0.43744 0,-0.8255 -0.0878,-1.12889"
       style="fill:#734725;fill-opacity:1;fill-rule:nonzero;stroke:none;stroke-width:0.0352778" />
    <path
       id="path236-9"
       d="m 174.22097,107.91979 c 0,0 0.018,-0.0635 0.061,-0.16581 l -0.009,-0.0882 c -0.018,0.0847 -0.0381,0.16933 -0.0522,0.254"
       style="fill:#734725;fill-opacity:1;fill-rule:nonzero;stroke:none;stroke-width:0.0352778" />
    <path
       id="path237-0"
       d="m 186.08418,129.65796 c -0.0123,-0.25048 -0.0229,-0.50095 -0.0321,-0.75495 l 0.15946,-0.0529 c -0.0625,0.28222 -0.10725,0.55033 -0.12736,0.80786"
       style="fill:#60371d;fill-opacity:1;fill-rule:nonzero;stroke:none;stroke-width:0.0352778" />
    <path
       id="path238-0"
       d="m 186.3403,121.90743 c 10e-4,-6.17361 -6.68549,-15.34584 -9.02864,-15.73742 -0.005,0 -0.0102,0 -0.0152,-0.004 0.005,0.004 0.01,0.004 0.0152,0.004 2.34315,0.39158 9.0297,9.56381 9.02864,15.73742 m -9.05052,-15.74095 c -0.0497,-0.007 -0.0984,-0.0141 -0.14675,-0.0212 -0.0229,-0.004 -0.0455,-0.004 -0.0681,-0.007 0.0702,0.007 0.14147,0.0176 0.21484,0.0282 m -0.21731,-0.0282 c -0.002,0 -0.005,0 -0.007,0 0.002,0 0.005,0 0.007,0"
       style="fill:#d0c1af;fill-opacity:1;fill-rule:nonzero;stroke:none;stroke-width:0.0352778" />
    <path
       id="path239-6"
       d="m 186.02527,126.61701 c 0.0166,-1.26294 0.091,-2.52236 0.25047,-3.70769 0.0434,-0.32456 0.0642,-0.65617 0.0646,-1.00189 v 0 c 0.001,-6.17361 -6.68549,-15.34584 -9.02864,-15.73742 -0.005,0 -0.0102,0 -0.0152,-0.004 -0.002,0 -0.005,0 -0.007,0 -0.0734,-0.0106 -0.14463,-0.0212 -0.21484,-0.0282 -7e-4,0 -0.002,0 -0.002,0 -0.002,0 -0.005,0 -0.007,0 -0.12453,-0.0141 -0.24448,-0.0212 -0.35913,-0.0212 -1.37336,0 -2.03941,0.87489 -2.31599,1.40406 -0.0466,0.0917 -0.0818,0.16933 -0.1083,0.23283 l -0.009,-0.0882 c 0.0773,-0.37747 0.1905,-0.75495 0.33055,-1.12536 0.44274,-0.61384 1.3007,-1.42875 2.74885,-1.42875 0.15169,0 0.31009,0.0106 0.47484,0.0282 2.67723,0.30692 9.27911,7.46478 9.78993,14.23811 0.22719,3.0092 -0.21484,5.19289 -0.68333,6.89681 l -0.90875,0.34219"
       style="fill:#60371d;fill-opacity:1;fill-rule:nonzero;stroke:none;stroke-width:0.0352778" />
    <path
       id="path240"
       d="m 186.08348,129.66148 c -0.012,-0.25047 -0.0226,-0.50447 -0.0314,-0.75847 v 0 c 0.009,0.254 0.0198,0.50447 0.0321,0.75495 -3.5e-4,0 -3.5e-4,0.004 -7e-4,0.004 m 0.25682,-7.75405 c 10e-4,-6.17361 -6.68549,-15.34584 -9.02864,-15.73742 -0.0571,-0.0106 -0.1136,-0.0176 -0.16863,-0.0247 0.0483,0.007 0.097,0.0141 0.14675,0.0212 0.002,0 0.005,0 0.007,0 0.005,0.004 0.01,0.004 0.0152,0.004 2.34315,0.39158 9.0297,9.56381 9.02864,15.73742 v 0 M 174.282,107.75398 v 0 0 0 c 0.0265,-0.0635 0.0617,-0.14111 0.1083,-0.23283 -0.0466,0.0917 -0.0822,0.16933 -0.1083,0.23283"
       style="fill:#c69e7d;fill-opacity:1;fill-rule:nonzero;stroke:none;stroke-width:0.0352778" />
    <path
       id="path241"
       d="m 186.05208,128.90301 c -0.0261,-0.75141 -0.037,-1.52047 -0.0268,-2.286 l 0.90875,-0.34219 c -0.27516,1.00189 -0.55915,1.83444 -0.72248,2.57528 l -0.15946,0.0529 v 0"
       style="fill:#0b1d26;fill-opacity:1;fill-rule:nonzero;stroke:none;stroke-width:0.0352778" />
    <path
       id="path242"
       d="m 174.282,107.75398 -0.009,-0.0882 v 0 l 0.009,0.0882 v 0 0"
       style="fill:#60371d;fill-opacity:1;fill-rule:nonzero;stroke:none;stroke-width:0.0352778" />
  </g>
</svg>
