<?xml version="1.0" encoding="UTF-8" standalone="no"?>
<!-- Created with Inkscape (http://www.inkscape.org/) -->

<svg
   width="78.859482mm"
   height="208.04623mm"
   viewBox="0 0 78.859487 208.04624"
   version="1.1"
   id="svg1"
   inkscape:version="1.4.2 (f4327f4, 2025-05-13)"
   sodipodi:docname="boy7.svg"
   xmlns:inkscape="http://www.inkscape.org/namespaces/inkscape"
   xmlns:sodipodi="http://sodipodi.sourceforge.net/DTD/sodipodi-0.dtd"
   xmlns="http://www.w3.org/2000/svg"
   xmlns:svg="http://www.w3.org/2000/svg">
  <sodipodi:namedview
     id="namedview1"
     pagecolor="#ffffff"
     bordercolor="#000000"
     borderopacity="0.25"
     inkscape:showpageshadow="2"
     inkscape:pageopacity="0.0"
     inkscape:pagecheckerboard="0"
     inkscape:deskcolor="#d1d1d1"
     inkscape:document-units="mm"
     inkscape:zoom="1.2275954"
     inkscape:cx="-214.23997"
     inkscape:cy="198.76256"
     inkscape:window-width="2880"
     inkscape:window-height="1676"
     inkscape:window-x="-12"
     inkscape:window-y="-12"
     inkscape:window-maximized="1"
     inkscape:current-layer="layer1" />
  <defs
     id="defs1">
    <clipPath
       clipPathUnits="userSpaceOnUse"
       id="clipPath119">
      <path
         d="m 2429.58,8528.87 v 0 l -1.54,4.27 c 7.66,35.49 -15.79,67.53 -15.79,67.53 10.47,20.59 15.22,39.01 16.15,55.3 95.03,81.21 245.93,222.7 239.94,298.46 -6.68,84.06 -297.09,299.7 -435.14,397.71 -1.96,12.33 -3.87,24.38 -5.72,36.02 -4.67,29.42 -8.97,56.5 -12.82,80.63 v 0 c 0,0 399.66,-281.36 528.14,-436.13 0,0 44.89,-42.39 44.81,-102.96 0,-4.99 -0.32,-10.11 -0.98,-15.34 -8.76,-68.62 -357.05,-385.49 -357.05,-385.49"
         transform="translate(0,2.5000001e-4)"
         id="path119" />
    </clipPath>
    <clipPath
       clipPathUnits="userSpaceOnUse"
       id="clipPath299">
      <path
         d="m 6622.23,11070.3 c 4.28,3.8 8.4,7.9 12.38,12.2 -0.48,-0.6 -0.96,-1.2 -1.45,-1.8 -3.23,-3.4 -6.57,-6.6 -10.01,-9.8 -0.22,-0.1 -0.44,-0.3 -0.66,-0.4 l -0.26,-0.2"
         transform="translate(0,2.5000001e-4)"
         id="path299" />
    </clipPath>
  </defs>
  <g
     inkscape:label="图层 1"
     inkscape:groupmode="layer"
     id="layer1"
     transform="translate(-161.39563,-233.8915)">
    <path
       id="path2"
       d="m 173.98251,348.12094 c 0,0 0.69038,16.23025 4.23015,33.49379 3.53872,17.26635 12.34476,42.9066 12.34476,42.9066 l 7.68279,-0.95003 c 0,0 -11.05041,-48.9063 -7.03721,-67.8106 0,0 10.22985,13.15544 22.4021,66.59528 0,0 3.62549,0.78281 7.25134,-1.46191 0,0 -7.59671,-57.49397 -12.60404,-72.85885 l -34.26989,0.0857"
       style="fill:#375774;fill-opacity:1;fill-rule:nonzero;stroke:none;stroke-width:0.0352778" />
    <path
       id="path3"
       d="m 195.12201,423.95582 c -2.1336,-8.16892 -5.64515,-22.97394 -7.5438,-38.41044 -2.84974,-23.17609 3.62479,-29.78468 3.62479,-29.78468 -0.61736,2.90759 -0.87806,6.52498 -0.87771,10.56499 0.002,22.22676 7.91492,57.24561 7.91492,57.24561 v 0 l -3.1182,0.38452"
       style="fill:#213953;fill-opacity:1;fill-rule:nonzero;stroke:none;stroke-width:0.0352778" />
    <path
       id="path4"
       d="m 220.83845,420.90535 c 0.006,-0.004 0.012,-0.007 0.018,-0.0113 v 0 c -0.006,0.004 -0.012,0.007 -0.018,0.0113"
       style="fill:#8ea4b2;fill-opacity:1;fill-rule:nonzero;stroke:none;stroke-width:0.0352778" />
    <path
       id="path5"
       d="m 217.15087,422.30835 c -0.89571,-7.69726 -3.02613,-23.96173 -6.99806,-43.72822 -2.37031,-11.79195 -4.67748,-20.2318 -6.54614,-26.04029 1.86725,-0.42228 3.70275,-0.96097 5.48393,-1.64148 4.97276,18.58363 11.76584,69.99571 11.76584,69.99571 -0.006,0.004 -0.012,0.007 -0.018,0.0113 -1.28552,0.79164 -2.56646,1.20051 -3.68758,1.403 m -8.06521,-71.42798 c -0.17321,-0.64346 -0.34431,-1.2506 -0.51259,-1.81469 l 3.6e-4,-3.5e-4 c 0.16862,0.56374 0.33902,1.16805 0.51223,1.81504"
       style="fill:#213953;fill-opacity:1;fill-rule:nonzero;stroke:none;stroke-width:0.0352778" />
    <path
       id="path6"
       d="m 167.84805,325.9732 c -0.007,-0.14217 2.07469,3.88938 2.07469,3.88938 l 2.72238,-3.88938 -0.92992,-2.41159 -3.86715,2.41159"
       style="fill:#eabd92;fill-opacity:1;fill-rule:nonzero;stroke:none;stroke-width:0.0352778" />
    <path
       id="path7"
       d="m 169.92274,329.86258 c 0,0 -0.92534,-1.79176 -1.53988,-2.94393 l 3.53378,-2.83493 0.72848,1.88948 -2.72238,3.88938"
       style="fill:#e5ae80;fill-opacity:1;fill-rule:nonzero;stroke:none;stroke-width:0.0352778" />
    <path
       id="path8"
       d="m 174.23051,352.13979 v 0 c -0.0776,-1.02023 -0.13124,-1.81716 -0.16828,-2.42253 0.002,7.1e-4 0.005,10e-4 0.006,0.002 0.0385,0.63711 0.0914,1.45168 0.16193,2.42076 m 34.86009,-1.24143 c -0.002,-0.006 -0.004,-0.012 -0.005,-0.018 0.001,0.006 0.003,0.012 0.005,0.018 v 0"
       style="fill:#8ca1ad;fill-opacity:1;fill-rule:nonzero;stroke:none;stroke-width:0.0352778" />
    <path
       id="path9"
       d="m 190.68936,353.92449 c -3.50485,-3.5e-4 -14.25505,-1.16134 -16.45885,-1.7847 -0.0706,-0.96908 -0.12347,-1.78365 -0.16193,-2.42076 3.12138,0.86677 8.86355,2.10961 16.12477,2.10996 3.8735,0 8.17668,-0.35348 12.74727,-1.30669 0.21485,0.63394 0.43745,1.30634 0.66605,2.01754 -4.15431,0.94015 -8.46385,1.30492 -12.67531,1.38253 -0.0766,10e-4 -0.15663,0.002 -0.242,0.002"
       style="fill:#203851;fill-opacity:1;fill-rule:nonzero;stroke:none;stroke-width:0.0352778" />
    <path
       id="path10"
       d="m 203.60667,352.53984 c -0.2286,-0.7112 -0.4512,-1.3836 -0.66605,-2.01754 1.83833,-0.38311 3.71934,-0.8636 5.63245,-1.45662 0.16828,0.56409 0.33938,1.17123 0.51259,1.81469 0.001,0.006 0.003,0.012 0.005,0.018 -1.78118,0.68051 -3.61668,1.2192 -5.48393,1.64148"
       style="fill:#142537;fill-opacity:1;fill-rule:nonzero;stroke:none;stroke-width:0.0352778" />
    <path
       id="path11"
       d="m 207.82272,340.52352 c -0.6022,-2.62925 -1.13771,-23.43679 -1.26577,-28.78667 -0.21026,-2.66065 -0.30021,-5.33047 -0.26035,-7.99394 -3.68935,-1.51518 -6.65939,-2.79894 -7.02134,-3.10515 -0.97261,-0.82092 -3.53977,-1.39806 -3.53977,-1.39806 0,0 -6.92714,-2.71992 -9.45339,-2.26695 -2.52412,0.45473 -23.88905,11.26561 -24.79498,14.43814 -0.90805,3.17253 5.24227,16.83385 5.24227,16.83385 l 5.5686,-4.46688 c 0,0 -4.3367,-9.45373 -3.43076,-10.42458 0.90628,-0.97084 10.35967,-6.47382 10.35967,-6.47382 0,0 -8.87095,19.65995 -7.74912,42.01971 0,0 17.61067,6.81779 38.67503,-0.34713 0,0 -1.64147,-5.00627 -2.33009,-8.02852"
       style="fill:#cac9c9;fill-opacity:1;fill-rule:nonzero;stroke:none;stroke-width:0.0352778" />
    <path
       id="path12"
       d="m 205.98898,303.61661 c -0.45544,-0.18838 -0.90276,-0.37218 -1.33245,-0.55174 -0.10054,-0.0226 -0.2032,-0.048 -0.30374,-0.0691 -2.51918,-0.55315 -4.9784,-1.24707 -7.4362,-2.02106 -3.63714,-1.14512 -7.43973,-2.00272 -10.79465,-3.85657 -0.64523,0.58985 -1.25483,1.19557 -1.82492,1.83021 3.78284,1.61573 7.62318,3.10868 11.56406,4.29014 3.4357,1.02905 6.84847,1.69015 10.36179,2.28388 -0.0565,-0.63712 -0.12982,-1.27353 -0.23389,-1.90571"
       style="fill:#e8f6e0;fill-opacity:1;fill-rule:nonzero;stroke:none;stroke-width:0.0352778" />
    <path
       id="path13"
       d="m 206.42395,309.01235 c -1.16522,-0.18874 -2.32974,-0.41804 -3.48615,-0.6283 -2.99932,-0.54504 -5.97253,-1.20015 -8.95385,-1.83268 -2.94852,-0.62794 -5.90056,-1.22943 -8.84344,-1.87113 -1.37724,-0.30092 -2.72944,-0.68933 -4.08693,-1.03999 -0.018,0.0321 -0.0377,0.0635 -0.054,0.096 -0.33443,0.64911 -0.6544,1.31162 -0.98143,1.96991 0.80716,0.25082 1.60902,0.52916 2.43805,0.72531 3.28295,0.77928 6.58883,1.47249 9.91905,2.02812 4.47675,0.74789 9.36872,1.69439 14.1224,1.84608 -0.0289,-0.43003 -0.0519,-0.86077 -0.0737,-1.29328"
       style="fill:#e8f6e0;fill-opacity:1;fill-rule:nonzero;stroke:none;stroke-width:0.0352778" />
    <path
       id="path14"
       d="m 206.54637,311.35338 c -3.99169,-0.13405 -7.95761,-0.58878 -11.94541,-1.22026 -2.81552,-0.44555 -5.62399,-0.94897 -8.4074,-1.58115 -1.40371,-0.31926 -2.84939,-0.57079 -4.23016,-0.98883 -0.81809,-0.248 -1.65065,-0.55633 -2.49591,-0.77717 -0.24412,0.4639 -0.50306,0.9204 -0.77646,1.36419 -0.0935,0.22754 -0.19226,0.4766 -0.30374,0.76059 1.41323,0.35348 2.8194,0.79199 4.22698,1.022 3.28648,0.5401 6.58566,1.01423 9.88519,1.48096 3.5687,0.50588 7.14446,0.89676 10.72233,1.32045 1.05198,0.12312 2.19533,0.28222 3.36903,0.40887 -0.0173,-0.73343 -0.0339,-1.34197 -0.0445,-1.78965"
       style="fill:#e8f6e0;fill-opacity:1;fill-rule:nonzero;stroke:none;stroke-width:0.0352778" />
    <path
       id="path15"
       d="m 182.41107,316.72654 c 3.50767,0.56057 7.0351,0.96908 10.56852,1.31763 4.4637,0.44026 9.16376,0.98813 13.76433,0.83255 -0.0145,-0.5528 -0.0303,-1.08973 -0.0452,-1.60937 -0.97085,-0.0261 -1.94698,-0.0755 -2.92312,-0.12206 -3.71616,-0.17921 -7.44502,-0.34078 -11.15237,-0.67416 -5.24474,-0.47202 -10.81299,-1.23966 -15.92791,-2.85256 -0.21026,0.63288 -0.4244,1.30739 -0.64382,2.01542 2.07151,0.55845 4.30283,0.76165 6.35952,1.09255"
       style="fill:#e8f6e0;fill-opacity:1;fill-rule:nonzero;stroke:none;stroke-width:0.0352778" />
    <path
       id="path16"
       d="m 184.66215,325.66734 c 3.25966,0.46426 6.52991,0.74683 9.81992,0.86325 3.33728,0.11747 6.66891,0.11289 10.00548,-0.0247 0.80575,-0.0339 1.64889,-0.0261 2.49944,-0.0381 -0.0236,-0.69427 -0.0469,-1.3903 -0.072,-2.08316 -4.7431,0.37289 -9.43046,0.0826 -14.29174,-0.33866 -6.0967,-0.52882 -12.2689,-1.00895 -18.22203,-2.48074 -0.18168,0.72567 -0.35771,1.47602 -0.53022,2.2412 3.39266,1.04669 7.45948,1.38642 10.79112,1.8609"
       style="fill:#e8f6e0;fill-opacity:1;fill-rule:nonzero;stroke:none;stroke-width:0.0352778" />
    <path
       id="path17"
       d="m 191.088,330.16949 c 3.538,0.0554 7.09259,0.11677 10.62919,7.1e-4 1.6577,-0.0536 3.53836,-0.0385 5.40456,-0.1644 -0.0219,-0.54222 -0.0434,-1.08973 -0.0646,-1.64324 -0.35984,0.0117 -0.71932,0.0233 -1.08091,0.0321 -4.09011,0.11712 -8.16011,0.25717 -12.25268,0.0628 -4.08517,-0.19367 -8.11918,-0.58949 -12.15214,-1.27282 -2.65007,-0.44768 -5.50016,-0.6604 -8.13541,-1.38712 -0.18027,0.86748 -0.35242,1.75859 -0.51611,2.66629 5.94572,1.35961 12.06006,1.61114 18.16806,1.70568"
       style="fill:#e8f6e0;fill-opacity:1;fill-rule:nonzero;stroke:none;stroke-width:0.0352778" />
    <path
       id="path18"
       d="m 191.2224,333.86202 c 5.27015,0.0236 10.74279,-0.0952 16.02352,-0.99237 -0.0166,-0.31256 -0.0307,-0.629 -0.0434,-0.95355 -4.97981,0.5087 -10.11131,0.32243 -14.98423,0.248 -6.56591,-0.0998 -13.21471,-0.2533 -19.65114,-1.62066 -0.0737,0.45896 -0.1397,0.93098 -0.20849,1.40053 6.16691,1.44356 12.52996,1.8923 18.86373,1.91805"
       style="fill:#e8f6e0;fill-opacity:1;fill-rule:nonzero;stroke:none;stroke-width:0.0352778" />
    <path
       id="path19"
       d="m 180.35791,337.49916 c 3.9056,0.25541 7.82955,0.39652 11.74185,0.26282 3.70911,-0.127 7.3914,-0.49354 11.08992,-0.77047 1.41147,-0.10619 2.84586,-0.21131 4.25204,-0.43427 -0.0363,-0.57997 -0.0737,-1.20262 -0.10443,-1.86443 -11.61274,1.80693 -23.85095,2.00131 -35.26049,-0.64629 -0.0917,0.73554 -0.1711,1.48131 -0.24659,2.23379 2.75625,0.80539 5.80919,1.04105 8.5277,1.21885"
       style="fill:#e8f6e0;fill-opacity:1;fill-rule:nonzero;stroke:none;stroke-width:0.0352778" />
    <path
       id="path20"
       d="m 181.57146,342.21968 c 4.00579,0.3175 8.02217,0.36971 12.03502,0.127 3.68582,-0.22366 7.38293,-0.50977 11.05005,-0.9458 1.06822,-0.127 2.17065,-0.26599 3.2632,-0.46919 -0.0339,-0.13759 -0.0681,-0.27588 -0.097,-0.40817 -0.0773,-0.33337 -0.15099,-0.96202 -0.22649,-1.81045 -1.02058,0.14852 -2.05704,0.25435 -3.10127,0.33196 -3.96628,0.29527 -7.92339,0.73307 -11.90237,0.8382 -4.25026,0.11183 -8.53475,0.0579 -12.77232,-0.31609 -2.6483,-0.23107 -5.5178,-0.44944 -8.17703,-1.15535 -0.0466,0.62054 -0.0829,1.24954 -0.11677,1.87819 2.9344,1.40582 7.19702,1.70427 10.04499,1.9297"
       style="fill:#e8f6e0;fill-opacity:1;fill-rule:nonzero;stroke:none;stroke-width:0.0352778" />
    <path
       id="path21"
       d="m 180.31451,347.106 c 4.49157,0.38806 8.95033,0.21555 13.44119,-0.0956 4.58258,-0.31644 9.21279,-0.67875 13.73823,-1.51483 0.52281,-0.0963 1.06433,-0.18944 1.61254,-0.28857 -0.2226,-0.74189 -0.4579,-1.53705 -0.67592,-2.3174 -5.1368,1.19204 -10.71915,1.27565 -15.73742,1.49225 -4.62421,0.20214 -9.33661,0.24624 -13.92837,-0.40358 -2.29235,-0.32208 -5.00168,-0.64382 -7.33002,-1.55892 -0.0307,0.97014 -0.0448,1.94839 -0.0448,2.93335 2.79365,1.1437 6.03744,1.50424 8.92457,1.7533"
       style="fill:#e8f6e0;fill-opacity:1;fill-rule:nonzero;stroke:none;stroke-width:0.0352778" />
    <path
       id="path22"
       d="m 209.51323,347.28733 c -4.61539,0.85937 -9.29923,1.34832 -13.98129,1.67993 -4.6796,0.33267 -9.39377,0.68897 -14.08113,0.28716 -3.25931,-0.27834 -6.83366,-0.58914 -10.02347,-1.70639 0.0127,0.44874 0.0289,0.89818 0.0504,1.35114 0,0 17.61067,6.81779 38.67503,-0.34713 0,0 -0.16862,-0.51294 -0.41698,-1.30598 -0.0773,0.0131 -0.14887,0.0296 -0.2226,0.0413"
       style="fill:#e8f6e0;fill-opacity:1;fill-rule:nonzero;stroke:none;stroke-width:0.0352778" />
    <path
       id="path23"
       d="m 191.44748,321.92225 c 4.90643,0.4692 10.3251,1.26224 15.40968,0.67487 -0.0215,-0.67204 -0.0409,-1.33915 -0.0607,-1.98826 -4.56848,0.13829 -9.11402,-0.14111 -13.75446,-0.57785 -3.4985,-0.33196 -6.99558,-0.71755 -10.4708,-1.24072 -2.29975,-0.34537 -4.80801,-0.53657 -7.1254,-1.13453 -0.16898,0.59161 -0.33796,1.20756 -0.51047,1.8355 5.40067,1.38289 10.96539,1.89795 16.51212,2.43099"
       style="fill:#e8f6e0;fill-opacity:1;fill-rule:nonzero;stroke:none;stroke-width:0.0352778" />
    <path
       id="path24"
       d="m 185.41709,314.09164 c 3.04201,0.49707 6.10059,0.85126 9.17505,1.04881 3.38349,0.2159 6.76698,0.44062 10.154,0.57186 0.62795,0.0254 1.26788,0.0575 1.91311,0.0864 -0.0141,-0.50977 -0.0268,-0.99519 -0.0374,-1.44639 -0.28011,-0.0243 -0.56092,-0.0487 -0.83608,-0.072 -3.60821,-0.32738 -7.21537,-0.75247 -10.80382,-1.25412 -3.54225,-0.49354 -7.07814,-1.01812 -10.60944,-1.57939 -2.06234,-0.33091 -4.2665,-1.02306 -6.41844,-1.40335 -0.25929,0.69215 -0.54998,1.49578 -0.85761,2.3876 2.7111,0.79551 5.6381,1.22202 8.32062,1.66052"
       style="fill:#e8f6e0;fill-opacity:1;fill-rule:nonzero;stroke:none;stroke-width:0.0352778" />
    <path
       id="path25"
       d="m 206.316,306.84665 c -1.88207,-0.30727 -3.76802,-0.59867 -5.63421,-1.02129 -5.9623,-1.3455 -11.60745,-3.54366 -17.21521,-5.89351 -0.64523,0.80539 -1.23542,1.65947 -1.77835,2.57034 1.61678,0.43145 3.2258,0.89429 4.8634,1.23225 3.29388,0.6798 6.58777,1.34479 9.87601,2.04047 2.92312,0.62053 5.85223,1.258 8.80992,1.69121 0.37218,0.0536 0.74754,0.1203 1.12148,0.18945 -0.0123,-0.27023 -0.0265,-0.54011 -0.043,-0.80892"
       style="fill:#e8f6e0;fill-opacity:1;fill-rule:nonzero;stroke:none;stroke-width:0.0352778" />
    <path
       id="path26"
       d="m 183.75586,299.26228 c 0.57679,-0.74472 1.19733,-1.45098 1.8789,-2.09833 -0.56127,0.19544 -1.36278,0.52882 -2.33328,0.96485 0.14852,0.37818 0.30128,0.75671 0.45438,1.13348"
       style="fill:#e8f6e0;fill-opacity:1;fill-rule:nonzero;stroke:none;stroke-width:0.0352778" />
    <path
       id="path27"
       d="m 180.35261,304.69999 c 0.33973,-0.6357 0.69215,-1.26753 1.05728,-1.89053 0.23742,-0.40781 0.48366,-0.81139 0.73307,-1.21179 -0.30903,-0.83327 -0.58385,-1.68558 -0.8449,-2.54106 -0.80539,0.38523 -1.67393,0.81174 -2.57987,1.26541 0.43145,1.46544 0.98531,2.94781 1.63442,4.37797"
       style="fill:#e8f6e0;fill-opacity:1;fill-rule:nonzero;stroke:none;stroke-width:0.0352778" />
    <path
       id="path28"
       d="m 176.36481,306.11216 c 0.28575,0.64488 0.62195,1.26506 0.9652,1.88243 0.77329,-0.45897 1.38078,-0.81457 1.68275,-0.99131 -0.20849,-0.50976 -0.40252,-1.02658 -0.58772,-1.53987 -0.51047,-1.42029 -1.0661,-2.80212 -1.52612,-4.21641 -0.68721,0.35596 -1.38818,0.72355 -2.09303,1.10067 0.49988,1.26365 1.00683,2.52201 1.55892,3.76449"
       style="fill:#e8f6e0;fill-opacity:1;fill-rule:nonzero;stroke:none;stroke-width:0.0352778" />
    <path
       id="path29"
       d="m 173.86397,308.18897 c 0.30904,0.44026 0.63641,0.86854 0.96344,1.2961 0.22472,-0.13476 0.44803,-0.26776 0.66534,-0.39828 -0.8629,-1.91277 -1.67393,-3.83364 -2.44722,-5.78521 -0.56445,0.30974 -1.12536,0.62336 -1.68099,0.93804 0.79305,1.34232 1.60373,2.67723 2.49943,3.94935"
       style="fill:#e8f6e0;fill-opacity:1;fill-rule:nonzero;stroke:none;stroke-width:0.0352778" />
    <path
       id="path30"
       d="m 169.34383,307.89404 c 0.75671,0.70238 1.5173,1.39595 2.29553,2.07469 0.32949,0.28504 0.6604,0.57009 0.99483,0.85513 0.10583,-0.0674 0.21202,-0.13299 0.3182,-0.19896 -1.15817,-1.76178 -2.20803,-3.58987 -3.27413,-5.41796 -0.69215,0.4064 -1.36137,0.80927 -2.00483,1.2065 0.59337,0.54927 1.22061,1.06433 1.6704,1.4806"
       style="fill:#e8f6e0;fill-opacity:1;fill-rule:nonzero;stroke:none;stroke-width:0.0352778" />
    <path
       id="path31"
       d="m 167.76691,310.60444 c 0.77329,0.29845 1.54976,0.58137 2.32481,0.8703 -0.81809,-0.77117 -1.6256,-1.55117 -2.40559,-2.34103 -0.54116,-0.54646 -1.15076,-1.07527 -1.72226,-1.63513 -0.92252,0.60572 -1.74414,1.18286 -2.42535,1.71521 1.38077,0.61912 3.05611,0.94121 4.22839,1.39065"
       style="fill:#e8f6e0;fill-opacity:1;fill-rule:nonzero;stroke:none;stroke-width:0.0352778" />
    <path
       id="path32"
       d="m 168.7561,313.63727 c 0.0176,-0.12559 0.0536,-0.22155 0.11113,-0.28399 0.0377,-0.042 0.0956,-0.0935 0.16545,-0.14993 -1.28199,-0.52317 -2.56716,-1.03752 -3.88902,-1.45979 -1.02835,-0.32844 -2.15018,-0.63783 -3.14431,-1.14477 -0.26811,0.30586 -0.44768,0.58103 -0.51223,0.8121 -0.0829,0.28504 -0.10443,0.65546 -0.0829,1.08937 2.45428,0.35702 4.89409,0.83891 7.35189,1.13701"
       style="fill:#e8f6e0;fill-opacity:1;fill-rule:nonzero;stroke:none;stroke-width:0.0352778" />
    <path
       id="path33"
       d="m 167.17566,316.4863 c 0.70661,-0.0575 1.41464,-0.11254 2.12513,-0.17004 -0.0829,-0.25329 -0.15875,-0.49883 -0.22472,-0.73272 -2.44898,-0.28822 -4.8835,-0.68933 -7.33601,-0.95285 0.1658,0.71649 0.38135,1.49895 0.63112,2.31246 1.60372,-0.0882 3.19511,-0.32562 4.80448,-0.45685"
       style="fill:#e8f6e0;fill-opacity:1;fill-rule:nonzero;stroke:none;stroke-width:0.0352778" />
    <path
       id="path34"
       d="m 170.07902,318.50278 c -0.0251,-0.0674 -0.0501,-0.133 -0.0751,-0.19967 -2.30153,0.33443 -4.62457,0.65898 -6.92221,0.81174 0.16898,0.48789 0.34713,0.97719 0.52493,1.46191 2.15371,-0.54046 4.34199,-1.27035 6.47242,-2.07398"
       style="fill:#e8f6e0;fill-opacity:1;fill-rule:nonzero;stroke:none;stroke-width:0.0352778" />
    <path
       id="path35"
       d="m 170.68156,322.18931 c 0.25153,-0.11677 0.50695,-0.23178 0.762,-0.34784 -0.19402,-0.45121 -0.40781,-0.95497 -0.62724,-1.48978 -2.11807,0.84878 -4.2358,1.70815 -6.40609,2.33574 0.30551,0.78105 0.60431,1.51906 0.88124,2.19145 1.81928,-0.84702 3.59763,-1.86125 5.39009,-2.68957"
       style="fill:#e8f6e0;fill-opacity:1;fill-rule:nonzero;stroke:none;stroke-width:0.0352778" />
    <path
       id="path36"
       d="m 166.18506,326.99696 c 0.33443,0.78035 0.54433,1.24778 0.54433,1.24778 l 5.5686,-4.46688 -0.0236,-0.0526 c -2.02248,1.11584 -4.01638,2.30223 -6.0893,3.27166"
       style="fill:#e8f6e0;fill-opacity:1;fill-rule:nonzero;stroke:none;stroke-width:0.0352778" />
    <path
       id="path37"
       d="m 194.82956,296.58434 -1.23014,4.59705 c 0,0 -0.38806,3.04306 2.59115,3.49532 0,0 1.74731,0.2607 2.6536,-1.48696 0.90593,-1.75013 2.07116,-4.79248 2.07116,-4.79248 l -6.08577,-1.81293"
       style="fill:#eabd92;fill-opacity:1;fill-rule:nonzero;stroke:none;stroke-width:0.0352778" />
    <path
       id="path38"
       d="m 196.43575,304.69047 c -0.0367,0 -0.0695,-7.1e-4 -0.0988,-0.002 -0.0928,-0.004 -0.14641,-0.012 -0.14641,-0.012 -0.48154,-0.073 -0.87489,-0.21378 -1.19627,-0.39829 -1.25589,-0.72143 -1.41111,-2.11278 -1.41146,-2.75554 0,-0.21096 0.0166,-0.34149 0.0166,-0.34149 l 1.23014,-4.59705 6.08577,1.81293 c 0,0 -0.67205,1.75401 -1.39206,3.36479 -0.22825,0.51047 -0.46109,1.00648 -0.6791,1.42769 -0.15381,0.29669 -0.33197,0.53552 -0.52176,0.72743 -0.67063,0.67945 -1.48661,0.77329 -1.88666,0.77329"
       style="fill:#e5ae80;fill-opacity:1;fill-rule:nonzero;stroke:none;stroke-width:0.0352778" />
    <path
       id="path39"
       d="m 169.23447,330.92444 c 0,0 -2.53365,0.88194 -0.75001,2.56399 1.78541,1.6838 3.76838,2.92311 3.70346,1.51094 -0.0628,-1.41217 -2.95345,-4.07493 -2.95345,-4.07493"
       style="fill:#f1cead;fill-opacity:1;fill-rule:nonzero;stroke:none;stroke-width:0.0352778" />
    <path
       id="path40"
       d="m 170.44238,328.05071 c 0,0 -2.67723,0.69003 -1.76918,2.80635 0.90629,2.11419 3.27589,3.99062 3.67277,3.23074 0.40146,-0.75777 -1.4037,-5.7972 -1.90359,-6.03709"
       style="fill:#f1cead;fill-opacity:1;fill-rule:nonzero;stroke:none;stroke-width:0.0352778" />
    <path
       id="path41"
       d="m 171.99566,326.06563 c 0,0 -1.98473,-0.60466 -2.0708,1.29434 -0.0868,1.90041 2.24331,6.51757 2.97885,5.26521 0.73343,-1.25236 -0.21555,-5.7397 -0.90805,-6.55955"
       style="fill:#f1cead;fill-opacity:1;fill-rule:nonzero;stroke:none;stroke-width:0.0352778" />
    <path
       id="path42"
       d="m 173.70028,324.54868 c 0,0 -0.79657,-1.17087 -1.61642,0 -0.82162,1.17087 -0.2159,5.7023 1.29469,6.47983 1.50989,0.77787 1.2887,-4.02555 0.32173,-6.47983"
       style="fill:#f1cead;fill-opacity:1;fill-rule:nonzero;stroke:none;stroke-width:0.0352778" />
    <path
       id="path43"
       d="m 171.72437,326.00742 c 0,0 -0.006,0.32808 0.0413,0.81527 0.0466,0.48613 0.12947,1.13347 0.30727,1.75895 0.0864,0.31327 0.18168,0.62406 0.30198,0.90346 0.11183,0.28152 0.23565,0.5387 0.35595,0.75001 0.11889,0.21378 0.22331,0.38911 0.30974,0.50341 0.0808,0.11854 0.12735,0.18592 0.12735,0.18592 0,0 -0.0522,-0.0632 -0.14393,-0.17357 -0.097,-0.10654 -0.22472,-0.2667 -0.35595,-0.47731 -0.072,-0.10054 -0.13265,-0.22119 -0.20109,-0.34501 -0.0723,-0.12242 -0.13688,-0.25718 -0.19614,-0.39935 -0.12594,-0.28222 -0.23037,-0.5976 -0.32032,-0.91405 -0.17251,-0.63711 -0.24413,-1.2954 -0.25683,-1.78999 -0.0127,-0.49248 0.0307,-0.81774 0.0307,-0.81774"
       style="fill:#b88459;fill-opacity:1;fill-rule:nonzero;stroke:none;stroke-width:0.0352778" />
    <path
       id="path44"
       d="m 170.00388,328.2077 c 0,0 0.0734,0.31044 0.22824,0.76235 0.0646,0.22825 0.17604,0.48542 0.27305,0.76553 0.0483,0.14075 0.11677,0.27904 0.17639,0.42333 0.0646,0.14182 0.1203,0.29281 0.19227,0.43109 0.15099,0.2787 0.27305,0.57468 0.43885,0.82162 0.079,0.12418 0.15628,0.24448 0.22825,0.36054 0.0773,0.11254 0.13123,0.23319 0.2159,0.3175 0.30021,0.37148 0.49777,0.61948 0.49777,0.61948 0,0 -0.22119,-0.23072 -0.55563,-0.57362 -0.0896,-0.084 -0.15098,-0.20073 -0.23353,-0.30938 -0.0811,-0.1143 -0.16193,-0.23284 -0.25012,-0.35631 -0.17075,-0.24871 -0.30022,-0.54292 -0.45861,-0.82338 -0.0699,-0.14252 -0.12207,-0.29528 -0.18662,-0.44133 -0.0575,-0.1471 -0.12207,-0.28751 -0.16934,-0.43039 -0.0935,-0.2861 -0.18309,-0.55103 -0.23706,-0.78563 -0.0632,-0.23107 -0.0988,-0.42898 -0.12418,-0.56621 -0.0286,-0.13653 -0.0356,-0.21519 -0.0356,-0.21519"
       style="fill:#b88459;fill-opacity:1;fill-rule:nonzero;stroke:none;stroke-width:0.0352778" />
    <path
       id="path45"
       d="m 168.81149,331.15621 c 0,0 0.15487,0.23495 0.40463,0.57468 0.25154,0.33972 0.59302,0.78458 0.98002,1.18921 0.18838,0.20602 0.39017,0.39899 0.58808,0.5708 0.20109,0.16827 0.39335,0.31644 0.56762,0.43356 0.18203,0.10407 0.32738,0.20285 0.44238,0.2473 0.11148,0.0529 0.17639,0.0825 0.17639,0.0825 0,0 -0.0667,-0.0226 -0.1852,-0.0621 -0.11854,-0.0349 -0.27905,-0.10866 -0.47132,-0.20497 -0.18309,-0.10971 -0.39546,-0.24165 -0.60219,-0.40992 -0.20496,-0.1711 -0.41522,-0.36336 -0.61136,-0.56903 -0.19015,-0.20955 -0.37571,-0.42722 -0.53411,-0.63818 -0.16157,-0.21061 -0.29457,-0.42086 -0.40957,-0.59796 -0.22472,-0.36124 -0.34537,-0.61595 -0.34537,-0.61595"
       style="fill:#b88459;fill-opacity:1;fill-rule:nonzero;stroke:none;stroke-width:0.0352778" />
    <path
       id="path46"
       d="m 233.76917,267.5539 c -3.79977,-6.90386 -11.13649,-12.34369 -22.18902,-13.46905 0,0 3.71299,-0.0847 5.87234,0.51858 0,0 -8.71961,-6.30061 -17.86996,-2.76225 0,0 -4.9209,-1.64042 -8.1153,0.17286 0,0 3.97157,-0.0847 4.83447,0.9525 0,0 -3.53095,-0.33161 -7.76852,1.46403 0,0 -7.07884,2.24719 -10.35967,6.477 h 2.07292 c 0,0 -3.88514,4.14514 -4.66408,9.32392 l 3.54013,-2.85045 c 0,0 -0.77647,3.62656 -0.34325,5.60917 l 1.55328,-1.98261 c 0,0 -0.34502,5.95489 1.20826,9.49325 0,0 -0.0141,0.12347 -0.0286,0.33161 0.0109,-0.0776 0.28575,-1.89795 1.23649,-4.43089 0.97331,-2.58939 1.9424,-5.89139 2.00695,-7.76817 0,0 3.17359,-2.71991 6.86435,-3.302 0,0 -3.10832,2.45886 -3.43252,3.17148 -0.16475,0.36336 1.70427,-0.16581 4.09963,-0.69145 2.30575,-0.508 5.0994,-1.01953 7.03686,-0.73025 0,0 -3.36727,1.87678 -2.78518,2.26483 0.5849,0.38806 10.74808,-0.13052 12.30171,-0.58208 0,0 -3.10691,1.87678 -2.45921,2.20133 0.64699,0.32103 9.06497,-1.10066 9.06497,-1.10066 0,0 1.55152,5.30578 2.26484,5.89139 0.71226,0.58208 1.35925,-3.95817 1.35925,-3.95817 0,0 4.79213,8.48783 5.6328,8.23031 0.84208,-0.25753 0.32456,-3.10798 0.32456,-3.10798 l 1.74942,2.58939 c 0,0 -2.80917,4.16631 -3.54083,8.84767 0,0 7.68245,0.0882 7.51029,-7.42245 0,0 0.77646,1.38289 0.69039,3.02331 -0.0861,1.63689 2.50472,-3.79942 1.2961,-7.85636 0,0 1.81187,2.84692 1.29399,6.04308 0,0 3.53871,-7.6835 -0.25788,-14.59089"
       style="fill:#f49517;fill-opacity:1;fill-rule:nonzero;stroke:none;stroke-width:0.0352778" />
    <path
       id="path47"
       d="m 185.2086,262.32926 c -0.37218,0.50448 -0.6925,1.03717 -0.98354,1.58398 -0.1457,0.27516 -0.27693,0.55738 -0.40252,0.83961 -0.12277,0.28222 -0.24624,0.56797 -0.34502,0.86077 -0.11218,0.28575 -0.19085,0.58562 -0.27905,0.88195 -0.0649,0.30339 -0.15981,0.59267 -0.20496,0.90311 -0.0667,0.29986 -0.10231,0.60678 -0.13476,0.9137 -0.0374,0.30691 -0.0307,0.61383 -0.0575,0.92427 l -0.10089,-0.0953 c 0.37783,-0.0212 0.76271,-0.0882 1.1363,-0.18344 0.18344,-0.0529 0.37041,-0.10583 0.54645,-0.18697 0.18556,-0.06 0.34537,-0.16934 0.52141,-0.26106 -0.15981,0.11289 -0.31257,0.24342 -0.49248,0.32103 -0.17251,0.0988 -0.35772,0.16933 -0.54116,0.24342 -0.37571,0.12347 -0.75848,0.21519 -1.15958,0.26105 l -0.10231,0.0106 0.001,-0.10583 c 0.004,-0.31397 -0.0123,-0.635 0.0236,-0.94544 0.025,-0.3175 0.0554,-0.63148 0.11677,-0.94192 0.0452,-0.31397 0.12594,-0.61736 0.20143,-0.92428 0.0991,-0.29986 0.1831,-0.60325 0.3041,-0.89958 0.10583,-0.29634 0.23883,-0.58209 0.3683,-0.86784 0.14393,-0.28222 0.29492,-0.55738 0.45685,-0.8255 0.32349,-0.53975 0.69708,-1.05127 1.12712,-1.50636"
       style="fill:#98561a;fill-opacity:1;fill-rule:nonzero;stroke:none;stroke-width:0.0352778" />
    <path
       id="path48"
       d="m 226.77711,279.50954 c 0,0 0.0868,0.13406 0.24377,0.36689 0.15452,0.22931 0.38665,0.56092 0.6918,0.91722 0.0794,0.0882 0.16263,0.17992 0.25788,0.25753 0.0847,0.0741 0.2226,0.14111 0.24236,0.0988 l 0.031,-0.0423 0.0353,-0.0988 c 0.0289,-0.067 0.0399,-0.13053 0.06,-0.19756 0.0335,-0.13053 0.0716,-0.27516 0.10055,-0.4198 0.11853,-0.57856 0.18732,-1.21003 0.20461,-1.8415 0.0166,-0.3175 0.0166,-0.635 0.007,-0.94545 -0.007,-0.31397 -0.0377,-0.61736 -0.0688,-0.91369 -0.0448,-0.29281 -0.0681,-0.57856 -0.12735,-0.84667 -0.0469,-0.26458 -0.10195,-0.51858 -0.1711,-0.74436 -0.0571,-0.23283 -0.12523,-0.44097 -0.18873,-0.62442 -0.055,-0.18697 -0.11501,-0.34572 -0.17427,-0.47272 -0.10619,-0.25753 -0.16475,-0.40569 -0.16475,-0.40569 0,0 0.0744,0.14111 0.21166,0.38805 0.0702,0.11995 0.14394,0.27517 0.21767,0.45509 0.0804,0.17991 0.17215,0.38452 0.23918,0.61736 0.0804,0.22577 0.15099,0.47977 0.21555,0.74789 0.0744,0.26811 0.11853,0.56091 0.16757,0.86077 0.0356,0.29986 0.0695,0.61031 0.0825,0.92781 0.018,0.3175 0.0254,0.64205 0.013,0.96308 -0.031,0.64559 -0.11218,1.29117 -0.24659,1.88384 -0.0325,0.14816 -0.067,0.2928 -0.11712,0.43391 -0.0254,0.0706 -0.0469,0.14817 -0.0759,0.21167 l -0.0448,0.0953 c -0.0247,0.0494 -0.0469,0.0811 -0.0949,0.11994 -0.10089,0.0741 -0.22331,0.0388 -0.2861,0.004 -0.0702,-0.0388 -0.12806,-0.0811 -0.17639,-0.13053 -0.10195,-0.0917 -0.18309,-0.1905 -0.26035,-0.28575 -0.29845,-0.38805 -0.48401,-0.74436 -0.62442,-0.98777 -0.13441,-0.24695 -0.20038,-0.39159 -0.20038,-0.39159"
       style="fill:#98561a;fill-opacity:1;fill-rule:nonzero;stroke:none;stroke-width:0.0352778" />
    <path
       id="path49"
       d="m 195.73549,439.15279 1.68487,-2.80741 0.90417,1.07985 c 0,0 1.05692,-1.08338 2.07468,-2.413 l -0.81985,-12.65202 c 0,0 -1.51342,-0.81809 -2.76331,0.69039 0,0 0.0416,-1.42135 -1.94381,-1.38007 -1.98473,0.0437 -4.83446,0.46037 -4.55401,2.15159 0,0 -0.45332,-0.33831 -0.66886,-0.20884 -0.21555,0.12947 1.03787,5.13785 1.03787,5.13785 0,0 -1.3402,2.1583 -4.83658,3.27837 -3.24909,1.04351 -5.64022,2.05316 -5.47476,7.8426 1.68098,0.65123 7.06049,2.17593 15.35959,-0.71931"
       style="fill:#713916;fill-opacity:1;fill-rule:nonzero;stroke:none;stroke-width:0.0352778" />
    <path
       id="path50"
       d="m 198.32453,437.42523 -0.90417,-1.07985 -1.68487,2.80741 c -8.2991,2.89524 -13.67861,1.37054 -15.35959,0.71931 0.0123,0.4385 0.0377,0.90029 0.0811,1.39418 0,0 9.22831,2.37419 16.30292,-1.80622 0.43356,-0.81245 0.6604,-1.69087 0.6604,-1.69087 l 0.56268,0.87665 c 0.89182,-0.65369 1.73461,-1.42204 2.5026,-2.34279 l -0.0864,-1.29082 c -1.01776,1.32962 -2.07468,2.413 -2.07468,2.413"
       style="fill:#361e13;fill-opacity:1;fill-rule:nonzero;stroke:none;stroke-width:0.0352778" />
    <path
       id="path51"
       d="m 220.12267,437.68523 c -1.72685,-0.77893 -2.15759,-3.32493 -2.15759,-3.32493 0,0 -0.95144,1.16593 -1.51024,1.51236 -0.34925,0.21272 -1.68311,-0.85549 -2.6416,-1.69722 0.097,0.43851 0.19967,0.8629 0.30938,1.26401 0,0 2.11667,1.46685 2.84974,1.68345 l 0.51823,-0.86219 0.51717,1.46756 c 0,0 5.74111,4.05659 15.84149,3.71122 0,0 0.13018,-0.57397 0.21978,-1.44357 -3.06881,1.92053 -12.39132,-1.61184 -13.94636,-2.31069"
       style="fill:#361e13;fill-opacity:1;fill-rule:nonzero;stroke:none;stroke-width:0.0352778" />
    <path
       id="path52"
       d="m 231.94884,432.59041 c -3.32176,-2.63207 -8.19997,-5.69736 -8.45926,-6.77651 -0.26035,-1.07844 -0.23672,-4.14337 -0.23672,-4.14337 0,0 -0.88476,-0.73343 -1.27352,-0.64664 0,0 0.56091,-1.03682 -1.9865,-1.25166 -2.54564,-0.21766 -4.61715,1.8983 -4.61715,1.8983 0,0 -1.38254,-1.16523 -3.0219,0.25929 0,0 0.33091,7.16809 1.45945,12.24562 0.95849,0.84173 2.29235,1.90994 2.6416,1.69722 0.5588,-0.34643 1.51024,-1.51236 1.51024,-1.51236 0,0 0.43074,2.546 2.15759,3.32493 1.55504,0.69885 10.87755,4.23122 13.94636,2.31069 0.20673,-1.99989 0.19544,-5.57 -2.12019,-7.40551"
       style="fill:#713916;fill-opacity:1;fill-rule:nonzero;stroke:none;stroke-width:0.0352778" />
    <path
       id="path53"
       d="m 193.82414,429.09086 c -0.29492,0.11148 -0.56833,0.23742 -0.83573,0.37112 -0.26106,-0.10231 -0.53058,-0.18874 -0.81986,-0.25329 -0.10054,-0.0226 -0.27728,-0.0621 -0.46602,-0.0952 0.44592,-0.20673 0.94051,-0.57574 1.14865,-0.67875 0.1658,-0.0811 0.33478,-0.15275 0.50553,-0.21943 0.53446,0.0709 1.29822,0.18803 1.97273,0.39123 -0.52387,0.11395 -1.04845,0.31715 -1.5053,0.48437 z m -1.88595,-1.62102 c 0.58773,-0.26317 1.37548,-0.76658 1.66476,-0.90417 0.10618,-0.0494 0.2159,-0.0928 0.32526,-0.13582 0.54857,0.133 1.05234,0.35949 1.55892,0.58068 -0.69885,0.072 -1.36419,0.28398 -2.06022,0.52705 -0.49248,-0.0632 -0.99589,-0.0893 -1.48872,-0.0677 z m 4.67995,1.06186 c 0.21237,-0.0533 -0.66322,-0.34783 -0.8128,-0.40534 -0.35772,-0.14217 -0.72637,-0.25364 -1.09855,-0.34642 0.46567,-0.13053 0.92781,-0.26141 1.38465,-0.41064 0.10654,-0.005 0.20885,-0.006 0.31292,0 0.12559,0.006 0.25223,-0.0797 0.30409,-0.19332 l 0.0215,-0.0476 c 0.0642,-0.14216 0.0448,-0.26881 -0.0579,-0.38205 -0.30763,-0.34079 -0.80928,-0.57009 -1.34268,-0.73343 0.50659,-0.13758 1.00119,-0.28857 1.4344,-0.5394 0.13829,-0.0811 0.24447,-0.32279 0.0466,-0.4064 -0.75706,-0.32208 -1.94698,0.22014 -2.82822,0.63183 -0.0804,-0.0134 -0.16157,-0.0303 -0.23565,-0.043 -0.45791,-0.0871 -1.82845,-0.25612 -2.38548,0.1143 l -0.0808,0.0258 c -0.0579,0.005 -0.10936,0.0261 -0.15628,0.0794 l -0.0254,0.0138 c -0.0413,0.0286 -0.0557,0.0762 -0.0536,0.11994 v 0.003 c 0.001,0.061 0.0377,0.11607 0.11641,0.10301 l 0.0215,-0.003 0.0236,-0.0138 0.005,-0.004 c 0.48013,0.12312 0.99307,0.15275 1.50213,0.18485 -0.67452,0.33161 -1.45521,0.8128 -1.60761,1.3836 -0.0201,0.0748 0.0342,0.11042 0.0914,0.10618 0.30585,0.14746 0.64382,0.23636 0.98883,0.29281 -0.53975,0.28046 -1.0675,0.63112 -1.21884,0.99201 -0.018,0.0466 -0.0236,0.11112 0.0229,0.14534 0.0547,0.0395 0.121,0.0557 0.1979,0.0565 0.32209,0.22154 0.65864,0.41028 1.0033,0.58384 -0.81385,0.41769 -1.56598,0.94827 -2.1089,1.53917 -0.22296,0.24342 0.0631,0.55351 0.32949,0.3676 0.84279,-0.58985 1.71133,-1.05657 2.60491,-1.49155 0.14394,0.0737 0.28928,0.14747 0.43216,0.22825 0.64664,0.37007 1.23437,1.21603 1.9752,1.32221 0.15946,0.0236 0.31468,-0.18133 0.26599,-0.32773 -0.23353,-0.72037 -1.20967,-1.27705 -1.84291,-1.61537 l -0.005,-0.004 0.0289,-0.0141 c 0.89006,-0.24624 1.83162,-0.34678 2.66241,-0.70274 0.15699,0.008 0.30586,-0.13335 0.35278,-0.28716 l 0.005,-0.0226 c 0.0497,-0.16757 -0.0952,-0.34502 -0.2734,-0.29987"
       style="fill:#46bcc9;fill-opacity:1;fill-rule:nonzero;stroke:none;stroke-width:0.0352778" />
    <path
       id="path54"
       d="m 220.23697,427.46737 c 0.35136,-0.3175 0.84384,-0.70061 0.98178,-0.83608 0.18203,-0.17815 0.381,-0.33267 0.58208,-0.48013 0.0723,0.007 0.14605,0.0152 0.21731,0.0222 0.23813,0.0282 0.51717,0.0526 0.80116,0.0836 0.21696,0.0617 0.41346,0.14746 0.5775,0.26212 -0.20673,0.31256 -0.39406,0.63888 -0.56656,0.97437 -0.23354,-0.0243 -0.47308,-0.0377 -0.7232,-0.0314 -0.4385,0.0123 -1.23472,-0.0748 -1.87007,0.005 z m -1.08938,-2.00695 c 0.16192,-0.23883 0.36301,-0.44556 0.58632,-0.63359 0.23071,-0.16157 0.46919,-0.30974 0.68156,-0.44203 0.69039,0.18133 1.37372,0.4385 2.06975,0.54645 -0.32738,0.13441 -0.65652,0.32632 -0.98002,0.5648 -0.80609,-0.10901 -1.56809,-0.18909 -2.35761,-0.0356 z m 6.17079,2.68993 -0.0593,-0.0603 0.004,-0.004 -0.0145,-0.008 c -0.19791,-0.20567 -0.48507,-0.31821 -0.77435,-0.34467 l -0.0614,-0.004 c -0.21096,-0.054 -0.42439,-0.0984 -0.63676,-0.13017 -0.0667,-0.01 -0.13159,-0.0198 -0.19579,-0.0307 0.23707,-0.43427 0.42404,-0.90381 0.34466,-1.3081 l -0.001,-0.007 c 0,-0.0667 -0.0247,-0.133 -0.0875,-0.18133 -0.3563,-0.27658 -0.79375,-0.38488 -1.24107,-0.43462 l -0.061,-0.009 c 0.16051,-0.11677 0.31821,-0.24095 0.46919,-0.37253 0.0991,-0.0152 0.21414,-0.009 0.2981,-0.0762 0.15981,-0.12418 0.11854,-0.32915 -0.0123,-0.45121 -0.0772,-0.073 -0.15098,-0.13229 -0.24094,-0.18415 -0.381,-0.41134 -0.9585,-0.61454 -1.53318,-0.76341 0.48931,-0.21872 0.99202,-0.43215 1.34303,-0.76658 0.0847,-0.0819 0.1651,-0.2025 0.11959,-0.32738 -0.17004,-0.49707 -0.6484,-0.27235 -1.08726,0.06 -0.46567,0.14499 -0.92745,0.48577 -1.31939,0.79551 -0.68333,-0.18944 -2.28529,-0.65899 -2.81199,-0.0723 -0.0991,0.11042 -0.11712,0.27411 -0.0473,0.40252 0.10654,0.19156 0.30021,0.17251 0.49671,0.1905 0.50906,0.0441 1.0033,0.0917 1.5046,0.17498 -0.0434,0.037 -0.0847,0.0765 -0.12595,0.11395 l -0.0536,0.0381 c -0.52317,0.375 -1.1183,0.85901 -1.27282,1.51518 -0.0275,0.11042 0.0159,0.24518 0.13441,0.28716 0.16757,0.0593 0.23777,0.055 0.41557,0.0321 0.64206,-0.0892 1.24778,-0.12629 1.89265,-0.12417 l 0.096,-0.002 c -0.59902,0.57362 -1.11302,1.22625 -1.4224,1.76459 -0.0903,0.15558 -0.002,0.3302 0.16545,0.35948 0.87595,0.1577 1.8355,0.002 2.71815,-0.0332 0.0614,-0.004 0.1263,0 0.18874,0 -0.0247,0.0423 -0.0494,0.0829 -0.0737,0.12594 l -0.0212,0.019 c -0.20672,0.19333 -0.40675,0.3863 -0.59125,0.60043 -0.26811,0.30762 -0.80398,0.92992 -0.64135,1.37442 0.0349,0.097 0.10195,0.15911 0.20778,0.16934 0.40111,0.0427 0.61807,-0.42122 0.79869,-0.69991 0.18803,-0.29104 0.40041,-0.57679 0.5962,-0.87172 0.10654,-0.15099 0.2032,-0.29845 0.29563,-0.4385 0.0427,-0.0667 0.0928,-0.14217 0.14393,-0.21766 0.56691,0.0593 1.13947,0.11112 1.61784,0.42756 0.29809,0.19791 0.76729,-0.22507 0.53728,-0.52846"
       style="fill:#46bcc9;fill-opacity:1;fill-rule:nonzero;stroke:none;stroke-width:0.0352778" />
    <path
       id="path55"
       d="m 235.34926,272.3164 c -7.24711,-1.04775 -13.66555,-2.286 -19.30788,-3.60186 0,0 0,0 0,0 0,0 -3.5e-4,0 -7.1e-4,0 -19.46522,-4.54025 -29.6926,-10.01536 -32.82597,-11.89919 0.33408,-0.1905 0.66534,-0.37042 0.98919,-0.53623 5.02426,2.75167 15.05373,7.26017 26.8605,10.15295 10.41788,2.55058 19.04471,4.47675 24.15364,5.12586 0.0505,0.254 0.0942,0.50447 0.13123,0.75847"
       style="fill:#f07617;fill-opacity:1;fill-rule:nonzero;stroke:none;stroke-width:0.0352778" />
    <path
       id="path56"
       d="m 207.95607,233.97298 c 0,0 -5.17984,0.25753 -7.76923,4.22981 -2.58904,3.97228 -7.59636,11.74045 -7.59636,11.74045 0,0 -11.39473,3.36902 -11.82617,3.97227 -0.4318,0.60325 13.03478,8.28675 30.30008,12.51656 17.26354,4.22981 29.60899,6.731 29.17861,4.57553 -0.43322,-2.159 -4.71735,-6.90739 -4.71735,-6.90739 0,0 -0.37641,-17.69534 -1.4986,-20.20006 -1.12183,-2.50119 -5.00662,-4.31447 -10.61791,-5.00592 -5.61128,-0.69144 -10.0143,-3.19616 -11.65613,-3.97227 -1.63794,-0.77611 -2.09444,-1.22414 -3.79694,-0.94898"
       style="fill:#713916;fill-opacity:1;fill-rule:nonzero;stroke:none;stroke-width:0.0352778" />
    <path
       id="path57"
       d="m 240.22536,271.27218 c 0.0318,-0.0811 0.0388,-0.16933 0.0176,-0.26458 0.0212,0.0952 0.0141,0.18344 -0.0176,0.26458 m -17.03811,-32.40617 c -0.36513,-0.0494 -0.72496,-0.1023 -1.07915,-0.1658 -0.002,-0.004 -0.005,-0.004 -0.007,-0.007 0.35807,0.0635 0.71896,0.12347 1.08585,0.17286"
       style="fill:#dfd1c2;fill-opacity:1;fill-rule:nonzero;stroke:none;stroke-width:0.0352778" />
    <path
       id="path58"
       d="m 238.27132,271.79782 c -1.99214,0 -5.40385,-0.51858 -9.85838,-1.40758 -1.14194,-2.74109 -2.50119,-6.12775 -2.78518,-7.39775 -0.52352,-2.34598 0.11501,-18.64431 -0.54363,-20.71864 -0.41592,-1.30175 -1.8669,-2.67053 -2.97603,-3.57364 0.35419,0.0635 0.71402,0.11641 1.07915,0.1658 0.0737,0.0106 0.14781,0.0176 0.22189,0.0282 5.61129,0.69145 9.49608,2.50473 10.61791,5.00592 1.12219,2.50472 1.4986,20.20006 1.4986,20.20006 0,0 4.28413,4.74839 4.71735,6.90739 v 0 c 0.0212,0.0952 0.0141,0.18344 -0.0176,0.26458 -0.14817,0.35631 -0.82127,0.52564 -1.95404,0.52564"
       style="fill:#633014;fill-opacity:1;fill-rule:nonzero;stroke:none;stroke-width:0.0352778" />
    <path
       id="path59"
       d="m 223.47194,242.73598 c 0,0 -0.20673,-0.0529 -0.56092,-0.16933 -0.35419,-0.12347 -0.86466,-0.28928 -1.45591,-0.53975 -0.58985,-0.254 -1.28376,-0.54328 -1.99602,-0.91722 -0.71931,-0.35983 -1.46015,-0.79375 -2.18828,-1.25236 -0.35207,-0.24342 -0.71755,-0.47272 -1.05516,-0.72672 -0.34008,-0.254 -0.67804,-0.49742 -0.98319,-0.762 -0.30797,-0.26106 -0.61101,-0.50448 -0.8703,-0.76906 -0.26317,-0.26106 -0.52352,-0.49389 -0.73766,-0.73378 -0.44168,-0.47272 -0.77541,-0.89253 -0.99025,-1.19944 -0.22331,-0.30339 -0.34184,-0.47978 -0.34184,-0.47978 0,0 0.15311,0.15169 0.41769,0.41275 0.13229,0.13053 0.28187,0.29986 0.47484,0.47272 0.19332,0.17286 0.41134,0.36689 0.64064,0.58561 0.23072,0.2152 0.50765,0.42334 0.78599,0.65617 0.27164,0.23636 0.59337,0.44803 0.90276,0.6985 0.30586,0.24694 0.65793,0.46214 0.98884,0.71261 0.33619,0.24342 0.6992,0.46214 1.04986,0.6985 0.35772,0.22578 0.71544,0.44803 1.06821,0.67028 0.36301,0.20461 0.70485,0.43039 1.05552,0.61736 0.68826,0.39511 1.33526,0.762 1.90041,1.05128 0.56762,0.2928 1.0354,0.55033 1.36948,0.70908 0.33514,0.16933 0.52529,0.26458 0.52529,0.26458"
       style="fill:#542b14;fill-opacity:1;fill-rule:nonzero;stroke:none;stroke-width:0.0352778" />
    <path
       id="path60"
       d="m 236.09891,261.05926 v 3.2385 c 0,0 -11.10368,0 -24.47325,-3.95111 -12.16836,-3.59833 -21.76075,-9.58144 -21.76075,-9.58144 l 3.2438,-2.78342 c 0,0 15.32184,11.11603 42.9902,13.07747"
       style="fill:#944c1e;fill-opacity:1;fill-rule:nonzero;stroke:none;stroke-width:0.0352778" />
    <path
       id="path61"
       d="m 224.98006,259.7046 c 0.0187,1.19944 0.004,2.39889 0.0385,3.5948 6.64104,0.99836 11.08039,0.99836 11.08039,0.99836 v -3.2385 c -3.96486,-0.28222 -7.66833,-0.75494 -11.11885,-1.35466"
       style="fill:#713916;fill-opacity:1;fill-rule:nonzero;stroke:none;stroke-width:0.0352778" />
    <path
       id="path62"
       d="m 189.61762,268.41821 c 0.71437,-0.15522 1.64359,-0.381 2.66947,-0.60678 1.84361,-0.40922 3.99909,-0.81492 5.77956,-0.81492 0.42545,0 0.82938,0.0247 1.20226,0.0776 -3.5e-4,0 -3.5e-4,0 -7e-4,0 -0.37324,-0.0529 -0.77647,-0.0741 -1.20156,-0.0741 -1.77977,0 -3.93454,0.4057 -5.77674,0.81139 -1.02729,0.22578 -1.95756,0.45156 -2.67229,0.60678"
       style="fill:#f4bc51;fill-opacity:1;fill-rule:nonzero;stroke:none;stroke-width:0.0352778" />
    <path
       id="path63"
       d="m 188.3829,268.62282 c -0.0656,0 -0.11642,-0.007 -0.15029,-0.0212 l -0.0452,-0.0988 c 0,0 4.19805,-2.87514 10.36884,-2.87514 0.91758,0 1.8789,0.0635 2.87655,0.21166 0,0 -0.96696,0.55034 -2.16394,1.23472 -0.37288,-0.0529 -0.77681,-0.0776 -1.20226,-0.0776 -1.78047,0 -3.93595,0.4057 -5.77956,0.81492 -1.02588,0.22578 -1.9551,0.45156 -2.66947,0.60678 -0.56727,0.12347 -0.99907,0.20461 -1.23472,0.20461"
       style="fill:#f07018;fill-opacity:1;fill-rule:nonzero;stroke:none;stroke-width:0.0352778" />
    <path
       id="path64"
       d="m 206.80636,271.01113 c -0.21131,0 -0.35877,-0.0141 -0.42509,-0.0459 v 0 c 0.066,0.0317 0.21307,0.0459 0.42368,0.0459 0.83256,0 2.65924,-0.23284 4.41995,-0.48684 -1.7593,0.254 -3.58563,0.48684 -4.41854,0.48684"
       style="fill:#f4bc51;fill-opacity:1;fill-rule:nonzero;stroke:none;stroke-width:0.0352778" />
    <path
       id="path65"
       d="m 206.80495,271.01113 c -0.21061,0 -0.35771,-0.0141 -0.42368,-0.0459 0,0 7.88529,-0.98777 9.6594,-2.25072 h 7.1e-4 c -0.006,0.0176 -0.15275,0.47625 -0.65511,1.16064 -0.33373,0.0529 -2.20627,0.36689 -4.16137,0.64911 -1.76071,0.254 -3.58739,0.48684 -4.41995,0.48684"
       style="fill:#f07018;fill-opacity:1;fill-rule:nonzero;stroke:none;stroke-width:0.0352778" />
    <path
       id="path66"
       d="m 216.04138,268.71454 h -7.1e-4 c 3.6e-4,0 7.1e-4,0 7.1e-4,0 0,0 0,0 0,0"
       style="fill:#eb5a1b;fill-opacity:1;fill-rule:nonzero;stroke:none;stroke-width:0.0352778" />
    <path
       id="path67"
       d="m 198.44659,269.4836 c -1.03646,0 -1.76354,-0.0423 -1.90782,-0.13759 v 0 c 0.14428,0.0953 0.87241,0.13759 1.90923,0.13759 0.36442,0 0.76658,-0.007 1.19521,-0.0141 -0.42898,0.007 -0.83185,0.0141 -1.19662,0.0141 m 1.20438,-0.0141 c 0.001,0 0.003,0 0.005,0 -0.001,0 -0.003,0 -0.005,0"
       style="fill:#f4bc51;fill-opacity:1;fill-rule:nonzero;stroke:none;stroke-width:0.0352778" />
    <path
       id="path68"
       d="m 198.448,269.4836 c -1.03682,0 -1.76495,-0.0423 -1.90923,-0.13759 0,0 9.75077,-0.73025 13.70047,-1.63688 0,0 -0.67627,0.49741 -1.64535,1.11125 -1.40088,0.28575 -5.84941,0.57855 -8.93833,0.64911 -0.002,0 -0.003,0 -0.005,0 -0.003,0 -0.005,0 -0.008,0 -0.42863,0.007 -0.83079,0.0141 -1.19521,0.0141"
       style="fill:#f07018;fill-opacity:1;fill-rule:nonzero;stroke:none;stroke-width:0.0352778" />
    <path
       id="path69"
       d="m 180.24643,271.11696 v 0 l 0.0861,-0.10936 v 0 l -0.0861,0.10936 m 4.5092,-2.48356 c 0.002,-0.004 0.0533,-0.0459 0.14746,-0.11994 3.6e-4,0 0.001,0 0.001,-0.004 h -3.6e-4 c 0.65864,-0.52564 3.42371,-2.61761 6.59483,-3.16089 -0.006,0.004 -0.0116,0.007 -0.0176,0.0106 -3.61809,0.62442 -6.7056,3.25614 -6.72571,3.27378"
       style="fill:#f4bc51;fill-opacity:1;fill-rule:nonzero;stroke:none;stroke-width:0.0352778" />
    <path
       id="path70"
       d="m 181.51219,280.83246 c 0.0145,-0.20814 0.0286,-0.33161 0.0286,-0.33161 v 0 0 c -1.07527,-2.44828 -1.24072,-6.0572 -1.24072,-8.04686 0,-0.88195 0.0325,-1.44639 0.0325,-1.44639 v 0 0 l -0.0861,0.10936 c 0.77999,-2.9845 2.23978,-6.3747 4.96217,-8.7877 -0.43004,0.45509 -0.80363,0.96661 -1.12712,1.50636 -0.16193,0.26812 -0.31292,0.54328 -0.45685,0.8255 -0.12947,0.28575 -0.26247,0.5715 -0.3683,0.86784 -0.121,0.29633 -0.20497,0.59972 -0.3041,0.89958 -0.0755,0.30692 -0.15628,0.61031 -0.20143,0.92428 -0.0614,0.31044 -0.0917,0.62442 -0.11677,0.94192 -0.036,0.31044 -0.0198,0.63147 -0.0236,0.94544 l -0.001,0.10583 0.10231,-0.0106 c 0.4011,-0.0459 0.78387,-0.13758 1.15958,-0.26105 0.18344,-0.0741 0.36865,-0.14464 0.54116,-0.24342 0.17921,-0.0776 0.33161,-0.20814 0.49106,-0.3175 -0.0942,0.0741 -0.14499,0.11642 -0.14746,0.11994 v 0 0 c -0.0645,1.87678 -1.03364,5.17878 -2.00695,7.76817 -0.95074,2.53294 -1.22555,4.35328 -1.23649,4.43089 m 1.29682,-11.69811 c 0.0183,-0.27517 0.0166,-0.55034 0.0497,-0.82197 0.0325,-0.30692 0.0681,-0.61384 0.13476,-0.9137 0.0452,-0.31044 0.14005,-0.59972 0.20496,-0.90311 0.0882,-0.29633 0.16687,-0.5962 0.27905,-0.88195 0.0988,-0.2928 0.22225,-0.57855 0.34502,-0.86077 0.12559,-0.28223 0.25682,-0.56445 0.40252,-0.83961 0.29104,-0.54681 0.61136,-1.0795 0.98354,-1.58398 v 0 c 0,0 -1.60196,3.1115 -1.29999,4.47323 0.0466,0.20813 0.15593,0.29986 0.34043,0.29986 1.01424,0 4.2979,-2.71992 11.89638,-3.21381 0,0 -2.22568,0.37395 -4.64644,1.4605 -3.17112,0.54328 -5.93619,2.63525 -6.59483,3.16089 -0.17603,0.0917 -0.33584,0.20108 -0.52105,0.26106 -0.17604,0.0811 -0.36301,0.13405 -0.54645,0.18697 -0.33796,0.0882 -0.68474,0.14817 -1.02764,0.17639"
       style="fill:#f07018;fill-opacity:1;fill-rule:nonzero;stroke:none;stroke-width:0.0352778" />
    <path
       id="path71"
       d="m 182.60898,269.34601 0.001,-0.10583 c 0.004,-0.31397 -0.0123,-0.635 0.0236,-0.94544 0.025,-0.3175 0.0554,-0.63148 0.11677,-0.94192 0.0452,-0.31397 0.12594,-0.61736 0.20143,-0.92428 0.0991,-0.29986 0.1831,-0.60325 0.3041,-0.89958 0.10583,-0.29634 0.23883,-0.58209 0.3683,-0.86784 0.14393,-0.28222 0.29492,-0.55738 0.45685,-0.8255 0.32349,-0.53975 0.69708,-1.05127 1.12712,-1.50636 v 0 c -0.37218,0.50448 -0.6925,1.03717 -0.98354,1.58398 -0.1457,0.27516 -0.27693,0.55738 -0.40252,0.83961 -0.12277,0.28222 -0.24624,0.56797 -0.34502,0.86077 -0.11218,0.28575 -0.19085,0.58562 -0.27905,0.88195 -0.0649,0.30339 -0.15981,0.59267 -0.20496,0.90311 -0.0667,0.29986 -0.10231,0.60678 -0.13476,0.9137 -0.0332,0.27163 -0.0314,0.5468 -0.0497,0.82197 0.3429,-0.0282 0.68968,-0.0882 1.02764,-0.17639 0.18344,-0.0529 0.37041,-0.10583 0.54645,-0.18697 0.18521,-0.06 0.34502,-0.16934 0.52105,-0.26106 h 3.6e-4 c -3.6e-4,0.004 -0.001,0.004 -0.001,0.004 -0.15945,0.10936 -0.31185,0.23989 -0.49106,0.3175 -0.17251,0.0988 -0.35772,0.16933 -0.54116,0.24342 -0.37571,0.12347 -0.75848,0.21519 -1.15958,0.26105 l -0.10231,0.0106"
       style="fill:#96431c;fill-opacity:1;fill-rule:nonzero;stroke:none;stroke-width:0.0352778" />
    <path
       id="path72"
       d="m 188.18534,268.5064 v 0 0 m 0.001,0 c 0,0 0,0 0,-0.004 0,0.004 0,0.004 0,0.004"
       style="fill:#f4bc51;fill-opacity:1;fill-rule:nonzero;stroke:none;stroke-width:0.0352778" />
    <path
       id="path73"
       d="m 188.23261,268.60165 c -0.0473,-0.0176 -0.0667,-0.0459 -0.0473,-0.0953 v 0 c 3.5e-4,0 7.1e-4,0 0.001,0 0,0 0,0 0,-0.004 3.5e-4,0 7e-4,0 0.001,0 l 0.0452,0.0988"
       style="fill:#f07018;fill-opacity:1;fill-rule:nonzero;stroke:none;stroke-width:0.0352778" />
    <path
       id="path74"
       d="m 226.90235,271.97774 c -0.0977,-0.13406 -0.15275,-0.20461 -0.14958,-0.20461 0.001,0 0.009,0.007 0.0243,0.0247 0.037,0.0423 0.0825,0.10583 0.12524,0.17992"
       style="fill:#f07018;fill-opacity:1;fill-rule:nonzero;stroke:none;stroke-width:0.0352778" />
    <path
       id="path75"
       d="m 219.21991,272.0624 c -0.0942,-0.1658 -0.14852,-0.26458 -0.14958,-0.26458 10e-4,0 0.0543,0.0953 0.14923,0.26106 0,0 3.5e-4,0 3.5e-4,0.004"
       style="fill:#f4bc51;fill-opacity:1;fill-rule:nonzero;stroke:none;stroke-width:0.0352778" />
    <path
       id="path76"
       d="m 217.83914,275.80538 c -0.0423,0 -0.0854,-0.0141 -0.12806,-0.0494 0,0 1.38606,-3.33728 0.97684,-5.46453 0,0 0.21555,0.71967 0.53164,1.76742 -0.0949,-0.16581 -0.14817,-0.26106 -0.14923,-0.26106 v 0 0 c 0,0 -0.57115,4.00756 -1.23119,4.00756"
       style="fill:#f07018;fill-opacity:1;fill-rule:nonzero;stroke:none;stroke-width:0.0352778" />
    <path
       id="path77"
       d="m 223.24651,288.36074 c -0.007,0 -0.0102,-0.004 -0.0102,-0.004 v 0 c 0.73166,-4.68136 3.54083,-8.84767 3.54083,-8.84767 v 0 c 0,0 0.066,0.14464 0.20038,0.39159 0.14041,0.24341 0.32597,0.59972 0.62442,0.98777 0.0773,0.0953 0.1584,0.19403 0.26035,0.28575 0.0483,0.0494 0.10618,0.0917 0.17639,0.13053 0.0356,0.0176 0.0907,0.0388 0.14993,0.0388 0.0452,0 0.0924,-0.0106 0.13617,-0.0423 0.048,-0.0388 0.0702,-0.0705 0.0949,-0.11994 l 0.0448,-0.0953 c 0.0289,-0.0635 0.0505,-0.14111 0.0759,-0.21167 0.0501,-0.14111 0.0847,-0.28575 0.11712,-0.43391 0.13441,-0.59267 0.21555,-1.23825 0.24659,-1.88384 0.0123,-0.32103 0.005,-0.64558 -0.013,-0.96308 -0.013,-0.3175 -0.0469,-0.62795 -0.0825,-0.92781 -0.049,-0.29986 -0.0931,-0.59266 -0.16757,-0.86077 -0.0646,-0.26812 -0.13511,-0.52212 -0.21555,-0.74789 -0.067,-0.23284 -0.15875,-0.43745 -0.23918,-0.61736 -0.0737,-0.17992 -0.14746,-0.33514 -0.21767,-0.45509 -0.13723,-0.24694 -0.21166,-0.38805 -0.21166,-0.38805 0,0 0.0586,0.14816 0.16475,0.40569 0.0593,0.127 0.11923,0.28575 0.17427,0.47272 0.0635,0.18345 0.13158,0.39159 0.18873,0.62442 0.0692,0.22578 0.12418,0.47978 0.1711,0.74436 0.0593,0.26811 0.0825,0.55386 0.12735,0.84667 0.0311,0.29633 0.0614,0.59972 0.0688,0.91369 0.009,0.31045 0.009,0.62795 -0.007,0.94545 -0.0173,0.63147 -0.0861,1.26294 -0.20461,1.8415 -0.0289,0.14464 -0.067,0.28927 -0.10055,0.4198 -0.0201,0.067 -0.031,0.13053 -0.06,0.19756 l -0.0353,0.0988 -0.031,0.0423 c -0.004,0.007 -0.0145,0.0141 -0.0282,0.0141 -0.0494,0 -0.14817,-0.0564 -0.21414,-0.11289 -0.0952,-0.0776 -0.1785,-0.16933 -0.25788,-0.25753 -0.30515,-0.3563 -0.53728,-0.68791 -0.6918,-0.91722 -0.15698,-0.23283 -0.24377,-0.36689 -0.24377,-0.36689 0,0 0.34008,0.33514 0.69215,0.33514 0.36619,0 0.74542,-0.36336 0.76906,-1.8415 0.043,-2.67053 -0.82056,-5.21758 -1.33597,-6.02544 0.84349,1.13594 4.80801,6.91444 2.42217,13.71953 -2.1149,2.62113 -5.85823,2.66347 -6.07801,2.66347"
       style="fill:#f07018;fill-opacity:1;fill-rule:nonzero;stroke:none;stroke-width:0.0352778" />
    <path
       id="path78"
       d="m 228.18858,281.34399 c -0.0593,0 -0.1143,-0.0212 -0.14993,-0.0388 -0.0702,-0.0388 -0.12806,-0.0811 -0.17639,-0.13053 -0.10195,-0.0917 -0.18309,-0.1905 -0.26035,-0.28575 -0.29845,-0.38805 -0.48401,-0.74436 -0.62442,-0.98777 -0.13441,-0.24695 -0.20038,-0.39159 -0.20038,-0.39159 v 0 c 0,0 0.0868,0.13406 0.24377,0.36689 0.15452,0.22931 0.38665,0.56092 0.6918,0.91722 0.0794,0.0882 0.16263,0.17992 0.25788,0.25753 0.066,0.0564 0.16475,0.11289 0.21414,0.11289 0.0138,0 0.024,-0.007 0.0282,-0.0141 l 0.031,-0.0423 0.0353,-0.0988 c 0.0289,-0.067 0.0399,-0.13053 0.06,-0.19756 0.0335,-0.13053 0.0716,-0.27516 0.10055,-0.4198 0.11853,-0.57856 0.18732,-1.21003 0.20461,-1.8415 0.0166,-0.3175 0.0166,-0.635 0.007,-0.94545 -0.007,-0.31397 -0.0377,-0.61736 -0.0688,-0.91369 -0.0448,-0.29281 -0.0681,-0.57856 -0.12735,-0.84667 -0.0469,-0.26458 -0.10195,-0.51858 -0.1711,-0.74436 -0.0571,-0.23283 -0.12523,-0.44097 -0.18873,-0.62442 -0.055,-0.18697 -0.11501,-0.34572 -0.17427,-0.47272 -0.10619,-0.25753 -0.16475,-0.40569 -0.16475,-0.40569 0,0 0.0744,0.14111 0.21166,0.38805 0.0702,0.11995 0.14394,0.27517 0.21767,0.45509 0.0804,0.17991 0.17215,0.38452 0.23918,0.61736 0.0804,0.22577 0.15099,0.47977 0.21555,0.74789 0.0744,0.26811 0.11853,0.56091 0.16757,0.86077 0.0356,0.29986 0.0695,0.61031 0.0825,0.92781 0.018,0.3175 0.0254,0.64205 0.013,0.96308 -0.031,0.64559 -0.11218,1.29117 -0.24659,1.88384 -0.0325,0.14816 -0.067,0.2928 -0.11712,0.43391 -0.0254,0.0706 -0.0469,0.14817 -0.0759,0.21167 l -0.0448,0.0953 c -0.0247,0.0494 -0.0469,0.0811 -0.0949,0.11994 -0.0437,0.0317 -0.091,0.0423 -0.13617,0.0423"
       style="fill:#96431c;fill-opacity:1;fill-rule:nonzero;stroke:none;stroke-width:0.0352778" />
    <path
       id="path79"
       d="m 225.11518,277.05068 -0.0875,-0.13053 v 0 l 0.0864,0.127 c 3.5e-4,0.004 7.1e-4,0.004 0.001,0.004"
       style="fill:#f4bc51;fill-opacity:1;fill-rule:nonzero;stroke:none;stroke-width:0.0352778" />
    <path
       id="path80"
       d="m 224.70313,280.02813 c 0,0 0.0614,-3.41137 -2.1463,-7.39775 0,0 1.79846,1.80269 2.55729,4.41677 l -0.0864,-0.127 v 0 c 0,0 0.15699,0.86431 0.15734,1.68275 3.5e-4,0.67028 -0.10372,1.30881 -0.4819,1.42523"
       style="fill:#f07018;fill-opacity:1;fill-rule:nonzero;stroke:none;stroke-width:0.0352778" />
    <path
       id="path81"
       d="m 225.02769,276.92015 c 0,0 0.51752,2.85045 -0.32456,3.10798 -0.84067,0.25752 -5.6328,-8.23031 -5.6328,-8.23031 0,0 -0.64699,4.54025 -1.35925,3.95817 -0.71332,-0.58561 -2.26484,-5.89139 -2.26484,-5.89139 0,0 -8.41798,1.42169 -9.06497,1.10066 -0.6477,-0.32455 2.45956,-2.20133 2.45956,-2.20133 -1.55398,0.45156 -11.71716,0.97014 -12.30206,0.58208 -0.58209,-0.38805 2.78518,-2.26483 2.78518,-2.26483 -3.95006,-0.58561 -11.45964,2.13431 -11.13649,1.4217 0.3242,-0.71262 3.43252,-3.17148 3.43252,-3.17148 -3.69076,0.58209 -6.86435,3.302 -6.86435,3.302 -0.0645,1.87678 -1.03399,5.17878 -2.0066,7.76817 -0.95109,2.53294 -1.2259,4.35328 -1.23684,4.43089 -0.072,1.08655 -0.0917,4.73781 2.44511,8.21619 3.02083,4.14514 10.79112,10.96434 15.45343,11.13755 4.65949,0.1718 22.44337,-0.77752 23.82555,-11.82899 0.73166,-4.68136 3.54083,-8.84767 3.54083,-8.84767 l -1.74942,-2.58939"
       style="fill:#f1cead;fill-opacity:1;fill-rule:nonzero;stroke:none;stroke-width:0.0352778" />
    <path
       id="path82"
       d="m 223.92455,285.52088 c 0,0 1.2319,-1.22062 2.62361,-0.28223 1.39206,0.93839 1.5875,3.91937 0.5521,5.18231 -1.03787,1.25942 -4.18395,2.56117 -4.68877,0.48683 0,0 0.70626,-1.17475 0.75494,-2.08491 0.0628,-1.19592 0.53411,-2.64231 0.75812,-3.302"
       style="fill:#eabd92;fill-opacity:1;fill-rule:nonzero;stroke:none;stroke-width:0.0352778" />
    <path
       id="path83"
       d="m 226.45044,288.0891 c 0,0 -0.0529,0.004 -0.14464,0.0176 -0.0903,0.004 -0.21766,0.0388 -0.36865,0.0635 -0.078,0.007 -0.1591,0.0423 -0.2413,0.0635 -0.084,0.0247 -0.17427,0.0423 -0.26247,0.0811 -0.0896,0.0317 -0.17991,0.067 -0.2734,0.1023 -0.0974,0.0247 -0.18133,0.0847 -0.27164,0.13053 -0.0907,0.0459 -0.18097,0.0882 -0.27128,0.13406 -0.0822,0.0564 -0.16334,0.10936 -0.24272,0.16227 -0.0769,0.0564 -0.15839,0.10584 -0.23353,0.1517 -0.0773,0.0423 -0.12947,0.10936 -0.19086,0.15522 -0.23565,0.20461 -0.41204,0.33161 -0.41204,0.33161 0,0 0.11042,-0.17992 0.31009,-0.43392 0.0536,-0.06 0.0984,-0.13758 0.17039,-0.19755 0.0702,-0.0635 0.14182,-0.127 0.22296,-0.1905 0.0815,-0.0635 0.15663,-0.13406 0.24624,-0.19403 0.0935,-0.0494 0.18873,-0.1023 0.28575,-0.15169 0.0991,-0.0459 0.19085,-0.10584 0.29704,-0.13053 0.10195,-0.0317 0.2032,-0.06 0.30162,-0.0882 0.0938,-0.0353 0.19579,-0.0353 0.28963,-0.0494 0.0917,-0.007 0.17639,-0.0247 0.25894,-0.0212 0.32526,-0.004 0.52987,0.0635 0.52987,0.0635"
       style="fill:#b88459;fill-opacity:1;fill-rule:nonzero;stroke:none;stroke-width:0.0352778" />
    <path
       id="path84"
       d="m 183.73611,273.48763 c 0,0 -1.3522,-1.2947 -2.98274,-0.127 -1.63089,1.16416 -2.38936,5.36575 0.75882,7.47183 0,0 0.32174,-1.72861 0.70838,-2.88925 0.39017,-1.16064 1.51554,-4.45558 1.51554,-4.45558"
       style="fill:#eabd92;fill-opacity:1;fill-rule:nonzero;stroke:none;stroke-width:0.0352778" />
    <path
       id="path85"
       d="m 180.4207,275.37146 c 0,0 0.19614,0.0282 0.46038,0.15875 0.2607,0.13053 0.59478,0.35983 0.83431,0.68439 0.12207,0.15522 0.22084,0.33161 0.28928,0.50447 0.043,0.0847 0.0593,0.17639 0.0829,0.25753 0.0236,0.0811 0.036,0.16228 0.0448,0.23636 0.0272,0.14464 0.0127,0.26811 0.0106,0.35278 -0.002,0.0847 -0.009,0.13052 -0.009,0.13052 0,0 -0.0162,-0.0459 -0.0395,-0.127 -0.018,-0.0811 -0.0561,-0.19402 -0.10442,-0.32455 -0.0395,-0.13406 -0.11465,-0.2787 -0.19227,-0.43039 -0.0808,-0.14817 -0.17074,-0.30339 -0.28786,-0.4445 -0.10407,-0.14817 -0.23354,-0.27517 -0.35384,-0.39864 -0.12594,-0.11642 -0.24095,-0.23636 -0.35419,-0.31397 -0.21766,-0.17992 -0.38135,-0.28575 -0.38135,-0.28575"
       style="fill:#b88459;fill-opacity:1;fill-rule:nonzero;stroke:none;stroke-width:0.0352778" />
    <path
       id="path86"
       d="m 191.81436,288.78054 c 0,0 0.0448,0.30692 0.23213,0.81139 0.0949,0.25047 0.22261,0.55034 0.40252,0.87489 0.0917,0.16581 0.18521,0.33867 0.30551,0.51153 0.115,0.17639 0.23565,0.3563 0.38135,0.53269 0.13441,0.18698 0.29457,0.36336 0.46708,0.53975 0.16157,0.18698 0.35595,0.35278 0.55386,0.52211 0.39582,0.3422 0.85055,0.65264 1.35043,0.93134 0.23742,0.15522 0.51047,0.2607 0.77647,0.38594 0.26246,0.13299 0.54469,0.22295 0.83079,0.31891 l 0.4258,0.14499 0.44062,0.10689 c 0.29669,0.06 0.59337,0.15981 0.89006,0.19121 l 0.91158,0.14393 c 0.30197,0.0226 0.60254,0.0448 0.90099,0.0674 0.59655,0.0173 1.19168,0.0109 1.75825,-0.0557 0.56797,-0.0632 1.11442,-0.15804 1.61995,-0.2921 0.50871,-0.12665 0.9779,-0.29457 1.40018,-0.47166 0.84349,-0.35984 1.50283,-0.762 1.93463,-1.08303 0.43321,-0.32103 0.64594,-0.54681 0.64594,-0.54681 0,0 -0.20179,0.23637 -0.61878,0.58209 -0.4191,0.33866 -1.05339,0.7941 -1.90253,1.17969 -0.42227,0.19402 -0.89499,0.37676 -1.40934,0.52246 -0.51083,0.14993 -1.06398,0.26776 -1.64536,0.33161 -0.5782,0.0737 -1.18075,0.0871 -1.79387,0.0744 -0.30727,-0.0208 -0.61666,-0.0406 -0.92781,-0.06 l -0.91299,-0.13477 c -0.31468,-0.0399 -0.60784,-0.1404 -0.91193,-0.20672 l -0.44767,-0.11254 -0.43674,-0.15275 c -0.28999,-0.0998 -0.5775,-0.1965 -0.84702,-0.33549 -0.27129,-0.13018 -0.54822,-0.24025 -0.79305,-0.40041 -0.51082,-0.28927 -0.96908,-0.62794 -1.36278,-0.98777 -0.19791,-0.18345 -0.39123,-0.35631 -0.54963,-0.55034 -0.17321,-0.18697 -0.32949,-0.37041 -0.46072,-0.56444 -0.28752,-0.36689 -0.49072,-0.74789 -0.65617,-1.08656 -0.16545,-0.34219 -0.2787,-0.65264 -0.36125,-0.90664 -0.16368,-0.51858 -0.1905,-0.8255 -0.1905,-0.8255"
       style="fill:#b88459;fill-opacity:1;fill-rule:nonzero;stroke:none;stroke-width:0.0352778" />
    <path
       id="path87"
       d="m 207.13621,291.20765 c 0,0 0.0864,0.1905 0.26035,0.43745 0.079,0.127 0.2032,0.25047 0.32949,0.381 0.13441,0.11994 0.28717,0.23989 0.45826,0.32455 0.16722,0.0953 0.35066,0.14817 0.52811,0.19756 0.17992,0.0318 0.3496,0.067 0.502,0.067 0.14958,0.0176 0.27693,0.0106 0.36866,0.0141 0.0914,0 0.14181,0.004 0.14181,0.004 0,0 -0.0466,0.0176 -0.13476,0.0423 -0.0878,0.0212 -0.21237,0.0811 -0.37006,0.0882 -0.15805,0.0212 -0.34537,0.0282 -0.54857,0.0106 -0.0988,-0.0212 -0.20496,-0.0388 -0.30762,-0.067 -0.0988,-0.0423 -0.20461,-0.0741 -0.30198,-0.127 -0.19403,-0.10583 -0.36654,-0.24342 -0.49953,-0.39864 -0.13335,-0.15522 -0.22684,-0.32103 -0.2914,-0.46567 -0.13158,-0.2928 -0.13476,-0.508 -0.13476,-0.508"
       style="fill:#b88459;fill-opacity:1;fill-rule:nonzero;stroke:none;stroke-width:0.0352778" />
    <path
       id="path88"
       d="m 200.61829,282.76568 c 0,0 -0.0931,0.0811 -0.25682,0.22578 -0.16334,0.14111 -0.38453,0.35278 -0.6403,0.61736 -0.25294,0.26458 -0.52987,0.59619 -0.75494,0.98072 -0.11148,0.1905 -0.20673,0.40217 -0.2406,0.62442 -0.0324,0.10583 -0.009,0.21872 -0.0123,0.32456 0.0392,0.1023 0.0374,0.21519 0.10724,0.30338 l 0.0815,0.14464 c 0.0229,0.0282 0.079,0.0847 0.1143,0.127 0.0811,0.10231 0.17075,0.15523 0.25541,0.22225 0.18557,0.12348 0.39794,0.21167 0.61349,0.25048 0.21378,0.0494 0.43144,0.067 0.63782,0.067 0.20673,0 0.40287,-0.0176 0.58455,-0.0423 0.36124,-0.0564 0.66216,-0.12347 0.86854,-0.18344 0.20708,-0.0635 0.32526,-0.0988 0.32526,-0.0988 0,0 -0.10936,0.0564 -0.30939,0.14464 -0.20143,0.0811 -0.49036,0.20108 -0.8576,0.27869 -0.18485,0.0388 -0.38664,0.0776 -0.60572,0.0917 -0.2159,0.0141 -0.44908,0.0141 -0.68862,-0.0353 -0.23918,-0.0423 -0.47978,-0.13406 -0.70273,-0.27164 -0.11007,-0.0811 -0.23037,-0.15875 -0.30445,-0.25048 -0.0448,-0.0529 -0.0765,-0.0811 -0.133,-0.14816 l -0.1076,-0.17639 c -0.0808,-0.11289 -0.0878,-0.26106 -0.1277,-0.39158 0.004,-0.13406 -0.0145,-0.27517 0.0219,-0.40217 0.0505,-0.25753 0.16157,-0.49036 0.28681,-0.69145 0.25188,-0.41275 0.57221,-0.71966 0.84561,-0.97014 0.27905,-0.254 0.53551,-0.43038 0.71402,-0.55386 0.17745,-0.12347 0.2854,-0.18697 0.2854,-0.18697"
       style="fill:#b88459;fill-opacity:1;fill-rule:nonzero;stroke:none;stroke-width:0.0352778" />
    <path
       id="path89"
       d="m 195.95668,272.10826 c 0,0 2.4504,-0.067 2.97745,1.10067 0,0 -0.042,-1.85561 -1.0788,-2.159 -1.03611,-0.30339 -1.89865,1.05833 -1.89865,1.05833"
       style="fill:#f49517;fill-opacity:1;fill-rule:nonzero;stroke:none;stroke-width:0.0352778" />
    <path
       id="path90"
       d="m 210.93351,276.53563 c 0,0 2.44898,-0.0635 2.97674,1.10066 0,0 -0.0427,-1.85561 -1.07809,-2.159 -1.03576,-0.30339 -1.89865,1.05834 -1.89865,1.05834"
       style="fill:#f49517;fill-opacity:1;fill-rule:nonzero;stroke:none;stroke-width:0.0352778" />
    <path
       id="path91"
       d="m 211.98091,281.60857 c -0.3175,1.19239 -1.0026,2.04964 -1.52612,1.90853 -0.52282,-0.14111 -0.69039,-1.22414 -0.36865,-2.41653 0.32032,-1.19592 1.00541,-2.05317 1.52823,-1.91206 0.52388,0.14112 0.68933,1.22414 0.36654,2.42006"
       style="fill:#2e1411;fill-opacity:1;fill-rule:nonzero;stroke:none;stroke-width:0.0352778" />
    <path
       id="path92"
       d="m 211.14165,280.40913 c -0.12771,0.35277 -0.35419,0.59619 -0.50835,0.53975 -0.15487,-0.0564 -0.17851,-0.38453 -0.0508,-0.73731 0.12629,-0.35631 0.35454,-0.59972 0.50905,-0.54328 0.15417,0.0564 0.17639,0.38806 0.0501,0.74084"
       style="fill:#ffffff;fill-opacity:1;fill-rule:nonzero;stroke:none;stroke-width:0.0352778" />
    <path
       id="path93"
       d="m 196.90424,277.67863 c -0.32032,1.19591 -1.00365,2.05316 -1.52823,1.91205 -0.52176,-0.14464 -0.68898,-1.22414 -0.36689,-2.42005 0.32032,-1.19239 1.00295,-2.04964 1.52823,-1.91206 0.52282,0.14111 0.68863,1.22414 0.36689,2.42006"
       style="fill:#2e1411;fill-opacity:1;fill-rule:nonzero;stroke:none;stroke-width:0.0352778" />
    <path
       id="path94"
       d="m 196.06428,276.48271 c -0.12771,0.35278 -0.35595,0.59267 -0.50906,0.53975 -0.15628,-0.0565 -0.17745,-0.38806 -0.0515,-0.74083 0.12736,-0.35278 0.35596,-0.5962 0.50836,-0.53975 0.15663,0.0564 0.1785,0.38805 0.0522,0.74083"
       style="fill:#ffffff;fill-opacity:1;fill-rule:nonzero;stroke:none;stroke-width:0.0352778" />
    <path
       id="path95"
       d="m 218.66922,285.30215 c 0.20003,0.93839 -1.4612,2.08492 -3.71228,2.5647 -2.25107,0.47978 -4.23757,0.11289 -4.43689,-0.82197 -0.20002,-0.93839 1.46297,-2.08845 3.71193,-2.5647 2.25319,-0.4833 4.23828,-0.11289 4.43724,0.82197"
       style="fill:#fab9b2;fill-opacity:1;fill-rule:nonzero;stroke:none;stroke-width:0.0352778" />
    <path
       id="path96"
       d="m 195.17069,282.13068 c -0.56621,0.77258 -2.52941,0.28928 -4.38326,-1.07244 -1.85561,-1.36525 -2.89807,-3.09386 -2.33186,-3.86292 0.56832,-0.77258 2.53153,-0.29281 4.38326,1.07244 1.8535,1.36173 2.89878,3.09034 2.33186,3.86292"
       style="fill:#fab9b2;fill-opacity:1;fill-rule:nonzero;stroke:none;stroke-width:0.0352778" />
    <path
       id="path97"
       d="m 211.38083,334.15906 c 0.054,-0.13229 -3.18064,3.05117 -3.18064,3.05117 l -1.37548,-4.54519 1.63477,-2.00236 2.92135,3.49638"
       style="fill:#eabd92;fill-opacity:1;fill-rule:nonzero;stroke:none;stroke-width:0.0352778" />
    <path
       id="path98"
       d="m 208.20019,337.21023 -1.29646,-4.28343 -0.079,-0.26176 1.63477,-2.00236 2.91853,3.49285 c -0.11924,0.0444 -3.17782,3.0547 -3.17782,3.0547 m 3.18064,-3.05117 -0.003,-0.004 c 7.1e-4,-3.5e-4 0.002,-7.1e-4 0.002,-7.1e-4 0.001,0 0.001,7.1e-4 0.001,0.002 0,3.5e-4 -3.5e-4,0.001 -7.1e-4,0.002"
       style="fill:#e5ae80;fill-opacity:1;fill-rule:nonzero;stroke:none;stroke-width:0.0352778" />
    <path
       id="path99"
       d="m 206.27473,303.72104 c 0.0557,3.169 -0.10936,6.29214 0.30762,9.4689 -0.0377,-0.4579 -0.0649,-0.71931 -0.0649,-0.71931 0,0 7.26898,8.17422 7.82849,9.37895 0.5588,1.20509 -6.50663,8.83779 -6.50663,8.83779 l 3.89784,5.97782 c 0,0 10.10038,-11.06452 10.22632,-14.36158 0.0988,-2.55835 -10.07181,-13.32089 -15.68873,-18.58257"
       style="fill:#cac9c9;fill-opacity:1;fill-rule:nonzero;stroke:none;stroke-width:0.0352778" />
    <path
       id="path100"
       d="m 206.32165,309.8315 c 0.98566,-1.09396 1.90888,-2.25284 2.72379,-3.43323 -0.71896,-0.71403 -1.41499,-1.38889 -2.05845,-2.0066 -0.22825,0.32561 -0.46214,0.64911 -0.69745,0.97084 0,1.49401 -0.0166,2.97921 0.0321,4.46899"
       style="fill:#e8f6e0;fill-opacity:1;fill-rule:nonzero;stroke:none;stroke-width:0.0352778" />
    <path
       id="path101"
       d="m 209.47689,312.63326 c -0.47272,0.52317 -0.98707,1.00859 -1.50283,1.48696 -0.59161,-0.67592 -1.05904,-1.20368 -1.29293,-1.46473 0.35807,-0.41946 0.70132,-0.85126 1.03963,-1.28129 0.92781,-1.18957 1.88701,-2.32939 2.76331,-3.53131 0.54257,0.55457 1.09467,1.12183 1.64853,1.69898 -0.8703,1.04528 -1.74625,2.08315 -2.65571,3.09139"
       style="fill:#e8f6e0;fill-opacity:1;fill-rule:nonzero;stroke:none;stroke-width:0.0352778" />
    <path
       id="path102"
       d="m 211.20621,315.38704 c -0.4311,0.32068 -0.87524,0.62548 -1.31939,0.93099 -0.17286,-0.19862 -0.33937,-0.39547 -0.50906,-0.58773 1.41711,-1.54799 2.78518,-3.12209 4.12821,-4.73499 0.44097,0.47132 0.87559,0.94298 1.30774,1.41535 -1.17263,1.03011 -2.35937,2.04752 -3.6075,2.97638"
       style="fill:#e8f6e0;fill-opacity:1;fill-rule:nonzero;stroke:none;stroke-width:0.0352778" />
    <path
       id="path103"
       d="m 215.59159,316.51311 c -0.93627,0.4318 -1.87502,0.85408 -2.82646,1.25589 -0.40287,0.16933 -0.80539,0.33549 -1.21003,0.50341 -0.0804,-0.0952 -0.16192,-0.19155 -0.24235,-0.28575 1.65029,-1.31692 3.21627,-2.72662 4.80024,-4.12961 0.53199,0.60113 1.0414,1.19309 1.52824,1.76988 -0.73378,0.33691 -1.49225,0.63112 -2.04964,0.88618"
       style="fill:#e8f6e0;fill-opacity:1;fill-rule:nonzero;stroke:none;stroke-width:0.0352778" />
    <path
       id="path104"
       d="m 216.24599,319.58122 c -0.8255,0.0413 -1.65206,0.0695 -2.47897,0.10054 1.01706,-0.47625 2.02777,-0.96802 3.01519,-1.47426 0.68475,-0.35031 1.42699,-0.66322 2.1463,-1.01741 0.68898,0.86501 1.28905,1.66829 1.7706,2.38654 -1.50601,0.15664 -3.19617,-0.0579 -4.45312,0.005"
       style="fill:#e8f6e0;fill-opacity:1;fill-rule:nonzero;stroke:none;stroke-width:0.0352778" />
    <path
       id="path105"
       d="m 214.36216,322.15403 c 0.0251,-0.12383 0.0194,-0.22719 -0.0162,-0.30445 -0.0236,-0.0515 -0.0635,-0.11853 -0.10971,-0.19332 1.38077,-0.0974 2.76154,-0.18591 4.14937,-0.17639 1.07879,0.008 2.24402,0.0642 3.34222,-0.10866 0.16192,0.37501 0.24694,0.6911 0.23565,0.9324 -0.0109,0.29492 -0.10477,0.6544 -0.26035,1.05974 -2.44334,-0.42439 -4.91208,-0.72672 -7.34095,-1.20932"
       style="fill:#e8f6e0;fill-opacity:1;fill-rule:nonzero;stroke:none;stroke-width:0.0352778" />
    <path
       id="path106"
       d="m 214.97493,325.35302 c -0.64911,-0.27446 -1.30704,-0.54716 -1.96321,-0.82268 0.15664,-0.21484 0.3041,-0.42439 0.44027,-0.62583 2.41653,0.48825 4.85634,0.86466 7.26722,1.37972 -0.37888,0.63041 -0.82832,1.30386 -1.31727,2.00025 -1.49789,-0.5835 -2.93617,-1.30528 -4.42701,-1.93146"
       style="fill:#e8f6e0;fill-opacity:1;fill-rule:nonzero;stroke:none;stroke-width:0.0352778" />
    <path
       id="path107"
       d="m 211.59109,326.36478 c 0.0455,-0.0554 0.0896,-0.11077 0.133,-0.1658 2.08209,1.0354 4.18782,2.06728 6.3253,2.92664 -0.31503,0.41275 -0.63606,0.82092 -0.95638,1.22555 -1.87713,-1.18321 -3.72921,-2.55764 -5.50192,-3.98639"
       style="fill:#e8f6e0;fill-opacity:1;fill-rule:nonzero;stroke:none;stroke-width:0.0352778" />
    <path
       id="path108"
       d="m 209.86883,329.68125 c -0.2032,-0.1898 -0.40993,-0.3803 -0.61489,-0.56903 0.32349,-0.3676 0.68333,-0.77964 1.06045,-1.21814 1.74801,1.46438 3.49179,2.94075 5.35763,4.21357 -0.53305,0.64629 -1.04598,1.25589 -1.51835,1.8087 -1.4658,-1.37231 -2.83951,-2.88925 -4.28484,-4.2351"
       style="fill:#e8f6e0;fill-opacity:1;fill-rule:nonzero;stroke:none;stroke-width:0.0352778" />
    <path
       id="path109"
       d="m 212.6466,335.64848 c -0.56409,0.63818 -0.90946,1.01671 -0.90946,1.01671 l -3.89784,-5.97782 0.0374,-0.043 c 1.57515,1.69157 3.09774,3.43923 4.76991,5.00415"
       style="fill:#e8f6e0;fill-opacity:1;fill-rule:nonzero;stroke:none;stroke-width:0.0352778" />
    <path
       id="path110"
       d="m 208.52404,338.43155 c 0,0 2.13254,1.6263 -0.0903,2.67017 -2.21827,1.04423 -4.4891,1.60444 -3.98921,0.28223 0.502,-1.32257 4.07952,-2.9524 4.07952,-2.9524"
       style="fill:#f1cead;fill-opacity:1;fill-rule:nonzero;stroke:none;stroke-width:0.0352778" />
    <path
       id="path111"
       d="m 208.26863,335.32393 c 0,0 2.32833,1.48872 0.80927,3.2191 -1.51977,1.7272 -4.35434,2.77001 -4.49686,1.92475 -0.1457,-0.84525 3.13972,-5.07012 3.68759,-5.14385"
       style="fill:#f1cead;fill-opacity:1;fill-rule:nonzero;stroke:none;stroke-width:0.0352778" />
    <path
       id="path112"
       d="m 207.41314,332.95362 c 0,0 2.07433,0.0441 1.56386,1.87677 -0.51046,1.83021 -4.16383,5.49346 -4.4711,4.076 -0.30586,-1.41782 1.99531,-5.38868 2.90724,-5.95277"
       style="fill:#f1cead;fill-opacity:1;fill-rule:nonzero;stroke:none;stroke-width:0.0352778" />
    <path
       id="path113"
       d="m 206.26591,330.9837 c 0,0 1.12148,-0.86465 1.53705,0.50342 0.41346,1.36807 -1.57339,5.48569 -3.24908,5.75345 -1.67711,0.26705 0.0272,-4.22698 1.71203,-6.25687"
       style="fill:#f1cead;fill-opacity:1;fill-rule:nonzero;stroke:none;stroke-width:0.0352778" />
    <path
       id="path114"
       d="m 207.68795,332.98395 c 0,0 -0.097,0.31292 -0.29492,0.76165 -0.19438,0.44732 -0.47484,1.03717 -0.83961,1.57657 -0.1778,0.27058 -0.36512,0.53586 -0.56621,0.76411 -0.19438,0.23354 -0.39229,0.43709 -0.57185,0.60255 -0.18203,0.1651 -0.33479,0.29845 -0.44909,0.38205 -0.11535,0.0861 -0.18168,0.13441 -0.18168,0.13441 0,0 0.0699,-0.0409 0.1905,-0.11747 0.12595,-0.073 0.2981,-0.18556 0.48684,-0.34361 0.10124,-0.0751 0.19614,-0.17004 0.2988,-0.26493 0.10795,-0.0935 0.21026,-0.2025 0.31115,-0.32103 0.20814,-0.22754 0.40569,-0.49248 0.58949,-0.76765 0.36336,-0.55033 0.63677,-1.15464 0.80187,-1.61819 0.16545,-0.46566 0.22471,-0.78846 0.22471,-0.78846"
       style="fill:#b88459;fill-opacity:1;fill-rule:nonzero;stroke:none;stroke-width:0.0352778" />
    <path
       id="path115"
       d="m 208.63904,335.61074 c 0,0 -0.16721,0.27058 -0.45473,0.65264 -0.13511,0.19755 -0.32032,0.40569 -0.49988,0.64276 -0.0882,0.11959 -0.19756,0.22824 -0.29845,0.34678 -0.10407,0.11606 -0.2032,0.2413 -0.31644,0.35172 -0.23143,0.2166 -0.43886,0.45861 -0.6724,0.64276 -0.11289,0.0938 -0.22331,0.18415 -0.3309,0.27164 -0.10619,0.0825 -0.19756,0.1778 -0.30198,0.2353 -0.39899,0.25894 -0.66887,0.43321 -0.66887,0.43321 0,0 0.28399,-0.14993 0.70838,-0.37359 0.11112,-0.0508 0.20461,-0.14217 0.31997,-0.22119 0.10971,-0.0829 0.22472,-0.16933 0.34713,-0.25894 0.23918,-0.1845 0.45297,-0.42369 0.69039,-0.641 0.11324,-0.1143 0.21202,-0.242 0.31432,-0.36054 0.10125,-0.12135 0.20885,-0.23495 0.29669,-0.35595 0.17639,-0.24165 0.34537,-0.46814 0.46919,-0.67239 0.13335,-0.20038 0.2286,-0.37571 0.29493,-0.49989 0.0705,-0.12136 0.10265,-0.19332 0.10265,-0.19332"
       style="fill:#b88459;fill-opacity:1;fill-rule:nonzero;stroke:none;stroke-width:0.0352778" />
    <path
       id="path116"
       d="m 208.85142,338.78292 c 0,0 -0.21943,0.17744 -0.56339,0.42015 -0.34255,0.24448 -0.8068,0.56092 -1.30104,0.82621 -0.24307,0.13582 -0.4946,0.25717 -0.73731,0.35842 -0.24271,0.0963 -0.47096,0.1771 -0.67416,0.2346 -0.2032,0.0434 -0.37394,0.091 -0.49812,0.0981 -0.12206,0.0155 -0.19226,0.0236 -0.19226,0.0236 0,0 0.0702,0 0.19543,-0.003 0.12453,0.005 0.29881,-0.0155 0.51118,-0.0476 0.20849,-0.0476 0.45085,-0.10619 0.6992,-0.20038 0.24836,-0.0981 0.50871,-0.21696 0.75812,-0.35066 0.2473,-0.14111 0.48966,-0.28963 0.70732,-0.44132 0.21908,-0.14852 0.40958,-0.30868 0.5768,-0.43886 0.32596,-0.27517 0.51823,-0.47942 0.51823,-0.47942"
       style="fill:#b88459;fill-opacity:1;fill-rule:nonzero;stroke:none;stroke-width:0.0352778" />
  </g>
</svg>
