<?xml version="1.0" encoding="UTF-8" standalone="no"?>
<!-- Created with Inkscape (http://www.inkscape.org/) -->

<svg
   width="20.498129mm"
   height="49.268009mm"
   viewBox="0 0 20.49813 49.268014"
   version="1.1"
   id="svg1"
   inkscape:version="1.4.2 (f4327f4, 2025-05-13)"
   sodipodi:docname="boy8.svg"
   xmlns:inkscape="http://www.inkscape.org/namespaces/inkscape"
   xmlns:sodipodi="http://sodipodi.sourceforge.net/DTD/sodipodi-0.dtd"
   xmlns="http://www.w3.org/2000/svg"
   xmlns:svg="http://www.w3.org/2000/svg">
  <sodipodi:namedview
     id="namedview1"
     pagecolor="#ffffff"
     bordercolor="#000000"
     borderopacity="0.25"
     inkscape:showpageshadow="2"
     inkscape:pageopacity="0.0"
     inkscape:pagecheckerboard="0"
     inkscape:deskcolor="#d1d1d1"
     inkscape:document-units="mm"
     inkscape:zoom="1.2275954"
     inkscape:cx="473.28297"
     inkscape:cy="-26.067221"
     inkscape:window-width="2880"
     inkscape:window-height="1676"
     inkscape:window-x="-12"
     inkscape:window-y="-12"
     inkscape:window-maximized="1"
     inkscape:current-layer="layer1" />
  <defs
     id="defs1">
    <clipPath
       clipPathUnits="userSpaceOnUse"
       id="clipPath119">
      <path
         d="m 2429.58,8528.87 v 0 l -1.54,4.27 c 7.66,35.49 -15.79,67.53 -15.79,67.53 10.47,20.59 15.22,39.01 16.15,55.3 95.03,81.21 245.93,222.7 239.94,298.46 -6.68,84.06 -297.09,299.7 -435.14,397.71 -1.96,12.33 -3.87,24.38 -5.72,36.02 -4.67,29.42 -8.97,56.5 -12.82,80.63 v 0 c 0,0 399.66,-281.36 528.14,-436.13 0,0 44.89,-42.39 44.81,-102.96 0,-4.99 -0.32,-10.11 -0.98,-15.34 -8.76,-68.62 -357.05,-385.49 -357.05,-385.49"
         transform="translate(0,2.5000001e-4)"
         id="path119" />
    </clipPath>
    <clipPath
       clipPathUnits="userSpaceOnUse"
       id="clipPath299">
      <path
         d="m 6622.23,11070.3 c 4.28,3.8 8.4,7.9 12.38,12.2 -0.48,-0.6 -0.96,-1.2 -1.45,-1.8 -3.23,-3.4 -6.57,-6.6 -10.01,-9.8 -0.22,-0.1 -0.44,-0.3 -0.66,-0.4 l -0.26,-0.2"
         transform="translate(0,2.5000001e-4)"
         id="path299" />
    </clipPath>
    <clipPath
       clipPathUnits="userSpaceOnUse"
       id="clipPath602">
      <path
         d="m 4237.98,3522.14 c 0,0 0,0.01 0,0.02 0,-0.01 0,-0.01 0,-0.02 m 0.01,0.2 c 0,0.1 0.01,0.2 0.01,0.3 0,-0.1 -0.01,-0.2 -0.01,-0.3"
         transform="translate(0,2.5000001e-4)"
         id="path602" />
    </clipPath>
  </defs>
  <g
     inkscape:label="图层 1"
     inkscape:groupmode="layer"
     id="layer1"
     transform="translate(20.637651,-345.28101)">
    <g
       id="g92"
       transform="matrix(0.26458333,0,0,0.26458333,-35.353956,333.55168)">
		<path
   style="fill:#5e4f44"
   d="m 127.181,66.079 c 0,0 2.365,-11.429 -13.793,-14.976 C 105.016,40.415 96.01,45.316 94.358,46.356 92.706,45.316 83.7,40.415 75.328,51.103 59.169,54.65 61.534,66.079 61.534,66.079 c 0,0 -11.035,6.897 -2.956,18.917 0,0 -7.094,17.652 13.596,18.875 16.992,1.005 21.215,0.918 22.183,0.856 0.968,0.063 5.191,0.149 22.183,-0.856 20.69,-1.224 13.596,-18.875 13.596,-18.875 8.08,-12.02 -2.955,-18.917 -2.955,-18.917 z"
   id="path63" />

		<path
   style="fill:#a27e4e"
   d="M 99.309,53.279 H 89.48 c -16.346,0 -28.73,24.181 -24.666,41.931 2.407,10.51 10.241,19.31 29.727,19.31 22.211,0 29.096,-11.432 30.045,-23.799 1.262,-16.43 -10.568,-37.442 -25.277,-37.442 z"
   id="path64" />

		<rect
   x="91.458"
   y="112.19"
   style="fill:#a27e4e"
   width="5.7989998"
   height="8.6520004"
   id="rect64" />

		<path
   style="fill:#a27e4e"
   d="m 105.121,131.45 c 0,-14.393 -10.763,-14.625 -10.763,-14.625 0,0 -10.763,0.232 -10.763,14.625 0,14.393 -10.932,42.25 10.763,42.25 21.694,0 10.763,-27.857 10.763,-42.25 z"
   id="path65" />

		<polygon
   style="fill:#a27e4e"
   points="81.134,157.428 83.955,222.001 88.277,221.749 94.064,167.126 "
   id="polygon65" />

		<polygon
   style="fill:#a27e4e"
   points="107.581,162.358 104.506,221.963 100.179,222.001 94.064,167.126 "
   id="polygon66" />

		<path
   style="fill:#5e4f44"
   d="m 62.563,84.918 c 0,0 9.596,-2.202 12.427,-15.574 11.326,0.629 16.712,-4.877 19.368,-9.91 5.959,13.214 17.443,10.854 17.443,10.854 0,0 0.315,14.787 14.63,14.63 -3.618,-22.967 -14.043,-34.923 -32.073,-34.923 -18.03,0 -30.38,13.686 -31.795,34.923 z"
   id="path66" />

		<g
   id="g77">
			<g
   id="g68">
				<path
   style="fill:#ffffff"
   d="m 84.878,87.714 c 0,1.905 -1.544,3.45 -3.449,3.45 -1.905,0 -3.449,-1.544 -3.449,-3.45 0,-1.905 1.544,-3.449 3.449,-3.449 1.905,0 3.449,1.544 3.449,3.449 z"
   id="path67" />

				<path
   style="fill:#5e4f44"
   d="m 79.024,87.714 c 0,1.328 1.076,2.404 2.404,2.404 1.328,0 2.404,-1.076 2.404,-2.404 0,-1.328 -1.076,-2.404 -2.404,-2.404 -1.327,0 -2.404,1.076 -2.404,2.404 z"
   id="path68" />

			</g>

			<g
   id="g70">
				<path
   style="fill:#ffffff"
   d="m 110.482,87.714 c 0,1.905 -1.544,3.45 -3.449,3.45 -1.905,0 -3.449,-1.544 -3.449,-3.45 0,-1.905 1.544,-3.449 3.449,-3.449 1.905,-0.001 3.449,1.544 3.449,3.449 z"
   id="path69" />

				<path
   style="fill:#5e4f44"
   d="m 104.629,87.714 c 0,1.328 1.076,2.404 2.404,2.404 1.328,0 2.404,-1.076 2.404,-2.404 0,-1.328 -1.076,-2.404 -2.404,-2.404 -1.328,0 -2.404,1.076 -2.404,2.404 z"
   id="path70" />

			</g>

			<path
   style="fill:none;stroke:#885546;stroke-width:0.9942;stroke-miterlimit:10"
   d="m 87.59,94.068 c 0,0 5.881,4.035 13.514,0"
   id="path71" />

			<circle
   style="fill:#a27e4e"
   cx="64.036003"
   cy="92.678001"
   r="5.8530002"
   id="circle71" />

			<path
   style="fill:#85603c"
   d="m 91.123,92.678 h 5.554 c 0,0 -0.288,-2.56 -2.777,-2.56 -2.489,0 -2.777,2.56 -2.777,2.56 z"
   id="path72" />

			<path
   style="fill:none;stroke:#5e4f44;stroke-width:0.9942;stroke-miterlimit:10"
   d="m 77.979,82.078 c 0,0 2.086,-2.197 6.899,-2.197"
   id="path73" />

			<path
   style="fill:none;stroke:#5e4f44;stroke-width:0.9942;stroke-miterlimit:10"
   d="m 110.482,82.078 c 0,0 -2.086,-2.197 -6.899,-2.197"
   id="path74" />

			<circle
   style="fill:#85603c"
   cx="64.036003"
   cy="92.678001"
   r="2.5769999"
   id="circle74" />

			<path
   style="fill:#a27e4e"
   d="m 130.533,92.678 c 0,3.233 -2.621,5.853 -5.853,5.853 -3.233,0 -5.853,-2.621 -5.853,-5.853 0,-3.233 2.621,-5.853 5.853,-5.853 3.232,0 5.853,2.62 5.853,5.853 z"
   id="path75" />

			<path
   style="fill:#85603c"
   d="m 127.257,92.678 c 0,1.423 -1.154,2.577 -2.577,2.577 -1.424,0 -2.577,-1.154 -2.577,-2.577 0,-1.423 1.154,-2.577 2.577,-2.577 1.423,0 2.577,1.154 2.577,2.577 z"
   id="path76" />

			<circle
   style="fill:#c88b80"
   cx="75.969002"
   cy="91.698997"
   r="1.901"
   id="circle76" />

			<circle
   style="fill:#c88b80"
   cx="111.83"
   cy="91.698997"
   r="1.901"
   id="circle77" />

		</g>

		<path
   style="fill:#a27e4e"
   d="m 92.1,117.885 c 0,0 -7.665,0.553 -14.213,18.269 -6.548,17.716 -2.465,33.899 -2.465,33.899 h 1.923 c 0,0 -2.101,-25.305 14.212,-44.284"
   id="path77" />

		<path
   style="fill:#a27e4e"
   d="m 97.826,117.885 c 0,0 7.665,0.553 14.213,18.269 6.548,17.716 2.465,33.899 2.465,33.899 h -1.923 c 0,0 2.101,-25.305 -14.212,-44.284"
   id="path78" />

		<polygon
   style="fill:#5a9f98"
   points="107.786,160.585 106.06,207.707 97.826,207.707 94.064,182.021 90.855,207.707 82.37,207.707 80.84,160.585 "
   id="polygon78" />

		<path
   style="fill:#d2e7fd"
   d="m 91.458,117.458 c 0,0 -13.782,2.2 -16.402,29.39 2.206,1.54 4.9,1.049 4.9,1.049 l 2.684,-7.369 c 0,0 -3.448,13.931 -2.482,25.238 15.721,3.032 28.683,0 28.683,0 0,0 -0.37,-13.378 -2.047,-25.789 0.236,-0.311 2.924,7.059 2.924,7.059 0,0 2.472,-0.071 4.866,-1.772 -2.295,-16.87 -10.295,-26.19 -17.327,-27.804 l -2.899,8.866 z"
   id="path79" />

		<polygon
   style="fill:#abcff1"
   points="108.699,145.81 114.584,143.4 115.518,147.633 109.757,149.926 "
   id="polygon79" />

		<polygon
   style="fill:#abcff1"
   points="80.984,145.81 75.099,143.4 74.164,147.633 79.926,149.926 "
   id="polygon80" />

		<polygon
   style="fill:#abcff1"
   points="94.358,135.228 99.602,118.272 97.257,116.516 94.361,125.587 91.458,116.516 89.121,118.297 "
   id="polygon81" />

		
			<line
   style="fill:none;stroke:#abcff1;stroke-width:0.9942;stroke-miterlimit:10"
   x1="94.361"
   y1="132.289"
   x2="94.361"
   y2="167.112"
   id="line81" />

		<path
   style="fill:#abcff1"
   d="m 96.97,133.881 c 0,-0.365 -0.296,-0.661 -0.661,-0.661 -0.365,0 -0.661,0.296 -0.661,0.661 0,0.365 0.296,0.661 0.661,0.661 0.365,0 0.661,-0.296 0.661,-0.661 z"
   id="path81" />

		<circle
   style="fill:#abcff1"
   cx="96.308998"
   cy="164.87801"
   r="0.66100001"
   id="circle81" />

		<path
   style="fill:#abcff1"
   d="m 96.97,141.63 c 0,-0.365 -0.296,-0.661 -0.661,-0.661 -0.365,0 -0.661,0.296 -0.661,0.661 0,0.365 0.296,0.661 0.661,0.661 0.365,0 0.661,-0.295 0.661,-0.661 z"
   id="path82" />

		<circle
   style="fill:#abcff1"
   cx="96.308998"
   cy="157.129"
   r="0.66100001"
   id="circle82" />

		<circle
   style="fill:#abcff1"
   cx="96.308998"
   cy="149.38"
   r="0.66100001"
   id="circle83" />

		<path
   style="fill:#a27e4e"
   d="m 75.041,165.812 c 1.491,-0.271 2.926,0.654 3.551,2.226 0.222,0.559 0.402,1.264 0.483,2.148 0.316,3.454 -0.181,3.314 -0.573,3.303 -0.392,-0.011 -0.881,-0.899 -0.875,-3.139 -0.771,5.575 -0.907,6.59 -1.782,6.505 -0.889,-0.086 -0.18,-5.097 -0.18,-5.097 0,0 -1.126,5.03 -1.748,5.297 -0.621,0.267 -1.025,-0.616 -0.591,-2.279 0.435,-1.664 0.772,-3.215 0.772,-3.215 0,0 -1.248,4.171 -1.884,4.324 -0.556,0.134 -1.039,-0.38 -0.198,-2.675 0.466,-1.273 0.842,-2.233 0.842,-2.233 0,0 -1.146,2.642 -1.667,2.379 -0.506,-0.256 -0.314,-1.505 1.068,-4.56 0.259,-0.572 0.56,-1.126 0.92,-1.619 0.574,-0.786 1.137,-1.233 1.862,-1.365 z"
   id="path83" />

		<path
   style="fill:#a27e4e"
   d="m 113.745,165.812 c -1.491,-0.271 -2.926,0.654 -3.551,2.226 -0.222,0.559 -0.402,1.264 -0.483,2.148 -0.316,3.454 0.181,3.314 0.573,3.303 0.392,-0.011 0.881,-0.899 0.875,-3.139 0.771,5.575 0.907,6.59 1.782,6.505 0.889,-0.086 0.18,-5.097 0.18,-5.097 0,0 1.126,5.03 1.748,5.297 0.621,0.267 1.025,-0.616 0.591,-2.279 -0.435,-1.664 -0.772,-3.215 -0.772,-3.215 0,0 1.248,4.171 1.884,4.324 0.556,0.134 1.039,-0.38 0.198,-2.675 -0.466,-1.273 -0.842,-2.233 -0.842,-2.233 0,0 1.146,2.642 1.667,2.379 0.506,-0.256 0.314,-1.505 -1.068,-4.56 -0.259,-0.572 -0.56,-1.126 -0.92,-1.619 -0.574,-0.786 -1.137,-1.233 -1.862,-1.365 z"
   id="path84" />

		<rect
   x="82.089996"
   y="204.84"
   style="fill:#6dbdb0"
   width="9.25"
   height="3.875"
   id="rect84" />

		<rect
   x="97.287003"
   y="204.84"
   style="fill:#6dbdb0"
   width="9.25"
   height="3.875"
   id="rect85" />

		<g
   id="g88">
			<g
   id="g86">
				<path
   style="fill:#abcff1"
   d="m 84.78,225.975 c 2.029,-1.574 3.254,-2.736 3.999,-3.596 0.005,-0.575 -0.166,-1.145 -0.35,-1.816 -3.458,1.9 -4.498,0.896 -4.498,0.896 -3.237,1.02 -6.998,4.864 -7.059,6.458 -0.018,0.47 -0.091,1.077 -0.016,1.59 0.799,0.178 3.139,0.178 7.924,-3.532 z"
   id="path85" />

				<path
   style="fill:#d2e7fd"
   d="m 84.78,225.975 c -4.785,3.71 -7.126,3.71 -7.924,3.532 0.178,1.225 1.217,1.906 5.988,-1.161 4.817,-3.096 5.924,-4.548 5.935,-5.967 -0.745,0.86 -1.969,2.022 -3.999,3.596 z"
   id="path86" />

			</g>

			
				<line
   style="fill:none;stroke:#ffffff;stroke-width:0.9942;stroke-linecap:round;stroke-miterlimit:10"
   x1="79.338997"
   y1="224.354"
   x2="81.134003"
   y2="225.368"
   id="line86" />

			
				<line
   style="fill:none;stroke:#ffffff;stroke-width:0.9942;stroke-linecap:round;stroke-miterlimit:10"
   x1="80.933998"
   y1="223.04401"
   x2="83.116997"
   y2="224.354"
   id="line87" />

			
				<line
   style="fill:none;stroke:#ffffff;stroke-width:0.9942;stroke-linecap:round;stroke-miterlimit:10"
   x1="82.801003"
   y1="221.916"
   x2="85.101997"
   y2="223.04401"
   id="line88" />

		</g>

		<g
   id="g91">
			<g
   id="g89">
				<path
   style="fill:#abcff1"
   d="m 103.675,225.975 c -2.029,-1.574 -3.254,-2.736 -3.999,-3.596 -0.005,-0.575 0.166,-1.145 0.35,-1.816 3.458,1.9 4.498,0.896 4.498,0.896 3.237,1.02 6.998,4.864 7.059,6.458 0.018,0.47 0.091,1.077 0.016,1.59 -0.799,0.178 -3.139,0.178 -7.924,-3.532 z"
   id="path88" />

				<path
   style="fill:#d2e7fd"
   d="m 103.675,225.975 c 4.785,3.71 7.126,3.71 7.925,3.532 -0.179,1.225 -1.217,1.906 -5.988,-1.161 -4.816,-3.096 -5.924,-4.548 -5.935,-5.967 0.744,0.86 1.969,2.022 3.998,3.596 z"
   id="path89" />

			</g>

			
				<line
   style="fill:none;stroke:#ffffff;stroke-width:0.9942;stroke-linecap:round;stroke-miterlimit:10"
   x1="109.117"
   y1="224.354"
   x2="107.321"
   y2="225.368"
   id="line89" />

			
				<line
   style="fill:none;stroke:#ffffff;stroke-width:0.9942;stroke-linecap:round;stroke-miterlimit:10"
   x1="107.522"
   y1="223.04401"
   x2="105.338"
   y2="224.354"
   id="line90" />

			
				<line
   style="fill:none;stroke:#ffffff;stroke-width:0.9942;stroke-linecap:round;stroke-miterlimit:10"
   x1="105.654"
   y1="221.916"
   x2="103.353"
   y2="223.04401"
   id="line91" />

		</g>

	</g>
  </g>
</svg>
