<?xml version="1.0" encoding="UTF-8" standalone="no"?>
<!-- Created with Inkscape (http://www.inkscape.org/) -->

<svg
   width="22.832573mm"
   height="48.642342mm"
   viewBox="0 0 22.832574 48.642346"
   version="1.1"
   id="svg1"
   inkscape:version="1.4.2 (f4327f4, 2025-05-13)"
   sodipodi:docname="boy9.svg"
   xmlns:inkscape="http://www.inkscape.org/namespaces/inkscape"
   xmlns:sodipodi="http://sodipodi.sourceforge.net/DTD/sodipodi-0.dtd"
   xmlns="http://www.w3.org/2000/svg"
   xmlns:svg="http://www.w3.org/2000/svg">
  <sodipodi:namedview
     id="namedview1"
     pagecolor="#ffffff"
     bordercolor="#000000"
     borderopacity="0.25"
     inkscape:showpageshadow="2"
     inkscape:pageopacity="0.0"
     inkscape:pagecheckerboard="0"
     inkscape:deskcolor="#d1d1d1"
     inkscape:document-units="mm"
     inkscape:zoom="1.2275954"
     inkscape:cx="-4.0730032"
     inkscape:cy="-3.2584026"
     inkscape:window-width="2880"
     inkscape:window-height="1676"
     inkscape:window-x="-12"
     inkscape:window-y="-12"
     inkscape:window-maximized="1"
     inkscape:current-layer="layer1" />
  <defs
     id="defs1">
    <clipPath
       clipPathUnits="userSpaceOnUse"
       id="clipPath119">
      <path
         d="m 2429.58,8528.87 v 0 l -1.54,4.27 c 7.66,35.49 -15.79,67.53 -15.79,67.53 10.47,20.59 15.22,39.01 16.15,55.3 95.03,81.21 245.93,222.7 239.94,298.46 -6.68,84.06 -297.09,299.7 -435.14,397.71 -1.96,12.33 -3.87,24.38 -5.72,36.02 -4.67,29.42 -8.97,56.5 -12.82,80.63 v 0 c 0,0 399.66,-281.36 528.14,-436.13 0,0 44.89,-42.39 44.81,-102.96 0,-4.99 -0.32,-10.11 -0.98,-15.34 -8.76,-68.62 -357.05,-385.49 -357.05,-385.49"
         transform="translate(0,2.5000001e-4)"
         id="path119" />
    </clipPath>
    <clipPath
       clipPathUnits="userSpaceOnUse"
       id="clipPath299">
      <path
         d="m 6622.23,11070.3 c 4.28,3.8 8.4,7.9 12.38,12.2 -0.48,-0.6 -0.96,-1.2 -1.45,-1.8 -3.23,-3.4 -6.57,-6.6 -10.01,-9.8 -0.22,-0.1 -0.44,-0.3 -0.66,-0.4 l -0.26,-0.2"
         transform="translate(0,2.5000001e-4)"
         id="path299" />
    </clipPath>
    <clipPath
       clipPathUnits="userSpaceOnUse"
       id="clipPath602">
      <path
         d="m 4237.98,3522.14 c 0,0 0,0.01 0,0.02 0,-0.01 0,-0.01 0,-0.02 m 0.01,0.2 c 0,0.1 0.01,0.2 0.01,0.3 0,-0.1 -0.01,-0.2 -0.01,-0.3"
         transform="translate(0,2.5000001e-4)"
         id="path602" />
    </clipPath>
  </defs>
  <g
     inkscape:label="图层 1"
     inkscape:groupmode="layer"
     id="layer1"
     transform="translate(-105.5686,-339.19559)">
    <g
       id="g119"
       transform="matrix(0.26458333,0,0,0.26458333,65.285921,326.84061)">
		<path
   style="fill:#e9a680"
   d="m 163.541,97.71 c 0,0 -14.343,-35.162 22.792,-51.014 6.458,12.329 36.841,7.486 40.804,35.226 3.963,27.741 -11.302,29.502 -11.302,29.502 z"
   id="path92" />

		<path
   style="fill:#ead7a2"
   d="m 199.478,65.319 h -10.019 c -16.663,0 -29.288,21.987 -25.144,38.127 2.453,9.557 10.439,17.558 30.304,17.558 22.642,0 29.66,-10.395 30.628,-21.64 1.284,-14.939 -10.775,-34.045 -25.769,-34.045 z"
   id="path93" />

		<rect
   x="190.23"
   y="118.674"
   style="fill:#ead7a2"
   width="8.3999996"
   height="8.6520004"
   id="rect93" />

		<path
   style="fill:#ead7a2"
   d="M 209.398,140.028 C 209.398,123.271 194.43,123 194.43,123 c 0,0 -14.968,0.27 -14.968,17.028 0,16.758 -15.201,44.552 14.968,44.552 30.169,0 14.968,-27.794 14.968,-44.552 z"
   id="path94" />

		<path
   style="fill:#e9a680"
   d="m 173.503,59.53 c 0,0 -2.685,31.102 50.277,18.525 0,-0.001 -8.676,-24.815 -50.277,-18.525 z"
   id="path95" />

		<path
   style="fill:#e9a680"
   d="m 195.928,103.17 c 0,0 -0.846,5.592 3.567,4.357 4.413,-1.235 0.191,-6.004 0.191,-6.004"
   id="path96" />

		<g
   id="g107">
			<g
   id="g97">
				<circle
   style="fill:#ffffff"
   cx="181.50101"
   cy="93.889"
   r="3.4489999"
   id="circle96" />

				<path
   style="fill:#5e4f44"
   d="m 179.097,93.889 c 0,1.328 1.076,2.404 2.404,2.404 1.328,0 2.404,-1.076 2.404,-2.404 0,-1.328 -1.076,-2.404 -2.404,-2.404 -1.328,0 -2.404,1.076 -2.404,2.404 z"
   id="path97" />

			</g>

			<g
   id="g99">
				<path
   style="fill:#ffffff"
   d="m 210.555,93.889 c 0,1.905 -1.544,3.449 -3.45,3.449 -1.905,0 -3.449,-1.544 -3.449,-3.449 0,-1.905 1.544,-3.449 3.449,-3.449 1.905,-0.001 3.45,1.544 3.45,3.449 z"
   id="path98" />

				<path
   style="fill:#5e4f44"
   d="m 204.701,93.889 c 0,1.328 1.076,2.404 2.404,2.404 1.328,0 2.404,-1.076 2.404,-2.404 0,-1.328 -1.076,-2.404 -2.404,-2.404 -1.327,0 -2.404,1.076 -2.404,2.404 z"
   id="path99" />

			</g>

			<path
   style="fill:#ead7a2"
   d="m 169.374,98.853 c 0,3.233 -2.621,5.853 -5.853,5.853 -3.233,0 -5.853,-2.621 -5.853,-5.853 0,-3.233 2.621,-5.853 5.853,-5.853 3.232,-0.001 5.853,2.62 5.853,5.853 z"
   id="path100" />

			<path
   style="fill:#dbc690"
   d="m 191.195,98.853 h 5.554 c 0,0 -0.288,-2.56 -2.777,-2.56 -2.488,0 -2.777,2.56 -2.777,2.56 z"
   id="path101" />

			<path
   style="fill:none;stroke:#e48878;stroke-width:0.9942;stroke-miterlimit:10"
   d="m 178.052,88.253 c 0,0 2.086,-2.197 6.899,-2.197"
   id="path102" />

			<path
   style="fill:none;stroke:#e48878;stroke-width:0.9942;stroke-miterlimit:10"
   d="m 210.555,88.253 c 0,0 -2.086,-2.197 -6.899,-2.197"
   id="path103" />

			<path
   style="fill:#dbc690"
   d="m 166.098,98.853 c 0,1.423 -1.154,2.577 -2.577,2.577 -1.423,0 -2.577,-1.154 -2.577,-2.577 0,-1.424 1.154,-2.577 2.577,-2.577 1.423,-10e-4 2.577,1.153 2.577,2.577 z"
   id="path104" />

			<path
   style="fill:#ead7a2"
   d="m 231.193,98.853 c 0,3.233 -2.621,5.853 -5.853,5.853 -3.233,0 -5.853,-2.621 -5.853,-5.853 0,-3.233 2.621,-5.853 5.853,-5.853 3.233,-0.001 5.853,2.62 5.853,5.853 z"
   id="path105" />

			<path
   style="fill:#dbc690"
   d="m 227.917,98.853 c 0,1.423 -1.154,2.577 -2.577,2.577 -1.423,0 -2.577,-1.154 -2.577,-2.577 0,-1.424 1.154,-2.577 2.577,-2.577 1.423,-10e-4 2.577,1.153 2.577,2.577 z"
   id="path106" />

			<circle
   style="fill:#e9b9c9"
   cx="176.04201"
   cy="97.874001"
   r="1.901"
   id="circle106" />

			<path
   style="fill:#e9b9c9"
   d="m 213.803,97.874 c 0,1.05 -0.851,1.901 -1.9,1.901 -1.05,0 -1.901,-0.851 -1.901,-1.901 0,-1.05 0.851,-1.9 1.901,-1.9 1.049,0 1.9,0.851 1.9,1.9 z"
   id="path107" />

		</g>

		<path
   style="fill:none;stroke:#e48878;stroke-width:0.9942;stroke-miterlimit:10"
   d="m 190.23,103.512 c 0,0 5.013,1.76 10.583,-2.791"
   id="path108" />

		
			<line
   style="fill:none;stroke:#e48878;stroke-width:0.9942;stroke-miterlimit:10"
   x1="199.283"
   y1="99.775002"
   x2="201.894"
   y2="102.284"
   id="line108" />

		<path
   style="fill:#ead7a2"
   d="m 195.864,123 c 0,0 9.006,-0.222 21.34,11.354 12.334,11.577 13.308,-0.541 13.308,-0.541 l 3.246,1.406 c 0,0 -2.164,15.58 -16.229,7.249 -14.065,-8.331 -16.337,-8.98 -16.337,-8.98"
   id="path109" />

		<path
   style="fill:#ead7a2"
   d="m 199.283,123.93 c 0,0 -11.227,-3.981 -27.838,-0.785 -16.611,3.196 -10.96,-7.567 -10.96,-7.567 l -3.495,-0.545 c 0,0 -6.495,14.326 9.846,14.798 16.34,0.472 18.116,2.986 18.116,2.986"
   id="path110" />

		<g
   id="g112">
			<polygon
   style="fill:#ead7a2"
   points="207.559,220.235 207.679,221.074 212.401,220.012 213.228,173.913 194.43,178.288 "
   id="polygon110" />

			<path
   style="fill:#33527b"
   d="m 212.389,220.673 0.012,-0.662 -4.722,1.062 0.221,1.547 c 0,0 10.875,11.229 11.154,6.908 0.28,-4.321 -6.665,-8.855 -6.665,-8.855 z"
   id="path111" />

			<path
   style="fill:#33527b"
   d="m 190.048,221.58 c -1.283,0.7 -7.036,4.062 -6.788,7.904 0.28,4.322 11.17,-6.006 11.17,-6.006 l -0.017,-1.315 h 0.017 v -1.295 h -4.605 z"
   id="path112" />

			<polygon
   style="fill:#ead7a2"
   points="176.498,178.288 189.825,220.868 194.43,220.868 194.43,181.233 "
   id="polygon112" />

		</g>

		<path
   style="fill:#d2695c"
   d="m 174.523,163.627 c 0,0 1.204,33.982 14.17,53.626 2.921,0.465 5.843,0 5.843,0 l 1.327,-32.694 10.573,32.091 c 0,0 3.01,1.324 6.031,-0.369 3.021,-22.046 0.76,-50.354 0.76,-50.354 z"
   id="path113" />

		<path
   style="fill:#ead7a2"
   d="m 157.32,117.568 c 1.932,0.252 3.841,-0.804 4.718,-2.544 0.312,-0.619 0.575,-1.397 0.716,-2.367 0.552,-3.791 -0.102,-3.623 -0.613,-3.599 -0.511,0.023 -1.184,1.011 -1.267,3.463 -0.78,-6.081 -0.915,-7.188 -2.059,-7.069 -1.162,0.121 -0.44,5.586 -0.44,5.586 0,0 -1.265,-5.474 -2.064,-5.747 -0.799,-0.273 -1.361,0.705 -0.862,2.514 0.499,1.809 0.876,3.497 0.876,3.497 0,0 -1.458,-4.529 -2.281,-4.678 -0.72,-0.13 -1.37,0.447 -0.367,2.936 0.556,1.379 1.008,2.42 1.008,2.42 0,0 -1.387,-2.859 -2.077,-2.555 -0.671,0.295 -0.471,1.658 1.208,4.961 0.315,0.619 0.684,1.216 1.134,1.745 0.714,0.841 1.43,1.314 2.37,1.437 z"
   id="path114" />

		<path
   style="fill:#ead7a2"
   d="m 233.477,136.247 c -1.932,0.252 -3.841,-0.804 -4.718,-2.544 -0.312,-0.619 -0.575,-1.396 -0.716,-2.367 -0.552,-3.791 0.102,-3.623 0.613,-3.599 0.511,0.024 1.184,1.011 1.267,3.463 0.78,-6.081 0.916,-7.188 2.059,-7.069 1.162,0.121 0.44,5.586 0.44,5.586 0,0 1.265,-5.474 2.064,-5.747 0.799,-0.274 1.361,0.705 0.862,2.514 -0.499,1.809 -0.876,3.497 -0.876,3.497 0,0 1.458,-4.529 2.281,-4.678 0.719,-0.13 1.37,0.447 0.366,2.936 -0.556,1.379 -1.008,2.42 -1.008,2.42 0,0 1.387,-2.859 2.077,-2.555 0.67,0.295 0.47,1.658 -1.208,4.961 -0.315,0.619 -0.684,1.216 -1.133,1.745 -0.715,0.842 -1.43,1.314 -2.37,1.437 z"
   id="path115" />

		<path
   style="fill:#abcff1"
   d="m 174.225,165.66 -0.311,2.116 c 0,0 18.406,4.622 40.897,0.054 -0.085,-0.787 -0.173,-1.559 -0.263,-2.324 -21.043,4.103 -36.856,0.96 -40.323,0.154 z"
   id="path116" />

		<g
   id="g118">
			<path
   style="fill:#33527b"
   d="m 212.959,140.875 1.852,-9.524 c 0,0 -6.07,-7.035 -14.194,-8.183 -0.388,1.489 -1.555,3.656 -5.095,3.656 -5.378,0 -6.874,-5.007 -6.88,-5.028 -2.676,-0.571 -8.37,-1.371 -14.118,0.471 l 1.109,10.237 3.496,-0.204 -4.904,33.36 c 3.467,0.807 19.28,3.95 40.323,-0.154 -1.784,-15.217 -4.408,-25.933 -4.408,-25.933 z"
   id="path117" />

			<path
   style="fill:#abcff1"
   d="m 195.522,126.823 c 3.54,0 4.707,-2.166 5.095,-3.656 l -1.987,-0.509 c -4.001,5.462 -8.4,-0.931 -8.4,-0.931 l -1.589,0.068 c 0.007,0.021 1.503,5.028 6.881,5.028 z"
   id="path118" />

		</g>

	</g>
  </g>
</svg>
