<?xml version="1.0" encoding="UTF-8" standalone="no"?>
<!-- Created with Inkscape (http://www.inkscape.org/) -->

<svg
   width="36.694675mm"
   height="52.15546mm"
   viewBox="0 0 36.694675 52.155461"
   version="1.1"
   id="svg1"
   inkscape:version="1.4.2 (f4327f4, 2025-05-13)"
   sodipodi:docname="girl1.svg"
   xmlns:inkscape="http://www.inkscape.org/namespaces/inkscape"
   xmlns:sodipodi="http://sodipodi.sourceforge.net/DTD/sodipodi-0.dtd"
   xmlns="http://www.w3.org/2000/svg"
   xmlns:svg="http://www.w3.org/2000/svg">
  <sodipodi:namedview
     id="namedview1"
     pagecolor="#ffffff"
     bordercolor="#000000"
     borderopacity="0.25"
     inkscape:showpageshadow="2"
     inkscape:pageopacity="0.0"
     inkscape:pagecheckerboard="0"
     inkscape:deskcolor="#d1d1d1"
     inkscape:document-units="mm"
     inkscape:zoom="1.2275954"
     inkscape:cx="98.566678"
     inkscape:cy="17.106613"
     inkscape:window-width="2880"
     inkscape:window-height="1676"
     inkscape:window-x="-12"
     inkscape:window-y="-12"
     inkscape:window-maximized="1"
     inkscape:current-layer="layer1" />
  <defs
     id="defs1" />
  <g
     inkscape:label="图层 1"
     inkscape:groupmode="layer"
     id="layer1"
     transform="translate(-78.845831,-143.93334)">
    <g
       id="g101"
       transform="matrix(0.26458333,0,0,0.26458333,31.914607,137.05338)">
		<path
   style="fill:#61474e"
   d="m 282.86,108.897 c -3.982,5.231 -8.52,8.916 -13.124,11.496 4.205,0.446 7.93,1.099 11.142,1.958 0.405,-1.846 1.411,-6.877 1.982,-13.454 z"
   id="path52" />

		<path
   style="fill:#61474e"
   d="m 223.853,121.201 c -4.512,-2.021 -8.696,-4.619 -12.346,-7.709 1.009,3.055 2.375,6.129 4.171,9.181 1.089,-0.161 3.792,-0.546 7.579,-0.989 0.2,-0.164 0.398,-0.324 0.596,-0.483 z"
   id="path53" />

		<path
   style="fill:#ffe0bb"
   d="m 277.05,143.789 c -2.367,1.525 -5.427,2.634 -8.01,3.38 0.873,1.862 1.842,3.774 2.798,5.656 3.261,6.418 6.077,11.962 4.565,14.553 -1.051,1.803 -1.396,3.703 -0.945,5.216 0.236,0.793 0.685,1.404 1.233,1.678 h 0.001 c 0.581,0 1.897,-1.904 2.459,-2.717 0.947,-1.372 1.47,-2.127 2.216,-2.127 0.382,0 0.719,0.218 0.902,0.584 0.727,1.457 -0.233,3.359 -1.689,6.239 l -0.464,0.921 c -0.213,0.426 -0.426,0.83 -0.627,1.207 -0.49,0.926 -1.16,2.195 -0.988,2.51 0.006,0.011 0.16,0.271 1.291,0.375 2.953,0.253 7.442,-4.983 7.442,-9.67 0,-2.891 -1.126,-4.453 -2.319,-6.107 -0.851,-1.18 -1.73,-2.399 -2.258,-4.115 -1.455,-4.733 -3.826,-12.092 -5.607,-17.583 z"
   id="path54" />

		<path
   style="fill:#ee4637"
   d="m 261.86,123.817 c 1.156,5.31 2.649,13.886 4.053,22.532 3.676,-0.856 10.642,-2.867 12.822,-6.202 0.59,-0.903 0.759,-1.819 0.514,-2.797 -1.064,-4.255 -8.127,-10.603 -13.558,-14.967 -1.287,0.552 -2.567,1.026 -3.831,1.434 z"
   id="path55" />

		<path
   style="fill:#ffe0bb"
   d="m 213.547,143.789 c -1.782,5.49 -4.152,12.85 -5.608,17.583 -0.528,1.715 -1.407,2.935 -2.258,4.115 -1.192,1.654 -2.318,3.216 -2.318,6.107 0,4.581 4.317,9.679 7.241,9.679 0.068,0 0.135,-0.003 0.203,-0.009 1.131,-0.104 1.284,-0.364 1.289,-0.375 0.172,-0.316 -0.499,-1.583 -0.988,-2.509 -0.201,-0.379 -0.414,-0.781 -0.627,-1.209 l -0.464,-0.921 c -1.455,-2.88 -2.416,-4.782 -1.689,-6.238 0.183,-0.367 0.52,-0.585 0.902,-0.585 0.747,0 1.269,0.755 2.217,2.127 0.562,0.814 1.88,2.721 2.446,2.721 0.561,-0.278 1.011,-0.89 1.247,-1.683 0.45,-1.512 0.105,-3.412 -0.946,-5.215 -1.512,-2.591 1.305,-8.135 4.567,-14.554 0.956,-1.882 1.924,-3.793 2.798,-5.655 -2.585,-0.745 -5.646,-1.854 -8.012,-3.379 z"
   id="path56" />

		<path
   style="fill:#ee4637"
   d="m 224.961,146.415 c 1.582,-9.624 3.008,-18.055 3.894,-23.25 -1.133,-0.382 -2.245,-0.812 -3.346,-1.264 -5.496,4.367 -13.058,11.035 -14.161,15.449 -0.245,0.978 -0.077,1.894 0.514,2.797 2.233,3.418 9.505,5.449 13.099,6.268 z"
   id="path57" />

		<path
   style="fill:#faab23"
   d="m 262.762,214.921 c -2.276,0.074 -4.656,0.1 -6.884,0.1 -10e-4,0 -10e-4,0 -0.002,0 -0.383,0 -2.892,-0.004 -6.47,-0.089 -0.467,1.275 -0.781,4.611 -0.121,5.844 0.467,0.283 2.971,0.777 9.48,0.777 h 0.001 c 4.506,0 9.032,-0.268 10.09,-0.599 0.047,-0.014 0.189,-0.059 0.12,-0.516 -0.243,-1.59 -2.536,-4.332 -6.214,-5.517 z"
   id="path58" />

		<path
   style="fill:#faab23"
   d="m 234.861,214.26 c -1.481,0 -2.846,0.045 -3.575,0.07 -0.283,0.009 -0.475,0.015 -0.551,0.015 -5.789,0 -9.561,4.026 -9.877,6.093 -0.07,0.457 0.073,0.502 0.12,0.516 1.057,0.331 5.583,0.599 10.09,0.599 6.509,0 9.013,-0.495 9.481,-0.777 0.687,-1.285 0.317,-4.884 -0.181,-6.019 -0.076,-0.041 -0.264,-0.121 -0.689,-0.204 -1.462,-0.081 -2.949,-0.179 -4.432,-0.292 -0.128,0 -0.251,-0.001 -0.386,-0.001 z"
   id="path59" />

		<path
   style="fill:#ee4637"
   d="m 267.538,168.126 c -19.299,-11.315 -29.245,-40.739 -29.658,-41.987 -0.086,-0.258 -0.019,-0.52 0.135,-0.72 -2.59,-0.418 -5.147,-1.015 -7.645,-1.782 -5.845,34.237 -13.478,82.119 -12.508,85.579 0.561,1.997 16.937,4.231 38.014,4.232 10.78,0 15.747,-0.664 16.574,-1.134 0.569,-1.759 -0.685,-16.181 -4.767,-44.149 -0.048,-0.016 -0.099,-0.012 -0.145,-0.039 z"
   id="path60" />

		<path
   style="fill:#ee4637"
   d="m 260.366,124.271 c -5.137,1.465 -9.921,1.87 -13.603,1.87 -0.002,0 -0.004,0 -0.006,0 -2.471,0 -4.943,-0.181 -7.394,-0.515 0.002,0.006 0.008,0.011 0.01,0.017 0.098,0.295 9.845,29.097 28.019,40.536 -0.024,-0.165 -0.047,-0.325 -0.072,-0.491 -2.623,-17.756 -5.329,-33.738 -6.954,-41.417 z"
   id="path61" />

		<path
   style="fill:#73545c"
   d="m 198.964,44.922 c 0.382,-2.16 1.811,-4.978 5.767,-8.093 2.022,-1.592 3.968,-2.516 5.802,-2.775 -1.494,-2.657 -4.701,-6.478 -10.793,-6.478 -1.598,0 -3.324,0.267 -5.133,0.795 -16.205,4.726 -13.106,28.308 -12.699,30.981 0.976,6.417 -0.78,11.285 -2.029,13.776 3.586,-1.357 10.873,-5.148 10.162,-13.392 -0.431,-4.994 0.788,-9.455 3.343,-12.239 1.536,-1.676 3.414,-2.597 5.288,-2.597 0.099,-10e-4 0.194,0.017 0.292,0.022 z"
   id="path62" />

		<path
   style="fill:#ee4637"
   d="m 202.466,50.34 c 0.878,-1.073 1.796,-2.119 2.78,-3.119 3.325,-3.381 7.171,-6.254 11.455,-8.611 -1.042,-1.466 -2.726,-3.065 -5.125,-3.065 -1.771,0 -3.746,0.848 -5.871,2.521 -4.048,3.187 -5.871,6.527 -5.134,9.403 0.31,1.213 1.021,2.173 1.895,2.871 z"
   id="path63" />

		<path
   style="fill:#73545c"
   d="m 288.713,36.829 c 3.956,3.115 5.385,5.933 5.767,8.093 0.098,-0.005 0.193,-0.023 0.292,-0.023 1.873,0 3.75,0.922 5.286,2.596 2.555,2.785 3.774,7.247 3.343,12.24 -0.711,8.244 6.577,12.035 10.163,13.392 -1.249,-2.492 -3.006,-7.359 -2.029,-13.776 0.406,-2.673 3.506,-26.254 -12.699,-30.981 -1.809,-0.527 -3.535,-0.795 -5.133,-0.795 -6.021,0 -9.252,3.828 -10.769,6.482 1.828,0.265 3.766,1.187 5.779,2.772 z"
   id="path64" />

		<path
   style="fill:#ee4637"
   d="m 276.702,38.668 c 4.185,2.427 8.018,5.386 11.349,8.842 0.939,0.974 1.819,1.983 2.662,3.013 0.991,-0.708 1.819,-1.723 2.16,-3.055 0.737,-2.877 -1.085,-6.216 -5.134,-9.403 -2.125,-1.673 -4.1,-2.521 -5.87,-2.521 -2.432,0 -4.128,1.642 -5.167,3.124 z"
   id="path65" />

		<path
   style="fill:#ffe0bb"
   d="m 283.085,105.876 c 0.758,-12.715 -0.459,-29.674 -9.96,-40.885 1.061,3.535 2.333,9.174 1.531,13.986 -0.06,0.359 -0.357,0.629 -0.718,0.656 -0.111,0.008 -11.151,0.825 -17.842,1.231 -0.418,0.036 -0.781,-0.28 -0.829,-0.695 l -0.727,-6.306 -1.621,6.609 c -0.086,0.351 -0.402,0.599 -0.764,0.599 -0.696,0 -17.122,-0.007 -23.441,-0.62 -0.39,-0.037 -0.692,-0.356 -0.71,-0.748 l -0.26,-5.825 -2.744,6.309 c -0.13,0.297 -0.406,0.518 -0.753,0.472 -0.536,-0.021 -5.273,-0.222 -6.571,-0.654 -0.244,-0.082 -0.433,-0.277 -0.506,-0.524 -0.068,-0.23 -1.329,-4.595 -1.243,-9.505 -3.383,6.868 -9.825,23.192 -5.273,40.645 9.217,8.733 22.691,13.946 36.103,13.948 0.001,0 0.003,0 0.005,0 9.16,0 25.367,-2.567 36.323,-18.693 z m -34.342,-5.992 c -0.326,-0.091 -0.229,-0.523 0.075,-0.555 1.078,-0.113 2.207,1.097 2.188,2.157 -0.022,1.257 -0.996,2.216 -2.217,2.43 -0.364,0.064 -0.663,-0.351 -0.375,-0.643 0.46,-0.466 1.421,-0.791 1.597,-1.475 0.236,-0.914 -0.417,-1.676 -1.268,-1.914 z m 7.199,9.188 c 0.42,-0.243 0.879,0.334 0.521,0.675 -4.763,4.551 -12.446,4.003 -17.385,0.129 -0.221,-0.173 0.062,-0.512 0.293,-0.38 2.557,1.466 5.392,2.685 8.411,2.513 3.157,-0.179 5.488,-1.396 8.16,-2.937 z m 8.563,-19.467 c 2.003,0 3.627,1.095 3.627,2.447 0,1.351 -1.624,2.447 -3.627,2.447 -2.003,0 -3.627,-1.096 -3.627,-2.447 0,-1.351 1.624,-2.447 3.627,-2.447 z m -35.263,0 c 2.003,0 3.627,1.095 3.627,2.447 0,1.351 -1.624,2.447 -3.627,2.447 -2.003,0 -3.627,-1.096 -3.627,-2.447 0.001,-1.351 1.624,-2.447 3.627,-2.447 z"
   id="path66" />

		<path
   style="fill:#73545c"
   d="m 193.5,85.566 c 1.439,24.464 14.675,33.611 19.897,36.285 -14.762,-27.349 2.859,-55.838 3.044,-56.13 0.203,-0.322 0.606,-0.449 0.957,-0.31 0.352,0.14 0.554,0.513 0.479,0.885 -1.006,5.027 0.282,10.723 0.688,12.311 1.087,0.206 3.493,0.376 5.209,0.457 l 3.884,-8.932 c 0.144,-0.336 0.5,-0.529 0.864,-0.46 0.359,0.067 0.626,0.373 0.642,0.738 l 0.38,8.535 c 5.946,0.483 19.003,0.544 21.994,0.551 l 2.517,-10.263 c 0.091,-0.369 0.426,-0.643 0.813,-0.597 0.38,0.024 0.688,0.317 0.732,0.694 l 1.144,9.917 c 5.761,-0.358 14.109,-0.966 16.448,-1.138 0.879,-6.99 -2.67,-15.887 -2.707,-15.978 -0.138,-0.343 -0.02,-0.735 0.285,-0.944 0.305,-0.208 0.713,-0.177 0.983,0.077 18.091,17.015 12.96,50.216 11.034,59.713 4.525,-4.641 15.941,-18.453 16.746,-40.313 0.433,-11.787 -4.047,-23.174 -12.615,-32.063 -9.819,-10.187 -24.051,-16.03 -39.046,-16.03 -1.279,0 -2.58,0.043 -3.865,0.126 -32.448,2.108 -52.272,22.859 -50.507,52.869 z"
   id="path67" />

		<path
   style="fill:#ffffff"
   d="m 227.615,92.686 c 0.531,0 0.961,-0.43 0.961,-0.961 0,-0.531 -0.43,-0.961 -0.961,-0.961 -0.531,0 -0.961,0.43 -0.961,0.961 -0.001,0.531 0.43,0.961 0.961,0.961 z"
   id="path68" />

		<path
   style="fill:#ffffff"
   d="m 262.877,92.686 c 0.531,0 0.961,-0.43 0.961,-0.961 0,-0.531 -0.43,-0.961 -0.961,-0.961 -0.531,0 -0.961,0.43 -0.961,0.961 0,0.531 0.43,0.961 0.961,0.961 z"
   id="path69" />

		<path
   style="fill:#f16559"
   d="m 267.52,97.842 c -0.975,-0.051 -1.642,0.775 -2.259,1.423 -0.486,0.51 -1.421,1.261 -1.431,2.007 -0.006,0.428 0.284,0.716 0.656,0.861 0.737,0.288 1.654,-0.581 2.16,-1.015 0.676,-0.579 1.588,-1.129 1.821,-2.032 0.167,-0.642 -0.306,-1.21 -0.947,-1.244 z"
   id="path70" />

		<path
   style="fill:#f16559"
   d="m 271.412,99.418 c -1.241,-0.216 -2.125,0.841 -2.906,1.67 -0.826,0.877 -1.601,1.817 -2.302,2.797 -0.408,0.57 0.404,1.391 0.975,0.975 0.901,-0.656 1.669,-1.452 2.498,-2.193 0.767,-0.685 1.993,-1.193 2.317,-2.22 0.129,-0.404 -0.144,-0.953 -0.582,-1.029 z"
   id="path71" />

		<path
   style="fill:#f16559"
   d="m 272.412,102.031 c -0.296,0.123 -0.591,0.243 -0.872,0.397 -0.287,0.157 -0.521,0.498 -0.744,0.733 -0.51,0.537 -1.013,1.082 -1.474,1.663 -0.527,0.664 0.278,1.504 0.939,0.938 0.511,-0.437 1.055,-0.828 1.598,-1.224 0.279,-0.203 0.549,-0.42 0.819,-0.635 0.285,-0.228 0.428,-0.728 0.55,-1.056 0.166,-0.444 -0.36,-1.006 -0.816,-0.816 z"
   id="path72" />

		<path
   style="fill:#f16559"
   d="m 226.199,98.987 c -0.673,-1.644 -2.274,-0.249 -2.921,0.396 -0.52,0.518 -1.149,1.043 -1.552,1.656 -0.416,0.632 0.265,1.335 0.916,1.192 0.639,-0.14 1.153,-0.635 1.655,-1.028 0.534,-0.418 1.182,-0.737 1.644,-1.234 0.223,-0.243 0.393,-0.652 0.258,-0.982 z"
   id="path73" />

		<path
   style="fill:#f16559"
   d="m 227.456,99.974 c -0.956,0.362 -1.699,0.957 -2.5,1.578 -0.833,0.646 -1.713,1.319 -2.452,2.071 -0.53,0.54 0.136,1.277 0.765,0.991 0.867,-0.395 1.673,-0.946 2.49,-1.436 0.889,-0.533 1.795,-1.075 2.479,-1.862 0.477,-0.55 0.033,-1.651 -0.782,-1.342 z"
   id="path74" />

		<path
   style="fill:#f16559"
   d="m 227.967,102.548 c -0.472,0.15 -0.819,0.314 -1.215,0.61 -0.366,0.274 -0.738,0.535 -1.095,0.821 -0.671,0.538 0.05,1.752 0.845,1.452 0.865,-0.327 1.707,-0.735 2.294,-1.459 0.496,-0.61 0.057,-1.705 -0.829,-1.424 z"
   id="path75" />

		<path
   style="fill:#ffffff"
   d="m 230.281,213.336 c -4.114,0.572 -9.722,2.791 -9.93,7.663 -0.036,0.847 1.187,1.164 1.588,0.43 1.035,-1.896 1.797,-3.328 3.773,-4.384 1.696,-0.906 3.533,-1.287 5.106,-2.437 0.661,-0.483 0.248,-1.381 -0.537,-1.272 z"
   id="path76" />

		<path
   style="fill:#ffffff"
   d="m 266.683,216.655 c -1.186,-0.979 -2.797,-2.091 -4.315,-2.455 -0.269,-0.065 -0.576,0.245 -0.388,0.505 1.648,2.294 4.486,3.393 5.257,6.318 0.31,1.177 1.924,0.839 2.016,-0.273 0.138,-1.67 -1.405,-3.133 -2.57,-4.095 z"
   id="path77" />

		<path
   style="fill:#ffffff"
   d="m 211.516,179.97 c -5.644,-2.324 -9.279,-8.334 -4.309,-13.622 1.501,-1.597 1.94,-3.404 2.369,-5.51 1.187,-5.815 4.59,-10.774 4.443,-16.919 -0.016,-0.669 -0.945,-0.637 -1.016,0 -0.52,4.695 -3.006,8.977 -4.709,13.305 -0.866,2.2 -1.111,4.653 -2.111,6.787 -0.689,1.471 -2.234,2.631 -2.997,4.155 -2.923,5.836 2.726,11.593 7.529,13.706 1.382,0.608 2.192,-1.329 0.801,-1.902 z"
   id="path78" />

		<path
   style="fill:#ffffff"
   d="m 282.377,159.343 c -1.704,-5.053 -2.78,-10.447 -4.942,-15.324 -0.067,-0.151 -0.259,-0.051 -0.275,0.074 -0.671,5.371 1.424,12.819 3.676,17.668 1.806,3.889 5.009,6.729 4.212,11.394 -0.274,1.605 -2.823,8.047 -5.497,6.793 -1.135,-0.532 -2.08,1.014 -0.992,1.698 4.647,2.923 8.872,-6.225 8.929,-9.666 0.081,-4.925 -3.595,-8.141 -5.111,-12.637 z"
   id="path79" />

		<path
   style="fill:#ffffff"
   d="m 225.588,121.551 c -5.042,3.603 -9.918,7.232 -13.477,12.376 -1.825,2.638 -3.578,7.148 0.53,8.52 0.595,0.198 1.134,-0.669 0.63,-1.082 -5.881,-4.818 11.067,-16.111 13.538,-18.231 0.865,-0.742 -0.29,-2.249 -1.221,-1.583 z"
   id="path80" />

		<path
   style="fill:#ffffff"
   d="m 265.91,122.283 c -0.306,-0.294 -0.884,-0.005 -0.739,0.43 2.157,6.492 15.443,10.194 11.763,18.409 -0.538,1.2 1.09,2.224 1.797,1.05 4.907,-8.149 -8.091,-15.334 -12.821,-19.889 z"
   id="path81" />

		<path
   style="fill:#ffffff"
   d="m 225.766,149.687 c -0.04,-0.38 -0.652,-0.541 -0.724,-0.098 -1.513,9.313 -3.018,18.466 -3.852,27.868 -0.963,10.858 -3.615,21.379 -3.235,32.355 0.044,1.261 1.883,1.252 1.95,0 0.55,-10.307 2.337,-20.312 3.453,-30.543 0.592,-5.427 0.876,-10.848 1.612,-16.265 0.6,-4.411 1.268,-8.867 0.796,-13.317 z"
   id="path82" />

		<path
   style="fill:#ffffff"
   d="m 272.835,212.168 c -1.114,-3.544 -0.592,-7.669 -0.706,-11.356 -0.118,-3.83 -0.642,-7.652 -1.145,-11.447 -0.946,-7.142 -2.592,-14.147 -3.273,-21.326 -0.065,-0.69 -1.033,-0.702 -1.081,0 -0.535,7.708 1.561,15.582 2.559,23.186 0.505,3.849 0.828,7.697 0.94,11.577 0.095,3.3 -0.416,6.759 0.779,9.897 l 0.015,-0.015 c 0.366,1.193 2.309,0.746 1.912,-0.516 z"
   id="path83" />

		<path
   style="fill:#faab23"
   d="m 235.884,127.808 c -0.826,0 -1.769,0.76 -1.663,1.663 0.002,0.015 0.004,0.031 0.005,0.046 0.106,0.897 0.674,1.657 1.657,1.657 0.983,0 1.552,-0.76 1.657,-1.657 0.002,-0.015 0.003,-0.031 0.005,-0.046 0.108,-0.903 -0.835,-1.663 -1.661,-1.663 z"
   id="path84" />

		<path
   style="fill:#faab23"
   d="m 240.603,139.518 c -0.826,0 -1.769,0.76 -1.663,1.663 0.002,0.015 0.003,0.031 0.005,0.046 0.106,0.897 0.674,1.657 1.657,1.657 0.983,0 1.551,-0.76 1.657,-1.657 0.002,-0.015 0.004,-0.03 0.005,-0.046 0.108,-0.902 -0.835,-1.663 -1.661,-1.663 z"
   id="path85" />

		<path
   style="fill:#faab23"
   d="m 248.643,152.977 c -0.826,0 -1.769,0.76 -1.663,1.663 0.002,0.015 0.004,0.031 0.005,0.046 0.106,0.897 0.674,1.657 1.657,1.657 0.983,0 1.551,-0.76 1.657,-1.657 0.002,-0.015 0.003,-0.031 0.005,-0.046 0.108,-0.903 -0.835,-1.663 -1.661,-1.663 z"
   id="path86" />

		<path
   style="fill:#faab23"
   d="m 260.878,165.561 c -0.826,0 -1.769,0.76 -1.663,1.663 0.002,0.015 0.004,0.031 0.005,0.046 0.106,0.897 0.674,1.657 1.657,1.657 0.983,0 1.552,-0.76 1.657,-1.657 0.002,-0.015 0.004,-0.031 0.005,-0.046 0.108,-0.902 -0.835,-1.663 -1.661,-1.663 z"
   id="path87" />

		<path
   style="fill:#ffffff"
   d="m 292.682,42.036 c -1.13,-1.75 -3.88,-5.505 -6.286,-5.344 -0.357,0.024 -0.602,0.466 -0.307,0.741 3.21,2.995 7.447,6.643 5.06,11.255 -0.322,0.065 -0.611,0.314 -0.564,0.673 0.021,0.159 0.041,0.317 0.062,0.476 0.092,0.707 1.044,1.422 1.635,0.677 1.975,-2.49 2.113,-5.826 0.4,-8.478 z"
   id="path88" />

		<path
   style="fill:#ffffff"
   d="m 314.207,72.588 c -3.952,-4.379 -1.793,-13.405 -1.624,-18.763 0.156,-4.922 -0.656,-10.268 -1.987,-15.005 -1.99,-7.084 -9.957,-11.785 -17.034,-12.073 -0.509,-0.021 -0.517,0.655 -0.111,0.821 4.145,1.689 8.182,3.274 11.632,6.212 4.432,3.774 4.665,11.113 5.223,16.439 0.719,6.869 -2.853,18.076 2.811,23.459 0.725,0.687 1.754,-0.355 1.09,-1.09 z"
   id="path89" />

		<path
   style="fill:#ffffff"
   d="m 188.276,31.641 c -5.313,5.33 -7.265,11.562 -7.648,19.08 -0.383,7.537 2.096,15.479 -1.659,22.492 -0.289,0.539 0.388,1.057 0.836,0.645 4.445,-4.084 3.599,-10.96 3.173,-16.398 -0.33,-4.211 0.027,-7.924 0.777,-12.087 0.503,-2.792 0.556,-4.932 1.914,-7.563 0.987,-1.911 2.47,-3.571 3.531,-5.455 0.33,-0.582 -0.446,-1.194 -0.924,-0.714 z"
   id="path90" />

		<path
   style="fill:#ffffff"
   d="m 207.919,36.117 c -2.609,-0.207 -5.063,2.704 -6.146,4.818 -0.417,0.813 -0.672,1.671 -0.82,2.548 -0.284,-0.1 -0.668,0.06 -0.708,0.461 -0.1,0.999 0.085,1.927 0.372,2.881 0.228,0.755 0.361,1.775 0.807,2.465 0.081,0.277 0.162,0.554 0.255,0.823 0.355,1.031 1.99,0.596 1.643,-0.453 -0.859,-2.597 -0.981,-5.193 0.161,-7.725 1.076,-2.387 3.418,-3.296 4.705,-5.35 0.134,-0.214 -0.045,-0.451 -0.269,-0.468 z"
   id="path91" />

		<path
   style="fill:#ffffff"
   d="m 299.54,73.408 c -0.875,-7.471 -3.575,-14.163 -8.307,-19.809 0.485,-0.206 0.76,-0.849 0.293,-1.327 -4.248,-4.344 -8.709,-8.992 -13.643,-12.555 -4.894,-3.534 -11.228,-5.224 -17.171,-6.047 -2.734,-0.596 -5.44,-1.349 -8.218,-1.668 -4.284,-0.491 -8.878,0.335 -13.192,0.361 -3.036,0.018 -5.821,0.382 -8.626,1.619 -2.341,1.032 -4.859,1.576 -7.257,2.397 -4.853,0.387 -9.179,4.36 -12.667,7.409 -5.286,4.622 -9.49,9.415 -12.347,15.872 -2.722,6.152 -5.245,12.003 -5.963,18.764 -0.381,3.585 0.246,7.133 0.698,10.676 0.366,2.867 1.64,5.97 1.596,8.85 -0.012,0.78 1.137,0.759 1.196,0 0.355,-4.552 -1.209,-9.605 -1.539,-14.2 -0.499,-6.949 1.728,-13.554 4.474,-19.806 5.023,-11.437 13.566,-21.82 25.687,-26.068 0.312,-0.109 0.485,-0.356 0.533,-0.62 5.238,-1.331 10.613,-2.58 15.897,-2.633 3.842,-0.039 7.664,-0.429 11.508,-0.413 3.289,0.014 5.992,1.847 9.297,1.243 0.113,-0.021 0.204,-0.07 0.284,-0.131 5.062,1.757 10.119,3.377 14.704,6.283 4.539,2.876 7.505,7.705 11.837,10.785 4.408,6.469 7.687,13.101 8.682,21.017 0.969,7.709 1.08,14.428 -0.426,22.075 -0.16,0.81 0.892,1.301 1.348,0.568 4.001,-6.43 2.149,-15.579 1.322,-22.642 z"
   id="path92" />

		<path
   style="fill:#ffffff"
   d="m 252.311,78.8 c -3.915,-0.751 -7.929,-0.273 -11.892,-0.559 -3.786,-0.273 -7.523,-0.955 -11.301,-0.316 -0.561,0.095 -0.356,0.865 0.124,0.917 7.592,0.834 15.427,2.638 23.069,1.206 0.622,-0.116 0.619,-1.129 0,-1.248 z"
   id="path93" />

		<path
   style="fill:#ffffff"
   d="m 272.662,75.974 c -5.061,1.47 -10.088,1.368 -15.279,1.798 -1.002,0.083 -1.002,1.473 0,1.557 5.178,0.431 10.864,0.312 15.832,-1.348 1.262,-0.422 0.745,-2.384 -0.553,-2.007 z"
   id="path94" />

		<path
   style="fill:#ffffff"
   d="m 223.824,78.46 c -1.832,-0.206 -4.139,-0.939 -5.935,-0.243 -0.053,0.008 -0.101,0.023 -0.147,0.051 -0.023,0.01 -0.048,0.014 -0.071,0.024 0.006,0.004 0.012,0.007 0.019,0.011 -0.328,0.259 -0.411,0.951 0.242,0.951 1.984,0 4.124,1.083 6.056,0.412 0.682,-0.236 0.518,-1.129 -0.164,-1.206 z"
   id="path95" />

		<path
   style="fill:#ffffff"
   d="m 282.356,104.799 c -2.141,3.287 -4.58,6.233 -7.49,8.865 -2.754,2.491 -6.11,3.977 -8.994,6.236 -0.305,0.239 0.036,0.647 0.343,0.589 7.355,-1.401 14.257,-8.478 17.23,-15.053 0.331,-0.732 -0.638,-1.33 -1.089,-0.637 z"
   id="path96" />

		<path
   style="fill:#573f45"
   d="m 215.011,124.276 c 0.001,0 0.002,0.001 0.004,0.001 0.001,0 0.008,0.003 0.008,0.003 0.078,0.024 0.159,0.037 0.238,0.037 0.04,0 0.081,-0.003 0.122,-0.009 0.063,-0.01 2.175,-0.336 5.655,-0.771 -4.967,4.25 -10.236,9.516 -11.215,13.433 -0.352,1.407 -0.109,2.766 0.724,4.039 0.425,0.65 0.993,1.252 1.661,1.808 -1.799,5.541 -4.271,13.208 -5.773,18.091 -0.452,1.469 -1.219,2.533 -2.031,3.658 -1.286,1.783 -2.616,3.627 -2.616,7.026 0,5.581 5.128,11.252 8.814,11.252 0.116,0 0.23,-0.005 0.345,-0.015 0.851,-0.078 2.039,-0.286 2.531,-1.192 0.572,-1.056 -0.114,-2.353 -0.982,-3.995 -0.195,-0.369 -0.403,-0.76 -0.609,-1.175 l -0.467,-0.928 c -0.707,-1.398 -1.351,-2.674 -1.627,-3.608 0.125,0.176 0.248,0.354 0.359,0.516 1.155,1.671 2.349,3.399 3.739,3.4 0.001,0 0.001,0 0.001,0 0.251,0 0.493,-0.057 0.718,-0.17 0.948,-0.475 1.672,-1.411 2.037,-2.637 0.574,-1.926 0.174,-4.28 -1.096,-6.456 -1.078,-1.851 1.944,-7.8 4.611,-13.049 1.004,-1.977 2.024,-3.987 2.936,-5.947 0.589,0.151 1.13,0.279 1.607,0.386 -4.182,25.509 -9.281,58.376 -8.357,61.666 0.492,1.756 4.808,2.937 10.413,3.734 -4.431,1.371 -7.148,4.788 -7.459,6.827 -0.168,1.105 0.294,1.969 1.206,2.254 1.408,0.44 6.378,0.671 10.559,0.671 9.907,0 10.529,-1.035 10.795,-1.478 0.945,-1.576 0.687,-5.142 0.138,-6.977 2.048,0.097 4.008,0.167 5.772,0.218 -0.506,1.886 -0.712,5.242 0.198,6.759 0.265,0.442 0.887,1.478 10.794,1.478 0,0 0,0 10e-4,0 4.18,0 9.149,-0.23 10.559,-0.671 0.912,-0.285 1.374,-1.149 1.206,-2.254 -0.231,-1.518 -1.8,-3.798 -4.409,-5.433 3.783,-0.23 6.795,-0.649 7.503,-1.385 1.658,-1.723 -1.63,-26.761 -4.681,-47.463 -0.735,-4.989 -1.724,-11.459 -2.778,-18.008 0.406,-0.094 0.855,-0.202 1.332,-0.324 0.913,1.961 1.933,3.971 2.937,5.949 2.666,5.249 5.688,11.197 4.61,13.047 -1.27,2.176 -1.669,4.531 -1.095,6.457 0.365,1.226 1.088,2.161 2.037,2.636 0.225,0.113 0.466,0.17 0.718,0.17 1.39,0 2.585,-1.729 3.739,-3.4 0.112,-0.162 0.234,-0.34 0.358,-0.515 -0.275,0.934 -0.921,2.21 -1.626,3.607 l -0.467,0.928 c -0.207,0.415 -0.415,0.806 -0.609,1.175 -0.868,1.642 -1.555,2.938 -0.982,3.995 0.492,0.906 1.681,1.114 2.533,1.192 0.113,0.01 0.228,0.015 0.344,0.015 3.686,0 8.814,-5.671 8.814,-11.252 0,-3.399 -1.329,-5.243 -2.616,-7.026 -0.812,-1.126 -1.579,-2.19 -2.031,-3.658 -1.502,-4.883 -3.974,-12.55 -5.773,-18.091 0.669,-0.556 1.237,-1.158 1.662,-1.809 0.833,-1.273 1.076,-2.632 0.724,-4.039 -1.121,-4.484 -7.863,-10.739 -13.34,-15.21 5.357,0.462 9.993,1.23 13.812,2.321 0.003,0.001 0.007,0 0.01,0.001 0.086,0.024 0.174,0.034 0.262,0.028 0.031,-0.002 0.059,-0.014 0.089,-0.02 0.055,-0.01 0.11,-0.021 0.162,-0.044 0.034,-0.015 0.063,-0.037 0.095,-0.056 0.033,-0.02 0.069,-0.034 0.1,-0.059 0.18,-0.151 18.113,-15.305 19.14,-43.21 0.383,-10.414 -2.94,-20.514 -9.417,-28.968 1.32,-0.976 2.311,-2.336 2.71,-3.895 0.097,-0.377 0.173,-0.827 0.196,-1.34 1.45,-0.059 3.023,0.641 4.306,2.041 2.258,2.46 3.327,6.485 2.935,11.041 -1.035,12.007 13.116,15.635 13.258,15.671 0.063,0.015 0.126,0.023 0.189,0.023 0.257,0 0.504,-0.128 0.652,-0.348 0.184,-0.274 0.177,-0.635 -0.017,-0.902 -0.042,-0.057 -4.142,-5.81 -2.826,-14.454 0.428,-2.813 3.676,-27.628 -13.813,-32.728 -1.952,-0.569 -3.827,-0.858 -5.573,-0.858 -7.361,0 -11.01,5.061 -12.518,8.016 -2.831,0.276 -4.738,2.196 -5.877,3.879 -9.312,-5.042 -20.252,-7.493 -31.404,-6.769 -9.655,0.626 -18.354,2.922 -25.794,6.732 -1.142,-1.674 -3.041,-3.568 -5.852,-3.842 -1.508,-2.955 -5.158,-8.016 -12.518,-8.016 -1.746,0 -3.621,0.289 -5.573,0.858 -17.489,5.1 -14.241,29.914 -13.813,32.728 1.315,8.645 -2.785,14.397 -2.826,14.454 -0.195,0.267 -0.202,0.628 -0.017,0.902 0.148,0.22 0.395,0.348 0.652,0.348 0.063,0 0.126,-0.007 0.188,-0.023 0.143,-0.036 14.293,-3.664 13.257,-15.671 -0.392,-4.556 0.677,-8.58 2.935,-11.041 1.284,-1.399 2.857,-2.1 4.306,-2.042 0.023,0.513 0.099,0.963 0.196,1.34 0.373,1.457 1.263,2.739 2.453,3.699 -7.044,9.228 -10.346,20.895 -9.57,34.101 1.847,31.386 22.674,38.487 23.082,38.62 z M 193.384,47.497 c -2.555,2.785 -3.774,7.246 -3.343,12.239 0.711,8.244 -6.576,12.035 -10.162,13.392 1.248,-2.492 3.005,-7.359 2.029,-13.776 -0.407,-2.673 -3.505,-26.254 12.699,-30.981 1.809,-0.527 3.535,-0.795 5.133,-0.795 6.092,0 9.299,3.821 10.793,6.478 -1.834,0.259 -3.78,1.183 -5.802,2.775 -3.956,3.115 -5.385,5.933 -5.767,8.093 -0.098,-0.005 -0.193,-0.023 -0.292,-0.023 -1.873,0 -3.751,0.922 -5.288,2.598 z m 12.32,-9.433 c 2.125,-1.673 4.101,-2.521 5.871,-2.521 2.4,0 4.083,1.599 5.125,3.065 -4.284,2.357 -8.129,5.23 -11.455,8.611 -0.984,1.001 -1.901,2.047 -2.78,3.119 -0.874,-0.697 -1.585,-1.657 -1.896,-2.872 -0.737,-2.875 1.086,-6.215 5.135,-9.402 z m 38.303,-5.366 c 1.285,-0.083 2.586,-0.126 3.865,-0.126 14.995,0 29.227,5.843 39.046,16.03 8.568,8.889 13.048,20.276 12.615,32.063 -0.805,21.86 -12.222,35.672 -16.746,40.313 1.926,-9.498 7.057,-42.698 -11.034,-59.713 -0.27,-0.254 -0.678,-0.285 -0.983,-0.077 -0.304,0.209 -0.423,0.601 -0.285,0.944 0.037,0.091 3.585,8.989 2.707,15.978 -2.339,0.172 -10.688,0.779 -16.448,1.138 L 255.6,69.331 c -0.044,-0.378 -0.352,-0.671 -0.732,-0.694 -0.387,-0.046 -0.722,0.228 -0.813,0.597 l -2.517,10.263 c -2.99,-0.007 -16.048,-0.068 -21.994,-0.551 l -0.38,-8.535 c -0.016,-0.366 -0.283,-0.672 -0.642,-0.738 -0.365,-0.07 -0.72,0.124 -0.864,0.46 l -3.884,8.932 c -1.715,-0.081 -4.122,-0.251 -5.209,-0.457 -0.407,-1.587 -1.694,-7.284 -0.688,-12.311 0.075,-0.372 -0.127,-0.745 -0.479,-0.885 -0.35,-0.138 -0.754,-0.011 -0.957,0.31 -0.184,0.292 -17.805,28.781 -3.044,56.13 -5.222,-2.674 -18.458,-11.821 -19.897,-36.285 -1.765,-30.011 18.059,-50.762 50.507,-52.869 z m 49.697,-5.122 c 1.598,0 3.324,0.267 5.133,0.795 16.205,4.726 13.105,28.308 12.699,30.981 -0.977,6.417 0.779,11.285 2.029,13.776 -3.586,-1.357 -10.874,-5.148 -10.163,-13.392 0.431,-4.994 -0.788,-9.456 -3.343,-12.24 -1.536,-1.674 -3.413,-2.596 -5.286,-2.596 -0.099,0 -0.194,0.018 -0.292,0.023 -0.382,-2.16 -1.811,-4.978 -5.767,-8.093 -2.013,-1.585 -3.95,-2.507 -5.777,-2.771 1.515,-2.654 4.746,-6.483 10.767,-6.483 z m -11.835,7.968 c 1.771,0 3.745,0.848 5.87,2.521 4.048,3.187 5.871,6.527 5.134,9.403 -0.341,1.332 -1.169,2.346 -2.16,3.055 -0.843,-1.03 -1.724,-2.039 -2.662,-3.013 -3.331,-3.456 -7.164,-6.415 -11.349,-8.842 1.039,-1.482 2.735,-3.124 5.167,-3.124 z m -2.62,101.807 c 0.245,0.978 0.076,1.894 -0.514,2.797 -2.179,3.334 -9.145,5.346 -12.822,6.202 -1.404,-8.646 -2.897,-17.223 -4.053,-22.532 1.264,-0.408 2.544,-0.882 3.831,-1.433 5.43,4.362 12.494,10.711 13.558,14.966 z m 7.986,34.242 c 0,4.686 -4.49,9.923 -7.442,9.67 -1.132,-0.104 -1.285,-0.364 -1.291,-0.375 -0.172,-0.316 0.499,-1.584 0.988,-2.51 0.201,-0.378 0.414,-0.781 0.627,-1.207 l 0.464,-0.921 c 1.455,-2.88 2.416,-4.782 1.689,-6.239 -0.183,-0.366 -0.52,-0.584 -0.902,-0.584 -0.746,0 -1.269,0.755 -2.216,2.127 -0.562,0.813 -1.878,2.717 -2.459,2.717 h -10e-4 c -0.548,-0.273 -0.997,-0.885 -1.233,-1.678 -0.451,-1.513 -0.105,-3.413 0.945,-5.216 1.512,-2.591 -1.305,-8.135 -4.565,-14.553 -0.956,-1.883 -1.924,-3.794 -2.798,-5.656 2.583,-0.746 5.644,-1.855 8.01,-3.38 1.781,5.491 4.152,12.85 5.608,17.582 0.528,1.715 1.407,2.935 2.258,4.115 1.191,1.655 2.318,3.217 2.318,6.108 z m -14.784,40.722 c -0.827,0.47 -5.795,1.134 -16.574,1.134 -21.077,-0.001 -37.453,-2.235 -38.014,-4.232 -0.97,-3.46 6.664,-51.342 12.508,-85.579 2.497,0.767 5.054,1.364 7.645,1.782 -0.154,0.2 -0.221,0.462 -0.135,0.72 0.414,1.247 10.359,30.671 29.658,41.987 0.046,0.027 0.097,0.023 0.145,0.039 4.082,27.968 5.336,42.39 4.767,44.149 z m -3.595,8.639 c -1.058,0.331 -5.583,0.599 -10.09,0.599 h -0.001 c -6.509,0 -9.013,-0.495 -9.48,-0.777 -0.66,-1.233 -0.345,-4.569 0.121,-5.844 3.578,0.085 6.087,0.089 6.47,0.089 0.001,0 0.001,0 0.002,0 2.228,0 4.608,-0.027 6.884,-0.1 3.678,1.184 5.971,3.926 6.213,5.517 0.07,0.457 -0.072,0.502 -0.119,0.516 z m -28.488,-6.196 c 0.499,1.135 0.869,4.734 0.181,6.019 -0.468,0.283 -2.972,0.777 -9.481,0.777 -4.506,0 -9.033,-0.268 -10.09,-0.599 -0.047,-0.014 -0.189,-0.059 -0.12,-0.516 0.315,-2.068 4.087,-6.093 9.877,-6.093 0.076,0 0.268,-0.006 0.551,-0.015 0.729,-0.025 2.094,-0.07 3.575,-0.07 0.135,0 0.257,0.002 0.386,0.002 1.482,0.113 2.97,0.21 4.432,0.292 0.425,0.082 0.613,0.161 0.689,0.203 z m -26.174,-47.38 c 1.052,1.803 1.396,3.703 0.946,5.215 -0.237,0.793 -0.686,1.405 -1.247,1.683 -0.565,0 -1.883,-1.907 -2.446,-2.721 -0.948,-1.372 -1.471,-2.127 -2.217,-2.127 -0.382,0 -0.719,0.218 -0.902,0.585 -0.727,1.456 0.234,3.358 1.689,6.238 l 0.464,0.921 c 0.213,0.427 0.426,0.83 0.627,1.209 0.49,0.926 1.16,2.194 0.988,2.509 -0.005,0.011 -0.159,0.271 -1.289,0.375 -0.068,0.006 -0.135,0.009 -0.203,0.009 -2.925,0 -7.241,-5.098 -7.241,-9.679 0,-2.891 1.126,-4.453 2.318,-6.107 0.851,-1.18 1.73,-2.399 2.258,-4.115 1.456,-4.733 3.827,-12.092 5.608,-17.583 2.367,1.525 5.428,2.634 8.011,3.38 -0.873,1.862 -1.841,3.773 -2.798,5.655 -3.262,6.418 -6.078,11.962 -4.566,14.553 z m -2.331,-27.23 c -0.591,-0.903 -0.759,-1.819 -0.514,-2.797 1.104,-4.414 8.666,-11.082 14.161,-15.449 1.101,0.451 2.213,0.881 3.346,1.264 -0.886,5.195 -2.312,13.626 -3.894,23.25 -3.595,-0.82 -10.867,-2.851 -13.099,-6.268 z m 34.9,-15.579 c -0.002,0 -0.004,0 -0.005,0 -13.412,-0.002 -26.886,-5.214 -36.103,-13.948 -4.552,-17.453 1.89,-33.777 5.273,-40.645 -0.086,4.91 1.176,9.274 1.243,9.505 0.073,0.247 0.262,0.442 0.506,0.524 1.298,0.432 6.035,0.633 6.571,0.654 0.347,0.046 0.623,-0.175 0.753,-0.472 l 2.743,-6.31 0.26,5.825 c 0.018,0.391 0.32,0.711 0.71,0.748 6.319,0.613 22.745,0.62 23.441,0.62 0.363,0 0.678,-0.248 0.764,-0.599 l 1.621,-6.609 0.727,6.306 c 0.048,0.416 0.412,0.731 0.829,0.695 6.692,-0.407 17.732,-1.223 17.842,-1.231 0.361,-0.027 0.657,-0.297 0.718,-0.656 0.802,-4.812 -0.47,-10.451 -1.531,-13.986 9.501,11.211 10.718,28.17 9.96,40.885 -10.956,16.127 -27.163,18.694 -36.322,18.694 z m 36.097,-15.672 c -0.571,6.577 -1.577,11.608 -1.982,13.454 -3.213,-0.86 -6.937,-1.512 -11.142,-1.958 4.605,-2.58 9.142,-6.265 13.124,-11.496 z m -67.183,13.776 c -1.796,-3.052 -3.162,-6.126 -4.171,-9.181 3.65,3.09 7.834,5.689 12.346,7.709 -0.198,0.159 -0.395,0.318 -0.597,0.482 -3.786,0.444 -6.489,0.829 -7.578,0.99 z m 51.715,43.507 c -18.175,-11.438 -27.921,-40.241 -28.019,-40.536 -0.002,-0.007 -0.007,-0.011 -0.01,-0.017 2.45,0.334 4.923,0.514 7.394,0.515 0.002,0 0.004,0 0.006,0 3.682,0 8.466,-0.405 13.603,-1.87 1.626,7.678 4.331,23.661 6.954,41.418 0.024,0.165 0.047,0.324 0.072,0.49 z"
   id="path97" />

		<path
   style="fill:#573f45"
   d="m 229.242,94.499 c 2.003,0 3.627,-1.096 3.627,-2.447 0,-1.352 -1.624,-2.447 -3.627,-2.447 -2.003,0 -3.627,1.095 -3.627,2.447 0.001,1.352 1.624,2.447 3.627,2.447 z m -1.627,-3.736 c 0.531,0 0.961,0.43 0.961,0.961 0,0.531 -0.43,0.961 -0.961,0.961 -0.531,0 -0.961,-0.43 -0.961,-0.961 -0.001,-0.53 0.43,-0.961 0.961,-0.961 z"
   id="path98" />

		<path
   style="fill:#573f45"
   d="m 264.505,94.499 c 2.003,0 3.627,-1.096 3.627,-2.447 0,-1.352 -1.624,-2.447 -3.627,-2.447 -2.003,0 -3.627,1.095 -3.627,2.447 0,1.352 1.624,2.447 3.627,2.447 z m -1.628,-3.736 c 0.531,0 0.961,0.43 0.961,0.961 0,0.531 -0.43,0.961 -0.961,0.961 -0.531,0 -0.961,-0.43 -0.961,-0.961 0,-0.53 0.43,-0.961 0.961,-0.961 z"
   id="path99" />

		<path
   style="fill:#573f45"
   d="m 239.371,109.497 c -0.231,-0.133 -0.514,0.206 -0.293,0.38 4.939,3.874 12.623,4.422 17.385,-0.129 0.358,-0.342 -0.101,-0.918 -0.521,-0.675 -2.672,1.541 -5.002,2.758 -8.16,2.938 -3.019,0.171 -5.855,-1.048 -8.411,-2.514 z"
   id="path100" />

		<path
   style="fill:#573f45"
   d="m 248.415,103.272 c -0.289,0.292 0.011,0.707 0.375,0.643 1.221,-0.214 2.195,-1.172 2.217,-2.43 0.019,-1.06 -1.11,-2.269 -2.188,-2.157 -0.304,0.032 -0.401,0.464 -0.075,0.555 0.851,0.237 1.504,1 1.269,1.913 -0.177,0.686 -1.138,1.01 -1.598,1.476 z"
   id="path101" />

	</g>
  </g>
</svg>
