<?xml version="1.0" encoding="UTF-8" standalone="no"?>
<!-- Created with Inkscape (http://www.inkscape.org/) -->

<svg
   width="27.116135mm"
   height="48.340225mm"
   viewBox="0 0 27.116133 48.340226"
   version="1.1"
   id="svg1"
   inkscape:version="1.4.2 (f4327f4, 2025-05-13)"
   sodipodi:docname="boy16.svg"
   xmlns:inkscape="http://www.inkscape.org/namespaces/inkscape"
   xmlns:sodipodi="http://sodipodi.sourceforge.net/DTD/sodipodi-0.dtd"
   xmlns:xlink="http://www.w3.org/1999/xlink"
   xmlns="http://www.w3.org/2000/svg"
   xmlns:svg="http://www.w3.org/2000/svg">
  <sodipodi:namedview
     id="namedview1"
     pagecolor="#ffffff"
     bordercolor="#000000"
     borderopacity="0.25"
     inkscape:showpageshadow="2"
     inkscape:pageopacity="0.0"
     inkscape:pagecheckerboard="0"
     inkscape:deskcolor="#d1d1d1"
     inkscape:document-units="mm"
     inkscape:zoom="1.2275954"
     inkscape:cx="-138.48211"
     inkscape:cy="-50.50524"
     inkscape:window-width="2880"
     inkscape:window-height="1676"
     inkscape:window-x="-12"
     inkscape:window-y="-12"
     inkscape:window-maximized="1"
     inkscape:current-layer="layer1" />
  <defs
     id="defs1">
    <clipPath
       id="SVGID_00000119818789281150872890000010399472127891452846_">
					<use
   xlink:href="#SVGID_1_"
   style="overflow:visible"
   id="use374" />

				</clipPath>
    <path
       id="SVGID_1_"
       d="m 372.545,399.307 c 0,0 -1.283,0 -3.26,0 -6.713,0 -19.791,0 -19.801,0 0,0.838 4.299,47.073 4.58,51.589 0.954,15.214 4.023,46.87 4.105,48.206 0,0 1.713,0.708 5.477,0 l 3.053,-47.784 3.107,-36.587 c 0,0 0.585,-1.01 1.11,-1.054 0.524,0.044 0.994,1.159 0.994,1.159 l 3.633,36.588 2.381,47.703 c 4.615,0.856 6.041,-0.025 6.041,-0.025 0.084,-1.336 2.072,-29.132 3.002,-48.613 1.178,-24.746 5.303,-50.712 5.303,-51.182 -0.01,0 -13.012,0 -19.725,0 z" />
  </defs>
  <g
     inkscape:label="图层 1"
     inkscape:groupmode="layer"
     id="layer1"
     transform="translate(-141.70936,-161.99641)">
    <g
       id="XMLID_780_"
       transform="matrix(0.26458333,0,0,0.26458333,89.121618,150.28178)">
			<path
   id="XMLID_829_"
   style="fill:#ffc8ac"
   d="m 271.941,158.54 c -3.987,-13.05 -8.882,-16.222 -9.244,-20.572 -0.339,-4.064 -0.434,-8.609 -0.434,-8.609 h -18.087 c 0,0 -0.095,4.545 -0.434,8.609 -0.362,4.35 -5.256,7.522 -9.244,20.572 -4.599,15.051 -5.934,31.357 -5.934,31.357 0,0 9.62,3.205 24.656,3.205 15.036,0 24.656,-3.205 24.656,-3.205 0,0 -1.336,-16.306 -5.935,-31.357 z" />

			<path
   id="XMLID_394_"
   style="fill:#aa5e5e"
   d="m 284.619,70.527 c 0,0 11.217,-1.151 11.086,16.601 -0.15,20.419 -5.969,32.505 -17.225,35.128 -11.256,2.621 6.139,-51.729 6.139,-51.729 z" />

			<g
   id="XMLID_395_">
				<path
   id="XMLID_396_"
   style="fill:#aa5e5e"
   d="m 284.544,60.261 c 1.444,1.206 1.62,4.406 1.434,6.041 -0.194,1.705 -0.914,2.56 -2.001,3.853 -0.547,0.651 -0.612,0.562 -0.885,1.335 -0.118,0.336 0.387,0.579 0.646,0.491 3.051,-1.037 3.935,-5.152 3.382,-7.933 -0.272,-1.373 -0.915,-3.744 -2.51,-4.114 -0.164,-0.038 -0.147,0.259 -0.066,0.327 z" />

			</g>

			<path
   id="XMLID_389_"
   style="fill:#aa5e5e"
   d="m 292.122,70.321 c -0.905,-2.706 -6.792,-1.354 -8.092,0.164 -0.201,0.235 -0.546,0.697 -0.437,1.027 0.363,1.108 2.431,-0.338 2.825,-0.49 1.34,-0.515 4.192,-1.254 5.564,-0.507 0.119,0.064 0.17,-0.104 0.14,-0.194 z" />

			<path
   id="XMLID_402_"
   style="fill:#ffc8ac"
   d="m 243.362,140.254 c -2.893,-1.26 -7.893,0.395 -16.976,10.578 -2.618,2.935 -5.181,5.92 -7.684,8.953 -1.87,2.266 -3.708,4.559 -5.5,6.887 -0.659,0.855 -1.283,1.772 -2.109,2.479 -0.932,0.797 -2.148,1.104 -3.305,1.415 -0.725,0.194 -1.627,0.316 -2.178,0.877 -0.573,0.584 -0.292,1.452 0.434,1.739 0.78,0.308 1.746,0.104 2.566,0.167 0.138,0.011 0.274,0.056 0.358,0.165 0.129,0.166 -0.005,0.414 -0.09,0.54 -0.549,0.813 -0.892,1.222 -1.22,1.697 -0.534,0.774 -2.063,2.46 -1.392,3.475 0.263,0.398 0.972,0.534 1.328,0.362 0.575,-0.278 1.09,-0.664 1.564,-1.089 0.239,-0.214 0.468,-0.439 0.692,-0.667 0.182,-0.185 0.431,-0.524 0.73,-0.489 0.252,0.029 0.246,0.343 0.207,0.525 -0.045,0.21 -0.148,0.406 -0.252,0.593 -0.394,0.709 -0.851,1.409 -1.146,2.164 -0.144,0.367 -0.275,0.744 -0.309,1.136 -0.026,0.306 0.02,0.643 0.237,0.86 0.158,0.157 0.384,0.228 0.606,0.244 0.496,0.036 0.984,-0.178 1.374,-0.488 0.487,-0.387 0.874,-0.878 1.254,-1.366 0.396,-0.51 0.79,-1.023 1.206,-1.518 0.089,-0.106 0.195,-0.219 0.333,-0.227 0.149,-0.009 0.28,0.118 0.324,0.261 0.044,0.143 0.02,0.298 -0.013,0.444 -0.088,0.393 -0.266,0.719 -0.414,1.087 -0.154,0.381 -0.288,0.771 -0.401,1.167 -0.123,0.429 -0.231,0.9 -0.063,1.314 0.311,0.759 1.202,0.905 1.871,0.413 0.662,-0.487 2.106,-3.274 2.34,-3.705 1.444,-2.65 3.313,-5.031 5.065,-7.488 2.766,-3.876 9.23,-11.541 11.752,-13.778 z" />

			<path
   id="XMLID_400_"
   style="fill:#ffc8ac"
   d="m 263.185,140.254 c 2.894,-1.26 7.893,0.395 16.976,10.578 2.618,2.935 5.181,5.92 7.684,8.953 1.87,2.266 3.708,4.559 5.5,6.887 0.659,0.855 1.283,1.772 2.109,2.479 0.932,0.797 2.148,1.104 3.305,1.415 0.726,0.194 1.627,0.316 2.178,0.877 0.573,0.584 0.292,1.452 -0.434,1.739 -0.78,0.308 -1.745,0.104 -2.565,0.167 -0.138,0.011 -0.273,0.056 -0.358,0.165 -0.129,0.166 0.006,0.414 0.09,0.54 0.55,0.813 0.893,1.222 1.221,1.697 0.533,0.774 2.063,2.46 1.393,3.475 -0.264,0.398 -0.973,0.534 -1.328,0.362 -0.575,-0.278 -1.09,-0.664 -1.564,-1.089 -0.239,-0.214 -0.468,-0.439 -0.693,-0.667 -0.182,-0.185 -0.431,-0.524 -0.729,-0.489 -0.252,0.029 -0.246,0.343 -0.207,0.525 0.045,0.21 0.148,0.406 0.252,0.593 0.394,0.709 0.851,1.409 1.146,2.164 0.144,0.367 0.275,0.744 0.31,1.136 0.026,0.306 -0.021,0.643 -0.237,0.86 -0.157,0.157 -0.384,0.228 -0.605,0.244 -0.496,0.036 -0.985,-0.178 -1.374,-0.488 -0.487,-0.387 -0.875,-0.878 -1.255,-1.366 -0.396,-0.51 -0.79,-1.023 -1.206,-1.518 -0.089,-0.106 -0.194,-0.219 -0.333,-0.227 -0.149,-0.009 -0.28,0.118 -0.324,0.261 -0.044,0.143 -0.02,0.298 0.014,0.444 0.087,0.393 0.265,0.719 0.414,1.087 0.153,0.381 0.288,0.771 0.401,1.167 0.122,0.429 0.23,0.9 0.061,1.314 -0.31,0.759 -1.201,0.905 -1.871,0.413 -0.661,-0.487 -2.105,-3.274 -2.34,-3.705 -1.444,-2.65 -2.968,-5.292 -4.722,-7.749 -4.675,-6.544 -9.574,-11.28 -12.097,-13.517 z" />

			<path
   id="XMLID_828_"
   style="fill:#f49282"
   d="m 262.321,129.359 h -18.145 c 0,0 -0.078,3.674 -0.339,7.369 1.857,0.105 3.697,0.145 5.482,0.145 4.266,0 10.126,-1.469 13.107,-3.103 -0.162,-3.339 -0.105,-4.411 -0.105,-4.411 z" />

			<path
   id="XMLID_827_"
   style="fill:#ffc8ac"
   d="m 228.564,189.897 2.599,31.106 c 0,0 -4.795,1.415 -7.255,2.831 -2.46,1.415 -1.858,3.145 9.084,3.145 10.942,0 15.906,0 15.906,0 l 3.356,-37.081 h -23.69 z" />

			<path
   id="XMLID_826_"
   style="fill:#ffc8ac"
   d="m 277.941,189.897 -2.599,31.106 c 0,0 4.795,1.415 7.255,2.831 2.459,1.415 1.858,3.145 -9.084,3.145 -10.942,0 -15.906,0 -15.906,0 l -3.357,-37.081 h 23.691 z" />

			<path
   id="XMLID_362_"
   style="fill:#0880a5"
   d="m 228.561,189.896 c 0,11.12 2.599,31.106 2.599,31.106 0,0 -4.795,1.415 -7.255,2.831 -2.46,1.415 -1.858,3.145 9.084,3.145 10.942,0 15.906,0 15.906,0 l 3.356,-37.081 c 0.001,-0.001 -23.69,-11.12 -23.69,-0.001 z" />

			<path
   id="XMLID_299_"
   style="fill:#0e547a"
   d="m 251.477,198.462 c -1.948,-0.298 -5.12,-1.442 -5.12,-1.442 l -1.841,23.983 h 4.92 z" />

			<path
   id="XMLID_231_"
   style="fill:#0880a5"
   d="m 277.939,189.896 c 0,11.12 -2.6,31.106 -2.6,31.106 0,0 4.796,1.415 7.255,2.831 2.46,1.415 1.858,3.145 -9.084,3.145 -10.942,0 -15.906,0 -15.906,0 l -3.356,-37.081 c 0,-0.001 23.691,-11.12 23.691,-0.001 z" />

			<path
   id="XMLID_367_"
   style="fill:#0880a5"
   d="m 250.133,191.898 h 6.282 v 6.282 c -2.095,0.565 -4.188,0.565 -6.282,0 z" />

			<path
   id="XMLID_823_"
   style="fill:#002030"
   d="m 257.606,226.978 c 0,0 4.965,0 15.907,0 10.942,0 11.543,-1.729 9.084,-3.145 -2.46,-1.415 -7.255,-2.831 -7.255,-2.831 h -18.276 z" />

			<path
   id="XMLID_822_"
   style="fill:#002030"
   d="m 231.163,221.003 c 0,0 -4.795,1.415 -7.255,2.831 -2.46,1.415 -1.858,3.145 9.084,3.145 10.942,0 15.906,0 15.906,0 l 0.541,-5.975 h -18.276 z" />

			<path
   id="XMLID_820_"
   style="fill:#4477bb"
   d="m 243.311,139.824 c -1.722,-1.948 -5.985,-2.608 -12.674,4.152 -6.689,6.761 -8.715,8.983 -8.715,8.983 0,0 1.986,8.407 11.573,11.395 z" />

			<path
   id="XMLID_818_"
   style="fill:#4477bb"
   d="m 263.128,139.824 c 1.723,-1.948 5.985,-2.608 12.675,4.152 6.688,6.761 8.715,8.983 8.715,8.983 0,0 -1.986,8.407 -11.572,11.395 z" />

			<path
   id="XMLID_817_"
   style="fill:#ffc8ac"
   d="m 249.319,131.393 c 9.635,0 20.876,-1.147 27.759,-7.571 6.883,-6.423 7.57,-22.941 3.441,-39.229 -4.13,-16.289 -19.959,-19.959 -31.2,-19.959 -11.241,0 -27.071,3.67 -31.2,19.959 -4.129,16.288 -3.441,32.806 3.441,39.229 6.883,6.423 18.124,7.571 27.759,7.571 z" />

			<path
   id="XMLID_390_"
   style="fill:#aa5e5e"
   d="m 281.237,87.654 c 0,0 -7.794,-4.604 -8.395,-15.692 -8.494,-8 -24.381,-5.148 -28.652,-3.296 -4.332,1.878 -8.082,4.898 -11.651,7.934 -6.662,5.667 -14.342,12.741 -23.812,9.586 -5.835,-1.943 -10.243,-7.862 -9.957,-14.007 0.163,-3.475 2.793,-2.515 5.189,-3.606 2.7,-1.229 6.392,-2.785 8.377,-4.913 16.433,-17.604 24.692,-21.352 48.198,-18.543 6.592,0.788 15.198,5.088 19.573,11.795 5.929,9.089 5.171,20.988 1.13,30.742 z" />

			<path
   id="XMLID_793_"
   style="fill:#fca39a"
   d="m 216.987,113.724 c 0,-3.823 3.099,-6.921 6.921,-6.921 3.822,0 6.921,3.099 6.921,6.921 0,3.822 -3.099,6.921 -6.921,6.921 -3.823,0 -6.921,-3.099 -6.921,-6.921 z" />

			<path
   id="XMLID_792_"
   style="fill:#fca39a"
   d="m 266.265,113.724 c 0,-3.823 3.099,-6.921 6.921,-6.921 3.823,0 6.922,3.099 6.922,6.921 0,3.822 -3.099,6.921 -6.922,6.921 -3.823,0 -6.921,-3.099 -6.921,-6.921 z" />

			<path
   id="XMLID_816_"
   style="fill:#fca39a"
   d="m 247.663,110.024 c -2.517,-0.085 -4.791,1.512 -4.776,2.26 0.035,1.749 8.953,2.105 8.857,0 -0.054,-1.175 -1.921,-2.187 -4.081,-2.26 z" />

			<g
   id="XMLID_814_">
				<path
   id="XMLID_815_"
   style="fill:#9e5147"
   d="m 242.659,112.755 c 1.581,-1.185 2.731,-2.364 4.888,-2.372 1.985,-0.007 3.042,1.06 4.127,2.537 0.187,0.254 0.667,0.264 0.618,-0.135 -0.548,-4.473 -8.572,-4.056 -9.725,-0.159 -0.015,0.05 0.016,0.186 0.092,0.129 z" />

			</g>

			<g
   id="XMLID_812_">
				<path
   id="XMLID_813_"
   style="fill:#9e5147"
   d="m 240.297,120.382 c 5.796,3.442 15.386,1.957 19.896,-2.947 0.482,-0.524 -0.563,-1.026 -0.989,-0.562 -4.537,4.951 -12.954,5.43 -18.836,3.036 -0.327,-0.133 -0.277,0.35 -0.071,0.473 z" />

			</g>

			<g
   id="XMLID_810_">
				<path
   id="XMLID_811_"
   style="fill:#9e5147"
   d="m 259.13,115.2 c -0.564,0.576 0.015,1.611 0.478,2.042 0.531,0.495 1.459,0.963 2.2,0.706 0.252,-0.088 0.523,-0.394 0.246,-0.639 -0.218,-0.193 -0.751,-0.025 -1.034,-0.085 -1.035,-0.217 -1.339,-1.076 -1.661,-1.955 -0.039,-0.104 -0.149,-0.151 -0.229,-0.069 z" />

			</g>

			<g
   id="XMLID_804_">
				<path
   id="XMLID_809_"
   style="fill:#ffffff"
   d="m 265.92,90.563 c -3.328,-0.01 -8.228,1.991 -9.643,6.775 -1.722,5.819 1.849,11.47 9.643,11.194 8.364,-0.296 11.323,-5.266 10.427,-9.879 -0.96,-4.942 -4.591,-8.072 -10.427,-8.09 z" />

				<g
   id="XMLID_807_">
					<path
   id="XMLID_808_"
   style="fill:#002030"
   d="m 256.143,98.363 c 1.555,-4.692 6.913,-7.591 11.685,-6.629 1.933,0.389 4.014,1.453 5.293,2.976 1.43,1.702 1.633,3.913 2.975,5.609 0.213,0.269 0.768,0.431 0.963,0.05 1.248,-2.438 -0.699,-5.615 -2.439,-7.373 -1.815,-1.832 -4.531,-3.058 -7.08,-3.353 -2.602,-0.301 -5.485,0.278 -7.706,1.695 -2.672,1.704 -3.437,3.927 -3.903,6.947 -0.029,0.17 0.146,0.274 0.212,0.078 z" />

				</g>

				<path
   id="XMLID_806_"
   style="fill:#19313a"
   d="m 256.842,101.035 c 0,-4.145 3.36,-7.505 7.506,-7.505 4.145,0 7.505,3.36 7.505,7.505 0,4.145 -3.36,7.505 -7.505,7.505 -4.146,0 -7.506,-3.36 -7.506,-7.505 z" />

				<path
   id="XMLID_805_"
   style="fill:#ffffff"
   d="m 258.576,100.353 c 0,-1.325 1.074,-2.399 2.399,-2.399 1.325,0 2.399,1.074 2.399,2.399 0,1.325 -1.074,2.399 -2.399,2.399 -1.325,0 -2.399,-1.074 -2.399,-2.399 z" />

			</g>

			<g
   id="XMLID_798_">
				<path
   id="XMLID_803_"
   style="fill:#ffffff"
   d="m 231.419,90.563 c 3.328,-0.01 8.228,1.991 9.644,6.775 1.722,5.819 -1.849,11.47 -9.644,11.194 -8.365,-0.296 -11.323,-5.266 -10.427,-9.879 0.96,-4.942 4.591,-8.072 10.427,-8.09 z" />

				<g
   id="XMLID_801_">
					<path
   id="XMLID_802_"
   style="fill:#002030"
   d="m 241.408,98.225 c -0.503,-3.125 -1.786,-5.565 -4.626,-7.195 -2.639,-1.515 -5.991,-1.855 -8.891,-0.992 -2.049,0.61 -4.146,1.757 -5.557,3.389 -1.425,1.649 -3.39,4.627 -1.993,6.739 0.227,0.343 0.788,0.655 1.077,0.202 0.903,-1.417 1.125,-3.1 2.013,-4.542 0.988,-1.606 2.372,-2.665 4.084,-3.43 5.259,-2.349 11.888,0.376 13.673,5.979 0.074,0.23 0.245,0.002 0.22,-0.15 z" />

				</g>

				
					<circle
   id="XMLID_800_"
   transform="matrix(0.3844,-0.9231,0.9231,0.3844,50.15,277.2799)"
   style="fill:#19313a"
   cx="232.992"
   cy="101.035"
   r="7.5050001" />

				<path
   id="XMLID_799_"
   style="fill:#ffffff"
   d="m 231.821,100.353 c 0,-1.325 -1.074,-2.399 -2.399,-2.399 -1.325,0 -2.399,1.074 -2.399,2.399 0,1.325 1.074,2.399 2.399,2.399 1.325,0 2.399,-1.074 2.399,-2.399 z" />

			</g>

			<g
   id="XMLID_796_">
				<path
   id="XMLID_797_"
   style="fill:#7a4141"
   d="m 272.775,87.04 c 0.055,-0.16 0.087,-0.319 0.051,-0.483 -0.184,-0.841 -0.653,-1.461 -1.225,-2.09 -0.77,-0.847 -1.726,-1.525 -2.72,-2.082 -1.938,-1.086 -4.181,-1.636 -6.401,-1.517 -0.419,0.022 -0.85,0.071 -1.219,0.27 -0.478,0.258 -0.81,0.77 -0.851,1.313 -0.074,1.003 0.73,1.471 1.613,1.604 0.668,0.101 1.336,0.202 2.004,0.303 0.489,0.074 0.979,0.148 1.464,0.246 1.624,0.328 3.193,0.925 4.624,1.76 0.593,0.345 1.178,0.738 1.849,0.879 0.237,0.05 0.698,0.097 0.811,-0.203 z" />

			</g>

			<g
   id="XMLID_794_">
				<path
   id="XMLID_795_"
   style="fill:#7a4141"
   d="m 224.395,86.307 c -0.042,-0.164 -0.062,-0.325 -0.014,-0.485 0.249,-0.825 0.765,-1.407 1.383,-1.99 0.833,-0.785 1.838,-1.387 2.872,-1.866 2.016,-0.934 4.295,-1.309 6.5,-1.018 0.416,0.055 0.841,0.137 1.194,0.363 0.458,0.295 0.749,0.831 0.747,1.374 -0.003,1.006 -0.842,1.41 -1.732,1.475 -0.674,0.049 -1.348,0.099 -2.021,0.148 -0.494,0.036 -0.987,0.072 -1.479,0.132 -1.645,0.202 -3.255,0.676 -4.746,1.398 -0.617,0.299 -1.231,0.645 -1.911,0.734 -0.239,0.032 -0.703,0.042 -0.793,-0.265 z" />

			</g>

			<path
   id="XMLID_788_"
   style="fill:#ffc8ac"
   d="m 282.365,94.002 c 1.111,-3.535 5.978,-8.511 11.602,-6.348 5.624,2.164 6.921,10.599 3.785,16.872 -3.137,6.272 -11.693,8.57 -14.877,4.015 z" />

			<path
   id="XMLID_787_"
   style="fill:#9e5147"
   d="m 282.047,98.424 c -0.068,0.209 0.216,0.657 0.463,0.495 1.06,-0.697 1.817,-1.712 2.925,-2.338 1.198,-0.678 2.52,-0.873 3.852,-0.729 0.621,0.859 1.177,1.52 1.046,2.838 -0.113,1.142 -0.601,2.407 -1.392,3.25 -0.622,0.662 -1.561,0.856 -2.323,1.307 -0.058,0.035 -0.118,0.218 -0.021,0.242 3.615,0.882 6.04,-4.148 4.928,-7.063 2.039,0.86 3.729,2.57 3.619,4.958 -0.005,0.112 0.113,0.087 0.146,0.006 2.973,-7.49 -10.895,-10.128 -13.243,-2.966 z" />

			<path
   id="XMLID_785_"
   style="fill:#aa5e5e"
   d="m 289.724,87.28 c -1.291,9.313 -7.463,14.429 -8.486,12.678 -1.022,-1.751 0.498,-9.832 0,-12.303 l 8.486,-0.375" />

			<path
   id="XMLID_178_"
   style="fill:#9dd7f0"
   d="m 271.938,158.54 c -3.408,-11.155 -7.476,-15.092 -8.812,-18.717 v 0 c -0.032,0.085 -1.651,4.233 -9.909,4.233 -8.251,0 -9.874,-4.143 -9.908,-4.233 -1.337,3.625 -5.405,7.563 -8.813,18.716 -4.599,15.051 -5.935,23.311 -5.935,31.356 0,0 9.62,3.206 24.655,3.206 15.036,0 24.656,-3.206 24.656,-3.206 10e-4,-8.192 -1.334,-16.304 -5.934,-31.355 z" />

		</g>
  </g>
</svg>
