<?xml version="1.0" encoding="UTF-8" standalone="no"?>
<!-- Created with Inkscape (http://www.inkscape.org/) -->

<svg
   width="27.662712mm"
   height="51.039448mm"
   viewBox="0 0 27.662712 51.039448"
   version="1.1"
   id="svg1"
   inkscape:version="1.4.2 (f4327f4, 2025-05-13)"
   sodipodi:docname="girl3.svg"
   xmlns:inkscape="http://www.inkscape.org/namespaces/inkscape"
   xmlns:sodipodi="http://sodipodi.sourceforge.net/DTD/sodipodi-0.dtd"
   xmlns="http://www.w3.org/2000/svg"
   xmlns:svg="http://www.w3.org/2000/svg">
  <sodipodi:namedview
     id="namedview1"
     pagecolor="#ffffff"
     bordercolor="#000000"
     borderopacity="0.25"
     inkscape:showpageshadow="2"
     inkscape:pageopacity="0.0"
     inkscape:pagecheckerboard="0"
     inkscape:deskcolor="#d1d1d1"
     inkscape:document-units="mm"
     inkscape:zoom="1.2275954"
     inkscape:cx="-0.81460064"
     inkscape:cy="-24.438019"
     inkscape:window-width="2880"
     inkscape:window-height="1676"
     inkscape:window-x="-12"
     inkscape:window-y="-12"
     inkscape:window-maximized="1"
     inkscape:current-layer="layer1" />
  <defs
     id="defs1" />
  <g
     inkscape:label="图层 1"
     inkscape:groupmode="layer"
     id="layer1"
     transform="translate(-105.03958,-155.04584)">
    <g
       id="g239"
       transform="matrix(0.26458333,0,0,0.26458333,12.057845,85.459368)">
		<path
   style="fill:#9b663c"
   d="m 444.343,352.156 c -0.157,-0.15 -0.257,-0.355 -0.251,-0.584 0.004,-0.141 0.114,-4.863 -0.334,-11.352 -4.892,6.957 -10.742,11.385 -16.563,14.179 5.506,4.479 12.379,10.817 13.512,15.349 0.352,1.407 0.108,2.766 -0.724,4.04 -0.425,0.65 -0.993,1.252 -1.662,1.809 1.581,4.871 3.681,11.381 5.187,16.203 -0.751,-13.242 -1.095,-28.333 0.835,-39.644 z"
   id="path190" />

		<path
   style="fill:#9b663c"
   d="m 384.193,380.86 c -0.579,-0.124 -1.289,-0.288 -2.086,-0.492 -0.912,1.961 -1.932,3.97 -2.937,5.948 -2.666,5.249 -5.689,11.199 -4.609,13.048 1.27,2.177 1.668,4.531 1.095,6.458 -0.366,1.225 -1.089,2.161 -2.037,2.636 -0.226,0.113 -0.467,0.17 -0.718,0.17 -1.391,-10e-4 -2.585,-1.729 -3.74,-3.401 -0.112,-0.161 -0.235,-0.339 -0.358,-0.515 0.275,0.935 0.921,2.212 1.627,3.611 l 0.466,0.925 c 0.207,0.415 0.415,0.807 0.61,1.176 0.867,1.642 1.554,2.938 0.981,3.994 -0.492,0.906 -1.68,1.113 -2.532,1.191 -0.114,0.01 -0.228,0.015 -0.344,0.015 -0.822,0 -1.716,-0.295 -2.608,-0.795 -0.21,2.805 -0.438,4.785 -0.638,5.654 0.915,0.839 5.763,1.753 12.865,2.496 1.019,-9.994 3.094,-27.118 4.963,-42.119 z"
   id="path191" />

		<path
   style="fill:#9b663c"
   d="m 371.217,375.598 c -0.668,-0.557 -1.237,-1.158 -1.662,-1.809 -0.833,-1.274 -1.076,-2.633 -0.724,-4.04 1.189,-4.76 8.713,-11.514 14.333,-16.011 -5.206,-2.396 -9.97,-5.553 -13.947,-9.362 -0.649,-0.622 -1.269,-1.278 -1.861,-1.963 0.185,4.258 0.923,8.386 2.318,11.972 0.13,0.335 0.016,0.716 -0.275,0.925 -0.137,0.098 -0.298,0.146 -0.458,0.146 -0.18,0 -0.362,-0.063 -0.507,-0.185 -0.064,-0.054 -2.003,-1.735 -4.546,-4.934 2.436,10.573 3.445,24.101 3.713,36.487 1.212,-3.801 2.535,-7.896 3.616,-11.226 z"
   id="path192" />

		<path
   style="fill:#9b663c"
   d="m 439.926,415.624 c -0.117,0 -0.23,-0.005 -0.344,-0.015 -0.852,-0.078 -2.041,-0.285 -2.532,-1.191 -0.573,-1.057 0.113,-2.353 0.981,-3.996 0.194,-0.368 0.402,-0.76 0.609,-1.174 l 0.466,-0.926 c 0.707,-1.398 1.352,-2.675 1.627,-3.609 -0.124,0.175 -0.247,0.353 -0.358,0.515 -1.155,1.671 -2.349,3.4 -3.739,3.4 -0.251,0 -0.492,-0.057 -0.717,-0.17 -0.949,-0.474 -1.673,-1.41 -2.038,-2.635 -0.575,-1.927 -0.175,-4.282 1.095,-6.459 1.078,-1.85 -1.944,-7.8 -4.61,-13.048 -0.859,-1.692 -1.727,-3.405 -2.532,-5.093 1.377,9.902 4.004,30.143 4.294,42.341 6.399,-0.68 10.839,-1.717 12.814,-3.063 0.279,-0.717 0.196,-3.654 -0.031,-7.526 -1.585,1.613 -3.415,2.649 -4.985,2.649 z"
   id="path193" />

		<path
   style="fill:#fcc78b"
   d="m 412.871,435.005 c -1.042,0 -2.104,-0.008 -3.174,-0.02 l 1.667,10.636 c 0.958,-0.098 2.235,-0.156 3.967,-0.156 1.333,0 2.545,0.035 3.322,0.06 0.299,-3.354 0.638,-7.337 0.89,-10.616 -2.23,0.071 -4.532,0.096 -6.672,0.096 z"
   id="path194" />

		<path
   style="fill:#99c960"
   d="m 419.443,447.121 c -0.083,0 -0.279,-0.006 -0.564,-0.015 -0.731,-0.024 -2.081,-0.068 -3.549,-0.068 -4.3,0 -5.318,0.386 -5.522,0.499 -0.499,1.134 -0.868,4.733 -0.18,6.018 0.467,0.281 2.966,0.776 9.462,0.776 4.514,0 9.049,-0.269 10.109,-0.601 0.047,-0.014 0.19,-0.059 0.12,-0.516 -0.316,-2.068 -4.087,-6.093 -9.876,-6.093 z"
   id="path195" />

		<path
   style="fill:#fcc78b"
   d="m 390.713,434.158 c -0.356,-0.029 -0.7,-0.059 -1.034,-0.088 0.258,3.419 0.632,7.815 0.958,11.461 0.784,-0.025 2.02,-0.061 3.349,-0.061 1.718,0 2.986,0.058 3.938,0.155 l 1.708,-10.922 c -3.155,-0.14 -6.2,-0.323 -8.919,-0.545 z"
   id="path196" />

		<path
   style="fill:#99c960"
   d="m 393.986,447.043 c -1.485,0 -2.854,0.045 -3.586,0.07 -0.283,0.009 -0.475,0.015 -0.552,0.015 -5.789,0.001 -9.561,4.027 -9.876,6.096 -0.07,0.457 0.073,0.502 0.12,0.516 1.055,0.33 5.571,0.597 10.068,0.597 6.525,0 9.035,-0.497 9.503,-0.779 0.688,-1.286 0.317,-4.884 -0.181,-6.018 -0.205,-0.112 -1.218,-0.497 -5.496,-0.497 z"
   id="path197" />

		<path
   style="fill:#fcc78b"
   d="m 405.173,368.642 c 6.087,-0.348 8.817,-6.053 10.023,-10.454 -3.21,0.552 -6.156,0.733 -8.609,0.733 -3.544,0 -7.093,-0.358 -10.572,-1.037 0.499,2.98 1.534,6.517 3.687,8.707 1.479,1.506 3.258,2.179 5.471,2.051 z"
   id="path198" />

		<path
   style="fill:#fcc78b"
   d="m 447.166,404.372 c 0,-2.89 -1.126,-4.453 -2.318,-6.106 -0.851,-1.18 -1.73,-2.4 -2.258,-4.115 -1.456,-4.733 -3.827,-12.092 -5.608,-17.583 -2.366,1.525 -5.427,2.634 -8.01,3.38 0.873,1.862 1.841,3.772 2.798,5.654 3.261,6.419 6.077,11.964 4.566,14.554 -1.051,1.803 -1.396,3.705 -0.945,5.217 0.236,0.793 0.686,1.404 1.233,1.677 10e-4,0 0.002,0 0.002,0 0.58,0 1.896,-1.904 2.457,-2.717 0.948,-1.372 1.471,-2.128 2.217,-2.128 0.382,0 0.719,0.219 0.902,0.585 0.728,1.456 -0.235,3.36 -1.69,6.241 l -0.463,0.919 c -0.213,0.426 -0.426,0.828 -0.626,1.206 -0.49,0.927 -1.16,2.195 -0.989,2.511 0.006,0.011 0.16,0.271 1.29,0.374 2.959,0.273 7.443,-4.981 7.442,-9.669 z"
   id="path199" />

		<path
   style="fill:#99c960"
   d="m 438.666,372.928 c 0.59,-0.904 0.759,-1.819 0.514,-2.798 -1.066,-4.264 -8.16,-10.632 -13.595,-14.996 -0.645,0.277 -1.288,0.54 -1.928,0.781 0.793,3.542 1.886,9.596 3.421,20.01 0.08,0.545 0.221,1.508 0.405,2.797 3.823,-1.014 9.297,-2.909 11.183,-5.794 z"
   id="path200" />

		<path
   style="fill:#fcc78b"
   d="m 369.612,414.051 c 0.068,0 0.135,-0.003 0.203,-0.009 1.131,-0.102 1.284,-0.363 1.29,-0.374 0.171,-0.315 -0.5,-1.583 -0.989,-2.509 -0.201,-0.379 -0.414,-0.781 -0.627,-1.208 l -0.463,-0.919 c -1.455,-2.881 -2.418,-4.785 -1.689,-6.241 0.183,-0.366 0.52,-0.585 0.901,-0.585 0.748,0 1.269,0.756 2.217,2.127 0.562,0.814 1.88,2.721 2.446,2.722 0.561,-0.277 1.011,-0.89 1.247,-1.683 0.451,-1.512 0.105,-3.413 -0.945,-5.216 -1.512,-2.59 1.305,-8.134 4.566,-14.554 0.956,-1.882 1.924,-3.793 2.797,-5.654 -2.583,-0.746 -5.643,-1.855 -8.01,-3.38 -1.781,5.491 -4.152,12.85 -5.608,17.583 -0.529,1.715 -1.407,2.935 -2.258,4.115 -1.192,1.653 -2.319,3.216 -2.319,6.106 0,4.581 4.316,9.679 7.241,9.679 z"
   id="path201" />

		<path
   style="fill:#99c960"
   d="m 370.357,370.13 c -0.245,0.979 -0.076,1.894 0.515,2.798 2.326,3.56 10.108,5.612 13.516,6.359 1.249,-10.001 2.382,-18.879 3.015,-23.808 -0.878,-0.32 -1.745,-0.66 -2.603,-1.022 -5.515,4.36 -13.32,11.183 -14.443,15.673 z"
   id="path202" />

		<path
   style="fill:#89cfd4"
   d="m 422.177,356.438 c -1.802,0.604 -3.574,1.073 -5.284,1.429 -1.221,4.896 -4.252,11.923 -11.63,12.345 -2.679,0.151 -4.898,-0.701 -6.686,-2.521 -2.6,-2.646 -3.73,-6.847 -4.222,-10.164 -1.838,-0.416 -3.654,-0.916 -5.434,-1.509 -3.824,29.777 -8.951,71.422 -8.77,74.905 1.733,1.152 16.402,2.509 32.72,2.509 11.101,0 16.13,-0.689 17.134,-1.335 2.911,-2.939 -4.447,-59.372 -7.828,-75.659 z m -29.559,33.155 c 0.227,-0.493 0.607,-1.317 14.125,-1.317 1.015,0 9.96,0.014 11.256,0.501 1.559,0.584 1.53,5.022 1.02,7.838 -0.649,3.585 -3.275,11.927 -13.594,11.927 -5.187,0 -8.987,-1.827 -11.292,-5.431 -3.165,-4.947 -2.366,-11.675 -1.515,-13.518 z"
   id="path203" />

		<path
   style="fill:#fcc78b"
   d="m 443.56,337.694 c -1.095,-12.579 -4.335,-29.888 -13.789,-34.897 0.391,3.053 1.009,9.797 -0.752,12.261 -0.226,0.313 -0.649,0.418 -0.991,0.246 -0.556,-0.277 -12.957,-6.609 -14.262,-18.019 -3.18,3.47 -11.783,12.111 -20.827,14.79 -0.23,0.072 -0.485,0.027 -0.683,-0.116 -0.198,-0.142 -0.318,-0.368 -0.327,-0.611 -0.009,-0.268 -0.156,-4.914 0.56,-8.925 -2.418,2.546 -6.618,6.062 -13.106,8.705 -7.152,2.913 -11.966,16.012 -12.073,28.697 0.917,1.22 1.906,2.372 2.994,3.415 9.223,8.835 22.786,14.109 36.281,14.109 9.342,-10e-4 26.019,-2.66 36.975,-19.655 z m -22.149,-18.562 c 2.413,0 4.369,1.956 4.369,4.37 0,2.413 -1.956,4.37 -4.369,4.37 -2.413,0 -4.37,-1.956 -4.37,-4.37 10e-4,-2.413 1.957,-4.37 4.37,-4.37 z m -13.822,11.582 c -0.128,-0.304 -0.405,-0.584 -0.733,-0.656 -0.485,-0.107 -0.887,0.185 -1.35,0.247 -0.271,0.036 -0.393,-0.307 -0.29,-0.505 0.338,-0.653 1.337,-0.898 2.007,-0.718 0.66,0.177 1.186,0.652 1.472,1.269 0.651,1.406 -0.246,3.422 -1.966,3.314 -0.545,-0.034 -0.749,-0.72 -0.277,-1.023 0.413,-0.265 0.954,-0.433 1.17,-0.914 0.142,-0.316 0.097,-0.703 -0.033,-1.014 z m -8.51,9.08 c 0.202,-0.308 0.734,-1.126 8.579,-1.126 2.362,0 6.467,0.089 7.436,0.685 0.715,0.438 0.913,1.44 0.543,2.748 -0.676,2.395 -3.444,5.958 -8.296,5.958 -4.645,0 -6.848,-3.137 -7.579,-4.486 -0.688,-1.268 -1.195,-2.991 -0.683,-3.779 z m -16.295,-16.292 c 0,-2.413 1.956,-4.37 4.37,-4.37 2.413,0 4.37,1.956 4.37,4.37 0,2.413 -1.956,4.37 -4.37,4.37 -2.413,-0.001 -4.37,-1.957 -4.37,-4.37 z"
   id="path204" />

		<path
   style="fill:#b07445"
   d="m 367.183,351.804 c -4.005,-14.907 0.662,-37.674 11.607,-42.133 10.665,-4.345 14.952,-11.291 14.994,-11.361 0.222,-0.366 0.696,-0.488 1.068,-0.275 0.371,0.215 0.502,0.687 0.293,1.062 -1.52,2.737 -1.665,8.724 -1.658,11.147 10.365,-3.612 20.25,-15.295 20.352,-15.417 0.211,-0.253 0.559,-0.346 0.872,-0.233 0.31,0.114 0.517,0.408 0.517,0.739 0,10.154 10.109,16.635 12.833,18.195 1.078,-2.715 0.358,-9.382 -0.048,-11.923 -0.045,-0.279 0.063,-0.559 0.283,-0.736 0.22,-0.176 0.518,-0.223 0.779,-0.12 14.909,5.822 16.503,36.887 16.608,47.426 9.859,-20.871 11.464,-41.734 4.34,-57.668 -5.311,-11.879 -15.253,-20.268 -27.993,-23.62 -5.828,-1.534 -11.763,-2.311 -17.639,-2.311 -27.148,0 -47.033,15.619 -50.658,39.79 -3.818,25.443 8.248,41.744 13.45,47.438 z"
   id="path205" />

		<path
   style="fill:#63c0a1"
   d="m 405.424,406.968 c 6.34,0 9.355,-3.57 10.769,-6.565 2.106,-4.464 1.628,-9.348 1.15,-10.181 -0.867,-0.184 -4.998,-0.374 -10.601,-0.374 -7.213,0 -11.762,0.298 -12.779,0.607 -0.611,1.701 -1.209,7.582 1.494,11.806 1.999,3.124 5.352,4.707 9.967,4.707 z"
   id="path206" />

		<path
   style="fill:#ffffff"
   d="m 420.363,323.851 c 0.965,0 1.748,-0.783 1.748,-1.748 0,-0.965 -0.783,-1.748 -1.748,-1.748 -0.965,0 -1.748,0.783 -1.748,1.748 0,0.966 0.782,1.748 1.748,1.748 z"
   id="path207" />

		<path
   style="fill:#ffffff"
   d="m 387.853,322.104 c 0,-0.965 -0.783,-1.748 -1.748,-1.748 -0.965,0 -1.748,0.783 -1.748,1.748 0,0.965 0.783,1.748 1.748,1.748 0.966,-10e-4 1.748,-0.783 1.748,-1.748 z"
   id="path208" />

		<path
   style="fill:#f16559"
   d="m 401.894,343.951 c 0.931,1.156 2.632,2.535 5.447,2.535 3.739,0 5.578,-2.432 6.195,-3.478 0.729,-1.234 0.773,-2.187 0.669,-2.376 -0.303,-0.123 -2.608,-0.391 -6.547,-0.391 -3.994,0 -6.475,0.265 -7.22,0.486 0.025,0.55 0.408,1.921 1.456,3.224 z"
   id="path209" />

		<path
   style="fill:#f16559"
   d="m 425.382,331.602 c -0.827,0.151 -1.265,0.791 -1.737,1.424 -0.302,0.406 -0.972,0.942 -1.045,1.451 -0.041,0.29 0.019,0.603 0.307,0.754 0.728,0.38 1.416,-0.268 1.929,-0.725 0.567,-0.506 1.149,-0.98 1.499,-1.663 0.354,-0.692 -0.22,-1.375 -0.953,-1.241 z"
   id="path210" />

		<path
   style="fill:#f16559"
   d="m 428.789,333.223 c -1.327,-0.443 -2.66,1.824 -3.38,2.639 -0.439,0.497 -0.914,0.996 -1.445,1.397 -0.323,0.244 -0.81,0.648 -0.43,1.074 0.775,0.868 2.349,-0.587 2.924,-1.067 0.586,-0.49 1.141,-1.018 1.705,-1.534 0.489,-0.447 1.273,-1 1.21,-1.743 -0.033,-0.372 -0.224,-0.646 -0.584,-0.766 z"
   id="path211" />

		<path
   style="fill:#f16559"
   d="m 428.187,337.401 c -0.805,0.231 -1.603,0.688 -2.051,1.426 -0.374,0.616 0.237,1.35 0.907,1.179 0.75,-0.191 1.407,-0.708 1.933,-1.249 0.559,-0.575 0.004,-1.583 -0.789,-1.356 z"
   id="path212" />

		<path
   style="fill:#f16559"
   d="m 386.509,333.858 c -0.936,-0.172 -1.572,0.391 -2.165,1.051 -0.265,0.295 -0.502,0.615 -0.743,0.929 -0.274,0.355 -0.541,0.653 -0.557,1.122 -0.011,0.325 0.288,0.628 0.614,0.615 0.715,-0.031 1.232,-0.716 1.743,-1.153 0.543,-0.463 1.224,-0.687 1.621,-1.299 0.286,-0.441 0.023,-1.166 -0.513,-1.265 z"
   id="path213" />

		<path
   style="fill:#f16559"
   d="m 389.474,334.756 c -1.275,-0.448 -2.559,1.214 -3.326,2 -1.168,1.197 -2.219,2.489 -3.302,3.76 -0.547,0.642 0.289,1.49 0.927,0.927 1.092,-0.964 2.149,-1.965 3.229,-2.943 0.576,-0.522 1.166,-1.033 1.799,-1.485 0.451,-0.322 0.889,-0.531 1.173,-1.033 0.279,-0.492 0.009,-1.047 -0.5,-1.226 z"
   id="path214" />

		<path
   style="fill:#f16559"
   d="m 390.507,338.216 c -0.504,0.524 -1.127,0.817 -1.671,1.278 -0.592,0.502 -1.247,0.925 -1.879,1.374 -0.645,0.458 -0.277,1.618 0.568,1.348 0.814,-0.26 1.565,-0.617 2.298,-1.056 0.773,-0.463 1.364,-1.316 1.777,-2.1 0.362,-0.686 -0.529,-1.432 -1.093,-0.844 z"
   id="path215" />

		<path
   style="fill:#ffffff"
   d="m 418.021,389.737 c -0.263,-1.291 -2.191,-0.735 -1.959,0.54 0.728,4.014 1.12,8.292 -1.835,11.53 -2.178,2.388 -6.368,4.227 -9.484,4.599 -4.777,0.571 -8.176,-3.717 -9.348,-7.767 -0.5,-1.729 -1.896,-6.548 -0.438,-7.907 0.565,-0.526 -0.153,-1.363 -0.794,-1.029 -2.343,1.221 -1.242,5.474 -0.911,7.507 0.837,5.15 3.569,9.106 8.646,10.684 4.073,1.266 9.728,-1.237 12.766,-3.874 4.344,-3.77 4.443,-8.951 3.357,-14.283 z"
   id="path216" />

		<path
   style="fill:#ffffff"
   d="m 384.874,353.819 c -2.571,1.084 -4.289,2.901 -6.063,5.036 -2.115,2.543 -4.956,4.546 -6.933,7.141 -2.33,3.058 -3.108,7.637 0.317,10.161 0.645,0.476 1.58,-0.464 1.11,-1.11 -3.285,-4.511 0.043,-7.848 3.41,-10.845 3.196,-2.845 5.189,-6.551 8.69,-9.125 0.573,-0.423 0.243,-1.585 -0.531,-1.258 z"
   id="path217" />

		<path
   style="fill:#ffffff"
   d="m 434.772,348.667 c 1.823,-1.69 3.113,-3.894 4.732,-5.761 1.673,-1.929 3.485,-3.699 4.933,-5.811 0.613,-0.895 -0.809,-1.998 -1.505,-1.162 -3.129,3.753 -6.208,7.807 -9.523,11.37 -1.985,2.133 -4.488,3.819 -6.991,5.279 -1.17,0.682 -2.079,0.783 -2.723,2.008 -0.169,0.322 0.195,0.782 0.538,0.538 0.081,-0.057 0.179,-0.098 0.263,-0.152 -0.138,0.237 -0.154,0.537 0.092,0.745 2.793,2.354 5.104,5.224 7.771,7.722 3.449,3.23 6.714,5.907 4.263,11.002 -0.312,0.649 0.313,1.279 0.964,0.964 3.196,-1.547 2.135,-6.733 0.618,-9.143 -1.426,-2.266 -4.294,-4.039 -6.337,-5.719 -2.269,-1.865 -4.079,-4.132 -6.504,-5.83 -0.084,-0.059 -0.17,-0.085 -0.256,-0.094 1.392,-0.737 3.05,-1.217 4.4,-1.962 1.915,-1.058 3.666,-2.512 5.265,-3.994 z"
   id="path218" />

		<path
   style="fill:#ffffff"
   d="m 370.664,412.618 c -5.589,1.247 -8.393,-8.202 -6.512,-11.727 1.482,-2.776 3.169,-4.928 4.314,-7.931 1.879,-4.931 4.895,-10.362 4.58,-15.8 -0.033,-0.574 -0.838,-0.565 -0.885,0 -0.383,4.603 -2.778,9.459 -4.587,13.64 -1.026,2.373 -1.834,4.803 -3.254,6.983 -1.137,1.745 -2.214,3.063 -2.771,5.086 -1.353,4.916 4.466,12.396 9.586,11.455 1.112,-0.204 0.649,-1.956 -0.471,-1.706 z"
   id="path219" />

		<path
   style="fill:#ffffff"
   d="m 444.543,412.562 c 0.376,-0.316 0.727,-0.648 1.04,-0.988 2.927,-3.174 2.551,-7.789 1.113,-11.483 -1.938,-4.981 -5.159,-8.967 -6.566,-14.291 -0.698,-2.642 -2.563,-6.581 -2.377,-9.295 0.042,-0.618 -0.849,-0.674 -1.03,-0.139 -0.986,2.91 1.156,8.102 1.784,10.996 0.856,3.943 2.702,7.389 4.79,10.793 3.969,6.472 2.37,13.423 -5.609,14.868 -0.785,0.142 -0.617,1.195 0,1.422 2.083,0.767 4.38,-0.053 6.205,-1.374 -0.058,0.127 -0.093,0.274 -0.094,0.444 -0.012,1.422 0.081,2.841 0.037,4.264 -0.026,0.851 -0.108,1.722 -0.453,2.511 -0.563,1.284 -2.977,0.907 -4.141,1.015 -1.988,0.184 -5.587,0.304 -6.829,2.11 -0.391,0.569 0.253,1.349 0.884,1.15 1.594,-0.501 3.177,-0.738 4.839,-0.914 1.996,-0.212 4.133,0.173 5.969,-0.767 3.027,-1.549 1.871,-6.773 1.759,-9.368 -0.034,-0.785 -0.743,-1.097 -1.321,-0.954 z"
   id="path220" />

		<path
   style="fill:#ffffff"
   d="m 392.092,299.776 c -7.735,6.447 -17.691,8.275 -22.84,17.66 -4.89,8.915 -5.365,21.048 -3.444,30.813 0.088,0.446 0.733,0.312 0.756,-0.102 0.597,-10.826 -0.145,-21.366 5.258,-31.238 4.542,-8.298 15.091,-9.728 21.579,-15.823 0.884,-0.83 -0.407,-2.062 -1.309,-1.31 z"
   id="path221" />

		<path
   style="fill:#ffffff"
   d="m 413.392,294.159 c -3.188,2.569 -5.893,5.521 -9.287,7.935 -3.557,2.53 -7.3,4.795 -10.831,7.356 -0.715,0.518 -0.113,1.58 0.695,1.189 4.761,-2.31 9.225,-5.372 13.514,-8.456 2.68,-1.927 5.899,-4.157 7.101,-7.33 0.28,-0.743 -0.701,-1.09 -1.192,-0.694 z"
   id="path222" />

		<path
   style="fill:#ffffff"
   d="m 429.637,308.665 c -0.186,-2.229 -0.549,-4.505 -1.048,-6.683 -0.188,-0.818 -1.462,-0.63 -1.448,0.196 0.03,1.894 0.349,3.784 0.531,5.668 0.188,1.947 -0.208,3.993 0.211,5.884 0.133,0.601 1.034,0.716 1.318,0.172 0.842,-1.616 0.585,-3.462 0.436,-5.237 z"
   id="path223" />

		<path
   style="fill:#ffffff"
   d="m 446.738,337.772 c -0.4,-3.939 -1.13,-7.78 -2.029,-11.633 -1.307,-5.605 -2.042,-11.867 -6.363,-16.076 -0.368,-0.358 -1.058,0.128 -0.734,0.566 3.478,4.691 4.091,10.464 5.239,16.022 1.396,6.761 2.759,13.851 2.418,20.796 -0.047,0.952 1.241,0.98 1.545,0.209 1.156,-2.931 0.235,-6.824 -0.076,-9.884 z"
   id="path224" />

		<path
   style="fill:#ffffff"
   d="m 453.083,297.519 c 0.05,-0.136 0.076,-0.284 0.039,-0.448 -1.496,-6.614 -5.608,-11.48 -9.479,-16.973 -3.026,-4.294 -7.983,-7.721 -12.846,-10.004 -0.024,-0.25 -0.135,-0.493 -0.383,-0.65 -9.261,-5.88 -22.338,-6.149 -33.23,-4.689 -0.024,-0.004 -0.042,-0.015 -0.067,-0.018 -3.052,-0.275 -5.664,0.771 -8.542,1.723 -3.515,1.162 -7.077,1.518 -10.471,3.099 -6.496,3.026 -12.296,8.345 -16.76,13.859 -8.024,9.909 -11.154,25.289 -9.365,37.746 0.071,0.492 0.761,0.312 0.805,-0.109 1.294,-12.504 1.97,-24.266 9.326,-35.012 3.883,-5.673 9.774,-10.377 15.661,-13.78 5.593,-3.234 12.893,-4.109 19.109,-5.954 5.816,-0.215 12.039,-0.505 17.637,0.26 5.221,0.713 10.285,2.793 15.23,4.463 0.049,0.016 0.091,0.011 0.137,0.019 1.808,1.141 4.285,3.32 5,3.831 2.999,2.146 5.647,4.57 7.777,7.591 1.666,2.363 3.243,4.793 4.904,7.161 1.788,2.549 2.633,5.276 4.056,7.984 0.068,4.204 1.624,8.474 1.835,12.68 0.251,5.01 -0.738,10.626 -1.144,15.651 -0.071,0.885 1.176,0.924 1.448,0.196 1.768,-4.73 1.909,-10.792 2.095,-15.847 0.159,-4.406 -1.607,-8.587 -2.772,-12.779 z"
   id="path225" />

		<path
   style="fill:#ffffff"
   d="m 369.08,378.908 c -0.448,-4.199 -0.766,-8.419 -1.14,-12.626 -0.4,-4.499 -0.712,-12.197 -3.902,-15.764 -0.105,-0.117 -0.302,-0.136 -0.433,-0.056 -0.012,0.008 -0.025,0.015 -0.037,0.023 -0.225,0.137 -0.196,0.423 0,0.566 -0.026,-0.019 0.349,3.014 0.435,3.427 0.816,3.943 1.531,7.78 1.919,11.804 0.616,6.403 1.459,12.845 1.542,19.268 0.008,0.616 0.885,0.898 1.191,0.323 1.167,-2.195 0.683,-4.551 0.425,-6.965 z"
   id="path226" />

		<path
   style="fill:#ffffff"
   d="m 378.653,422.246 c -1.424,-1.071 -3.63,-1.267 -5.345,-1.577 -1.78,-0.323 -3.607,-0.54 -5.423,-0.581 0.028,-0.987 -0.031,-1.973 0.034,-2.963 0.045,-0.691 0.294,-1.563 -0.229,-2.124 -0.123,-0.132 -0.344,-0.157 -0.496,-0.064 -1.33,0.809 -0.996,4.596 -1.216,5.828 -0.111,0.62 0.258,1.157 0.908,1.192 1.984,0.106 3.938,0.277 5.9,0.611 1.809,0.307 3.636,1.139 5.455,1.207 0.893,0.031 1.009,-1.08 0.412,-1.529 z"
   id="path227" />

		<path
   style="fill:#ffffff"
   d="m 445.198,349.894 c 0.017,-0.609 -0.921,-0.739 -1.062,-0.144 -1.514,6.4 -1.967,12.521 -1.866,19.096 0.111,7.196 -0.33,14.405 -0.071,21.598 0.041,1.142 1.724,1.14 1.77,0 0.264,-6.507 0.265,-13.056 0.248,-19.568 -0.018,-7.069 0.783,-13.952 0.981,-20.982 z"
   id="path228" />

		<path
   style="fill:#ffffff"
   d="m 385.289,385.375 c -0.087,-0.731 -1.123,-0.765 -1.163,0 -0.579,10.899 -1.334,21.915 -3.119,32.695 -0.509,3.077 -3.069,11.514 0.12,13.666 0.807,0.544 1.79,-0.721 1.042,-1.351 -2.203,-1.857 0.893,-11.369 1.236,-14.018 1.313,-10.114 3.09,-20.803 1.884,-30.992 z"
   id="path229" />

		<path
   style="fill:#ffffff"
   d="m 430.377,411.303 c -0.77,-8.36 -1.907,-16.84 -2.163,-25.228 -0.013,-0.444 -0.622,-0.42 -0.672,0 -1.775,14.96 3.387,30.079 1.538,44.945 -0.198,0.141 -0.322,0.382 -0.245,0.669 0.051,0.191 0.103,0.381 0.154,0.572 0.165,0.616 1.186,0.861 1.472,0.193 1.069,-2.498 0.683,-5.007 0.773,-7.69 0.154,-4.543 -0.441,-8.947 -0.857,-13.461 z"
   id="path230" />

		<path
   style="fill:#ffffff"
   d="m 392.412,446.037 c -0.267,-0.071 -0.546,-0.119 -0.826,-0.166 0.03,-0.055 0.055,-0.117 0.068,-0.189 0.336,-1.789 -0.378,-3.715 -0.594,-5.507 -0.25,-2.065 -0.257,-4.147 -0.496,-6.209 -0.073,-0.629 -1.08,-0.904 -1.207,-0.163 -0.359,2.093 -0.285,4.262 -0.136,6.373 0.123,1.747 0.119,4.076 1.127,5.563 -2.349,-0.101 -4.867,0.565 -6.636,1.944 -1.907,1.488 -4.64,4.189 -3.73,6.879 0.182,0.538 0.865,0.505 1.059,0 0.876,-2.286 2.344,-4.129 4.352,-5.54 2.211,-1.553 4.726,-0.649 7.018,-1.609 0.607,-0.256 0.748,-1.177 10e-4,-1.376 z"
   id="path231" />

		<path
   style="fill:#ffffff"
   d="m 419.528,434.133 c -1.714,1.13 -1.677,3.698 -1.752,5.528 -0.048,1.188 -0.126,2.294 -0.423,3.45 -0.209,0.815 -0.595,1.675 0.069,2.357 0.218,0.224 0.577,0.266 0.844,0.109 1.086,-0.636 1.208,-2.866 1.279,-4.004 0.142,-2.284 -0.386,-4.519 0.823,-6.599 0.3,-0.515 -0.312,-1.189 -0.84,-0.841 z"
   id="path232" />

		<path
   style="fill:#ffffff"
   d="m 430.043,452.816 c -2.318,-3.977 -7.71,-7.679 -12.439,-6.24 -0.542,0.165 -0.462,1.048 0.137,1.014 4.662,-0.261 7.905,3.212 10.59,6.547 0.793,0.984 2.319,-0.279 1.712,-1.321 z"
   id="path233" />

		<path
   style="fill:#573f45"
   d="m 446.246,350.579 c 10.798,-21.859 12.724,-43.913 5.214,-60.711 -5.509,-12.323 -15.819,-21.024 -29.03,-24.501 -5.957,-1.568 -12.027,-2.363 -18.039,-2.363 -27.972,0 -48.466,16.144 -52.214,41.13 -2.992,19.941 3.56,34.438 9.22,42.802 3.494,12.086 4.626,29.606 4.74,44.525 -0.246,0.788 -0.479,1.537 -0.692,2.228 -0.452,1.469 -1.219,2.532 -2.031,3.657 -1.285,1.784 -2.616,3.628 -2.616,7.026 0,3.644 2.188,7.316 4.731,9.432 -0.237,3.363 -0.503,5.66 -0.726,6.441 -0.108,0.374 -0.028,0.763 0.224,1.097 1.003,1.33 6.61,2.4 14.047,3.183 -0.378,3.853 -0.559,6.373 -0.449,6.867 0.147,0.661 0.37,1.634 9.461,2.529 0.186,2.569 0.49,6.287 0.975,11.668 -6.302,0.359 -10.266,4.907 -10.646,7.397 -0.168,1.105 0.294,1.969 1.206,2.254 1.406,0.439 6.366,0.669 10.537,0.669 9.929,0 10.55,-1.037 10.816,-1.48 1.089,-1.813 0.584,-6.258 -0.125,-7.674 -0.161,-0.322 -0.44,-0.64 -1.373,-0.879 l 1.737,-11.106 c 2.277,0.089 4.593,0.152 6.886,0.191 l 1.711,10.913 c -0.933,0.24 -1.212,0.558 -1.373,0.88 -0.708,1.415 -1.21,5.861 -0.123,7.673 0.264,0.442 0.886,1.477 10.775,1.477 4.189,0 9.166,-0.231 10.578,-0.673 0.913,-0.286 1.374,-1.149 1.205,-2.255 -0.38,-2.489 -4.344,-7.035 -10.647,-7.393 0.427,-4.763 0.714,-8.22 0.902,-10.733 4.508,-0.195 8.452,-0.61 9.726,-1.429 0.97,-0.624 1.329,-3.762 1.3,-8.28 6.07,-0.637 11.37,-1.692 13.796,-3.425 0.844,-0.602 0.931,-2.638 0.428,-10.5 1.395,-1.985 2.362,-4.422 2.362,-6.845 0,-3.398 -1.33,-5.242 -2.616,-7.026 -0.267,-0.37 -0.523,-0.737 -0.771,-1.111 -0.953,-14.854 -1.648,-33.103 0.894,-45.655 z m -1.303,69.922 c -1.975,1.346 -6.416,2.383 -12.814,3.063 -0.29,-12.198 -2.917,-32.439 -4.294,-42.341 0.805,1.688 1.673,3.402 2.532,5.093 2.666,5.249 5.688,11.199 4.61,13.048 -1.27,2.177 -1.669,4.532 -1.095,6.459 0.365,1.225 1.089,2.161 2.038,2.635 0.225,0.113 0.466,0.17 0.717,0.17 1.39,0 2.584,-1.729 3.739,-3.4 0.112,-0.162 0.235,-0.34 0.358,-0.515 -0.275,0.934 -0.921,2.211 -1.627,3.609 l -0.466,0.926 c -0.207,0.414 -0.415,0.806 -0.609,1.174 -0.868,1.643 -1.555,2.939 -0.981,3.996 0.491,0.906 1.68,1.113 2.532,1.191 0.114,0.01 0.227,0.015 0.344,0.015 1.57,0 3.4,-1.036 4.986,-2.649 0.226,3.872 0.309,6.809 0.03,7.526 z m -14.939,11.597 c -1.004,0.645 -6.032,1.335 -17.134,1.335 -16.317,0 -30.987,-1.357 -32.72,-2.509 -0.181,-3.483 4.946,-45.128 8.77,-74.905 1.78,0.593 3.596,1.092 5.434,1.509 0.492,3.317 1.622,7.518 4.222,10.164 1.788,1.82 4.007,2.672 6.686,2.521 7.379,-0.423 10.41,-7.45 11.63,-12.345 1.71,-0.357 3.481,-0.825 5.284,-1.429 3.382,16.286 10.74,72.719 7.828,75.659 z m -0.805,21.631 c -1.06,0.332 -5.595,0.601 -10.109,0.601 -6.496,0 -8.995,-0.495 -9.462,-0.776 -0.688,-1.285 -0.318,-4.884 0.18,-6.018 0.204,-0.113 1.222,-0.499 5.522,-0.499 1.468,0 2.817,0.044 3.549,0.068 0.286,0.009 0.481,0.015 0.564,0.015 5.788,0 9.56,4.025 9.876,6.092 0.07,0.458 -0.073,0.503 -0.12,0.517 z m -10.547,-8.204 c -0.777,-0.025 -1.989,-0.06 -3.322,-0.06 -1.732,0 -3.009,0.058 -3.967,0.156 l -1.667,-10.636 c 1.07,0.012 2.132,0.02 3.174,0.02 2.14,0 4.442,-0.026 6.671,-0.097 -0.251,3.279 -0.59,7.263 -0.889,10.617 z m -18.989,8.032 c -0.468,0.283 -2.978,0.779 -9.503,0.779 -4.497,0 -9.013,-0.267 -10.068,-0.597 -0.047,-0.014 -0.189,-0.059 -0.12,-0.516 0.314,-2.069 4.086,-6.095 9.876,-6.096 0.077,0 0.269,-0.006 0.552,-0.015 0.732,-0.025 2.102,-0.07 3.586,-0.07 4.278,0 5.292,0.385 5.495,0.497 0.499,1.134 0.87,4.732 0.182,6.018 z m -5.677,-8.087 c -1.33,0 -2.566,0.036 -3.349,0.061 -0.326,-3.646 -0.7,-8.042 -0.958,-11.461 0.335,0.029 0.679,0.059 1.034,0.088 2.72,0.223 5.764,0.406 8.92,0.545 l -1.708,10.922 c -0.953,-0.097 -2.222,-0.155 -3.939,-0.155 z m -26.983,-30.641 c 0.893,0.5 1.786,0.795 2.608,0.795 0.116,0 0.23,-0.005 0.344,-0.015 0.852,-0.078 2.04,-0.285 2.532,-1.191 0.573,-1.056 -0.114,-2.352 -0.981,-3.994 -0.196,-0.369 -0.403,-0.761 -0.61,-1.176 l -0.466,-0.925 c -0.707,-1.399 -1.352,-2.676 -1.627,-3.611 0.124,0.176 0.247,0.354 0.358,0.515 1.155,1.672 2.349,3.4 3.74,3.401 0.251,0 0.492,-0.057 0.718,-0.17 0.948,-0.475 1.671,-1.411 2.037,-2.636 0.574,-1.927 0.175,-4.281 -1.095,-6.458 -1.079,-1.85 1.944,-7.8 4.609,-13.048 1.005,-1.977 2.024,-3.987 2.937,-5.948 0.797,0.204 1.506,0.367 2.086,0.492 -1.869,15.001 -3.944,32.125 -4.963,42.119 -7.102,-0.743 -11.95,-1.656 -12.865,-2.496 0.2,-0.869 0.428,-2.849 0.638,-5.654 z m -13.27,-110.462 c 3.625,-24.171 23.51,-39.79 50.658,-39.79 5.876,0 11.811,0.777 17.639,2.311 12.74,3.352 22.682,11.741 27.993,23.62 7.124,15.934 5.519,36.797 -4.34,57.668 -0.105,-10.539 -1.699,-41.604 -16.608,-47.426 -0.261,-0.103 -0.559,-0.056 -0.779,0.12 -0.219,0.177 -0.328,0.458 -0.283,0.736 0.406,2.541 1.126,9.208 0.048,11.923 -2.724,-1.561 -12.833,-8.041 -12.833,-18.195 0,-0.331 -0.207,-0.626 -0.517,-0.739 -0.312,-0.113 -0.661,-0.02 -0.872,0.233 -0.102,0.122 -9.987,11.805 -20.352,15.417 -0.007,-2.423 0.138,-8.41 1.658,-11.147 0.209,-0.375 0.078,-0.847 -0.293,-1.062 -0.372,-0.214 -0.846,-0.091 -1.068,0.275 -0.042,0.07 -4.329,7.015 -14.994,11.361 -10.946,4.459 -15.613,27.226 -11.607,42.133 -5.202,-5.695 -17.268,-21.996 -13.45,-47.438 z m 73.345,71.557 c -1.535,-10.414 -2.628,-16.468 -3.421,-20.01 0.64,-0.24 1.284,-0.503 1.928,-0.781 5.435,4.364 12.529,10.732 13.595,14.996 0.245,0.979 0.076,1.894 -0.514,2.798 -1.886,2.885 -7.36,4.78 -11.183,5.793 -0.184,-1.288 -0.324,-2.25 -0.405,-2.796 z m -20.491,-17.003 c 2.453,0 5.399,-0.182 8.609,-0.733 -1.206,4.402 -3.936,10.107 -10.023,10.454 -2.213,0.128 -3.992,-0.545 -5.472,-2.051 -2.154,-2.19 -3.189,-5.727 -3.687,-8.707 3.479,0.678 7.028,1.037 10.573,1.037 z m 0,-1.573 c -13.496,0 -27.058,-5.274 -36.281,-14.109 -1.088,-1.042 -2.077,-2.195 -2.994,-3.415 0.107,-12.685 4.921,-25.783 12.073,-28.697 6.488,-2.643 10.688,-6.159 13.106,-8.705 -0.716,4.012 -0.569,8.657 -0.56,8.925 0.009,0.244 0.129,0.469 0.327,0.611 0.198,0.142 0.453,0.187 0.683,0.116 9.044,-2.679 17.647,-11.32 20.827,-14.79 1.305,11.411 13.706,17.742 14.262,18.019 0.342,0.172 0.765,0.068 0.991,-0.246 1.76,-2.464 1.143,-9.208 0.752,-12.261 9.454,5.008 12.694,22.317 13.789,34.897 -10.958,16.996 -27.635,19.655 -36.975,19.655 z m -19.183,-1.869 c -0.633,4.929 -1.766,13.807 -3.015,23.808 -3.408,-0.747 -11.19,-2.799 -13.516,-6.359 -0.591,-0.904 -0.76,-1.819 -0.515,-2.798 1.123,-4.49 8.928,-11.313 14.443,-15.673 0.857,0.362 1.725,0.702 2.603,1.022 z m 50.916,20.119 c 0.668,-0.557 1.237,-1.158 1.662,-1.809 0.833,-1.274 1.076,-2.633 0.724,-4.04 -1.133,-4.532 -8.005,-10.87 -13.512,-15.349 5.822,-2.794 11.671,-7.221 16.563,-14.179 0.448,6.489 0.338,11.21 0.334,11.352 -0.006,0.229 0.094,0.434 0.251,0.584 -1.93,11.31 -1.586,26.402 -0.836,39.644 -1.505,-4.823 -3.605,-11.333 -5.186,-16.203 z m -69.886,-20.327 c 0.145,0.123 0.327,0.185 0.507,0.185 0.16,0 0.32,-0.048 0.458,-0.146 0.292,-0.209 0.405,-0.59 0.275,-0.925 -1.395,-3.586 -2.133,-7.715 -2.318,-11.972 0.592,0.685 1.212,1.34 1.861,1.963 3.977,3.81 8.741,6.966 13.947,9.362 -5.62,4.497 -13.143,11.251 -14.333,16.011 -0.352,1.407 -0.109,2.766 0.724,4.04 0.425,0.65 0.993,1.252 1.662,1.809 -1.081,3.331 -2.404,7.426 -3.615,11.227 -0.268,-12.386 -1.278,-25.915 -3.713,-36.487 2.542,3.198 4.481,4.879 4.545,4.933 z m -3.744,42.995 c 0.851,-1.18 1.73,-2.4 2.258,-4.115 1.456,-4.733 3.827,-12.092 5.608,-17.583 2.366,1.525 5.427,2.634 8.01,3.38 -0.873,1.862 -1.841,3.772 -2.797,5.654 -3.261,6.419 -6.077,11.964 -4.566,14.554 1.051,1.802 1.396,3.704 0.945,5.216 -0.237,0.793 -0.686,1.405 -1.247,1.683 -0.565,-0.001 -1.883,-1.908 -2.446,-2.722 -0.948,-1.371 -1.47,-2.127 -2.217,-2.127 -0.381,0 -0.718,0.219 -0.901,0.585 -0.729,1.456 0.233,3.36 1.689,6.241 l 0.463,0.919 c 0.213,0.427 0.426,0.829 0.627,1.208 0.49,0.926 1.16,2.194 0.989,2.509 -0.006,0.011 -0.16,0.271 -1.29,0.374 -0.068,0.006 -0.135,0.009 -0.203,0.009 -2.925,0 -7.241,-5.098 -7.241,-9.679 0,-2.89 1.127,-4.453 2.319,-6.106 z m 75.033,15.776 c -1.131,-0.102 -1.284,-0.363 -1.29,-0.374 -0.171,-0.316 0.5,-1.584 0.989,-2.511 0.2,-0.378 0.413,-0.78 0.626,-1.206 l 0.463,-0.919 c 1.455,-2.881 2.418,-4.785 1.69,-6.241 -0.183,-0.366 -0.52,-0.585 -0.902,-0.585 -0.747,0 -1.269,0.756 -2.217,2.128 -0.561,0.813 -1.877,2.717 -2.457,2.717 0,0 -10e-4,0 -0.002,0 -0.547,-0.273 -0.997,-0.885 -1.233,-1.677 -0.451,-1.512 -0.105,-3.413 0.945,-5.217 1.512,-2.59 -1.305,-8.134 -4.566,-14.554 -0.956,-1.882 -1.924,-3.793 -2.798,-5.654 2.583,-0.746 5.644,-1.855 8.01,-3.38 1.781,5.491 4.152,12.85 5.608,17.583 0.529,1.715 1.407,2.935 2.258,4.115 1.192,1.653 2.318,3.216 2.318,6.106 0.002,4.687 -4.482,9.941 -7.442,9.669 z"
   id="path234" />

		<path
   style="fill:#573f45"
   d="m 405.424,408.541 c 10.319,0 12.945,-8.341 13.594,-11.927 0.51,-2.815 0.539,-7.254 -1.02,-7.838 -1.297,-0.486 -10.241,-0.501 -11.256,-0.501 -13.517,0 -13.897,0.824 -14.125,1.317 -0.851,1.843 -1.65,8.571 1.515,13.517 2.306,3.605 6.105,5.432 11.292,5.432 z m -11.461,-18.085 c 1.017,-0.309 5.566,-0.607 12.779,-0.607 5.603,0 9.734,0.19 10.601,0.374 0.478,0.833 0.956,5.717 -1.15,10.181 -1.413,2.994 -4.428,6.565 -10.769,6.565 -4.616,0 -7.969,-1.583 -9.967,-4.706 -2.703,-4.225 -2.105,-10.105 -1.494,-11.807 z"
   id="path235" />

		<path
   style="fill:#573f45"
   d="m 421.411,327.871 c 2.413,0 4.369,-1.956 4.369,-4.37 0,-2.413 -1.956,-4.37 -4.369,-4.37 -2.413,0 -4.37,1.956 -4.37,4.37 10e-4,2.414 1.957,4.37 4.37,4.37 z m -1.048,-7.515 c 0.965,0 1.748,0.783 1.748,1.748 0,0.965 -0.783,1.748 -1.748,1.748 -0.965,0 -1.748,-0.783 -1.748,-1.748 0,-0.966 0.782,-1.748 1.748,-1.748 z"
   id="path236" />

		<path
   style="fill:#573f45"
   d="m 391.524,323.502 c 0,-2.413 -1.956,-4.37 -4.37,-4.37 -2.413,0 -4.37,1.956 -4.37,4.37 0,2.413 1.956,4.37 4.37,4.37 2.413,-0.001 4.37,-1.957 4.37,-4.37 z m -7.167,-1.398 c 0,-0.965 0.783,-1.748 1.748,-1.748 0.965,0 1.748,0.783 1.748,1.748 0,0.965 -0.783,1.748 -1.748,1.748 -0.965,-10e-4 -1.748,-0.783 -1.748,-1.748 z"
   id="path237" />

		<path
   style="fill:#573f45"
   d="m 406.453,332.641 c -0.472,0.302 -0.268,0.988 0.277,1.023 1.719,0.108 2.617,-1.908 1.966,-3.314 -0.286,-0.616 -0.812,-1.091 -1.472,-1.269 -0.671,-0.181 -1.669,0.065 -2.007,0.718 -0.103,0.199 0.019,0.542 0.29,0.505 0.463,-0.062 0.865,-0.354 1.35,-0.247 0.328,0.072 0.605,0.352 0.733,0.656 0.131,0.311 0.176,0.698 0.034,1.014 -0.217,0.481 -0.758,0.649 -1.171,0.914 z"
   id="path238" />

		<path
   style="fill:#573f45"
   d="m 407.341,348.059 c 4.851,0 7.62,-3.563 8.296,-5.958 0.37,-1.308 0.172,-2.309 -0.543,-2.748 -0.969,-0.596 -5.074,-0.685 -7.436,-0.685 -7.845,0 -8.377,0.818 -8.579,1.126 -0.512,0.788 -0.005,2.511 0.683,3.779 0.731,1.349 2.934,4.486 7.579,4.486 z m 6.864,-7.427 c 0.104,0.189 0.06,1.142 -0.669,2.376 -0.617,1.046 -2.456,3.478 -6.195,3.478 -2.815,0 -4.516,-1.379 -5.447,-2.535 -1.048,-1.303 -1.431,-2.674 -1.456,-3.224 0.745,-0.221 3.226,-0.486 7.22,-0.486 3.939,0 6.244,0.268 6.547,0.391 z"
   id="path239" />

	</g>
  </g>
</svg>
