<?xml version="1.0" encoding="UTF-8" standalone="no"?>
<!-- Created with Inkscape (http://www.inkscape.org/) -->

<svg
   width="38.659912mm"
   height="94.10125mm"
   viewBox="0 0 38.659912 94.101248"
   version="1.1"
   id="svg1"
   inkscape:version="1.4.2 (f4327f4, 2025-05-13)"
   sodipodi:docname="generic-agender-4.svg"
   xmlns:inkscape="http://www.inkscape.org/namespaces/inkscape"
   xmlns:sodipodi="http://sodipodi.sourceforge.net/DTD/sodipodi-0.dtd"
   xmlns:xlink="http://www.w3.org/1999/xlink"
   xmlns="http://www.w3.org/2000/svg"
   xmlns:svg="http://www.w3.org/2000/svg">
  <sodipodi:namedview
     id="namedview1"
     pagecolor="#ffffff"
     bordercolor="#000000"
     borderopacity="0.25"
     inkscape:showpageshadow="2"
     inkscape:pageopacity="0.0"
     inkscape:pagecheckerboard="0"
     inkscape:deskcolor="#d1d1d1"
     inkscape:document-units="mm"
     inkscape:zoom="1.2275954"
     inkscape:cx="14.662812"
     inkscape:cy="-46.432237"
     inkscape:window-width="2880"
     inkscape:window-height="1676"
     inkscape:window-x="-12"
     inkscape:window-y="-12"
     inkscape:window-maximized="1"
     inkscape:current-layer="layer1" />
  <defs
     id="defs1">
    <clipPath
       id="XMLID_00000091697276168001632890000017982247472649003949_">
							<use
   xlink:href="#XMLID_5093_"
   style="overflow:visible"
   id="use91" />

						</clipPath>
    <rect
       id="XMLID_5093_"
       x="238.70399"
       y="145.08501"
       width="88.318001"
       height="53.285" />
  </defs>
  <g
     inkscape:label="图层 1"
     inkscape:groupmode="layer"
     id="layer1"
     transform="translate(-101.07082,-160.60224)">
    <g
       id="XMLID_110_"
       transform="matrix(0.26458333,0,0,0.26458333,45.697287,142.60271)">
			<g
   id="XMLID_5799_">
				<path
   id="XMLID_1793_"
   style="fill:#e06f6e"
   d="m 260.024,160.755 c -5.383,-12 -10.016,-24.554 -11.087,-37.662 -1.071,-13.108 1.742,-26.935 9.95,-37.211 l 12.9,-5.979 c 10.07,-5.539 22.973,-5.538 33.042,0.003 10.069,5.54 16.975,16.44 17.685,27.91 0.326,5.259 -0.565,10.52 -1.743,15.656 -1.426,6.217 -3.279,12.336 -5.543,18.3" />

			</g>

			<g
   id="XMLID_5841_">
				<path
   id="XMLID_1792_"
   style="fill:#e06f6e"
   d="m 350.735,154.036 c -4.703,-6.026 -13.099,-8.969 -20.423,-7.323 1.822,-1.683 3.18,-4.142 3.983,-6.522 0.729,-2.163 1.23,-4.576 0.363,-6.688 -1.399,-3.408 -5.82,-4.575 -9.431,-3.844 -4.17,0.844 -7.893,3.671 -9.827,7.461 l -58.939,0.904 c -2.242,-7.094 -9.526,-12.254 -16.961,-12.018 -2.277,0.073 -4.567,0.615 -6.521,1.787 -4.155,2.492 -6.262,7.638 -5.946,12.472 0.285,4.359 2.295,8.44 5.019,11.88 -1.526,-0.222 -3.085,-0.215 -4.602,0.043 -4.985,0.848 -9.393,4.197 -11.919,8.577 -4.893,8.485 -2.293,20.117 4.906,26.76 7.199,6.643 18.038,8.502 27.52,6.048 9.482,-2.454 17.64,-8.782 23.715,-16.464 l 22.798,2.17 c 2.476,6.552 7.772,11.887 14.111,14.865 6.339,2.978 13.642,3.671 20.536,2.434 9.406,-1.687 18.32,-7.193 22.994,-15.527 4.674,-8.334 4.504,-19.482 -1.376,-27.015 z" />

			</g>

			<g
   id="XMLID_4619_">
				<g
   id="XMLID_5603_">
					<g
   id="XMLID_5297_">
						<g
   id="g86">
							<path
   style="fill:#9c765a"
   d="m 327.987,272.677 c 8.374,-3.994 16.144,-3.282 23.807,1.976 0.339,-0.803 0.677,-1.606 1.015,-2.409 -8.456,-1.244 -16.947,-1.711 -25.491,-1.598 0.419,0.731 0.839,1.461 1.258,2.192 0.631,-1.036 6.312,-0.774 7.573,-0.738 3.212,0.091 6.391,0.598 9.558,1.109 1.682,0.272 2.548,-1.703 1.148,-2.723 -5.529,-4.026 -13.504,-3.048 -19.928,-2.686 -0.738,0.042 -1.448,0.751 -1.174,1.541 0.389,1.118 0.514,1.346 1.328,2.209 0.697,0.739 1.908,0.335 2.188,-0.578 0.372,-1.211 0.305,-1.508 -0.287,-2.614 -0.431,-0.805 -1.81,-0.873 -2.221,0 -0.643,1.366 -0.666,1.658 -0.452,3.156 0.234,1.642 2.549,1.043 2.691,-0.364 0.135,-1.335 0.095,-1.389 -0.619,-2.524 -0.945,-1.501 -2.997,-0.197 -2.322,1.357 1.775,4.084 8.25,5.889 12.129,7.248 0.275,-0.998 0.55,-1.995 0.825,-2.993 -3.856,-1.211 -7.739,-2.21 -11.481,-3.757 -1.393,-0.576 -2.435,1.508 -1.43,2.456 2.785,2.628 8.032,3.305 11.578,4.345 1.856,0.544 2.649,-2.35 0.798,-2.893 -3.004,-0.881 -7.954,-1.263 -10.297,-3.53 -0.594,0.769 -1.187,1.539 -1.781,2.308 3.838,1.638 7.803,2.84 11.788,4.064 1.924,0.591 2.7,-2.35 0.825,-2.993 -3.003,-1.03 -8.887,-2.651 -10.633,-5.612 -0.704,0.543 -1.408,1.086 -2.112,1.629 0.013,0.177 0.027,0.354 0.04,0.53 0.881,0 1.761,0 2.642,0 0.054,-0.479 0.108,-0.958 0.161,-1.436 -0.784,0.103 -1.567,0.205 -2.351,0.307 -0.005,0.206 -0.01,0.413 -0.016,0.619 0.729,-0.193 1.458,-0.385 2.188,-0.578 -0.318,-0.432 -0.636,-0.864 -0.954,-1.295 -0.35,0.611 -0.701,1.221 -1.051,1.831 5.902,-0.558 13.417,-0.756 18.424,2.824 0.383,-0.908 0.765,-1.815 1.148,-2.723 -4.599,-0.741 -9.285,-1.537 -13.957,-1.152 -2.077,0.171 -5.385,0.069 -6.482,2.184 -0.492,0.947 0.104,2.22 1.258,2.192 8.425,-0.203 16.774,0.301 25.14,1.273 1.364,0.158 1.7,-1.834 0.665,-2.456 -7.755,-4.662 -18.563,-7.71 -26.202,-1.081 -0.798,0.696 0.219,1.787 1.066,1.383 z"
   id="path86" />

						</g>

					</g>

					<g
   id="XMLID_5307_">
						<g
   id="g87">
							<path
   style="fill:#9c765a"
   d="m 236.094,271.296 c -7.637,-6.627 -18.447,-3.58 -26.202,1.081 -1.035,0.622 -0.7,2.614 0.665,2.455 8.368,-0.971 16.715,-1.474 25.14,-1.273 1.153,0.027 1.749,-1.244 1.257,-2.191 -1.095,-2.109 -4.434,-2.016 -6.482,-2.184 -4.672,-0.383 -9.359,0.411 -13.957,1.152 0.383,0.908 0.765,1.815 1.148,2.722 5.003,-3.577 12.504,-3.379 18.424,-2.826 -0.35,-0.61 -0.7,-1.219 -1.049,-1.829 -0.319,0.431 -0.637,0.863 -0.956,1.294 0.73,0.193 1.459,0.385 2.189,0.578 -0.005,-0.206 -0.011,-0.413 -0.016,-0.619 -0.784,-0.102 -1.568,-0.205 -2.352,-0.307 0.053,0.478 0.105,0.957 0.158,1.435 0.883,0 1.766,0 2.65,0 0.011,-0.177 0.022,-0.355 0.033,-0.532 -0.702,-0.541 -1.403,-1.083 -2.105,-1.624 -1.747,2.946 -7.762,4.624 -10.636,5.61 -1.872,0.642 -1.099,3.591 0.825,2.993 4.062,-1.262 8.091,-2.561 12.002,-4.242 -0.593,-0.769 -1.186,-1.538 -1.779,-2.306 -2.372,2.28 -7.135,2.494 -10.13,3.301 -1.862,0.502 -1.07,3.404 0.798,2.893 3.659,-1 8.52,-1.431 11.409,-4.117 1.014,-0.942 -0.042,-3.032 -1.429,-2.454 -3.815,1.589 -7.763,2.683 -11.695,3.933 0.275,0.998 0.55,1.995 0.825,2.993 3.91,-1.37 10.353,-3.144 12.126,-7.25 0.671,-1.554 -1.343,-2.829 -2.314,-1.353 -0.742,1.128 -0.779,1.179 -0.627,2.522 0.156,1.38 2.47,2.04 2.699,0.365 0.204,-1.493 0.184,-1.788 -0.456,-3.157 -0.409,-0.875 -1.792,-0.804 -2.222,0 -0.595,1.113 -0.659,1.402 -0.287,2.614 0.28,0.911 1.493,1.319 2.189,0.578 0.811,-0.863 0.938,-1.092 1.326,-2.209 0.274,-0.789 -0.436,-1.496 -1.172,-1.539 -6.444,-0.371 -14.386,-1.35 -19.927,2.685 -1.39,1.012 -0.547,2.996 1.148,2.722 3.168,-0.511 6.345,-1.018 9.558,-1.109 1.514,-0.043 6.918,-0.337 7.573,0.738 0.419,-0.73 0.838,-1.461 1.257,-2.191 -8.543,-0.116 -17.035,0.353 -25.491,1.598 0.338,0.803 0.677,1.605 1.015,2.408 7.653,-5.252 15.437,-5.967 23.807,-1.976 0.837,0.399 1.869,-0.682 1.063,-1.382 z"
   id="path87" />

						</g>

					</g>

					<g
   id="XMLID_5092_">
						<g
   id="XMLID_5874_">
							<path
   style="fill:#9c765a"
   d="m 324.051,163.757 c -0.14,4.103 -0.098,8.669 -0.028,13.144 0.049,4.505 0.125,9.038 0.229,13.579 l 0.304,13.646 0.371,13.651 -0.376,-1.899 3.41,13.161 3.389,13.168 3.331,13.186 3.244,13.214 -9.772,3.129 -5.034,-12.641 -4.948,-12.669 -4.89,-12.687 -4.869,-12.694 c -0.135,-0.352 -0.224,-0.709 -0.272,-1.067 l -0.104,-0.833 -1.727,-13.675 c -0.554,-4.558 -1.124,-9.119 -1.615,-13.693 -0.501,-4.574 -0.984,-9.16 -1.426,-13.777 -0.408,-4.647 -0.801,-9.209 -1.002,-14.243 z"
   id="path88" />

						</g>

						<g
   id="XMLID_5013_">
							<g
   id="g89">
								<path
   style="fill:#9c765a"
   d="m 322.916,218.073 c 0.083,-0.083 0.167,-0.167 0.25,-0.25 0.244,-0.227 0.416,-0.495 0.517,-0.805 0.156,-0.298 0.228,-0.619 0.215,-0.963 0.013,-0.344 -0.059,-0.665 -0.215,-0.963 -0.101,-0.31 -0.273,-0.578 -0.517,-0.805 -0.169,-0.13 -0.337,-0.261 -0.506,-0.391 -0.39,-0.226 -0.81,-0.34 -1.262,-0.341 -0.221,0.03 -0.443,0.06 -0.665,0.089 -0.423,0.119 -0.791,0.333 -1.103,0.643 -0.083,0.083 -0.167,0.167 -0.25,0.25 -0.244,0.227 -0.416,0.495 -0.517,0.805 -0.157,0.298 -0.228,0.619 -0.215,0.963 -0.013,0.344 0.059,0.665 0.215,0.963 0.101,0.31 0.273,0.578 0.517,0.805 0.169,0.13 0.337,0.261 0.506,0.391 0.39,0.226 0.81,0.34 1.262,0.341 0.221,-0.03 0.443,-0.059 0.665,-0.089 0.423,-0.119 0.791,-0.333 1.103,-0.643 z"
   id="path89" />

							</g>

						</g>

					</g>

					<g
   id="XMLID_5254_">
						<g
   id="XMLID_5326_">
							<path
   style="fill:#9c765a"
   d="m 262.528,163.757 c -0.201,5.033 -0.594,9.596 -1.002,14.243 -0.443,4.617 -0.925,9.203 -1.426,13.777 -0.491,4.574 -1.061,9.135 -1.615,13.693 l -1.727,13.675 -0.102,0.809 c -0.047,0.374 -0.147,0.754 -0.274,1.091 l -4.869,12.694 -4.89,12.687 -4.948,12.669 -5.035,12.641 -9.772,-3.129 3.244,-13.214 3.331,-13.186 3.389,-13.168 3.41,-13.161 -0.376,1.899 0.372,-13.651 0.304,-13.646 c 0.104,-4.541 0.18,-9.074 0.229,-13.579 0.069,-4.475 0.112,-9.042 -0.028,-13.144 z"
   id="path90" />

						</g>

						<g
   id="XMLID_5283_">
							<g
   id="g91">
								<path
   style="fill:#9c765a"
   d="m 245.413,214.537 c -0.083,-0.083 -0.167,-0.167 -0.25,-0.25 -0.227,-0.244 -0.495,-0.416 -0.805,-0.517 -0.298,-0.156 -0.619,-0.228 -0.963,-0.215 -0.344,-0.013 -0.665,0.059 -0.963,0.215 -0.31,0.101 -0.578,0.273 -0.805,0.517 -0.13,0.169 -0.261,0.337 -0.391,0.506 -0.226,0.39 -0.34,0.811 -0.341,1.262 0.03,0.222 0.059,0.443 0.089,0.665 0.119,0.423 0.333,0.791 0.643,1.103 0.083,0.083 0.167,0.167 0.25,0.25 0.226,0.244 0.495,0.416 0.805,0.517 0.298,0.156 0.619,0.228 0.963,0.215 0.344,0.013 0.665,-0.059 0.963,-0.215 0.31,-0.101 0.578,-0.273 0.805,-0.517 0.13,-0.169 0.261,-0.337 0.391,-0.506 0.226,-0.39 0.34,-0.811 0.341,-1.262 -0.03,-0.221 -0.059,-0.443 -0.089,-0.665 -0.118,-0.423 -0.333,-0.791 -0.643,-1.103 z"
   id="path91" />

							</g>

						</g>

					</g>

					<g
   id="XMLID_5242_">
						<defs
   id="defs91">
							<rect
   id="rect1"
   x="238.70399"
   y="145.08501"
   width="88.318001"
   height="53.285" />

						</defs>

						<clipPath
   id="clipPath1">
							<use
   xlink:href="#XMLID_5093_"
   style="overflow:visible"
   id="use1" />

						</clipPath>

						<path
   id="XMLID_16_"
   style="fill:#9c765a"
   d="m 312.55,152.337 -29.687,-4.895 -29.687,4.895 c -9.705,1.977 -13.954,6.129 -11.482,18.536 l 11.347,63.425 h 29.822 29.822 l 11.347,-63.425 c 2.472,-12.407 -1.777,-16.559 -11.482,-18.536 z"
   clip-path="url(#XMLID_00000091697276168001632890000017982247472649003949_)" />

					</g>

					<g
   id="XMLID_5897_">
						<path
   id="XMLID_1741_"
   style="fill:#bb7bea"
   d="m 258.145,412.834 c 0,0 -11.651,4.956 -18.518,8.745 -0.695,0.383 -1.479,1.239 -0.941,1.822 0.247,0.268 0.658,0.287 1.023,0.287 7.893,0 15.786,0 23.68,0 0.142,-2.028 1.225,-3.971 2.877,-5.16 0.538,1.321 1.077,2.642 1.615,3.964 0.317,0.779 0.481,1.196 0.481,1.196 h 4.726 c 0,0 0.354,-2.531 0.029,-4.804 -0.222,-1.552 -1.601,-5.588 -2.127,-5.901 -0.336,-0.201 -0.756,-0.176 -1.147,-0.142 -3.466,0.3 -11.698,-0.007 -11.698,-0.007" />

					</g>

					<g
   id="XMLID_5894_">
						<path
   id="XMLID_1710_"
   style="fill:#bb7bea"
   d="m 307.396,412.834 c 0,0 11.651,4.956 18.518,8.745 0.695,0.383 1.479,1.239 0.941,1.822 -0.247,0.268 -0.658,0.287 -1.023,0.287 -7.893,0 -15.786,0 -23.68,0 -0.142,-2.028 -1.225,-3.971 -2.877,-5.16 -0.538,1.321 -1.077,2.642 -1.615,3.964 -0.317,0.779 -0.482,1.196 -0.482,1.196 h -4.726 c 0,0 -0.354,-2.531 -0.029,-4.804 0.222,-1.552 1.601,-5.588 2.127,-5.901 0.336,-0.201 0.756,-0.176 1.147,-0.142 3.466,0.3 11.699,-0.007 11.699,-0.007" />

					</g>

					<g
   id="XMLID_5891_">
						<path
   style="fill:#9c765a"
   d="m 281.919,262.529 -8.634,60.821 0.003,-1.62 -0.41,22.794 -0.556,22.762 c -0.428,15.175 -0.946,30.352 -1.717,45.547 l -12.008,0.277 c -1.497,-14.979 -3.245,-29.963 -5.082,-44.938 l -2.841,-22.456 -2.981,-22.408 0.003,-1.621 -0.691,-61.427 z"
   id="path92" />

					</g>

					<g
   id="XMLID_5888_">
						<path
   style="fill:#9c765a"
   d="m 318.537,260.26 -0.691,61.427 0.002,1.624 -2.984,22.368 -2.843,22.417 c -1.838,14.949 -3.585,29.907 -5.082,44.861 l -12.008,-0.277 c -0.771,-15.17 -1.289,-30.322 -1.717,-45.472 l -0.554,-22.724 -0.407,-22.757 0.002,1.624 -8.634,-60.821 z"
   id="path93" />

					</g>

					<g
   id="XMLID_5809_">
						<g
   id="XMLID_5867_">
							
								<line
   style="fill:none;stroke:#9c765a;stroke-width:13.8635;stroke-linecap:round;stroke-miterlimit:10"
   x1="282.86301"
   y1="137.802"
   x2="282.86301"
   y2="148.56599"
   id="line93" />

							
								<line
   style="opacity:0.2;fill:none;stroke:#9c765a;stroke-width:13.8635;stroke-linecap:round;stroke-miterlimit:10"
   x1="282.86301"
   y1="137.802"
   x2="282.86301"
   y2="148.56599"
   id="line94" />

						</g>

						
							<line
   id="XMLID_5866_"
   style="fill:none;stroke:#9c765a;stroke-width:12.4275;stroke-miterlimit:10"
   x1="309.43201"
   y1="119.059"
   x2="256.29501"
   y2="119.059" />

						<g
   id="XMLID_5847_">
							<g
   id="XMLID_5857_">
								<path
   id="XMLID_5865_"
   style="fill:#9c765a"
   d="m 260.063,118.989 c 0,0.047 0.001,0.094 0.002,0.142 0.019,1.171 -0.087,2.263 -0.32,3.277 -0.15,1.054 -0.406,1.967 -0.768,2.737 -0.336,0.829 -0.735,1.416 -1.195,1.759 -0.443,0.533 -0.919,0.777 -1.431,0.732 -0.329,-0.101 -0.658,-0.202 -0.987,-0.304 -0.629,-0.404 -1.175,-1.133 -1.639,-2.187 -0.193,-0.574 -0.387,-1.148 -0.581,-1.721 -0.336,-1.327 -0.505,-2.758 -0.507,-4.293 -0.001,-0.047 -0.001,-0.095 -0.002,-0.142 -0.019,-1.171 0.087,-2.263 0.32,-3.277 0.15,-1.055 0.406,-1.967 0.768,-2.737 0.336,-0.829 0.735,-1.416 1.195,-1.759 0.443,-0.533 0.919,-0.777 1.431,-0.733 0.329,0.101 0.658,0.203 0.987,0.304 0.629,0.404 1.175,1.133 1.639,2.187 0.193,0.574 0.387,1.148 0.581,1.721 0.336,1.327 0.505,2.758 0.507,4.294 z" />

								<g
   id="XMLID_5858_">
									<g
   id="g94">
										<path
   style="fill:#17265c"
   d="m 255.217,118.106 c 0.009,-0.463 0.07,-0.938 0.247,-1.371 0.07,-0.171 0.164,-0.354 0.297,-0.486 0.115,-0.115 0.166,-0.103 0.303,-0.165 -0.16,0.072 0.145,-0.051 -0.072,-0.003 0.01,-0.002 0.212,0.058 0.056,0.007 0.128,0.042 0.119,0.054 0.227,0.188 0.156,0.195 0.279,0.629 0.309,0.952 0.352,-0.202 0.705,-0.404 1.057,-0.607 -1.055,-0.472 -1.738,0.507 -2.018,1.409 -0.17,0.545 -0.202,1.145 -0.195,1.713 0.017,1.262 0.303,3.03 1.731,3.425 0.873,0.241 1.245,-1.114 0.373,-1.355 -0.019,-0.005 -0.172,-0.063 -0.089,-0.025 0.082,0.037 -0.073,-0.048 -0.074,-0.049 0.108,0.081 -0.07,-0.07 -0.107,-0.111 -0.07,-0.078 0.077,0.13 -0.024,-0.035 -0.023,-0.037 -0.046,-0.074 -0.068,-0.112 -0.028,-0.049 -0.053,-0.1 -0.076,-0.151 -0.028,-0.061 0.017,0.053 -0.022,-0.059 -0.169,-0.486 -0.212,-0.823 -0.233,-1.303 -0.009,-0.218 -0.009,-0.437 0,-0.655 0.005,-0.109 0.012,-0.217 0.021,-0.325 0.004,-0.04 0.008,-0.079 0.012,-0.119 0.017,-0.184 -0.016,0.094 -0.001,-0.004 0.035,-0.215 0.082,-0.428 0.163,-0.631 0.041,-0.103 0.097,-0.226 0.158,-0.313 0.031,-0.044 0.033,-0.077 0.028,-0.049 0.087,-0.045 0.078,-0.049 -0.029,-0.012 -0.087,0.04 -0.174,0.031 -0.26,-0.025 0.433,0.194 1.113,-0.021 1.057,-0.607 -0.103,-1.094 -0.677,-2.618 -2.032,-2.536 -1.619,0.097 -2.119,2.1 -2.144,3.413 -0.017,0.906 1.388,0.906 1.405,10e-4 z"
   id="path94" />

									</g>

								</g>

							</g>

							<g
   id="XMLID_5848_">
								<path
   id="XMLID_5856_"
   style="fill:#9c765a"
   d="m 305.664,118.989 c -10e-4,0.047 -10e-4,0.094 -0.002,0.142 -0.019,1.171 0.087,2.263 0.32,3.277 0.15,1.054 0.406,1.967 0.768,2.737 0.336,0.829 0.735,1.416 1.195,1.759 0.443,0.533 0.919,0.777 1.431,0.732 0.329,-0.101 0.658,-0.202 0.987,-0.304 0.629,-0.404 1.175,-1.133 1.638,-2.187 0.194,-0.574 0.387,-1.148 0.581,-1.721 0.336,-1.327 0.505,-2.758 0.507,-4.293 0,-0.047 10e-4,-0.095 0.002,-0.142 0.019,-1.171 -0.087,-2.263 -0.32,-3.277 -0.15,-1.055 -0.406,-1.967 -0.768,-2.737 -0.336,-0.829 -0.735,-1.416 -1.195,-1.759 -0.443,-0.533 -0.919,-0.777 -1.431,-0.733 -0.329,0.101 -0.658,0.203 -0.987,0.304 -0.629,0.404 -1.175,1.133 -1.638,2.187 -0.194,0.574 -0.387,1.148 -0.581,1.721 -0.336,1.327 -0.505,2.758 -0.507,4.294 z" />

								<g
   id="XMLID_5849_">
									<g
   id="g95">
										<path
   style="fill:#17265c"
   d="m 311.914,118.106 c -0.025,-1.312 -0.525,-3.317 -2.144,-3.413 -1.354,-0.08 -1.929,1.442 -2.032,2.536 -0.055,0.586 0.624,0.8 1.057,0.607 -0.058,0.016 -0.115,0.033 -0.173,0.049 -0.179,-0.066 -0.228,-0.076 -0.145,-0.03 -10e-4,0.007 0.025,0.019 0.057,0.067 0.056,0.084 0.109,0.194 0.15,0.293 0.084,0.2 0.129,0.414 0.166,0.626 0.024,0.133 -0.01,-0.095 0,0.001 0.004,0.039 0.009,0.078 0.012,0.118 0.01,0.107 0.017,0.214 0.022,0.322 0.011,0.229 0.011,0.459 10e-4,0.689 -0.02,0.472 -0.069,0.787 -0.221,1.269 -0.038,0.12 -0.01,0.058 -0.095,0.214 -0.025,0.047 -0.165,0.247 -0.087,0.153 -0.033,0.04 -0.07,0.075 -0.105,0.112 -0.019,0.021 -0.129,0.113 -0.022,0.022 -0.025,0.021 -0.072,0.051 -0.103,0.06 0.154,-0.046 -0.045,0.01 -0.06,0.014 -0.87,0.241 -0.501,1.596 0.373,1.355 1.429,-0.395 1.714,-2.162 1.731,-3.425 0.007,-0.548 -0.022,-1.126 -0.176,-1.655 -0.268,-0.918 -0.959,-1.949 -2.036,-1.467 0.352,0.202 0.705,0.404 1.057,0.607 0.031,-0.329 0.133,-0.727 0.317,-0.961 0.006,-0.007 0.105,-0.111 0.145,-0.144 -0.088,0.07 0.049,-0.025 0.074,-0.035 -0.114,0.047 0.016,0.014 0.056,-0.007 -0.025,0.004 -0.05,0.008 -0.075,0.012 0.073,0.003 0.074,0 0.003,-0.009 0.707,0.239 0.834,1.349 0.847,2.021 0.019,0.902 1.424,0.905 1.406,-0.001 z"
   id="path95" />

									</g>

								</g>

							</g>

						</g>

						<g
   id="XMLID_5844_">
							<path
   style="fill:#9c765a"
   d="m 273.09,143.004 h 19.547 c 7.192,0 13.023,-5.831 13.023,-13.023 v -25.354 c 0,-11.585 -9.392,-20.976 -20.977,-20.976 h -3.64 c -11.585,0 -20.977,9.391 -20.977,20.976 v 25.354 c 0.001,7.192 5.831,13.023 13.024,13.023 z"
   id="path96" />

						</g>

						
							<path
   id="XMLID_5843_"
   style="fill:none;stroke:#17265c;stroke-width:3.5773;stroke-linecap:round;stroke-linejoin:round;stroke-miterlimit:10"
   d="m 291.51,116.834 c 0.72,-1.515 1.979,-2.578 3.337,-2.819 1.359,-0.241 2.791,0.344 3.798,1.553" />

						
							<path
   id="XMLID_5842_"
   style="fill:none;stroke:#17265c;stroke-width:3.5773;stroke-linecap:round;stroke-linejoin:round;stroke-miterlimit:10"
   d="m 267.082,115.91 c 1.337,-1.539 3.225,-2.235 4.986,-1.838 0.246,0.056 0.492,0.132 0.72,0.263 0.59,0.337 1.022,1.004 1.433,1.648" />

						<g
   id="XMLID_5833_">
							<g
   id="XMLID_5839_">
								<path
   style="opacity:0.4;fill:#9c765a"
   d="m 275.384,125.481 c -0.317,1.418 -2.971,2.117 -5.927,1.562 -2.956,-0.555 -5.094,-2.154 -4.777,-3.571 0.317,-1.418 2.971,-2.117 5.926,-1.562 2.957,0.555 5.095,2.154 4.778,3.571 z"
   id="path97" />

							</g>

							<path
   id="XMLID_5838_"
   style="fill:#17265c"
   d="m 271.326,123.244 c -1.072,0 -1.941,-1.173 -1.941,-2.619 0,-1.447 0.869,-2.619 1.941,-2.619 1.072,0 1.941,1.173 1.941,2.619 0,1.447 -0.869,2.619 -1.941,2.619 z" />

							<g
   id="XMLID_5835_">
								<path
   style="opacity:0.4;fill:#9c765a"
   d="m 290.343,125.481 c 0.317,1.418 2.971,2.117 5.926,1.562 2.956,-0.555 5.094,-2.154 4.777,-3.571 -0.317,-1.418 -2.971,-2.117 -5.926,-1.562 -2.956,0.555 -5.095,2.154 -4.777,3.571 z"
   id="path98" />

							</g>

							<path
   id="XMLID_5834_"
   style="fill:#17265c"
   d="m 294.4,123.244 c 1.072,0 1.941,-1.173 1.941,-2.619 0,-1.447 -0.869,-2.619 -1.941,-2.619 -1.072,0 -1.941,1.173 -1.941,2.619 0,1.447 0.869,2.619 1.941,2.619 z" />

						</g>

						<g
   id="XMLID_5813_">
							
								<circle
   id="XMLID_5830_"
   transform="matrix(0.3827,-0.9239,0.9239,0.3827,49.2788,344.8879)"
   style="fill:#17265c"
   cx="282.72"
   cy="135.56799"
   r="11.522" />

							<path
   id="XMLID_5829_"
   style="fill:#9c765a"
   d="m 275.957,132.799 c 0,2.974 3.028,5.385 6.764,5.385 3.735,0 6.763,-2.411 6.763,-5.385 0,-2.974 -3.028,-5.385 -6.763,-5.385 -3.736,0 -6.764,2.411 -6.764,5.385 z" />

							<g
   id="XMLID_5821_">
								<path
   style="fill:#9c765a"
   d="m 279.773,116.411 c -0.544,2.55 -0.812,5.159 -0.797,7.767 0.01,1.887 0.187,3.838 1.091,5.493 0.194,0.355 0.431,0.704 0.778,0.911 0.347,0.207 0.827,0.237 1.136,-0.024 0.264,-0.223 0.344,-0.589 0.419,-0.926 0.344,-1.53 0.925,-3.006 1.716,-4.36 0.27,0.398 0.637,0.751 1.095,0.9 0.458,0.149 1.012,0.057 1.327,-0.308 0.314,-0.364 0.287,-1.004 -0.112,-1.273"
   id="path99" />

								<g
   id="g100">
									<path
   style="fill:#17265c"
   d="m 278.869,116.162 c -0.459,2.194 -0.742,4.427 -0.813,6.668 -0.064,2.021 -0.045,4.166 0.657,6.088 0.311,0.852 0.723,1.824 1.494,2.36 0.723,0.503 1.757,0.575 2.437,-0.056 0.674,-0.625 0.722,-1.706 0.981,-2.536 0.322,-1.031 0.764,-2.004 1.301,-2.941 -0.54,0 -1.08,0 -1.619,0 0.75,1.032 1.978,1.826 3.267,1.226 1.168,-0.544 1.517,-2.156 0.515,-3.043 -0.901,-0.797 -2.232,0.524 -1.326,1.326 0.083,0.073 -0.068,0.065 -0.196,0.046 -0.264,-0.039 -0.495,-0.3 -0.641,-0.502 -0.399,-0.549 -1.242,-0.658 -1.619,0 -0.779,1.359 -1.382,2.821 -1.754,4.343 -0.055,0.226 -0.067,0.672 -0.234,0.631 -0.237,-0.058 -0.461,-0.604 -0.555,-0.792 -0.345,-0.693 -0.543,-1.458 -0.672,-2.219 -0.27,-1.594 -0.21,-3.268 -0.118,-4.876 0.102,-1.76 0.342,-3.501 0.704,-5.226 0.245,-1.176 -1.562,-1.68 -1.809,-0.497 z"
   id="path100" />

								</g>

							</g>

							<g
   id="XMLID_5814_">
								<g
   id="g101">
									<path
   style="fill:#17265c"
   d="m 283.444,132.326 c -0.033,0.055 -0.067,0.108 -0.104,0.161 -0.089,0.126 0.029,-0.049 0.057,-0.071 -0.02,0.016 -0.037,0.045 -0.054,0.065 -0.088,0.102 -0.184,0.196 -0.286,0.283 -0.028,0.023 -0.116,0.092 0.012,-0.007 0.139,-0.107 0.019,-0.015 -0.007,0.003 -0.052,0.037 -0.105,0.072 -0.16,0.105 -0.115,0.07 -0.236,0.13 -0.36,0.184 0.075,-0.031 0.149,-0.063 0.224,-0.095 -0.237,0.098 -0.483,0.165 -0.737,0.199 0.083,-0.011 0.166,-0.022 0.249,-0.033 -0.226,0.027 -0.451,0.027 -0.676,-0.001 0.083,0.011 0.166,0.022 0.249,0.033 -0.141,-0.02 -0.278,-0.051 -0.414,-0.093 -0.469,-0.146 -1.043,0.172 -1.153,0.655 -0.116,0.509 0.153,0.998 0.655,1.153 1.538,0.478 3.298,-0.227 4.125,-1.594 0.254,-0.42 0.107,-1.049 -0.336,-1.283 -0.457,-0.241 -1.013,-0.112 -1.284,0.336 z"
   id="path101" />

								</g>

							</g>

						</g>

					</g>

					<g
   id="XMLID_5605_">
						<g
   id="XMLID_5681_">
							<g
   id="g102">
								<path
   style="fill:#17265c"
   d="m 280.18,193.837 c 0.275,-0.626 0.087,-1.293 -0.011,-1.955 -0.135,-0.918 -0.277,-1.84 -0.614,-2.708 -0.074,-0.19 -0.329,-0.157 -0.35,0.047 -0.094,0.927 0.016,1.853 0.129,2.774 0.082,0.663 0.076,1.358 0.508,1.886 0.081,0.099 0.285,0.076 0.338,-0.044 z"
   id="path102" />

							</g>

						</g>

						<g
   id="XMLID_5674_">
							<g
   id="g103">
								<path
   style="fill:#17265c"
   d="m 285.662,191.509 c 0.396,-1.114 0.613,-2.321 0.438,-3.496 -0.016,-0.106 -0.166,-0.105 -0.214,-0.028 -0.64,1.019 -0.906,2.228 -0.988,3.42 -0.032,0.462 0.625,0.495 0.764,0.104 z"
   id="path103" />

							</g>

						</g>

						<g
   id="XMLID_5667_">
							<g
   id="g104">
								<path
   style="fill:#17265c"
   d="m 291.272,186.692 c 0.51,-0.721 1.193,-2.256 0.551,-3.064 -0.047,-0.06 -0.143,-0.044 -0.192,0 -0.344,0.307 -0.397,0.795 -0.495,1.223 -0.124,0.545 -0.265,1.082 -0.361,1.632 -0.053,0.305 0.315,0.466 0.497,0.209 z"
   id="path104" />

							</g>

						</g>

						<g
   id="XMLID_5660_">
							<g
   id="g105">
								<path
   style="fill:#17265c"
   d="m 287.695,182.226 c 0.394,-0.404 0.334,-1.105 0.312,-1.639 -0.026,-0.633 -0.174,-1.215 -0.434,-1.789 -0.056,-0.124 -0.277,-0.096 -0.3,0.039 -0.098,0.585 -0.14,1.156 -0.146,1.75 -0.005,0.508 -0.124,1.162 0.185,1.59 0.09,0.124 0.265,0.17 0.383,0.049 z"
   id="path105" />

							</g>

						</g>

						<g
   id="XMLID_5652_">
							<g
   id="g106">
								<path
   style="fill:#17265c"
   d="m 282.179,183.975 c 0.185,-1.154 -0.151,-2.536 -0.808,-3.504 -0.077,-0.114 -0.259,-0.074 -0.262,0.071 -0.026,1.081 0.11,2.406 0.446,3.433 0.09,0.275 0.569,0.338 0.624,0 z"
   id="path106" />

							</g>

						</g>

						<g
   id="XMLID_5645_">
							<g
   id="g107">
								<path
   style="fill:#17265c"
   d="m 275.745,184.209 c 0.018,-1.01 -0.308,-2.31 -0.995,-3.07 -0.068,-0.075 -0.204,-0.037 -0.227,0.06 -0.233,0.996 0.115,2.299 0.619,3.173 0.163,0.282 0.597,0.154 0.603,-0.163 z"
   id="path107" />

							</g>

						</g>

						<g
   id="XMLID_5638_">
							<g
   id="g108">
								<path
   style="fill:#17265c"
   d="m 276.996,176.453 c 0.351,-1.011 -0.298,-2.125 -0.775,-2.992 -0.081,-0.148 -0.315,-0.08 -0.314,0.085 0.004,0.989 -0.021,2.277 0.776,2.99 0.108,0.097 0.265,0.053 0.313,-0.083 z"
   id="path108" />

							</g>

						</g>

						<g
   id="XMLID_5631_">
							<g
   id="g109">
								<path
   style="fill:#17265c"
   d="m 284.434,174.722 c 0.105,-1.08 -0.085,-2.185 -0.45,-3.202 -0.057,-0.159 -0.268,-0.125 -0.285,0.039 -0.109,1.044 -0.156,2.119 -0.033,3.163 0.057,0.489 0.72,0.498 0.768,0 z"
   id="path109" />

							</g>

						</g>

						<g
   id="XMLID_5620_">
							<g
   id="g110">
								<path
   style="fill:#17265c"
   d="m 274.246,168.711 c -0.063,-0.504 -0.15,-1.005 -0.201,-1.51 -0.043,-0.423 -0.106,-0.848 -0.303,-1.23 -0.039,-0.076 -0.171,-0.102 -0.228,-0.03 -0.646,0.822 -0.365,2.098 0.095,2.942 0.152,0.281 0.68,0.174 0.637,-0.172 z"
   id="path110" />

							</g>

						</g>

						<g
   id="XMLID_5613_">
							<g
   id="g111">
								<path
   style="fill:#17265c"
   d="m 290.835,174.544 c 0.424,-0.838 0.356,-1.816 0.148,-2.702 -0.03,-0.126 -0.233,-0.164 -0.291,-0.038 -0.377,0.82 -0.652,1.767 -0.405,2.668 0.065,0.238 0.429,0.307 0.548,0.072 z"
   id="path111" />

							</g>

						</g>

						<g
   id="XMLID_5606_">
							<g
   id="g112">
								<path
   style="fill:#17265c"
   d="m 294.628,169.456 c 0.247,-0.636 0.302,-1.364 0.342,-2.04 0.035,-0.594 0.052,-1.24 -0.247,-1.769 -0.062,-0.109 -0.202,-0.091 -0.267,0 -0.661,0.917 -0.593,2.767 -0.316,3.81 0.069,0.259 0.403,0.219 0.488,-0.001 z"
   id="path112" />

							</g>

						</g>

					</g>

					<g
   id="XMLID_3820_">
						<path
   id="XMLID_5077_"
   style="fill:#e9994f"
   d="m 326.714,248.728 c -0.563,-4.054 -1.751,-8.362 -4.972,-10.889 -1.391,-1.092 -3.061,-1.762 -4.718,-2.378 -10.364,-3.851 -21.306,-6.139 -32.344,-6.764 h -4.47 c -11.038,0.625 -21.981,2.913 -32.344,6.764 -1.658,0.616 -3.327,1.286 -4.718,2.378 -3.22,2.527 -4.408,6.835 -4.972,10.889 -1.133,8.155 -0.514,16.444 0.298,24.637 1.629,16.445 4.035,32.813 7.187,49.035 24.547,1.526 49.203,1.281 73.715,-0.728 3.082,-15.984 5.438,-32.108 7.042,-48.308 0.809,-8.192 1.428,-16.481 0.296,-24.636 z" />

						<g
   id="XMLID_5078_">
							<path
   style="fill:#e9994f"
   d="m 282.444,198.37 -38.158,-11.327 c 3.962,15.272 7.923,30.545 11.885,45.817 8.995,5.887 17.76,12.124 26.272,18.688 8.513,-6.565 17.278,-12.801 26.272,-18.688 3.962,-15.272 7.923,-30.545 11.885,-45.817 z"
   id="path113" />

							<path
   style="opacity:0.2;fill:#e9994f"
   d="m 282.444,198.37 -38.158,-11.327 c 3.962,15.272 7.923,30.545 11.885,45.817 8.995,5.887 17.76,12.124 26.272,18.688 8.513,-6.565 17.278,-12.801 26.272,-18.688 3.962,-15.272 7.923,-30.545 11.885,-45.817 z"
   id="path114" />

						</g>

						<path
   id="XMLID_5012_"
   style="fill:#e9994f"
   d="m 254.679,170.452 c -6.781,3.362 -11.907,9.479 -13.274,16.365 -1.36,6.852 1.226,14.589 7.595,18.533 5.044,3.124 11.72,3.505 17.649,2.135 6.183,-1.429 11.799,-4.699 15.876,-9.115 -3.946,-11.506 -14.743,-22.791 -27.846,-27.918 z" />

						<path
   id="XMLID_5241_"
   style="fill:#e9994f"
   d="m 323.483,186.818 c -1.367,-6.886 -6.492,-13.003 -13.274,-16.365 -13.103,5.127 -23.9,16.412 -27.846,27.918 4.077,4.416 9.693,7.686 15.876,9.115 5.929,1.37 12.606,0.989 17.649,-2.135 6.369,-3.944 8.955,-11.682 7.595,-18.533 z" />

					</g>

				</g>

			</g>

			<g
   id="XMLID_5411_">
				<g
   id="XMLID_4633_">
					<g
   id="g115">
						<path
   style="fill:#17265c"
   d="m 253.449,330.05 c -0.025,0.6 -0.107,1.599 0.505,1.953 0.048,0.028 0.121,0.023 0.159,-0.021 0.47,-0.529 0.092,-1.438 -0.121,-2.006 -0.107,-0.286 -0.529,-0.251 -0.543,0.074 z"
   id="path115" />

					</g>

				</g>

				<g
   id="XMLID_4634_">
					<g
   id="g116">
						<path
   style="fill:#17265c"
   d="m 257.6,333.38 c 0.038,0.825 -0.009,1.706 0.461,2.423 0.081,0.123 0.252,0.095 0.3,-0.039 0.292,-0.809 0.037,-1.657 -0.117,-2.471 -0.068,-0.363 -0.661,-0.281 -0.644,0.087 z"
   id="path116" />

					</g>

				</g>

				<g
   id="XMLID_4635_">
					<g
   id="g117">
						<path
   style="fill:#17265c"
   d="m 262.664,338.655 c 0.057,0.308 0.096,0.626 0.185,0.927 0.065,0.216 0.19,0.494 0.398,0.603 0.051,0.027 0.13,0.027 0.17,-0.022 0.359,-0.431 0.063,-1.219 -0.039,-1.705 -0.098,-0.47 -0.8,-0.268 -0.714,0.197 z"
   id="path117" />

					</g>

				</g>

				<g
   id="XMLID_4636_">
					<g
   id="g118">
						<path
   style="fill:#17265c"
   d="m 264.587,328.979 c -0.063,0.377 -0.124,0.771 -0.087,1.154 0.038,0.408 0.216,0.654 0.413,0.992 0.073,0.126 0.268,0.07 0.271,-0.073 0.006,-0.339 0.083,-0.646 0.047,-0.99 -0.035,-0.337 -0.079,-0.666 -0.081,-1.006 -0.003,-0.311 -0.508,-0.405 -0.563,-0.077 z"
   id="path118" />

					</g>

				</g>

				<g
   id="XMLID_5248_">
					<g
   id="g119">
						<path
   style="fill:#17265c"
   d="m 269.56,336.472 c -0.321,1.082 -0.378,2.138 0.165,3.158 0.071,0.133 0.264,0.064 0.271,-0.073 0.044,-0.962 0.029,-1.957 0.233,-2.901 0.094,-0.434 -0.541,-0.614 -0.669,-0.184 z"
   id="path119" />

					</g>

				</g>

				<g
   id="XMLID_5284_">
					<g
   id="g120">
						<path
   style="fill:#17265c"
   d="m 253.168,342.153 c 0.252,0.855 0.503,1.585 1.001,2.331 0.079,0.118 0.284,0.081 0.279,-0.076 -0.024,-0.89 -0.234,-1.626 -0.521,-2.464 -0.162,-0.475 -0.904,-0.282 -0.759,0.209 z"
   id="path120" />

					</g>

				</g>

				<g
   id="XMLID_5306_">
					<g
   id="g121">
						<path
   style="fill:#17265c"
   d="m 257.89,351.023 c -0.242,1.273 -0.203,2.491 0.584,3.576 0.068,0.094 0.226,0.068 0.227,-0.061 0.009,-1.224 -0.315,-2.334 -0.577,-3.514 -0.024,-0.115 -0.211,-0.12 -0.234,-10e-4 z"
   id="path121" />

					</g>

				</g>

				<g
   id="XMLID_5309_">
					<g
   id="g122">
						<path
   style="fill:#17265c"
   d="m 261.817,347.38 c -0.038,0.367 -0.014,0.738 0.052,1.1 0.074,0.407 0.268,0.721 0.406,1.104 0.05,0.138 0.25,0.117 0.258,-0.035 0.02,-0.409 0.113,-0.754 0.068,-1.168 -0.04,-0.368 -0.124,-0.728 -0.268,-1.071 -0.115,-0.273 -0.484,-0.236 -0.516,0.07 z"
   id="path122" />

					</g>

				</g>

				<g
   id="XMLID_5329_">
					<g
   id="g123">
						<path
   style="fill:#17265c"
   d="m 268.111,351.782 c -0.474,1.53 -0.612,2.962 0.017,4.464 0.036,0.085 0.188,0.118 0.208,0 0.249,-1.461 0.245,-2.909 0.373,-4.382 0.032,-0.355 -0.5,-0.398 -0.598,-0.082 z"
   id="path123" />

					</g>

				</g>

				<g
   id="XMLID_5342_">
					<g
   id="g124">
						<path
   style="fill:#17265c"
   d="m 264.922,359.379 c 0.087,0.919 -0.148,2.069 0.306,2.91 0.053,0.099 0.177,0.076 0.235,0 0.624,-0.818 0.291,-2.077 0.103,-2.997 -0.073,-0.357 -0.679,-0.283 -0.644,0.087 z"
   id="path124" />

					</g>

				</g>

				<g
   id="XMLID_5350_">
					<g
   id="g125">
						<path
   style="fill:#17265c"
   d="m 256.16,363.721 c 0.044,0.845 0.057,2.016 0.748,2.611 0.082,0.07 0.222,0.05 0.251,-0.066 0.198,-0.802 -0.17,-1.735 -0.221,-2.545 -0.031,-0.497 -0.804,-0.503 -0.778,0 z"
   id="path125" />

					</g>

				</g>

				<g
   id="XMLID_5367_">
					<g
   id="g126">
						<path
   style="fill:#17265c"
   d="m 259.774,374.165 c -0.294,1.104 -0.177,2.198 0.236,3.257 0.039,0.1 0.183,0.113 0.217,0 0.322,-1.081 0.353,-2.188 -0.028,-3.257 -0.07,-0.196 -0.366,-0.222 -0.425,0 z"
   id="path126" />

					</g>

				</g>

				<g
   id="XMLID_5378_">
					<g
   id="g127">
						<path
   style="fill:#17265c"
   d="m 267.859,367.227 c -0.654,0.913 -0.661,1.997 -0.378,3.035 0.04,0.146 0.246,0.139 0.289,0 0.296,-0.956 0.587,-1.894 0.542,-2.912 -0.01,-0.253 -0.314,-0.317 -0.453,-0.123 z"
   id="path127" />

					</g>

				</g>

				<g
   id="XMLID_5386_">
					<g
   id="g128">
						<path
   style="fill:#17265c"
   d="m 266.117,379.443 c -0.272,0.889 -0.412,2.023 0.329,2.714 0.084,0.078 0.238,0.051 0.266,-0.07 0.186,-0.81 -0.013,-1.622 0.128,-2.445 0.08,-0.468 -0.579,-0.669 -0.723,-0.199 z"
   id="path128" />

					</g>

				</g>

				<g
   id="XMLID_5396_">
					<g
   id="g129">
						<path
   style="fill:#17265c"
   d="m 263.63,386.13 c -0.305,0.322 -0.228,0.908 -0.213,1.324 0.021,0.574 0.135,1.022 0.42,1.52 0.071,0.125 0.248,0.088 0.291,-0.038 0.191,-0.56 0.203,-1.01 0.114,-1.594 -0.063,-0.416 -0.099,-0.972 -0.459,-1.232 -0.044,-0.032 -0.117,-0.018 -0.153,0.02 z"
   id="path129" />

					</g>

				</g>

				<g
   id="XMLID_5404_">
					<g
   id="g130">
						<path
   style="fill:#17265c"
   d="m 260.761,394.537 c -0.145,1.014 0.068,1.918 0.634,2.761 0.086,0.128 0.266,0.073 0.279,-0.076 0.09,-1.002 -0.148,-1.891 -0.759,-2.706 -0.037,-0.049 -0.143,-0.059 -0.154,0.021 z"
   id="path130" />

					</g>

				</g>

			</g>

			<g
   id="XMLID_5425_">
				<g
   id="XMLID_5703_">
					<g
   id="g131">
						<path
   style="fill:#17265c"
   d="m 311.851,329.976 c -0.213,0.568 -0.592,1.475 -0.121,2.006 0.038,0.043 0.111,0.048 0.159,0.021 0.611,-0.353 0.53,-1.353 0.505,-1.953 -0.013,-0.322 -0.435,-0.362 -0.543,-0.074 z"
   id="path131" />

					</g>

				</g>

				<g
   id="XMLID_5696_">
					<g
   id="g132">
						<path
   style="fill:#17265c"
   d="m 307.599,333.293 c -0.154,0.814 -0.408,1.662 -0.117,2.471 0.048,0.134 0.22,0.161 0.3,0.039 0.47,-0.717 0.423,-1.598 0.461,-2.423 0.017,-0.364 -0.575,-0.454 -0.644,-0.087 z"
   id="path132" />

					</g>

				</g>

				<g
   id="XMLID_5689_">
					<g
   id="g133">
						<path
   style="fill:#17265c"
   d="m 302.466,338.458 c -0.068,0.324 -0.145,0.648 -0.187,0.977 -0.03,0.238 -0.01,0.538 0.148,0.728 0.041,0.049 0.118,0.049 0.17,0.022 0.208,-0.109 0.333,-0.387 0.398,-0.603 0.089,-0.3 0.128,-0.619 0.185,-0.927 0.085,-0.464 -0.616,-0.667 -0.714,-0.197 z"
   id="path133" />

					</g>

				</g>

				<g
   id="XMLID_5598_">
					<g
   id="g134">
						<path
   style="fill:#17265c"
   d="m 300.694,329.055 c -0.003,0.341 -0.048,0.669 -0.081,1.006 -0.034,0.342 0.041,0.654 0.047,0.99 0.003,0.143 0.197,0.2 0.271,0.073 0.197,-0.338 0.374,-0.582 0.413,-0.992 0.036,-0.382 -0.024,-0.777 -0.087,-1.154 -0.055,-0.323 -0.56,-0.236 -0.563,0.077 z"
   id="path134" />

					</g>

				</g>

				<g
   id="XMLID_5591_">
					<g
   id="g135">
						<path
   style="fill:#17265c"
   d="m 295.615,336.657 c 0.204,0.943 0.189,1.939 0.233,2.901 0.006,0.137 0.2,0.207 0.271,0.073 0.543,-1.021 0.486,-2.077 0.165,-3.158 -0.128,-0.431 -0.763,-0.252 -0.669,0.184 z"
   id="path135" />

					</g>

				</g>

				<g
   id="XMLID_5564_">
					<g
   id="g136">
						<path
   style="fill:#17265c"
   d="m 311.917,341.944 c -0.287,0.839 -0.497,1.574 -0.521,2.464 -0.004,0.156 0.201,0.194 0.279,0.076 0.497,-0.745 0.749,-1.476 1.001,-2.331 0.144,-0.49 -0.597,-0.685 -0.759,-0.209 z"
   id="path136" />

					</g>

				</g>

				<g
   id="XMLID_5552_">
					<g
   id="g137">
						<path
   style="fill:#17265c"
   d="m 307.718,351.023 c -0.261,1.181 -0.585,2.291 -0.577,3.514 10e-4,0.129 0.159,0.155 0.227,0.061 0.788,-1.086 0.826,-2.305 0.584,-3.576 -0.021,-0.117 -0.209,-0.114 -0.234,0.001 z"
   id="path137" />

					</g>

				</g>

				<g
   id="XMLID_5545_">
					<g
   id="g138">
						<path
   style="fill:#17265c"
   d="m 303.511,347.311 c -0.144,0.342 -0.227,0.703 -0.268,1.071 -0.045,0.409 0.048,0.763 0.068,1.168 0.008,0.151 0.208,0.174 0.258,0.035 0.139,-0.387 0.33,-0.692 0.406,-1.104 0.066,-0.363 0.09,-0.733 0.052,-1.1 -0.032,-0.304 -0.401,-0.345 -0.516,-0.07 z"
   id="path138" />

					</g>

				</g>

				<g
   id="XMLID_5537_">
					<g
   id="g139">
						<path
   style="fill:#17265c"
   d="m 297.134,351.863 c 0.128,1.473 0.124,2.921 0.373,4.382 0.02,0.118 0.172,0.085 0.208,0 0.629,-1.502 0.492,-2.934 0.017,-4.464 -0.097,-0.312 -0.629,-0.275 -0.598,0.082 z"
   id="path139" />

					</g>

				</g>

				<g
   id="XMLID_5518_">
					<g
   id="g140">
						<path
   style="fill:#17265c"
   d="m 300.277,359.292 c -0.187,0.92 -0.521,2.178 0.103,2.997 0.058,0.076 0.181,0.099 0.235,0 0.454,-0.841 0.219,-1.99 0.306,-2.91 0.036,-0.366 -0.57,-0.448 -0.644,-0.087 z"
   id="path140" />

					</g>

				</g>

				<g
   id="XMLID_5511_">
					<g
   id="g141">
						<path
   style="fill:#17265c"
   d="m 308.905,363.721 c -0.051,0.81 -0.419,1.743 -0.221,2.545 0.029,0.117 0.169,0.137 0.251,0.066 0.69,-0.593 0.704,-1.767 0.748,-2.611 0.027,-0.502 -0.746,-0.498 -0.778,0 z"
   id="path141" />

					</g>

				</g>

				<g
   id="XMLID_5500_">
					<g
   id="g142">
						<path
   style="fill:#17265c"
   d="m 305.645,374.165 c -0.381,1.069 -0.35,2.175 -0.028,3.257 0.034,0.113 0.178,0.1 0.217,0 0.412,-1.059 0.53,-2.153 0.236,-3.257 -0.06,-0.222 -0.355,-0.197 -0.425,0 z"
   id="path142" />

					</g>

				</g>

				<g
   id="XMLID_5490_">
					<g
   id="g143">
						<path
   style="fill:#17265c"
   d="m 297.53,367.35 c -0.044,1.018 0.247,1.957 0.543,2.912 0.043,0.139 0.249,0.146 0.289,0 0.284,-1.038 0.276,-2.123 -0.377,-3.035 -0.139,-0.194 -0.444,-0.13 -0.455,0.123 z"
   id="path143" />

					</g>

				</g>

				<g
   id="XMLID_5483_">
					<g
   id="g144">
						<path
   style="fill:#17265c"
   d="m 299.003,379.642 c 0.14,0.822 -0.059,1.635 0.128,2.445 0.028,0.121 0.182,0.148 0.266,0.07 0.741,-0.691 0.601,-1.825 0.329,-2.714 -0.143,-0.469 -0.803,-0.27 -0.723,0.199 z"
   id="path144" />

					</g>

				</g>

				<g
   id="XMLID_5476_">
					<g
   id="g145">
						<path
   style="fill:#17265c"
   d="m 302.06,386.11 c -0.36,0.26 -0.396,0.816 -0.459,1.232 -0.089,0.58 -0.076,1.038 0.114,1.594 0.043,0.126 0.22,0.163 0.291,0.038 0.287,-0.502 0.398,-0.942 0.42,-1.52 0.016,-0.418 0.093,-1.002 -0.213,-1.324 -0.035,-0.038 -0.109,-0.052 -0.153,-0.02 z"
   id="path145" />

					</g>

				</g>

				<g
   id="XMLID_5432_">
					<g
   id="g146">
						<path
   style="fill:#17265c"
   d="m 304.928,394.517 c -0.611,0.814 -0.849,1.703 -0.759,2.706 0.013,0.148 0.193,0.204 0.279,0.076 0.566,-0.843 0.778,-1.747 0.634,-2.761 -0.011,-0.082 -0.116,-0.071 -0.154,-0.021 z"
   id="path146" />

					</g>

				</g>

			</g>

			<path
   id="XMLID_8155_"
   style="fill:#e06f6e"
   d="m 262.254,102.679 -3.86,-2.997 c 0.052,7.308 0.491,14.612 1.294,21.876 2.139,-6.03 3.043,-12.498 2.566,-18.879 z" />

			<path
   id="XMLID_8231_"
   style="fill:#e06f6e"
   d="m 303.36,105.287 c 0.359,5.512 1.242,11.003 2.651,16.433 0.437,-5.805 1.045,-11.603 1.849,-17.389 -1.527,0.254 -3.03,0.574 -4.5,0.956 z" />

			<g
   id="XMLID_7726_">
				<path
   id="XMLID_1274_"
   style="fill:#e06f6e"
   d="m 306.168,97.884 c -6.989,5.249 -15.293,8.733 -23.935,10.043 -5.915,0.897 -12.099,0.763 -17.709,-1.316 -5.61,-2.079 -10.592,-6.27 -12.788,-11.836 -1.496,-3.793 -1.646,-8.022 -0.966,-12.042 1.098,-6.497 5.148,-13.216 11.613,-14.491 6.942,-1.369 13.529,4.096 16.939,10.295 2.147,3.902 3.532,8.381 2.975,12.799 -0.557,4.419 -3.344,8.711 -7.535,10.217 -4.191,1.506 -9.576,-0.492 -11.074,-4.686 -1.222,-3.422 0.193,-7.168 1.612,-10.513" />

			</g>

			<g
   id="XMLID_5293_">
				<path
   id="XMLID_1282_"
   style="fill:#e06f6e"
   d="m 316.284,109.844 c -3.4,3.016 -8.525,3.928 -12.757,2.27 -4.231,-1.658 -7.374,-5.809 -7.82,-10.331 l 5.371,-8.228 5.699,-2.5 7.167,4.833 z" />

			</g>

			<g
   id="XMLID_5824_">
				<g
   id="XMLID_1296_">
					<path
   id="XMLID_1300_"
   style="fill:#e06f6e"
   d="m 281.661,82.332 c -0.58,0.247 -1.18,0.43 -1.8,0.549 -2.81,0.704 -0.907,5.182 1.522,3.61 0.846,-0.547 1.691,-1.095 2.537,-1.642 -0.877,-1.137 -1.754,-2.273 -2.631,-3.41 -0.976,0.952 -2.055,1.784 -3.046,2.72 -2.156,2.038 0.71,5.949 3.232,4.189 1.574,-1.098 3.147,-2.196 4.72,-3.294 -1.06,-1.374 -2.121,-2.748 -3.181,-4.123 -1.421,1.677 -2.843,3.354 -4.265,5.031 -2.212,2.609 1.093,5.824 3.712,3.712 1.88,-1.516 3.816,-2.89 5.843,-4.199 -1.026,-1.33 -2.053,-2.661 -3.079,-3.991 -2.304,2.245 -4.619,4.419 -6.693,6.886 -1.994,2.373 0.489,6.092 3.424,4.438 3.2,-1.804 6.151,-3.814 9.047,-6.066 2.807,-2.184 -0.82,-6.776 -3.785,-4.906 -3.012,1.9 -5.841,3.866 -8.294,6.467 -2.637,2.796 0.864,7.952 4.286,5.555 3.193,-2.236 5.971,-4.912 9.047,-7.289 3.421,-2.643 0.503,-8.298 -3.505,-5.997 -3.475,1.995 -6.294,4.502 -9.05,7.387 -2.909,3.046 0.737,7.187 4.291,5.561 3.173,-1.451 5.688,-4.137 9.1,-5.01 -1.127,-1.936 -2.254,-3.872 -3.381,-5.809 -2.341,1.926 -4.479,3.932 -6.628,6.068 -3.01,2.991 0.977,8.576 4.658,6.037 3.014,-2.079 6.038,-4.144 9.058,-6.214 -1.323,-2.264 -2.646,-4.527 -3.97,-6.791 -3.358,2.549 -6.683,5.113 -9.744,8.018 -3.2,3.037 1.098,8.948 4.823,6.251 2.971,-2.151 5.945,-4.275 9,-6.306 -1.264,-2.163 -2.529,-4.327 -3.794,-6.49 -2.414,1.676 -4.842,3.409 -6.831,5.582 -2.473,2.701 -0.1,7.998 3.839,6.594 2.757,-0.983 4.849,-3.516 7.604,-4.223 -1.186,-2.037 -2.372,-4.074 -3.557,-6.111 -1.7,1.788 -3.406,3.571 -5.112,5.355 -2.418,2.528 -0.042,7.463 3.605,6.193 3.242,-1.13 6.261,-3.074 9.271,-4.712 -1.367,-2.339 -2.735,-4.679 -4.102,-7.018 -2.622,1.998 -5.276,3.898 -7.6,6.246 -3.678,3.716 1.827,9.08 5.689,5.689 1.676,-1.472 3.597,-2.629 5.482,-3.806 -1.439,-1.865 -2.878,-3.73 -4.317,-5.595 -1.313,1.353 -2.655,2.667 -3.87,4.11 -2.695,3.201 0.641,8.041 4.569,5.921 1.94,-1.047 3.894,-2.031 5.883,-2.983 -1.534,-1.988 -3.067,-3.975 -4.601,-5.963 -1.591,1.358 -3.192,2.7 -4.733,4.114 -3.429,3.148 0.926,8.007 4.736,6.138 1.466,-0.719 2.931,-1.438 4.397,-2.156 -1.522,-1.972 -3.044,-3.945 -4.566,-5.917 -0.843,0.975 -1.698,1.935 -2.563,2.892 -2.818,3.118 0.712,7.866 4.502,5.835 1.617,-0.866 3.175,-1.783 4.705,-2.795 3.957,-2.619 0.252,-9.036 -3.738,-6.395 -1.532,1.014 -3.083,1.936 -4.717,2.775 1.501,1.945 3.001,3.89 4.502,5.835 0.883,-0.936 1.759,-1.877 2.637,-2.817 2.321,-2.486 0.046,-7.862 -3.666,-6.297 -1.502,0.633 -3.004,1.266 -4.506,1.899 1.268,2.177 2.535,4.355 3.803,6.532 1.564,-1.383 3.062,-2.834 4.575,-4.273 3.184,-3.028 -0.872,-8.001 -4.601,-5.963 -1.934,1.057 -3.873,2.066 -5.856,3.029 1.523,1.974 3.046,3.948 4.569,5.921 1.274,-1.402 2.404,-2.916 3.576,-4.404 2.442,-3.1 -0.516,-7.521 -4.317,-5.595 -2.286,1.158 -4.476,2.485 -6.761,3.64 1.354,2.316 2.707,4.632 4.061,6.947 2.759,-1.821 5.173,-3.999 7.649,-6.182 3.428,-3.023 -1.091,-8.986 -4.925,-6.383 -2.245,1.524 -4.564,3.625 -7.139,4.585 1.202,2.064 2.403,4.128 3.605,6.193 1.679,-1.81 3.358,-3.619 5.043,-5.424 2.479,-2.656 0.039,-7.034 -3.557,-6.111 -2.868,0.736 -4.927,3.009 -7.757,3.665 1.28,2.198 2.559,4.396 3.839,6.594 1.968,-1.726 3.788,-3.585 5.806,-5.259 3.265,-2.709 -1.026,-8.293 -4.554,-5.902 -3.029,2.052 -6.115,3.994 -9.224,5.923 1.608,2.084 3.215,4.167 4.823,6.251 2.812,-2.684 5.815,-5.087 8.881,-7.471 3.493,-2.715 -1.125,-8.763 -4.765,-6.176 -2.988,2.124 -5.973,4.252 -8.968,6.366 1.553,2.012 3.105,4.025 4.658,6.037 2.152,-2.139 4.167,-4.259 6.107,-6.589 2.013,-2.417 0.2,-7.06 -3.381,-5.808 -3.617,1.264 -6.454,3.85 -9.981,5.24 1.148,1.973 2.297,3.945 3.445,5.918 2.679,-2.392 5.534,-4.588 8.25,-6.941 -1.637,-1.637 -3.274,-3.274 -4.911,-4.91 -2.459,2.705 -5.391,4.615 -8.41,6.634 1.429,1.852 2.858,3.703 4.286,5.555 2.074,-2.106 4.083,-4.281 6.445,-6.075 -1.262,-1.635 -2.524,-3.271 -3.785,-4.906 -2.387,2.026 -4.865,3.886 -7.481,5.604 1.288,1.289 2.577,2.577 3.866,3.866 1.76,-2.406 3.752,-4.604 5.849,-6.717 2.004,-2.019 -0.581,-5.53 -3.079,-3.991 -2.431,1.497 -4.732,3.13 -6.99,4.875 1.237,1.237 2.475,2.475 3.712,3.712 1.421,-1.677 2.843,-3.354 4.265,-5.031 1.798,-2.121 -0.542,-5.907 -3.181,-4.123 -1.588,1.073 -3.175,2.148 -4.763,3.222 1.216,1.216 2.433,2.433 3.649,3.649 0.794,-1.094 1.456,-2.239 2.267,-3.321 1.57,-2.095 -1.661,-4.114 -3.41,-2.631 -0.767,0.65 -1.533,1.3 -2.3,1.95 1.1,0.641 2.201,1.281 3.301,1.922 0.232,-0.942 0.286,-1.297 0.32,-2.256 0.015,-0.455 -0.498,-0.887 -0.95,-0.72 z" />

				</g>

			</g>

			<g
   id="XMLID_143_">
				<g
   id="g147">
					<path
   style="fill:#e9994f"
   d="m 259.653,209.068 c 1.496,9.748 2.865,20.195 5.482,29.692 0.071,0.256 0.477,0.21 0.47,-0.064 -0.262,-9.775 -2.724,-20.396 -5.369,-29.789 -0.108,-0.383 -0.641,-0.214 -0.583,0.161 z"
   id="path147" />

				</g>

				<g
   style="opacity:0.75"
   id="g148">
					<path
   style="fill:#e9994f"
   d="m 259.653,209.068 c 1.496,9.748 2.865,20.195 5.482,29.692 0.071,0.256 0.477,0.21 0.47,-0.064 -0.262,-9.775 -2.724,-20.396 -5.369,-29.789 -0.108,-0.383 -0.641,-0.214 -0.583,0.161 z"
   id="path148" />

				</g>

			</g>

			<g
   id="XMLID_144_">
				<g
   id="g149">
					<path
   style="fill:#e9994f"
   d="m 303.923,208.921 c -1.677,5.359 -2.561,11.03 -3.691,16.527 -1.007,4.894 -2.305,9.813 -2.533,14.817 -0.007,0.151 0.202,0.16 0.249,0.034 1.948,-5.266 2.718,-11.001 3.807,-16.495 0.973,-4.907 2.179,-9.833 2.665,-14.816 0.029,-0.294 -0.415,-0.329 -0.497,-0.067 z"
   id="path149" />

				</g>

				<g
   style="opacity:0.75"
   id="g150">
					<path
   style="fill:#e9994f"
   d="m 303.923,208.921 c -1.677,5.359 -2.561,11.03 -3.691,16.527 -1.007,4.894 -2.305,9.813 -2.533,14.817 -0.007,0.151 0.202,0.16 0.249,0.034 1.948,-5.266 2.718,-11.001 3.807,-16.495 0.973,-4.907 2.179,-9.833 2.665,-14.816 0.029,-0.294 -0.415,-0.329 -0.497,-0.067 z"
   id="path150" />

				</g>

			</g>

			<g
   id="XMLID_145_">
				<g
   id="g151">
					<path
   style="fill:#e9994f"
   d="m 281.819,198.727 c -0.978,9.303 0.007,19.119 -0.06,28.481 -0.062,8.654 -1.295,17.969 -0.113,26.545 0.018,0.133 0.231,0.122 0.258,0 1.932,-8.718 1.129,-18.618 1.198,-27.528 0.07,-9.036 0.783,-18.654 -0.633,-27.586 -0.064,-0.396 -0.615,-0.251 -0.65,0.088 z"
   id="path151" />

				</g>

				<g
   style="opacity:0.75"
   id="g152">
					<path
   style="fill:#e9994f"
   d="m 281.819,198.727 c -0.978,9.303 0.007,19.119 -0.06,28.481 -0.062,8.654 -1.295,17.969 -0.113,26.545 0.018,0.133 0.231,0.122 0.258,0 1.932,-8.718 1.129,-18.618 1.198,-27.528 0.07,-9.036 0.783,-18.654 -0.633,-27.586 -0.064,-0.396 -0.615,-0.251 -0.65,0.088 z"
   id="path152" />

				</g>

			</g>

			<g
   id="XMLID_151_">
				<g
   id="g153">
					<path
   style="fill:#e9994f"
   d="m 265.217,237.872 c -3.401,0.905 -6.296,2.629 -9.082,4.749 -0.134,0.102 -0.021,0.314 0.135,0.231 2.958,-1.568 6.12,-2.725 9.232,-3.949 0.625,-0.247 0.396,-1.212 -0.285,-1.031 z"
   id="path153" />

				</g>

				<g
   style="opacity:0.75"
   id="g154">
					<path
   style="fill:#e9994f"
   d="m 265.217,237.872 c -3.401,0.905 -6.296,2.629 -9.082,4.749 -0.134,0.102 -0.021,0.314 0.135,0.231 2.958,-1.568 6.12,-2.725 9.232,-3.949 0.625,-0.247 0.396,-1.212 -0.285,-1.031 z"
   id="path154" />

				</g>

			</g>

			<g
   id="XMLID_154_">
				<g
   id="g155">
					<path
   style="fill:#e9994f"
   d="m 265.225,238.163 c -1.987,2.542 -1.942,6.642 -2.322,9.724 -0.04,0.327 0.46,0.362 0.552,0.075 0.926,-2.869 2.699,-6.67 1.969,-9.746 -0.019,-0.081 -0.144,-0.125 -0.199,-0.053 z"
   id="path155" />

				</g>

				<g
   style="opacity:0.75"
   id="g156">
					<path
   style="fill:#e9994f"
   d="m 265.225,238.163 c -1.987,2.542 -1.942,6.642 -2.322,9.724 -0.04,0.327 0.46,0.362 0.552,0.075 0.926,-2.869 2.699,-6.67 1.969,-9.746 -0.019,-0.081 -0.144,-0.125 -0.199,-0.053 z"
   id="path156" />

				</g>

			</g>

			<g
   id="XMLID_156_">
				<g
   id="g157">
					<path
   style="fill:#e9994f"
   d="m 297.466,239.228 c 0.11,3.366 1.067,6.682 2.112,9.859 0.04,0.122 0.243,0.109 0.235,-0.032 -0.194,-3.33 -0.513,-6.759 -1.642,-9.922 -0.13,-0.362 -0.719,-0.332 -0.705,0.095 z"
   id="path157" />

				</g>

				<g
   style="opacity:0.75"
   id="g158">
					<path
   style="fill:#e9994f"
   d="m 297.466,239.228 c 0.11,3.366 1.067,6.682 2.112,9.859 0.04,0.122 0.243,0.109 0.235,-0.032 -0.194,-3.33 -0.513,-6.759 -1.642,-9.922 -0.13,-0.362 -0.719,-0.332 -0.705,0.095 z"
   id="path158" />

				</g>

			</g>

			<g
   id="XMLID_182_">
				<g
   id="g159">
					<path
   style="fill:#e9994f"
   d="m 297.388,239.302 c 2.94,1.613 6.372,2.676 9.579,3.604 0.165,0.048 0.251,-0.18 0.114,-0.27 -2.821,-1.85 -6.184,-3.412 -9.562,-3.819 -0.262,-0.031 -0.344,0.368 -0.131,0.485 z"
   id="path159" />

				</g>

				<g
   style="opacity:0.75"
   id="g160">
					<path
   style="fill:#e9994f"
   d="m 297.388,239.302 c 2.94,1.613 6.372,2.676 9.579,3.604 0.165,0.048 0.251,-0.18 0.114,-0.27 -2.821,-1.85 -6.184,-3.412 -9.562,-3.819 -0.262,-0.031 -0.344,0.368 -0.131,0.485 z"
   id="path160" />

				</g>

			</g>

			<g
   id="XMLID_191_">
				<g
   id="g161">
					<path
   style="fill:#e9994f"
   d="m 281.606,198.638 c 5.635,9.88 25.979,16.156 34.496,6.784 0.362,-0.398 -0.097,-1.049 -0.588,-0.762 -5.907,3.458 -11.94,4.454 -18.622,2.701 -6.132,-1.608 -10.013,-5.25 -14.712,-9.166 -0.306,-0.255 -0.791,0.063 -0.574,0.443 z"
   id="path161" />

				</g>

				<g
   style="opacity:0.75"
   id="g162">
					<path
   style="fill:#e9994f"
   d="m 281.606,198.638 c 5.635,9.88 25.979,16.156 34.496,6.784 0.362,-0.398 -0.097,-1.049 -0.588,-0.762 -5.907,3.458 -11.94,4.454 -18.622,2.701 -6.132,-1.608 -10.013,-5.25 -14.712,-9.166 -0.306,-0.255 -0.791,0.063 -0.574,0.443 z"
   id="path162" />

				</g>

			</g>

			<g
   id="XMLID_218_">
				<g
   id="g163">
					<path
   style="fill:#e9994f"
   d="m 290.296,204.669 c 4.007,-5.64 6.929,-11.518 11.989,-16.441 4.682,-4.556 10.453,-6.996 15.429,-10.95 0.282,-0.224 -0.033,-0.61 -0.322,-0.552 -6.092,1.222 -12.32,6.755 -16.615,11.075 -4.474,4.501 -9.391,10.423 -10.958,16.668 -0.073,0.297 0.31,0.435 0.477,0.2 z"
   id="path163" />

				</g>

				<g
   style="opacity:0.75"
   id="g164">
					<path
   style="fill:#e9994f"
   d="m 290.296,204.669 c 4.007,-5.64 6.929,-11.518 11.989,-16.441 4.682,-4.556 10.453,-6.996 15.429,-10.95 0.282,-0.224 -0.033,-0.61 -0.322,-0.552 -6.092,1.222 -12.32,6.755 -16.615,11.075 -4.474,4.501 -9.391,10.423 -10.958,16.668 -0.073,0.297 0.31,0.435 0.477,0.2 z"
   id="path164" />

				</g>

			</g>

			<g
   id="XMLID_479_">
				<g
   id="g165">
					<path
   style="fill:#e9994f"
   d="m 281.88,198.195 c -4.682,3.902 -8.61,7.565 -14.712,9.166 -6.708,1.761 -12.695,0.769 -18.622,-2.701 -0.487,-0.285 -0.953,0.36 -0.588,0.762 8.517,9.372 28.86,3.096 34.496,-6.784 0.216,-0.377 -0.265,-0.701 -0.574,-0.443 z"
   id="path165" />

				</g>

				<g
   style="opacity:0.75"
   id="g166">
					<path
   style="fill:#e9994f"
   d="m 281.88,198.195 c -4.682,3.902 -8.61,7.565 -14.712,9.166 -6.708,1.761 -12.695,0.769 -18.622,-2.701 -0.487,-0.285 -0.953,0.36 -0.588,0.762 8.517,9.372 28.86,3.096 34.496,-6.784 0.216,-0.377 -0.265,-0.701 -0.574,-0.443 z"
   id="path166" />

				</g>

			</g>

			<g
   id="XMLID_267_">
				<g
   id="g167">
					<path
   style="fill:#e9994f"
   d="m 274.24,204.469 c -1.565,-6.236 -6.492,-12.176 -10.957,-16.668 -4.309,-4.335 -10.509,-9.851 -16.615,-11.075 -0.289,-0.058 -0.604,0.328 -0.322,0.552 4.986,3.962 10.736,6.383 15.429,10.95 5.059,4.922 7.981,10.801 11.989,16.441 0.166,0.233 0.551,0.1 0.476,-0.2 z"
   id="path167" />

				</g>

				<g
   style="opacity:0.75"
   id="g168">
					<path
   style="fill:#e9994f"
   d="m 274.24,204.469 c -1.565,-6.236 -6.492,-12.176 -10.957,-16.668 -4.309,-4.335 -10.509,-9.851 -16.615,-11.075 -0.289,-0.058 -0.604,0.328 -0.322,0.552 4.986,3.962 10.736,6.383 15.429,10.95 5.059,4.922 7.981,10.801 11.989,16.441 0.166,0.233 0.551,0.1 0.476,-0.2 z"
   id="path168" />

				</g>

			</g>

			<g
   id="XMLID_170_">
				<g
   id="XMLID_1408_">
					<path
   id="XMLID_1412_"
   style="fill:#e06f6e"
   d="m 265.738,91.474 c 7.655,0.414 8.748,-11.174 4.972,-15.856 -4.599,-5.701 -12.852,-4.122 -16.125,2.069 -4.026,7.615 0.489,18.446 6.677,23.592 8.118,6.751 19.393,5.07 28.523,1.7 0.261,-0.096 0.162,-0.481 -0.116,-0.42 -12.211,2.675 -25.749,4.066 -32.533,-8.807 -3.104,-5.891 -4.553,-14.369 1.657,-18.822 3.841,-2.754 9.082,-1.622 11.542,2.402 2.137,3.496 1.757,13.156 -4.597,12.791 -0.867,-0.049 -0.866,1.304 0,1.351 z" />

				</g>

				<g
   id="XMLID_1402_"
   style="opacity:0.75">
					<path
   id="XMLID_1406_"
   style="fill:#e06f6e"
   d="m 265.738,91.474 c 7.655,0.414 8.748,-11.174 4.972,-15.856 -4.599,-5.701 -12.852,-4.122 -16.125,2.069 -4.026,7.615 0.489,18.446 6.677,23.592 8.118,6.751 19.393,5.07 28.523,1.7 0.261,-0.096 0.162,-0.481 -0.116,-0.42 -12.211,2.675 -25.749,4.066 -32.533,-8.807 -3.104,-5.891 -4.553,-14.369 1.657,-18.822 3.841,-2.754 9.082,-1.622 11.542,2.402 2.137,3.496 1.757,13.156 -4.597,12.791 -0.867,-0.049 -0.866,1.304 0,1.351 z" />

				</g>

			</g>

			<g
   id="XMLID_555_">
				<g
   id="XMLID_1396_">
					<path
   id="XMLID_1400_"
   style="fill:#e06f6e"
   d="m 262.595,80.615 c -1.071,3.447 -0.935,9.197 2.966,10.829 0.692,0.289 1.208,-0.919 0.515,-1.221 -3.205,-1.393 -2.996,-6.658 -3.053,-9.55 -0.005,-0.248 -0.355,-0.294 -0.428,-0.058 z" />

				</g>

				<g
   id="XMLID_1391_"
   style="opacity:0.75">
					<path
   id="XMLID_1395_"
   style="fill:#e06f6e"
   d="m 262.595,80.615 c -1.071,3.447 -0.935,9.197 2.966,10.829 0.692,0.289 1.208,-0.919 0.515,-1.221 -3.205,-1.393 -2.996,-6.658 -3.053,-9.55 -0.005,-0.248 -0.355,-0.294 -0.428,-0.058 z" />

				</g>

			</g>

			<g
   id="XMLID_570_">
				<g
   id="XMLID_1385_">
					<path
   id="XMLID_1389_"
   style="fill:#e06f6e"
   d="m 242.231,130.501 c -2.395,-1.34 -4.911,-1.542 -7.228,0.201 -2.199,1.655 -2.996,4.29 -2.267,6.895 0.07,0.25 0.459,0.204 0.456,-0.062 -0.059,-4.626 4.32,-8.376 8.915,-6.739 0.174,0.063 0.282,-0.207 0.124,-0.295 z" />

				</g>

				<g
   id="XMLID_1380_"
   style="opacity:0.75">
					<path
   id="XMLID_1384_"
   style="fill:#e06f6e"
   d="m 242.231,130.501 c -2.395,-1.34 -4.911,-1.542 -7.228,0.201 -2.199,1.655 -2.996,4.29 -2.267,6.895 0.07,0.25 0.459,0.204 0.456,-0.062 -0.059,-4.626 4.32,-8.376 8.915,-6.739 0.174,0.063 0.282,-0.207 0.124,-0.295 z" />

				</g>

			</g>

			<g
   id="XMLID_577_">
				<g
   id="XMLID_1374_">
					<path
   id="XMLID_1378_"
   style="fill:#e06f6e"
   d="m 218.637,163.765 c -3.979,9.888 0.519,20.993 10.435,24.976 0.244,0.098 0.382,-0.282 0.173,-0.411 -8.73,-5.399 -12.609,-14.389 -10.174,-24.445 0.069,-0.289 -0.329,-0.383 -0.434,-0.12 z" />

				</g>

				<g
   id="XMLID_1369_"
   style="opacity:0.75">
					<path
   id="XMLID_1373_"
   style="fill:#e06f6e"
   d="m 218.637,163.765 c -3.979,9.888 0.519,20.993 10.435,24.976 0.244,0.098 0.382,-0.282 0.173,-0.411 -8.73,-5.399 -12.609,-14.389 -10.174,-24.445 0.069,-0.289 -0.329,-0.383 -0.434,-0.12 z" />

				</g>

			</g>

			<g
   id="XMLID_584_">
				<g
   id="XMLID_1363_">
					<path
   id="XMLID_1367_"
   style="fill:#e06f6e"
   d="m 328.758,133.843 c 1.555,2.113 0.849,5.096 -0.823,6.951 -0.129,0.143 0.063,0.328 0.209,0.209 1.364,-1.118 2.398,-2.502 2.699,-4.283 0.226,-1.34 -0.204,-3.074 -1.712,-3.363 -0.25,-0.047 -0.56,0.232 -0.373,0.486 z" />

				</g>

				<g
   id="XMLID_1358_"
   style="opacity:0.75">
					<path
   id="XMLID_1362_"
   style="fill:#e06f6e"
   d="m 328.758,133.843 c 1.555,2.113 0.849,5.096 -0.823,6.951 -0.129,0.143 0.063,0.328 0.209,0.209 1.364,-1.118 2.398,-2.502 2.699,-4.283 0.226,-1.34 -0.204,-3.074 -1.712,-3.363 -0.25,-0.047 -0.56,0.232 -0.373,0.486 z" />

				</g>

			</g>

			<g
   id="XMLID_591_">
				<g
   id="XMLID_1352_">
					<path
   id="XMLID_1356_"
   style="fill:#e06f6e"
   d="m 335.975,151.471 c 4.458,2.034 8.217,4.122 11.014,8.348 3.412,5.153 3.88,11.871 -0.231,16.788 -0.126,0.151 0.072,0.359 0.219,0.219 4.478,-4.271 5.155,-10.422 2.386,-15.887 -2.133,-4.209 -8.015,-11.343 -13.371,-9.596 -0.052,0.017 -0.076,0.101 -0.017,0.128 z" />

				</g>

				<g
   id="XMLID_1347_"
   style="opacity:0.75">
					<path
   id="XMLID_1351_"
   style="fill:#e06f6e"
   d="m 335.975,151.471 c 4.458,2.034 8.217,4.122 11.014,8.348 3.412,5.153 3.88,11.871 -0.231,16.788 -0.126,0.151 0.072,0.359 0.219,0.219 4.478,-4.271 5.155,-10.422 2.386,-15.887 -2.133,-4.209 -8.015,-11.343 -13.371,-9.596 -0.052,0.017 -0.076,0.101 -0.017,0.128 z" />

				</g>

			</g>

		</g>
  </g>
</svg>
