<?xml version="1.0" encoding="UTF-8" standalone="no"?>
<!-- Created with Inkscape (http://www.inkscape.org/) -->

<svg
   width="52.875389mm"
   height="104.63119mm"
   viewBox="0 0 52.875389 104.63119"
   version="1.1"
   id="svg1"
   inkscape:version="1.4.2 (f4327f4, 2025-05-13)"
   sodipodi:docname="generic-agender-1.svg"
   xmlns:inkscape="http://www.inkscape.org/namespaces/inkscape"
   xmlns:sodipodi="http://sodipodi.sourceforge.net/DTD/sodipodi-0.dtd"
   xmlns="http://www.w3.org/2000/svg"
   xmlns:svg="http://www.w3.org/2000/svg">
  <sodipodi:namedview
     id="namedview1"
     pagecolor="#ffffff"
     bordercolor="#000000"
     borderopacity="0.25"
     inkscape:showpageshadow="2"
     inkscape:pageopacity="0.0"
     inkscape:pagecheckerboard="0"
     inkscape:deskcolor="#d1d1d1"
     inkscape:document-units="mm"
     inkscape:zoom="1.2275954"
     inkscape:cx="17.921214"
     inkscape:cy="26.067221"
     inkscape:window-width="2880"
     inkscape:window-height="1676"
     inkscape:window-x="-12"
     inkscape:window-y="-12"
     inkscape:window-maximized="1"
     inkscape:current-layer="layer1" />
  <defs
     id="defs1" />
  <g
     inkscape:label="图层 1"
     inkscape:groupmode="layer"
     id="layer1"
     transform="translate(-100.27708,-141.55209)">
    <path
       style="fill:#fad2b4;stroke-width:0.264583"
       d="m 138.17468,173.00296 c 1.53299,4.39897 2.74346,8.21479 2.74346,8.21479 1.97512,2.31986 3.43191,7.97216 4.77917,12.22851 0,0 0.97261,1.28852 1.40203,2.97127 l -5.48323,1.68169 c 0,0 -0.96467,-1.73963 -0.19685,-3.27236 -4.41166,-7.60228 -5.43242,-12.14544 -5.43242,-12.14544 -1.31683,-3.42371 -3.2303,-8.59816 -3.2303,-8.59816 2.17223,-0.90858 3.72454,-1.99126 4.77546,-2.89984 0.23151,0.62072 0.4408,1.24011 0.64268,1.81954 z"
       id="path79" />
    <path
       style="opacity:0.5;fill:#fad2b4;stroke-width:0.264583"
       d="m 137.53227,171.18369 c 0.037,0.0995 0.0706,0.19738 0.10662,0.2966 -0.57282,0.57917 -1.64147,1.47637 -3.35121,2.25107 0.0463,1.02923 -0.14446,2.041 -0.56674,2.94561 -0.56171,-1.50601 -0.96387,-2.59345 -0.96387,-2.59345 2.17223,-0.90858 3.72454,-1.99125 4.7752,-2.89983 z"
       id="path80" />
    <path
       style="opacity:0.5;fill:#fad2b4;stroke-width:0.264583"
       d="m 141.61611,198.09922 c 0,0 -0.62045,-1.12236 -0.46778,-2.3577 1.27846,-0.0413 2.35796,-0.24289 2.35796,-0.24289 -0.0577,-0.36989 0,-1.36075 0,-1.36075 l 1.59968,0.83397 0.59134,-1.52559 c 0,0 0.97261,1.28852 1.40203,2.97127 z"
       id="path81" />
    <path
       style="fill:#b183f5;stroke-width:0.264583"
       d="m 137.79764,171.30751 c -1.05092,0.90858 -2.96253,2.05767 -5.04084,2.77601 v -7.87506 c 2.57546,0 4.15211,2.41618 5.04084,5.09905 z"
       id="path82" />
    <path
       style="opacity:0.5;fill:#b183f5;stroke-width:0.264583"
       d="m 132.75786,169.91104 c 0.11933,0.2159 0.77893,0.82101 1.11257,1.73646 0.21908,0.60008 0.34687,1.21629 0.39741,1.82933 -0.48631,0.22199 -0.99351,0.42783 -1.51104,0.60669 v -4.17248 z"
       id="path83" />
    <path
       style="fill:#fad2b4;stroke-width:0.264583"
       d="m 138.00958,242.12827 c -0.60696,0.4027 -1.19936,0.13917 -1.19936,0.13917 0,0 0.11271,-0.25082 0.19103,-0.56039 0.0677,-0.26696 -0.0669,-0.5461 -0.32041,-0.65378 -0.38497,-0.16378 -1.05225,-0.36592 -1.99946,-0.36592 -1.09008,0 -1.81028,0.18362 -2.16164,0.30057 0.34131,-1.07845 0.6469,-2.26669 0.6469,-2.26669 0,-9.68772 -2.16138,-19.95911 -2.16138,-19.95911 -0.85593,-1.74466 -0.889,-4.40214 -0.889,-4.40214 -1.07976,-4.89823 -1.92987,-11.60647 -2.36035,-15.36488 3.6502,-0.096 6.60903,-0.67601 8.47778,-1.15782 0.44027,5.03979 0.55219,10.86909 0.40085,16.5227 0,0 1.78011,4.98952 2.06295,9.0768 0.35825,5.17948 -0.48657,15.28419 -0.48657,15.28419 l 0.52732,2.40215 c -0.19685,0.3638 -0.48895,0.8464 -0.72866,1.00515 z"
       id="path84" />
    <path
       style="opacity:0.5;fill:#fad2b4;stroke-width:0.264583"
       d="m 136.63454,214.36025 c 0,0 0.84058,2.35638 1.45838,5.15673 -0.0862,0.0148 -0.17119,0.0291 -0.25797,0.0439 -2.19657,0.37438 -4.43203,0.75459 -6.47991,1.02499 -0.20902,-1.15411 -0.34978,-1.8235 -0.34978,-1.8235 -0.85593,-1.74467 -0.889,-4.40214 -0.889,-4.40214 -1.07976,-4.89823 -1.92987,-11.60648 -2.36035,-15.36488 3.6502,-0.0961 6.60903,-0.67601 8.47778,-1.15782 0.44053,5.03952 0.55219,10.86882 0.40085,16.5227 z"
       id="path85" />
    <path
       style="fill:#fafafa;stroke-width:0.264583"
       d="m 138.76364,241.23874 0.33628,1.53167 c 0.39503,1.61317 0,3.41286 0,3.41286 h -8.06555 c -0.41619,-0.93556 -0.21035,-1.99707 0.43312,-2.77098 0,0 0.31565,-0.59796 0.62468,-1.22184 0.13573,-0.3175 0.28469,-0.75063 0.42757,-1.20253 0.35136,-0.11669 1.07156,-0.30057 2.16164,-0.30057 0.94748,0 1.61475,0.2024 1.99946,0.36592 0.25347,0.10768 0.38788,0.38682 0.32041,0.65378 -0.0783,0.3093 -0.19103,0.56039 -0.19103,0.56039 0,0 0.59267,0.26326 1.19936,-0.13917 0.23971,-0.15902 0.53181,-0.64135 0.72866,-1.00489 z"
       id="path86" />
    <path
       style="fill:#fa8b27;stroke-width:0.264583"
       d="m 135.69077,151.01212 c 0.37306,2.30452 3.05064,3.55547 2.37014,6.97918 -0.4744,2.38707 0.94376,3.29195 0.94376,3.29195 -1.66793,0.812 -2.63366,-0.17569 -5.012,1.55495 -1.89389,1.37795 -4.23201,2.21986 -7.27789,2.21986 -3.04562,0 -5.38454,-0.84191 -7.27842,-2.21986 -2.37834,-1.73037 -3.34407,-0.74295 -5.01201,-1.55495 0,0 1.41817,-0.90514 0.94377,-3.29195 -0.68024,-3.42371 1.99708,-4.67466 2.37014,-6.97918 z"
       id="path87" />
    <path
       style="opacity:0.5;fill:#fa8b27;stroke-width:0.264583"
       d="m 135.69077,151.01212 c 0.37306,2.30452 3.05064,3.55547 2.37014,6.97918 -0.4744,2.38707 0.94376,3.29195 0.94376,3.29195 -1.66793,0.812 -2.63366,-0.17569 -5.012,1.55495 -1.89389,1.37795 -4.23201,2.21986 -7.27789,2.21986 -3.04562,0 -5.38454,-0.84191 -7.27842,-2.21986 -2.37834,-1.73037 -3.34407,-0.74295 -5.01201,-1.55495 0,0 1.41817,-0.90514 0.94377,-3.29195 -0.68024,-3.42371 1.99708,-4.67466 2.37014,-6.97918 z"
       id="path88" />
    <path
       style="fill:#fad2b4;stroke-width:0.264583"
       d="m 126.71557,173.49668 c 2.81146,-2.39263 4.15714,-5.98779 4.49448,-7.17577 l -2.52624,-0.11245 v -2.98476 h -3.93753 v 2.98476 l -2.52518,0.11245 c 0.33707,1.18825 1.68275,4.78314 4.49447,7.17577 z"
       id="path89" />
    <path
       style="opacity:0.5;fill:#fad2b4;stroke-width:0.264583"
       d="m 124.74628,164.75378 c 0.67363,0.28073 1.36154,0.48869 1.96876,0.51303 0.74586,0.0296 1.39833,-0.0331 1.96877,-0.14393 v -1.89892 h -3.93753 z"
       id="path90" />
    <path
       style="fill:#fad2b4;stroke-width:0.264583"
       d="m 115.25462,173.00296 c -1.533,4.39897 -2.74347,8.21479 -2.74347,8.21479 -1.97511,2.31986 -3.43191,7.97216 -4.77917,12.22851 0,0 -0.97234,1.28852 -1.40202,2.97127 l 5.48322,1.68169 c 0,0 0.96467,-1.73963 0.19685,-3.27236 4.41166,-7.60228 5.43243,-12.14544 5.43243,-12.14544 1.31683,-3.42371 3.23029,-8.59816 3.23029,-8.59816 -2.17249,-0.90858 -3.7248,-1.99126 -4.77546,-2.89984 -0.23125,0.62072 -0.4408,1.24011 -0.64267,1.81954 z"
       id="path91" />
    <path
       style="opacity:0.5;fill:#fad2b4;stroke-width:0.264583"
       d="m 115.89702,171.18369 c -0.037,0.0995 -0.0706,0.19738 -0.10662,0.2966 0.57282,0.57917 1.64174,1.47637 3.35121,2.25107 -0.0463,1.02923 0.14446,2.041 0.56674,2.94561 0.56171,-1.50601 0.96387,-2.59345 0.96387,-2.59345 -2.17196,-0.90858 -3.72427,-1.99125 -4.7752,-2.89983 z"
       id="path92" />
    <path
       style="opacity:0.5;fill:#fad2b4;stroke-width:0.264583"
       d="m 111.81318,198.09922 c 0,0 0.62045,-1.12236 0.46778,-2.3577 -1.27846,-0.0413 -2.35796,-0.24289 -2.35796,-0.24289 0.0574,-0.36989 0,-1.36075 0,-1.36075 l -1.59967,0.83397 -0.59135,-1.52559 c 0,0 -0.97234,1.28852 -1.40202,2.97127 z"
       id="path93" />
    <path
       style="fill:#b183f5;stroke-width:0.264583"
       d="m 115.63165,171.30751 c 1.05092,0.90858 2.9628,2.05767 5.04084,2.77601 v -7.87506 c -2.57546,0 -4.15184,2.41618 -5.04084,5.09905 z"
       id="path94" />
    <path
       style="opacity:0.5;fill:#b183f5;stroke-width:0.264583"
       d="m 120.6717,169.91104 c -0.11933,0.2159 -0.77894,0.82101 -1.11258,1.73646 -0.21907,0.60008 -0.34687,1.21629 -0.3974,1.82933 0.4863,0.22199 0.99351,0.42783 1.51103,0.60669 v -4.17248 z"
       id="path95" />
    <path
       style="fill:#fad2b4;stroke-width:0.264583"
       d="m 115.41972,242.12827 c 0.60695,0.4027 1.19962,0.13917 1.19962,0.13917 0,0 -0.11272,-0.25082 -0.19103,-0.56039 -0.0677,-0.26696 0.0669,-0.5461 0.32041,-0.65378 0.38497,-0.16378 1.05225,-0.36592 1.99945,-0.36592 1.09009,0 1.81028,0.18362 2.16165,0.30057 -0.34131,-1.07845 -0.64691,-2.26669 -0.64691,-2.26669 0,-9.68772 2.16139,-19.95911 2.16139,-19.95911 0.85592,-1.74466 0.88873,-4.40214 0.88873,-4.40214 1.07977,-4.89823 1.92987,-11.60647 2.36035,-15.36488 -3.65019,-0.096 -6.60903,-0.67601 -8.47778,-1.15782 -0.44053,5.03979 -0.55219,10.86909 -0.40084,16.5227 0,0 -1.78012,4.98952 -2.06296,9.0768 -0.35825,5.17948 0.48657,15.28419 0.48657,15.28419 l -0.52732,2.40215 c 0.19712,0.3638 0.48922,0.8464 0.72867,1.00515 z"
       id="path96" />
    <path
       style="opacity:0.5;fill:#fad2b4;stroke-width:0.264583"
       d="m 116.79502,214.36025 c 0,0 -0.84058,2.35638 -1.45838,5.15673 0.0862,0.0148 0.17118,0.0291 0.25797,0.0439 2.19657,0.37438 4.43203,0.75459 6.47991,1.02499 0.20902,-1.15411 0.34978,-1.8235 0.34978,-1.8235 0.85592,-1.74467 0.88873,-4.40214 0.88873,-4.40214 1.07977,-4.89823 1.92987,-11.60648 2.36035,-15.36488 -3.65019,-0.0961 -6.60903,-0.67601 -8.47778,-1.15782 -0.44027,5.03952 -0.55192,10.86882 -0.40058,16.5227 z"
       id="path97" />
    <path
       style="fill:#fafafa;stroke-width:0.264583"
       d="m 114.66592,241.23874 -0.33629,1.53167 c -0.39502,1.61317 0,3.41286 0,3.41286 h 8.06556 c 0.41619,-0.93556 0.21034,-1.99707 -0.43312,-2.77098 0,0 -0.31591,-0.59796 -0.62468,-1.22184 -0.13547,-0.3175 -0.28469,-0.75063 -0.42757,-1.20253 -0.35137,-0.11669 -1.07156,-0.30057 -2.16165,-0.30057 -0.94747,0 -1.61475,0.2024 -1.99945,0.36592 -0.25347,0.10768 -0.38788,0.38682 -0.32041,0.65378 0.0783,0.3093 0.19103,0.56039 0.19103,0.56039 0,0 -0.59267,0.26326 -1.19962,-0.13917 -0.23972,-0.15902 -0.53182,-0.64135 -0.72867,-1.00489 z"
       id="path98" />
    <path
       style="fill:#32aff5;stroke-width:0.264583"
       d="m 135.43359,191.59894 c -0.20399,-1.10861 -0.62627,-2.82813 -1.016,-4.33679 -1.62507,0.33285 -4.33572,0.75274 -7.70281,0.75274 -3.3663,0 -6.07642,-0.41963 -7.70176,-0.75247 -0.39581,1.53194 -0.82391,3.27184 -1.01706,4.33678 -0.3376,1.86029 -0.60219,3.96955 -0.80063,6.23861 1.86876,0.48207 4.82759,1.06178 8.47778,1.15782 0.19924,-1.74122 0.30877,-2.85089 0.30877,-2.85089 h 0.73263 v 0 0 h 0.73264 c 0,0 0.10953,1.10967 0.30876,2.85089 3.6539,-0.096 6.61565,-0.67707 8.4844,-1.15914 -0.19791,-2.26933 -0.46435,-4.37806 -0.80672,-6.23755 z"
       id="path99" />
    <g
       style="opacity:0.5"
       id="g102"
       transform="matrix(0.26458333,0,0,0.26458333,69.835977,124.8951)">
				
					<line
   style="fill:none;stroke:#32aff5;stroke-width:0.375;stroke-linecap:round;stroke-linejoin:bevel;stroke-miterlimit:10"
   x1="214.976"
   y1="238.562"
   x2="214.976"
   y2="268.32599"
   id="line99" />

				
					<path
   style="fill:none;stroke:#32aff5;stroke-width:0.375;stroke-linecap:round;stroke-linejoin:bevel;stroke-miterlimit:10"
   d="m 219.228,238.562 v 22.149 c 0,1.469 -0.758,2.834 -2.006,3.61 l -2.234,1.39"
   id="path100" />

				
					<path
   style="fill:none;stroke:#32aff5;stroke-width:0.375;stroke-linecap:round;stroke-linejoin:bevel;stroke-miterlimit:10"
   d="m 182.322,257.039 c 0,0 8.958,-5.039 13.438,-17.419"
   id="path101" />

				
					<path
   style="fill:none;stroke:#32aff5;stroke-width:0.375;stroke-linecap:round;stroke-linejoin:bevel;stroke-miterlimit:10"
   d="m 247.628,257.039 c 0,0 -8.958,-5.039 -13.438,-17.419"
   id="path102" />

			</g>
    <path
       style="fill:#7ecdfa;stroke-width:0.264583"
       d="m 125.8734,198.00794 c -3.77878,-0.0833 -6.82704,-0.70882 -8.65028,-1.19221 -0.16722,-0.0442 -0.33417,0.072 -0.35084,0.24421 -0.0455,0.47254 -0.0886,0.95329 -0.12832,1.44515 -0.0111,0.13626 0.0743,0.2622 0.20664,0.2966 1.9341,0.49953 4.97681,1.09379 8.74553,1.18745 0.14552,0.004 0.27279,-0.10768 0.28972,-0.25215 0.0609,-0.51911 0.11562,-0.99589 0.16298,-1.41975 0.0183,-0.16404 -0.11059,-0.3056 -0.27543,-0.3093 z"
       id="path103" />
    <path
       style="fill:#7ecdfa;stroke-width:0.264583"
       d="m 136.212,196.81679 c -1.81928,0.48365 -4.86357,1.1086 -8.65532,1.19142 -0.16483,0.004 -0.29395,0.14525 -0.27543,0.30903 0.0474,0.4236 0.10187,0.90038 0.16298,1.41949 0.0169,0.14473 0.1442,0.25585 0.28972,0.25215 3.7719,-0.0937 6.81673,-0.68871 8.75083,-1.18851 0.13229,-0.0341 0.21749,-0.16034 0.20664,-0.2966 -0.0397,-0.4916 -0.0828,-0.97129 -0.12832,-1.44304 -0.0169,-0.17224 -0.18389,-0.28839 -0.3511,-0.24394 z"
       id="path104" />
    <g
       id="g107"
       transform="matrix(0.26458333,0,0,0.26458333,69.835977,124.8951)">
				<path
   style="fill:#fad2b4"
   d="m 186.98,111.478 c -0.943,-2.851 -5.262,-5.155 -8.459,-2.113 -2.407,2.289 -1.992,7.704 -0.446,10.377 3.069,5.309 7.301,4.65 8.906,2.65 v -10.914 z"
   id="path105" />

				<g
   id="g106">
					<path
   style="fill:#dcaa8c"
   d="m 179.026,111.844 c 0.462,-0.852 1.36,-1.575 2.449,-1.638 1.094,-0.079 2.098,0.564 2.714,1.342 0.619,0.802 0.999,1.723 1.218,2.656 0.216,0.936 0.308,1.884 0.282,2.825 -0.003,0.117 -0.1,0.209 -0.217,0.206 -0.043,-0.001 -0.083,-0.015 -0.116,-0.039 l -0.008,-0.006 c -0.657,-0.464 -1.39,-0.871 -2.125,-1.07 -0.742,-0.189 -1.463,-0.116 -1.958,0.38 -0.128,0.115 -0.238,0.258 -0.344,0.405 -0.072,0.129 -0.144,0.25 -0.169,0.404 -0.058,0.298 -0.02,0.651 0.104,0.986 0.237,0.671 0.777,1.306 1.485,1.45 l 0.025,0.005 c 0.11,0.022 0.181,0.13 0.158,0.239 -0.018,0.091 -0.095,0.155 -0.184,0.162 -1.018,0.076 -1.847,-0.692 -2.25,-1.535 -0.197,-0.438 -0.311,-0.947 -0.213,-1.478 0.044,-0.263 0.156,-0.527 0.312,-0.75 0.145,-0.19 0.3,-0.376 0.488,-0.538 0.366,-0.332 0.853,-0.562 1.352,-0.627 0.5,-0.069 0.984,0.028 1.416,0.182 0.868,0.318 1.577,0.847 2.18,1.488 l -0.341,0.161 c -0.148,-0.908 -0.32,-1.802 -0.585,-2.657 -0.274,-0.846 -0.616,-1.676 -1.161,-2.324 -0.512,-0.666 -1.245,-1.128 -2.037,-1.124 -0.795,-0.02 -1.574,0.451 -2.138,1.121 -0.072,0.086 -0.201,0.097 -0.288,0.025 -0.076,-0.061 -0.094,-0.168 -0.049,-0.251 z"
   id="path106" />

				</g>

			</g>
    <g
       id="g109"
       transform="matrix(0.26458333,0,0,0.26458333,69.835977,124.8951)">
				<path
   style="fill:#fad2b4"
   d="m 242.971,111.478 c 0.943,-2.851 5.261,-5.155 8.459,-2.113 2.407,2.289 1.991,7.704 0.446,10.377 -3.069,5.309 -7.301,4.65 -8.906,2.65 v -10.914 z"
   id="path107" />

				<g
   id="g108">
					<path
   style="fill:#dcaa8c"
   d="m 250.589,112.072 c -0.564,-0.67 -1.343,-1.141 -2.138,-1.121 -0.793,-0.004 -1.525,0.458 -2.038,1.124 -0.545,0.648 -0.887,1.478 -1.161,2.324 -0.265,0.854 -0.438,1.749 -0.585,2.657 l -0.341,-0.161 c 0.603,-0.64 1.312,-1.17 2.18,-1.488 0.431,-0.155 0.916,-0.252 1.416,-0.182 0.498,0.065 0.985,0.295 1.351,0.627 0.189,0.162 0.344,0.348 0.488,0.538 0.155,0.223 0.268,0.487 0.312,0.75 0.098,0.53 -0.016,1.039 -0.213,1.478 -0.403,0.843 -1.232,1.611 -2.25,1.535 -0.112,-0.008 -0.195,-0.106 -0.187,-0.217 0.007,-0.092 0.075,-0.166 0.162,-0.184 l 0.026,-0.005 c 0.707,-0.144 1.248,-0.779 1.485,-1.45 0.124,-0.334 0.163,-0.688 0.105,-0.986 -0.025,-0.154 -0.097,-0.275 -0.169,-0.404 -0.106,-0.147 -0.216,-0.29 -0.344,-0.405 -0.496,-0.497 -1.216,-0.569 -1.958,-0.38 -0.735,0.199 -1.468,0.606 -2.125,1.07 l -0.008,0.006 c -0.096,0.067 -0.228,0.045 -0.295,-0.051 -0.025,-0.035 -0.038,-0.076 -0.039,-0.116 -0.026,-0.941 0.065,-1.889 0.282,-2.825 0.22,-0.933 0.599,-1.854 1.218,-2.656 0.617,-0.779 1.62,-1.422 2.714,-1.342 1.089,0.064 1.987,0.786 2.449,1.638 0.054,0.099 0.017,0.223 -0.082,0.277 -0.088,0.045 -0.194,0.022 -0.255,-0.051 z"
   id="path108" />

				</g>

			</g>
    <path
       style="fill:#fad2b4;stroke-width:0.264583"
       d="m 124.6341,163.92564 0.53922,0.15372 c 1.00779,0.28734 2.07565,0.28734 3.08345,0 l 0.54081,-0.15399 c 2.72415,-0.77628 4.88156,-2.93131 5.52582,-5.68986 0.0992,-0.42466 0.15875,-0.83185 0.15875,-1.19777 0,-1.06918 0.13785,-2.9755 0.32121,-5.04005 0.42253,-4.75562 -3.31365,-8.85375 -8.08779,-8.85375 v 0 c -4.7744,0 -8.51032,4.09813 -8.08778,8.85375 0.18336,2.06455 0.3212,3.97087 0.3212,5.04005 0,0.36618 0.0603,0.77523 0.16087,1.20227 0.64796,2.75563 2.80141,4.90961 5.52424,5.68563 z"
       id="path109" />
    <g
       id="g120"
       transform="matrix(0.26458333,0,0,0.26458333,69.835977,124.8951)">
				<g
   id="g110">
					<path
   style="fill:#dcaa8c"
   d="m 207.627,132.232 c 1.159,0.387 2.401,0.624 3.628,0.788 1.234,0.151 2.476,0.246 3.721,0.227 1.246,0.019 2.488,-0.076 3.721,-0.227 1.226,-0.163 2.469,-0.401 3.628,-0.788 l 0.018,-0.006 c 0.112,-0.037 0.233,0.023 0.27,0.135 0.034,0.101 -0.013,0.21 -0.105,0.257 -1.174,0.605 -2.421,0.933 -3.688,1.182 -1.269,0.234 -2.558,0.326 -3.845,0.347 -1.286,-0.021 -2.576,-0.113 -3.845,-0.347 -1.267,-0.249 -2.514,-0.576 -3.688,-1.182 -0.105,-0.054 -0.146,-0.183 -0.092,-0.288 0.049,-0.095 0.159,-0.138 0.257,-0.105 z"
   id="path110" />

				</g>

				<g
   id="g111">
					<path
   style="fill:#dcaa8c"
   d="m 215.224,115.38 c 0.23,1.135 0.473,2.265 0.765,3.375 0.29,1.113 0.672,2.181 1.122,3.232 0.451,1.031 1.048,2.219 0.796,3.621 -0.196,0.666 -0.536,1.195 -0.947,1.664 -0.415,0.461 -0.894,0.874 -1.488,1.121 -0.128,0.054 -0.276,-0.007 -0.33,-0.136 -0.044,-0.105 -0.011,-0.223 0.072,-0.292 l 0.016,-0.013 c 0.811,-0.667 1.547,-1.628 1.81,-2.562 0.022,-0.118 0.04,-0.207 0.039,-0.32 l -0.014,-0.401 c -0.025,-0.263 -0.063,-0.521 -0.135,-0.776 -0.138,-0.509 -0.381,-1.029 -0.605,-1.575 -0.927,-2.198 -1.341,-4.549 -1.598,-6.864 -0.015,-0.138 0.084,-0.262 0.222,-0.277 0.13,-0.014 0.249,0.078 0.275,0.203 z"
   id="path111" />

				</g>

				<path
   style="opacity:0.5;fill:#ff8f8f"
   d="m 186.12,122.433 c 0,2.701 2.189,4.89 4.89,4.89 2.701,0 4.89,-2.189 4.89,-4.89 0,-2.701 -2.189,-4.89 -4.89,-4.89 -2.701,0 -4.89,2.19 -4.89,4.89 z"
   id="path112" />

				<g
   id="g113">
					<path
   style="fill:#784b41"
   d="m 205.647,113.922 c -0.267,1.128 -0.889,2.206 -1.814,3.027 -0.913,0.831 -2.179,1.355 -3.477,1.361 -1.298,0.003 -2.568,-0.517 -3.485,-1.344 -0.929,-0.817 -1.556,-1.894 -1.825,-3.022 -0.035,-0.147 0.056,-0.295 0.203,-0.33 0.109,-0.026 0.218,0.017 0.282,0.101 l 0.003,0.004 c 0.656,0.864 1.374,1.608 2.192,2.136 0.817,0.52 1.716,0.825 2.626,0.809 0.911,0.01 1.808,-0.298 2.624,-0.822 0.816,-0.531 1.531,-1.278 2.184,-2.145 l 0.003,-0.004 c 0.091,-0.121 0.262,-0.145 0.383,-0.054 0.089,0.068 0.125,0.18 0.101,0.283 z"
   id="path113" />

				</g>

				<g
   id="g114">
					<path
   style="fill:#784b41"
   d="m 195.647,115.402 c -0.328,-0.064 -0.59,-0.147 -0.872,-0.25 -0.276,-0.102 -0.543,-0.224 -0.802,-0.364 -0.517,-0.277 -0.992,-0.646 -1.379,-1.093 -0.113,-0.13 -0.099,-0.328 0.031,-0.441 0.12,-0.104 0.297,-0.1 0.412,0.002 l 0.008,0.007 c 0.374,0.332 0.811,0.591 1.282,0.77 0.235,0.091 0.476,0.165 0.721,0.222 0.239,0.055 0.508,0.099 0.719,0.112 l 0.01,10e-4 c 0.288,0.017 0.507,0.264 0.49,0.552 -0.017,0.288 -0.264,0.507 -0.551,0.49 -0.023,-10e-4 -0.048,-0.004 -0.069,-0.008 z"
   id="path114" />

				</g>

				<g
   id="g115">
					<path
   style="fill:#784b41"
   d="m 224.792,113.698 c 0.653,0.867 1.368,1.613 2.184,2.145 0.815,0.524 1.713,0.832 2.624,0.822 0.911,0.016 1.809,-0.29 2.627,-0.809 0.818,-0.528 1.535,-1.271 2.191,-2.136 l 0.003,-0.004 c 0.091,-0.12 0.263,-0.144 0.383,-0.053 0.089,0.068 0.125,0.179 0.101,0.282 -0.269,1.127 -0.896,2.204 -1.825,3.022 -0.917,0.827 -2.186,1.347 -3.485,1.344 -1.298,-0.006 -2.564,-0.53 -3.477,-1.361 -0.925,-0.821 -1.548,-1.899 -1.814,-3.027 -0.035,-0.147 0.056,-0.295 0.203,-0.329 0.109,-0.026 0.218,0.018 0.281,0.101 z"
   id="path115" />

				</g>

				<g
   id="g116">
					<path
   style="fill:#784b41"
   d="m 222.027,104.178 c 0.668,-1.338 1.935,-2.306 3.273,-2.91 1.352,-0.612 2.832,-0.907 4.301,-0.91 1.469,0 2.949,0.292 4.303,0.901 1.339,0.602 2.608,1.566 3.28,2.902 0.091,0.18 0.018,0.399 -0.162,0.49 -0.113,0.057 -0.24,0.05 -0.343,-0.008 l -0.021,-0.012 c -1.139,-0.648 -2.285,-1.026 -3.466,-1.289 -1.181,-0.254 -2.383,-0.351 -3.588,-0.36 -1.205,0.008 -2.407,0.11 -3.587,0.365 -1.181,0.265 -2.325,0.646 -3.461,1.299 l -0.019,0.011 c -0.175,0.1 -0.398,0.04 -0.498,-0.134 -0.065,-0.109 -0.064,-0.239 -0.012,-0.345 z"
   id="path116" />

				</g>

				<g
   id="g117">
					<path
   style="fill:#784b41"
   d="m 234.185,114.368 c 0.211,-0.012 0.48,-0.056 0.719,-0.112 0.245,-0.057 0.487,-0.132 0.721,-0.222 0.471,-0.179 0.907,-0.438 1.282,-0.77 l 0.008,-0.007 c 0.129,-0.115 0.327,-0.103 0.441,0.026 0.105,0.119 0.104,0.295 0.002,0.412 -0.387,0.447 -0.862,0.816 -1.379,1.093 -0.258,0.14 -0.526,0.262 -0.802,0.364 -0.282,0.102 -0.544,0.186 -0.872,0.25 -0.283,0.055 -0.557,-0.13 -0.612,-0.413 -0.055,-0.283 0.13,-0.557 0.413,-0.612 0.022,-0.004 0.044,-0.007 0.066,-0.008 z"
   id="path117" />

				</g>

				<path
   style="opacity:0.5;fill:#ff8f8f"
   d="m 243.832,122.433 c 0,2.701 -2.189,4.89 -4.89,4.89 -2.701,0 -4.89,-2.189 -4.89,-4.89 0,-2.701 2.189,-4.89 4.89,-4.89 2.7,0 4.89,2.19 4.89,4.89 z"
   id="path118" />

				<g
   id="g119">
					<path
   style="fill:#784b41"
   d="m 192.768,104.178 c 0.668,-1.338 1.935,-2.306 3.273,-2.91 1.352,-0.612 2.832,-0.907 4.301,-0.91 1.469,0 2.949,0.292 4.302,0.901 1.339,0.602 2.607,1.566 3.28,2.902 0.091,0.18 0.018,0.399 -0.162,0.49 -0.113,0.057 -0.24,0.05 -0.343,-0.008 l -0.021,-0.012 c -1.139,-0.648 -2.285,-1.026 -3.466,-1.289 -1.181,-0.254 -2.383,-0.351 -3.588,-0.36 -1.205,0.008 -2.407,0.11 -3.587,0.365 -1.181,0.265 -2.325,0.646 -3.461,1.299 l -0.019,0.011 c -0.175,0.1 -0.398,0.04 -0.498,-0.134 -0.064,-0.109 -0.063,-0.239 -0.011,-0.345 z"
   id="path119" />

				</g>

			</g>
    <path
       style="fill:#b183f5;stroke-width:0.264583"
       d="m 135.5426,190.35566 c 0,-1.81425 -1.39594,-6.21506 -1.39594,-6.21506 -0.73104,-3.23321 -1.07024,-6.92468 -1.07024,-6.92468 0.10716,-0.15054 0.20585,-0.31908 0.29686,-0.49768 0.78317,-1.53776 0.80936,-3.34803 0.21802,-4.96914 -0.39397,-1.08003 -0.83317,-1.83832 -0.83317,-1.83832 l -0.001,-3.70258 h -1.65973 c -0.33735,1.18798 -1.57057,4.89558 -4.38203,7.28821 -2.81146,-2.39263 -4.04469,-6.10023 -4.38203,-7.28821 h -1.66079 l -0.001,3.70258 c 0,0 -0.43921,0.75803 -0.83317,1.83832 -0.59135,1.62137 -0.56542,3.43138 0.21801,4.96914 0.091,0.1786 0.18971,0.34714 0.29687,0.49768 0,0 -0.3392,3.69147 -1.07024,6.92468 0,0 -1.39489,4.56538 -1.39489,6.21533 0,0 2.66621,1.24301 8.82994,1.24301 6.164,0 8.82465,-1.24328 8.82465,-1.24328 z"
       id="path120" />
    <path
       style="opacity:0.5;fill:#b183f5;stroke-width:0.264583"
       d="m 126.71451,178.14964 c 1.9095,0 3.09563,-0.65855 3.09563,-0.65855 -1.38271,0 -2.59001,-0.37306 -3.09483,-0.37306 -0.50483,0 -1.71186,0.37306 -3.09457,0.37306 0,0 1.18454,0.65855 3.09377,0.65855 z"
       id="path121" />
    <path
       style="fill:#fa8b27;stroke-width:0.264583"
       d="m 126.71504,142.1454 c 0,0 1.22846,-0.87788 2.83052,-0.49794 1.64173,0.38946 4.10077,1.28243 6.01345,4.75562 1.66793,3.02868 1.252,4.56486 3.12737,6.41958 1.22899,1.21524 2.29685,0.88768 2.86941,2.7358 0.61515,1.98543 -1.04326,3.20675 -0.35746,4.90087 0.0847,0.20955 0.0357,0.4527 -0.12647,0.60987 -0.72469,0.70326 -1.50839,1.07103 -3.50493,1.49357 -1.22132,0.2585 -1.94998,0.9189 -2.36167,1.47029 -0.26326,0.35269 -0.81889,0.26644 -0.97261,-0.14605 -0.29554,-0.79296 -0.34369,-1.61369 -0.11139,-2.62573 0.49371,-2.15079 -0.78079,-2.67864 -0.27437,-4.62967 0.56118,-2.16271 -0.0254,-3.43297 -1.42108,-4.70006 -1.03717,-0.94139 -1.00621,-2.15741 -1.73937,-3.42133 -0.63659,-1.09723 -1.44859,-1.62401 -2.43602,-1.62401 -0.54187,0 -0.95118,0.2114 -1.21047,0.40216 -0.19367,0.14262 -0.45667,0.14262 -0.65061,0 -0.25956,-0.19076 -0.66913,-0.40216 -1.211,-0.40216 -0.98769,0 -1.79969,0.52678 -2.43602,1.62401 -0.73316,1.26392 -0.7022,2.47994 -1.73937,3.42133 -1.39567,1.26682 -1.98225,2.53735 -1.42107,4.70006 0.50641,1.95103 -0.76809,2.47888 -0.27438,4.62967 0.23231,1.01204 0.18389,1.83277 -0.11139,2.62573 -0.15372,0.41222 -0.70934,0.49847 -0.9726,0.14605 -0.41143,-0.55113 -1.14036,-1.21153 -2.36168,-1.47029 -1.99654,-0.42254 -2.78024,-0.79031 -3.50493,-1.49357 -0.16219,-0.15743 -0.21114,-0.40058 -0.12647,-0.60987 0.6858,-1.69412 -0.97261,-2.91571 -0.35745,-4.90087 0.57255,-1.84812 1.64041,-1.52056 2.8694,-2.7358 1.87563,-1.85446 1.45944,-3.3909 3.12738,-6.41958 1.91267,-3.47319 4.37171,-4.36616 6.01345,-4.75562 1.60258,-0.37968 2.83183,0.49794 2.83183,0.49794 z"
       id="path122" />
    <path
       style="opacity:0.5;fill:#fa8b27;stroke-width:0.264583"
       d="m 126.71504,142.37056 v 4.57412 c 0,0 0.33761,-1.11178 0.33761,-2.4892 -2.6e-4,-1.04801 -0.33761,-2.08492 -0.33761,-2.08492 z"
       id="path123" />
    <g
       style="opacity:0.5"
       id="g132"
       transform="matrix(0.26458333,0,0,0.26458333,69.835977,124.8951)">
				
					<path
   style="fill:none;stroke:#fa8b27;stroke-width:0.375;stroke-linecap:round;stroke-linejoin:round;stroke-miterlimit:10"
   d="m 208.174,76.065 c -5.475,0.871 -13.985,3.484 -15.142,11.571 -1.157,8.088 -2.982,12.194 -6.051,14.806 -3.069,2.613 -9.766,8.336 -7.786,16.051 1.98,7.714 1.504,10.078 0,12.567 -1.504,2.489 -0.479,7.213 0.937,8.646"
   id="path124" />

				
					<path
   style="fill:none;stroke:#fa8b27;stroke-width:0.375;stroke-linecap:round;stroke-linejoin:round;stroke-miterlimit:10"
   d="m 208.174,69.727 c -4.873,1.542 -11.418,5.592 -12.884,8.163 -1.466,2.572 -1.889,7.429 -2.258,9.747"
   id="path125" />

				
					<path
   style="fill:none;stroke:#fa8b27;stroke-width:0.375;stroke-linecap:round;stroke-linejoin:round;stroke-miterlimit:10"
   d="m 185.186,92.279 c -3.058,3.86 -0.902,6.431 -7.869,12.134 -4.038,3.305 -9.622,6.657 -8.793,13.708 0.973,8.272 0.829,15.18 -3.401,16.507"
   id="path126" />

				
					<path
   style="fill:none;stroke:#fa8b27;stroke-width:0.375;stroke-linecap:round;stroke-linejoin:round;stroke-miterlimit:10"
   d="m 191.009,74.074 c -3.075,2.405 -7.803,6.304 -9.111,13.023 -0.701,3.599 -0.931,13.644 -4.581,17.315"
   id="path127" />

				
					<path
   style="fill:none;stroke:#fa8b27;stroke-width:0.375;stroke-linecap:round;stroke-linejoin:round;stroke-miterlimit:10"
   d="m 219.787,77.641 c 5.143,0 13.462,2.903 15.689,9.995 2.228,7.092 4.841,11.242 7.495,12.401 2.654,1.159 6.55,7.973 5.369,13.442"
   id="path128" />

				
					<path
   style="fill:none;stroke:#fa8b27;stroke-width:0.375;stroke-linecap:round;stroke-linejoin:round;stroke-miterlimit:10"
   d="m 245.899,103.041 c 4.679,5.666 8.589,8.285 8.243,14.503 -0.346,6.217 -3.437,9.535 -3.385,14.181 0.053,4.645 2.379,7.428 2.379,7.428"
   id="path129" />

				
					<path
   style="fill:none;stroke:#fa8b27;stroke-width:0.375;stroke-linecap:round;stroke-linejoin:round;stroke-miterlimit:10"
   d="m 253.651,106.798 c 4.79,7.385 10.786,8.851 10.7,13.749 -0.178,10.183 -8.896,10.141 -5.537,18.352"
   id="path130" />

				
					<path
   style="fill:none;stroke:#fa8b27;stroke-width:0.375;stroke-linecap:round;stroke-linejoin:round;stroke-miterlimit:10"
   d="m 219.123,67.915 c 6.594,-1.12 17.979,1.874 20.779,10.766 2.799,8.893 2.226,14.118 5.997,20.029"
   id="path131" />

				
					<path
   style="fill:none;stroke:#fa8b27;stroke-width:0.375;stroke-linecap:round;stroke-linejoin:round;stroke-miterlimit:10"
   d="m 222.29,70.466 c 0,0 12.06,-0.746 16.453,5.599"
   id="path132" />

			</g>
    <g
       id="g138"
       transform="matrix(0.26458333,0,0,0.26458333,69.835977,124.8951)">
				<path
   style="fill:#ff9b41"
   d="m 214.975,304.541 c -20.303,0 -45.278,-4.838 -61.207,-7.302 -8.971,-1.388 -15.769,-1.961 -20.009,-2.198 0.933,-5.643 1.466,-10.696 1.75,-14.995 3.919,0.621 11.065,1.786 20.636,3.481 15.388,2.777 38.101,6.75 58.83,6.75 20.728,0 43.442,-3.973 58.83,-6.75 9.571,-1.694 16.716,-2.859 20.636,-3.481 0.284,4.298 0.817,9.351 1.75,14.995 -4.24,0.236 -11.038,0.81 -20.009,2.198 -15.93,2.464 -40.904,7.302 -61.207,7.302 z"
   id="path133" />

				<path
   style="fill:#fa5a5a"
   d="m 214.975,290.277 c -20.728,0 -43.442,-3.973 -58.83,-6.75 -9.571,-1.694 -16.717,-2.859 -20.636,-3.481 0.255,-3.85 0.313,-7.099 0.288,-9.636 -0.03,-3.07 2.859,-5.327 5.827,-4.542 12.426,3.285 42.116,10.144 73.35,10.144 31.234,0 60.924,-6.86 73.35,-10.144 2.968,-0.785 5.857,1.472 5.827,4.542 -0.025,2.537 0.034,5.785 0.288,9.636 -3.919,0.621 -11.065,1.786 -20.636,3.481 -15.387,2.777 -38.1,6.75 -58.828,6.75 z"
   id="path134" />

				<path
   style="fill:#ffdc46"
   d="m 278.559,310.95 c -16.463,2.187 -43.705,7.854 -63.584,7.854 -19.879,0 -47.121,-5.667 -63.584,-7.854 -9.406,-1.25 -16.394,-1.333 -20.762,-1.159 0.006,-0.023 0.013,-0.046 0.019,-0.069 1.354,-5.227 2.361,-10.144 3.111,-14.682 4.24,0.236 11.038,0.81 20.009,2.198 15.929,2.464 40.903,7.302 61.207,7.302 20.303,0 45.278,-4.838 61.207,-7.302 8.971,-1.388 15.769,-1.961 20.009,-2.198 0.75,4.537 1.758,9.454 3.112,14.682 0.006,0.023 0.013,0.046 0.019,0.069 -4.37,-0.174 -11.357,-0.09 -20.763,1.159 z"
   id="path135" />

				<path
   style="fill:#32aff5"
   d="m 283.313,338.374 c -17.525,1.68 -49.31,8.959 -68.339,8.959 -19.029,0 -50.814,-7.279 -68.339,-8.959 -15.924,-1.488 -24.935,1.332 -27.442,2.287 1.933,-5.636 4.116,-10.819 6.152,-15.831 4.17,-0.711 12.08,-1.476 23.667,-0.168 16.995,1.919 46.508,8.406 65.961,8.406 19.453,0 48.966,-6.487 65.961,-8.406 11.588,-1.309 19.498,-0.543 23.667,0.168 2.036,5.012 4.219,10.195 6.152,15.831 -2.504,-0.955 -11.516,-3.776 -27.44,-2.287 z"
   id="path136" />

				<path
   style="fill:#5ac828"
   d="m 280.936,324.662 c -16.995,1.919 -46.508,8.406 -65.961,8.406 -19.453,0 -48.966,-6.487 -65.961,-8.406 -11.588,-1.309 -19.498,-0.543 -23.667,0.168 2.064,-5.081 3.97,-9.995 5.282,-15.039 4.369,-0.174 11.356,-0.09 20.762,1.159 16.463,2.187 43.705,7.854 63.584,7.854 19.879,0 47.121,-5.667 63.584,-7.854 9.406,-1.25 16.394,-1.333 20.762,-1.159 1.313,5.044 3.219,9.958 5.282,15.039 -4.169,-0.711 -12.079,-1.477 -23.667,-0.168 z"
   id="path137" />

				<path
   style="fill:#9150f0"
   d="m 119.194,340.66 c 2.507,-0.955 11.518,-3.775 27.442,-2.287 17.525,1.68 49.31,8.959 68.339,8.959 19.029,0 50.814,-7.279 68.339,-8.959 15.924,-1.488 24.935,1.332 27.442,2.287 1.655,4.826 3.125,9.981 4.141,15.663 0,0 -9.192,-5.795 -29.206,-4.237 -18.059,1.405 -52.112,9.511 -70.716,9.511 -18.604,0 -52.657,-8.105 -70.716,-9.511 -20.014,-1.557 -29.206,4.237 -29.206,4.237 1.016,-5.682 2.486,-10.836 4.141,-15.663 z"
   id="path138" />

			</g>
    <path
       style="fill:#fad2b4;stroke-width:0.264583"
       d="m 109.923,194.13788 -2.19102,-0.69162 c 0,0 -0.59187,0.72602 -1.22237,1.75816 -0.14605,0.23918 -0.23495,0.50932 -0.24977,0.78925 -0.0167,0.31697 -0.0177,0.77443 0.0577,1.261 0.0643,0.4146 0.28522,0.7919 0.61066,1.05675 0.8001,0.65167 1.20835,1.06362 1.57956,1.0922 0.31988,0.0249 0.52017,-0.5924 0.14579,-1.14776 -0.19209,-0.28496 -0.56568,-0.66305 -0.71253,-0.90832 0.0349,-0.42227 0.28761,-0.7194 0.28761,-0.7194 0,0 1.50918,-1.00066 1.69439,-2.49026 z"
       id="path139" />
    <path
       style="fill:#fad2b4;stroke-width:0.264583"
       d="m 143.50629,194.13788 2.19102,-0.69162 c 0,0 0.59187,0.72602 1.22237,1.75816 0.14605,0.23918 0.23522,0.50932 0.24977,0.78925 0.0167,0.31697 0.0177,0.77443 -0.0577,1.261 -0.0643,0.4146 -0.28522,0.7919 -0.61066,1.05675 -0.8001,0.65167 -1.20835,1.06362 -1.57956,1.0922 -0.32014,0.0249 -0.52017,-0.5924 -0.14578,-1.14776 0.19208,-0.28496 0.56567,-0.66305 0.71252,-0.90832 -0.0349,-0.42227 -0.2876,-0.7194 -0.2876,-0.7194 0,0 -1.50892,-1.00066 -1.6944,-2.49026 z"
       id="path140" />
  </g>
</svg>
