<?xml version="1.0" encoding="UTF-8" standalone="no"?>
<!-- Created with Inkscape (http://www.inkscape.org/) -->

<svg
   width="34.719852mm"
   height="92.710869mm"
   viewBox="0 0 34.719852 92.710867"
   version="1.1"
   id="svg1"
   inkscape:version="1.4.2 (f4327f4, 2025-05-13)"
   sodipodi:docname="generic-agender-5.svg"
   xmlns:inkscape="http://www.inkscape.org/namespaces/inkscape"
   xmlns:sodipodi="http://sodipodi.sourceforge.net/DTD/sodipodi-0.dtd"
   xmlns:xlink="http://www.w3.org/1999/xlink"
   xmlns="http://www.w3.org/2000/svg"
   xmlns:svg="http://www.w3.org/2000/svg">
  <sodipodi:namedview
     id="namedview1"
     pagecolor="#ffffff"
     bordercolor="#000000"
     borderopacity="0.25"
     inkscape:showpageshadow="2"
     inkscape:pageopacity="0.0"
     inkscape:pagecheckerboard="0"
     inkscape:deskcolor="#d1d1d1"
     inkscape:document-units="mm"
     inkscape:zoom="1.2275954"
     inkscape:cx="246.00939"
     inkscape:cy="83.903866"
     inkscape:window-width="2880"
     inkscape:window-height="1676"
     inkscape:window-x="-12"
     inkscape:window-y="-12"
     inkscape:window-maximized="1"
     inkscape:current-layer="layer1" />
  <defs
     id="defs1">
    <clipPath
       id="XMLID_00000091697276168001632890000017982247472649003949_">
							<use
   xlink:href="#XMLID_5093_"
   style="overflow:visible"
   id="use91" />

						</clipPath>
    <rect
       id="XMLID_5093_"
       x="238.70399"
       y="145.08501"
       width="88.318001"
       height="53.285" />
  </defs>
  <g
     inkscape:label="图层 1"
     inkscape:groupmode="layer"
     id="layer1"
     transform="translate(-39.95207,-126.20641)">
    <g
       id="XMLID_127_"
       transform="matrix(0.26458333,0,0,0.26458333,-62.014206,106.81623)">
			<g
   id="XMLID_78_">
				<g
   id="XMLID_4090_">
					<path
   style="fill:#e9caac"
   d="m 403.552,88.639 -2.804,63.535 -3.026,-6.949 34.788,21.964 -13.208,17.594 -30.8,-27.276 -0.831,-0.736 c -1.816,-1.608 -2.564,-3.985 -2.195,-6.213 l 10.565,-62.713 z"
   id="path1" />

				</g>

				<g
   id="XMLID_4080_">
					<g
   id="XMLID_4081_">
						<path
   style="fill:#e9caac"
   d="m 484.236,238.001 17.334,-33.195 1.13,9.847 -37.324,-30.667 15.098,-16.002 32.783,35.481 0.884,0.957 c 2.324,2.515 2.372,6.323 0.245,8.89 l -23.857,28.865 z"
   id="path2" />

					</g>

				</g>

				<g
   id="XMLID_3959_">
					<g
   id="XMLID_3963_">
						<path
   style="fill:#e9caac"
   d="m 426.751,412.907 c -0.595,-6.761 -1.62,-13.743 -2.714,-20.68 -1.076,-6.95 -2.226,-13.908 -3.463,-20.867 -1.23,-6.958 -2.504,-13.914 -3.826,-20.865 -1.321,-6.939 -2.677,-13.921 -4.072,-20.789 l -0.089,-1.588 c -0.44,-6.252 -0.785,-12.287 -1.059,-18.452 -0.271,-6.141 -0.465,-12.304 -0.54,-18.532 -0.066,-6.235 -0.031,-12.516 0.298,-19.039 0.181,-3.263 0.448,-6.597 0.894,-10.139 0.101,-0.87 0.237,-1.786 0.387,-2.717 l 0.225,-1.395 0.285,-1.473 c 0.367,-1.931 0.929,-4.156 1.766,-6.647 l 34.923,14.012 c -0.218,0.317 -0.585,0.948 -0.939,1.93 l -0.272,0.707 -0.265,0.801 c -0.18,0.532 -0.359,1.082 -0.526,1.688 -0.687,2.35 -1.321,4.951 -1.891,7.64 -1.175,5.383 -2.17,11.062 -3.058,16.797 -0.885,5.744 -1.668,11.567 -2.377,17.417 -0.706,5.826 -1.348,11.788 -1.894,17.534 l -0.089,-1.587 c 0.244,7.22 0.424,14.34 0.578,21.507 0.153,7.156 0.257,14.317 0.317,21.484 0.065,7.164 0.053,14.346 -0.051,21.546 -0.148,7.213 -0.354,14.403 -1.014,21.829 z"
   id="path3" />

					</g>

					<g
   id="XMLID_3960_"
   style="opacity:0">
						<path
   style="fill:#17265c"
   d="m 426.301,412.834 c 0,0 -11.651,4.956 -18.518,8.745 -0.695,0.383 -1.479,1.239 -0.941,1.822 0.247,0.268 0.658,0.287 1.023,0.287 7.893,0 15.786,0 23.68,0 0.142,-2.028 1.225,-3.971 2.877,-5.16 0.538,1.321 1.076,2.642 1.615,3.964 0.317,0.779 0.482,1.196 0.482,1.196 h 4.726 c 0,0 0.354,-2.531 0.029,-4.804 -0.222,-1.552 -1.601,-5.588 -2.127,-5.901 -0.336,-0.201 -0.756,-0.176 -1.147,-0.142 -3.466,0.3 -11.699,-0.007 -11.699,-0.007"
   id="path4" />

					</g>

				</g>

				<g
   id="XMLID_3941_">
					<g
   id="XMLID_3945_">
						<path
   style="fill:#e9caac"
   d="m 469.145,413.031 c -0.734,-6.804 -1.834,-13.788 -2.991,-20.733 -1.137,-6.957 -2.335,-13.92 -3.608,-20.884 -1.266,-6.963 -2.569,-13.924 -3.912,-20.881 -1.342,-6.947 -2.714,-13.929 -4.119,-20.816 -0.021,-0.104 -0.032,-0.207 -0.033,-0.309 l -0.014,-2.275 c -0.038,-5.815 -0.129,-11.782 -0.269,-17.662 -0.143,-5.896 -0.333,-11.781 -0.601,-17.621 -0.267,-5.836 -0.607,-11.645 -1.088,-17.287 -0.225,-2.817 -0.484,-5.603 -0.816,-8.241 -0.326,-2.611 -0.734,-5.202 -1.208,-7.013 l 37.275,-5.152 c 0.308,4.102 0.25,7.47 0.156,10.817 -0.105,3.321 -0.305,6.499 -0.54,9.645 -0.502,6.285 -1.173,12.399 -1.903,18.48 -0.733,6.077 -1.544,12.103 -2.399,18.111 -0.862,6.024 -1.759,11.956 -2.736,18.03 l -0.048,-2.583 c 0.25,7.206 0.445,14.327 0.62,21.489 0.173,7.152 0.306,14.308 0.401,21.47 0.099,7.159 0.135,14.333 0.092,21.523 -0.084,7.202 -0.218,14.384 -0.728,21.77 z"
   id="path5" />

					</g>

					<g
   id="XMLID_3942_"
   style="opacity:0">
						<path
   style="fill:#17265c"
   d="m 468.668,412.834 c 0,0 -11.651,4.956 -18.518,8.745 -0.695,0.383 -1.479,1.239 -0.941,1.822 0.247,0.268 0.658,0.287 1.023,0.287 7.893,0 15.786,0 23.68,0 0.142,-2.028 1.225,-3.971 2.877,-5.16 0.538,1.321 1.077,2.642 1.615,3.964 0.317,0.779 0.481,1.196 0.481,1.196 h 4.726 c 0,0 0.354,-2.531 0.029,-4.804 -0.222,-1.552 -1.601,-5.588 -2.127,-5.901 -0.336,-0.201 -0.756,-0.176 -1.146,-0.142 -3.466,0.3 -11.699,-0.007 -11.699,-0.007"
   id="path6" />

					</g>

				</g>

				<g
   id="XMLID_79_">
					<g
   id="XMLID_3898_">
						<circle
   id="XMLID_3919_"
   style="fill:#71b57a"
   cx="474.15701"
   cy="95.234001"
   r="13.689" />

						<circle
   id="XMLID_3566_"
   style="fill:#71b57a"
   cx="428.879"
   cy="93.987"
   r="13.689" />

						<g
   id="XMLID_3899_">
							<g
   id="XMLID_3900_">
								<path
   id="XMLID_2256_"
   style="fill:#71b57a"
   d="m 448.245,156.68 h 3.994 c 14.999,0 27.159,-12.159 27.159,-27.159 v -5.132 c 0,-16.102 -13.053,-29.155 -29.155,-29.155 v 0 c -16.102,0 -29.155,13.053 -29.155,29.155 v 5.132 c -0.002,15 12.157,27.159 27.157,27.159 z" />

							</g>

						</g>

					</g>

					<g
   id="XMLID_3863_">
						<g
   id="XMLID_3879_">
							<g
   id="XMLID_3889_">
								<g
   id="g7">
									<path
   style="fill:#e9caac"
   d="m 418.203,139.556 c 0.002,0.007 0.003,0.014 0.006,0.021 10e-4,0.002 10e-4,0.004 0.002,0.006 0.252,0.597 0.504,1.195 0.756,1.792 0.002,0.004 0.003,0.007 0.005,0.011 0.003,0.006 0.006,0.012 0.01,0.017 0.362,0.534 0.77,1.036 1.183,1.531 0.005,0.006 0.009,0.011 0.015,0.016 0.002,0.002 0.004,0.004 0.007,0.006 0.241,0.206 1.039,0.803 0.766,0.592 -0.222,-0.172 0.506,0.409 0.766,0.592 0.003,0.002 0.005,0.003 0.008,0.005 0.006,0.004 0.012,0.007 0.019,0.01 0.588,0.287 1.197,0.532 1.809,0.763 0.006,0.002 0.012,0.004 0.017,0.006 0.007,0.002 0.014,0.003 0.021,0.004 0.666,0.11 1.337,0.237 2.012,0.27 0.006,0 0.012,0 0.018,0 0.675,-0.039 1.345,-0.154 2.012,-0.27 0.007,-0.001 0.014,-0.003 0.021,-0.005 0.623,-0.2 1.213,-0.493 1.809,-0.763 0.874,-0.471 1.576,-1.115 2.104,-1.932 0.663,-0.724 1.111,-1.575 1.343,-2.551 0.313,-0.997 0.357,-1.994 0.134,-2.991 -0.045,-0.998 -0.342,-1.928 -0.89,-2.789 -0.391,-0.506 -0.782,-1.012 -1.173,-1.518 -0.936,-0.93 -2.039,-1.573 -3.31,-1.929 -0.665,-0.089 -1.329,-0.179 -1.994,-0.268 -1.354,0.004 -2.616,0.346 -3.786,1.024 -0.002,0.001 -0.004,0.002 -0.006,0.002 0.597,-0.252 1.195,-0.504 1.792,-0.756 -0.012,0.005 -0.025,0.008 -0.038,0.01 0.665,-0.089 1.329,-0.179 1.994,-0.268 -0.015,0.002 -0.03,0.002 -0.045,0 0.665,0.089 1.329,0.179 1.994,0.268 -0.016,-0.002 -0.032,-0.007 -0.047,-0.013 0.597,0.252 1.195,0.504 1.792,0.756 -0.016,-0.007 -0.031,-0.016 -0.045,-0.026 0.506,0.391 1.012,0.782 1.518,1.173 -0.012,-0.01 -0.023,-0.02 -0.032,-0.032 0.391,0.506 0.782,1.012 1.173,1.518 -0.009,-0.011 -0.016,-0.023 -0.021,-0.036 0.252,0.597 0.504,1.195 0.756,1.792 -0.004,-0.008 -0.006,-0.017 -0.008,-0.026 -0.232,-0.976 -0.68,-1.826 -1.343,-2.551 -0.529,-0.817 -1.23,-1.461 -2.105,-1.932 -0.861,-0.548 -1.791,-0.845 -2.789,-0.89 -0.997,-0.223 -1.994,-0.179 -2.991,0.134 -0.597,0.252 -1.194,0.504 -1.792,0.756 -1.127,0.667 -2.024,1.564 -2.691,2.691 -0.252,0.597 -0.504,1.195 -0.756,1.792 -0.357,1.329 -0.357,2.659 0,3.988 z"
   id="path7" />

								</g>

							</g>

							<g
   id="XMLID_3880_">
								<g
   id="g8">
									<path
   style="fill:#17265c"
   d="m 422.376,136.833 c -0.009,0.101 -0.009,0.031 0.006,-0.03 0.019,-0.076 0.039,-0.15 0.064,-0.225 0.047,-0.144 -0.055,0.1 0.014,-0.035 0.036,-0.07 0.078,-0.136 0.116,-0.205 0.02,-0.035 0.081,-0.119 0.02,-0.04 0.038,-0.05 0.082,-0.097 0.126,-0.142 0.055,-0.057 0.113,-0.111 0.172,-0.164 0.115,-0.102 -0.092,0.059 0.035,-0.027 0.494,-0.337 1.005,-0.44 1.585,-0.429 0.056,0.001 0.112,0.004 0.169,0.007 0.018,0.001 0.195,0.018 0.088,0.005 -0.122,-0.015 0.107,0.02 0.13,0.025 0.057,0.012 0.113,0.025 0.169,0.039 0.125,0.033 0.249,0.072 0.37,0.119 0.136,0.053 -0.116,-0.061 0.011,0.008 0.062,0.034 0.125,0.064 0.186,0.099 0.048,0.028 0.094,0.06 0.141,0.089 0.145,0.088 -0.034,-0.04 0.038,0.028 0.039,0.037 0.078,0.074 0.117,0.111 0.014,0.013 0.126,0.139 0.058,0.055 -0.076,-0.093 0.05,0.078 0.063,0.099 0.027,0.045 0.052,0.092 0.074,0.14 -0.056,-0.122 -0.017,-0.043 0,0.039 0.014,0.068 0.029,0.133 0.04,0.201 0.384,-0.385 0.769,-0.769 1.153,-1.153 -1.51,-0.395 -3.165,0.632 -3.524,2.143 -0.268,1.13 -0.034,2.345 0.753,3.218 0.549,0.608 1.357,0.953 2.151,1.089 0.499,0.085 1.01,-0.132 1.153,-0.655 0.124,-0.451 -0.153,-1.068 -0.655,-1.153 -0.202,-0.035 -0.402,-0.078 -0.598,-0.141 -0.075,-0.025 -0.151,-0.051 -0.224,-0.081 0.201,0.083 -0.002,-0.008 -0.046,-0.031 -0.082,-0.044 -0.158,-0.096 -0.238,-0.144 -0.157,-0.094 0.115,0.126 -0.018,-0.013 -0.086,-0.089 -0.174,-0.175 -0.26,-0.264 0.181,0.189 0.014,0.014 -0.025,-0.049 -0.03,-0.049 -0.057,-0.099 -0.085,-0.149 -0.103,-0.182 -0.008,0.017 0.001,0.02 -0.02,-0.006 -0.047,-0.128 -0.056,-0.156 -0.017,-0.052 -0.047,-0.338 -0.088,-0.368 0.053,0.04 0.018,0.23 0.008,0.04 -0.003,-0.06 -0.008,-0.12 -0.009,-0.18 -0.002,-0.109 0.005,-0.215 0.011,-0.324 0.009,-0.153 0.062,-0.056 -0.011,0.061 0.022,-0.035 0.02,-0.115 0.028,-0.156 0.019,-0.09 0.046,-0.176 0.07,-0.264 0.003,-0.01 0.043,-0.099 0.038,-0.108 0.043,0.088 -0.121,0.232 -0.031,0.081 0.134,-0.225 0.249,-0.346 0.431,-0.458 0.031,-0.019 0.298,-0.149 0.149,-0.09 0.085,-0.034 0.174,-0.055 0.263,-0.078 0.213,-0.057 -0.09,0.006 0.11,-0.008 0.113,0.008 0.12,0.004 0.022,-0.012 0.06,0.01 0.12,0.024 0.179,0.041 0.751,0.196 1.259,-0.464 1.153,-1.153 -0.25,-1.625 -2.073,-2.454 -3.557,-2.443 -1.909,0.015 -3.733,1.157 -3.916,3.173 -0.046,0.505 0.464,0.938 0.938,0.938 0.546,-0.002 0.893,-0.433 0.938,-0.94 z"
   id="path8" />

								</g>

							</g>

						</g>

						<g
   id="XMLID_3864_">
							<g
   id="XMLID_3872_">
								<g
   id="g9">
									<path
   style="fill:#e9caac"
   d="m 467.856,137.611 c -10e-4,0.042 -0.002,0.083 -0.003,0.125 -0.039,1.033 0.176,1.996 0.646,2.89 0.302,0.93 0.819,1.735 1.551,2.414 0.679,0.731 1.484,1.248 2.414,1.551 0.894,0.47 1.857,0.685 2.89,0.646 0.665,-0.089 1.329,-0.179 1.994,-0.268 1.271,-0.356 2.374,-0.999 3.31,-1.929 0.391,-0.506 0.782,-1.012 1.173,-1.518 0.679,-1.17 1.02,-2.432 1.024,-3.786 10e-4,-0.042 0.002,-0.083 0.003,-0.125 0.039,-1.033 -0.176,-1.996 -0.646,-2.89 -0.303,-0.93 -0.82,-1.735 -1.551,-2.414 -0.679,-0.731 -1.484,-1.248 -2.414,-1.551 -0.894,-0.47 -1.857,-0.685 -2.89,-0.646 -0.665,0.089 -1.329,0.179 -1.994,0.268 -1.271,0.356 -2.374,0.999 -3.31,1.929 -0.391,0.506 -0.782,1.012 -1.173,1.518 -0.678,1.17 -1.02,2.432 -1.024,3.786 z"
   id="path9" />

								</g>

							</g>

							<g
   id="XMLID_3865_">
								<g
   id="g10">
									<path
   style="fill:#17265c"
   d="m 480.001,136.833 c -0.035,-0.913 -0.456,-1.781 -1.164,-2.363 -0.751,-0.617 -1.671,-0.905 -2.634,-0.962 -1.501,-0.089 -3.31,0.698 -3.642,2.302 -0.15,0.723 0.431,1.303 1.153,1.153 0.113,-0.023 0.12,-0.025 0.022,-0.006 0.06,-0.003 0.121,-0.003 0.181,0.001 -0.161,-0.006 0.057,0.012 0.108,0.027 0.016,0.005 0.261,0.106 0.118,0.036 0.097,0.048 0.191,0.103 0.28,0.165 0.053,0.037 0.051,0.035 -0.005,-0.004 0.047,0.041 0.093,0.083 0.137,0.128 0.022,0.022 0.185,0.221 0.094,0.096 0.042,0.057 0.073,0.123 0.115,0.18 0.075,0.101 -0.016,0.158 -0.029,-0.085 0.003,0.063 0.051,0.141 0.068,0.204 0.023,0.082 0.023,0.206 0.06,0.281 -0.03,-0.062 -0.023,-0.252 -0.012,-0.072 0.003,0.046 0.007,0.092 0.009,0.139 0.005,0.113 0.004,0.227 -0.004,0.34 0,0.007 -0.01,0.15 -0.014,0.15 0.003,0 0.045,-0.256 -0.004,-0.021 -0.023,0.112 -0.057,0.221 -0.092,0.33 -0.055,0.175 0.021,0.045 0.014,-0.024 0.005,0.046 -0.078,0.155 -0.101,0.195 -0.028,0.048 -0.062,0.093 -0.089,0.142 -0.091,0.158 0.142,-0.137 0.007,-0.008 -0.102,0.097 -0.196,0.197 -0.301,0.291 0.183,-0.161 0.031,-0.03 -0.018,0.001 -0.057,0.036 -0.115,0.069 -0.174,0.1 -0.041,0.021 -0.083,0.042 -0.125,0.061 0.115,-0.047 0.123,-0.051 0.023,-0.012 -0.073,0.023 -0.144,0.05 -0.218,0.071 -0.078,0.022 -0.156,0.042 -0.236,0.059 -0.035,0.008 -0.375,0.058 -0.184,0.035 -0.485,0.057 -0.962,0.39 -0.938,0.938 0.021,0.459 0.416,0.999 0.938,0.938 0.827,-0.097 1.575,-0.321 2.232,-0.846 0.482,-0.386 0.817,-0.932 1.003,-1.517 0.285,-0.9 0.227,-2.068 -0.338,-2.852 -0.701,-0.974 -1.828,-1.514 -3.025,-1.267 0.384,0.384 0.769,0.769 1.153,1.153 0.013,-0.061 0.048,-0.135 0.049,-0.194 10e-4,-0.098 -0.061,0.086 -0.007,0.007 0.036,-0.054 0.215,-0.302 0.087,-0.163 0.044,-0.048 0.089,-0.094 0.135,-0.14 0.013,-0.014 0.14,-0.121 0.055,-0.054 -0.096,0.076 0.081,-0.052 0.101,-0.065 0.046,-0.029 0.093,-0.056 0.141,-0.081 -0.002,0.001 0.217,-0.105 0.111,-0.059 -0.096,0.042 0.064,-0.023 0.082,-0.029 0.119,-0.042 0.241,-0.076 0.364,-0.104 0.069,-0.016 0.138,-0.026 0.207,-0.04 0.146,-0.028 -0.216,0.011 0.043,-0.001 0.125,-0.006 0.248,-0.011 0.373,-0.007 0.515,0.017 1.01,0.138 1.473,0.477 0.134,0.098 -0.077,-0.073 0.036,0.033 0.058,0.054 0.112,0.112 0.169,0.166 0.029,0.027 0.096,0.108 0.035,0.03 0.048,0.062 0.09,0.13 0.13,0.198 0.032,0.054 0.062,0.109 0.09,0.166 0.028,0.059 0.028,0.056 -0.003,-0.008 0.01,0.03 0.02,0.059 0.03,0.089 0.015,0.061 0.034,0.12 0.048,0.181 0.061,0.266 -0.002,-0.15 0.009,0.123 0.019,0.49 0.418,0.961 0.938,0.938 0.491,-0.024 0.956,-0.415 0.936,-0.94 z"
   id="path10" />

								</g>

							</g>

						</g>

					</g>

					<g
   id="XMLID_3857_">
						
							<line
   style="fill:none;stroke:#e9caac;stroke-width:13.8633;stroke-linecap:round;stroke-miterlimit:10"
   x1="450.241"
   y1="153.377"
   x2="450.241"
   y2="164.14101"
   id="line10" />

						
							<line
   style="opacity:0.2;fill:none;stroke:#e9caac;stroke-width:13.8633;stroke-linecap:round;stroke-miterlimit:10"
   x1="450.241"
   y1="153.377"
   x2="450.241"
   y2="164.14101"
   id="line11" />

					</g>

					<g
   id="XMLID_3852_">
						<path
   style="fill:#e9caac"
   d="m 450.241,158.855 v 0 c -12.59,0 -22.797,-10.206 -22.797,-22.797 v -13.76 c 0,-12.59 10.206,-22.797 22.797,-22.797 v 0 c 12.59,0 22.797,10.206 22.797,22.797 v 13.76 c 0,12.59 -10.206,22.797 -22.797,22.797 z"
   id="path11" />

					</g>

					<g
   id="XMLID_3755_">
						<g
   id="XMLID_3831_">
							<g
   id="XMLID_3845_">
								<g
   id="g12">
									<path
   style="fill:#17265c"
   d="m 449.144,135.184 c 0.791,2.267 0.75,4.807 -0.241,7.01 -0.208,0.462 -0.133,1.008 0.336,1.283 0.401,0.235 1.074,0.128 1.283,-0.336 1.195,-2.658 1.396,-5.689 0.43,-8.455 -0.167,-0.478 -0.642,-0.795 -1.153,-0.655 -0.464,0.127 -0.823,0.673 -0.655,1.153 z"
   id="path12" />

								</g>

							</g>

							<g
   id="XMLID_3832_">
								<g
   id="g13">
									<path
   style="fill:#17265c"
   d="m 450.713,142.697 c -0.092,-1.933 -2.343,-3.132 -4.017,-2.177 -1.547,0.883 -1.96,3.086 -0.923,4.506 0.592,0.809 1.487,1.407 2.491,1.549 0.261,0.037 0.486,0.044 0.722,-0.094 0.195,-0.114 0.38,-0.337 0.431,-0.56 0.101,-0.443 -0.135,-1.08 -0.655,-1.153 -0.137,-0.019 -0.272,-0.046 -0.405,-0.084 -0.072,-0.02 -0.142,-0.045 -0.213,-0.069 -0.025,-0.008 -0.131,-0.039 -0.007,0 0.139,0.044 -0.032,-0.016 -0.063,-0.032 -0.124,-0.061 -0.244,-0.131 -0.358,-0.209 -0.179,-0.122 0.083,0.08 -0.038,-0.026 -0.056,-0.049 -0.111,-0.097 -0.164,-0.149 -0.053,-0.052 -0.101,-0.107 -0.151,-0.161 -0.111,-0.121 0.104,0.155 -0.026,-0.035 -0.036,-0.052 -0.069,-0.105 -0.101,-0.159 -0.019,-0.033 -0.131,-0.271 -0.079,-0.141 0.055,0.137 -0.031,-0.096 -0.04,-0.125 -0.017,-0.058 -0.028,-0.117 -0.045,-0.175 -0.045,-0.159 0.006,0.201 -0.003,-0.013 -0.004,-0.079 -0.008,-0.156 -0.005,-0.235 10e-4,-0.04 0.026,-0.235 0,-0.081 -0.028,0.165 0.015,-0.07 0.024,-0.108 0.013,-0.057 0.029,-0.115 0.046,-0.171 0.012,-0.038 0.026,-0.074 0.038,-0.112 0.044,-0.137 -0.005,0.056 -0.027,0.061 0.028,-0.006 0.175,-0.313 0.203,-0.356 0.089,-0.14 -0.119,0.125 -0.003,0.007 0.054,-0.055 0.105,-0.113 0.162,-0.165 0.021,-0.019 0.045,-0.037 0.065,-0.057 0.069,-0.068 -0.069,0.062 -0.075,0.059 0.009,0.005 0.151,-0.096 0.171,-0.107 0.025,-0.014 0.052,-0.026 0.077,-0.04 0.148,-0.081 -0.053,0.035 -0.063,0.026 0.007,0.006 0.206,-0.059 0.222,-0.064 0.16,-0.044 -0.188,0.002 -0.023,0.004 0.067,0.001 0.133,-10e-4 0.2,0.001 0.021,0.001 0.066,0.014 0.086,0.007 -0.009,0.003 -0.195,-0.043 -0.107,-0.012 0.071,0.025 0.15,0.034 0.223,0.057 0.028,0.009 0.054,0.019 0.082,0.028 0.177,0.057 -0.123,-0.074 -0.039,-0.015 0.06,0.043 0.137,0.076 0.2,0.113 0.008,0.005 0.064,0.051 0.071,0.048 -0.02,0.007 -0.158,-0.138 -0.054,-0.041 0.055,0.052 0.108,0.106 0.163,0.158 0.023,0.022 0.075,0.102 -0.001,-0.008 -0.088,-0.128 0.007,0.013 0.026,0.041 0.028,0.043 0.069,0.17 0.107,0.196 -0.012,-0.008 -0.056,-0.182 -0.043,-0.094 0.005,0.034 0.022,0.074 0.032,0.107 0.013,0.04 0.023,0.163 0.011,0.013 -0.014,-0.172 -0.001,0.023 0,0.046 0.023,0.489 0.415,0.961 0.938,0.938 0.487,-0.022 0.962,-0.413 0.937,-0.937 z"
   id="path13" />

								</g>

							</g>

						</g>

						<g
   id="XMLID_3816_">
							<g
   id="XMLID_3824_">
								<g
   id="g14">
									<path
   style="fill:#17265c"
   d="m 455.815,150.409 c -0.584,0.049 -1.038,0.011 -1.589,-0.232 -0.003,-0.002 -0.201,-0.106 -0.272,-0.146 -0.064,-0.037 -0.125,-0.077 -0.188,-0.116 -0.012,-0.008 -0.138,-0.098 -0.065,-0.039 -0.088,-0.07 -0.185,-0.126 -0.182,-0.194 -0.001,0.031 0.044,0.069 0.037,0.111 -0.005,0.026 -0.051,0.224 -0.026,0.105 0.024,-0.118 -0.055,0.079 0.011,-0.023 0.064,-0.098 -0.077,0.04 0.021,-0.028 0.013,-0.009 0.161,-0.1 0.094,-0.059 -0.084,0.05 0.14,-0.029 0.029,-0.014 -0.091,0.012 0.096,-0.002 0.114,-0.001 0.165,0.008 -0.076,-0.023 0.083,0.012 0.119,0.026 0.233,0.07 0.303,0.103 0.593,0.284 1.13,0.722 1.672,1.091 0.305,0.208 0.768,0.144 1.041,-0.073 0.316,-0.251 0.4,-0.597 0.336,-0.986 0.022,0.135 -0.01,-0.157 -0.01,-0.158 -0.003,-0.085 -10e-4,-0.171 0.003,-0.256 0.002,-0.041 0.03,-0.227 0.008,-0.107 0.018,-0.101 0.042,-0.201 0.071,-0.299 0.068,-0.233 0.215,-0.52 0.375,-0.697 0.435,-0.481 0.965,-0.679 1.581,-0.663 -0.27,-0.155 -0.54,-0.31 -0.81,-0.464 0.087,0.159 0.022,-0.017 0.068,0.143 0,10e-4 0.067,0.291 0.046,0.141 0.027,0.191 0.008,0.388 -0.008,0.456 -0.081,0.356 -0.176,0.6 -0.409,0.891 -0.197,0.247 -0.546,0.557 -0.783,0.728 -0.18,0.13 -0.366,0.253 -0.553,0.372 -0.075,0.048 -0.171,0.087 -0.235,0.147 -0.078,0.044 -0.061,0.042 0.051,-0.007 -0.282,0.064 -0.092,0.129 0.568,0.193 0.08,0.138 0.161,0.276 0.241,0.414 -0.006,-0.019 -0.011,-0.038 -0.017,-0.056 -0.146,-0.485 -0.657,-0.791 -1.153,-0.655 -0.481,0.132 -0.801,0.667 -0.655,1.153 0.2,0.664 0.868,0.95 1.514,0.759 0.457,-0.135 0.896,-0.486 1.275,-0.766 0.86,-0.637 1.612,-1.421 1.915,-2.475 0.285,-0.991 0.168,-2.867 -1.21,-2.852 -1.021,0.012 -2.065,0.453 -2.753,1.214 -0.836,0.924 -1.13,2.126 -0.929,3.341 0.459,-0.353 0.918,-0.706 1.377,-1.059 -0.764,-0.522 -1.552,-1.195 -2.477,-1.397 -1.009,-0.22 -2.12,0.22 -2.517,1.217 -0.432,1.081 0.348,1.994 1.247,2.496 0.832,0.464 1.808,0.688 2.758,0.607 0.505,-0.043 0.938,-0.4 0.938,-0.938 0.002,-0.47 -0.428,-0.977 -0.936,-0.934 z"
   id="path14" />

								</g>

							</g>

							<g
   id="XMLID_3817_">
								<g
   id="g15">
									<path
   style="fill:#17265c"
   d="m 453.082,150.169 c 0.232,0.539 0.691,1.005 1.211,1.273 0.436,0.224 1.038,0.128 1.283,-0.336 0.255,-0.483 0.091,-0.978 -0.336,-1.283 -0.305,-0.217 -0.634,-0.369 -0.982,-0.505 -0.458,-0.179 -1.049,0.196 -1.153,0.655 -0.124,0.545 0.167,0.954 0.655,1.153 1.913,0.782 4.428,-0.241 5.252,-2.136 -0.571,-0.241 -1.142,-0.482 -1.714,-0.723 -0.01,0.032 -0.02,0.063 -0.032,0.094 -0.025,0.066 -0.014,0.042 0.033,-0.072 -0.002,0.045 -0.053,0.11 -0.073,0.147 -0.026,0.048 -0.054,0.096 -0.083,0.142 -0.018,0.028 -0.036,0.055 -0.055,0.082 -0.04,0.056 -0.024,0.037 0.048,-0.058 -0.028,0.081 -0.163,0.182 -0.225,0.239 -0.024,0.022 -0.049,0.044 -0.074,0.065 -0.053,0.044 -0.033,0.029 0.06,-0.045 -0.023,0.043 -0.126,0.085 -0.165,0.108 0.379,0.491 0.757,0.982 1.136,1.473 0.418,-0.476 0.72,-0.997 0.922,-1.598 0.156,-0.465 -0.18,-1.045 -0.655,-1.153 -0.518,-0.118 -0.986,0.157 -1.153,0.655 -0.015,0.046 -0.032,0.091 -0.048,0.137 -0.045,0.129 0.02,0.013 0.012,-0.023 0.012,0.055 -0.123,0.246 -0.148,0.29 -0.048,0.084 -0.1,0.165 -0.155,0.244 -0.013,0.019 -0.112,0.142 -0.035,0.05 0.087,-0.104 -0.063,0.069 -0.066,0.072 -0.311,0.354 -0.37,0.847 -0.073,1.231 0.277,0.359 0.809,0.489 1.21,0.242 0.688,-0.424 1.176,-1.057 1.427,-1.823 0.146,-0.444 -0.134,-0.934 -0.543,-1.106 -0.388,-0.163 -0.984,-0.045 -1.171,0.384 -0.08,0.184 -0.177,0.353 -0.288,0.52 -0.089,0.135 -0.027,-0.004 0.028,-0.031 -0.033,0.016 -0.067,0.08 -0.091,0.108 -0.068,0.078 -0.141,0.152 -0.216,0.223 -0.028,0.026 -0.056,0.051 -0.084,0.076 -0.086,0.075 -0.151,0.064 0.014,-0.004 -0.08,0.033 -0.159,0.115 -0.233,0.162 -0.08,0.051 -0.162,0.098 -0.246,0.142 -0.05,0.027 -0.102,0.05 -0.153,0.076 -0.149,0.075 0.15,-0.049 0.041,-0.016 -0.182,0.056 -0.356,0.126 -0.543,0.167 -0.046,0.01 -0.093,0.018 -0.139,0.028 -0.199,0.043 0.228,-0.018 0.025,-0.002 -0.094,0.008 -0.188,0.016 -0.282,0.018 -0.094,0.002 -0.188,0 -0.282,-0.007 -0.047,-0.003 -0.094,-0.011 -0.141,-0.013 -0.117,-0.005 0.219,0.042 0.054,0.005 -0.205,-0.046 -0.402,-0.097 -0.597,-0.177 -0.166,0.603 -0.332,1.206 -0.499,1.808 0.223,0.087 -0.171,-0.093 0.041,0.019 0.053,0.028 0.107,0.054 0.16,0.083 0.116,0.064 0.226,0.136 0.334,0.213 0.315,-0.54 0.631,-1.08 0.946,-1.619 -0.039,-0.02 -0.077,-0.04 -0.115,-0.062 -0.018,-0.011 -0.171,-0.129 -0.068,-0.036 0.098,0.089 -0.013,-0.013 -0.032,-0.03 -0.041,-0.036 -0.08,-0.074 -0.117,-0.114 -0.02,-0.022 -0.059,-0.089 -0.086,-0.099 0.046,0.018 0.094,0.144 0.032,0.031 -0.053,-0.097 -0.107,-0.188 -0.151,-0.29 -0.195,-0.452 -0.893,-0.588 -1.283,-0.336 -0.473,0.302 -0.548,0.798 -0.339,1.282 z"
   id="path15" />

								</g>

							</g>

						</g>

						<g
   id="XMLID_3764_">
							<g
   id="XMLID_3813_">
								<path
   style="opacity:0.4;fill:#e9caac"
   d="m 442.762,143.672 c -0.317,1.418 -2.971,2.117 -5.926,1.562 -2.956,-0.555 -5.094,-2.154 -4.777,-3.571 0.317,-1.418 2.971,-2.117 5.926,-1.562 2.956,0.555 5.094,2.154 4.777,3.571 z"
   id="path16" />

							</g>

							<path
   id="XMLID_3812_"
   style="fill:#17265c"
   d="m 438.705,141.436 c -1.072,0 -1.941,-1.173 -1.941,-2.619 0,-1.447 0.869,-2.619 1.941,-2.619 1.072,0 1.941,1.173 1.941,2.619 0,1.446 -0.869,2.619 -1.941,2.619 z" />

							<g
   id="XMLID_3805_">
								<g
   id="XMLID_2191_">
									<path
   id="XMLID_2196_"
   style="fill:#71b57a"
   d="m 437.888,133.647 c 0.136,-0.965 1.841,-1.24 2.375,-0.448 0.741,1.1 2.536,0.064 1.788,-1.045 -0.746,-1.107 -1.969,-1.622 -3.287,-1.436 -1.261,0.178 -2.681,1.016 -2.873,2.379 -0.079,0.558 0.137,1.105 0.723,1.274 0.484,0.138 1.196,-0.171 1.274,-0.724 z" />

								</g>

							</g>

							<g
   id="XMLID_3801_">
								<path
   style="opacity:0.4;fill:#e9caac"
   d="m 457.721,143.672 c 0.317,1.418 2.971,2.117 5.926,1.562 2.956,-0.555 5.095,-2.154 4.777,-3.571 -0.317,-1.418 -2.971,-2.117 -5.926,-1.562 -2.956,0.555 -5.095,2.154 -4.777,3.571 z"
   id="path17" />

							</g>

							<path
   id="XMLID_3800_"
   style="fill:#17265c"
   d="m 461.778,141.436 c 1.072,0 1.941,-1.173 1.941,-2.619 0,-1.447 -0.869,-2.619 -1.941,-2.619 -1.072,0 -1.941,1.173 -1.941,2.619 0,1.446 0.869,2.619 1.941,2.619 z" />

							<g
   id="XMLID_3767_">
								<g
   id="XMLID_2184_">
									<path
   id="XMLID_2190_"
   style="fill:#71b57a"
   d="m 464.593,133.096 c -0.192,-1.364 -1.613,-2.201 -2.873,-2.379 -1.316,-0.186 -2.543,0.33 -3.287,1.436 -0.747,1.109 1.047,2.146 1.788,1.045 0.534,-0.793 2.239,-0.518 2.375,0.448 0.078,0.558 0.784,0.853 1.274,0.723 0.597,-0.156 0.8,-0.721 0.723,-1.273 z" />

								</g>

							</g>

						</g>

					</g>

					<g
   id="XMLID_173_">
						<g
   id="XMLID_175_">
							<g
   id="XMLID_2837_">
								<g
   id="XMLID_2839_">
									<path
   id="XMLID_2186_"
   style="fill:#71b57a"
   d="m 473.996,128.186 v 0.066 c -14.992,-0.314 -27.055,-12.543 -27.055,-27.611 h 1.31 c 14.377,0.979 25.745,12.92 25.745,27.545 z" />

								</g>

								<path
   id="XMLID_2838_"
   style="fill:#71b57a"
   d="m 435.215,100.642 h 12.229 v 22.701 c -9.444,0 -17.536,-5.769 -20.957,-13.973 z" />

							</g>

						</g>

						<path
   id="XMLID_174_"
   style="fill:#71b57a"
   d="m 473.996,128.186 c 0,0 -13.152,-13.036 -13.528,-13.811 -0.376,-0.775 -13.024,-13.733 -13.024,-13.733 l -5.083,3.43 -1.715,-4.57 9.808,-2.265 14.068,2.265 5.826,8.298 4.806,8.492 z" />

					</g>

				</g>

				<path
   id="XMLID_21_"
   style="fill:#e9caac"
   d="m 478.356,227.92 c -2.124,-4.776 -2.788,-9.545 -2.56,-14.955 l 4.691,-19.006 3.557,-14.413 c 1.287,-6.458 -2.718,-13.168 -9.447,-14.55 -6.022,-1.236 -24.356,-3.541 -24.356,-3.541 0,0 -18.334,2.305 -24.356,3.541 -6.729,1.382 -10.734,8.092 -9.447,14.55 l 3.557,14.413 5.022,20.347 c 0.063,4.377 -0.514,8.358 -2.052,12.305 -0.28,0.391 -0.544,0.789 -0.771,1.189 -3.887,6.85 -11.134,17.659 -11.134,36.922 0,24.656 39.18,0 39.18,0 0,0 39.18,24.656 39.18,0 0.002,-19.155 -7.162,-29.947 -11.064,-36.802 z" />

				<g
   id="XMLID_4135_">
					<path
   id="XMLID_4152_"
   style="fill:none;stroke:#e9caac;stroke-width:11.4716;stroke-miterlimit:10"
   d="m 432.81,415.186 c 0.344,-0.971 0.24,-1.998 0.132,-2.984 -0.52,-4.744 -0.59,-14.487 -1.11,-19.231" />

					<path
   id="XMLID_4151_"
   style="fill:#e9caac"
   d="m 440.736,419.798 c -0.254,-3.132 -1.417,-6.184 -3.313,-8.69 l -8.53,1.29 c -5.122,1.039 -10.312,2.1 -14.991,4.43 -3.247,1.616 -6.273,3.599 -6.273,6.86 h 33.024 c 0.135,-1.294 0.188,-2.592 0.083,-3.89 z" />

					<g
   id="XMLID_4144_">
						<g
   id="XMLID_2165_">
							<path
   id="XMLID_2169_"
   style="fill:#e06f6e"
   d="m 414.628,423.17 c 1.034,-2.077 0.419,-8.181 4.038,-8.335 3.554,-0.151 3.573,5.935 4.345,8.031 0.175,0.475 0.894,0.547 1.04,0 0.843,-3.163 -1.135,-10.104 -5.385,-9.835 -1.659,0.105 -2.888,1.402 -3.596,2.806 -0.97,1.924 -1.842,5.325 -0.847,7.332 0.076,0.154 0.328,0.154 0.405,0.001 z" />

						</g>

					</g>

					<g
   id="XMLID_4137_">
						<g
   id="g18">
							<path
   style="fill:#e9caac"
   d="m 414.823,418.15 c 0.528,-0.247 1.029,-0.4 1.593,-0.527 -0.079,-0.189 -0.159,-0.377 -0.238,-0.566 -0.773,0.389 -1.479,0.931 -2.244,1.349 0.06,0.102 0.119,0.204 0.179,0.306 0.864,-0.509 1.76,-0.857 2.74,-1.058 0.707,-0.145 0.409,-1.231 -0.299,-1.083 -1.251,0.262 -2.487,0.931 -3.632,1.487 0.201,0.344 0.402,0.688 0.603,1.031 1.104,-0.671 2.271,-1.164 3.494,-1.577 0.804,-0.272 0.484,-1.468 -0.352,-1.276 -1.2,0.276 -2.104,1.098 -3.251,1.493 0.148,0.352 0.297,0.704 0.445,1.056 0.878,-0.558 1.794,-1.01 2.776,-1.354 0.779,-0.272 0.455,-1.506 -0.344,-1.248 -0.976,0.315 -1.832,0.882 -2.74,1.344 0.168,0.287 0.336,0.574 0.504,0.862 0.993,-0.637 2.026,-1.075 3.165,-1.375 -0.111,-0.404 -0.223,-0.808 -0.334,-1.212 -1.144,0.302 -2.163,0.758 -3.193,1.347 0.169,0.29 0.339,0.579 0.508,0.869 0.89,-0.486 1.924,-0.745 2.904,-0.98 0.853,-0.205 0.489,-1.484 -0.361,-1.308 -0.914,0.189 -1.703,0.546 -2.523,0.989 -0.66,0.357 -0.179,1.255 0.481,1.14 -0.155,-0.077 -0.311,-0.154 -0.466,-0.231 0.051,-0.191 0.101,-0.383 0.152,-0.574 0.155,0 0.31,0 0.464,0 -0.081,0.307 -0.162,0.614 -0.243,0.921 0.493,-0.129 0.977,-0.208 1.487,-0.236 -0.2,-0.2 -0.401,-0.401 -0.601,-0.601 0.006,-0.139 -0.895,0.394 -0.98,0.445 -0.374,0.222 -0.748,0.443 -1.121,0.665 -0.529,0.313 -0.344,1.289 0.333,1.228 0.697,-0.063 1.359,-0.207 2.034,-0.394 -0.178,-0.422 -0.355,-0.843 -0.533,-1.265 -0.577,0.285 -1.154,0.57 -1.73,0.855 -0.721,0.356 -0.213,1.483 0.539,1.279 0.793,-0.216 1.587,-0.431 2.38,-0.647 -0.126,-0.456 -0.252,-0.913 -0.377,-1.369 -1.006,0.395 -2.185,0.68 -3.023,1.383 -0.398,0.333 -0.205,1.137 0.322,1.219 0.715,0.112 1.441,-0.278 2.114,-0.134 -0.06,-0.456 -0.119,-0.911 -0.179,-1.367 -0.71,0.432 -1.466,0.643 -2.265,0.847 -0.88,0.225 -0.63,1.449 0.205,1.513 0.686,0.053 1.365,0.063 2.052,0.032 -0.253,-0.332 -0.506,-0.665 -0.76,-0.997 -0.009,0.041 -0.017,0.082 -0.026,0.123 0.121,-0.157 0.242,-0.314 0.363,-0.471 -0.562,0.286 -1.453,0.323 -2.067,0.457 -0.912,0.199 -0.677,1.571 0.215,1.59 0.757,0.016 1.515,0.033 2.272,0.049 0.7,0.015 1.122,-0.932 0.587,-1.417 -0.047,-0.043 -0.095,-0.086 -0.142,-0.129 -0.794,-0.721 -1.981,0.472 -1.177,1.177 0.048,0.042 0.096,0.084 0.145,0.127 0.196,-0.473 0.391,-0.945 0.587,-1.417 -0.757,-0.003 -1.515,-0.005 -2.272,-0.008 0.072,0.53 0.143,1.06 0.215,1.59 0.798,-0.19 2.622,-0.224 2.82,-1.251 0.09,-0.469 -0.212,-1.032 -0.76,-0.997 -0.686,0.043 -1.366,0.044 -2.052,0.003 0.068,0.504 0.137,1.009 0.205,1.513 0.915,-0.251 1.804,-0.531 2.61,-1.041 0.505,-0.319 0.485,-1.236 -0.179,-1.367 -0.753,-0.148 -1.411,0.269 -2.124,0.17 0.107,0.406 0.215,0.813 0.322,1.219 0.587,-0.508 1.651,-0.757 2.369,-1.045 0.825,-0.331 0.526,-1.622 -0.377,-1.369 -0.792,0.222 -1.583,0.444 -2.375,0.666 0.18,0.426 0.359,0.853 0.539,1.279 0.574,-0.289 1.148,-0.579 1.722,-0.868 0.7,-0.353 0.214,-1.494 -0.533,-1.265 -0.55,0.169 -1.093,0.338 -1.666,0.411 0.111,0.409 0.222,0.819 0.333,1.228 0.676,-0.435 1.387,-0.841 2.038,-1.311 0.373,-0.269 0.61,-0.449 0.601,-0.937 -0.005,-0.297 -0.272,-0.64 -0.601,-0.601 -0.612,0.071 -1.192,0.185 -1.78,0.376 -0.312,0.101 -0.545,0.504 -0.329,0.809 1.001,1.418 2.191,-1.152 0.549,-1.088 0.055,0.408 0.111,0.817 0.166,1.225 0.792,-0.299 1.605,-0.537 2.403,-0.821 -0.12,-0.436 -0.241,-0.872 -0.361,-1.308 -1.056,0.406 -2.026,0.951 -3.051,1.42 -0.52,0.238 -0.151,1.086 0.388,0.919 1.061,-0.328 2.105,-0.655 3.139,-1.054 0.744,-0.288 0.428,-1.497 -0.334,-1.212 -1.18,0.441 -2.291,1.02 -3.335,1.725 -0.529,0.357 -0.067,1.17 0.504,0.862 0.823,-0.444 1.712,-0.636 2.581,-0.958 -0.115,-0.416 -0.229,-0.832 -0.344,-1.248 -1.071,0.426 -2.069,0.945 -3.015,1.604 -0.506,0.353 -0.217,1.268 0.445,1.056 1.133,-0.363 2.151,-1.005 3.296,-1.33 -0.117,-0.426 -0.235,-0.851 -0.352,-1.276 -1.292,0.523 -2.523,1.155 -3.745,1.822 -0.692,0.378 -0.083,1.327 0.603,1.031 1.139,-0.491 2.389,-0.871 3.462,-1.492 -0.189,-0.323 -0.378,-0.647 -0.567,-0.97 -0.838,0.581 -1.667,1.171 -2.486,1.779 -0.18,0.134 -0.028,0.414 0.179,0.306 0.777,-0.406 1.618,-0.69 2.378,-1.12 0.347,-0.196 0.032,-0.737 -0.312,-0.535 -0.496,0.292 -0.97,0.617 -1.438,0.951 -0.09,0.057 -0.017,0.182 0.079,0.138 z"
   id="path18" />

						</g>

					</g>

					<rect
   id="XMLID_4136_"
   x="407.629"
   y="421.76001"
   style="fill:#e06f6e"
   width="33.162998"
   height="1.928" />

				</g>

				<g
   id="XMLID_3956_">
					<path
   id="XMLID_4134_"
   style="fill:none;stroke:#e9caac;stroke-width:11.4716;stroke-miterlimit:10"
   d="m 474.65,415.186 c 0.382,-0.971 0.318,-1.998 0.248,-2.984 -0.336,-4.744 -0.028,-14.487 -0.365,-19.231" />

					<path
   id="XMLID_4133_"
   style="fill:#e9caac"
   d="m 460.665,417.667 c 2.855,-2.52 6.346,-4.184 9.799,-5.789 l 9.369,-0.148 c 0.582,0.622 0.963,1.402 1.285,2.191 1.254,3.075 1.693,6.469 1.317,9.768 h -24.296 c 0,-2.095 0.664,-4.378 2.526,-6.022 z" />

					<g
   id="XMLID_4126_">
						<g
   id="XMLID_2153_">
							<path
   id="XMLID_2157_"
   style="fill:#e06f6e"
   d="m 472.738,423.114 c 1.596,-3.834 -1.417,-10.637 -5.976,-10.776 -4.821,-0.147 -7.631,6.485 -6.809,10.503 0.113,0.554 0.883,0.47 1.04,0 1.008,-3.031 1.388,-8.851 5.931,-8.697 4.599,0.156 4.165,6.134 5.386,9.026 0.089,0.211 0.362,0.103 0.428,-0.056 z" />

						</g>

					</g>

					<g
   id="XMLID_3929_">
						<g
   id="g19">
							<path
   style="fill:#e9caac"
   d="m 464.494,415.803 c -0.614,0.247 -1.256,0.366 -1.831,0.702 -0.609,0.355 -1.146,0.842 -1.679,1.297 0.342,0.342 0.684,0.684 1.026,1.026 0.825,-0.911 1.712,-1.735 2.668,-2.508 -0.326,-0.326 -0.652,-0.652 -0.978,-0.978 -0.921,0.842 -1.885,1.617 -2.896,2.35 0.3,0.389 0.6,0.778 0.9,1.167 0.734,-0.602 1.475,-1.195 2.187,-1.823 -0.365,-0.365 -0.73,-0.73 -1.095,-1.095 -0.939,0.971 -2.173,1.61 -2.857,2.809 -0.508,0.89 0.839,1.674 1.371,0.801 0.264,-0.433 0.536,-0.784 1.046,-0.954 -0.215,-0.509 -0.429,-1.018 -0.644,-1.527 -0.747,0.551 -1.382,1.171 -1.974,1.887 -0.622,0.751 0.149,1.915 1.078,1.398 0.475,-0.264 0.948,-0.531 1.422,-0.797 -0.347,-0.45 -0.694,-0.899 -1.041,-1.349 -0.491,0.596 -1.153,0.83 -1.376,1.629 -0.159,0.569 0.427,1.306 1.05,1.05 0.317,-0.131 0.581,-0.246 0.882,-0.411 -0.276,-0.472 -0.552,-0.944 -0.827,-1.415 -0.515,0.313 -0.899,0.679 -1.186,1.214 -0.422,0.785 0.416,1.583 1.19,1.19 0.299,-0.152 0.591,-0.312 0.885,-0.472 0.836,-0.455 0.228,-1.593 -0.61,-1.447 -0.404,0.07 -0.737,0.198 -1.103,0.376 -0.781,0.379 -0.416,1.716 0.448,1.653 0.193,-0.001 0.385,-0.002 0.578,-0.003 -0.116,-0.439 -0.232,-0.878 -0.348,-1.318 -0.128,0.089 -0.272,0.132 -0.431,0.129 -0.865,0.15 -0.675,1.65 0.21,1.548 0.207,-0.044 0.416,-0.048 0.625,-0.012 -0.138,-0.511 -0.277,-1.022 -0.415,-1.533 -0.163,0.041 -0.325,0.082 -0.487,0.123 -1.158,-0.029 -1.118,1.67 0,1.773 0.25,-0.001 0.486,0.055 0.708,0.166 0,-0.592 0,-1.183 0,-1.774 -0.148,0.033 -0.297,0.065 -0.445,0.097 -1.178,-0.015 -1.175,1.793 0,1.828 0.404,0.012 0.558,-0.005 0.935,-0.151 0.875,-0.339 0.864,-1.431 0,-1.774 -0.514,-0.204 -0.9,-0.211 -1.433,-0.134 0.157,0.57 0.314,1.14 0.471,1.71 0.397,-0.098 0.734,-0.232 1.082,-0.444 0.684,-0.418 0.417,-1.543 -0.415,-1.533 -0.319,0.004 -0.525,0.031 -0.835,0.11 0.14,0.507 0.279,1.013 0.419,1.52 0.341,-0.108 0.643,-0.261 0.967,-0.411 0.506,-0.233 0.526,-1.135 0,-1.361 -0.373,-0.16 -0.547,-0.237 -0.949,-0.299 0.071,0.54 0.141,1.081 0.212,1.621 0.185,-0.166 0.395,-0.293 0.629,-0.381 -0.14,-0.509 -0.281,-1.018 -0.421,-1.527 -0.313,0.13 -0.621,0.233 -0.945,0.33 0.327,0.426 0.655,0.851 0.982,1.277 0.11,-0.268 0.281,-0.494 0.512,-0.676 0.824,-0.62 0.128,-1.925 -0.827,-1.415 -0.17,0.06 -0.339,0.12 -0.509,0.18 0.35,0.35 0.7,0.7 1.05,1.05 0.125,-0.312 0.713,-0.6 0.945,-0.868 0.636,-0.737 -0.151,-1.803 -1.041,-1.349 -0.485,0.247 -0.97,0.494 -1.453,0.744 0.359,0.466 0.719,0.932 1.078,1.398 0.524,-0.671 1.106,-1.253 1.728,-1.833 0.694,-0.647 -0.202,-1.805 -1.013,-1.312 -0.742,0.451 -1.328,0.921 -1.773,1.68 0.457,0.267 0.914,0.534 1.371,0.801 0.548,-1.13 1.709,-1.671 2.582,-2.516 0.73,-0.706 -0.34,-1.718 -1.095,-1.095 -0.731,0.602 -1.433,1.239 -2.143,1.867 -0.73,0.647 0.318,1.627 1.051,1.051 1.026,-0.806 2.01,-1.659 2.973,-2.539 0.669,-0.611 -0.3,-1.526 -0.978,-0.978 -0.951,0.769 -1.852,1.595 -2.717,2.46 -0.681,0.68 0.311,1.584 1.026,1.026 0.555,-0.432 1.169,-0.87 1.625,-1.414 0.385,-0.459 0.598,-1.031 0.926,-1.526 0.025,-0.04 -0.02,-0.105 -0.068,-0.086 z"
   id="path19" />

						</g>

					</g>

					
						<rect
   id="XMLID_3927_"
   x="458.13901"
   y="421.76001"
   transform="rotate(180,470.35215,422.72445)"
   style="fill:#e06f6e"
   width="24.427"
   height="1.928" />

				</g>

			</g>

			<g
   id="XMLID_3965_">
				<g
   id="g20">
					<path
   style="fill:#17265c"
   d="m 449.191,228.676 c 0.185,1.604 0.324,3.352 0.087,4.935 -0.031,0.21 0.191,0.481 0.413,0.318 0.789,-0.581 1.525,-1.434 1.718,-2.407 0.22,-1.111 0,-2.335 -0.602,-3.283 -0.42,-0.662 -1.721,-0.476 -1.616,0.437 z"
   id="path20" />

				</g>

			</g>

			<g
   id="XMLID_158_">
				<path
   id="XMLID_393_"
   style="fill:#f5db4a"
   d="m 494.749,305.128 c -0.915,-9.139 -1.637,-18.302 -2.562,-27.437 -20.737,4.49 -42.136,5.929 -63.28,4.164 -6.855,-0.572 -13.766,-1.502 -20.339,-3.45 -0.434,6.227 -0.633,12.475 -0.642,18.736 28.089,8.103 57.721,10.767 86.823,7.987 z" />

				<path
   id="XMLID_394_"
   style="fill:#e9994f"
   d="m 492.187,277.691 c -0.693,-6.84 -1.501,-13.665 -2.6,-20.453 -0.01,-0.061 -0.02,-0.121 -0.03,-0.182 -13.358,2.621 -27.118,3.635 -40.746,3.995 -12.699,0.335 -25.716,0.082 -37.856,-3.333 -1.126,6.862 -1.904,13.761 -2.387,20.688 6.574,1.948 13.484,2.878 20.339,3.45 21.145,1.764 42.544,0.325 63.28,-4.165 z" />

				<path
   id="XMLID_395_"
   style="fill:#e06f6e"
   d="m 448.811,261.051 c 13.629,-0.359 27.388,-1.374 40.746,-3.995 -1.066,-6.547 -2.47,-13.175 -5.416,-19.072 -22.232,4.087 -45.289,3.298 -67.63,-0.422 -1.601,3.332 -2.943,6.83 -3.698,10.317 -0.708,3.269 -1.319,6.549 -1.858,9.838 12.139,3.416 25.157,3.669 37.856,3.334 z" />

				<path
   id="XMLID_397_"
   style="fill:#5971c1"
   d="m 411.733,317.462 c -1.093,-0.304 -2.186,-0.618 -3.278,-0.94 0.378,7.047 0.938,14.1 1.618,21.146 9.763,4.729 20.607,7.517 31.268,9.887 20.928,4.652 42.45,8.176 63.817,8.301 -3.095,-8.691 -5.458,-17.813 -7.131,-26.577 -29.121,-0.051 -58.238,-4.008 -86.294,-11.817 z" />

				<path
   id="XMLID_399_"
   style="fill:#bb7bea"
   d="m 410.074,337.667 c 0.664,6.874 1.439,13.743 2.272,20.594 0.507,0.315 1.003,0.648 1.518,0.951 3.399,2 6.951,3.73 10.566,5.307 28.767,12.553 60.616,15.205 92.179,15.218 -4.545,-6.999 -8.362,-15.211 -11.45,-23.882 -21.368,-0.125 -42.889,-3.649 -63.817,-8.301 -10.662,-2.37 -21.506,-5.158 -31.268,-9.887 z" />

				<path
   id="XMLID_450_"
   style="fill:#71b57a"
   d="m 498.028,329.278 c -0.656,-3.438 -1.217,-6.826 -1.659,-10.103 -0.63,-4.671 -1.149,-9.357 -1.619,-14.047 -29.102,2.781 -58.734,0.116 -86.823,-7.987 -0.009,6.45 0.182,12.913 0.53,19.381 1.091,0.322 2.184,0.636 3.278,0.94 28.054,7.809 57.171,11.766 86.293,11.816 z" />

			</g>

			<g
   id="XMLID_30_">
				<g
   id="XMLID_32_">
					<path
   id="XMLID_2094_"
   style="fill:#5971c1"
   d="m 433.64,203.868 c -1.564,0 -3,-0.101 -4.391,-0.308 -1.351,-0.202 -2.7,-0.532 -4.009,-0.981 -0.421,-0.144 -0.697,-0.55 -0.674,-0.995 0.397,-8.035 3.972,-15.853 9.808,-21.448 0.192,-0.185 0.441,-0.278 0.692,-0.278 0.207,0 0.414,0.064 0.591,0.194 1.432,1.052 2.828,2.45 4.269,4.275 3.718,4.708 6.425,10.336 7.829,16.275 0.112,0.474 -0.134,0.96 -0.582,1.15 -2.004,0.852 -4.202,1.238 -5.893,1.479 -3.083,0.441 -5.439,0.637 -7.64,0.637 z" />

				</g>

				<g
   id="XMLID_33_">
					<path
   id="XMLID_2065_"
   style="fill:#5971c1"
   d="m 465.606,203.868 c -2.201,0 -4.558,-0.196 -7.641,-0.637 -1.691,-0.241 -3.888,-0.628 -5.893,-1.479 -0.448,-0.191 -0.694,-0.676 -0.582,-1.15 1.404,-5.939 4.112,-11.567 7.83,-16.275 1.442,-1.826 2.838,-3.224 4.268,-4.275 0.177,-0.13 0.385,-0.194 0.591,-0.194 0.251,0 0.5,0.094 0.692,0.278 5.836,5.595 9.411,13.413 9.809,21.448 0.022,0.445 -0.253,0.851 -0.675,0.995 -1.31,0.449 -2.659,0.779 -4.009,0.981 -1.39,0.207 -2.826,0.308 -4.39,0.308 z" />

				</g>

				<g
   id="XMLID_34_">
					<g
   id="XMLID_2136_">
						<path
   id="XMLID_2141_"
   style="fill:#5971c1"
   d="m 433.871,163.428 c -1.023,10.704 0.675,22.322 2.296,32.919 0.02,0.13 0.239,0.1 0.23,-0.031 -0.719,-10.865 -0.558,-22.183 -2.121,-32.942 -0.036,-0.247 -0.385,-0.159 -0.405,0.054 z" />

					</g>

				</g>

				<g
   id="XMLID_64_">
					<g
   id="XMLID_2130_">
						<path
   id="XMLID_2135_"
   style="fill:#5971c1"
   d="m 464.342,163.305 c -0.795,10.962 -0.707,22.017 -1.435,33.002 -0.008,0.12 0.192,0.149 0.212,0.029 1.736,-10.735 2.919,-22.177 1.786,-33.03 -0.037,-0.358 -0.536,-0.367 -0.563,-0.001 z" />

					</g>

				</g>

				<g
   id="XMLID_72_">
					<g
   id="XMLID_2102_">
						<path
   id="XMLID_2129_"
   style="fill:#5971c1"
   d="m 443.902,201.334 c 5.258,1.612 11.644,1.231 16.893,-0.217 0.14,-0.039 0.116,-0.264 -0.035,-0.258 -5.634,0.215 -11.172,-0.133 -16.779,-0.114 -0.342,0.001 -0.402,0.49 -0.079,0.589 z" />

					</g>

				</g>

				<g
   id="XMLID_401_">
					<g
   id="XMLID_2096_">
						<path
   id="XMLID_2101_"
   style="fill:#5971c1"
   d="m 422.019,203.685 c 3.016,-0.871 5.831,-2.268 8.405,-4.05 0.126,-0.087 0.053,-0.326 -0.112,-0.266 -2.915,1.067 -5.82,2.19 -8.655,3.459 -0.489,0.22 -0.139,1.002 0.362,0.857 z" />

					</g>

				</g>

				<g
   id="XMLID_402_">
					<g
   id="XMLID_2090_">
						<path
   id="XMLID_2095_"
   style="fill:#5971c1"
   d="m 477.022,203.593 c -0.149,-0.535 -0.308,-0.531 -0.765,-0.815 -0.956,-0.594 -1.922,-1.165 -2.861,-1.788 -2.026,-1.346 -3.956,-2.815 -5.777,-4.426 -0.119,-0.106 -0.27,0.052 -0.172,0.172 2.364,2.92 5.252,5.598 8.675,7.227 0.174,0.083 0.397,0.12 0.568,0 0.085,-0.06 0.17,-0.119 0.255,-0.179 0.061,-0.044 0.098,-0.114 0.077,-0.191 z" />

					</g>

				</g>

			</g>

			<g
   id="XMLID_276_">
				<path
   style="fill:#e9caac"
   d="m 484.59,246.586 c 2.257,-0.801 4.378,-1.982 6.247,-3.48 0.21,-0.169 0.427,-0.354 0.518,-0.607 0.134,-0.371 -0.033,-0.777 -0.199,-1.135 -1.912,-4.126 -4.07,-8.138 -6.458,-12.008 -0.213,-0.345 -0.441,-0.702 -0.793,-0.904 -0.48,-0.275 -1.077,-0.199 -1.618,-0.085 -2.423,0.513 -6.691,2.188 -6.565,3.298 0.411,0.852 4.186,0.287 6.232,0.738 -2.064,1.303 -4.127,2.606 -6.191,3.909 -0.443,0.279 -0.947,0.695 -0.837,1.207 0.034,0.488 6.466,-1.294 8.333,-0.576 -2.431,1.586 -7.712,3.712 -7.464,4.583 0.56,0.568 5.591,-2.01 8.492,-1.777 -1.811,1.501 -3.622,3.003 -5.433,4.504 -0.167,0.139 -0.348,0.301 -0.365,0.518 -0.041,0.523 0.747,0.59 1.251,0.445 1.947,-0.557 3.894,-1.114 5.841,-1.671 0.026,0.409 -0.35,0.722 -0.707,0.923 -0.357,0.201 -2.261,1.538 -2.093,1.912 0.346,0.77 1.477,0.445 1.809,0.206"
   id="path21" />

				<g
   id="g22">
					<path
   style="fill:#e9caac"
   d="m 484.738,247.123 c 1.613,-0.586 3.164,-1.326 4.607,-2.258 1.025,-0.662 2.912,-1.603 2.561,-3.087 -0.183,-0.774 -0.654,-1.526 -0.997,-2.238 -0.419,-0.871 -0.85,-1.736 -1.291,-2.596 -0.882,-1.719 -1.808,-3.417 -2.776,-5.089 -0.456,-0.787 -0.921,-1.569 -1.395,-2.345 -0.339,-0.555 -0.675,-1.202 -1.26,-1.539 -1.098,-0.632 -2.66,-0.028 -3.764,0.322 -1.247,0.395 -2.506,0.869 -3.643,1.521 -0.613,0.351 -1.607,0.938 -1.615,1.763 -0.01,0.98 1.372,1.077 2.07,1.128 1.519,0.11 3.071,-0.065 4.573,0.236 -0.044,-0.339 -0.089,-0.679 -0.133,-1.018 -1.13,0.714 -2.26,1.427 -3.39,2.141 -1.035,0.654 -2.174,1.248 -3.137,2.006 -0.844,0.665 -1.208,2.125 0.215,2.088 1.231,-0.032 2.486,-0.37 3.7,-0.554 1.239,-0.188 2.825,-0.546 4.05,-0.123 -0.044,-0.339 -0.089,-0.679 -0.133,-1.018 -1.669,1.071 -3.492,1.881 -5.233,2.824 -0.664,0.36 -2.855,1.293 -2.488,2.388 0.379,1.129 2.665,0.077 3.32,-0.135 1.819,-0.59 3.766,-1.347 5.709,-1.233 -0.131,-0.317 -0.263,-0.634 -0.394,-0.951 -1.358,1.126 -2.717,2.252 -4.075,3.378 -0.643,0.533 -2.324,1.427 -1.789,2.495 0.475,0.949 1.777,0.55 2.547,0.33 1.718,-0.491 3.436,-0.983 5.154,-1.474 -0.235,-0.179 -0.47,-0.358 -0.705,-0.537 -0.049,0.392 -1.258,1.003 -1.56,1.24 -0.411,0.322 -1.068,0.764 -1.213,1.308 -0.387,1.457 1.833,1.46 2.62,0.975 0.609,-0.376 0.05,-1.341 -0.562,-0.962 -0.205,0.126 -0.391,0.14 -0.618,0.199 -0.266,0.07 -0.482,0.225 -0.205,-0.071 0.303,-0.323 0.671,-0.596 1.029,-0.854 0.724,-0.523 1.501,-0.853 1.624,-1.835 0.046,-0.365 -0.392,-0.627 -0.705,-0.537 -1.145,0.328 -2.291,0.655 -3.436,0.983 -0.573,0.164 -1.145,0.328 -1.718,0.492 -0.317,0.091 -0.627,0.191 -0.953,0.241 -0.089,-0.006 -0.179,-0.012 -0.268,-0.017 0.004,0.115 0.039,0.12 0.107,0.014 0.271,-0.41 0.926,-0.773 1.305,-1.087 0.453,-0.375 0.906,-0.751 1.358,-1.126 0.951,-0.788 1.902,-1.576 2.852,-2.365 0.4,-0.332 0.045,-0.925 -0.394,-0.951 -1.563,-0.092 -3.135,0.368 -4.612,0.825 -0.723,0.224 -1.439,0.469 -2.163,0.693 -0.296,0.092 -0.592,0.184 -0.894,0.254 -0.062,0.014 -0.552,0.046 -0.588,0.085 0.081,-0.088 0.527,0.501 0.306,0.495 0.031,0.001 0.12,-0.147 0.164,-0.169 0.232,-0.112 0.457,-0.341 0.679,-0.48 0.624,-0.391 1.279,-0.733 1.932,-1.073 1.487,-0.775 3.015,-1.492 4.428,-2.398 0.417,-0.267 0.322,-0.861 -0.133,-1.019 -0.929,-0.321 -2.008,-0.2 -2.964,-0.099 -1.213,0.128 -2.414,0.34 -3.617,0.537 -0.436,0.071 -0.872,0.151 -1.313,0.189 -0.102,0.009 -0.297,0.012 -0.348,0.019 0.443,-0.056 0.479,0.016 0.879,-0.257 0.192,-0.131 0.393,-0.249 0.59,-0.372 1.867,-1.179 3.734,-2.358 5.601,-3.536 0.378,-0.239 0.36,-0.92 -0.133,-1.019 -1.822,-0.365 -3.76,-0.236 -5.606,-0.375 -0.163,-0.012 -0.316,-0.204 -0.257,0.02 0.064,0.243 0.051,0.003 0.168,-0.063 0.321,-0.178 0.604,-0.484 0.934,-0.673 0.882,-0.505 1.836,-0.885 2.794,-1.216 0.885,-0.305 2.033,-0.792 2.983,-0.739 0.821,0.045 1.169,0.927 1.543,1.543 0.383,0.632 0.761,1.267 1.132,1.906 1.428,2.458 2.764,4.968 4.004,7.525 0.327,0.673 1.329,2.165 0.748,2.828 -0.477,0.545 -1.287,0.976 -1.896,1.363 -1.325,0.842 -2.734,1.527 -4.209,2.063 -0.668,0.239 -0.38,1.317 0.297,1.071 z"
   id="path22" />

				</g>

			</g>

			<g
   id="XMLID_403_">
				<path
   id="XMLID_4157_"
   style="opacity:0.7;fill:#ffffff"
   d="m 495.788,181.71 c -6.053,-5.535 -12.429,-11.114 -18.438,-16.089 -6.715,-1.541 -13.512,-2.722 -20.357,-3.51 -1.538,8.531 -3.922,16.794 -7.062,24.465 -3.584,-7.236 -5.74,-15.95 -7.5,-24.658 -3.151,0.264 -6.298,0.581 -9.436,0.97 -7.41,-1.925 -15.318,-5.886 -20.762,-10.496 -2.009,7.66 -2.358,15.737 -1.431,23.613 0.252,2.145 0.604,4.274 1.031,6.388 1.947,0.499 3.918,0.9 5.906,1.193 0.158,6.055 0.249,12.111 0.25,18.167 0,2.788 -0.018,5.575 -0.05,8.362 21.092,-0.148 42.189,0.512 63.231,1.964 -0.318,-5.667 -0.422,-11.345 -0.328,-17.02 5.441,-3.898 10.462,-8.379 14.946,-13.349 z" />

				<g
   id="XMLID_4165_">
					<g
   id="XMLID_2079_">
						<path
   id="XMLID_2083_"
   style="fill:#ffffff"
   d="m 442.209,161.544 c 0.203,7.938 2.904,18.366 6.97,25.205 0.245,0.413 0.859,0.135 0.758,-0.32 -0.927,-4.196 -2.758,-8.221 -3.923,-12.375 -1.168,-4.165 -1.791,-8.496 -3.101,-12.606 -0.119,-0.373 -0.715,-0.322 -0.704,0.096 z" />

					</g>

				</g>

				<g
   id="XMLID_4167_">
					<g
   id="XMLID_2071_">
						<path
   id="XMLID_2076_"
   style="fill:#ffffff"
   d="m 456.808,161.837 c -1.957,8.617 -3.186,16.272 -7.424,24.248 -0.332,0.625 0.63,1.182 0.947,0.554 3.746,-7.422 7.335,-16.272 7.182,-24.707 -0.008,-0.393 -0.613,-0.5 -0.705,-0.095 z" />

					</g>

				</g>

				<g
   id="XMLID_4175_">
					<g
   id="XMLID_2066_">
						<path
   id="XMLID_2070_"
   style="fill:#ffffff"
   d="m 478.435,197.302 c 6.538,-3.574 12.446,-9.813 17.398,-15.291 0.526,-0.582 -0.328,-1.445 -0.865,-0.865 -2.627,2.838 -5.263,5.589 -8.157,8.162 -2.865,2.547 -6.1,4.718 -8.87,7.354 -0.342,0.325 0.094,0.859 0.494,0.64 z" />

					</g>

				</g>

				<g
   id="XMLID_4182_">
					<g
   id="XMLID_2057_">
						<path
   id="XMLID_2062_"
   style="fill:#ffffff"
   d="m 411.906,182.807 c 0.072,-4.988 -0.682,-9.954 -0.578,-14.964 0.105,-5.023 1.011,-9.917 1.401,-14.905 0.039,-0.504 -0.719,-0.572 -0.856,-0.116 -2.674,8.899 -3.239,21.134 -0.547,30.063 0.095,0.318 0.575,0.26 0.58,-0.078 z" />

					</g>

				</g>

			</g>

			<g
   id="XMLID_612_">
				<g
   id="XMLID_970_">
					<path
   style="fill:#e9caac"
   d="m 401.871,95.442 c 2.736,-2.582 5.372,-5.291 7.898,-8.119 0.485,-0.545 1.32,-0.594 1.865,-0.109 0.483,0.429 0.574,1.136 0.253,1.67 -1.997,3.31 -4.143,6.547 -6.432,9.699 l -0.004,0.006 c -0.777,1.07 -2.274,1.307 -3.344,0.53 -1.07,-0.777 -1.307,-2.274 -0.53,-3.343 0.087,-0.118 0.192,-0.236 0.294,-0.334 z"
   id="path23" />

				</g>

				<g
   id="XMLID_967_">
					<path
   style="fill:#e9caac"
   d="m 401.206,96.75 c 0.801,-6.937 1.383,-13.91 1.746,-20.906 0.037,-0.727 0.657,-1.285 1.383,-1.248 0.68,0.035 1.213,0.586 1.248,1.25 0.349,7.052 0.476,14.126 0.379,21.208 -0.017,1.318 -1.099,2.372 -2.417,2.355 -1.318,-0.017 -2.372,-1.099 -2.355,-2.417 10e-4,-0.079 0.007,-0.164 0.016,-0.242 z"
   id="path24" />

				</g>

				<g
   id="XMLID_964_">
					<path
   style="fill:#e9caac"
   d="m 398.181,95.192 c 0.351,-6.834 0.457,-13.694 0.315,-20.561 -0.015,-0.728 0.562,-1.33 1.289,-1.345 0.679,-0.014 1.25,0.495 1.335,1.155 0.856,6.879 1.465,13.801 1.826,20.748 0.07,1.316 -0.941,2.439 -2.257,2.509 -1.316,0.069 -2.439,-0.941 -2.509,-2.257 -0.003,-0.083 -0.003,-0.169 10e-4,-0.249 z"
   id="path25" />

				</g>

				<g
   id="XMLID_940_">
					<path
   style="fill:#e9caac"
   d="m 395.278,94.47 -0.659,-17.942 c -0.027,-0.727 0.541,-1.337 1.267,-1.364 0.673,-0.025 1.247,0.461 1.349,1.111 l 0.006,0.042 2.773,17.621 0.012,0.073 c 0.205,1.304 -0.685,2.526 -1.989,2.731 -1.303,0.205 -2.526,-0.685 -2.732,-1.989 -0.014,-0.089 -0.024,-0.193 -0.027,-0.283 z"
   id="path26" />

				</g>

				<g
   id="XMLID_922_">
					<path
   style="fill:#e9caac"
   d="m 393.169,97.198 -2.181,-13.941 c -0.113,-0.72 0.379,-1.394 1.099,-1.507 0.652,-0.102 1.268,0.293 1.461,0.904 l 0.005,0.017 4.248,13.405 0.009,0.03 c 0.399,1.259 -0.298,2.603 -1.557,3.002 -1.259,0.399 -2.603,-0.298 -3.002,-1.557 -0.035,-0.113 -0.063,-0.24 -0.082,-0.353 z"
   id="path27" />

				</g>

				<g
   id="XMLID_619_">
					<g
   id="g28">
						<path
   style="fill:#e9caac"
   d="m 404.722,95.831 c -1.728,1.368 -2.657,3.284 -5.275,2.925 -2.669,-0.367 -3.185,-2.985 -3.465,-5.243 -0.223,-1.797 -2.723,-1.875 -2.858,0 -0.213,2.956 0.13,6.225 3.054,7.746 2.682,1.395 5.823,0.386 7.645,-1.872 0.77,-0.954 0.41,-2.964 -1.155,-2.787 -1.251,0.142 -2.274,0.103 -3.436,-0.462 0,0.907 0,1.813 0,2.72 0.004,-0.21 0.008,-0.419 0.012,-0.629 0,-0.498 0,-0.996 0,-1.493 -0.129,-0.139 -0.258,-0.277 -0.387,-0.416 -0.05,0.384 -0.1,0.768 -0.151,1.152 0.072,-0.157 0.144,-0.314 0.216,-0.471 -0.3,0.231 -0.601,0.462 -0.901,0.693 -0.185,-0.067 -0.371,-0.134 -0.556,-0.2 -0.128,-0.483 -0.256,-0.967 -0.383,-1.45 0.301,-0.109 0.603,-0.219 0.904,-0.328 0.125,0.474 0.251,0.949 0.376,1.423 0.099,-0.667 0.086,-1.075 -0.187,-1.685 -0.213,-0.474 -0.866,-0.663 -1.332,-0.542 -0.082,0.021 -0.164,0.042 -0.246,0.064 -0.661,0.172 -1.041,0.777 -1.084,1.424 -0.119,1.783 2.055,2.65 3.476,1.811 1.555,-0.918 1.175,-3.266 -0.631,-3.569 -1.845,-0.31 -3.021,1.802 -2.076,3.345 1.051,1.716 3.95,1.964 5.286,0.544 0.335,-0.356 0.572,-0.951 0.38,-1.439 -0.724,-1.849 -2.767,-2.046 -4.306,-0.951 -0.842,0.599 -1.195,2.211 0,2.72 1.63,0.694 3.244,1.101 5.026,1.007 -0.385,-0.929 -0.77,-1.858 -1.155,-2.787 -1.002,1.207 -2.744,2.208 -4.286,1.231 -1.609,-1.019 -1.361,-3.151 -1.246,-4.796 -0.953,0 -1.905,0 -2.858,0 0.466,3.625 1.62,7.373 5.756,8.019 2.901,0.453 7.321,-1.777 7.139,-5.163 -0.037,-0.707 -0.783,-0.948 -1.296,-0.541 z"
   id="path28" />

					</g>

				</g>

			</g>

			<g
   id="XMLID_124_">
				<g
   id="g29">
					<path
   style="fill:#e9caac"
   d="m 493.06,222.156 c 3.169,-4.883 5.82,-10.178 8.66,-15.258 0.063,-0.113 -0.101,-0.255 -0.188,-0.145 -3.612,4.563 -6.883,9.741 -8.614,15.344 -0.026,0.086 0.096,0.13 0.142,0.059 z"
   id="path29" />

				</g>

				<g
   style="opacity:0.75"
   id="g30">
					<path
   style="fill:#e9caac"
   d="m 493.06,222.156 c 3.169,-4.883 5.82,-10.178 8.66,-15.258 0.063,-0.113 -0.101,-0.255 -0.188,-0.145 -3.612,4.563 -6.883,9.741 -8.614,15.344 -0.026,0.086 0.096,0.13 0.142,0.059 z"
   id="path30" />

				</g>

			</g>

			<g
   id="XMLID_132_">
				<g
   id="g31">
					<path
   style="fill:#e9caac"
   d="m 398.063,145.446 c 3.791,2.491 7.551,5.008 11.142,7.782 0.058,0.045 0.126,-0.05 0.077,-0.099 -3.224,-3.274 -6.852,-6.057 -10.977,-8.096 -0.276,-0.136 -0.501,0.243 -0.242,0.413 z"
   id="path31" />

				</g>

				<g
   style="opacity:0.75"
   id="g32">
					<path
   style="fill:#e9caac"
   d="m 398.063,145.446 c 3.791,2.491 7.551,5.008 11.142,7.782 0.058,0.045 0.126,-0.05 0.077,-0.099 -3.224,-3.274 -6.852,-6.057 -10.977,-8.096 -0.276,-0.136 -0.501,0.243 -0.242,0.413 z"
   id="path32" />

				</g>

			</g>

		</g>
  </g>
</svg>
