<?xml version="1.0" encoding="UTF-8" standalone="no"?>
<!-- Created with Inkscape (http://www.inkscape.org/) -->

<svg
   width="50.384216mm"
   height="94.496994mm"
   viewBox="0 0 50.384216 94.496992"
   version="1.1"
   id="svg1"
   inkscape:version="1.4.2 (f4327f4, 2025-05-13)"
   sodipodi:docname="generic-agender-6.svg"
   xmlns:inkscape="http://www.inkscape.org/namespaces/inkscape"
   xmlns:sodipodi="http://sodipodi.sourceforge.net/DTD/sodipodi-0.dtd"
   xmlns:xlink="http://www.w3.org/1999/xlink"
   xmlns="http://www.w3.org/2000/svg"
   xmlns:svg="http://www.w3.org/2000/svg">
  <sodipodi:namedview
     id="namedview1"
     pagecolor="#ffffff"
     bordercolor="#000000"
     borderopacity="0.25"
     inkscape:showpageshadow="2"
     inkscape:pageopacity="0.0"
     inkscape:pagecheckerboard="0"
     inkscape:deskcolor="#d1d1d1"
     inkscape:document-units="mm"
     inkscape:zoom="1.2275954"
     inkscape:cx="-84.718467"
     inkscape:cy="49.690639"
     inkscape:window-width="2880"
     inkscape:window-height="1676"
     inkscape:window-x="-12"
     inkscape:window-y="-12"
     inkscape:window-maximized="1"
     inkscape:current-layer="layer1" />
  <defs
     id="defs1">
    <clipPath
       id="XMLID_00000091697276168001632890000017982247472649003949_">
							<use
   xlink:href="#XMLID_5093_"
   style="overflow:visible"
   id="use91" />

						</clipPath>
    <rect
       id="XMLID_5093_"
       x="238.70399"
       y="145.08501"
       width="88.318001"
       height="53.285" />
    <clipPath
       id="XMLID_00000096052923286738328060000010267096060038944696_">
						<use
   xlink:href="#XMLID_4893_"
   style="overflow:visible"
   id="use85" />

					</clipPath>
    <clipPath
       id="XMLID_00000128475977922050088700000008087380637426179718_">
						<use
   xlink:href="#XMLID_4907_"
   style="overflow:visible"
   id="use86" />

					</clipPath>
    <path
       id="XMLID_4893_"
       d="m 576.182,321.687 -0.003,1.621 2.981,22.408 2.841,22.456 c 1.837,14.975 3.585,29.959 5.081,44.938 l 12.01,-0.277 c 0.771,-15.195 1.289,-30.372 1.717,-45.547 l 0.556,-22.762 0.41,-22.794 -0.003,1.62 2.809,-19.785 c -9.53,-1.748 -19.085,-3.361 -28.658,-4.856 z" />
    <path
       id="XMLID_4907_"
       d="m 646.585,299.392 c -9.534,1.528 -19.047,3.182 -28.538,4.961 l 2.697,18.996 -0.003,-1.624 0.407,22.757 0.554,22.724 c 0.427,15.15 0.946,30.302 1.717,45.472 l 12.01,0.277 c 1.496,-14.954 3.244,-29.912 5.081,-44.861 l 2.843,-22.417 2.984,-22.368 -0.002,-1.624 z" />
  </defs>
  <g
     inkscape:label="图层 1"
     inkscape:groupmode="layer"
     id="layer1"
     transform="translate(-127.52915,-135.20224)">
    <g
       id="XMLID_128_"
       transform="matrix(0.26458333,0,0,0.26458333,-8.6763517,117.59845)">
			<g
   id="XMLID_4372_">
				<g
   id="XMLID_404_">
					<g
   id="XMLID_4390_">
						<path
   id="XMLID_2048_"
   style="fill:#e06f6e"
   d="m 586.633,412.834 c 0,0 -11.651,4.956 -18.518,8.745 -0.695,0.383 -1.479,1.239 -0.941,1.822 0.247,0.268 0.658,0.287 1.023,0.287 7.893,0 15.786,0 23.68,0 0.142,-2.028 1.225,-3.971 2.877,-5.16 0.538,1.321 1.077,2.642 1.615,3.964 0.317,0.779 0.481,1.196 0.481,1.196 h 4.726 c 0,0 0.354,-2.531 0.029,-4.804 -0.222,-1.552 -1.601,-5.588 -2.127,-5.901 -0.336,-0.201 -0.756,-0.176 -1.147,-0.142 -3.466,0.3 -11.698,-0.007 -11.698,-0.007" />

					</g>

					<g
   id="XMLID_4389_">
						<path
   id="XMLID_2041_"
   style="fill:#e06f6e"
   d="m 635.884,412.834 c 0,0 11.651,4.956 18.518,8.745 0.695,0.383 1.479,1.239 0.941,1.822 -0.247,0.268 -0.658,0.287 -1.023,0.287 -7.893,0 -15.786,0 -23.68,0 -0.142,-2.028 -1.225,-3.971 -2.877,-5.16 -0.538,1.321 -1.077,2.642 -1.615,3.964 -0.317,0.779 -0.481,1.196 -0.481,1.196 h -4.726 c 0,0 -0.354,-2.531 -0.029,-4.804 0.222,-1.552 1.601,-5.588 2.127,-5.901 0.336,-0.201 0.756,-0.176 1.147,-0.142 3.465,0.3 11.698,-0.007 11.698,-0.007" />

					</g>

					<g
   id="XMLID_4386_">
						<path
   style="fill:#e9caac"
   d="m 610.407,262.529 -8.634,60.821 0.003,-1.62 -0.41,22.794 -0.556,22.762 c -0.428,15.175 -0.946,30.352 -1.717,45.547 l -12.008,0.277 c -1.497,-14.979 -3.245,-29.963 -5.082,-44.938 l -2.841,-22.455 -2.981,-22.408 0.003,-1.621 -0.691,-61.427 z"
   id="path33" />

					</g>

					<g
   id="XMLID_4383_">
						<path
   style="fill:#e9caac"
   d="m 647.025,260.26 -0.691,61.427 0.002,1.624 -2.984,22.368 -2.843,22.417 c -1.838,14.949 -3.585,29.907 -5.082,44.861 l -12.008,-0.277 c -0.771,-15.17 -1.289,-30.322 -1.717,-45.472 l -0.554,-22.724 -0.407,-22.757 0.002,1.624 -8.634,-60.821 z"
   id="path34" />

					</g>

					<path
   id="XMLID_25_"
   style="fill:#f5db4a"
   d="m 635.326,218.461 h -12.249 -11.726 -0.19 -8.77 -15.206 c 0,0 -12.17,27.944 -12.17,48.975 0,24.612 36.145,0 36.145,0 h 0.19 c 0,0 36.145,24.612 36.145,0 10e-4,-21.031 -12.169,-48.975 -12.169,-48.975 z" />

					<g
   id="XMLID_4374_">
						<g
   id="XMLID_4376_">
							<path
   style="fill:#e9caac"
   d="m 586.419,172.721 c -2.948,1.824 -6.078,3.912 -9.157,5.99 l -9.279,6.347 c -6.181,4.275 -12.369,8.614 -18.505,12.96 l -12.251,-2.395 v 0 c -1.753,-3.722 -3.354,-7.326 -4.951,-11.023 -1.583,-3.683 -3.119,-7.389 -4.581,-11.148 -1.46,-3.76 -2.856,-7.56 -4.106,-11.487 -0.624,-1.965 -1.217,-3.954 -1.73,-6.03 -0.509,-2.084 -0.97,-4.208 -1.202,-6.651 l 10.055,-1.399 c 0.341,1.443 0.915,3.12 1.57,4.782 0.655,1.672 1.414,3.372 2.209,5.066 1.593,3.392 3.366,6.781 5.209,10.142 1.844,3.363 3.773,6.704 5.746,10.02 1.969,3.298 4.019,6.646 6.049,9.804 v 0 l -12.251,-2.395 c 5.641,-5.116 11.276,-10.18 16.976,-15.235 l 8.612,-7.559 c 2.913,-2.521 5.798,-5.005 8.997,-7.569 z"
   id="path35" />

						</g>

						<g
   id="XMLID_928_">
							<g
   id="XMLID_995_">
								<path
   style="fill:#e9caac"
   d="m 528.044,147.185 c 2.144,-3.091 4.165,-6.286 6.052,-9.574 0.362,-0.634 1.169,-0.854 1.803,-0.491 0.561,0.321 0.796,0.993 0.592,1.581 -1.271,3.651 -2.702,7.261 -4.292,10.818 l -0.003,0.007 c -0.539,1.207 -1.955,1.748 -3.162,1.209 -1.207,-0.539 -1.748,-1.955 -1.209,-3.162 0.06,-0.134 0.139,-0.271 0.219,-0.388 z"
   id="path36" />

							</g>

							<g
   id="XMLID_992_">
								<path
   style="fill:#e9caac"
   d="m 527.663,148.603 c -0.649,-6.953 -1.518,-13.896 -2.607,-20.816 -0.113,-0.719 0.377,-1.393 1.096,-1.507 0.672,-0.106 1.307,0.323 1.479,0.966 1.797,6.828 3.382,13.723 4.749,20.673 0.255,1.293 -0.586,2.548 -1.879,2.803 -1.293,0.255 -2.548,-0.586 -2.803,-1.879 -0.016,-0.079 -0.028,-0.162 -0.035,-0.24 z"
   id="path37" />

							</g>

							<g
   id="XMLID_984_">
								<path
   style="fill:#e9caac"
   d="m 524.381,147.702 c -1.067,-6.76 -2.38,-13.493 -3.936,-20.184 -0.165,-0.709 0.275,-1.417 0.984,-1.582 0.662,-0.154 1.326,0.226 1.545,0.854 2.257,6.554 4.283,13.201 6.07,19.924 0.34,1.273 -0.417,2.581 -1.691,2.921 -1.273,0.34 -2.581,-0.417 -2.921,-1.691 -0.02,-0.079 -0.038,-0.163 -0.051,-0.242 z"
   id="path38" />

							</g>

							<g
   id="XMLID_966_">
								<path
   style="fill:#e9caac"
   d="m 521.391,147.596 -4.349,-17.419 c -0.176,-0.705 0.253,-1.42 0.958,-1.596 0.654,-0.163 1.316,0.193 1.549,0.808 l 0.015,0.039 6.351,16.669 0.026,0.069 c 0.47,1.233 -0.149,2.613 -1.382,3.083 -1.233,0.47 -2.613,-0.149 -3.083,-1.382 -0.032,-0.085 -0.062,-0.185 -0.085,-0.271 z"
   id="path39" />

							</g>

							<g
   id="XMLID_962_">
								<path
   style="fill:#e9caac"
   d="m 519.891,150.7 -5.012,-13.191 c -0.259,-0.681 0.083,-1.443 0.764,-1.701 0.617,-0.235 1.301,0.025 1.616,0.583 l 0.009,0.016 6.924,12.239 0.015,0.027 c 0.65,1.149 0.246,2.608 -0.904,3.258 -1.149,0.65 -2.608,0.245 -3.258,-0.904 -0.058,-0.102 -0.112,-0.22 -0.154,-0.327 z"
   id="path40" />

							</g>

							<g
   id="XMLID_934_">
								<g
   id="g41">
									<path
   style="fill:#e9caac"
   d="m 530.894,147.008 c -1.418,1.855 -2.282,4.256 -5.202,3.911 -2.343,-0.277 -3.155,-2.536 -3.828,-4.492 -0.614,-1.784 -3.001,-1.027 -2.756,0.76 0.399,2.918 1.429,6.024 4.601,6.863 2.965,0.784 5.765,-0.851 7.102,-3.476 0.604,-1.187 -0.409,-2.875 -1.844,-2.398 -1.21,0.402 -2.192,0.522 -3.438,0.21 0.232,0.878 0.463,1.755 0.695,2.632 -0.041,-0.171 -0.082,-0.342 -0.124,-0.513 -0.077,-0.598 -0.154,-1.195 -0.231,-1.793 -0.209,-0.039 -0.419,-0.077 -0.628,-0.116 0.05,0.384 0.1,0.768 0.151,1.152 -0.391,0.13 -0.781,0.26 -1.172,0.389 -0.246,-0.429 -0.492,-0.858 -0.738,-1.287 0.253,-0.212 0.506,-0.424 0.759,-0.636 0.241,0.421 0.483,0.842 0.724,1.263 -0.031,-0.514 -0.079,-0.899 -0.389,-1.323 -0.395,-0.541 -0.993,-0.733 -1.614,-0.423 -0.08,0.04 -0.161,0.08 -0.241,0.121 -0.637,0.319 -0.768,1.041 -0.679,1.668 0.25,1.76 2.676,2.034 3.805,0.917 1.283,-1.269 0.347,-3.476 -1.498,-3.315 -1.869,0.163 -2.448,2.486 -1.199,3.756 1.437,1.46 4.263,0.986 5.272,-0.672 0.263,-0.432 0.283,-1.063 0,-1.493 -1.104,-1.68 -3.198,-1.256 -4.427,0.078 -0.747,0.81 -0.527,2.391 0.695,2.632 1.744,0.344 3.42,0.36 5.144,-0.099 -0.615,-0.799 -1.229,-1.599 -1.844,-2.398 -0.829,1.573 -2.522,2.787 -4.303,1.767 -1.464,-0.838 -1.612,-2.739 -1.824,-4.265 -0.919,0.253 -1.837,0.507 -2.756,0.76 1.166,3.34 3.025,6.676 7.056,6.593 3.177,-0.065 6.844,-3.186 6.119,-6.591 -0.151,-0.711 -1.029,-0.652 -1.388,-0.182 z"
   id="path41" />

								</g>

							</g>

						</g>

					</g>

					<g
   id="XMLID_4371_">
						<path
   style="fill:#e9caac"
   d="m 649.723,156.448 c 4.738,5.816 9.717,11.653 14.711,17.452 5,5.799 10.065,11.596 15.129,17.331 l -14.123,3.402 v 0 c 1.868,-5.1 3.68,-10.443 5.38,-15.712 1.702,-5.292 3.312,-10.61 4.771,-15.939 1.453,-5.327 2.772,-10.676 3.758,-15.978 0.483,-2.644 0.894,-5.287 1.115,-7.835 0.229,-2.51 0.247,-5.096 -0.092,-6.81 l 9.861,-2.837 c 1.141,3.755 1.244,6.891 1.321,10.008 0.038,3.096 -0.134,6.078 -0.375,9.032 -0.504,5.894 -1.338,11.641 -2.302,17.344 -0.97,5.7 -2.088,11.344 -3.3,16.962 -1.224,5.638 -2.503,11.159 -3.97,16.848 v 0.001 l -14.123,3.402 c -5.719,-5.252 -11.377,-10.503 -17.031,-15.818 -5.652,-5.321 -11.27,-10.655 -16.883,-16.235 z"
   id="path42" />

					</g>

					<path
   id="XMLID_17_"
   style="fill:#e9caac"
   d="m 641.038,152.337 -29.687,-4.895 -29.687,4.895 c -9.705,1.977 -13.954,6.129 -11.483,18.536 l 11.347,63.425 h 29.822 29.822 l 11.347,-63.425 c 2.473,-12.407 -1.776,-16.559 -11.481,-18.536 z" />

					<g
   id="XMLID_4341_">
						<g
   id="XMLID_4364_">
							
								<line
   style="fill:none;stroke:#e9caac;stroke-width:13.8635;stroke-linecap:round;stroke-miterlimit:10"
   x1="613.11102"
   y1="137.802"
   x2="613.11102"
   y2="148.56599"
   id="line42" />

							
								<line
   style="opacity:0.2;fill:none;stroke:#e9caac;stroke-width:13.8635;stroke-linecap:round;stroke-miterlimit:10"
   x1="613.11102"
   y1="137.802"
   x2="613.11102"
   y2="148.56599"
   id="line43" />

						</g>

						
							<line
   id="XMLID_4363_"
   style="fill:none;stroke:#e9caac;stroke-width:12.4275;stroke-miterlimit:10"
   x1="586.54199"
   y1="119.059"
   x2="639.67999"
   y2="119.059" />

						<g
   id="XMLID_4356_">
							<g
   id="XMLID_4360_">
								<path
   id="XMLID_4362_"
   style="fill:#e9caac"
   d="m 635.911,118.989 c -10e-4,0.047 -10e-4,0.094 -0.002,0.142 -0.019,1.171 0.087,2.263 0.32,3.277 0.15,1.054 0.406,1.967 0.768,2.737 0.336,0.829 0.735,1.416 1.195,1.759 0.443,0.533 0.919,0.777 1.431,0.732 0.329,-0.101 0.658,-0.202 0.987,-0.304 0.629,-0.404 1.175,-1.133 1.638,-2.187 0.194,-0.574 0.387,-1.148 0.581,-1.721 0.336,-1.327 0.505,-2.758 0.507,-4.293 0,-0.047 10e-4,-0.095 0.002,-0.142 0.019,-1.171 -0.087,-2.263 -0.32,-3.277 -0.15,-1.055 -0.406,-1.967 -0.768,-2.737 -0.336,-0.829 -0.735,-1.416 -1.195,-1.759 -0.443,-0.533 -0.919,-0.777 -1.431,-0.733 -0.329,0.101 -0.658,0.203 -0.987,0.304 -0.629,0.404 -1.175,1.133 -1.638,2.187 -0.193,0.574 -0.387,1.148 -0.581,1.721 -0.336,1.327 -0.504,2.758 -0.507,4.294 z" />

								<g
   id="XMLID_4361_">
									<g
   id="g43">
										<path
   style="fill:#17265c"
   d="m 642.162,118.106 c -0.025,-1.312 -0.525,-3.317 -2.144,-3.413 -1.354,-0.08 -1.929,1.442 -2.032,2.536 -0.055,0.586 0.624,0.8 1.057,0.607 -0.058,0.016 -0.115,0.033 -0.173,0.049 -0.179,-0.066 -0.227,-0.076 -0.145,-0.03 -10e-4,0.007 0.025,0.019 0.057,0.067 0.056,0.084 0.109,0.194 0.15,0.293 0.084,0.2 0.129,0.414 0.167,0.626 0.024,0.133 -0.01,-0.095 0,0.001 0.004,0.039 0.008,0.078 0.012,0.118 0.01,0.107 0.017,0.214 0.023,0.322 0.011,0.229 0.011,0.459 10e-4,0.689 -0.02,0.472 -0.069,0.787 -0.221,1.269 -0.038,0.12 -0.01,0.058 -0.095,0.214 -0.025,0.047 -0.165,0.247 -0.087,0.153 -0.033,0.04 -0.07,0.075 -0.105,0.112 -0.019,0.021 -0.129,0.113 -0.022,0.022 -0.025,0.021 -0.072,0.051 -0.103,0.06 0.154,-0.046 -0.045,0.01 -0.06,0.014 -0.87,0.241 -0.501,1.596 0.373,1.355 1.429,-0.395 1.714,-2.162 1.731,-3.425 0.007,-0.548 -0.022,-1.126 -0.177,-1.655 -0.268,-0.918 -0.959,-1.949 -2.036,-1.467 0.352,0.202 0.705,0.404 1.057,0.607 0.031,-0.329 0.133,-0.727 0.317,-0.961 0.006,-0.007 0.105,-0.111 0.145,-0.144 -0.088,0.07 0.049,-0.025 0.074,-0.035 -0.114,0.047 0.016,0.014 0.056,-0.007 -0.025,0.004 -0.05,0.008 -0.075,0.012 0.073,0.003 0.074,0 0.003,-0.009 0.707,0.239 0.834,1.349 0.847,2.021 0.017,0.902 1.422,0.905 1.405,-0.001 z"
   id="path43" />

									</g>

								</g>

							</g>

							<g
   id="XMLID_4357_">
								<path
   id="XMLID_4359_"
   style="fill:#e9caac"
   d="m 590.31,118.989 c 0,0.047 0.001,0.094 0.002,0.142 0.019,1.171 -0.087,2.263 -0.32,3.277 -0.15,1.054 -0.406,1.967 -0.768,2.737 -0.336,0.829 -0.735,1.416 -1.195,1.759 -0.443,0.533 -0.919,0.777 -1.431,0.732 -0.329,-0.101 -0.658,-0.202 -0.987,-0.304 -0.629,-0.404 -1.175,-1.133 -1.638,-2.187 -0.194,-0.574 -0.387,-1.148 -0.581,-1.721 -0.336,-1.327 -0.505,-2.758 -0.507,-4.293 -10e-4,-0.047 -10e-4,-0.095 -0.002,-0.142 -0.019,-1.171 0.087,-2.263 0.32,-3.277 0.15,-1.055 0.406,-1.967 0.768,-2.737 0.336,-0.829 0.735,-1.416 1.195,-1.759 0.443,-0.533 0.919,-0.777 1.431,-0.733 0.329,0.101 0.658,0.203 0.987,0.304 0.629,0.404 1.175,1.133 1.638,2.187 0.193,0.574 0.387,1.148 0.581,1.721 0.336,1.327 0.505,2.758 0.507,4.294 z" />

								<g
   id="XMLID_4358_">
									<g
   id="g44">
										<path
   style="fill:#17265c"
   d="m 585.465,118.106 c 0.009,-0.463 0.07,-0.938 0.247,-1.371 0.07,-0.171 0.164,-0.354 0.297,-0.486 0.115,-0.115 0.166,-0.103 0.303,-0.165 -0.16,0.072 0.145,-0.051 -0.072,-0.003 0.01,-0.002 0.212,0.058 0.056,0.007 0.128,0.042 0.119,0.054 0.227,0.188 0.156,0.195 0.279,0.629 0.309,0.952 0.352,-0.202 0.705,-0.404 1.057,-0.607 -1.055,-0.472 -1.738,0.507 -2.018,1.409 -0.169,0.545 -0.202,1.145 -0.194,1.713 0.017,1.262 0.303,3.03 1.731,3.425 0.873,0.241 1.245,-1.114 0.373,-1.355 -0.019,-0.005 -0.172,-0.063 -0.089,-0.025 0.081,0.037 -0.073,-0.048 -0.074,-0.049 0.108,0.081 -0.07,-0.07 -0.107,-0.111 -0.07,-0.078 0.077,0.13 -0.024,-0.035 -0.023,-0.037 -0.046,-0.074 -0.068,-0.112 -0.028,-0.049 -0.053,-0.1 -0.076,-0.151 -0.028,-0.061 0.017,0.053 -0.022,-0.059 -0.169,-0.486 -0.212,-0.823 -0.233,-1.303 -0.009,-0.218 -0.009,-0.437 0,-0.655 0.005,-0.109 0.012,-0.217 0.021,-0.325 0.003,-0.04 0.008,-0.079 0.012,-0.119 0.017,-0.184 -0.016,0.094 -10e-4,-0.004 0.035,-0.215 0.082,-0.428 0.163,-0.631 0.041,-0.103 0.097,-0.226 0.158,-0.313 0.031,-0.044 0.033,-0.077 0.028,-0.049 0.087,-0.045 0.078,-0.049 -0.029,-0.012 -0.087,0.04 -0.174,0.031 -0.26,-0.025 0.433,0.194 1.112,-0.021 1.057,-0.607 -0.103,-1.094 -0.677,-2.618 -2.032,-2.536 -1.619,0.097 -2.119,2.1 -2.144,3.413 -0.019,0.906 1.386,0.906 1.404,10e-4 z"
   id="path44" />

									</g>

								</g>

							</g>

						</g>

						<g
   id="XMLID_4355_">
							<path
   style="fill:#e9caac"
   d="m 622.885,143.004 h -19.547 c -7.192,0 -13.023,-5.831 -13.023,-13.023 v -25.354 c 0,-11.585 9.392,-20.976 20.977,-20.976 h 3.64 c 11.585,0 20.977,9.391 20.977,20.976 v 25.354 c -10e-4,7.192 -5.832,13.023 -13.024,13.023 z"
   id="path45" />

						</g>

						
							<path
   id="XMLID_4354_"
   style="fill:none;stroke:#bb7bea;stroke-width:3.5773;stroke-linecap:round;stroke-linejoin:round;stroke-miterlimit:10"
   d="m 604.464,116.834 c -0.72,-1.515 -1.979,-2.578 -3.337,-2.819 -1.359,-0.241 -2.791,0.344 -3.798,1.553" />

						
							<path
   id="XMLID_4353_"
   style="fill:none;stroke:#bb7bea;stroke-width:3.5773;stroke-linecap:round;stroke-linejoin:round;stroke-miterlimit:10"
   d="m 628.892,115.91 c -1.337,-1.539 -3.226,-2.235 -4.986,-1.838 -0.246,0.056 -0.492,0.132 -0.72,0.263 -0.59,0.337 -1.022,1.004 -1.433,1.648" />

						<g
   id="XMLID_4344_">
							<g
   id="XMLID_4350_">
								<path
   style="opacity:0.4;fill:#e9caac"
   d="m 620.59,125.481 c 0.317,1.418 2.971,2.117 5.926,1.562 2.956,-0.555 5.094,-2.154 4.777,-3.571 -0.317,-1.418 -2.971,-2.117 -5.927,-1.562 -2.954,0.555 -5.093,2.154 -4.776,3.571 z"
   id="path46" />

							</g>

							<path
   id="XMLID_4349_"
   style="fill:#17265c"
   d="m 624.648,123.244 c 1.072,0 1.941,-1.173 1.941,-2.619 0,-1.447 -0.869,-2.619 -1.941,-2.619 -1.072,0 -1.941,1.173 -1.941,2.619 0,1.447 0.869,2.619 1.941,2.619 z" />

							<g
   id="XMLID_4346_">
								<path
   style="opacity:0.4;fill:#e9caac"
   d="m 605.632,125.481 c -0.317,1.418 -2.971,2.117 -5.927,1.562 -2.956,-0.555 -5.094,-2.154 -4.777,-3.571 0.317,-1.418 2.971,-2.117 5.926,-1.562 2.956,0.555 5.095,2.154 4.778,3.571 z"
   id="path47" />

							</g>

							<path
   id="XMLID_4345_"
   style="fill:#17265c"
   d="m 601.574,123.244 c -1.072,0 -1.941,-1.173 -1.941,-2.619 0,-1.447 0.869,-2.619 1.941,-2.619 1.072,0 1.941,1.173 1.941,2.619 0,1.447 -0.869,2.619 -1.941,2.619 z" />

						</g>

						<g
   id="XMLID_4342_"
   style="opacity:0">
							<path
   id="XMLID_4343_"
   style="fill:#bb7bea"
   d="m 630.354,83.645 c -3.236,-2.848 -8.113,-2.173 -12.4,-2.622 0,0 -6.186,0.486 -8.731,0.725 -4.016,0.377 -10.23,2.236 -13.509,4.1 -2.298,1.306 -3.547,3.897 -3.448,6.338 0.058,1.407 0.557,2.771 1.17,4.069 2.854,6.046 8.429,10.973 15.113,13.706 -2.292,-3.466 -3.852,-7.416 -4.516,-11.515 1.135,1.059 2.44,1.974 3.756,2.789 3.907,2.419 8.31,4.345 12.818,4.958 -1.391,-2.637 -2.524,-5.409 -3.385,-8.263 2.717,2.037 5.567,3.895 8.644,5.32 1.461,0.677 2.981,1.245 4.533,1.69 0.046,-0.61 0.124,-1.216 0.23,-1.808 0.604,-3.375 1.936,-6.596 2.407,-9.992 0.471,-3.396 -0.109,-7.23 -2.682,-9.495 z" />

						</g>

						<g
   id="XMLID_7172_">
							
								<circle
   id="XMLID_7189_"
   transform="matrix(0.9239,-0.3827,0.3827,0.9239,-5.1986,245.002)"
   style="fill:#bb7bea"
   cx="613.25403"
   cy="135.56799"
   r="11.522" />

							<path
   id="XMLID_7188_"
   style="fill:#e9caac"
   d="m 620.018,132.799 c 0,2.974 -3.028,5.385 -6.763,5.385 -3.735,0 -6.764,-2.411 -6.764,-5.385 0,-2.974 3.028,-5.385 6.764,-5.385 3.734,0 6.763,2.411 6.763,5.385 z" />

							<g
   id="XMLID_7180_">
								<path
   style="fill:#e9caac"
   d="m 616.201,116.411 c 0.544,2.55 0.812,5.159 0.797,7.767 -0.01,1.887 -0.187,3.838 -1.091,5.493 -0.194,0.355 -0.431,0.704 -0.778,0.911 -0.347,0.207 -0.827,0.237 -1.136,-0.024 -0.264,-0.223 -0.344,-0.589 -0.419,-0.926 -0.344,-1.53 -0.925,-3.006 -1.716,-4.36 -0.27,0.398 -0.637,0.751 -1.095,0.9 -0.458,0.149 -1.012,0.057 -1.327,-0.308 -0.314,-0.364 -0.287,-1.004 0.112,-1.273"
   id="path48" />

								<g
   id="g49">
									<path
   style="fill:#17265c"
   d="m 615.297,116.66 c 0.352,1.681 0.59,3.377 0.696,5.091 0.102,1.65 0.167,3.373 -0.11,5.01 -0.129,0.76 -0.326,1.526 -0.672,2.219 -0.111,0.223 -0.26,0.622 -0.494,0.741 -0.271,0.137 -0.188,-0.126 -0.267,-0.459 -0.373,-1.567 -0.982,-3.067 -1.783,-4.464 -0.377,-0.658 -1.22,-0.549 -1.619,0 -0.146,0.201 -0.377,0.46 -0.641,0.502 -0.115,0.018 -0.285,0.033 -0.196,-0.046 0.905,-0.802 -0.425,-2.124 -1.326,-1.326 -1.001,0.886 -0.652,2.499 0.515,3.043 1.29,0.601 2.517,-0.194 3.267,-1.226 -0.54,0 -1.079,0 -1.619,0 0.516,0.9 0.946,1.834 1.263,2.823 0.273,0.852 0.322,2.011 1.019,2.654 0.68,0.627 1.714,0.561 2.437,0.056 0.771,-0.54 1.183,-1.507 1.495,-2.36 0.702,-1.922 0.72,-4.067 0.656,-6.088 -0.071,-2.241 -0.354,-4.474 -0.813,-6.668 -0.247,-1.181 -2.055,-0.681 -1.808,0.498 z"
   id="path49" />

								</g>

							</g>

							<g
   id="XMLID_7173_">
								<g
   id="g50">
									<path
   style="fill:#17265c"
   d="m 610.911,133.272 c 0.828,1.367 2.587,2.072 4.125,1.594 0.468,-0.145 0.814,-0.661 0.655,-1.153 -0.152,-0.471 -0.652,-0.811 -1.153,-0.655 -0.136,0.042 -0.273,0.073 -0.414,0.093 0.083,-0.011 0.166,-0.022 0.249,-0.033 -0.226,0.028 -0.451,0.028 -0.677,0.001 0.083,0.011 0.166,0.022 0.249,0.033 -0.254,-0.034 -0.5,-0.101 -0.737,-0.199 0.075,0.031 0.149,0.063 0.224,0.095 -0.117,-0.051 -0.232,-0.107 -0.342,-0.173 -0.061,-0.036 -0.12,-0.075 -0.178,-0.116 -0.022,-0.016 -0.044,-0.037 -0.069,-0.05 0.034,0.018 0.19,0.153 0.074,0.054 -0.097,-0.082 -0.188,-0.171 -0.272,-0.267 -0.019,-0.021 -0.036,-0.043 -0.055,-0.065 -0.072,-0.083 0.14,0.193 0.056,0.072 -0.04,-0.058 -0.08,-0.117 -0.117,-0.178 -0.254,-0.419 -0.853,-0.614 -1.283,-0.336 -0.42,0.272 -0.606,0.834 -0.335,1.283 z"
   id="path50" />

								</g>

							</g>

						</g>

						<g
   id="XMLID_4347_">
							<path
   id="XMLID_4378_"
   style="fill:#bb7bea"
   d="m 585.559,85.039 c 1.883,-3.737 7.597,-4.726 12.533,-5.14 12.784,-1.072 25.848,-1.426 38.61,0.764 1.557,0.267 3.173,0.598 4.42,1.444 1.685,1.143 2.364,2.996 2.704,4.745 1.301,6.681 -1.286,13.828 -7.406,18.022 -5.439,3.727 -12.941,4.839 -20.168,4.904 3.846,-2.065 7.201,-4.852 9.059,-8.331 0.448,-0.84 0.796,-1.723 1.045,-2.629 -0.504,0.474 -1.023,0.938 -1.541,1.398 -1.022,0.907 -2.051,1.82 -3.28,2.567 -4.128,2.511 -9.869,2.829 -15.404,2.475 1.959,-2.501 3.208,-5.333 3.697,-8.269 -5.062,3.778 -11.156,6.178 -17.435,6.838 -0.703,5.578 -1.336,11.165 -1.896,16.759 -1.251,-5.32 -2.485,-11.757 -3.549,-16.62 -0.299,-1.369 -0.587,-2.625 -0.856,-3.68 -0.6,-2.353 -1.622,-13.084 -0.533,-15.247 z" />

							<path
   id="XMLID_4630_"
   style="fill:#bb7bea"
   d="m 634.557,103.578 c 0.186,-0.136 0.368,-0.276 0.541,-0.415 0.833,-0.672 1.666,-1.343 2.499,-2.015 0.448,7.149 -1.128,14.395 -3.117,21.411 0.352,-6.32 0.374,-12.658 0.077,-18.981 z" />

						</g>

					</g>

					<g
   id="XMLID_4338_">
						<path
   id="XMLID_4340_"
   style="fill:#f5db4a"
   d="m 580.633,241.496 c -4.727,12.259 -7.269,25.35 -7.526,38.485 11.516,2.983 23.396,4.524 35.295,4.633 0.478,-6.014 0.86,-12.035 1.127,-18.062 z" />

						<path
   id="XMLID_4339_"
   style="fill:#f5db4a"
   d="m 644.895,251.827 -32.466,11.737 c 0.807,6.983 1.496,13.98 2.075,20.987 11.718,-0.373 23.391,-2.137 34.687,-5.257 -1.167,-9.196 -2.597,-18.356 -4.296,-27.467 z" />

					</g>

					<g
   id="XMLID_4337_">
						<g
   id="g51">
							<path
   style="fill:#17265c"
   d="m 588.865,240.001 c -0.242,7.017 -5.895,13.218 -12.804,14.259 -1.01,0.152 -0.581,1.688 0.424,1.536 7.616,-1.148 13.71,-8.131 13.974,-15.795 0.035,-1.026 -1.558,-1.024 -1.594,0 z"
   id="path51" />

						</g>

					</g>

					<g
   id="XMLID_4336_">
						<g
   id="g52">
							<path
   style="fill:#17265c"
   d="m 610.606,234.266 c -0.107,7.359 -0.214,14.717 -0.321,22.076 -0.011,0.745 0.854,0.979 1.36,0.563 1.459,-1.197 3.241,-2.325 4.481,-3.75 1.189,-1.366 0.78,-3.773 0.8,-5.448 0.051,-4.38 -0.054,-8.76 -0.299,-13.133 -0.057,-1.02 -1.651,-1.026 -1.593,0 0.221,3.943 0.329,7.891 0.31,11.841 -0.005,0.933 -0.016,1.867 -0.034,2.8 -0.019,0.997 0.175,2.246 -0.525,3.041 -0.569,0.647 -1.393,1.165 -2.055,1.709 -0.737,0.605 -1.474,1.21 -2.212,1.815 0.453,0.188 0.907,0.375 1.36,0.563 0.107,-7.359 0.214,-14.717 0.321,-22.076 0.015,-1.027 -1.578,-1.027 -1.593,-0.001 z"
   id="path52" />

						</g>

					</g>

					<g
   id="XMLID_4335_">
						<g
   id="g53">
							<path
   style="fill:#17265c"
   d="m 632.506,240.001 c 0.263,7.664 6.358,14.648 13.974,15.795 1.003,0.151 1.436,-1.384 0.424,-1.536 -6.91,-1.041 -12.563,-7.242 -12.804,-14.259 -0.036,-1.023 -1.629,-1.027 -1.594,0 z"
   id="path53" />

						</g>

					</g>

					<g
   id="XMLID_3829_">
						<g
   id="XMLID_4333_">
							<g
   id="g54">
								<path
   style="fill:#17265c"
   d="m 656.755,79.274 c 7.058,18.054 14.551,35.945 22.259,53.73 2.033,4.69 4.087,9.371 6.176,14.037 0.485,1.083 2.061,1.341 3.007,0.788 1.115,-0.652 1.275,-1.919 0.788,-3.007 -7.793,-17.407 -15.213,-34.987 -22.384,-52.658 -1.897,-4.675 -3.772,-9.36 -5.609,-14.059 -0.432,-1.105 -1.474,-1.873 -2.703,-1.535 -1.053,0.29 -1.969,1.593 -1.534,2.704 z"
   id="path54" />

							</g>

						</g>

						<g
   id="XMLID_3830_">
							<path
   id="XMLID_4130_"
   style="fill:#5971c1"
   d="m 696.44,69.825 c -11.613,5.159 -23.226,10.318 -34.838,15.477 0.643,1.561 1.289,3.12 1.935,4.68 11.578,-5.436 23.321,-10.523 35.212,-15.236 -0.731,-1.658 -1.491,-3.303 -2.309,-4.921 z" />

							<path
   id="XMLID_4110_"
   style="fill:#bb7bea"
   d="m 694.703,66.534 c -11.945,4.03 -23.534,9.114 -34.586,15.178 0.491,1.199 0.992,2.393 1.485,3.59 11.613,-5.159 23.226,-10.318 34.838,-15.477 -0.559,-1.107 -1.138,-2.205 -1.737,-3.291 z" />

							<path
   id="XMLID_4104_"
   style="fill:#71b57a"
   d="m 701.098,80.503 c -0.722,-1.943 -1.512,-3.86 -2.349,-5.757 -11.891,4.713 -23.634,9.799 -35.212,15.236 0.62,1.496 1.232,2.994 1.856,4.488 1.987,-0.879 4.018,-1.672 6.042,-2.457 9.888,-3.837 19.776,-7.673 29.663,-11.51 z" />

							<path
   id="XMLID_4103_"
   style="fill:#e06f6e"
   d="m 669.3,103.742 c 0.643,1.52 1.277,3.043 1.924,4.561 11.751,-3.451 23.156,-8.078 33.997,-13.777 -0.353,-1.618 -0.76,-3.223 -1.19,-4.822 -11.706,4.351 -23.289,9.034 -34.731,14.038 z" />

							<path
   id="XMLID_3834_"
   style="fill:#e9994f"
   d="m 702.49,84.513 c -11.734,4.821 -23.378,9.861 -34.936,15.089 0.581,1.381 1.163,2.761 1.747,4.14 11.442,-5.004 23.025,-9.687 34.731,-14.038 -0.47,-1.744 -0.982,-3.475 -1.542,-5.191 z" />

							<path
   id="XMLID_3833_"
   style="fill:#f5db4a"
   d="m 701.098,80.503 c -9.888,3.837 -19.775,7.673 -29.662,11.51 -2.025,0.786 -4.056,1.578 -6.042,2.457 0.715,1.713 1.441,3.421 2.16,5.132 11.559,-5.229 23.202,-10.269 34.936,-15.089 -0.439,-1.346 -0.899,-2.684 -1.392,-4.01 z" />

						</g>

					</g>

					<g
   id="XMLID_3828_">
						<path
   style="fill:#e9caac"
   d="m 682.844,139.958 c 2.73,-0.667 5.346,-1.794 7.705,-3.321 0.266,-0.172 0.54,-0.362 0.677,-0.647 0.201,-0.417 0.054,-0.911 -0.097,-1.349 -1.742,-5.043 -3.784,-9.983 -6.113,-14.783 -0.207,-0.428 -0.432,-0.872 -0.818,-1.149 -0.527,-0.378 -1.234,-0.361 -1.878,-0.291 -2.889,0.312 -5.692,1.38 -8.055,3.07 2.441,0.294 4.852,0.832 7.187,1.602 -2.563,1.276 -3.936,1.739 -6.405,3.188 -0.894,0.525 -0.58,1.951 0.231,1.879 3.267,-0.111 3.906,0.065 7.159,0.387 -3.315,0.931 -6.445,2.839 -6.158,3.508 0.375,0.875 3.938,0.313 7.025,-0.112 -2.292,1.537 -1.952,1.309 -4.244,2.846 -0.212,0.142 -1.173,1.327 -1.218,1.578 -0.11,0.605 0.844,1.178 1.45,1.07 2.339,-0.419 2.733,-0.49 5.072,-0.908 -0.019,0.48 -0.495,0.801 -0.935,0.993 -0.44,0.192 -2.822,1.527 -2.67,1.983 0.31,0.94 1.669,0.696 2.085,0.456"
   id="path55" />

						<g
   id="g56">
							<path
   style="fill:#e9caac"
   d="m 683.018,140.588 c 1.792,-0.452 3.53,-1.075 5.193,-1.883 1.146,-0.557 3.134,-1.273 3.646,-2.542 0.281,-0.696 -0.004,-1.42 -0.232,-2.084 -0.354,-1.035 -0.734,-2.063 -1.119,-3.087 -0.646,-1.717 -1.329,-3.421 -2.044,-5.111 -0.746,-1.764 -1.529,-3.513 -2.348,-5.244 -0.63,-1.331 -1.144,-2.745 -2.81,-2.896 -1.536,-0.139 -3.253,0.338 -4.698,0.819 -1.667,0.556 -3.231,1.356 -4.671,2.362 -0.561,0.392 -0.313,1.137 0.33,1.218 2.386,0.301 4.726,0.838 7.013,1.578 -0.052,-0.398 -0.104,-0.797 -0.156,-1.195 -1.64,0.81 -3.329,1.522 -4.947,2.375 -1.129,0.595 -2.764,1.326 -2.231,2.913 0.484,1.439 2.286,0.951 3.447,0.966 1.689,0.022 3.367,0.249 5.045,0.418 -0.058,-0.428 -0.116,-0.856 -0.174,-1.284 -1.72,0.502 -3.437,1.181 -4.956,2.142 -0.655,0.414 -1.913,1.176 -1.668,2.131 0.25,0.973 1.631,0.985 2.414,0.979 1.813,-0.014 3.632,-0.347 5.424,-0.595 -0.168,-0.398 -0.336,-0.797 -0.504,-1.195 -1.086,0.728 -2.172,1.456 -3.258,2.185 -0.898,0.602 -2.173,1.451 -2.488,2.585 -0.353,1.269 1.21,2.028 2.237,1.919 1.691,-0.179 3.398,-0.609 5.072,-0.909 -0.268,-0.268 -0.536,-0.536 -0.804,-0.804 -0.135,0.584 -1.63,1.131 -2.096,1.433 -0.504,0.326 -1.284,0.767 -1.483,1.382 -0.546,1.686 2.071,1.817 3.022,1.356 0.757,-0.367 0.095,-1.495 -0.66,-1.129 -0.248,0.12 -0.491,0.091 -0.752,0.125 -0.197,-0.154 -0.318,-0.127 -0.365,0.082 0.038,-0.037 0.076,-0.075 0.114,-0.112 0.229,-0.385 0.978,-0.704 1.355,-0.925 0.847,-0.497 1.88,-0.794 2.127,-1.864 0.119,-0.514 -0.311,-0.893 -0.804,-0.804 -1.094,0.196 -2.189,0.392 -3.283,0.588 -0.535,0.096 -1.407,0.414 -1.939,0.284 -0.826,-0.201 -0.203,-0.68 0.106,-1.045 0.572,-0.674 1.409,-1.105 2.14,-1.595 0.807,-0.541 1.613,-1.082 2.42,-1.623 0.648,-0.435 0.214,-1.294 -0.504,-1.195 -1.239,0.171 -2.477,0.358 -3.723,0.47 -0.495,0.045 -0.993,0.083 -1.49,0.08 -0.242,-0.001 -0.502,-0.05 -0.741,-0.043 -0.145,0.004 -0.384,-0.22 -0.281,0.056 0.078,0.207 0.537,-0.325 0.741,-0.469 0.394,-0.28 0.82,-0.519 1.247,-0.745 1.187,-0.629 2.439,-1.108 3.728,-1.484 0.744,-0.217 0.536,-1.213 -0.174,-1.284 -1.233,-0.124 -2.465,-0.282 -3.701,-0.365 -0.498,-0.033 -0.996,-0.05 -1.495,-0.054 -0.33,-0.003 -1.759,0.204 -1.99,0.024 -0.637,-0.496 2.471,-1.92 2.877,-2.115 1.215,-0.583 2.446,-1.13 3.655,-1.726 0.533,-0.263 0.343,-1.033 -0.156,-1.195 -2.404,-0.778 -4.855,-1.309 -7.361,-1.625 0.11,0.406 0.22,0.812 0.33,1.218 2.309,-1.614 5.056,-2.775 7.889,-2.995 0.844,-0.066 1.409,0.092 1.841,0.873 0.375,0.678 0.682,1.408 1.009,2.11 0.636,1.364 1.249,2.738 1.839,4.123 0.621,1.458 1.214,2.929 1.781,4.409 0.269,0.703 0.533,1.408 0.79,2.115 0.234,0.642 0.669,1.445 0.755,2.127 0.145,1.146 -0.701,1.548 -1.591,2.051 -0.556,0.314 -1.125,0.606 -1.703,0.876 -1.457,0.68 -2.977,1.193 -4.535,1.586 -0.816,0.208 -0.47,1.469 0.348,1.263 z"
   id="path56" />

						</g>

					</g>

					<g
   id="XMLID_4391_">
						<g
   id="XMLID_3822_">
							<g
   id="g57">
								<path
   style="fill:#17265c"
   d="m 608.667,193.837 c 0.275,-0.626 0.087,-1.293 -0.011,-1.955 -0.135,-0.918 -0.277,-1.84 -0.614,-2.708 -0.074,-0.19 -0.329,-0.157 -0.35,0.047 -0.094,0.927 0.016,1.853 0.129,2.774 0.082,0.663 0.076,1.358 0.508,1.886 0.082,0.099 0.286,0.076 0.338,-0.044 z"
   id="path57" />

							</g>

						</g>

						<g
   id="XMLID_3823_">
							<g
   id="g58">
								<path
   style="fill:#17265c"
   d="m 614.15,191.509 c 0.396,-1.114 0.613,-2.321 0.437,-3.496 -0.016,-0.106 -0.166,-0.105 -0.214,-0.028 -0.64,1.019 -0.905,2.228 -0.987,3.42 -0.032,0.462 0.625,0.495 0.764,0.104 z"
   id="path58" />

							</g>

						</g>

						<g
   id="XMLID_3825_">
							<g
   id="g59">
								<path
   style="fill:#17265c"
   d="m 619.76,186.692 c 0.51,-0.721 1.193,-2.256 0.551,-3.064 -0.047,-0.06 -0.143,-0.044 -0.192,0 -0.344,0.307 -0.397,0.795 -0.495,1.223 -0.124,0.545 -0.265,1.082 -0.361,1.632 -0.054,0.305 0.315,0.466 0.497,0.209 z"
   id="path59" />

							</g>

						</g>

						<g
   id="XMLID_4373_">
							<g
   id="g60">
								<path
   style="fill:#17265c"
   d="m 616.183,182.226 c 0.395,-0.404 0.334,-1.105 0.312,-1.639 -0.026,-0.633 -0.174,-1.215 -0.434,-1.789 -0.056,-0.124 -0.277,-0.096 -0.3,0.039 -0.098,0.585 -0.14,1.156 -0.146,1.75 -0.005,0.508 -0.124,1.162 0.185,1.59 0.09,0.124 0.265,0.17 0.383,0.049 z"
   id="path60" />

							</g>

						</g>

						<g
   id="XMLID_4618_">
							<g
   id="g61">
								<path
   style="fill:#17265c"
   d="m 610.667,183.975 c 0.185,-1.154 -0.151,-2.536 -0.808,-3.504 -0.077,-0.114 -0.259,-0.074 -0.262,0.071 -0.026,1.081 0.11,2.406 0.446,3.433 0.09,0.275 0.569,0.338 0.624,0 z"
   id="path61" />

							</g>

						</g>

						<g
   id="XMLID_4620_">
							<g
   id="g62">
								<path
   style="fill:#17265c"
   d="m 604.232,184.209 c 0.018,-1.01 -0.308,-2.31 -0.995,-3.07 -0.068,-0.075 -0.204,-0.037 -0.227,0.06 -0.233,0.996 0.115,2.299 0.619,3.173 0.163,0.282 0.598,0.154 0.603,-0.163 z"
   id="path62" />

							</g>

						</g>

						<g
   id="XMLID_4628_">
							<g
   id="g63">
								<path
   style="fill:#17265c"
   d="m 605.484,176.453 c 0.351,-1.011 -0.298,-2.125 -0.775,-2.992 -0.081,-0.148 -0.315,-0.08 -0.314,0.085 0.004,0.989 -0.021,2.277 0.776,2.99 0.108,0.097 0.265,0.053 0.313,-0.083 z"
   id="path63" />

							</g>

						</g>

						<g
   id="XMLID_4639_">
							<g
   id="g64">
								<path
   style="fill:#17265c"
   d="m 612.922,174.722 c 0.106,-1.08 -0.085,-2.185 -0.45,-3.202 -0.057,-0.159 -0.268,-0.125 -0.285,0.039 -0.109,1.044 -0.156,2.119 -0.033,3.163 0.057,0.489 0.719,0.498 0.768,0 z"
   id="path64" />

							</g>

						</g>

						<g
   id="XMLID_4904_">
							<g
   id="g65">
								<path
   style="fill:#17265c"
   d="m 602.733,168.711 c -0.063,-0.504 -0.15,-1.005 -0.201,-1.51 -0.043,-0.423 -0.106,-0.848 -0.303,-1.23 -0.039,-0.076 -0.171,-0.102 -0.228,-0.03 -0.646,0.822 -0.365,2.098 0.095,2.942 0.152,0.281 0.681,0.174 0.637,-0.172 z"
   id="path65" />

							</g>

						</g>

						<g
   id="XMLID_4934_">
							<g
   id="g66">
								<path
   style="fill:#17265c"
   d="m 619.323,174.544 c 0.424,-0.838 0.356,-1.816 0.148,-2.702 -0.03,-0.126 -0.234,-0.164 -0.291,-0.038 -0.377,0.82 -0.652,1.767 -0.405,2.668 0.064,0.238 0.429,0.307 0.548,0.072 z"
   id="path66" />

							</g>

						</g>

						<g
   id="XMLID_4941_">
							<g
   id="g67">
								<path
   style="fill:#17265c"
   d="m 623.116,169.456 c 0.247,-0.636 0.302,-1.364 0.342,-2.04 0.035,-0.594 0.052,-1.24 -0.247,-1.769 -0.062,-0.109 -0.202,-0.091 -0.267,0 -0.661,0.917 -0.593,2.767 -0.316,3.81 0.069,0.259 0.403,0.219 0.488,-0.001 z"
   id="path67" />

							</g>

						</g>

					</g>

					<path
   id="XMLID_4334_"
   style="fill:#5971c1"
   d="m 640.036,216.933 c -2.015,-2.614 -3.038,-5.844 -3.867,-9.039 -4.795,-18.472 -4.298,-37.816 -3.402,-56.921 l -7.811,-1.288 c 1.265,14.384 3.023,44.85 -13.476,44.28 -15.213,-0.526 -15.21,-30.47 -14.054,-44.227 l -7.49,1.235 c 0.896,19.105 1.393,38.448 -3.402,56.921 -0.829,3.194 -1.853,6.425 -3.867,9.039 -0.986,1.279 -2.257,2.386 -3.681,3.15 l 2.543,14.216 h 29.822 29.822 l 2.543,-14.216 c -1.423,-0.765 -2.694,-1.871 -3.68,-3.15 z" />

					<g
   id="XMLID_142_">
						<g
   id="g68">
							<path
   style="fill:#e9caac"
   d="m 571.447,174.908 c -0.802,9.501 2.495,20.164 4.651,29.343 0.042,0.179 0.301,0.1 0.271,-0.075 -0.818,-4.893 -1.491,-9.813 -2.25,-14.716 -0.74,-4.783 -0.961,-9.989 -2.507,-14.575 -0.031,-0.092 -0.157,-0.072 -0.165,0.023 z"
   id="path68" />

						</g>

						<g
   style="opacity:0.75"
   id="g69">
							<path
   style="fill:#e9caac"
   d="m 571.447,174.908 c -0.802,9.501 2.495,20.164 4.651,29.343 0.042,0.179 0.301,0.1 0.271,-0.075 -0.818,-4.893 -1.491,-9.813 -2.25,-14.716 -0.74,-4.783 -0.961,-9.989 -2.507,-14.575 -0.031,-0.092 -0.157,-0.072 -0.165,0.023 z"
   id="path69" />

						</g>

					</g>

					<g
   id="XMLID_153_">
						<g
   id="g70">
							<path
   style="fill:#e9caac"
   d="m 651.78,175.169 c -2.434,7.986 -3.018,16.818 -4.418,25.049 -0.012,0.07 0.091,0.101 0.108,0.03 1.956,-8.037 4.505,-16.732 4.558,-25.045 10e-4,-0.145 -0.207,-0.169 -0.248,-0.034 z"
   id="path70" />

						</g>

						<g
   style="opacity:0.75"
   id="g71">
							<path
   style="fill:#e9caac"
   d="m 651.78,175.169 c -2.434,7.986 -3.018,16.818 -4.418,25.049 -0.012,0.07 0.091,0.101 0.108,0.03 1.956,-8.037 4.505,-16.732 4.558,-25.045 10e-4,-0.145 -0.207,-0.169 -0.248,-0.034 z"
   id="path71" />

						</g>

					</g>

					<g
   id="XMLID_155_">
						<g
   id="g72">
							<path
   style="fill:#e9caac"
   d="m 670.12,186.621 c 1.893,-6.823 3.217,-13.822 4.624,-20.759 0.011,-0.053 -0.067,-0.075 -0.081,-0.022 -1.861,6.825 -3.713,13.709 -4.868,20.692 -0.035,0.21 0.266,0.303 0.325,0.089 z"
   id="path72" />

						</g>

						<g
   style="opacity:0.75"
   id="g73">
							<path
   style="fill:#e9caac"
   d="m 670.12,186.621 c 1.893,-6.823 3.217,-13.822 4.624,-20.759 0.011,-0.053 -0.067,-0.075 -0.081,-0.022 -1.861,6.825 -3.713,13.709 -4.868,20.692 -0.035,0.21 0.266,0.303 0.325,0.089 z"
   id="path73" />

						</g>

					</g>

					<g
   id="XMLID_164_">
						<g
   id="g74">
							<path
   style="fill:#e9caac"
   d="m 547.373,181.307 c -2.236,-5.929 -6.027,-11.921 -9.628,-17.115 -0.026,-0.038 -0.079,-0.006 -0.061,0.035 2.553,5.785 5.683,12.141 9.571,17.148 0.043,0.055 0.142,-0.004 0.118,-0.068 z"
   id="path74" />

						</g>

						<g
   style="opacity:0.75"
   id="g75">
							<path
   style="fill:#e9caac"
   d="m 547.373,181.307 c -2.236,-5.929 -6.027,-11.921 -9.628,-17.115 -0.026,-0.038 -0.079,-0.006 -0.061,0.035 2.553,5.785 5.683,12.141 9.571,17.148 0.043,0.055 0.142,-0.004 0.118,-0.068 z"
   id="path75" />

						</g>

					</g>

					<g
   id="XMLID_4948_">
						<g
   id="XMLID_4962_">
							<g
   id="g76">
								<path
   style="fill:#17265c"
   d="m 650.081,182.422 c -1.435,3.973 -1.748,8.98 -0.908,13.096 0.052,0.255 0.448,0.245 0.506,0 0.977,-4.087 1.461,-8.786 1.268,-12.979 -0.024,-0.508 -0.698,-0.583 -0.866,-0.117 z"
   id="path76" />

							</g>

						</g>

						<g
   id="XMLID_4969_">
							<g
   id="g77">
								<path
   style="fill:#17265c"
   d="m 650.392,182.2 c -0.024,2.21 0.556,4.367 1.113,6.493 0.504,1.923 0.94,3.729 2.284,5.245 0.119,0.134 0.305,0.015 0.32,-0.133 0.218,-2.097 -0.505,-3.986 -1.036,-5.989 -0.525,-1.979 -0.934,-3.985 -1.756,-5.867 -0.206,-0.474 -0.92,-0.205 -0.925,0.251 z"
   id="path77" />

							</g>

						</g>

						<g
   id="XMLID_4976_">
							<g
   id="g78">
								<path
   style="fill:#17265c"
   d="m 650.692,182.041 c 1.267,2.784 2.838,6.363 5.652,7.902 0.19,0.104 0.434,-0.068 0.372,-0.286 -0.45,-1.586 -1.478,-2.846 -2.414,-4.178 -0.95,-1.352 -1.916,-2.658 -2.932,-3.961 -0.324,-0.414 -0.864,0.115 -0.678,0.523 z"
   id="path78" />

							</g>

						</g>

						<g
   id="XMLID_4983_">
							<g
   id="g79">
								<path
   style="fill:#17265c"
   d="m 651.16,181.87 c 0.299,1.257 2.394,1.838 3.446,2.327 1.432,0.666 2.695,1.134 4.286,1.241 0.262,0.018 0.393,-0.339 0.212,-0.512 -1.152,-1.102 -2.369,-1.715 -3.827,-2.321 -1.076,-0.448 -2.895,-1.588 -4.027,-0.957 -0.077,0.044 -0.11,0.138 -0.09,0.222 z"
   id="path79" />

							</g>

						</g>

						<g
   id="XMLID_4990_">
							<g
   id="g80">
								<path
   style="fill:#17265c"
   d="m 651.516,181.516 c -0.333,-0.065 0.363,0.223 0.525,0.267 0.671,0.182 1.523,-0.012 2.193,-0.071 2.028,-0.178 3.892,-0.489 5.863,-0.992 0.244,-0.062 0.256,-0.451 0,-0.506 -2.015,-0.436 -3.822,-0.449 -5.868,-0.176 -0.697,0.093 -1.486,0.137 -2.14,0.404 -0.213,0.087 -0.911,0.629 -0.649,0.491 -0.234,0.123 -0.192,0.53 0.076,0.583 z"
   id="path80" />

							</g>

						</g>

					</g>

					<g
   id="XMLID_4392_">
						<g
   id="XMLID_5060_">
							<g
   id="g81">
								<path
   style="fill:#17265c"
   d="m 572.597,182.539 c -0.194,4.192 0.292,8.898 1.268,12.979 0.059,0.245 0.454,0.256 0.506,0 0.84,-4.116 0.527,-9.123 -0.908,-13.096 -0.167,-0.462 -0.842,-0.395 -0.866,0.117 z"
   id="path81" />

							</g>

						</g>

						<g
   id="XMLID_5053_">
							<g
   id="g82">
								<path
   style="fill:#17265c"
   d="m 572.226,181.949 c -0.822,1.882 -1.231,3.887 -1.756,5.867 -0.531,2.003 -1.254,3.892 -1.036,5.989 0.015,0.147 0.202,0.266 0.32,0.133 1.345,-1.516 1.779,-3.317 2.284,-5.245 0.557,-2.126 1.138,-4.282 1.113,-6.493 -0.004,-0.456 -0.717,-0.726 -0.925,-0.251 z"
   id="path82" />

							</g>

						</g>

						<g
   id="XMLID_5046_">
							<g
   id="g83">
								<path
   style="fill:#17265c"
   d="m 572.174,181.519 c -1.016,1.303 -1.984,2.609 -2.932,3.961 -0.935,1.334 -1.963,2.589 -2.414,4.178 -0.062,0.218 0.181,0.39 0.372,0.286 2.813,-1.539 4.385,-5.12 5.652,-7.902 0.184,-0.405 -0.352,-0.941 -0.678,-0.523 z"
   id="path83" />

							</g>

						</g>

						<g
   id="XMLID_5034_">
							<g
   id="g84">
								<path
   style="fill:#17265c"
   d="m 572.293,181.648 c -1.137,-0.634 -2.942,0.506 -4.027,0.957 -1.462,0.608 -2.671,1.216 -3.827,2.321 -0.18,0.172 -0.05,0.53 0.212,0.512 1.585,-0.107 2.857,-0.577 4.286,-1.241 1.044,-0.485 3.149,-1.076 3.446,-2.327 0.021,-0.083 -0.012,-0.179 -0.09,-0.222 z"
   id="path84" />

							</g>

						</g>

						<g
   id="XMLID_4393_">
							<g
   id="g85">
								<path
   style="fill:#17265c"
   d="m 572.104,180.933 c 0.281,0.147 -0.393,-0.377 -0.565,-0.456 -0.655,-0.3 -1.517,-0.345 -2.224,-0.439 -2.052,-0.274 -3.846,-0.262 -5.868,0.176 -0.256,0.055 -0.244,0.444 0,0.506 1.97,0.502 3.835,0.814 5.863,0.992 0.657,0.058 1.418,0.205 2.076,0.086 0.183,-0.033 0.966,-0.346 0.641,-0.282 0.268,-0.053 0.312,-0.46 0.077,-0.583 z"
   id="path85" />

							</g>

						</g>

					</g>

				</g>

				<g
   id="XMLID_4631_">
					<defs
   id="defs85">
						<path
   id="path86"
   d="m 576.182,321.687 -0.003,1.621 2.981,22.408 2.841,22.456 c 1.837,14.975 3.585,29.959 5.081,44.938 l 12.01,-0.277 c 0.771,-15.195 1.289,-30.372 1.717,-45.547 l 0.556,-22.762 0.41,-22.794 -0.003,1.62 2.809,-19.785 c -9.53,-1.748 -19.085,-3.361 -28.658,-4.856 z" />

					</defs>

					<clipPath
   id="clipPath1">
						<use
   xlink:href="#XMLID_4893_"
   style="overflow:visible"
   id="use1" />

					</clipPath>

					<g
   id="XMLID_4411_"
   clip-path="url(#XMLID_00000096052923286738328060000010267096060038944696_)">
						<g
   id="XMLID_4913_">
							<g
   id="XMLID_941_">
								<path
   id="XMLID_945_"
   style="fill:#e06f6e"
   d="m 617.507,304.449 c -10.397,-2.838 -21.301,-4.32 -31.921,-6.109 -10.041,-1.691 -20.492,-4.169 -30.719,-3.415 -0.773,0.057 -0.912,1.071 -0.181,1.335 10.099,3.645 21.296,4.304 31.846,6.023 10.179,1.659 20.331,3.942 30.569,5.158 1.736,0.206 2.021,-2.552 0.406,-2.992 z" />

							</g>

						</g>

						<g
   id="XMLID_4849_">
							<g
   id="XMLID_4906_">
								<g
   id="XMLID_935_">
									<path
   id="XMLID_939_"
   style="fill:#e06f6e"
   d="m 618.03,322.647 c -9.555,-11.748 -19.397,-23.417 -30.321,-33.926 -0.105,-0.101 -0.254,0.051 -0.159,0.159 10.051,11.377 20.412,22.444 30.135,34.111 0.202,0.242 0.54,-0.104 0.345,-0.344 z" />

								</g>

							</g>

							<g
   id="XMLID_4899_">
								<g
   id="XMLID_929_">
									<path
   id="XMLID_933_"
   style="fill:#e06f6e"
   d="m 623.873,340.558 c -8.384,-7.922 -14.795,-17.688 -22.034,-26.621 -7.668,-9.461 -15.579,-18.792 -24.236,-27.367 -0.1,-0.099 -0.242,0.049 -0.152,0.152 7.988,9.221 16.183,18.248 23.904,27.699 7.179,8.787 13.555,19.036 22.499,26.157 0.013,0.011 0.033,-0.007 0.019,-0.02 z" />

								</g>

							</g>

							<g
   id="XMLID_4892_">
								<g
   id="XMLID_923_">
									<path
   id="XMLID_927_"
   style="fill:#e06f6e"
   d="m 623.735,351.978 c -7.878,-11.7 -17.584,-22.417 -26.73,-33.129 -9.569,-11.206 -19.09,-22.745 -29.702,-32.986 -0.151,-0.145 -0.354,0.069 -0.225,0.225 9.2,11.18 19.272,21.663 28.689,32.667 9.388,10.969 18.071,22.706 27.873,33.297 0.046,0.05 0.134,-0.016 0.095,-0.074 z" />

								</g>

							</g>

							<g
   id="XMLID_4885_">
								<g
   id="XMLID_917_">
									<path
   id="XMLID_921_"
   style="fill:#e06f6e"
   d="m 621.399,362.064 c -17.321,-24.604 -36.359,-49.074 -57.563,-70.46 -0.138,-0.139 -0.334,0.066 -0.212,0.212 9.498,11.422 19.477,22.427 28.89,33.926 9.79,11.959 19.178,24.227 28.521,36.535 0.16,0.211 0.522,0.012 0.364,-0.213 z" />

								</g>

							</g>

							<g
   id="XMLID_4878_">
								<g
   id="XMLID_911_">
									<path
   id="XMLID_915_"
   style="fill:#e06f6e"
   d="m 619.557,370.627 c -8.465,-12.455 -18.69,-23.936 -28.431,-35.4 -10.176,-11.976 -20.44,-23.991 -31.59,-35.078 -0.113,-0.112 -0.273,0.054 -0.172,0.172 9.99,11.765 20.472,23.104 30.487,34.85 9.987,11.713 19.233,24.162 29.529,35.592 0.084,0.094 0.249,-0.029 0.177,-0.136 z" />

								</g>

							</g>

							<g
   id="XMLID_4871_">
								<g
   id="XMLID_905_">
									<path
   id="XMLID_909_"
   style="fill:#e06f6e"
   d="m 616.757,381.124 c -6.978,-11.505 -16.65,-22.227 -25.359,-32.637 -9.535,-11.397 -19.349,-22.582 -29.842,-33.109 -0.15,-0.151 -0.371,0.075 -0.232,0.232 9.632,10.912 19.402,21.698 28.801,32.813 9.395,11.109 18.176,22.688 27.389,33.939 0.141,0.172 0.443,-0.058 0.31,-0.239 -0.277,-0.378 -0.555,-0.757 -0.832,-1.135 -0.101,-0.139 -0.328,-0.017 -0.235,0.136 z" />

								</g>

							</g>

							<g
   id="XMLID_4864_">
								<g
   id="XMLID_899_">
									<path
   id="XMLID_903_"
   style="fill:#e06f6e"
   d="m 614.295,393.128 c -6.968,-11.038 -15.85,-21.219 -24.18,-31.24 -8.784,-10.567 -17.747,-21.13 -27.62,-30.701 -0.11,-0.106 -0.263,0.052 -0.166,0.166 8.731,10.254 17.904,20.114 26.562,30.436 8.63,10.289 16.425,21.357 25.242,31.465 0.077,0.087 0.224,-0.027 0.162,-0.126 z" />

								</g>

							</g>

							<g
   id="XMLID_4857_">
								<g
   id="XMLID_893_">
									<path
   id="XMLID_897_"
   style="fill:#e06f6e"
   d="m 612.86,404.083 c -13.704,-20.007 -30.537,-38.979 -48.03,-55.731 -0.114,-0.109 -0.277,0.056 -0.172,0.172 8.234,9.096 16.609,18.06 24.635,27.343 8.018,9.274 15.469,19.004 23.383,28.358 0.086,0.101 0.26,-0.032 0.184,-0.142 z" />

								</g>

							</g>

							<g
   id="XMLID_4850_">
								<g
   id="XMLID_887_">
									<path
   id="XMLID_891_"
   style="fill:#e06f6e"
   d="m 607.109,414.148 c -14.386,-22.153 -32.044,-42.493 -50.997,-60.831 -0.091,-0.088 -0.227,0.048 -0.139,0.139 18.457,19.132 35.009,39.568 51.007,60.767 0.056,0.076 0.183,0.008 0.129,-0.075 z" />

								</g>

							</g>

						</g>

						<g
   id="XMLID_4412_">
							<g
   id="XMLID_4842_">
								<g
   id="XMLID_881_">
									<path
   id="XMLID_885_"
   style="fill:#e06f6e"
   d="m 565.556,322.991 c 9.724,-11.667 20.085,-22.734 30.135,-34.111 0.095,-0.108 -0.054,-0.26 -0.159,-0.159 -10.924,10.509 -20.766,22.178 -30.321,33.926 -0.196,0.24 0.143,0.587 0.345,0.344 z" />

								</g>

							</g>

							<g
   id="XMLID_4835_">
								<g
   id="XMLID_875_">
									<path
   id="XMLID_879_"
   style="fill:#e06f6e"
   d="m 559.387,340.578 c 8.945,-7.122 15.319,-17.369 22.499,-26.157 7.722,-9.451 15.916,-18.477 23.904,-27.699 0.09,-0.104 -0.053,-0.251 -0.152,-0.152 -8.658,8.575 -16.568,17.906 -24.236,27.367 -7.239,8.933 -13.65,18.699 -22.034,26.621 -0.014,0.013 0.005,0.031 0.019,0.02 z" />

								</g>

							</g>

							<g
   id="XMLID_4828_">
								<g
   id="XMLID_869_">
									<path
   id="XMLID_873_"
   style="fill:#e06f6e"
   d="m 559.601,352.052 c 9.802,-10.59 18.488,-22.327 27.874,-33.297 9.416,-11.005 19.489,-21.487 28.689,-32.667 0.128,-0.156 -0.075,-0.371 -0.225,-0.225 -10.612,10.241 -20.134,21.78 -29.702,32.986 -9.147,10.712 -18.853,21.43 -26.731,33.129 -0.039,0.058 0.048,0.125 0.095,0.074 z" />

								</g>

							</g>

							<g
   id="XMLID_4821_">
								<g
   id="XMLID_863_">
									<path
   id="XMLID_867_"
   style="fill:#e06f6e"
   d="m 562.206,362.276 c 9.343,-12.309 18.731,-24.577 28.521,-36.535 9.413,-11.498 19.392,-22.504 28.89,-33.926 0.121,-0.146 -0.074,-0.352 -0.212,-0.212 -21.204,21.386 -40.242,45.856 -57.563,70.46 -0.159,0.226 0.203,0.425 0.364,0.213 z" />

								</g>

							</g>

							<g
   id="XMLID_4814_">
								<g
   id="XMLID_857_">
									<path
   id="XMLID_861_"
   style="fill:#e06f6e"
   d="m 563.861,370.764 c 10.296,-11.431 19.542,-23.879 29.529,-35.592 10.015,-11.746 20.498,-23.085 30.487,-34.85 0.1,-0.118 -0.059,-0.285 -0.172,-0.172 -11.151,11.087 -21.416,23.101 -31.59,35.078 -9.738,11.465 -19.966,22.945 -28.43,35.4 -0.073,0.105 0.09,0.23 0.176,0.136 z" />

								</g>

							</g>

							<g
   id="XMLID_4798_">
								<g
   id="XMLID_796_">
									<path
   id="XMLID_855_"
   style="fill:#e06f6e"
   d="m 566.249,380.986 c -0.277,0.378 -0.555,0.757 -0.832,1.135 -0.131,0.179 0.168,0.413 0.31,0.239 9.212,-11.251 17.996,-22.828 27.389,-33.939 9.398,-11.117 19.169,-21.901 28.801,-32.813 0.139,-0.157 -0.082,-0.383 -0.232,-0.232 -10.493,10.527 -20.307,21.712 -29.842,33.109 -8.712,10.413 -18.379,21.129 -25.359,32.637 0.092,-0.151 -0.134,-0.273 -0.235,-0.136 z" />

								</g>

							</g>

							<g
   id="XMLID_4788_">
								<g
   id="XMLID_789_">
									<path
   id="XMLID_794_"
   style="fill:#e06f6e"
   d="m 569.107,393.253 c 8.817,-10.107 16.612,-21.176 25.242,-31.465 8.658,-10.322 17.831,-20.182 26.562,-30.436 0.097,-0.114 -0.056,-0.272 -0.166,-0.166 -9.874,9.572 -18.832,20.136 -27.62,30.701 -8.332,10.016 -17.214,20.204 -24.18,31.24 -0.061,0.098 0.085,0.215 0.162,0.126 z" />

								</g>

							</g>

							<g
   id="XMLID_4780_">
								<g
   id="XMLID_782_">
									<path
   id="XMLID_787_"
   style="fill:#e06f6e"
   d="m 570.564,404.225 c 7.915,-9.354 15.366,-19.084 23.383,-28.358 8.026,-9.283 16.401,-18.247 24.635,-27.343 0.105,-0.116 -0.058,-0.281 -0.172,-0.172 -17.493,16.752 -34.326,35.725 -48.03,55.731 -0.074,0.109 0.098,0.244 0.184,0.142 z" />

								</g>

							</g>

							<g
   id="XMLID_4616_">
								<g
   id="XMLID_775_">
									<path
   id="XMLID_780_"
   style="fill:#e06f6e"
   d="m 576.261,414.224 c 15.998,-21.199 32.55,-41.635 51.007,-60.767 0.088,-0.091 -0.048,-0.227 -0.139,-0.139 -18.954,18.338 -36.611,38.678 -50.997,60.831 -0.055,0.082 0.072,0.15 0.129,0.075 z" />

								</g>

							</g>

						</g>

					</g>

				</g>

				<g
   id="XMLID_4406_">
					<defs
   id="defs86">
						<path
   id="path87"
   d="m 646.585,299.392 c -9.534,1.528 -19.047,3.182 -28.538,4.961 l 2.697,18.996 -0.003,-1.624 0.407,22.757 0.554,22.724 c 0.427,15.15 0.946,30.302 1.717,45.472 l 12.01,0.277 c 1.496,-14.954 3.244,-29.912 5.081,-44.861 l 2.843,-22.417 2.984,-22.368 -0.002,-1.624 z" />

					</defs>

					<clipPath
   id="clipPath2">
						<use
   xlink:href="#XMLID_4907_"
   style="overflow:visible"
   id="use2" />

					</clipPath>

					<g
   id="XMLID_4405_"
   clip-path="url(#XMLID_00000128475977922050088700000008087380637426179718_)">
						<g
   id="XMLID_4384_">
							<g
   id="XMLID_768_">
								<path
   id="XMLID_772_"
   style="fill:#e06f6e"
   d="m 609.724,307.441 c 10.238,-1.216 20.391,-3.499 30.569,-5.158 10.552,-1.72 21.746,-2.378 31.846,-6.023 0.726,-0.262 0.598,-1.278 -0.181,-1.335 -10.225,-0.754 -20.68,1.724 -30.719,3.415 -10.621,1.789 -21.523,3.271 -31.921,6.109 -1.596,0.436 -1.346,3.2 0.406,2.992 z" />

							</g>

						</g>

						<g
   id="XMLID_4665_">
							<g
   id="XMLID_4441_">
								<g
   id="XMLID_762_">
									<path
   id="XMLID_766_"
   style="fill:#e06f6e"
   d="m 609.142,322.991 c 9.724,-11.667 20.085,-22.734 30.136,-34.111 0.095,-0.108 -0.054,-0.26 -0.159,-0.159 -10.924,10.509 -20.766,22.178 -30.321,33.926 -0.197,0.24 0.142,0.587 0.344,0.344 z" />

								</g>

							</g>

							<g
   id="XMLID_4603_">
								<g
   id="XMLID_756_">
									<path
   id="XMLID_760_"
   style="fill:#e06f6e"
   d="m 602.973,340.578 c 8.945,-7.122 15.319,-17.369 22.499,-26.157 7.722,-9.451 15.916,-18.477 23.904,-27.699 0.09,-0.104 -0.053,-0.251 -0.153,-0.152 -8.658,8.575 -16.568,17.906 -24.236,27.367 -7.239,8.933 -13.65,18.699 -22.034,26.621 -0.013,0.013 0.006,0.031 0.02,0.02 z" />

								</g>

							</g>

							<g
   id="XMLID_4606_">
								<g
   id="XMLID_750_">
									<path
   id="XMLID_754_"
   style="fill:#e06f6e"
   d="m 603.187,352.052 c 9.802,-10.59 18.488,-22.327 27.874,-33.297 9.416,-11.005 19.489,-21.487 28.689,-32.667 0.128,-0.156 -0.075,-0.371 -0.225,-0.225 -10.612,10.241 -20.134,21.78 -29.702,32.986 -9.147,10.712 -18.853,21.43 -26.731,33.129 -0.039,0.058 0.048,0.125 0.095,0.074 z" />

								</g>

							</g>

							<g
   id="XMLID_4608_">
								<g
   id="XMLID_744_">
									<path
   id="XMLID_748_"
   style="fill:#e06f6e"
   d="m 605.792,362.276 c 9.343,-12.309 18.731,-24.577 28.521,-36.535 9.413,-11.498 19.392,-22.504 28.89,-33.926 0.121,-0.146 -0.074,-0.352 -0.212,-0.212 -21.204,21.386 -40.242,45.856 -57.563,70.46 -0.159,0.226 0.203,0.425 0.364,0.213 z" />

								</g>

							</g>

							<g
   id="XMLID_4615_">
								<g
   id="XMLID_738_">
									<path
   id="XMLID_742_"
   style="fill:#e06f6e"
   d="m 607.447,370.764 c 10.296,-11.431 19.542,-23.879 29.529,-35.592 10.015,-11.746 20.498,-23.085 30.487,-34.85 0.1,-0.118 -0.059,-0.285 -0.172,-0.172 -11.151,11.087 -21.416,23.101 -31.59,35.078 -9.738,11.465 -19.966,22.945 -28.43,35.4 -0.073,0.105 0.09,0.23 0.176,0.136 z" />

								</g>

							</g>

							<g
   id="XMLID_4622_">
								<g
   id="XMLID_732_">
									<path
   id="XMLID_736_"
   style="fill:#e06f6e"
   d="m 609.835,380.986 c -0.278,0.378 -0.555,0.757 -0.833,1.135 -0.131,0.179 0.168,0.413 0.31,0.239 9.212,-11.251 17.996,-22.828 27.389,-33.939 9.398,-11.117 19.169,-21.901 28.801,-32.813 0.139,-0.157 -0.081,-0.383 -0.232,-0.232 -10.493,10.527 -20.307,21.712 -29.842,33.109 -8.712,10.413 -18.379,21.129 -25.359,32.637 0.093,-0.151 -0.133,-0.273 -0.234,-0.136 z" />

								</g>

							</g>

							<g
   id="XMLID_4629_">
								<g
   id="XMLID_726_">
									<path
   id="XMLID_730_"
   style="fill:#e06f6e"
   d="m 612.693,393.253 c 8.817,-10.107 16.612,-21.176 25.242,-31.465 8.658,-10.322 17.831,-20.182 26.562,-30.436 0.097,-0.114 -0.056,-0.272 -0.166,-0.166 -9.874,9.572 -18.832,20.136 -27.62,30.701 -8.332,10.016 -17.214,20.204 -24.18,31.24 -0.061,0.098 0.085,0.215 0.162,0.126 z" />

								</g>

							</g>

							<g
   id="XMLID_4637_">
								<g
   id="XMLID_720_">
									<path
   id="XMLID_724_"
   style="fill:#e06f6e"
   d="m 614.15,404.225 c 7.915,-9.354 15.366,-19.084 23.383,-28.358 8.026,-9.283 16.401,-18.247 24.635,-27.343 0.105,-0.116 -0.058,-0.281 -0.172,-0.172 -17.493,16.752 -34.326,35.725 -48.03,55.731 -0.074,0.109 0.098,0.244 0.184,0.142 z" />

								</g>

							</g>

							<g
   id="XMLID_4644_">
								<g
   id="XMLID_714_">
									<path
   id="XMLID_718_"
   style="fill:#e06f6e"
   d="m 619.847,414.224 c 15.998,-21.199 32.55,-41.635 51.007,-60.767 0.088,-0.091 -0.048,-0.227 -0.139,-0.139 -18.954,18.338 -36.611,38.678 -50.997,60.831 -0.054,0.082 0.072,0.15 0.129,0.075 z" />

								</g>

							</g>

						</g>

						<g
   id="XMLID_4651_">
							<g
   id="XMLID_4754_">
								<g
   id="XMLID_708_">
									<path
   id="XMLID_712_"
   style="fill:#e06f6e"
   d="m 661.616,322.647 c -9.555,-11.748 -19.397,-23.417 -30.321,-33.926 -0.105,-0.101 -0.254,0.051 -0.159,0.159 10.051,11.377 20.412,22.444 30.136,34.111 0.201,0.242 0.539,-0.104 0.344,-0.344 z" />

								</g>

							</g>

							<g
   id="XMLID_4747_">
								<g
   id="XMLID_702_">
									<path
   id="XMLID_706_"
   style="fill:#e06f6e"
   d="m 667.459,340.558 c -8.384,-7.922 -14.795,-17.688 -22.034,-26.621 -7.668,-9.461 -15.578,-18.792 -24.236,-27.367 -0.1,-0.099 -0.242,0.049 -0.153,0.152 7.988,9.221 16.183,18.248 23.905,27.699 7.179,8.787 13.555,19.036 22.499,26.157 0.013,0.011 0.033,-0.007 0.019,-0.02 z" />

								</g>

							</g>

							<g
   id="XMLID_4740_">
								<g
   id="XMLID_696_">
									<path
   id="XMLID_700_"
   style="fill:#e06f6e"
   d="m 667.321,351.978 c -7.878,-11.7 -17.584,-22.417 -26.731,-33.129 -9.568,-11.206 -19.09,-22.745 -29.702,-32.986 -0.15,-0.145 -0.354,0.069 -0.225,0.225 9.2,11.18 19.272,21.663 28.689,32.667 9.387,10.969 18.071,22.706 27.873,33.297 0.047,0.05 0.135,-0.016 0.096,-0.074 z" />

								</g>

							</g>

							<g
   id="XMLID_4733_">
								<g
   id="XMLID_690_">
									<path
   id="XMLID_694_"
   style="fill:#e06f6e"
   d="m 664.985,362.064 c -17.321,-24.604 -36.359,-49.074 -57.563,-70.46 -0.138,-0.139 -0.334,0.066 -0.212,0.212 9.498,11.422 19.477,22.427 28.89,33.926 9.79,11.959 19.178,24.227 28.521,36.535 0.16,0.211 0.522,0.012 0.364,-0.213 z" />

								</g>

							</g>

							<g
   id="XMLID_4726_">
								<g
   id="XMLID_684_">
									<path
   id="XMLID_688_"
   style="fill:#e06f6e"
   d="m 663.143,370.627 c -8.465,-12.455 -18.69,-23.936 -28.43,-35.4 -10.176,-11.976 -20.44,-23.991 -31.59,-35.078 -0.113,-0.112 -0.273,0.054 -0.172,0.172 9.99,11.765 20.472,23.104 30.487,34.85 9.987,11.713 19.233,24.162 29.529,35.592 0.083,0.094 0.248,-0.029 0.176,-0.136 z" />

								</g>

							</g>

							<g
   id="XMLID_4719_">
								<g
   id="XMLID_678_">
									<path
   id="XMLID_682_"
   style="fill:#e06f6e"
   d="m 660.343,381.124 c -6.978,-11.505 -16.65,-22.227 -25.359,-32.637 -9.535,-11.397 -19.349,-22.582 -29.842,-33.109 -0.151,-0.151 -0.371,0.075 -0.232,0.232 9.632,10.912 19.401,21.698 28.801,32.813 9.395,11.109 18.177,22.688 27.389,33.939 0.141,0.172 0.443,-0.058 0.31,-0.239 -0.277,-0.378 -0.555,-0.757 -0.833,-1.135 -0.1,-0.139 -0.327,-0.017 -0.234,0.136 z" />

								</g>

							</g>

							<g
   id="XMLID_4712_">
								<g
   id="XMLID_676_">
									<path
   id="XMLID_1806_"
   style="fill:#e06f6e"
   d="m 657.881,393.128 c -6.968,-11.038 -15.85,-21.219 -24.18,-31.24 -8.784,-10.567 -17.747,-21.13 -27.62,-30.701 -0.11,-0.106 -0.263,0.052 -0.166,0.166 8.731,10.254 17.904,20.114 26.562,30.436 8.63,10.289 16.425,21.357 25.242,31.465 0.077,0.087 0.224,-0.027 0.162,-0.126 z" />

								</g>

							</g>

							<g
   id="XMLID_4700_">
								<g
   id="XMLID_1807_">
									<path
   id="XMLID_1816_"
   style="fill:#e06f6e"
   d="m 656.446,404.083 c -13.704,-20.007 -30.537,-38.979 -48.03,-55.731 -0.114,-0.109 -0.277,0.056 -0.172,0.172 8.234,9.096 16.609,18.06 24.635,27.343 8.018,9.274 15.469,19.004 23.383,28.358 0.086,0.101 0.26,-0.032 0.184,-0.142 z" />

								</g>

							</g>

							<g
   id="XMLID_4658_">
								<g
   id="XMLID_1808_">
									<path
   id="XMLID_1812_"
   style="fill:#e06f6e"
   d="m 650.695,414.148 c -14.386,-22.153 -32.043,-42.493 -50.997,-60.831 -0.091,-0.088 -0.227,0.048 -0.139,0.139 18.457,19.132 35.009,39.568 51.007,60.767 0.056,0.076 0.183,0.008 0.129,-0.075 z" />

								</g>

							</g>

						</g>

					</g>

				</g>

				<g
   id="XMLID_4367_">
					<path
   id="XMLID_4466_"
   style="fill:#17265c"
   d="m 636.646,410.953 c 0.634,-5.045 1.306,-10.085 2.01,-15.121 0.463,-3.314 0.942,-6.625 1.435,-9.934 -1.646,1.588 -3.198,4.105 -4.574,7.365 -4.424,-3.334 -9.427,-5.895 -14.733,-7.475 0.625,7.897 1.253,15.793 1.881,23.689 -1.471,4.634 -2.542,9.393 -3.191,14.211 h 7.323 c 0.12,-1.36 0.25,-2.72 0.378,-4.079 1.175,1.335 2.322,2.693 3.436,4.079 h 26.652 c -5.728,-5.649 -13.046,-9.668 -20.617,-12.735 z" />

				</g>

				<g
   id="XMLID_4432_">
					<path
   id="XMLID_4440_"
   style="fill:#17265c"
   d="m 585.84,410.953 c -0.634,-5.045 -1.306,-10.085 -2.01,-15.121 -0.463,-3.314 -0.942,-6.625 -1.435,-9.934 1.646,1.588 3.198,4.105 4.574,7.365 4.424,-3.334 9.427,-5.895 14.733,-7.475 -0.625,7.897 -1.253,15.793 -1.881,23.689 1.471,4.634 2.542,9.393 3.191,14.211 h -7.323 c -0.12,-1.36 -0.25,-2.72 -0.378,-4.079 -1.175,1.335 -2.322,2.693 -3.436,4.079 h -26.652 c 5.727,-5.649 13.045,-9.668 20.617,-12.735 z" />

				</g>

			</g>

		</g>
  </g>
</svg>
