<?xml version="1.0" encoding="UTF-8" standalone="no"?>
<!-- Created with Inkscape (http://www.inkscape.org/) -->

<svg
   width="25.165331mm"
   height="79.059982mm"
   viewBox="0 0 25.165331 79.059984"
   version="1.1"
   id="svg1"
   inkscape:version="1.4.2 (f4327f4, 2025-05-13)"
   sodipodi:docname="genman8.svg"
   xmlns:inkscape="http://www.inkscape.org/namespaces/inkscape"
   xmlns:sodipodi="http://sodipodi.sourceforge.net/DTD/sodipodi-0.dtd"
   xmlns="http://www.w3.org/2000/svg"
   xmlns:svg="http://www.w3.org/2000/svg">
  <sodipodi:namedview
     id="namedview1"
     pagecolor="#ffffff"
     bordercolor="#000000"
     borderopacity="0.25"
     inkscape:showpageshadow="2"
     inkscape:pageopacity="0.0"
     inkscape:pagecheckerboard="0"
     inkscape:deskcolor="#d1d1d1"
     inkscape:document-units="mm"
     inkscape:zoom="1.2275954"
     inkscape:cx="310.36284"
     inkscape:cy="-30.140224"
     inkscape:window-width="2880"
     inkscape:window-height="1676"
     inkscape:window-x="-12"
     inkscape:window-y="-12"
     inkscape:window-maximized="1"
     inkscape:current-layer="layer1" />
  <defs
     id="defs1" />
  <g
     inkscape:label="图层 1"
     inkscape:groupmode="layer"
     id="layer1"
     transform="translate(-22.490869,-156.36769)">
    <path
       d="m 47.508603,186.19785 c 0.178858,-0.50827 0.195791,-1.07209 0.04736,-1.58988 -0.07038,-0.24527 -0.177271,-0.48551 -0.181504,-0.74084 -0.0026,-0.14922 0.03043,-0.29686 0.04551,-0.44555 0.0254,-0.25453 -0.0029,-0.51065 -0.02778,-0.76518 -0.281781,-2.86835 -0.302154,-5.88327 -0.820737,-8.71855 -0.116152,-0.63473 -0.284957,-1.30201 -0.750888,-1.7481 -0.175419,-0.16801 -0.386292,-0.29713 -0.552979,-0.47387 -0.166688,-0.17674 -0.288396,-0.42518 -0.225425,-0.65987 -1.630363,-0.68501 -3.185319,-1.54728 -4.63206,-2.56408 -0.05662,-0.0519 -0.115359,-0.10107 -0.179123,-0.14367 -0.06138,-0.041 -0.125413,-0.0757 -0.191029,-0.10609 -0.03149,-0.0841 -0.112978,-0.14738 -0.188119,-0.2032 -0.786606,-0.58315 -1.160198,-1.5838 -1.269736,-2.55694 -0.02646,-0.23574 -0.03969,-0.47228 -0.04524,-0.70935 0.17436,-1.66846 0.192087,-3.35041 0.207433,-5.02893 0.0024,-0.27067 0.0048,-0.54398 -0.05265,-0.80857 -0.02646,-0.12144 -0.06535,-0.24183 -0.068,-0.36592 -0.0013,-0.0601 0.0058,-0.12117 -0.0095,-0.17912 -0.01799,-0.0677 -0.06509,-0.12356 -0.11086,-0.17648 -0.218017,-0.25082 -0.434446,-0.50773 -0.684478,-0.7276 -0.146843,-0.12885 -0.257968,-0.24844 -0.389202,-0.30189 -0.01799,-0.0328 -0.03836,-0.0653 -0.06271,-0.0968 -0.185208,-0.24156 -0.476779,-0.36433 -0.755121,-0.46513 -0.128587,-0.0466 -0.257704,-0.0923 -0.391318,-0.12171 -0.141553,-0.031 -0.28628,-0.0431 -0.430742,-0.055 -0.284692,-0.0235 -0.569383,-0.0474 -0.85434,-0.0709 -0.09208,-0.008 -0.187589,-0.0151 -0.274902,0.0151 -0.08996,0.0307 -0.161925,0.0974 -0.238125,0.15398 -0.2667,0.19712 -0.602721,0.27676 -0.932656,0.30904 -0.329935,0.0323 -0.66331,0.022 -0.992452,0.0619 -0.03096,0.004 -0.0635,0.008 -0.0889,0.027 -0.02699,0.0196 -0.0418,0.0513 -0.06323,0.0767 -0.04789,0.0574 -0.124884,0.0794 -0.197115,0.0984 -0.374385,0.099 -0.748771,0.19791 -1.123156,0.29686 -0.03466,0.009 -0.07064,0.0191 -0.09895,0.0413 -0.128323,0.10133 0.01349,0.31009 -0.0254,0.46911 -0.03625,0.14843 -0.217223,0.20902 -0.301625,0.33655 -0.128059,0.19367 0.0024,0.47281 -0.105305,0.67839 -0.0164,0.0312 -0.03836,0.0609 -0.04313,0.096 -0.01455,0.10557 0.124354,0.16722 0.157427,0.26855 0.0217,0.0664 -0.0058,0.13944 0.0048,0.20876 0.01799,0.12012 0.141552,0.19658 0.183885,0.31036 0.0217,0.0582 0.02619,0.12726 0.04313,0.18653 -0.06985,0.4691 -0.115093,0.94403 -0.06588,1.41737 0.01164,0.11324 0.02884,0.22622 0.0254,0.33999 -0.0053,0.17357 -0.01614,0.35745 -0.09816,0.51065 -0.192352,0.35851 -0.362479,0.47863 -0.364596,0.76385 -2.65e-4,0.0481 5.29e-4,0.0982 0.02196,0.14155 0.02381,0.0484 0.06959,0.0812 0.106627,0.12065 0.145521,0.15452 0.40693,0.47413 0.4191,0.68606 0.01244,0.21088 0.04524,0.4199 0.07779,0.62865 0.0545,0.3482 0.109273,0.69612 0.163777,1.04431 0.05397,0.3429 0.107685,0.6858 0.161396,1.0287 0.0093,0.0598 0.02037,0.12277 0.0598,0.16854 0.03995,0.0458 0.101335,0.0654 0.159543,0.0828 0.316442,0.0947 0.640292,0.18653 0.970492,0.17648 0.324644,-0.01 0.631031,-0.11642 0.931333,-0.2466 0.0087,0.0341 0.01879,0.068 0.02699,0.10213 0.138906,0.58209 0.237331,1.22158 0.05371,1.80102 -0.871537,0.37545 -1.743075,0.75062 -2.614612,1.12607 -0.07382,0.0172 -0.155311,0.0426 -0.246592,0.0762 -0.759089,0.28151 -1.499129,0.72972 -2.23176,1.07976 0.2032,1.52533 0.128587,3.07234 0.05345,4.60904 -0.08599,1.76081 -0.17198,3.52187 -0.257969,5.28268 -0.0545,1.1131 -0.109802,2.23334 -0.364596,3.3184 -0.245004,1.04325 -0.67019,2.03491 -1.125537,3.00487 -0.600869,1.28032 -0.968111,2.03915 -1.678782,3.26205 -0.319616,0.55007 -0.661723,1.19221 -0.443177,1.78991 0.05689,0.15531 0.14949,0.29263 0.253206,0.42254 -0.131233,0.007 -0.258497,0.036 -0.373062,0.0979 -0.595048,0.32094 -1.050925,0.97446 -1.458383,1.49384 -0.213519,0.27226 -0.436827,0.56965 -0.449263,0.91546 -0.0085,0.2405 0.08758,0.47334 0.09551,0.71384 0.01058,0.32015 -0.135202,0.62627 -0.154252,0.94589 -0.03836,0.63897 0.419629,1.18824 0.849841,1.66238 0.04101,0.0452 0.08467,0.0921 0.142611,0.11139 0.121973,0.0402 0.251618,-0.0664 0.287866,-0.18945 0.03625,-0.12303 0.0069,-0.25453 -0.01667,-0.38047 -0.08864,-0.47836 -0.08758,-0.9734 0.0034,-1.45124 0.02593,-0.13679 0.06085,-0.27569 0.138642,-0.39105 0.0508,-0.0751 0.118004,-0.13758 0.184679,-0.19923 0.21881,-0.20241 0.437356,-0.40455 0.656167,-0.60696 0.05477,0.2159 -0.04736,0.44133 -0.176742,0.62257 -0.129381,0.1815 -0.290248,0.34422 -0.378619,0.54874 -0.08837,0.20453 -0.08229,0.47467 0.09022,0.61595 0.242888,0.0992 0.494771,-0.13546 0.60669,-0.37279 0.111919,-0.23734 0.181504,-0.52044 0.402166,-0.66279 0.08784,-0.0566 0.190765,-0.0839 0.28575,-0.12752 0.198703,-0.091 0.357982,-0.25056 0.492919,-0.42228 0.220134,-0.28019 0.388938,-0.60669 0.446881,-0.95806 0.01905,-0.11615 0.02302,-0.23415 0.01693,-0.35163 0.391583,0.25242 0.816504,0.42678 1.285875,0.4572 0.460904,-0.87339 0.898789,-1.75101 1.311539,-2.63339 -0.07408,1.74069 -0.211402,3.95181 -0.718608,5.08343 0.327554,0.0897 0.651669,0.16378 0.974196,0.23072 0.02858,0.79481 0.06747,1.51395 0.08123,2.03359 0.06932,2.60218 0.18415,10.57936 0.392906,11.21595 0.288661,0.88053 0.236538,1.87061 0.226748,2.83342 -0.02037,1.99258 0.151871,3.96161 0.514085,5.87137 0.14023,0.73925 0.318823,1.31392 0.580496,2.00528 0.399257,1.05436 0.798248,2.10899 1.197504,3.16362 0.353484,0.93372 0.688975,2.04364 0.103188,2.98821 -0.115094,0.18547 -0.269875,0.40137 -0.192352,0.58076 0.04921,0.11377 0.1778,0.16483 0.25691,0.25797 0.250561,0.29448 -0.08043,0.79216 -0.06191,1.19882 2.64e-4,0.008 0.0034,0.0143 0.004,0.022 -0.06879,0.11324 -0.140494,0.22463 -0.226748,0.32703 -0.311944,0.37015 -0.675482,0.69691 -1.077913,0.96573 -1.009914,0.67495 -2.218267,0.96996 -3.394075,1.27529 -0.08176,0.0212 -0.167746,0.0452 -0.225954,0.10636 -0.06032,0.0635 -0.07911,0.15505 -0.09234,0.24157 -0.03836,0.254 -0.04974,0.51223 -0.03439,0.76861 0.004,0.0664 0.01032,0.13441 0.04128,0.19341 0.04022,0.0765 0.116152,0.12674 0.192352,0.16748 0.279664,0.14976 0.596106,0.21352 0.908314,0.26829 0.642938,0.11218 1.291696,0.19235 1.942571,0.23971 0.488685,0.0357 0.981604,0.0526 1.467379,-0.0109 0.411956,-0.054 0.814123,-0.16536 1.216554,-0.26855 1.380596,-0.35375 2.785534,-0.61304 4.201319,-0.77576 0.0087,-0.66251 -0.05715,-1.32582 -0.195527,-1.97379 -0.06853,-0.32067 -0.161396,-0.64532 -0.316971,-0.93054 0.414338,-0.26405 1.052777,-0.50826 0.8636,-0.72416 0.609865,-0.27411 -0.62521,-4.57041 -0.477837,-5.02365 0.221456,-0.68024 0.243945,-1.38112 0.255323,-2.06877 0.02672,-1.64174 -0.709084,-4.19497 -0.788194,-5.82084 -0.03784,-0.77681 -0.307711,-3.41074 -0.35269,-3.59727 -0.13626,-0.56436 -0.102923,-1.48537 -0.02249,-2.08862 0.103452,-0.77841 -0.217223,-1.50019 -0.187325,-2.27515 0.01138,-0.29396 0.07329,-0.58923 0.138377,-0.88424 0.04101,0.41883 0.08202,0.83767 0.123031,1.25651 0.06297,0.6424 0.143933,1.32926 0.564356,1.81927 0.138113,0.16087 0.314854,0.30533 0.367506,0.51091 0.137319,0.53578 -0.649552,1.01097 -0.466989,1.533 0.587904,0.56912 0.8128,1.40599 1.013354,2.19948 0.637117,2.52068 1.274233,5.04137 1.91135,7.56205 0.223308,0.88345 0.446881,1.81214 0.218546,2.69426 -0.108215,0.41751 -0.301096,0.90778 -0.02514,1.2393 0.207963,0.24977 0.613834,0.29078 0.774436,0.57362 0.147373,0.25982 0.0127,0.58288 0.0172,0.88159 0.0077,0.49874 0.398727,0.89271 0.661194,1.31683 0.262466,0.42413 0.346868,1.08929 -0.08917,1.33112 0.05874,0.0233 0.118798,0.0437 0.178065,0.0661 -0.01032,0.0156 -0.02064,0.0317 -0.03122,0.0471 -0.646907,0.95594 -1.441186,1.8124 -2.348177,2.52651 -0.164042,0.12938 -0.335227,0.2577 -0.448469,0.43312 -0.160338,0.24845 -0.184679,0.55933 -0.182563,0.85514 5.3e-4,0.072 0.0029,0.14658 0.03413,0.2114 0.06271,0.13097 0.219075,0.18283 0.359833,0.21828 1.250421,0.31406 2.5527,0.34184 3.84175,0.36751 0.272521,0.006 0.549275,0.0103 0.812535,-0.0593 0.3048,-0.0804 0.574411,-0.25612 0.8382,-0.42915 0.450057,-0.29502 0.900113,-0.59003 1.349904,-0.88504 0.109538,-0.0717 0.223573,-0.14843 0.284692,-0.26405 0.04868,-0.0918 0.05874,-0.19844 0.06535,-0.30215 0.02725,-0.42731 0.01138,-0.85725 -0.04736,-1.28138 -0.03678,-0.26617 -0.09128,-0.53208 -0.194469,-0.77999 -0.03175,-0.0762 -0.0725,-0.14738 -0.112183,-0.21934 0.278077,-0.66305 0.06641,-1.52691 -0.534723,-1.9394 0.702733,-0.29025 0.989541,-1.28931 0.547952,-1.90817 -0.131763,-0.18442 -0.314854,-0.33708 -0.397669,-0.54822 -0.08255,-0.21034 -0.05239,-0.44529 -0.0336,-0.67045 0.132556,-1.57824 -0.348456,-3.13346 -0.664104,-4.68551 -0.579967,-2.85115 -0.606954,-5.78194 -0.900377,-8.67648 -0.02963,-0.29263 -0.06191,-0.59029 -0.005,-0.87895 0.04683,-0.23812 0.1524,-0.46064 0.216164,-0.69479 0.121973,-0.44794 0.08731,-0.92155 0.05054,-1.38404 -0.235479,-2.95989 -0.52414,-5.91529 -0.854075,-8.86619 0.0069,0.003 0.01217,0.008 0.01931,0.0101 0.145521,0.0368 0.277019,-0.0916 0.366977,-0.21193 0.403225,-0.53817 0.679186,-1.17105 0.799307,-1.83251 0.04154,-0.003 0.08387,0.007 0.119591,0.0283 -0.02752,0.6522 -0.238918,1.29567 -0.602985,1.83727 -0.0717,0.10636 -0.152929,0.2331 -0.108479,0.35348 0.06271,0.17066 0.304271,0.16722 0.479689,0.11907 0.169334,-0.0466 0.354013,-0.12145 0.422275,-0.28364 0.02011,-0.0474 0.02857,-0.10001 0.05715,-0.14287 0.05662,-0.0844 0.169069,-0.10372 0.265642,-0.13468 0.313531,-0.10054 0.547423,-0.41169 0.556683,-0.74109 0.249767,-0.058 0.548482,-0.16616 0.586846,-0.41937 0.0077,-0.0505 0.0037,-0.10424 0.02619,-0.15002 0.03281,-0.0672 0.110067,-0.0968 0.169333,-0.14208 0.193411,-0.14764 0.1778,-0.43577 0.178329,-0.67918 7.94e-4,-0.47202 0.132292,-0.9324 0.230717,-1.39409 0.09816,-0.4617 0.162983,-0.94748 0.03228,-1.40097 -0.06006,-0.20902 -0.19341,-0.3937 -0.299773,-0.5842 0.311679,-0.0812 0.616215,-0.18918 0.909373,-0.32279 0.05953,-1.50469 0.09102,-3.01043 0.09446,-4.51618 0.0011,-0.44397 -5.29e-4,-0.88847 -0.04022,-1.33059 -0.08705,-0.96705 -0.286809,-1.90235 0.03493,-2.81622 z m -4.725194,11.1416 c 0.08414,-0.0262 0.171979,-0.0564 0.259292,-0.0857 -0.01164,0.17595 -0.02752,0.35163 -0.03545,0.52758 -0.0095,0.20928 -0.02143,0.42465 -0.08811,0.62097 -0.04313,-0.35454 -0.09155,-0.70829 -0.135731,-1.06283 z m 0.383381,2.97366 c -0.0077,0.0167 -0.01535,0.0333 -0.02328,0.0497 -0.04895,-0.42863 -0.09551,-0.85752 -0.146315,-1.28561 0.20029,-0.0212 0.392907,-0.13997 0.478632,-0.32385 0.02249,0.53472 -0.0844,1.0742 -0.309034,1.55972 z m 0.250561,-4.60667 c -0.08467,0.12409 -0.169863,0.24924 -0.22569,0.38841 -0.03916,0.0979 -0.06244,0.20056 -0.07885,0.3048 -0.174889,-1.5949 -0.402166,-3.42291 -0.412221,-4.92839 -0.01244,-1.8923 0.249767,-3.86001 0.796132,-5.66235 0.142346,-0.46963 0.321998,-0.92789 0.503766,-1.38509 0.05477,0.21378 0.108215,0.42809 0.160338,0.64241 0.02408,0.0984 0.04604,0.20055 0.02514,0.29977 -0.538691,2.53127 0.04551,4.79584 -0.05027,6.57146 -0.05212,0.96625 -0.316177,1.91187 -0.365918,2.8784 0.06059,0.0344 0.123296,0.0683 0.186531,0.10133 -0.179652,0.263 -0.359304,0.52626 -0.538956,0.78925 z"
       id="path3"
       style="stroke-width:0.264583" />
  </g>
</svg>
