<?xml version="1.0" encoding="UTF-8" standalone="no"?>
<!-- Created with Inkscape (http://www.inkscape.org/) -->

<svg
   width="22.762939mm"
   height="75.860481mm"
   viewBox="0 0 22.762939 75.860482"
   version="1.1"
   id="svg1"
   inkscape:version="1.4.2 (f4327f4, 2025-05-13)"
   sodipodi:docname="genman5.svg"
   xmlns:inkscape="http://www.inkscape.org/namespaces/inkscape"
   xmlns:sodipodi="http://sodipodi.sourceforge.net/DTD/sodipodi-0.dtd"
   xmlns="http://www.w3.org/2000/svg"
   xmlns:svg="http://www.w3.org/2000/svg">
  <sodipodi:namedview
     id="namedview1"
     pagecolor="#ffffff"
     bordercolor="#000000"
     borderopacity="0.25"
     inkscape:showpageshadow="2"
     inkscape:pageopacity="0.0"
     inkscape:pagecheckerboard="0"
     inkscape:deskcolor="#d1d1d1"
     inkscape:document-units="mm"
     inkscape:zoom="1.2275954"
     inkscape:cx="21.994217"
     inkscape:cy="-17.106613"
     inkscape:window-width="2880"
     inkscape:window-height="1676"
     inkscape:window-x="-12"
     inkscape:window-y="-12"
     inkscape:window-maximized="1"
     inkscape:current-layer="layer1" />
  <defs
     id="defs1" />
  <g
     inkscape:label="图层 1"
     inkscape:groupmode="layer"
     id="layer1"
     transform="translate(-99.218781,-152.92847)">
    <path
       d="m 121.77617,192.41057 c 0.0151,-0.0413 0.0283,-0.0836 0.0386,-0.12674 0.12065,-0.50324 -0.14287,-1.01097 -0.39555,-1.4523 -0.0405,-0.0706 -0.0799,-0.14525 -0.11959,-0.22119 0.23336,-0.17118 0.45852,-0.35666 0.68209,-0.54213 -0.90778,-2.76304 -0.79851,-5.7957 -1.42266,-8.65029 -0.0431,-0.19685 -0.09,-0.39634 -0.0823,-0.59848 0.0143,-0.3691 0.17304,-0.83688 -0.11006,-1.04087 0.3048,-0.0849 0.25135,-0.56383 0.18706,-0.89906 -0.0585,-0.30533 -0.0653,-0.61912 -0.068,-0.93107 -0.0183,-2.04205 0.12753,-4.08569 0.43497,-6.09997 0.16325,-1.06891 0.37174,-2.16535 0.16405,-3.225 -0.11034,-0.5633 -0.61913,-1.74387 -1.27053,-1.98729 -0.10398,-0.0656 -0.21273,-0.12515 -0.322,-0.17965 -0.78211,-0.39052 -1.59914,-0.71014 -2.43867,-0.95382 -0.68289,-0.19844 -1.49516,-0.45218 -1.6891,-1.13639 -0.0685,-0.24156 -0.0616,-0.53181 -0.18864,-0.73025 0.18732,0.0381 0.37465,0.0746 0.56224,0.11139 0.20928,0.041 0.45032,0.0744 0.61462,-0.0611 0.14605,-0.12065 0.17489,-0.33046 0.18389,-0.5199 0.0132,-0.27755 0.007,-0.55589 -0.0193,-0.83238 -0.01,-0.10398 -0.0214,-0.21405 0.0241,-0.30798 0.0476,-0.0987 0.15584,-0.17621 0.15002,-0.28548 -0.005,-0.0878 -0.0855,-0.17039 -0.0542,-0.25268 0.014,-0.037 0.0479,-0.0622 0.0733,-0.0926 0.16378,-0.19633 -0.0603,-0.52361 0.073,-0.74163 0.0532,-0.0871 0.15108,-0.13362 0.23178,-0.19579 0.0807,-0.0622 0.15134,-0.16563 0.11456,-0.26062 -0.0148,-0.0384 -0.0447,-0.0683 -0.0735,-0.0974 -0.2323,-0.23654 -0.43603,-0.51091 -0.53419,-0.82736 -0.0982,-0.3167 -0.0786,-0.68077 0.10662,-0.95567 0.0286,-0.0426 0.0617,-0.0841 0.0738,-0.13415 0.0159,-0.0653 -0.007,-0.13361 -0.0291,-0.19711 -0.21061,-0.59902 -0.40561,-1.20624 -0.63236,-1.79943 -2.6e-4,-5.3e-4 -5.3e-4,-7.9e-4 -7.9e-4,-0.002 0.0603,-0.006 0.12065,-0.0106 0.18098,-0.0177 0.0836,-0.01 0.17277,-0.0233 0.23574,-0.0791 0.15769,-0.1397 0.0368,-0.39634 -0.09,-0.56488 0.11748,0.0833 0.29316,-0.022 0.33205,-0.16087 0.0386,-0.1389 -0.0148,-0.28522 -0.0709,-0.41778 -0.12726,-0.30162 -0.27199,-0.5961 -0.43259,-0.88132 0.0661,-0.003 0.13203,-0.007 0.19817,-0.01 -0.12514,-0.44265 -0.55218,-0.78211 -1.01176,-0.80407 -0.24448,-0.0116 -0.49927,0.0566 -0.72946,-0.027 -0.14684,-0.0534 -0.26643,-0.16351 -0.4101,-0.22489 -0.17727,-0.0754 -0.37677,-0.0709 -0.56939,-0.0654 -0.54954,0.0164 -1.09934,0.0328 -1.64888,0.0492 -0.61727,0.0185 -1.27291,0.0489 -1.78091,0.40005 -0.0807,0.0558 -0.16298,0.1217 -0.26088,0.12858 -0.0749,0.005 -0.14764,-0.0249 -0.22251,-0.027 -0.10346,-0.003 -0.20056,0.0479 -0.28814,0.10318 -0.54715,0.34634 -0.99007,1.01706 -1.01732,1.67667 -0.006,0.15293 0.0198,0.2794 0.068,0.38735 -0.10636,0.18044 -0.20373,0.3675 -0.31671,0.55642 -0.16563,0.27702 -0.23944,0.58023 -0.22886,0.90328 0.0124,0.38259 0.12647,0.75354 0.23918,1.11919 0.22781,0.73819 0.458,1.48167 0.82153,2.1635 0.29872,0.56039 0.68792,1.08003 0.87868,1.6854 0.12833,0.40745 0.16008,0.83608 0.1741,1.2647 -0.11007,-0.0249 -0.22331,-0.0362 -0.33576,-0.0296 -0.11244,0.32544 -0.22463,0.65088 -0.33708,0.97631 -0.04,0.11563 -0.0881,0.24157 -0.19526,0.30083 -0.0788,0.0437 -0.17409,0.0421 -0.26167,0.0635 -0.127,0.0315 -0.23548,0.11139 -0.34158,0.18839 -1.60258,1.16205 -3.45704,1.97458 -5.39776,2.36458 -0.0857,0.0172 -0.18045,0.0394 -0.2294,0.11165 -0.0127,0.0188 -0.0201,0.04 -0.0264,0.0617 -0.0159,-0.0111 -0.0267,-0.0146 -0.0318,-0.009 -0.42757,0.44371 -0.55748,1.08691 -0.68025,1.69069 -0.59849,2.94375 -1.46949,5.83194 -2.597942,8.61589 -0.184679,0.45535 -0.378354,0.91652 -0.42492,1.40547 -0.03678,0.38549 0.01958,0.77337 0.07567,1.15649 0.04022,0.27332 0.08096,0.5498 0.182298,0.80672 0.128059,0.32517 0.346869,0.6051 0.562504,0.88026 1.35123,1.72191 2.70272,3.44356 4.05395,5.16546 0.0431,0.055 0.0894,0.11245 0.15425,0.13917 0.10398,0.0429 0.22172,-0.006 0.3212,-0.0587 0.0611,-0.0325 0.11377,-0.0688 0.17145,-0.10293 0.0886,0.11007 0.17965,0.2167 0.26935,0.31962 -0.0452,0.64744 -0.0945,1.29487 -0.13494,1.95554 -0.0712,1.16099 -0.34343,2.29923 -0.60881,3.43164 -0.0505,0.21511 -0.0979,0.45323 0.007,0.6477 0.0844,0.15558 0.24898,0.24739 0.40508,0.331 0.3646,0.19526 0.73184,0.39026 1.10596,0.56885 0.0998,0.32544 0.21696,0.6305 0.28813,0.86043 0.42518,1.37689 0.85222,2.75325 1.2782,4.12988 0.46937,1.51632 0.93874,3.03265 1.40811,4.54898 0.23442,0.75724 0.47176,1.53458 0.44636,2.33309 -0.01,0.30586 -0.0548,0.63051 0.0722,0.90408 0.0656,0.14129 0.17198,0.25453 0.25611,0.38365 0.20056,0.30692 0.27067,0.69056 0.31618,1.06363 0.01,0.0765 0.0164,0.15345 0.0243,0.23018 -0.10266,0.54796 -0.20505,1.09564 -0.30771,1.64359 -0.1569,0.8382 -0.31459,1.68196 -0.32993,2.53736 -0.006,0.31512 0.007,0.63685 -0.0762,0.93901 -0.14341,0.5199 -0.58844,0.92551 -1.08532,0.98927 0.31168,0.92075 0.62838,1.88807 0.50297,2.85962 -0.0844,0.65405 -0.34131,1.4052 0.003,1.92431 -0.01,0.35349 -0.0175,0.70723 -0.0262,1.06072 -0.006,0.2204 -0.0106,0.44476 0.0463,0.65643 0.0796,0.29792 0.2786,0.54769 0.51832,0.71623 0.23971,0.1688 0.51884,0.26246 0.79983,0.31776 0,-0.11721 0.0487,-0.23336 0.13018,-0.31036 0.23018,0.127 0.35798,0.39873 0.44661,0.66173 0.0886,0.26299 0.15822,0.54398 0.32676,0.75591 0.11933,0.14976 0.2794,0.25374 0.44027,0.34714 0.6649,0.38655 1.39383,0.64346 2.14127,0.75406 0.23998,0.0354 0.48604,0.0521 0.72576,0.0228 0.2704,0.24051 0.54054,0.48075 0.81094,0.72126 0.0288,0.24183 0.0752,0.48471 0.10822,0.72363 0.0487,0.35269 0.0654,0.71067 0.0495,1.06707 -0.0177,0.39634 -0.0529,0.85857 0.22013,1.12262 0.0701,0.068 0.15504,0.1151 0.2405,0.15769 0.89112,0.4445 1.9558,0.45932 2.85724,0.04 0.12091,-0.0564 0.24183,-0.12198 0.33338,-0.22437 0.21431,-0.23892 0.22198,-0.61912 0.15266,-0.94377 -0.1225,-0.57573 -0.43498,-1.07791 -0.67866,-1.60602 -0.19579,-0.42413 -0.33337,-0.91149 -0.51382,-1.36446 0.0444,-0.007 0.0884,-0.0167 0.13309,-0.0217 0.0595,-0.7411 0.11906,-1.4822 0.17859,-2.22356 0.0188,-0.23363 0.0341,-0.48419 -0.0749,-0.68659 -0.20267,-0.37677 -0.7612,-0.44953 -0.8673,-0.87022 -0.0548,-0.21722 0.0394,-0.44106 0.0828,-0.66093 0.14102,-0.71252 -0.24898,-1.40361 -0.54822,-2.05607 -0.55298,-1.20597 -0.83529,-2.55667 -0.81571,-3.9034 0.004,-0.25109 0.0177,-0.50297 -5.3e-4,-0.75354 -0.0188,-0.25902 -0.0714,-0.51355 -0.11986,-0.76808 -0.0825,-0.43312 -0.15372,-0.86836 -0.22489,-1.30387 -0.16166,-0.9906 -0.32359,-1.9812 -0.48525,-2.97206 0.0698,-0.20056 0.13282,-0.40376 0.18203,-0.61198 0.0672,-0.28496 0.11933,-0.59241 0.30401,-0.80778 0.0542,-0.063 0.11853,-0.11615 0.16431,-0.18653 0.0691,-0.10583 0.0892,-0.23918 0.10848,-0.36724 0.34739,-2.30452 1.03266,-4.53152 1.51632,-6.80693 0.30851,-1.45124 0.53314,-2.93423 0.5334,-4.42728 0,-0.45111 0.036,-1.03002 0.0214,-1.61052 0.32333,-0.20664 0.64056,-0.42333 0.94959,-0.65114 -0.0122,-0.48736 -0.0206,-0.98028 -0.0304,-1.47134 0.0323,0.0159 0.0651,0.0304 0.0984,0.0431 -0.014,0.16087 -0.019,0.32227 -0.005,0.48313 0.046,0.53658 0.24633,1.04564 0.29977,1.58142 0.0347,0.3474 0.007,0.70008 -0.0601,1.04219 -0.0378,0.19341 -0.0881,0.39449 -0.0413,0.58579 0.0812,0.33232 0.41936,0.50482 0.72972,0.56779 0.24315,0.0492 0.50244,0.0572 0.73025,-0.0481 0.2278,-0.1053 0.41539,-0.34396 0.41725,-0.6133 0.007,0.20822 0.0736,0.47413 0.26458,0.4908 0.17515,0.0153 0.28416,-0.19712 0.34687,-0.37597 0.0923,-0.263 0.18468,-0.526 0.27702,-0.78926 0.0817,-0.23309 0.16457,-0.47069 0.17886,-0.71966 0.0114,-0.19897 -0.0217,-0.3982 -0.0662,-0.59161 -0.0325,-0.14526 -0.0754,-0.28919 -0.12224,-0.43127 z M 103.32096,179.5968 c 0.14208,-0.0341 0.28442,-0.068 0.4265,-0.10213 -0.0831,-0.15981 -0.16615,-0.31962 -0.24923,-0.47943 0.12832,-0.26511 0.26299,-0.52731 0.40031,-0.78793 0.43683,1.48802 1.30016,2.80088 1.61687,4.34526 0.006,0.0272 0.0106,0.0548 0.0159,0.082 -0.95197,-1.15888 -2.04417,-2.5908 -2.21032,-3.05779 z"
       id="path2"
       style="stroke-width:0.264583" />
  </g>
</svg>
