<?xml version="1.0" encoding="UTF-8" standalone="no"?>
<!-- Created with Inkscape (http://www.inkscape.org/) -->

<svg
   width="26.195282mm"
   height="75.408356mm"
   viewBox="0 0 26.195282 75.408356"
   version="1.1"
   id="svg1"
   inkscape:version="1.4.2 (f4327f4, 2025-05-13)"
   sodipodi:docname="genwoman4.svg"
   xmlns:inkscape="http://www.inkscape.org/namespaces/inkscape"
   xmlns:sodipodi="http://sodipodi.sourceforge.net/DTD/sodipodi-0.dtd"
   xmlns="http://www.w3.org/2000/svg"
   xmlns:svg="http://www.w3.org/2000/svg">
  <sodipodi:namedview
     id="namedview1"
     pagecolor="#ffffff"
     bordercolor="#000000"
     borderopacity="0.25"
     inkscape:showpageshadow="2"
     inkscape:pageopacity="0.0"
     inkscape:pagecheckerboard="0"
     inkscape:deskcolor="#d1d1d1"
     inkscape:document-units="mm"
     inkscape:zoom="1.2275954"
     inkscape:cx="105.08348"
     inkscape:cy="4.8876039"
     inkscape:window-width="2880"
     inkscape:window-height="1676"
     inkscape:window-x="-12"
     inkscape:window-y="-12"
     inkscape:window-maximized="1"
     inkscape:current-layer="layer1" />
  <defs
     id="defs1" />
  <g
     inkscape:label="图层 1"
     inkscape:groupmode="layer"
     id="layer1"
     transform="translate(-77.258337,-147.10833)">
    <path
       d="m 103.44708,175.21183 c 0.0365,-0.48234 -0.0865,-0.96071 -0.2024,-1.43034 -0.43418,-1.75975 -0.7792,-3.54119 -1.03373,-5.33585 -0.0238,-0.16801 -0.0468,-0.33655 -0.0701,-0.50509 0.25849,-0.16246 0.48842,-0.36354 0.65934,-0.61569 -0.51991,-0.61463 -0.67998,-1.44568 -1.00145,-2.18387 -0.13176,-0.30242 -0.29924,-0.58711 -0.48869,-0.85646 -0.46143,-1.09617 -1.21046,-2.09788 -2.270385,-2.62122 -0.594784,-0.29369 -1.247775,-0.41857 -1.896005,-0.5334 -0.183356,-0.64903 -0.366712,-1.29778 -0.550068,-1.94681 -0.03784,-0.13414 -0.07594,-0.26934 -0.08334,-0.40851 -0.0071,-0.13494 0.01508,-0.26961 0.02752,-0.40402 0.05715,-0.62283 -0.102923,-1.26365 -0.446882,-1.78621 -0.07355,-0.11191 -0.156898,-0.22198 -0.1905,-0.35189 -0.03307,-0.12859 -0.01402,-0.26406 0.0013,-0.39608 0.09075,-0.78767 0.03387,-1.58406 -0.02328,-2.37517 -0.04498,-0.6223 -0.09128,-1.25201 -0.286279,-1.84467 -0.231775,-0.70432 -0.662517,-1.32318 -1.087438,-1.93093 -0.384175,-0.54928 -0.770731,-1.10173 -1.244864,-1.57559 -0.445559,-0.44556 -0.980281,-0.82392 -1.592263,-0.97367 -0.818621,-0.20029 -1.966648,0.73845 -1.966648,0.73845 0,0 -1.008591,-0.0193 -1.360487,0.2585 -0.347927,0.27464 -0.607748,0.64717 -0.820208,1.03214 -0.993511,1.79943 -1.036109,3.95499 -1.602052,5.93116 -0.270405,0.9443 -0.666486,1.8759 -0.668338,2.8583 -0.0021,1.18586 0.568854,2.28785 1.125273,3.33507 0.01482,0.0278 0.03175,0.0564 0.05054,0.0844 -0.554831,0.068 -1.157552,0.29501 -1.538023,0.42519 -0.0069,0.002 -0.01349,0.005 -0.02037,0.008 -0.42545,0.12806 -0.836878,0.29078 -1.21285,0.53605 -0.628915,0.3429 -1.211792,0.7702 -1.723232,1.27238 -0.214577,0.21061 -0.418306,0.43497 -0.662516,0.61066 0.07911,0.25241 0.180975,0.49715 0.299773,0.73316 -1.08294,1.75736 -2.186252,3.50202 -3.31523,5.23028 -0.588697,0.90117 -1.210733,1.95051 -0.921808,2.98741 0.07144,0.25612 0.195792,0.49371 0.325173,0.72602 1.126596,2.02459 2.691077,3.80391 4.554537,5.1808 0.399786,0.29528 0.826823,0.57838 1.312863,0.68077 0.459846,0.0968 0.93636,0.0249 1.400704,-0.0474 0.236538,-0.0368 0.47334,-0.0738 0.709877,-0.11059 -0.144991,0.83608 -0.264319,1.68143 -0.448469,2.47914 -0.286279,1.2409 -0.573087,2.48418 -0.745595,3.74598 -0.577586,4.22751 0.141816,8.50926 0.703791,12.73889 0.101071,0.76121 0.19685,1.53802 0.05689,2.29288 0.38735,0.16034 0.496093,0.64743 0.55245,1.06283 0.343693,2.53206 0.687387,5.06412 1.031081,7.59619 0.336814,2.48152 0.542131,4.95247 0.310885,7.4459 0.321469,0.40032 0.753269,0.67786 1.231371,0.85699 -0.02434,0.16774 -0.0545,0.33549 -0.08731,0.50112 -0.05662,0.28733 -0.127794,0.57838 -0.283634,0.82656 -0.252148,0.40137 -0.733954,0.73898 -0.66966,1.20888 0.03625,0.26458 0.255323,0.47678 0.503767,0.57467 0.248443,0.0979 0.52361,0.10028 0.79031,0.0871 0.552979,-0.0273 1.112573,-0.11959 1.606285,-0.37015 0.493713,-0.25056 0.916782,-0.67601 1.072357,-1.2073 -0.02514,0.14632 -0.04921,0.30269 0.0098,0.43895 0.059,0.13626 0.236538,0.23151 0.361156,0.15081 0.08096,-0.0524 0.110332,-0.15452 0.132292,-0.24844 0.170656,-0.7329 0.234156,-1.48908 0.201613,-2.24076 0.562504,-0.23574 1.108339,-0.52335 1.646766,-0.80936 -0.505354,-1.00489 -1.393296,-2.04523 -1.461558,-3.16812 -0.04763,-0.78211 0.125942,-1.55972 0.170127,-2.34209 0.05927,-1.0504 -0.1143,-2.09815 -0.190235,-3.14775 -0.116417,-1.61052 -0.0019,-3.22739 0.07541,-4.84055 0.188648,-3.93145 0.274637,-7.43506 0.02223,-11.36306 0.54266,2.50719 1.390385,12.691 1.824566,17.68263 0.239448,2.75378 0.855134,5.52582 1.596761,8.18859 0.04127,0.1479 0.0852,0.29818 0.170392,0.42571 0.108743,0.16272 0.275695,0.27596 0.442383,0.37836 0.647435,0.39846 1.362604,0.69691 2.104496,0.85619 0.03598,0.55801 0.144991,1.11178 0.289718,1.65285 0.110332,-7.9e-4 0.220663,-0.002 0.330994,-0.002 -0.005,-0.16352 0.04895,-0.32835 0.150019,-0.4572 0.10795,0.18071 -0.02143,0.4183 0.03545,0.62097 0.02461,0.0876 0.08229,0.16166 0.141817,0.23045 0.69956,0.81016 1.84256,1.21074 2.89481,1.01442 0.32888,-0.0614 0.6776,-0.20214 0.82788,-0.50112 0.13388,-0.26644 0.0722,-0.59505 -0.0706,-0.85672 -0.14288,-0.26168 -0.35798,-0.47493 -0.54954,-0.70327 -0.33311,-0.39687 -0.59611,-0.83687 -0.82788,-1.29487 0.54874,-0.24368 1.0496,-0.58843 1.45468,-1.03161 -1.60603,-2.42147 -2.01745,-5.41893 -2.35374,-8.30474 -0.933187,-8.01052 -0.896674,-14.35153 -1.305456,-22.40571 -0.07461,-1.47161 -0.005,-2.88211 -0.274637,-4.31853 1.340123,-2.0275 2.635253,-4.08702 3.766873,-6.23755 0.2667,-0.50509 0.52838,-1.03214 0.5715,-1.60099 z M 85.895684,159.93478 c -0.240242,-0.61648 -0.316706,-1.31868 -0.08943,-1.94019 0.194998,1.13189 0.662781,2.21192 1.337733,3.14087 -0.143669,0.0635 -0.287867,0.127 -0.433387,0.17886 -0.32385,-0.42915 -0.620184,-0.88 -0.814916,-1.37954 z m -2.126456,18.16894 c -1.275292,-1.51474 -2.467504,-3.09933 -3.569494,-4.74477 1.290902,-1.59809 2.608262,-3.21813 4.107127,-4.61328 0.286544,1.24884 0.827352,2.45057 1.281642,3.6584 0.489214,1.30095 0.881062,2.71621 0.747183,4.07617 -0.325437,0.0389 -0.646112,0.10583 -0.954881,0.21722 -0.689504,0.24871 -1.318948,0.73395 -1.611577,1.40626 z m 16.832792,-2.85618 c -0.037,0.36407 -0.18468,0.70644 -0.33285,1.04087 -0.611184,1.37822 -1.266822,2.73633 -1.965586,4.07221 -0.431536,-1.25492 -0.894027,-2.58842 -1.010179,-3.39196 -0.370946,-2.56672 0.457729,-5.1316 0.969168,-7.67398 0.03202,-0.15928 0.06191,-0.31961 0.09022,-0.48022 0.972079,1.67058 1.695187,3.48615 2.132547,5.36893 0.081,0.34951 0.15293,0.7075 0.11668,1.06415 z"
       id="path4"
       style="stroke-width:0.264583" />
  </g>
</svg>
