<?xml version="1.0" encoding="UTF-8" standalone="no"?>
<!-- Created with Inkscape (http://www.inkscape.org/) -->

<svg
   width="23.109482mm"
   height="74.619461mm"
   viewBox="0 0 23.109482 74.619462"
   version="1.1"
   id="svg1"
   inkscape:version="1.4.2 (f4327f4, 2025-05-13)"
   sodipodi:docname="genwoman5.svg"
   xmlns:inkscape="http://www.inkscape.org/namespaces/inkscape"
   xmlns:sodipodi="http://sodipodi.sourceforge.net/DTD/sodipodi-0.dtd"
   xmlns="http://www.w3.org/2000/svg"
   xmlns:svg="http://www.w3.org/2000/svg">
  <sodipodi:namedview
     id="namedview1"
     pagecolor="#ffffff"
     bordercolor="#000000"
     borderopacity="0.25"
     inkscape:showpageshadow="2"
     inkscape:pageopacity="0.0"
     inkscape:pagecheckerboard="0"
     inkscape:deskcolor="#d1d1d1"
     inkscape:document-units="mm"
     inkscape:zoom="1.2275954"
     inkscape:cx="69.241055"
     inkscape:cy="-61.095048"
     inkscape:window-width="2880"
     inkscape:window-height="1676"
     inkscape:window-x="-12"
     inkscape:window-y="-12"
     inkscape:window-maximized="1"
     inkscape:current-layer="layer1" />
  <defs
     id="defs1" />
  <g
     inkscape:label="图层 1"
     inkscape:groupmode="layer"
     id="layer1"
     transform="translate(-86.518489,-164.57056)">
    <path
       d="m 109.42877,188.80408 c -0.18865,-0.92895 -0.37729,-1.85764 -0.576,-2.78421 -0.27146,-1.26445 -0.56779,-2.52175 -0.90011,-3.77084 0.20796,-0.22411 0.40111,-0.46355 0.58473,-0.7075 0.15558,-0.2069 0.31327,-0.47678 0.19764,-0.70855 -0.0656,-0.13177 -0.20267,-0.2085 -0.32146,-0.29554 -0.95012,-0.69454 -0.92419,-2.24526 -1.88172,-2.92947 -0.24262,-0.1733 -0.57732,-0.30612 -0.93557,-0.37571 -0.29712,-0.27384 -0.46778,-0.68897 -0.60801,-1.08056 -0.47281,-1.31868 -0.90355,-2.67308 -0.97102,-4.0722 -0.0444,-0.91705 0.0571,-1.89045 -0.37174,-2.70192 -0.30004,-0.56807 -0.82524,-0.98108 -1.19856,-1.50363 -0.35481,-0.49662 -0.56753,-1.08506 -0.93292,-1.57401 -0.32068,-0.42915 -0.75592,-1.03637 -1.24804,-1.24751 -0.319355,-0.13679 -1.554695,-0.45482 -1.888863,-0.36036 -0.221721,0.0627 -0.395552,0.10186 -0.543719,0.14684 -0.01349,-0.009 -0.02567,-0.0214 -0.03916,-0.0299 -0.20955,-0.13255 -0.446353,-0.23521 -0.694267,-0.23838 -0.497417,-0.006 -0.906992,0.37703 -1.227138,0.75776 -0.37756,0.449 -0.713581,1.19512 -1.049337,1.67614 -0.558006,0.79983 -1.116277,1.59967 -1.674283,2.3995 -0.160073,0.22966 -0.321998,0.46223 -0.418571,0.72496 -0.275167,0.74983 0.02487,1.57242 0.264319,2.33469 0.53922,1.71714 0.750093,3.64913 -0.0098,5.27393 -0.436827,0.023 -0.870215,0.0572 -1.276085,0.21273 -1.466057,0.56197 -2.031736,2.45983 -3.45493,3.12261 0.213255,0.60484 0.593725,1.14194 1.076325,1.56343 -0.08969,0.21219 -0.167481,0.42148 -0.245533,0.58869 -0.718873,1.5367 -1.344083,3.11494 -1.968764,4.69159 -0.296863,0.74957 -0.598223,1.52136 -0.597694,2.32754 2.64e-4,0.47281 0.105039,0.93848 0.209285,1.39965 0.10504,0.46408 0.211667,0.93345 0.42254,1.35996 0.152664,0.3085 0.356394,0.58817 0.545571,0.8755 1.122098,1.70524 1.728522,3.68697 2.511689,5.57213 0.06429,0.15452 0.156104,0.32491 0.281517,0.42492 -0.197909,4.9186 1.045633,9.73217 1.306777,14.65633 0.489214,0.0315 0.979223,0.054 1.469231,0.0699 0.02567,0.15928 0.04657,0.31088 0.05662,0.45032 0.13044,1.78594 -0.260615,3.5687 -0.09234,5.35437 0.101865,1.0795 0.409575,2.12752 0.715698,3.16786 0.620977,2.10979 1.242484,4.22116 1.979084,6.29338 0.271197,0.76306 0.559064,1.52426 0.719666,2.31801 0.410898,2.03068 -0.03334,4.12327 -0.122766,6.19337 -0.0058,0.13547 -0.0082,0.27966 0.06033,0.39661 0.07435,0.12726 0.217222,0.19659 0.3556,0.24712 0.595312,0.21828 1.26656,0.22199 1.864254,0.01 0.22516,-0.0799 0.448204,-0.19632 0.58711,-0.39052 0.06482,-0.0905 0.107421,-0.19262 0.138906,-0.29977 0.01905,0.0937 0.04657,0.18468 0.09419,0.26696 0.204523,0.35375 0.676008,0.43154 1.084528,0.44106 0.52229,0.0122 1.0459,-0.0249 1.56131,-0.11086 0.17541,-0.0294 0.35745,-0.0675 0.49741,-0.17727 0.28602,-0.2249 0.29131,-0.65035 0.25506,-1.01256 -0.23469,-2.33574 -1.13215,-4.59264 -1.12474,-6.94029 0.01,-3.09403 1.59332,-6.1206 1.07632,-9.17098 -0.0831,-0.48948 -0.21987,-0.97155 -0.25532,-1.46659 -0.0355,-0.49794 0.0323,-0.99695 0.10001,-1.49172 0.20426,-1.49225 0.40852,-2.98476 0.61304,-4.47701 0.0183,-0.13256 0.0415,-0.27305 0.0662,-0.41831 0.66119,-0.14182 1.31074,-0.34211 1.85578,-0.73369 -0.51593,-0.023 -0.93265,-0.47307 -1.08505,-0.96626 -0.15267,-0.49318 -0.0982,-1.02367 -0.0421,-1.53696 0.26776,-2.45375 0.53631,-4.91279 1.0541,-7.32631 0.32993,-1.53803 0.75644,-3.12738 0.79639,-4.68048 0.0331,-0.037 0.0643,-0.0759 0.0923,-0.11536 0.74825,-1.05331 1.35388,-2.20134 1.89601,-3.37423 0.36486,-0.79005 0.7022,-1.59279 1.01044,-2.40639 0.2876,-0.75882 0.55351,-1.5449 0.55483,-2.35664 2.7e-4,-0.50033 -0.0997,-0.99484 -0.19923,-1.48537 z M 93.296598,177.65533 c 0.528108,-0.9906 0.653256,-2.1889 0.341047,-3.26708 0.546365,0.98743 0.55298,2.15054 0.303213,3.27184 -0.227013,0.0344 -0.457465,0.0511 -0.688446,0.063 0.01667,-0.0222 0.03201,-0.045 0.04419,-0.0677 z m -3.167063,15.79748 c -0.15875,-0.97393 -0.282046,-1.95342 -0.370152,-2.93608 -0.0254,-0.28258 -0.04762,-0.5678 -0.01455,-0.84958 0.04101,-0.34819 0.164835,-0.68025 0.287867,-1.00859 0.569912,-1.52056 1.139825,-3.04086 1.709737,-4.56142 0.639498,1.515 1.27926,3.03001 1.918758,4.54501 0.137848,0.32623 0.278342,0.67099 0.238919,1.02288 -0.0217,0.19182 -0.09604,0.37333 -0.169598,0.55192 -0.616744,1.49701 -1.233487,2.99403 -1.850496,4.49104 -0.214048,0.51938 -0.427302,1.04352 -0.622035,1.57295 -0.691356,-0.70882 -0.963348,-1.81451 -1.128448,-2.82813 z m 9.084204,38.75114 c -0.601662,-2.36432 -0.563827,-4.8059 -0.411162,-7.26123 0.02461,0.12303 0.04815,0.24633 0.07064,0.36936 0.432859,2.37172 0.428361,4.78631 0.424392,7.20328 -0.02831,-0.10372 -0.05742,-0.20717 -0.08387,-0.31141 z m 7.584811,-41.17711 c -0.0521,0.45456 -0.20294,0.89112 -0.35269,1.32345 -0.33787,0.97499 -0.67945,1.94971 -1.06971,2.90433 -0.16828,-0.34819 -0.35163,-0.69003 -0.53023,-1.03346 -0.54768,-1.05384 -1.7346,-3.9587 -2.05819,-4.12036 -0.006,-0.59928 0.27279,-1.19459 0.52255,-1.73911 0.6821,-1.48695 1.20253,-3.04641 1.56395,-4.64185 0.0807,-0.008 0.1659,-0.0204 0.25427,-0.036 0.0159,0.0376 0.0318,0.0751 0.0474,0.11298 0.34925,0.85143 0.56859,1.74942 0.78449,2.64398 0.19526,0.80962 0.38867,1.61978 0.58235,2.42993 0.1688,0.70803 0.33893,1.43325 0.25585,2.15609 z"
       id="path5"
       style="stroke-width:0.264583" />
  </g>
</svg>
