<?xml version="1.0" encoding="UTF-8" standalone="no"?>
<!-- Created with Inkscape (http://www.inkscape.org/) -->

<svg
   width="23.721794mm"
   height="80.569847mm"
   viewBox="0 0 23.721794 80.569848"
   version="1.1"
   id="svg1"
   inkscape:version="1.4.2 (f4327f4, 2025-05-13)"
   sodipodi:docname="genwoman7.svg"
   xmlns:inkscape="http://www.inkscape.org/namespaces/inkscape"
   xmlns:sodipodi="http://sodipodi.sourceforge.net/DTD/sodipodi-0.dtd"
   xmlns="http://www.w3.org/2000/svg"
   xmlns:svg="http://www.w3.org/2000/svg">
  <sodipodi:namedview
     id="namedview1"
     pagecolor="#ffffff"
     bordercolor="#000000"
     borderopacity="0.25"
     inkscape:showpageshadow="2"
     inkscape:pageopacity="0.0"
     inkscape:pagecheckerboard="0"
     inkscape:deskcolor="#d1d1d1"
     inkscape:document-units="mm"
     inkscape:zoom="1.2275954"
     inkscape:cx="-164.54933"
     inkscape:cy="-48.876039"
     inkscape:window-width="2880"
     inkscape:window-height="1676"
     inkscape:window-x="-12"
     inkscape:window-y="-12"
     inkscape:window-maximized="1"
     inkscape:current-layer="layer1" />
  <defs
     id="defs1" />
  <g
     inkscape:label="图层 1"
     inkscape:groupmode="layer"
     id="layer1"
     transform="translate(-148.43241,-161.39536)">
    <path
       d="m 171.99138,236.42131 c -0.0656,-0.0519 -0.14446,-0.0836 -0.22172,-0.11536 -1.0115,-0.41513 -1.96903,-0.96202 -2.8411,-1.62189 -0.15372,-0.11616 -0.28495,-0.23734 -0.41328,-0.35534 0.15664,-0.11668 0.28972,-0.23495 0.38127,-0.34872 0.25717,-0.31962 -0.81942,-13.8512 -0.68818,-14.21289 0.11932,-0.32887 0.41354,-0.58658 0.4691,-0.93212 0.0601,-0.3728 -0.17277,-0.72047 -0.30056,-1.0758 -0.25559,-0.71014 -0.0926,-1.49146 -0.008,-2.24155 0.31882,-2.83501 -0.5379,-5.68881 -0.35666,-8.53599 0.11113,-1.74545 -0.47572,-3.42609 -0.7149,-5.15858 -0.0373,-0.27093 -0.0532,-0.59822 0.16563,-0.76253 -0.3855,-0.29236 -0.42175,-0.84428 -0.47519,-1.3253 -0.0736,-0.66436 -0.24369,-1.31789 -0.50298,-1.93384 -0.0437,-0.10345 -0.0902,-0.20822 -0.0998,-0.32014 -0.008,-0.0998 0.0135,-0.19897 0.0281,-0.29792 0.05,-0.33496 0.0209,-0.67601 -0.008,-1.01336 -0.0775,-0.89085 -0.15478,-1.7817 -0.2323,-2.67255 0.013,-0.003 0.0262,-0.005 0.0389,-0.01 0.11986,-0.0439 0.20611,-0.14843 0.31248,-0.21908 0.39766,-0.26458 1.06045,-0.0598 1.31233,-0.46566 0.0754,-0.12145 0.0889,-0.27147 0.0839,-0.41434 -0.014,-0.40905 -0.1606,-0.80222 -0.21034,-1.20862 -0.0497,-0.4064 0.0243,-0.87074 0.34978,-1.11892 -0.78925,-1.10173 -1.61237,-2.30611 -1.59544,-3.66131 0.0114,-0.91625 0.41275,-1.83964 0.17621,-2.72494 -0.0778,-0.29183 -0.22278,-0.56436 -0.27649,-0.86148 -0.0397,-0.21934 -0.0278,-0.4445 -0.0272,-0.66728 0.003,-1.1938 -0.33073,-2.38443 -0.94403,-3.40863 -0.83238,-4.01108 -1.29752,-8.09837 -1.38245,-12.19411 -0.008,-0.4117 -0.0138,-0.82815 -0.11351,-1.22767 -0.10133,-0.4064 -0.29686,-0.78185 -0.44238,-1.17449 -0.16748,-0.45191 -0.27411,-0.93742 -0.5551,-1.329 -0.28098,-0.39158 -0.76173,-0.52017 -1.23798,-0.59372 -0.36142,-0.0558 -0.57944,-0.53129 -1.25651,-0.74877 -0.49503,-0.15928 -1.04828,-0.0479 -1.50362,0.2032 -0.45535,0.25135 -0.82603,0.63103 -1.16073,1.02896 -1.31419,0.38206 -2.42411,1.40891 -2.90724,2.68949 -0.28337,0.75115 -0.35719,1.56289 -0.40905,2.36379 -0.0278,0.42677 -0.0468,0.85407 -0.0651,1.28137 -0.002,-0.0185 -0.004,-0.037 -0.006,-0.0556 l 0.0241,-1.00859 c 0.009,0.92683 -0.13599,1.84653 -0.28072,2.76066 -0.21855,1.37875 -0.43709,2.75722 -0.65537,4.13597 -0.0508,0.0947 -0.1016,0.1897 -0.15426,0.28337 -0.16695,0.29739 -0.34131,0.59055 -0.51832,0.88185 -0.72972,0.57971 -1.4769,1.13798 -2.24128,1.67138 -0.3511,0.245 -0.71358,0.49265 -0.96017,0.84269 -0.4236,0.6014 -0.43339,1.39515 -0.37095,2.12805 0.0622,0.73289 0.17806,1.48934 -0.0455,2.18995 -0.22701,0.71173 -0.79904,1.38563 -0.61754,2.11032 0.0582,0.2331 0.19183,0.44 0.27173,0.66649 0.12647,0.35904 0.11113,0.76597 -0.0423,1.11442 -0.15055,0.34184 -0.43418,0.6985 -0.29104,1.04352 0.063,0.15213 0.1987,0.25982 0.29739,0.39158 0.2659,0.3556 0.23971,0.84667 0.16166,1.28376 -0.078,0.43709 -0.19526,0.89032 -0.0725,1.3171 0.1188,0.41275 0.0836,0.8636 0.0707,1.29275 0.3929,0.0154 0.75379,0.32994 0.82285,0.71729 0.0381,0.21404 0.0228,0.48683 0.21617,0.58658 0.0908,0.0468 0.19949,0.0347 0.30083,0.0214 0.70379,-0.0926 1.40784,-0.18548 2.11164,-0.27808 0.0577,0.24395 0.11535,0.48816 0.17277,0.7321 0.0868,-0.11827 0.17357,-0.23653 0.26061,-0.35454 0.0392,-0.0534 0.0947,-0.11351 0.15928,-0.0984 0.0725,0.0167 0.0992,0.11774 0.17092,0.13758 0.0558,0.0156 0.11007,-0.0249 0.15743,-0.0582 0.20294,-0.14367 0.45085,-0.19606 0.70062,-0.22701 -0.52123,1.43907 -1.04273,2.8784 -1.56395,4.31747 -0.1532,0.42307 -0.30719,0.84931 -0.3773,1.29355 -0.068,0.43074 -0.0553,0.86968 -0.0426,1.30545 0.0193,0.66384 0.0386,1.32821 0.0873,1.99046 0.25877,3.51896 1.34276,6.95378 1.41023,10.48173 0.0101,0.53288 -2.6e-4,1.08189 0.19659,1.57692 0.0952,0.23945 0.24024,0.48683 0.17965,0.7374 -0.0315,0.12991 -0.11562,0.2413 -0.15372,0.36909 -0.0593,0.19844 -0.002,0.41116 0.055,0.61039 0.0952,0.33205 0.19024,0.66411 0.28549,0.99616 0.32993,0.27278 -0.0241,0.77073 -0.18786,1.16628 -0.14843,0.35825 -0.1569,0.75698 -0.16007,1.14485 -0.0243,2.93635 0.13811,5.87428 0.48577,8.79026 0.11139,0.93477 0.2421,1.87166 0.21643,2.81278 -0.0146,0.53446 -0.0796,1.06627 -0.11324,1.59994 -0.0995,1.58168 0.0799,3.18055 0.52785,4.70085 0.0733,0.24818 0.16483,0.50086 0.32967,0.69612 -0.0421,0.37306 -0.0757,0.74692 -0.0992,1.12157 -0.0109,0.17303 -0.0185,0.35322 0.0495,0.51276 0.0635,0.14869 0.18654,0.26379 0.31671,0.35983 0.567,0.41778 1.29461,0.54213 1.92643,0.85355 0.55139,0.27173 1.02659,0.68448 1.58909,0.93239 0.81254,0.35798 1.73381,0.3429 2.62149,0.32147 0.39,-0.01 0.79851,-0.0236 1.13771,-0.2167 0.56277,-0.32041 0.75697,-1.15649 0.37624,-1.68036 -0.11615,-0.15981 -0.27199,-0.28602 -0.42757,-0.40773 -0.64929,-0.50667 -1.33429,-0.96969 -1.94442,-1.52294 -0.3564,-0.32305 -0.68739,-0.68315 -0.957,-1.08029 0.45932,-0.38233 0.74348,-0.7112 0.7583,-0.75936 0.0788,-0.25849 -0.48419,-12.82356 -0.57944,-13.25483 -0.10848,-0.49212 -0.0767,-1.00303 -0.0444,-1.50574 0.0897,-1.39409 0.17939,-2.78818 0.26881,-4.18227 0.15161,-2.35823 1.19248,-7.22868 1.19248,-7.22868 0,0 1.51554,3.78672 1.76742,5.80443 0.0955,0.76517 0.11827,1.53749 0.13652,2.30849 0.13203,5.5671 0.19447,10.66535 -0.11456,16.22531 0.12726,0.0796 0.25982,0.15054 0.39317,0.21907 -0.018,0.10213 -0.0331,0.20479 -0.0431,0.30692 -0.0675,0.67971 2.7e-4,1.36683 -0.0587,2.04734 0.93874,0.27861 1.94468,0.008 2.92311,0.0468 0.60087,0.0238 1.1901,0.1651 1.78382,0.26221 0.89244,0.14605 1.79838,0.19288 2.70272,0.20478 0.35428,0.005 0.73475,-0.004 1.02235,-0.21087 0.2876,-0.2069 0.39608,-0.69083 0.11827,-0.91043 z m -18.00093,-64.00403 c 0.0812,-0.30507 0.20003,-0.59717 0.2929,-0.89826 -0.0209,0.67522 -0.0701,1.34964 -0.25929,1.99575 -0.13706,0.46805 -0.34634,0.9107 -0.57706,1.34144 0.38788,-0.72999 0.32835,-1.63089 0.54345,-2.43893 z"
       id="path5"
       style="stroke-width:0.264583" />
  </g>
</svg>
