<?xml version="1.0" encoding="UTF-8" standalone="no"?>
<!-- Created with Inkscape (http://www.inkscape.org/) -->

<svg
   width="21.374695mm"
   height="76.079079mm"
   viewBox="0 0 21.374695 76.07908"
   version="1.1"
   id="svg1"
   inkscape:version="1.4.2 (f4327f4, 2025-05-13)"
   sodipodi:docname="genwoman8.svg"
   xmlns:inkscape="http://www.inkscape.org/namespaces/inkscape"
   xmlns:sodipodi="http://sodipodi.sourceforge.net/DTD/sodipodi-0.dtd"
   xmlns="http://www.w3.org/2000/svg"
   xmlns:svg="http://www.w3.org/2000/svg">
  <sodipodi:namedview
     id="namedview1"
     pagecolor="#ffffff"
     bordercolor="#000000"
     borderopacity="0.25"
     inkscape:showpageshadow="2"
     inkscape:pageopacity="0.0"
     inkscape:pagecheckerboard="0"
     inkscape:deskcolor="#d1d1d1"
     inkscape:document-units="mm"
     inkscape:zoom="1.2275954"
     inkscape:cx="-320.95265"
     inkscape:cy="-40.730032"
     inkscape:window-width="2880"
     inkscape:window-height="1676"
     inkscape:window-x="-12"
     inkscape:window-y="-12"
     inkscape:window-maximized="1"
     inkscape:current-layer="layer1" />
  <defs
     id="defs1" />
  <g
     inkscape:label="图层 1"
     inkscape:groupmode="layer"
     id="layer1"
     transform="translate(-189.70728,-159.27868)">
    <path
       d="m 211.07529,234.39349 c -0.0413,-0.22516 -0.25929,-0.36539 -0.44688,-0.49662 -0.94668,-0.66173 -1.51818,-1.70101 -1.94442,-2.7477 -0.10531,-0.25876 -0.19315,-0.49001 -0.25347,-0.7247 0.12382,-0.018 0.24738,-0.0368 0.37015,-0.0606 0.0638,-4.40796 0.31221,-8.81328 0.74506,-13.2006 0.0238,-0.24235 0.0484,-0.48524 0.0434,-0.72866 -0.004,-0.20664 -0.0296,-0.41248 -0.0524,-0.6178 -0.0193,-0.17463 -0.0368,-0.34978 -0.0526,-0.52467 -0.13679,-1.4986 -0.17092,-3.00646 -0.10266,-4.50982 0.25664,-5.63616 1.88013,-11.42207 0.20346,-16.80925 0.27385,-0.19605 0.39979,-0.54795 0.40799,-0.8845 0.008,-0.33655 -0.0841,-0.66648 -0.16801,-0.99245 -0.28945,-1.12713 -0.48445,-2.27859 -0.58155,-3.43826 -0.0622,-0.74136 -0.0844,-1.49146 0.0339,-2.2262 0.0767,-0.47731 0.2122,-0.94457 0.27305,-1.42426 0.1397,-1.10146 -0.11747,-2.22858 0.0577,-3.32475 0.11113,-0.69559 0.39555,-1.38324 0.29633,-2.08042 -0.0648,-0.45402 -0.28866,-0.87074 -0.381,-1.32001 -0.27278,-1.32662 0.61119,-2.80881 -0.0286,-4.00235 -0.38814,-0.7239 -1.21947,-1.0787 -2.00634,-1.31418 -0.63526,-0.18997 -1.21073,-0.27305 -1.86557,-0.37677 -0.0357,0.0939 -0.37307,-0.37306 -0.40878,-0.27914 0.15028,-0.32226 0.33231,-0.6297 0.54292,-0.91651 -0.0236,0.35401 -0.18177,0.6977 -0.43577,0.94562 0.33602,-0.2376 0.63077,-0.5334 0.86678,-0.87048 0.16192,-0.23125 0.29739,-0.48445 0.36909,-0.75724 0.0511,-0.19473 0.0691,-0.39555 0.0886,-0.59637 1.0279,-0.38682 1.7137,-1.53934 1.5486,-2.62758 -0.04,-0.26352 -0.12329,-0.51831 -0.21325,-0.76888 -0.26935,-0.7493 -0.60405,-1.47531 -0.99907,-2.16667 -0.118,-0.20664 -0.24209,-0.41169 -0.32755,-0.63367 -0.19818,-0.51435 -0.17807,-1.08665 -0.32147,-1.61873 -0.23707,-0.88053 -0.94906,-1.61766 -1.82113,-1.88462 -0.56674,-1.04167 -2.06666,-1.39092 -3.1668,-0.948 -1.10013,0.44291 -1.8923,1.41631 -2.53576,2.41247 -0.50536,0.7821 -0.95409,1.61104 -1.20677,2.50719 -0.31379,1.11416 -0.31326,2.28838 -0.41434,3.4417 -0.10107,1.15332 -0.3249,2.34341 -1.0107,3.27607 -0.058,0.0786 -0.12224,0.16854 -0.10372,0.26432 0.009,0.0487 0.0392,0.0905 0.0632,0.13414 0.1434,0.26088 0.0495,0.62548 -0.20162,0.78502 -0.25109,0.15954 -0.62124,0.0889 -0.79613,-0.15187 -0.14023,0.39317 0.32226,0.84772 0.71279,0.70062 -0.10927,0.10927 0.0318,0.28336 0.16034,0.36935 -0.30904,-0.0214 -0.59717,0.13309 -0.80513,0.36725 -0.67786,0.20399 -1.05939,1.51341 -1.03611,2.0312 0.0116,0.25638 0.0643,0.51409 0.0272,0.76809 -0.0431,0.29501 -0.2032,0.55774 -0.30612,0.83767 -0.23839,0.64902 -0.16219,1.36525 -0.099,2.05396 0.10239,1.11178 0.16219,2.22753 0.17965,3.34407 0.002,0.15769 0.004,0.31776 -0.0402,0.4691 -0.0902,0.31036 -0.35269,0.53446 -0.60245,0.73978 0.18335,0.18124 0.32411,0.4056 0.40772,0.64929 -0.27067,0.0516 -0.22649,0.46011 -0.37783,0.69056 -0.0857,0.1307 -0.2368,0.19949 -0.36168,0.29342 -0.12489,0.0939 -0.23389,0.25215 -0.1786,0.3982 0.0405,0.10689 0.15849,0.1733 0.1868,0.28416 0.0228,0.0886 -0.0185,0.17939 -0.0421,0.26776 -0.0741,0.27675 0.0275,0.57706 0.20003,0.80592 0.0958,0.12727 0.21219,0.23548 0.33575,0.33629 -0.23257,0.99218 -0.35242,2.03967 -0.43762,3.08424 -1.58776,-0.70485 -3.20066,-1.46817 -3.18161,-1.66819 -0.24818,3.85603 -0.23046,7.74118 0.0534,11.59298 0.94139,0.33919 1.87907,0.69532 2.81464,1.06045 0.0532,0.52149 0.14579,1.09908 0.5678,1.40599 0.0667,-0.0772 0.19552,-0.0632 0.27913,-0.005 0.0836,0.0585 0.13811,0.14896 0.20611,0.22516 0.2204,0.24686 0.60378,0.32385 0.90673,0.19447 0.55404,0.3392 1.143,0.62151 1.74863,0.86096 0.0749,2.36907 0.10107,4.73577 -0.42386,7.03659 -0.35005,1.53432 -0.94298,3.02445 -1.05357,4.59422 -0.11801,1.67429 0.31961,3.33031 0.58049,4.98819 0.26088,1.65815 0.32518,3.44382 -0.46884,4.92258 0.1016,0.13599 0.23945,0.24103 0.39397,0.31062 -0.21723,0.35401 -0.43419,0.70802 -0.65141,1.0623 0.1405,0.0836 0.52546,1.39012 0.8382,1.8714 0.31274,0.48127 0.70538,0.91651 0.93239,1.44383 0.0992,0.23019 0.16696,0.47837 0.31565,0.67998 0.29819,0.40402 0.84191,0.52572 1.34038,0.58737 0.58473,0.0722 1.17475,0.10187 1.76371,0.0881 0.3773,-0.009 0.82471,-0.0799 0.9869,-0.42095 0.11033,-0.23204 0.0389,-0.51568 -0.10451,-0.72867 -0.14367,-0.21298 -0.34978,-0.37385 -0.53896,-0.54768 -0.85751,-0.78687 -1.37583,-1.85314 -1.7944,-2.92074 -0.0831,-0.21166 -0.14261,-0.44238 -0.19659,-0.67945 0.21352,-0.004 0.41831,-0.0714 0.5678,-0.22701 0.30824,-0.32094 0.26511,-0.82947 0.21219,-1.27159 -0.38444,-3.20781 -0.19579,-6.48361 0.55404,-9.62633 0.10954,-0.45932 0.25136,-0.94827 0.61992,-1.24328 1.56898,-3.56103 2.58392,-7.36574 2.99641,-11.23527 0.75088,3.45149 0.99298,6.99056 1.23269,10.51454 0.0233,0.34238 0.0466,0.68475 0.0699,1.02685 0.0452,0.66622 0.0907,1.33483 0.0511,2.00158 -0.0188,0.31511 -0.0563,0.62865 -0.0825,0.94323 -0.0915,1.10147 -0.0405,2.20901 0.0106,3.31312 0.14525,3.14219 0.29078,6.28438 0.43603,9.42684 0.1233,0.0352 0.24792,0.0651 0.37253,0.0942 -0.0902,0.97446 -0.18044,1.94865 -0.27093,2.92311 -0.0214,0.23072 -0.0429,0.46144 -0.064,0.69215 -0.007,0.0743 -0.0109,0.15823 0.0392,0.21352 0.0468,0.0519 0.12383,0.0595 0.19341,0.0661 0.84323,0.0804 1.61634,0.48101 2.38443,0.83793 0.3675,0.17093 0.75432,0.33655 1.1594,0.3265 0.20082,-0.005 0.3982,-0.0532 0.59875,-0.0688 0.21934,-0.0172 0.44106,0.005 0.65881,-0.0259 0.25692,-0.0362 0.50298,-0.14737 0.70036,-0.31618 0.16086,-0.1389 0.29686,-0.34343 0.25823,-0.55324 z m -4.3979,-64.5631 c 0.12779,-0.88397 0.61092,-1.71608 0.56012,-2.60799 0.31141,0.44344 0.42016,1.02367 0.29051,1.54966 -0.11906,0.48366 -0.43921,0.91202 -0.86413,1.17131 0.004,-0.0378 0.008,-0.0757 0.0135,-0.11298 z m -10.02401,20.19221 c -0.11615,0.65405 -0.35136,1.27979 -0.626,1.88595 -0.10928,-0.0484 -0.34105,-0.14737 -0.65538,-0.28152 0.13759,-0.57335 0.27491,-1.1467 0.41249,-1.72005 0.0796,-0.33205 0.15849,-0.67178 0.15981,-1.01071 0.26379,0.0577 0.53313,0.0775 0.80804,0.0458 -0.009,0.36222 -0.0357,0.7239 -0.099,1.08056 z"
       id="path4"
       style="stroke-width:0.264583" />
  </g>
</svg>
