<?xml version="1.0" encoding="UTF-8" standalone="no"?>
<!-- Created with Inkscape (http://www.inkscape.org/) -->

<svg
   width="28.5079mm"
   height="48.117771mm"
   viewBox="0 0 28.507899 48.117772"
   version="1.1"
   id="svg1"
   inkscape:version="1.4.2 (f4327f4, 2025-05-13)"
   sodipodi:docname="girl16.svg"
   xmlns:inkscape="http://www.inkscape.org/namespaces/inkscape"
   xmlns:sodipodi="http://sodipodi.sourceforge.net/DTD/sodipodi-0.dtd"
   xmlns:xlink="http://www.w3.org/1999/xlink"
   xmlns="http://www.w3.org/2000/svg"
   xmlns:svg="http://www.w3.org/2000/svg">
  <sodipodi:namedview
     id="namedview1"
     pagecolor="#ffffff"
     bordercolor="#000000"
     borderopacity="0.25"
     inkscape:showpageshadow="2"
     inkscape:pageopacity="0.0"
     inkscape:pagecheckerboard="0"
     inkscape:deskcolor="#d1d1d1"
     inkscape:document-units="mm"
     inkscape:zoom="1.2275954"
     inkscape:cx="124.6339"
     inkscape:cy="-21.179617"
     inkscape:window-width="2880"
     inkscape:window-height="1676"
     inkscape:window-x="-12"
     inkscape:window-y="-12"
     inkscape:window-maximized="1"
     inkscape:current-layer="layer1" />
  <defs
     id="defs1">
    <clipPath
       id="SVGID_00000119818789281150872890000010399472127891452846_">
					<use
   xlink:href="#SVGID_1_"
   style="overflow:visible"
   id="use374" />

				</clipPath>
    <path
       id="SVGID_1_"
       d="m 372.545,399.307 c 0,0 -1.283,0 -3.26,0 -6.713,0 -19.791,0 -19.801,0 0,0.838 4.299,47.073 4.58,51.589 0.954,15.214 4.023,46.87 4.105,48.206 0,0 1.713,0.708 5.477,0 l 3.053,-47.784 3.107,-36.587 c 0,0 0.585,-1.01 1.11,-1.054 0.524,0.044 0.994,1.159 0.994,1.159 l 3.633,36.588 2.381,47.703 c 4.615,0.856 6.041,-0.025 6.041,-0.025 0.084,-1.336 2.072,-29.132 3.002,-48.613 1.178,-24.746 5.303,-50.712 5.303,-51.182 -0.01,0 -13.012,0 -19.725,0 z" />
  </defs>
  <g
     inkscape:label="图层 1"
     inkscape:groupmode="layer"
     id="layer1"
     transform="translate(-72.123948,-154.32349)">
    <g
       id="XMLID_236_"
       transform="matrix(0.26458333,0,0,0.26458333,61.06612,142.38058)">
			<path
   id="XMLID_479_"
   style="fill:#ffc8ac"
   d="m 91.659,139.838 c -2.894,-1.26 -7.893,0.395 -16.976,10.578 -2.618,2.935 -5.181,5.92 -7.684,8.954 -1.87,2.266 -3.707,4.559 -5.5,6.886 -0.658,0.855 -1.282,1.772 -2.109,2.479 -0.931,0.797 -2.148,1.104 -3.305,1.414 -0.726,0.194 -1.628,0.316 -2.178,0.877 -0.573,0.584 -0.292,1.452 0.434,1.739 0.78,0.308 1.746,0.104 2.566,0.167 0.138,0.01 0.273,0.056 0.358,0.165 0.129,0.166 -0.006,0.414 -0.091,0.54 -0.549,0.813 -0.892,1.222 -1.22,1.697 -0.534,0.773 -2.063,2.46 -1.393,3.475 0.263,0.398 0.972,0.534 1.328,0.362 0.575,-0.278 1.09,-0.664 1.564,-1.089 0.239,-0.214 0.468,-0.439 0.693,-0.667 0.182,-0.185 0.431,-0.524 0.73,-0.49 0.252,0.03 0.246,0.343 0.207,0.526 -0.045,0.21 -0.148,0.406 -0.252,0.593 -0.394,0.709 -0.851,1.41 -1.146,2.165 -0.144,0.367 -0.275,0.744 -0.309,1.136 -0.026,0.306 0.02,0.643 0.237,0.86 0.157,0.157 0.384,0.228 0.606,0.244 0.496,0.036 0.984,-0.179 1.374,-0.488 0.487,-0.387 0.874,-0.878 1.254,-1.367 0.396,-0.51 0.791,-1.023 1.207,-1.518 0.089,-0.106 0.195,-0.219 0.333,-0.227 0.149,-0.009 0.28,0.118 0.324,0.261 0.043,0.143 0.019,0.298 -0.013,0.444 -0.088,0.393 -0.265,0.719 -0.414,1.087 -0.154,0.381 -0.288,0.771 -0.401,1.166 -0.123,0.429 -0.231,0.9 -0.062,1.313 0.311,0.759 1.202,0.906 1.871,0.413 0.661,-0.487 2.105,-3.274 2.34,-3.705 1.444,-2.65 3.313,-5.031 5.065,-7.488 2.765,-3.876 9.23,-11.541 11.752,-13.778 z" />

			<path
   id="XMLID_470_"
   style="fill:#002030"
   d="m 137.803,107.909 c 2.674,2.858 14.385,24.528 -0.092,36.7 -14.477,12.172 -60.398,13.187 -79.209,0 -18.811,-13.186 -5.809,-35.04 -5.809,-35.04 -15.215,-5.071 -14.662,-28.124 2.674,-47.857 17.336,-19.733 49.148,-18.903 61.057,-12.541 11.909,6.363 10.499,15.485 10.499,15.485 0,0 5.809,-1.192 11.065,4.986 5.256,6.178 3.043,18.036 3.043,18.036 z" />

			<path
   id="XMLID_480_"
   style="fill:#ffc8ac"
   d="m 120.292,158.563 c -3.988,-13.05 -8.881,-16.222 -9.244,-20.572 -0.338,-4.064 -0.434,-8.61 -0.434,-8.61 H 92.526 c 0,0 -0.095,4.545 -0.434,8.61 -0.362,4.35 -5.256,7.521 -9.244,20.572 -4.599,15.051 -5.935,31.356 -5.935,31.356 0,0 9.62,3.206 24.656,3.206 15.036,0 24.656,-3.206 24.656,-3.206 0,0 -1.334,-16.306 -5.933,-31.356 z" />

			<path
   id="XMLID_440_"
   style="fill:#f49282"
   d="M 110.671,129.381 H 92.526 c 0,0 -0.078,3.674 -0.339,7.369 1.857,0.105 3.698,0.146 5.482,0.146 4.266,0 10.126,-1.47 13.108,-3.103 -0.163,-3.34 -0.106,-4.412 -0.106,-4.412 z" />

			<path
   id="XMLID_477_"
   style="fill:#ffc8ac"
   d="m 76.914,189.919 2.6,31.106 c 0,0 -4.796,1.415 -7.255,2.831 -2.459,1.415 -1.858,3.145 9.084,3.145 10.942,0 15.907,0 15.907,0 l 3.356,-37.082 z" />

			<path
   id="XMLID_488_"
   style="fill:#ffc8ac"
   d="m 126.292,189.919 -2.599,31.106 c 0,0 4.795,1.415 7.255,2.831 2.459,1.415 1.858,3.145 -9.084,3.145 -10.942,0 -15.906,0 -15.906,0 l -3.356,-37.082 z" />

			<path
   id="XMLID_363_"
   style="fill:#f49282"
   d="M 100.383,192.37 H 77.119 l 1.133,13.568 c 4.521,1.253 11.136,2.329 20.677,2.498 z" />

			<path
   id="XMLID_368_"
   style="fill:#f49282"
   d="m 102.823,192.37 1.454,16.064 c 9.554,-0.174 16.166,-1.257 20.678,-2.516 l 1.132,-13.548 z" />

			<path
   id="XMLID_503_"
   style="fill:#002030"
   d="m 105.957,227.001 c 0,0 4.964,0 15.906,0 10.942,0 11.543,-1.73 9.084,-3.145 -2.46,-1.415 -7.255,-2.831 -7.255,-2.831 h -18.276 z" />

			<path
   id="XMLID_509_"
   style="fill:#002030"
   d="m 79.514,221.025 c 0,0 -4.796,1.415 -7.255,2.831 -2.459,1.415 -1.858,3.145 9.084,3.145 10.942,0 15.906,0 15.906,0 l 0.541,-5.976 z" />

			<path
   id="XMLID_560_"
   style="fill:#f18856"
   d="m 91.662,139.846 c -1.723,-1.948 -5.985,-2.608 -12.674,4.153 -6.689,6.761 -8.715,8.983 -8.715,8.983 0,0 1.986,8.408 11.573,11.395 z" />

			<path
   id="XMLID_561_"
   style="fill:#ffc8ac"
   d="m 111.482,139.838 c 2.894,-1.26 7.893,0.395 16.976,10.578 2.618,2.935 5.181,5.92 7.684,8.954 1.87,2.266 3.708,4.559 5.5,6.886 0.658,0.855 1.282,1.772 2.109,2.479 0.931,0.797 2.148,1.104 3.305,1.414 0.725,0.194 1.627,0.316 2.178,0.877 0.573,0.584 0.291,1.452 -0.434,1.739 -0.78,0.308 -1.746,0.104 -2.566,0.167 -0.138,0.01 -0.273,0.056 -0.358,0.165 -0.129,0.166 0.005,0.414 0.09,0.54 0.549,0.813 0.892,1.222 1.22,1.697 0.534,0.773 2.063,2.46 1.392,3.475 -0.263,0.398 -0.972,0.534 -1.328,0.362 -0.575,-0.278 -1.09,-0.664 -1.564,-1.089 -0.239,-0.214 -0.468,-0.439 -0.693,-0.667 -0.182,-0.185 -0.431,-0.524 -0.73,-0.49 -0.252,0.03 -0.246,0.343 -0.207,0.526 0.045,0.21 0.148,0.406 0.252,0.593 0.393,0.709 0.851,1.41 1.146,2.165 0.143,0.367 0.275,0.744 0.309,1.136 0.026,0.306 -0.02,0.643 -0.237,0.86 -0.157,0.157 -0.384,0.228 -0.605,0.244 -0.496,0.036 -0.984,-0.179 -1.374,-0.488 -0.487,-0.387 -0.875,-0.878 -1.254,-1.367 -0.396,-0.51 -0.791,-1.023 -1.207,-1.518 -0.089,-0.106 -0.195,-0.219 -0.333,-0.227 -0.149,-0.009 -0.28,0.118 -0.324,0.261 -0.044,0.143 -0.02,0.298 0.013,0.444 0.088,0.393 0.266,0.719 0.414,1.087 0.154,0.381 0.288,0.771 0.401,1.166 0.123,0.429 0.231,0.9 0.063,1.313 -0.311,0.759 -1.202,0.906 -1.871,0.413 -0.662,-0.487 -2.106,-3.274 -2.34,-3.705 -1.444,-2.65 -2.968,-5.292 -4.722,-7.748 -4.675,-6.544 -9.574,-11.28 -12.096,-13.517 z" />

			<path
   id="XMLID_559_"
   style="fill:#f18856"
   d="m 111.479,139.846 c 1.723,-1.948 5.985,-2.608 12.674,4.153 6.69,6.761 8.715,8.983 8.715,8.983 0,0 -1.986,8.408 -11.573,11.395 z" />

			<path
   id="XMLID_401_"
   style="fill:#ffc8ac"
   d="m 97.669,131.415 c 9.635,0 20.877,-1.147 27.759,-7.571 6.882,-6.423 7.57,-22.941 3.441,-39.229 -4.129,-16.289 -19.959,-19.959 -31.2,-19.959 -11.241,0 -27.071,3.67 -31.2,19.959 -4.129,16.288 -3.441,32.806 3.441,39.229 6.883,6.424 18.124,7.571 27.759,7.571 z" />

			<path
   id="XMLID_570_"
   style="fill:#002030"
   d="m 121.192,71.713 5.753,-7.269 c 0.004,-0.041 0.007,-0.089 0.011,-0.142 l -0.004,-1.242 c -0.181,-2.895 -1.666,-9.155 -10.528,-13.89 -11.908,-6.362 -43.721,-7.192 -61.057,12.541 -17.335,19.733 -17.889,42.786 -2.674,47.857 24.098,-2.253 6.253,-35.119 38.969,-42.146 14.619,-3.139 24.103,1.022 29.53,4.291 z" />

			<path
   id="XMLID_436_"
   style="fill:#fca39a"
   d="m 65.337,113.746 c 0,-3.822 3.099,-6.921 6.921,-6.921 3.822,0 6.921,3.099 6.921,6.921 0,3.822 -3.099,6.921 -6.921,6.921 -3.822,-0.001 -6.921,-3.099 -6.921,-6.921 z" />

			<path
   id="XMLID_461_"
   style="fill:#fca39a"
   d="m 114.615,113.746 c 0,-3.822 3.099,-6.921 6.921,-6.921 3.822,0 6.921,3.099 6.921,6.921 0,3.822 -3.099,6.921 -6.921,6.921 -3.822,-0.001 -6.921,-3.099 -6.921,-6.921 z" />

			<path
   id="XMLID_517_"
   style="fill:#fca39a"
   d="m 96.013,110.046 c -2.517,-0.085 -4.791,1.512 -4.776,2.26 0.035,1.749 8.953,2.105 8.857,0 -0.053,-1.175 -1.921,-2.186 -4.081,-2.26 z" />

			<g
   id="XMLID_426_">
				<path
   id="XMLID_521_"
   style="fill:#9e5147"
   d="m 91.009,112.777 c 1.582,-1.185 2.731,-2.364 4.888,-2.372 1.985,-0.007 3.042,1.06 4.127,2.537 0.187,0.254 0.667,0.264 0.618,-0.134 -0.548,-4.474 -8.572,-4.057 -9.725,-0.16 -0.015,0.05 0.017,0.186 0.092,0.129 z" />

			</g>

			<g
   id="XMLID_427_">
				<path
   id="XMLID_437_"
   style="fill:#9e5147"
   d="m 88.647,120.404 c 5.796,3.442 15.386,1.957 19.896,-2.947 0.482,-0.524 -0.562,-1.027 -0.989,-0.562 -4.538,4.951 -12.954,5.429 -18.836,3.036 -0.326,-0.132 -0.277,0.351 -0.071,0.473 z" />

			</g>

			<g
   id="XMLID_428_">
				<path
   id="XMLID_438_"
   style="fill:#9e5147"
   d="m 107.48,115.222 c -0.563,0.576 0.015,1.611 0.477,2.042 0.532,0.496 1.46,0.963 2.2,0.706 0.253,-0.088 0.524,-0.394 0.247,-0.639 -0.219,-0.193 -0.751,-0.025 -1.035,-0.085 -1.036,-0.217 -1.339,-1.077 -1.662,-1.955 -0.037,-0.103 -0.147,-0.151 -0.227,-0.069 z" />

			</g>

			<g
   id="XMLID_434_">
				<path
   id="XMLID_431_"
   style="fill:#ffffff"
   d="m 114.27,90.585 c -3.328,-0.011 -8.228,1.991 -9.643,6.774 -1.722,5.819 1.848,11.47 9.643,11.194 8.364,-0.296 11.323,-5.266 10.427,-9.879 -0.96,-4.941 -4.591,-8.07 -10.427,-8.089 z" />

				<g
   id="XMLID_429_">
					<path
   id="XMLID_476_"
   style="fill:#002030"
   d="m 104.493,98.385 c 1.555,-4.692 6.913,-7.591 11.686,-6.629 1.932,0.389 4.013,1.453 5.293,2.976 1.43,1.702 1.632,3.913 2.975,5.609 0.212,0.269 0.768,0.431 0.963,0.049 1.248,-2.438 -0.699,-5.615 -2.44,-7.372 -1.814,-1.833 -4.531,-3.058 -7.08,-3.353 -2.601,-0.301 -5.485,0.278 -7.706,1.694 -2.672,1.704 -3.437,3.928 -3.904,6.948 -0.028,0.17 0.148,0.274 0.213,0.078 z" />

				</g>

				
					<circle
   id="XMLID_430_"
   transform="matrix(0.7071,-0.7071,0.7071,0.7071,-38.4498,109.2883)"
   style="fill:#19313a"
   cx="112.698"
   cy="101.057"
   r="7.5050001" />

				<path
   id="XMLID_432_"
   style="fill:#ffffff"
   d="m 106.684,100.376 c 0,-1.325 1.074,-2.399 2.399,-2.399 1.325,0 2.399,1.074 2.399,2.399 0,1.325 -1.074,2.399 -2.399,2.399 -1.326,-0.001 -2.399,-1.075 -2.399,-2.399 z" />

			</g>

			<g
   id="XMLID_443_">
				<path
   id="XMLID_469_"
   style="fill:#ffffff"
   d="m 79.769,90.585 c 3.328,-0.011 8.228,1.991 9.644,6.774 1.722,5.819 -1.849,11.47 -9.644,11.194 -8.364,-0.296 -11.323,-5.266 -10.427,-9.879 0.96,-4.941 4.592,-8.07 10.427,-8.089 z" />

				<g
   id="XMLID_451_">
					<path
   id="XMLID_516_"
   style="fill:#002030"
   d="m 89.759,98.248 c -0.503,-3.125 -1.787,-5.566 -4.626,-7.196 -2.639,-1.515 -5.991,-1.856 -8.891,-0.992 -2.049,0.61 -4.146,1.757 -5.557,3.389 -1.425,1.649 -3.39,4.627 -1.992,6.739 0.227,0.343 0.788,0.656 1.077,0.202 0.903,-1.416 1.125,-3.1 2.013,-4.541 0.988,-1.606 2.372,-2.665 4.084,-3.43 5.258,-2.348 11.887,0.375 13.672,5.979 0.073,0.229 0.244,0 0.22,-0.15 z" />

				</g>

				
					<circle
   id="XMLID_450_"
   transform="matrix(0.987,-0.1606,0.1606,0.987,-15.1702,14.3712)"
   style="fill:#19313a"
   cx="81.342003"
   cy="101.057"
   r="7.5050001" />

				<path
   id="XMLID_444_"
   style="fill:#ffffff"
   d="m 79.989,100.376 c 0,-1.325 -1.074,-2.399 -2.399,-2.399 -1.325,0 -2.399,1.074 -2.399,2.399 0,1.325 1.074,2.399 2.399,2.399 1.325,0 2.399,-1.075 2.399,-2.399 z" />

			</g>

			<g
   id="XMLID_458_">
				<path
   id="XMLID_459_"
   style="fill:#002030"
   d="m 121.192,83.826 c 0.055,-0.16 0.086,-0.318 0.051,-0.483 -0.184,-0.841 -0.653,-1.461 -1.225,-2.09 -0.77,-0.847 -1.725,-1.525 -2.719,-2.082 -1.937,-1.086 -4.181,-1.637 -6.402,-1.518 -0.419,0.022 -0.849,0.071 -1.218,0.27 -0.479,0.258 -0.811,0.77 -0.851,1.313 -0.074,1.003 0.73,1.471 1.614,1.604 0.668,0.101 1.336,0.202 2.004,0.303 0.489,0.074 0.979,0.148 1.464,0.246 1.624,0.328 3.193,0.925 4.624,1.76 0.592,0.345 1.178,0.738 1.848,0.879 0.235,0.051 0.696,0.098 0.81,-0.202 z" />

			</g>

			<g
   id="XMLID_467_">
				<path
   id="XMLID_468_"
   style="fill:#002030"
   d="m 74.646,83.439 c -0.042,-0.164 -0.062,-0.325 -0.013,-0.485 0.249,-0.825 0.764,-1.407 1.383,-1.99 0.832,-0.785 1.837,-1.387 2.872,-1.866 2.016,-0.933 4.294,-1.309 6.5,-1.018 0.416,0.055 0.841,0.136 1.194,0.363 0.458,0.294 0.749,0.83 0.747,1.374 -0.003,1.006 -0.842,1.41 -1.732,1.475 -0.674,0.049 -1.348,0.099 -2.021,0.147 -0.494,0.036 -0.988,0.072 -1.479,0.133 -1.645,0.202 -3.255,0.676 -4.747,1.397 -0.617,0.299 -1.23,0.645 -1.91,0.734 -0.24,0.032 -0.703,0.044 -0.794,-0.264 z" />

			</g>

			<g
   id="XMLID_471_">
				<path
   id="XMLID_472_"
   style="fill:#002030"
   d="m 127.908,53.179 c 1.444,1.206 1.62,4.406 1.433,6.042 -0.194,1.705 -0.914,2.56 -2,3.853 -0.547,0.651 -0.613,0.561 -0.885,1.335 -0.118,0.335 0.387,0.579 0.646,0.491 3.05,-1.038 3.934,-5.153 3.382,-7.933 -0.273,-1.374 -0.916,-3.744 -2.511,-4.114 -0.163,-0.039 -0.147,0.258 -0.065,0.326 z" />

			</g>

			<path
   id="XMLID_486_"
   style="fill:#002030"
   d="m 135.485,63.239 c -0.905,-2.706 -6.792,-1.354 -8.092,0.164 -0.201,0.234 -0.545,0.696 -0.437,1.027 0.364,1.108 2.431,-0.339 2.825,-0.49 1.34,-0.515 4.192,-1.254 5.564,-0.507 0.119,0.064 0.17,-0.104 0.14,-0.194 z" />

			<path
   id="XMLID_474_"
   style="fill:#ffc8ac"
   d="m 130.716,94.024 c 1.111,-3.536 5.978,-8.511 11.602,-6.348 5.623,2.163 6.921,10.599 3.785,16.871 -3.136,6.272 -11.693,8.57 -14.877,4.015 z" />

			<path
   id="XMLID_464_"
   style="fill:#9e5147"
   d="m 130.398,98.446 c -0.069,0.209 0.215,0.657 0.463,0.495 1.061,-0.697 1.817,-1.711 2.924,-2.338 1.198,-0.678 2.52,-0.872 3.852,-0.729 0.621,0.859 1.176,1.52 1.045,2.838 -0.114,1.143 -0.6,2.406 -1.392,3.249 -0.622,0.663 -1.56,0.856 -2.323,1.307 -0.058,0.035 -0.118,0.218 -0.02,0.242 3.616,0.882 6.04,-4.148 4.927,-7.063 2.04,0.861 3.729,2.57 3.62,4.958 -0.005,0.112 0.113,0.087 0.145,0.006 2.974,-7.489 -10.893,-10.127 -13.241,-2.965 z" />

			<path
   id="XMLID_460_"
   style="fill:#002030"
   d="m 138.074,87.302 c -1.291,9.313 -7.463,14.429 -8.486,12.678 -1.023,-1.751 0.497,-9.832 0,-12.303 l 8.486,-0.375" />

			<path
   id="XMLID_478_"
   style="fill:#e73555"
   d="m 76.914,189.919 -7.714,9.184 c 0,0 5.532,6.906 32.37,6.906 26.838,0 32.37,-6.906 32.37,-6.906 l -7.714,-9.184 z" />

			<path
   id="XMLID_378_"
   style="fill:#f8b272"
   d="m 120.292,158.563 c -3.409,-11.154 -7.477,-15.092 -8.814,-18.717 v 0 c -0.032,0.085 -1.651,4.233 -9.908,4.233 -8.252,0 -9.875,-4.143 -9.909,-4.233 -1.337,3.625 -5.405,7.563 -8.813,18.716 -4.599,15.051 -5.935,31.356 -5.935,31.356 0,0 9.62,3.206 24.656,3.206 15.036,0 24.656,-3.206 24.656,-3.206 0,0 -1.334,-16.305 -5.933,-31.355 z" />

			<path
   id="XMLID_313_"
   style="fill:#ffe568"
   d="m 92.092,137.991 c 0,0 -4.902,1.408 -4.58,5.075 0.322,3.667 7.565,7.2 14.058,1.013 z" />

			<path
   id="XMLID_562_"
   style="fill:#ffe568"
   d="m 111.048,137.991 c 0,0 4.902,1.408 4.58,5.075 -0.322,3.667 -7.565,7.2 -14.058,1.013 z" />

		</g>
  </g>
</svg>
