<?xml version="1.0" encoding="UTF-8" standalone="no"?>
<!-- Created with Inkscape (http://www.inkscape.org/) -->

<svg
   width="25.384018mm"
   height="46.41275mm"
   viewBox="0 0 25.384016 46.412751"
   version="1.1"
   id="svg1"
   inkscape:version="1.4.2 (f4327f4, 2025-05-13)"
   sodipodi:docname="girl17.svg"
   xmlns:inkscape="http://www.inkscape.org/namespaces/inkscape"
   xmlns:sodipodi="http://sodipodi.sourceforge.net/DTD/sodipodi-0.dtd"
   xmlns:xlink="http://www.w3.org/1999/xlink"
   xmlns="http://www.w3.org/2000/svg"
   xmlns:svg="http://www.w3.org/2000/svg">
  <sodipodi:namedview
     id="namedview1"
     pagecolor="#ffffff"
     bordercolor="#000000"
     borderopacity="0.25"
     inkscape:showpageshadow="2"
     inkscape:pageopacity="0.0"
     inkscape:pagecheckerboard="0"
     inkscape:deskcolor="#d1d1d1"
     inkscape:document-units="mm"
     inkscape:zoom="1.2275954"
     inkscape:cx="74.128658"
     inkscape:cy="-55.392844"
     inkscape:window-width="2880"
     inkscape:window-height="1676"
     inkscape:window-x="-12"
     inkscape:window-y="-12"
     inkscape:window-maximized="1"
     inkscape:current-layer="layer1" />
  <defs
     id="defs1">
    <clipPath
       id="SVGID_00000119818789281150872890000010399472127891452846_">
					<use
   xlink:href="#SVGID_1_"
   style="overflow:visible"
   id="use374" />

				</clipPath>
    <path
       id="SVGID_1_"
       d="m 372.545,399.307 c 0,0 -1.283,0 -3.26,0 -6.713,0 -19.791,0 -19.801,0 0,0.838 4.299,47.073 4.58,51.589 0.954,15.214 4.023,46.87 4.105,48.206 0,0 1.713,0.708 5.477,0 l 3.053,-47.784 3.107,-36.587 c 0,0 0.585,-1.01 1.11,-1.054 0.524,0.044 0.994,1.159 0.994,1.159 l 3.633,36.588 2.381,47.703 c 4.615,0.856 6.041,-0.025 6.041,-0.025 0.084,-1.336 2.072,-29.132 3.002,-48.613 1.178,-24.746 5.303,-50.712 5.303,-51.182 -0.01,0 -13.012,0 -19.725,0 z" />
  </defs>
  <g
     inkscape:label="图层 1"
     inkscape:groupmode="layer"
     id="layer1"
     transform="translate(-85.353109,-163.31933)">
    <g
       id="XMLID_627_"
       transform="matrix(0.26458333,0,0,0.26458333,-9.058949,149.62668)">
			<path
   id="XMLID_676_"
   style="fill:#ffc8ac"
   d="m 423.524,158.732 c -3.988,-13.05 -8.882,-16.222 -9.244,-20.572 -0.339,-4.064 -0.434,-8.609 -0.434,-8.609 h -18.088 c 0,0 -0.096,4.545 -0.435,8.609 -0.362,4.35 -5.256,7.522 -9.243,20.572 -4.599,15.051 -5.935,31.356 -5.935,31.356 0,0 9.62,3.206 24.656,3.206 15.036,0 24.656,-3.206 24.656,-3.206 0,0 -1.334,-16.305 -5.933,-31.356 z" />

			<path
   id="XMLID_57_"
   style="fill:#cc5440"
   d="m 367.41,98.146 c 0,0 -7.838,-0.973 -8.004,-16.389 -0.216,-20.002 27.435,-41.088 58.281,-20.917 16.97,-3.792 28.835,9.198 27.862,27.007 -1.121,20.524 -0.77,39.126 -16.091,43.738 -15.322,4.612 -26.132,1.724 -26.132,1.724 z" />

			<g
   id="XMLID_697_">
				<path
   id="XMLID_698_"
   style="fill:#cc5440"
   d="m 411.89,52.176 c 1.869,0.217 3.77,2.798 4.51,4.269 0.772,1.533 0.638,2.643 0.438,4.319 -0.102,0.844 -0.205,0.805 -0.009,1.602 0.086,0.345 0.641,0.272 0.81,0.056 1.983,-2.539 0.468,-6.466 -1.518,-8.489 -0.98,-0.999 -2.817,-2.629 -4.354,-2.066 -0.159,0.058 0.017,0.297 0.123,0.309 z" />

			</g>

			<path
   id="XMLID_696_"
   style="fill:#cc5440"
   d="m 423.741,56.439 c -2.24,-1.767 -6.424,2.589 -6.679,4.572 -0.04,0.306 -0.074,0.881 0.197,1.098 0.911,0.727 1.848,-1.616 2.095,-1.958 0.839,-1.165 2.819,-3.347 4.376,-3.473 0.134,-0.011 0.085,-0.18 0.011,-0.239 z" />

			<path
   id="XMLID_31_"
   style="fill:#ffc8ac"
   d="m 394.891,138.524 c -2.893,-1.26 -7.893,0.395 -16.976,10.577 -2.618,2.935 -5.181,5.92 -7.684,8.954 -1.87,2.266 -3.708,4.559 -5.5,6.886 -0.659,0.855 -1.283,1.772 -2.109,2.479 -0.932,0.796 -2.148,1.104 -3.305,1.414 -0.726,0.195 -1.627,0.316 -2.178,0.877 -0.573,0.583 -0.292,1.452 0.434,1.738 0.78,0.309 1.746,0.105 2.565,0.167 0.139,0.011 0.274,0.056 0.358,0.166 0.13,0.166 -0.006,0.414 -0.09,0.539 -0.55,0.813 -0.893,1.222 -1.221,1.697 -0.533,0.773 -2.063,2.461 -1.393,3.475 0.264,0.397 0.973,0.534 1.328,0.362 0.575,-0.278 1.09,-0.663 1.564,-1.089 0.238,-0.214 0.468,-0.439 0.692,-0.667 0.182,-0.185 0.431,-0.524 0.73,-0.49 0.252,0.03 0.246,0.343 0.207,0.525 -0.045,0.211 -0.148,0.406 -0.252,0.593 -0.394,0.709 -0.851,1.409 -1.146,2.165 -0.144,0.367 -0.275,0.744 -0.309,1.136 -0.026,0.306 0.02,0.643 0.236,0.859 0.158,0.157 0.384,0.229 0.606,0.245 0.496,0.036 0.984,-0.179 1.373,-0.488 0.487,-0.387 0.875,-0.878 1.255,-1.367 0.396,-0.51 0.79,-1.023 1.206,-1.518 0.089,-0.106 0.195,-0.219 0.333,-0.227 0.149,-0.009 0.28,0.118 0.324,0.261 0.044,0.143 0.02,0.297 -0.014,0.443 -0.087,0.393 -0.265,0.719 -0.413,1.087 -0.154,0.382 -0.288,0.771 -0.402,1.167 -0.122,0.429 -0.23,0.9 -0.061,1.313 0.31,0.759 1.201,0.906 1.871,0.413 0.661,-0.487 2.105,-3.274 2.34,-3.705 1.444,-2.65 3.313,-5.031 5.065,-7.488 2.766,-3.876 9.23,-11.541 11.753,-13.777 z" />

			<path
   id="XMLID_30_"
   style="fill:#ffc8ac"
   d="m 414.714,138.524 c 2.893,-1.26 7.893,0.395 16.977,10.577 2.618,2.935 5.181,5.92 7.684,8.954 1.869,2.266 3.707,4.559 5.5,6.886 0.658,0.855 1.282,1.772 2.108,2.479 0.932,0.796 2.148,1.104 3.306,1.414 0.725,0.195 1.627,0.316 2.178,0.877 0.572,0.583 0.292,1.452 -0.434,1.738 -0.78,0.309 -1.746,0.105 -2.566,0.167 -0.138,0.011 -0.273,0.056 -0.358,0.166 -0.129,0.166 0.006,0.414 0.091,0.539 0.549,0.813 0.892,1.222 1.22,1.697 0.534,0.773 2.063,2.461 1.392,3.475 -0.263,0.397 -0.972,0.534 -1.328,0.362 -0.574,-0.278 -1.09,-0.663 -1.564,-1.089 -0.238,-0.214 -0.468,-0.439 -0.692,-0.667 -0.183,-0.185 -0.432,-0.524 -0.73,-0.49 -0.253,0.03 -0.247,0.343 -0.207,0.525 0.045,0.211 0.147,0.406 0.252,0.593 0.393,0.709 0.851,1.409 1.146,2.165 0.143,0.367 0.274,0.744 0.309,1.136 0.026,0.306 -0.02,0.643 -0.237,0.859 -0.157,0.157 -0.384,0.229 -0.605,0.245 -0.496,0.036 -0.984,-0.179 -1.374,-0.488 -0.486,-0.387 -0.874,-0.878 -1.254,-1.367 -0.397,-0.51 -0.791,-1.023 -1.207,-1.518 -0.089,-0.106 -0.194,-0.219 -0.332,-0.227 -0.149,-0.009 -0.28,0.118 -0.324,0.261 -0.044,0.143 -0.02,0.297 0.013,0.443 0.088,0.393 0.266,0.719 0.414,1.087 0.154,0.382 0.288,0.771 0.401,1.167 0.123,0.429 0.232,0.9 0.063,1.313 -0.31,0.759 -1.202,0.906 -1.871,0.413 -0.662,-0.487 -2.105,-3.274 -2.341,-3.705 -1.443,-2.65 -2.967,-5.293 -4.722,-7.748 -4.675,-6.544 -9.574,-11.28 -12.096,-13.517 z" />

			<path
   id="XMLID_98_"
   style="fill:#cc5440"
   d="m 438.427,133.803 c -0.732,3.396 -2.511,8.065 -5.409,9.845 -2.899,1.78 -10.171,-6.483 -7.49,-12.584 1.507,-3.43 4.897,-5.057 6.652,-5.296 1.755,-0.239 7.196,3.627 6.247,8.035 z" />

			<path
   id="XMLID_183_"
   style="fill:#cc5440"
   d="m 438.774,146.272 c -0.73,3.396 -2.511,8.065 -5.409,9.845 -2.898,1.78 -10.171,-6.483 -7.49,-12.585 1.507,-3.43 4.896,-5.057 6.652,-5.296 1.757,-0.238 7.197,3.627 6.247,8.036 z" />

			<path
   id="XMLID_675_"
   style="fill:#f49282"
   d="m 413.903,129.551 h -18.145 c 0,0 -0.078,3.673 -0.34,7.369 1.858,0.105 3.698,0.145 5.483,0.145 4.266,0 10.125,-1.47 13.108,-3.103 -0.162,-3.339 -0.106,-4.411 -0.106,-4.411 z" />

			<path
   id="XMLID_674_"
   style="fill:#ffc8ac"
   d="m 380.146,190.088 2.6,31.106 c 0,0 -4.796,1.415 -7.256,2.83 -2.459,1.415 -1.857,3.145 9.084,3.145 10.942,0 15.907,0 15.907,0 l 3.357,-37.082 h -23.692 z" />

			<path
   id="XMLID_673_"
   style="fill:#ffc8ac"
   d="m 429.524,190.088 -2.6,31.106 c 0,0 4.796,1.415 7.256,2.83 2.459,1.415 1.858,3.145 -9.084,3.145 -10.942,0 -15.907,0 -15.907,0 l -3.356,-37.082 h 23.691 z" />

			<path
   id="XMLID_672_"
   style="fill:#f49282"
   d="m 403.616,192.539 h -23.265 l 1.134,13.568 c 4.521,1.253 11.136,2.329 20.677,2.498 z" />

			<path
   id="XMLID_671_"
   style="fill:#f49282"
   d="m 406.055,192.539 1.454,16.064 c 9.554,-0.174 16.166,-1.257 20.679,-2.516 l 1.132,-13.548 z" />

			<path
   id="XMLID_41_"
   style="fill:#ec5e76"
   d="m 414.711,140.016 -9.908,4.233 -9.909,-4.233 c 0,0 -18.585,27.793 -22.461,59.257 0,0 4.901,6.906 32.37,6.906 27.469,0 32.369,-6.906 32.369,-6.906 -3.875,-31.465 -22.461,-59.257 -22.461,-59.257 z" />

			<path
   id="XMLID_670_"
   style="fill:#002030"
   d="m 409.189,227.17 c 0,0 4.965,0 15.907,0 10.942,0 11.543,-1.73 9.084,-3.145 -2.46,-1.415 -7.256,-2.83 -7.256,-2.83 h -18.276 z" />

			<path
   id="XMLID_669_"
   style="fill:#002030"
   d="m 382.746,221.195 c 0,0 -4.796,1.415 -7.256,2.83 -2.459,1.415 -1.857,3.145 9.084,3.145 10.942,0 15.907,0 15.907,0 l 0.541,-5.975 z" />

			<path
   id="XMLID_664_"
   style="fill:#ffc8ac"
   d="m 400.902,131.584 c 9.635,0 20.876,-1.147 27.759,-7.571 6.882,-6.423 7.57,-22.941 3.441,-39.229 -4.13,-16.288 -19.959,-19.959 -31.2,-19.959 -11.241,0 -27.071,3.671 -31.2,19.959 -4.13,16.289 -3.441,32.806 3.44,39.229 6.883,6.424 18.125,7.571 27.76,7.571 z" />

			<path
   id="XMLID_640_"
   style="fill:#fca39a"
   d="m 368.569,113.915 c 0,-3.822 3.099,-6.921 6.921,-6.921 3.823,0 6.922,3.099 6.922,6.921 0,3.822 -3.099,6.921 -6.922,6.921 -3.822,0 -6.921,-3.099 -6.921,-6.921 z" />

			<path
   id="XMLID_639_"
   style="fill:#fca39a"
   d="m 417.848,113.915 c 0,-3.822 3.099,-6.921 6.921,-6.921 3.822,0 6.922,3.099 6.922,6.921 0,3.822 -3.1,6.921 -6.922,6.921 -3.823,0 -6.921,-3.099 -6.921,-6.921 z" />

			<path
   id="XMLID_59_"
   style="fill:#cc5440"
   d="m 402.466,64.852 c 0,0 5.638,15.947 31.154,30.334 0,0 5.23,-14.417 -4.583,-23.454 -9.814,-9.037 -26.571,-6.88 -26.571,-6.88 z" />

			<path
   id="XMLID_103_"
   style="fill:#cc5440"
   d="m 402.466,64.852 c 0,0 -5.082,19.773 -36.711,29.556 0,0 0.327,-13.638 10.141,-22.675 9.813,-9.038 26.57,-6.881 26.57,-6.881 z" />

			<path
   id="XMLID_663_"
   style="fill:#fca39a"
   d="m 399.246,110.216 c -2.518,-0.085 -4.792,1.512 -4.777,2.26 0.035,1.748 8.953,2.105 8.858,0 -0.054,-1.175 -1.921,-2.187 -4.081,-2.26 z" />

			<g
   id="XMLID_661_">
				<path
   id="XMLID_662_"
   style="fill:#9e5147"
   d="m 394.241,112.946 c 1.582,-1.185 2.732,-2.364 4.889,-2.372 1.984,-0.007 3.041,1.06 4.127,2.537 0.187,0.253 0.667,0.264 0.618,-0.135 -0.548,-4.473 -8.572,-4.057 -9.726,-0.159 -0.014,0.051 0.017,0.186 0.092,0.129 z" />

			</g>

			<g
   id="XMLID_659_">
				<path
   id="XMLID_660_"
   style="fill:#9e5147"
   d="m 391.88,120.573 c 5.796,3.442 15.385,1.957 19.897,-2.947 0.481,-0.524 -0.564,-1.027 -0.989,-0.562 -4.538,4.951 -12.954,5.429 -18.837,3.036 -0.327,-0.132 -0.277,0.351 -0.071,0.473 z" />

			</g>

			<g
   id="XMLID_657_">
				<path
   id="XMLID_658_"
   style="fill:#9e5147"
   d="m 410.712,115.391 c -0.563,0.576 0.016,1.611 0.479,2.042 0.531,0.496 1.459,0.963 2.2,0.706 0.252,-0.088 0.523,-0.394 0.246,-0.639 -0.218,-0.193 -0.751,-0.025 -1.034,-0.085 -1.035,-0.217 -1.339,-1.076 -1.661,-1.955 -0.04,-0.103 -0.149,-0.151 -0.23,-0.069 z" />

			</g>

			<g
   id="XMLID_651_">
				<path
   id="XMLID_656_"
   style="fill:#ffffff"
   d="m 417.503,90.755 c -3.328,-0.011 -8.229,1.991 -9.644,6.775 -1.722,5.818 1.849,11.469 9.644,11.194 8.364,-0.296 11.322,-5.266 10.427,-9.879 -0.96,-4.942 -4.591,-8.072 -10.427,-8.09 z" />

				<g
   id="XMLID_654_">
					<path
   id="XMLID_655_"
   style="fill:#002030"
   d="m 407.726,98.554 c 1.555,-4.692 6.912,-7.59 11.685,-6.629 1.933,0.389 4.014,1.453 5.293,2.976 1.43,1.702 1.633,3.913 2.975,5.609 0.213,0.269 0.768,0.431 0.963,0.05 1.248,-2.438 -0.699,-5.615 -2.439,-7.373 -1.814,-1.832 -4.531,-3.058 -7.08,-3.353 -2.602,-0.301 -5.485,0.278 -7.706,1.694 -2.672,1.705 -3.438,3.928 -3.904,6.948 -0.029,0.17 0.147,0.275 0.213,0.078 z" />

				</g>

				<path
   id="XMLID_653_"
   style="fill:#19313a"
   d="m 408.425,101.227 c 0,-4.145 3.36,-7.505 7.505,-7.505 4.146,0 7.506,3.36 7.506,7.505 0,4.146 -3.36,7.505 -7.506,7.505 -4.145,0 -7.505,-3.36 -7.505,-7.505 z" />

				<path
   id="XMLID_652_"
   style="fill:#ffffff"
   d="m 409.577,100.545 c 0,-1.325 1.074,-2.399 2.4,-2.399 1.326,0 2.399,1.074 2.399,2.399 0,1.325 -1.074,2.399 -2.399,2.399 -1.325,0 -2.4,-1.074 -2.4,-2.399 z" />

			</g>

			<g
   id="XMLID_645_">
				<path
   id="XMLID_650_"
   style="fill:#ffffff"
   d="m 383.002,90.755 c 3.328,-0.011 8.228,1.991 9.643,6.775 1.722,5.818 -1.849,11.469 -9.643,11.194 -8.364,-0.296 -11.323,-5.266 -10.427,-9.879 0.96,-4.942 4.591,-8.072 10.427,-8.09 z" />

				<g
   id="XMLID_648_">
					<path
   id="XMLID_649_"
   style="fill:#002030"
   d="m 392.991,98.417 c -0.503,-3.125 -1.786,-5.566 -4.626,-7.195 -2.639,-1.515 -5.991,-1.856 -8.891,-0.992 -2.05,0.61 -4.146,1.757 -5.557,3.389 -1.426,1.649 -3.391,4.627 -1.993,6.739 0.227,0.343 0.788,0.655 1.077,0.202 0.903,-1.417 1.125,-3.1 2.013,-4.542 0.988,-1.606 2.372,-2.665 4.084,-3.43 5.259,-2.349 11.888,0.375 13.673,5.979 0.074,0.23 0.245,0.001 0.22,-0.15 z" />

				</g>

				<path
   id="XMLID_647_"
   style="fill:#19313a"
   d="m 392.08,101.227 c 0,-4.145 -3.36,-7.505 -7.506,-7.505 -4.145,0 -7.505,3.36 -7.505,7.505 0,4.146 3.36,7.505 7.505,7.505 4.146,0 7.506,-3.36 7.506,-7.505 z" />

				<path
   id="XMLID_646_"
   style="fill:#ffffff"
   d="m 383.168,100.545 c 0,-1.325 -1.074,-2.399 -2.399,-2.399 -1.325,0 -2.4,1.074 -2.4,2.399 0,1.325 1.074,2.399 2.4,2.399 1.326,0 2.399,-1.074 2.399,-2.399 z" />

			</g>

			<g
   id="XMLID_643_">
				<path
   id="XMLID_644_"
   style="fill:#a03717"
   d="m 424.358,83.003 c 0.055,-0.16 0.087,-0.319 0.051,-0.483 -0.185,-0.841 -0.653,-1.461 -1.225,-2.09 -0.77,-0.847 -1.726,-1.525 -2.72,-2.083 -1.938,-1.086 -4.181,-1.636 -6.401,-1.517 -0.419,0.022 -0.85,0.071 -1.219,0.27 -0.479,0.258 -0.811,0.77 -0.851,1.312 -0.074,1.003 0.73,1.471 1.613,1.604 0.668,0.101 1.336,0.202 2.004,0.304 0.489,0.074 0.978,0.148 1.464,0.246 1.624,0.328 3.193,0.925 4.624,1.76 0.593,0.345 1.178,0.738 1.849,0.879 0.236,0.05 0.698,0.098 0.811,-0.202 z" />

			</g>

			<g
   id="XMLID_641_">
				<path
   id="XMLID_642_"
   style="fill:#a03717"
   d="m 375.977,82.27 c -0.042,-0.163 -0.061,-0.324 -0.013,-0.485 0.248,-0.825 0.764,-1.407 1.383,-1.989 0.832,-0.785 1.837,-1.387 2.871,-1.866 2.016,-0.934 4.295,-1.309 6.5,-1.019 0.416,0.055 0.841,0.136 1.194,0.363 0.457,0.294 0.749,0.83 0.747,1.374 -0.004,1.006 -0.842,1.41 -1.733,1.475 -0.674,0.049 -1.347,0.099 -2.021,0.148 -0.494,0.036 -0.988,0.072 -1.479,0.132 -1.644,0.202 -3.255,0.676 -4.746,1.398 -0.617,0.298 -1.23,0.645 -1.91,0.734 -0.239,0.031 -0.702,0.042 -0.793,-0.265 z" />

			</g>

			<path
   id="XMLID_635_"
   style="fill:#ffc8ac"
   d="m 433.948,94.194 c 1.111,-3.536 5.978,-8.511 11.602,-6.348 5.623,2.163 6.921,10.599 3.785,16.871 -3.137,6.273 -11.693,8.57 -14.877,4.015 z" />

			<path
   id="XMLID_634_"
   style="fill:#9e5147"
   d="m 433.63,98.616 c -0.068,0.209 0.216,0.658 0.463,0.495 1.061,-0.697 1.817,-1.712 2.925,-2.338 1.198,-0.678 2.52,-0.873 3.852,-0.729 0.621,0.859 1.177,1.52 1.046,2.838 -0.113,1.143 -0.601,2.407 -1.392,3.25 -0.622,0.663 -1.56,0.856 -2.323,1.307 -0.058,0.034 -0.118,0.218 -0.021,0.242 3.615,0.882 6.04,-4.148 4.928,-7.063 2.039,0.86 3.728,2.569 3.619,4.958 -0.005,0.113 0.113,0.087 0.145,0.006 2.973,-7.491 -10.895,-10.128 -13.242,-2.966 z" />

			<path
   id="XMLID_632_"
   style="fill:#cc5440"
   d="m 441.307,87.472 c -1.291,9.313 -7.464,14.429 -8.486,12.678 -1.022,-1.751 0.498,-9.832 0,-12.303 l 8.486,-0.375" />

			<path
   id="XMLID_629_"
   style="fill:#f7f9f9"
   d="m 395.324,138.16 c 0,0 -4.901,1.408 -4.579,5.075 0.321,3.667 7.565,7.201 14.058,1.014 z" />

			<path
   id="XMLID_628_"
   style="fill:#f7f9f9"
   d="m 414.28,138.16 c 0,0 4.901,1.408 4.58,5.075 -0.322,3.667 -7.565,7.201 -14.058,1.014 z" />

		</g>
  </g>
</svg>
