<?xml version="1.0" encoding="UTF-8" standalone="no"?>
<!-- Created with Inkscape (http://www.inkscape.org/) -->

<svg
   width="20.075365mm"
   height="47.568977mm"
   viewBox="0 0 20.075365 47.568977"
   version="1.1"
   id="svg1"
   inkscape:version="1.4.2 (f4327f4, 2025-05-13)"
   sodipodi:docname="girl11.svg"
   xmlns:inkscape="http://www.inkscape.org/namespaces/inkscape"
   xmlns:sodipodi="http://sodipodi.sourceforge.net/DTD/sodipodi-0.dtd"
   xmlns="http://www.w3.org/2000/svg"
   xmlns:svg="http://www.w3.org/2000/svg">
  <sodipodi:namedview
     id="namedview1"
     pagecolor="#ffffff"
     bordercolor="#000000"
     borderopacity="0.25"
     inkscape:showpageshadow="2"
     inkscape:pageopacity="0.0"
     inkscape:pagecheckerboard="0"
     inkscape:deskcolor="#d1d1d1"
     inkscape:document-units="mm"
     inkscape:zoom="1.2275954"
     inkscape:cx="-39.915431"
     inkscape:cy="101.01048"
     inkscape:window-width="2880"
     inkscape:window-height="1676"
     inkscape:window-x="-12"
     inkscape:window-y="-12"
     inkscape:window-maximized="1"
     inkscape:current-layer="layer1" />
  <defs
     id="defs1" />
  <g
     inkscape:label="图层 1"
     inkscape:groupmode="layer"
     id="layer1"
     transform="translate(-115.62292,-121.70833)">
    <g
       id="g249"
       transform="matrix(0.26458333,0,0,0.26458333,18.788436,51.229836)">
		<path
   style="fill:#33527b"
   d="m 405.689,266.412 c 0,0 26.665,-2.225 34.08,28.03 7.415,30.255 -34.08,34.111 -34.08,34.111 0,0 -33.104,-0.297 -33.104,-26.844 0,-26.547 14.597,-35.445 33.104,-35.297 z"
   id="path224" />

		<path
   style="fill:#33527b"
   d="m 391.715,323.525 h 13.072 1.301 13.072 c 0,0 13.426,15.756 -13.471,32.23 l -0.004,0.307 c -0.084,-0.051 -0.164,-0.101 -0.247,-0.152 -0.084,0.051 -0.163,0.101 -0.247,0.152 l -0.004,-0.307 c -26.898,-16.473 -13.472,-32.23 -13.472,-32.23 z"
   id="path225" />

		<path
   style="fill:#d2695c"
   d="m 396.604,437.091 c 0,0 -7.33,3.723 -7.05,8.044 0.28,4.322 11.973,-6.663 11.973,-6.663 l 0.162,-2.105 z"
   id="path226" />

		<path
   style="fill:#d2695c"
   d="m 414.776,437.091 c 0,0 7.33,3.723 7.05,8.044 -0.28,4.322 -11.985,-6.373 -11.985,-6.373 l -0.149,-2.395 z"
   id="path227" />

		<path
   style="fill:#ead7a2"
   d="m 400.738,268.944 h 9.828 c 16.346,0 28.73,24.181 24.666,41.931 -2.407,10.51 -10.241,19.31 -29.727,19.31 -22.211,0 -29.096,-11.432 -30.045,-23.799 -1.261,-16.43 10.569,-37.442 25.278,-37.442 z"
   id="path228" />

		<path
   style="fill:#33527b"
   d="m 406.335,267.3 c -30.968,-0.925 -30.968,28.205 -30.968,28.205 0,0 15.548,-1.868 28.764,-21.37 15.795,23.37 33.652,21.37 33.652,21.37 0,0 -6.638,-27.464 -31.448,-28.205 z"
   id="path229" />

		<g
   id="g236">
			<path
   style="fill:none;stroke:#e48878;stroke-width:0.9942;stroke-miterlimit:10"
   d="m 399.157,309.692 c 0,0 5.881,4.035 13.514,0"
   id="path230" />

			<circle
   style="fill:#ead7a2"
   cx="375.36801"
   cy="308.302"
   r="5.8530002"
   id="circle230" />

			<path
   style="fill:#dbc690"
   d="m 403.137,308.302 h 5.554 c 0,0 -0.289,-2.56 -2.777,-2.56 -2.489,0 -2.777,2.56 -2.777,2.56 z"
   id="path231" />

			<path
   style="fill:none;stroke:#33527b;stroke-width:0.9942;stroke-miterlimit:10"
   d="m 389.993,297.702 c 0,0 2.086,-2.197 6.899,-2.197"
   id="path232" />

			<path
   style="fill:none;stroke:#33527b;stroke-width:0.9942;stroke-miterlimit:10"
   d="m 422.496,297.702 c 0,0 -2.086,-2.197 -6.899,-2.197"
   id="path233" />

			<circle
   style="fill:#dbc690"
   cx="375.36801"
   cy="308.302"
   r="2.5769999"
   id="circle233" />

			<circle
   style="fill:#ead7a2"
   cx="436.01099"
   cy="308.302"
   r="5.8530002"
   id="circle234" />

			<circle
   style="fill:#dbc690"
   cx="436.01099"
   cy="308.302"
   r="2.5769999"
   id="circle235" />

			<path
   style="fill:#e9b9c9"
   d="m 389.884,307.323 c 0,1.05 -0.851,1.9 -1.901,1.9 -1.05,0 -1.9,-0.851 -1.9,-1.9 0,-1.05 0.851,-1.901 1.9,-1.901 1.05,0 1.901,0.851 1.901,1.901 z"
   id="path235" />

			<circle
   style="fill:#e9b9c9"
   cx="423.84399"
   cy="307.323"
   r="1.9"
   id="circle236" />

		</g>

		<g
   id="g237">
			<path
   style="fill:#abcff1"
   d="m 422.16,350.852 c -6.548,-17.716 -14.213,-18.269 -14.213,-18.269 l 0.542,7.884 c 16.313,18.979 13.454,42.763 13.454,42.763 l 2.838,1.917 c 0,0 3.927,-16.579 -2.621,-34.295 z"
   id="path236" />

			<path
   style="fill:#abcff1"
   d="m 372.19,343.111 -3.094,1.341 c 0,0 4.139,13.57 17.144,5.868 13.004,-7.703 12.966,-7.468 12.966,-7.468 l 4.025,-10.362 c 0,0 -5.959,1.603 -17.761,11.866 -10.971,9.539 -13.28,-1.245 -13.28,-1.245 z"
   id="path237" />

		</g>

		<line
   style="fill:#d2695c"
   x1="402.565"
   y1="331.21201"
   x2="408.69"
   y2="331.21201"
   id="line237" />

		<g
   id="g238">
			<rect
   x="402.56601"
   y="327.85501"
   style="fill:#ead7a2"
   width="6.2480001"
   height="3.3570001"
   id="rect237" />

			<rect
   x="402.56601"
   y="331.21201"
   style="fill:#c3e1fd"
   width="6.2480001"
   height="5.2950001"
   id="rect238" />

		</g>

		<path
   style="fill:#33527b"
   d="m 392.453,378.092 3.128,59.574 h 6.011 l 3.608,-48.318 c 0.166,0.003 0.32,0.017 0.49,0.017 0.169,0 0.322,-0.013 0.487,-0.016 l 3.59,48.318 h 6.032 l 3.126,-59.559 c -11.099,3.439 -24.421,0.478 -26.472,-0.016 z"
   id="path238" />

		<path
   style="fill:none;stroke:#33527b;stroke-width:0.9942;stroke-miterlimit:10"
   d="m 389.662,304.801 c 0,0 0.159,-3.449 3.449,-3.449 3.29,0 3.449,3.449 3.449,3.449"
   id="path239" />

		<path
   style="fill:none;stroke:#33527b;stroke-width:0.9942;stroke-miterlimit:10"
   d="m 415.266,304.801 c 0,0 0.159,-3.449 3.449,-3.449 3.29,0 3.449,3.449 3.449,3.449"
   id="path240" />

		<path
   style="fill:#ead7a2"
   d="m 370.286,347.256 c 1.454,0.121 2.8,-0.815 3.331,-2.258 0.189,-0.514 0.33,-1.153 0.367,-1.944 0.146,-3.088 -0.329,-2.923 -0.707,-2.883 -0.378,0.041 -0.81,0.868 -0.701,2.853 -1.004,-4.881 -1.183,-5.77 -2.025,-5.625 -0.856,0.148 0.062,4.533 0.062,4.533 0,0 -1.323,-4.369 -1.936,-4.556 -0.613,-0.187 -0.963,0.628 -0.466,2.068 0.497,1.44 0.895,2.789 0.895,2.789 0,0 -1.401,-3.598 -2.023,-3.682 -0.544,-0.074 -0.988,0.42 -0.068,2.388 0.51,1.091 0.918,1.912 0.918,1.912 0,0 -1.231,-2.251 -1.723,-1.975 -0.478,0.268 -0.234,1.36 1.245,3.957 0.277,0.487 0.594,0.953 0.965,1.361 0.593,0.652 1.158,1.003 1.866,1.062 z"
   id="path241" />

		<path
   style="fill:#ead7a2"
   d="m 425.136,380.978 c -0.943,-1.114 -2.556,-1.404 -3.953,-0.758 -0.497,0.23 -1.049,0.582 -1.634,1.115 -2.286,2.08 -1.835,2.3 -1.538,2.538 0.296,0.238 1.186,-0.041 2.513,-1.522 -2.741,4.162 -3.244,4.916 -2.545,5.409 0.71,0.501 3.161,-3.25 3.161,-3.25 0,0 -2.154,4.025 -1.853,4.591 0.302,0.566 1.125,0.237 1.792,-1.133 0.667,-1.37 1.339,-2.605 1.339,-2.605 0,0 -1.554,3.534 -1.173,4.034 0.332,0.437 0.996,0.401 1.737,-1.641 0.411,-1.132 0.703,-2.002 0.703,-2.002 0,0 -0.721,2.462 -0.178,2.615 0.527,0.149 1.127,-0.796 1.918,-3.678 0.148,-0.54 0.254,-1.094 0.281,-1.645 0.04,-0.878 -0.111,-1.526 -0.57,-2.068 z"
   id="path242" />

		<path
   style="fill:#abcff1"
   d="m 436.011,312.362 c 0,0.49 0.397,0.887 0.887,0.887 0.49,0 0.887,-0.397 0.887,-0.887 0,-0.49 -0.397,-0.887 -0.887,-0.887 -0.49,0 -0.887,0.397 -0.887,0.887 z"
   id="path243" />

		<path
   style="fill:#abcff1"
   d="m 373.125,312.362 c 0,0.49 0.397,0.887 0.887,0.887 0.49,0 0.887,-0.397 0.887,-0.887 0,-0.49 -0.397,-0.887 -0.887,-0.887 -0.49,0 -0.887,0.397 -0.887,0.887 z"
   id="path244" />

		
			<circle
   transform="matrix(0.987,-0.1606,0.1606,0.987,-43.5661,67.0582)"
   style="fill:none;stroke:#d2695c;stroke-width:0.9942;stroke-miterlimit:10"
   cx="393.11099"
   cy="303.07599"
   id="ellipse244"
   r="7.9159999" />

		
			<circle
   transform="matrix(0.9856,-0.1693,0.1693,0.9856,-45.2611,75.2527)"
   style="fill:none;stroke:#d2695c;stroke-width:0.9942;stroke-miterlimit:10"
   cx="418.716"
   cy="303.07599"
   id="ellipse245"
   r="7.9159999" />

		<path
   style="fill:none;stroke:#d2695c;stroke-width:0.9942;stroke-miterlimit:10"
   d="m 401.027,303.076 c 0,0 2.794,-1.584 9.773,0"
   id="path245" />

		
			<line
   style="fill:none;stroke:#d2695c;stroke-width:0.9942;stroke-miterlimit:10"
   x1="375.36801"
   y1="301.98001"
   x2="385.19601"
   y2="303.07599"
   id="line245" />

		
			<line
   style="fill:none;stroke:#d2695c;stroke-width:0.9942;stroke-miterlimit:10"
   x1="436.01099"
   y1="301.98001"
   x2="426.18301"
   y2="303.07599"
   id="line246" />

		<path
   style="fill:#33527b"
   d="M 402.565,332.583"
   id="path246" />

		<g
   id="g248">
			<path
   style="fill:#c3e1fd"
   d="m 419.187,372.971 c -0.147,-8.629 -2.734,-18.839 -2.734,-25.857 0,-14.393 -10.825,-15.466 -10.825,-15.466 0,0 -10.702,1.073 -10.702,15.466 0,7.03 -2.595,17.263 -2.734,25.901 5.288,0.556 17.658,1.553 26.995,-0.044 z"
   id="path247" />

			<path
   style="fill:#abcff1"
   d="m 392.192,373.015 c -0.028,1.772 0.038,3.482 0.261,5.077 2.052,0.494 15.373,3.455 26.472,0.015 0.226,-1.613 0.293,-3.343 0.263,-5.136 -9.338,1.597 -21.708,0.6 -26.996,0.044 z"
   id="path248" />

		</g>

	</g>
  </g>
</svg>
