<?xml version="1.0" encoding="UTF-8" standalone="no"?>
<!-- Created with Inkscape (http://www.inkscape.org/) -->

<svg
   width="26.951565mm"
   height="64.908249mm"
   viewBox="0 0 26.951564 64.90825"
   version="1.1"
   id="svg1"
   inkscape:version="1.4.2 (f4327f4, 2025-05-13)"
   sodipodi:docname="girl15.svg"
   xmlns:inkscape="http://www.inkscape.org/namespaces/inkscape"
   xmlns:sodipodi="http://sodipodi.sourceforge.net/DTD/sodipodi-0.dtd"
   xmlns:xlink="http://www.w3.org/1999/xlink"
   xmlns="http://www.w3.org/2000/svg"
   xmlns:svg="http://www.w3.org/2000/svg">
  <sodipodi:namedview
     id="namedview1"
     pagecolor="#ffffff"
     bordercolor="#000000"
     borderopacity="0.25"
     inkscape:showpageshadow="2"
     inkscape:pageopacity="0.0"
     inkscape:pagecheckerboard="0"
     inkscape:deskcolor="#d1d1d1"
     inkscape:document-units="mm"
     inkscape:zoom="1.2275954"
     inkscape:cx="-28.511022"
     inkscape:cy="-135.22371"
     inkscape:window-width="2880"
     inkscape:window-height="1676"
     inkscape:window-x="-12"
     inkscape:window-y="-12"
     inkscape:window-maximized="1"
     inkscape:current-layer="layer1" />
  <defs
     id="defs1">
    <clipPath
       id="SVGID_00000119818789281150872890000010399472127891452846_">
					<use
   xlink:href="#SVGID_1_"
   style="overflow:visible"
   id="use374" />

				</clipPath>
    <path
       id="SVGID_1_"
       d="m 372.545,399.307 c 0,0 -1.283,0 -3.26,0 -6.713,0 -19.791,0 -19.801,0 0,0.838 4.299,47.073 4.58,51.589 0.954,15.214 4.023,46.87 4.105,48.206 0,0 1.713,0.708 5.477,0 l 3.053,-47.784 3.107,-36.587 c 0,0 0.585,-1.01 1.11,-1.054 0.524,0.044 0.994,1.159 0.994,1.159 l 3.633,36.588 2.381,47.703 c 4.615,0.856 6.041,-0.025 6.041,-0.025 0.084,-1.336 2.072,-29.132 3.002,-48.613 1.178,-24.746 5.303,-50.712 5.303,-51.182 -0.01,0 -13.012,0 -19.725,0 z" />
  </defs>
  <g
     inkscape:label="图层 1"
     inkscape:groupmode="layer"
     id="layer1"
     transform="translate(-112.6052,-184.48599)">
    <g
       id="g557"
       transform="matrix(0.26458333,0,0,0.26458333,28.347917,111.9853)">
	<g
   id="g522">
		<g
   id="g504">
			<g
   id="g374">
				<g
   id="g332">
					<path
   style="fill:#838587"
   d="m 377.44,489.416 0.484,9.711 c 4.615,0.856 6.041,-0.025 6.041,-0.025 0.029,-0.469 0.295,-4.2 0.664,-9.686 z"
   id="path331" />

					<path
   style="fill:#838587"
   d="m 357.283,489.416 c 0.502,5.437 0.86,9.241 0.887,9.686 0,0 1.713,0.708 5.477,0 l 0.619,-9.686 z"
   id="path332" />

				</g>

				<path
   style="fill:#838587"
   d="m 383.846,498.31 c 0,0 0.291,0.016 0.359,0.375 0.067,0.357 3.53,8.89 4.451,10.521 0.922,1.632 0.102,5.271 -4.266,5.359 -4.368,0.089 -7.236,-2.333 -7.482,-5.308 0,0 -0.141,-7.799 0.895,-11.23 0,0 0.379,-0.387 1.458,0 1.079,0.387 4.585,0.283 4.585,0.283 z"
   id="path333" />

				<g
   id="g352">
					<path
   style="fill:#319592"
   d="m 376.406,515.507 c 0.043,0.132 0.09,0.255 0.142,0.368 -0.052,-0.113 -0.099,-0.237 -0.142,-0.368 z"
   id="path334" />

					<path
   style="fill:#319592"
   d="m 376.114,514.05 c 0.021,0.179 0.046,0.352 0.072,0.516 -0.026,-0.165 -0.05,-0.337 -0.072,-0.516 z"
   id="path335" />

					<path
   style="fill:#319592"
   d="m 376.287,515.074 c 0.031,0.129 0.064,0.249 0.1,0.365 -0.035,-0.115 -0.069,-0.236 -0.1,-0.365 z"
   id="path336" />

					<path
   style="fill:#319592"
   d="m 376.19,514.583 c 0.025,0.155 0.055,0.302 0.088,0.445 -0.034,-0.141 -0.063,-0.29 -0.088,-0.445 z"
   id="path337" />

					<polygon
   style="fill:#1d1d1b"
   points="376.114,514.047 376.113,514.044 376.114,514.044 "
   id="polygon337" />

					<path
   style="fill:#1d1d1b"
   d="m 376.387,515.44 c 0.007,0.021 0.014,0.047 0.02,0.067 -0.006,-0.021 -0.013,-0.046 -0.02,-0.067 z"
   id="path338" />

					<path
   style="fill:#1d1d1b"
   d="m 376.277,515.028 c 0.004,0.015 0.006,0.03 0.01,0.046 -0.004,-0.015 -0.006,-0.031 -0.01,-0.046 z"
   id="path339" />

					<path
   style="fill:#1d1d1b"
   d="m 376.186,514.565 c 0.001,0.005 0.001,0.011 0.003,0.018 -0.001,-0.007 -0.001,-0.013 -0.003,-0.018 z"
   id="path340" />

					<path
   style="fill:#1d1d1b"
   d="m 378.438,516.442 c 1.881,1.138 4.203,1.741 6.589,1.878 3.647,0.205 6.963,-1.209 7.661,-3.568 0.002,0.004 0.004,0.009 0.004,0.014 0.027,0.138 0.045,0.278 0.056,0.419 0.001,0.026 0.005,0.054 0.005,0.079 0.009,0.148 0.009,0.296 -0.005,0.444 -10e-4,0.005 -0.003,0.013 -0.003,0.018 -0.014,0.137 -0.043,0.273 -0.078,0.41 -0.008,0.036 -0.019,0.072 -0.029,0.108 -0.043,0.143 -0.094,0.288 -0.164,0.431 -1.299,2.685 -4.969,2.769 -8.533,2.623 -3.292,-0.504 -6.263,-0.932 -7.392,-3.422 -0.052,-0.113 -0.099,-0.236 -0.142,-0.368 -0.006,-0.02 -0.013,-0.046 -0.02,-0.067 -0.035,-0.116 -0.068,-0.236 -0.1,-0.365 -0.004,-0.016 -0.006,-0.031 -0.01,-0.046 -0.033,-0.143 -0.063,-0.29 -0.088,-0.445 -0.002,-0.007 -0.002,-0.013 -0.003,-0.018 -0.026,-0.164 -0.051,-0.337 -0.072,-0.516 0,0 0,-0.004 0,-0.006 0.513,0.922 1.265,1.757 2.324,2.397 z"
   id="path341" />

					<g
   id="g351">
						<path
   style="fill:#319592"
   d="m 392.777,514.583 c 0.033,0.143 0.057,0.287 0.07,0.431 -0.013,-0.144 -0.037,-0.287 -0.07,-0.431 z"
   id="path342" />

						<path
   style="fill:#319592"
   d="m 392.86,515.55 c -0.011,0.139 -0.034,0.275 -0.064,0.413 0.03,-0.138 0.054,-0.275 0.064,-0.413 z"
   id="path343" />

						<path
   style="fill:#319592"
   d="m 392.769,516.072 c -0.038,0.144 -0.084,0.288 -0.149,0.433 0.065,-0.145 0.11,-0.288 0.149,-0.433 z"
   id="path344" />

						<path
   style="fill:#319592"
   d="m 392.855,515.089 c 0.013,0.147 0.016,0.297 0.008,0.446 0.01,-0.149 0.005,-0.299 -0.008,-0.446 z"
   id="path345" />

						<path
   style="fill:#3c3b3b"
   d="m 384.334,499.163 c 0.277,1.7 1.018,3.323 1.785,4.944 0.857,1.818 2.244,4.186 2.102,6.167 -0.33,4.565 -7.723,3.403 -9.863,0.755 -0.775,-1.469 -1.121,-4.323 -1.115,-5.86 0.005,-1.028 0.133,-2.047 0.24,-3.071 0.141,-1.334 0.382,-2.729 0.32,-4.069 -0.873,1.931 -2.303,11.425 -1.618,16.135 0.542,0.913 1.317,1.735 2.396,2.356 1.913,1.106 4.254,1.668 6.642,1.762 3.654,0.141 6.926,-1.332 7.554,-3.702 -0.255,-1.095 -1,-2.153 -1.694,-3.101 -1.08,-1.479 -2.109,-2.945 -2.99,-4.501 -1.473,-2.605 -2.507,-5.222 -3.416,-7.926 -0.227,-0.288 -0.428,-0.506 -0.598,-0.675 0.036,0.102 0.078,0.205 0.127,0.308 0.003,0.099 0.06,0.431 0.128,0.478 z"
   id="path346" />

						<path
   style="fill:#1d1d1b"
   d="m 392.797,515.963 c -0.008,0.036 -0.018,0.072 -0.028,0.109 0.01,-0.037 0.02,-0.073 0.028,-0.109 z"
   id="path347" />

						<path
   style="fill:#1d1d1b"
   d="m 392.863,515.535 c -0.002,0.005 -0.003,0.01 -0.003,0.01 0,0 10e-4,-0.005 0.003,-0.01 z"
   id="path348" />

						<polygon
   style="fill:#1d1d1b"
   points="392.777,514.582 392.776,514.579 "
   id="polygon348" />

						<path
   style="fill:#1d1d1b"
   d="m 392.848,515.014 c 0.002,0.025 0.005,0.049 0.008,0.075 -0.003,-0.026 -0.006,-0.05 -0.008,-0.075 z"
   id="path349" />

						<path
   style="fill:#1d1d1b"
   d="m 385.223,518.281 c -2.388,-0.094 -4.729,-0.656 -6.642,-1.762 -1.079,-0.621 -1.854,-1.443 -2.396,-2.356 10e-4,0.003 10e-4,0.005 10e-4,0.005 0.025,0.178 0.054,0.348 0.086,0.51 0.001,0.009 0.002,0.018 0.006,0.024 0.029,0.152 0.063,0.296 0.1,0.436 0.004,0.018 0.008,0.037 0.013,0.055 0.033,0.124 0.07,0.241 0.108,0.354 0.008,0.024 0.016,0.051 0.024,0.074 0.047,0.131 0.098,0.254 0.152,0.364 1.203,2.47 4.188,2.845 7.494,3.292 3.566,0.082 7.232,-0.065 8.451,-2.772 0.065,-0.144 0.111,-0.288 0.149,-0.433 0.011,-0.037 0.021,-0.073 0.028,-0.109 0.029,-0.138 0.053,-0.274 0.064,-0.413 0,0 0.001,-0.01 0.003,-0.015 0.008,-0.15 0.005,-0.299 -0.008,-0.446 -0.003,-0.026 -0.006,-0.05 -0.008,-0.075 -0.014,-0.144 -0.037,-0.288 -0.07,-0.431 0,0 0,-0.003 -0.001,-0.004 -0.629,2.37 -3.9,3.843 -7.554,3.702 z"
   id="path350" />

						<path
   style="fill:#3c3b3b"
   d="m 376.908,508.293 c 0,0 4.559,-4.111 10.981,-1.178 l -1.069,-2.026 c 0,0 -6.068,-2.327 -9.912,1.119 z"
   id="path351" />

					</g>

				</g>

				<path
   style="fill:#838587"
   d="m 358.103,498.31 c 0,0 -0.291,0.016 -0.357,0.375 -0.068,0.357 -3.531,8.89 -4.453,10.521 -0.922,1.632 -0.1,5.271 4.267,5.359 4.367,0.089 7.235,-2.333 7.483,-5.308 0,0 0.139,-7.799 -0.896,-11.23 0,0 -0.378,-0.387 -1.457,0 -1.079,0.387 -4.587,0.283 -4.587,0.283 z"
   id="path352" />

				<g
   id="g371">
					<path
   style="fill:#319592"
   d="m 365.543,515.507 c -0.043,0.132 -0.088,0.255 -0.141,0.368 0.053,-0.113 0.098,-0.237 0.141,-0.368 z"
   id="path353" />

					<path
   style="fill:#319592"
   d="m 365.835,514.05 c -0.02,0.179 -0.044,0.352 -0.071,0.516 0.027,-0.165 0.051,-0.337 0.071,-0.516 z"
   id="path354" />

					<path
   style="fill:#319592"
   d="m 365.662,515.074 c -0.029,0.129 -0.064,0.249 -0.1,0.365 0.036,-0.115 0.071,-0.236 0.1,-0.365 z"
   id="path355" />

					<path
   style="fill:#319592"
   d="m 365.762,514.583 c -0.026,0.155 -0.057,0.302 -0.089,0.445 0.032,-0.141 0.062,-0.29 0.089,-0.445 z"
   id="path356" />

					<polygon
   style="fill:#1d1d1b"
   points="365.835,514.047 365.835,514.044 "
   id="polygon356" />

					<path
   style="fill:#1d1d1b"
   d="m 365.563,515.44 c -0.007,0.021 -0.012,0.047 -0.02,0.067 0.006,-0.021 0.013,-0.046 0.02,-0.067 z"
   id="path357" />

					<path
   style="fill:#1d1d1b"
   d="m 365.673,515.028 c -0.003,0.015 -0.007,0.03 -0.011,0.046 0.004,-0.015 0.008,-0.031 0.011,-0.046 z"
   id="path358" />

					<path
   style="fill:#1d1d1b"
   d="m 365.764,514.565 c -0.002,0.005 -0.002,0.011 -0.002,0.011 0,0 0,-0.006 0.002,-0.011 z"
   id="path359" />

					<path
   style="fill:#1d1d1b"
   d="m 363.512,516.442 c -1.881,1.138 -4.202,1.741 -6.588,1.878 -3.647,0.205 -6.964,-1.209 -7.662,-3.568 -10e-4,0.004 -0.002,0.009 -0.004,0.014 -0.025,0.138 -0.045,0.278 -0.055,0.419 -0.002,0.026 -0.005,0.054 -0.006,0.079 -0.008,0.148 -0.008,0.296 0.006,0.444 0.002,0.005 0.004,0.013 0.004,0.018 0.014,0.137 0.041,0.273 0.076,0.41 0.01,0.036 0.02,0.072 0.028,0.108 0.044,0.143 0.097,0.288 0.165,0.431 1.3,2.685 4.971,2.769 8.534,2.623 3.291,-0.504 6.262,-0.932 7.392,-3.422 0.053,-0.113 0.098,-0.236 0.141,-0.368 0.008,-0.02 0.013,-0.046 0.02,-0.067 0.035,-0.116 0.07,-0.236 0.1,-0.365 0.004,-0.016 0.008,-0.031 0.011,-0.046 0.032,-0.143 0.063,-0.29 0.089,-0.445 0,0 0,-0.013 0.002,-0.018 0.027,-0.164 0.051,-0.337 0.071,-0.516 0,0 0,-0.004 0,-0.006 -0.514,0.922 -1.266,1.757 -2.324,2.397 z"
   id="path360" />

					<g
   id="g370">
						<path
   style="fill:#319592"
   d="m 349.173,514.583 c -0.033,0.143 -0.056,0.287 -0.07,0.431 0.014,-0.144 0.037,-0.287 0.07,-0.431 z"
   id="path361" />

						<path
   style="fill:#319592"
   d="m 349.09,515.55 c 0.01,0.139 0.033,0.275 0.064,0.413 -0.031,-0.138 -0.054,-0.275 -0.064,-0.413 z"
   id="path362" />

						<path
   style="fill:#319592"
   d="m 349.182,516.072 c 0.037,0.144 0.084,0.288 0.148,0.433 -0.064,-0.145 -0.111,-0.288 -0.148,-0.433 z"
   id="path363" />

						<path
   style="fill:#319592"
   d="m 349.094,515.089 c -0.012,0.147 -0.016,0.297 -0.008,0.446 -0.008,-0.149 -0.004,-0.299 0.008,-0.446 z"
   id="path364" />

						<path
   style="fill:#3c3b3b"
   d="m 357.615,499.163 c -0.277,1.7 -1.02,3.323 -1.783,4.944 -0.859,1.818 -2.244,4.186 -2.104,6.167 0.33,4.565 7.724,3.403 9.863,0.755 0.777,-1.469 1.122,-4.323 1.115,-5.86 -0.004,-1.028 -0.133,-2.047 -0.24,-3.071 -0.14,-1.334 -0.382,-2.729 -0.32,-4.069 0.873,1.931 2.305,11.425 1.619,16.135 -0.541,0.913 -1.318,1.735 -2.396,2.356 -1.913,1.106 -4.255,1.668 -6.643,1.762 -3.652,0.141 -6.926,-1.332 -7.553,-3.702 0.256,-1.095 1,-2.153 1.693,-3.101 1.08,-1.479 2.11,-2.945 2.992,-4.501 1.473,-2.605 2.506,-5.222 3.414,-7.926 0.227,-0.288 0.428,-0.506 0.6,-0.675 -0.038,0.102 -0.079,0.205 -0.127,0.308 -0.003,0.099 -0.061,0.431 -0.13,0.478 z"
   id="path365" />

						<path
   style="fill:#1d1d1b"
   d="m 349.154,515.963 c 0.006,0.036 0.016,0.072 0.027,0.109 -0.011,-0.037 -0.021,-0.073 -0.027,-0.109 z"
   id="path366" />

						<path
   style="fill:#1d1d1b"
   d="m 349.086,515.535 c 0.002,0.005 0.004,0.01 0.004,0.01 0,0 -0.002,-0.005 -0.004,-0.01 z"
   id="path367" />

						<polygon
   style="fill:#1d1d1b"
   points="349.173,514.582 349.174,514.579 "
   id="polygon367" />

						<path
   style="fill:#1d1d1b"
   d="m 349.103,515.014 c -0.003,0.025 -0.007,0.049 -0.009,0.075 0.002,-0.026 0.006,-0.05 0.009,-0.075 z"
   id="path368" />

						<path
   style="fill:#1d1d1b"
   d="m 356.727,518.281 c 2.388,-0.094 4.729,-0.656 6.643,-1.762 1.078,-0.621 1.855,-1.443 2.396,-2.356 -0.001,0.003 -0.001,0.005 -0.001,0.005 -0.025,0.178 -0.055,0.348 -0.088,0.51 0,0.009 -0.001,0.018 -0.003,0.024 -0.03,0.152 -0.063,0.296 -0.1,0.436 -0.006,0.018 -0.01,0.037 -0.014,0.055 -0.033,0.124 -0.071,0.241 -0.107,0.354 -0.01,0.024 -0.018,0.051 -0.026,0.074 -0.046,0.131 -0.095,0.254 -0.149,0.364 -1.205,2.47 -4.188,2.845 -7.494,3.292 -3.566,0.082 -7.234,-0.065 -8.453,-2.772 -0.065,-0.144 -0.111,-0.288 -0.148,-0.433 -0.012,-0.037 -0.021,-0.073 -0.027,-0.109 -0.031,-0.138 -0.055,-0.274 -0.064,-0.413 0,0 -0.002,-0.01 -0.004,-0.015 -0.008,-0.15 -0.004,-0.299 0.008,-0.446 0.002,-0.026 0.006,-0.05 0.009,-0.075 0.015,-0.144 0.037,-0.288 0.07,-0.431 0,0 0,-0.003 10e-4,-0.004 0.625,2.37 3.898,3.843 7.551,3.702 z"
   id="path369" />

						<path
   style="fill:#3c3b3b"
   d="m 365.043,508.293 c 0,0 -4.561,-4.111 -10.983,-1.178 l 1.07,-2.026 c 0,0 6.066,-2.327 9.912,1.119 v 2.085 z"
   id="path370" />

					</g>

				</g>

				<g
   id="g372">
					<path
   style="fill:#00414f"
   d="m 372.545,399.307 c 0,0 -1.283,0 -3.26,0 -6.713,0 -19.791,0 -19.801,0 0,0.838 4.299,47.073 4.58,51.589 0.954,15.214 4.023,46.87 4.105,48.206 0,0 1.713,0.708 5.477,0 l 3.053,-47.784 3.107,-36.587 c 0,0 0.585,-1.01 1.11,-1.054 0.524,0.044 0.994,1.159 0.994,1.159 l 3.633,36.588 2.381,47.703 c 4.615,0.856 6.041,-0.025 6.041,-0.025 0.084,-1.336 2.072,-29.132 3.002,-48.613 1.178,-24.746 5.303,-50.712 5.303,-51.182 -0.01,0 -13.012,0 -19.725,0 z"
   id="path371" />

				</g>

				<g
   id="g373">
					<path
   style="fill:#00303b"
   d="m 354.686,459.575 c 1.266,16.169 3.415,38.411 3.483,39.526 0,0 1.713,0.708 5.477,0 l 2.525,-39.526 z"
   id="path372" />

					<path
   style="fill:#00303b"
   d="m 375.949,459.575 1.975,39.552 c 4.615,0.856 6.041,-0.025 6.041,-0.025 0.072,-1.138 1.524,-21.482 2.529,-39.526 h -10.545 z"
   id="path373" />

				</g>

			</g>

			<g
   id="g503">
				<defs
   id="defs374">
					<path
   id="path1"
   d="m 372.545,399.307 c 0,0 -1.283,0 -3.26,0 -6.713,0 -19.791,0 -19.801,0 0,0.838 4.299,47.073 4.58,51.589 0.954,15.214 4.023,46.87 4.105,48.206 0,0 1.713,0.708 5.477,0 l 3.053,-47.784 3.107,-36.587 c 0,0 0.585,-1.01 1.11,-1.054 0.524,0.044 0.994,1.159 0.994,1.159 l 3.633,36.588 2.381,47.703 c 4.615,0.856 6.041,-0.025 6.041,-0.025 0.084,-1.336 2.072,-29.132 3.002,-48.613 1.178,-24.746 5.303,-50.712 5.303,-51.182 -0.01,0 -13.012,0 -19.725,0 z" />

				</defs>

				<clipPath
   id="clipPath1">
					<use
   xlink:href="#SVGID_1_"
   style="overflow:visible"
   id="use1" />

				</clipPath>

				<g
   clip-path="url(#SVGID_00000119818789281150872890000010399472127891452846_)"
   id="g502">
					<g
   id="g378">
						<path
   style="fill:#d1d1d1"
   d="m 358.906,402.525 c 0,0.415 -0.338,0.754 -0.754,0.754 -0.416,0 -0.755,-0.339 -0.755,-0.754 0,-0.418 0.339,-0.754 0.755,-0.754 0.416,10e-4 0.754,0.336 0.754,0.754 z"
   id="path374" />

						<path
   style="fill:#d1d1d1"
   d="m 364.823,402.907 c 0,0.417 -0.337,0.754 -0.753,0.754 -0.418,0 -0.754,-0.337 -0.754,-0.754 0,-0.415 0.336,-0.754 0.754,-0.754 0.416,0 0.753,0.339 0.753,0.754 z"
   id="path375" />

						<path
   style="fill:#d1d1d1"
   d="m 370.739,403.279 c 0,0.415 -0.337,0.754 -0.753,0.754 -0.416,0 -0.754,-0.339 -0.754,-0.754 0,-0.418 0.338,-0.754 0.754,-0.754 0.416,0 0.753,0.336 0.753,0.754 z"
   id="path376" />

						<path
   style="fill:#d1d1d1"
   d="m 361.864,399.363 c 0,0.415 -0.337,0.754 -0.753,0.754 -0.416,0 -0.754,-0.339 -0.754,-0.754 0,-0.418 0.338,-0.754 0.754,-0.754 0.416,0 0.753,0.336 0.753,0.754 z"
   id="path377" />

						<circle
   style="fill:#d1d1d1"
   cx="367.02701"
   cy="399.36301"
   r="0.75400001"
   id="circle377" />

						<circle
   style="fill:#d1d1d1"
   cx="372.94501"
   cy="399.36301"
   r="0.75400001"
   id="circle378" />

						<path
   style="fill:#d1d1d1"
   d="m 355.802,400.117 c 0,0.415 -0.337,0.753 -0.754,0.753 -0.417,0 -0.753,-0.338 -0.753,-0.753 0,-0.418 0.336,-0.754 0.753,-0.754 0.417,0 0.754,0.336 0.754,0.754 z"
   id="path378" />

					</g>

					<g
   id="g437">
						<g
   id="g404">
							<path
   style="fill:#d1d1d1"
   d="m 379.945,498.658 c 0,0.417 -0.338,0.754 -0.754,0.754 -0.416,0 -0.755,-0.337 -0.755,-0.754 0,-0.416 0.339,-0.754 0.755,-0.754 0.416,0 0.754,0.338 0.754,0.754 z"
   id="path379" />

							<path
   style="fill:#d1d1d1"
   d="m 385.861,498.275 c 0,0.416 -0.336,0.754 -0.752,0.754 -0.418,0 -0.754,-0.338 -0.754,-0.754 0,-0.416 0.336,-0.753 0.754,-0.753 0.416,0 0.752,0.337 0.752,0.753 z"
   id="path380" />

							<path
   style="fill:#d1d1d1"
   d="m 382.902,495.113 c 0,0.416 -0.336,0.754 -0.752,0.754 -0.416,0 -0.754,-0.338 -0.754,-0.754 0,-0.416 0.338,-0.754 0.754,-0.754 0.416,0 0.752,0.338 0.752,0.754 z"
   id="path381" />

							<path
   style="fill:#d1d1d1"
   d="m 379.945,491.951 c 0,0.416 -0.338,0.754 -0.754,0.754 -0.416,0 -0.755,-0.338 -0.755,-0.754 0,-0.417 0.339,-0.754 0.755,-0.754 0.416,0 0.754,0.337 0.754,0.754 z"
   id="path382" />

							<path
   style="fill:#d1d1d1"
   d="m 385.861,491.951 c 0,0.416 -0.336,0.754 -0.752,0.754 -0.418,0 -0.754,-0.338 -0.754,-0.754 0,-0.417 0.336,-0.754 0.754,-0.754 0.416,0 0.752,0.337 0.752,0.754 z"
   id="path383" />

							<path
   style="fill:#d1d1d1"
   d="m 382.902,488.789 c 0,0.416 -0.336,0.754 -0.752,0.754 -0.416,0 -0.754,-0.338 -0.754,-0.754 0,-0.417 0.338,-0.754 0.754,-0.754 0.416,0 0.752,0.337 0.752,0.754 z"
   id="path384" />

							<path
   style="fill:#d1d1d1"
   d="m 379.945,485.627 c 0,0.416 -0.338,0.754 -0.754,0.754 -0.416,0 -0.755,-0.338 -0.755,-0.754 0,-0.417 0.339,-0.754 0.755,-0.754 0.416,0 0.754,0.337 0.754,0.754 z"
   id="path385" />

							<path
   style="fill:#d1d1d1"
   d="m 385.367,485.766 c 0,0.339 -0.275,0.615 -0.615,0.615 -0.34,0 -0.615,-0.276 -0.615,-0.615 0,-0.34 0.275,-0.616 0.615,-0.616 0.34,-10e-4 0.615,0.276 0.615,0.616 z"
   id="path386" />

							<path
   style="fill:#d1d1d1"
   d="m 382.902,482.465 c 0,0.416 -0.336,0.754 -0.752,0.754 -0.416,0 -0.754,-0.338 -0.754,-0.754 0,-0.417 0.338,-0.754 0.754,-0.754 0.416,0 0.752,0.337 0.752,0.754 z"
   id="path387" />

							<path
   style="fill:#d1d1d1"
   d="m 379.945,479.303 c 0,0.416 -0.338,0.754 -0.754,0.754 -0.416,0 -0.755,-0.338 -0.755,-0.754 0,-0.417 0.339,-0.754 0.755,-0.754 0.416,0 0.754,0.337 0.754,0.754 z"
   id="path388" />

							<circle
   style="fill:#d1d1d1"
   cx="384.61301"
   cy="479.30301"
   r="0.75400001"
   id="circle388" />

							<path
   style="fill:#d1d1d1"
   d="m 376.986,476.141 c 0,0.416 -0.339,0.754 -0.754,0.754 -0.416,0 -0.755,-0.338 -0.755,-0.754 0,-0.417 0.339,-0.754 0.755,-0.754 0.415,0 0.754,0.337 0.754,0.754 z"
   id="path389" />

							<path
   style="fill:#d1d1d1"
   d="m 382.902,476.141 c 0,0.416 -0.336,0.754 -0.752,0.754 -0.416,0 -0.754,-0.338 -0.754,-0.754 0,-0.417 0.338,-0.754 0.754,-0.754 0.416,0 0.752,0.337 0.752,0.754 z"
   id="path390" />

							<path
   style="fill:#d1d1d1"
   d="m 379.945,472.978 c 0,0.417 -0.338,0.755 -0.754,0.755 -0.416,0 -0.755,-0.338 -0.755,-0.755 0,-0.416 0.339,-0.753 0.755,-0.753 0.416,0 0.754,0.336 0.754,0.753 z"
   id="path391" />

							<path
   style="fill:#d1d1d1"
   d="m 385.861,472.978 c 0,0.417 -0.336,0.755 -0.752,0.755 -0.418,0 -0.754,-0.338 -0.754,-0.755 0,-0.416 0.336,-0.753 0.754,-0.753 0.416,0 0.752,0.336 0.752,0.753 z"
   id="path392" />

							<path
   style="fill:#d1d1d1"
   d="m 376.986,469.815 c 0,0.417 -0.339,0.754 -0.754,0.754 -0.416,0 -0.755,-0.337 -0.755,-0.754 0,-0.416 0.339,-0.754 0.755,-0.754 0.415,0 0.754,0.338 0.754,0.754 z"
   id="path393" />

							<path
   style="fill:#d1d1d1"
   d="m 382.902,469.815 c 0,0.417 -0.336,0.754 -0.752,0.754 -0.416,0 -0.754,-0.337 -0.754,-0.754 0,-0.416 0.338,-0.754 0.754,-0.754 0.416,0 0.752,0.338 0.752,0.754 z"
   id="path394" />

							<path
   style="fill:#d1d1d1"
   d="m 379.945,466.653 c 0,0.417 -0.338,0.754 -0.754,0.754 -0.416,0 -0.755,-0.337 -0.755,-0.754 0,-0.416 0.339,-0.754 0.755,-0.754 0.416,0 0.754,0.338 0.754,0.754 z"
   id="path395" />

							<path
   style="fill:#d1d1d1"
   d="m 385.861,466.653 c 0,0.417 -0.336,0.754 -0.752,0.754 -0.418,0 -0.754,-0.337 -0.754,-0.754 0,-0.416 0.336,-0.754 0.754,-0.754 0.416,0 0.752,0.338 0.752,0.754 z"
   id="path396" />

							<path
   style="fill:#d1d1d1"
   d="m 376.986,463.491 c 0,0.417 -0.339,0.753 -0.754,0.753 -0.416,0 -0.755,-0.336 -0.755,-0.753 0,-0.416 0.339,-0.754 0.755,-0.754 0.415,0 0.754,0.338 0.754,0.754 z"
   id="path397" />

							<path
   style="fill:#d1d1d1"
   d="m 382.902,463.491 c 0,0.417 -0.336,0.753 -0.752,0.753 -0.416,0 -0.754,-0.336 -0.754,-0.753 0,-0.416 0.338,-0.754 0.754,-0.754 0.416,0 0.752,0.338 0.752,0.754 z"
   id="path398" />

							<path
   style="fill:#d1d1d1"
   d="m 379.945,460.328 c 0,0.418 -0.338,0.754 -0.754,0.754 -0.416,0 -0.755,-0.336 -0.755,-0.754 0,-0.415 0.339,-0.753 0.755,-0.753 0.416,0 0.754,0.338 0.754,0.753 z"
   id="path399" />

							<path
   style="fill:#d1d1d1"
   d="m 385.861,460.328 c 0,0.418 -0.336,0.754 -0.752,0.754 -0.418,0 -0.754,-0.336 -0.754,-0.754 0,-0.415 0.336,-0.753 0.754,-0.753 0.416,0 0.752,0.338 0.752,0.753 z"
   id="path400" />

							<path
   style="fill:#d1d1d1"
   d="m 382.902,457.166 c 0,0.416 -0.336,0.754 -0.752,0.754 -0.416,0 -0.754,-0.338 -0.754,-0.754 0,-0.415 0.338,-0.754 0.754,-0.754 0.416,0 0.752,0.339 0.752,0.754 z"
   id="path401" />

							<path
   style="fill:#d1d1d1"
   d="m 376.959,457.738 c 0,0.416 -0.338,0.753 -0.754,0.753 -0.416,0 -0.754,-0.337 -0.754,-0.753 0,-0.416 0.338,-0.754 0.754,-0.754 0.416,0 0.754,0.338 0.754,0.754 z"
   id="path402" />

							<path
   style="fill:#d1d1d1"
   d="m 379.916,454.575 c 0,0.416 -0.336,0.754 -0.752,0.754 -0.416,0 -0.754,-0.338 -0.754,-0.754 0,-0.415 0.338,-0.753 0.754,-0.753 0.416,0 0.752,0.338 0.752,0.753 z"
   id="path403" />

							<path
   style="fill:#d1d1d1"
   d="m 385.861,454.004 c 0,0.416 -0.336,0.754 -0.752,0.754 -0.418,0 -0.754,-0.338 -0.754,-0.754 0,-0.415 0.336,-0.754 0.754,-0.754 0.416,0 0.752,0.339 0.752,0.754 z"
   id="path404" />

						</g>

						<g
   id="g436">
							<path
   style="fill:#d1d1d1"
   d="m 376.232,451.561 c 0,0.416 -0.339,0.754 -0.755,0.754 -0.415,0 -0.753,-0.338 -0.753,-0.754 0,-0.417 0.338,-0.754 0.753,-0.754 0.417,10e-4 0.755,0.338 0.755,0.754 z"
   id="path405" />

							<path
   style="fill:#d1d1d1"
   d="m 382.15,451.19 c 0,0.417 -0.339,0.753 -0.754,0.753 -0.416,0 -0.754,-0.336 -0.754,-0.753 0,-0.416 0.338,-0.754 0.754,-0.754 0.415,0 0.754,0.338 0.754,0.754 z"
   id="path406" />

							<path
   style="fill:#d1d1d1"
   d="m 388.066,450.808 c 0,0.416 -0.336,0.754 -0.752,0.754 -0.418,0 -0.754,-0.338 -0.754,-0.754 0,-0.417 0.336,-0.754 0.754,-0.754 0.416,0 0.752,0.337 0.752,0.754 z"
   id="path407" />

							<path
   style="fill:#d1d1d1"
   d="m 379.191,447.646 c 0,0.416 -0.339,0.754 -0.755,0.754 -0.415,0 -0.753,-0.338 -0.753,-0.754 0,-0.417 0.338,-0.754 0.753,-0.754 0.417,0 0.755,0.336 0.755,0.754 z"
   id="path408" />

							<circle
   style="fill:#d1d1d1"
   cx="384.35501"
   cy="447.646"
   r="0.75400001"
   id="circle408" />

							<path
   style="fill:#d1d1d1"
   d="m 376.232,444.483 c 0,0.416 -0.339,0.754 -0.755,0.754 -0.415,0 -0.753,-0.338 -0.753,-0.754 0,-0.417 0.338,-0.754 0.753,-0.754 0.417,0 0.755,0.337 0.755,0.754 z"
   id="path409" />

							<circle
   style="fill:#d1d1d1"
   cx="381.397"
   cy="444.483"
   r="0.75400001"
   id="circle409" />

							<path
   style="fill:#d1d1d1"
   d="m 388.066,444.483 c 0,0.416 -0.336,0.754 -0.752,0.754 -0.418,0 -0.754,-0.338 -0.754,-0.754 0,-0.417 0.336,-0.754 0.754,-0.754 0.416,0 0.752,0.337 0.752,0.754 z"
   id="path410" />

							<path
   style="fill:#d1d1d1"
   d="m 379.191,441.321 c 0,0.415 -0.339,0.754 -0.755,0.754 -0.415,0 -0.753,-0.339 -0.753,-0.754 0,-0.417 0.338,-0.754 0.753,-0.754 0.417,0 0.755,0.337 0.755,0.754 z"
   id="path411" />

							<circle
   style="fill:#d1d1d1"
   cx="384.35501"
   cy="441.32101"
   r="0.75400001"
   id="circle411" />

							<path
   style="fill:#d1d1d1"
   d="m 376.232,438.159 c 0,0.415 -0.339,0.754 -0.755,0.754 -0.415,0 -0.753,-0.339 -0.753,-0.754 0,-0.417 0.338,-0.754 0.753,-0.754 0.417,0 0.755,0.337 0.755,0.754 z"
   id="path412" />

							<circle
   style="fill:#d1d1d1"
   cx="381.397"
   cy="438.159"
   r="0.75400001"
   id="circle412" />

							<path
   style="fill:#d1d1d1"
   d="m 387.572,438.297 c 0,0.34 -0.275,0.616 -0.615,0.616 -0.34,0 -0.615,-0.276 -0.615,-0.616 0,-0.339 0.275,-0.615 0.615,-0.615 0.34,0 0.615,0.276 0.615,0.615 z"
   id="path413" />

							<path
   style="fill:#d1d1d1"
   d="m 379.191,434.997 c 0,0.415 -0.339,0.754 -0.755,0.754 -0.415,0 -0.753,-0.339 -0.753,-0.754 0,-0.417 0.338,-0.754 0.753,-0.754 0.417,0 0.755,0.337 0.755,0.754 z"
   id="path414" />

							<circle
   style="fill:#d1d1d1"
   cx="384.35501"
   cy="434.99701"
   r="0.75400001"
   id="circle414" />

							<path
   style="fill:#d1d1d1"
   d="m 376.232,431.835 c 0,0.415 -0.339,0.753 -0.755,0.753 -0.415,0 -0.753,-0.338 -0.753,-0.753 0,-0.417 0.338,-0.754 0.753,-0.754 0.417,0 0.755,0.337 0.755,0.754 z"
   id="path415" />

							<path
   style="fill:#d1d1d1"
   d="m 382.15,431.835 c 0,0.415 -0.339,0.753 -0.754,0.753 -0.416,0 -0.754,-0.338 -0.754,-0.753 0,-0.417 0.338,-0.754 0.754,-0.754 0.415,0 0.754,0.337 0.754,0.754 z"
   id="path416" />

							<path
   style="fill:#d1d1d1"
   d="m 387.572,431.835 c 0,0.415 -0.337,0.753 -0.754,0.753 -0.416,0 -0.754,-0.338 -0.754,-0.753 0,-0.417 0.338,-0.754 0.754,-0.754 0.417,0 0.754,0.337 0.754,0.754 z"
   id="path417" />

							<path
   style="fill:#d1d1d1"
   d="m 379.191,428.672 c 0,0.416 -0.339,0.754 -0.755,0.754 -0.415,0 -0.753,-0.338 -0.753,-0.754 0,-0.416 0.338,-0.753 0.753,-0.753 0.417,0 0.755,0.337 0.755,0.753 z"
   id="path418" />

							<path
   style="fill:#d1d1d1"
   d="m 385.109,428.672 c 0,0.416 -0.338,0.754 -0.754,0.754 -0.416,0 -0.754,-0.338 -0.754,-0.754 0,-0.416 0.338,-0.753 0.754,-0.753 0.417,0 0.754,0.337 0.754,0.753 z"
   id="path419" />

							<path
   style="fill:#d1d1d1"
   d="m 376.232,425.509 c 0,0.417 -0.339,0.755 -0.755,0.755 -0.415,0 -0.753,-0.338 -0.753,-0.755 0,-0.415 0.338,-0.753 0.753,-0.753 0.417,0 0.755,0.338 0.755,0.753 z"
   id="path420" />

							<path
   style="fill:#d1d1d1"
   d="m 382.15,425.509 c 0,0.417 -0.339,0.755 -0.754,0.755 -0.416,0 -0.754,-0.338 -0.754,-0.755 0,-0.415 0.338,-0.753 0.754,-0.753 0.415,0 0.754,0.338 0.754,0.753 z"
   id="path421" />

							<path
   style="fill:#d1d1d1"
   d="m 388.066,425.509 c 0,0.417 -0.336,0.755 -0.752,0.755 -0.418,0 -0.754,-0.338 -0.754,-0.755 0,-0.415 0.336,-0.753 0.754,-0.753 0.416,0 0.752,0.338 0.752,0.753 z"
   id="path422" />

							<path
   style="fill:#d1d1d1"
   d="m 379.191,422.347 c 0,0.417 -0.339,0.754 -0.755,0.754 -0.415,0 -0.753,-0.337 -0.753,-0.754 0,-0.415 0.338,-0.754 0.753,-0.754 0.417,0 0.755,0.339 0.755,0.754 z"
   id="path423" />

							<circle
   style="fill:#d1d1d1"
   cx="384.35501"
   cy="422.34698"
   r="0.75400001"
   id="circle423" />

							<path
   style="fill:#d1d1d1"
   d="m 376.232,419.185 c 0,0.417 -0.339,0.754 -0.755,0.754 -0.415,0 -0.753,-0.337 -0.753,-0.754 0,-0.416 0.338,-0.754 0.753,-0.754 0.417,0 0.755,0.338 0.755,0.754 z"
   id="path424" />

							<circle
   style="fill:#d1d1d1"
   cx="381.397"
   cy="419.185"
   r="0.75400001"
   id="circle424" />

							<path
   style="fill:#d1d1d1"
   d="m 388.066,419.185 c 0,0.417 -0.336,0.754 -0.752,0.754 -0.418,0 -0.754,-0.337 -0.754,-0.754 0,-0.416 0.336,-0.754 0.754,-0.754 0.416,0 0.752,0.338 0.752,0.754 z"
   id="path425" />

							<path
   style="fill:#d1d1d1"
   d="m 379.191,416.022 c 0,0.417 -0.339,0.754 -0.755,0.754 -0.415,0 -0.753,-0.337 -0.753,-0.754 0,-0.416 0.338,-0.754 0.753,-0.754 0.417,0.001 0.755,0.338 0.755,0.754 z"
   id="path426" />

							<circle
   style="fill:#d1d1d1"
   cx="384.35501"
   cy="416.022"
   r="0.75400001"
   id="circle426" />

							<path
   style="fill:#d1d1d1"
   d="m 382.15,412.86 c 0,0.417 -0.339,0.754 -0.754,0.754 -0.416,0 -0.754,-0.337 -0.754,-0.754 0,-0.416 0.338,-0.754 0.754,-0.754 0.415,0 0.754,0.338 0.754,0.754 z"
   id="path427" />

							<path
   style="fill:#d1d1d1"
   d="m 388.066,412.86 c 0,0.417 -0.336,0.754 -0.752,0.754 -0.418,0 -0.754,-0.337 -0.754,-0.754 0,-0.416 0.336,-0.754 0.754,-0.754 0.416,0 0.752,0.338 0.752,0.754 z"
   id="path428" />

							<circle
   style="fill:#d1d1d1"
   cx="384.35501"
   cy="409.698"
   r="0.75400001"
   id="circle428" />

							<path
   style="fill:#d1d1d1"
   d="m 388.066,406.536 c 0,0.416 -0.336,0.754 -0.752,0.754 -0.418,0 -0.754,-0.338 -0.754,-0.754 0,-0.416 0.336,-0.754 0.754,-0.754 0.416,0 0.752,0.338 0.752,0.754 z"
   id="path429" />

							<path
   style="fill:#d1d1d1"
   d="m 374.027,414.515 c 0,0.417 -0.338,0.754 -0.754,0.754 -0.416,0 -0.754,-0.337 -0.754,-0.754 0,-0.415 0.338,-0.754 0.754,-0.754 0.417,0 0.754,0.339 0.754,0.754 z"
   id="path430" />

							<path
   style="fill:#d1d1d1"
   d="m 376.986,411.353 c 0,0.417 -0.338,0.754 -0.754,0.754 -0.416,0 -0.755,-0.337 -0.755,-0.754 0,-0.416 0.339,-0.754 0.755,-0.754 0.416,0 0.754,0.337 0.754,0.754 z"
   id="path431" />

							<circle
   style="fill:#d1d1d1"
   cx="379.19101"
   cy="408.19"
   r="0.75400001"
   id="circle431" />

							<circle
   style="fill:#d1d1d1"
   cx="382.14999"
   cy="405.02802"
   r="0.75400001"
   id="circle432" />

							<path
   style="fill:#d1d1d1"
   d="m 385.861,401.866 c 0,0.416 -0.336,0.754 -0.752,0.754 -0.416,0 -0.754,-0.338 -0.754,-0.754 0,-0.416 0.338,-0.754 0.754,-0.754 0.416,0 0.752,0.338 0.752,0.754 z"
   id="path432" />

							<path
   style="fill:#d1d1d1"
   d="m 371.068,410.599 c 0,0.417 -0.338,0.754 -0.752,0.754 -0.416,0 -0.755,-0.337 -0.755,-0.754 0,-0.415 0.339,-0.754 0.755,-0.754 0.414,0 0.752,0.339 0.752,0.754 z"
   id="path433" />

							<circle
   style="fill:#d1d1d1"
   cx="373.27301"
   cy="407.436"
   r="0.75400001"
   id="circle433" />

							<circle
   style="fill:#d1d1d1"
   cx="376.23199"
   cy="404.27399"
   r="0.75400001"
   id="circle434" />

							<circle
   style="fill:#d1d1d1"
   cx="379.19101"
   cy="401.112"
   r="0.75400001"
   id="circle435" />

							<circle
   style="fill:#d1d1d1"
   cx="382.14999"
   cy="397.95001"
   r="0.75400001"
   id="circle436" />

							<path
   style="fill:#d1d1d1"
   d="m 390.989,403.279 c 0,0.415 -0.337,0.754 -0.753,0.754 -0.416,0 -0.754,-0.339 -0.754,-0.754 0,-0.416 0.338,-0.754 0.754,-0.754 0.416,0 0.753,0.338 0.753,0.754 z"
   id="path436" />

						</g>

					</g>

					<g
   id="g499">
						<g
   id="g464">
							<path
   style="fill:#d1d1d1"
   d="m 361.445,498.658 c 0,0.417 0.336,0.754 0.754,0.754 0.415,0 0.753,-0.337 0.753,-0.754 0,-0.416 -0.338,-0.754 -0.753,-0.754 -0.418,0 -0.754,0.338 -0.754,0.754 z"
   id="path437" />

							<path
   style="fill:#d1d1d1"
   d="m 364.402,495.113 c 0,0.416 0.338,0.754 0.754,0.754 0.417,0 0.754,-0.338 0.754,-0.754 0,-0.416 -0.337,-0.754 -0.754,-0.754 -0.416,0 -0.754,0.338 -0.754,0.754 z"
   id="path438" />

							<path
   style="fill:#d1d1d1"
   d="m 358.486,495.113 c 0,0.416 0.337,0.754 0.753,0.754 0.417,0 0.754,-0.338 0.754,-0.754 0,-0.416 -0.337,-0.754 -0.754,-0.754 -0.416,0 -0.753,0.338 -0.753,0.754 z"
   id="path439" />

							<path
   style="fill:#d1d1d1"
   d="m 361.445,491.951 c 0,0.416 0.336,0.754 0.754,0.754 0.415,0 0.753,-0.338 0.753,-0.754 0,-0.417 -0.338,-0.754 -0.753,-0.754 -0.418,0 -0.754,0.337 -0.754,0.754 z"
   id="path440" />

							<path
   style="fill:#d1d1d1"
   d="m 364.402,488.789 c 0,0.416 0.338,0.754 0.754,0.754 0.417,0 0.754,-0.338 0.754,-0.754 0,-0.417 -0.337,-0.754 -0.754,-0.754 -0.416,0 -0.754,0.337 -0.754,0.754 z"
   id="path441" />

							<path
   style="fill:#d1d1d1"
   d="m 358.486,488.789 c 0,0.416 0.337,0.754 0.753,0.754 0.417,0 0.754,-0.338 0.754,-0.754 0,-0.417 -0.337,-0.754 -0.754,-0.754 -0.416,0 -0.753,0.337 -0.753,0.754 z"
   id="path442" />

							<path
   style="fill:#d1d1d1"
   d="m 361.445,485.627 c 0,0.416 0.336,0.754 0.754,0.754 0.415,0 0.753,-0.338 0.753,-0.754 0,-0.417 -0.338,-0.754 -0.753,-0.754 -0.418,0 -0.754,0.337 -0.754,0.754 z"
   id="path443" />

							<path
   style="fill:#d1d1d1"
   d="m 356.915,485.766 c 0,0.339 0.275,0.615 0.614,0.615 0.34,0 0.615,-0.276 0.615,-0.615 0,-0.34 -0.275,-0.616 -0.615,-0.616 -0.339,-10e-4 -0.614,0.276 -0.614,0.616 z"
   id="path444" />

							<path
   style="fill:#d1d1d1"
   d="m 364.402,482.465 c 0,0.416 0.338,0.754 0.754,0.754 0.417,0 0.754,-0.338 0.754,-0.754 0,-0.417 -0.337,-0.754 -0.754,-0.754 -0.416,0 -0.754,0.337 -0.754,0.754 z"
   id="path445" />

							<path
   style="fill:#d1d1d1"
   d="m 358.486,482.465 c 0,0.416 0.337,0.754 0.753,0.754 0.417,0 0.754,-0.338 0.754,-0.754 0,-0.417 -0.337,-0.754 -0.754,-0.754 -0.416,0 -0.753,0.337 -0.753,0.754 z"
   id="path446" />

							<path
   style="fill:#d1d1d1"
   d="m 361.445,479.303 c 0,0.416 0.336,0.754 0.754,0.754 0.415,0 0.753,-0.338 0.753,-0.754 0,-0.417 -0.338,-0.754 -0.753,-0.754 -0.418,0 -0.754,0.337 -0.754,0.754 z"
   id="path447" />

							<path
   style="fill:#d1d1d1"
   d="m 356.022,479.303 c 0,0.416 0.337,0.754 0.754,0.754 0.417,0 0.753,-0.338 0.753,-0.754 0,-0.417 -0.336,-0.754 -0.753,-0.754 -0.417,0 -0.754,0.337 -0.754,0.754 z"
   id="path448" />

							<path
   style="fill:#d1d1d1"
   d="m 364.402,476.141 c 0,0.416 0.338,0.754 0.754,0.754 0.417,0 0.754,-0.338 0.754,-0.754 0,-0.417 -0.337,-0.754 -0.754,-0.754 -0.416,0 -0.754,0.337 -0.754,0.754 z"
   id="path449" />

							<path
   style="fill:#d1d1d1"
   d="m 358.486,476.141 c 0,0.416 0.337,0.754 0.753,0.754 0.417,0 0.754,-0.338 0.754,-0.754 0,-0.417 -0.337,-0.754 -0.754,-0.754 -0.416,0 -0.753,0.337 -0.753,0.754 z"
   id="path450" />

							<path
   style="fill:#d1d1d1"
   d="m 361.445,472.978 c 0,0.417 0.336,0.755 0.754,0.755 0.415,0 0.753,-0.338 0.753,-0.755 0,-0.416 -0.338,-0.753 -0.753,-0.753 -0.418,0 -0.754,0.336 -0.754,0.753 z"
   id="path451" />

							<path
   style="fill:#d1d1d1"
   d="m 355.527,472.978 c 0,0.417 0.337,0.755 0.754,0.755 0.416,0 0.754,-0.338 0.754,-0.755 0,-0.416 -0.338,-0.753 -0.754,-0.753 -0.417,0 -0.754,0.336 -0.754,0.753 z"
   id="path452" />

							<path
   style="fill:#d1d1d1"
   d="m 364.402,469.815 c 0,0.417 0.338,0.754 0.754,0.754 0.417,0 0.754,-0.337 0.754,-0.754 0,-0.416 -0.337,-0.754 -0.754,-0.754 -0.416,0 -0.754,0.338 -0.754,0.754 z"
   id="path453" />

							<path
   style="fill:#d1d1d1"
   d="m 358.486,469.815 c 0,0.417 0.337,0.754 0.753,0.754 0.417,0 0.754,-0.337 0.754,-0.754 0,-0.416 -0.337,-0.754 -0.754,-0.754 -0.416,0 -0.753,0.338 -0.753,0.754 z"
   id="path454" />

							<path
   style="fill:#d1d1d1"
   d="m 361.445,466.653 c 0,0.417 0.336,0.754 0.754,0.754 0.415,0 0.753,-0.337 0.753,-0.754 0,-0.416 -0.338,-0.754 -0.753,-0.754 -0.418,0 -0.754,0.338 -0.754,0.754 z"
   id="path455" />

							<path
   style="fill:#d1d1d1"
   d="m 355.527,466.653 c 0,0.417 0.337,0.754 0.754,0.754 0.416,0 0.754,-0.337 0.754,-0.754 0,-0.416 -0.338,-0.754 -0.754,-0.754 -0.417,0 -0.754,0.338 -0.754,0.754 z"
   id="path456" />

							<path
   style="fill:#d1d1d1"
   d="m 364.402,463.491 c 0,0.417 0.338,0.753 0.754,0.753 0.417,0 0.754,-0.336 0.754,-0.753 0,-0.416 -0.337,-0.754 -0.754,-0.754 -0.416,0 -0.754,0.338 -0.754,0.754 z"
   id="path457" />

							<path
   style="fill:#d1d1d1"
   d="m 358.486,463.491 c 0,0.417 0.337,0.753 0.753,0.753 0.417,0 0.754,-0.336 0.754,-0.753 0,-0.416 -0.337,-0.754 -0.754,-0.754 -0.416,0 -0.753,0.338 -0.753,0.754 z"
   id="path458" />

							<path
   style="fill:#d1d1d1"
   d="m 361.445,460.328 c 0,0.418 0.336,0.754 0.754,0.754 0.415,0 0.753,-0.336 0.753,-0.754 0,-0.415 -0.338,-0.753 -0.753,-0.753 -0.418,0 -0.754,0.338 -0.754,0.753 z"
   id="path459" />

							<path
   style="fill:#d1d1d1"
   d="m 355.527,460.328 c 0,0.418 0.337,0.754 0.754,0.754 0.416,0 0.754,-0.336 0.754,-0.754 0,-0.415 -0.338,-0.753 -0.754,-0.753 -0.417,0 -0.754,0.338 -0.754,0.753 z"
   id="path460" />

							<path
   style="fill:#d1d1d1"
   d="m 358.486,457.166 c 0,0.416 0.337,0.754 0.753,0.754 0.417,0 0.754,-0.338 0.754,-0.754 0,-0.415 -0.337,-0.754 -0.754,-0.754 -0.416,0 -0.753,0.339 -0.753,0.754 z"
   id="path461" />

							<path
   style="fill:#d1d1d1"
   d="m 364.432,457.738 c 0,0.416 0.337,0.753 0.754,0.753 0.414,0 0.752,-0.337 0.752,-0.753 0,-0.416 -0.338,-0.754 -0.752,-0.754 -0.417,0 -0.754,0.338 -0.754,0.754 z"
   id="path462" />

							<path
   style="fill:#d1d1d1"
   d="m 361.473,454.575 c 0,0.416 0.337,0.754 0.752,0.754 0.418,0 0.754,-0.338 0.754,-0.754 0,-0.415 -0.336,-0.753 -0.754,-0.753 -0.415,0 -0.752,0.338 -0.752,0.753 z"
   id="path463" />

							<path
   style="fill:#d1d1d1"
   d="m 355.527,454.004 c 0,0.416 0.337,0.754 0.754,0.754 0.416,0 0.754,-0.338 0.754,-0.754 0,-0.415 -0.338,-0.754 -0.754,-0.754 -0.417,0 -0.754,0.339 -0.754,0.754 z"
   id="path464" />

						</g>

						<g
   id="g498">
							<path
   style="fill:#d1d1d1"
   d="m 365.156,451.561 c 0,0.416 0.338,0.754 0.754,0.754 0.416,0 0.754,-0.338 0.754,-0.754 0,-0.417 -0.338,-0.754 -0.754,-0.754 -0.416,10e-4 -0.754,0.338 -0.754,0.754 z"
   id="path465" />

							<path
   style="fill:#d1d1d1"
   d="m 359.239,451.19 c 0,0.417 0.338,0.753 0.754,0.753 0.415,0 0.753,-0.336 0.753,-0.753 0,-0.416 -0.338,-0.754 -0.753,-0.754 -0.416,0 -0.754,0.338 -0.754,0.754 z"
   id="path466" />

							<path
   style="fill:#d1d1d1"
   d="m 353.322,450.808 c 0,0.416 0.336,0.754 0.754,0.754 0.416,0 0.752,-0.338 0.752,-0.754 0,-0.417 -0.336,-0.754 -0.752,-0.754 -0.418,0 -0.754,0.337 -0.754,0.754 z"
   id="path467" />

							<path
   style="fill:#d1d1d1"
   d="m 362.198,447.646 c 0,0.416 0.337,0.754 0.754,0.754 0.415,0 0.754,-0.338 0.754,-0.754 0,-0.417 -0.339,-0.754 -0.754,-0.754 -0.417,0 -0.754,0.336 -0.754,0.754 z"
   id="path468" />

							<path
   style="fill:#d1d1d1"
   d="m 356.281,447.646 c 0,0.416 0.336,0.754 0.752,0.754 0.418,0 0.754,-0.338 0.754,-0.754 0,-0.417 -0.336,-0.754 -0.754,-0.754 -0.416,0 -0.752,0.336 -0.752,0.754 z"
   id="path469" />

							<path
   style="fill:#d1d1d1"
   d="m 365.156,444.483 c 0,0.416 0.338,0.754 0.754,0.754 0.416,0 0.754,-0.338 0.754,-0.754 0,-0.417 -0.338,-0.754 -0.754,-0.754 -0.416,0 -0.754,0.337 -0.754,0.754 z"
   id="path470" />

							<path
   style="fill:#d1d1d1"
   d="m 359.239,444.483 c 0,0.416 0.338,0.754 0.754,0.754 0.415,0 0.753,-0.338 0.753,-0.754 0,-0.417 -0.338,-0.754 -0.753,-0.754 -0.416,0 -0.754,0.337 -0.754,0.754 z"
   id="path471" />

							<path
   style="fill:#d1d1d1"
   d="m 353.322,444.483 c 0,0.416 0.336,0.754 0.754,0.754 0.416,0 0.752,-0.338 0.752,-0.754 0,-0.417 -0.336,-0.754 -0.752,-0.754 -0.418,0 -0.754,0.337 -0.754,0.754 z"
   id="path472" />

							<path
   style="fill:#d1d1d1"
   d="m 362.198,441.321 c 0,0.415 0.337,0.754 0.754,0.754 0.415,0 0.754,-0.339 0.754,-0.754 0,-0.417 -0.339,-0.754 -0.754,-0.754 -0.417,0 -0.754,0.337 -0.754,0.754 z"
   id="path473" />

							<path
   style="fill:#d1d1d1"
   d="m 356.281,441.321 c 0,0.415 0.336,0.754 0.752,0.754 0.418,0 0.754,-0.339 0.754,-0.754 0,-0.417 -0.336,-0.754 -0.754,-0.754 -0.416,0 -0.752,0.337 -0.752,0.754 z"
   id="path474" />

							<path
   style="fill:#d1d1d1"
   d="m 365.156,438.159 c 0,0.415 0.338,0.754 0.754,0.754 0.416,0 0.754,-0.339 0.754,-0.754 0,-0.417 -0.338,-0.754 -0.754,-0.754 -0.416,0 -0.754,0.337 -0.754,0.754 z"
   id="path475" />

							<path
   style="fill:#d1d1d1"
   d="m 359.239,438.159 c 0,0.415 0.338,0.754 0.754,0.754 0.415,0 0.753,-0.339 0.753,-0.754 0,-0.417 -0.338,-0.754 -0.753,-0.754 -0.416,0 -0.754,0.337 -0.754,0.754 z"
   id="path476" />

							<path
   style="fill:#d1d1d1"
   d="m 353.818,438.297 c 0,0.34 0.274,0.616 0.613,0.616 0.34,0 0.616,-0.276 0.616,-0.616 0,-0.339 -0.276,-0.615 -0.616,-0.615 -0.338,0 -0.613,0.276 -0.613,0.615 z"
   id="path477" />

							<path
   style="fill:#d1d1d1"
   d="m 362.198,434.997 c 0,0.415 0.337,0.754 0.754,0.754 0.415,0 0.754,-0.339 0.754,-0.754 0,-0.417 -0.339,-0.754 -0.754,-0.754 -0.417,0 -0.754,0.337 -0.754,0.754 z"
   id="path478" />

							<path
   style="fill:#d1d1d1"
   d="m 356.281,434.997 c 0,0.415 0.336,0.754 0.752,0.754 0.418,0 0.754,-0.339 0.754,-0.754 0,-0.417 -0.336,-0.754 -0.754,-0.754 -0.416,0 -0.752,0.337 -0.752,0.754 z"
   id="path479" />

							<path
   style="fill:#d1d1d1"
   d="m 365.156,431.835 c 0,0.415 0.338,0.753 0.754,0.753 0.416,0 0.754,-0.338 0.754,-0.753 0,-0.417 -0.338,-0.754 -0.754,-0.754 -0.416,0 -0.754,0.337 -0.754,0.754 z"
   id="path480" />

							<path
   style="fill:#d1d1d1"
   d="m 359.239,431.835 c 0,0.415 0.338,0.753 0.754,0.753 0.415,0 0.753,-0.338 0.753,-0.753 0,-0.417 -0.338,-0.754 -0.753,-0.754 -0.416,0 -0.754,0.337 -0.754,0.754 z"
   id="path481" />

							<path
   style="fill:#d1d1d1"
   d="m 353.818,431.835 c 0,0.415 0.336,0.753 0.752,0.753 0.416,0 0.754,-0.338 0.754,-0.753 0,-0.417 -0.338,-0.754 -0.754,-0.754 -0.416,0 -0.752,0.337 -0.752,0.754 z"
   id="path482" />

							<path
   style="fill:#d1d1d1"
   d="m 362.198,428.672 c 0,0.416 0.337,0.754 0.754,0.754 0.415,0 0.754,-0.338 0.754,-0.754 0,-0.416 -0.339,-0.753 -0.754,-0.753 -0.417,0 -0.754,0.337 -0.754,0.753 z"
   id="path483" />

							<path
   style="fill:#d1d1d1"
   d="m 356.281,428.672 c 0,0.416 0.336,0.754 0.752,0.754 0.418,0 0.754,-0.338 0.754,-0.754 0,-0.416 -0.336,-0.753 -0.754,-0.753 -0.416,0 -0.752,0.337 -0.752,0.753 z"
   id="path484" />

							<path
   style="fill:#d1d1d1"
   d="m 365.156,425.509 c 0,0.417 0.338,0.755 0.754,0.755 0.416,0 0.754,-0.338 0.754,-0.755 0,-0.415 -0.338,-0.753 -0.754,-0.753 -0.416,0 -0.754,0.338 -0.754,0.753 z"
   id="path485" />

							<path
   style="fill:#d1d1d1"
   d="m 359.239,425.509 c 0,0.417 0.338,0.755 0.754,0.755 0.415,0 0.753,-0.338 0.753,-0.755 0,-0.415 -0.338,-0.753 -0.753,-0.753 -0.416,0 -0.754,0.338 -0.754,0.753 z"
   id="path486" />

							<path
   style="fill:#d1d1d1"
   d="m 353.322,425.509 c 0,0.417 0.336,0.755 0.754,0.755 0.416,0 0.752,-0.338 0.752,-0.755 0,-0.415 -0.336,-0.753 -0.752,-0.753 -0.418,0 -0.754,0.338 -0.754,0.753 z"
   id="path487" />

							<path
   style="fill:#d1d1d1"
   d="m 362.198,422.347 c 0,0.417 0.337,0.754 0.754,0.754 0.415,0 0.754,-0.337 0.754,-0.754 0,-0.415 -0.339,-0.754 -0.754,-0.754 -0.417,0 -0.754,0.339 -0.754,0.754 z"
   id="path488" />

							<path
   style="fill:#d1d1d1"
   d="m 356.281,422.347 c 0,0.417 0.336,0.754 0.752,0.754 0.418,0 0.754,-0.337 0.754,-0.754 0,-0.415 -0.336,-0.754 -0.754,-0.754 -0.416,0 -0.752,0.339 -0.752,0.754 z"
   id="path489" />

							<path
   style="fill:#d1d1d1"
   d="m 365.156,419.185 c 0,0.417 0.338,0.754 0.754,0.754 0.416,0 0.754,-0.337 0.754,-0.754 0,-0.416 -0.338,-0.754 -0.754,-0.754 -0.416,0 -0.754,0.338 -0.754,0.754 z"
   id="path490" />

							<path
   style="fill:#d1d1d1"
   d="m 359.239,419.185 c 0,0.417 0.338,0.754 0.754,0.754 0.415,0 0.753,-0.337 0.753,-0.754 0,-0.416 -0.338,-0.754 -0.753,-0.754 -0.416,0 -0.754,0.338 -0.754,0.754 z"
   id="path491" />

							<path
   style="fill:#d1d1d1"
   d="m 353.322,419.185 c 0,0.417 0.336,0.754 0.754,0.754 0.416,0 0.752,-0.337 0.752,-0.754 0,-0.416 -0.336,-0.754 -0.752,-0.754 -0.418,0 -0.754,0.338 -0.754,0.754 z"
   id="path492" />

							<path
   style="fill:#d1d1d1"
   d="m 362.198,416.022 c 0,0.417 0.337,0.754 0.754,0.754 0.415,0 0.754,-0.337 0.754,-0.754 0,-0.416 -0.339,-0.754 -0.754,-0.754 -0.417,0.001 -0.754,0.338 -0.754,0.754 z"
   id="path493" />

							<path
   style="fill:#d1d1d1"
   d="m 356.281,416.022 c 0,0.417 0.336,0.754 0.752,0.754 0.418,0 0.754,-0.337 0.754,-0.754 0,-0.416 -0.336,-0.754 -0.754,-0.754 -0.416,0.001 -0.752,0.338 -0.752,0.754 z"
   id="path494" />

							<path
   style="fill:#d1d1d1"
   d="m 359.239,412.86 c 0,0.417 0.338,0.754 0.754,0.754 0.415,0 0.753,-0.337 0.753,-0.754 0,-0.416 -0.338,-0.754 -0.753,-0.754 -0.416,0 -0.754,0.338 -0.754,0.754 z"
   id="path495" />

							<path
   style="fill:#d1d1d1"
   d="m 353.322,412.86 c 0,0.417 0.336,0.754 0.754,0.754 0.416,0 0.752,-0.337 0.752,-0.754 0,-0.416 -0.336,-0.754 -0.752,-0.754 -0.418,0 -0.754,0.338 -0.754,0.754 z"
   id="path496" />

							<path
   style="fill:#d1d1d1"
   d="m 356.281,409.698 c 0,0.416 0.336,0.754 0.752,0.754 0.418,0 0.754,-0.338 0.754,-0.754 0,-0.416 -0.336,-0.754 -0.754,-0.754 -0.416,0 -0.752,0.338 -0.752,0.754 z"
   id="path497" />

							<path
   style="fill:#d1d1d1"
   d="m 353.322,406.536 c 0,0.416 0.336,0.754 0.754,0.754 0.416,0 0.752,-0.338 0.752,-0.754 0,-0.416 -0.336,-0.754 -0.752,-0.754 -0.418,0 -0.754,0.338 -0.754,0.754 z"
   id="path498" />

						</g>

					</g>

					<circle
   style="fill:#d1d1d1"
   cx="351.29901"
   cy="403.27899"
   r="0.75400001"
   id="circle499" />

					<path
   style="fill:#d1d1d1"
   d="m 364.431,409.698 c 0,0.417 -0.337,0.754 -0.754,0.754 -0.416,0 -0.753,-0.337 -0.753,-0.754 0,-0.416 0.337,-0.754 0.753,-0.754 0.417,0 0.754,0.338 0.754,0.754 z"
   id="path499" />

					<path
   style="fill:#d1d1d1"
   d="m 366.636,412.86 c 0,0.417 -0.338,0.754 -0.753,0.754 -0.418,0 -0.754,-0.337 -0.754,-0.754 0,-0.416 0.336,-0.754 0.754,-0.754 0.415,0 0.753,0.338 0.753,0.754 z"
   id="path500" />

					<path
   style="fill:#d1d1d1"
   d="m 361.473,406.536 c 0,0.417 -0.338,0.754 -0.754,0.754 -0.417,0 -0.754,-0.337 -0.754,-0.754 0,-0.416 0.337,-0.754 0.754,-0.754 0.416,0 0.754,0.338 0.754,0.754 z"
   id="path501" />

					<path
   style="fill:#d1d1d1"
   d="m 367.389,406.536 c 0,0.417 -0.337,0.754 -0.753,0.754 -0.417,0 -0.753,-0.337 -0.753,-0.754 0,-0.416 0.336,-0.754 0.753,-0.754 0.416,0 0.753,0.338 0.753,0.754 z"
   id="path502" />

				</g>

			</g>

		</g>

		<g
   id="g521">
			<g
   id="g520">
				<g
   id="g519">
					<g
   id="g511">
						<g
   id="g507">
							<path
   style="fill:#eec9a5"
   d="m 400.952,407.259 c -3.117,0.235 -3.96,5.049 -4.646,7.404 -0.54,1.847 -0.882,3.022 -1.396,5.753 -0.139,0.746 -0.477,2.596 0.371,3.069 1.092,0.608 1.682,-1.922 1.916,-2.567 0.133,-0.361 1.071,-3.384 1.45,-1.925 0.313,1.206 0.069,1.682 -0.17,2.885 -0.382,1.91 -2.359,5.056 -1.562,6.411 0.801,1.354 2.045,-0.659 2.045,-0.659 0,0 -0.145,0.332 0.58,0.535 0.723,0.204 1.707,-0.834 1.731,-0.854 0.022,-0.02 -0.014,0.379 0.568,0.167 0.582,-0.215 1.508,-1.114 1.824,-1.419 0,0 0.719,-0.112 1.416,-1.003 0.697,-0.892 3.75,-7.807 -0.166,-16.266 -0.566,-1.223 -1.643,-1.124 -2.869,-1.431 -0.384,-0.096 -0.749,-0.126 -1.092,-0.1 z"
   id="path504" />

							<path
   style="fill:#915f2d"
   d="m 400.511,423.898 c 0.63,-1.759 1.003,-3.628 1.323,-5.459 10e-4,-0.013 0.018,-0.005 0.018,0.005 -0.24,1.889 -0.579,3.728 -1.167,5.55 -0.407,1.258 -1.06,2.995 -1.962,4 -0.021,0.023 -0.054,-0.012 -0.041,-0.035 0.761,-1.218 1.345,-2.717 1.829,-4.061 z"
   id="path505" />

							<path
   style="fill:#915f2d"
   d="m 403.139,423.408 c 0.555,-1.482 0.638,-3.064 1.038,-4.574 0.003,-0.008 0.015,-10e-4 0.013,0.005 -0.313,1.703 -0.462,3.354 -1.082,5.003 -0.463,1.23 -1.033,2.883 -2.125,3.737 -0.01,0.009 -0.022,-0.01 -0.016,-0.019 1.125,-1.007 1.662,-2.794 2.172,-4.152 z"
   id="path506" />

							<path
   style="fill:#915f2d"
   d="m 405.768,419.83 c 0.001,-0.013 0.018,-0.005 0.016,0.005 -0.107,1.249 -0.373,2.526 -0.797,3.711 -0.402,1.127 -1.066,2.56 -2.072,3.287 -0.017,0.011 -0.042,-0.018 -0.027,-0.031 1.815,-1.712 2.567,-4.61 2.88,-6.972 z"
   id="path507" />

						</g>

						<g
   id="g510">
							<path
   style="fill:#e1b58c"
   d="m 395.881,379.697 -3.52,-18.147 c -0.014,-2.082 -0.02,-16.498 0.003,-22.26 0,0 7.655,0.472 8.971,5.212 l 4.782,32.906 c -0.931,4.34 -8.609,5.534 -10.236,2.289 z"
   id="path508" />

							<path
   style="fill:#eec9a5"
   d="m 406.156,377.408 c 0,1.837 0.006,9.517 0,11.166 -0.02,4.368 -0.428,10.111 -0.938,14.448 -0.537,4.567 -1.029,7.472 -1.566,8.025 l -3,-0.113 c -1.938,-0.017 -0.768,-4.554 -4.672,-28.733 l -0.393,-3.56 c 1.212,-3.681 9.089,-5.561 10.569,-1.233 z"
   id="path509" />

							<path
   style="fill:#b62420"
   d="m 402.766,355.118 c 0.488,-0.355 0.98,-0.704 1.473,-1.054 l -2.807,-10.25 c -1.316,-4.381 -9.067,-4.525 -9.067,-4.525 -0.004,1.712 -1.046,22.441 -1.032,24.267 l 0.104,0.271 c 3.848,-2.808 7.475,-5.908 11.329,-8.709 z"
   id="path510" />

						</g>

					</g>

					<g
   id="g517">
						<g
   id="g512">
							<path
   style="fill:#e1b58c"
   d="m 346.295,379.697 3.522,-17.62 c 0.012,-2.083 0.019,-17.025 -0.005,-22.787 0,0 -7.655,0.472 -8.97,5.212 l -4.781,32.906 c 0.929,4.34 8.609,5.534 10.234,2.289 z"
   id="path511" />

							<path
   style="fill:#eec9a5"
   d="m 336.022,377.408 c 0,1.837 -0.006,9.517 0,11.166 0.018,4.368 0.428,10.111 0.938,14.448 0.537,4.567 1.027,7.472 1.566,8.025 l 3,-0.113 c 1.939,-0.017 0.769,-4.554 4.672,-28.733 l 0.393,-3.56 c -1.212,-3.681 -9.089,-5.561 -10.569,-1.233 z"
   id="path512" />

						</g>

						<g
   id="g516">
							<path
   style="fill:#eec9a5"
   d="m 340.998,407.259 c 3.117,0.235 3.959,5.049 4.647,7.404 0.541,1.847 0.882,3.022 1.396,5.753 0.141,0.746 0.478,2.596 -0.372,3.069 -1.091,0.608 -1.682,-1.922 -1.916,-2.567 -0.131,-0.361 -1.071,-3.384 -1.449,-1.925 -0.313,1.206 -0.07,1.682 0.17,2.885 0.38,1.91 2.359,5.056 1.561,6.411 -0.801,1.354 -2.044,-0.659 -2.044,-0.659 0,0 0.146,0.332 -0.579,0.535 -0.725,0.204 -1.709,-0.834 -1.73,-0.854 -0.023,-0.02 0.014,0.379 -0.569,0.167 -0.583,-0.215 -1.509,-1.114 -1.823,-1.419 0,0 -0.721,-0.112 -1.416,-1.003 -0.697,-0.892 -3.752,-7.807 0.166,-16.266 0.565,-1.223 1.641,-1.124 2.869,-1.431 0.382,-0.096 0.747,-0.126 1.089,-0.1 z"
   id="path513" />

							<path
   style="fill:#915f2d"
   d="m 341.441,423.898 c -0.633,-1.759 -1.006,-3.628 -1.326,-5.459 -0.001,-0.013 -0.018,-0.005 -0.016,0.005 0.239,1.889 0.578,3.728 1.166,5.55 0.406,1.258 1.061,2.995 1.962,4 0.02,0.023 0.054,-0.012 0.04,-0.035 -0.761,-1.218 -1.344,-2.717 -1.826,-4.061 z"
   id="path514" />

							<path
   style="fill:#915f2d"
   d="m 338.811,423.408 c -0.554,-1.482 -0.638,-3.064 -1.039,-4.574 -10e-4,-0.008 -0.013,-10e-4 -0.013,0.005 0.313,1.703 0.463,3.354 1.082,5.003 0.463,1.23 1.033,2.883 2.127,3.737 0.009,0.009 0.022,-0.01 0.014,-0.019 -1.125,-1.007 -1.662,-2.794 -2.171,-4.152 z"
   id="path515" />

							<path
   style="fill:#915f2d"
   d="m 336.184,419.83 c -0.002,-0.013 -0.019,-0.005 -0.018,0.005 0.107,1.249 0.374,2.526 0.798,3.711 0.401,1.127 1.067,2.56 2.073,3.287 0.016,0.011 0.041,-0.018 0.027,-0.031 -1.817,-1.712 -2.568,-4.61 -2.88,-6.972 z"
   id="path516" />

						</g>

					</g>

					<path
   style="fill:#b62420"
   d="m 339.73,355.118 c -0.488,-0.355 -0.98,-0.704 -1.473,-1.054 l 2.807,-10.25 c 1.314,-4.381 9.066,-4.525 9.066,-4.525 0.006,1.712 1.047,22.441 1.033,24.267 l -0.105,0.271 c -3.848,-2.808 -7.473,-5.908 -11.328,-8.709 z"
   id="path517" />

					<path
   style="fill:#2a6f94"
   d="m 373.19,438.805 c 13.185,-0.639 32.969,-6.696 32.969,-6.696 -2.615,-12.921 -16.164,-51.468 -16.164,-52.591 0,0 3.137,-36.7 2.688,-40.228 l -21.442,-4.954 -21.442,4.954 c -0.449,3.527 2.809,40.228 2.809,40.228 0,1.143 -12.37,41.113 -13.537,52.591 0,0 17.242,5.979 30.426,6.617 z"
   id="path518" />

					<path
   style="fill:#286284"
   d="m 391.469,361.229 h -40.395 c 0.747,9.43 1.532,18.288 1.532,18.288 0,1.143 -12.37,41.113 -13.537,52.591 0,0 17.242,5.979 30.426,6.617 l 3.695,0.079 c 13.185,-0.639 32.969,-6.696 32.969,-6.696 -2.615,-12.921 -16.164,-51.468 -16.164,-52.591 -10e-4,10e-4 0.757,-8.858 1.474,-18.288 z"
   id="path519" />

				</g>

				<polygon
   style="fill:#003f5c"
   points="390.872,383.895 351.078,383.895 352.022,378.098 389.677,378.098 "
   id="polygon519" />

				<path
   style="fill:#6a9db0"
   d="m 374.217,376.853 h -6.482 c -1.648,0 -2.982,1.335 -2.982,2.982 v 2.23 c 0,1.646 1.334,2.981 2.982,2.981 h 6.482 c 1.647,0 2.981,-1.335 2.981,-2.981 v -2.23 c 0,-1.646 -1.335,-2.982 -2.981,-2.982 z m 1.468,4.941 c 0,1.246 -1.01,2.257 -2.256,2.257 h -4.908 c -1.245,0 -2.257,-1.011 -2.257,-2.257 v -1.688 c 0,-1.246 1.012,-2.256 2.257,-2.256 h 4.908 c 1.246,0 2.256,1.01 2.256,2.256 z"
   id="path520" />

			</g>

			<path
   style="fill:#e1b58c"
   d="m 365.412,329.355 v 10.379 c 0,1.161 2.781,6.614 5.563,6.614 2.781,0 5.563,-5.453 5.563,-6.614 v -10.379 z"
   id="path521" />

		</g>

	</g>

	<g
   id="g556">
		<g
   id="g555">
			<g
   id="g527">
				<path
   style="fill:#f39f00"
   d="m 343.736,307.457 c 0.924,0.237 1.764,0.677 2.172,1.213 1.297,1.717 -0.168,4.544 -1.912,5.419 -0.84,0.419 -1.889,0.546 -2.855,0.352 -0.691,2.17 -2.484,2.854 -4.348,2.554 -0.109,1.923 -2.143,2.411 -3.982,2.386 -0.268,2.446 -2.76,2.836 -4.814,2.6 -0.078,0.092 -0.283,0.082 -0.328,-0.081 -0.607,-2.152 1.349,-4.574 3.52,-4.698 0.01,-10e-4 0.014,0.002 0.02,0.002 0.029,-0.835 0.309,-1.608 0.925,-2.265 0.45,-0.482 1.836,-1.441 2.608,-1.123 0.179,-1.125 0.835,-2.153 2.079,-2.15 -0.182,0 0.256,-1.724 1.559,-2.742 1.561,-1.221 3.419,-1.961 5.356,-1.467 z"
   id="path522" />

				<path
   style="fill:#f39f00"
   d="m 338.381,308.923 c -1.303,1.018 -1.74,2.742 -1.559,2.742 -1.244,-0.004 -1.9,1.025 -2.079,2.15 -0.772,-0.318 -2.158,0.641 -2.608,1.123 -0.616,0.656 -0.896,1.43 -0.925,2.265 -0.007,0 -0.011,-0.003 -0.02,-0.002 -2.171,0.124 -4.127,2.546 -3.52,4.698 0.045,0.163 0.25,0.173 0.328,0.081 2.054,0.236 4.546,-0.153 4.814,-2.6 1.839,0.025 3.872,-0.463 3.982,-2.386 1.863,0.3 3.656,-0.384 4.348,-2.554 0.967,0.194 2.016,0.067 2.855,-0.352 1.744,-0.875 3.209,-3.702 1.912,-5.419 -0.408,-0.536 -1.248,-0.976 -2.172,-1.213 -1.938,-0.493 -3.796,0.247 -5.356,1.467 z m 3.692,0.184 c 2.11,0.316 2.587,3.022 0.384,3.75 -1.251,0.413 -2.619,0.259 -3.771,-0.35 -0.122,-0.064 -0.197,0.117 -0.109,0.198 0.064,0.059 0.142,0.11 0.214,0.165 0.205,0.352 0.477,0.641 0.785,0.877 -0.861,2.413 -3.398,2.266 -5.461,1.98 -0.093,-0.014 -0.125,0.125 -0.039,0.159 0.041,0.017 0.082,0.027 0.119,0.044 0.01,0.027 0.025,0.055 0.059,0.068 0.006,0.004 0.012,0.004 0.015,0.006 0.308,0.198 0.624,0.357 0.946,0.498 -0.658,1.963 -2.367,2.394 -4.299,2.429 -0.029,0.002 -0.051,0.015 -0.064,0.034 -0.033,-0.002 -0.055,0.01 -0.072,0.029 -0.031,-0.002 -0.064,-0.004 -0.095,-0.005 -0.052,-0.002 -0.081,0.081 -0.024,0.097 0.035,0.009 0.072,0.016 0.108,0.026 0.015,0.024 0.037,0.048 0.071,0.053 0.191,0.042 0.406,0.08 0.635,0.11 -0.449,0.63 -0.285,1.393 -1.162,1.846 -0.768,0.393 -1.475,0.597 -2.307,0.66 -0.502,-1.948 1.292,-3.947 3.215,-4.078 0.01,0.133 0.023,0.264 0.045,0.398 0.015,0.082 0.145,0.081 0.149,-0.004 0.05,-0.992 0.391,-2.05 1.179,-2.715 0.384,-0.321 0.818,-0.572 1.3,-0.719 0.263,-0.08 0.544,-0.098 0.796,-0.188 0.002,0.386 0.054,0.764 0.156,1.088 0.021,0.066 0.127,0.045 0.132,-0.021 0.058,-0.69 0.079,-1.351 0.419,-1.974 0.17,-0.308 0.41,-0.62 0.699,-0.819 0.207,-0.143 0.435,-0.228 0.66,-0.33 0.002,0.419 0.068,0.842 0.211,1.264 0.045,0.2 0.104,0.409 0.186,0.614 0.028,0.075 0.116,0.06 0.148,0.003 0.021,-0.013 0.037,-0.038 0.027,-0.071 -0.01,-0.025 -0.014,-0.052 -0.021,-0.076 -0.262,-2.556 2.12,-5.443 4.766,-5.046 z"
   id="path523" />

				<path
   style="fill:#c53623"
   d="m 327.381,322.07 c -0.025,0.07 -0.061,0.144 -0.09,0.213 0.051,-0.082 0.184,-0.049 0.173,0.057 -0.169,1.313 -0.983,2.367 -1.94,3.217 -1.066,0.954 -2.776,2.055 -4.197,2.029 -0.332,-0.009 -0.344,-0.477 -0.086,-0.607 2.246,-1.161 4.703,-1.891 5.891,-4.363 -1.146,2.096 -4.49,3.816 -6.633,3.52 -0.295,-0.043 -0.367,-0.462 -0.086,-0.593 2.436,-1.141 5.121,-1.01 6.734,-3.605 0.085,-0.139 0.284,-0.01 0.234,0.132 z"
   id="path524" />

				<path
   style="fill:#c53623"
   d="m 327.335,321.981 c -1.833,1.653 -4.886,3.406 -7.397,2.731 -0.131,-0.034 -0.182,-0.239 -0.027,-0.291 1.125,-0.367 2.289,-0.613 3.432,-0.916 1.389,-0.367 2.578,-1.051 3.803,-1.803 0.185,-0.11 0.348,0.136 0.189,0.279 z"
   id="path525" />

				<path
   style="fill:#c53623"
   d="m 326.99,321.473 c 0.124,-0.039 0.232,0.14 0.109,0.22 -0.992,0.635 -2,0.927 -3.14,1.155 -1.753,0.35 -3.46,0.767 -5.191,1.221 -0.19,0.049 -0.434,-0.187 -0.25,-0.365 2.134,-2.108 5.797,-1.374 8.472,-2.231 z"
   id="path526" />

				<path
   style="fill:#00afb3"
   d="m 327.883,321.855 c 1.094,0.382 1.654,0.352 2.98,1.423 0,0 -1.443,1.44 -3.043,1.987 0,0 -0.689,-1.393 -0.677,-3.033 0,0 -1.597,-0.135 -2.507,-1.131 0,0 0.943,-1.563 2.545,-2.43 0.001,0.001 0.549,1.128 0.702,3.184 z"
   id="path527" />

			</g>

			<g
   id="g533">
				<path
   style="fill:#f39f00"
   d="m 394.785,308.565 c -0.921,0.25 -1.754,0.702 -2.152,1.245 -1.27,1.737 0.236,4.538 1.994,5.388 0.846,0.408 1.895,0.518 2.859,0.309 0.727,2.159 2.528,2.815 4.389,2.488 0.139,1.918 2.18,2.374 4.016,2.322 0.307,2.439 2.805,2.792 4.855,2.522 0.08,0.093 0.283,0.077 0.326,-0.084 0.571,-2.16 -1.42,-4.554 -3.592,-4.644 -0.008,-10e-4 -0.014,0 -0.021,0.003 -0.043,-0.835 -0.334,-1.605 -0.959,-2.25 -0.459,-0.476 -1.859,-1.414 -2.625,-1.085 -0.195,-1.123 -0.867,-2.141 -2.113,-2.114 0.184,-0.003 -0.281,-1.719 -1.602,-2.719 -1.578,-1.198 -3.447,-1.907 -5.375,-1.381 z"
   id="path528" />

				<path
   style="fill:#f39f00"
   d="m 394.785,308.565 c -0.921,0.25 -1.754,0.702 -2.152,1.245 -1.27,1.737 0.236,4.538 1.994,5.388 0.846,0.408 1.895,0.518 2.859,0.309 0.727,2.159 2.528,2.815 4.389,2.488 0.139,1.918 2.18,2.374 4.016,2.322 0.307,2.439 2.805,2.792 4.855,2.522 0.08,0.093 0.283,0.077 0.326,-0.084 0.571,-2.16 -1.42,-4.554 -3.592,-4.644 -0.008,-10e-4 -0.014,0 -0.021,0.003 -0.043,-0.835 -0.334,-1.605 -0.959,-2.25 -0.459,-0.476 -1.859,-1.414 -2.625,-1.085 -0.195,-1.123 -0.867,-2.141 -2.113,-2.114 0.184,-0.003 -0.281,-1.719 -1.602,-2.719 -1.578,-1.198 -3.447,-1.907 -5.375,-1.381 z m 6.531,6.597 c -0.006,0.025 -0.011,0.054 -0.02,0.079 -0.012,0.03 0.005,0.057 0.027,0.071 0.033,0.053 0.121,0.067 0.15,-0.01 0.078,-0.205 0.133,-0.413 0.176,-0.616 0.135,-0.424 0.195,-0.847 0.191,-1.266 0.225,0.098 0.456,0.177 0.664,0.319 0.293,0.195 0.539,0.503 0.711,0.807 0.35,0.621 0.383,1.277 0.448,1.972 0.008,0.063 0.112,0.084 0.133,0.018 0.1,-0.33 0.143,-0.707 0.139,-1.091 0.253,0.084 0.538,0.098 0.8,0.172 0.484,0.145 0.922,0.386 1.313,0.701 0.797,0.652 1.154,1.705 1.22,2.695 0.007,0.088 0.138,0.086 0.147,0.001 0.02,-0.135 0.032,-0.266 0.04,-0.397 1.925,0.103 3.747,2.071 3.278,4.027 -0.833,-0.049 -1.543,-0.244 -2.318,-0.626 -0.885,-0.435 -0.729,-1.206 -1.188,-1.825 0.228,-0.037 0.441,-0.076 0.632,-0.121 0.037,-0.008 0.057,-0.03 0.072,-0.057 0.035,-0.008 0.072,-0.016 0.108,-0.026 0.054,-0.018 0.025,-0.098 -0.026,-0.094 -0.031,0.002 -0.065,0.003 -0.096,0.005 -0.017,-0.02 -0.041,-0.031 -0.07,-0.029 -0.017,-0.018 -0.039,-0.029 -0.066,-0.032 -1.934,-0.007 -3.648,-0.409 -4.338,-2.36 0.322,-0.148 0.635,-0.313 0.938,-0.515 0.005,-10e-4 0.013,-0.002 0.016,-0.005 0.034,-0.013 0.049,-0.039 0.057,-0.07 0.04,-0.018 0.08,-0.029 0.12,-0.043 0.087,-0.036 0.052,-0.176 -0.04,-0.162 -2.061,0.32 -4.592,0.505 -5.489,-1.894 0.302,-0.243 0.569,-0.535 0.769,-0.89 0.073,-0.058 0.147,-0.108 0.21,-0.171 0.088,-0.078 0.011,-0.26 -0.112,-0.193 -1.141,0.627 -2.504,0.801 -3.764,0.407 -2.216,-0.694 -1.779,-3.407 0.328,-3.757 2.637,-0.435 5.061,2.412 4.84,4.976 z"
   id="path529" />

				<path
   style="fill:#c53623"
   d="m 411.363,322.922 c 0.025,0.07 0.063,0.14 0.094,0.21 -0.053,-0.079 -0.185,-0.047 -0.172,0.06 0.189,1.313 1.021,2.353 1.987,3.19 1.083,0.935 2.81,2.01 4.23,1.959 0.33,-0.014 0.336,-0.477 0.08,-0.606 -2.266,-1.125 -4.732,-1.818 -5.961,-4.272 1.181,2.079 4.549,3.748 6.686,3.415 0.297,-0.044 0.361,-0.463 0.08,-0.59 -2.455,-1.104 -5.139,-0.935 -6.791,-3.503 -0.088,-0.138 -0.286,-0.007 -0.233,0.137 z"
   id="path530" />

				<path
   style="fill:#c53623"
   d="m 411.408,322.832 c 1.857,1.624 4.938,3.33 7.438,2.619 0.129,-0.037 0.18,-0.242 0.023,-0.294 -1.131,-0.351 -2.296,-0.578 -3.445,-0.863 -1.396,-0.343 -2.593,-1.009 -3.83,-1.741 -0.188,-0.113 -0.348,0.138 -0.186,0.279 z"
   id="path531" />

				<path
   style="fill:#c53623"
   d="m 411.744,322.319 c -0.125,-0.038 -0.23,0.143 -0.105,0.22 1.002,0.619 2.016,0.896 3.158,1.106 1.758,0.323 3.469,0.712 5.207,1.141 0.191,0.048 0.432,-0.192 0.246,-0.368 -2.165,-2.075 -5.816,-1.284 -8.506,-2.099 z"
   id="path532" />

				<path
   style="fill:#00afb3"
   d="m 410.857,322.717 c -1.086,0.396 -1.647,0.375 -2.957,1.465 0,0 1.464,1.42 3.072,1.941 0,0 0.667,-1.404 0.63,-3.045 0,0 1.599,-0.158 2.489,-1.167 0,0 -0.963,-1.546 -2.581,-2.391 0.001,0.001 -0.53,1.138 -0.653,3.197 z"
   id="path533" />

			</g>

			<path
   style="fill:#f39f00"
   d="m 383.221,279.388 c 0,0 -1.219,-5.165 -8.331,-5.36 -7.116,-0.197 -26.703,2.524 -33.448,17.676 -6.748,15.152 3.211,30.248 10.012,33.543 6.801,3.297 30.382,2.369 38.119,-1.895 7.738,-4.264 14.994,-10.664 12.439,-23.277 -2.557,-12.61 -10.797,-22.315 -18.791,-20.687 z"
   id="path534" />

			<path
   style="fill:#f39f00"
   d="m 402.012,300.074 c -0.594,-2.931 -1.5,-5.705 -2.635,-8.215 0.172,0.886 0.325,1.776 0.48,2.672 0.238,1.378 0.438,2.753 -0.1,4.08 -0.061,0.149 -0.264,0.227 -0.397,0.117 -1.696,-1.387 -2.431,-3.443 -3.336,-5.387 0.461,1.381 0.852,2.774 0.842,4.256 0,0.219 -0.34,0.324 -0.459,0.138 -1.713,-2.653 -3.875,-4.891 -6.277,-6.9 1.046,1.743 1.965,3.775 1.621,5.725 -0.031,0.185 -0.246,0.313 -0.41,0.184 -3.22,-2.508 -7.211,-4.072 -8.853,-7.919 -0.287,3.018 -0.478,6.03 -0.144,9.066 0.026,0.245 -0.293,0.426 -0.459,0.206 -2.746,-3.592 -4.453,-8.253 -1.445,-12.247 2.019,-2.679 4.838,-3.022 7.803,-2.59 -1.801,-0.711 -3.766,-0.988 -5.642,-1.463 -0.151,-0.04 -0.222,-0.282 -0.116,-0.397 1.025,-1.091 2.258,-1.7 3.595,-2.121 -0.952,-0.114 -1.907,-0.084 -2.86,0.107 0,0 -1.107,-4.667 -7.331,-5.296 2.366,0.787 4.35,2.287 5.198,4.952 0.74,2.323 -0.919,4.523 -2.072,6.462 -1.476,2.478 -3.209,4.646 -5.435,6.488 -3.571,2.958 -8.378,6.598 -13.298,6.09 -0.1,-0.01 -0.17,-0.074 -0.209,-0.155 -0.012,-0.001 -0.022,10e-4 -0.037,10e-4 -0.16,-0.006 -0.287,-0.207 -0.217,-0.353 0.057,-0.113 0.111,-0.227 0.168,-0.343 0.008,-0.026 0.02,-0.054 0.037,-0.077 1.118,-2.294 2.242,-4.568 2.709,-7.082 -3.166,3.559 -7.133,6.016 -11.484,7.94 -1.918,0.848 -7.084,3.866 -8.132,0.492 -0.263,-0.841 -0.065,-1.793 0.029,-2.645 0.133,-1.166 0.284,-2.327 0.566,-3.469 0.601,-2.411 1.577,-4.844 2.999,-6.901 0.979,-1.414 2.098,-2.827 3.34,-4.143 -3.549,2.546 -6.634,5.913 -8.611,10.354 -6.748,15.152 3.211,30.248 10.012,33.543 6.801,3.297 30.382,2.369 38.119,-1.895 7.739,-4.261 14.995,-10.661 12.441,-23.275 z"
   id="path535" />

			<g
   id="g537">
				<path
   style="fill:#efcaa6"
   d="m 348.779,311.01 c 0,0 -0.65,-1.977 -1.621,-2.249 -0.973,-0.272 -3.357,0.499 -4.056,3.271 -0.696,2.771 0.78,4.982 2.2,5.602 1.416,0.619 2.336,-1.146 2.336,-1.146 z"
   id="path536" />

				<path
   style="fill:#c39368"
   d="m 346.195,311.881 c -1.238,-0.796 -1.895,0.909 -2.182,2.027 -0.016,0.052 0.049,0.064 0.071,0.023 0.224,-0.42 0.425,-0.867 0.667,-1.27 0.42,-0.691 1.058,-0.455 1.425,0.029 0.138,0.188 0.241,0.391 0.325,0.605 -0.288,0.035 -0.575,0.272 -0.775,0.497 -0.272,0.315 -0.444,0.708 -0.571,1.106 -0.02,0.061 0.058,0.09 0.092,0.046 0.205,-0.261 0.389,-0.55 0.608,-0.8 0.242,-0.283 0.494,-0.315 0.788,-0.397 0.151,0.648 0.163,1.368 0.242,2.027 0.012,0.121 0.169,0.143 0.198,0.007 0.29,-1.314 0.252,-3.173 -0.888,-3.9 z"
   id="path537" />

			</g>

			<g
   id="g539">
				<path
   style="fill:#efcaa6"
   d="m 391.961,310.706 c 0,0 0.803,-1.756 1.807,-1.99 1.002,-0.233 3.361,0.467 3.859,2.938 0.5,2.468 -1.158,4.425 -2.638,4.966 -1.479,0.541 -2.28,-1.035 -2.28,-1.035 z"
   id="path538" />

				<path
   style="fill:#c39368"
   d="m 394.508,311.497 c 1.316,-0.698 1.853,0.823 2.061,1.817 0.01,0.046 -0.055,0.058 -0.074,0.021 -0.193,-0.373 -0.367,-0.772 -0.584,-1.135 -0.37,-0.618 -1.038,-0.408 -1.441,0.018 -0.154,0.165 -0.273,0.347 -0.373,0.539 0.287,0.028 0.563,0.242 0.746,0.446 0.252,0.28 0.397,0.628 0.498,0.987 0.013,0.053 -0.067,0.078 -0.098,0.042 -0.188,-0.238 -0.353,-0.493 -0.557,-0.719 -0.226,-0.251 -0.476,-0.281 -0.767,-0.358 -0.202,0.577 -0.267,1.214 -0.396,1.803 -0.022,0.109 -0.181,0.123 -0.202,0.002 -0.192,-1.169 -0.016,-2.824 1.187,-3.463 z"
   id="path539" />

			</g>

			<path
   style="fill:#f4d9bf"
   d="m 393.228,316.412 c -1.012,-3.754 -1.129,-9.508 -0.951,-12.968 0.174,-3.464 2.797,-7.028 -1.336,-10.924 -4.131,-3.896 -27.6,-10.964 -39.84,-0.018 0,0 -4.586,5.802 -3.301,13.759 1.284,7.961 -1.818,11.125 -0.666,15.244 1.148,4.118 4.602,12.99 22.963,13.802 18.363,0.808 24.147,-15.139 23.131,-18.895 z"
   id="path540" />

			<path
   style="fill:#930323"
   d="m 377.945,329.145 c -1.644,2.479 -4.537,3.199 -7.35,3.045 -2.559,-0.136 -5.117,-1.068 -7.022,-2.79 -1.911,-1.725 -2.603,-4.151 -3.517,-6.45 3.123,1.223 6.643,1.316 9.939,0.949 3.229,-0.359 6.893,-0.685 9.931,-2.027 0.159,2.525 -0.582,5.157 -1.981,7.273 z"
   id="path541" />

			<path
   style="fill:#ffffff"
   d="m 363.867,325.881 c 4.718,0.621 9.303,0.426 13.689,-1.275 0.124,-0.636 0.156,-1.284 0.091,-1.933 -2.491,0.695 -5.196,0.953 -7.651,1.225 -2.49,0.277 -5.111,0.289 -7.59,-0.249 0.33,0.829 0.848,1.589 1.461,2.232 z"
   id="path542" />

			<path
   style="fill:#f9cbc0"
   d="m 376.215,330.186 c -1.213,-0.718 -2.762,-1.236 -4.164,-1.36 -1.389,-0.122 -2.941,0.064 -4.191,0.721 -0.777,0.408 -1.264,0.939 -1.675,1.556 1.38,0.64 2.896,1.006 4.411,1.087 2.199,0.121 4.443,-0.297 6.103,-1.667 -0.155,-0.121 -0.314,-0.236 -0.484,-0.337 z"
   id="path543" />

			<path
   style="fill:#f39f00"
   d="m 395.986,299.287 c -0.09,-0.263 -0.232,-0.501 -0.416,-0.719 0.055,-0.033 0.095,-0.094 0.066,-0.17 -1.868,-5.302 -5.785,-10.205 -10.654,-13.084 -4.814,-2.849 -10.931,-2.924 -16.339,-2.475 -5.409,0.447 -10.784,1.994 -15.207,5.222 -3.028,2.21 -6.962,6.085 -6.722,10.191 -0.438,2.013 -0.178,4.317 0.146,6.162 -0.012,0.075 0.025,0.158 0.119,0.161 1.615,0.06 3.035,-0.823 4.371,-1.626 1.667,-1.001 3.186,-2.112 4.623,-3.422 1.423,-1.302 2.715,-2.721 3.857,-4.272 -0.063,0.155 -0.125,0.313 -0.191,0.467 -0.666,1.506 -1.467,2.962 -2.756,4.017 -0.004,0 -0.01,-10e-4 -0.016,-0.002 -0.115,-0.021 -0.16,0.136 -0.049,0.176 1.519,0.557 3.541,-0.202 5.021,-0.593 2.219,-0.577 4.373,-1.485 6.372,-2.605 3.069,-1.722 5.95,-3.933 8.552,-6.375 0.073,4.214 3.499,8.146 6.688,10.548 0.032,0.023 0.068,0.014 0.096,-0.01 0.069,0.005 0.145,-0.059 0.136,-0.148 -0.192,-1.673 -0.47,-3.27 -0.482,-4.965 -0.008,-0.792 0.068,-1.658 0.073,-2.517 0.917,1.282 2.052,2.338 3.39,3.296 1.967,1.418 4.344,2.773 6.645,3.542 0.205,0.067 0.33,-0.135 0.283,-0.298 0.186,-0.731 -0.002,-1.473 -0.227,-2.183 0.275,0.17 0.549,0.338 0.819,0.515 0.581,0.378 1.021,0.88 1.556,1.305 0.102,0.079 0.299,0.016 0.246,-0.138 z"
   id="path544" />

			<path
   style="fill:#f39f00"
   d="m 395.57,298.568 c 0.055,-0.033 0.095,-0.094 0.066,-0.17 -0.502,-1.428 -1.158,-2.822 -1.935,-4.159 -1.104,-1.216 -2.304,-2.342 -3.57,-3.403 1.046,1.743 1.965,3.775 1.621,5.725 -0.031,0.185 -0.246,0.313 -0.41,0.184 -3.22,-2.508 -7.211,-4.072 -8.853,-7.919 -0.287,3.018 -0.478,6.03 -0.144,9.066 0.026,0.245 -0.293,0.426 -0.459,0.206 -2.746,-3.592 -4.453,-8.253 -1.445,-12.247 0.582,-0.773 1.232,-1.347 1.934,-1.767 -0.69,-0.259 -1.393,-0.485 -2.111,-0.665 -0.396,0.723 -0.852,1.42 -1.248,2.087 -1.476,2.478 -3.209,4.646 -5.435,6.488 -3.571,2.958 -8.378,6.598 -13.298,6.09 -0.1,-0.01 -0.17,-0.074 -0.209,-0.155 -0.012,-10e-4 -0.022,0.001 -0.037,0.001 -0.16,-0.006 -0.287,-0.207 -0.217,-0.353 0.057,-0.113 0.111,-0.227 0.168,-0.343 0.008,-0.026 0.02,-0.054 0.037,-0.077 1.118,-2.294 2.242,-4.568 2.709,-7.082 -3.166,3.559 -7.133,6.016 -11.484,7.94 -1.027,0.455 -2.984,1.528 -4.746,1.914 -0.078,1.545 0.121,3.14 0.357,4.486 -0.012,0.075 0.025,0.158 0.119,0.161 1.615,0.06 3.035,-0.823 4.371,-1.626 1.667,-1.001 3.186,-2.112 4.623,-3.422 1.423,-1.302 2.715,-2.721 3.857,-4.272 -0.063,0.155 -0.125,0.313 -0.191,0.467 -0.666,1.506 -1.467,2.962 -2.756,4.017 -0.004,0 -0.01,-0.001 -0.016,-0.002 -0.115,-0.021 -0.16,0.136 -0.049,0.176 1.519,0.557 3.541,-0.202 5.021,-0.593 2.219,-0.577 4.373,-1.485 6.372,-2.605 3.069,-1.722 5.95,-3.933 8.552,-6.375 0.073,4.214 3.499,8.146 6.688,10.548 0.032,0.023 0.068,0.014 0.096,-0.01 0.069,0.005 0.145,-0.059 0.136,-0.148 -0.192,-1.673 -0.47,-3.27 -0.482,-4.965 -0.008,-0.792 0.068,-1.658 0.073,-2.517 0.917,1.282 2.052,2.338 3.39,3.296 1.967,1.418 4.344,2.773 6.645,3.542 0.205,0.067 0.33,-0.135 0.283,-0.298 0.186,-0.731 -0.002,-1.473 -0.227,-2.183 0.275,0.17 0.549,0.338 0.819,0.515 0.581,0.378 1.021,0.88 1.556,1.305 0.1,0.079 0.297,0.017 0.244,-0.138 -0.088,-0.264 -0.231,-0.502 -0.415,-0.72 z"
   id="path545" />

			<g
   id="g547">
				<path
   style="fill:#3d1a0b"
   d="m 379.344,313.049 c 0.119,1.621 -0.277,2.984 -0.879,3.05 -0.605,0.063 -1.197,-1.198 -1.313,-2.822 -0.121,-1.62 0.274,-2.988 0.879,-3.05 0.606,-0.064 1.194,1.201 1.313,2.822 z"
   id="path546" />

				<path
   style="fill:#ffffff"
   d="m 378,311.948 c 0.002,0.494 -0.147,0.894 -0.328,0.897 -0.186,10e-4 -0.337,-0.398 -0.338,-0.893 -0.002,-0.492 0.143,-0.893 0.328,-0.893 0.186,0 0.336,0.398 0.338,0.889 z"
   id="path547" />

			</g>

			<g
   id="g549">
				<path
   style="fill:#3d1a0b"
   d="m 359.762,314.116 c -0.006,1.625 -0.504,2.954 -1.109,2.974 -0.611,0.014 -1.1,-1.291 -1.091,-2.916 0.007,-1.624 0.507,-2.957 1.114,-2.972 0.609,-0.019 1.093,1.288 1.086,2.914 z"
   id="path548" />

				<path
   style="fill:#ffffff"
   d="m 358.508,312.916 c -0.035,0.491 -0.214,0.877 -0.397,0.867 -0.184,-0.013 -0.305,-0.422 -0.268,-0.914 0.035,-0.492 0.213,-0.88 0.398,-0.867 0.186,0.012 0.306,0.423 0.267,0.914 z"
   id="path549" />

			</g>

			<path
   style="fill:#f9cbc0"
   d="m 358.443,319.233 c -0.112,0.91 -2.059,1.392 -4.351,1.08 -2.296,-0.317 -4.063,-1.31 -3.956,-2.222 0.113,-0.912 2.063,-1.396 4.355,-1.08 2.294,0.317 4.061,1.311 3.952,2.222 z"
   id="path550" />

			<path
   style="fill:#f9cbc0"
   d="m 389.912,317.912 c 0.09,0.914 -1.705,1.813 -4.012,2.008 -2.307,0.197 -4.248,-0.383 -4.342,-1.297 -0.092,-0.915 1.703,-1.816 4.008,-2.011 2.307,-0.194 4.252,0.387 4.346,1.3 z"
   id="path551" />

			<path
   style="fill:#c39368"
   d="m 367.065,320.669 c -0.171,-0.481 -0.012,-1.054 0.471,-1.289 0.922,-0.447 2.01,-0.251 2.844,0.307 0.018,-0.051 0.014,-0.109 -0.031,-0.15 -0.375,-0.366 -1.014,-0.677 -1.674,-0.805 0.184,-0.554 -0.072,-0.958 -0.393,-1.421 -0.057,-0.08 -0.446,-0.364 -0.408,-0.26 0.135,0.363 0.322,1.186 0.037,1.49 -0.043,0.047 -0.07,0.097 -0.09,0.146 -0.431,0.045 -0.824,0.204 -1.104,0.523 -0.849,0.978 0.32,2.523 1.383,2.671 0.02,0.003 0.037,-0.007 0.051,-0.022 -0.485,-0.277 -0.885,-0.631 -1.086,-1.19 z"
   id="path552" />

			<path
   style="fill:#c39368"
   d="m 380.316,321.694 c 0.102,-0.047 0.205,-0.083 0.302,-0.134 0.108,-0.055 0.038,-0.234 -0.081,-0.203 -3.17,0.884 -6.338,1.517 -9.605,1.923 -3.87,0.476 -7.551,0.205 -11.363,-0.609 -0.037,-0.009 -0.066,0.047 -0.027,0.065 0.103,0.044 0.207,0.086 0.312,0.127 -0.026,0.03 -0.046,0.063 -0.038,0.102 0.467,2.743 1.875,5.501 4.016,7.298 2.094,1.758 4.993,2.446 7.672,2.457 5.838,0.024 9.529,-5.462 8.84,-10.959 -0.005,-0.026 -0.016,-0.047 -0.028,-0.067 z m -2.371,7.451 c -1.644,2.479 -4.537,3.199 -7.35,3.045 -2.559,-0.136 -5.117,-1.068 -7.022,-2.79 -1.911,-1.725 -2.603,-4.151 -3.517,-6.45 3.123,1.223 6.643,1.316 9.939,0.949 3.229,-0.359 6.893,-0.685 9.931,-2.027 0.159,2.525 -0.582,5.157 -1.981,7.273 z"
   id="path553" />

			<path
   style="fill:#f39f00"
   d="m 382.582,307.964 c -0.397,-2.271 -2.306,-5.45 -5.08,-4.883 -2.244,0.459 -4.018,3.009 -3.912,5.275 0.01,0.203 0.301,0.262 0.359,0.054 0.52,-1.81 1.265,-3.186 3.143,-3.826 2.402,-0.819 3.545,1.981 4.098,3.723 0.279,0.886 1.553,0.568 1.392,-0.343 z"
   id="path554" />

			<path
   style="fill:#f39f00"
   d="m 358.012,304.322 c -2.51,-0.164 -5.121,2.623 -4.59,5.151 0.094,0.454 0.705,0.617 1.025,0.288 1.227,-1.253 0.989,-3.612 3.223,-3.828 1.863,-0.18 3.363,1.522 3.949,3.088 0.066,0.173 0.361,0.18 0.354,-0.038 -0.1,-2.137 -1.653,-4.511 -3.961,-4.661 z"
   id="path555" />

		</g>

	</g>

</g>
  </g>
</svg>
