<?xml version="1.0" encoding="UTF-8" standalone="no"?>
<!-- Created with Inkscape (http://www.inkscape.org/) -->

<svg
   width="83.165649mm"
   height="172.61732mm"
   viewBox="0 0 83.165655 172.61734"
   version="1.1"
   id="svg1"
   inkscape:version="1.4.2 (f4327f4, 2025-05-13)"
   sodipodi:docname="girl7.svg"
   xmlns:inkscape="http://www.inkscape.org/namespaces/inkscape"
   xmlns:sodipodi="http://sodipodi.sourceforge.net/DTD/sodipodi-0.dtd"
   xmlns="http://www.w3.org/2000/svg"
   xmlns:svg="http://www.w3.org/2000/svg">
  <sodipodi:namedview
     id="namedview1"
     pagecolor="#ffffff"
     bordercolor="#000000"
     borderopacity="0.25"
     inkscape:showpageshadow="2"
     inkscape:pageopacity="0.0"
     inkscape:pagecheckerboard="0"
     inkscape:deskcolor="#d1d1d1"
     inkscape:document-units="mm"
     inkscape:zoom="1.2275954"
     inkscape:cx="200.39176"
     inkscape:cy="233.79038"
     inkscape:window-width="2880"
     inkscape:window-height="1676"
     inkscape:window-x="-12"
     inkscape:window-y="-12"
     inkscape:window-maximized="1"
     inkscape:current-layer="layer1" />
  <defs
     id="defs1">
    <clipPath
       clipPathUnits="userSpaceOnUse"
       id="clipPath119">
      <path
         d="m 2429.58,8528.87 v 0 l -1.54,4.27 c 7.66,35.49 -15.79,67.53 -15.79,67.53 10.47,20.59 15.22,39.01 16.15,55.3 95.03,81.21 245.93,222.7 239.94,298.46 -6.68,84.06 -297.09,299.7 -435.14,397.71 -1.96,12.33 -3.87,24.38 -5.72,36.02 -4.67,29.42 -8.97,56.5 -12.82,80.63 v 0 c 0,0 399.66,-281.36 528.14,-436.13 0,0 44.89,-42.39 44.81,-102.96 0,-4.99 -0.32,-10.11 -0.98,-15.34 -8.76,-68.62 -357.05,-385.49 -357.05,-385.49"
         transform="translate(0,2.5000001e-4)"
         id="path119" />
    </clipPath>
    <clipPath
       clipPathUnits="userSpaceOnUse"
       id="clipPath299">
      <path
         d="m 6622.23,11070.3 c 4.28,3.8 8.4,7.9 12.38,12.2 -0.48,-0.6 -0.96,-1.2 -1.45,-1.8 -3.23,-3.4 -6.57,-6.6 -10.01,-9.8 -0.22,-0.1 -0.44,-0.3 -0.66,-0.4 l -0.26,-0.2"
         transform="translate(0,2.5000001e-4)"
         id="path299" />
    </clipPath>
    <clipPath
       clipPathUnits="userSpaceOnUse"
       id="clipPath602">
      <path
         d="m 4237.98,3522.14 c 0,0 0,0.01 0,0.02 0,-0.01 0,-0.01 0,-0.02 m 0.01,0.2 c 0,0.1 0.01,0.2 0.01,0.3 0,-0.1 -0.01,-0.2 -0.01,-0.3"
         transform="translate(0,2.5000001e-4)"
         id="path602" />
    </clipPath>
  </defs>
  <g
     inkscape:label="图层 1"
     inkscape:groupmode="layer"
     id="layer1"
     transform="translate(-51.5936,-276.48934)">
    <path
       id="path614"
       d="m 88.049497,443.07189 c 0,0 0.886884,2.67409 0.797984,3.74304 l 0.797278,-0.21526 0.530577,-4.06037 -2.125839,0.53259"
       style="fill:#65111d;fill-opacity:1;fill-rule:nonzero;stroke:none;stroke-width:0.0352778" />
    <path
       id="path615"
       d="m 85.642142,445.01576 c -0.929217,1.13951 -4.176889,0.10224 -4.176889,0.10224 -0.08573,0.0635 -0.166864,0.11303 -0.237067,0.14471 -1.240367,0.5504 -4.075995,1.33696 -3.809648,2.68813 0,0 0.974726,0.92784 3.809648,0.85729 2.833511,-0.0706 5.726642,-0.64203 5.87622,-1.71098 0.146755,-1.06895 -0.207434,-3.77472 3.07093,-4.55785 0,0 0.30092,-0.5927 0.272698,-1.74283 -2.749198,0.44457 -3.987801,3.21733 -4.805892,4.21929"
       style="fill:#ec1c26;fill-opacity:1;fill-rule:nonzero;stroke:none;stroke-width:0.0352778" />
    <path
       id="path616"
       d="m 86.962236,443.45292 c -0.618419,1.00186 -0.79375,2.34957 -1.91135,3.11147 -2.121253,1.43937 -5.009092,1.36179 -7.579784,0.87492 -0.0635,0.16235 -0.08855,0.33158 -0.05256,0.51153 0,0 0.974726,0.92784 3.809648,0.85729 2.833511,-0.0706 5.726642,-0.64203 5.87622,-1.71098 0.146755,-1.06895 -0.207434,-3.77472 3.07093,-4.55785 0,0 0.188031,-0.38104 0.250825,-1.11485 -1.414638,0.35638 -2.791883,0.9313 -3.463925,2.02847"
       style="fill:#b31d24;fill-opacity:1;fill-rule:nonzero;stroke:none;stroke-width:0.0352778" />
    <path
       id="path617"
       d="m 86.5449,438.97624 c 0,0 -3.626203,5.10106 -5.079647,6.14176 0,0 3.247672,1.03727 4.176889,-0.10224 0.818091,-1.00196 2.056694,-3.77472 4.805892,-4.21929 -0.01235,-0.50433 -0.08467,-1.10765 -0.272698,-1.82023 H 86.5449"
       style="fill:#f1cead;fill-opacity:1;fill-rule:nonzero;stroke:none;stroke-width:0.0352778" />
    <path
       id="path618"
       d="m 90.38665,440.03458 c -0.04339,-0.3211 -0.109361,-0.67388 -0.211314,-1.05834 H 86.5449 c 0,0 -0.225425,0.3139 -0.583142,0.80077 1.09855,0.86791 2.959453,0.79721 4.424892,0.25757"
       style="fill:#ddad81;fill-opacity:1;fill-rule:nonzero;stroke:none;stroke-width:0.0352778" />
    <path
       id="path619"
       d="m 109.61868,444.32425 c -0.31961,0.94908 -1.31938,1.5029 -3.2265,1.70395 -2.51707,0.2716 -2.70792,-1.6721 -2.70369,-2.32131 -0.096,1.65463 -0.66146,4.49089 1.06363,5.10483 1.99425,0.70898 6.73241,0.17639 5.97993,-1.99679 -0.21766,-0.635 -0.63323,-1.52054 -1.11337,-2.49068"
       style="fill:#ec1c26;fill-opacity:1;fill-rule:nonzero;stroke:none;stroke-width:0.0352778" />
    <path
       id="path620"
       d="m 110.73205,446.81493 c -0.21766,-0.635 -0.63323,-1.52054 -1.11337,-2.49068 -0.27622,0.81858 -1.06397,1.34415 -2.50578,1.60172 0.25683,0.82902 0.39758,1.7745 -0.61136,2.1766 -0.9204,0.36682 -1.92017,0.18341 -2.71533,-0.25756 0.18591,0.44457 0.48366,0.79375 0.96591,0.96671 1.99425,0.70898 6.73241,0.17639 5.97993,-1.99679"
       style="fill:#b31d24;fill-opacity:1;fill-rule:nonzero;stroke:none;stroke-width:0.0352778" />
    <path
       id="path621"
       d="m 106.39218,446.0282 c 1.90712,-0.20105 2.90689,-0.75487 3.2265,-1.70395 -1.16981,-2.36703 -2.74708,-5.23875 -2.9083,-6.17001 -0.22895,-1.3159 -0.22895,-1.3159 -0.22895,-1.3159 l -3.10127,1.28062 c 0,0 0.17639,3.52778 0.30939,4.91765 0.0145,0.13409 0.0127,0.29284 0.007,0.46567 v -0.003 0.0106 c -0.001,0.0634 -0.004,0.12689 -0.008,0.19745 -0.004,0.64921 0.18697,2.58949 2.70404,2.32131"
       style="fill:#f1cead;fill-opacity:1;fill-rule:nonzero;stroke:none;stroke-width:0.0352778" />
    <path
       id="path622"
       d="m 106.85573,438.65158 c -0.0716,-0.20108 -0.12206,-0.37041 -0.14535,-0.49734 -0.22895,-1.3159 -0.22895,-1.3159 -0.22895,-1.3159 l -3.10127,1.28062 c 0,0 0.0201,0.41631 0.0547,1.01603 0.895,0.3598 2.30964,0.0176 3.42089,-0.48341"
       style="fill:#ddad81;fill-opacity:1;fill-rule:nonzero;stroke:none;stroke-width:0.0352778" />
    <path
       id="path623"
       d="m 69.058057,369.95065 c 0,0 -3.455811,3.95358 -1.794228,11.59651 1.661231,7.64116 9.036404,21.21288 10.830632,29.39027 1.792464,8.17386 8.005939,28.46557 8.005939,28.46557 0,0 1.462264,0.69497 4.318706,0 0,0 -2.092325,-18.68661 -4.28625,-25.47402 0,0 -1.792817,-3.90172 -1.395237,-4.70252 0.398992,-0.80081 0.398992,-1.0795 -0.39758,-1.9297 -0.797984,-0.84667 -5.980995,-24.09402 -4.586112,-28.42225 0,0 1.263651,0.10725 2.459215,-0.26776 0,0 8.837083,18.43476 12.159545,29.55079 3.322461,11.11603 8.472313,30.17654 8.472313,30.17654 0,0 2.4571,1.016 4.85069,-0.53262 0,0 -2.02847,-14.19931 -3.42371,-19.812 -1.39523,-5.60917 -4.052,-8.17387 -3.65336,-8.70656 0.39758,-0.53622 -0.46567,-1.07244 -0.731663,-1.23119 -0.265995,-0.15875 -2.790473,-17.15382 -3.255434,-19.82506 -0.464608,-2.67264 -2.623256,-15.0876 -3.938059,-17.59373 l -23.635407,-0.68227"
       style="fill:#39677d;fill-opacity:1;fill-rule:nonzero;stroke:none;stroke-width:0.0352778" />
    <path
       id="path624"
       d="m 89.748828,375.38483 c 0.779992,2.24367 2.601736,3.79166 4.649259,2.84586 -0.598664,-3.35103 -1.212498,-6.26074 -1.704623,-7.43126 l -3.59798,-0.12982 c 0.02752,1.59773 0.133702,3.21768 0.653344,4.71522"
       style="fill:#50c3d0;fill-opacity:1;fill-rule:nonzero;stroke:none;stroke-width:0.0352778" />
    <path
       id="path625"
       d="m 68.95046,375.33933 c 1.063978,-1.52224 1.389592,-3.50097 1.310217,-5.34635 l -1.20262,-0.0423 c 0,0 -1.736725,2.49484 -2.15018,7.33813 0.837847,-0.48119 1.632655,-1.36455 2.042583,-1.94945"
       style="fill:#50c3d0;fill-opacity:1;fill-rule:nonzero;stroke:none;stroke-width:0.0352778" />
    <path
       id="path626"
       d="m 106.52377,438.3659 c -0.67663,-3.94409 -1.98015,-8.40313 -3.20287,-16.11849 -1.59491,-10.04704 -4.075999,-11.61337 -3.721105,-12.61173 0.354189,-0.99484 0,0 -0.975077,-1.49578 -0.794103,-1.22061 -4.001912,-21.28273 -5.497337,-29.62698 0.01623,3.5e-4 0.0321,7e-4 0.04833,7e-4 0.393347,0 0.803275,-0.0892 1.222375,-0.28293 -0.526345,-2.94746 -1.064684,-5.55343 -1.521531,-6.9349 0.012,-0.005 0.02293,-0.0102 0.03493,-0.0159 v 0 0 0 c 0,0 -0.08043,-0.17356 -0.212725,-0.46778 -0.0018,-0.004 -0.0035,-0.008 -0.0053,-0.0127 h -3.52e-4 c -0.02364,-0.0526 -0.04868,-0.10901 -0.0755,-0.16863 l 0.07585,0.002 c 1.314803,2.50613 3.473451,14.92109 3.938059,17.59373 0.464961,2.67124 2.989439,19.66631 3.255434,19.82506 0.217659,0.13052 0.835369,0.51152 0.834669,0.94191 0,0.0952 -0.0307,0.1905 -0.10301,0.28928 -0.0272,0.0353 -0.0402,0.0811 -0.0402,0.13758 -0.001,0.75848 2.3936,3.34434 3.69358,8.56898 1.39524,5.61269 3.42371,19.812 3.42371,19.812 v 0 c -0.39405,0.25054 -0.78775,0.43395 -1.17192,0.56444 m -26.816772,-63.7588 c -4.537075,0 -7.658806,-0.80292 -9.707387,-1.6704 0.07267,-0.30128 0.129823,-0.60713 0.172156,-0.91546 1.996722,0.96767 5.443009,2.19992 10.043231,2.19992 2.634897,0 5.648325,-0.40393 8.985956,-1.49296 0.03986,0.40358 0.09384,0.80469 0.167922,1.20121 -0.104775,-0.002 -0.20955,-0.004 -0.314677,-0.004 -1.686278,0 -3.363737,0.26987 -3.363737,0.26987 -2.224617,0.28893 -4.211461,0.41134 -5.983464,0.41134 m -11.623323,-2.66383 c -0.04798,-0.0303 -0.0949,-0.0607 -0.140053,-0.0903 0.144639,-0.32491 0.289278,-0.60889 0.423686,-0.8516 0.02681,0.018 0.05644,0.0377 0.08925,0.0593 -0.117122,0.25189 -0.243769,0.5461 -0.372886,0.88265"
       style="fill:#24485d;fill-opacity:1;fill-rule:nonzero;stroke:none;stroke-width:0.0352778" />
    <path
       id="path627"
       d="m 93.175712,378.51362 c -0.01623,0 -0.0321,-3.5e-4 -0.04833,-7e-4 -0.339019,-1.8916 -0.590197,-3.18136 -0.705203,-3.51226 -0.274461,-0.7934 -1.629833,-1.0414 -3.053292,-1.07139 -0.07408,-0.39652 -0.128058,-0.79763 -0.167922,-1.20121 1.184981,-0.38664 2.411236,-0.86007 3.675592,-1.43227 0.456847,1.38147 0.995186,3.98744 1.521531,6.9349 -0.4191,0.19368 -0.829028,0.28293 -1.222375,0.28293 m -0.476956,-7.70149 c -0.0018,-0.004 -0.0035,-0.008 -0.0056,-0.0127 h 3.52e-4 c 0.0018,0.004 0.0035,0.008 0.0053,0.0127"
       style="fill:#39839b;fill-opacity:1;fill-rule:nonzero;stroke:none;stroke-width:0.0352778" />
    <path
       id="path628"
       d="m 69.999621,372.93656 c -0.791986,-0.3355 -1.424516,-0.68086 -1.915936,-0.99343 0.129117,-0.33655 0.255764,-0.63076 0.372886,-0.88265 0.308681,0.20356 0.887589,0.55951 1.715206,0.96062 -0.04233,0.30833 -0.09948,0.61418 -0.172156,0.91546"
       style="fill:#39839b;fill-opacity:1;fill-rule:nonzero;stroke:none;stroke-width:0.0352778" />
    <path
       id="path629"
       d="m 89.050681,439.64994 c -0.602192,-8.58308 -4.350456,-24.75082 -4.68877,-26.47943 -0.353836,-1.80975 -2.834922,-0.68439 -1.772708,-2.60703 1.06433,-1.92264 1.418872,-0.0706 -1.062214,-7.05555 -2.479675,-6.98147 -4.518378,-24.36531 -4.518378,-24.36531 -1.683103,-0.71437 -3.099859,-2.34279 -3.099859,-2.34279 2.125486,1.43298 8.30439,1.80692 8.30439,1.80692 -0.760942,0.23848 -1.549048,0.28187 -2.02177,0.28187 -0.270228,0 -0.437445,-0.0141 -0.437445,-0.0141 -0.164041,0.50941 -0.237066,1.28059 -0.237066,2.24649 0.0014,7.24253 4.119033,25.42787 4.823178,26.17576 0.466725,0.49742 0.660047,0.80081 0.659694,1.12536 -3.52e-4,0.22931 -0.09701,0.47272 -0.262114,0.80434 -0.03986,0.0811 -0.0575,0.1905 -0.0575,0.32455 -7.06e-4,1.21708 1.452739,4.37797 1.452739,4.37797 2.193925,6.78741 4.28625,25.47402 4.28625,25.47402 v 0 c -0.499533,0.12005 -0.95497,0.19762 -1.368425,0.24694"
       style="fill:#24485d;fill-opacity:1;fill-rule:nonzero;stroke:none;stroke-width:0.0352778" />
    <path
       id="path630"
       d="m 80.020275,333.47342 c 0,0 0.465666,2.12619 -0.530578,2.25919 -0.998008,0.13229 -4.585053,-0.19967 -6.245931,0.79692 -1.661231,0.99731 -16.411576,12.4259 -15.814323,15.34972 0.598311,2.92206 8.638823,14.94825 8.705498,15.0816 0.06632,0.13194 1.926872,-1.85984 1.926872,-1.85984 0,0 -6.91127,-13.48811 -6.112581,-14.15309 0.796572,-0.66464 11.826523,-9.3017 11.826523,-9.3017 0,0 7.639403,5.04896 19.333282,1.19557 0,0 20.665013,12.95682 23.451963,11.09592 2.794,-1.8609 3.98992,-20.7959 3.98992,-20.7959 0,0 2.45886,-0.133 5.04825,-1.99355 2.59291,-1.8602 5.78202,-4.98228 6.84389,-6.04661 1.06186,-1.06292 2.79047,-2.92382 2.19427,-3.18841 0,0 0,-1.32891 -0.93133,-1.26259 0,0 -0.33161,-0.86466 -1.39347,-0.79798 -1.06539,0.0667 -1.99672,0.86395 -1.99672,0.86395 0,0 -0.26459,-0.66428 -1.4605,-0.33196 -1.19592,0.33196 -6.64281,4.38538 -8.03981,6.11329 l -1.32645,0.33055 c 0,0 -0.46566,-0.5969 -0.13405,-2.12549 0.33161,-1.52788 -0.99836,-2.65677 -1.59456,-2.78977 -0.59972,-0.13299 -0.79727,0.46461 -0.46566,1.92617 0.33161,1.46191 -2.72345,5.71359 -0.13406,7.70784 0,0 -3.556,12.34899 -3.45369,17.27483 0,0 -7.04356,-3.12279 -10.83028,-6.31226 -3.786366,-3.18946 -7.574494,-5.77991 -11.493502,-6.37822 -1.810809,-0.27658 -3.252964,-0.21272 -4.300009,-0.14922 -1.220964,0.0741 -1.905353,0.14816 -2.01295,-0.31645 -0.199672,-0.8636 0.333022,-2.4585 0.333022,-2.4585 l -5.383036,0.26599"
       style="fill:#f1cead;fill-opacity:1;fill-rule:nonzero;stroke:none;stroke-width:0.0352778" />
    <path
       id="path631"
       d="m 65.143635,365.4425 c 0.595842,0.91228 0.976489,1.48837 0.991306,1.51835 0.06632,0.1323 1.926872,-1.85984 1.926872,-1.85984 0,0 -0.587728,-1.15006 -1.400175,-2.788 -0.64382,0.95814 -1.118659,2.03341 -1.518003,3.12949"
       style="fill:#ddad81;fill-opacity:1;fill-rule:nonzero;stroke:none;stroke-width:0.0352778" />
    <path
       id="path632"
       d="m 78.409491,341.67198 c -1.395236,-1.61185 -1.738841,-3.79272 -1.794933,-5.86211 -1.028347,0.0494 -2.113492,0.17392 -2.928409,0.50518 0.366184,1.81539 0.431448,3.67135 0.413456,5.52379 1.057275,0.60113 4.687006,2.40418 10.118373,2.45004 -2.21615,-0.14746 -4.30777,-0.88265 -5.808487,-2.6169"
       style="fill:#ddad81;fill-opacity:1;fill-rule:nonzero;stroke:none;stroke-width:0.0352778" />
    <path
       id="path633"
       d="m 92.24085,336.29811 c -0.28575,-0.0656 -0.570441,-0.12206 -0.857602,-0.16651 l -0.06138,-0.009 c -0.11183,1.8789 -0.185208,3.81459 -1.091494,5.42079 -0.905934,1.60478 -2.407356,2.4451 -4.12997,2.69134 2.121606,-0.13935 4.468284,-0.55563 7.008637,-1.39312 0,0 0.127705,0.0797 0.361244,0.22472 -0.992364,-2.02071 -1.01353,-4.42666 -1.229431,-6.7684"
       style="fill:#ddad81;fill-opacity:1;fill-rule:nonzero;stroke:none;stroke-width:0.0352778" />
    <path
       id="path634"
       d="m 79.665733,335.68075 c 1.625247,0.29281 3.45052,0.15452 4.854223,-0.0317 0.176388,-0.0236 0.354541,-0.0473 0.534458,-0.0737 -0.14605,-0.87912 0.348897,-2.36784 0.348897,-2.36784 l -5.383036,0.26599 c 0,0 0.4064,1.8542 -0.354542,2.20733"
       style="fill:#ddad81;fill-opacity:1;fill-rule:nonzero;stroke:none;stroke-width:0.0352778" />
    <path
       id="path635"
       d="m 73.177444,343.408 c 0,0 -3.322462,4.15149 -2.12725,7.14057 1.197327,2.99085 2.625019,2.07045 2.225675,3.66466 -0.398992,1.5942 -5.080706,16.66663 -5.080706,16.66663 0,0 9.63295,7.24324 24.716318,0.40005 0,0 -2.45992,-5.31671 -2.524831,-6.91092 -0.06597,-1.59349 0.530578,-10.16458 0.530578,-10.16458 0,0 3.92042,-1.72861 3.587045,-6.77722 -0.199672,-3.05399 -2.656064,-4.91737 -2.656064,-8.3065 0,-3.38808 0,-3.38808 0,-3.38808 h -1.728611 c 0,0 0.693561,5.78132 -3.720748,7.10918 -4.413956,1.3275 -11.183056,-0.19438 -10.242551,-7.00758 l -1.982964,-0.1016 c 0,0 0.06809,6.06884 -0.995891,7.67539"
       style="fill:#fbc524;fill-opacity:1;fill-rule:nonzero;stroke:none;stroke-width:0.0352778" />
    <path
       id="path636"
       d="m 119.88417,330.61663 c 0,0 1.32997,-1.47603 -0.49742,-3.97757 0,0 2.16253,1.91734 0.49742,3.97757"
       style="fill:#b88459;fill-opacity:1;fill-rule:nonzero;stroke:none;stroke-width:0.0352778" />
    <path
       id="path637"
       d="m 120.8155,326.49795 c 0,0 5.28461,-0.22331 5.61269,2.13007 0,0 -0.0988,-1.69898 -5.61269,-2.13007"
       style="fill:#b88459;fill-opacity:1;fill-rule:nonzero;stroke:none;stroke-width:0.0352778" />
    <path
       id="path638"
       d="m 127.06319,327.22784 c 0,0 0.43745,-0.3937 1.09714,-0.98566 0.16581,-0.14534 0.34573,-0.3055 0.5327,-0.47272 0.19403,-0.16263 0.36689,-0.36054 0.56444,-0.54469 0.19756,-0.17815 0.39511,-0.39758 0.60678,-0.60149 0.21167,-0.20461 0.43039,-0.40534 0.64911,-0.6043 0.44803,-0.38877 0.91017,-0.76553 1.36525,-1.08656 0.45508,-0.32526 0.91017,-0.58949 1.31233,-0.78987 0.40217,-0.20285 0.77612,-0.30304 1.04423,-0.31538 0.27164,-0.0176 0.40216,0.0949 0.40216,0.0861 0,0 -0.0353,-0.009 -0.10583,-0.0264 -0.067,-0.006 -0.16581,-0.008 -0.28928,0.0176 -0.24694,0.0434 -0.5715,0.2099 -0.94191,0.43462 -0.37395,0.22295 -0.77964,0.53587 -1.21003,0.87383 -0.42686,0.34149 -0.87489,0.71543 -1.31234,1.1049 -0.45508,0.38029 -0.84313,0.78916 -1.27705,1.15958 -0.21167,0.18521 -0.41628,0.36865 -0.62089,0.51294 -0.20814,0.15134 -0.40217,0.29563 -0.58208,0.42651 -0.35278,0.26423 -0.67734,0.45261 -0.889,0.59866 -0.21873,0.13935 -0.34573,0.21237 -0.34573,0.21237"
       style="fill:#b88459;fill-opacity:1;fill-rule:nonzero;stroke:none;stroke-width:0.0352778" />
    <path
       id="path639"
       d="m 124.82306,327.02711 c 0,0 0.11288,-0.13229 0.3175,-0.35348 0.21166,-0.21731 0.49741,-0.5401 0.87136,-0.90029 0.37394,-0.35983 0.80433,-0.78423 1.29116,-1.21497 0.47978,-0.43497 1.016,-0.87524 1.55223,-1.31021 0.55033,-0.42263 1.10419,-0.83715 1.651,-1.1931 0.27516,-0.17603 0.53622,-0.35137 0.8008,-0.49212 0.26458,-0.14147 0.50447,-0.28999 0.74436,-0.39547 0.23636,-0.10971 0.44803,-0.22013 0.65617,-0.2794 0.20461,-0.061 0.37394,-0.13652 0.52564,-0.16192 0.30339,-0.0483 0.47272,-0.0755 0.47272,-0.0755 0,0 -0.16228,0.055 -0.44803,0.14923 -0.14111,0.0445 -0.29986,0.13864 -0.49036,0.22578 -0.1905,0.0811 -0.38453,0.21978 -0.6103,0.34043 -0.22578,0.11888 -0.45156,0.28645 -0.6985,0.44414 -0.24342,0.15734 -0.48684,0.35525 -0.75495,0.5334 -0.51858,0.37712 -1.06186,0.7927 -1.60161,1.21709 -0.53622,0.43109 -1.07244,0.86042 -1.57339,1.26294 -0.50094,0.40922 -0.96661,0.78952 -1.36525,1.11654 -0.80433,0.65194 -1.34055,1.08691 -1.34055,1.08691"
       style="fill:#b88459;fill-opacity:1;fill-rule:nonzero;stroke:none;stroke-width:0.0352778" />
    <path
       id="path640"
       d="m 130.31581,320.71662 c 0,0 -1.85209,1.39771 -3.70417,2.79541 -0.44803,0.35702 -0.90664,0.71438 -1.32997,1.04846 -0.4057,0.35489 -0.80434,0.66992 -1.13595,0.94897 -0.62441,0.5969 -1.06891,0.98284 -1.06891,0.98284 0,0 0.34572,-0.46672 0.91016,-1.14335 0.31045,-0.30692 0.66675,-0.67628 1.06539,-1.05445 0.41275,-0.3616 0.86431,-0.73378 1.31939,-1.09785 0.47272,-0.34149 0.93486,-0.70097 1.39347,-0.99695 0.45509,-0.30268 0.89253,-0.56903 1.26647,-0.79199 0.75495,-0.44591 1.28412,-0.69109 1.28412,-0.69109"
       style="fill:#b88459;fill-opacity:1;fill-rule:nonzero;stroke:none;stroke-width:0.0352778" />
    <path
       id="path641"
       d="m 70.285724,364.67909 c 0,0 -2.583392,-2.49026 -3.399367,-1.91453 -0.818444,0.57432 -0.07373,1.53705 -0.07373,1.53705 0,0 -1.74237,0.33338 -1.242484,2.45957 0,0 -1.495778,1.06363 -0.433211,2.92206 0,0 -1.128889,0.76553 0.03422,1.76142 1.163108,0.99695 3.620558,0.74295 3.522133,-0.49706 0,0 0.630767,-0.16687 0.431447,-0.76518 0,0 1.030112,-0.46496 0.796573,-1.49472 -0.232481,-1.0294 -0.402873,-2.63772 -0.03422,-2.81411 l 0.398639,-1.1945"
       style="fill:#eabd92;fill-opacity:1;fill-rule:nonzero;stroke:none;stroke-width:0.0352778" />
    <path
       id="path642"
       d="m 69.669421,366.07009 c -0.115358,-0.47872 -0.05009,-1.02941 -0.228247,-1.48273 l -0.01411,0.007 c 0.06068,0.21449 0.0321,0.40887 0.01411,0.62371 -0.02152,0.27728 0.07514,0.61348 0.109714,0.89006 0.04304,0.36265 0.06315,0.71825 0.158044,1.06856 0.0127,0.0452 0.07585,0.0138 0.07373,-0.0251 -0.03069,-0.35948 -0.02858,-0.72884 -0.113242,-1.08126"
       style="fill:#b88459;fill-opacity:1;fill-rule:nonzero;stroke:none;stroke-width:0.0352778" />
    <path
       id="path643"
       d="m 66.812627,364.30161 c 0,0 0.137936,0.37924 0.33408,0.94827 0.194734,0.56727 0.453672,1.32362 0.710142,2.08033 0.264583,0.75354 0.534106,1.50319 0.8001,2.03341 0.134761,0.26353 0.262467,0.47696 0.385233,0.59408 0.120298,0.12418 0.226484,0.14499 0.226484,0.14499 0,0 -0.02575,-0.005 -0.07197,-0.0134 -0.0448,-0.0102 -0.116769,-0.0342 -0.185914,-0.0921 -0.147108,-0.10724 -0.323144,-0.30021 -0.4826,-0.55845 -0.331258,-0.51646 -0.658636,-1.26012 -0.92075,-2.02071 -0.265994,-0.76023 -0.469194,-1.53952 -0.604661,-2.1276 -0.132292,-0.58879 -0.190147,-0.98884 -0.190147,-0.98884"
       style="fill:#b88459;fill-opacity:1;fill-rule:nonzero;stroke:none;stroke-width:0.0352778" />
    <path
       id="path644"
       d="m 65.570143,366.76118 c 0,0 0.128059,0.32632 0.347134,0.79763 0.104422,0.23742 0.251883,0.50165 0.402519,0.78423 0.163689,0.27622 0.33655,0.57291 0.550686,0.83573 0.09807,0.13829 0.210256,0.26211 0.326672,0.37923 0.109714,0.12736 0.240948,0.21802 0.359481,0.32456 0.124178,0.0921 0.255411,0.16334 0.376061,0.24377 0.13335,0.0515 0.260703,0.10195 0.375709,0.14605 0.125588,0.0183 0.23883,0.0416 0.341841,0.0632 0.102659,0.0208 0.194381,0 0.26917,0.005 0.153105,-10e-4 0.239536,-10e-4 0.239536,-10e-4 0,0 -0.08467,0.0187 -0.233892,0.0529 -0.07726,0.009 -0.169333,0.0441 -0.278342,0.0423 -0.10795,-0.003 -0.232127,-0.005 -0.368652,-0.0155 -0.131586,-0.0307 -0.271639,-0.0734 -0.424745,-0.11571 -0.136525,-0.0713 -0.292453,-0.13335 -0.433211,-0.23072 -0.130881,-0.10654 -0.287514,-0.19614 -0.402519,-0.33125 -0.129117,-0.12383 -0.251884,-0.25612 -0.357717,-0.40147 -0.442736,-0.56479 -0.719314,-1.2266 -0.881239,-1.72649 -0.163689,-0.50306 -0.208492,-0.85196 -0.208492,-0.85196"
       style="fill:#b88459;fill-opacity:1;fill-rule:nonzero;stroke:none;stroke-width:0.0352778" />
    <path
       id="path645"
       d="m 65.136932,369.68324 c 0,0 0.156633,0.20602 0.440267,0.44309 0.279047,0.24236 0.705203,0.48472 1.163461,0.635 0.230011,0.0713 0.467431,0.11853 0.693561,0.15134 0.226836,0.0233 0.442736,0.0483 0.630061,0.0423 0.186973,0.009 0.340784,-0.005 0.452967,-0.006 0.111125,-10e-4 0.176036,-10e-4 0.176036,-10e-4 0,0 -0.06138,0.0183 -0.167569,0.0511 -0.107245,0.0236 -0.258234,0.09 -0.450498,0.10513 -0.191205,0.0307 -0.417689,0.0515 -0.662164,0.0413 -0.243063,-0.0113 -0.502002,-0.0586 -0.75318,-0.13088 -0.246239,-0.0921 -0.490714,-0.19332 -0.690386,-0.33902 -0.206728,-0.133 -0.367242,-0.30021 -0.496006,-0.44415 -0.255764,-0.29739 -0.33655,-0.54786 -0.33655,-0.54786"
       style="fill:#b88459;fill-opacity:1;fill-rule:nonzero;stroke:none;stroke-width:0.0352778" />
    <path
       id="path646"
       d="m 94.504273,347.42719 c -0.07479,-1.14441 -0.466372,-2.1216 -0.9271,-3.07445 0.46108,0.95285 0.852664,1.93004 0.9271,3.07445"
       style="fill:#fbc524;fill-opacity:1;fill-rule:nonzero;stroke:none;stroke-width:0.0352778" />
    <path
       id="path647"
       d="m 86.143792,373.55815 c -0.733778,-2.37596 -1.083734,-4.82035 -1.280231,-7.32861 -0.248003,-3.1877 -0.560917,-6.52356 -0.216253,-9.71197 0.04339,-0.39229 0.189442,-0.99589 -0.216958,-1.27388 -0.708378,-0.48542 -1.686278,-0.61207 -2.504722,-0.8135 -1.279878,-0.31398 -2.756253,-0.61137 -4.046715,-1.18957 0.370417,0.0187 0.740481,0.0275 1.110545,0.0275 2.222853,0 4.437239,-0.31433 6.683023,-0.67663 1.562805,-0.25047 3.758142,-0.54822 5.109986,-1.65382 3.03142,-1.72544 2.007659,-7.29227 1.464733,-9.47985 0.350662,1.03364 0.874184,1.95227 1.329973,2.8949 0.460728,0.95285 0.852311,1.93004 0.9271,3.07445 v 0 c 0.01376,0.20708 0.02046,0.40852 0.02011,0.60466 -0.0014,4.58259 -3.607153,6.17256 -3.607153,6.17256 0,0 -0.535164,7.69091 -0.535517,9.85661 0,0.1203 0.0014,0.22366 0.0049,0.30797 0.06491,1.59421 2.524831,6.91092 2.524831,6.91092 v 0 c -2.400653,1.08903 -4.660547,1.81716 -6.767689,2.27824"
       style="fill:#f7951d;fill-opacity:1;fill-rule:nonzero;stroke:none;stroke-width:0.0352778" />
    <path
       id="path648"
       d="m 92.006606,340.56919 -0.0021,-0.006 0.0021,0.006"
       style="fill:#e34949;fill-opacity:1;fill-rule:nonzero;stroke:none;stroke-width:0.0352778" />
    <path
       id="path649"
       d="m 83.548758,344.28782 c -0.65793,0 -1.371247,-0.0586 -2.142419,-0.18379 -6.496051,-1.05481 -6.439959,-6.22653 -6.141509,-8.31462 l 0.891469,0.0448 c -0.05997,0.43462 -0.08855,0.84737 -0.08855,1.23931 0.0014,4.44429 3.695348,6.20536 7.280981,6.20536 1.058686,-3.5e-4 2.1082,-0.15381 3.050117,-0.43709 3.358092,-1.01 3.760259,-4.5974 3.760259,-6.25652 0,-0.52175 -0.03951,-0.85266 -0.03951,-0.85266 h 0.637822 c 0.282575,3.54295 -1.119011,8.55521 -7.208662,8.55521"
       style="fill:#f7951d;fill-opacity:1;fill-rule:nonzero;stroke:none;stroke-width:0.0352778" />
    <path
       id="path650"
       d="m 91.88137,281.30676 c 0,0 -9.750426,-9.23961 -24.939627,-2.1269 -15.188495,7.112 -16.822915,30.18437 -14.478353,37.49499 2.34068,7.31202 5.487106,15.15886 -0.832556,14.60676 0,0 0.568325,4.16878 5.363634,3.33375 0,0 -0.974725,1.27177 -1.815748,1.55787 0,0 5.251098,2.04717 10.307109,-2.16041 0,0 -0.803627,2.03694 -1.735314,2.53471 0,0 6.907742,-0.1577 11.183057,-3.32705 l 18.834806,-2.67723 c 0,0 2.934759,1.82562 11.192582,1.02376 l -1.12042,-1.74449 c 0,0 2.77601,0.84808 7.36529,-1.15817 l -1.93357,-1.13453 c 0,0 2.7626,0.74224 5.09093,-2.48144 0,0 -4.74451,1.48026 -4.46193,-5.46523 0.28469,-6.94302 0.50024,-19.82858 -3.12702,-28.28149 -3.62973,-8.45397 -11.351334,-11.58946 -14.89287,-9.9949"
       style="fill:#f06e25;fill-opacity:1;fill-rule:nonzero;stroke:none;stroke-width:0.0352778" />
    <path
       id="path651"
       d="m 55.795023,334.71379 c -3.3528,-3.6e-4 -4.049889,-2.83528 -4.147961,-3.34539 0.878417,1.04598 2.178756,1.47496 3.563056,1.47496 1.404761,0 2.896305,-0.44168 4.12115,-1.12924 -0.794456,1.19098 -1.749072,2.21791 -2.871259,2.96474 -0.23248,0.0236 -0.453672,0.0349 -0.664986,0.0349"
       style="fill:#e7531f;fill-opacity:1;fill-rule:nonzero;stroke:none;stroke-width:0.0352778" />
    <path
       id="path652"
       d="m 111.19172,327.34743 c -1.95262,0 -3.72957,-0.71049 -5.07541,-2.3816 1.38112,0.83679 3.06317,1.37337 4.66054,1.37337 1.27918,0 2.49979,-0.34326 3.47345,-1.15041 -0.93486,1.23613 -1.92616,1.85737 -2.77988,2.15406 -0.0917,0.003 -0.18698,0.005 -0.2787,0.005"
       style="fill:#e7531f;fill-opacity:1;fill-rule:nonzero;stroke:none;stroke-width:0.0352778" />
    <path
       id="path653"
       d="m 103.97036,330.02325 c -7.1e-4,-7e-4 -0.001,-0.001 -0.002,-0.001 l -0.1277,-0.19932 v 0 0 l 0.12982,0.20073"
       style="fill:#f5ac7b;fill-opacity:1;fill-rule:nonzero;stroke:none;stroke-width:0.0352778" />
    <path
       id="path654"
       d="m 103.96824,330.02184 c -0.7941,-0.64452 -1.3716,-1.53634 -1.61784,-2.68887 1.30493,1.50389 3.58105,2.28 5.77815,2.28 0.10972,0 0.21978,-0.002 0.32914,-0.006 -1.21496,0.30092 -2.21756,0.38911 -2.97462,0.38911 -1.05974,0 -1.63795,-0.17251 -1.64253,-0.17392 v 0 l 0.1277,0.19932"
       style="fill:#e7531f;fill-opacity:1;fill-rule:nonzero;stroke:none;stroke-width:0.0352778" />
    <path
       id="path655"
       d="m 58.336434,336.66712 c -0.779638,0 -1.453091,-0.0843 -1.975202,-0.18415 3.341511,-0.0335 7.104239,-2.8007 9.22267,-5.23417 0.06209,0.0628 0.125236,0.12524 0.187325,0.18627 -0.04375,1.15923 -0.360892,2.16429 -0.904523,3.04341 -2.37243,1.74061 -4.733219,2.18864 -6.53027,2.18864"
       style="fill:#e7531f;fill-opacity:1;fill-rule:nonzero;stroke:none;stroke-width:0.0352778" />
    <path
       id="path656"
       d="m 71.165199,335.15476 c -1.374069,-0.61489 -3.381022,-1.74696 -5.393972,-3.71969 0.0049,-0.13476 0.0063,-0.27164 0.0039,-0.41063 -0.06209,0.0744 -0.125942,0.14922 -0.191205,0.22436 -3.12667,-3.14572 -6.219473,-8.34354 -6.928556,-16.80351 0,0 -0.658284,-9.75536 0.843139,-16.04327 0,0 -2.639131,-0.21167 -3.561292,-0.89042 0,0 1.718028,0.10654 4.413955,0.10654 7.625998,0 23.063555,-0.85301 29.467883,-7.38187 0,0 4.096103,9.91835 15.592779,9.91799 0.0614,0 0.12312,0 0.18521,-7e-4 l -4.34234,1.41393 c 0,0 2.89877,13.75269 0.56691,20.86328 -2.330097,7.10883 3.13937,9.13624 3.13937,9.13624 -1.48731,0.14429 -2.80141,0.20355 -3.95711,0.20355 -5.262033,0 -7.235472,-1.22731 -7.235472,-1.22731 l -18.834806,2.67723 v 0 c -1.130653,0.83749 -2.445103,1.46226 -3.768373,1.93428"
       style="fill:#e3431f;fill-opacity:1;fill-rule:nonzero;stroke:none;stroke-width:0.0352778" />
    <path
       id="path657"
       d="m 65.771227,331.43507 c -0.06209,-0.061 -0.125237,-0.12347 -0.187325,-0.18627 0.06526,-0.0751 0.129116,-0.14993 0.191205,-0.22436 0.0025,0.13899 0.0011,0.27587 -0.0039,0.41063"
       style="fill:#da3322;fill-opacity:1;fill-rule:nonzero;stroke:none;stroke-width:0.0352778" />
    <path
       id="path658"
       d="m 61.046474,314.59734 c 0,0 -2.023887,-0.91158 -4.142317,0.88794 -2.119842,1.80093 -0.898878,7.31943 6.409619,6.81531 l -2.267302,-7.70325"
       style="fill:#eabd92;fill-opacity:1;fill-rule:nonzero;stroke:none;stroke-width:0.0352778" />
    <path
       id="path659"
       d="m 100.09721,310.97078 c 0,0 2.43629,-1.905 5.45148,0.54328 3.01731,2.45216 -0.15628,7.1501 -4.37939,7.07284 l -1.07209,-7.61612"
       style="fill:#eabd92;fill-opacity:1;fill-rule:nonzero;stroke:none;stroke-width:0.0352778" />
    <path
       id="path660"
       d="m 57.666509,318.13182 c 0,0 1.799873,-1.37619 3.554237,0.82691 0,0 -1.884186,-0.79728 -3.554237,-0.82691"
       style="fill:#b88459;fill-opacity:1;fill-rule:nonzero;stroke:none;stroke-width:0.0352778" />
    <path
       id="path661"
       d="m 101.2769,315.91249 c 0,0 0.74401,-2.96933 3.09986,-2.59609 0,0 -1.98155,0.37747 -3.09986,2.59609"
       style="fill:#b88459;fill-opacity:1;fill-rule:nonzero;stroke:none;stroke-width:0.0352778" />
    <path
       id="path662"
       d="m 61.073637,298.16248 c 0,0 -4.77908,13.91567 2.295878,27.37767 0,0 6.213476,10.94035 20.24486,9.33027 0,0 15.06467,-2.1276 17.554925,-16.28352 0,0 0.7546,-10.33533 -1.49648,-17.82339 0,0 -7.515225,-1.96462 -9.968795,-8.03099 0,0 -8.837084,8.09378 -28.630388,5.42996"
       style="fill:#f1cead;fill-opacity:1;fill-rule:nonzero;stroke:none;stroke-width:0.0352778" />
    <path
       id="path663"
       d="m 73.156983,313.4554 c 0.08149,1.31445 -0.323145,2.41053 -0.898525,2.44334 -0.577145,0.037 -1.10737,-1.00225 -1.188862,-2.31811 -0.07867,-1.31621 0.324203,-2.41017 0.901348,-2.44439 0.577144,-0.0356 1.107369,1.0033 1.186039,2.31916"
       style="fill:#371712;fill-opacity:1;fill-rule:nonzero;stroke:none;stroke-width:0.0352778" />
    <path
       id="path664"
       d="m 71.904269,312.52794 c -0.0092,0.399 -0.158045,0.72073 -0.33267,0.71826 -0.176036,-0.006 -0.309386,-0.33267 -0.301625,-0.73025 0.0088,-0.40076 0.158045,-0.72143 0.334081,-0.7179 0.174272,0.005 0.309033,0.33231 0.300214,0.72989"
       style="fill:#ffffff;fill-opacity:1;fill-rule:nonzero;stroke:none;stroke-width:0.0352778" />
    <path
       id="path665"
       d="m 89.640525,311.61002 c 0.153106,1.3081 -0.185208,2.4264 -0.758472,2.49272 -0.573264,0.0684 -1.163108,-0.93838 -1.319389,-2.24648 -0.153105,-1.31057 0.18662,-2.42641 0.760589,-2.49203 0.571147,-0.0681 1.162403,0.93698 1.317272,2.24579"
       style="fill:#371712;fill-opacity:1;fill-rule:nonzero;stroke:none;stroke-width:0.0352778" />
    <path
       id="path666"
       d="m 88.334895,310.75771 c 0.01376,0.40005 -0.118534,0.72883 -0.2921,0.73518 -0.174273,0.005 -0.325967,-0.31326 -0.341842,-0.71261 -0.01446,-0.39899 0.116417,-0.72813 0.292806,-0.73377 0.174272,-0.006 0.327377,0.3122 0.341136,0.7112"
       style="fill:#ffffff;fill-opacity:1;fill-rule:nonzero;stroke:none;stroke-width:0.0352778" />
    <path
       id="path667"
       d="m 70.571827,305.20675 c -1.244247,0.11147 -1.70427,1.06256 -1.972381,2.147 -0.01411,0.0572 0.06138,0.0476 0.08149,0.009 0.164747,-0.32738 0.26423,-0.66886 0.474486,-0.97755 0.395464,-0.58243 1.076678,-0.65405 1.689453,-0.48436 0.433917,0.11853 0.803981,0.32456 1.156406,0.59902 0.345369,0.26846 0.496005,0.73236 0.772936,1.07209 0.09596,0.11818 0.230364,-0.0452 0.2032,-0.14923 -0.235303,-1.01106 -1.20262,-2.32551 -2.405592,-2.21579"
       style="fill:#371712;fill-opacity:1;fill-rule:nonzero;stroke:none;stroke-width:0.0352778" />
    <path
       id="path668"
       d="m 86.659906,301.75094 c 1.233311,-0.20391 1.916289,0.6043 2.446867,1.58608 0.02893,0.0526 -0.04833,0.0621 -0.07796,0.03 -0.242006,-0.27552 -0.42157,-0.58244 -0.702028,-0.83009 -0.52705,-0.46319 -1.2065,-0.3623 -1.759303,-0.0469 -0.38982,0.22472 -0.694972,0.51788 -0.968728,0.87101 -0.267405,0.34537 -0.296333,0.83291 -0.479425,1.2319 -0.06279,0.13653 -0.233539,0.0145 -0.237772,-0.096 -0.0194,-1.03752 0.586317,-2.55059 1.778353,-2.74602"
       style="fill:#371712;fill-opacity:1;fill-rule:nonzero;stroke:none;stroke-width:0.0352778" />
    <path
       id="path669"
       d="m 76.677705,326.3018 c 0,0 8.062031,1.63513 12.831234,-3.75144 0,0 0.381706,7.63235 -5.001683,8.65082 -5.684309,1.07421 -7.829551,-4.89938 -7.829551,-4.89938"
       style="fill:#f1435f;fill-opacity:1;fill-rule:nonzero;stroke:none;stroke-width:0.0352778" />
    <path
       id="path670"
       d="m 81.503353,331.09852 c 0.868186,0.24659 1.86443,0.3175 3.003903,0.10266 2.049991,-0.38876 3.262136,-1.73673 3.98145,-3.2579 -2.462036,-0.81104 -6.553906,0.73342 -6.985353,3.15524"
       style="fill:#ee2741;fill-opacity:1;fill-rule:nonzero;stroke:none;stroke-width:0.0352778" />
    <path
       id="path671"
       d="m 81.834258,329.04712 c 1.294342,-0.20744 2.611967,-0.58279 3.788128,-1.16946 1.341261,-0.66816 2.924175,-1.59456 3.194756,-3.22016 0.08431,-0.50764 0.115006,-1.01564 0.129469,-1.52259 -3.595864,3.49462 -8.665633,3.53625 -11.001023,3.33305 0.85337,1.45838 1.995664,2.87937 3.88867,2.57916"
       style="fill:#ffffff;fill-opacity:1;fill-rule:nonzero;stroke:none;stroke-width:0.0352778" />
    <path
       id="path672"
       d="m 89.430623,322.39549 c -0.124884,0.20003 -0.327378,0.3997 -0.527403,0.64735 -0.213431,0.25118 -0.504825,0.4893 -0.79622,0.76517 -0.322086,0.24519 -0.664986,0.51612 -1.071739,0.73907 -0.194028,0.12842 -0.405694,0.2346 -0.625475,0.3362 -0.221191,0.10231 -0.436739,0.22366 -0.673805,0.30903 -0.463903,0.20109 -0.962025,0.36125 -1.471084,0.50554 -0.513997,0.14005 -1.042458,0.2487 -1.577269,0.33901 -0.531989,0.0914 -1.067506,0.16228 -1.601259,0.2092 -0.530578,0.043 -1.056922,0.0691 -1.566333,0.0744 -0.50165,-0.005 -1.006828,0.005 -1.46685,-0.0265 -0.460375,-0.0519 -0.90805,-0.0437 -1.298575,-0.14817 -0.198967,-0.0385 -0.388056,-0.0762 -0.569737,-0.11183 -0.173919,-0.0579 -0.339372,-0.11183 -0.496005,-0.16298 -0.163689,-0.0409 -0.287514,-0.12488 -0.417336,-0.18521 -0.12947,-0.0617 -0.242711,-0.12594 -0.330553,-0.2039 -0.390525,-0.2727 -0.492831,-0.54752 -0.492831,-0.54752 0,0 0.01658,0.0674 0.07585,0.18274 0.06421,0.11324 0.165452,0.28117 0.355952,0.43639 0.08643,0.091 0.196145,0.16933 0.321734,0.24589 0.127353,0.0762 0.255411,0.1785 0.415219,0.23741 0.156634,0.0681 0.323497,0.1397 0.500239,0.21802 0.180975,0.0575 0.37712,0.10266 0.578556,0.1584 0.402519,0.13053 0.855486,0.14922 1.328561,0.23107 0.478367,0.061 0.967317,0.0882 1.494367,0.0963 0.521405,0.005 1.056922,-0.0109 1.601611,-0.0434 0.546805,-0.0377 1.096786,-0.0998 1.648883,-0.18344 1.096787,-0.19403 2.175228,-0.50588 3.133726,-0.93662 0.243063,-0.0974 0.470958,-0.21485 0.690386,-0.34255 0.222955,-0.11889 0.435327,-0.24271 0.629708,-0.38735 0.407811,-0.25894 0.749653,-0.56092 1.063625,-0.83609 0.293511,-0.29915 0.563034,-0.57467 0.756003,-0.85231 0.183092,-0.27869 0.366536,-0.49882 0.470606,-0.71437 l -0.08255,-0.049"
       style="fill:#b88459;fill-opacity:1;fill-rule:nonzero;stroke:none;stroke-width:0.0352778" />
    <path
       id="path673"
       d="m 88.452017,321.25778 c 0,0 0.0381,0.0469 0.107597,0.12947 0.05786,0.0847 0.169333,0.18768 0.284339,0.31539 0.115358,0.13017 0.263878,0.26035 0.412045,0.4071 0.174625,0.11712 0.312913,0.29387 0.510822,0.39194 0.179564,0.12594 0.361597,0.24906 0.555272,0.32561 0.09313,0.0441 0.183092,0.0928 0.268111,0.139 0.08396,0.0568 0.175684,0.0677 0.254706,0.10124 0.325966,0.11642 0.554214,0.22966 0.554214,0.22966 0,0 -0.235656,0.0381 -0.612775,0.0423 -0.09031,-0.004 -0.197556,0.0116 -0.300214,-0.0251 -0.104775,-0.0268 -0.216606,-0.0547 -0.327378,-0.0917 -0.108303,-0.043 -0.237067,-0.0582 -0.341842,-0.12595 l -0.325966,-0.1979 c -0.105834,-0.0688 -0.207787,-0.14253 -0.292806,-0.23531 -0.09137,-0.0847 -0.172156,-0.17744 -0.253294,-0.26282 -0.07867,-0.0871 -0.130881,-0.19226 -0.192264,-0.2801 -0.05927,-0.091 -0.109714,-0.17604 -0.140759,-0.26705 -0.154164,-0.34326 -0.159808,-0.59585 -0.159808,-0.59585"
       style="fill:#b88459;fill-opacity:1;fill-rule:nonzero;stroke:none;stroke-width:0.0352778" />
    <path
       id="path674"
       d="m 79.034966,318.38899 c -0.187325,-0.44026 -0.188736,-1.07667 0.312914,-1.33067 0.310797,-0.16087 0.606072,-0.15276 0.89535,-0.0825 -0.746478,-0.2794 -1.605844,-0.10689 -1.654175,0.89923 -0.04516,0.97684 1.006475,1.94804 1.995311,1.97838 -0.68333,-0.28046 -1.310569,-0.89253 -1.5494,-1.46439"
       style="fill:#b88459;fill-opacity:1;fill-rule:nonzero;stroke:none;stroke-width:0.0352778" />
    <path
       id="path675"
       d="m 71.694013,350.76694 c -1.582208,-3.44487 1.992136,-7.35894 1.992136,-7.35894 l 2.07645,1.20614 c -2.840919,0.97473 -4.068586,6.1528 -4.068586,6.1528"
       style="fill:#fce17a;fill-opacity:1;fill-rule:nonzero;stroke:none;stroke-width:0.0352778" />
  </g>
</svg>
