<?xml version="1.0" encoding="UTF-8" standalone="no"?>
<!-- Created with Inkscape (http://www.inkscape.org/) -->

<svg
   width="19.929371mm"
   height="45.200634mm"
   viewBox="0 0 19.929372 45.200639"
   version="1.1"
   id="svg1"
   inkscape:version="1.4.2 (f4327f4, 2025-05-13)"
   sodipodi:docname="girl10.svg"
   xmlns:inkscape="http://www.inkscape.org/namespaces/inkscape"
   xmlns:sodipodi="http://sodipodi.sourceforge.net/DTD/sodipodi-0.dtd"
   xmlns="http://www.w3.org/2000/svg"
   xmlns:svg="http://www.w3.org/2000/svg">
  <sodipodi:namedview
     id="namedview1"
     pagecolor="#ffffff"
     bordercolor="#000000"
     borderopacity="0.25"
     inkscape:showpageshadow="2"
     inkscape:pageopacity="0.0"
     inkscape:pagecheckerboard="0"
     inkscape:deskcolor="#d1d1d1"
     inkscape:document-units="mm"
     inkscape:zoom="1.2275954"
     inkscape:cx="160.47633"
     inkscape:cy="-131.1507"
     inkscape:window-width="2880"
     inkscape:window-height="1676"
     inkscape:window-x="-12"
     inkscape:window-y="-12"
     inkscape:window-maximized="1"
     inkscape:current-layer="layer1" />
  <defs
     id="defs1">
    <clipPath
       clipPathUnits="userSpaceOnUse"
       id="clipPath119">
      <path
         d="m 2429.58,8528.87 v 0 l -1.54,4.27 c 7.66,35.49 -15.79,67.53 -15.79,67.53 10.47,20.59 15.22,39.01 16.15,55.3 95.03,81.21 245.93,222.7 239.94,298.46 -6.68,84.06 -297.09,299.7 -435.14,397.71 -1.96,12.33 -3.87,24.38 -5.72,36.02 -4.67,29.42 -8.97,56.5 -12.82,80.63 v 0 c 0,0 399.66,-281.36 528.14,-436.13 0,0 44.89,-42.39 44.81,-102.96 0,-4.99 -0.32,-10.11 -0.98,-15.34 -8.76,-68.62 -357.05,-385.49 -357.05,-385.49"
         transform="translate(0,2.5000001e-4)"
         id="path119" />
    </clipPath>
    <clipPath
       clipPathUnits="userSpaceOnUse"
       id="clipPath299">
      <path
         d="m 6622.23,11070.3 c 4.28,3.8 8.4,7.9 12.38,12.2 -0.48,-0.6 -0.96,-1.2 -1.45,-1.8 -3.23,-3.4 -6.57,-6.6 -10.01,-9.8 -0.22,-0.1 -0.44,-0.3 -0.66,-0.4 l -0.26,-0.2"
         transform="translate(0,2.5000001e-4)"
         id="path299" />
    </clipPath>
    <clipPath
       clipPathUnits="userSpaceOnUse"
       id="clipPath602">
      <path
         d="m 4237.98,3522.14 c 0,0 0,0.01 0,0.02 0,-0.01 0,-0.01 0,-0.02 m 0.01,0.2 c 0,0.1 0.01,0.2 0.01,0.3 0,-0.1 -0.01,-0.2 -0.01,-0.3"
         transform="translate(0,2.5000001e-4)"
         id="path602" />
    </clipPath>
  </defs>
  <g
     inkscape:label="图层 1"
     inkscape:groupmode="layer"
     id="layer1"
     transform="translate(-61.912349,-372.79768)">
    <g
       id="g224"
       transform="matrix(0.26458333,0,0,0.26458333,-10.334827,299.95061)">
		<path
   style="fill:#5e4f44"
   d="m 311.099,275.33 c 0,0 -39.544,-1.138 -35.313,45.398 3.077,19.418 15.618,22.186 35.313,15.321 19.694,6.866 32.236,4.097 35.313,-15.321 4.231,-46.536 -35.313,-45.398 -35.313,-45.398 z"
   id="path191" />

		<path
   style="fill:#a27e4e"
   d="m 305.823,282.014 h 10.019 c 16.663,0 29.288,21.987 25.144,38.127 -2.453,9.557 -10.439,17.558 -30.304,17.558 -22.642,0 -29.66,-10.395 -30.628,-21.64 -1.284,-14.939 10.775,-34.045 25.769,-34.045 z"
   id="path192" />

		<rect
   x="306.67099"
   y="335.37"
   style="fill:#a27e4e"
   width="8.3999996"
   height="8.6520004"
   id="rect192" />

		<path
   style="fill:#a27e4e"
   d="m 295.903,356.724 c 0,-16.758 14.968,-17.273 14.968,-17.273 0,0 14.968,0.516 14.968,17.273 0,16.758 15.201,49.191 -14.968,49.191 -30.169,0 -14.968,-32.434 -14.968,-49.191 z"
   id="path193" />

		<polygon
   style="fill:#d2695c"
   points="328.597,393.66 324.634,439.463 320.532,440.367 311.72,400.397 "
   id="polygon193" />

		<polygon
   style="fill:#d2695c"
   points="310.871,394.983 297.139,438.858 292.939,438.858 292.073,390.608 "
   id="polygon194" />

		<path
   style="fill:#5e4f44"
   d="m 280.939,332.527 c 0,0 -9.944,5.162 -7.489,12.432 2.455,5.22 5.625,1.71 5.625,1.71 0,0 0.043,5.191 5.22,5.187 5.177,-0.003 5.033,-5.966 5.033,-5.966 0,0 4.288,1.491 7.27,-2.237 2.983,-3.729 -3.728,-8.798 -3.728,-8.798"
   id="path194" />

		<path
   style="fill:#5e4f44"
   d="m 340.505,332.527 c 0,0 9.944,5.162 7.489,12.432 -2.455,5.22 -5.625,1.71 -5.625,1.71 0,0 -0.043,5.191 -5.22,5.187 -5.177,-0.003 -5.033,-5.966 -5.033,-5.966 0,0 -4.288,1.491 -7.27,-2.237 -2.983,-3.729 3.728,-8.798 3.728,-8.798"
   id="path195" />

		<path
   style="fill:#5e4f44"
   d="m 292.54,281.95 c 0,0 15.622,25.102 51.694,17.798 -6.309,-11.078 -16.688,-25.426 -51.694,-17.798 z"
   id="path196" />

		<g
   id="g205">
			<g
   id="g197">
				<circle
   style="fill:#ffffff"
   cx="299.03299"
   cy="312.39499"
   r="3.4489999"
   id="circle196" />

				<path
   style="fill:#5e4f44"
   d="m 296.629,312.395 c 0,1.328 1.076,2.404 2.404,2.404 1.328,0 2.404,-1.076 2.404,-2.404 0,-1.328 -1.076,-2.404 -2.404,-2.404 -1.328,0 -2.404,1.077 -2.404,2.404 z"
   id="path197" />

			</g>

			<g
   id="g198">
				<circle
   style="fill:#ffffff"
   cx="324.638"
   cy="312.39499"
   r="3.4489999"
   id="circle197" />

				<path
   style="fill:#5e4f44"
   d="m 322.234,312.395 c 0,1.328 1.076,2.404 2.404,2.404 1.328,0 2.404,-1.076 2.404,-2.404 0,-1.328 -1.076,-2.404 -2.404,-2.404 -1.328,0 -2.404,1.077 -2.404,2.404 z"
   id="path198" />

			</g>

			<path
   style="fill:#a27e4e"
   d="m 287.494,317.359 c 0,3.233 -2.621,5.853 -5.853,5.853 -3.233,0 -5.853,-2.621 -5.853,-5.853 0,-3.233 2.621,-5.853 5.853,-5.853 3.233,0 5.853,2.62 5.853,5.853 z"
   id="path199" />

			<path
   style="fill:#85603c"
   d="m 308.727,317.359 h 5.554 c 0,0 -0.289,-2.56 -2.777,-2.56 -2.488,0 -2.777,2.56 -2.777,2.56 z"
   id="path200" />

			<path
   style="fill:none;stroke:#5e4f44;stroke-width:0.9942;stroke-miterlimit:10"
   d="m 295.584,306.759 c 0,0 2.086,-2.197 6.899,-2.197"
   id="path201" />

			<path
   style="fill:none;stroke:#5e4f44;stroke-width:0.9942;stroke-miterlimit:10"
   d="m 328.087,306.759 c 0,0 -2.086,-2.197 -6.899,-2.197"
   id="path202" />

			<path
   style="fill:#85603c"
   d="m 284.218,317.359 c 0,1.423 -1.154,2.577 -2.577,2.577 -1.424,0 -2.577,-1.154 -2.577,-2.577 0,-1.423 1.154,-2.577 2.577,-2.577 1.423,0 2.577,1.154 2.577,2.577 z"
   id="path203" />

			<circle
   style="fill:#a27e4e"
   cx="342.284"
   cy="317.35901"
   r="5.8530002"
   id="circle203" />

			<path
   style="fill:#85603c"
   d="m 344.861,317.359 c 0,1.423 -1.154,2.577 -2.577,2.577 -1.423,0 -2.577,-1.154 -2.577,-2.577 0,-1.423 1.154,-2.577 2.577,-2.577 1.423,0 2.577,1.154 2.577,2.577 z"
   id="path204" />

			<circle
   style="fill:#c88b80"
   cx="293.57401"
   cy="316.38"
   r="1.901"
   id="circle204" />

			<circle
   style="fill:#c88b80"
   cx="329.435"
   cy="316.38"
   r="1.9"
   id="circle205" />

		</g>

		<path
   style="fill:#a27e4e"
   d="m 305.972,348.915 c -21.01,15.117 -18.304,33.285 -18.304,33.285 h -2.477 c 0,0 -5.259,-12.891 3.175,-27.002 8.433,-14.111 18.305,-14.552 18.305,-14.552 0,0 -0.044,2.418 4.428,2.418 4.472,0 3.972,-2.418 3.972,-2.418 0,0 9.872,0.441 18.305,14.552 8.433,14.111 3.175,27.002 3.175,27.002 h -2.477 c 0,0 2.706,-18.168 -18.304,-33.285"
   id="path205" />

		<path
   style="fill:#c3e1fd"
   d="m 301.563,342.187 c 0,0 1.329,-0.968 3.828,-1.342 2.084,6.476 5.707,6.839 5.707,6.839 0,0 3.972,-0.934 5.252,-6.839 0,0 2.899,0.684 4.556,1.706 1.255,2.901 -1.048,12.149 -9.808,12.149 -8.76,0 -10.517,-6.957 -9.535,-12.513 z"
   id="path206" />

		<polygon
   style="fill:#c3e1fd"
   points="326.242,360.961 322.634,343.598 334.173,351.06 "
   id="polygon206" />

		<polygon
   style="fill:#d2e7fd"
   points="333.1,350.366 325.853,359.088 326.242,360.961 334.877,351.197 "
   id="polygon207" />

		<polygon
   style="fill:#c3e1fd"
   points="295.426,360.961 299.033,343.598 287.494,351.06 "
   id="polygon208" />

		<path
   style="fill:#d2e7fd"
   d="m 305.566,340.72 c 0,0 -3.205,-0.192 -3.437,2.247 -0.233,2.439 2.994,7.978 9.012,4.717 -4.111,-2.222 -5.575,-6.964 -5.575,-6.964 z"
   id="path208" />

		<path
   style="fill:#d2e7fd"
   d="m 316.167,340.716 c 0,0 3.213,-0.188 3.446,2.251 0.233,2.439 -2.994,7.978 -9.012,4.717 4.111,-2.222 5.566,-6.968 5.566,-6.968 z"
   id="path209" />

		<polygon
   style="fill:#d2e7fd"
   points="288.568,350.366 295.815,359.088 295.426,360.961 286.79,351.197 "
   id="polygon209" />

		<path
   style="fill:#33527b"
   d="m 328.687,377.566 c -2.385,0.268 -7.598,0.67 -17.415,0.67 -11.719,0 -17.426,-0.572 -19.268,-0.806 l -5.991,28.836 c 0,0 5.881,2.483 22.188,2.483 16.307,0 24.46,-2.483 24.46,-2.483 z"
   id="path210" />

		<g
   id="g212">
			<path
   style="fill:#885546"
   d="m 316.208,318.788 c -0.395,1.104 -1.516,2.778 -4.703,2.778 -3.152,0 -4.245,-1.636 -4.626,-2.74 -1.923,-1.003 -3.385,0.012 -2.198,1.639 1.193,1.634 4.091,2.172 6.791,2.181 v 0.002 c 0.011,0 0.022,-0.001 0.033,-0.001 0.011,0 0.022,0.001 0.033,0.001 v -0.002 c 2.699,-0.009 5.598,-0.546 6.791,-2.181 1.171,-1.605 -0.237,-2.613 -2.121,-1.677 z"
   id="path211" />

			<path
   style="fill:#ffffff"
   d="m 311.504,321.566 c 3.188,0 4.309,-1.674 4.703,-2.778 -0.05,0.025 -0.1,0.046 -0.151,0.073 -1.459,0.796 -3.5,0.927 -4.448,0.943 -0.628,0.009 -2.974,-0.024 -4.658,-0.943 -0.025,-0.014 -0.049,-0.023 -0.073,-0.036 0.382,1.105 1.475,2.741 4.627,2.741 z"
   id="path212" />

		</g>

		<path
   style="fill:#a27e4e"
   d="m 337.259,378.663 c -1.499,-0.771 -3.361,-0.47 -4.584,0.689 -0.435,0.413 -0.876,0.968 -1.275,1.716 -1.559,2.924 -0.977,2.978 -0.555,3.108 0.423,0.13 1.26,-0.476 2.045,-2.447 -1.145,5.177 -1.359,6.118 -0.393,6.356 0.981,0.242 1.993,-4.417 1.993,-4.417 0,0 -0.573,4.825 -0.003,5.281 0.57,0.456 1.314,-0.175 1.437,-1.793 0.123,-1.618 0.311,-3.103 0.311,-3.103 0,0 -0.139,4.113 0.487,4.475 0.548,0.316 1.246,0.037 1.158,-2.282 -0.049,-1.285 -0.112,-2.264 -0.112,-2.264 0,0 0.292,2.732 0.943,2.687 0.632,-0.044 0.868,-1.211 0.469,-4.39 -0.075,-0.596 -0.201,-1.19 -0.412,-1.752 -0.336,-0.895 -0.78,-1.489 -1.509,-1.864 z"
   id="path213" />

		<path
   style="fill:#a27e4e"
   d="m 284.409,378.663 c 1.498,-0.771 3.361,-0.47 4.584,0.689 0.435,0.413 0.877,0.968 1.276,1.716 1.559,2.924 0.977,2.978 0.555,3.108 -0.423,0.13 -1.26,-0.476 -2.045,-2.447 1.145,5.177 1.359,6.118 0.393,6.356 -0.981,0.242 -1.993,-4.417 -1.993,-4.417 0,0 0.573,4.825 0.003,5.281 -0.57,0.456 -1.314,-0.175 -1.437,-1.793 -0.123,-1.618 -0.311,-3.103 -0.311,-3.103 0,0 0.139,4.113 -0.487,4.475 -0.548,0.316 -1.246,0.037 -1.158,-2.282 0.049,-1.285 0.112,-2.264 0.112,-2.264 0,0 -0.292,2.732 -0.943,2.687 -0.632,-0.044 -0.868,-1.211 -0.469,-4.39 0.075,-0.596 0.201,-1.19 0.412,-1.752 0.334,-0.895 0.778,-1.489 1.508,-1.864 z"
   id="path214" />

		<path
   style="fill:#456b92"
   d="m 324.118,344.572 c -1.299,-1.158 -3.211,-2.021 -3.211,-2.021 l -0.227,2.299 c -0.479,4.86 -4.566,8.564 -9.449,8.564 -4.943,0 -9.059,-3.793 -9.463,-8.72 l -0.205,-2.507 c -1.718,0.961 -2.53,1.411 -2.53,1.411 l -7.029,33.832 c 1.842,0.233 7.549,0.806 19.268,0.806 9.816,0 15.03,-0.402 17.415,-0.67 z"
   id="path215" />

		
			<line
   style="fill:none;stroke:#33527b;stroke-width:0.8373;stroke-miterlimit:10"
   x1="310.871"
   y1="353.405"
   x2="310.871"
   y2="360.659"
   id="line215" />

		<path
   style="fill:#33527b"
   d="m 314.19,354.546 c 0,-0.571 -0.463,-1.033 -1.033,-1.033 -0.571,0 -1.033,0.463 -1.033,1.033 0,0.571 0.463,1.033 1.033,1.033 0.57,10e-4 1.033,-0.462 1.033,-1.033 z"
   id="path216" />

		<path
   style="fill:#33527b"
   d="m 314.19,358.622 c 0,-0.571 -0.463,-1.033 -1.033,-1.033 -0.571,0 -1.033,0.463 -1.033,1.033 0,0.571 0.463,1.033 1.033,1.033 0.57,0 1.033,-0.463 1.033,-1.033 z"
   id="path217" />

		<g
   id="g219">
			<path
   style="fill:none"
   d="m 299.033,343.598 c 0,0 0.812,-0.451 2.53,-1.411 z"
   id="path218" />

			<path
   style="fill:#456b92"
   d="m 299.033,343.598 2.53,-1.411 c -1.36,0.58 -2.53,1.411 -2.53,1.411 z"
   id="path219" />

		</g>

		<g
   id="g223">
			<path
   style="fill:#5e4f44"
   d="m 291.918,437.602 c 1.014,0.469 2.914,1.524 1.547,2.322 -1.13,0.659 -2.495,-0.356 -3.361,-1.213 -2.228,1.489 -4.941,3.843 -4.763,6.417 0.3,4.322 11.798,-6.269 11.798,-6.269 l 0.556,-1.775 h -4.788 c 0,-10e-4 -0.395,0.189 -0.989,0.518 z"
   id="path220" />

			<path
   style="fill:#5e4f44"
   d="m 333.527,444.51 c -0.36,-2.419 -3.22,-4.091 -5.643,-5.089 -1.088,0.811 -3.124,2.123 -3.936,1.256 -0.637,-0.679 0.394,-1.526 1.418,-2.136 -0.583,-0.17 -0.959,-0.258 -0.959,-0.258 l -4.05,0.893 0.3,1.752 c -10e-4,0 13.507,7.867 12.87,3.582 z"
   id="path221" />

			<path
   style="fill:#d2695c"
   d="m 293.465,439.923 c 1.367,-0.797 -0.533,-1.852 -1.547,-2.322 -0.495,0.274 -1.127,0.649 -1.815,1.109 0.867,0.857 2.232,1.872 3.362,1.213 z"
   id="path222" />

			<path
   style="fill:#d2695c"
   d="m 323.947,440.678 c 0.812,0.866 2.849,-0.445 3.936,-1.256 -0.98,-0.403 -1.876,-0.692 -2.518,-0.88 -1.024,0.61 -2.055,1.457 -1.418,2.136 z"
   id="path223" />

		</g>

	</g>
  </g>
</svg>
