<?xml version="1.0" encoding="UTF-8" standalone="no"?>
<!-- Created with Inkscape (http://www.inkscape.org/) -->

<svg
   width="34.391441mm"
   height="56.086903mm"
   viewBox="0 0 34.391441 56.086903"
   version="1.1"
   id="svg1"
   inkscape:version="1.4.2 (f4327f4, 2025-05-13)"
   sodipodi:docname="girl2.svg"
   xmlns:inkscape="http://www.inkscape.org/namespaces/inkscape"
   xmlns:sodipodi="http://sodipodi.sourceforge.net/DTD/sodipodi-0.dtd"
   xmlns="http://www.w3.org/2000/svg"
   xmlns:svg="http://www.w3.org/2000/svg">
  <sodipodi:namedview
     id="namedview1"
     pagecolor="#ffffff"
     bordercolor="#000000"
     borderopacity="0.25"
     inkscape:showpageshadow="2"
     inkscape:pageopacity="0.0"
     inkscape:pagecheckerboard="0"
     inkscape:deskcolor="#d1d1d1"
     inkscape:document-units="mm"
     inkscape:zoom="1.2275954"
     inkscape:cx="168.62233"
     inkscape:cy="-44.803035"
     inkscape:window-width="2880"
     inkscape:window-height="1676"
     inkscape:window-x="-12"
     inkscape:window-y="-12"
     inkscape:window-maximized="1"
     inkscape:current-layer="layer1" />
  <defs
     id="defs1" />
  <g
     inkscape:label="图层 1"
     inkscape:groupmode="layer"
     id="layer1"
     transform="translate(-60.325,-160.33751)">
    <g
       id="g51"
       transform="matrix(0.26458333,0,0,0.26458333,50.09922,95.799017)">
		<path
   style="fill:#ffd79f"
   d="m 100.175,435.005 c -1.042,0 -2.104,-0.008 -3.174,-0.02 l 1.667,10.636 c 0.958,-0.098 2.235,-0.156 3.967,-0.156 1.333,0 2.545,0.035 3.321,0.06 0.299,-3.354 0.638,-7.338 0.891,-10.616 -2.229,0.071 -4.531,0.096 -6.672,0.096 z"
   id="path6" />

		<path
   style="fill:#f29e66"
   d="m 106.748,447.121 c -0.083,0 -0.279,-0.006 -0.564,-0.015 -0.731,-0.024 -2.081,-0.068 -3.549,-0.068 -4.3,0 -5.318,0.386 -5.522,0.499 -0.499,1.134 -0.868,4.733 -0.18,6.018 0.467,0.281 2.966,0.776 9.462,0.776 4.514,0 9.05,-0.269 10.11,-0.601 0.046,-0.014 0.189,-0.059 0.12,-0.515 -0.317,-2.069 -4.088,-6.094 -9.877,-6.094 z"
   id="path7" />

		<path
   style="fill:#ffd79f"
   d="m 78.018,434.158 c -0.355,-0.029 -0.7,-0.059 -1.035,-0.088 0.258,3.419 0.632,7.815 0.958,11.461 0.784,-0.025 2.02,-0.061 3.35,-0.061 1.717,0 2.985,0.058 3.937,0.155 l 1.709,-10.922 c -3.156,-0.14 -6.2,-0.323 -8.919,-0.545 z"
   id="path8" />

		<path
   style="fill:#f29e66"
   d="m 81.292,447.043 c -1.486,0 -2.855,0.045 -3.588,0.07 -0.283,0.009 -0.475,0.015 -0.552,0.015 -5.788,0.001 -9.56,4.027 -9.876,6.096 -0.07,0.457 0.073,0.502 0.12,0.516 1.055,0.33 5.571,0.597 10.068,0.597 6.526,0 9.036,-0.497 9.504,-0.779 0.688,-1.286 0.316,-4.885 -0.183,-6.018 -0.203,-0.112 -1.217,-0.497 -5.493,-0.497 z"
   id="path9" />

		<path
   style="fill:#ffd79f"
   d="m 92.479,368.642 c 6.086,-0.348 8.816,-6.053 10.022,-10.454 -3.211,0.552 -6.156,0.733 -8.61,0.733 -3.544,0 -7.093,-0.358 -10.572,-1.037 0.499,2.98 1.534,6.517 3.687,8.707 1.481,1.506 3.261,2.179 5.473,2.051 z"
   id="path10" />

		<path
   style="fill:#ffd79f"
   d="m 124.286,376.569 c -2.366,1.525 -5.427,2.634 -8.01,3.38 0.873,1.862 1.841,3.772 2.797,5.654 3.261,6.419 6.077,11.964 4.566,14.554 -1.051,1.802 -1.396,3.704 -0.945,5.216 0.237,0.793 0.686,1.405 1.234,1.678 h 0.001 c 0.58,0 1.896,-1.904 2.458,-2.718 0.948,-1.371 1.47,-2.127 2.217,-2.127 0.381,0 0.718,0.219 0.901,0.586 0.728,1.456 -0.235,3.361 -1.692,6.245 l -0.46,0.914 c -0.213,0.427 -0.426,0.829 -0.627,1.208 -0.49,0.926 -1.16,2.194 -0.989,2.509 0.006,0.011 0.16,0.271 1.29,0.374 2.952,0.272 7.443,-4.981 7.443,-9.67 0,-2.89 -1.127,-4.453 -2.319,-6.106 -0.851,-1.18 -1.73,-2.4 -2.258,-4.115 -1.455,-4.733 -3.825,-12.092 -5.607,-17.582 z"
   id="path11" />

		<path
   style="fill:#f29e66"
   d="m 110.962,355.914 c 0.793,3.538 1.884,9.579 3.416,19.967 0.081,0.551 0.224,1.53 0.411,2.84 3.824,-1.014 9.297,-2.908 11.182,-5.793 0.59,-0.904 0.759,-1.819 0.514,-2.798 -1.066,-4.266 -8.159,-10.633 -13.594,-14.997 -0.645,0.278 -1.288,0.541 -1.929,0.781 z"
   id="path12" />

		<path
   style="fill:#ffd79f"
   d="m 59.861,376.569 c -1.781,5.491 -4.152,12.85 -5.608,17.583 -0.528,1.715 -1.407,2.935 -2.258,4.115 -1.192,1.653 -2.319,3.216 -2.319,6.106 0,4.581 4.316,9.679 7.241,9.679 0.068,0 0.135,-0.003 0.203,-0.009 1.131,-0.102 1.284,-0.363 1.291,-0.374 0.171,-0.315 -0.5,-1.583 -0.989,-2.509 -0.201,-0.379 -0.414,-0.781 -0.627,-1.208 l -0.46,-0.914 c -1.457,-2.884 -2.42,-4.789 -1.692,-6.245 0.183,-0.367 0.52,-0.586 0.901,-0.586 0.748,0 1.269,0.756 2.217,2.127 0.562,0.814 1.88,2.721 2.446,2.722 0.561,-0.277 1.011,-0.889 1.247,-1.682 0.451,-1.512 0.105,-3.413 -0.945,-5.217 -1.512,-2.59 1.305,-8.134 4.566,-14.554 0.956,-1.882 1.924,-3.793 2.797,-5.654 -2.584,-0.746 -5.644,-1.855 -8.011,-3.38 z"
   id="path13" />

		<path
   style="fill:#f29e66"
   d="m 71.694,379.287 c 1.248,-10.001 2.382,-18.879 3.014,-23.808 -0.878,-0.32 -1.745,-0.66 -2.603,-1.022 -5.515,4.359 -13.321,11.183 -14.443,15.673 -0.245,0.979 -0.076,1.894 0.514,2.798 2.327,3.56 10.11,5.612 13.518,6.359 z"
   id="path14" />

		<path
   style="fill:#ea5954"
   d="m 117.309,432.098 c 2.912,-2.941 -4.446,-59.373 -7.827,-75.66 -1.802,0.604 -3.573,1.073 -5.283,1.429 -1.22,4.896 -4.251,11.923 -11.63,12.345 -2.684,0.151 -4.897,-0.701 -6.687,-2.521 -2.6,-2.646 -3.731,-6.847 -4.223,-10.164 -1.838,-0.416 -3.654,-0.916 -5.435,-1.509 -3.823,29.778 -8.951,71.423 -8.769,74.905 1.734,1.152 16.403,2.509 32.72,2.509 11.102,0 16.13,-0.689 17.134,-1.334 z"
   id="path15" />

		<path
   style="fill:#f58831"
   d="m 134.566,334.446 c -0.053,0.101 -0.098,0.201 -0.152,0.302 -2.548,4.789 -5.504,8.642 -8.667,11.75 4.983,0.792 8.563,1.561 10.215,1.94 -0.11,-2.153 -0.456,-7.5 -1.396,-13.992 z"
   id="path16" />

		<path
   style="fill:#f58831"
   d="m 56.522,344.375 c -1.245,-1.192 -2.379,-2.509 -3.41,-3.92 -0.304,3.566 0.031,7.095 1.154,10.336 1.187,-0.417 3.728,-1.264 7.321,-2.223 -1.793,-1.296 -3.494,-2.689 -5.065,-4.193 z"
   id="path17" />

		<path
   style="fill:#fcb531"
   d="m 149.937,267.115 c -5.628,-10.45 -17.041,-21.616 -32.202,-21.616 -2.362,0 -4.788,0.27 -7.212,0.799 -6.407,1.402 -10.648,4.027 -12.605,7.802 -1.553,2.997 -1.306,6.11 -0.903,8.021 1.516,-1.468 3.516,-2.981 6.056,-4.093 1.175,-0.513 2.554,-0.774 4.1,-0.774 6.909,0 15.644,5.185 17.749,7.992 1.222,1.63 1.227,4.587 0.852,7.396 4.046,2.775 7.608,6.122 10.6,9.981 0.487,0.086 0.972,0.174 1.466,0.252 5.145,0.806 9.813,1.215 13.875,1.215 8.851,0 12.899,-1.938 14.528,-3.1 -3.245,-0.965 -11.096,-4.202 -16.304,-13.875 z"
   id="path18" />

		<path
   style="fill:#ea5954"
   d="m 107.172,258.826 c -1.328,0 -2.496,0.216 -3.47,0.643 -2.362,1.033 -4.22,2.459 -5.629,3.836 3.904,0.361 7.806,1.047 11.662,2.061 5.318,1.399 10.198,3.535 14.565,6.302 0.245,-2.267 0.174,-4.396 -0.637,-5.479 -1.89,-2.52 -10.154,-7.363 -16.491,-7.363 z"
   id="path19" />

		<path
   style="fill:#ffd79f"
   d="m 133.026,334.009 c 0.398,-0.749 0.769,-1.496 1.125,-2.243 -1.475,-9.012 -4.087,-19.531 -8.692,-26.632 0.339,3.385 0.556,8.551 -0.936,10.641 -0.225,0.315 -0.649,0.42 -0.991,0.247 -0.556,-0.279 -12.957,-6.61 -14.262,-18.02 -3.18,3.47 -11.784,12.112 -20.826,14.791 -0.277,0.084 -0.577,0.006 -0.78,-0.199 -0.204,-0.205 -0.279,-0.504 -0.197,-0.781 0.082,-0.271 1.65,-5.476 3.336,-9.442 -4.051,2.623 -12.647,7.923 -20.731,11.216 -7.821,3.187 -14.928,13.731 -16.659,24.5 1.221,1.886 2.609,3.631 4.198,5.153 9.223,8.835 22.786,14.109 36.281,14.109 9.977,-10e-4 28.33,-3.033 39.134,-23.34 z m -18.303,-10.857 c 0,2.413 -1.956,4.37 -4.369,4.37 -2.413,0 -4.37,-1.957 -4.37,-4.37 0,-2.413 1.956,-4.37 4.37,-4.37 2.414,0 4.369,1.957 4.369,4.37 z m -18.192,7.212 c -0.128,-0.304 -0.405,-0.584 -0.733,-0.656 -0.485,-0.107 -0.887,0.185 -1.35,0.247 -0.271,0.036 -0.393,-0.307 -0.29,-0.506 0.338,-0.653 1.337,-0.898 2.007,-0.718 0.66,0.177 1.186,0.652 1.472,1.269 0.651,1.406 -0.246,3.422 -1.965,3.314 -0.545,-0.034 -0.749,-0.72 -0.277,-1.023 0.413,-0.265 0.954,-0.433 1.17,-0.913 0.142,-0.316 0.097,-0.702 -0.034,-1.014 z m -4.21,10.893 c 1.446,0.669 2.963,1.143 4.545,0.596 1.149,-0.397 2.031,-1.11 3.088,-1.671 0.531,-0.282 1.026,0.376 0.63,0.817 -2.211,2.465 -6.083,2.797 -8.611,0.709 -0.268,-0.223 0.074,-0.578 0.348,-0.451 z M 76.096,318.783 c 2.413,0 4.37,1.956 4.37,4.37 0,2.413 -1.956,4.37 -4.37,4.37 -2.413,0 -4.37,-1.957 -4.37,-4.37 0.001,-2.414 1.957,-4.37 4.37,-4.37 z"
   id="path20" />

		<path
   style="fill:#fcb531"
   d="m 109.336,266.888 c -5.828,-1.534 -11.763,-2.311 -17.64,-2.311 -27.148,0 -47.033,15.619 -50.659,39.79 -3.756,25.044 6.42,39.52 11.068,44.665 -3.432,-14.393 6.135,-32.324 17.372,-36.902 10.859,-4.424 22.688,-12.545 22.806,-12.626 0.301,-0.207 0.705,-0.18 0.975,0.065 0.27,0.246 0.337,0.645 0.159,0.965 -1.471,2.646 -3.187,7.764 -3.988,10.274 10.196,-3.781 19.815,-15.142 19.915,-15.261 0.211,-0.253 0.56,-0.346 0.872,-0.234 0.31,0.114 0.517,0.409 0.517,0.739 0,10.153 10.108,16.634 12.833,18.197 1.076,-2.715 0.356,-9.382 -0.049,-11.924 -0.056,-0.35 0.129,-0.695 0.453,-0.841 0.323,-0.146 0.703,-0.059 0.931,0.217 9.597,11.652 11.976,36.069 12.527,44.679 9.045,-19.11 10.279,-37.919 3.429,-53.24 -5.869,-13.124 -17.062,-22.447 -31.521,-26.252 z"
   id="path21" />

		<circle
   style="fill:#ffffff"
   cx="109.305"
   cy="321.754"
   r="1.748"
   id="circle21" />

		<path
   style="fill:#ffffff"
   d="m 75.048,323.502 c 0.965,0 1.748,-0.783 1.748,-1.748 0,-0.965 -0.783,-1.748 -1.748,-1.748 -0.965,0 -1.748,0.782 -1.748,1.748 0,0.965 0.782,1.748 1.748,1.748 z"
   id="path22" />

		<path
   style="fill:#f16559"
   d="m 117.63,328.154 c -0.834,-1.016 -2.199,0.025 -2.872,0.659 -0.444,0.418 -0.876,0.895 -1.236,1.387 -0.29,0.397 -0.748,0.833 -0.84,1.327 -0.076,0.406 0.191,0.961 0.687,0.902 0.904,-0.107 1.633,-1.015 2.266,-1.611 0.351,-0.331 0.711,-0.632 1.131,-0.871 0.383,-0.217 0.746,-0.398 0.996,-0.78 0.218,-0.335 0.1,-0.73 -0.132,-1.013 z"
   id="path23" />

		<path
   style="fill:#f16559"
   d="m 120.555,329.774 c -1,-0.996 -2.29,0.131 -3.069,0.83 -1.073,0.963 -2.03,2.093 -2.829,3.291 -0.284,0.425 0.3,1.058 0.729,0.729 0.845,-0.65 1.641,-1.358 2.455,-2.048 0.628,-0.532 1.659,-1.386 2.374,-1.514 0.585,-0.106 0.722,-0.907 0.34,-1.288 z"
   id="path24" />

		<path
   style="fill:#f16559"
   d="m 120.691,332.412 c -1.235,0.199 -2.148,1.206 -3.048,2.006 -0.738,0.656 0.255,1.966 1.062,1.377 0.989,-0.722 2.091,-1.298 2.809,-2.311 0.413,-0.584 -0.265,-1.162 -0.823,-1.072 z"
   id="path25" />

		<path
   style="fill:#f16559"
   d="m 68.938,328.056 c -0.693,0.143 -1.222,0.797 -1.642,1.324 -0.371,0.466 -1.042,1.189 -1.044,1.813 -10e-4,0.267 0.207,0.423 0.451,0.451 0.555,0.063 1.15,-0.536 1.548,-0.864 0.222,-0.182 0.431,-0.374 0.667,-0.539 0.311,-0.218 0.648,-0.356 0.947,-0.595 0.805,-0.646 -0.088,-1.764 -0.927,-1.59 z"
   id="path26" />

		<path
   style="fill:#f16559"
   d="m 71.855,329.925 c -1.15,-0.529 -2.119,0.555 -2.853,1.341 -0.817,0.875 -1.469,1.876 -2.21,2.812 -0.492,0.621 0.248,1.374 0.869,0.869 0.787,-0.64 1.51,-1.347 2.264,-2.024 0.379,-0.341 0.778,-0.645 1.209,-0.916 0.502,-0.315 0.955,-0.486 1.117,-1.111 0.089,-0.345 -0.047,-0.81 -0.396,-0.971 z"
   id="path27" />

		<path
   style="fill:#f16559"
   d="m 74.228,332.5 c -0.867,-0.435 -1.593,0.056 -2.274,0.589 -0.628,0.492 -1.279,1.06 -1.658,1.772 -0.311,0.585 0.34,1.356 0.953,0.953 0.566,-0.372 1.069,-0.811 1.658,-1.152 0.679,-0.394 1.344,-0.557 1.649,-1.357 0.106,-0.282 -0.065,-0.673 -0.328,-0.805 z"
   id="path28" />

		<path
   style="fill:#ffffff"
   d="m 125.809,267.685 c -0.556,-3.525 -3.167,-4.885 -6.211,-6.183 -6.731,-2.871 -16.399,-5.146 -21.459,1.76 -0.119,0.163 0.077,0.399 0.259,0.337 5.145,-1.753 8.624,-3.355 14.216,-2.104 4.87,1.089 12.596,3.119 11.086,9.561 -0.109,0.465 0.338,1.086 0.867,0.867 1.828,-0.76 1.516,-2.504 1.242,-4.238 z"
   id="path29" />

		<path
   style="fill:#ffffff"
   d="m 166.085,280.36 c -3.173,-1.206 -6.003,-1.942 -8.702,-4.129 -2.17,-1.759 -4.007,-3.936 -5.539,-6.255 -2.389,-3.615 -4.892,-6.92 -7.518,-10.317 0.111,-0.222 0.126,-0.48 -0.04,-0.7 -4.659,-6.152 -11.21,-11.914 -19.153,-12.755 -8.757,-0.928 -18.567,-1.553 -25.738,4.595 -0.441,0.378 0.12,0.987 0.586,0.759 7.559,-3.696 15.009,-4.122 23.255,-3.298 4.554,0.455 7.62,1.767 11.446,4.107 3.233,1.977 5.324,5.113 8.238,7.428 0.701,1.922 1.792,3.591 3.015,5.272 2.015,2.769 3.566,5.826 5.589,8.589 2.624,3.585 6.046,6.033 9.988,7.548 -1.82,0.399 -3.654,1.139 -5.453,1.297 -1.882,0.165 -4.124,0.153 -5.505,1.628 -0.251,0.268 0.063,0.637 0.377,0.489 2.001,-0.945 4.808,-0.087 6.944,-0.188 2.184,-0.103 5.31,-0.461 7.012,-1.874 0.1,-0.083 0.165,-0.174 0.214,-0.269 0.143,0.033 0.28,0.077 0.424,0.109 1.348,0.297 1.82,-1.557 0.56,-2.036 z"
   id="path30" />

		<path
   style="fill:#ffffff"
   d="m 108.827,295.991 c -3.331,1.95 -6.395,4.42 -9.558,6.632 -2.419,1.692 -5.013,3.186 -7.466,4.85 1.068,-3.026 3.179,-5.68 3.2,-9.109 0.005,-0.856 -0.784,-1.321 -1.555,-1.185 -4.25,0.75 -7.254,4.141 -10.298,6.943 -3.073,2.828 -8.27,3.229 -10.766,6.468 -0.205,0.265 0.174,0.53 0.415,0.415 3.224,-1.543 6.759,-1.937 9.876,-3.727 3.52,-2.021 5.933,-5.723 9.687,-7.223 -0.69,3.309 -3.133,6.068 -3.357,9.478 -0.049,0.04 -0.1,0.077 -0.149,0.117 -0.429,0.353 0.022,1.088 0.529,0.933 0.572,0.408 1.564,0.154 1.813,-0.686 3.264,-1.354 6.358,-3.294 9.258,-5.244 3.197,-2.15 6.813,-4.526 9.206,-7.581 0.455,-0.582 -0.112,-1.505 -0.835,-1.081 z"
   id="path31" />

		<path
   style="fill:#ffffff"
   d="m 123.783,312.361 c -4.557,-1.542 -7.444,-5.046 -9.543,-9.217 -0.917,-1.821 -1.485,-5.693 -3.611,-6.415 -0.131,-0.044 -0.273,0.072 -0.27,0.205 0.033,1.518 0.933,3.166 1.36,4.625 0.553,1.887 1.324,3.656 2.235,5.397 1.73,3.306 5.536,6.778 9.276,7.412 1.31,0.222 1.84,-1.571 0.553,-2.007 z"
   id="path32" />

		<path
   style="fill:#ffffff"
   d="m 138.659,338.683 c -0.573,-4.484 -1.152,-8.904 -2.105,-13.333 -1.635,-7.596 -4.435,-15.98 -10.212,-21.463 -0.251,-0.238 -0.646,0.064 -0.476,0.367 7.064,12.651 10.778,27.462 11.071,41.97 0.017,0.822 1.309,1.328 1.68,0.455 1.154,-2.72 0.41,-5.119 0.042,-7.996 z"
   id="path33" />

		<path
   style="fill:#ffffff"
   d="m 58.058,321.675 c -6.549,5.389 -10.552,20.258 -6.387,28.001 0.331,0.617 1.28,0.189 1.108,-0.467 -2.44,-9.337 1.423,-19.006 6.231,-26.799 0.385,-0.624 -0.447,-1.15 -0.952,-0.735 z"
   id="path34" />

		<path
   style="fill:#ffffff"
   d="m 145.554,308.878 c -0.527,-4.231 -1.369,-8.695 -3.203,-12.576 -2.517,-5.327 -5.921,-13.69 -11.083,-17.982 -0.148,-2.645 -5.398,-4.218 -7.282,-5.147 -1.077,-0.531 -2.15,-1.008 -3.229,-1.459 -0.008,-0.107 -0.034,-0.216 -0.102,-0.324 -0.914,-1.439 -2.929,-2.199 -4.414,-2.933 -1.744,-0.863 -3.667,-1.527 -5.625,-1.572 -0.263,-0.006 -0.438,0.179 -0.49,0.395 -3.746,-2.192 -8.649,-2.81 -12.833,-3.255 -3.449,-0.367 -7.129,0.562 -10.562,0.857 -2.413,0.208 -4.734,0.377 -7.051,0.808 -0.12,-0.042 -0.253,-0.065 -0.41,-0.037 -10.496,1.878 -24.008,7.293 -29.981,16.808 -6.393,10.184 -11.962,22.354 -10.303,34.698 0.076,0.561 0.868,0.356 0.917,-0.124 0.555,-5.446 1.335,-10.654 2.877,-15.912 1.686,-5.751 4.812,-10.784 7.667,-16.002 5.669,-10.358 19.04,-14.211 29.205,-18.077 0.092,-0.035 0.164,-0.084 0.229,-0.137 4.484,-0.634 9.634,-0.137 13.943,-0.62 5.499,-0.617 10.277,1.499 15.438,2.561 4.367,1.525 9.124,3.73 13.022,5.79 2.48,1.311 5.103,3.488 7.643,4.54 4.291,4.513 7.103,11.46 9.724,16.666 1.843,3.661 2.744,7.579 3.46,11.583 0.694,3.879 1.654,8.954 1.441,12.929 -0.059,1.095 1.69,1.336 1.915,0.259 0.784,-3.745 -0.441,-7.954 -0.913,-11.737 z m -34.316,-40.865 c -0.04,-0.048 -0.084,-0.094 -0.14,-0.136 0.746,0.055 2.369,0.904 3.43,1.491 -1.123,-0.464 -2.192,-0.963 -3.29,-1.355 z"
   id="path35" />

		<path
   style="fill:#ffffff"
   d="m 134.608,330.625 c -0.16,-0.892 -1.311,-0.661 -1.58,0 -1.921,4.725 -4.861,8.429 -8.231,12.249 -2.757,3.126 -6.679,5.45 -9.097,8.773 -0.197,0.27 0.19,0.65 0.459,0.46 4.859,-3.421 9.318,-6.646 13.251,-11.217 2.335,-2.713 5.883,-6.439 5.198,-10.265 z"
   id="path36" />

		<path
   style="fill:#ffffff"
   d="m 135.773,346.522 c -3.019,-1.123 -6.221,-1.2 -9.378,-0.838 -0.901,0.103 -0.931,1.358 0,1.423 1.347,0.095 2.695,0.123 4.04,0.236 1.829,0.154 3.511,1.436 5.338,0.68 0.717,-0.296 0.759,-1.219 0,-1.501 z"
   id="path37" />

		<path
   style="fill:#ffffff"
   d="m 61.437,347.61 c -2.84,0.956 -5.65,1.917 -8.516,2.796 -0.499,0.153 -0.565,0.957 0,1.074 2.989,0.619 6.72,-0.752 9.085,-2.522 0.619,-0.464 0.287,-1.636 -0.569,-1.348 z"
   id="path38" />

		<path
   style="fill:#ffffff"
   d="m 70.307,355.25 c -2.655,0.551 -4.31,2.958 -6.152,4.777 -2.362,2.332 -4.319,4.152 -5.787,7.209 -1.516,3.156 -1.439,6.884 1.232,8.685 -0.203,0.072 -0.382,0.227 -0.473,0.505 -1.599,4.89 -3.25,9.822 -4.625,14.776 -0.74,2.667 -1.703,5.103 -3.087,7.515 -0.736,1.283 -1.734,2.948 -1.85,4.487 -0.268,3.545 3.408,13.422 8.637,10.842 0.738,-0.364 0.378,-1.551 -0.414,-1.527 -5.668,0.174 -7.51,-7.516 -5.661,-11.539 0.973,-2.116 2.213,-4.008 3.03,-6.205 2.119,-5.702 4.393,-11.952 5.487,-17.932 0.027,-0.147 0.012,-0.276 -0.022,-0.394 0.36,0.146 0.74,0.275 1.167,0.364 0.808,0.169 1.273,-0.879 0.562,-1.333 -5.1,-3.256 -2.4,-8.052 0.813,-11.698 2.334,-2.649 4.612,-5.967 7.382,-8.123 0.211,-0.162 -0.024,-0.453 -0.239,-0.409 z"
   id="path39" />

		<path
   style="fill:#ffffff"
   d="m 127.248,367.992 c -0.602,-2.051 -2.118,-3.387 -3.58,-4.857 -2.984,-2.999 -6.12,-5.888 -9.463,-8.485 -0.679,-0.528 -1.622,0.329 -0.973,0.973 3.002,2.981 6.054,5.909 9.03,8.918 2.85,2.88 4.903,6.203 1.783,9.662 -0.421,0.467 -0.137,1.214 0.51,1.231 3.717,0.097 3.399,-5.037 2.693,-7.442 z"
   id="path40" />

		<path
   style="fill:#ffffff"
   d="m 134.282,402.236 c -0.403,-3.89 -3.987,-6.299 -4.479,-10.376 -0.627,-5.198 -3.381,-10.148 -4.695,-15.203 -0.159,-0.611 -1.208,-0.501 -1.127,0.152 0.369,2.97 1.154,5.788 2.044,8.645 1.134,3.641 1.435,7.433 2.556,11.031 0.809,2.596 3.389,3.811 3.684,6.866 0.398,4.117 -2.105,8.886 -6.231,9.89 -1.274,0.31 -0.726,2.189 0.536,1.944 5.714,-1.111 8.257,-7.685 7.712,-12.949 z"
   id="path41" />

		<path
   style="fill:#ffffff"
   d="m 73.761,431.852 c -0.836,-0.44 -1.107,-0.527 -2.073,-0.818 -3.068,-0.926 -2.023,-3.086 -1.696,-5.617 0.616,-4.769 0.641,-9.604 0.802,-14.402 0.345,-10.269 2.863,-20.433 2.518,-30.708 -0.021,-0.634 -0.962,-0.634 -0.983,0 -0.215,6.478 -1.787,12.744 -2.774,19.124 -0.877,5.675 -0.995,11.491 -1.167,17.221 -0.135,4.492 -1.961,10.112 -0.829,14.428 0.473,1.804 4.33,2.204 5.786,2.314 0.823,0.062 1.126,-1.169 0.416,-1.542 z"
   id="path42" />

		<path
   style="fill:#ffffff"
   d="m 118.3,426.773 c -0.305,-3.305 -0.186,-6.67 -0.35,-9.987 -0.623,-12.588 -1.614,-25.196 -3.479,-37.687 -0.1,-0.668 -1.219,-0.509 -1.175,0.159 0.62,9.268 1.788,18.827 1.755,28.085 -0.016,4.407 0.727,8.731 0.954,13.126 0.097,1.871 1.635,10.645 -1.083,11.562 -0.674,0.227 -0.732,1.22 0,1.422 1.966,0.542 2.937,-0.448 3.447,-2.346 0.363,-1.353 0.057,-2.969 -0.069,-4.334 z"
   id="path43" />

		<path
   style="fill:#ffffff"
   d="m 80.854,445.933 c -0.458,-0.19 -0.951,-0.287 -1.457,-0.347 0.043,-0.067 0.076,-0.145 0.091,-0.234 0.312,-1.76 -0.147,-3.358 -0.591,-5.061 -0.235,-0.9 -0.506,-1.78 -0.699,-2.692 -0.264,-1.254 0.034,-2.393 -0.051,-3.633 -0.025,-0.367 -0.459,-0.589 -0.741,-0.307 -2.586,2.583 0,8.708 0.629,11.694 0.015,0.073 0.048,0.134 0.082,0.193 -2.192,0.107 -4.548,1 -6.313,1.789 -1.875,0.838 -6.252,4.314 -4.349,6.678 0.131,0.163 0.461,0.167 0.591,0 0.708,-0.904 0.972,-1.925 1.773,-2.818 0.971,-1.082 2.294,-1.96 3.645,-2.484 2.195,-0.851 4.854,-1.579 7.22,-1.521 0.779,0.017 0.793,-1 0.17,-1.257 z"
   id="path44" />

		<path
   style="fill:#ffffff"
   d="m 115.457,451.206 c -0.648,-0.98 -1.287,-1.91 -2.163,-2.702 -1.614,-1.459 -4.478,-1.853 -6.567,-2.048 -0.397,-0.037 -0.568,0.501 -0.313,0.755 1.612,1.604 4.206,1.375 5.929,3.009 1.325,1.257 1.794,3.964 3.822,4.191 0.5,0.056 0.726,-0.484 0.672,-0.882 -0.127,-0.926 -0.874,-1.558 -1.38,-2.323 z"
   id="path45" />

		<path
   style="fill:#ffffff"
   d="m 107.126,434.839 c -0.033,-0.548 -0.775,-0.811 -1.069,-0.29 -0.774,1.373 -0.825,3.018 -0.945,4.565 -0.147,1.891 -0.303,3.795 -0.401,5.687 -0.058,1.122 1.588,1.272 1.899,0.257 0.451,-1.472 0.448,-2.987 0.427,-4.517 -0.025,-1.887 0.2,-3.836 0.089,-5.702 z"
   id="path46" />

		<path
   style="fill:#573f45"
   d="m 167.979,279.801 c -0.104,-0.017 -10.454,-1.913 -16.657,-13.432 -5.843,-10.85 -17.734,-22.444 -33.587,-22.444 -2.474,0 -5.014,0.281 -7.548,0.836 -6.895,1.509 -11.497,4.413 -13.675,8.632 -1.974,3.824 -1.42,7.691 -0.884,9.73 -1.312,-0.075 -2.624,-0.12 -3.932,-0.12 -27.971,0 -48.466,16.144 -52.215,41.13 -4.928,32.861 13.627,48.13 13.814,48.281 0.036,0.029 0.078,0.043 0.117,0.064 0.028,0.015 0.053,0.033 0.082,0.045 0.095,0.038 0.193,0.063 0.293,0.063 0.089,0 0.177,-0.018 0.262,-0.049 0.006,-0.002 0.013,-10e-4 0.02,-0.004 0.078,-0.03 3.508,-1.326 9.223,-2.788 2.264,1.499 4.667,2.835 7.177,3.991 -5.62,4.497 -13.143,11.251 -14.333,16.011 -0.352,1.407 -0.109,2.766 0.724,4.04 0.425,0.65 0.993,1.252 1.662,1.809 -1.799,5.541 -4.27,13.207 -5.773,18.091 -0.452,1.469 -1.219,2.532 -2.031,3.657 -1.285,1.784 -2.616,3.628 -2.616,7.026 0,5.581 5.128,11.252 8.813,11.252 0.116,0 0.23,-0.005 0.344,-0.015 0.852,-0.078 2.04,-0.285 2.532,-1.191 0.572,-1.056 -0.114,-2.352 -0.981,-3.994 -0.196,-0.369 -0.403,-0.761 -0.61,-1.176 l -0.463,-0.921 c -0.708,-1.4 -1.354,-2.678 -1.63,-3.614 0.124,0.175 0.247,0.353 0.358,0.514 1.155,1.672 2.349,3.4 3.74,3.401 0.251,0 0.492,-0.057 0.717,-0.17 0.949,-0.474 1.673,-1.41 2.038,-2.635 0.575,-1.927 0.175,-4.282 -1.095,-6.459 -1.079,-1.85 1.944,-7.8 4.61,-13.048 1.005,-1.977 2.024,-3.987 2.937,-5.948 0.797,0.204 1.506,0.367 2.086,0.492 -2.751,22.087 -5.952,48.796 -5.567,50.532 0.147,0.661 0.37,1.634 9.461,2.529 0.186,2.569 0.49,6.287 0.975,11.668 -6.301,0.359 -10.265,4.907 -10.645,7.397 -0.169,1.105 0.293,1.969 1.205,2.254 1.406,0.439 6.366,0.669 10.537,0.669 9.929,0 10.551,-1.036 10.818,-1.48 1.088,-1.814 0.582,-6.258 -0.127,-7.673 -0.161,-0.322 -0.44,-0.64 -1.373,-0.88 l 1.737,-11.107 c 2.278,0.089 4.593,0.152 6.886,0.191 l 1.711,10.913 c -0.933,0.24 -1.212,0.558 -1.373,0.88 -0.708,1.415 -1.211,5.861 -0.123,7.673 0.264,0.442 0.886,1.477 10.775,1.477 0,0 0,0 0.001,0 4.188,0 9.166,-0.231 10.578,-0.673 0.912,-0.286 1.374,-1.149 1.205,-2.254 -0.381,-2.49 -4.345,-7.036 -10.648,-7.394 0.428,-4.763 0.714,-8.22 0.903,-10.733 4.508,-0.196 8.451,-0.61 9.725,-1.429 3.536,-2.273 -1.031,-37.908 -3.018,-52.196 0.805,1.687 1.672,3.4 2.53,5.091 2.667,5.249 5.689,11.199 4.61,13.048 -1.27,2.177 -1.668,4.531 -1.095,6.458 0.366,1.225 1.089,2.161 2.038,2.636 0.225,0.113 0.466,0.17 0.717,0.17 1.391,0 2.585,-1.729 3.74,-3.401 0.112,-0.161 0.235,-0.339 0.359,-0.514 -0.277,0.936 -0.923,2.214 -1.63,3.614 l -0.463,0.921 c -0.207,0.415 -0.415,0.807 -0.61,1.176 -0.867,1.642 -1.554,2.938 -0.981,3.994 0.492,0.906 1.68,1.113 2.532,1.191 0.114,0.01 0.227,0.015 0.344,0.015 3.686,-10e-4 8.814,-5.671 8.814,-11.252 0,-3.398 -1.33,-5.242 -2.616,-7.026 -0.812,-1.126 -1.579,-2.189 -2.031,-3.657 -1.502,-4.883 -3.974,-12.55 -5.773,-18.091 0.668,-0.557 1.237,-1.158 1.662,-1.809 0.833,-1.274 1.076,-2.633 0.724,-4.04 -1.133,-4.532 -8.005,-10.87 -13.511,-15.349 3.316,-1.591 6.638,-3.717 9.791,-6.536 7.552,1.151 12.22,2.319 12.311,2.342 0.003,0.001 0.007,0 0.01,0 0.004,0.001 0.007,0.004 0.011,0.005 0.092,0.021 0.185,0.021 0.275,0.009 0.032,-0.004 0.06,-0.018 0.091,-0.026 0.063,-0.016 0.124,-0.037 0.181,-0.068 0.014,-0.008 0.03,-0.008 0.044,-0.017 0.019,-0.012 0.03,-0.033 0.048,-0.046 0.049,-0.037 0.093,-0.079 0.133,-0.127 0.024,-0.029 0.046,-0.056 0.065,-0.087 0.011,-0.017 0.026,-0.029 0.035,-0.047 10.465,-20.467 12.168,-40.817 4.797,-57.304 -1.283,-2.87 -2.826,-5.552 -4.581,-8.053 5.178,0.806 9.891,1.217 14.002,1.217 13.596,0 16.666,-4.465 16.79,-4.655 0.145,-0.222 0.168,-0.502 0.063,-0.745 -0.106,-0.239 -0.327,-0.413 -0.588,-0.458 z m -16.265,4.287 c -4.062,0 -8.73,-0.409 -13.875,-1.215 -0.494,-0.077 -0.979,-0.166 -1.466,-0.252 -2.992,-3.858 -6.554,-7.205 -10.6,-9.981 0.375,-2.809 0.371,-5.766 -0.852,-7.396 -2.105,-2.807 -10.84,-7.992 -17.749,-7.992 -1.546,0 -2.926,0.261 -4.1,0.774 -2.54,1.111 -4.541,2.625 -6.056,4.093 -0.403,-1.911 -0.65,-5.024 0.903,-8.021 1.957,-3.775 6.198,-6.4 12.605,-7.802 2.424,-0.529 4.85,-0.799 7.212,-0.799 15.161,0 26.575,11.166 32.202,21.616 5.208,9.673 13.059,12.91 16.305,13.874 -1.63,1.164 -5.677,3.101 -14.529,3.101 z m -25.229,86.042 c 0.245,0.979 0.076,1.894 -0.514,2.798 -1.886,2.885 -7.359,4.78 -11.182,5.793 -0.187,-1.31 -0.329,-2.288 -0.411,-2.84 -1.532,-10.388 -2.623,-16.43 -3.416,-19.967 0.641,-0.24 1.284,-0.503 1.929,-0.781 5.435,4.364 12.528,10.731 13.594,14.997 z m 7.986,34.242 c 0,4.688 -4.492,9.942 -7.443,9.67 -1.131,-0.102 -1.284,-0.363 -1.29,-0.374 -0.171,-0.315 0.5,-1.583 0.989,-2.509 0.201,-0.379 0.414,-0.781 0.627,-1.208 l 0.46,-0.914 c 1.457,-2.884 2.42,-4.789 1.692,-6.245 -0.183,-0.367 -0.52,-0.586 -0.901,-0.586 -0.748,0 -1.269,0.756 -2.217,2.127 -0.562,0.814 -1.878,2.718 -2.458,2.718 h -0.001 c -0.548,-0.273 -0.997,-0.886 -1.234,-1.678 -0.451,-1.512 -0.105,-3.413 0.945,-5.216 1.512,-2.59 -1.305,-8.134 -4.566,-14.554 -0.956,-1.882 -1.924,-3.793 -2.797,-5.654 2.583,-0.746 5.643,-1.855 8.01,-3.38 1.781,5.491 4.152,12.85 5.608,17.583 0.528,1.715 1.407,2.935 2.258,4.115 1.192,1.652 2.318,3.215 2.318,6.105 z m -17.966,49.357 c -1.06,0.332 -5.596,0.601 -10.11,0.601 -6.496,0 -8.995,-0.495 -9.462,-0.776 -0.688,-1.285 -0.318,-4.884 0.18,-6.018 0.204,-0.113 1.222,-0.499 5.522,-0.499 1.468,0 2.817,0.044 3.549,0.068 0.286,0.009 0.481,0.015 0.564,0.015 5.788,0 9.56,4.025 9.877,6.094 0.069,0.456 -0.074,0.501 -0.12,0.515 z m -10.548,-8.204 c -0.776,-0.025 -1.989,-0.06 -3.321,-0.06 -1.732,0 -3.009,0.058 -3.967,0.156 l -1.667,-10.636 c 1.07,0.012 2.132,0.02 3.174,0.02 2.14,0 4.443,-0.026 6.672,-0.097 -0.253,3.279 -0.592,7.263 -0.891,10.617 z m -5.782,-12.093 c -16.316,0 -30.986,-1.357 -32.72,-2.509 -0.182,-3.482 4.946,-45.127 8.769,-74.905 1.78,0.593 3.596,1.093 5.435,1.509 0.492,3.317 1.623,7.518 4.223,10.164 1.789,1.82 4.002,2.672 6.687,2.521 7.379,-0.423 10.409,-7.45 11.63,-12.345 1.71,-0.357 3.481,-0.825 5.283,-1.429 3.381,16.287 10.739,72.719 7.827,75.66 -1.004,0.645 -6.032,1.334 -17.134,1.334 z m -13.207,20.125 c -0.468,0.283 -2.978,0.779 -9.504,0.779 -4.497,0 -9.013,-0.267 -10.068,-0.597 -0.047,-0.014 -0.19,-0.059 -0.12,-0.516 0.315,-2.069 4.087,-6.095 9.876,-6.096 0.077,0 0.269,-0.006 0.552,-0.015 0.732,-0.025 2.102,-0.07 3.588,-0.07 4.277,0 5.291,0.385 5.493,0.497 0.5,1.133 0.872,4.732 0.183,6.018 z m -5.676,-8.087 c -1.331,0 -2.567,0.036 -3.35,0.061 -0.326,-3.646 -0.7,-8.042 -0.958,-11.461 0.335,0.029 0.679,0.059 1.035,0.088 2.72,0.223 5.764,0.406 8.92,0.545 l -1.709,10.922 c -0.953,-0.097 -2.221,-0.155 -3.938,-0.155 z M 60.508,400.157 c 1.051,1.803 1.396,3.705 0.945,5.217 -0.237,0.793 -0.686,1.404 -1.247,1.682 -0.565,-10e-4 -1.883,-1.908 -2.446,-2.722 -0.948,-1.371 -1.47,-2.127 -2.217,-2.127 -0.381,0 -0.718,0.219 -0.901,0.586 -0.728,1.456 0.234,3.361 1.692,6.245 l 0.46,0.914 c 0.213,0.427 0.426,0.829 0.627,1.208 0.49,0.926 1.16,2.194 0.989,2.509 -0.006,0.011 -0.16,0.271 -1.291,0.374 -0.068,0.006 -0.135,0.009 -0.203,0.009 -2.925,0 -7.241,-5.098 -7.241,-9.679 0,-2.89 1.127,-4.453 2.319,-6.106 0.851,-1.18 1.73,-2.4 2.258,-4.115 1.456,-4.733 3.827,-12.092 5.608,-17.583 2.366,1.525 5.427,2.634 8.01,3.38 -0.873,1.862 -1.841,3.772 -2.797,5.654 -3.26,6.419 -6.076,11.964 -4.565,14.554 z m -2.332,-27.229 c -0.59,-0.904 -0.759,-1.819 -0.514,-2.798 1.123,-4.49 8.928,-11.313 14.443,-15.673 0.857,0.362 1.725,0.702 2.603,1.022 -0.633,4.929 -1.766,13.807 -3.014,23.808 -3.408,-0.747 -11.191,-2.799 -13.518,-6.359 z m 25.143,-15.044 c 3.479,0.679 7.028,1.037 10.572,1.037 2.454,0 5.399,-0.182 8.61,-0.733 -1.205,4.402 -3.935,10.107 -10.022,10.454 -2.212,0.128 -3.992,-0.545 -5.473,-2.051 -2.152,-2.19 -3.188,-5.728 -3.687,-8.707 z m 10.572,-0.536 c -13.496,0 -27.058,-5.274 -36.281,-14.109 -1.589,-1.522 -2.977,-3.266 -4.198,-5.153 1.731,-10.769 8.837,-21.313 16.659,-24.5 8.084,-3.293 16.68,-8.593 20.731,-11.216 -1.686,3.966 -3.254,9.171 -3.336,9.442 -0.083,0.278 -0.007,0.577 0.197,0.781 0.204,0.205 0.504,0.283 0.78,0.199 9.043,-2.679 17.647,-11.322 20.826,-14.791 1.305,11.411 13.706,17.742 14.262,18.02 0.342,0.173 0.766,0.069 0.991,-0.247 1.492,-2.089 1.275,-7.256 0.936,-10.641 4.605,7.101 7.217,17.62 8.692,26.632 -0.355,0.747 -0.726,1.494 -1.125,2.243 -10.803,20.308 -29.156,23.34 -39.134,23.34 z m -39.625,-6.557 c -1.123,-3.241 -1.458,-6.77 -1.154,-10.336 1.031,1.411 2.165,2.728 3.41,3.92 1.57,1.504 3.272,2.897 5.065,4.193 -3.593,0.96 -6.134,1.806 -7.321,2.223 z m 80.149,-16.043 c 0.054,-0.101 0.099,-0.201 0.152,-0.302 0.94,6.492 1.285,11.839 1.396,13.992 -1.652,-0.378 -5.231,-1.147 -10.215,-1.94 3.163,-3.107 6.119,-6.96 8.667,-11.75 z m 3.012,11.631 c -0.551,-8.61 -2.93,-33.027 -12.527,-44.679 -0.228,-0.276 -0.608,-0.363 -0.931,-0.217 -0.324,0.146 -0.509,0.491 -0.453,0.841 0.406,2.542 1.125,9.209 0.049,11.924 -2.725,-1.563 -12.833,-8.043 -12.833,-18.197 0,-0.331 -0.207,-0.626 -0.517,-0.739 -0.311,-0.113 -0.661,-0.019 -0.872,0.234 -0.1,0.12 -9.719,11.48 -19.915,15.261 0.801,-2.51 2.517,-7.628 3.988,-10.274 0.178,-0.32 0.112,-0.719 -0.159,-0.965 -0.269,-0.245 -0.674,-0.271 -0.975,-0.065 -0.118,0.081 -11.947,8.202 -22.806,12.626 -11.237,4.578 -20.804,22.509 -17.372,36.902 -4.648,-5.145 -14.823,-19.621 -11.068,-44.665 3.626,-24.171 23.511,-39.79 50.659,-39.79 5.877,0 11.812,0.777 17.64,2.311 14.458,3.805 25.652,13.127 31.519,26.251 6.852,15.322 5.618,34.131 -3.427,53.241 z m -13.126,-74.71 c -4.367,-2.767 -9.247,-4.903 -14.565,-6.302 -3.855,-1.015 -7.758,-1.7 -11.662,-2.061 1.409,-1.376 3.267,-2.802 5.629,-3.836 0.974,-0.427 2.141,-0.643 3.47,-0.643 6.337,0 14.601,4.843 16.491,7.364 0.811,1.081 0.882,3.21 0.637,5.478 z"
   id="path47" />

		<path
   style="fill:#573f45"
   d="m 105.984,323.152 c 0,2.413 1.956,4.37 4.37,4.37 2.414,0 4.369,-1.957 4.369,-4.37 0,-2.413 -1.956,-4.37 -4.369,-4.37 -2.413,0 -4.37,1.957 -4.37,4.37 z m 3.321,-3.146 c 0.965,0 1.748,0.782 1.748,1.748 0,0.965 -0.782,1.748 -1.748,1.748 -0.966,0 -1.748,-0.783 -1.748,-1.748 0,-0.965 0.783,-1.748 1.748,-1.748 z"
   id="path48" />

		<path
   style="fill:#573f45"
   d="m 71.727,323.152 c 0,2.413 1.956,4.37 4.37,4.37 2.413,0 4.37,-1.957 4.37,-4.37 0,-2.413 -1.956,-4.37 -4.37,-4.37 -2.414,0.001 -4.37,1.957 -4.37,4.37 z m 3.321,-3.146 c 0.965,0 1.748,0.782 1.748,1.748 0,0.965 -0.783,1.748 -1.748,1.748 -0.965,0 -1.748,-0.783 -1.748,-1.748 0,-0.965 0.782,-1.748 1.748,-1.748 z"
   id="path49" />

		<path
   style="fill:#573f45"
   d="m 95.395,332.292 c -0.472,0.302 -0.268,0.989 0.277,1.023 1.719,0.108 2.617,-1.908 1.965,-3.314 -0.286,-0.617 -0.812,-1.091 -1.472,-1.269 -0.671,-0.18 -1.669,0.065 -2.007,0.718 -0.103,0.199 0.018,0.542 0.29,0.506 0.463,-0.062 0.865,-0.354 1.35,-0.247 0.328,0.072 0.605,0.352 0.733,0.656 0.13,0.311 0.175,0.698 0.034,1.014 -0.216,0.48 -0.757,0.647 -1.17,0.913 z"
   id="path50" />

		<path
   style="fill:#573f45"
   d="m 100.584,340.999 c 0.396,-0.441 -0.1,-1.099 -0.63,-0.817 -1.057,0.561 -1.939,1.274 -3.088,1.671 -1.582,0.547 -3.099,0.074 -4.545,-0.596 -0.274,-0.127 -0.617,0.228 -0.347,0.45 2.527,2.089 6.399,1.757 8.61,-0.708 z"
   id="path51" />

	</g>
  </g>
</svg>
