<?xml version="1.0" encoding="UTF-8" standalone="no"?>
<!-- Created with Inkscape (http://www.inkscape.org/) -->

<svg
   width="90.930038mm"
   height="191.39798mm"
   viewBox="0 0 90.930044 191.39799"
   version="1.1"
   id="svg1"
   inkscape:version="1.4.2 (f4327f4, 2025-05-13)"
   sodipodi:docname="girl4.svg"
   xmlns:inkscape="http://www.inkscape.org/namespaces/inkscape"
   xmlns:sodipodi="http://sodipodi.sourceforge.net/DTD/sodipodi-0.dtd"
   xmlns="http://www.w3.org/2000/svg"
   xmlns:svg="http://www.w3.org/2000/svg">
  <sodipodi:namedview
     id="namedview1"
     pagecolor="#ffffff"
     bordercolor="#000000"
     borderopacity="0.25"
     inkscape:showpageshadow="2"
     inkscape:pageopacity="0.0"
     inkscape:pagecheckerboard="0"
     inkscape:deskcolor="#d1d1d1"
     inkscape:document-units="mm"
     inkscape:zoom="1.2275954"
     inkscape:cx="127.8923"
     inkscape:cy="206.09396"
     inkscape:window-width="2880"
     inkscape:window-height="1676"
     inkscape:window-x="-12"
     inkscape:window-y="-12"
     inkscape:window-maximized="1"
     inkscape:current-layer="layer1" />
  <defs
     id="defs1">
    <clipPath
       clipPathUnits="userSpaceOnUse"
       id="clipPath119">
      <path
         d="m 2429.58,8528.87 v 0 l -1.54,4.27 c 7.66,35.49 -15.79,67.53 -15.79,67.53 10.47,20.59 15.22,39.01 16.15,55.3 95.03,81.21 245.93,222.7 239.94,298.46 -6.68,84.06 -297.09,299.7 -435.14,397.71 -1.96,12.33 -3.87,24.38 -5.72,36.02 -4.67,29.42 -8.97,56.5 -12.82,80.63 v 0 c 0,0 399.66,-281.36 528.14,-436.13 0,0 44.89,-42.39 44.81,-102.96 0,-4.99 -0.32,-10.11 -0.98,-15.34 -8.76,-68.62 -357.05,-385.49 -357.05,-385.49"
         transform="translate(0,2.5000001e-4)"
         id="path119" />
    </clipPath>
    <clipPath
       clipPathUnits="userSpaceOnUse"
       id="clipPath299">
      <path
         d="m 6622.23,11070.3 c 4.28,3.8 8.4,7.9 12.38,12.2 -0.48,-0.6 -0.96,-1.2 -1.45,-1.8 -3.23,-3.4 -6.57,-6.6 -10.01,-9.8 -0.22,-0.1 -0.44,-0.3 -0.66,-0.4 l -0.26,-0.2"
         transform="translate(0,2.5000001e-4)"
         id="path299" />
    </clipPath>
  </defs>
  <g
     inkscape:label="图层 1"
     inkscape:groupmode="layer"
     id="layer1"
     transform="translate(-70.908125,-232.0394)">
    <path
       id="path477"
       d="m 121.84513,306.09784 c 0,0 -0.70308,3.62303 -1.28376,4.50709 0,0 12.29043,4.68453 14.58102,3.32599 2.29411,-1.35855 6.79591,-7.38858 6.79591,-7.38858 0,0 2.23696,-0.46708 2.85891,-2.5908 0.62371,-2.12408 2.18793,-4.27073 3.1249,-4.87433 0.93628,-0.60396 1.48837,-1.41111 0.895,-1.49543 -0.59478,-0.0857 -2.7185,0.55351 -3.73627,2.20698 0,0 0.12806,-1.1564 1.1871,-2.48849 1.06433,-1.33245 2.12337,-3.41207 1.04105,-3.41207 -1.05375,0 -3.37115,2.95451 -4.20194,4.43512 -0.0233,0.0395 -0.043,0.0797 -0.0646,0.11889 -0.76412,1.43369 0.49636,-3.6188 1.75472,-5.57389 1.26012,-1.95368 -0.65088,-2.1657 -1.45627,-1.01953 -0.80751,1.14829 -2.12901,4.29507 -2.08562,5.69419 0,0 -0.76059,-2.87514 -1.05904,-4.89903 -0.29669,-2.02671 -1.48484,-1.56175 -1.56986,-0.35031 -0.0861,1.2118 0.21237,4.46899 0.29704,5.7076 0.0861,1.23825 -0.21202,3.14395 -0.21202,3.14395 0,0 -0.76447,-0.49847 -1.74237,-0.92675 -0.97614,-0.42968 -0.9331,-1.88418 -2.15583,-1.49048 -1.22272,0.39511 0.54328,2.14101 0.7553,3.30059 0.21202,1.15781 0.12594,3.02824 2.72027,2.73014 0,0 -2.46486,5.02462 -4.41925,5.84624 -1.95439,0.82056 -12.02443,-4.50709 -12.02443,-4.50709"
       style="fill:#f1cead;fill-opacity:1;fill-rule:nonzero;stroke:none;stroke-width:0.0352778" />
    <path
       id="path478"
       d="m 141.17242,305.3944 c 0,0 -0.14358,-0.29139 -0.33408,-0.71896 -0.097,-0.21343 -0.20885,-0.46108 -0.32915,-0.72566 -0.1277,-0.26071 -0.24659,-0.54293 -0.39581,-0.80857 -0.13124,-0.2734 -0.29104,-0.52705 -0.43851,-0.76659 -0.0772,-0.11924 -0.15804,-0.22119 -0.23389,-0.32949 -0.0808,-0.1016 -0.15981,-0.19438 -0.23177,-0.27975 -0.0755,-0.0818 -0.15452,-0.14923 -0.22119,-0.21767 -0.0646,-0.0702 -0.133,-0.11536 -0.18662,-0.15522 -0.1136,-0.0868 -0.17639,-0.13582 -0.17639,-0.13582 0,0 0.079,0.0124 0.21907,0.0448 0.0684,0.018 0.16016,0.0321 0.24836,0.0801 0.09,0.0448 0.19932,0.0893 0.30198,0.15805 0.21025,0.13405 0.43885,0.32632 0.63817,0.56479 0.0921,0.12277 0.20849,0.23989 0.28434,0.38065 0.0878,0.13794 0.17604,0.27729 0.24941,0.42192 0.30057,0.58244 0.47837,1.2065 0.55069,1.68487 0.079,0.47731 0.0554,0.80257 0.0554,0.80257"
       style="fill:#b88459;fill-opacity:1;fill-rule:nonzero;stroke:none;stroke-width:0.0352778" />
    <path
       id="path479"
       d="m 159.29003,331.8806 c -0.39723,-0.67168 -1.3141,-1.28305 -2.10538,-1.31868 -0.89888,-0.0434 -1.30669,0.35948 -1.81011,1.06327 l -0.0201,0.0575 c -0.97085,0.89464 -1.68452,1.98578 -0.92957,3.28718 0.37041,0.64311 1.41675,2.45498 2.2673,2.58551 0.91687,0.14287 1.56069,-0.53023 2.16817,-1.15429 0.54504,-0.5588 0.85937,-1.51941 0.99977,-2.26519 0.17639,-0.93662 -0.10406,-1.46438 -0.57008,-2.25531"
       style="fill:#f49517;fill-opacity:1;fill-rule:nonzero;stroke:none;stroke-width:0.0352778" />
    <path
       id="path480"
       d="m 158.74357,327.588 c -0.84314,-0.91616 -1.73108,-1.03011 -2.41441,-0.43885 -0.006,-0.0621 -0.0938,-0.085 -0.14005,-0.0219 -0.60255,0.82267 -1.1744,1.31727 -1.47073,2.35197 -0.21943,0.77046 0.17039,1.58855 0.58067,2.21297 0.20849,0.31574 1.10208,1.74519 1.52435,1.74519 0.61489,0 1.49225,-0.9779 1.86443,-1.36454 1.25836,-1.31092 1.2372,-3.20217 0.0557,-4.48487"
       style="fill:#c95f1d;fill-opacity:1;fill-rule:nonzero;stroke:none;stroke-width:0.0352778" />
    <path
       id="path481"
       d="m 158.85152,339.21874 c -0.50341,-0.87666 -1.64359,-2.15865 -2.81728,-1.90289 -0.54293,0.11712 -1.00895,0.28857 -1.41358,0.53446 -1.19345,0.51259 -2.20592,1.39312 -3.03989,2.43699 -0.883,1.10243 -1.81257,2.90442 -1.84291,4.34658 -0.002,0.11006 0.12559,0.20566 0.23001,0.16263 0.55034,-0.22472 1.06821,-0.54787 1.58221,-0.88124 -0.50341,0.42298 -0.97084,0.88124 -1.32644,1.46755 -0.52353,0.85655 -1.48696,1.66123 -1.60444,2.71498 -0.0141,0.13476 0.0526,0.22895 0.18733,0.24624 0.65087,0.0825 1.5748,-0.53693 2.14841,-0.77435 -0.49459,0.83644 -0.74436,1.80834 -0.88265,2.75802 -0.29845,2.08386 0.57891,4.8454 1.79247,6.5412 0.0755,0.10972 0.20673,0.0141 0.25365,-0.0684 0.40287,-0.74895 0.56444,-1.78365 0.82338,-2.59363 0.17639,-0.55245 0.47837,-1.1049 0.79481,-1.64853 -0.30057,0.94404 -0.64029,1.87643 -0.92075,2.80988 -0.0466,0.15663 0.0593,0.28963 0.22295,0.21449 0.96026,-0.43568 1.64677,-1.35255 2.36079,-2.09727 0.96344,-1.00612 1.68804,-2.17205 2.32657,-3.39936 0.62195,-1.19698 1.10737,-2.33857 1.19733,-3.69006 0.15628,0.62406 0.32561,1.24319 0.56268,1.82386 0.0667,0.1584 0.23918,0.0695 0.29669,-0.0388 0.69567,-1.27283 0.70661,-3.00673 0.60748,-4.42384 -0.11677,-1.64112 -0.72778,-3.12843 -1.53882,-4.53848"
       style="fill:#f49517;fill-opacity:1;fill-rule:nonzero;stroke:none;stroke-width:0.0352778" />
    <path
       id="path482"
       d="m 159.56166,323.98332 c -0.80891,-1.34514 -2.09832,-2.35514 -3.18417,-1.52118 -0.64911,0.26953 -1.12183,1.23966 -1.46896,1.76354 -0.43498,0.65546 -0.74966,1.54728 -0.5394,2.33645 0.27693,1.03999 1.21532,1.80622 1.91135,2.58974 0.6417,0.71755 1.10772,-0.0402 1.7152,-0.46461 1.44569,-1.00506 2.58551,-3.00249 1.56598,-4.70394"
       style="fill:#f49517;fill-opacity:1;fill-rule:nonzero;stroke:none;stroke-width:0.0352778" />
    <path
       id="path483"
       d="m 158.66102,317.43153 c -1.22802,-1.32327 -2.33398,-0.14252 -2.98309,1.13065 -0.34149,0.43886 -0.60783,1.00507 -0.80539,1.41429 -0.44944,0.93733 -0.84137,1.46544 -0.21378,2.39042 0.54469,0.8061 1.37336,2.04329 2.38407,2.32093 0.82691,0.22613 1.58574,-1.06469 2.09444,-1.56845 0.74295,-0.73625 1.59103,-1.5875 1.50107,-2.68993 -0.0896,-1.10843 -1.27635,-2.24191 -1.97732,-2.99791"
       style="fill:#c95f1d;fill-opacity:1;fill-rule:nonzero;stroke:none;stroke-width:0.0352778" />
    <path
       id="path484"
       d="m 158.12692,312.995 c -1.82669,-1.57939 -3.28119,-0.37677 -4.02943,1.35925 -0.88618,1.26224 -1.4471,2.87867 -0.13441,3.97828 0.82127,0.68897 1.83198,1.35078 2.8441,1.71414 0.53586,0.1905 3.05293,-2.99085 3.00778,-4.03295 -0.0575,-1.25483 -0.76024,-2.21862 -1.68804,-3.01872"
       style="fill:#f49517;fill-opacity:1;fill-rule:nonzero;stroke:none;stroke-width:0.0352778" />
    <path
       id="path485"
       d="m 156.60962,308.73344 c -0.57538,-0.41275 -1.72085,-0.45967 -2.35726,-0.17533 -0.35066,0.15769 -0.60219,0.38982 -0.78917,0.66675 l -0.0342,0.0236 c -0.0162,0.0385 -0.0342,0.0818 -0.054,0.12488 -0.0917,0.16157 -0.17251,0.33373 -0.23389,0.51506 -0.56445,1.19309 -1.39877,2.9404 -0.44415,3.86609 0.89923,0.87595 2.19534,1.42945 3.4163,1.66264 0.62548,0.11465 1.02482,-0.86501 1.25871,-1.30563 0.58244,-1.09749 1.26013,-1.80481 1.07844,-3.11573 -0.13476,-0.98778 -1.0929,-1.72226 -1.84079,-2.26237"
       style="fill:#c95f1d;fill-opacity:1;fill-rule:nonzero;stroke:none;stroke-width:0.0352778" />
    <path
       id="path486"
       d="m 154.11583,304.33007 c -2.09091,-0.65158 -3.56164,0.1965 -3.90348,2.21721 -0.44203,1.56563 -0.70979,4.00544 1.16699,4.25238 1.11654,0.14676 2.59432,0.55316 3.71616,0.36795 0.66534,-0.11042 0.70308,-1.19415 0.89746,-1.68734 0.8883,-2.22214 0.61102,-4.37374 -1.87713,-5.1502"
       style="fill:#f49517;fill-opacity:1;fill-rule:nonzero;stroke:none;stroke-width:0.0352778" />
    <path
       id="path487"
       d="m 152.64898,301.46128 c -0.50905,-0.75988 -2.46909,-0.69638 -3.24732,-0.56268 -0.87559,0.15275 -1.92722,0.36336 -2.33186,1.26788 -0.0631,0.14888 -0.11677,0.29528 -0.16192,0.44768 0,-0.0547 0,-0.10725 0,-0.16122 l -0.0321,0.005 c -0.0526,0.56726 -0.24482,1.19662 -0.22648,1.76106 0.0286,0.89817 0.2279,1.70251 0.36477,2.58234 0.13088,0.88688 0.46038,1.23472 1.37337,1.19309 0.73025,-0.0307 3.66606,-0.16157 4.25591,-0.39829 0.76235,-0.30727 0.73342,-5.04437 0.006,-6.13445"
       style="fill:#c95f1d;fill-opacity:1;fill-rule:nonzero;stroke:none;stroke-width:0.0352778" />
    <path
       id="path488"
       d="m 149.73786,302.51714 c -0.0864,-0.79304 -0.23001,-2.12901 -0.95285,-2.63701 -0.91899,-0.64558 -2.04611,-0.22049 -3.03107,-0.15557 -0.68368,0.0469 -1.55363,0.61524 -1.83621,1.25588 -0.21731,0.4946 -0.26564,0.97932 -0.21554,1.45839 l -0.0882,-0.0928 c -0.0233,-0.0268 -0.0642,0.002 -0.0632,0.0353 0.049,0.58314 0.2413,1.12783 0.3168,1.71308 0.0557,0.42616 0.0952,1.0788 0.35948,1.43581 0.5648,0.76129 1.69192,0.5842 2.47756,0.44203 0.57361,-0.10513 1.11654,-0.20214 1.65417,-0.4318 0.3235,-0.13723 0.91511,-0.17568 1.18463,-0.39229 0.66005,-0.52917 0.26635,-1.92228 0.19438,-2.63102"
       style="fill:#f49517;fill-opacity:1;fill-rule:nonzero;stroke:none;stroke-width:0.0352778" />
    <path
       id="path489"
       d="m 145.11189,298.72055 c -0.64912,-1.19909 -1.50672,-1.18357 -2.72204,-1.00683 -0.8703,0.12665 -2.528,0.34608 -2.95769,1.28482 -0.40992,0.90135 -0.21554,1.77447 0.24624,2.56893 0.0272,0.091 0.0522,0.18344 0.0811,0.27375 0.17604,0.55527 0.5588,1.40864 1.15429,1.61608 1.5748,0.55386 3.50555,-0.41099 4.83623,-1.19592 0.072,-0.0423 0.13476,-0.133 0.1203,-0.22013 -0.15417,-1.1109 -0.21202,-2.30576 -0.75847,-3.3207"
       style="fill:#c95f1d;fill-opacity:1;fill-rule:nonzero;stroke:none;stroke-width:0.0352778" />
    <path
       id="path490"
       d="m 141.01261,298.49054 c -0.28222,-1.85808 -1.35573,-2.56858 -3.17536,-2.25319 -1.24036,0.21696 -2.04575,1.04775 -2.24331,2.05316 l -0.0272,-0.0571 c -0.004,-0.0494 -0.0684,-0.0205 -0.0667,0.0176 0.007,1.16382 0.21237,2.43734 0.85584,3.429 0.23742,0.36513 0.78916,0.34537 1.15817,0.33973 0.54963,-0.004 1.17757,0.0116 1.71838,-0.0748 0.33443,-0.0494 1.90253,-0.2346 1.98332,-0.74048 0.13123,-0.80822 -0.0794,-1.90218 -0.2032,-2.71392"
       style="fill:#f49517;fill-opacity:1;fill-rule:nonzero;stroke:none;stroke-width:0.0352778" />
    <path
       id="path491"
       d="m 136.85583,294.31506 c -0.77717,-0.4579 -1.92582,-0.45508 -2.75096,-0.20884 -1.64324,0.48436 -2.67688,1.68627 -2.22568,3.24379 0.13476,1.61255 0.70485,3.22509 2.70933,2.91747 0.74825,-0.11465 2.35515,-0.16686 2.84974,-0.86713 0.48895,-0.69497 0.27517,-1.99566 0.28928,-2.788 0.0145,-0.82797 -0.1023,-1.8482 -0.87171,-2.29729"
       style="fill:#c95f1d;fill-opacity:1;fill-rule:nonzero;stroke:none;stroke-width:0.0352778" />
    <path
       id="path492"
       d="m 134.18742,293.8949 c -0.33444,-2.00907 -3.31329,-2.09197 -4.84541,-1.66934 -0.76023,0.20673 -1.60161,0.86571 -1.76706,1.67534 -0.18309,0.89112 0.17815,1.5554 0.7119,2.18052 0.16898,0.48542 0.39406,0.95003 0.68686,1.32362 0.59514,0.75001 1.93464,0.37818 2.69522,0.26106 0.44027,-0.0684 2.46663,-0.20849 2.64443,-0.69145 0.32914,-0.88335 0.0272,-2.17981 -0.12594,-3.07975"
       style="fill:#f49517;fill-opacity:1;fill-rule:nonzero;stroke:none;stroke-width:0.0352778" />
    <path
       id="path493"
       d="m 128.08189,288.32948 c -1.53,0.27305 -3.93735,1.45556 -4.37444,3.08786 l -0.0413,0.0342 c 0.002,0.0342 0.005,0.0748 0.009,0.11148 -0.0938,0.4759 -0.0127,0.98531 0.2981,1.52294 0.27164,0.86889 0.71579,1.72861 1.36666,2.02601 1.52965,0.70943 3.85269,0.15381 5.34705,-0.42863 0.18168,-0.0702 0.29316,-0.21202 0.2914,-0.41169 0,-2.27789 0.78563,-6.59836 -2.89666,-5.94219"
       style="fill:#c95f1d;fill-opacity:1;fill-rule:nonzero;stroke:none;stroke-width:0.0352778" />
    <path
       id="path494"
       d="m 156.37044,337.0107 c 0,0 -2.65571,-3.38173 -4.19806,-3.24415 -1.5374,0.13653 -2.80494,5.20524 -0.89182,5.61764 1.91452,0.4124 5.09164,-1.52823 5.09164,-1.52823 0,0 3.17324,4.45311 4.03437,3.59586 0.86148,-0.86043 2.12725,-5.31213 0.96202,-5.55484 -1.16875,-0.24377 -4.99815,1.11372 -4.99815,1.11372"
       style="fill:#ec1443;fill-opacity:1;fill-rule:nonzero;stroke:none;stroke-width:0.0352778" />
    <path
       id="path495"
       d="m 79.230808,346.62495 c -0.345369,-0.58208 -1.375445,-1.7653 -2.172088,-1.35361 -0.08805,0.0448 -0.168945,0.0952 -0.2552,0.14782 l 0.02699,-0.0236 -0.02699,-0.0381 c -1.897133,1.42452 -3.624657,2.73297 -4.816524,4.85281 -0.84322,1.50284 -1.465269,3.95464 -0.796643,5.62222 0.0667,0.16722 0.307576,0.0681 0.316533,-0.0871 0.04506,-0.71861 0.330729,-1.47991 0.746072,-2.19393 -0.01778,0.0533 -0.03776,0.10372 -0.05209,0.15981 -0.269818,0.90946 -0.264446,2.12125 0.01254,3.0226 0.595037,1.95016 1.57675,3.71863 -0.357742,5.33788 -0.05939,0.0494 -0.05029,0.14464 0.03252,0.15522 1.909134,0.21167 3.291706,-0.4833 4.24657,-2.16782 0.132961,-0.23248 0.237137,-0.4766 0.323708,-0.72919 -0.05581,0.60255 -0.183444,1.18604 -0.40834,1.71521 -0.05553,0.13053 0.09359,0.23989 0.197908,0.13758 1.499588,-1.4097 2.416387,-2.44298 2.75964,-4.54237 0.300143,-1.82033 0.206728,-3.55952 -0.677721,-5.06447 0.08615,0.0801 0.170744,0.15451 0.251636,0.23459 0.645478,0.65652 0.886495,1.49049 1.240649,2.30258 0.03253,0.0762 0.122379,0.0593 0.165382,10e-4 0.129399,-0.18097 0.116699,-0.36724 0.120298,-0.58843 0.01076,-0.84314 0.08834,-1.66758 0.05775,-2.51001 -0.05581,-1.55364 -0.126118,-3.02719 -0.934861,-4.39068"
       style="fill:#f49517;fill-opacity:1;fill-rule:nonzero;stroke:none;stroke-width:0.0352778" />
    <path
       id="path496"
       d="m 78.186092,339.14959 c -1.053783,-1.40053 -2.065937,0.16792 -2.619658,1.33033 -0.533823,0.75776 -0.896937,1.84361 -0.634717,2.42287 0.336267,0.74225 1.341402,1.42875 2.012068,1.81152 0.578944,0.32879 2.811886,-2.39783 2.736391,-3.05788 -0.122096,-1.08761 -0.873689,-1.68346 -1.494084,-2.50684"
       style="fill:#c95f1d;fill-opacity:1;fill-rule:nonzero;stroke:none;stroke-width:0.0352778" />
    <path
       id="path497"
       d="m 79.173341,336.62617 c -0.90096,-1.42981 -2.760099,-2.28423 -3.533176,-0.28328 l -0.0017,0.0649 c -0.670525,0.86431 -1.427762,1.70392 -1.332124,2.86738 0.03746,0.46284 0.639692,0.92146 0.947526,1.2192 0.623711,0.59302 1.213379,1.25765 2.024344,1.59385 0.129399,0.0529 0.258939,-0.073 0.309246,-0.17745 0.853969,-1.77694 2.865472,-3.25472 1.585842,-5.28461"
       style="fill:#f49517;fill-opacity:1;fill-rule:nonzero;stroke:none;stroke-width:0.0352778" />
    <path
       id="path498"
       d="m 77.669872,331.70457 c -1.098268,-0.98213 -2.013585,-0.0974 -2.455651,0.94086 -0.38862,0.44661 -0.708448,1.68381 -0.8001,2.23908 -0.131022,0.80927 0.09539,1.22802 0.747748,1.69933 0.426367,0.30762 1.380913,1.05586 1.927578,0.9458 0.300143,-0.0596 0.318205,-0.0998 0.521194,-0.32985 0.539362,-0.61525 1.064648,-1.2386 1.618368,-1.84327 1.220505,-1.33138 -0.568325,-2.76648 -1.559137,-3.65195"
       style="fill:#c95f1d;fill-opacity:1;fill-rule:nonzero;stroke:none;stroke-width:0.0352778" />
    <path
       id="path499"
       d="m 77.846261,327.04967 c -0.425944,-0.71755 -1.023056,-1.07915 -1.999121,-0.92887 -0.996174,0.15134 -1.256877,1.13559 -1.452845,1.98755 -0.560867,1.08585 -1.249747,2.42641 -0.931146,3.4611 0.240746,0.77224 0.812507,1.13983 1.432902,1.6122 0.508635,0.38347 1.3069,1.22802 2.000885,1.22802 0.436845,0 0.931298,-1.05833 1.137991,-1.33738 0.598769,-0.80151 1.024995,-1.46509 1.345106,-2.407 0.373733,-1.09326 -0.618737,-2.80494 -1.533772,-3.61562"
       style="fill:#f49517;fill-opacity:1;fill-rule:nonzero;stroke:none;stroke-width:0.0352778" />
    <path
       id="path500"
       d="m 77.891346,323.28306 c -1.440321,-1.52929 -2.713214,-0.46955 -3.561821,0.87982 -0.855765,1.06857 -1.536929,2.08457 -0.6113,3.46816 0.28043,0.42087 1.948963,1.89089 2.382068,2.02107 0.600851,0.18133 1.535712,-0.88124 1.936574,-1.17264 0.77858,-0.56162 1.436582,-1.22167 1.472565,-2.20486 0.04314,-1.09855 -0.92068,-2.24966 -1.618086,-2.99155"
       style="fill:#c95f1d;fill-opacity:1;fill-rule:nonzero;stroke:none;stroke-width:0.0352778" />
    <path
       id="path501"
       d="m 78.328191,318.48598 c -0.541302,-0.73518 -1.222622,-1.08126 -2.162987,-0.90981 -0.755297,0.13864 -1.278396,0.47731 -1.679257,0.97614 -0.620272,0.4325 -1.103962,1.44109 -1.400793,2.06939 -0.495818,1.05551 -0.330729,1.83303 0.275333,2.78942 0.564437,0.89499 1.638081,2.05598 2.659196,2.35902 0.656238,0.19156 1.601823,-1.13524 2.002967,-1.49648 0.792797,-0.71403 1.332018,-1.524 1.41665,-2.60244 0.07013,-0.90982 -0.584447,-2.47051 -1.111109,-3.18524"
       style="fill:#f49517;fill-opacity:1;fill-rule:nonzero;stroke:none;stroke-width:0.0352778" />
    <path
       id="path502"
       d="m 79.061581,316.57463 c -0.298345,-0.76588 -0.718926,-2.11878 -1.569615,-2.44757 -0.830403,-0.32032 -2.196994,-0.53481 -3.02574,-0.11042 -0.697702,0.35807 -0.994258,0.92216 -1.163478,1.57833 -0.785623,1.31868 -1.303349,3.08786 0.260724,3.83646 0.723049,0.34537 2.069532,1.32221 2.883954,0.99236 0.251919,-0.1016 0.354154,-0.35983 0.53206,-0.53904 0.50546,-0.49565 1.017976,-0.96873 1.526611,-1.46544 0.636622,-0.61842 0.886354,-0.9899 0.555484,-1.84468"
       style="fill:#c95f1d;fill-opacity:1;fill-rule:nonzero;stroke:none;stroke-width:0.0352778" />
    <path
       id="path503"
       d="m 78.340856,310.443 c -0.942446,-1.23507 -2.454135,-1.42487 -3.574204,-0.72178 l -0.03432,-0.0279 c -0.880982,0.59408 -1.593014,1.60196 -2.103579,2.51425 -0.431465,0.77152 -0.358013,1.27494 0.168949,1.97485 0.649054,0.86783 1.792566,1.85208 2.818902,2.21262 0.160409,0.0568 0.345194,0.11748 0.510999,0.0268 0.614715,-0.34184 1.165119,-0.87912 1.772709,-1.25589 0.774982,-0.47484 1.290814,-0.75988 1.382571,-1.69439 0.09345,-0.94932 -0.368617,-2.27824 -0.942022,-3.0286"
       style="fill:#f49517;fill-opacity:1;fill-rule:nonzero;stroke:none;stroke-width:0.0352778" />
    <path
       id="path504"
       d="m 79.775532,308.55952 c -0.278624,-0.79269 -0.541443,-1.59279 -0.828886,-2.38407 -0.31295,-0.86466 -1.17408,-1.36631 -2.056871,-1.40229 -0.814423,-0.0325 -1.301539,0.49283 -1.726001,1.06257 -1.38974,1.16451 -3.358402,3.24555 -2.236682,4.36844 0.866786,0.86925 1.747485,1.80234 2.756359,2.50155 0.618172,0.42968 1.409594,-0.69921 1.873285,-0.99624 0.444006,-0.28223 0.85397,-0.69639 1.27635,-1.01389 0.37592,-0.28398 0.97663,-0.62653 1.170799,-1.10137 0.131163,-0.3235 -0.131339,-0.75424 -0.228353,-1.0347"
       style="fill:#c95f1d;fill-opacity:1;fill-rule:nonzero;stroke:none;stroke-width:0.0352778" />
    <path
       id="path505"
       d="m 78.948304,301.19776 c -0.870092,-2.01084 -3.264853,-1.15041 -4.129723,0.35348 -0.03253,0.054 -0.02699,0.1016 -0.009,0.1404 -1.006782,1.19557 -2.299522,2.37596 -0.780379,3.66572 0.882791,0.75 1.733303,1.76565 2.754418,2.32304 0.195827,0.10795 0.260879,0.0367 0.461927,-0.0826 0.57023,-0.3362 1.064684,-0.96802 1.656116,-1.34126 0.555378,-0.34855 1.371847,-0.85937 1.350221,-1.62454 -0.0412,-1.27036 -0.816363,-2.30435 -1.303619,-3.43429"
       style="fill:#f49517;fill-opacity:1;fill-rule:nonzero;stroke:none;stroke-width:0.0352778" />
    <path
       id="path506"
       d="m 78.941283,296.42714 c -0.347133,-0.49812 -1.66303,-0.53022 -2.166585,-0.38911 -1.067964,0.29492 -1.540615,0.9017 -1.918229,1.88524 -0.413667,0.50977 -0.766022,1.05622 -1.02483,1.71415 -0.471152,1.19733 0.175976,1.66229 0.880826,2.52518 0.473111,0.57962 1.375446,1.82669 2.271007,1.58221 0.487151,-0.13229 0.979805,-0.67028 1.405749,-0.92357 0.523099,-0.30868 0.998115,-0.74295 1.47066,-1.12254 1.868065,-1.49049 0.06311,-3.8548 -0.918598,-5.27156"
       style="fill:#c95f1d;fill-opacity:1;fill-rule:nonzero;stroke:none;stroke-width:0.0352778" />
    <path
       id="path507"
       d="m 80.440589,293.45887 c -0.366713,-1.24213 -0.754909,-1.63336 -2.01168,-1.89195 -1.370189,-0.2854 -2.321172,1.07033 -2.937828,2.04505 -0.262537,0.28223 -0.514138,0.57397 -0.73727,0.89888 -0.294887,0.42792 -0.783802,1.04281 -0.739034,1.60655 0.05581,0.73237 0.967528,1.39206 1.4224,1.88948 0.474627,0.52846 0.976065,1.28517 1.645108,1.55822 0.05553,0.0229 0.129258,-0.009 0.170745,-0.0473 1.075161,-1.01918 2.301205,-1.9177 3.464525,-2.83422 0.879334,-0.69321 -0.03775,-2.42005 -0.276966,-3.22474"
       style="fill:#f49517;fill-opacity:1;fill-rule:nonzero;stroke:none;stroke-width:0.0352778" />
    <path
       id="path508"
       d="m 81.052023,288.15133 c -1.190237,-1.41288 -3.006196,-1.67288 -4.234039,-0.71156 -0.629496,0.23354 -1.353926,1.10455 -1.641651,1.68981 -0.539221,1.09679 -0.963789,2.00131 -0.339831,3.13584 0.54296,0.99237 1.431219,2.31175 2.474136,2.83316 0.704604,0.35419 2.380298,-1.04281 2.885617,-1.37901 0.722489,-0.48083 1.91837,-1.52541 1.992066,-2.48108 0.08985,-1.22097 -0.347239,-2.15759 -1.136298,-3.08716"
       style="fill:#c95f1d;fill-opacity:1;fill-rule:nonzero;stroke:none;stroke-width:0.0352778" />
    <path
       id="path509"
       d="m 81.956264,283.76207 c -0.366819,-0.87137 -0.763976,-1.66335 -1.821216,-1.62384 -0.616655,0.0226 -1.199021,0.58244 -1.697037,1.15358 -0.678004,0.47978 -1.5627,0.85408 -1.920452,1.60902 -0.519501,1.09397 -0.172368,2.15301 0.348932,3.17536 0.251496,0.49353 0.534,0.96731 0.810825,1.44568 0.197908,0.33972 0.418923,1.05163 0.841304,1.17933 0.217594,0.0646 0.751734,-0.27163 0.852453,-0.32737 0.681319,-0.37254 1.418131,-0.62407 2.108694,-0.97614 0.873795,-0.44344 1.467167,-0.61701 1.510171,-1.63477 0.05059,-1.25765 -0.557424,-2.86209 -1.033674,-4.00085"
       style="fill:#f49517;fill-opacity:1;fill-rule:nonzero;stroke:none;stroke-width:0.0352778" />
    <path
       id="path510"
       d="m 83.906878,281.0111 c -0.414902,-0.61383 -1.220506,-2.39959 -2.062092,-2.57351 -0.879193,-0.18627 -1.292719,0.15628 -1.781528,0.83044 -0.210432,0.11783 -0.415467,0.22648 -0.595172,0.32632 -0.64008,0.35772 -1.143352,0.81809 -1.655974,1.34408 -0.758613,0.77823 -0.803804,1.64112 -0.471029,2.64125 0.325226,0.9712 1.024573,2.36008 1.747485,3.08857 0.633095,0.63465 2.272806,-0.28787 2.909041,-0.56621 0.952923,-0.42086 1.96342,-0.92251 2.405804,-1.905 0.393558,-0.87454 0.007,-2.43981 -0.496535,-3.18594"
       style="fill:#c95f1d;fill-opacity:1;fill-rule:nonzero;stroke:none;stroke-width:0.0352778" />
    <path
       id="path511"
       d="m 76.871853,344.65469 c 0,0 -3.642695,-2.28424 -5.045124,-1.63654 -1.404083,0.64806 -0.884425,5.84906 1.057232,5.58906 1.940017,-0.25753 4.273713,-3.1563 4.273713,-3.1563 0,0 4.489521,3.12067 5.011103,2.02212 0.521017,-1.10137 0.211949,-5.71747 -0.969328,-5.55272 -1.179583,0.16228 -4.327596,2.73438 -4.327596,2.73438"
       style="fill:#ec1443;fill-opacity:1;fill-rule:nonzero;stroke:none;stroke-width:0.0352778" />
    <path
       id="path512"
       d="m 97.394984,361.53193 c 0,0 -0.85023,7.6447 -1.445401,17.07092 -0.593266,9.42622 -1.52841,31.93348 -1.52841,31.93348 0,0 -0.679379,2.37765 1.484983,2.46228 2.166409,0.0847 2.846211,-1.44282 2.846211,-3.65125 0,-2.20831 2.632183,-37.03101 4.926333,-46.03037 l -6.283716,-1.78506"
       style="fill:#f1cead;fill-opacity:1;fill-rule:nonzero;stroke:none;stroke-width:0.0352778" />
    <path
       id="path513"
       d="m 120.06854,360.42774 c 0,0 5.77498,43.82555 7.13423,48.32346 0,0 1.01917,1.10783 2.46486,0.6809 1.44356,-0.42693 1.10419,-2.80458 1.10419,-3.14332 0,-0.33856 -5.01297,-46.7952 -5.01297,-46.7952 l -5.69031,0.93416"
       style="fill:#f1cead;fill-opacity:1;fill-rule:nonzero;stroke:none;stroke-width:0.0352778" />
    <path
       id="path514"
       d="m 94.753984,402.77522 c -0.197767,4.52617 -0.332811,7.76111 -0.332811,7.76111 0,0 -0.679379,2.37765 1.484983,2.46228 2.166409,0.0847 2.846211,-1.44282 2.846211,-3.65125 0,-0.4797 0.124143,-2.49756 0.341348,-5.45387 -1.49352,-0.20807 -2.950104,-0.56444 -4.339731,-1.11827"
       style="fill:#d7f1df;fill-opacity:1;fill-rule:nonzero;stroke:none;stroke-width:0.0352778" />
    <path
       id="path515"
       d="m 130.14211,400.28454 c -1.41675,0.43035 -2.84903,0.81498 -4.2933,1.15012 0.58455,3.66889 1.06821,6.36764 1.35396,7.31654 0,0 1.01917,1.10783 2.46486,0.6809 1.44356,-0.42693 1.10419,-2.80458 1.10419,-3.14332 0,-0.074 -0.24835,-2.41293 -0.62971,-6.00424"
       style="fill:#d7f1df;fill-opacity:1;fill-rule:nonzero;stroke:none;stroke-width:0.0352778" />
    <path
       id="path516"
       d="m 102.66488,368.71096 c -2.8e-4,0 -2.8e-4,0 -5.6e-4,0 0.0661,-0.43392 0.13243,-0.85372 0.19872,-1.25942 -0.0661,0.4057 -0.13229,0.8255 -0.19816,1.25942 m -5.900204,-0.74436 c -2.82e-4,0 -4.23e-4,0 -7.05e-4,0 0.149401,-1.66864 0.285961,-3.08328 0.393453,-4.15572 h 2.82e-4 c -0.10735,1.07244 -0.243805,2.48708 -0.39303,4.15572"
       style="fill:#ecd3ba;fill-opacity:1;fill-rule:nonzero;stroke:none;stroke-width:0.0352778" />
    <path
       id="path517"
       d="m 102.66432,368.71096 c -1.90553,-0.007 -4.068092,-0.0953 -5.899644,-0.74436 0.149225,-1.66864 0.28568,-3.08328 0.39303,-4.15572 1.686278,0.508 3.719724,0.93839 6.145214,1.18886 -0.14637,0.73025 -0.29327,1.55222 -0.43988,2.4518 -0.0663,0.4057 -0.13257,0.8255 -0.19872,1.25942"
       style="fill:#e0ae84;fill-opacity:1;fill-rule:nonzero;stroke:none;stroke-width:0.0352778" />
    <path
       id="path518"
       d="m 126.16031,363.21468 c -0.0349,-0.32455 -0.0677,-0.62794 -0.0988,-0.91722 h 3.5e-4 c 0.0307,0.28928 0.0635,0.59267 0.0984,0.91722"
       style="fill:#ecd3ba;fill-opacity:1;fill-rule:nonzero;stroke:none;stroke-width:0.0352778" />
    <path
       id="path519"
       d="m 120.94766,367.00704 c -0.15804,-1.17475 -0.2995,-2.23308 -0.42015,-3.13619 2.13571,-0.45861 3.96628,-0.99483 5.53402,-1.57339 0.031,0.28928 0.0639,0.59267 0.0988,0.91722 0.0794,0.73731 0.16863,1.56634 0.26564,2.47297 -1.80163,0.52212 -3.64067,0.93839 -5.47829,1.31939"
       style="fill:#e0ae84;fill-opacity:1;fill-rule:nonzero;stroke:none;stroke-width:0.0352778" />
    <path
       id="path520"
       d="m 97.053389,411.80975 c 0,0 -1.952413,-2.71639 -4.586393,-1.35819 -2.632075,1.35819 -3.820901,3.65125 -6.79249,4.24395 -2.973811,0.59616 -7.05171,-0.25396 -9.088579,1.61576 -1.276632,1.17119 -1.65421,2.93867 -1.756445,4.09925 1.12529,0.6667 3.088746,1.41469 6.427294,1.67569 5.214232,0.40928 13.390951,-1.37927 17.74183,-3.59132 v -6.9391 c 0,0 -0.79636,-0.93486 -1.945217,0.25396"
       style="fill:#3aa19b;fill-opacity:1;fill-rule:nonzero;stroke:none;stroke-width:0.0352778" />
    <path
       id="path521"
       d="m 81.256776,422.08621 c -3.338548,-0.261 -5.302004,-1.00899 -6.427294,-1.67569 -0.06121,0.6915 -0.02536,1.16416 -0.02536,1.16416 0,0 2.377123,2.80459 12.314027,1.53101 9.935245,-1.27703 11.880462,-3.48191 11.880462,-3.48191 v -1.12889 c -4.350879,2.21205 -12.527598,4.0006 -17.74183,3.59132"
       style="fill:#285ea6;fill-opacity:1;fill-rule:nonzero;stroke:none;stroke-width:0.0352778" />
    <path
       id="path522"
       d="m 135.69625,418.51959 c -4.43019,-0.30692 -8.27229,-1.40395 -10.29159,-2.08139 0.0162,0.75141 0.0325,1.23126 0.0325,1.23126 0,0 -0.18698,0.7655 8.98419,1.78153 9.17469,1.01244 15.54303,-1.78153 15.54303,-1.78153 0.0557,-0.37743 0.0649,-0.74785 0.0395,-1.10765 -3.5239,1.07238 -8.97361,2.32474 -14.30761,1.95778"
       style="fill:#285ea6;fill-opacity:1;fill-rule:nonzero;stroke:none;stroke-width:0.0352778" />
    <path
       id="path523"
       d="m 150.00386,416.56181 c -0.13477,-1.83102 -1.32151,-3.35139 -3.52214,-3.55963 -2.63384,-0.25051 -9.93704,-3.40071 -11.21198,-3.71821 -1.27282,-0.3211 -1.78153,-2.22966 -3.9049,-2.82582 -2.12302,-0.5927 -3.40501,2.82582 -3.40501,2.82582 0,0 -1.22978,-2.67769 -2.032,-1.63699 -0.61454,0.80436 -0.57326,6.29366 -0.52317,8.79122 2.0193,0.67744 5.8614,1.77447 10.29159,2.08139 5.334,0.36696 10.78371,-0.8854 14.30761,-1.95778"
       style="fill:#3aa19b;fill-opacity:1;fill-rule:nonzero;stroke:none;stroke-width:0.0352778" />
    <path
       id="path524"
       d="m 96.375668,339.52248 c 0,0 -3.397991,6.38386 -6.1994,20.56447 0,0 6.112969,6.96595 24.967852,4.6729 18.8528,-2.29306 20.2124,-10.02171 20.2124,-10.02171 0,0 -9.25759,-17.919 -13.41826,-20.97652 l -25.562592,5.76086"
       style="fill:#316dba;fill-opacity:1;fill-rule:nonzero;stroke:none;stroke-width:0.0352778" />
    <path
       id="path525"
       d="m 135.35652,354.73849 v 0 0"
       style="fill:#a8d0e3;fill-opacity:1;fill-rule:nonzero;stroke:none;stroke-width:0.0352778" />
    <path
       id="path526"
       d="m 124.5901,362.7984 c -2.66242,-10.56146 -5.40527,-18.20827 -7.57838,-23.36941 2.39254,-0.89676 4.73746,-2.08174 6.89716,-3.63784 -0.16827,-0.20779 -0.33337,-0.4057 -0.49495,-0.59196 0.001,-7.1e-4 0.002,-10e-4 0.003,-0.002 4.54131,5.22217 11.93941,19.54107 11.93941,19.54107 v 0 c 0,0 0,0 0,3.5e-4 v 0 c -0.007,0.0385 -0.91158,4.91807 -10.76642,8.05991"
       style="fill:#295cac;fill-opacity:1;fill-rule:nonzero;stroke:none;stroke-width:0.0352778" />
    <path
       id="path527"
       d="m 101.01978,342.06318 c -2.518767,0 -4.521486,-0.16827 -5.656443,-0.2928 0.143616,-0.34961 0.274778,-0.65758 0.391654,-0.92463 1.186885,0.0945 2.550619,0.15945 4.058038,0.15945 4.562971,0 10.437711,-0.59443 16.688221,-2.76754 0.16616,0.381 0.33655,0.77858 0.51047,1.19133 -5.67302,2.12655 -11.61362,2.63455 -15.99194,2.63419"
       style="fill:#254992;fill-opacity:1;fill-rule:nonzero;stroke:none;stroke-width:0.0352778" />
    <path
       id="path528"
       d="m 117.01172,339.42899 c -0.17392,-0.41275 -0.34431,-0.81033 -0.51047,-1.19133 2.26978,-0.78916 4.58929,-1.78647 6.91268,-3.03847 0.16158,0.18626 0.32668,0.38417 0.49495,0.59196 -2.1597,1.5561 -4.50462,2.74108 -6.89716,3.63784"
       style="fill:#263f7b;fill-opacity:1;fill-rule:nonzero;stroke:none;stroke-width:0.0352778" />
    <path
       id="path529"
       d="m 99.516766,295.31801 c 0,0 -4.669508,1.4993 -8.746984,6.50945 -4.077865,5.01051 -6.434738,9.08827 -6.434738,9.08827 0,0 1.934493,4.5847 5.499877,6.11469 l 2.092713,-3.65231 c 0,0 -1.751366,17.24026 -1.244389,26.75326 0,0 17.835705,4.33 35.075605,-6.28473 0,0 -6.96489,-19.36398 -9.93705,-23.69574 l 3.56694,2.12337 c 0,0 2.72944,-3.22756 2.89313,-6.53944 0,0 -12.9988,-8.21514 -18.00976,-9.49889 l -4.755344,-0.91793"
       style="fill:#ec1c26;fill-opacity:1;fill-rule:nonzero;stroke:none;stroke-width:0.0352778" />
    <path
       id="path530"
       d="m 112.99394,305.59936 c 0.0501,0.10055 0.10054,0.20144 0.1524,0.30092 0.0526,0.10266 0.10477,0.20356 0.16016,0.30057 0.17109,0.32808 0.3563,0.66216 0.54857,0.99766 0.0776,0.13582 0.15451,0.26987 0.23354,0.4011 0.0631,0.10443 0.12241,0.21132 0.18344,0.31468 0.37218,0.6029 0.76412,1.19909 1.16875,1.78788 0.17992,0.25894 0.3489,0.4766 0.46214,0.63288 0.12947,0.17463 0.21202,0.26988 0.21202,0.26988 0,0 -0.0413,-0.11783 -0.12594,-0.3175 -0.0878,-0.19756 -0.20108,-0.48719 -0.36124,-0.81986 -0.31468,-0.67345 -0.77118,-1.54622 -1.26401,-2.39994 -0.49636,-0.85232 -1.02305,-1.68417 -1.44921,-2.29165 -0.21025,-0.30445 -0.40428,-0.54751 -0.53199,-0.72637 -0.0483,-0.066 -0.09,-0.115 -0.12241,-0.15804 0.22119,0.58314 0.4639,1.15499 0.73378,1.70779"
       style="fill:#a51b22;fill-opacity:1;fill-rule:nonzero;stroke:none;stroke-width:0.0352778" />
    <path
       id="path531"
       d="m 92.238643,312.55826 c 0.163583,-0.98637 0.359551,-1.96921 0.582224,-2.95381 0.137266,-0.59725 0.23742,-1.21673 0.370558,-1.83056 -0.04106,0.11853 -0.08421,0.23177 -0.125695,0.35807 -0.154728,0.43285 -0.282328,0.90981 -0.422486,1.37971 -0.125836,0.47343 -0.255341,0.94827 -0.352355,1.39806 -0.09179,0.45261 -0.167181,0.87877 -0.220909,1.24389 -0.05803,0.36513 -0.08474,0.67346 -0.113559,0.88759 -0.02149,0.21343 -0.02879,0.3369 -0.02879,0.3369 0,0 0.05017,-0.11359 0.125942,-0.3175 0.04657,-0.13264 0.113135,-0.3048 0.185067,-0.50235"
       style="fill:#a51b22;fill-opacity:1;fill-rule:nonzero;stroke:none;stroke-width:0.0352778" />
    <path
       id="path532"
       d="m 98.157443,304.36499 c 3.227107,1.78541 3.993167,-3.05646 3.993167,-3.05646 0,0 2.1215,4.16242 4.5847,2.29305 1.65064,-1.25236 1.77447,-4.44394 1.67922,-6.41279 -1.61255,-0.768 -3.0637,-1.36631 -4.14242,-1.64253 l -4.755344,-0.91899 c 0,0 -1.938232,0.62865 -4.405171,2.40947 0.214136,2.36996 0.889917,6.13798 3.045848,7.32825"
       style="fill:#d7f1df;fill-opacity:1;fill-rule:nonzero;stroke:none;stroke-width:0.0352778" />
    <path
       id="path533"
       d="m 84.590138,350.46388 c 0,0 -0.435187,-21.80167 4.090282,-34.06246 -1.195599,-0.7112 -2.191632,-1.89512 -2.977268,-3.03953 -0.136702,0.40887 -6.206244,19.08069 -4.212661,37.84953 0,0 -0.659518,1.72261 -0.371934,2.16852 0,0 -3.236454,4.96253 -2.525924,5.44301 0.711623,0.48048 0.837706,0.22684 1.474223,-0.8569 0.638034,-1.08373 1.657632,-3.37502 1.530033,-2.67546 -0.125942,0.70097 -0.302225,6.05084 0.80518,5.41584 1.106029,-0.63888 0.469512,-6.17961 0.785883,-5.7344 0.320146,0.44662 0.956381,6.4964 2.103438,5.34987 1.146951,-1.14617 -0.573652,-6.8781 0.127635,-5.86069 0.699487,1.02129 2.485143,5.54249 3.056608,3.95111 0.573687,-1.59209 -2.675326,-6.05155 -1.655834,-6.05155 1.019317,0 3.205728,0.89253 3.356469,-0.19191 0.145945,-1.08338 -2.486377,-2.45287 -5.58613,-1.70498"
       style="fill:#f1cead;fill-opacity:1;fill-rule:nonzero;stroke:none;stroke-width:0.0352778" />
    <path
       id="path534"
       d="m 98.837105,291.21344 v 5.68819 c 0,0 -0.208633,3.73733 1.763465,4.24709 1.97404,0.50941 4.26131,-0.84773 4.17837,-3.05753 -0.0808,-2.20697 0.004,-5.22287 0.004,-5.22287 l -5.945685,-1.65488"
       style="fill:#eabd92;fill-opacity:1;fill-rule:nonzero;stroke:none;stroke-width:0.0352778" />
    <path
       id="path535"
       d="m 101.45235,301.25596 c -0.28497,0 -0.5716,-0.0349 -0.85178,-0.10724 -1.629233,-0.42086 -1.770062,-3.04518 -1.769815,-3.94476 0,-0.18944 0.0063,-0.30233 0.0063,-0.30233 v -5.68819 l 5.945685,1.65488 c 0,0 -0.0388,1.38536 -0.0387,2.9651 0,0.75141 0.009,1.54657 0.0349,2.25777 0.002,0.0409 0.002,0.0811 0.002,0.12136 -0.003,1.8288 -1.64194,3.04341 -3.32878,3.04341"
       style="fill:#e5ae80;fill-opacity:1;fill-rule:nonzero;stroke:none;stroke-width:0.0352778" />
    <path
       id="path536"
       d="m 89.834921,317.03042 v 0 c -0.863459,-0.37112 -1.627329,-0.92039 -2.295808,-1.54093 0.889671,-1.97908 3.649592,-7.78757 6.988317,-11.59792 0,0 -0.709965,1.89159 -1.392908,4.15396 0.01831,-0.0907 0.03732,-0.18098 0.0569,-0.27164 -0.04106,0.11853 -0.08421,0.23177 -0.125695,0.35807 -0.154728,0.43285 -0.282328,0.90981 -0.422486,1.37971 -0.125836,0.47343 -0.255341,0.94827 -0.352355,1.39806 -0.09179,0.45261 -0.167181,0.87877 -0.220909,1.24389 -0.05803,0.36513 -0.08474,0.67346 -0.113559,0.88759 -0.02149,0.21343 -0.02879,0.3369 -0.02879,0.3369 v 0 0 0 l -2.092713,3.65231"
       style="fill:#c91e25;fill-opacity:1;fill-rule:nonzero;stroke:none;stroke-width:0.0352778" />
    <path
       id="path537"
       d="m 91.927634,313.37811 c 0,0 0.0073,-0.12347 0.02879,-0.3369 0.02882,-0.21413 0.05553,-0.52246 0.113559,-0.88759 0.05373,-0.36512 0.129116,-0.79128 0.220909,-1.24389 0.09701,-0.44979 0.226519,-0.92463 0.352355,-1.39806 0.140158,-0.4699 0.267758,-0.94686 0.422486,-1.37971 0.04149,-0.1263 0.08463,-0.23954 0.125695,-0.35807 -0.01958,0.0907 -0.03859,0.18097 -0.0569,0.27164 -0.542678,1.7981 -1.068423,3.8301 -1.206888,5.33258 v 0"
       style="fill:#8c181e;fill-opacity:1;fill-rule:nonzero;stroke:none;stroke-width:0.0352778" />
    <path
       id="path538"
       d="m 119.38874,312.27427 v 0 l -3.19652,-1.90288 -0.29104,-0.28857 c -0.0734,-0.17322 -0.16193,-0.38382 -0.2734,-0.61525 -0.31468,-0.67345 -0.77118,-1.54622 -1.26401,-2.39994 -0.49636,-0.85232 -1.02305,-1.68417 -1.44921,-2.29165 -0.21025,-0.30445 -0.40428,-0.54751 -0.53199,-0.72637 -0.0483,-0.066 -0.09,-0.115 -0.12241,-0.15804 0.0201,0.0529 0.0402,0.10548 0.0607,0.15804 l -1.00295,-1.69016 c 0,0 6.5913,5.5619 9.59203,7.64046 -0.74754,1.35467 -1.52118,2.27436 -1.52118,2.27436 v 0"
       style="fill:#c91e25;fill-opacity:1;fill-rule:nonzero;stroke:none;stroke-width:0.0352778" />
    <path
       id="path539"
       d="m 115.90118,310.08282 -0.002,-0.002 c 0,0 -1.64359,-2.9845 -3.48121,-5.86775 l -0.097,-0.16334 c -0.0205,-0.0526 -0.0406,-0.10513 -0.0607,-0.15804 0.0324,0.043 0.0741,0.0921 0.12241,0.15804 0.12771,0.17886 0.32174,0.42192 0.53199,0.72637 0.42616,0.60748 0.95285,1.43933 1.44921,2.29165 0.49283,0.85372 0.94933,1.72649 1.26401,2.39994 0.11147,0.23143 0.20002,0.44203 0.2734,0.61525"
       style="fill:#8c181e;fill-opacity:1;fill-rule:nonzero;stroke:none;stroke-width:0.0352778" />
    <path
       id="path540"
       d="m 122.91475,236.97667 c 0,0 -8.01511,-10.95198 -28.743414,-0.23283 -20.588021,10.6426 -25.895397,38.64681 -6.25147,51.20711 -8.128353,-9.63965 -5.402721,-15.73918 -2.532979,-21.12257 2.873092,-5.38586 1.948991,-11.53725 1.948991,-11.53725 8.845621,2.18335 19.694352,-3.28436 19.694352,-3.28436 -2.84978,3.17183 -8.124898,4.46194 -8.124898,4.46194 12.056608,0.80539 16.429288,-7.57485 16.429288,-7.57485 0.097,3.99415 -6.13446,11.05288 -6.13446,11.05288 6.99559,-1.23719 9.69822,-8.6554 9.69822,-8.6554 0.0825,8.76124 5.94748,12.45235 5.94748,12.45235 -2.0193,-3.43817 -1.01071,-8.69915 -1.01071,-8.69915 1.01071,6.14504 9.58462,13.39921 9.58462,13.39921 -2.53506,2.81023 -5.21017,14.90733 -5.84482,18.0982 -0.63641,3.19335 -6.25687,6.33801 -6.25687,6.33801 0,0 11.58381,-0.52387 18.542,-12.86863 6.95608,-12.34334 5.09164,-38.13563 -16.94533,-43.03466"
       style="fill:#f49517;fill-opacity:1;fill-rule:nonzero;stroke:none;stroke-width:0.0352778" />
    <path
       id="path541"
       d="m 122.91475,236.97667 c 0,0 -8.01511,-10.95198 -28.743414,-0.23283 -20.588021,10.6426 -25.895397,38.64681 -6.25147,51.20711 -8.128353,-9.63965 -5.402721,-15.73918 -2.532979,-21.12257 2.873092,-5.38586 1.948991,-11.53725 1.948991,-11.53725 8.845621,2.18335 19.694352,-3.28436 19.694352,-3.28436 -2.84978,3.17183 -8.124898,4.46194 -8.124898,4.46194 12.056608,0.80539 16.429288,-7.57485 16.429288,-7.57485 0.097,3.99415 -6.13446,11.05288 -6.13446,11.05288 6.99559,-1.23719 9.69822,-8.6554 9.69822,-8.6554 0.0825,8.76124 5.94748,12.45235 5.94748,12.45235 -2.0193,-3.43817 -1.01071,-8.69915 -1.01071,-8.69915 1.01071,6.14504 9.58462,13.39921 9.58462,13.39921 -2.53506,2.81023 -5.21017,14.90733 -5.84482,18.0982 -0.63641,3.19335 -6.25687,6.33801 -6.25687,6.33801 0,0 11.58381,-0.52387 18.542,-12.86863 6.95608,-12.34334 5.09164,-38.13563 -16.94533,-43.03466"
       style="fill:#f49517;fill-opacity:1;fill-rule:nonzero;stroke:none;stroke-width:0.0352778" />
    <path
       id="path542"
       d="m 83.563625,270.69376 c -0.07027,0.17428 -0.133138,0.34961 -0.194169,0.52776 0,-0.003 0.07359,-0.1905 0.194169,-0.52776"
       style="fill:#c95f1d;fill-opacity:1;fill-rule:nonzero;stroke:none;stroke-width:0.0352778" />
    <path
       id="path543"
       d="m 129.46831,278.49686 -0.002,0.008 c 0.10619,-0.38524 0.21026,-0.77364 0.31856,-1.1624 -0.11324,0.37288 -0.22119,0.75635 -0.31644,1.15464"
       style="fill:#c95f1d;fill-opacity:1;fill-rule:nonzero;stroke:none;stroke-width:0.0352778" />
    <path
       id="path544"
       d="m 129.19102,279.54567 c 0.0938,-0.32103 0.18556,-0.66393 0.27517,-1.04105 -0.0953,0.34784 -0.18521,0.69568 -0.27517,1.04105"
       style="fill:#c95f1d;fill-opacity:1;fill-rule:nonzero;stroke:none;stroke-width:0.0352778" />
    <path
       id="path545"
       d="m 83.369456,271.22152 v 0"
       style="fill:#c95f1d;fill-opacity:1;fill-rule:nonzero;stroke:none;stroke-width:0.0352778" />
    <path
       id="path546"
       d="m 84.802475,253.07781 c 2.328051,6.60294 -0.460269,15.3998 -1.23885,17.61595 0.512198,-1.34831 1.163214,-2.62678 1.823262,-3.86538 2.873092,-5.38586 1.948991,-11.53725 1.948991,-11.53725 7.574492,1.86973 16.607122,-1.86619 19.054062,-2.98026 2.29975,-1.77448 4.14972,-3.83964 4.14972,-3.83964 -12.360698,7.98301 -25.737185,4.60658 -25.737185,4.60658"
       style="fill:#c95f1d;fill-opacity:1;fill-rule:nonzero;stroke:none;stroke-width:0.0352778" />
    <path
       id="path547"
       d="m 115.48561,246.15948 c -4.47499,9.49219 -16.580278,10.30923 -16.580278,10.30923 12.056608,0.80539 16.429288,-7.57485 16.429288,-7.57485 v 0.0138 c 0.27305,-1.53282 0.15099,-2.74814 0.15099,-2.74814"
       style="fill:#c95f1d;fill-opacity:1;fill-rule:nonzero;stroke:none;stroke-width:0.0352778" />
    <path
       id="path548"
       d="m 136.01269,268.42293 c -12.50844,-8.51429 -12.85699,-21.31166 -12.85699,-21.31166 -3.72886,10.01889 1.69016,16.63242 1.69016,16.63242 -2.0193,-3.43817 -1.01071,-8.69915 -1.01071,-8.69915 1.01071,6.14504 9.58462,13.39921 9.58462,13.39921 -1.26577,1.40441 -2.56752,5.12657 -3.63502,8.89847 1.893,-6.12352 6.22794,-8.91929 6.22794,-8.91929"
       style="fill:#c95f1d;fill-opacity:1;fill-rule:nonzero;stroke:none;stroke-width:0.0352778" />
    <path
       id="path549"
       d="m 109.20016,259.94674 c 6.54439,-1.15781 9.33486,-7.7276 9.66576,-8.56615 0.09,-1.67816 0.09,-3.0286 0.09,-3.0286 -1.88277,8.04228 -9.75572,11.59475 -9.75572,11.59475"
       style="fill:#c95f1d;fill-opacity:1;fill-rule:nonzero;stroke:none;stroke-width:0.0352778" />
    <path
       id="path550"
       d="m 86.408037,265.06167 c 0,0 -0.605931,-3.27378 -3.554377,-2.50084 -2.948729,0.77223 -3.157079,8.29133 0.817739,8.42045 0,0 0.704991,-2.01648 2.736638,-5.91961"
       style="fill:#eabd92;fill-opacity:1;fill-rule:nonzero;stroke:none;stroke-width:0.0352778" />
    <path
       id="path551"
       d="m 82.407431,265.39892 c 0,0 0.266241,0.0198 0.625793,0.16016 0.18355,0.0663 0.388443,0.16158 0.595171,0.29105 0.208633,0.127 0.416983,0.28575 0.607836,0.47378 0.09701,0.0889 0.177906,0.1979 0.263913,0.2995 0.08654,0.0984 0.142346,0.2219 0.208633,0.32668 0.120721,0.2286 0.185349,0.46214 0.208915,0.66463 0.0054,0.10442 0.0034,0.19861 0,0.27975 0,0.0808 -0.03073,0.15064 -0.03955,0.20673 -0.03253,0.10971 -0.05419,0.17039 -0.05419,0.17039 0,0 -0.01789,-0.0624 -0.04851,-0.17321 -0.01612,-0.0512 -0.02342,-0.11501 -0.05221,-0.18345 -0.02868,-0.0691 -0.06107,-0.14428 -0.08805,-0.22648 -0.04135,-0.0773 -0.09165,-0.15734 -0.131198,-0.24447 -0.05761,-0.0819 -0.115077,-0.16722 -0.174308,-0.25647 -0.138501,-0.16687 -0.2788,-0.34467 -0.452826,-0.5013 -0.156845,-0.17357 -0.343676,-0.32173 -0.510998,-0.47449 -0.174308,-0.14675 -0.33775,-0.28434 -0.478296,-0.4004 -0.28762,-0.23636 -0.480131,-0.4124 -0.480131,-0.4124"
       style="fill:#b88459;fill-opacity:1;fill-rule:nonzero;stroke:none;stroke-width:0.0352778" />
    <path
       id="path552"
       d="m 129.67468,276.15935 c 0,0 1.60585,-2.14947 3.56024,-0.623 1.95227,1.52929 1.46155,4.68912 -0.60608,6.16937 -2.07292,1.47885 -4.57764,0.69215 -4.57764,0.69215 0,0 1.36842,-5.38444 1.62348,-6.23852"
       style="fill:#eabd92;fill-opacity:1;fill-rule:nonzero;stroke:none;stroke-width:0.0352778" />
    <path
       id="path553"
       d="m 128.68585,279.91185 c 0,0 0.17638,-0.25541 0.52528,-0.54857 0.17463,-0.14393 0.38665,-0.3048 0.6343,-0.44591 0.24659,-0.14746 0.52705,-0.26705 0.81632,-0.37465 0.29493,-0.0882 0.59338,-0.16616 0.8883,-0.18345 0.14393,-0.0123 0.28398,-0.0243 0.41733,-0.0109 0.13124,0.0109 0.25859,0.0116 0.37183,0.0423 0.23037,0.0413 0.41346,0.10054 0.53411,0.16263 0.12065,0.055 0.18697,0.091 0.18697,0.091 0,0 -0.0755,0.004 -0.20849,0.009 -0.12771,-0.005 -0.31256,0.0109 -0.52352,0.0279 -0.10548,0.003 -0.22084,0.0367 -0.34114,0.0483 -0.12065,0.01 -0.24483,0.0522 -0.37077,0.0713 -0.12912,0.0176 -0.25682,0.0737 -0.39158,0.10089 -0.13512,0.03 -0.266,0.0825 -0.39935,0.12277 -0.53375,0.17992 -1.05692,0.41169 -1.45979,0.58737 -0.40852,0.17851 -0.6798,0.30022 -0.6798,0.30022"
       style="fill:#b88459;fill-opacity:1;fill-rule:nonzero;stroke:none;stroke-width:0.0352778" />
    <path
       id="path554"
       d="m 127.57495,286.54195 c 0.63465,-3.19087 3.30976,-15.28797 5.84482,-18.0982 0,0 -8.57391,-7.25417 -9.58462,-13.39921 0,0 -1.00859,5.26098 1.01071,8.69915 0,0 -5.86493,-3.69111 -5.94748,-12.45235 0,0 -2.70263,7.41821 -9.69822,8.6554 0,0 6.23147,-7.05873 6.13446,-11.05288 0,0 -4.37268,8.38024 -16.429288,7.57485 0,0 5.275118,-1.29011 8.124898,-4.46194 0,0 -10.848731,5.46771 -19.694352,3.28436 0,0 0.924101,6.15139 -1.948991,11.53725 -2.869742,5.38339 -5.595374,11.48292 2.532979,21.12257 0.13134,0.0864 0.262679,0.17251 0.39744,0.25823 0,0 6.242368,7.36777 17.258274,7.90187 11.01775,0.53376 15.7425,-3.23109 15.7425,-3.23109 0,0 5.62046,-3.14466 6.25687,-6.33801"
       style="fill:#f1cead;fill-opacity:1;fill-rule:nonzero;stroke:none;stroke-width:0.0352778" />
    <path
       id="path555"
       d="m 117.83758,282.82262 c -0.10266,-0.15311 -0.16546,-0.31821 -0.19968,-0.49283 -0.12065,-0.3683 -0.18344,-0.75495 -0.1725,-1.13348 -0.072,0.09 -0.14041,0.18133 -0.17287,0.28505 -0.0825,0.25858 -0.1651,0.50129 -0.21766,0.76764 -0.0589,0.29634 0.0508,0.62477 0.20532,0.90064 -1.68487,1.42664 -3.80612,2.50296 -5.88293,3.21593 -2.37348,0.81527 -4.79495,0.81138 -7.27798,0.74506 -2.25668,-0.0586 -4.565049,-0.30727 -6.702776,-1.05621 -2.035246,-0.71226 -4.71029,-2.37349 -4.706832,-4.78191 l -0.01436,7.1e-4 c -0.11684,1.85667 1.283934,3.19793 2.727431,4.17689 2.179214,1.47955 4.737277,1.75048 7.286947,1.99601 5.1598,0.49495 10.83952,-0.30868 14.67809,-4.12362 0.0254,0.0367 0.0522,0.0755 0.079,0.10972 0.42615,0.55527 1.13488,0.77999 1.81222,0.72778 -0.61631,-0.1905 -1.12148,-0.70026 -1.44145,-1.33738"
       style="fill:#b88459;fill-opacity:1;fill-rule:nonzero;stroke:none;stroke-width:0.0352778" />
    <path
       id="path556"
       d="m 105.92603,273.80597 c 0,0 -0.005,0.14746 -0.09,0.39194 -0.0896,0.23495 -0.25333,0.59866 -0.63631,0.87736 -0.18863,0.14675 -0.43515,0.24094 -0.69935,0.29845 -0.26416,0.0395 -0.55742,0.0564 -0.83756,0 -0.0595,-0.01 -0.16937,-0.0296 -0.19265,-0.0296 l -0.0988,-0.0127 -0.0395,0.01 c -0.0612,0.0148 -0.12224,0.0571 -0.17805,0.13511 -0.11162,0.15381 -0.16729,0.41522 -0.16549,0.6671 -0.0124,0.51153 0.15282,1.0414 0.42415,1.43934 0.27354,0.40463 0.67084,0.65511 1.05392,0.77223 0.38806,0.10795 0.74761,0.11747 0.99233,0.0917 0.24825,-0.0198 0.39395,-0.0381 0.39395,-0.0381 0,0 -0.0325,0.0138 -0.0974,0.0381 -0.0646,0.0212 -0.15434,0.0709 -0.27866,0.0995 -0.24282,0.0684 -0.61129,0.1584 -1.07156,0.0928 -0.45131,-0.0593 -0.99039,-0.31644 -1.35379,-0.78845 -0.36876,-0.46567 -0.5734,-1.08303 -0.5734,-1.71592 0.0124,-0.3175 0.0628,-0.65017 0.28388,-0.95391 0.10791,-0.15099 0.28952,-0.28116 0.50532,-0.30621 0.0557,-0.007 0.12029,-0.008 0.16908,-0.006 l 0.10062,0.0197 0.20863,0.0452 c 0.24073,0.0621 0.47819,0.0716 0.70294,0.0646 0.2158,-0.0307 0.42415,-0.072 0.59517,-0.16898 0.34686,-0.18345 0.58057,-0.46391 0.70295,-0.6724 0.12771,-0.21166 0.17956,-0.35066 0.17956,-0.35066"
       style="fill:#b88459;fill-opacity:1;fill-rule:nonzero;stroke:none;stroke-width:0.0352778" />
    <path
       id="path557"
       d="m 100.73371,262.26132 c -0.09,-0.26388 -0.036,-0.58314 -0.10241,-0.86078 -0.0558,-0.22648 -0.15639,-0.4064 -0.28385,-0.59902 -0.25178,-0.38206 -0.740972,-0.54292 -1.165152,-0.61595 -0.902759,-0.15522 -1.659573,0.45756 -2.202357,1.15006 -0.117016,0.10971 -0.21597,0.2353 -0.26984,0.3683 -0.05927,0.0882 -0.116981,0.17815 -0.167287,0.26282 -0.02688,0.0416 0.01612,0.0935 0.05567,0.0533 l 0.07041,-0.0642 c 0.01958,0.0826 0.121955,0.0642 0.168804,0.0109 0.41342,-0.51859 1.312439,-0.74824 1.947051,-0.7553 0.676064,-0.007 1.08959,0.2353 1.362891,0.69497 0.0649,0.20744 0.13656,0.41416 0.25714,0.58949 0.1258,0.18627 0.39384,-0.0607 0.32893,-0.23459"
       style="fill:#a85a1c;fill-opacity:1;fill-rule:nonzero;stroke:none;stroke-width:0.0352778" />
    <path
       id="path558"
       d="m 118.92872,263.54508 c -0.96344,-0.10866 -2.00096,0.24835 -2.546,1.06362 -0.0339,0.0286 -0.0716,0.0501 -0.10583,0.0769 -0.0649,0.0533 -0.0755,0.1397 -0.0487,0.20355 l -0.0236,0.0385 c -0.0198,0.0459 0.031,0.0787 0.0667,0.0469 l 0.0162,-0.0145 c 0.0254,0.012 0.054,0.0145 0.0882,0.004 v 0.001 c 1.46368,-0.49177 3.72887,-0.56621 4.16949,1.27847 0.043,0.1725 0.24976,0.0116 0.25329,-0.10407 0.0399,-1.20403 -0.54116,-2.4437 -1.86972,-2.59468"
       style="fill:#a85a1c;fill-opacity:1;fill-rule:nonzero;stroke:none;stroke-width:0.0352778" />
    <path
       id="path559"
       d="m 99.41051,268.32874 c -0.427602,1.59632 -1.337945,2.73967 -2.038809,2.552 -0.697442,-0.18698 -0.920397,-1.6316 -0.492654,-3.22827 0.427884,-1.59738 1.343025,-2.74003 2.042266,-2.54917 0.697829,0.18591 0.917081,1.62948 0.489197,3.22544"
       style="fill:#2e1411;fill-opacity:1;fill-rule:nonzero;stroke:none;stroke-width:0.0352778" />
    <path
       id="path560"
       d="m 98.2885,266.73278 c -0.168804,0.4699 -0.472793,0.7941 -0.679486,0.71896 -0.206868,-0.0751 -0.237313,-0.51576 -0.06823,-0.98708 0.168946,-0.47166 0.472546,-0.79445 0.677722,-0.71896 0.208491,0.072 0.237419,0.51612 0.06999,0.98708"
       style="fill:#ffffff;fill-opacity:1;fill-rule:nonzero;stroke:none;stroke-width:0.0352778" />
    <path
       id="path561"
       d="m 118.61051,272.07806 c -0.42792,1.59844 -1.34126,2.74003 -2.0387,2.55024 -0.70132,-0.18486 -0.91899,-1.6316 -0.49107,-3.22827 0.42792,-1.59421 1.3395,-2.73615 2.03871,-2.54988 0.69955,0.18732 0.91898,1.6323 0.49106,3.22791"
       style="fill:#2e1411;fill-opacity:1;fill-rule:nonzero;stroke:none;stroke-width:0.0352778" />
    <path
       id="path562"
       d="m 117.48691,270.48069 c -0.16898,0.47131 -0.47307,0.79375 -0.67768,0.72002 -0.2092,-0.0737 -0.23742,-0.51718 -0.0684,-0.98919 0.16722,-0.4692 0.47272,-0.79269 0.67945,-0.71685 0.20496,0.0737 0.2353,0.51576 0.0667,0.98602"
       style="fill:#ffffff;fill-opacity:1;fill-rule:nonzero;stroke:none;stroke-width:0.0352778" />
    <path
       id="path563"
       d="m 123.62313,275.82598 c 0.19967,0.93027 -1.45274,2.07221 -3.69464,2.55058 -2.23661,0.4759 -4.21252,0.1083 -4.40866,-0.82127 -0.19932,-0.93239 1.4545,-2.07221 3.69111,-2.55023 2.23873,-0.47801 4.21428,-0.11042 4.41219,0.82092"
       style="fill:#fab9b2;fill-opacity:1;fill-rule:nonzero;stroke:none;stroke-width:0.0352778" />
    <path
       id="path564"
       d="m 95.694066,273.15721 c -0.65786,0.68757 -2.533086,-0.036 -4.187014,-1.61748 -1.65227,-1.58115 -2.461472,-3.4216 -1.805234,-4.10916 0.6598,-0.68686 2.533121,0.036 4.187437,1.61819 1.654069,1.58115 2.462989,3.41948 1.804811,4.10845"
       style="fill:#fab9b2;fill-opacity:1;fill-rule:nonzero;stroke:none;stroke-width:0.0352778" />
    <path
       id="path565"
       d="m 119.25045,337.18532 c -2.97356,-15.54585 -10.13636,-37.48934 -10.13636,-37.48934 0.92039,0.94791 2.10079,2.63807 3.21804,4.38326 0.20178,0.51824 0.42086,1.02694 0.66181,1.52012 0.0501,0.10055 0.10054,0.20144 0.1524,0.30092 0.0526,0.10266 0.10477,0.20356 0.16016,0.30057 0.17109,0.32808 0.3563,0.66216 0.54857,0.99766 0.0776,0.13582 0.15451,0.26987 0.23354,0.4011 0.0631,0.10443 0.12241,0.21132 0.18344,0.31468 0.37218,0.6029 0.76412,1.19909 1.16875,1.78788 0.17992,0.25894 0.3489,0.4766 0.46214,0.63288 0.12277,0.16581 0.20356,0.26 0.21132,0.26917 3.1115,5.07894 9.64459,23.24242 9.64459,23.24242 v 0 c -2.1717,1.33561 -4.35434,2.43698 -6.5084,3.33868 m -3.17853,-26.88625 -0.10477,-0.0621 c -0.0205,-0.0469 -0.0423,-0.0981 -0.0656,-0.1531 l 0.17039,0.21519"
       style="fill:#c91e25;fill-opacity:1;fill-rule:nonzero;stroke:none;stroke-width:0.0352778" />
    <path
       id="path566"
       d="m 116.11426,310.60422 c -0.008,-0.009 -0.0885,-0.10336 -0.21132,-0.26917 -0.11324,-0.15628 -0.28222,-0.37394 -0.46214,-0.63288 -0.40463,-0.58879 -0.79657,-1.18498 -1.16875,-1.78788 -0.061,-0.10336 -0.1203,-0.21025 -0.18344,-0.31468 -0.079,-0.13123 -0.15593,-0.26528 -0.23354,-0.4011 -0.19227,-0.3355 -0.37748,-0.66958 -0.54857,-0.99766 -0.0554,-0.097 -0.1076,-0.19791 -0.16016,-0.30057 -0.0519,-0.0995 -0.10231,-0.20037 -0.1524,-0.30092 -0.24095,-0.49318 -0.46003,-1.00188 -0.66181,-1.52012 0.0286,0.0444 0.0571,0.0893 0.0857,0.13371 l 3.48121,5.86775 v 0 l 0.002,0.003 c 0.0233,0.055 0.0452,0.10618 0.0656,0.1531 l -0.14535,-0.0861 c 0.0938,0.13653 0.19121,0.28787 0.29246,0.45332"
       style="fill:#8c181e;fill-opacity:1;fill-rule:nonzero;stroke:none;stroke-width:0.0352778" />
    <path
       id="path567"
       d="m 115.89906,310.0807 -3.48121,-5.86775 c 1.83762,2.88325 3.48121,5.86775 3.48121,5.86775"
       style="fill:#75151b;fill-opacity:1;fill-rule:nonzero;stroke:none;stroke-width:0.0352778" />
  </g>
</svg>
