<?xml version="1.0" encoding="UTF-8" standalone="no"?>
<!-- Created with Inkscape (http://www.inkscape.org/) -->

<svg
   width="48.452904mm"
   height="127.02859mm"
   viewBox="0 0 48.452904 127.02859"
   version="1.1"
   id="svg1"
   inkscape:version="1.4.2 (f4327f4, 2025-05-13)"
   sodipodi:docname="man1.svg"
   xmlns:inkscape="http://www.inkscape.org/namespaces/inkscape"
   xmlns:sodipodi="http://sodipodi.sourceforge.net/DTD/sodipodi-0.dtd"
   xmlns="http://www.w3.org/2000/svg"
   xmlns:svg="http://www.w3.org/2000/svg">
  <sodipodi:namedview
     id="namedview1"
     pagecolor="#ffffff"
     bordercolor="#000000"
     borderopacity="0.25"
     inkscape:showpageshadow="2"
     inkscape:pageopacity="0.0"
     inkscape:pagecheckerboard="0"
     inkscape:deskcolor="#d1d1d1"
     inkscape:document-units="mm"
     inkscape:zoom="1.2275954"
     inkscape:cx="6.5168051"
     inkscape:cy="117.30249"
     inkscape:window-width="2880"
     inkscape:window-height="1676"
     inkscape:window-x="-12"
     inkscape:window-y="-12"
     inkscape:window-maximized="1"
     inkscape:current-layer="layer1" />
  <defs
     id="defs1" />
  <g
     inkscape:label="图层 1"
     inkscape:groupmode="layer"
     id="layer1"
     transform="translate(-103.1875,-117.47499)">
    <g
       id="XMLID_193_"
       transform="matrix(0.26458333,0,0,0.26458333,93.442364,102.42463)">
	<g
   id="XMLID_802_">
		<path
   id="XMLID_836_"
   style="fill:#fda98b"
   d="m 132.854,113.071 c 0.138,11.329 3.891,19.73 -16.944,29.534 12.402,17.062 24.616,23.367 24.616,23.367 0,0 26.13,-11.762 35.109,-19.545 -4.672,-3.399 -9.549,-5.939 -13.858,-8.967 -8.512,-5.981 -3.49,-19.271 -5.152,-24.178 z" />

		<path
   id="XMLID_834_"
   style="fill:#fda98b"
   d="m 137.914,124.95 c 4.695,2.9 10.065,2.016 15.468,0.292 5.962,-1.902 15.645,-19.227 12.01,-40.568 -3.665,-21.515 -27.598,-24.089 -37.094,-9.575 -8.567,13.095 -2.72,42.231 9.616,49.851 z" />

		<path
   id="XMLID_1381_"
   style="fill:#4d3931"
   d="m 131.802,84.24 c 0.626,-0.123 0.356,-1.239 0.701,-1.775 1.024,-1.593 3.463,-1.233 5.121,-2.147 1.121,-0.618 2.14,-1.895 3.371,-1.544 0.906,0.258 1.449,1.353 2.387,1.438 0.842,0.077 1.649,-0.718 2.452,-0.452 1,0.331 1.612,2.825 4.969,1.684 5.443,-1.85 8.977,0.148 9.546,1.328 2.373,4.921 5.072,15.438 4.892,21.365 0,-0.001 5.854,-17.632 5.854,-17.633 0.123,-1.684 -1.431,-6.094 -2.598,-7.314 -3.312,-3.463 2.834,-6.539 -2.467,-13.133 -4.087,-3.183 -6.331,-4.22 -8.559,-2.377 -0.337,-3.283 -3.618,-5.968 -6.902,-5.651 -6.35,0.614 -4.614,-3.354 -12.863,0.712 -1.412,0.696 -5.633,2.695 -6.212,4.69 -0.546,1.881 1.558,4.262 -2.113,5.283 -1.757,-0.205 -13.672,2.641 -5.785,27.922 0.406,1.302 2.003,7.808 2.502,9.046 -1.693,-12.029 3.835,-21.075 5.704,-21.442 z" />

		<g
   id="XMLID_1358_">
			<g
   id="XMLID_1379_">
				<path
   id="XMLID_889_"
   style="fill:#382823"
   d="m 136.058,77.204 c -1.245,-2.801 -2.593,-6.409 -5.71,-7.377 -1.368,-0.425 1.763,-2.415 5.027,4.122 -0.543,-1.928 -4.427,-7.387 -2.914,-7.576 0.197,-0.025 0.381,0.117 0.406,0.316 0.171,1.376 0.931,2.639 1.667,3.86 2.155,3.598 1.862,4.461 1.524,6.655 z" />

			</g>

			<g
   id="XMLID_1377_">
				<path
   id="XMLID_888_"
   style="fill:#382823"
   d="m 149.816,78.082 c 3.498,-2.109 8.436,-9.054 7.171,-12.983 -0.458,-1.426 3.155,0.224 -1.004,7.18 -4.663,7.8 -7.325,6.5 -6.167,5.803 z" />

			</g>

			<g
   id="XMLID_1375_">
				<path
   id="XMLID_887_"
   style="fill:#382823"
   d="m 129.22,78.03 c -0.424,-0.452 -3.391,-1.82 -4.002,-2.119 -0.432,-0.212 -0.112,-0.865 0.321,-0.654 2.686,1.316 3.647,1.671 4.213,2.275 0.948,1.013 1.258,4.847 0.614,4.888 -0.609,0.04 -0.205,-3.385 -1.146,-4.39 z" />

			</g>

			<g
   id="XMLID_1373_">
				<path
   id="XMLID_886_"
   style="fill:#382823"
   d="m 146.503,68.574 c 2.221,-2.646 4.041,-6.059 2.336,-9.068 -0.099,-0.175 -0.038,-0.397 0.137,-0.496 1,-0.561 2.867,4.336 -1.915,10.032 -0.308,0.368 -0.868,-0.099 -0.558,-0.468 z" />

			</g>

			<g
   id="XMLID_1371_">
				<path
   id="XMLID_885_"
   style="fill:#382823"
   d="m 140.298,77.345 c 1.806,-2.018 1.765,-5.105 -0.104,-7.074 -0.138,-0.146 -0.132,-0.376 0.013,-0.515 1,-0.951 3.785,4.552 0.633,8.074 -0.321,0.359 -0.863,-0.126 -0.542,-0.485 z" />

			</g>

			<g
   id="XMLID_1369_">
				<path
   id="XMLID_884_"
   style="fill:#382823"
   d="m 147.912,72.74 c 0.283,-0.385 0.873,0.044 0.585,0.433 -0.916,1.241 -2.583,3.391 -1.855,5.498 0.445,1.288 -3.172,0.078 1.27,-5.931 z" />

			</g>

			<g
   id="XMLID_1367_">
				<path
   id="XMLID_883_"
   style="fill:#382823"
   d="m 161.834,84.58 c 1.813,-2.222 4.298,-5.37 3.842,-8.936 -0.191,-1.5 3.677,0.87 -3.278,9.396 -0.304,0.373 -0.868,-0.087 -0.564,-0.46 z" />

			</g>

			<g
   id="XMLID_1365_">
				<path
   id="XMLID_882_"
   style="fill:#382823"
   d="m 160.929,72.938 c 0.793,-1.011 3.241,-3.903 1.64,-6.175 -0.993,-1.414 4.08,0.057 -1.067,6.624 -0.298,0.38 -0.87,-0.071 -0.573,-0.449 z" />

			</g>

			<g
   id="XMLID_1363_">
				<path
   id="XMLID_881_"
   style="fill:#382823"
   d="m 146.145,68.688 c 0.341,-1.814 0.07,-3.72 -0.764,-5.368 -0.217,-0.429 0.431,-0.759 0.65,-0.329 0.906,1.789 1.201,3.86 0.83,5.831 -0.09,0.473 -0.805,0.338 -0.716,-0.134 z" />

			</g>

			<g
   id="XMLID_1361_">
				<path
   id="XMLID_880_"
   style="fill:#382823"
   d="m 125.112,90.347 c -0.204,-0.027 -0.345,-0.217 -0.311,-0.42 0.3,-1.819 -0.429,-3.747 -1.858,-4.913 -0.373,-0.304 0.087,-0.869 0.46,-0.564 2.569,2.096 2.557,6.01 1.709,5.897 z" />

			</g>

			<g
   id="XMLID_1359_">
				<path
   id="XMLID_879_"
   style="fill:#382823"
   d="m 168.705,85.675 c 0.118,0.163 0.082,0.39 -0.081,0.508 -1.865,1.352 -2.981,3.711 -2.841,6.009 0.012,0.201 -0.141,0.373 -0.341,0.386 -1.823,0.113 2.033,-8.594 3.263,-6.903 z" />

			</g>

		</g>

		<g
   id="XMLID_770_">
			<g
   id="XMLID_799_">
				<path
   id="XMLID_800_"
   style="fill:#fda98b"
   d="m 168.24,94.161 c -4.148,-1.035 -4.051,7.558 -3.885,11.818 0.328,8.399 10.419,-10.187 3.885,-11.818 z" />

			</g>

			<g
   id="XMLID_784_">
				<path
   id="XMLID_798_"
   style="fill:#ee795c"
   d="m 167.54,98.394 c -0.137,-0.388 -0.717,-0.178 -0.582,0.205 0.82,2.33 0.16,3.743 -0.788,4.317 -0.146,0.088 -0.193,0.278 -0.104,0.424 0.585,0.969 2.647,-1.614 1.474,-4.946 z" />

			</g>

			<g
   id="XMLID_780_">
				<path
   id="XMLID_781_"
   style="fill:#fda98b"
   d="m 122.483,95.941 c 4.048,-1.375 4.663,7.197 4.85,11.456 0.368,8.396 -11.227,-9.291 -4.85,-11.456 z" />

			</g>

			<g
   id="XMLID_772_">
				<path
   id="XMLID_777_"
   style="fill:#ee795c"
   d="m 123.531,100.1 c 0.104,-0.398 0.7,-0.237 0.597,0.156 -0.624,2.39 0.151,3.744 1.142,4.237 0.153,0.076 0.215,0.261 0.139,0.413 -0.503,1.015 -2.771,-1.388 -1.878,-4.806 z" />

			</g>

		</g>

		<g
   id="XMLID_764_">
			<path
   id="XMLID_768_"
   style="fill:#382823"
   d="m 154.997,98.343 c 1.342,-0.056 2.181,-5.204 -1.076,-5.069 -1.738,0.072 -1.121,5.16 1.076,5.069 z" />

			<path
   id="XMLID_766_"
   style="fill:#382823"
   d="m 135.063,99.373 c -1.342,0.056 -2.604,-5.005 0.652,-5.141 1.738,-0.072 1.545,5.05 -0.652,5.141 z" />

		</g>

		<g
   id="XMLID_737_">
			<path
   id="XMLID_740_"
   style="fill:#ee795c"
   d="m 156.487,122.208 c -0.168,-0.13 -0.41,-0.098 -0.54,0.07 -3.526,4.571 -15.965,6.123 -21.935,-0.402 -0.344,-0.376 -0.91,0.145 -0.568,0.52 8.816,9.631 25.256,1.517 23.043,-0.188 z" />

		</g>

		<g
   id="XMLID_716_">
			<path
   id="XMLID_734_"
   style="fill:#4d3931"
   d="m 150.075,90.802 c 0.312,0.162 10.665,0.928 10.829,0.873 2.504,-0.83 -6.34,-4.365 -10.692,-2.463 -0.554,0.243 -0.704,1.296 -0.137,1.59 z" />

			<path
   id="XMLID_725_"
   style="fill:#4d3931"
   d="m 140.074,88.899 c -4.419,-1.739 -12.659,2.249 -10.564,2.964 0.643,0 10.625,-1.281 10.776,-1.382 0.526,-0.352 0.415,-1.335 -0.212,-1.582 z" />

			<g
   id="XMLID_720_">
				<path
   id="XMLID_721_"
   style="fill:#ee795c"
   d="m 147.611,106.976 c 0.112,-0.572 -0.853,-0.585 -1.462,-0.694 -2.237,-0.403 -2.29,0.687 -1.647,-8.655 0.126,-1.824 0.392,-2.812 -0.258,-2.836 -0.614,-0.013 -0.421,0.701 -0.563,2.779 -0.699,10.148 -0.773,8.907 3.447,9.73 0.22,0.044 0.439,-0.098 0.483,-0.324 z" />

			</g>

			<path
   id="XMLID_717_"
   style="fill:#ee795c"
   d="m 151.708,114.728 c 0.493,-0.96 -0.944,-0.627 -12.152,-1.325 -2.511,-0.157 6.308,12.699 12.152,1.325 z" />

		</g>

	</g>

	<g
   id="XMLID_614_">
		<path
   id="XMLID_715_"
   style="fill:#fda98b"
   d="m 107.884,517.759 c -3.762,2.896 -7.869,3.633 -13.174,0.574 l 0.752,-26.053 16.809,0.473 z" />

		<path
   id="XMLID_714_"
   style="fill:#07191d"
   d="m 92.477,534.234 c 1.752,1.275 1.499,0.924 39.566,2.734 7.622,0.362 7.958,-3.569 4.014,-6.023 -6.006,-3.736 -27.713,-15.749 -29.089,-14.94 -3.898,2.294 -5.875,2.67 -11.993,1.82 -1.001,-0.139 -7.748,12.587 -2.498,16.409 z" />

		<g
   id="XMLID_709_">
			<path
   style="fill:#f2e8de"
   d="m 115.806,520.655 c -1.308,1.736 -3.097,3.106 -5.115,3.914 z"
   id="path252" />

			<g
   id="g253">
				<path
   style="fill:#fffffb"
   d="m 110.691,525.069 c -0.198,0 -0.386,-0.118 -0.464,-0.315 -0.103,-0.256 0.022,-0.547 0.278,-0.649 1.947,-0.78 3.642,-2.077 4.901,-3.751 0.165,-0.221 0.478,-0.265 0.7,-0.099 0.221,0.166 0.265,0.479 0.099,0.7 -1.37,1.819 -3.212,3.229 -5.328,4.077 -0.061,0.026 -0.124,0.037 -0.186,0.037 z"
   id="path253" />

			</g>

		</g>

		<g
   id="XMLID_707_">
			<path
   style="fill:#f2e8de"
   d="m 119.558,522.916 c 0.095,1.542 -2.992,3.439 -4.433,4.085 z"
   id="path254" />

			<g
   id="g255">
				<path
   style="fill:#fffffb"
   d="m 115.126,527.5 c -0.191,0 -0.374,-0.11 -0.457,-0.296 -0.113,-0.252 0,-0.548 0.252,-0.66 1.772,-0.794 4.204,-2.546 4.139,-3.597 -0.017,-0.276 0.192,-0.514 0.468,-0.53 0.271,-0.016 0.513,0.193 0.53,0.468 0.144,2.322 -4.679,4.55 -4.727,4.571 -0.067,0.03 -0.137,0.044 -0.205,0.044 z"
   id="path255" />

			</g>

		</g>

		<g
   id="XMLID_705_">
			<path
   style="fill:#f2e8de"
   d="m 123.543,525.197 c -0.854,2.11 -3.19,3.07 -4.857,3.775 z"
   id="path256" />

			<g
   id="g257">
				<path
   style="fill:#fffffb"
   d="m 118.743,529.442 c -0.201,0 -0.401,-0.105 -0.48,-0.292 -0.108,-0.255 -0.027,-0.531 0.227,-0.64 1.659,-0.7 3.826,-1.616 4.589,-3.502 0.104,-0.256 0.396,-0.377 0.651,-0.276 0.256,0.104 0.379,0.396 0.276,0.651 -0.919,2.271 -3.306,3.279 -5.049,4.016 -0.068,0.03 -0.141,0.043 -0.214,0.043 z"
   id="path257" />

			</g>

		</g>

		<g
   id="XMLID_670_">
			<path
   style="fill:#fffffb"
   d="m 127.782,534.561 c -0.468,0 -0.932,-0.007 -1.381,-0.015 -0.438,-0.007 -0.878,-0.023 -1.273,-0.014 -0.276,0 -0.5,-0.224 -0.5,-0.5 0,-0.285 0.266,-0.492 0.528,-0.5 0.404,0 0.828,0.007 1.262,0.014 3.24,0.054 6.919,0.112 7.493,-2.521 0.059,-0.271 0.327,-0.442 0.595,-0.382 0.27,0.059 0.441,0.325 0.382,0.595 -0.651,2.987 -3.981,3.323 -7.106,3.323 z"
   id="path258" />

		</g>

		<path
   id="XMLID_620_"
   style="fill:#ffffff"
   d="m 170.165,526.972 c -0.127,1.149 -0.198,2.305 -0.037,3.411 0.171,1.095 0.609,2.146 1.417,2.794 0.768,0.69 1.819,1.008 2.901,1.17 1.044,0.14 2.267,0.141 3.402,0.205 l 13.858,0.708 c 4.613,0.324 9.231,0.526 13.843,0.763 2.305,0.12 4.614,0.221 6.911,0.212 1.145,0.013 2.309,0.019 3.407,-0.151 l 0.394,-0.089 c 0.121,-0.039 0.203,-0.087 0.319,-0.138 0.23,-0.178 0.441,-0.352 0.631,-0.553 0.385,-0.387 0.664,-0.901 0.652,-1.474 l 0.1,-0.009 c 0.062,0.599 -0.195,1.188 -0.574,1.631 -0.187,0.227 -0.404,0.426 -0.622,0.616 -0.253,0.18 -0.539,0.265 -0.822,0.337 -1.142,0.246 -2.305,0.301 -3.461,0.356 -2.316,0.1 -4.633,0.074 -6.948,0.037 -4.631,-0.089 -9.258,-0.296 -13.882,-0.542 -4.623,-0.266 -9.244,-0.574 -13.861,-0.928 -1.154,-0.108 -2.309,-0.14 -3.462,-0.337 -1.132,-0.214 -2.299,-0.6 -3.148,-1.433 -0.876,-0.805 -1.272,-1.998 -1.381,-3.144 -0.106,-1.164 0.049,-2.327 0.269,-3.465 z" />

		<polygon
   id="XMLID_619_"
   style="fill:#fda98b"
   points="174.206,518.689 171.831,493.956 188.11,494.414 187.518,517.415 " />

		<path
   id="XMLID_618_"
   style="fill:#07191d"
   d="m 171.873,534.03 c 1.752,1.275 1.499,0.924 39.566,2.734 7.622,0.362 7.958,-3.569 4.013,-6.023 -6.006,-3.736 -27.713,-15.749 -29.089,-14.94 -3.898,2.294 -5.875,2.67 -11.993,1.82 -0.999,-0.139 -7.746,12.588 -2.497,16.409 z" />

		<g
   id="XMLID_615_">
			<path
   style="fill:#ffffff"
   d="m 190.088,524.866 c -0.198,0 -0.386,-0.119 -0.464,-0.314 -0.103,-0.256 0.022,-0.547 0.278,-0.649 1.946,-0.78 3.642,-2.077 4.902,-3.752 0.166,-0.221 0.478,-0.267 0.7,-0.099 0.221,0.166 0.265,0.479 0.099,0.7 -1.37,1.82 -3.213,3.23 -5.329,4.078 -0.061,0.025 -0.124,0.036 -0.186,0.036 z"
   id="path259" />

		</g>

		<g
   id="XMLID_612_">
			<path
   style="fill:#ffffff"
   d="m 194.523,527.297 c -0.191,0 -0.374,-0.11 -0.457,-0.296 -0.113,-0.252 0,-0.548 0.252,-0.66 1.772,-0.794 4.203,-2.547 4.138,-3.598 -0.017,-0.276 0.192,-0.514 0.468,-0.53 0.277,-0.019 0.513,0.192 0.53,0.468 0.144,2.323 -4.678,4.551 -4.727,4.572 -0.066,0.03 -0.136,0.044 -0.204,0.044 z"
   id="path260" />

		</g>

		<g
   id="XMLID_605_">
			<path
   style="fill:#ffffff"
   d="m 198.14,529.239 c -0.201,0 -0.401,-0.105 -0.48,-0.292 -0.108,-0.255 -0.027,-0.531 0.227,-0.64 1.659,-0.7 3.826,-1.616 4.589,-3.502 0.103,-0.256 0.394,-0.377 0.651,-0.276 0.256,0.103 0.379,0.396 0.276,0.651 -0.919,2.27 -3.306,3.279 -5.049,4.016 -0.068,0.03 -0.141,0.043 -0.214,0.043 z"
   id="path261" />

		</g>

		<g
   id="XMLID_590_">
			<path
   style="fill:#ffffff"
   d="m 207.179,534.357 c -0.469,0 -0.932,-0.007 -1.381,-0.015 -0.439,-0.007 -0.88,-0.024 -1.274,-0.014 -0.276,0 -0.5,-0.224 -0.5,-0.5 0,-0.285 0.265,-0.503 0.528,-0.5 0.404,0 0.828,0.007 1.262,0.014 3.246,0.052 6.919,0.112 7.493,-2.52 0.059,-0.271 0.328,-0.441 0.595,-0.382 0.27,0.059 0.441,0.325 0.382,0.595 -0.65,2.986 -3.98,3.322 -7.105,3.322 z"
   id="path262" />

		</g>

	</g>

	<path
   id="XMLID_510_"
   style="fill:#323d4d"
   d="m 99.297,263.919 c -0.248,4.973 -12.274,248.738 -7.49,249.202 2.569,0.249 19.738,1.532 20.306,-1.058 20.424,-93.05 29.946,-183.941 29.946,-183.941 5.752,36.51 5.76,73.746 11.277,110.3 2.066,13.692 15.453,72.697 17.592,73.153 3.625,0.773 19.88,2.425 19.866,-0.907 -0.089,-20.982 -1.993,-246.749 -1.993,-246.749 z" />

	<g
   id="XMLID_489_">
		<g
   id="XMLID_498_">
			<path
   style="fill:#3d4a61"
   d="m 141.889,318.71 c -0.02,0 -0.039,-10e-4 -0.059,-0.004 -0.274,-0.032 -0.47,-0.28 -0.438,-0.555 2.276,-19.254 1.303,-28.958 0.659,-35.381 -0.531,-5.294 -0.823,-8.21 1.319,-12.079 0.134,-0.242 0.439,-0.329 0.68,-0.195 0.242,0.134 0.329,0.438 0.195,0.68 -1.991,3.595 -1.727,6.235 -1.199,11.495 0.648,6.465 1.628,16.235 -0.661,35.598 -0.031,0.254 -0.246,0.441 -0.496,0.441 z"
   id="path263" />

		</g>

		<g
   id="XMLID_497_">
			<path
   style="fill:#3d4a61"
   d="m 173.262,508.406 c -0.223,0 -0.426,-0.149 -0.484,-0.376 -13.366,-51.982 -17.165,-96.527 -19.938,-129.054 -1.819,-21.332 -3.133,-36.745 -6.347,-45.804 -0.092,-0.26 0.044,-0.546 0.304,-0.639 0.26,-0.092 0.546,0.044 0.638,0.305 3.257,9.18 4.576,24.647 6.401,46.053 2.771,32.491 6.564,76.988 19.91,128.89 0.069,0.268 -0.092,0.54 -0.36,0.609 -0.041,0.011 -0.083,0.016 -0.124,0.016 z"
   id="path264" />

		</g>

		<g
   id="XMLID_496_">
			<path
   style="fill:#3d4a61"
   d="m 184.801,303.089 c -0.102,0 -0.206,-0.031 -0.295,-0.097 -12.149,-8.928 -12.183,-12.247 -12.34,-28.194 -0.018,-1.853 -0.038,-3.878 -0.079,-6.107 -0.005,-0.276 0.215,-0.504 0.491,-0.509 0.281,0 0.504,0.218 0.509,0.491 0.041,2.232 0.061,4.261 0.079,6.116 0.157,15.9 0.185,18.766 11.932,27.397 0.223,0.164 0.27,0.477 0.107,0.699 -0.099,0.134 -0.251,0.204 -0.404,0.204 z"
   id="path265" />

		</g>

		<g
   id="XMLID_472_">
			<path
   style="fill:#3d4a61"
   d="m 102.022,296.383 c -0.184,0 -0.361,-0.102 -0.448,-0.278 -0.123,-0.247 -0.022,-0.547 0.226,-0.67 13.056,-6.481 13.577,-9.299 16.466,-24.936 0.337,-1.824 0.706,-3.819 1.13,-6.012 0.052,-0.27 0.312,-0.446 0.586,-0.396 0.271,0.052 0.448,0.314 0.396,0.586 -0.423,2.189 -0.791,4.181 -1.128,6.003 -2.898,15.683 -3.501,18.946 -17.005,25.65 -0.073,0.036 -0.148,0.053 -0.223,0.053 z"
   id="path266" />

		</g>

		<g
   id="XMLID_490_">
			<path
   style="fill:#3d4a61"
   d="m 141.686,326.382 c -0.406,0 -0.657,-0.402 -1.163,-1.213 -1.171,-1.877 -3.607,-5.781 -7.963,-4.577 -0.262,0.078 -0.541,-0.082 -0.615,-0.348 -0.074,-0.267 0.083,-0.542 0.349,-0.615 5.078,-1.406 7.88,3.09 9.079,5.011 0.059,0.094 0.12,0.191 0.179,0.285 0.98,-2.63 3.439,-4.624 6.204,-4.953 0.277,-0.043 0.523,0.163 0.556,0.437 0.033,0.274 -0.163,0.523 -0.438,0.556 -2.56,0.306 -4.902,2.363 -5.57,4.893 -0.109,0.413 -0.396,0.5 -0.514,0.518 -0.037,0.003 -0.071,0.006 -0.104,0.006 z"
   id="path267" />

		</g>

		<g
   id="XMLID_492_">
			<path
   style="fill:#3d4a61"
   d="m 146.732,298.564 c -0.332,0 -0.672,-0.032 -1.019,-0.064 -0.713,-0.065 -1.451,-0.135 -2.29,0.03 -0.271,0.055 -0.534,-0.123 -0.587,-0.394 -0.053,-0.271 0.123,-0.534 0.394,-0.587 0.98,-0.193 1.828,-0.114 2.576,-0.045 1.022,0.096 1.626,0.126 2.151,-0.326 1.727,-1.49 2.725,-8.642 3.684,-26.388 0.015,-0.276 0.251,-0.492 0.526,-0.473 0.276,0.015 0.487,0.251 0.473,0.526 -1.132,20.939 -2.246,25.551 -4.03,27.092 -0.583,0.502 -1.214,0.629 -1.878,0.629 z"
   id="path268" />

		</g>

	</g>

	<rect
   id="XMLID_591_"
   x="99.296997"
   y="265.91901"
   style="fill:#824b4c"
   width="89.615997"
   height="9.7869997" />

	<path
   id="XMLID_471_"
   style="fill:#ffa988"
   d="m 213.289,291.078 c -4.798,1.634 -11.04,2.462 -13.852,1.548 4.461,17.331 2.541,8.097 2.398,14.697 -0.081,3.74 -2.857,17.508 0.15,19.524 2.275,1.525 3.119,-4.744 3.95,-8.516 1.152,-5.229 9.69,2.428 4.616,14.467 -0.501,1.189 -3.458,6.859 0.313,8.788 7.303,-9.668 10.632,-25.934 2.566,-38.426 -0.819,-1.267 -0.604,-1.342 -0.141,-12.082 z" />

	<path
   id="XMLID_468_"
   style="fill:#bd2f2f"
   d="m 215.64,302.168 c 1.003,-0.155 0.798,-1.215 0.884,-3.195 -5.631,1.653 -17.358,0.93 -17.358,0.93 0.732,2.477 -0.944,4.959 16.474,2.265 z" />

	<g
   id="XMLID_849_">
		<path
   id="XMLID_841_"
   style="fill:#323d4d"
   d="m 125.262,277.34 c -0.378,0 -0.231,-14.531 -0.231,-14.189 0,-0.4 2.715,-0.231 2.358,-0.231 0.378,0 0.231,14.531 0.231,14.189 0,0.4 -2.715,0.231 -2.358,0.231 z" />

		<path
   id="XMLID_842_"
   style="fill:#323d4d"
   d="m 166.953,277.34 c -0.378,0 -0.231,-14.531 -0.231,-14.189 0,-0.4 2.715,-0.231 2.358,-0.231 0.378,0 0.231,14.531 0.231,14.189 0.001,0.4 -2.714,0.231 -2.358,0.231 z" />

	</g>

	<g
   id="XMLID_839_">
		<path
   style="fill:#ce8b35"
   d="m 142.444,277.048 c -4.818,0 -6.118,-0.156 -6.905,-0.937 -0.586,-0.582 -0.586,-1.359 -0.586,-1.777 0,-1.762 -0.016,-3.259 -0.029,-4.529 -0.049,-4.719 -0.066,-6.309 0.866,-7.25 0.564,-0.57 1.302,-0.636 1.808,-0.636 4.266,0 7.69,-0.025 10.437,-0.044 8.739,-0.065 10.559,-0.076 11.555,0.913 0.586,0.582 0.586,1.359 0.586,1.777 0,1.762 0.016,3.259 0.029,4.529 0.049,4.719 0.066,6.309 -0.866,7.25 -0.565,0.57 -1.302,0.636 -1.808,0.636 -4.267,0 -7.69,0.025 -10.437,0.044 -1.836,0.013 -3.367,0.024 -4.65,0.024 z M 152.81,263.85 c -1.356,0 -2.95,0.012 -4.76,0.025 -2.751,0.02 -6.179,0.044 -10.451,0.044 -0.309,0 -0.388,0.044 -0.391,0.046 -0.34,0.34 -0.315,2.758 -0.283,5.819 0.013,1.276 0.029,2.779 0.029,4.55 0,0.296 0.02,0.383 0.029,0.407 0.48,0.352 4.102,0.326 10.097,0.283 2.751,-0.02 6.179,-0.044 10.452,-0.044 0.309,0 0.388,-0.045 0.391,-0.046 0.34,-0.34 0.315,-2.758 0.283,-5.819 -0.013,-1.276 -0.029,-2.779 -0.029,-4.55 0,-0.296 -0.021,-0.383 -0.029,-0.407 -0.336,-0.246 -2.201,-0.308 -5.338,-0.308 z"
   id="path269" />

	</g>

	<g
   id="XMLID_487_">
		<path
   style="fill:#e95b4b"
   d="m 173.501,163.108 c -1.313,27.244 4.255,44.285 25.665,136.795 7.057,1.436 10.652,0.829 17.358,-0.93 5.618,-1.383 6.346,-147.936 -27.398,-151.068 -6.442,-0.599 -15.329,9.051 -15.625,15.203 z"
   id="path270" />

		<path
   style="fill:#bd2f2f"
   d="m 206.126,301.202 c -2.09,0 -4.322,-0.252 -7.06,-0.809 l -0.315,-0.064 -0.073,-0.314 C 195.067,284.41 191.925,271.033 189.152,259.23 175.559,201.356 171.906,185.801 173,163.083 c 0.17,-3.528 3.002,-8.259 7.048,-11.771 3.189,-2.769 6.423,-4.153 9.124,-3.906 20.374,1.892 27.201,53.01 29.458,83.314 2.425,32.571 1.404,67.904 -1.987,68.738 -4.151,1.09 -7.15,1.744 -10.517,1.744 z m -6.545,-1.725 c 6.764,1.338 10.192,0.751 16.816,-0.987 3.123,-1.872 5.079,-68.533 -5.062,-113.207 -5.357,-23.598 -12.845,-36.006 -22.255,-36.879 -2.39,-0.225 -5.438,1.114 -8.376,3.665 -3.792,3.293 -6.549,7.843 -6.704,11.064 l -0.5,-0.024 0.5,0.024 c -1.088,22.578 2.559,38.104 16.126,95.87 2.755,11.723 5.873,25.001 9.455,40.474 z"
   id="path271" />

	</g>

	<g
   id="XMLID_486_">
		<path
   style="fill:#fffffb"
   d="m 158.066,132.961 c -6.258,5.668 -21.719,5.921 -27.931,-0.564 -6.511,3.289 -28.255,10.074 -32.532,13.063 -9.845,6.881 -12.431,108.25 1.694,118.46 34.396,2.603 54.556,11.031 89.247,7.015 21.319,-5.819 3.928,-121.445 3.661,-122.446 -0.03,-0.114 -34.031,-15.483 -34.139,-15.528 z"
   id="path272" />

		<path
   style="fill:#f2e8de"
   d="m 170.46,272.486 c -14.065,0 -26.175,-1.924 -38.783,-3.928 -9.96,-1.583 -20.26,-3.22 -32.417,-4.14 l -0.141,-0.011 -0.114,-0.082 c -7.718,-5.579 -10.244,-35.864 -10.034,-62.348 0.202,-25.531 3.134,-53.284 8.346,-56.927 2.43,-1.698 10.249,-4.549 17.81,-7.307 6.128,-2.234 11.916,-4.345 14.783,-5.793 l 0.331,-0.167 0.256,0.268 c 6.241,6.517 21.324,5.893 27.234,0.54 l 0.234,-0.212 0.292,0.12 c 0.077,0.032 9.091,4.106 17.115,7.745 17.236,7.815 17.236,7.815 17.317,8.115 0.303,1.137 18.015,117.046 -4.012,123.058 -6.502,0.754 -12.52,1.069 -18.217,1.069 z m -70.981,-9.054 c 12.136,0.925 22.414,2.559 32.354,4.139 17.646,2.804 34.313,5.453 56.653,2.867 20.143,-5.504 4.171,-116.017 3.269,-121.619 -2.665,-1.286 -30.457,-13.851 -33.602,-15.27 -6.288,5.348 -21.494,5.945 -28.12,-0.544 -3.013,1.466 -8.63,3.514 -14.564,5.678 -7.501,2.735 -15.257,5.563 -17.58,7.187 -4.286,2.995 -7.69,27.12 -7.919,56.115 -0.259,32.766 3.469,56.824 9.509,61.447 z"
   id="path273" />

	</g>

	<g
   id="XMLID_396_">
		<path
   style="fill:#e95b4b"
   d="m 113.224,205.661 c 0.183,15.813 6.442,31.426 4.291,47.093 -10.11,73.618 -5.745,80.21 -10.504,80.286 -27.854,0.439 -27.465,1.016 -28.227,-1.097 -5.848,-16.227 -35.221,-148.881 18.392,-186.268 5.762,-4.018 21.778,-9.647 22.101,-8.353 4.618,18.504 -6.266,49.858 -6.053,68.339 z"
   id="path274" />

		<path
   style="fill:#bd2f2f"
   d="m 84.121,333.956 c -5.145,0 -5.285,-0.393 -5.793,-1.804 -3.33,-9.243 -11.819,-46.872 -13.146,-85.392 -1.218,-35.366 3.295,-81.683 31.708,-101.497 5.436,-3.791 20.489,-9.273 22.413,-8.549 0.324,0.121 0.426,0.356 0.459,0.485 2.798,11.21 0.013,26.788 -2.68,41.853 -1.771,9.905 -3.443,19.261 -3.358,26.602 0.076,6.61 1.242,13.307 2.37,19.784 1.561,8.962 3.174,18.228 1.916,27.383 -5.094,37.09 -6.512,57.166 -7.273,67.951 -0.779,11.028 -0.899,12.723 -3.718,12.768 -5.997,0.095 -10.685,0.195 -14.357,0.274 -3.805,0.083 -6.549,0.142 -8.541,0.142 z m 34.577,-196.335 c -2.347,0 -15.779,4.659 -21.235,8.464 -28.044,19.557 -32.49,65.524 -31.281,100.642 1.322,38.407 9.772,75.888 13.072,85.046 0.466,1.297 0.474,1.32 13.386,1.042 3.673,-0.079 8.363,-0.18 14.363,-0.274 1.84,-0.029 1.984,-1.198 2.736,-11.838 0.763,-10.797 2.182,-30.893 7.281,-68.016 1.236,-9.001 -0.364,-18.189 -1.911,-27.076 -1.134,-6.516 -2.308,-13.253 -2.385,-19.943 -0.086,-7.436 1.595,-16.837 3.374,-26.79 2.66,-14.878 5.41,-30.259 2.74,-41.25 -0.041,-0.005 -0.088,-0.007 -0.14,-0.007 z"
   id="path275" />

	</g>

	<polygon
   id="XMLID_470_"
   style="fill:#ffa988"
   points="97.827,286.754 108.711,277.524 93.204,255.114 80.368,268.448 " />

	<g
   id="XMLID_473_">
		<path
   style="fill:#e95b4b"
   d="m 38.122,234.167 c 11.859,19.26 37.678,52.587 50.603,43.758 9.099,-4.162 6.459,-6.566 13.221,-11.286 8.42,-5.877 -11.536,-24.058 -22.898,-37.806 -2.194,-2.655 -1.013,-3.384 1.061,-6.524 17.917,-27.13 18.495,-77.545 18.495,-77.545 -5.97,1.166 -11.361,3.144 -16.303,8.086 -5.301,5.3 -51.649,69.186 -44.179,81.317 z"
   id="path276" />

		<path
   style="fill:#bd2f2f"
   d="m 83.882,279.884 c -0.815,0 -1.668,-0.094 -2.553,-0.282 -14.402,-3.067 -34.839,-30.89 -43.633,-45.173 -7.82,-12.702 39.902,-77.585 44.251,-81.933 5.463,-5.463 11.437,-7.223 16.561,-8.224 l 0.603,-0.118 -0.007,0.614 c -0.006,0.505 -0.786,50.873 -18.578,77.814 -0.298,0.453 -0.579,0.855 -0.833,1.221 -1.496,2.149 -1.898,2.727 -0.26,4.71 2.384,2.884 5.089,5.901 7.954,9.094 8.721,9.721 17.738,19.774 17.036,25.853 -0.172,1.485 -0.909,2.692 -2.191,3.587 -2.8,1.955 -3.932,3.479 -5.027,4.954 -1.499,2.019 -2.915,3.926 -8.272,6.376 -1.451,0.999 -3.151,1.507 -5.051,1.507 z M 98.09,145.376 c -4.836,0.994 -10.378,2.769 -15.437,7.827 -6.025,6.025 -51.245,69.107 -44.106,80.702 8.716,14.157 28.919,41.723 42.99,44.719 2.669,0.568 4.993,0.194 6.905,-1.112 5.198,-2.385 6.478,-4.109 7.959,-6.105 1.089,-1.467 2.323,-3.13 5.257,-5.178 1.051,-0.734 1.63,-1.677 1.77,-2.882 0.651,-5.631 -8.213,-15.514 -16.786,-25.07 -2.872,-3.201 -5.584,-6.225 -7.981,-9.125 -2.122,-2.568 -1.294,-3.758 0.21,-5.918 0.251,-0.36 0.526,-0.756 0.82,-1.201 16.564,-25.082 18.251,-70.806 18.399,-76.657 z"
   id="path277" />

	</g>

	<g
   id="XMLID_414_">
		<path
   style="fill:#e95b4b"
   d="m 176.755,252.71 c -2.069,16.952 2.695,33.921 3.849,50.96 1.904,28.123 -0.943,31.445 4.523,32.445 5.105,0.934 25.594,2.652 25.501,-2.518 -0.88,-49.002 3.272,-169.837 -18.423,-185.109 -18.506,-8.452 -18.948,-8.891 -18.785,-8.206 18.588,78.491 10.444,54.18 3.335,112.428 z"
   id="path278" />

		<path
   style="fill:#bd2f2f"
   d="m 198.635,337.647 c -5.614,0 -11.465,-0.65 -13.598,-1.04 -3.977,-0.728 -4.002,-2.617 -4.121,-11.696 -0.064,-4.844 -0.151,-11.478 -0.81,-21.207 -0.398,-5.885 -1.243,-11.865 -2.061,-17.648 -1.547,-10.944 -3.146,-22.261 -1.786,-33.406 1.953,-16.003 4.014,-25.925 5.519,-33.17 4.003,-19.273 4.619,-22.235 -8.844,-79.082 -0.027,-0.115 -0.11,-0.464 0.179,-0.701 0.427,-0.35 0.425,-0.351 7.685,3 2.727,1.259 6.474,2.988 11.615,5.337 18.424,12.959 18.501,99.28 18.552,156.4 0.01,11.328 0.019,21.112 0.163,29.154 0.013,0.747 -0.308,1.405 -0.954,1.954 -1.893,1.606 -6.625,2.105 -11.539,2.105 z m -21.88,-84.937 0.496,0.061 c -1.344,11.015 0.246,22.265 1.784,33.146 0.819,5.801 1.667,11.8 2.068,17.72 0.66,9.757 0.748,16.406 0.812,21.262 0.121,9.143 0.236,10.165 3.301,10.726 4.625,0.847 20.726,2.199 24.31,-0.844 0.413,-0.351 0.609,-0.734 0.602,-1.174 -0.145,-8.05 -0.153,-17.838 -0.163,-29.172 -0.05,-56.913 -0.127,-142.922 -18.047,-155.537 -5.063,-2.303 -8.811,-4.033 -11.539,-5.292 -3.427,-1.582 -5.429,-2.506 -6.336,-2.868 13.374,56.514 12.743,59.553 8.715,78.946 -1.501,7.228 -3.558,17.126 -5.506,33.088 z"
   id="path279" />

	</g>

	<g
   id="XMLID_708_">
		<g
   id="XMLID_465_">
			<path
   style="fill:#bd2f2f"
   d="m 66.254,232.779 c -0.097,0 -0.195,-0.028 -0.281,-0.087 -0.228,-0.155 -0.288,-0.466 -0.132,-0.695 2.257,-3.319 5.762,-7.5 10.27,-5.871 -0.312,-1.468 -3.063,-6.489 -6.461,-9.987 -0.192,-0.198 -0.188,-0.514 0.011,-0.707 0.197,-0.192 0.515,-0.188 0.707,0.011 3.35,3.449 7.487,10.213 6.624,11.49 -0.078,0.115 -0.38,0.471 -0.993,0.221 -3.021,-1.236 -5.985,0.484 -9.331,5.405 -0.097,0.144 -0.254,0.22 -0.414,0.22 z"
   id="path280" />

		</g>

		<g
   id="XMLID_463_">
			<path
   style="fill:#bd2f2f"
   d="m 91.388,292.328 c -0.138,0 -0.274,-0.057 -0.373,-0.168 -0.184,-0.206 -0.166,-0.522 0.041,-0.705 6.238,-5.56 12.731,-10.99 19.299,-16.142 0.217,-0.171 0.532,-0.132 0.702,0.085 0.17,0.217 0.132,0.532 -0.085,0.702 -6.552,5.138 -13.029,10.556 -19.251,16.101 -0.096,0.085 -0.215,0.127 -0.333,0.127 z"
   id="path281" />

		</g>

		<g
   id="XMLID_469_">
			<path
   style="fill:#bd2f2f"
   d="m 206.284,292.328 c -0.119,0 -0.237,-0.042 -0.332,-0.126 -6.224,-5.547 -12.702,-10.964 -19.252,-16.101 -0.217,-0.17 -0.255,-0.485 -0.085,-0.702 0.17,-0.217 0.484,-0.255 0.702,-0.085 6.567,5.15 13.06,10.581 19.3,16.141 0.206,0.184 0.225,0.5 0.041,0.706 -0.1,0.11 -0.237,0.167 -0.374,0.167 z"
   id="path282" />

		</g>

	</g>

	<path
   id="XMLID_466_"
   style="fill:#bd2f2f"
   d="m 91.403,279.744 c -0.691,0.477 -1.263,-0.453 -2.679,-1.819 5.22,-2.682 13.221,-11.286 13.221,-11.286 1.221,2.387 4.196,2.946 -10.542,13.105 z" />

	<g
   id="XMLID_878_">
		<g
   id="XMLID_877_">
			<g
   id="XMLID_711_">
				<path
   style="fill:#f2e8de"
   d="m 135.917,147.241 c -0.047,0 -0.094,-0.002 -0.142,-0.006 -1.207,-0.098 -2.086,-1.423 -3.837,-4.063 -1.385,-2.088 -3.281,-4.948 -6.273,-8.677 -0.173,-0.215 -0.138,-0.53 0.077,-0.703 0.216,-0.172 0.53,-0.137 0.703,0.077 3.021,3.765 4.932,6.646 6.327,8.751 1.472,2.221 2.361,3.561 3.084,3.62 0.781,0.04 2.026,-1.293 4.104,-3.538 0.94,-1.015 2.072,-2.238 3.464,-3.667 0.883,-0.907 2.439,0.593 4.792,2.863 1.612,1.556 3.831,3.661 4.731,3.624 0.079,-0.006 0.126,-0.03 0.174,-0.091 1.235,-1.573 2.57,-3.355 3.861,-5.077 1.535,-2.048 3.122,-4.166 4.56,-5.959 0.172,-0.215 0.488,-0.249 0.703,-0.077 0.215,0.173 0.25,0.488 0.077,0.703 -1.428,1.78 -3.01,3.891 -4.54,5.933 -1.294,1.727 -2.633,3.512 -3.875,5.094 -0.222,0.283 -0.531,0.446 -0.892,0.471 -1.267,0.061 -2.994,-1.489 -5.494,-3.902 -1.174,-1.133 -2.946,-2.843 -3.454,-2.843 -1.312,1.379 -2.438,2.596 -3.373,3.606 -2.42,2.614 -3.574,3.861 -4.777,3.861 z"
   id="path283" />

			</g>

			<g
   id="XMLID_851_">
				<path
   style="fill:#f2e8de"
   d="m 147.061,269.306 c -0.244,0 -0.457,-0.178 -0.494,-0.426 -6.241,-41.572 -3.29,-54.852 -0.919,-65.522 1.23,-5.538 2.293,-10.32 1.851,-18.026 -0.323,-5.624 -1.128,-11.763 -1.906,-17.7 -1.208,-9.216 -2.456,-18.747 -1.949,-26.652 0.018,-0.275 0.238,-0.484 0.531,-0.467 0.275,0.018 0.484,0.255 0.467,0.531 -0.502,7.808 0.741,17.289 1.942,26.458 0.78,5.955 1.587,12.112 1.912,17.773 0.451,7.844 -0.626,12.69 -1.872,18.301 -2.353,10.589 -5.281,23.769 0.933,65.157 0.041,0.273 -0.148,0.528 -0.42,0.569 -0.027,0.002 -0.052,0.004 -0.076,0.004 z"
   id="path284" />

			</g>

			<g
   id="XMLID_856_">
				<path
   style="fill:#f2e8de"
   d="m 168.592,200.117 c -3.36,0 -4.731,-0.149 -5.464,-0.874 -0.488,-0.482 -0.55,-1.139 -0.55,-1.657 0,-2.648 -0.024,-4.856 -0.044,-6.697 -0.065,-5.958 -0.087,-7.966 0.846,-8.91 0.482,-0.488 1.139,-0.55 1.657,-0.55 2.646,0 4.854,-0.024 6.694,-0.044 5.957,-0.066 7.968,-0.087 8.913,0.847 0.488,0.482 0.55,1.139 0.55,1.656 0,2.646 0.024,4.854 0.044,6.694 0.065,5.96 0.087,7.969 -0.846,8.913 -0.483,0.488 -1.139,0.55 -1.657,0.55 -2.648,0 -4.856,0.024 -6.697,0.044 -1.336,0.016 -2.474,0.028 -3.446,0.028 z m 6.501,-17.758 c -0.963,0 -2.077,0.012 -3.352,0.026 -1.843,0.02 -4.055,0.044 -6.705,0.044 -0.612,0 -0.822,0.128 -0.946,0.254 -0.64,0.647 -0.612,3.169 -0.557,8.196 0.02,1.844 0.044,4.056 0.044,6.708 0,0.612 0.129,0.822 0.254,0.946 0.646,0.641 3.172,0.613 8.196,0.557 1.843,-0.02 4.056,-0.044 6.708,-0.044 0.612,0 0.821,-0.128 0.946,-0.253 0.64,-0.647 0.612,-3.171 0.557,-8.199 -0.02,-1.843 -0.044,-4.055 -0.044,-6.705 0,-0.612 -0.128,-0.821 -0.253,-0.945 -0.484,-0.479 -2.013,-0.585 -4.848,-0.585 z"
   id="path285" />

			</g>

			<g
   id="XMLID_861_">
				<path
   style="fill:#f2e8de"
   d="m 161.828,269.279 c -0.137,0 -0.273,-0.056 -0.372,-0.166 -0.185,-0.206 -0.168,-0.521 0.037,-0.706 3.519,-3.165 4.979,-8.526 3.551,-13.038 -0.083,-0.263 0.063,-0.544 0.326,-0.627 0.267,-0.085 0.544,0.063 0.628,0.326 1.543,4.874 -0.034,10.665 -3.835,14.083 -0.097,0.085 -0.216,0.128 -0.335,0.128 z"
   id="path286" />

			</g>

			<g
   id="XMLID_866_">
				<path
   style="fill:#f2e8de"
   d="m 129.836,266.846 c -4.946,-0.397 -6.294,-5.672 -6.921,-10.224 -0.038,-0.273 0.153,-0.526 0.427,-0.563 0.28,-0.044 0.526,0.153 0.563,0.427 0.576,4.181 1.775,9.024 5.971,9.362 0.275,0.022 0.48,0.264 0.459,0.539 -0.022,0.26 -0.241,0.459 -0.499,0.459 z"
   id="path287" />

			</g>

		</g>

		<g
   id="XMLID_876_">
			<path
   id="XMLID_868_"
   style="fill:#f2e8de"
   d="m 146.882,149.491 c -2.7,-1.056 -0.989,-3.277 0.314,-3.277 1.663,-0.001 1.343,3.925 -0.314,3.277 z" />

			<path
   id="XMLID_870_"
   style="fill:#f2e8de"
   d="m 150.341,173.584 c -2.701,-1.056 -0.989,-3.277 0.314,-3.277 1.663,0 1.343,3.925 -0.314,3.277 z" />

			<path
   id="XMLID_871_"
   style="fill:#f2e8de"
   d="m 151.834,198.556 c -2.701,-1.056 -0.989,-3.277 0.314,-3.277 1.663,0 1.343,3.925 -0.314,3.277 z" />

			<path
   id="XMLID_872_"
   style="fill:#f2e8de"
   d="m 148.376,220.711 c -2.7,-1.056 -0.989,-3.277 0.314,-3.277 1.662,0 1.342,3.925 -0.314,3.277 z" />

			<path
   id="XMLID_873_"
   style="fill:#f2e8de"
   d="m 147.577,244.22 c -2.7,-1.056 -0.989,-3.277 0.314,-3.277 1.663,0 1.343,3.925 -0.314,3.277 z" />

			<path
   id="XMLID_874_"
   style="fill:#f2e8de"
   d="m 149.917,267.177 c -2.701,-1.056 -0.989,-3.278 0.314,-3.278 1.663,0 1.343,3.925 -0.314,3.278 z" />

		</g>

	</g>

</g>
  </g>
</svg>
