<?xml version="1.0" encoding="UTF-8" standalone="no"?>
<!-- Created with Inkscape (http://www.inkscape.org/) -->

<svg
   width="39.328415mm"
   height="126.09606mm"
   viewBox="0 0 39.328415 126.09606"
   version="1.1"
   id="svg1"
   inkscape:version="1.4.2 (f4327f4, 2025-05-13)"
   sodipodi:docname="man3.svg"
   xmlns:inkscape="http://www.inkscape.org/namespaces/inkscape"
   xmlns:sodipodi="http://sodipodi.sourceforge.net/DTD/sodipodi-0.dtd"
   xmlns="http://www.w3.org/2000/svg"
   xmlns:svg="http://www.w3.org/2000/svg">
  <sodipodi:namedview
     id="namedview1"
     pagecolor="#ffffff"
     bordercolor="#000000"
     borderopacity="0.25"
     inkscape:showpageshadow="2"
     inkscape:pageopacity="0.0"
     inkscape:pagecheckerboard="0"
     inkscape:deskcolor="#d1d1d1"
     inkscape:document-units="mm"
     inkscape:zoom="1.2275954"
     inkscape:cx="319.32345"
     inkscape:cy="125.4485"
     inkscape:window-width="2880"
     inkscape:window-height="1676"
     inkscape:window-x="-12"
     inkscape:window-y="-12"
     inkscape:window-maximized="1"
     inkscape:current-layer="layer1" />
  <defs
     id="defs1" />
  <g
     inkscape:label="图层 1"
     inkscape:groupmode="layer"
     id="layer1"
     transform="translate(-20.63749,-115.35833)">
    <g
       id="XMLID_657_"
       transform="matrix(0.26458333,0,0,0.26458333,-187.67449,99.205387)">
	<path
   id="XMLID_562_"
   style="fill:#fda98b"
   d="m 884.971,116.996 c -0.138,11.329 -3.891,19.73 16.944,29.534 -12.402,17.062 -24.616,23.367 -24.616,23.367 0,0 -26.13,-11.762 -35.109,-19.545 11.046,-8.037 19.074,-9.003 18.869,-19.778 -0.049,-2.587 0.072,-13.162 0.141,-13.367 z" />

	<path
   id="XMLID_560_"
   style="fill:#fda98b"
   d="M 888.82,78.315 C 878.731,64.207 854.926,67.77 852.155,89.418 c -2.749,21.473 7.644,38.382 13.68,40.036 5.47,1.498 10.872,2.159 15.443,-0.933 12.008,-8.124 16.644,-37.478 7.542,-50.206 z" />

	<path
   id="XMLID_757_"
   style="fill:#30323e"
   d="m 857.797,64.512 c -1.756,6.656 -10.971,4.863 -9.2,13.379 l 3.414,26.626 c 0.466,-5.402 1.28,-17.337 3.784,-18.53 8.581,-4.09 25.07,-3.295 32.249,0.154 2.12,1.018 4.825,19.555 4.825,19.555 12.697,-30.848 0.616,-32.421 1.237,-38.473 0.743,-7.239 -9.127,1.382 -13.283,-4.527 -1.158,-1.646 -6.257,2.002 -7.43,-0.069 -2.208,-3.899 -8.95,0.459 -9.328,2.107 -1.249,-1.654 -5.63,-2.641 -6.268,-0.222 z" />

	<path
   id="XMLID_558_"
   style="fill:#30323e"
   d="m 867.263,91.548 c -4.638,-1.022 -12.597,3.967 -10.011,4.49 0.845,0.171 3.212,-1.255 4.12,-1.507 1.82,-0.505 5.341,-0.255 6.335,-1.45 0.408,-0.491 0.148,-1.403 -0.444,-1.533 z" />

	<path
   id="XMLID_556_"
   style="fill:#30323e"
   d="m 877.549,93.168 c 0.997,1.193 4.516,0.936 6.338,1.437 0.908,0.25 3.278,1.671 4.123,1.498 2.585,-0.528 -5.395,-5.547 -10.02,-4.47 -0.657,0.153 -0.85,1.044 -0.441,1.535 z" />

	<g
   id="XMLID_547_">
		<g
   id="XMLID_554_">
			<path
   id="XMLID_555_"
   style="fill:#fda98b"
   d="m 849.701,99.015 c 4.102,-1.206 4.36,7.383 4.371,11.647 0.021,8.404 -10.831,-9.748 -4.371,-11.647 z" />

		</g>

		<g
   id="XMLID_552_">
			<path
   id="XMLID_553_"
   style="fill:#ee795c"
   d="m 850.577,103.214 c 0.121,-0.393 0.709,-0.207 0.59,0.181 -0.723,2.362 -0.005,3.747 0.966,4.28 0.15,0.082 0.204,0.27 0.122,0.419 -0.546,0.993 -2.712,-1.502 -1.678,-4.88 z" />

		</g>

		<g
   id="XMLID_550_">
			<path
   id="XMLID_551_"
   style="fill:#fda98b"
   d="m 895.493,98.897 c -4.102,-1.206 -4.361,7.384 -4.371,11.647 -0.02,8.405 10.832,-9.748 4.371,-11.647 z" />

		</g>

		<g
   id="XMLID_548_">
			<path
   id="XMLID_549_"
   style="fill:#ee795c"
   d="m 894.618,103.097 c -0.121,-0.393 -0.709,-0.207 -0.59,0.181 0.723,2.362 0.005,3.747 -0.966,4.28 -0.15,0.082 -0.204,0.27 -0.122,0.419 0.545,0.992 2.712,-1.503 1.678,-4.88 z" />

		</g>

	</g>

	<g
   id="XMLID_544_">
		<path
   id="XMLID_546_"
   style="fill:#382823"
   d="m 863.107,102.644 c -1.344,0 -2.395,-5.109 0.865,-5.109 1.739,0 1.333,5.109 -0.865,5.109 z" />

		<path
   id="XMLID_545_"
   style="fill:#382823"
   d="m 883.066,102.848 c 1.344,0 2.395,-5.109 -0.865,-5.109 -1.739,-0.001 -1.334,5.109 0.865,5.109 z" />

	</g>

	<g
   id="XMLID_542_">
		<path
   id="XMLID_543_"
   style="fill:#ee795c"
   d="m 861.338,126.133 c 0.168,-0.13 0.41,-0.098 0.54,0.07 3.526,4.571 15.965,6.123 21.935,-0.402 0.344,-0.376 0.91,0.145 0.568,0.52 -8.816,9.632 -25.255,1.518 -23.043,-0.188 z" />

	</g>

	<g
   id="XMLID_540_">
		<path
   id="XMLID_541_"
   style="fill:#ee795c"
   d="m 870.843,110.964 c -0.135,-0.567 0.828,-0.619 1.432,-0.754 2.218,-0.495 2.317,0.592 1.287,-8.716 -0.201,-1.817 -0.508,-2.793 0.14,-2.844 0.612,-0.038 0.449,0.683 0.678,2.753 1.119,10.11 1.142,8.868 -3.04,9.865 -0.218,0.053 -0.443,-0.08 -0.497,-0.304 z" />

	</g>

	<path
   id="XMLID_539_"
   style="fill:#ee795c"
   d="m 868.09,118.959 c -0.551,-1 0.887,-0.733 9.671,-1.657 2.637,-0.278 -5.103,9.954 -9.671,1.657 z" />

	<g
   id="XMLID_582_">
		<path
   id="XMLID_611_"
   style="fill:#fda98b"
   d="m 907.556,517.759 c 3.762,2.896 7.869,3.633 13.174,0.574 l -0.752,-26.053 -16.809,0.473 z" />

		<polygon
   id="XMLID_610_"
   style="fill:#fda98b"
   points="817.793,517.516 831.105,518.79 833.48,494.058 817.201,494.516 " />

		<g
   id="XMLID_597_">
			<path
   id="XMLID_608_"
   style="fill:#373535"
   d="m 922.963,534.234 c -1.752,1.275 -1.499,0.924 -39.566,2.734 -7.622,0.362 -7.958,-3.569 -4.013,-6.023 6.006,-3.736 27.713,-15.749 29.089,-14.94 3.898,2.294 5.875,2.67 11.993,1.82 0.999,-0.139 7.746,12.587 2.497,16.409 z" />

			<path
   id="XMLID_606_"
   style="fill:#ffffff"
   d="m 924.768,527.155 c 0.308,1.12 0.542,2.283 0.487,3.486 -0.051,1.181 -0.4,2.48 -1.32,3.415 -0.904,0.946 -2.162,1.39 -3.333,1.65 -1.24,0.246 -2.34,0.307 -3.509,0.454 -4.614,0.482 -9.239,0.775 -13.865,1.099 -4.633,0.183 -9.267,0.412 -13.914,0.37 -2.324,-0.038 -4.648,-0.08 -6.978,-0.262 -1.164,-0.117 -2.326,-0.232 -3.495,-0.546 l -0.44,-0.152 c -0.147,-0.062 -0.313,-0.176 -0.445,-0.268 -0.206,-0.201 -0.425,-0.419 -0.604,-0.665 -0.362,-0.485 -0.584,-1.117 -0.479,-1.711 l 0.1,0.009 c -0.056,0.568 0.187,1.124 0.556,1.554 0.182,0.22 0.394,0.412 0.613,0.602 0.121,0.068 0.234,0.142 0.365,0.192 l 0.411,0.118 c 1.124,0.238 2.288,0.291 3.44,0.341 2.311,0.091 4.627,0.058 6.94,0.012 4.628,-0.106 9.253,-0.329 13.874,-0.591 4.623,-0.25 9.244,-0.541 13.861,-0.879 1.15,-0.103 2.319,-0.133 3.449,-0.323 1.12,-0.208 2.261,-0.583 3.086,-1.388 0.852,-0.777 1.243,-1.935 1.356,-3.065 0.109,-1.146 -0.04,-2.301 -0.255,-3.433 z" />

			<g
   id="XMLID_604_">
				<path
   style="fill:#ffffff"
   d="m 904.748,525.069 c -0.062,0 -0.125,-0.012 -0.186,-0.036 -2.116,-0.848 -3.958,-2.258 -5.329,-4.077 -0.166,-0.221 -0.122,-0.534 0.099,-0.7 0.221,-0.165 0.535,-0.122 0.7,0.099 1.261,1.674 2.956,2.971 4.902,3.751 0.256,0.103 0.381,0.394 0.278,0.649 -0.078,0.195 -0.266,0.314 -0.464,0.314 z"
   id="path159" />

			</g>

			<g
   id="XMLID_602_">
				<path
   style="fill:#ffffff"
   d="m 900.313,527.5 c -0.068,0 -0.138,-0.014 -0.204,-0.044 -0.049,-0.022 -4.871,-2.249 -4.727,-4.571 0.017,-0.274 0.268,-0.484 0.53,-0.468 0.276,0.017 0.485,0.254 0.468,0.53 -0.065,1.05 2.366,2.803 4.138,3.597 0.252,0.112 0.365,0.408 0.252,0.66 -0.084,0.186 -0.266,0.296 -0.457,0.296 z"
   id="path160" />

			</g>

			<g
   id="XMLID_600_">
				<path
   style="fill:#ffffff"
   d="m 896.56,529.433 c -1.82,-0.769 -4.208,-1.778 -5.127,-4.049 -0.103,-0.256 0.02,-0.547 0.276,-0.651 0.255,-0.103 0.547,0.021 0.651,0.276 0.764,1.886 2.93,2.802 4.512,3.47 l -0.118,0.493 z"
   id="path161" />

			</g>

			<g
   id="XMLID_598_">
				<path
   style="fill:#ffffff"
   d="m 887.657,534.561 c -3.125,0 -6.455,-0.336 -7.105,-3.322 -0.059,-0.269 0.112,-0.536 0.382,-0.595 0.267,-0.06 0.536,0.111 0.595,0.382 0.573,2.633 4.248,2.572 7.493,2.521 0.445,-0.007 0.863,0.002 1.291,-0.014 0.276,0 0.499,0.225 0.499,0.5 0,0.276 -0.224,0.5 -0.5,0.5 -0.393,-0.015 -0.835,0.007 -1.274,0.014 -0.449,0.007 -0.913,0.014 -1.381,0.014 z"
   id="path162" />

			</g>

		</g>

		<g
   id="XMLID_584_">
			<path
   id="XMLID_596_"
   style="fill:#373535"
   d="m 833.438,534.132 c -1.751,1.275 -1.499,0.924 -39.566,2.734 -7.622,0.362 -7.958,-3.57 -4.013,-6.023 6.006,-3.736 27.713,-15.749 29.089,-14.94 3.898,2.294 5.875,2.67 11.993,1.82 0.999,-0.139 7.746,12.587 2.497,16.409 z" />

			<path
   id="XMLID_594_"
   style="fill:#ffffff"
   d="m 835.243,527.053 c 0.308,1.12 0.542,2.283 0.487,3.486 -0.051,1.181 -0.4,2.48 -1.32,3.415 -0.904,0.947 -2.162,1.39 -3.333,1.65 -1.24,0.246 -2.34,0.307 -3.509,0.454 -4.614,0.482 -9.239,0.775 -13.865,1.099 -4.633,0.183 -9.267,0.412 -13.914,0.37 -2.324,-0.038 -4.648,-0.079 -6.978,-0.262 -1.164,-0.117 -2.326,-0.232 -3.495,-0.546 l -0.441,-0.152 c -0.147,-0.062 -0.313,-0.176 -0.445,-0.268 -0.206,-0.201 -0.425,-0.419 -0.604,-0.665 -0.362,-0.485 -0.584,-1.117 -0.479,-1.711 l 0.1,0.009 c -0.056,0.568 0.187,1.124 0.556,1.554 0.182,0.22 0.394,0.412 0.613,0.602 0.121,0.068 0.234,0.142 0.365,0.192 l 0.411,0.118 c 1.124,0.238 2.288,0.291 3.44,0.341 2.311,0.091 4.627,0.058 6.94,0.012 4.628,-0.106 9.253,-0.329 13.875,-0.591 4.623,-0.25 9.244,-0.541 13.861,-0.879 1.15,-0.103 2.319,-0.133 3.448,-0.323 1.121,-0.208 2.262,-0.584 3.086,-1.388 0.852,-0.777 1.243,-1.935 1.356,-3.065 0.109,-1.146 -0.04,-2.301 -0.255,-3.433 z" />

			<g
   id="XMLID_592_">
				<path
   style="fill:#ffffff"
   d="m 815.223,524.967 c -0.062,0 -0.125,-0.012 -0.186,-0.036 -2.116,-0.847 -3.958,-2.257 -5.328,-4.077 -0.166,-0.221 -0.122,-0.534 0.099,-0.7 0.222,-0.167 0.535,-0.121 0.7,0.099 1.26,1.675 2.955,2.972 4.901,3.751 0.256,0.103 0.381,0.393 0.278,0.649 -0.079,0.195 -0.266,0.314 -0.464,0.314 z"
   id="path163" />

			</g>

			<g
   id="XMLID_589_">
				<path
   style="fill:#ffffff"
   d="m 810.788,527.398 c -0.068,0 -0.138,-0.014 -0.204,-0.044 -0.049,-0.021 -4.871,-2.249 -4.727,-4.572 0.017,-0.274 0.257,-0.485 0.53,-0.468 0.276,0.017 0.485,0.254 0.468,0.53 -0.065,1.051 2.366,2.804 4.138,3.598 0.252,0.112 0.365,0.408 0.251,0.66 -0.083,0.186 -0.265,0.296 -0.456,0.296 z"
   id="path164" />

			</g>

			<g
   id="XMLID_587_">
				<path
   style="fill:#ffffff"
   d="m 807.034,529.331 c -1.818,-0.768 -4.207,-1.778 -5.126,-4.049 -0.103,-0.256 0.02,-0.547 0.276,-0.651 0.256,-0.101 0.548,0.021 0.651,0.276 0.764,1.886 2.932,2.802 4.514,3.471 l -0.12,0.492 z"
   id="path165" />

			</g>

			<g
   id="XMLID_585_">
				<path
   style="fill:#ffffff"
   d="m 798.132,534.459 c -3.125,0 -6.455,-0.336 -7.106,-3.322 -0.059,-0.269 0.112,-0.536 0.382,-0.595 0.268,-0.059 0.536,0.112 0.595,0.382 0.573,2.633 4.248,2.575 7.493,2.521 0.445,-0.007 0.86,-0.027 1.291,-0.014 0.276,0 0.499,0.225 0.499,0.5 0,0.276 -0.224,0.5 -0.5,0.5 -0.387,0.006 -0.835,0.007 -1.274,0.014 -0.448,0.007 -0.912,0.014 -1.38,0.014 z"
   id="path166" />

			</g>

		</g>

	</g>

	<g
   id="XMLID_581_">
		<path
   style="fill:#3d4a61"
   d="m 834.265,512.275 c 0.588,0.096 1.161,-0.281 1.308,-0.859 22.3,-87.378 -0.627,-46.356 32.485,-180.4 35.386,189.437 32.797,178.021 34.195,178.042 l 20.694,0.313 c 2.171,0.033 -4.146,-241.714 -12.415,-262.671 l -79.452,0.254 c -13.348,40.624 -17.213,244.901 -17.495,260.854 -0.021,1.229 -0.585,0.989 20.68,4.467 z"
   id="path167" />

		<path
   style="fill:#323d4d"
   d="m 834.448,512.789 c -0.087,0 -0.175,-0.007 -0.263,-0.022 l -6.134,-1 c -15.011,-2.441 -15.011,-2.441 -14.968,-3.881 0.4,-22.554 4.268,-220.747 17.523,-261.088 l 0.113,-0.343 80.154,-0.256 0.125,0.317 c 4.933,12.502 8.715,100.8 10.113,138.183 2.103,56.261 3.561,123.088 2.288,124.929 l -0.152,0.219 -0.307,0.024 -20.694,-0.313 c -0.063,0.063 -0.326,0.205 -0.628,0.064 -0.891,-0.423 -0.891,-0.423 -13.951,-70.642 -4.682,-25.173 -11.03,-59.312 -19.676,-105.602 -17.605,71.583 -18.902,92.112 -20.048,110.249 -0.961,15.219 -1.792,28.363 -11.885,67.913 -0.189,0.739 -0.868,1.249 -1.61,1.249 z m -3.003,-265.335 c -13.347,41.708 -17.202,251.432 -17.359,260.364 -0.005,0.171 -0.008,0.269 10e-4,0.297 0.313,0.42 4.074,1.031 14.125,2.667 l 6.135,1 c 0.335,0.059 0.659,-0.16 0.743,-0.489 10.07,-39.458 10.898,-52.559 11.856,-67.729 1.16,-18.366 2.475,-39.182 20.628,-112.668 l 0.553,-2.239 0.424,2.268 c 8.862,47.444 15.343,82.29 20.101,107.873 10.365,55.733 12.651,68.023 13.383,69.792 0.068,-0.02 0.149,-0.032 0.227,-0.031 l 20.346,0.309 c 0.815,-4.741 -0.156,-61.848 -2.528,-125.005 -2.91,-77.479 -6.508,-127.153 -9.892,-136.66 z"
   id="path168" />

	</g>

	<g
   id="XMLID_642_">
		<g
   id="XMLID_628_">
			<path
   style="fill:#323d4d"
   d="m 867.973,326.677 c -0.25,0 -0.466,-0.186 -0.496,-0.441 -2.223,-18.81 -1.457,-30.752 -0.896,-39.472 0.481,-7.499 0.772,-12.025 -1.294,-15.755 -0.134,-0.242 -0.046,-0.546 0.195,-0.68 0.24,-0.134 0.546,-0.047 0.68,0.195 2.207,3.986 1.91,8.623 1.417,16.304 -0.558,8.682 -1.321,20.572 0.892,39.291 0.032,0.274 -0.164,0.522 -0.438,0.555 -0.021,0.002 -0.041,0.003 -0.06,0.003 z"
   id="path169" />

		</g>

		<g
   id="XMLID_629_">
			<path
   style="fill:#323d4d"
   d="m 863.048,298.509 c -0.679,0 -1.323,-0.126 -1.914,-0.64 -1.775,-1.542 -2.883,-6.151 -4.014,-27.064 -0.015,-0.275 0.197,-0.511 0.473,-0.526 0.273,-0.027 0.511,0.196 0.526,0.472 0.971,17.953 1.931,24.852 3.671,26.363 0.527,0.458 1.136,0.431 2.163,0.34 0.748,-0.065 1.596,-0.137 2.577,0.056 0.271,0.054 0.447,0.317 0.394,0.587 -0.054,0.272 -0.319,0.451 -0.587,0.394 -0.841,-0.166 -1.581,-0.102 -2.298,-0.04 -0.337,0.029 -0.668,0.058 -0.991,0.058 z"
   id="path170" />

		</g>

		<g
   id="XMLID_631_">
			<path
   style="fill:#323d4d"
   d="m 832.467,507.946 c -0.022,0 -0.045,-0.002 -0.068,-0.005 -0.274,-0.037 -0.465,-0.29 -0.427,-0.564 3.236,-23.564 5.951,-43.539 8.266,-60.573 11.66,-85.796 13.158,-96.819 20.014,-116.138 0.092,-0.261 0.377,-0.398 0.638,-0.305 0.26,0.093 0.396,0.379 0.304,0.639 -6.821,19.221 -8.317,30.232 -19.965,115.939 -2.315,17.035 -5.03,37.01 -8.267,60.575 -0.035,0.251 -0.249,0.432 -0.495,0.432 z"
   id="path171" />

		</g>

		<g
   id="XMLID_632_">
			<path
   style="fill:#323d4d"
   d="m 914.022,293.061 c -0.165,0 -0.326,-0.081 -0.422,-0.23 -5.42,-8.479 -12.441,-18.819 -18.322,-26.985 -0.161,-0.224 -0.11,-0.536 0.114,-0.698 0.225,-0.16 0.537,-0.11 0.698,0.114 5.891,8.179 12.924,18.537 18.354,27.03 0.148,0.233 0.081,0.542 -0.152,0.691 -0.084,0.053 -0.177,0.078 -0.27,0.078 z"
   id="path172" />

		</g>

	</g>

	<g
   id="XMLID_564_">
		<path
   style="fill:#005f5b"
   d="m 857.17,140.531 c 4.769,13.242 27.77,11.407 35.24,0.521 8.949,3.099 21.998,10.4 26.005,13.606 6.787,16.928 6.192,118.787 -3.918,118.364 -27.091,-1.133 -96.238,17.825 -90.023,-18.222 5.829,-33.806 -5.532,-91.822 4.735,-105.309 2.631,-3.455 27.961,-8.96 27.961,-8.96 z"
   id="path173" />

		<path
   style="fill:#004243"
   d="m 856.271,277.523 c -12.51,0 -23.241,-1.79 -28.782,-7.72 -3.422,-3.662 -4.602,-8.738 -3.507,-15.087 2.616,-15.169 1.771,-34.914 0.955,-54.009 -1.008,-23.588 -1.879,-43.96 3.874,-51.518 2.666,-3.502 25.642,-8.58 28.253,-9.148 l 0.428,-0.093 0.148,0.412 c 1.75,4.861 6.177,7.983 12.464,8.792 8.591,1.104 17.801,-2.42 21.893,-8.383 l 0.215,-0.314 0.36,0.124 c 9.099,3.151 22.139,10.476 26.154,13.688 l 0.103,0.083 0.049,0.122 c 6.367,15.878 6.348,105.705 -2.061,117.592 -0.71,1.003 -1.495,1.506 -2.342,1.458 -6.737,-0.279 -16.242,0.702 -26.303,1.742 -10.596,1.097 -21.825,2.259 -31.901,2.259 z m 0.585,-136.411 c -7.292,1.604 -25.222,6.022 -27.249,8.684 -5.534,7.27 -4.629,28.448 -3.671,50.869 0.818,19.148 1.665,38.947 -0.969,54.222 -1.053,6.109 0.011,10.765 3.252,14.234 9.666,10.343 36.327,7.585 59.85,5.15 10.099,-1.045 19.635,-2.033 26.448,-1.747 0.48,0.021 0.983,-0.329 1.483,-1.037 8.303,-11.738 8.272,-100.417 1.998,-116.52 -4.025,-3.169 -16.49,-10.163 -25.398,-13.318 -4.395,6.064 -13.825,9.623 -22.624,8.496 -6.403,-0.823 -11.159,-4.106 -13.12,-9.033 z"
   id="path174" />

	</g>

	<g
   id="XMLID_656_">
		<path
   id="XMLID_538_"
   style="fill:#bcbec0"
   d="m 889.244,215.01 c -6.419,0.253 -41.148,0.398 -41.44,-6.008 -0.292,-6.389 -0.86,-31.548 5.491,-30.394 55.621,10.114 38.385,-12.589 39.244,33.914 0.028,1.513 -1.593,2.421 -3.295,2.488 z" />

		<g
   id="XMLID_655_">
			<g
   id="XMLID_645_">
				<path
   style="fill:#004243"
   d="m 850.375,196.79 c -0.061,0 -0.123,-0.011 -0.184,-0.035 -0.257,-0.102 -0.383,-0.392 -0.282,-0.649 0.772,-1.958 2.492,-2.576 4.67,-3.358 1.712,-0.615 3.844,-1.381 6.195,-3.034 0.771,-0.542 1.535,-1.155 2.273,-1.748 1.935,-1.553 3.935,-3.159 6.4,-3.795 0.27,-0.065 0.541,0.092 0.609,0.359 0.069,0.268 -0.092,0.54 -0.359,0.609 -2.257,0.581 -4.086,2.051 -6.024,3.605 -0.75,0.603 -1.527,1.226 -2.324,1.787 -2.461,1.73 -4.663,2.521 -6.432,3.156 -2.09,0.751 -3.471,1.247 -4.077,2.784 -0.077,0.199 -0.265,0.319 -0.465,0.319 z"
   id="path175" />

			</g>

			<g
   id="XMLID_648_">
				<path
   style="fill:#004243"
   d="m 857.726,201.832 c -0.153,0 -0.304,-0.07 -0.402,-0.202 -0.164,-0.222 -0.118,-0.535 0.104,-0.7 3.233,-2.397 6.576,-4.876 10.261,-6.713 3.983,-1.986 6.132,-3.607 7.858,-4.908 2.286,-1.723 3.796,-2.861 7.615,-3.171 0.278,-0.02 0.517,0.183 0.539,0.458 0.022,0.275 -0.183,0.517 -0.458,0.539 -3.53,0.286 -4.795,1.241 -7.094,2.973 -1.759,1.326 -3.949,2.977 -8.014,5.004 -3.607,1.799 -6.914,4.251 -10.112,6.623 -0.089,0.064 -0.193,0.097 -0.297,0.097 z"
   id="path176" />

			</g>

			<g
   id="XMLID_649_">
				<path
   style="fill:#004243"
   d="m 860.281,208.832 c -0.065,0 -0.132,-0.013 -0.196,-0.04 -0.254,-0.108 -0.373,-0.402 -0.264,-0.656 1.239,-2.912 2.886,-3.203 4.971,-3.571 1.546,-0.273 3.47,-0.613 5.963,-2.103 l 6.66,-3.979 c 0.235,-0.142 0.543,-0.065 0.686,0.173 0.142,0.237 0.064,0.544 -0.173,0.686 l -6.66,3.98 c -2.651,1.584 -4.676,1.942 -6.302,2.229 -2.062,0.364 -3.198,0.565 -4.225,2.977 -0.081,0.19 -0.266,0.304 -0.46,0.304 z"
   id="path177" />

			</g>

			<g
   id="XMLID_650_">
				<path
   style="fill:#004243"
   d="m 880.507,205.517 c -0.05,0 -0.101,-0.007 -0.151,-0.023 -0.263,-0.083 -0.409,-0.364 -0.326,-0.627 0.555,-1.751 2.352,-1.966 3.937,-2.155 0.898,-0.107 1.746,-0.208 2.308,-0.551 0.443,-0.27 0.803,-0.686 1.185,-1.126 0.478,-0.552 0.972,-1.122 1.681,-1.462 0.247,-0.12 0.547,-0.014 0.667,0.235 0.119,0.249 0.014,0.547 -0.235,0.667 -0.521,0.249 -0.927,0.718 -1.357,1.214 -0.415,0.479 -0.844,0.974 -1.42,1.325 -0.748,0.456 -1.746,0.575 -2.71,0.691 -1.706,0.204 -2.766,0.404 -3.102,1.464 -0.068,0.211 -0.264,0.348 -0.477,0.348 z"
   id="path178" />

			</g>

			<g
   id="XMLID_652_">
				<path
   style="fill:#004243"
   d="m 853.197,187.075 c -0.056,0 -0.112,-0.009 -0.167,-0.029 -0.26,-0.093 -0.396,-0.379 -0.304,-0.639 0.734,-2.063 1.433,-2.21 2.512,-2.279 0.924,-0.059 2.19,-0.14 4.565,-2.471 0.196,-0.193 0.513,-0.191 0.707,0.007 0.193,0.197 0.19,0.514 -0.007,0.707 -2.641,2.591 -4.182,2.69 -5.202,2.755 -0.788,0.05 -1.083,0.069 -1.633,1.616 -0.072,0.206 -0.265,0.333 -0.471,0.333 z"
   id="path179" />

			</g>

		</g>

	</g>

	<g
   id="XMLID_616_">
		<path
   id="XMLID_574_"
   style="fill:#ee795c"
   d="m 907.375,225.301 c 0.424,0.797 2.039,1.308 2.523,1.187 1.008,-0.253 0.622,-1.994 0.436,-3.763 -0.403,-3.828 -1.012,-4.969 -4.857,-7.134 -0.546,-0.308 -0.767,0.015 -0.685,0.598 0.202,1.419 2.561,9.071 2.583,9.112 z" />

		<path
   id="XMLID_573_"
   style="fill:#fda98b"
   d="m 903.686,211.327 c 2.741,1.235 2.721,1.77 4.112,4.241 1.95,3.461 4.026,4.162 4.863,5.417 1.837,2.755 -2.784,4.422 -5.263,-0.785 -4.615,2.38 -8.125,-7.587 -15.232,-3.122 -1.685,1.059 0.943,3.042 3.878,3.741 1.091,0.26 5.145,0.923 5.507,2.499 0.226,0.984 -0.691,2.021 -3.269,1.416 -10.163,-2.383 -12.479,0.202 -15.15,0.606 -3.918,0.593 -13.962,-3.126 -11.146,-8.759 1.073,-2.146 3.912,-2.424 5.927,-3.175 19.469,-7.257 9.35,-9.477 25.773,-2.079 z" />

	</g>

	<g
   id="XMLID_565_">
		<path
   style="fill:#005f5b"
   d="m 815.412,235.586 c 23.254,4.764 58.083,2.324 70.651,-9.437 1.748,-1.635 -2.182,-11.16 -2.506,-12.161 -17.902,-0.187 -39.518,-4.244 -57.316,-4.451 l 8.64,-8.338 c 9.262,-45.11 -5.932,-51.278 -5.932,-51.278 0.26,-0.428 -45.735,79.069 -13.537,85.665 z"
   id="path180" />

		<path
   style="fill:#004243"
   d="m 839.612,238.351 c -8.522,0 -16.959,-0.771 -24.3,-2.275 -4.765,-0.976 -8.139,-3.581 -10.026,-7.743 -9.088,-20.04 18.674,-70.595 22.95,-78.169 -0.014,-0.006 0.542,-0.925 0.542,-0.925 l 0.411,0.239 c 1.141,0.501 15.245,7.677 6.182,51.82 l -0.031,0.152 -7.881,7.605 c 8.574,0.181 18.098,1.207 27.322,2.202 9.741,1.05 19.814,2.136 28.781,2.229 l 0.359,0.004 0.111,0.342 c 0.041,0.126 0.14,0.39 0.279,0.758 2.706,7.199 3.332,10.765 2.094,11.923 -8.591,8.039 -27.893,11.838 -46.793,11.838 z m -24.1,-3.255 c 23.384,4.79 57.967,2.143 70.21,-9.313 0.477,-0.446 0.807,-2.449 -2.347,-10.841 -0.067,-0.177 -0.124,-0.331 -0.172,-0.459 -8.927,-0.118 -18.89,-1.192 -28.529,-2.231 -9.638,-1.039 -19.604,-2.113 -28.438,-2.216 l -1.218,-0.014 9.405,-9.076 c 8.141,-39.815 -3.023,-48.952 -5.28,-50.352 -4.127,7.301 -31.858,57.674 -22.945,77.325 1.747,3.854 4.88,6.269 9.314,7.177 z"
   id="path181" />

	</g>

	<g
   id="XMLID_630_">
		<path
   id="XMLID_641_"
   style="fill:#fda98b"
   d="m 870.808,225.069 c -1.229,-4.411 -0.733,-11.546 -0.522,-11.47 -4.652,-1.678 -8.542,5.349 -11.799,-2.548 -1.272,-3.417 -13.735,-15.572 -11.885,-10.449 0.686,1.901 2.742,5.268 1.69,4.42 -7.375,-5.946 -15.141,-14.45 -14.585,-10.775 0.242,1.603 10.23,11.958 9.23,11.12 -0.234,-0.196 -12.076,-10.667 -12.381,-10.681 -4.193,-0.194 3.285,6.177 9.554,12.677 0.797,0.827 -11.533,-8.45 -11.545,-8.447 -2.854,0.854 1.109,3.411 11.265,12.441 1.373,1.221 -12.157,-9.167 -10.484,-4.173 12.248,11.386 20.062,14.862 22.956,15.851 1.203,0.897 18.506,2.034 18.506,2.034 z" />

		<g
   id="XMLID_639_">
			<path
   id="XMLID_640_"
   style="fill:#ee795c"
   d="m 840.546,211.359 c 1.553,1.227 3.262,2.239 5.081,3.008 1.002,0.428 -0.057,1.917 -5.545,-2.419 -0.39,-0.308 0.075,-0.895 0.464,-0.589 z" />

		</g>

		<g
   id="XMLID_637_">
			<path
   id="XMLID_638_"
   style="fill:#ee795c"
   d="m 841.684,207.89 c 1.85,1.692 3.953,3.059 6.251,4.062 0.454,0.195 0.155,0.887 -0.3,0.688 -7.358,-3.211 -6.951,-5.665 -5.951,-4.75 z" />

		</g>

		<g
   id="XMLID_635_">
			<path
   id="XMLID_636_"
   style="fill:#ee795c"
   d="m 844.287,205.944 c 1.12,1.541 2.83,2.66 4.693,3.069 0.487,0.111 0.321,0.838 -0.161,0.733 -2.039,-0.448 -3.912,-1.674 -5.139,-3.361 -0.292,-0.402 0.317,-0.841 0.607,-0.441 z" />

		</g>

		<g
   id="XMLID_633_">
			<path
   id="XMLID_634_"
   style="fill:#ee795c"
   d="m 848.886,206.285 c -0.221,-0.445 0.457,-0.778 0.672,-0.332 0.795,1.6 2.717,3.136 4.669,3.716 0.48,0.146 0.257,0.86 -0.213,0.72 -2.178,-0.649 -4.267,-2.36 -5.128,-4.104 z" />

		</g>

	</g>

	<g
   id="XMLID_566_">
		<path
   style="fill:#005f5b"
   d="m 934.564,236.57 c -3.127,16.007 -60.026,5.333 -78.454,-10.428 -1.096,-0.938 5.48,-13.913 6.519,-13.941 7.012,-0.191 33.17,-0.609 45.509,4.805 -0.309,-1.033 -3.629,-63.189 10.277,-62.347 14.889,0.901 19.011,67.261 16.149,81.911 z"
   id="path182" />

		<path
   style="fill:#004243"
   d="m 915.365,245.022 c -19.281,0 -47.402,-8.084 -59.58,-18.5 -0.387,-0.331 -0.491,-0.985 0.258,-3.102 0.967,-2.73 5.168,-11.681 6.572,-11.719 9.611,-0.264 32.926,-0.329 44.974,4.532 -0.42,-6.783 -2.237,-49.122 6.092,-59.625 1.375,-1.733 2.972,-2.556 4.764,-2.449 1.979,0.12 3.853,1.303 5.566,3.517 10.626,13.729 13.717,65.307 11.044,78.989 -0.587,3.005 -2.929,5.24 -6.961,6.645 -3.371,1.174 -7.756,1.712 -12.729,1.712 z m -58.877,-19.214 c 14.85,12.639 55.438,22.075 71.277,16.558 3.672,-1.279 5.795,-3.261 6.309,-5.892 l 0.491,0.096 -0.491,-0.096 c 2.576,-13.188 -0.6,-64.938 -10.854,-78.186 -1.529,-1.976 -3.156,-3.029 -4.835,-3.131 -1.358,-0.08 -2.56,0.497 -3.671,1.772 -8.719,10.007 -6.474,58.04 -6.09,59.955 l 0.189,0.942 -0.875,-0.363 c -11.585,-5.083 -35.407,-5.028 -45.208,-4.766 -1.371,0.985 -6.506,11.769 -6.242,13.111 z"
   id="path183" />

	</g>

	<g
   id="XMLID_719_">
		<g
   id="XMLID_743_">
			<path
   id="XMLID_760_"
   style="fill:#353b49"
   d="m 863.705,71.135 c 0.328,-1.575 0.185,-3.268 -0.403,-4.767 -0.247,-0.628 0.704,-1.005 0.952,-0.374 0.66,1.682 0.821,3.582 0.452,5.35 -0.138,0.662 -1.139,0.454 -1.001,-0.209 z" />

		</g>

		<g
   id="XMLID_741_">
			<path
   id="XMLID_759_"
   style="fill:#353b49"
   d="m 871.338,70.238 c -1.744,-8.02 1.039,-7.13 0.761,-6.116 -0.537,1.956 -0.158,4.071 0.239,5.899 0.253,1.159 2.389,-5.901 3.468,-5.392 0.907,0.429 -0.558,1.706 -2.241,5.81 -0.436,1.065 -1.985,0.915 -2.227,-0.201 z" />

		</g>

		<g
   id="XMLID_739_">
			<path
   id="XMLID_756_"
   style="fill:#353b49"
   d="m 888.123,74.048 c 2.204,-0.859 3.833,-3.018 4.053,-5.373 0.064,-0.677 1.081,-0.576 1.019,0.095 -0.256,2.731 -2.145,5.235 -4.701,6.231 -0.63,0.246 -1.002,-0.707 -0.371,-0.953 z" />

		</g>

		<g
   id="XMLID_732_">
			<path
   id="XMLID_755_"
   style="fill:#353b49"
   d="m 881.374,72.022 c -1.603,-6.786 2.084,-6.363 1.316,-5.117 -1.103,1.787 -0.847,2.642 -0.319,4.882 0.154,0.659 -0.841,0.894 -0.997,0.235 z" />

		</g>

		<g
   id="XMLID_730_">
			<path
   id="XMLID_754_"
   style="fill:#353b49"
   d="m 890.679,86.33 c 1.859,-1.241 3.432,-4.023 3.237,-5.724 -0.076,-0.668 0.938,-0.796 1.017,-0.117 0.24,2.094 -1.482,5.221 -3.686,6.692 -0.562,0.376 -1.133,-0.474 -0.568,-0.851 z" />

		</g>

		<g
   id="XMLID_728_">
			<path
   id="XMLID_753_"
   style="fill:#353b49"
   d="m 853.951,83.875 c -1.623,-1.959 -2.323,-5.763 -1.039,-5.51 0.278,0.053 0.46,0.32 0.408,0.598 -0.327,1.728 1.392,4.896 2.311,4.896 1.154,0 0.247,2.342 -1.68,0.016 z" />

		</g>

		<g
   id="XMLID_726_">
			<path
   id="XMLID_752_"
   style="fill:#353b49"
   d="m 873.566,81.902 c 0.133,0.664 -0.871,0.863 -1.003,0.201 -0.364,-1.818 -0.828,-3.15 -1.216,-4.093 -0.777,3.216 0.338,4.367 -0.627,4.505 -1.888,0.273 0.206,-13.802 2.846,-0.613 z" />

		</g>

		<g
   id="XMLID_722_">
			<path
   id="XMLID_718_"
   style="fill:#353b49"
   d="m 850.572,73.912 c 2.805,-4.231 5.959,-0.773 8.174,-7.934 0.2,-0.647 1.178,-0.344 0.978,0.302 -2.35,7.597 -5.849,4.501 -8.299,8.197 -0.373,0.564 -1.227,0 -0.853,-0.565 z" />

		</g>

	</g>

</g>
  </g>
</svg>
