<?xml version="1.0" encoding="UTF-8" standalone="no"?>
<!-- Created with Inkscape (http://www.inkscape.org/) -->

<svg
   width="50.712898mm"
   height="127.34739mm"
   viewBox="0 0 50.712899 127.34739"
   version="1.1"
   id="svg1"
   inkscape:version="1.4.2 (f4327f4, 2025-05-13)"
   sodipodi:docname="man5.svg"
   xmlns:inkscape="http://www.inkscape.org/namespaces/inkscape"
   xmlns:sodipodi="http://sodipodi.sourceforge.net/DTD/sodipodi-0.dtd"
   xmlns="http://www.w3.org/2000/svg"
   xmlns:svg="http://www.w3.org/2000/svg">
  <sodipodi:namedview
     id="namedview1"
     pagecolor="#ffffff"
     bordercolor="#000000"
     borderopacity="0.25"
     inkscape:showpageshadow="2"
     inkscape:pageopacity="0.0"
     inkscape:pagecheckerboard="0"
     inkscape:deskcolor="#d1d1d1"
     inkscape:document-units="mm"
     inkscape:zoom="1.2275954"
     inkscape:cx="-112.41489"
     inkscape:cy="51.31984"
     inkscape:window-width="2880"
     inkscape:window-height="1676"
     inkscape:window-x="-12"
     inkscape:window-y="-12"
     inkscape:window-maximized="1"
     inkscape:current-layer="layer1" />
  <defs
     id="defs1" />
  <g
     inkscape:label="图层 1"
     inkscape:groupmode="layer"
     id="layer1"
     transform="translate(-134.67289,-134.93749)">
    <g
       id="XMLID_196_"
       transform="matrix(0.26458333,0,0,0.26458333,-279.78965,120.20599)">
	<g
   id="XMLID_537_">
		<path
   id="XMLID_701_"
   style="fill:#fda98b"
   d="m 1668.857,111.49 c -0.138,11.329 -3.891,19.73 16.944,29.534 -12.402,17.062 -24.616,23.367 -24.616,23.367 0,0 -26.13,-11.762 -35.109,-19.545 4.672,-3.399 9.549,-5.939 13.858,-8.967 8.512,-5.981 3.49,-19.271 5.152,-24.178 z" />

		<path
   id="XMLID_699_"
   style="fill:#fda98b"
   d="m 1672.705,72.808 c -10.089,-14.108 -33.894,-10.545 -36.665,11.103 -2.749,21.473 7.644,38.382 13.68,40.035 5.47,1.499 10.872,2.159 15.443,-0.933 12.009,-8.123 16.644,-37.476 7.542,-50.205 z" />

		<path
   id="XMLID_909_"
   style="fill:#cd805f"
   d="m 1641.514,82.796 c 0.323,-0.641 0.458,-1.377 0.871,-1.964 1.226,-1.744 3.953,-1.226 5.862,-2.177 1.29,-0.643 2.496,-2.032 3.864,-1.579 1.008,0.333 1.567,1.589 2.619,1.729 0.943,0.125 1.889,-0.731 2.779,-0.395 1,0.377 1.762,3.23 5.512,2.127 6.21,-1.827 10.093,0.585 10.678,1.939 2.59,5.993 2.918,14.436 2.467,20.712 0.287,-0.413 4.413,-16.765 6.164,-29.384 0.756,-5.444 -2.42,-10.657 -7.579,-12.553 -2.962,-1.089 -7.942,0.588 -9.897,-2.697 -2.684,-4.511 -9.244,-2.683 -13.158,-1.402 -4.327,1.416 -8.166,0.675 -9.557,2.22 -1.302,1.446 1.705,6.014 -3.313,5.773 -4.746,-0.228 -6.878,5.316 -3.752,8.335 -5.361,-0.433 -2.908,9.176 -3.008,10.642 -0.372,5.468 -1.672,-0.061 4.034,15.997 0.955,-10.657 4.314,-15.143 5.414,-17.323 z" />

		<g
   id="XMLID_685_">
			<g
   id="XMLID_692_">
				<path
   id="XMLID_693_"
   style="fill:#fda98b"
   d="m 1633.587,93.508 c 4.102,-1.206 4.361,7.383 4.371,11.647 0.02,8.405 -10.832,-9.747 -4.371,-11.647 z" />

			</g>

			<g
   id="XMLID_690_">
				<path
   id="XMLID_691_"
   style="fill:#ee795c"
   d="m 1634.462,97.708 c 0.121,-0.393 0.709,-0.207 0.59,0.181 -0.723,2.362 0,3.747 0.966,4.28 0.149,0.082 0.204,0.27 0.122,0.419 -0.545,0.993 -2.712,-1.503 -1.678,-4.88 z" />

			</g>

			<g
   id="XMLID_688_">
				<path
   id="XMLID_689_"
   style="fill:#fda98b"
   d="m 1679.379,93.39 c -4.102,-1.206 -4.36,7.384 -4.371,11.647 -0.021,8.405 10.831,-9.747 4.371,-11.647 z" />

			</g>

			<g
   id="XMLID_686_">
				<path
   id="XMLID_687_"
   style="fill:#ee795c"
   d="m 1678.503,97.59 c -0.121,-0.393 -0.709,-0.207 -0.59,0.181 0.723,2.362 0,3.747 -0.966,4.28 -0.15,0.082 -0.204,0.27 -0.122,0.419 0.546,0.993 2.712,-1.502 1.678,-4.88 z" />

			</g>

		</g>

		<g
   id="XMLID_682_">
			<path
   id="XMLID_684_"
   style="fill:#382823"
   d="m 1646.992,97.138 c -1.344,0 -2.395,-5.109 0.865,-5.109 1.739,0 1.334,5.109 -0.865,5.109 z" />

			<path
   id="XMLID_683_"
   style="fill:#382823"
   d="m 1666.951,97.341 c 1.344,0 2.395,-5.109 -0.865,-5.109 -1.739,0 -1.333,5.109 0.865,5.109 z" />

		</g>

		<g
   id="XMLID_680_">
			<path
   id="XMLID_681_"
   style="fill:#ee795c"
   d="m 1645.224,120.627 c 0.168,-0.13 0.41,-0.098 0.54,0.07 3.526,4.571 15.965,6.123 21.935,-0.402 0.344,-0.376 0.91,0.145 0.568,0.52 -8.816,9.631 -25.256,1.517 -23.043,-0.188 z" />

		</g>

		<g
   id="XMLID_536_">
			<path
   id="XMLID_696_"
   style="fill:#cd805f"
   d="m 1651.433,87.026 c -4.362,-1.878 -13.119,1.521 -10.678,2.522 0.798,0.327 3.391,-0.627 4.33,-0.703 1.883,-0.153 5.293,0.756 6.495,-0.23 0.493,-0.405 0.409,-1.349 -0.147,-1.589 z" />

			<path
   id="XMLID_694_"
   style="fill:#cd805f"
   d="m 1661.401,88.09 c 1.088,1.11 4.576,0.574 6.432,0.929 0.925,0.177 3.4,1.405 4.229,1.166 2.535,-0.732 -5.819,-5.101 -10.344,-3.659 -0.642,0.204 -0.764,1.108 -0.317,1.564 z" />

			<g
   id="XMLID_678_">
				<path
   id="XMLID_679_"
   style="fill:#ee795c"
   d="m 1654.729,105.457 c -0.135,-0.567 0.828,-0.619 1.432,-0.754 2.218,-0.495 2.317,0.592 1.287,-8.716 -0.201,-1.817 -0.508,-2.793 0.14,-2.844 0.612,-0.038 0.449,0.683 0.678,2.753 1.119,10.11 1.142,8.868 -3.041,9.865 -0.218,0.053 -0.443,-0.08 -0.496,-0.304 z" />

			</g>

			<path
   id="XMLID_677_"
   style="fill:#fff5ed"
   d="m 1662.173,112.313 c -1.27,3.828 -9.294,7.368 -10.467,0.87 -0.033,-0.182 0.125,-0.347 0.307,-0.315 1.338,0.235 6.064,0.884 9.783,-0.879 0.218,-0.103 0.453,0.095 0.377,0.324 z" />

		</g>

		<g
   id="XMLID_865_">
			<g
   id="XMLID_903_">
				<path
   id="XMLID_864_"
   style="fill:#b37658"
   d="m 1646.625,75.017 c -1.281,-3.238 -2.646,-7.3 -6.068,-8.52 -1.673,-0.597 2.27,-2.305 5.542,5.126 -0.546,-2.778 -3.114,-5.367 -3.368,-8.456 -0.042,-0.519 0.74,-0.577 0.782,-0.064 0.352,4.287 4.345,5.648 3.112,11.914 z" />

			</g>

			<g
   id="XMLID_899_">
				<path
   id="XMLID_863_"
   style="fill:#b37658"
   d="m 1641.099,81.79 c -0.219,0 -0.394,-0.178 -0.392,-0.396 0.026,-2.737 -1.718,-6.167 -5.001,-7.134 -0.497,-0.146 -0.278,-0.898 0.222,-0.752 5.191,1.528 6.254,8.282 5.171,8.282 z" />

			</g>

			<g
   id="XMLID_535_">
				<path
   id="XMLID_862_"
   style="fill:#b37658"
   d="m 1636.253,89.505 c -2.501,-3.085 0.222,-6.398 -2.269,-9.25 -0.341,-0.391 0.25,-0.907 0.591,-0.516 2.752,3.151 0.036,6.496 2.287,9.272 0.326,0.403 -0.283,0.897 -0.609,0.494 z" />

			</g>

			<g
   id="XMLID_843_">
				<path
   id="XMLID_860_"
   style="fill:#b37658"
   d="m 1678.748,79.654 c 0.111,-0.507 0.877,-0.338 0.766,0.169 -0.5,2.271 -0.881,4.592 -1.131,6.9 -0.109,1.001 -1.482,1.313 0.365,-7.069 z" />

			</g>

			<g
   id="XMLID_844_">
				<path
   id="XMLID_858_"
   style="fill:#b37658"
   d="m 1672.801,79.736 c -0.554,-0.175 -0.139,-0.854 0.339,-2.391 3.33,-10.706 7.692,-10.891 6.445,-9.597 -4.348,4.508 -4.184,5.084 -6.292,11.733 -0.066,0.208 -0.288,0.32 -0.492,0.255 z" />

			</g>

			<g
   id="XMLID_845_">
				<path
   id="XMLID_857_"
   style="fill:#b37658"
   d="m 1663.739,68.536 c 1.872,-2.143 3.808,-4.358 4.861,-6.395 0.375,-0.727 2.406,-0.801 -4.305,6.88 -2.581,2.953 -5.25,6.007 -5.776,8.736 -0.111,0.568 -3.728,1.019 5.22,-9.221 z" />

			</g>

			<g
   id="XMLID_846_">
				<path
   id="XMLID_855_"
   style="fill:#b37658"
   d="m 1651.187,75.833 c -1.362,-4.659 6.725,-13.516 7.545,-12.516 0.138,0.167 0.113,0.414 -0.054,0.552 -7.536,6.184 -7.004,12.231 -7.004,12.231 -0.209,0.06 -0.427,-0.059 -0.487,-0.267 z" />

			</g>

			<g
   id="XMLID_847_">
				<path
   id="XMLID_853_"
   style="fill:#b37658"
   d="m 1669.634,70.758 c 0.372,-0.359 0.917,0.209 0.541,0.567 -0.898,0.857 -3,3.141 -3.127,5.812 -0.071,1.545 -2.76,-1.273 2.586,-6.379 z" />

			</g>

			<g
   id="XMLID_848_">
				<path
   id="XMLID_852_"
   style="fill:#b37658"
   d="m 1661.432,57.792 c 0.518,0.031 0.472,0.813 -0.046,0.783 -6.615,-0.389 -11.019,1.121 -13.461,4.614 -1.495,2.133 -0.794,-6.237 13.507,-5.397 z" />

			</g>

		</g>

	</g>

	<g
   id="XMLID_575_">
		<path
   id="XMLID_571_"
   style="fill:#d76a54"
   d="m 1741.3,326.156 c 0.566,-0.573 7.037,-6.728 6.575,-7.384 -1.223,-1.736 -0.711,-1.628 -4.11,1.32 -8.518,7.388 -4.872,8.501 -2.465,6.064 z" />

		<path
   id="XMLID_570_"
   style="fill:#ee795c"
   d="m 1744.807,335.609 c -1.985,-0.997 -0.211,-7.787 0.445,-9.959 -2.353,5.659 -6.618,6.428 -5.357,3.256 1.693,-4.259 3.386,-8.518 5.079,-12.777 -0.108,0.27 4.868,5.316 5.014,5.915 0.208,0.856 -0.332,1.947 -0.557,2.755 -2.294,8.256 -2.739,11.758 -4.624,10.81 z" />

		<path
   id="XMLID_567_"
   style="fill:#fda98b"
   d="m 1734.868,295.7 c 0.73,-0.235 1.53,-0.324 2.262,-0.096 2.831,0.881 21.585,37.27 21,38.27 -0.233,0.398 -0.78,0.471 -1.237,0.411 -4.445,-0.584 -4.169,-6.73 -13.955,-18.389 -3.785,-4.509 -6.988,-1.945 -6.167,2.66 1.177,6.602 -1.706,6.843 -2.216,5.285 -4.601,-14.066 -3.506,-10.21 -3.071,-16.85 0.27,-4.106 -2.314,-9.452 3.384,-11.291 z" />

	</g>

	<g
   id="XMLID_499_">
		<path
   id="XMLID_484_"
   style="fill:#fda98b"
   d="m 1685.276,512.451 c 5.273,2.663 12.249,-3.787 12.249,-3.787 l 0.972,-10.481 -15.739,-0.598 z" />

		<path
   id="XMLID_176_"
   style="fill:#373535"
   d="m 1724.403,532.78 c 4.876,0.733 6.999,-0.536 7.773,-1.984 1.747,-3.268 -0.673,-1.529 -34.598,-23.091 0,0 -5.259,5.242 -12.61,3.115 -12.183,28.728 -6.949,14.989 39.435,21.96 z" />

		<g
   id="XMLID_493_">
			<path
   style="fill:#f2e8de"
   d="m 1711.967,524.404 c -0.214,0 -0.412,-0.138 -0.477,-0.353 -0.082,-0.265 0.066,-0.544 0.33,-0.625 2.479,-0.764 3.664,-1.267 4.598,-2.882 0.139,-0.239 0.446,-0.32 0.683,-0.183 0.239,0.138 0.321,0.443 0.183,0.683 -1.145,1.981 -2.717,2.583 -5.168,3.337 -0.052,0.017 -0.1,0.023 -0.149,0.023 z"
   id="path184" />

		</g>

		<g
   id="XMLID_494_">
			<path
   style="fill:#f2e8de"
   d="m 1705.225,521.277 c -0.265,0 -0.485,-0.207 -0.499,-0.474 -0.015,-0.275 0.197,-0.511 0.473,-0.525 2.517,-0.133 4.954,-1.11 6.863,-2.752 0.211,-0.18 0.526,-0.156 0.705,0.053 0.181,0.21 0.156,0.525 -0.053,0.705 -2.077,1.786 -4.728,2.849 -7.463,2.992 -0.01,0.001 -0.017,0.001 -0.026,0.001 z"
   id="path185" />

		</g>

		<g
   id="XMLID_495_">
			<path
   style="fill:#f2e8de"
   d="m 1700.041,517.652 c -0.249,0 -0.464,-0.185 -0.495,-0.439 -0.034,-0.273 0.161,-0.523 0.436,-0.557 2.472,-0.304 5.274,-0.647 7.443,-2.118 0.229,-0.153 0.539,-0.095 0.694,0.134 0.154,0.229 0.095,0.539 -0.134,0.694 -2.368,1.605 -5.298,1.965 -7.883,2.282 -0.02,0.003 -0.041,0.004 -0.061,0.004 z"
   id="path186" />

		</g>

	</g>

	<g
   id="XMLID_500_">
		<path
   id="XMLID_505_"
   style="fill:#fda98b"
   d="m 1601.506,514.225 c 5.122,2.942 12.435,-3.123 12.435,-3.123 l 1.534,-10.413 -15.684,-1.443 z" />

		<path
   id="XMLID_504_"
   style="fill:#373535"
   d="m 1639.485,536.628 c 8.537,1.757 9.504,-3.354 6.922,-4.851 -11.349,-6.58 -21.631,-13.971 -32.359,-21.63 0,0 -5.533,4.952 -12.759,2.432 -13.712,28.032 -7.747,14.595 38.196,24.049 z" />

		<g
   id="XMLID_503_">
			<path
   style="fill:#f2e8de"
   d="m 1627.543,527.597 c -0.225,0 -0.429,-0.151 -0.485,-0.379 -0.066,-0.267 0.097,-0.539 0.364,-0.606 2.517,-0.628 3.727,-1.066 4.745,-2.63 0.151,-0.231 0.461,-0.295 0.692,-0.146 0.231,0.151 0.296,0.461 0.146,0.692 -1.25,1.917 -2.852,2.433 -5.341,3.054 -0.041,0.01 -0.081,0.015 -0.121,0.015 z"
   id="path187" />

		</g>

		<g
   id="XMLID_502_">
			<path
   style="fill:#f2e8de"
   d="m 1620.997,524.111 c -0.246,-0.002 -0.518,-0.218 -0.518,-0.501 0,-0.275 0.225,-0.499 0.5,-0.499 2.531,0 5.011,-0.845 7.003,-2.379 0.218,-0.168 0.531,-0.128 0.701,0.092 0.168,0.219 0.127,0.532 -0.092,0.701 -2.164,1.668 -4.862,2.586 -7.594,2.586 z"
   id="path188" />

		</g>

		<g
   id="XMLID_501_">
			<path
   style="fill:#f2e8de"
   d="m 1615.997,520.213 c -0.26,0 -0.479,-0.202 -0.498,-0.466 -0.019,-0.275 0.189,-0.515 0.465,-0.533 2.484,-0.169 5.3,-0.361 7.547,-1.714 0.237,-0.139 0.545,-0.066 0.687,0.171 0.141,0.236 0.065,0.544 -0.171,0.686 -2.453,1.477 -5.397,1.678 -7.994,1.854 -0.013,0.002 -0.024,0.002 -0.036,0.002 z"
   id="path189" />

		</g>

	</g>

	<path
   id="XMLID_171_"
   style="fill:#323d4d"
   d="m 1604.669,243.403 c -5.256,93.4 -6.826,260.85 -5.807,261.035 7.127,1.295 11.812,2.61 18.93,0.548 1.001,-0.29 23.2,-96.178 31.837,-182.348 7.193,65.654 30.78,182.574 32.594,182.821 7.254,0.988 19.024,0.677 19.066,-1.708 0.254,-14.483 2.156,-240.466 -15.266,-257.889 0,0.001 -31.528,1.144 -81.354,-2.459 z" />

	<g
   id="XMLID_479_">
		<g
   id="XMLID_483_">
			<path
   style="fill:#f2e8de"
   d="m 1647.522,315.226 -1.037,-0.123 c 2.213,-18.716 1.449,-30.605 0.892,-39.286 -0.493,-7.686 -0.791,-12.325 1.42,-16.317 l 0.912,0.506 c -2.063,3.725 -1.771,8.249 -1.291,15.744 0.56,8.721 1.327,20.665 -0.896,39.476 z"
   id="path190" />

		</g>

		<g
   id="XMLID_482_">
			<path
   style="fill:#f2e8de"
   d="m 1651.95,287.535 c -0.334,0 -0.675,-0.032 -1.022,-0.064 -0.712,-0.066 -1.446,-0.135 -2.284,0.03 l -0.201,-1.023 c 0.981,-0.195 1.832,-0.116 2.581,-0.045 1.017,0.093 1.618,0.126 2.135,-0.321 1.722,-1.486 2.719,-8.634 3.678,-26.373 l 1.041,0.057 c -1.132,20.946 -2.247,25.562 -4.037,27.107 -0.588,0.504 -1.223,0.632 -1.891,0.632 z"
   id="path191" />

		</g>

		<g
   id="XMLID_481_">
			<path
   style="fill:#f2e8de"
   d="m 1681.993,496.506 c -3.236,-23.564 -5.951,-43.538 -8.266,-60.572 -11.648,-85.707 -13.144,-96.719 -19.964,-115.938 l 0.982,-0.35 c 6.857,19.321 8.354,30.345 20.015,116.146 2.315,17.033 5.029,37.008 8.266,60.57 z"
   id="path192" />

		</g>

		<g
   id="XMLID_480_">
			<path
   style="fill:#f2e8de"
   d="m 1605.369,300.796 -0.879,-0.563 c 5.438,-8.505 12.471,-18.863 18.354,-27.03 l 0.846,0.609 c -5.872,8.154 -12.892,18.493 -18.321,26.984 z"
   id="path193" />

		</g>

	</g>

	<path
   id="XMLID_1_"
   style="fill:#fffffb"
   d="m 1640.811,135.187 c 2.308,5.59 25.611,18.874 34.706,-0.227 l 25.541,7.397 c 3.517,104.516 4.279,137.769 0.652,138.572 -28.387,6.287 -54.798,-15.442 -87.689,-35.066 -2.978,-69.191 -0.564,-103.143 -0.564,-103.148 0,0.001 8.314,-3.691 27.354,-7.528 z" />

	<g
   id="XMLID_478_">
		<g
   id="XMLID_474_">
			<path
   style="fill:#f2e8de"
   d="m 1646.517,212.743 c -4.939,0 -10.884,-2.335 -18.935,-9.808 -7.486,-6.949 -4.84,-10.26 -2.037,-13.765 0.946,-1.184 1.926,-2.408 2.569,-3.838 0.365,-0.813 0.589,-1.758 0.826,-2.759 0.478,-2.019 0.972,-4.107 2.704,-5.553 2.027,-1.694 3.528,-1.654 5.442,-1.604 0.646,0.018 1.316,0.035 2.095,-0.007 2.958,-0.158 5.313,-0.842 7.805,-1.566 1.359,-0.395 2.765,-0.803 4.345,-1.151 3.495,-0.773 7.088,-0.191 10.564,0.371 2.432,0.393 4.948,0.796 7.393,0.735 1.982,-0.052 3.979,-0.416 5.91,-0.768 1.941,-0.354 3.948,-0.72 5.981,-0.783 2.791,-0.086 4.493,0.308 5.505,1.28 1.335,1.282 1.356,3.425 1.386,6.391 0.04,4.042 0.101,10.15 3.557,18.312 1.352,3.19 1.407,5.537 0.172,7.173 -2.62,3.466 -10.451,2.491 -17.364,1.63 -3.526,-0.439 -6.857,-0.852 -8.797,-0.563 -2.86,0.429 -5.39,1.653 -8.068,2.949 -3.408,1.648 -6.87,3.323 -11.053,3.324 z M 1636.18,176.49 c -1.353,0 -2.416,0.181 -3.836,1.366 -1.453,1.214 -1.905,3.122 -2.342,4.967 -0.238,1.007 -0.485,2.048 -0.894,2.955 -0.7,1.556 -1.723,2.835 -2.712,4.072 -2.691,3.366 -4.816,6.025 1.928,12.284 14.321,13.293 21.666,9.74 28.771,6.302 2.634,-1.274 5.356,-2.592 8.381,-3.046 2.092,-0.315 5.493,0.11 9.094,0.559 6.291,0.784 14.119,1.758 16.359,-1.205 0.967,-1.28 0.864,-3.33 -0.306,-6.09 -3.541,-8.36 -3.603,-14.599 -3.644,-18.727 -0.027,-2.8 -0.046,-4.651 -1.051,-5.615 -0.783,-0.752 -2.245,-1.051 -4.716,-0.977 -1.95,0.061 -3.917,0.419 -5.819,0.766 -1.972,0.359 -4.011,0.731 -6.076,0.785 -2.549,0.067 -5.116,-0.347 -7.597,-0.749 -3.531,-0.571 -6.864,-1.109 -10.155,-0.382 -1.545,0.341 -2.933,0.744 -4.275,1.134 -2.554,0.742 -4.967,1.443 -8.05,1.608 -0.826,0.044 -1.545,0.025 -2.183,0.008 -0.308,-0.008 -0.599,-0.015 -0.877,-0.015 z"
   id="path194" />

		</g>

		<g
   id="XMLID_476_">
			<path
   style="fill:#f2e8de"
   d="m 1648.685,223.985 c -4.939,10e-4 -10.884,-2.335 -18.936,-9.808 -7.486,-6.949 -4.84,-10.259 -2.038,-13.765 0.947,-1.184 1.926,-2.408 2.569,-3.838 0.365,-0.813 0.589,-1.758 0.826,-2.758 0.479,-2.02 0.973,-4.107 2.705,-5.554 2.028,-1.694 3.536,-1.655 5.441,-1.604 0.649,0.018 1.316,0.035 2.096,-0.007 2.957,-0.159 5.311,-0.842 7.802,-1.566 1.36,-0.395 2.767,-0.804 4.348,-1.152 3.496,-0.772 7.09,-0.19 10.563,0.371 2.431,0.393 4.949,0.795 7.394,0.735 1.98,-0.052 3.978,-0.417 5.908,-0.768 1.941,-0.354 3.95,-0.72 5.983,-0.783 2.792,-0.084 4.493,0.308 5.505,1.28 1.335,1.282 1.356,3.425 1.386,6.391 0.04,4.042 0.101,10.15 3.557,18.312 1.352,3.19 1.407,5.537 0.171,7.173 -2.62,3.466 -10.451,2.491 -17.364,1.63 -3.525,-0.439 -6.854,-0.854 -8.796,-0.563 -2.86,0.429 -5.39,1.653 -8.067,2.95 -3.408,1.649 -6.87,3.324 -11.053,3.324 z m -10.338,-36.252 c -1.352,0 -2.416,0.181 -3.835,1.366 -1.454,1.214 -1.906,3.122 -2.343,4.968 -0.238,1.006 -0.485,2.047 -0.894,2.954 -0.7,1.556 -1.723,2.835 -2.711,4.072 -2.691,3.366 -4.816,6.024 1.928,12.284 14.324,13.294 21.67,9.74 28.771,6.302 2.634,-1.275 5.357,-2.592 8.381,-3.046 2.093,-0.313 5.492,0.111 9.093,0.559 6.292,0.784 14.121,1.759 16.359,-1.205 0.967,-1.28 0.864,-3.33 -0.305,-6.09 -3.541,-8.36 -3.603,-14.599 -3.644,-18.727 -0.027,-2.801 -0.046,-4.651 -1.05,-5.615 -0.783,-0.752 -2.244,-1.053 -4.717,-0.977 -1.951,0.061 -3.919,0.419 -5.821,0.766 -1.972,0.359 -4.01,0.731 -6.074,0.785 -2.557,0.071 -5.117,-0.348 -7.598,-0.749 -3.528,-0.57 -6.861,-1.11 -10.154,-0.383 -1.546,0.341 -2.935,0.744 -4.277,1.134 -2.554,0.742 -4.966,1.443 -8.048,1.608 -0.824,0.044 -1.548,0.025 -2.183,0.008 -0.308,-0.007 -0.599,-0.014 -0.878,-0.014 z"
   id="path195" />

		</g>

		<g
   id="XMLID_477_">
			<path
   style="fill:#f2e8de"
   d="m 1650.174,201.241 c -4.939,0 -10.884,-2.335 -18.936,-9.808 -7.487,-6.949 -4.84,-10.259 -2.038,-13.765 0.946,-1.184 1.926,-2.408 2.569,-3.839 0.365,-0.813 0.589,-1.758 0.826,-2.758 0.479,-2.02 0.973,-4.108 2.705,-5.554 2.027,-1.694 3.532,-1.656 5.441,-1.604 0.646,0.017 1.315,0.035 2.095,-0.007 2.958,-0.158 5.312,-0.842 7.804,-1.566 1.36,-0.395 2.766,-0.803 4.347,-1.152 3.494,-0.772 7.089,-0.191 10.563,0.371 2.432,0.393 4.947,0.792 7.395,0.735 1.981,-0.052 3.978,-0.416 5.909,-0.768 1.941,-0.354 3.949,-0.72 5.983,-0.783 2.792,-0.087 4.493,0.308 5.505,1.28 1.335,1.282 1.357,3.425 1.386,6.391 0.04,4.042 0.101,10.15 3.557,18.312 1.352,3.19 1.407,5.537 0.171,7.173 -2.618,3.465 -10.45,2.491 -17.363,1.63 -3.526,-0.439 -6.856,-0.853 -8.797,-0.563 -2.86,0.429 -5.391,1.653 -8.068,2.95 -3.411,1.65 -6.873,3.324 -11.054,3.325 z m -10.339,-36.253 c -1.353,0 -2.416,0.181 -3.835,1.366 -1.454,1.214 -1.906,3.122 -2.343,4.968 -0.238,1.006 -0.485,2.047 -0.894,2.954 -0.7,1.557 -1.723,2.835 -2.712,4.073 -2.69,3.366 -4.816,6.024 1.929,12.284 14.324,13.294 21.668,9.739 28.77,6.302 2.634,-1.274 5.357,-2.592 8.382,-3.046 2.093,-0.313 5.492,0.11 9.094,0.559 6.293,0.784 14.121,1.758 16.358,-1.205 0.967,-1.28 0.864,-3.33 -0.305,-6.09 -3.541,-8.36 -3.603,-14.599 -3.643,-18.727 -0.027,-2.8 -0.046,-4.651 -1.051,-5.615 -0.782,-0.752 -2.245,-1.052 -4.716,-0.977 -1.951,0.061 -3.918,0.419 -5.82,0.766 -1.972,0.359 -4.01,0.731 -6.075,0.785 -2.546,0.066 -5.116,-0.347 -7.598,-0.748 -3.528,-0.57 -6.86,-1.109 -10.154,-0.382 -1.545,0.341 -2.934,0.744 -4.276,1.134 -2.555,0.742 -4.967,1.442 -8.05,1.607 -0.826,0.045 -1.546,0.026 -2.183,0.008 -0.309,-0.009 -0.6,-0.016 -0.878,-0.016 z"
   id="path196" />

		</g>

	</g>

	<g
   id="XMLID_163_">
		<path
   style="fill:#ffba58"
   d="m 1742.696,297.888 c -7.763,4.611 -16.254,5.556 -17.345,3.214 -17.164,-36.846 -36.161,-80.285 -36.221,-123.819 -0.03,-21.386 2.461,-34.926 11.928,-34.926 15.657,0 42.638,154.937 41.638,155.531 z"
   id="path197" />

		<path
   style="fill:#ce8b35"
   d="m 1728.825,302.829 c -0.902,0 -1.679,-0.096 -2.29,-0.284 -0.824,-0.254 -1.375,-0.669 -1.638,-1.232 -18.318,-39.326 -36.208,-81.296 -36.268,-124.029 -0.025,-18.378 1.915,-28.527 6.29,-32.909 1.669,-1.671 3.734,-2.518 6.139,-2.518 4.924,0 10.906,13.067 18.291,39.948 7.139,25.99 13.657,58.205 16.907,75.094 2.021,10.503 3.892,20.831 5.267,29.082 1.999,11.997 1.797,12.117 1.429,12.335 -5.135,3.05 -10.597,4.513 -14.127,4.513 z m -27.767,-159.972 c -2.159,0 -3.936,0.728 -5.431,2.225 -4.173,4.179 -6.022,14.11 -5.998,32.201 0.06,42.528 17.902,84.383 36.174,123.608 0.172,0.369 0.653,0.584 1.026,0.699 2.765,0.854 9.25,-0.415 15.395,-4.004 -0.104,-3.135 -5.724,-36.492 -13.198,-71.2 -6.95,-32.276 -16.954,-72.667 -25.137,-81.795 -1.03,-1.151 -1.982,-1.734 -2.831,-1.734 z"
   id="path198" />

	</g>

	<g
   id="XMLID_167_">
		<path
   style="fill:#ffba58"
   d="m 1634.981,220.752 c -7.538,33.051 2.065,9.541 -16.74,83.693 -1.078,4.252 -2.24,6.111 -6.942,6.018 -11.111,-0.22 -26.432,-9.738 -27.358,-11.635 -2.395,-4.903 20.595,-65.773 21.116,-67.174 l 6.685,-87.732 c 5.668,-3.346 29.143,-8.931 28.993,-8.531 -11.303,30.055 -3.316,74.67 -5.754,85.361 z"
   id="path199" />

		<path
   style="fill:#ce8b35"
   d="m 1611.629,310.966 c -0.112,0 -0.226,-0.001 -0.341,-0.003 -11.397,-0.226 -26.795,-9.864 -27.797,-11.915 -2.239,-4.585 15.492,-52.639 20.98,-67.258 l 0.092,-0.245 6.699,-87.921 0.225,-0.133 c 4.807,-2.836 28.663,-9.268 29.566,-8.493 l 0.271,0.228 -0.122,0.341 c -7.601,20.214 -6.412,47.597 -5.625,65.716 0.389,8.966 0.696,16.048 -0.109,19.58 -2.859,12.539 -3.247,16.933 -3.657,21.585 -0.668,7.563 -1.424,16.135 -13.086,62.119 -1.115,4.397 -2.424,6.399 -7.096,6.399 z m 0.591,-166.742 -6.67,87.539 -0.142,0.379 c -10.723,28.561 -22.66,63.106 -21.019,66.467 0.755,1.547 15.671,11.132 26.918,11.355 4.265,0.074 5.355,-1.335 6.448,-5.642 11.642,-45.906 12.395,-54.436 13.059,-61.961 0.413,-4.687 0.804,-9.114 3.679,-21.72 0.775,-3.401 0.471,-10.423 0.085,-19.314 -0.781,-17.98 -1.956,-45.04 5.412,-65.365 -3.958,0.702 -22.483,5.324 -27.77,8.262 z"
   id="path200" />

	</g>

	<path
   style="fill:#fda98b"
   d="m 1627.546,259.355 c 0.255,-0.704 0.023,-1.619 0.389,-2.372 0.447,-0.919 1.274,-1.633 2.084,-2.26 1.976,-1.526 4.171,-2.532 6.553,-3.299 1.574,-0.507 3.137,-1.061 4.743,-1.437 0.83,-0.195 2.504,-0.844 3.214,-0.491 0.725,0.36 1.109,1.792 0.759,2.466 -0.672,1.293 -3.132,2.508 -4.367,3.069 -1.967,0.893 -4.31,1.678 -6.427,2.099 -2.255,0.449 -4.445,1.223 -6.948,2.225 z"
   id="path201" />

	<g
   id="XMLID_442_">
		<path
   id="XMLID_459_"
   style="fill:#d7d7d7"
   d="m 1650.45,275.154 c -2.243,2.653 -12.712,2.85 -15.355,-1.499 l -1.825,-25.562 c 6.359,4.491 17.954,3.961 22.354,1.096 z" />

		<path
   id="XMLID_447_"
   style="fill:#e6501f"
   d="m 1654.977,246.97 c 0.856,0.8 -6.076,2.874 -10.821,2.486 -4.593,-0.376 -11.406,-2.959 -10.664,-3.689 1.746,-1.716 19.929,-0.251 21.485,1.203 z" />

		<path
   id="XMLID_446_"
   style="fill:#475978"
   d="m 1635.925,246.083 c -1.258,-0.364 5.752,-0.659 8.438,-0.463 17.59,1.287 2.455,3.61 -8.438,0.463 z" />

		<path
   id="XMLID_444_"
   style="fill:#475978"
   d="m 1656.163,248.044 c -0.24,-0.343 -0.579,-0.607 -1.186,-1.074 -5.195,2.393 -15.014,1.946 -21.484,-1.203 -6.635,3.832 15.768,9.596 22.487,3.732 0.42,-0.367 0.504,-0.999 0.183,-1.455 z" />

	</g>

	<g
   id="g202">
		<path
   style="fill:#fda98b"
   d="m 1653.723,265.698 0.447,-2.303 c 0.137,-0.704 -0.35,-1.374 -1.046,-1.443 -3.867,-0.383 -7.55,-0.638 -8.506,-0.85 3.098,0.112 6.176,0.398 8.847,0.58 0.59,0.04 1.111,-0.379 1.226,-0.973 l 0.334,-1.721 c 0.141,-0.728 -0.374,-1.413 -1.096,-1.447 -3.729,-0.173 -8.88,-0.243 -15.593,-0.597 -10.777,-0.568 -14.042,-1.101 -16.098,-1.079 -0.424,0.005 -1.431,4.179 -1.604,4.576 -0.42,0.965 -0.371,2.588 -0.249,3.407 0.642,4.304 4.662,4.575 5.649,5.036 4.008,1.874 0.95,3.534 10.78,4.725 4.279,0.518 10.12,1.366 14.095,1.443 0.575,0.011 1.075,-0.396 1.187,-0.975 l 0.2,-1.031 c 0.127,-0.657 -0.282,-1.294 -0.921,-1.427 -2.549,-0.527 -5.896,-0.856 -8.641,-1.368 0.079,0.001 4.407,0.635 8.837,1.012 0.6,0.051 1.142,-0.364 1.26,-0.97 l 0.395,-2.036 c 0.136,-0.703 -0.348,-1.379 -1.043,-1.442 -3.168,-0.289 -6.332,-0.393 -7.972,-0.52 1.786,-0.21 4.983,0.128 8.27,0.377 0.593,0.044 1.126,-0.375 1.242,-0.974 z"
   id="path202" />

	</g>

	<g
   id="XMLID_5_">
		<path
   style="fill:#ffba58"
   d="m 1567.255,222.826 c -3.942,15.495 34.326,36.821 52.711,45.604 2.478,1.184 7.248,-15.155 6.246,-16.13 -2.964,-2.885 -19.008,-18.336 -33.168,-28.714 9.405,-6.264 6.76,-18.557 14.338,-22.465 2.799,-36.732 2.926,-38.182 4.359,-57.201 -16.974,0.002 -37.834,52.759 -44.486,78.906 z"
   id="path203" />

		<path
   style="fill:#ce8b35"
   d="m 1620.238,268.996 c -0.165,0 -0.327,-0.038 -0.487,-0.114 -9.638,-4.604 -57.485,-28.467 -52.98,-46.179 6.813,-26.781 27.659,-79.282 44.971,-79.282 h 0.539 l -0.04,0.538 c -0.837,11.1 -1.228,16.216 -1.966,25.854 l -2.414,31.625 -0.248,0.128 c -3.464,1.786 -4.673,5.392 -6.072,9.566 -1.438,4.288 -3.059,9.124 -7.637,12.465 14.023,10.372 29.637,25.403 32.658,28.344 1.244,1.21 -2.265,12.457 -4.534,15.712 -0.623,0.894 -1.222,1.343 -1.79,1.343 z m -52.499,-46.047 c -3.344,13.149 26.16,32.476 52.443,45.03 0.139,0.066 0.409,-0.176 0.489,-0.251 2.458,-2.317 5.614,-13.979 5.144,-15.134 -3.005,-2.909 -18.954,-18.262 -33.066,-28.604 l -0.577,-0.423 0.596,-0.396 c 4.74,-3.157 6.308,-7.834 7.824,-12.356 1.377,-4.106 2.679,-7.991 6.313,-10.004 l 2.372,-31.074 c 0.725,-9.476 1.116,-14.579 1.924,-25.296 -15.921,1.108 -36.372,50.642 -43.462,78.508 z"
   id="path204" />

	</g>

	<g
   id="XMLID_170_">
		<path
   style="fill:#ffba58"
   d="m 1713.98,300.134 c 4.315,-2.31 -6.283,-148.253 -12.922,-157.777 -41.082,-11.898 -19.472,-12.079 -15.556,24.758 4.901,46.101 6.923,126.566 8.055,137.66 0.325,3.189 16.875,-2.741 20.423,-4.641 z"
   id="path205" />

		<path
   style="fill:#ce8b35"
   d="m 1695.537,306.187 c -0.736,0 -1.333,-0.096 -1.738,-0.313 -0.553,-0.294 -0.707,-0.732 -0.739,-1.048 -0.365,-3.581 -0.814,-14.155 -1.436,-28.789 -1.313,-30.903 -3.295,-77.604 -6.619,-108.869 -1.476,-13.88 -5.497,-22.514 -7.657,-27.152 -1.314,-2.822 -1.915,-4.11 -1.242,-4.87 0.817,-0.917 2.782,-0.278 9.294,1.84 3.749,1.219 8.883,2.888 15.798,4.891 l 0.17,0.049 0.102,0.145 c 6.876,9.866 16.265,145.469 13.44,157.252 -0.17,0.709 -0.377,1.083 -0.692,1.252 -2.273,1.216 -13.693,5.612 -18.681,5.612 z m -18.326,-170.47 c -0.18,0 -0.301,0.029 -0.357,0.091 -0.238,0.27 0.632,2.137 1.399,3.785 2.185,4.691 6.252,13.423 7.745,27.469 3.327,31.296 5.312,78.017 6.624,108.932 0.62,14.618 1.068,25.179 1.431,28.73 0.01,0.084 0.041,0.175 0.215,0.267 2.464,1.314 16.116,-3.512 19.449,-5.283 1.705,-1.965 0.543,-35.534 -2.652,-76.54 -2.837,-36.398 -7.113,-75.15 -10.324,-80.382 -6.841,-1.984 -11.928,-3.639 -15.65,-4.849 -3.749,-1.219 -6.826,-2.22 -7.88,-2.22 z"
   id="path206" />

	</g>

	<g
   id="XMLID_412_">
		<path
   style="fill:#ce8b35"
   d="m 1585.965,225.931 c -0.171,0 -0.338,-0.088 -0.431,-0.246 -0.141,-0.238 -0.062,-0.544 0.177,-0.684 1.555,-0.917 3.286,-1.524 5.069,-1.785 -2.811,-2.315 -4.344,-6.146 -3.793,-9.761 0.041,-0.273 0.302,-0.457 0.569,-0.419 0.273,0.042 0.461,0.296 0.419,0.569 -0.56,3.681 1.266,7.609 4.441,9.553 l 1.388,0.849 -1.625,0.077 c -2.094,0.099 -4.155,0.713 -5.961,1.778 -0.079,0.046 -0.166,0.069 -0.253,0.069 z"
   id="path207" />

	</g>

</g>
  </g>
</svg>
