<?xml version="1.0" encoding="UTF-8" standalone="no"?>
<!-- Created with Inkscape (http://www.inkscape.org/) -->

<svg
   width="28.60877mm"
   height="95.137932mm"
   viewBox="0 0 28.60877 95.137932"
   version="1.1"
   id="svg1"
   inkscape:version="1.4.2 (f4327f4, 2025-05-13)"
   sodipodi:docname="man6.svg"
   xmlns:inkscape="http://www.inkscape.org/namespaces/inkscape"
   xmlns:sodipodi="http://sodipodi.sourceforge.net/DTD/sodipodi-0.dtd"
   xmlns="http://www.w3.org/2000/svg"
   xmlns:svg="http://www.w3.org/2000/svg">
  <sodipodi:namedview
     id="namedview1"
     pagecolor="#ffffff"
     bordercolor="#000000"
     borderopacity="0.25"
     inkscape:showpageshadow="2"
     inkscape:pageopacity="0.0"
     inkscape:pagecheckerboard="0"
     inkscape:deskcolor="#d1d1d1"
     inkscape:document-units="mm"
     inkscape:zoom="1.2275954"
     inkscape:cx="-36.657029"
     inkscape:cy="219.94217"
     inkscape:window-width="2880"
     inkscape:window-height="1676"
     inkscape:window-x="-12"
     inkscape:window-y="-12"
     inkscape:window-maximized="1"
     inkscape:current-layer="layer1" />
  <defs
     id="defs1" />
  <g
     inkscape:label="图层 1"
     inkscape:groupmode="layer"
     id="layer1"
     transform="translate(-114.56458,-90.222917)">
    <g
       id="XMLID_1658_"
       transform="matrix(0.26458333,0,0,0.26458333,108.50151,71.656096)">
		<path
   id="XMLID_11_"
   style="fill:#9b7e51"
   d="m 46.61,404.555 c 0,0 -0.313,2.875 -1.25,6.125 -0.937,3.25 -4.063,9.188 -4.063,11.438 0,2.25 1.875,6.625 9.875,7.5 8,0.875 13.247,-2.813 14.747,-4.563 1.5,-1.75 -1.372,-9.25 -1.372,-12.875 0,-3.625 -1,-8 -1,-8 0,0 -10.062,-6.5 -16.937,0.375 z" />

		<g
   id="XMLID_398_">
			<path
   id="XMLID_89_"
   style="fill:#6d5949"
   d="m 42.356,423.493 c 6.183,4.853 16.056,3.98 22.796,0.945 0.586,-0.264 0.078,-1.126 -0.505,-0.863 -6.272,2.824 -15.801,3.75 -21.584,-0.789 -0.5,-0.393 -1.213,0.31 -0.707,0.707 z" />

		</g>

		<g
   id="XMLID_401_">
			<path
   id="XMLID_88_"
   style="fill:#6d5949"
   d="m 56.86,415.429 c 2.561,0.499 4.778,1.725 6.555,3.636 0.439,0.472 1.145,-0.236 0.707,-0.707 -1.883,-2.025 -4.282,-3.364 -6.997,-3.894 -0.628,-0.122 -0.897,0.842 -0.265,0.965 z" />

		</g>

		<g
   id="XMLID_402_">
			<path
   id="XMLID_87_"
   style="fill:#6d5949"
   d="m 44.325,417.022 c 1.934,-1.793 5.246,-1.813 7.717,-1.986 0.638,-0.045 0.643,-1.045 0,-1 -2.806,0.196 -6.247,0.262 -8.424,2.279 -0.473,0.438 0.236,1.144 0.707,0.707 z" />

		</g>

		<g
   id="XMLID_403_">
			<path
   id="XMLID_86_"
   style="fill:#6d5949"
   d="m 50.674,413.063 c 1.573,-0.233 3.133,-0.15 4.678,0.224 0.625,0.152 0.892,-0.813 0.266,-0.964 -1.728,-0.419 -3.452,-0.485 -5.21,-0.224 -0.634,0.094 -0.364,1.057 0.266,0.964 z" />

		</g>

		<g
   id="XMLID_404_">
			<path
   id="XMLID_85_"
   style="fill:#6d5949"
   d="m 51.366,410.649 c 1.353,-0.203 2.68,-0.074 3.981,0.341 0.615,0.196 0.878,-0.769 0.266,-0.964 -1.481,-0.473 -2.978,-0.571 -4.513,-0.341 -0.634,0.095 -0.365,1.058 0.266,0.964 z" />

		</g>

		<g
   id="XMLID_405_">
			<path
   id="XMLID_84_"
   style="fill:#6d5949"
   d="m 51.799,408.499 c 1.37,-0.196 2.723,-0.087 4.052,0.289 0.62,0.176 0.885,-0.789 0.266,-0.964 -1.513,-0.428 -3.03,-0.511 -4.584,-0.289 -0.634,0.09 -0.364,1.054 0.266,0.964 z" />

		</g>

		<g
   id="XMLID_406_">
			<path
   id="XMLID_83_"
   style="fill:#6d5949"
   d="m 51.998,406.122 c 1.341,-0.457 2.759,-0.273 4.076,0.178 0.61,0.209 0.872,-0.757 0.266,-0.964 -1.474,-0.504 -3.111,-0.689 -4.608,-0.178 -0.605,0.206 -0.345,1.173 0.266,0.964 z" />

		</g>

		<g
   id="XMLID_407_">
			<path
   id="XMLID_82_"
   style="fill:#6d5949"
   d="m 56.88,403.527 c -0.756,1.735 -1.124,3.52 -1.323,5.397 -0.182,1.718 -0.487,3.469 0.422,5.016 0.326,0.555 1.19,0.052 0.863,-0.505 -0.785,-1.336 -0.446,-3.061 -0.285,-4.511 0.189,-1.703 0.498,-3.313 1.186,-4.893 0.255,-0.583 -0.606,-1.093 -0.863,-0.504 z" />

		</g>

		<g
   id="XMLID_408_">
			<path
   id="XMLID_77_"
   style="fill:#6d5949"
   d="m 51.657,403.3 c -0.231,1.581 -0.462,3.163 -0.693,4.744 -0.267,1.829 -0.274,3.939 -2.102,4.958 -0.562,0.313 -0.059,1.177 0.505,0.864 1.356,-0.755 1.925,-1.82 2.226,-3.308 0.465,-2.298 0.689,-4.671 1.028,-6.991 0.092,-0.63 -0.871,-0.902 -0.964,-0.267 z" />

		</g>

		<path
   id="XMLID_9_"
   style="fill:#9b7e51"
   d="m 88.777,399.138 c 0,0 -1.833,8.667 -1.583,10.833 0.25,2.167 7.75,2.583 10.333,3.917 2.583,1.333 10.333,6.5 16.583,7.167 6.25,0.667 14.25,-1 16.25,-2 2,-1 -0.833,-4.667 -2.833,-6.167 -2,-1.5 -13.25,-7.25 -14.333,-9.083 -1.083,-1.833 -2.751,-6.978 -2.751,-6.978 0,0 -19.833,-4.105 -21.666,2.311 z" />

		<path
   id="XMLID_10_"
   style="fill:#878cdd"
   d="m 44.86,220.888 c 0,0 -2.5,13.667 -1.5,17 1,3.333 0.028,7.167 -0.236,8.333 -0.264,1.167 0.431,30.167 0,34.167 -0.431,4 -1.264,5.833 -0.764,8.167 0.5,2.333 3,5.333 2.5,6.667 -0.5,1.333 -0.339,9.583 -1.295,10.583 -0.955,1 -0.794,3 0,4.875 0.795,1.875 0.331,3.25 0,5.5 -0.33,2.25 -1.294,10.75 0,14.625 1.295,3.875 0.081,9.125 0,11 -0.08,1.875 0.081,22.375 0,26.875 -0.08,4.5 0.831,14 0,18.5 -0.83,4.5 -1.33,7.125 -0.58,9.25 0.75,2.125 0.125,3.75 0,5.25 -0.125,1.5 3.356,4.69 3.356,4.69 0,0 0.894,-2.94 6.644,-3.19 5.75,-0.25 10.987,3.19 10.987,3.19 0,0 2.388,-1.565 2.013,-5.565 -0.375,-4 0,-6.375 1,-12.375 1,-6 -0.375,-15.875 0,-19.125 0.375,-3.25 2.25,-21 1.875,-26.375 -0.375,-5.375 -0.625,-12.5 -0.625,-15.75 0,-3.25 2.25,-11.375 2.25,-16.625 0,-5.25 0.125,-11.375 0.75,-14.5 0.625,-3.125 1.625,-18.875 2.875,-27 1.25,-8.125 0.625,-17.11 3.125,-19.055 2.5,-1.945 3.75,6.055 5.5,17.43 1.75,11.375 3.75,28.875 6.75,36.875 3,8 1.125,8.75 2.75,12.125 1.625,3.375 1.75,6.125 1.75,8.125 0,2 -2.625,6.25 -2.125,11 0.5,4.75 0.5,6.125 0.75,14.25 0.25,8.125 -0.125,17.625 -0.75,21.75 -0.625,4.125 -2.625,9.5 -2.375,11.625 0.25,2.125 -1.625,6 -1.625,9.875 0,3.875 0.375,7.75 0.375,7.75 0,0 15.25,-4.375 18.125,-4.375 2.875,0 4,1 4,1 0,0 4,-29.25 5.5,-38.125 1.5,-8.875 2.375,-25.375 2.75,-28.75 0.375,-3.375 2.375,-11.542 0.875,-17.396 -1.5,-5.854 -4.625,-27.229 -5.875,-35.979 -1.25,-8.75 -4.5,-27.75 -6.75,-36.375 0,0 -1.75,-13.708 -5,-19.917 z" />

		<path
   id="XMLID_7_"
   style="fill:#3e557a"
   d="m 44.193,222.388 v -5.333 c 0,0 -1.417,-0.667 -1.833,-2.25 -0.417,-1.583 0,-7.75 0,-7.75 0,0 -4.833,-1.75 -7.167,-6 -2.333,-4.25 -4.25,-8.75 -5.167,-11.667 -0.917,-2.917 -4.5,-9.917 -4.833,-12.25 -0.333,-2.333 -0.833,-9.5 -1.833,-11.417 -1,-1.917 0,-4.5 0,-4.5 0,0 -1.083,-12.083 1.25,-17.083 2.333,-5 3.417,-5.333 3.417,-5.333 0,0 0.917,-1.333 2.5,-2.417 1.583,-1.083 17.25,-7.917 17.75,-8.667 0.5,-0.75 2.083,-0.542 2.083,-0.542 0,0 10.917,4.625 16.75,3.292 5.833,-1.333 11.163,-4.497 11.163,-4.497 0,0 0.837,-0.392 1.837,0 1,0.392 2,1.08 2,1.08 0,0 12.5,4.625 14.25,4.937 1.75,0.312 3.187,1.125 3.687,1.75 0.5,0.625 0.5,0.625 0.5,0.625 0,0 5.5,4.563 6.813,10.125 1.312,5.563 1.187,6.438 1.187,6.438 0,0 0.75,0.813 0.688,1.313 -0.063,0.5 0.004,1.563 0.004,1.563 0,0 1.809,5.375 3.059,7.813 1.25,2.438 1.75,6.75 1.875,10.438 0.125,3.688 1.875,9.813 1.25,14 -0.625,4.187 -0.937,6.813 -2.437,8.688 -1.5,1.875 -4.5,4.625 -13.313,4.438 0,0 1.25,11.125 2.188,13 0.937,1.875 0.187,4.063 0.187,4.063 0,0 0.875,4.438 0.688,5.188 -0.188,0.75 -14.938,7.438 -32.375,7.375 -17.437,-0.063 -26.168,-6.42 -26.168,-6.42 z" />

		<path
   id="XMLID_3_"
   style="fill:#6d5e4d"
   d="m 43.985,95.888 c 0,0 -0.5,-2.917 -1.417,-5.125 -0.917,-2.208 -1.042,-5.667 -0.208,-7.625 0,0 -0.725,-2.042 0.534,-5 1.258,-2.958 4.258,-3.583 5.05,-4.917 0.792,-1.333 4.292,-2.708 7.292,-3 3,-0.292 4.667,0.875 5.625,0.667 0.958,-0.208 5.042,-0.542 7.917,0.792 2.875,1.334 3.542,2.667 3.542,2.667 0,0 2.583,1.625 3.208,3.625 0.625,2 0.25,2.583 0.25,2.583 0,0 1.015,5.875 0.112,11.25 -0.903,5.375 -2.695,1.958 -2.695,1.958 0,0 -0.375,-4.583 -2.083,-5.667 -1.708,-1.083 -0.625,-5.083 -2.792,-5.75 -2.167,-0.667 -16.375,0.667 -18.5,2.417 -2.125,1.75 -2.375,1.708 -2.292,4.167 0.083,2.458 0.5,4.167 0.125,5.792 -0.375,1.625 0.75,3.792 -0.5,3.583 -1.25,-0.209 -2.293,-0.375 -3.168,-2.417 z" />

		<path
   id="XMLID_4_"
   style="fill:#f6d892"
   d="m 44.298,94.43 c 0,0 -1.688,0.438 -2.188,3 -0.5,2.562 0.625,6.688 1.813,7.875 1.188,1.187 3,1.313 3,1.313 0,0 1.125,4.75 3.813,7.25 2.687,2.5 3.437,2.938 3.437,2.938 l -0.625,7.5 c 0,0 7.5,3.937 11.313,4.062 3.813,0.125 7.375,-3.312 8.188,-5.687 l -0.313,-8.563 c 0,0 2.563,-4.375 2.5,-9.438 0,0 2.979,-0.542 2.854,-4.917 -0.125,-4.375 0.083,-7.625 -1.604,-8.25 -1.687,-0.625 -3.126,1.917 -3.126,1.917 0,0 -0.563,-4.438 -1.563,-5.438 -1,-1 -1,-4.563 -1.75,-5.563 -0.75,-1 -4.938,-2.125 -8.938,-1.25 -4,0.875 -5.25,0.875 -7.938,1 -2.687,0.125 -5.687,1.688 -6.437,3.563 -0.75,1.875 -0.063,6.625 -0.313,8.125 -0.25,1.5 0.313,3 0.063,3.375 -0.25,0.375 -1.749,-1.499 -2.186,-2.812 z" />

		<path
   id="XMLID_5_"
   style="fill:#a9869a"
   d="m 50.833,127.18 3.35,-4.828 c 0,0 7.356,5.011 11.483,4.828 4.127,-0.182 7.796,-6.084 7.796,-6.084 l 5.284,4.879 c 0,0 -6.705,14.758 -9.83,14.747 -4.44,-0.016 -18.083,-13.542 -18.083,-13.542 z" />

		<path
   id="XMLID_8_"
   style="fill:#f6d892"
   d="m 65.423,181.43 -12.375,3 c 0,0 -0.562,-0.792 -1.771,-0.792 -1.208,0 -2.583,0.458 -2.583,0.458 0,0 -4.833,-2.542 -5.833,-3.042 -1,-0.5 -2.542,0 -4.125,-0.583 -1.583,-0.583 -1.833,-1.75 -1.5,-2.042 0,0 -1.958,-0.625 -1.958,-1.375 0,-0.75 0.833,-1.042 0.833,-1.042 0,0 -2.667,-0.75 -2.292,-1.792 0.375,-1.042 1.333,-1.375 1.75,-1.5 0,0 -1.292,-0.5 -0.625,-1.208 0.667,-0.708 4.458,-1.292 5.417,-1.625 0.958,-0.333 2.833,-0.667 3.708,-0.583 0.875,0.083 2.5,0.667 2.5,0.667 0,0 -0.583,-0.917 -0.25,-1.875 0.333,-0.958 1.875,0.417 2.583,0.792 0.708,0.375 3.792,1.417 5.125,2.792 1.333,1.375 2.708,2.583 2.708,2.583 0,0 8.458,5.125 10.292,6.625 z" />

		<path
   id="XMLID_6_"
   style="fill:#f6d892"
   d="m 89.797,178.305 c 0,0 2.813,1.375 3.625,4.438 0.813,3.063 0.313,6.875 0.313,6.875 0,0 3.937,-3.063 5.937,-4 2,-0.937 8.604,-3.708 9.604,-5.146 1,-1.438 1.625,-1.708 1.208,-3.169 -0.206,-0.722 -1.063,-1.436 -1.063,-1.436 0,0 0.125,-1.875 -0.437,-2.813 -0.563,-0.938 -1.625,-1.438 -1.625,-1.438 0,0 -1.688,-1.75 -2.375,-2.313 -0.688,-0.563 -3,-1.063 -5.25,1 -2.25,2.063 -5.875,5.438 -5.875,5.438 0,0 -2.812,1.751 -4.062,2.564 z" />

		<g
   id="XMLID_64_">
			<path
   id="XMLID_79_"
   style="fill:#d6a474"
   d="m 54.196,117.018 c 2.859,1.74 7.051,3.434 10.469,2.784 2.976,-0.566 5.788,-3.285 7.955,-5.206 0.483,-0.428 -0.227,-1.133 -0.707,-0.707 -1.931,1.711 -4.417,4.072 -6.961,4.801 -3.209,0.92 -7.564,-0.9 -10.251,-2.535 -0.551,-0.336 -1.055,0.529 -0.505,0.863 z" />

		</g>

		<g
   id="XMLID_69_">
			<path
   id="XMLID_81_"
   style="fill:#d6a474"
   d="m 62.567,120.612 c 0.508,0.876 1.134,1.671 1.87,2.367 0.467,0.442 1.176,-0.264 0.707,-0.707 -0.678,-0.641 -1.246,-1.357 -1.714,-2.164 -0.322,-0.557 -1.187,-0.054 -0.863,0.504 z" />

		</g>

		<g
   id="XMLID_70_">
			<path
   id="XMLID_97_"
   style="fill:#d6a474"
   d="m 45.786,98.207 c 0.097,2.309 0.408,4.579 0.936,6.83 0.147,0.626 1.111,0.361 0.964,-0.266 -0.507,-2.163 -0.806,-4.344 -0.9,-6.564 -0.027,-0.642 -1.027,-0.645 -1,0 z" />

		</g>

		<g
   id="XMLID_71_">
			<path
   id="XMLID_106_"
   style="fill:#d6a474"
   d="m 73.259,95.111 c 0.568,3.154 1.074,6.292 0.905,9.507 -0.034,0.643 0.966,0.641 1,0 0.174,-3.308 -0.357,-6.529 -0.941,-9.773 -0.114,-0.632 -1.078,-0.364 -0.964,0.266 z" />

		</g>

		<g
   id="XMLID_72_">
			<path
   id="XMLID_109_"
   style="fill:#d6a474"
   d="m 75.583,94.726 c -1.133,1.518 -1.329,3.397 -1.471,5.23 -0.05,0.642 0.951,0.639 1,0 0.13,-1.672 0.301,-3.34 1.335,-4.725 0.384,-0.517 -0.484,-1.016 -0.864,-0.505 z" />

		</g>

		<g
   id="XMLID_73_">
			<path
   id="XMLID_113_"
   style="fill:#d6a474"
   d="m 74.818,98.224 c 0.51,0.47 0.822,1.028 0.962,1.707 0.13,0.63 1.094,0.363 0.964,-0.266 -0.172,-0.834 -0.594,-1.572 -1.219,-2.148 -0.472,-0.436 -1.181,0.27 -0.707,0.707 z" />

		</g>

		<g
   id="XMLID_74_">
			<path
   id="XMLID_114_"
   style="fill:#d6a474"
   d="m 43.493,98.586 c 1.308,0.57 2.156,1.754 2.541,3.102 0.177,0.618 1.142,0.355 0.964,-0.266 -0.45,-1.573 -1.469,-3.032 -3.001,-3.7 -0.583,-0.254 -1.093,0.607 -0.504,0.864 z" />

		</g>

		<g
   id="XMLID_75_">
			<path
   id="XMLID_132_"
   style="fill:#d6a474"
   d="m 44.559,98.869 c -0.377,0.677 -0.556,1.411 -0.513,2.187 0.036,0.64 1.036,0.644 1,0 -0.034,-0.604 0.081,-1.152 0.376,-1.682 0.314,-0.564 -0.55,-1.069 -0.863,-0.505 z" />

		</g>

		<g
   id="XMLID_78_">
			<path
   id="XMLID_171_"
   style="fill:#d6a474"
   d="m 59.635,97.811 c 0.225,1.363 0.084,2.591 -0.329,3.897 -0.239,0.756 -0.458,1.471 -0.138,2.232 0.567,1.345 2.162,1.88 3.502,1.787 0.639,-0.044 0.643,-1.045 0,-1 -1.298,0.09 -2.734,-0.423 -2.621,-2.058 0.042,-0.614 0.434,-1.273 0.554,-1.887 0.213,-1.083 0.175,-2.153 -0.004,-3.237 -0.104,-0.633 -1.068,-0.364 -0.964,0.266 z" />

		</g>

		<g
   id="XMLID_80_">
			<path
   id="XMLID_110_"
   style="fill:#6d5e4d"
   d="m 51.075,93.963 c 0.978,-1.011 2.333,-1.257 3.628,-0.744 0.997,0.394 1.429,-1.215 0.443,-1.606 -1.817,-0.719 -3.899,-0.223 -5.248,1.173 -0.745,0.77 0.431,1.949 1.177,1.177 z" />

		</g>

		<path
   id="XMLID_93_"
   style="fill:#705842"
   d="m 54.794,98.374 c 0.095,1.083 -0.27,2 -0.816,2.048 -0.546,0.048 -1.066,-0.791 -1.161,-1.874 -0.095,-1.083 0.27,-2 0.816,-2.048 0.546,-0.048 1.065,0.791 1.161,1.874 z" />

		<path
   id="XMLID_99_"
   style="fill:#705842"
   d="m 67.327,97.071 c 0.095,1.083 -0.27,2 -0.816,2.048 -0.546,0.048 -1.065,-0.791 -1.161,-1.874 -0.095,-1.083 0.27,-2 0.816,-2.048 0.546,-0.048 1.065,0.791 1.161,1.874 z" />

		<g
   id="XMLID_92_">
			<path
   id="XMLID_100_"
   style="fill:#6d5e4d"
   d="m 67.348,91.429 c -1.266,-0.613 -2.623,-0.376 -3.663,0.55 -0.8,0.713 -1.76,-0.649 -0.969,-1.355 1.458,-1.301 3.584,-1.552 5.331,-0.706 0.966,0.467 0.267,1.979 -0.699,1.511 z" />

		</g>

		<path
   id="XMLID_118_"
   style="fill:#ffffff"
   d="m 58.027,108.222 c 0,0 2.288,0.75 4.394,0.208 2.106,-0.542 2.979,-1.792 3.918,-1.667 0.938,0.125 0.277,3.089 -2.981,4.083 -4.915,1.501 -6.998,-2.749 -5.331,-2.624 z" />

		<g
   id="XMLID_108_">
			<path
   id="XMLID_150_"
   style="fill:#4f453c"
   d="m 43.056,82.674 c 0.594,0.529 3.42,2.153 3.085,0.135 -0.094,-0.567 -0.403,-1.111 -0.535,-1.677 -0.138,-0.59 -0.439,-1.736 -0.2,-2.338 0.241,-0.606 0.45,-0.341 0.752,0.037 0.161,0.201 0.323,0.4 0.493,0.593 0.491,0.557 1.026,1.064 1.59,1.544 0.244,0.207 0.599,-0.145 0.354,-0.354 -0.518,-0.44 -1.011,-0.902 -1.466,-1.407 -0.361,-0.399 -0.694,-1.062 -1.165,-1.351 -0.384,-0.235 -0.775,-0.135 -0.969,0.265 -0.374,0.773 -0.083,2.149 0.086,2.961 0.091,0.436 0.6,1.303 0.547,1.71 -0.158,1.204 -1.842,-0.136 -2.219,-0.472 -0.239,-0.213 -0.594,0.139 -0.353,0.354 z" />

		</g>

		<g
   id="XMLID_134_">
			<path
   id="XMLID_149_"
   style="fill:#4f453c"
   d="m 48.801,75.248 c 0.443,1.771 1.315,3.346 2.575,4.666 0.223,0.233 0.576,-0.121 0.354,-0.354 -1.204,-1.261 -2.023,-2.755 -2.447,-4.446 -0.078,-0.311 -0.561,-0.179 -0.482,0.134 z" />

		</g>

		<g
   id="XMLID_135_">
			<path
   id="XMLID_148_"
   style="fill:#4f453c"
   d="m 57.688,73.245 c 0.484,1.761 0.713,3.547 0.689,5.373 -0.004,0.322 0.496,0.322 0.5,0 0.024,-1.874 -0.21,-3.699 -0.707,-5.506 -0.085,-0.31 -0.568,-0.178 -0.482,0.133 z" />

		</g>

		<g
   id="XMLID_141_">
			<path
   id="XMLID_147_"
   style="fill:#4f453c"
   d="m 62.839,73.747 c 0.181,1.163 -0.004,2.311 0.016,3.477 0.007,0.383 0.002,0.984 0.485,1.091 0.544,0.121 1.175,-0.67 1.48,-0.99 0.607,-0.638 1.093,-1.366 1.483,-2.153 0.143,-0.287 -0.289,-0.541 -0.432,-0.252 -0.244,0.492 -2.1,3.371 -2.513,2.466 -0.192,-0.421 0.048,-1.481 0.063,-1.941 0.02,-0.62 -0.005,-1.218 -0.1,-1.831 -0.049,-0.317 -0.531,-0.182 -0.482,0.133 z" />

		</g>

		<g
   id="XMLID_142_">
			<path
   id="XMLID_146_"
   style="fill:#4f453c"
   d="m 70.254,76.242 c -0.071,0.545 -0.514,1.034 -0.818,1.468 -0.317,0.454 -0.644,0.903 -0.976,1.346 -0.193,0.258 0.241,0.507 0.432,0.252 0.421,-0.562 0.831,-1.132 1.228,-1.711 0.297,-0.433 0.565,-0.828 0.634,-1.356 0.041,-0.317 -0.459,-0.314 -0.5,0.001 z" />

		</g>

		<g
   id="XMLID_144_">
			<path
   id="XMLID_145_"
   style="fill:#4f453c"
   d="m 71.732,81.331 c 1.08,-0.273 2.047,-0.783 2.89,-1.51 0.244,-0.211 -0.111,-0.563 -0.354,-0.354 -0.779,0.672 -1.673,1.129 -2.67,1.382 -0.31,0.078 -0.178,0.561 0.134,0.482 z" />

		</g>

		<g
   id="XMLID_143_">
			<path
   id="XMLID_151_"
   style="fill:#4f453c"
   d="m 71.732,82.657 c 1.08,-0.273 2.047,-0.783 2.89,-1.51 0.244,-0.21 -0.111,-0.563 -0.354,-0.354 -0.779,0.672 -1.673,1.13 -2.67,1.382 -0.31,0.079 -0.178,0.561 0.134,0.482 z" />

		</g>

		<g
   id="XMLID_152_">
			<path
   id="XMLID_153_"
   style="fill:#4f453c"
   d="m 45.516,85.657 c -1.08,-0.273 -2.047,-0.783 -2.89,-1.51 -0.244,-0.21 0.111,-0.563 0.353,-0.354 0.779,0.672 1.673,1.13 2.67,1.382 0.312,0.079 0.18,0.561 -0.133,0.482 z" />

		</g>

		<g
   id="XMLID_154_">
			<path
   id="XMLID_155_"
   style="fill:#4f453c"
   d="m 53.269,74.254 c 0.069,1.824 0.599,3.545 1.56,5.096 0.17,0.274 0.588,0 0.419,-0.273 -0.919,-1.482 -1.413,-3.112 -1.48,-4.854 -0.012,-0.321 -0.511,-0.291 -0.499,0.031 z" />

		</g>

		<g
   id="XMLID_156_">
			<path
   id="XMLID_174_"
   style="fill:#846a7a"
   d="m 59.528,134.294 c 0.802,-0.916 1.603,-1.831 2.405,-2.747 0.786,-0.898 1.729,-2.695 3.047,-1.616 0.494,0.404 1.206,-0.299 0.707,-0.707 -0.899,-0.736 -1.844,-1.142 -2.798,-0.272 -1.485,1.355 -2.743,3.122 -4.068,4.635 -0.423,0.482 0.282,1.192 0.707,0.707 z" />

		</g>

		<g
   id="XMLID_157_">
			<path
   id="XMLID_172_"
   style="fill:#846a7a"
   d="m 68.533,139.454 c -0.644,-2.641 -1.308,-5.35 -0.986,-8.084 0.1,-0.852 0.016,-1.28 0.775,-1.702 0.77,-0.427 1.44,-0.029 2.19,0.351 1.109,0.561 2.034,1.361 2.851,2.289 0.426,0.484 1.131,-0.226 0.707,-0.707 -1.193,-1.355 -5.267,-4.835 -6.959,-2.601 -0.754,0.996 -0.681,2.991 -0.649,4.183 0.06,2.218 0.583,4.392 1.106,6.537 0.153,0.625 1.117,0.361 0.965,-0.266 z" />

		</g>

		<g
   id="XMLID_158_">
			<path
   id="XMLID_177_"
   style="fill:#846a7a"
   d="m 68.735,133.347 c 0.643,0 0.644,-1 0,-1 -0.644,0 -0.645,1 0,1 z" />

		</g>

		<g
   id="XMLID_159_">
			<path
   id="XMLID_199_"
   style="fill:#846a7a"
   d="m 69.86,137.305 c 0,-0.014 0,-0.028 0,-0.042 0,-0.643 -1,-0.645 -1,0 0,0.014 0,0.028 0,0.042 0,0.644 1,0.644 1,0 z" />

		</g>

		<g
   id="XMLID_160_">
			<path
   id="XMLID_224_"
   style="fill:#2e3f5e"
   d="m 28.871,155.771 c 4.526,1.646 8.491,4.225 11.849,7.678 0.449,0.462 1.156,-0.245 0.707,-0.707 -3.477,-3.575 -7.604,-6.23 -12.29,-7.935 -0.606,-0.221 -0.867,0.745 -0.266,0.964 z" />

		</g>

		<g
   id="XMLID_161_">
			<path
   id="XMLID_223_"
   style="fill:#2e3f5e"
   d="m 24.944,161.59 c 2.962,0.116 5.735,0.882 8.337,2.302 0.565,0.308 1.07,-0.555 0.505,-0.863 -2.75,-1.501 -5.711,-2.316 -8.841,-2.438 -0.644,-0.026 -0.643,0.974 -0.001,0.999 z" />

		</g>

		<g
   id="XMLID_162_">
			<path
   id="XMLID_221_"
   style="fill:#2e3f5e"
   d="m 25.442,165.654 c 2.353,-0.035 4.659,0.22 6.946,0.773 -0.1,-0.245 -0.199,-0.49 -0.299,-0.734 -0.213,0.38 -2.29,0.36 -2.663,0.396 -0.805,0.078 -1.61,0.156 -2.415,0.234 -0.635,0.061 -0.641,1.062 0,1 1.431,-0.138 2.863,-0.27 4.293,-0.415 0.678,-0.069 1.288,-0.066 1.648,-0.709 0.153,-0.274 0.021,-0.657 -0.299,-0.735 -2.374,-0.574 -4.769,-0.845 -7.212,-0.809 -0.642,0.008 -0.644,1.008 0.001,0.999 z" />

		</g>

		<g
   id="XMLID_164_">
			<path
   id="XMLID_220_"
   style="fill:#2e3f5e"
   d="m 30.116,140.809 c 3.664,4.736 6.785,9.873 9.225,15.345 0.971,2.178 1.562,4.663 2.757,6.722 0.701,1.207 1.255,1.998 1.529,3.38 0.209,1.054 0.375,1.912 0.957,2.823 0.345,0.541 1.211,0.04 0.863,-0.505 -1.132,-1.775 -0.88,-3.939 -2.064,-5.724 -1.577,-2.376 -2.336,-5.38 -3.535,-7.985 -2.423,-5.264 -5.482,-10.184 -9.026,-14.763 -0.392,-0.509 -1.095,0.204 -0.706,0.707 z" />

		</g>

		<g
   id="XMLID_166_">
			<path
   id="XMLID_219_"
   style="fill:#2e3f5e"
   d="m 43.422,159.879 c 1.816,-1.438 3.216,-3.273 4.121,-5.404 0.249,-0.586 -0.612,-1.096 -0.864,-0.505 -0.876,2.063 -2.208,3.811 -3.965,5.202 -0.504,0.399 0.208,1.103 0.708,0.707 z" />

		</g>

		<g
   id="XMLID_173_">
			<path
   id="XMLID_218_"
   style="fill:#2e3f5e"
   d="m 44.61,162.227 c 1.396,-0.042 2.72,-0.356 3.994,-0.925 0.587,-0.262 0.078,-1.124 -0.505,-0.863 -1.108,0.495 -2.278,0.752 -3.489,0.789 -0.642,0.019 -0.645,1.019 0,0.999 z" />

		</g>

		<g
   id="XMLID_180_">
			<path
   id="XMLID_217_"
   style="fill:#2e3f5e"
   d="m 99.318,170.058 c -0.064,-2.633 -0.278,-5.321 -0.135,-7.953 0.146,-2.69 0.642,-5.267 0.589,-7.978 -0.049,-2.502 -0.373,-5.036 0.016,-7.522 0.402,-2.569 1.472,-4.904 1.293,-7.549 -0.043,-0.639 -1.043,-0.643 -1,0 0.178,2.634 -0.937,4.952 -1.316,7.506 -0.37,2.498 -0.043,5.054 0.007,7.565 0.05,2.552 -0.382,5.013 -0.559,7.544 -0.194,2.775 0.038,5.61 0.106,8.388 0.015,0.642 1.015,0.644 0.999,-0.001 z" />

		</g>

		<g
   id="XMLID_187_">
			<path
   id="XMLID_216_"
   style="fill:#2e3f5e"
   d="m 99.64,149.027 c 1.634,-1.182 2.926,-2.702 3.787,-4.529 0.273,-0.579 -0.589,-1.087 -0.864,-0.505 -0.785,1.666 -1.934,3.089 -3.428,4.17 -0.516,0.374 -0.017,1.242 0.505,0.864 z" />

		</g>

		<g
   id="XMLID_194_">
			<path
   id="XMLID_214_"
   style="fill:#2e3f5e"
   d="m 99.512,151.272 c 1.211,-0.359 2.291,-0.988 3.201,-1.864 0.465,-0.447 -0.243,-1.154 -0.707,-0.707 -0.788,0.758 -1.711,1.296 -2.76,1.607 -0.615,0.183 -0.353,1.148 0.266,0.964 z" />

		</g>

		<g
   id="XMLID_201_">
			<path
   id="XMLID_213_"
   style="fill:#2e3f5e"
   d="m 107.473,150.876 c -1.378,0.228 -2.615,0.871 -3.615,1.843 -0.462,0.449 0.245,1.156 0.707,0.707 0.886,-0.861 1.957,-1.384 3.174,-1.586 0.633,-0.104 0.364,-1.068 -0.266,-0.964 z" />

		</g>

		<g
   id="XMLID_208_">
			<path
   id="XMLID_212_"
   style="fill:#2e3f5e"
   d="m 107.805,153.478 c -1.754,0.411 -3.299,1.357 -4.453,2.742 -0.29,0.348 -0.089,0.808 0.354,0.854 0.693,0.072 1.375,0.089 2.07,0.053 0.64,-0.033 0.644,-1.033 0,-1 -0.695,0.036 -1.378,0.018 -2.07,-0.053 0.118,0.285 0.236,0.569 0.354,0.854 1.052,-1.263 2.41,-2.11 4.012,-2.485 0.625,-0.147 0.36,-1.112 -0.267,-0.965 z" />

		</g>

		<g
   id="XMLID_215_">
			<path
   id="XMLID_211_"
   style="fill:#2e3f5e"
   d="m 94.19,151.25 c 0.775,2.357 1.8,4.767 2.119,7.239 0.081,0.629 1.082,0.637 1,0 -0.332,-2.575 -1.348,-5.05 -2.155,-7.505 -0.2,-0.609 -1.166,-0.348 -0.964,0.266 z" />

		</g>

		<g
   id="XMLID_222_">
			<path
   id="XMLID_210_"
   style="fill:#2e3f5e"
   d="m 109.227,182.01 c 1.499,0.957 1.63,2.613 2.296,4.103 0.331,0.741 0.849,1.193 1.687,0.993 0.232,-0.055 0.342,-0.266 0.367,-0.482 0.291,-2.523 -0.646,-4.974 -2.524,-6.679 -0.476,-0.432 -1.185,0.273 -0.707,0.707 1.706,1.548 2.494,3.686 2.231,5.972 0.122,-0.161 0.245,-0.322 0.367,-0.482 -0.583,0.139 -1.192,-2.483 -1.444,-2.991 -0.413,-0.831 -0.985,-1.504 -1.769,-2.004 -0.544,-0.348 -1.046,0.517 -0.504,0.863 z" />

		</g>

		<g
   id="XMLID_229_">
			<path
   id="XMLID_209_"
   style="fill:#2e3f5e"
   d="m 107.949,183.127 c 1.138,1.813 1.753,3.786 1.829,5.928 0.023,0.642 1.023,0.645 1,0 -0.082,-2.307 -0.739,-4.476 -1.966,-6.432 -0.341,-0.544 -1.207,-0.043 -0.863,0.504 z" />

		</g>

		<g
   id="XMLID_236_">
			<path
   id="XMLID_207_"
   style="fill:#2e3f5e"
   d="m 48.77,185.476 c -0.161,1.736 -1.288,3.016 -2.314,4.336 -0.349,0.448 -0.658,0.922 -0.995,1.378 -0.204,0.275 -0.375,0.733 -0.764,0.592 -0.488,-0.176 0.05,-0.957 0.248,-1.357 0.284,-0.575 -0.578,-1.082 -0.863,-0.505 -0.362,0.733 -1.139,2.2 -0.558,3.006 0.479,0.663 1.351,0.261 1.864,-0.14 1.026,-0.803 1.776,-2.243 2.555,-3.255 0.957,-1.242 1.681,-2.472 1.828,-4.055 0.059,-0.641 -0.942,-0.637 -1.001,0 z" />

		</g>

		<g
   id="XMLID_243_">
			<path
   id="XMLID_206_"
   style="fill:#2e3f5e"
   d="m 51.314,185.391 c -0.177,1.995 -0.789,3.852 -1.809,5.574 -0.329,0.555 0.535,1.059 0.863,0.505 1.111,-1.876 1.753,-3.909 1.945,-6.079 0.058,-0.641 -0.942,-0.637 -0.999,0 z" />

		</g>

		<g
   id="XMLID_250_">
			<path
   id="XMLID_204_"
   style="fill:#2e3f5e"
   d="m 43.946,207.621 c 9.875,0.712 20.219,-2.861 29.431,-6.065 4.6,-1.6 9.127,-3.413 13.562,-5.427 3.105,-1.411 6.856,-2.56 6.766,-6.581 -0.014,-0.643 -1.014,-0.645 -1,0 0.066,2.931 -2.333,3.884 -4.574,4.935 -2.217,1.04 -4.458,2.027 -6.722,2.96 -3.888,1.602 -7.84,3.048 -11.842,4.335 -8.135,2.616 -16.993,5.466 -25.621,4.843 -0.642,-0.046 -0.639,0.954 0,1 z" />

		</g>

		<g
   id="XMLID_257_">
			<path
   id="XMLID_203_"
   style="fill:#2e3f5e"
   d="m 89.586,177.629 c -7.73,-1.128 -15.261,0.652 -22.718,2.557 -0.623,0.159 -0.359,1.124 0.266,0.964 7.259,-1.855 14.656,-3.656 22.187,-2.557 0.629,0.093 0.9,-0.871 0.265,-0.964 z" />

		</g>

		<g
   id="XMLID_264_">
			<path
   id="XMLID_202_"
   style="fill:#2e3f5e"
   d="m 84.024,198.99 c 4.91,0.542 9.817,0.69 14.75,0.445 0.641,-0.032 0.644,-1.032 0,-1 -4.933,0.245 -9.84,0.097 -14.75,-0.445 -0.638,-0.071 -0.633,0.93 0,1 z" />

		</g>

		<g
   id="XMLID_271_">
			<path
   id="XMLID_200_"
   style="fill:#2e3f5e"
   d="m 45.555,217.654 c 14.546,4.881 29.987,3.983 44.822,0.978 0.63,-0.128 0.364,-1.092 -0.266,-0.964 -14.668,2.971 -29.907,3.848 -44.29,-0.978 -0.611,-0.205 -0.874,0.761 -0.266,0.964 z" />

		</g>

		<g
   id="XMLID_278_">
			<path
   id="XMLID_205_"
   style="fill:#2e3f5e"
   d="m 100.352,214.862 c -2.206,0.994 -4.491,1.715 -6.863,2.192 -0.631,0.127 -0.364,1.091 0.266,0.964 2.458,-0.493 4.817,-1.263 7.102,-2.292 0.586,-0.264 0.078,-1.127 -0.505,-0.864 z" />

		</g>

		<g
   id="XMLID_285_">
			<path
   id="XMLID_357_"
   style="fill:#2e3f5e"
   d="m 48.279,131.909 c 3.79,3.245 7.525,6.574 11.386,9.736 2.747,2.25 6.005,4.417 9.733,4.05 3.382,-0.333 5.289,-3.298 7.17,-5.819 2.394,-3.207 3.584,-7.13 5.287,-10.709 0.275,-0.578 -0.587,-1.086 -0.863,-0.505 -1.359,2.855 -2.386,5.882 -3.949,8.637 -1.586,2.797 -4.388,7.008 -7.783,7.364 -4.507,0.473 -8.14,-3.073 -11.287,-5.768 -2.995,-2.565 -5.99,-5.129 -8.986,-7.694 -0.488,-0.415 -1.198,0.289 -0.708,0.708 z" />

		</g>

		<g
   id="XMLID_181_">
			<path
   id="XMLID_359_"
   style="fill:#d6a474"
   d="m 36.743,173.24 c 3.213,-0.684 5.82,-1.612 9.077,-0.389 0.603,0.227 0.864,-0.74 0.266,-0.964 -3.418,-1.283 -6.203,-0.337 -9.609,0.389 -0.629,0.134 -0.363,1.098 0.266,0.964 z" />

		</g>

		<g
   id="XMLID_188_">
			<path
   id="XMLID_358_"
   style="fill:#d6a474"
   d="m 37.305,176.579 c 1.309,-0.223 2.539,-0.749 3.855,-0.939 1.917,-0.277 3.801,-0.124 5.628,0.527 0.607,0.217 0.869,-0.749 0.266,-0.964 -1.876,-0.669 -3.776,-0.814 -5.755,-0.589 -1.462,0.167 -2.814,0.755 -4.259,1.001 -0.633,0.107 -0.365,1.071 0.265,0.964 z" />

		</g>

		<g
   id="XMLID_195_">
			<path
   id="XMLID_376_"
   style="fill:#d6a474"
   d="m 38.461,178.697 c 1.256,-0.213 2.553,-0.548 3.829,-0.563 1.583,-0.019 3.077,0.635 4.497,1.256 0.584,0.255 1.094,-0.606 0.505,-0.864 -1.399,-0.612 -2.841,-1.257 -4.384,-1.371 -1.566,-0.115 -3.179,0.317 -4.712,0.577 -0.633,0.108 -0.365,1.072 0.265,0.965 z" />

		</g>

		<g
   id="XMLID_196_">
			<path
   id="XMLID_383_"
   style="fill:#d6a474"
   d="m 104.143,170.738 c -0.661,0.373 -1.279,0.801 -1.87,1.276 -0.502,0.403 0.21,1.107 0.707,0.707 0.524,-0.421 1.082,-0.79 1.667,-1.12 0.562,-0.316 0.058,-1.18 -0.504,-0.863 z" />

		</g>

		<g
   id="XMLID_197_">
			<path
   id="XMLID_390_"
   style="fill:#d6a474"
   d="m 106.565,175.538 c -0.488,0.339 -0.997,0.636 -1.532,0.895 -0.579,0.28 -0.073,1.143 0.505,0.864 0.535,-0.259 1.044,-0.556 1.532,-0.895 0.524,-0.365 0.025,-1.232 -0.505,-0.864 z" />

		</g>

		<g
   id="XMLID_198_">
			<path
   id="XMLID_415_"
   style="fill:#d6a474"
   d="m 107.398,179.371 c -0.167,0.111 -0.334,0.221 -0.501,0.331 -0.535,0.354 -0.034,1.22 0.505,0.864 0.167,-0.111 0.334,-0.221 0.501,-0.331 0.534,-0.354 0.034,-1.22 -0.505,-0.864 z" />

		</g>

		<g
   id="XMLID_324_">
			<path
   id="XMLID_441_"
   style="fill:#6670aa"
   d="m 77.228,230.843 c 0.056,6.172 0.581,12.381 0.002,18.542 -0.06,0.64 0.94,0.636 1,0 0.579,-6.161 0.054,-12.369 -0.002,-18.542 -0.006,-0.644 -1.006,-0.645 -1,0 z" />

		</g>

		<g
   id="XMLID_330_">
			<path
   id="XMLID_440_"
   style="fill:#6670aa"
   d="m 77.982,245.134 c 2.383,0.134 2.934,-3.197 3.297,-4.919 0.734,-3.471 1.194,-6.844 0.598,-10.376 -0.107,-0.633 -1.071,-0.365 -0.964,0.266 0.435,2.578 0.301,5.095 -0.151,7.661 -0.258,1.461 -0.689,6.485 -2.78,6.368 -0.643,-0.036 -0.641,0.964 0,1 z" />

		</g>

		<g
   id="XMLID_336_">
			<path
   id="XMLID_439_"
   style="fill:#6670aa"
   d="m 70.221,253.869 c 5.702,-2.987 11.777,-4.952 18.142,-5.892 0.634,-0.094 0.365,-1.057 -0.266,-0.964 -6.451,0.953 -12.606,2.968 -18.381,5.993 -0.57,0.299 -0.065,1.162 0.505,0.863 z" />

		</g>

		<g
   id="XMLID_342_">
			<path
   id="XMLID_437_"
   style="fill:#6670aa"
   d="m 80.235,249.804 c 1.844,0.775 3.681,1.567 5.519,2.357 0.585,0.251 1.095,-0.61 0.505,-0.863 -1.917,-0.824 -3.834,-1.65 -5.758,-2.458 -0.592,-0.249 -0.851,0.718 -0.266,0.964 z" />

		</g>

		<g
   id="XMLID_348_">
			<path
   id="XMLID_436_"
   style="fill:#6670aa"
   d="m 50.792,226.704 c -1.466,2.196 -3.122,4.295 -5.612,5.36 -0.59,0.252 -0.081,1.114 0.505,0.864 2.638,-1.128 4.418,-3.394 5.971,-5.719 0.358,-0.537 -0.508,-1.038 -0.864,-0.505 z" />

		</g>

		<g
   id="XMLID_349_">
			<path
   id="XMLID_435_"
   style="fill:#6670aa"
   d="m 45.345,224.55 c -0.612,3.313 -1.444,6.645 -1.047,10.026 0.199,1.698 0.576,3.384 0.564,5.101 -0.011,1.464 -0.019,3.996 -0.5,5.358 -0.215,0.608 0.751,0.87 0.964,0.266 0.47,-1.331 0.321,-2.821 0.451,-4.218 0.128,-1.384 0.047,-2.71 -0.136,-4.088 -0.284,-2.139 -0.61,-4.096 -0.347,-6.247 0.242,-1.984 0.652,-3.967 1.015,-5.932 0.116,-0.629 -0.847,-0.899 -0.964,-0.266 z" />

		</g>

		<g
   id="XMLID_350_">
			<path
   id="XMLID_434_"
   style="fill:#6670aa"
   d="m 73.917,253.108 c -1.371,1.375 -2.622,2.852 -3.761,4.425 -0.378,0.522 0.489,1.022 0.864,0.505 1.089,-1.503 2.294,-2.908 3.604,-4.222 0.456,-0.457 -0.251,-1.164 -0.707,-0.708 z" />

		</g>

		<g
   id="XMLID_351_">
			<path
   id="XMLID_433_"
   style="fill:#6670aa"
   d="m 44.496,251.389 c 0.122,8.938 0.779,18.057 0.232,26.981 -0.252,4.115 -1.173,7.548 0.185,11.564 1.456,4.309 2.007,8.589 1.466,13.117 -0.076,0.638 0.924,0.632 1,0 0.473,-3.955 0.208,-7.925 -0.95,-11.746 -0.691,-2.281 -1.467,-4.11 -1.401,-6.555 0.058,-2.128 0.569,-4.251 0.7,-6.38 0.547,-8.924 -0.11,-18.044 -0.232,-26.981 -0.008,-0.643 -1.008,-0.645 -1,0 z" />

		</g>

		<g
   id="XMLID_352_">
			<path
   id="XMLID_432_"
   style="fill:#6670aa"
   d="m 46.336,305.133 c -1.364,1.466 -1.654,3.192 -1.518,5.156 0.1,1.449 0.432,2.862 0.413,4.323 -0.023,1.735 -0.432,3.439 -0.719,5.142 -0.414,2.45 -0.444,4.783 0.004,7.228 0.633,3.455 1.511,6.504 0.799,10.027 -1.087,5.376 -0.711,11.21 -0.66,16.677 0.058,6.179 0.248,12.355 0.278,18.534 0.003,0.643 1.003,0.645 1,0 -0.027,-5.566 -0.184,-11.13 -0.257,-16.695 -0.074,-5.624 -0.614,-11.814 0.386,-17.373 0.404,-2.248 0.792,-4.015 0.454,-6.331 -0.41,-2.81 -1.384,-5.541 -1.392,-8.406 -0.008,-2.826 0.947,-5.549 1.084,-8.363 0.148,-3.03 -1.522,-6.678 0.836,-9.213 0.437,-0.469 -0.269,-1.178 -0.708,-0.706 z" />

		</g>

		<g
   id="XMLID_353_">
			<path
   id="XMLID_430_"
   style="fill:#6670aa"
   d="m 45.115,375.226 c -0.093,3.846 -0.12,7.745 -0.499,11.575 -0.267,2.701 -1.895,4.661 -0.678,7.329 0.267,0.585 1.129,0.077 0.864,-0.505 -0.928,-2.034 0.145,-3.231 0.579,-5.105 0.263,-1.137 0.28,-2.342 0.346,-3.5 0.188,-3.262 0.308,-6.528 0.388,-9.795 0.016,-0.643 -0.984,-0.643 -1,10e-4 z" />

		</g>

		<g
   id="XMLID_354_">
			<path
   id="XMLID_429_"
   style="fill:#6670aa"
   d="m 44.191,396.592 c 1.039,-0.061 2.064,-0.013 3.085,0.207 0.75,0.162 2.634,0.533 2.96,1.343 0.116,-0.205 0.233,-0.41 0.349,-0.615 -1.544,0.53 -3.363,0.472 -4.981,0.606 -0.637,0.053 -0.642,1.053 0,1 1.714,-0.142 3.606,-0.079 5.247,-0.642 0.233,-0.08 0.455,-0.352 0.349,-0.615 -0.42,-1.043 -1.537,-1.392 -2.545,-1.73 -1.444,-0.485 -2.948,-0.643 -4.464,-0.554 -0.64,0.037 -0.644,1.038 0,1 z" />

		</g>

		<g
   id="XMLID_355_">
			<path
   id="XMLID_428_"
   style="fill:#6670aa"
   d="m 45.276,402.813 c 0.472,0.041 0.925,0.14 1.376,0.283 0.615,0.194 0.878,-0.771 0.266,-0.964 -0.537,-0.17 -1.081,-0.27 -1.642,-0.318 -0.641,-0.057 -0.637,0.943 0,0.999 z" />

		</g>

		<g
   id="XMLID_356_">
			<path
   id="XMLID_427_"
   style="fill:#6670aa"
   d="m 68.218,301.743 c -1.287,1.365 -2.775,2.492 -4.28,3.604 -0.512,0.378 -0.014,1.247 0.505,0.864 1.572,-1.161 3.137,-2.333 4.482,-3.76 0.442,-0.468 -0.264,-1.177 -0.707,-0.708 z" />

		</g>

		<g
   id="XMLID_375_">
			<path
   id="XMLID_426_"
   style="fill:#6670aa"
   d="m 92.772,314.926 c 1.119,0.565 2.267,1.095 3.358,1.712 0.887,0.502 3.207,2.262 1.877,3.478 -0.476,0.435 0.233,1.141 0.707,0.707 1.085,-0.992 0.596,-2.589 -0.228,-3.592 -1.271,-1.547 -3.473,-2.293 -5.21,-3.169 -0.573,-0.288 -1.08,0.574 -0.504,0.864 z" />

		</g>

		<g
   id="XMLID_382_">
			<path
   id="XMLID_425_"
   style="fill:#6670aa"
   d="m 80.056,249.804 c 3.927,10.159 6.245,20.721 7.109,31.572 0.402,5.052 1.089,9.865 2.518,14.738 1.523,5.191 3.276,10.306 3.442,15.767 0.02,0.642 1.02,0.645 1,0 -0.151,-4.944 -1.551,-9.626 -2.969,-14.329 -1.713,-5.683 -2.581,-11.227 -3.069,-17.139 -0.874,-10.594 -3.234,-20.957 -7.067,-30.874 -0.229,-0.594 -1.196,-0.336 -0.964,0.265 z" />

		</g>

		<g
   id="XMLID_389_">
			<path
   id="XMLID_423_"
   style="fill:#6670aa"
   d="m 95.3,327.797 c 1.956,-1.214 3.61,-2.772 4.952,-4.641 0.376,-0.523 -0.491,-1.023 -0.863,-0.505 -1.24,1.726 -2.789,3.162 -4.594,4.283 -0.545,0.338 -0.044,1.204 0.505,0.863 z" />

		</g>

		<g
   id="XMLID_396_">
			<path
   id="XMLID_422_"
   style="fill:#6670aa"
   d="m 94.641,331.332 c -0.924,3.126 -0.753,6.26 -0.577,9.48 0.199,3.625 0.068,7.232 -0.117,10.854 -0.177,3.477 -0.381,6.963 -0.211,10.444 0.18,3.671 1.084,7.376 -0.148,10.955 -0.21,0.61 0.756,0.872 0.964,0.266 1.012,-2.94 0.63,-5.868 0.351,-8.904 -0.332,-3.617 -0.231,-7.237 -0.054,-10.86 0.17,-3.482 0.406,-6.967 0.316,-10.455 -0.1,-3.879 -0.682,-7.721 0.439,-11.515 0.184,-0.618 -0.781,-0.882 -0.963,-0.265 z" />

		</g>

		<g
   id="XMLID_397_">
			<path
   id="XMLID_421_"
   style="fill:#6670aa"
   d="m 92.433,378.583 c -1.009,3.372 -0.099,6.83 -1.186,10.109 -1.016,3.066 -1.379,6.155 -1.123,9.374 0.051,0.637 1.051,0.643 1,0 -0.272,-3.419 0.298,-6.501 1.316,-9.748 0.966,-3.08 0.007,-6.293 0.957,-9.469 0.185,-0.618 -0.78,-0.882 -0.964,-0.266 z" />

		</g>

		<g
   id="XMLID_410_">
			<path
   id="XMLID_420_"
   style="fill:#6670aa"
   d="m 98.778,224.721 c 0.746,0.914 1.787,1.529 2.947,1.744 0.629,0.117 0.899,-0.847 0.266,-0.964 -1.011,-0.188 -1.856,-0.69 -2.506,-1.487 -0.407,-0.499 -1.111,0.212 -0.707,0.707 z" />

		</g>

		<g
   id="XMLID_417_">
			<path
   id="XMLID_419_"
   style="fill:#6670aa"
   d="m 102.477,231.018 c 0.512,2.697 2.737,8.699 -0.203,10.434 -0.554,0.327 -0.051,1.192 0.505,0.863 1.469,-0.867 2.282,-1.704 2.183,-3.472 -0.149,-2.664 -1.021,-5.467 -1.52,-8.092 -0.12,-0.63 -1.084,-0.363 -0.965,0.267 z" />

		</g>

		<g
   id="XMLID_424_">
			<path
   id="XMLID_418_"
   style="fill:#6670aa"
   d="m 104.675,242.532 c -0.269,0.282 -0.554,0.492 -0.901,0.669 -0.573,0.292 -0.068,1.156 0.505,0.863 0.415,-0.212 0.782,-0.488 1.104,-0.825 0.443,-0.466 -0.263,-1.174 -0.708,-0.707 z" />

		</g>

		<g
   id="XMLID_431_">
			<path
   id="XMLID_416_"
   style="fill:#6670aa"
   d="m 47.559,245.37 c 2.197,0.908 4.451,1.488 6.808,1.785 0.637,0.08 0.631,-0.92 0,-1 -2.261,-0.285 -4.438,-0.879 -6.542,-1.749 -0.594,-0.246 -0.853,0.721 -0.266,0.964 z" />

		</g>

		<g
   id="XMLID_438_">
			<path
   id="XMLID_571_"
   style="fill:#6670aa"
   d="m 51.552,249.559 c 1.128,0.369 2.289,0.535 3.475,0.497 0.642,-0.02 0.645,-1.02 0,-1 -1.103,0.035 -2.161,-0.118 -3.209,-0.462 -0.614,-0.2 -0.876,0.765 -0.266,0.965 z" />

		</g>

		<path
   id="XMLID_399_"
   style="fill:none;stroke:#6670aa;stroke-linecap:round;stroke-miterlimit:10"
   d="m 61.11,255.624 c 0,0 -1.75,42.447 -3.25,48.314 -1.5,5.867 0,13.472 0,13.544 0,0.072 -4.035,70.909 -4.035,70.909" />

		<path
   id="XMLID_400_"
   style="fill:none;stroke:#6670aa;stroke-linecap:round;stroke-miterlimit:10"
   d="m 103.516,251.729 c 0,0 9.344,56.727 10.844,60.152 1.5,3.424 0.5,11.044 0,15.484 -0.5,4.44 -5.007,54.933 -5.254,57.187 -0.246,2.253 -3.496,5.503 -2.246,7.503 1.25,2 1.25,2 1.25,2" />

		<g
   id="XMLID_409_">
			<path
   id="XMLID_637_"
   style="fill:#6d5949"
   d="m 88.356,408.81 c 2.839,1.692 5.978,2.375 9.151,3.167 3.569,0.891 6.798,2.439 10.188,3.819 6.007,2.444 13.7,3.687 19.875,1.217 0.59,-0.236 0.333,-1.204 -0.266,-0.964 -6.637,2.655 -14.522,0.884 -20.85,-1.86 -2.722,-1.18 -5.389,-2.332 -8.272,-3.074 -3.219,-0.828 -6.427,-1.442 -9.321,-3.168 -0.555,-0.331 -1.058,0.534 -0.505,0.863 z" />

		</g>

		<g
   id="XMLID_411_">
			<path
   id="XMLID_636_"
   style="fill:#6d5949"
   d="m 108.699,415.171 c 0.415,-1.879 5.128,-4.154 6.692,-4.602 1.762,-0.504 3.606,-0.225 5.406,-0.219 0.644,0.002 0.644,-0.998 0,-1 -2.374,-0.009 -4.594,-0.28 -6.828,0.706 -1.889,0.835 -5.744,2.628 -6.235,4.848 -0.138,0.628 0.826,0.896 0.965,0.267 z" />

		</g>

		<g
   id="XMLID_412_">
			<path
   id="XMLID_635_"
   style="fill:#6d5949"
   d="m 105.872,397.828 c 0.568,2.592 1.177,4.722 2.973,6.709 1.961,2.169 4.034,4.214 6.597,5.655 0.562,0.316 1.066,-0.548 0.505,-0.864 -2.273,-1.278 -4.093,-3.037 -5.86,-4.925 -1.926,-2.057 -2.656,-4.132 -3.25,-6.842 -0.138,-0.627 -1.102,-0.361 -0.965,0.267 z" />

		</g>

		<g
   id="XMLID_413_">
			<path
   id="XMLID_633_"
   style="fill:#6d5949"
   d="m 107.114,399.46 c 0.883,-0.228 1.778,-0.282 2.68,-0.136 0.63,0.102 0.9,-0.861 0.266,-0.964 -1.084,-0.176 -2.147,-0.139 -3.212,0.136 -0.623,0.16 -0.359,1.125 0.266,0.964 z" />

		</g>

		<g
   id="XMLID_414_">
			<path
   id="XMLID_632_"
   style="fill:#6d5949"
   d="m 107.926,402.271 c 0.9,-0.232 1.815,-0.294 2.736,-0.157 0.63,0.094 0.901,-0.87 0.266,-0.964 -1.105,-0.164 -2.184,-0.122 -3.268,0.157 -0.623,0.16 -0.359,1.125 0.266,0.964 z" />

		</g>

		<g
   id="XMLID_557_">
			<path
   id="XMLID_631_"
   style="fill:#6d5949"
   d="m 110.09,404.068 c -0.015,-0.014 -0.03,-0.028 -0.045,-0.042 0.043,0.162 0.086,0.324 0.129,0.486 0.005,-0.023 0.01,-0.045 0.015,-0.068 -0.077,0.1 -0.153,0.199 -0.23,0.299 -0.251,0.136 0.131,0.016 0.249,0.012 0.215,-0.007 0.429,-0.012 0.644,-0.015 0.399,-0.006 0.797,-0.003 1.196,0.005 0.644,0.013 0.644,-0.987 0,-1 -0.613,-0.012 -1.227,-0.011 -1.84,0.01 -0.405,0.014 -0.889,0.003 -0.998,0.491 -0.038,0.171 -0.006,0.363 0.129,0.487 0.015,0.014 0.03,0.028 0.045,0.042 0.471,0.435 1.18,-0.27 0.706,-0.707 z" />

		</g>

		<g
   id="XMLID_558_">
			<path
   id="XMLID_630_"
   style="fill:#6d5949"
   d="m 112.111,407.129 c 0.787,-0.146 1.575,-0.18 2.373,-0.125 0.642,0.045 0.639,-0.956 0,-1 -0.888,-0.062 -1.763,-0.001 -2.638,0.16 -0.632,0.118 -0.365,1.082 0.265,0.965 z" />

		</g>

		<g
   id="XMLID_559_">
			<path
   id="XMLID_634_"
   style="fill:#6d5949"
   d="m 114.105,408.935 c 0.861,-0.278 1.726,-0.403 2.63,-0.378 0.644,0.018 0.643,-0.982 0,-1 -0.987,-0.027 -1.956,0.111 -2.896,0.414 -0.61,0.197 -0.349,1.163 0.266,0.964 z" />

		</g>

	</g>
  </g>
</svg>
