<?xml version="1.0" encoding="UTF-8" standalone="no"?>
<!-- Generator: Adobe Illustrator 27.5.0, SVG Export Plug-In . SVG Version: 6.00 Build 0)  -->

<svg
   version="1.1"
   x="0px"
   y="0px"
   viewBox="0 0 449.03903 1464.6398"
   xml:space="preserve"
   id="svg1"
   sodipodi:docname="oldman1.svg"
   width="449.03903"
   height="1464.6398"
   inkscape:version="1.4.2 (f4327f4, 2025-05-13)"
   xmlns:inkscape="http://www.inkscape.org/namespaces/inkscape"
   xmlns:sodipodi="http://sodipodi.sourceforge.net/DTD/sodipodi-0.dtd"
   xmlns="http://www.w3.org/2000/svg"
   xmlns:svg="http://www.w3.org/2000/svg"><defs
   id="defs1" /><sodipodi:namedview
   id="namedview1"
   pagecolor="#ffffff"
   bordercolor="#000000"
   borderopacity="0.25"
   inkscape:showpageshadow="2"
   inkscape:pageopacity="0.0"
   inkscape:pagecheckerboard="0"
   inkscape:deskcolor="#d1d1d1"
   inkscape:zoom="0.689"
   inkscape:cx="-494.92017"
   inkscape:cy="687.95356"
   inkscape:window-width="2880"
   inkscape:window-height="1676"
   inkscape:window-x="-12"
   inkscape:window-y="-12"
   inkscape:window-maximized="1"
   inkscape:current-layer="svg1" />
<g
   id="g74"
   transform="translate(-204.16799,-442.12115)">
		<g
   id="g72">
			<g
   id="g70">
				<path
   style="fill:#c77350"
   d="m 633.664,1270.191 c 0,0 -9.863,8.09 -10.898,7.258 -1.035,-0.832 -3.063,-10.164 5.449,-14.906 0,0 0.531,-5.813 2,-14.992 l -5.441,-20.957 5.441,-1.691 15.231,18.363 z"
   id="path3" />
				<path
   style="fill:#df8a64"
   d="m 629.691,1282.734 c 0,0 -5.664,2.91 -6.887,2.754 -1.227,-0.152 -5.969,-5.813 9.484,-17.895 0,0 1.375,-15.148 1.375,-20.961 0,0 -5.676,-10.559 -14.84,-24.777 -2.406,-3.746 5.047,-5.82 5.047,-5.82 l 18.207,32.433 -5.352,30.598 z"
   id="path4" />
				<path
   style="fill:#f4a27a"
   d="m 613.93,1175.258 c 0,0 -2.445,15.258 -5.813,23.582 0,0 -4.285,9.855 -4.594,18.422 -0.305,8.563 -1.527,30.902 0,36.105 1.531,5.199 6.121,14.992 6.121,14.992 0,0 8.262,-3.367 5.813,-16.219 -2.445,-12.855 3.375,-20.746 7.047,-28.395 0,0 13.453,15.848 15.598,28.395 0,0 -1.531,14.074 -2.754,20.809 0,0 -17.133,13.34 -10.227,22.024 0,0 16.508,-12.34 23.215,-16.516 4.914,-3.063 4.871,-43.258 4.871,-47.539 0,-4.285 -8.68,-52.07 -9.598,-55.66 z"
   id="path5" />
				<path
   style="fill:#447b48"
   d="m 545.394,728.875 c 0,0 30.289,8.313 43.75,26.672 13.461,18.355 24.184,124.059 29.195,149.77 5.008,25.707 8.367,30.742 5.992,58.938 0,0 9.715,13.555 9.195,22.863 -0.516,9.305 0.481,15.297 1.516,30.602 1.125,16.609 11.996,111.844 10.707,131.309 -1.02,15.441 -41.074,5.969 -41.074,5.969 0,0 -12.914,-70.293 -20.426,-106.023 -5.555,-26.41 -13.742,-62.516 -16.523,-76.187 -2.781,-13.676 -25.57,-89.336 -35.273,-89.039 z"
   id="path6" />
				<path
   style="fill:#346938"
   d="m 645.75,1149.027 c 0.039,-0.586 0.07,-1.25 0.086,-1.965 -6.953,0.164 -14.664,-12.301 -20.715,-14.559 -6.559,-2.449 -10.578,9.789 -17.313,11.625 -6.731,1.836 6.734,-23.254 7.957,-28.758 1.227,-5.508 -11.012,-14.688 -13.863,-21.418 -2.852,-6.734 -6.941,-22.641 -6.941,-25.707 0,-3.055 28.762,28.152 30.16,22.645 1.398,-5.504 -25.875,-29.984 -31.387,-41 -5.508,-11.012 -10.402,-26.313 -5.805,-28.145 4.602,-1.84 44.973,43.445 46.195,38.551 1.223,-4.898 -50.18,-51.406 -50.18,-51.406 0,0 11.625,-22.645 13.461,-28.148 1.84,-5.508 -24.473,-23.254 -27.535,-28.762 -3.059,-5.508 4.281,-35.492 7.34,-56.297 3.063,-20.809 -37.938,-66.703 -37.938,-66.703 -2.117,0.601 -1.488,7.934 -3.047,9.598 l -3.773,45.168 c 9.703,-0.297 32.492,75.363 35.273,89.039 2.781,13.672 10.969,49.777 16.523,76.187 7.512,35.73 20.426,106.023 20.426,106.023 0,0 40.056,9.474 41.076,-5.968 z"
   id="path7" />
				<path
   style="fill:#122129"
   d="m 371.598,1818.965 c 0,0 1.926,45.504 -1.629,52.285 -3.551,6.777 -13.551,9.277 -21.621,10.891 0,0 -11.148,-2.672 -14.383,-2.602 -3.992,0.086 -4.238,2.203 -12.238,8.105 -19.277,14.227 -31.535,16.133 -39.93,18.395 -8.398,2.258 -25.973,-0.5 -29.375,-12.273 -1.547,-5.352 -3.215,-12.391 5.047,-21.262 10.23,-10.988 48.242,-36.492 55.992,-48.117 7.754,-11.625 8.707,-12.242 11.613,-13.531 2.91,-1.29 46.524,8.109 46.524,8.109 z"
   id="path8" />
				<path
   style="fill:#122129"
   d="m 477.07,1818.965 c 0,0 -1.93,45.504 1.629,52.285 3.551,6.777 13.551,9.277 21.625,10.891 0,0 11.145,-2.672 14.379,-2.602 3.996,0.086 4.234,2.203 12.238,8.105 19.273,14.227 31.531,16.133 39.934,18.395 8.394,2.258 25.969,-0.5 29.371,-12.273 1.547,-5.352 3.211,-12.391 -5.051,-21.262 -10.231,-10.988 -48.242,-36.492 -55.992,-48.117 -7.75,-11.625 -8.707,-12.242 -11.613,-13.531 -2.906,-1.29 -46.52,8.109 -46.52,8.109 z"
   id="path9" />
				<g
   id="g43">
					<g
   id="g42">
						<path
   style="fill:#523932"
   d="m 323.121,1821.832 c 0,0 15.18,16.621 53.258,4.879 l 43.133,-540.422 c 0.961,-0.027 14.434,-0.027 15.398,0 l 43.129,540.422 c 38.078,11.742 53.258,-4.879 53.258,-4.879 0,0 15.59,-483.105 13.902,-558.973 -1.168,-52.352 -5.313,-130.215 -5.313,-130.215 l -112.68,7.043 -108.848,-12.078 c 0,0 -7.973,82.898 -9.141,135.25 -0.914,41.129 3.246,201.902 7.25,340.527 0,0 2.039,117.508 -1.168,125.77 0,0 -3.672,4.133 -0.461,11.469 3.215,7.348 3.668,14.227 3.668,14.227 0,0 -8.039,9.18 -5.965,14.23 2.074,5.047 7.344,11.934 7.344,11.934 0,0 -7.801,4.59 -7.344,8.719 0.461,4.133 7.805,12.391 6.887,15.145 -0.92,2.753 -6.135,10.983 3.693,16.952 z"
   id="path10" />
						<path
   style="fill:#734929"
   d="m 323.121,1821.832 c 0,0 15.18,16.621 53.258,4.879 l 43.133,-540.422 c 0.961,-0.027 14.434,-0.027 15.398,0 l 43.129,540.422 c 38.078,11.742 58.992,-7.746 58.992,-7.746 0,0 9.855,-480.238 8.168,-556.105 -1.168,-52.352 -5.313,-130.215 -5.313,-130.215 l -112.68,7.043 -108.848,-12.078 c 0,0 -7.973,82.898 -9.141,135.25 -0.914,41.129 3.246,201.902 7.25,340.527 0,0 2.039,117.508 -1.168,125.77 0,0 -3.672,4.133 -0.461,11.469 3.215,7.348 3.668,14.227 3.668,14.227 0,0 -8.039,9.18 -5.965,14.23 2.074,5.047 7.344,11.934 7.344,11.934 0,0 -7.801,4.59 -7.344,8.719 0.461,4.133 7.805,12.391 6.887,15.145 -0.92,2.752 -6.135,10.982 3.693,16.951 z"
   id="path11" />
						<path
   style="fill:#5f391d"
   d="m 320.922,1764.953 c -8.145,-6.422 5.391,-15.605 12.141,-23.871 6.742,-8.258 -6.75,-62.414 -12.141,-78.938 -5.391,-16.52 4.473,-57.832 11.527,-67.926 7.055,-10.094 -9.809,-21.109 -11.527,-33.043 -1.723,-11.93 9.98,-28.457 12.141,-45.898 2.156,-17.441 -11.336,-55.074 -17.43,-62.422 -6.082,-7.34 6.094,-102.801 11.359,-111.984 5.27,-9.176 -4.352,-22.027 -6.07,-37.633 -1.723,-15.605 25.586,-55.074 29.258,-74.977 3.672,-19.903 -7.344,-43.805 -7.344,-43.805 l -28.418,-11.281 c -2.188,27.668 -4.594,62.727 -5.199,89.684 -0.914,41.129 3.246,201.902 7.25,340.527 0,0 2.039,117.508 -1.168,125.77 0,0 -3.672,4.133 -0.461,11.469 3.215,7.348 3.668,14.227 3.668,14.227 0,0 -8.039,9.18 -5.965,14.23 2.074,5.047 7.344,11.934 7.344,11.934 0,0 -7.801,4.59 -7.344,8.719 0.461,4.133 7.805,12.391 6.887,15.145 -0.621,1.871 -3.207,6.254 -1.758,10.746 10.719,0.293 20.027,5.195 27.922,2.57 11.012,-3.68 -26.164,-13.316 -18.602,-22.949 7.563,-9.641 25.023,7.336 27.781,0 2.75,-7.349 -25.707,-23.868 -33.851,-30.294 z"
   id="path12" />
						<path
   style="fill:#5f391d"
   d="m 542.254,1181.48 c -0.305,-6.758 -0.598,-13.133 -0.875,-18.898 -35.469,5.727 -162.793,23.672 -225.926,-2.156 -0.543,6.516 -1.121,13.703 -1.699,21.293 25.828,8.926 114.777,33.73 228.5,-0.239 z"
   id="path13" />
						<path
   style="fill:#000814"
   d="m 541.719,1169.707 c -1.016,-21.68 -1.832,-37.063 -1.832,-37.063 l -112.68,7.043 -108.848,-12.078 c 0,0 -1.742,18.105 -3.715,42.73 32.465,8.204 128.493,27.497 227.075,-0.632 z"
   id="path14" />
						<path
   style="fill:#e98e66"
   d="m 550.992,737.941 c -1.004,-4.621 -2.066,-7.441 -3.027,-7.965 -6.73,-3.672 -82.609,-25.695 -82.609,-25.695 -4.285,-7.344 -4.566,-45.285 -4.566,-45.285 L 428.497,646.93 v -0.176 l -0.234,0.086 -0.238,-0.086 v 0.176 l -32.293,12.066 c 0,0 -0.277,37.941 -4.563,45.285 0,0 -75.879,22.023 -82.613,25.695 -0.961,0.523 -1.953,3.344 -2.855,7.965 l 121.645,6.738 z"
   id="path15" />
						<path
   style="fill:#c66a42"
   d="m 443.473,698.766 c 7.367,-1.43 13.914,-5.426 18.82,-9.285 -1.379,-13.453 -1.504,-30.484 -1.504,-30.484 l -32.293,-12.066 v -0.176 l -0.234,0.086 -0.238,-0.086 v 0.176 l -32.293,12.066 c 0,0 -0.059,8.281 -0.559,17.856 10.894,7.694 36.137,24.272 48.301,21.913 z"
   id="path16" />
						<g
   id="g40">
							<g
   id="g32">
								<g
   id="g31">
									<g
   id="g23">
										<path
   style="fill:#f4a27a"
   d="m 356.977,566.57 c 0,0 -8.191,-14.375 -20.941,-14.574 -7.574,-0.117 -5.332,30.984 2.469,39.016 7.801,8.031 19.164,5.352 21.684,-1.762 z"
   id="path17" />
										<path
   style="opacity:0.4;fill:#cf6244"
   d="m 355.227,588.234 c 0,0 -9.52,3.348 -13.625,-4.59 -4.105,-7.934 -8.098,-17.473 -4.918,-24.473 0,0 8.781,2.047 16.898,18.438 0,0 -5.949,7.379 1.645,10.625 z"
   id="path18" />
										<g
   id="g20">
											<g
   id="g19">
												<path
   style="fill:#91554a"
   d="m 335.387,569.144 c -0.266,-3 -0.574,-6 0.199,-9.109 0.125,-0.391 0.301,-0.801 0.633,-1.203 0.379,-0.453 1.324,-0.519 1.676,-0.254 0.688,0.27 1.371,0.613 2.051,1.063 1.41,0.813 2.516,1.785 3.719,2.758 2.309,1.988 4.496,4.145 6.313,6.613 0.992,1.164 1.688,2.559 2.539,3.824 0.438,0.633 0.684,1.379 1.035,2.059 l 0.977,2.09 0.176,0.379 -0.297,0.352 c -1.406,1.676 -2.656,3.848 -2.559,6.035 0.051,1.086 0.516,2.156 1.367,2.938 0.793,0.836 1.867,1.379 2.938,1.91 -1.141,-0.332 -2.313,-0.734 -3.277,-1.539 -0.996,-0.723 -1.781,-1.906 -1.926,-3.211 -0.281,-2.641 0.902,-5.016 2.359,-7.059 l -0.117,0.727 -0.977,-1.965 c -0.352,-0.641 -0.594,-1.336 -1.031,-1.93 -0.855,-1.195 -1.531,-2.508 -2.52,-3.605 -1.82,-2.305 -3.785,-4.516 -6,-6.469 -1.086,-0.957 -2.277,-1.941 -3.406,-2.723 -0.535,-0.434 -1.164,-0.816 -1.855,-1.148 -0.305,-0.176 -0.203,-0.074 -0.395,-0.051 -0.156,0.176 -0.316,0.438 -0.445,0.758 -0.469,1.301 -0.648,2.813 -0.84,4.277 -0.169,1.483 -0.251,2.98 -0.337,4.483 z"
   id="path19" />
											</g>
										</g>
										<g
   id="g22">
											<g
   id="g21">
												<path
   style="fill:#91554a"
   d="m 338.137,570.566 c 0,0 0.063,-0.809 0.809,-1.813 0.441,-0.383 0.91,-1.031 1.652,-1.285 0.699,-0.391 1.504,-0.535 2.32,-0.652 0.832,-0.148 1.598,0.156 2.336,0.219 0.754,0.055 1.344,0.461 1.867,0.695 1.039,0.539 1.641,1.016 1.641,1.016 0,0 -0.816,0.031 -1.898,-0.098 -0.535,-0.09 -1.164,-0.172 -1.816,-0.156 -0.637,0.02 -1.348,-0.191 -1.988,0.016 -0.66,0.023 -1.332,0.059 -1.891,0.316 -0.609,0.129 -1.105,0.418 -1.586,0.641 -0.872,0.539 -1.446,1.101 -1.446,1.101 z"
   id="path20" />
											</g>
										</g>
									</g>
									<g
   id="g29">
										<path
   style="fill:#f4a27a"
   d="m 506.844,563.172 c 0,0 8.195,-14.371 20.945,-14.57 7.574,-0.121 5.332,30.98 -2.473,39.008 -7.801,8.035 -19.16,5.359 -21.684,-1.758 z"
   id="path23" />
										<path
   style="opacity:0.4;fill:#cf6244"
   d="m 508.594,584.84 c 0,0 9.523,3.348 13.629,-4.594 4.101,-7.93 8.098,-17.469 4.914,-24.473 0,0 -8.785,2.047 -16.898,18.434 -10e-4,0 5.945,7.387 -1.645,10.633 z"
   id="path24" />
										<g
   id="g26">
											<g
   id="g25">
												<path
   style="fill:#91554a"
   d="m 528.434,565.746 c -0.086,-1.504 -0.168,-3 -0.336,-4.48 -0.188,-1.469 -0.371,-2.98 -0.84,-4.281 -0.125,-0.32 -0.285,-0.578 -0.441,-0.754 -0.191,-0.02 -0.09,-0.125 -0.398,0.055 -0.691,0.328 -1.316,0.715 -1.856,1.148 -1.129,0.781 -2.32,1.762 -3.41,2.719 -2.211,1.953 -4.176,4.168 -5.992,6.469 -0.988,1.102 -1.668,2.41 -2.524,3.602 -0.438,0.594 -0.68,1.293 -1.031,1.933 l -0.977,1.961 -0.117,-0.723 c 1.457,2.039 2.641,4.418 2.359,7.055 -0.145,1.309 -0.93,2.492 -1.93,3.215 -0.961,0.801 -2.133,1.203 -3.277,1.535 1.074,-0.531 2.145,-1.074 2.941,-1.91 0.852,-0.781 1.316,-1.852 1.367,-2.934 0.101,-2.191 -1.148,-4.359 -2.555,-6.035 l -0.297,-0.352 0.176,-0.379 0.973,-2.09 c 0.352,-0.68 0.598,-1.426 1.039,-2.055 0.852,-1.27 1.543,-2.664 2.535,-3.832 1.82,-2.465 4.008,-4.621 6.313,-6.609 1.203,-0.969 2.308,-1.941 3.723,-2.758 0.68,-0.449 1.359,-0.793 2.051,-1.059 0.34,-0.266 1.289,-0.207 1.672,0.246 0.332,0.406 0.508,0.813 0.633,1.203 0.777,3.114 0.464,6.11 0.199,9.11 z"
   id="path25" />
											</g>
										</g>
										<g
   id="g28">
											<g
   id="g27">
												<path
   style="fill:#91554a"
   d="m 525.684,567.172 c 0,0 -0.574,-0.563 -1.441,-1.105 -0.481,-0.219 -0.977,-0.512 -1.59,-0.641 -0.558,-0.258 -1.227,-0.293 -1.891,-0.316 -0.637,-0.207 -1.348,0.004 -1.988,-0.016 -0.648,-0.016 -1.277,0.067 -1.813,0.156 -1.086,0.129 -1.898,0.098 -1.898,0.098 0,0 0.598,-0.477 1.637,-1.016 0.527,-0.234 1.113,-0.641 1.867,-0.695 0.742,-0.063 1.508,-0.367 2.336,-0.219 0.82,0.117 1.625,0.262 2.324,0.652 0.742,0.254 1.207,0.906 1.648,1.289 0.75,1.004 0.809,1.813 0.809,1.813 z"
   id="path26" />
											</g>
										</g>
									</g>
									<path
   style="fill:#f4a27a"
   d="m 439.492,679.773 c 0,0 38.551,-18.516 51.828,-39.32 10.914,-14.594 19.902,-89.016 21.152,-100.566 0.043,-0.387 0.09,-0.77 0.125,-1.152 0.035,-0.363 0.059,-0.563 0.059,-0.563 l -0.016,0.008 c 0.215,-2.391 0.34,-4.801 0.34,-7.246 0,-44.559 -36.125,-80.68 -80.68,-80.68 -44.559,0 -80.68,36.121 -80.68,80.68 0,2.898 0.156,5.762 0.457,8.578 h -0.008 c 0,0 9.254,84.957 21.207,100.941 14.051,23.848 51.828,39.32 51.828,39.32 0,0 6.834,2.496 14.388,0 z"
   id="path29" />
									<path
   style="fill:#ffffff"
   d="m 352.273,555.582 c 0,0 2.902,-4.84 7.734,4.141 4.84,8.977 11.938,66.242 15.793,67.234 0,0 2.48,-10.535 15.957,-10.043 13.469,0.496 47.617,1.484 65.367,-0.492 17.75,-1.973 26.422,2.18 29.219,7.316 0,0 10.793,-9.242 20.164,-58.172 0,0 0.445,-15.711 8.555,-11.867 0,0 -6.285,68.262 -15.488,89.016 -9.199,20.754 -39.211,42.496 -67.305,41.359 -28.098,-1.137 -64.672,-11.832 -72.082,-50.859 -7.406,-39.02 -7.914,-77.633 -7.914,-77.633 z"
   id="path30" />
									<path
   style="fill:#5f221b"
   d="m 442.203,598.84 c 0,0 0,14.227 -2.906,15.754 -2.906,1.531 0.152,-8.262 2.906,-15.754 z"
   id="path31" />
								</g>
								<path
   style="fill:#8e191b"
   d="m 459.414,626.957 c 0,0 -6.285,20.414 -26.414,20.414 -10.328,0 -24.172,-6.426 -24.77,-20.414 0,0 44.071,0.918 51.184,0 z"
   id="path32" />
							</g>
							<g
   id="g33">
								<path
   style="fill:#85453e"
   d="m 380.844,591.344 c 0,0 0.273,-0.465 0.766,-1.082 0.523,-0.59 1.223,-1.367 1.922,-2.148 0.801,-0.672 1.605,-1.34 2.211,-1.848 0.633,-0.469 1.109,-0.727 1.109,-0.727 0,0 -0.273,0.469 -0.766,1.082 -0.523,0.59 -1.223,1.367 -1.922,2.152 -0.801,0.668 -1.605,1.34 -2.211,1.84 -0.637,0.473 -1.109,0.731 -1.109,0.731 z"
   id="path33" />
							</g>
							<g
   id="g34">
								<path
   style="fill:#85453e"
   d="m 388.172,586.754 c 0,0 -0.246,0.738 -0.719,1.789 -0.512,1.027 -1.191,2.398 -1.871,3.769 -0.813,1.297 -1.625,2.594 -2.238,3.566 -0.648,0.949 -1.148,1.547 -1.148,1.547 0,0 0.246,-0.738 0.719,-1.789 0.508,-1.027 1.191,-2.398 1.871,-3.77 0.813,-1.297 1.629,-2.594 2.238,-3.566 0.648,-0.948 1.148,-1.546 1.148,-1.546 z"
   id="path34" />
							</g>
							<g
   id="g35">
								<path
   style="fill:#85453e"
   d="m 391.758,588.441 c 0,0 -0.102,0.457 -0.352,1.082 -0.285,0.602 -0.664,1.402 -1.047,2.207 -0.512,0.726 -1.027,1.453 -1.414,1.996 -0.422,0.519 -0.773,0.832 -0.773,0.832 0,0 0.098,-0.457 0.348,-1.082 0.285,-0.602 0.668,-1.402 1.051,-2.207 0.512,-0.726 1.027,-1.453 1.414,-1.996 0.421,-0.519 0.773,-0.832 0.773,-0.832 z"
   id="path35" />
							</g>
							<g
   id="g36">
								<path
   style="fill:#85453e"
   d="m 483.547,595.019 c 0,0 -0.477,-0.262 -1.109,-0.734 -0.605,-0.5 -1.406,-1.172 -2.215,-1.84 -0.695,-0.781 -1.391,-1.563 -1.918,-2.148 -0.488,-0.617 -0.766,-1.086 -0.766,-1.086 0,0 0.477,0.262 1.109,0.731 0.602,0.504 1.41,1.172 2.215,1.844 0.695,0.781 1.391,1.563 1.914,2.148 0.493,0.617 0.77,1.085 0.77,1.085 z"
   id="path36" />
							</g>
							<g
   id="g37">
								<path
   style="fill:#85453e"
   d="m 476.219,590.43 c 0,0 0.5,0.594 1.148,1.547 0.609,0.969 1.426,2.266 2.242,3.559 0.676,1.371 1.359,2.742 1.867,3.769 0.473,1.051 0.719,1.789 0.719,1.789 0,0 -0.5,-0.594 -1.148,-1.547 -0.609,-0.969 -1.426,-2.266 -2.238,-3.563 -0.68,-1.371 -1.359,-2.738 -1.871,-3.77 -0.469,-1.046 -0.719,-1.784 -0.719,-1.784 z"
   id="path37" />
							</g>
							<g
   id="g38">
								<path
   style="fill:#85453e"
   d="m 472.637,592.113 c 0,0 0.348,0.309 0.77,0.832 0.387,0.543 0.902,1.269 1.418,1.996 0.379,0.801 0.762,1.605 1.047,2.207 0.25,0.625 0.348,1.078 0.348,1.078 0,0 -0.352,-0.309 -0.773,-0.828 -0.387,-0.543 -0.898,-1.269 -1.414,-1.996 -0.379,-0.805 -0.762,-1.605 -1.047,-2.211 -0.252,-0.621 -0.349,-1.078 -0.349,-1.078 z"
   id="path38" />
							</g>
							<path
   style="fill:#ffffff"
   d="m 413.75,537.949 c 0,0 -15.301,-16.777 -36.645,-11.527 0,0 -6.98,6.633 -7.348,9.996 10e-4,0 16.763,-3.672 43.993,1.531 z"
   id="path39" />
							<path
   style="fill:#ffffff"
   d="m 452.43,537.949 c 0,0 18.609,-15.59 32.992,-11.883 0,0 8.566,2.855 11.008,10.352 0,0 -16.77,-3.672 -44,1.531 z"
   id="path40" />
						</g>
						<path
   style="fill:#447b48"
   d="m 306.859,728.394 c 0,0 -20.652,93.227 12.395,184.102 0,0 2.773,79.871 2.168,102.516 -0.57,21.055 -20.938,129.117 -3.625,136.891 0,0 115.019,32.93 219.047,2.023 0,0 19.914,4.414 8.48,-74.664 -4.008,-27.746 -7.094,-96.824 -13.113,-141.059 0,0 21.133,-69.867 23.867,-107.398 2.906,-39.93 -4.391,-100.019 -4.391,-100.019 l -87.375,-29.129 c 0,0 -30.496,40.578 -36.836,40.457 -5.125,-0.094 -22.781,-27.875 -35.266,-40.457 z"
   id="path41" />
						<path
   style="fill:#346938"
   d="m 435.547,1156.027 c -43.754,0.273 -86.594,-14.344 -103.523,-26.902 -16.93,-12.559 0,-38.848 0,-38.848 21.621,9.789 84.246,31.211 87.922,25.707 3.668,-5.512 -8.266,-10.406 -8.266,-10.406 -25.395,-9.18 -73.125,-43.445 -78.617,-48.957 -5.496,-5.504 -7.973,-22.027 -1.039,-25.09 6.938,-3.059 38.965,38.559 51.203,30.602 12.238,-7.957 -44.672,-50.18 -50.164,-64.258 -5.496,-14.07 30.578,-100.969 36.766,-116.883 5.262,-13.543 -52.117,-70.523 -69.316,-87.188 -0.383,33.668 3.371,76.43 18.742,118.691 0,0 2.773,79.871 2.168,102.516 -0.57,21.055 -20.938,129.117 -3.625,136.891 0,0 112.879,32.305 216.133,2.863 -13.708,-4.253 -63.786,1.051 -98.384,1.262 z"
   id="path42" />
					</g>
				</g>
				<g
   id="g55">
					<g
   id="g49">
						<g
   id="g48">
							<path
   style="fill:#ffffff"
   d="m 415.367,569.203 c 0,0 -3.605,-11.559 -11.621,-18.059 -11.453,-9.285 -32.234,-5.668 -31.145,11.742 0,0 0.797,16.047 15.316,18.148 11.751,1.697 23.091,-3.515 27.45,-11.831 z"
   id="path43" />
							<path
   style="fill:#ffffff"
   d="m 415.367,569.203 c 0,0 -3.605,-11.559 -11.621,-18.059 -11.453,-9.285 -32.234,-5.668 -31.145,11.742 0,0 0.797,16.047 15.316,18.148 11.751,1.697 23.091,-3.515 27.45,-11.831 z"
   id="path44" />
							<path
   style="fill:#231114"
   d="m 403.746,551.144 c -5.426,-4.398 -12.941,-5.894 -19.238,-4.41 -3.613,4.059 -5.953,10.5 -5.953,17.781 0,5.641 1.41,10.773 3.719,14.691 1.609,0.852 3.457,1.512 5.645,1.828 6.051,0.875 11.98,-0.09 16.918,-2.363 2.121,-3.848 3.395,-8.777 3.395,-14.156 0,-4.008 -0.719,-7.758 -1.957,-11.004 -0.791,-0.831 -1.627,-1.632 -2.529,-2.367 z"
   id="path45" />
							<g
   id="g47">
								<g
   id="g46">
									<path
   style="fill:#231114"
   d="m 415.367,569.203 c 0,0 -1.633,-3.73 -4.949,-8.637 -0.863,-1.191 -1.789,-2.5 -2.871,-3.762 -1.09,-1.269 -2.281,-2.543 -3.66,-3.676 -0.691,-0.668 -1.27,-1.121 -2.129,-1.645 -0.813,-0.598 -1.617,-1.012 -2.395,-1.387 -1.555,-0.832 -3.41,-1.438 -5.219,-1.836 -1.824,-0.441 -3.703,-0.586 -5.547,-0.59 -1.832,0.133 -3.645,0.297 -5.305,0.84 -1.645,0.531 -3.227,1.188 -4.492,2.137 -0.676,0.434 -1.277,0.918 -1.777,1.481 -0.563,0.504 -1.066,1.035 -1.43,1.641 -0.898,1.102 -1.34,2.348 -1.887,3.399 -0.285,1.137 -0.652,2.137 -0.77,2.988 -0.215,1.738 -0.336,2.731 -0.336,2.731 0,0 -0.094,-1.008 -0.258,-2.777 -0.031,-0.895 0.156,-1.973 0.262,-3.246 0.363,-1.203 0.629,-2.672 1.5,-4.035 0.336,-0.742 0.824,-1.414 1.398,-2.078 0.512,-0.723 1.164,-1.336 1.898,-1.914 1.387,-1.238 3.141,-2.191 5.031,-2.887 1.895,-0.703 3.949,-1.094 6.051,-1.238 2.102,-0.043 4.242,0.086 6.328,0.555 2.082,0.512 4.07,1.184 5.984,2.238 0.992,0.504 1.887,1.055 2.605,1.652 0.773,0.523 1.668,1.281 2.289,1.973 1.484,1.324 2.625,2.836 3.664,4.281 1.047,1.438 1.84,2.918 2.57,4.262 1.383,2.742 2.223,5.152 2.746,6.84 0.531,1.694 0.699,2.69 0.699,2.69 z"
   id="path46" />
								</g>
							</g>
						</g>
					</g>
					<g
   id="g54">
						<g
   id="g53">
							<path
   style="fill:#ffffff"
   d="m 449.23,569.203 c 0,0 3.605,-11.559 11.621,-18.059 11.453,-9.285 32.23,-5.668 31.145,11.742 0,0 -0.793,16.047 -15.32,18.148 -11.746,1.697 -23.086,-3.515 -27.446,-11.831 z"
   id="path49" />
							<path
   style="fill:#231114"
   d="m 460.852,551.144 c -3.141,2.551 -5.598,5.867 -7.434,8.969 -0.152,1.301 -0.25,2.625 -0.25,3.988 0,4.496 0.898,8.676 2.43,12.172 5.527,3.922 13.207,5.898 21.078,4.762 0.395,-0.055 0.738,-0.16 1.113,-0.234 3.094,-4.082 5.063,-10.039 5.063,-16.699 0,-7.328 -2.379,-13.809 -6.027,-17.859 -5.501,-0.403 -11.458,1.245 -15.973,4.901 z"
   id="path50" />
							<g
   id="g52">
								<g
   id="g51">
									<path
   style="fill:#231114"
   d="m 449.23,569.203 c 0,0 0.172,-0.996 0.695,-2.691 0.523,-1.688 1.363,-4.098 2.746,-6.84 0.73,-1.344 1.523,-2.824 2.57,-4.262 1.039,-1.445 2.18,-2.957 3.664,-4.281 0.621,-0.691 1.516,-1.449 2.289,-1.973 0.719,-0.598 1.617,-1.148 2.605,-1.648 1.914,-1.059 3.898,-1.731 5.984,-2.242 2.086,-0.469 4.227,-0.594 6.328,-0.555 2.102,0.145 4.16,0.535 6.051,1.238 1.891,0.695 3.645,1.648 5.031,2.887 0.73,0.578 1.387,1.191 1.902,1.914 0.566,0.664 1.055,1.34 1.395,2.078 0.871,1.363 1.133,2.832 1.5,4.035 0.105,1.273 0.293,2.352 0.262,3.246 -0.164,1.77 -0.258,2.777 -0.258,2.777 0,0 -0.125,-0.992 -0.336,-2.731 -0.117,-0.852 -0.484,-1.852 -0.77,-2.988 -0.551,-1.051 -0.988,-2.297 -1.891,-3.399 -0.363,-0.605 -0.863,-1.137 -1.426,-1.641 -0.5,-0.563 -1.102,-1.047 -1.777,-1.481 -1.27,-0.949 -2.848,-1.605 -4.492,-2.137 -1.66,-0.543 -3.473,-0.707 -5.305,-0.84 -1.844,0.004 -3.719,0.148 -5.547,0.59 -1.809,0.398 -3.668,1.004 -5.219,1.836 -0.777,0.375 -1.582,0.789 -2.395,1.387 -0.863,0.523 -1.438,0.977 -2.125,1.645 -1.383,1.133 -2.57,2.406 -3.664,3.676 -1.082,1.262 -2.008,2.57 -2.871,3.762 -3.313,4.908 -4.946,8.638 -4.946,8.638 z"
   id="path51" />
								</g>
							</g>
						</g>
					</g>
				</g>
				<path
   style="fill:#ffffff"
   d="m 389.914,558.922 c 0.199,1.637 -2.566,3.32 -6.172,3.758 -3.605,0.441 -6.695,-0.523 -6.895,-2.16 -0.199,-1.637 2.563,-3.32 6.172,-3.762 3.61,-0.438 6.696,0.531 6.895,2.164 z"
   id="path55" />
				<path
   style="fill:#ffffff"
   d="m 488.617,560.418 c -0.359,1.609 -3.527,2.269 -7.074,1.473 -3.547,-0.797 -6.129,-2.742 -5.773,-4.352 0.363,-1.609 3.535,-2.266 7.082,-1.473 3.543,0.797 6.128,2.747 5.765,4.352 z"
   id="path56" />
				<path
   style="fill:#ffffff"
   d="M 315.633,1172.316"
   id="path57" />
				<path
   style="fill:#9e7453"
   d="m 323.102,1151.66 c 0,0 -3.215,21.976 -1.836,23.586 1.375,1.606 7.113,3.441 8.719,2.52 1.605,-0.914 2.984,-23.34 2.984,-23.34 0,0 0.574,-2.766 -1.148,-3.449 -3.055,-1.223 -8.278,-2.934 -8.719,0.683 z"
   id="path58" />
				<path
   style="fill:#9e7453"
   d="m 365.938,1160.227 c 0,0 -3.211,21.973 -1.836,23.586 1.379,1.602 7.113,3.441 8.719,2.52 1.609,-0.918 2.984,-23.348 2.984,-23.348 0,0 0.574,-2.758 -1.148,-3.445 -3.055,-1.22 -8.278,-2.935 -8.719,0.687 z"
   id="path59" />
				<path
   style="fill:#9e7453"
   d="m 525.176,1154.609 c 0,0 3.215,21.973 1.836,23.578 -1.379,1.609 -7.113,3.449 -8.719,2.531 -1.606,-0.922 -2.984,-23.355 -2.984,-23.355 0,0 -0.574,-2.754 1.148,-3.441 3.055,-1.223 8.277,-2.926 8.719,0.687 z"
   id="path60" />
				<path
   style="fill:#9e7453"
   d="m 482.34,1163.176 c 0,0 3.211,21.973 1.836,23.574 -1.379,1.613 -7.113,3.445 -8.719,2.531 -1.609,-0.918 -2.984,-23.355 -2.984,-23.355 0,0 -0.574,-2.75 1.148,-3.438 3.055,-1.226 8.277,-2.933 8.719,0.688 z"
   id="path61" />
				<path
   style="fill:#91afb8"
   d="m 448.625,1185.98 c 0,1.02 -0.82,1.844 -1.832,1.844 h -43.375 c -1.012,0 -1.832,-0.824 -1.832,-1.844 v -21.445 c 0,-1.02 0.82,-1.84 1.832,-1.84 h 43.375 c 1.012,0 1.832,0.82 1.832,1.84 z"
   id="path62" />
				<path
   style="fill:#74969d"
   d="m 401.586,1178.863 v 7.117 c 0,1.02 0.82,1.844 1.832,1.844 h 43.375 c 1.012,0 1.832,-0.824 1.832,-1.844 v -7.117 z"
   id="path63" />
				<path
   style="fill:#d5e5e9"
   d="m 448.625,1165.547 v -1.012 c 0,-1.02 -0.82,-1.84 -1.832,-1.84 h -43.375 c -1.012,0 -1.832,0.82 -1.832,1.84 v 1.012 z"
   id="path64" />
				<path
   style="fill:#5f391d"
   d="m 489.703,1799.832 c -8.258,-6.426 -5.508,-12.848 2.754,-39.469 8.262,-26.621 4.59,-51.402 0,-57.828 -4.59,-6.426 -30.547,-77.93 -20.078,-79.859 10.473,-1.934 38.438,48.648 48.906,43.145 10.473,-5.512 -62.238,-77.082 -48.906,-80.781 13.336,-3.703 35.684,44.98 42.836,38.555 7.156,-6.426 -41.113,-60.582 -46.625,-76.188 -5.508,-15.605 13.77,-11.934 15.93,-22.031 2.156,-10.098 -14.09,-44.063 -22.672,-68.848 -8.582,-24.777 27.855,-58.742 26.938,-88.117 -0.918,-29.371 -53.875,-82.121 -53.875,-82.121 l 39.875,540.621 c 24.777,7.645 43.101,3.07 50.613,-0.91 0.793,-2.141 1.172,-4.48 1.023,-7.035 -0.516,-8.743 -28.453,-12.708 -36.719,-19.134 z"
   id="path65" />
				<polygon
   style="fill:#385d2e"
   points="645.859,1176.336 609.73,1179.633 603.926,1150.93 645.75,1149.027 "
   id="polygon65" />
				<path
   style="fill:#c77350"
   d="m 223.707,1268.09 c 0,0 9.867,8.098 10.902,7.262 1.035,-0.836 3.059,-10.164 -5.449,-14.91 0,0 -0.535,-5.809 -1.996,-14.992 l 5.438,-20.953 -5.438,-1.688 -15.234,18.359 z"
   id="path66" />
				<path
   style="fill:#df8a64"
   d="m 227.688,1280.641 c 0,0 5.66,2.902 6.887,2.75 1.223,-0.148 5.965,-5.813 -9.488,-17.898 0,0 -1.379,-15.144 -1.379,-20.957 0,0 5.68,-10.555 14.844,-24.785 2.406,-3.738 -5.051,-5.813 -5.051,-5.813 l -18.207,32.434 5.355,30.598 z"
   id="path67" />
				<path
   style="fill:#f4a27a"
   d="m 243.445,1173.156 c 0,0 2.449,15.266 5.813,23.586 0,0 4.285,9.852 4.59,18.422 0.305,8.566 1.531,30.898 0,36.098 -1.527,5.203 -6.121,14.996 -6.121,14.996 0,0 -8.262,-3.367 -5.813,-16.215 2.453,-12.855 -3.371,-20.746 -7.043,-28.398 0,0 -13.457,15.855 -15.598,28.398 0,0 1.527,14.07 2.754,20.805 0,0 17.137,13.336 10.227,22.027 0,0 -16.508,-12.336 -23.219,-16.523 -4.906,-3.059 -4.867,-43.254 -4.867,-47.531 0,-4.285 8.68,-52.07 9.598,-55.664 h 29.679 z"
   id="path68" />
				<path
   style="fill:#447b48"
   d="m 311.98,726.773 c 0,0 -30.289,8.316 -43.75,26.672 -13.461,18.359 -24.184,124.063 -29.195,149.773 -5.012,25.707 -8.363,30.738 -5.996,58.938 0,0 -9.711,13.555 -9.195,22.859 0.516,9.313 -0.477,15.297 -1.512,30.605 -1.129,16.609 -11.996,111.848 -10.707,131.305 1.02,15.445 41.078,5.965 41.078,5.965 0,0 12.906,-70.285 20.422,-106.016 5.555,-26.418 13.742,-62.512 16.523,-76.191 2.781,-13.672 25.57,-89.332 35.273,-89.035 z"
   id="path69" />
				<path
   style="fill:#346938"
   d="m 211.625,1146.926 c -0.039,-0.586 -0.066,-1.246 -0.086,-1.965 6.953,0.168 14.664,-12.297 20.715,-14.555 6.559,-2.445 10.578,9.793 17.309,11.629 6.734,1.832 -6.73,-23.254 -7.953,-28.766 -1.223,-5.512 11.016,-14.684 13.863,-21.418 2.855,-6.734 6.945,-22.641 6.945,-25.703 0,-3.059 -28.762,28.152 -30.164,22.645 -1.395,-5.508 25.879,-29.984 31.387,-41 5.504,-11.016 10.402,-26.312 5.805,-28.148 -4.598,-1.836 -44.973,43.445 -46.191,38.551 -1.227,-4.895 50.176,-51.406 50.176,-51.406 0,0 -11.625,-22.641 -13.465,-28.148 -1.832,-5.508 24.48,-23.254 27.539,-28.762 3.063,-5.504 -4.281,-35.492 -7.34,-56.297 -3.059,-20.805 38.965,-81.238 38.965,-81.238 2.117,0.602 1.406,20.969 2.02,24.137 l 3.773,45.168 c -9.703,-0.297 -32.492,75.363 -35.273,89.035 -2.781,13.68 -10.969,49.773 -16.523,76.191 -7.516,35.73 -20.422,106.016 -20.422,106.016 0,0 -40.06,9.479 -41.08,-5.966 z"
   id="path70" />
				<polygon
   style="fill:#385d2e"
   points="211.52,1174.234 247.645,1177.539 253.453,1148.832 211.625,1146.926 "
   id="polygon70" />
			</g>
			<path
   style="fill:#f3747b"
   d="m 446.754,643.5 c -10.734,-9.84 -25.348,-3.984 -28.934,-0.551 4.676,2.977 10.313,4.422 15.18,4.422 5.605,0 10.133,-1.586 13.754,-3.871 z"
   id="path71" />
			<path
   style="fill:#000718"
   d="m 509.996,551.586 c -2.012,-0.508 -9.668,-2.012 -9.668,-2.012 l 0.004,0.008 c -11.398,-11.789 -47.023,-5.141 -53.746,0.117 -0.469,0.367 -0.891,0.711 -1.293,1.051 -13.496,2.359 -27.305,-0.731 -27.305,-0.731 -6.723,-5.254 -42.348,-11.906 -53.738,-0.117 v -0.012 c 0,0 -7.66,1.508 -9.672,2.012 0,0 -2.008,5.141 0,8.664 l 6.57,2.734 c 0.785,6.973 2.793,20.559 6.899,25.328 4.137,4.805 34.621,9.352 45.168,0.063 6.59,-5.805 8.965,-14.742 10.004,-21.859 9.75,-14.07 18.027,-1.121 18.027,-1.121 l 0.004,-0.008 c 0.977,7.242 3.262,16.641 10.109,22.668 10.547,9.289 41.035,4.738 45.168,-0.063 4.105,-4.766 6.117,-18.352 6.902,-25.328 l 6.566,-2.738 c 2.013,-3.511 10e-4,-8.656 10e-4,-8.656 z m -99.043,35.602 c -9.379,8.258 -37.508,3.766 -41.184,-0.508 -4.992,-5.797 -5.52,-26.555 -5.52,-26.555 -0.098,-20.992 43.77,-13.621 50.918,-8.031 3.035,2.367 4.426,4.094 5.059,5.125 l 0.477,1.527 c -0.617,4.934 -0.613,20.395 -9.75,28.442 z m 83.852,-0.825 c -3.676,4.27 -31.805,8.766 -41.184,0.5 -8.336,-7.348 -9.063,-20.867 -9.59,-26.926 l 2.938,-6.086 c 0.66,-0.629 1.469,-1.324 2.441,-2.082 7.145,-5.586 51.012,-12.957 50.918,8.035 0,10e-4 -0.531,20.755 -5.523,26.559 z"
   id="path72" />
		</g>
		<path
   style="fill:#ffffff"
   d="m 351.621,558.977 c 0,0 9.398,6.457 10.879,-15.965 1.48,-22.422 -11.598,-55.992 34.766,-84.777 0,0 38.957,11.738 67.855,0 0,0 36.273,18.273 38.512,49.391 0,0 -6.137,44.207 4.961,48.5 l 6.469,-2.426 7.93,-4.34 c 0,0 0.996,-41.809 -7.93,-63.223 -11.43,-27.41 -47.074,-46.68 -82.762,-43.715 0,0 -53.746,-0.301 -74.617,35.566 -18.621,32.004 -14.238,76.121 -14.238,76.121 z"
   id="path73" />
		<path
   style="fill:#385d2e"
   d="m 385.184,703.859 c 0,0 7.527,37.18 43.547,37.914 0,0 24.273,1.238 42.188,-37.914 0,0 -5.719,-5.773 -3.422,-18.617 0,0 0.566,-7.449 -5.906,-4.359 0,0 -26.941,15.934 -67.785,0 0,0 -3.703,-3.582 -3.84,7.535 -0.111,8.559 -3.005,14.883 -4.782,15.441 z"
   id="path74" />
	</g>
<g
   id="OBJECTS"
   transform="translate(-662.96081,421.81277)">
	
	
	
	
</g>
<g
   id="g135"
   transform="translate(-204.16799,-442.12115)">
		<g
   id="g133">
			<g
   id="g131">
				<path
   style="fill:#c77350"
   d="m 633.664,1270.191 c 0,0 -9.863,8.09 -10.898,7.258 -1.035,-0.832 -3.063,-10.164 5.449,-14.906 0,0 0.531,-5.813 2,-14.992 l -5.441,-20.957 5.441,-1.691 15.231,18.363 z"
   id="path1" />
				<path
   style="fill:#df8a64"
   d="m 629.691,1282.734 c 0,0 -5.664,2.91 -6.887,2.754 -1.227,-0.152 -5.969,-5.813 9.484,-17.895 0,0 1.375,-15.148 1.375,-20.961 0,0 -5.676,-10.559 -14.84,-24.777 -2.406,-3.746 5.047,-5.82 5.047,-5.82 l 18.207,32.433 -5.352,30.598 z"
   id="path2" />
				<path
   style="fill:#f4a27a"
   d="m 613.93,1175.258 c 0,0 -2.445,15.258 -5.813,23.582 0,0 -4.285,9.855 -4.594,18.422 -0.305,8.563 -1.527,30.902 0,36.105 1.531,5.199 6.121,14.992 6.121,14.992 0,0 8.262,-3.367 5.813,-16.219 -2.445,-12.855 3.375,-20.746 7.047,-28.395 0,0 13.453,15.848 15.598,28.395 0,0 -1.531,14.074 -2.754,20.809 0,0 -17.133,13.34 -10.227,22.024 0,0 16.508,-12.34 23.215,-16.516 4.914,-3.063 4.871,-43.258 4.871,-47.539 0,-4.285 -8.68,-52.07 -9.598,-55.66 z"
   id="path21" />
				<path
   style="fill:#447b48"
   d="m 545.394,728.875 c 0,0 30.289,8.313 43.75,26.672 13.461,18.355 24.184,124.059 29.195,149.77 5.008,25.707 8.367,30.742 5.992,58.938 0,0 9.715,13.555 9.195,22.863 -0.516,9.305 0.481,15.297 1.516,30.602 1.125,16.609 11.996,111.844 10.707,131.309 -1.02,15.441 -41.074,5.969 -41.074,5.969 0,0 -12.914,-70.293 -20.426,-106.023 -5.555,-26.41 -13.742,-62.516 -16.523,-76.187 -2.781,-13.676 -25.57,-89.336 -35.273,-89.039 z"
   id="path22" />
				<path
   style="fill:#346938"
   d="m 645.75,1149.027 c 0.039,-0.586 0.07,-1.25 0.086,-1.965 -6.953,0.164 -14.664,-12.301 -20.715,-14.559 -6.559,-2.449 -10.578,9.789 -17.313,11.625 -6.731,1.836 6.734,-23.254 7.957,-28.758 1.227,-5.508 -11.012,-14.688 -13.863,-21.418 -2.852,-6.734 -6.941,-22.641 -6.941,-25.707 0,-3.055 28.762,28.152 30.16,22.645 1.398,-5.504 -25.875,-29.984 -31.387,-41 -5.508,-11.012 -10.402,-26.313 -5.805,-28.145 4.602,-1.84 44.973,43.445 46.195,38.551 1.223,-4.898 -50.18,-51.406 -50.18,-51.406 0,0 11.625,-22.645 13.461,-28.148 1.84,-5.508 -24.473,-23.254 -27.535,-28.762 -3.059,-5.508 4.281,-35.492 7.34,-56.297 3.063,-20.809 -37.938,-66.703 -37.938,-66.703 -2.117,0.601 -1.488,7.934 -3.047,9.598 l -3.773,45.168 c 9.703,-0.297 32.492,75.363 35.273,89.039 2.781,13.672 10.969,49.777 16.523,76.187 7.512,35.73 20.426,106.023 20.426,106.023 0,0 40.056,9.474 41.076,-5.968 z"
   id="path27" />
				<path
   style="fill:#122129"
   d="m 371.598,1818.965 c 0,0 1.926,45.504 -1.629,52.285 -3.551,6.777 -13.551,9.277 -21.621,10.891 0,0 -11.148,-2.672 -14.383,-2.602 -3.992,0.086 -4.238,2.203 -12.238,8.105 -19.277,14.227 -31.535,16.133 -39.93,18.395 -8.398,2.258 -25.973,-0.5 -29.375,-12.273 -1.547,-5.352 -3.215,-12.391 5.047,-21.262 10.23,-10.988 48.242,-36.492 55.992,-48.117 7.754,-11.625 8.707,-12.242 11.613,-13.531 2.91,-1.29 46.524,8.109 46.524,8.109 z"
   id="path28" />
				<path
   style="fill:#122129"
   d="m 477.07,1818.965 c 0,0 -1.93,45.504 1.629,52.285 3.551,6.777 13.551,9.277 21.625,10.891 0,0 11.145,-2.672 14.379,-2.602 3.996,0.086 4.234,2.203 12.238,8.105 19.273,14.227 31.531,16.133 39.934,18.395 8.394,2.258 25.969,-0.5 29.371,-12.273 1.547,-5.352 3.211,-12.391 -5.051,-21.262 -10.231,-10.988 -48.242,-36.492 -55.992,-48.117 -7.75,-11.625 -8.707,-12.242 -11.613,-13.531 -2.906,-1.29 -46.52,8.109 -46.52,8.109 z"
   id="path47" />
				<g
   id="g104">
					<g
   id="g103">
						<path
   style="fill:#523932"
   d="m 323.121,1821.832 c 0,0 15.18,16.621 53.258,4.879 l 43.133,-540.422 c 0.961,-0.027 14.434,-0.027 15.398,0 l 43.129,540.422 c 38.078,11.742 53.258,-4.879 53.258,-4.879 0,0 15.59,-483.105 13.902,-558.973 -1.168,-52.352 -5.313,-130.215 -5.313,-130.215 l -112.68,7.043 -108.848,-12.078 c 0,0 -7.973,82.898 -9.141,135.25 -0.914,41.129 3.246,201.902 7.25,340.527 0,0 2.039,117.508 -1.168,125.77 0,0 -3.672,4.133 -0.461,11.469 3.215,7.348 3.668,14.227 3.668,14.227 0,0 -8.039,9.18 -5.965,14.23 2.074,5.047 7.344,11.934 7.344,11.934 0,0 -7.801,4.59 -7.344,8.719 0.461,4.133 7.805,12.391 6.887,15.145 -0.92,2.753 -6.135,10.983 3.693,16.952 z"
   id="path48" />
						<path
   style="fill:#734929"
   d="m 323.121,1821.832 c 0,0 15.18,16.621 53.258,4.879 l 43.133,-540.422 c 0.961,-0.027 14.434,-0.027 15.398,0 l 43.129,540.422 c 38.078,11.742 58.992,-7.746 58.992,-7.746 0,0 9.855,-480.238 8.168,-556.105 -1.168,-52.352 -5.313,-130.215 -5.313,-130.215 l -112.68,7.043 -108.848,-12.078 c 0,0 -7.973,82.898 -9.141,135.25 -0.914,41.129 3.246,201.902 7.25,340.527 0,0 2.039,117.508 -1.168,125.77 0,0 -3.672,4.133 -0.461,11.469 3.215,7.348 3.668,14.227 3.668,14.227 0,0 -8.039,9.18 -5.965,14.23 2.074,5.047 7.344,11.934 7.344,11.934 0,0 -7.801,4.59 -7.344,8.719 0.461,4.133 7.805,12.391 6.887,15.145 -0.92,2.752 -6.135,10.982 3.693,16.951 z"
   id="path52" />
						<path
   style="fill:#5f391d"
   d="m 320.922,1764.953 c -8.145,-6.422 5.391,-15.605 12.141,-23.871 6.742,-8.258 -6.75,-62.414 -12.141,-78.938 -5.391,-16.52 4.473,-57.832 11.527,-67.926 7.055,-10.094 -9.809,-21.109 -11.527,-33.043 -1.723,-11.93 9.98,-28.457 12.141,-45.898 2.156,-17.441 -11.336,-55.074 -17.43,-62.422 -6.082,-7.34 6.094,-102.801 11.359,-111.984 5.27,-9.176 -4.352,-22.027 -6.07,-37.633 -1.723,-15.605 25.586,-55.074 29.258,-74.977 3.672,-19.903 -7.344,-43.805 -7.344,-43.805 l -28.418,-11.281 c -2.188,27.668 -4.594,62.727 -5.199,89.684 -0.914,41.129 3.246,201.902 7.25,340.527 0,0 2.039,117.508 -1.168,125.77 0,0 -3.672,4.133 -0.461,11.469 3.215,7.348 3.668,14.227 3.668,14.227 0,0 -8.039,9.18 -5.965,14.23 2.074,5.047 7.344,11.934 7.344,11.934 0,0 -7.801,4.59 -7.344,8.719 0.461,4.133 7.805,12.391 6.887,15.145 -0.621,1.871 -3.207,6.254 -1.758,10.746 10.719,0.293 20.027,5.195 27.922,2.57 11.012,-3.68 -26.164,-13.316 -18.602,-22.949 7.563,-9.641 25.023,7.336 27.781,0 2.75,-7.349 -25.707,-23.868 -33.851,-30.294 z"
   id="path53" />
						<path
   style="fill:#5f391d"
   d="m 542.254,1181.48 c -0.305,-6.758 -0.598,-13.133 -0.875,-18.898 -35.469,5.727 -162.793,23.672 -225.926,-2.156 -0.543,6.516 -1.121,13.703 -1.699,21.293 25.828,8.926 114.777,33.73 228.5,-0.239 z"
   id="path54" />
						<path
   style="fill:#000814"
   d="m 541.719,1169.707 c -1.016,-21.68 -1.832,-37.063 -1.832,-37.063 l -112.68,7.043 -108.848,-12.078 c 0,0 -1.742,18.105 -3.715,42.73 32.465,8.204 128.493,27.497 227.075,-0.632 z"
   id="path75" />
						<path
   style="fill:#e98e66"
   d="m 550.992,737.941 c -1.004,-4.621 -2.066,-7.441 -3.027,-7.965 -6.73,-3.672 -82.609,-25.695 -82.609,-25.695 -4.285,-7.344 -4.566,-45.285 -4.566,-45.285 L 428.497,646.93 v -0.176 l -0.234,0.086 -0.238,-0.086 v 0.176 l -32.293,12.066 c 0,0 -0.277,37.941 -4.563,45.285 0,0 -75.879,22.023 -82.613,25.695 -0.961,0.523 -1.953,3.344 -2.855,7.965 l 121.645,6.738 z"
   id="path76" />
						<path
   style="fill:#c66a42"
   d="m 443.473,698.766 c 7.367,-1.43 13.914,-5.426 18.82,-9.285 -1.379,-13.453 -1.504,-30.484 -1.504,-30.484 l -32.293,-12.066 v -0.176 l -0.234,0.086 -0.238,-0.086 v 0.176 l -32.293,12.066 c 0,0 -0.059,8.281 -0.559,17.856 10.894,7.694 36.137,24.272 48.301,21.913 z"
   id="path77" />
						<g
   id="g101">
							<g
   id="g93">
								<g
   id="g92">
									<g
   id="g84">
										<path
   style="fill:#f4a27a"
   d="m 356.977,566.57 c 0,0 -8.191,-14.375 -20.941,-14.574 -7.574,-0.117 -5.332,30.984 2.469,39.016 7.801,8.031 19.164,5.352 21.684,-1.762 z"
   id="path78" />
										<path
   style="opacity:0.4;fill:#cf6244"
   d="m 355.227,588.234 c 0,0 -9.52,3.348 -13.625,-4.59 -4.105,-7.934 -8.098,-17.473 -4.918,-24.473 0,0 8.781,2.047 16.898,18.438 0,0 -5.949,7.379 1.645,10.625 z"
   id="path79" />
										<g
   id="g81">
											<g
   id="g80">
												<path
   style="fill:#91554a"
   d="m 335.387,569.144 c -0.266,-3 -0.574,-6 0.199,-9.109 0.125,-0.391 0.301,-0.801 0.633,-1.203 0.379,-0.453 1.324,-0.519 1.676,-0.254 0.688,0.27 1.371,0.613 2.051,1.063 1.41,0.813 2.516,1.785 3.719,2.758 2.309,1.988 4.496,4.145 6.313,6.613 0.992,1.164 1.688,2.559 2.539,3.824 0.438,0.633 0.684,1.379 1.035,2.059 l 0.977,2.09 0.176,0.379 -0.297,0.352 c -1.406,1.676 -2.656,3.848 -2.559,6.035 0.051,1.086 0.516,2.156 1.367,2.938 0.793,0.836 1.867,1.379 2.938,1.91 -1.141,-0.332 -2.313,-0.734 -3.277,-1.539 -0.996,-0.723 -1.781,-1.906 -1.926,-3.211 -0.281,-2.641 0.902,-5.016 2.359,-7.059 l -0.117,0.727 -0.977,-1.965 c -0.352,-0.641 -0.594,-1.336 -1.031,-1.93 -0.855,-1.195 -1.531,-2.508 -2.52,-3.605 -1.82,-2.305 -3.785,-4.516 -6,-6.469 -1.086,-0.957 -2.277,-1.941 -3.406,-2.723 -0.535,-0.434 -1.164,-0.816 -1.855,-1.148 -0.305,-0.176 -0.203,-0.074 -0.395,-0.051 -0.156,0.176 -0.316,0.438 -0.445,0.758 -0.469,1.301 -0.648,2.813 -0.84,4.277 -0.169,1.483 -0.251,2.98 -0.337,4.483 z"
   id="path80" />
											</g>
										</g>
										<g
   id="g83">
											<g
   id="g82">
												<path
   style="fill:#91554a"
   d="m 338.137,570.566 c 0,0 0.063,-0.809 0.809,-1.813 0.441,-0.383 0.91,-1.031 1.652,-1.285 0.699,-0.391 1.504,-0.535 2.32,-0.652 0.832,-0.148 1.598,0.156 2.336,0.219 0.754,0.055 1.344,0.461 1.867,0.695 1.039,0.539 1.641,1.016 1.641,1.016 0,0 -0.816,0.031 -1.898,-0.098 -0.535,-0.09 -1.164,-0.172 -1.816,-0.156 -0.637,0.02 -1.348,-0.191 -1.988,0.016 -0.66,0.023 -1.332,0.059 -1.891,0.316 -0.609,0.129 -1.105,0.418 -1.586,0.641 -0.872,0.539 -1.446,1.101 -1.446,1.101 z"
   id="path81" />
											</g>
										</g>
									</g>
									<g
   id="g90">
										<path
   style="fill:#f4a27a"
   d="m 506.844,563.172 c 0,0 8.195,-14.371 20.945,-14.57 7.574,-0.121 5.332,30.98 -2.473,39.008 -7.801,8.035 -19.16,5.359 -21.684,-1.758 z"
   id="path84" />
										<path
   style="opacity:0.4;fill:#cf6244"
   d="m 508.594,584.84 c 0,0 9.523,3.348 13.629,-4.594 4.101,-7.93 8.098,-17.469 4.914,-24.473 0,0 -8.785,2.047 -16.898,18.434 -10e-4,0 5.945,7.387 -1.645,10.633 z"
   id="path85" />
										<g
   id="g87">
											<g
   id="g86">
												<path
   style="fill:#91554a"
   d="m 528.434,565.746 c -0.086,-1.504 -0.168,-3 -0.336,-4.48 -0.188,-1.469 -0.371,-2.98 -0.84,-4.281 -0.125,-0.32 -0.285,-0.578 -0.441,-0.754 -0.191,-0.02 -0.09,-0.125 -0.398,0.055 -0.691,0.328 -1.316,0.715 -1.856,1.148 -1.129,0.781 -2.32,1.762 -3.41,2.719 -2.211,1.953 -4.176,4.168 -5.992,6.469 -0.988,1.102 -1.668,2.41 -2.524,3.602 -0.438,0.594 -0.68,1.293 -1.031,1.933 l -0.977,1.961 -0.117,-0.723 c 1.457,2.039 2.641,4.418 2.359,7.055 -0.145,1.309 -0.93,2.492 -1.93,3.215 -0.961,0.801 -2.133,1.203 -3.277,1.535 1.074,-0.531 2.145,-1.074 2.941,-1.91 0.852,-0.781 1.316,-1.852 1.367,-2.934 0.101,-2.191 -1.148,-4.359 -2.555,-6.035 l -0.297,-0.352 0.176,-0.379 0.973,-2.09 c 0.352,-0.68 0.598,-1.426 1.039,-2.055 0.852,-1.27 1.543,-2.664 2.535,-3.832 1.82,-2.465 4.008,-4.621 6.313,-6.609 1.203,-0.969 2.308,-1.941 3.723,-2.758 0.68,-0.449 1.359,-0.793 2.051,-1.059 0.34,-0.266 1.289,-0.207 1.672,0.246 0.332,0.406 0.508,0.813 0.633,1.203 0.777,3.114 0.464,6.11 0.199,9.11 z"
   id="path86" />
											</g>
										</g>
										<g
   id="g89">
											<g
   id="g88">
												<path
   style="fill:#91554a"
   d="m 525.684,567.172 c 0,0 -0.574,-0.563 -1.441,-1.105 -0.481,-0.219 -0.977,-0.512 -1.59,-0.641 -0.558,-0.258 -1.227,-0.293 -1.891,-0.316 -0.637,-0.207 -1.348,0.004 -1.988,-0.016 -0.648,-0.016 -1.277,0.067 -1.813,0.156 -1.086,0.129 -1.898,0.098 -1.898,0.098 0,0 0.598,-0.477 1.637,-1.016 0.527,-0.234 1.113,-0.641 1.867,-0.695 0.742,-0.063 1.508,-0.367 2.336,-0.219 0.82,0.117 1.625,0.262 2.324,0.652 0.742,0.254 1.207,0.906 1.648,1.289 0.75,1.004 0.809,1.813 0.809,1.813 z"
   id="path87" />
											</g>
										</g>
									</g>
									<path
   style="fill:#f4a27a"
   d="m 439.492,679.773 c 0,0 38.551,-18.516 51.828,-39.32 10.914,-14.594 19.902,-89.016 21.152,-100.566 0.043,-0.387 0.09,-0.77 0.125,-1.152 0.035,-0.363 0.059,-0.563 0.059,-0.563 l -0.016,0.008 c 0.215,-2.391 0.34,-4.801 0.34,-7.246 0,-44.559 -36.125,-80.68 -80.68,-80.68 -44.559,0 -80.68,36.121 -80.68,80.68 0,2.898 0.156,5.762 0.457,8.578 h -0.008 c 0,0 9.254,84.957 21.207,100.941 14.051,23.848 51.828,39.32 51.828,39.32 0,0 6.834,2.496 14.388,0 z"
   id="path90" />
									<path
   style="fill:#ffffff"
   d="m 352.273,555.582 c 0,0 2.902,-4.84 7.734,4.141 4.84,8.977 11.938,66.242 15.793,67.234 0,0 2.48,-10.535 15.957,-10.043 13.469,0.496 47.617,1.484 65.367,-0.492 17.75,-1.973 26.422,2.18 29.219,7.316 0,0 10.793,-9.242 20.164,-58.172 0,0 0.445,-15.711 8.555,-11.867 0,0 -6.285,68.262 -15.488,89.016 -9.199,20.754 -39.211,42.496 -67.305,41.359 -28.098,-1.137 -64.672,-11.832 -72.082,-50.859 -7.406,-39.02 -7.914,-77.633 -7.914,-77.633 z"
   id="path91" />
									<path
   style="fill:#5f221b"
   d="m 442.203,598.84 c 0,0 0,14.227 -2.906,15.754 -2.906,1.531 0.152,-8.262 2.906,-15.754 z"
   id="path92" />
								</g>
								<path
   style="fill:#8e191b"
   d="m 459.414,626.957 c 0,0 -6.285,20.414 -26.414,20.414 -10.328,0 -24.172,-6.426 -24.77,-20.414 0,0 44.071,0.918 51.184,0 z"
   id="path93" />
							</g>
							<g
   id="g94">
								<path
   style="fill:#85453e"
   d="m 380.844,591.344 c 0,0 0.273,-0.465 0.766,-1.082 0.523,-0.59 1.223,-1.367 1.922,-2.148 0.801,-0.672 1.605,-1.34 2.211,-1.848 0.633,-0.469 1.109,-0.727 1.109,-0.727 0,0 -0.273,0.469 -0.766,1.082 -0.523,0.59 -1.223,1.367 -1.922,2.152 -0.801,0.668 -1.605,1.34 -2.211,1.84 -0.637,0.473 -1.109,0.731 -1.109,0.731 z"
   id="path94" />
							</g>
							<g
   id="g95">
								<path
   style="fill:#85453e"
   d="m 388.172,586.754 c 0,0 -0.246,0.738 -0.719,1.789 -0.512,1.027 -1.191,2.398 -1.871,3.769 -0.813,1.297 -1.625,2.594 -2.238,3.566 -0.648,0.949 -1.148,1.547 -1.148,1.547 0,0 0.246,-0.738 0.719,-1.789 0.508,-1.027 1.191,-2.398 1.871,-3.77 0.813,-1.297 1.629,-2.594 2.238,-3.566 0.648,-0.948 1.148,-1.546 1.148,-1.546 z"
   id="path95" />
							</g>
							<g
   id="g96">
								<path
   style="fill:#85453e"
   d="m 391.758,588.441 c 0,0 -0.102,0.457 -0.352,1.082 -0.285,0.602 -0.664,1.402 -1.047,2.207 -0.512,0.726 -1.027,1.453 -1.414,1.996 -0.422,0.519 -0.773,0.832 -0.773,0.832 0,0 0.098,-0.457 0.348,-1.082 0.285,-0.602 0.668,-1.402 1.051,-2.207 0.512,-0.726 1.027,-1.453 1.414,-1.996 0.421,-0.519 0.773,-0.832 0.773,-0.832 z"
   id="path96" />
							</g>
							<g
   id="g97">
								<path
   style="fill:#85453e"
   d="m 483.547,595.019 c 0,0 -0.477,-0.262 -1.109,-0.734 -0.605,-0.5 -1.406,-1.172 -2.215,-1.84 -0.695,-0.781 -1.391,-1.563 -1.918,-2.148 -0.488,-0.617 -0.766,-1.086 -0.766,-1.086 0,0 0.477,0.262 1.109,0.731 0.602,0.504 1.41,1.172 2.215,1.844 0.695,0.781 1.391,1.563 1.914,2.148 0.493,0.617 0.77,1.085 0.77,1.085 z"
   id="path97" />
							</g>
							<g
   id="g98">
								<path
   style="fill:#85453e"
   d="m 476.219,590.43 c 0,0 0.5,0.594 1.148,1.547 0.609,0.969 1.426,2.266 2.242,3.559 0.676,1.371 1.359,2.742 1.867,3.769 0.473,1.051 0.719,1.789 0.719,1.789 0,0 -0.5,-0.594 -1.148,-1.547 -0.609,-0.969 -1.426,-2.266 -2.238,-3.563 -0.68,-1.371 -1.359,-2.738 -1.871,-3.77 -0.469,-1.046 -0.719,-1.784 -0.719,-1.784 z"
   id="path98" />
							</g>
							<g
   id="g99">
								<path
   style="fill:#85453e"
   d="m 472.637,592.113 c 0,0 0.348,0.309 0.77,0.832 0.387,0.543 0.902,1.269 1.418,1.996 0.379,0.801 0.762,1.605 1.047,2.207 0.25,0.625 0.348,1.078 0.348,1.078 0,0 -0.352,-0.309 -0.773,-0.828 -0.387,-0.543 -0.898,-1.269 -1.414,-1.996 -0.379,-0.805 -0.762,-1.605 -1.047,-2.211 -0.252,-0.621 -0.349,-1.078 -0.349,-1.078 z"
   id="path99" />
							</g>
							<path
   style="fill:#ffffff"
   d="m 413.75,537.949 c 0,0 -15.301,-16.777 -36.645,-11.527 0,0 -6.98,6.633 -7.348,9.996 10e-4,0 16.763,-3.672 43.993,1.531 z"
   id="path100" />
							<path
   style="fill:#ffffff"
   d="m 452.43,537.949 c 0,0 18.609,-15.59 32.992,-11.883 0,0 8.566,2.855 11.008,10.352 0,0 -16.77,-3.672 -44,1.531 z"
   id="path101" />
						</g>
						<path
   style="fill:#447b48"
   d="m 306.859,728.394 c 0,0 -20.652,93.227 12.395,184.102 0,0 2.773,79.871 2.168,102.516 -0.57,21.055 -20.938,129.117 -3.625,136.891 0,0 115.019,32.93 219.047,2.023 0,0 19.914,4.414 8.48,-74.664 -4.008,-27.746 -7.094,-96.824 -13.113,-141.059 0,0 21.133,-69.867 23.867,-107.398 2.906,-39.93 -4.391,-100.019 -4.391,-100.019 l -87.375,-29.129 c 0,0 -30.496,40.578 -36.836,40.457 -5.125,-0.094 -22.781,-27.875 -35.266,-40.457 z"
   id="path102" />
						<path
   style="fill:#346938"
   d="m 435.547,1156.027 c -43.754,0.273 -86.594,-14.344 -103.523,-26.902 -16.93,-12.559 0,-38.848 0,-38.848 21.621,9.789 84.246,31.211 87.922,25.707 3.668,-5.512 -8.266,-10.406 -8.266,-10.406 -25.395,-9.18 -73.125,-43.445 -78.617,-48.957 -5.496,-5.504 -7.973,-22.027 -1.039,-25.09 6.938,-3.059 38.965,38.559 51.203,30.602 12.238,-7.957 -44.672,-50.18 -50.164,-64.258 -5.496,-14.07 30.578,-100.969 36.766,-116.883 5.262,-13.543 -52.117,-70.523 -69.316,-87.188 -0.383,33.668 3.371,76.43 18.742,118.691 0,0 2.773,79.871 2.168,102.516 -0.57,21.055 -20.938,129.117 -3.625,136.891 0,0 112.879,32.305 216.133,2.863 -13.708,-4.253 -63.786,1.051 -98.384,1.262 z"
   id="path103" />
					</g>
				</g>
				<g
   id="g116">
					<g
   id="g110">
						<g
   id="g109">
							<path
   style="fill:#ffffff"
   d="m 415.367,569.203 c 0,0 -3.605,-11.559 -11.621,-18.059 -11.453,-9.285 -32.234,-5.668 -31.145,11.742 0,0 0.797,16.047 15.316,18.148 11.751,1.697 23.091,-3.515 27.45,-11.831 z"
   id="path104" />
							<path
   style="fill:#ffffff"
   d="m 415.367,569.203 c 0,0 -3.605,-11.559 -11.621,-18.059 -11.453,-9.285 -32.234,-5.668 -31.145,11.742 0,0 0.797,16.047 15.316,18.148 11.751,1.697 23.091,-3.515 27.45,-11.831 z"
   id="path105" />
							<path
   style="fill:#231114"
   d="m 403.746,551.144 c -5.426,-4.398 -12.941,-5.894 -19.238,-4.41 -3.613,4.059 -5.953,10.5 -5.953,17.781 0,5.641 1.41,10.773 3.719,14.691 1.609,0.852 3.457,1.512 5.645,1.828 6.051,0.875 11.98,-0.09 16.918,-2.363 2.121,-3.848 3.395,-8.777 3.395,-14.156 0,-4.008 -0.719,-7.758 -1.957,-11.004 -0.791,-0.831 -1.627,-1.632 -2.529,-2.367 z"
   id="path106" />
							<g
   id="g108">
								<g
   id="g107">
									<path
   style="fill:#231114"
   d="m 415.367,569.203 c 0,0 -1.633,-3.73 -4.949,-8.637 -0.863,-1.191 -1.789,-2.5 -2.871,-3.762 -1.09,-1.269 -2.281,-2.543 -3.66,-3.676 -0.691,-0.668 -1.27,-1.121 -2.129,-1.645 -0.813,-0.598 -1.617,-1.012 -2.395,-1.387 -1.555,-0.832 -3.41,-1.438 -5.219,-1.836 -1.824,-0.441 -3.703,-0.586 -5.547,-0.59 -1.832,0.133 -3.645,0.297 -5.305,0.84 -1.645,0.531 -3.227,1.188 -4.492,2.137 -0.676,0.434 -1.277,0.918 -1.777,1.481 -0.563,0.504 -1.066,1.035 -1.43,1.641 -0.898,1.102 -1.34,2.348 -1.887,3.399 -0.285,1.137 -0.652,2.137 -0.77,2.988 -0.215,1.738 -0.336,2.731 -0.336,2.731 0,0 -0.094,-1.008 -0.258,-2.777 -0.031,-0.895 0.156,-1.973 0.262,-3.246 0.363,-1.203 0.629,-2.672 1.5,-4.035 0.336,-0.742 0.824,-1.414 1.398,-2.078 0.512,-0.723 1.164,-1.336 1.898,-1.914 1.387,-1.238 3.141,-2.191 5.031,-2.887 1.895,-0.703 3.949,-1.094 6.051,-1.238 2.102,-0.043 4.242,0.086 6.328,0.555 2.082,0.512 4.07,1.184 5.984,2.238 0.992,0.504 1.887,1.055 2.605,1.652 0.773,0.523 1.668,1.281 2.289,1.973 1.484,1.324 2.625,2.836 3.664,4.281 1.047,1.438 1.84,2.918 2.57,4.262 1.383,2.742 2.223,5.152 2.746,6.84 0.531,1.694 0.699,2.69 0.699,2.69 z"
   id="path107" />
								</g>
							</g>
						</g>
					</g>
					<g
   id="g115">
						<g
   id="g114">
							<path
   style="fill:#ffffff"
   d="m 449.23,569.203 c 0,0 3.605,-11.559 11.621,-18.059 11.453,-9.285 32.23,-5.668 31.145,11.742 0,0 -0.793,16.047 -15.32,18.148 -11.746,1.697 -23.086,-3.515 -27.446,-11.831 z"
   id="path110" />
							<path
   style="fill:#231114"
   d="m 460.852,551.144 c -3.141,2.551 -5.598,5.867 -7.434,8.969 -0.152,1.301 -0.25,2.625 -0.25,3.988 0,4.496 0.898,8.676 2.43,12.172 5.527,3.922 13.207,5.898 21.078,4.762 0.395,-0.055 0.738,-0.16 1.113,-0.234 3.094,-4.082 5.063,-10.039 5.063,-16.699 0,-7.328 -2.379,-13.809 -6.027,-17.859 -5.501,-0.403 -11.458,1.245 -15.973,4.901 z"
   id="path111" />
							<g
   id="g113">
								<g
   id="g112">
									<path
   style="fill:#231114"
   d="m 449.23,569.203 c 0,0 0.172,-0.996 0.695,-2.691 0.523,-1.688 1.363,-4.098 2.746,-6.84 0.73,-1.344 1.523,-2.824 2.57,-4.262 1.039,-1.445 2.18,-2.957 3.664,-4.281 0.621,-0.691 1.516,-1.449 2.289,-1.973 0.719,-0.598 1.617,-1.148 2.605,-1.648 1.914,-1.059 3.898,-1.731 5.984,-2.242 2.086,-0.469 4.227,-0.594 6.328,-0.555 2.102,0.145 4.16,0.535 6.051,1.238 1.891,0.695 3.645,1.648 5.031,2.887 0.73,0.578 1.387,1.191 1.902,1.914 0.566,0.664 1.055,1.34 1.395,2.078 0.871,1.363 1.133,2.832 1.5,4.035 0.105,1.273 0.293,2.352 0.262,3.246 -0.164,1.77 -0.258,2.777 -0.258,2.777 0,0 -0.125,-0.992 -0.336,-2.731 -0.117,-0.852 -0.484,-1.852 -0.77,-2.988 -0.551,-1.051 -0.988,-2.297 -1.891,-3.399 -0.363,-0.605 -0.863,-1.137 -1.426,-1.641 -0.5,-0.563 -1.102,-1.047 -1.777,-1.481 -1.27,-0.949 -2.848,-1.605 -4.492,-2.137 -1.66,-0.543 -3.473,-0.707 -5.305,-0.84 -1.844,0.004 -3.719,0.148 -5.547,0.59 -1.809,0.398 -3.668,1.004 -5.219,1.836 -0.777,0.375 -1.582,0.789 -2.395,1.387 -0.863,0.523 -1.438,0.977 -2.125,1.645 -1.383,1.133 -2.57,2.406 -3.664,3.676 -1.082,1.262 -2.008,2.57 -2.871,3.762 -3.313,4.908 -4.946,8.638 -4.946,8.638 z"
   id="path112" />
								</g>
							</g>
						</g>
					</g>
				</g>
				<path
   style="fill:#ffffff"
   d="m 389.914,558.922 c 0.199,1.637 -2.566,3.32 -6.172,3.758 -3.605,0.441 -6.695,-0.523 -6.895,-2.16 -0.199,-1.637 2.563,-3.32 6.172,-3.762 3.61,-0.438 6.696,0.531 6.895,2.164 z"
   id="path116" />
				<path
   style="fill:#ffffff"
   d="m 488.617,560.418 c -0.359,1.609 -3.527,2.269 -7.074,1.473 -3.547,-0.797 -6.129,-2.742 -5.773,-4.352 0.363,-1.609 3.535,-2.266 7.082,-1.473 3.543,0.797 6.128,2.747 5.765,4.352 z"
   id="path117" />
				<path
   style="fill:#ffffff"
   d="M 315.633,1172.316"
   id="path118" />
				<path
   style="fill:#9e7453"
   d="m 323.102,1151.66 c 0,0 -3.215,21.976 -1.836,23.586 1.375,1.606 7.113,3.441 8.719,2.52 1.605,-0.914 2.984,-23.34 2.984,-23.34 0,0 0.574,-2.766 -1.148,-3.449 -3.055,-1.223 -8.278,-2.934 -8.719,0.683 z"
   id="path119" />
				<path
   style="fill:#9e7453"
   d="m 365.938,1160.227 c 0,0 -3.211,21.973 -1.836,23.586 1.379,1.602 7.113,3.441 8.719,2.52 1.609,-0.918 2.984,-23.348 2.984,-23.348 0,0 0.574,-2.758 -1.148,-3.445 -3.055,-1.22 -8.278,-2.935 -8.719,0.687 z"
   id="path120" />
				<path
   style="fill:#9e7453"
   d="m 525.176,1154.609 c 0,0 3.215,21.973 1.836,23.578 -1.379,1.609 -7.113,3.449 -8.719,2.531 -1.606,-0.922 -2.984,-23.355 -2.984,-23.355 0,0 -0.574,-2.754 1.148,-3.441 3.055,-1.223 8.277,-2.926 8.719,0.687 z"
   id="path121" />
				<path
   style="fill:#9e7453"
   d="m 482.34,1163.176 c 0,0 3.211,21.973 1.836,23.574 -1.379,1.613 -7.113,3.445 -8.719,2.531 -1.609,-0.918 -2.984,-23.355 -2.984,-23.355 0,0 -0.574,-2.75 1.148,-3.438 3.055,-1.226 8.277,-2.933 8.719,0.688 z"
   id="path122" />
				<path
   style="fill:#91afb8"
   d="m 448.625,1185.98 c 0,1.02 -0.82,1.844 -1.832,1.844 h -43.375 c -1.012,0 -1.832,-0.824 -1.832,-1.844 v -21.445 c 0,-1.02 0.82,-1.84 1.832,-1.84 h 43.375 c 1.012,0 1.832,0.82 1.832,1.84 z"
   id="path123" />
				<path
   style="fill:#74969d"
   d="m 401.586,1178.863 v 7.117 c 0,1.02 0.82,1.844 1.832,1.844 h 43.375 c 1.012,0 1.832,-0.824 1.832,-1.844 v -7.117 z"
   id="path124" />
				<path
   style="fill:#d5e5e9"
   d="m 448.625,1165.547 v -1.012 c 0,-1.02 -0.82,-1.84 -1.832,-1.84 h -43.375 c -1.012,0 -1.832,0.82 -1.832,1.84 v 1.012 z"
   id="path125" />
				<path
   style="fill:#5f391d"
   d="m 489.703,1799.832 c -8.258,-6.426 -5.508,-12.848 2.754,-39.469 8.262,-26.621 4.59,-51.402 0,-57.828 -4.59,-6.426 -30.547,-77.93 -20.078,-79.859 10.473,-1.934 38.438,48.648 48.906,43.145 10.473,-5.512 -62.238,-77.082 -48.906,-80.781 13.336,-3.703 35.684,44.98 42.836,38.555 7.156,-6.426 -41.113,-60.582 -46.625,-76.188 -5.508,-15.605 13.77,-11.934 15.93,-22.031 2.156,-10.098 -14.09,-44.063 -22.672,-68.848 -8.582,-24.777 27.855,-58.742 26.938,-88.117 -0.918,-29.371 -53.875,-82.121 -53.875,-82.121 l 39.875,540.621 c 24.777,7.645 43.101,3.07 50.613,-0.91 0.793,-2.141 1.172,-4.48 1.023,-7.035 -0.516,-8.743 -28.453,-12.708 -36.719,-19.134 z"
   id="path126" />
				<polygon
   style="fill:#385d2e"
   points="645.859,1176.336 609.73,1179.633 603.926,1150.93 645.75,1149.027 "
   id="polygon126" />
				<path
   style="fill:#c77350"
   d="m 223.707,1268.09 c 0,0 9.867,8.098 10.902,7.262 1.035,-0.836 3.059,-10.164 -5.449,-14.91 0,0 -0.535,-5.809 -1.996,-14.992 l 5.438,-20.953 -5.438,-1.688 -15.234,18.359 z"
   id="path127" />
				<path
   style="fill:#df8a64"
   d="m 227.688,1280.641 c 0,0 5.66,2.902 6.887,2.75 1.223,-0.148 5.965,-5.813 -9.488,-17.898 0,0 -1.379,-15.144 -1.379,-20.957 0,0 5.68,-10.555 14.844,-24.785 2.406,-3.738 -5.051,-5.813 -5.051,-5.813 l -18.207,32.434 5.355,30.598 z"
   id="path128" />
				<path
   style="fill:#f4a27a"
   d="m 243.445,1173.156 c 0,0 2.449,15.266 5.813,23.586 0,0 4.285,9.852 4.59,18.422 0.305,8.566 1.531,30.898 0,36.098 -1.527,5.203 -6.121,14.996 -6.121,14.996 0,0 -8.262,-3.367 -5.813,-16.215 2.453,-12.855 -3.371,-20.746 -7.043,-28.398 0,0 -13.457,15.855 -15.598,28.398 0,0 1.527,14.07 2.754,20.805 0,0 17.137,13.336 10.227,22.027 0,0 -16.508,-12.336 -23.219,-16.523 -4.906,-3.059 -4.867,-43.254 -4.867,-47.531 0,-4.285 8.68,-52.07 9.598,-55.664 h 29.679 z"
   id="path129" />
				<path
   style="fill:#447b48"
   d="m 311.98,726.773 c 0,0 -30.289,8.316 -43.75,26.672 -13.461,18.359 -24.184,124.063 -29.195,149.773 -5.012,25.707 -8.363,30.738 -5.996,58.938 0,0 -9.711,13.555 -9.195,22.859 0.516,9.313 -0.477,15.297 -1.512,30.605 -1.129,16.609 -11.996,111.848 -10.707,131.305 1.02,15.445 41.078,5.965 41.078,5.965 0,0 12.906,-70.285 20.422,-106.016 5.555,-26.418 13.742,-62.512 16.523,-76.191 2.781,-13.672 25.57,-89.332 35.273,-89.035 z"
   id="path130" />
				<path
   style="fill:#346938"
   d="m 211.625,1146.926 c -0.039,-0.586 -0.066,-1.246 -0.086,-1.965 6.953,0.168 14.664,-12.297 20.715,-14.555 6.559,-2.445 10.578,9.793 17.309,11.629 6.734,1.832 -6.73,-23.254 -7.953,-28.766 -1.223,-5.512 11.016,-14.684 13.863,-21.418 2.855,-6.734 6.945,-22.641 6.945,-25.703 0,-3.059 -28.762,28.152 -30.164,22.645 -1.395,-5.508 25.879,-29.984 31.387,-41 5.504,-11.016 10.402,-26.312 5.805,-28.148 -4.598,-1.836 -44.973,43.445 -46.191,38.551 -1.227,-4.895 50.176,-51.406 50.176,-51.406 0,0 -11.625,-22.641 -13.465,-28.148 -1.832,-5.508 24.48,-23.254 27.539,-28.762 3.063,-5.504 -4.281,-35.492 -7.34,-56.297 -3.059,-20.805 38.965,-81.238 38.965,-81.238 2.117,0.602 1.406,20.969 2.02,24.137 l 3.773,45.168 c -9.703,-0.297 -32.492,75.363 -35.273,89.035 -2.781,13.68 -10.969,49.773 -16.523,76.191 -7.516,35.73 -20.422,106.016 -20.422,106.016 0,0 -40.06,9.479 -41.08,-5.966 z"
   id="path131" />
				<polygon
   style="fill:#385d2e"
   points="211.52,1174.234 247.645,1177.539 253.453,1148.832 211.625,1146.926 "
   id="polygon131" />
			</g>
			<path
   style="fill:#f3747b"
   d="m 446.754,643.5 c -10.734,-9.84 -25.348,-3.984 -28.934,-0.551 4.676,2.977 10.313,4.422 15.18,4.422 5.605,0 10.133,-1.586 13.754,-3.871 z"
   id="path132" />
			<path
   style="fill:#000718"
   d="m 509.996,551.586 c -2.012,-0.508 -9.668,-2.012 -9.668,-2.012 l 0.004,0.008 c -11.398,-11.789 -47.023,-5.141 -53.746,0.117 -0.469,0.367 -0.891,0.711 -1.293,1.051 -13.496,2.359 -27.305,-0.731 -27.305,-0.731 -6.723,-5.254 -42.348,-11.906 -53.738,-0.117 v -0.012 c 0,0 -7.66,1.508 -9.672,2.012 0,0 -2.008,5.141 0,8.664 l 6.57,2.734 c 0.785,6.973 2.793,20.559 6.899,25.328 4.137,4.805 34.621,9.352 45.168,0.063 6.59,-5.805 8.965,-14.742 10.004,-21.859 9.75,-14.07 18.027,-1.121 18.027,-1.121 l 0.004,-0.008 c 0.977,7.242 3.262,16.641 10.109,22.668 10.547,9.289 41.035,4.738 45.168,-0.063 4.105,-4.766 6.117,-18.352 6.902,-25.328 l 6.566,-2.738 c 2.013,-3.511 10e-4,-8.656 10e-4,-8.656 z m -99.043,35.602 c -9.379,8.258 -37.508,3.766 -41.184,-0.508 -4.992,-5.797 -5.52,-26.555 -5.52,-26.555 -0.098,-20.992 43.77,-13.621 50.918,-8.031 3.035,2.367 4.426,4.094 5.059,5.125 l 0.477,1.527 c -0.617,4.934 -0.613,20.395 -9.75,28.442 z m 83.852,-0.825 c -3.676,4.27 -31.805,8.766 -41.184,0.5 -8.336,-7.348 -9.063,-20.867 -9.59,-26.926 l 2.938,-6.086 c 0.66,-0.629 1.469,-1.324 2.441,-2.082 7.145,-5.586 51.012,-12.957 50.918,8.035 0,10e-4 -0.531,20.755 -5.523,26.559 z"
   id="path133" />
		</g>
		<path
   style="fill:#ffffff"
   d="m 351.621,558.977 c 0,0 9.398,6.457 10.879,-15.965 1.48,-22.422 -11.598,-55.992 34.766,-84.777 0,0 38.957,11.738 67.855,0 0,0 36.273,18.273 38.512,49.391 0,0 -6.137,44.207 4.961,48.5 l 6.469,-2.426 7.93,-4.34 c 0,0 0.996,-41.809 -7.93,-63.223 -11.43,-27.41 -47.074,-46.68 -82.762,-43.715 0,0 -53.746,-0.301 -74.617,35.566 -18.621,32.004 -14.238,76.121 -14.238,76.121 z"
   id="path134" />
		<path
   style="fill:#385d2e"
   d="m 385.184,703.859 c 0,0 7.527,37.18 43.547,37.914 0,0 24.273,1.238 42.188,-37.914 0,0 -5.719,-5.773 -3.422,-18.617 0,0 0.566,-7.449 -5.906,-4.359 0,0 -26.941,15.934 -67.785,0 0,0 -3.703,-3.582 -3.84,7.535 -0.111,8.559 -3.005,14.883 -4.782,15.441 z"
   id="path135" />
	</g></svg>
