<?xml version="1.0" encoding="UTF-8" standalone="no"?>
<!-- Created with Inkscape (http://www.inkscape.org/) -->

<svg
   width="20.46949mm"
   height="65.536186mm"
   viewBox="0 0 20.46949 65.536186"
   version="1.1"
   id="svg1"
   inkscape:version="1.4.2 (f4327f4, 2025-05-13)"
   sodipodi:docname="boy12.svg"
   xmlns:inkscape="http://www.inkscape.org/namespaces/inkscape"
   xmlns:sodipodi="http://sodipodi.sourceforge.net/DTD/sodipodi-0.dtd"
   xmlns="http://www.w3.org/2000/svg"
   xmlns:svg="http://www.w3.org/2000/svg">
  <sodipodi:namedview
     id="namedview1"
     pagecolor="#ffffff"
     bordercolor="#000000"
     borderopacity="0.25"
     inkscape:showpageshadow="2"
     inkscape:pageopacity="0.0"
     inkscape:pagecheckerboard="0"
     inkscape:deskcolor="#d1d1d1"
     inkscape:document-units="mm"
     inkscape:zoom="1.2275954"
     inkscape:cx="-74.943259"
     inkscape:cy="30.140224"
     inkscape:window-width="2880"
     inkscape:window-height="1676"
     inkscape:window-x="-12"
     inkscape:window-y="-12"
     inkscape:window-maximized="1"
     inkscape:current-layer="layer1" />
  <defs
     id="defs1" />
  <g
     inkscape:label="图层 1"
     inkscape:groupmode="layer"
     id="layer1"
     transform="translate(-124.77604,-140.56517)">
    <g
       id="g867"
       transform="matrix(0.26458333,0,0,0.26458333,117.12747,136.76258)">
	<g
   id="g809">
		<g
   id="g795">
			<path
   style="fill:#aa2080"
   d="m 59.292,241.885 c 0,0 0.192,-1.28 1.651,-0.876 0,0 0.58,-0.158 0.552,1.265 -0.028,1.421 0.242,4.17 0.733,7.321 0.49,3.15 2.094,9.755 -1.905,11.344 -4,1.589 -10.469,1.44 -13.792,-0.071 -3.325,-1.513 -3.101,-5.77 -1.116,-8.806 1.985,-3.035 4.065,-7.755 4.098,-8.338 0.034,-0.583 -0.233,-2.695 0.422,-2.918 0.655,-0.222 2.005,0.062 2.227,0.717 0,0 3.421,-1.888 7.13,0.362 z"
   id="path790" />

			<path
   style="fill:#bfbda6"
   d="m 61.292,252.891 c -1.731,-1.546 -4.055,-2.338 -6.354,-2.483 -4.292,-0.27 -9.208,1.406 -10.935,5.554 -0.197,2.055 0.505,3.987 2.526,4.906 3.323,1.512 9.792,1.66 13.792,0.071 2.07,-0.822 2.638,-2.99 2.637,-5.326 -0.268,-0.981 -0.747,-1.903 -1.666,-2.722 z"
   id="path791" />

			<path
   style="fill:#b0ae9a"
   d="m 61.292,252.891 c -1.731,-1.546 -4.055,-2.338 -6.354,-2.483 -4.292,-0.27 -9.208,1.406 -10.935,5.554 -0.197,2.055 0.505,3.987 2.526,4.906 3.323,1.512 9.792,1.66 13.792,0.071 2.07,-0.822 2.638,-2.99 2.637,-5.326 -0.268,-0.981 -0.747,-1.903 -1.666,-2.722 z"
   id="path792" />

			<path
   style="fill:#400406"
   d="m 62.835,254.95 c -0.071,-0.273 -0.17,-0.532 -0.282,-0.786 -0.896,-1.66 -2.739,-2.725 -4.686,-3.348 0.206,-1.415 0.105,-2.843 0.408,-4.276 0.196,-0.929 0.473,-1.822 0.776,-2.722 0.203,-0.607 0.457,-1.37 0.128,-1.971 -0.004,-0.007 -0.013,0.003 -0.011,0.007 0.333,1.64 -0.962,3.382 -1.132,5.018 -0.137,1.311 -0.109,2.618 -0.268,3.914 -1.235,-0.386 -2.503,-0.599 -3.593,-0.672 -0.999,-0.066 -2.009,0.023 -2.996,0.225 0.262,-1.361 0.562,-2.717 0.827,-4.077 0.305,-1.567 -0.778,-3.364 0.202,-4.762 0.004,-0.008 -0.005,-0.014 -0.01,-0.008 -0.833,1.074 -0.484,2.555 -0.414,3.805 0.095,1.697 -0.321,3.38 -0.634,5.047 -1.038,0.214 -2.055,0.554 -3.01,0.978 -1.821,0.809 -2.966,2.045 -3.783,3.841 -0.002,0.002 10e-4,0.002 0.003,0 0.956,-1.885 2.262,-2.896 4.203,-3.634 0.805,-0.306 1.645,-0.53 2.497,-0.679 v 0.001 c 0.225,-0.072 0.463,-0.1 0.705,-0.105 0.76,-0.094 1.525,-0.129 2.283,-0.097 1.167,0.047 2.443,0.195 3.663,0.511 -0.002,0.017 -0.006,0.033 -0.009,0.051 0.03,0.004 0.059,0.012 0.091,0.015 0.003,-0.013 0.006,-0.027 0.008,-0.042 2.316,0.618 4.408,1.865 5.124,4.268 -0.017,-0.171 -0.045,-0.339 -0.09,-0.502 z"
   id="path793" />

			<path
   style="fill:#400406"
   d="m 62.215,258.247 c -2.628,2.157 -6.344,2.693 -9.632,2.698 -1.811,0.002 -3.456,-0.195 -5.162,-0.829 -1.894,-0.702 -2.964,-1.903 -3.357,-3.89 0,0 -0.009,-10e-4 -0.008,0.005 0.231,1.508 0.851,2.894 2.288,3.604 1.726,0.854 3.455,1.229 5.373,1.293 3.513,0.119 7.839,-0.291 10.54,-2.816 0.039,-0.037 0.005,-0.105 -0.042,-0.065 z"
   id="path794" />

			<path
   style="fill:#fffad7"
   d="m 59.579,245.961 c -1.115,-1.136 -3.152,-1.146 -4.61,-0.918 -0.059,0.01 -0.12,0.022 -0.179,0.032 -1.233,-0.302 -2.515,-0.397 -3.655,0.258 -0.039,0.023 -0.092,0.094 -0.052,0.14 0.007,0.008 0.013,0.015 0.019,0.022 0.026,0.028 0.059,0.028 0.089,0.007 0.038,-0.027 0.079,-0.055 0.117,-0.082 0.005,-0.003 0.005,-0.013 -0.002,-0.014 0.628,0.106 1.305,0.01 1.969,0.044 -0.934,0.317 -1.814,0.811 -2.379,1.569 -0.024,0.032 -0.015,0.086 0.018,0.099 l -0.004,0.007 c 0.002,-0.004 -0.007,-0.006 -0.011,-0.001 -0.017,0.02 -0.036,0.04 -0.053,0.06 -0.019,0.021 -0.005,0.048 0.021,0.047 0.419,-0.03 0.87,-0.047 1.333,-0.055 -0.739,0.326 -1.362,0.787 -1.424,1.397 l -0.028,0.016 c -0.038,0.021 -0.028,0.089 0.02,0.067 0.01,-0.007 0.023,-0.01 0.034,-0.015 0.021,0.005 0.044,0.001 0.059,-0.01 0.011,-0.009 0.021,-0.016 0.032,-0.023 0.666,-0.252 1.706,-0.193 2.349,-0.178 0.181,0.005 0.357,0.023 0.535,0.048 -1.166,0.253 -3.309,0.74 -3.398,2.02 -0.009,0.117 0.146,0.066 0.172,-0.013 l 0.065,-0.111 c 0.005,-0.006 -0.002,-0.013 -0.008,-0.008 1.098,-0.69 2.808,-1.151 4.271,-1.484 0.108,-0.023 0.216,-0.035 0.325,-0.052 0.266,0.087 0.528,0.178 0.788,0.27 0.747,0.259 1.693,0.744 2.188,1.394 0.158,0.209 0.285,0.406 0.562,0.33 0.112,-0.03 0.231,-0.158 0.185,-0.285 -0.315,-0.852 -1.121,-1.396 -2.003,-1.791 0.179,0.006 0.359,0.012 0.537,0.018 0.531,0.018 0.935,0.347 1.398,0.061 0.078,-0.048 0.152,-0.156 0.125,-0.248 0.004,-0.028 -0.001,-0.057 -0.023,-0.081 -0.457,-0.53 -1.234,-0.987 -2.014,-1.297 0.657,0.078 1.311,0.197 2.006,0.303 0.014,0.009 0.027,0.016 0.041,0.025 0.145,0.096 0.379,-0.042 0.355,-0.223 -0.12,-0.915 -1.708,-1.378 -2.657,-1.661 0.438,0.041 0.869,0.109 1.266,0.212 0.512,0.133 0.882,0.498 1.422,0.509 0.2,0.002 0.349,-0.253 0.199,-0.405 z m -1.786,2.167 c -0.247,-0.021 -0.496,-0.026 -0.73,-0.041 -0.58,-0.038 -1.146,0.005 -1.709,0.086 -0.138,-0.044 -0.272,-0.087 -0.398,-0.13 -0.604,-0.2 -1.809,-0.345 -2.778,-0.192 0.083,-0.047 0.158,-0.091 0.215,-0.118 0.545,-0.269 1.124,-0.411 1.714,-0.495 1.294,0.109 2.596,0.367 3.686,0.89 z m -3.335,-1.564 c -0.136,0.014 -0.305,0.041 -0.493,0.077 -0.251,-0.016 -0.503,-0.027 -0.756,-0.034 -0.276,-0.006 -1.551,0.04 -2.076,0.299 0.252,-0.161 1.235,-0.491 1.48,-0.583 0.69,-0.259 1.38,-0.458 2.099,-0.593 0.323,0.102 0.644,0.221 0.958,0.345 0.283,0.111 0.566,0.215 0.849,0.318 -0.716,0.006 -1.437,0.101 -2.061,0.171 z"
   id="path795" />

		</g>

		<g
   id="g801">
			<path
   style="fill:#aa2080"
   d="m 71.817,241.885 c 0,0 -0.192,-1.28 -1.652,-0.876 0,0 -0.58,-0.158 -0.553,1.265 0.029,1.421 -0.24,4.17 -0.731,7.321 -0.491,3.15 -2.095,9.755 1.904,11.344 4,1.589 10.469,1.44 13.793,-0.071 3.325,-1.513 3.101,-5.77 1.115,-8.806 -1.985,-3.035 -4.065,-7.755 -4.098,-8.338 -0.034,-0.583 0.233,-2.695 -0.422,-2.918 -0.655,-0.222 -2.005,0.062 -2.227,0.717 0.001,0 -3.422,-1.888 -7.129,0.362 z"
   id="path796" />

			<path
   style="fill:#bfbda6"
   d="m 69.815,252.891 c 1.731,-1.546 4.055,-2.338 6.354,-2.483 4.291,-0.27 9.208,1.406 10.934,5.554 0.197,2.055 -0.505,3.987 -2.525,4.906 -3.324,1.512 -9.793,1.66 -13.793,0.071 -2.07,-0.822 -2.638,-2.99 -2.636,-5.326 0.269,-0.981 0.747,-1.903 1.666,-2.722 z"
   id="path797" />

			<path
   style="fill:#b0ae9a"
   d="m 68.149,255.612 c -0.002,2.336 0.565,4.504 2.636,5.326 4,1.589 10.469,1.44 13.793,-0.071 2.021,-0.919 2.723,-2.852 2.525,-4.906 -1.726,-4.147 -6.643,-5.824 -10.934,-5.554 -2.3,0.146 -4.623,0.938 -6.354,2.483 -0.919,0.82 -1.397,1.742 -1.666,2.722 z"
   id="path798" />

			<path
   style="fill:#400406"
   d="m 68.271,254.95 c 0.072,-0.273 0.171,-0.532 0.283,-0.786 0.896,-1.66 2.739,-2.725 4.687,-3.348 -0.206,-1.415 -0.106,-2.843 -0.409,-4.276 -0.195,-0.929 -0.472,-1.822 -0.775,-2.722 -0.204,-0.607 -0.458,-1.37 -0.129,-1.971 0.004,-0.007 0.013,0.003 0.012,0.007 -0.333,1.64 0.961,3.382 1.131,5.018 0.137,1.311 0.11,2.618 0.268,3.914 1.235,-0.386 2.504,-0.599 3.593,-0.672 1,-0.066 2.009,0.023 2.996,0.225 -0.262,-1.361 -0.562,-2.717 -0.827,-4.077 -0.305,-1.567 0.779,-3.364 -0.202,-4.762 -0.004,-0.008 0.005,-0.014 0.01,-0.008 0.833,1.074 0.485,2.555 0.415,3.805 -0.095,1.697 0.32,3.38 0.633,5.047 1.039,0.214 2.056,0.554 3.011,0.978 1.82,0.809 2.966,2.045 3.782,3.841 0.003,0.002 -0.001,0.002 -0.002,0 -0.956,-1.885 -2.262,-2.896 -4.204,-3.634 -0.804,-0.306 -1.644,-0.53 -2.497,-0.679 v 0.001 c -0.225,-0.072 -0.463,-0.1 -0.704,-0.105 -0.76,-0.094 -1.526,-0.129 -2.284,-0.097 -1.167,0.047 -2.442,0.195 -3.663,0.511 0.003,0.017 0.007,0.033 0.009,0.051 -0.029,0.004 -0.06,0.012 -0.09,0.015 -0.004,-0.013 -0.006,-0.027 -0.009,-0.042 -2.315,0.618 -4.408,1.865 -5.124,4.268 0.017,-0.171 0.045,-0.339 0.089,-0.502 z"
   id="path799" />

			<path
   style="fill:#400406"
   d="m 68.892,258.247 c 2.628,2.157 6.345,2.693 9.633,2.698 1.81,0.002 3.455,-0.195 5.162,-0.829 1.894,-0.702 2.963,-1.903 3.357,-3.89 l 0.008,0.005 c -0.23,1.508 -0.85,2.894 -2.287,3.604 -1.727,0.854 -3.456,1.229 -5.373,1.293 -3.513,0.119 -7.84,-0.291 -10.541,-2.816 -0.04,-0.037 -0.007,-0.105 0.041,-0.065 z"
   id="path800" />

			<path
   style="fill:#fffad7"
   d="m 71.729,246.364 c 0.54,-0.011 0.91,-0.376 1.423,-0.509 0.396,-0.103 0.827,-0.171 1.266,-0.212 -0.95,0.283 -2.538,0.746 -2.657,1.661 -0.023,0.181 0.211,0.318 0.354,0.223 0.014,-0.01 0.027,-0.017 0.041,-0.025 0.696,-0.105 1.349,-0.225 2.006,-0.303 -0.779,0.31 -1.557,0.767 -2.014,1.297 -0.021,0.024 -0.026,0.053 -0.023,0.081 -0.026,0.092 0.047,0.2 0.125,0.248 0.464,0.286 0.867,-0.043 1.399,-0.061 0.178,-0.006 0.357,-0.012 0.536,-0.018 -0.882,0.395 -1.688,0.939 -2.002,1.791 -0.047,0.127 0.071,0.255 0.184,0.285 0.276,0.076 0.403,-0.121 0.562,-0.33 0.495,-0.649 1.441,-1.135 2.188,-1.394 0.261,-0.092 0.523,-0.183 0.788,-0.27 0.11,0.017 0.218,0.028 0.326,0.052 1.462,0.333 3.172,0.794 4.269,1.484 -0.006,-0.005 -0.012,0.002 -0.007,0.008 l 0.065,0.111 c 0.024,0.078 0.18,0.13 0.171,0.013 -0.089,-1.279 -2.231,-1.767 -3.397,-2.02 0.178,-0.024 0.355,-0.043 0.535,-0.048 0.644,-0.016 1.684,-0.074 2.35,0.178 0.011,0.008 0.021,0.015 0.032,0.023 0.015,0.011 0.038,0.015 0.058,0.01 0.011,0.005 0.024,0.008 0.034,0.015 0.049,0.021 0.059,-0.046 0.021,-0.067 l -0.028,-0.016 c -0.063,-0.61 -0.685,-1.071 -1.424,-1.397 0.462,0.008 0.914,0.024 1.332,0.055 0.027,10e-4 0.041,-0.026 0.022,-0.047 -0.018,-0.02 -0.036,-0.04 -0.054,-0.06 -0.003,-0.005 -0.012,-0.003 -0.011,0.004 l -0.004,-0.01 c 0.032,-0.013 0.042,-0.066 0.018,-0.099 -0.563,-0.759 -1.444,-1.252 -2.379,-1.569 0.664,-0.034 1.341,0.063 1.97,-0.044 -0.008,0.001 -0.008,0.011 -0.003,0.014 0.038,0.027 0.079,0.055 0.117,0.082 0.031,0.021 0.063,0.021 0.089,-0.007 0.006,-0.008 0.013,-0.015 0.019,-0.022 0.041,-0.046 -0.013,-0.116 -0.052,-0.14 -1.14,-0.655 -2.422,-0.56 -3.654,-0.258 -0.06,-0.01 -0.121,-0.022 -0.179,-0.032 -1.459,-0.229 -3.496,-0.218 -4.611,0.918 -0.152,0.154 -0.002,0.409 0.199,0.405 z m 5.273,0.873 c 0.59,0.084 1.168,0.227 1.714,0.495 0.057,0.027 0.132,0.071 0.214,0.118 -0.97,-0.152 -2.175,-0.008 -2.778,0.192 -0.126,0.043 -0.26,0.086 -0.398,0.13 -0.563,-0.081 -1.129,-0.124 -1.709,-0.086 -0.234,0.015 -0.483,0.02 -0.73,0.041 1.09,-0.522 2.391,-0.78 3.687,-0.89 z m -2.414,-0.843 c 0.283,-0.104 0.565,-0.207 0.85,-0.318 0.314,-0.124 0.634,-0.243 0.957,-0.345 0.72,0.135 1.409,0.334 2.099,0.593 0.246,0.092 1.229,0.422 1.48,0.583 -0.525,-0.259 -1.8,-0.305 -2.076,-0.299 -0.253,0.007 -0.505,0.019 -0.755,0.034 -0.189,-0.036 -0.358,-0.064 -0.494,-0.077 -0.623,-0.071 -1.345,-0.166 -2.061,-0.171 z"
   id="path801" />

		</g>

		<g
   id="g802">
			<path
   style="fill:#b17b87"
   d="m 64.081,141.94 c 0,0 1.282,0 3.26,0 6.713,0 19.79,0 19.801,0 0,0.839 -4.298,47.073 -4.581,51.589 -0.953,15.213 -4.023,46.87 -4.105,48.206 0,0 -1.712,0.708 -5.476,0 l -3.053,-47.784 -3.106,-36.587 c 0,0 -0.586,-1.01 -1.109,-1.053 -0.524,0.043 -0.995,1.158 -0.995,1.158 l -3.633,36.588 -2.382,47.704 c -4.614,0.855 -6.041,-0.026 -6.041,-0.026 -0.084,-1.336 -2.071,-29.132 -3.001,-48.613 -1.179,-24.746 -5.304,-50.712 -5.304,-51.182 0.011,0 13.011,0 19.725,0 z"
   id="path802" />

		</g>

		<g
   id="g803">
			<path
   style="fill:#463a2c"
   d="m 64.081,141.94 c 0,0 1.282,0 3.26,0 6.713,0 19.79,0 19.801,0 0,0.839 -1.581,45.633 -1.864,50.148 -0.953,15.213 -1.889,30.425 -2.834,45.638 -0.082,1.336 -0.165,2.673 -0.248,4.009 0,0 -4.404,2.192 -13.041,0 L 66.68,157.951 c 0,0 -0.445,-1.002 -0.969,-1.045 -0.524,0.043 -0.97,1.112 -0.97,1.112 l -2.474,83.717 c -8.638,2.192 -13.041,0 -13.041,0 -0.084,-1.336 -0.167,-2.673 -0.249,-4.009 -0.945,-15.213 -4.622,-94.947 -4.622,-95.786 0.012,0 13.012,0 19.726,0 z"
   id="path803" />

		</g>

		<g
   id="g805">
			<path
   style="fill:#3b3024"
   d="m 69.939,199.53 c 4.958,-0.146 9.923,-0.23 14.879,-0.054 -0.794,12.75 -1.583,25.499 -2.375,38.25 -0.082,1.336 -0.165,2.673 -0.248,4.009 0,0 -4.404,2.192 -13.041,0 l -1.245,-42.153 c 0.676,-0.019 1.352,-0.031 2.03,-0.052 z"
   id="path804" />

			<path
   style="fill:#3b3024"
   d="m 50.472,199.956 c 4.347,-0.07 8.692,-0.16 13.037,-0.264 l -1.242,42.043 c -8.638,2.192 -13.041,0 -13.041,0 -0.084,-1.336 -0.167,-2.673 -0.249,-4.009 -0.361,-5.813 -1.122,-21.051 -1.923,-37.705 1.14,-0.024 2.279,-0.046 3.418,-0.065 z"
   id="path805" />

		</g>

		<g
   id="g806">
			<polygon
   style="fill:#514434"
   points="79.238,186.384 79.519,201.966 84.662,204.477 85.598,186.269 "
   id="polygon805" />

			<polygon
   style="fill:#594a39"
   points="79.238,186.384 79.3,189.881 85.468,190.354 85.598,186.269 "
   id="polygon806" />

		</g>

		<g
   id="g808">
			<polygon
   style="fill:#514434"
   points="52.75,186.384 52.468,201.966 47.326,204.477 46.389,186.269 "
   id="polygon807" />

			<polygon
   style="fill:#594a39"
   points="52.75,186.384 52.687,189.881 46.519,190.354 46.389,186.269 "
   id="polygon808" />

		</g>

	</g>

	<g
   id="g835">
		<g
   id="g816">
			<g
   id="g812">
				<path
   style="fill:#a87752"
   d="m 35.489,151.925 c 3.117,0.235 3.96,5.048 4.646,7.403 0.541,1.847 0.881,3.021 1.396,5.753 0.14,0.746 0.477,2.596 -0.372,3.07 -1.09,0.608 -1.681,-1.923 -1.915,-2.567 -0.132,-0.362 -1.072,-3.385 -1.451,-1.926 -0.313,1.206 -0.069,1.682 0.172,2.885 0.38,1.91 2.358,5.057 1.559,6.411 -0.8,1.354 -2.045,-0.658 -2.045,-0.658 0,0 0.146,0.331 -0.578,0.534 -0.724,0.204 -1.708,-0.834 -1.732,-0.853 -0.021,-0.02 0.014,0.379 -0.568,0.166 -0.582,-0.215 -1.509,-1.114 -1.823,-1.419 0,0 -0.72,-0.112 -1.417,-1.003 -0.697,-0.892 -3.749,-7.807 0.167,-16.266 0.566,-1.222 1.641,-1.123 2.868,-1.431 0.385,-0.095 0.75,-0.126 1.093,-0.099 z"
   id="path809" />

				<path
   style="fill:#915f2d"
   d="m 35.931,168.564 c -0.632,-1.76 -1.003,-3.628 -1.324,-5.459 -0.002,-0.013 -0.018,-0.006 -0.017,0.004 0.241,1.889 0.579,3.727 1.168,5.55 0.407,1.259 1.06,2.996 1.961,4 0.021,0.023 0.054,-0.011 0.04,-0.034 -0.762,-1.219 -1.345,-2.717 -1.828,-4.061 z"
   id="path810" />

				<path
   style="fill:#915f2d"
   d="m 33.303,168.073 c -0.556,-1.481 -0.638,-3.063 -1.039,-4.574 -0.003,-0.008 -0.015,-0.001 -0.014,0.006 0.313,1.702 0.463,3.355 1.082,5.003 0.463,1.23 1.034,2.882 2.127,3.737 0.01,0.008 0.022,-0.011 0.014,-0.019 -1.125,-1.008 -1.66,-2.796 -2.17,-4.153 z"
   id="path811" />

				<path
   style="fill:#915f2d"
   d="m 30.673,164.496 c -0.002,-0.013 -0.017,-0.006 -0.016,0.004 0.107,1.248 0.373,2.526 0.796,3.711 0.403,1.127 1.068,2.56 2.074,3.287 0.015,0.011 0.042,-0.018 0.026,-0.031 -1.815,-1.712 -2.567,-4.61 -2.88,-6.971 z"
   id="path812" />

			</g>

			<g
   id="g815">
				<path
   style="fill:#936a48"
   d="m 40.559,124.363 3.521,-18.148 c 0.013,-2.082 0.021,-16.498 -0.003,-22.259 0,0 -7.656,0.471 -8.971,5.211 l -4.781,32.906 c 0.928,4.34 8.609,5.535 10.234,2.29 z"
   id="path813" />

				<path
   style="fill:#a87752"
   d="m 30.285,122.073 c 0,1.837 -0.006,9.517 0,11.167 0.018,4.367 0.428,10.11 0.937,14.447 0.538,4.567 1.029,7.472 1.567,8.026 l 3,-0.114 c 1.938,-0.016 0.768,-4.554 4.672,-28.732 l 0.394,-3.56 c -1.212,-3.682 -9.089,-5.562 -10.57,-1.234 z"
   id="path814" />

				<path
   style="fill:#5c2d8d"
   d="m 41.273,113.727 c 0.257,0.041 1.383,0.082 1.643,0.123 l 1.164,-5.305 c 0.013,-1.825 0.002,-22.878 -0.003,-24.589 0,0 -7.752,0.143 -9.067,4.523 l -6.101,22.285 c 3.081,1.196 9.001,2.431 12.364,2.963 z"
   id="path815" />

			</g>

		</g>

		<g
   id="g823">
			<g
   id="g818">
				<path
   style="fill:#936a48"
   d="m 90.146,124.363 -3.522,-17.621 c -0.013,-2.082 -0.019,-17.025 0.005,-22.786 0,0 7.654,0.471 8.971,5.211 l 4.781,32.906 c -0.93,4.34 -8.611,5.535 -10.235,2.29 z"
   id="path816" />

				<path
   style="fill:#a87752"
   d="m 100.419,122.073 c 0,1.837 0.006,9.517 0,11.167 -0.019,4.367 -0.427,10.11 -0.937,14.447 -0.538,4.567 -1.029,7.472 -1.567,8.026 l -3,-0.114 c -1.938,-0.016 -0.768,-4.554 -4.671,-28.732 l -0.394,-3.56 c 1.212,-3.682 9.089,-5.562 10.569,-1.234 z"
   id="path817" />

				<path
   style="fill:#5c2d8d"
   d="m 89.432,113.727 c -0.256,0.041 -1.384,0.082 -1.644,0.123 l -1.164,-5.305 c -0.013,-1.825 -10e-4,-22.878 0.005,-24.589 0,0 7.75,0.143 9.065,4.523 l 6.102,22.285 c -3.082,1.196 -9.002,2.431 -12.364,2.963 z"
   id="path818" />

			</g>

			<g
   id="g822">
				<path
   style="fill:#a87752"
   d="m 95.442,151.925 c -3.115,0.235 -3.959,5.048 -4.646,7.403 -0.54,1.847 -0.881,3.021 -1.394,5.753 -0.141,0.746 -0.478,2.596 0.371,3.07 1.091,0.608 1.682,-1.923 1.916,-2.567 0.131,-0.362 1.071,-3.385 1.45,-1.926 0.313,1.206 0.068,1.682 -0.172,2.885 -0.38,1.91 -2.359,5.057 -1.56,6.411 0.8,1.354 2.044,-0.658 2.044,-0.658 0,0 -0.146,0.331 0.579,0.534 0.725,0.204 1.709,-0.834 1.73,-0.853 0.023,-0.02 -0.013,0.379 0.569,0.166 0.582,-0.215 1.509,-1.114 1.823,-1.419 0,0 0.72,-0.112 1.417,-1.003 0.696,-0.892 3.75,-7.807 -0.167,-16.266 -0.565,-1.222 -1.641,-1.123 -2.868,-1.431 -0.384,-0.095 -0.749,-0.126 -1.092,-0.099 z"
   id="path819" />

				<path
   style="fill:#915f2d"
   d="m 95.001,168.564 c 0.632,-1.76 1.004,-3.628 1.325,-5.459 0.001,-0.013 0.018,-0.006 0.016,0.004 -0.239,1.889 -0.578,3.727 -1.167,5.55 -0.406,1.259 -1.06,2.996 -1.962,4 -0.021,0.023 -0.053,-0.011 -0.039,-0.034 0.76,-1.219 1.344,-2.717 1.827,-4.061 z"
   id="path820" />

				<path
   style="fill:#915f2d"
   d="m 97.628,168.073 c 0.556,-1.481 0.638,-3.063 1.039,-4.574 0.002,-0.008 0.015,-0.001 0.014,0.006 -0.313,1.702 -0.463,3.355 -1.082,5.003 -0.463,1.23 -1.033,2.882 -2.127,3.737 -0.011,0.008 -0.022,-0.011 -0.014,-0.019 1.126,-1.008 1.662,-2.796 2.17,-4.153 z"
   id="path821" />

				<path
   style="fill:#915f2d"
   d="m 100.257,164.496 c 0.002,-0.013 0.019,-0.006 0.018,0.004 -0.107,1.248 -0.374,2.526 -0.797,3.711 -0.403,1.127 -1.068,2.56 -2.074,3.287 -0.016,0.011 -0.042,-0.018 -0.027,-0.031 1.817,-1.712 2.569,-4.61 2.88,-6.971 z"
   id="path822" />

			</g>

		</g>

		<path
   style="fill:#fff200"
   d="m 44.027,124.183 c 0,0 -0.718,-36.699 -0.267,-40.227 L 65.203,79 86.644,83.956 c 0.449,3.527 -0.267,40.227 -0.267,40.227 0,1.459 1.223,15.997 0.239,18.003 -0.005,0.014 -0.01,0.026 -0.018,0.04 -0.007,0.015 -0.017,0.023 -0.024,0.037 -0.019,0.025 -0.036,0.052 -0.062,0.077 -0.017,0.017 -0.033,0.032 -0.05,0.043 -1.265,1.083 -9.483,1.93 -19.608,1.983 v 10e-4 c -0.081,0.001 -1.307,0.002 -1.651,0.002 -0.347,0 -1.572,-0.001 -1.653,-0.002 v -10e-4 c -10.125,-0.054 -18.344,-0.9 -19.608,-1.983 -0.017,-0.011 -0.033,-0.026 -0.05,-0.043 -0.025,-0.025 -0.043,-0.052 -0.062,-0.077 -0.008,-0.014 -0.018,-0.022 -0.024,-0.037 -0.008,-0.014 -0.013,-0.026 -0.018,-0.04 -0.984,-2.006 0.239,-16.544 0.239,-18.003 z"
   id="path823" />

		<path
   style="fill:#f4bd2d"
   d="m 43.857,114.509 h 42.689 c -0.089,5.581 -0.169,9.674 -0.169,9.674 0,1.459 1.223,15.997 0.239,18.003 -0.005,0.014 -0.01,0.026 -0.018,0.04 -0.007,0.015 -0.017,0.023 -0.024,0.037 -0.019,0.025 -0.036,0.052 -0.062,0.077 -0.017,0.017 -0.033,0.032 -0.05,0.043 -1.265,1.083 -9.483,1.93 -19.608,1.983 v 10e-4 c -0.081,0.001 -1.307,0.002 -1.651,0.002 -0.347,0 -1.572,-0.001 -1.653,-0.002 v -10e-4 c -10.125,-0.054 -18.344,-0.9 -19.608,-1.983 -0.017,-0.011 -0.033,-0.026 -0.05,-0.043 -0.025,-0.025 -0.043,-0.052 -0.062,-0.077 -0.008,-0.014 -0.018,-0.022 -0.024,-0.037 -0.008,-0.014 -0.013,-0.026 -0.018,-0.04 -0.983,-2.006 0.239,-16.544 0.239,-18.003 0,0 -0.08,-4.093 -0.17,-9.674 z"
   id="path824" />

		<g
   id="g826">
			<path
   style="fill:#f8dd22"
   d="m 43.175,112.662 -0.26,1.188 c -0.26,-0.041 -1.386,-0.082 -1.643,-0.123 -3.363,-0.531 -9.283,-1.767 -12.364,-2.962 l 0.354,-1.296 c 6.098,2.135 11.763,2.944 13.913,3.193 z"
   id="path825" />

			<path
   style="fill:#f8dd22"
   d="m 101.796,110.765 c -3.082,1.195 -9.002,2.431 -12.364,2.962 -0.256,0.041 -1.384,0.082 -1.644,0.123 l -0.282,-1.286 c 2.674,-0.351 8.136,-1.264 13.861,-3.36 z"
   id="path826" />

		</g>

		<g
   id="g831">
			<rect
   x="31.084"
   y="149.58099"
   style="fill:#4d4d4c"
   width="6.6760001"
   height="2.983"
   id="rect826" />

			<rect
   x="31.084"
   y="149.58099"
   style="fill:#3b3b3a"
   width="4.9499998"
   height="2.983"
   id="rect827" />

			<g
   id="g828">
				<path
   style="fill:#242422"
   d="m 34.434,150.776 c -0.077,-1.34 -0.822,-2.407 -1.729,-2.566 0.036,-0.005 0.069,-0.019 0.104,-0.021 1.04,-0.06 1.953,1.099 2.04,2.588 0.086,1.488 -0.686,2.744 -1.726,2.804 -0.104,0.006 -0.207,-0.003 -0.309,-0.021 0.983,-0.138 1.704,-1.348 1.62,-2.784 z"
   id="path827" />

				<path
   style="fill:#666564"
   d="m 31.084,150.993 c -0.084,-1.437 0.637,-2.645 1.621,-2.783 0.906,0.159 1.651,1.226 1.729,2.566 0.084,1.436 -0.637,2.646 -1.62,2.782 -0.905,-0.158 -1.651,-1.226 -1.73,-2.565 z"
   id="path828" />

			</g>

			<path
   style="fill:#242422"
   d="m 32.314,150.979 c 0,0.053 0.041,0.095 0.094,0.095 h 1.552 c 0.052,0 0.094,-0.042 0.094,-0.095 v 0 c 0,-0.052 -0.042,-0.095 -0.094,-0.095 h -1.552 c -0.053,0 -0.094,0.043 -0.094,0.095 z"
   id="path829" />

			<path
   style="fill:#242422"
   d="m 32.387,151.073 c 0.042,0 0.074,-0.034 0.074,-0.075 v -1.229 c 0,-0.041 -0.032,-0.074 -0.074,-0.074 v 0 c -0.04,0 -0.073,0.033 -0.073,0.074 v 1.229 c 0,0.041 0.033,0.075 0.073,0.075 z"
   id="path830" />

			<path
   style="fill:#797876"
   d="m 31.084,150.993 c 0.078,1.339 0.824,2.407 1.729,2.565 0.983,-0.137 1.704,-1.347 1.62,-2.782 -0.077,-1.34 -0.822,-2.407 -1.729,-2.566 -0.983,0.138 -1.704,1.347 -1.62,2.783 z m 0.388,-0.106 c -0.065,-1.106 0.489,-2.036 1.245,-2.143 0.698,0.123 1.271,0.945 1.331,1.974 0.063,1.106 -0.491,2.037 -1.246,2.142 -0.698,-0.123 -1.27,-0.943 -1.33,-1.973 z"
   id="path831" />

		</g>

		<g
   id="g832">
			<path
   style="fill:#5c2d8d"
   d="m 80.342,82.5 c 0,1.27 -11.139,9.452 -15.203,9.452 -4.063,0 -15.163,-8.163 -15.163,-9.433 0,0 5.633,-4.49 15.183,-4.467 10.347,0.025 15.183,4.448 15.183,4.448 z"
   id="path832" />

		</g>

		<path
   style="fill:#936a48"
   d="m 59.531,83.788 c 0,1.184 2.835,6.744 5.67,6.744 2.836,0 5.672,-5.561 5.672,-6.744 V 73.206 c 0,-2.368 -1.92,-4.288 -4.287,-4.288 h -2.769 c -2.368,0 -4.286,1.92 -4.286,4.288 z"
   id="path833" />

		<path
   style="fill:#5c2d8d"
   d="m 69.664,117.563 c 0.175,0 0.315,-0.141 0.315,-0.315 0,-0.752 -0.039,-18.5 -3.501,-26.183 -0.071,-0.159 -0.258,-0.23 -0.418,-0.158 -0.159,0.071 -0.229,0.259 -0.158,0.417 3.406,7.56 3.446,25.741 3.446,25.924 0,0.174 0.142,0.315 0.316,0.315 z"
   id="path834" />

		<path
   style="fill:#5c2d8d"
   d="m 61.667,117.563 c 0.174,0 0.315,-0.141 0.315,-0.315 0,-0.183 0.04,-18.364 3.446,-25.924 0.071,-0.158 0.001,-0.346 -0.158,-0.417 -0.159,-0.074 -0.347,-0.002 -0.418,0.158 -3.462,7.683 -3.502,25.431 -3.502,26.183 0,0.174 0.141,0.315 0.317,0.315 z"
   id="path835" />

	</g>

	<g
   id="g866">
		<g
   id="g863">
			<path
   style="fill:#926b49"
   d="m 89.236,58.86 c 0,0 0.869,-2.182 2.688,-2.438 1.82,-0.255 3.942,1.806 3.063,5.128 -0.878,3.323 -4.595,5.596 -6.91,4.21 0,0 0.376,-3.537 0.666,-4.646 0.29,-1.108 0.493,-2.254 0.493,-2.254 z"
   id="path836" />

			<path
   style="fill:#926b49"
   d="m 92.643,60.363 c 0,0 -0.36,-0.002 -0.854,0.124 -0.245,0.068 -0.527,0.154 -0.802,0.302 -0.145,0.059 -0.273,0.16 -0.416,0.238 -0.134,0.095 -0.269,0.191 -0.394,0.299 -0.121,0.115 -0.258,0.211 -0.362,0.34 -0.104,0.129 -0.233,0.231 -0.322,0.363 -0.098,0.126 -0.193,0.247 -0.282,0.363 -0.08,0.123 -0.157,0.238 -0.232,0.346 -0.152,0.211 -0.245,0.409 -0.334,0.536 -0.084,0.131 -0.132,0.205 -0.132,0.205 0,0 0.021,-0.086 0.058,-0.235 0.046,-0.148 0.085,-0.374 0.2,-0.616 0.052,-0.124 0.109,-0.258 0.178,-0.397 0.075,-0.135 0.162,-0.274 0.253,-0.419 0.087,-0.146 0.208,-0.277 0.322,-0.415 0.111,-0.142 0.259,-0.256 0.388,-0.387 0.144,-0.115 0.298,-0.221 0.448,-0.318 0.161,-0.088 0.317,-0.177 0.481,-0.234 0.157,-0.069 0.321,-0.108 0.474,-0.145 0.155,-0.034 0.303,-0.051 0.439,-0.059 0.549,-0.033 0.889,0.109 0.889,0.109 z"
   id="path837" />

			<path
   style="fill:#a87752"
   d="m 90.776,51.412 c 0,0 -1.959,1.382 -3.171,1.553 0,0 4.519,-4.978 1.419,-12.234 0,0 -0.964,2.666 -0.17,5.479 0,0 -5.602,-3.142 -5.217,-9.582 0,0 -1.422,3.312 -4.592,3.358 0,0 1.036,-1.333 1.393,-3.055 0,0 -7.03,7.381 -15.843,1.949 0,0 6.32,-0.823 7.881,-4.429 0,0 -4.063,4.611 -11.264,2.271 0,0 3.313,-0.809 5.172,-2.979 0,0 -9.496,5.384 -15.914,2.563 0,0 -3.979,2.548 -7.026,1.987 0,0 3.11,9.111 1.983,13.166 0,0 -0.334,4.665 -1.584,7.979 -1.249,3.313 -2.62,7.097 0.748,11.154 3.368,4.057 12.473,9.057 18.876,9.315 6.403,0.258 22.969,-5.997 24.438,-13.291 1.184,-5.878 1.248,-6.761 1.229,-6.882 L 89.12,59.721 c 10e-4,0.003 0.379,-5.5 1.656,-8.309 z"
   id="path838" />

			<path
   style="fill:#926b49"
   d="m 45.378,52.01 c 0,0 -1.094,-1.736 -3.462,-0.559 -2.367,1.179 -2.646,5.815 -1.417,7.307 1.228,1.492 2.829,2.09 2.829,2.09 0,0 1.482,-2.834 2.05,-8.838 z"
   id="path839" />

			<path
   style="fill:#926b49"
   d="m 61.693,57.097 c 0,0 -0.152,0.093 -0.42,0.253 -0.267,0.161 -0.635,0.408 -1.066,0.714 -0.427,0.306 -0.916,0.695 -1.313,1.189 -0.192,0.244 -0.355,0.532 -0.372,0.813 -0.021,0.281 0.133,0.544 0.381,0.748 0.263,0.217 0.538,0.392 0.847,0.53 0.305,0.134 0.62,0.239 0.934,0.309 0.629,0.139 1.243,0.183 1.771,0.166 0.525,-0.021 0.968,-0.056 1.273,-0.106 0.308,-0.044 0.483,-0.078 0.483,-0.078 0,0 -0.164,0.07 -0.465,0.157 -0.303,0.084 -0.736,0.204 -1.276,0.26 -0.537,0.056 -1.18,0.087 -1.857,-0.038 -0.34,-0.063 -0.688,-0.156 -1.023,-0.305 -0.333,-0.143 -0.67,-0.344 -0.952,-0.583 -0.297,-0.24 -0.554,-0.655 -0.511,-1.088 0.04,-0.423 0.27,-0.747 0.491,-1.015 0.228,-0.27 0.489,-0.478 0.738,-0.667 0.25,-0.186 0.496,-0.345 0.727,-0.484 0.462,-0.278 0.872,-0.461 1.154,-0.593 0.285,-0.123 0.456,-0.182 0.456,-0.182 z"
   id="path840" />

			<g
   id="g842">
				<path
   style="fill:#926b49"
   d="m 55.733,66.931 c 0,0 -0.053,0.065 -0.135,0.199 -0.082,0.136 -0.191,0.341 -0.285,0.616 -0.089,0.271 -0.153,0.641 -0.002,0.999 0.145,0.359 0.52,0.638 0.974,0.812 0.217,0.106 0.481,0.146 0.73,0.218 0.268,0.046 0.547,0.108 0.83,0.146 0.565,0.086 1.171,0.16 1.797,0.21 0.313,0.03 0.63,0.049 0.953,0.059 0.322,0.02 0.648,0.023 0.978,0.02 0.329,0.006 0.663,-0.006 0.997,-0.024 0.33,-0.012 0.665,-0.033 0.998,-0.072 0.667,-0.048 1.328,-0.146 1.976,-0.26 0.322,-0.064 0.642,-0.132 0.957,-0.195 0.311,-0.084 0.619,-0.17 0.921,-0.25 0.306,-0.075 0.587,-0.199 0.878,-0.286 0.286,-0.092 0.567,-0.185 0.828,-0.304 0.267,-0.11 0.524,-0.219 0.774,-0.321 0.246,-0.112 0.476,-0.239 0.7,-0.353 0.454,-0.219 0.847,-0.459 1.197,-0.673 0.174,-0.106 0.338,-0.206 0.49,-0.298 0.145,-0.103 0.275,-0.199 0.395,-0.285 0.481,-0.343 0.757,-0.54 0.757,-0.54 0,0 -0.258,0.219 -0.708,0.604 -0.114,0.094 -0.238,0.199 -0.376,0.313 -0.146,0.104 -0.306,0.214 -0.474,0.333 -0.17,0.119 -0.352,0.245 -0.54,0.378 -0.189,0.135 -0.411,0.24 -0.63,0.371 -0.224,0.122 -0.45,0.261 -0.696,0.387 -0.249,0.115 -0.506,0.235 -0.771,0.36 -0.263,0.132 -0.544,0.237 -0.832,0.345 -0.289,0.104 -0.58,0.228 -0.889,0.311 -0.308,0.088 -0.619,0.177 -0.937,0.267 -0.319,0.071 -0.645,0.143 -0.973,0.215 -0.66,0.124 -1.333,0.236 -2.012,0.291 -0.339,0.034 -0.68,0.053 -1.019,0.059 -0.339,0.016 -0.679,0.022 -1.014,0.012 -0.336,-0.001 -0.667,-0.009 -0.994,-0.031 -0.328,-0.018 -0.651,-0.039 -0.968,-0.075 -0.636,-0.052 -1.244,-0.159 -1.82,-0.271 -0.291,-0.053 -0.56,-0.123 -0.828,-0.182 -0.271,-0.088 -0.531,-0.141 -0.77,-0.263 -0.476,-0.201 -0.888,-0.547 -1.023,-0.972 -0.142,-0.422 -0.04,-0.809 0.07,-1.08 0.112,-0.278 0.25,-0.473 0.341,-0.601 0.097,-0.129 0.155,-0.189 0.155,-0.189 z"
   id="path841" />

				<path
   style="fill:#926b49"
   d="m 71.421,66.46 c 0,0 0.156,-0.104 0.415,-0.181 0.129,-0.04 0.281,-0.078 0.448,-0.097 0.167,-0.024 0.349,-0.022 0.534,-0.009 0.184,0.022 0.371,0.06 0.54,0.145 0.084,0.04 0.163,0.086 0.229,0.152 0.07,0.052 0.118,0.129 0.155,0.197 0.048,0.063 0.046,0.145 0.06,0.201 0.017,0.061 0,0.112 -0.008,0.152 -0.016,0.084 -0.032,0.124 -0.032,0.124 0,0 -0.018,-0.04 -0.05,-0.114 C 73.699,66.996 73.687,66.955 73.653,66.919 73.618,66.885 73.601,66.836 73.551,66.81 73.47,66.74 73.359,66.693 73.224,66.658 73.161,66.633 73.081,66.633 73.011,66.61 72.933,66.6 72.857,66.588 72.777,66.582 72.617,66.564 72.453,66.556 72.296,66.545 72.137,66.533 71.989,66.523 71.862,66.513 71.605,66.492 71.421,66.46 71.421,66.46 Z"
   id="path842" />

			</g>

			<path
   style="fill:#a3472a"
   d="m 106.273,37.974 c 0,0 -2.968,1.144 -4.758,-0.413 0,0 1.757,-0.246 3.019,-2.175 0,0 -3.166,0.152 -5.018,-3.557 -1.853,-3.708 -5.911,-8.676 -9.719,-8.357 0,0 1.307,-1.715 3.625,-1.723 0,0 -7.074,-5.489 -13.268,-1.607 0,0 1.53,-4.251 1.211,-4.771 -0.321,-0.521 -3.906,4.147 -3.906,4.147 0,0 -0.197,-4.554 -6.493,-5.146 0,0 3.203,2.791 3.183,4.762 0,0 -4.275,-3.988 -13.067,-3.35 -2.721,0.199 -5.392,0.837 -7.838,2.064 -1.6,0.803 -3.125,1.903 -4.38,3.178 -1.588,1.614 -3.433,3.113 -5.584,3.905 -1.537,0.568 -3.64,1.26 -5.221,0.515 -0.864,-0.408 -1.735,-1.396 -2.112,-2.269 0,0 -0.701,4.242 3.58,4.912 0,0 -6.257,2.352 -6.286,8.265 0,0 1.824,-3.491 5.607,-3.605 0,0 -4.682,3.675 -3.396,9.88 0,0 1.368,-3.439 3.693,-4.104 0,0 -1.581,4.382 0.766,7.111 0,0 -0.016,-1.939 1.282,-2.999 0,0 -0.557,3.912 4.233,8.826 1.127,-4.055 -1.983,-13.166 -1.983,-13.166 3.047,0.561 7.026,-1.987 7.026,-1.987 6.418,2.82 15.914,-2.563 15.914,-2.563 -1.859,2.17 -5.172,2.979 -5.172,2.979 7.2,2.34 11.264,-2.271 11.264,-2.271 -1.561,3.605 -7.881,4.429 -7.881,4.429 8.813,5.432 15.843,-1.949 15.843,-1.949 -0.357,1.722 -1.393,3.055 -1.393,3.055 3.17,-0.047 4.592,-3.358 4.592,-3.358 -0.385,6.441 5.217,9.582 5.217,9.582 -0.794,-2.813 0.17,-5.479 0.17,-5.479 3.101,7.257 -1.419,12.234 -1.419,12.234 1.212,-0.171 3.171,-1.553 3.171,-1.553 -1.276,2.809 -1.651,8.306 -1.648,8.306 0.141,-0.069 6.979,-3.419 9.021,-6.846 2.06,-3.461 1.235,-6.186 1.235,-6.186 0,0 2.68,2.247 2.188,5.892 0,0 2.379,-2.319 1.689,-6.514 -0.689,-4.195 -3.443,-5.795 -3.443,-5.795 0,0 4.3,1.083 6.456,-2.299 z"
   id="path843" />

			<path
   style="fill:#602a12"
   d="m 46.061,34.655 c -0.097,0.218 -0.222,0.422 -0.354,0.62 -0.129,0.202 -0.275,0.391 -0.433,0.575 -0.155,0.183 -0.324,0.354 -0.503,0.519 -0.087,0.084 -0.178,0.161 -0.274,0.236 -0.099,0.073 -0.188,0.154 -0.292,0.22 l -0.304,0.202 -0.324,0.175 c -0.105,0.062 -0.221,0.104 -0.334,0.153 -0.114,0.046 -0.227,0.097 -0.345,0.124 l -0.357,0.101 c -0.121,0.025 -0.243,0.044 -0.364,0.063 -0.121,0.023 -0.245,0.034 -0.367,0.032 l -0.369,0.008 0.091,-0.325 c 0.317,0.197 0.654,0.383 0.994,0.553 l 0.257,0.122 c 0.088,0.042 0.174,0.08 0.265,0.111 0.091,0.031 0.178,0.074 0.271,0.095 l 0.279,0.078 -0.294,-0.008 c -0.099,-0.005 -0.191,-0.032 -0.291,-0.044 -0.195,-0.033 -0.382,-0.088 -0.569,-0.146 -0.377,-0.122 -0.732,-0.278 -1.087,-0.458 l -0.543,-0.274 0.632,-0.054 0.338,-0.028 c 0.113,-0.005 0.226,-0.02 0.333,-0.047 l 0.333,-0.065 0.323,-0.099 c 0.108,-0.026 0.211,-0.08 0.316,-0.119 0.104,-0.043 0.212,-0.077 0.312,-0.134 l 0.303,-0.155 0.292,-0.177 c 0.102,-0.054 0.19,-0.127 0.286,-0.19 0.095,-0.063 0.187,-0.133 0.277,-0.204 0.09,-0.069 0.185,-0.139 0.27,-0.217 0.085,-0.077 0.178,-0.147 0.263,-0.228 0.339,-0.314 0.67,-0.649 0.969,-1.015 z"
   id="path844" />

			<path
   style="fill:#602a12"
   d="m 57.202,32.834 c -0.313,0.203 -0.644,0.376 -0.973,0.548 -0.332,0.175 -0.674,0.326 -1.02,0.471 -0.342,0.148 -0.694,0.28 -1.045,0.41 l -0.536,0.171 c -0.178,0.06 -0.362,0.101 -0.543,0.152 -0.182,0.048 -0.364,0.091 -0.552,0.124 -0.185,0.035 -0.368,0.077 -0.557,0.103 l -0.563,0.07 c -0.188,0.021 -0.379,0.019 -0.57,0.028 -0.188,0.014 -0.379,0.003 -0.572,-0.012 -0.188,-0.017 -0.38,-0.018 -0.569,-0.065 -0.188,-0.043 -0.38,-0.062 -0.563,-0.124 l -0.544,-0.202 0.206,-0.184 c 0.063,0.195 0.145,0.41 0.255,0.6 0.051,0.097 0.104,0.196 0.17,0.284 0.065,0.088 0.12,0.188 0.195,0.27 l 0.219,0.252 c 0.078,0.079 0.168,0.145 0.254,0.219 l 0.131,0.108 0.147,0.08 0.299,0.171 -0.324,-0.118 -0.163,-0.063 -0.147,-0.093 c -0.098,-0.063 -0.201,-0.121 -0.295,-0.192 l -0.264,-0.236 c -0.092,-0.074 -0.155,-0.177 -0.233,-0.265 -0.079,-0.09 -0.142,-0.189 -0.205,-0.289 -0.067,-0.098 -0.125,-0.202 -0.18,-0.307 -0.059,-0.106 -0.104,-0.212 -0.15,-0.33 l -0.108,-0.274 0.313,0.089 0.515,0.146 c 0.169,0.051 0.353,0.061 0.527,0.094 0.175,0.035 0.356,0.032 0.537,0.039 0.18,0.009 0.358,0.02 0.54,0.003 0.181,-0.012 0.361,-0.012 0.54,-0.033 l 0.543,-0.069 c 0.182,-0.021 0.36,-0.062 0.54,-0.092 0.181,-0.029 0.357,-0.07 0.536,-0.113 0.178,-0.041 0.359,-0.075 0.535,-0.128 l 0.532,-0.143 c 0.354,-0.103 0.709,-0.205 1.058,-0.325 0.351,-0.116 0.696,-0.246 1.046,-0.369 0.348,-0.13 0.693,-0.266 1.038,-0.406 z"
   id="path845" />

			<path
   style="fill:#926b49"
   d="m 41.892,54.799 c 0,0 0.059,-0.047 0.179,-0.107 0.119,-0.056 0.305,-0.121 0.546,-0.129 0.119,10e-4 0.252,0.009 0.387,0.054 0.07,0.011 0.135,0.047 0.204,0.079 0.066,0.027 0.136,0.063 0.195,0.111 0.061,0.046 0.125,0.091 0.187,0.144 0.052,0.055 0.106,0.112 0.158,0.174 0.111,0.116 0.176,0.26 0.265,0.393 0.069,0.139 0.122,0.285 0.182,0.425 0.053,0.142 0.077,0.289 0.113,0.426 0.041,0.137 0.05,0.274 0.064,0.402 0.017,0.129 0.025,0.249 0.034,0.361 0.002,0.448 -0.036,0.744 -0.036,0.744 0,0 -0.101,-0.287 -0.197,-0.71 -0.074,-0.206 -0.124,-0.453 -0.215,-0.702 -0.044,-0.123 -0.09,-0.251 -0.136,-0.384 -0.059,-0.122 -0.108,-0.25 -0.173,-0.37 -0.072,-0.112 -0.123,-0.243 -0.212,-0.337 -0.042,-0.05 -0.08,-0.1 -0.117,-0.152 -0.046,-0.042 -0.091,-0.084 -0.135,-0.126 -0.042,-0.044 -0.093,-0.072 -0.142,-0.104 -0.049,-0.031 -0.093,-0.07 -0.145,-0.089 -0.102,-0.048 -0.203,-0.079 -0.301,-0.104 -0.199,-0.038 -0.379,-0.035 -0.505,-0.027 -0.126,0.012 -0.2,0.028 -0.2,0.028 z"
   id="path846" />

			<path
   style="fill:#682e15"
   d="m 70.539,46.972 c 0,0 1.893,-1.715 3.922,-1.309 2.028,0.408 3.219,1.48 3.219,1.48 0,0 -0.388,-2.916 -3.012,-3.256 -2.625,-0.337 -3.944,2.381 -4.129,3.085 z"
   id="path847" />

			<path
   style="fill:#682e15"
   d="m 52.877,46.002 c 0,0 1.894,-1.717 3.923,-1.309 2.027,0.407 3.217,1.479 3.217,1.479 0,0 -0.389,-2.915 -3.013,-3.254 -2.623,-0.339 -3.941,2.379 -4.127,3.084 z"
   id="path848" />

			<g
   id="g850">
				<path
   style="fill:#3c190a"
   d="m 76.634,53.256 c -0.245,1.58 -1.005,2.774 -1.697,2.666 -0.69,-0.109 -1.055,-1.477 -0.809,-3.055 0.246,-1.581 1.007,-2.774 1.699,-2.668 0.692,0.108 1.054,1.478 0.807,3.057 z"
   id="path849" />

				<path
   style="fill:#ffffff"
   d="m 75.388,51.835 c -0.114,0.472 -0.374,0.813 -0.578,0.763 -0.207,-0.049 -0.282,-0.472 -0.17,-0.943 0.113,-0.471 0.373,-0.813 0.58,-0.763 0.206,0.049 0.281,0.47 0.168,0.943 z"
   id="path850" />

			</g>

			<g
   id="g852">
				<path
   style="fill:#3c190a"
   d="m 58.341,51.806 c -0.247,1.579 -1.008,2.772 -1.699,2.665 -0.692,-0.107 -1.054,-1.476 -0.808,-3.056 0.244,-1.578 1.006,-2.772 1.697,-2.665 0.692,0.106 1.054,1.475 0.81,3.056 z"
   id="path851" />

				<path
   style="fill:#ffffff"
   d="m 57.093,50.385 c -0.114,0.47 -0.373,0.812 -0.578,0.763 -0.207,-0.049 -0.282,-0.472 -0.169,-0.942 0.113,-0.472 0.372,-0.813 0.579,-0.763 0.207,0.048 0.281,0.471 0.168,0.942 z"
   id="path852" />

			</g>

			<path
   style="fill:#f9cbc0"
   d="m 82.998,57.525 c 0.062,0.921 -1.683,1.782 -3.893,1.927 -2.21,0.145 -4.05,-0.485 -4.11,-1.403 -0.06,-0.92 1.684,-1.781 3.893,-1.925 2.21,-0.145 4.049,0.483 4.11,1.401 z"
   id="path853" />

			<path
   style="fill:#f9cbc0"
   d="m 57.228,57.819 c -0.16,0.907 -2.057,1.331 -4.238,0.945 -2.181,-0.383 -3.817,-1.431 -3.66,-2.337 0.16,-0.907 2.059,-1.333 4.239,-0.946 2.181,0.385 3.819,1.432 3.659,2.338 z"
   id="path854" />

			<g
   style="opacity:0.4"
   id="g862">
				<path
   style="fill:none"
   d="m 66.325,33.777 c -0.041,0.057 -0.082,0.111 -0.124,0.162 0.062,-0.063 0.124,-0.128 0.184,-0.195 -0.001,0 -0.025,0.015 -0.06,0.033 z"
   id="path855" />

				<path
   style="fill:#817458"
   d="m 66.201,33.939 c -0.138,0.149 -0.281,0.291 -0.431,0.425 0.002,-10e-4 0.006,-0.004 0.01,-0.005 0.145,-0.108 0.285,-0.249 0.421,-0.42 z"
   id="path856" />

				<path
   style="fill:#8d3e22"
   d="m 61.212,36.724 c 7.2,2.34 11.264,-2.271 11.264,-2.271 -0.013,0.028 -0.029,0.057 -0.042,0.086 1.063,-1.25 1.618,-2.508 1.618,-2.508 -5.295,5.824 -12.84,4.693 -12.84,4.693 z"
   id="path857" />

				<path
   style="fill:#817458"
   d="m 41.333,44.469 -0.14,-1.834 c 0.001,0 -0.095,0.681 0.14,1.834 z"
   id="path858" />

				<path
   style="fill:#8d3e22"
   d="m 57.683,35.52 c -6.459,1.305 -8.969,-1.29 -8.969,-1.29 l 0.33,1.11 c -2.592,1.47 -6.146,2.141 -6.146,2.141 2.658,-1.613 5.503,-5.467 5.503,-5.467 -5.158,5.636 -8.617,4.742 -8.617,4.742 0.859,1.924 2.797,2.267 2.797,2.267 -0.995,1.82 -1.387,3.611 -1.387,3.611 l 0.14,1.834 c 0.328,1.607 1.302,4.129 4.094,6.992 1.127,-4.055 -1.983,-13.166 -1.983,-13.166 3.047,0.561 7.026,-1.987 7.026,-1.987 6.14,2.698 15.09,-2.109 15.854,-2.53 1.13,-1.574 1.873,-4.924 1.873,-4.924 0,0 -4.056,5.36 -10.515,6.667 z"
   id="path859" />

				<path
   style="fill:#8d3e22"
   d="m 89.745,51.041 c 0,0 1.351,-0.663 1.506,-6.021 0.155,-5.36 -3.969,-9.844 -3.969,-9.844 -2.835,6.028 1.572,11.034 1.572,11.034 -0.794,-2.813 0.17,-5.479 0.17,-5.479 3.101,7.257 -1.419,12.234 -1.419,12.234 1.212,-0.171 3.171,-1.553 3.171,-1.553 -1.276,2.809 -1.651,8.306 -1.648,8.306 0.016,-0.007 0.129,-0.062 0.312,-0.156 6.037,-7.345 3.718,-11.708 3.718,-11.708 -1.134,1.738 -3.413,3.187 -3.413,3.187 z"
   id="path860" />

				<path
   style="fill:#8d3e22"
   d="m 83.21,32.03 c 0.052,6.803 -4.165,7.956 -4.165,7.956 3.17,-0.047 4.592,-3.358 4.592,-3.358 -0.003,0.035 -0.002,0.068 -0.004,0.102 0.489,-2.616 -0.423,-4.7 -0.423,-4.7 z"
   id="path861" />

				<path
   style="fill:#8d3e22"
   d="m 80.633,30.896 c 0,0 -0.359,4.638 -4.998,7.421 -4.639,2.783 -11.04,0.563 -11.04,0.563 8.533,5.261 15.397,-1.497 15.82,-1.928 1.03,-2.754 0.218,-6.056 0.218,-6.056 z"
   id="path862" />

			</g>

		</g>

		<g
   id="g865">
			<path
   style="fill:#1d1d1b"
   d="m 70.824,55.423 c 1.855,2.67 4.795,4.412 8.045,4.78 3.596,0.408 6.893,-0.659 9.61,-3.069 2.077,-1.843 3.177,-4.423 3.232,-7.185 0.124,-6.022 -6.838,-7.227 -11.413,-7.772 -0.481,-0.059 -0.962,-0.069 -1.439,-0.053 -0.686,-0.068 -1.374,-0.102 -2.066,-0.074 -3.209,0.129 -6.175,0.603 -7.649,3.802 -1.297,2.814 0.007,7.159 1.68,9.571 z m -1.04,-7.022 c 0.13,-1.736 0.72,-2.87 1.937,-4.089 0.959,-0.957 2.389,-1.219 3.742,-1.354 3.181,-0.131 6.242,-0.043 9.337,0.812 1.27,0.351 2.55,0.61 3.69,1.302 0.809,0.49 1.662,1.447 2.146,2.253 1.201,2.002 0.585,4.553 -0.506,6.462 -2.208,3.863 -6.393,6.573 -11.888,5.615 -3.379,-0.588 -6.602,-2.643 -7.78,-5.927 -0.585,-1.628 -0.808,-3.354 -0.678,-5.074 z"
   id="path863" />

			<path
   style="fill:#1d1d1b"
   d="m 63.263,45.732 c -1.344,-3.256 -4.29,-3.849 -7.489,-4.106 -0.691,-0.056 -1.381,-0.05 -2.069,-0.01 -0.477,-0.036 -0.955,-0.044 -1.44,-0.005 -4.594,0.361 -11.598,1.284 -11.718,7.306 -0.054,2.762 0.938,5.384 2.939,7.31 2.62,2.517 5.87,3.717 9.481,3.455 3.259,-0.238 6.269,-1.859 8.229,-4.453 1.771,-2.342 3.25,-6.631 2.067,-9.497 z m -1.624,7.564 c -1.311,3.235 -4.615,5.157 -8.014,5.608 -5.531,0.735 -9.603,-2.14 -11.653,-6.09 -1.014,-1.951 -1.524,-4.525 -0.243,-6.477 0.516,-0.785 1.407,-1.708 2.234,-2.165 1.169,-0.646 2.458,-0.852 3.739,-1.151 3.126,-0.729 6.19,-0.693 9.364,-0.435 1.346,0.19 2.764,0.51 3.684,1.505 1.167,1.266 1.709,2.423 1.77,4.163 0.062,1.725 -0.232,3.439 -0.881,5.042 z"
   id="path864" />

			<path
   style="fill:#1d1d1b"
   d="m 68.987,47.997 c 0,0 -2.144,-2.959 -6.01,-0.122 l 0.043,-2.146 c 0,0 2.767,-1.633 6.365,0.129 z"
   id="path865" />

		</g>

	</g>

</g>
  </g>
</svg>
