<?xml version="1.0" encoding="UTF-8" standalone="no"?>
<!-- Created with Inkscape (http://www.inkscape.org/) -->

<svg
   width="23.478373mm"
   height="64.334518mm"
   viewBox="0 0 23.478372 64.334519"
   version="1.1"
   id="svg1"
   inkscape:version="1.4.2 (f4327f4, 2025-05-13)"
   sodipodi:docname="girl13.svg"
   xmlns:inkscape="http://www.inkscape.org/namespaces/inkscape"
   xmlns:sodipodi="http://sodipodi.sourceforge.net/DTD/sodipodi-0.dtd"
   xmlns="http://www.w3.org/2000/svg"
   xmlns:svg="http://www.w3.org/2000/svg">
  <sodipodi:namedview
     id="namedview1"
     pagecolor="#ffffff"
     bordercolor="#000000"
     borderopacity="0.25"
     inkscape:showpageshadow="2"
     inkscape:pageopacity="0.0"
     inkscape:pagecheckerboard="0"
     inkscape:deskcolor="#d1d1d1"
     inkscape:document-units="mm"
     inkscape:zoom="1.2275954"
     inkscape:cx="-73.314058"
     inkscape:cy="-46.432237"
     inkscape:window-width="2880"
     inkscape:window-height="1676"
     inkscape:window-x="-12"
     inkscape:window-y="-12"
     inkscape:window-maximized="1"
     inkscape:current-layer="layer1" />
  <defs
     id="defs1" />
  <g
     inkscape:label="图层 1"
     inkscape:groupmode="layer"
     id="layer1"
     transform="translate(-124.51145,-160.93807)">
    <g
       id="g213"
       transform="matrix(0.26458333,0,0,0.26458333,89.220769,87.863653)">
	<path
   style="fill:#eec9a5"
   d="m 196.148,397.201 c -0.152,-5.223 -1.426,-9.833 -1.426,-9.833 l -0.024,-10e-4 -18.889,-0.27 -18.889,0.27 -0.024,10e-4 c 0,0 -1.273,4.61 -1.426,9.833 0,0 7.914,2.718 20.339,2.448 12.425,0.27 20.339,-2.448 20.339,-2.448 z"
   id="path101" />

	<g
   id="g103">
		<path
   style="fill:#e83578"
   d="m 197.103,340.83 -4.507,-1.041 c -1.107,7.297 -8.167,12.926 -16.714,12.926 -8.588,0 -15.671,-5.68 -16.729,-13.025 l -4.934,1.141 c -0.45,3.527 2.81,40.227 2.81,40.227 0,0.67 -0.795,4.103 -1.559,7.811 6.32,1.483 23.444,4.597 40.502,-0.179 -0.768,-3.629 -1.557,-6.969 -1.557,-7.632 0,0 3.138,-36.701 2.688,-40.228 z"
   id="path102" />

		<path
   style="fill:#e1b58c"
   d="m 175.882,352.715 c 8.547,0 15.607,-5.629 16.714,-12.926 l -16.935,-3.914 -16.509,3.815 c 1.059,7.345 8.142,13.025 16.73,13.025 z"
   id="path103" />

	</g>

	<g
   id="g147">
		<g
   id="g104">
			<path
   style="fill:#eec9a5"
   d="m 177.231,399.307 c 0,0 -1.282,0 -3.259,0 -6.713,0 -19.791,0 -19.802,0 0,0.838 4.299,47.073 4.581,51.589 0.954,15.214 4.023,46.87 4.105,48.206 0,0 1.712,0.708 5.477,0 l 3.052,-47.784 3.106,-36.587 c 0,0 0.586,-1.01 1.11,-1.054 0.523,0.044 0.995,1.159 0.995,1.159 l 3.632,36.588 2.383,47.703 c 4.614,0.856 6.04,-0.025 6.04,-0.025 0.084,-1.336 2.072,-29.132 3.001,-48.613 1.179,-24.746 5.304,-50.712 5.304,-51.182 -0.01,0 -13.011,0 -19.725,0 z"
   id="path104" />

		</g>

		<g
   id="g105">
			<path
   style="fill:#e1b58c"
   d="m 173.219,429.715 1.273,-14.984 c 0,0 0.586,-1.01 1.11,-1.054 0.523,0.044 0.995,1.159 0.995,1.159 l 1.477,14.879 h 15.135 c 1.634,-16.668 3.748,-30.072 3.748,-30.408 h -19.725 c 0,0 -1.282,0 -3.259,0 H 154.17 c 0,0.488 1.455,16.344 2.728,30.408 z"
   id="path105" />

		</g>

		<g
   id="g107">
			<path
   style="fill:#838587"
   d="m 182.126,489.416 0.485,9.711 c 4.614,0.856 6.04,-0.025 6.04,-0.025 0.029,-0.469 0.294,-4.2 0.664,-9.686 z"
   id="path106" />

			<path
   style="fill:#838587"
   d="m 161.97,489.416 c 0.501,5.437 0.859,9.241 0.887,9.686 0,0 1.712,0.708 5.477,0 l 0.618,-9.686 z"
   id="path107" />

		</g>

		<path
   style="fill:#838587"
   d="m 188.533,498.31 c 0,0 0.291,0.016 0.359,0.375 0.067,0.357 3.529,8.89 4.451,10.521 0.922,1.632 0.1,5.271 -4.266,5.359 -4.367,0.089 -7.236,-2.333 -7.483,-5.308 0,0 -0.14,-7.799 0.896,-11.23 0,0 0.379,-0.387 1.457,0 1.079,0.387 4.586,0.283 4.586,0.283 z"
   id="path108" />

		<g
   id="g127">
			<path
   style="fill:#319592"
   d="m 181.093,515.507 c 0.043,0.132 0.089,0.255 0.141,0.368 -0.052,-0.113 -0.098,-0.237 -0.141,-0.368 z"
   id="path109" />

			<path
   style="fill:#319592"
   d="m 180.802,514.05 c 0.02,0.179 0.044,0.352 0.071,0.516 -0.027,-0.165 -0.051,-0.337 -0.071,-0.516 z"
   id="path110" />

			<path
   style="fill:#319592"
   d="m 180.974,515.074 c 0.03,0.129 0.064,0.249 0.1,0.365 -0.035,-0.115 -0.07,-0.236 -0.1,-0.365 z"
   id="path111" />

			<path
   style="fill:#319592"
   d="m 180.876,514.583 c 0.026,0.155 0.056,0.302 0.089,0.445 -0.034,-0.141 -0.063,-0.29 -0.089,-0.445 z"
   id="path112" />

			<polygon
   style="fill:#1d1d1b"
   points="180.802,514.047 180.8,514.044 180.802,514.044 "
   id="polygon112" />

			<path
   style="fill:#1d1d1b"
   d="m 181.074,515.44 c 0.008,0.021 0.013,0.047 0.02,0.067 -0.007,-0.021 -0.013,-0.046 -0.02,-0.067 z"
   id="path113" />

			<path
   style="fill:#1d1d1b"
   d="m 180.964,515.028 c 0.003,0.015 0.006,0.03 0.01,0.046 -0.004,-0.015 -0.007,-0.031 -0.01,-0.046 z"
   id="path114" />

			<path
   style="fill:#1d1d1b"
   d="m 180.874,514.565 c 0.001,0.005 0.001,0.011 0.002,0.018 -0.002,-0.007 -0.002,-0.013 -0.002,-0.018 z"
   id="path115" />

			<path
   style="fill:#1d1d1b"
   d="m 183.124,516.442 c 1.881,1.138 4.203,1.741 6.588,1.878 3.648,0.205 6.964,-1.209 7.662,-3.568 0.002,0.004 0.003,0.009 0.004,0.014 0.027,0.138 0.045,0.278 0.055,0.419 0.002,0.026 0.006,0.054 0.006,0.079 0.008,0.148 0.008,0.296 -0.006,0.444 -0.001,0.005 -0.003,0.013 -0.003,0.018 -0.013,0.137 -0.042,0.273 -0.077,0.41 -0.009,0.036 -0.018,0.072 -0.029,0.108 -0.043,0.143 -0.094,0.288 -0.164,0.431 -1.299,2.685 -4.97,2.769 -8.533,2.623 -3.292,-0.504 -6.263,-0.932 -7.393,-3.422 -0.052,-0.113 -0.098,-0.236 -0.141,-0.368 -0.007,-0.02 -0.012,-0.046 -0.02,-0.067 -0.035,-0.116 -0.069,-0.236 -0.1,-0.365 -0.004,-0.016 -0.007,-0.031 -0.01,-0.046 -0.033,-0.143 -0.063,-0.29 -0.089,-0.445 -0.001,-0.007 -0.001,-0.013 -0.002,-0.018 -0.027,-0.164 -0.052,-0.337 -0.071,-0.516 0,0 0,-0.004 0,-0.006 0.513,0.922 1.265,1.757 2.323,2.397 z"
   id="path116" />

			<g
   id="g126">
				<path
   style="fill:#319592"
   d="m 197.464,514.583 c 0.033,0.143 0.056,0.287 0.07,0.431 -0.014,-0.144 -0.036,-0.287 -0.07,-0.431 z"
   id="path117" />

				<path
   style="fill:#319592"
   d="m 197.547,515.55 c -0.011,0.139 -0.034,0.275 -0.064,0.413 0.03,-0.138 0.054,-0.275 0.064,-0.413 z"
   id="path118" />

				<path
   style="fill:#319592"
   d="m 197.456,516.072 c -0.038,0.144 -0.085,0.288 -0.149,0.433 0.064,-0.145 0.11,-0.288 0.149,-0.433 z"
   id="path119" />

				<path
   style="fill:#319592"
   d="m 197.542,515.089 c 0.012,0.147 0.016,0.297 0.008,0.446 0.009,-0.149 0.004,-0.299 -0.008,-0.446 z"
   id="path120" />

				<path
   style="fill:#3c3b3b"
   d="m 189.021,499.163 c 0.277,1.7 1.02,3.323 1.784,4.944 0.858,1.818 2.244,4.186 2.102,6.167 -0.33,4.565 -7.723,3.403 -9.863,0.755 -0.776,-1.469 -1.121,-4.323 -1.115,-5.86 0.004,-1.028 0.133,-2.047 0.24,-3.071 0.141,-1.334 0.383,-2.729 0.32,-4.069 -0.873,1.931 -2.304,11.425 -1.618,16.135 0.542,0.913 1.318,1.735 2.396,2.356 1.914,1.106 4.254,1.668 6.643,1.762 3.653,0.141 6.926,-1.332 7.554,-3.702 -0.256,-1.095 -1.001,-2.153 -1.693,-3.101 -1.08,-1.479 -2.11,-2.945 -2.992,-4.501 -1.473,-2.605 -2.506,-5.222 -3.415,-7.926 -0.227,-0.288 -0.428,-0.506 -0.599,-0.675 0.036,0.102 0.079,0.205 0.128,0.308 0.002,0.099 0.06,0.431 0.128,0.478 z"
   id="path121" />

				<path
   style="fill:#1d1d1b"
   d="m 197.483,515.963 c -0.007,0.036 -0.017,0.072 -0.027,0.109 0.01,-0.037 0.02,-0.073 0.027,-0.109 z"
   id="path122" />

				<path
   style="fill:#1d1d1b"
   d="m 197.55,515.535 c -0.002,0.005 -0.003,0.01 -0.003,0.01 0,0 0.001,-0.005 0.003,-0.01 z"
   id="path123" />

				<polygon
   style="fill:#1d1d1b"
   points="197.464,514.582 197.463,514.579 "
   id="polygon123" />

				<path
   style="fill:#1d1d1b"
   d="m 197.535,515.014 c 0.002,0.025 0.006,0.049 0.008,0.075 -0.003,-0.026 -0.006,-0.05 -0.008,-0.075 z"
   id="path124" />

				<path
   style="fill:#1d1d1b"
   d="m 189.91,518.281 c -2.389,-0.094 -4.729,-0.656 -6.643,-1.762 -1.077,-0.621 -1.854,-1.443 -2.396,-2.356 0.001,0.003 0.001,0.005 0.001,0.005 0.025,0.178 0.055,0.348 0.086,0.51 0.002,0.009 0.002,0.018 0.005,0.024 0.029,0.152 0.064,0.296 0.1,0.436 0.005,0.018 0.009,0.037 0.013,0.055 0.033,0.124 0.071,0.241 0.108,0.354 0.009,0.024 0.017,0.051 0.024,0.074 0.047,0.131 0.097,0.254 0.151,0.364 1.204,2.47 4.188,2.845 7.494,3.292 3.566,0.082 7.233,-0.065 8.452,-2.772 0.064,-0.144 0.111,-0.288 0.149,-0.433 0.011,-0.037 0.021,-0.073 0.027,-0.109 0.03,-0.138 0.054,-0.274 0.064,-0.413 0,0 0.001,-0.01 0.003,-0.015 0.008,-0.15 0.004,-0.299 -0.008,-0.446 -0.002,-0.026 -0.006,-0.05 -0.008,-0.075 -0.015,-0.144 -0.037,-0.288 -0.07,-0.431 0,0 0,-0.003 -10e-4,-0.004 -0.626,2.37 -3.898,3.843 -7.551,3.702 z"
   id="path125" />

				<path
   style="fill:#3c3b3b"
   d="m 181.594,508.293 c 0,0 4.56,-4.111 10.982,-1.178 l -1.069,-2.026 c 0,0 -6.067,-2.327 -9.912,1.119 v 2.085 z"
   id="path126" />

			</g>

		</g>

		<path
   style="fill:#838587"
   d="m 162.79,498.31 c 0,0 -0.291,0.016 -0.358,0.375 -0.068,0.357 -3.53,8.89 -4.452,10.521 -0.922,1.632 -0.101,5.271 4.266,5.359 4.367,0.089 7.236,-2.333 7.483,-5.308 0,0 0.14,-7.799 -0.896,-11.23 0,0 -0.379,-0.387 -1.457,0 -1.079,0.387 -4.586,0.283 -4.586,0.283 z"
   id="path127" />

		<g
   id="g146">
			<path
   style="fill:#319592"
   d="m 170.23,515.507 c -0.043,0.132 -0.089,0.255 -0.141,0.368 0.052,-0.113 0.098,-0.237 0.141,-0.368 z"
   id="path128" />

			<path
   style="fill:#319592"
   d="m 170.521,514.05 c -0.02,0.179 -0.044,0.352 -0.071,0.516 0.027,-0.165 0.051,-0.337 0.071,-0.516 z"
   id="path129" />

			<path
   style="fill:#319592"
   d="m 170.349,515.074 c -0.03,0.129 -0.064,0.249 -0.1,0.365 0.036,-0.115 0.07,-0.236 0.1,-0.365 z"
   id="path130" />

			<path
   style="fill:#319592"
   d="m 170.448,514.583 c -0.026,0.155 -0.056,0.302 -0.088,0.445 0.032,-0.141 0.061,-0.29 0.088,-0.445 z"
   id="path131" />

			<polygon
   style="fill:#1d1d1b"
   points="170.521,514.047 170.523,514.044 170.522,514.044 "
   id="polygon131" />

			<path
   style="fill:#1d1d1b"
   d="m 170.249,515.44 c -0.007,0.021 -0.013,0.047 -0.02,0.067 0.007,-0.021 0.014,-0.046 0.02,-0.067 z"
   id="path132" />

			<path
   style="fill:#1d1d1b"
   d="m 170.36,515.028 c -0.004,0.015 -0.007,0.03 -0.011,0.046 0.004,-0.015 0.007,-0.031 0.011,-0.046 z"
   id="path133" />

			<path
   style="fill:#1d1d1b"
   d="m 170.45,514.565 c -10e-4,0.005 -10e-4,0.011 -0.002,0.018 0.001,-0.007 0.001,-0.013 0.002,-0.018 z"
   id="path134" />

			<path
   style="fill:#1d1d1b"
   d="m 168.199,516.442 c -1.881,1.138 -4.203,1.741 -6.588,1.878 -3.648,0.205 -6.963,-1.209 -7.662,-3.568 -0.002,0.004 -0.003,0.009 -0.004,0.014 -0.026,0.138 -0.045,0.278 -0.055,0.419 -0.002,0.026 -0.005,0.054 -0.006,0.079 -0.008,0.148 -0.008,0.296 0.006,0.444 0.001,0.005 0.003,0.013 0.003,0.018 0.014,0.137 0.042,0.273 0.077,0.41 0.009,0.036 0.02,0.072 0.029,0.108 0.043,0.143 0.095,0.288 0.164,0.431 1.299,2.685 4.97,2.769 8.533,2.623 3.292,-0.504 6.264,-0.932 7.393,-3.422 0.052,-0.113 0.098,-0.236 0.141,-0.368 0.007,-0.02 0.013,-0.046 0.02,-0.067 0.035,-0.116 0.069,-0.236 0.1,-0.365 0.004,-0.016 0.007,-0.031 0.011,-0.046 0.032,-0.143 0.062,-0.29 0.088,-0.445 10e-4,-0.007 10e-4,-0.013 0.002,-0.018 0.027,-0.164 0.052,-0.337 0.071,-0.516 0,0 0,-0.004 0.001,-0.006 -0.514,0.922 -1.266,1.757 -2.324,2.397 z"
   id="path135" />

			<g
   id="g145">
				<path
   style="fill:#319592"
   d="m 153.86,514.583 c -0.033,0.143 -0.057,0.287 -0.071,0.431 0.014,-0.144 0.038,-0.287 0.071,-0.431 z"
   id="path136" />

				<path
   style="fill:#319592"
   d="m 153.777,515.55 c 0.01,0.139 0.033,0.275 0.063,0.413 -0.03,-0.138 -0.053,-0.275 -0.063,-0.413 z"
   id="path137" />

				<path
   style="fill:#319592"
   d="m 153.868,516.072 c 0.038,0.144 0.085,0.288 0.149,0.433 -0.064,-0.145 -0.111,-0.288 -0.149,-0.433 z"
   id="path138" />

				<path
   style="fill:#319592"
   d="m 153.781,515.089 c -0.012,0.147 -0.016,0.297 -0.008,0.446 -0.009,-0.149 -0.004,-0.299 0.008,-0.446 z"
   id="path139" />

				<path
   style="fill:#3c3b3b"
   d="m 162.302,499.163 c -0.277,1.7 -1.02,3.323 -1.784,4.944 -0.858,1.818 -2.244,4.186 -2.103,6.167 0.33,4.565 7.723,3.403 9.863,0.755 0.776,-1.469 1.121,-4.323 1.116,-5.86 -0.005,-1.028 -0.134,-2.047 -0.241,-3.071 -0.141,-1.334 -0.382,-2.729 -0.32,-4.069 0.873,1.931 2.304,11.425 1.619,16.135 -0.542,0.913 -1.318,1.735 -2.396,2.356 -1.914,1.106 -4.254,1.668 -6.643,1.762 -3.653,0.141 -6.926,-1.332 -7.553,-3.702 0.255,-1.095 1,-2.153 1.693,-3.101 1.08,-1.479 2.109,-2.945 2.991,-4.501 1.473,-2.605 2.506,-5.222 3.415,-7.926 0.227,-0.288 0.428,-0.506 0.599,-0.675 -0.036,0.102 -0.078,0.205 -0.127,0.308 -0.003,0.099 -0.06,0.431 -0.129,0.478 z"
   id="path140" />

				<path
   style="fill:#1d1d1b"
   d="m 153.84,515.963 c 0.008,0.036 0.017,0.072 0.027,0.109 -0.01,-0.037 -0.019,-0.073 -0.027,-0.109 z"
   id="path141" />

				<path
   style="fill:#1d1d1b"
   d="m 153.773,515.535 c 0.002,0.005 0.004,0.01 0.004,0.01 0,0 -0.002,-0.005 -0.004,-0.01 z"
   id="path142" />

				<polygon
   style="fill:#1d1d1b"
   points="153.86,514.582 153.861,514.579 "
   id="polygon142" />

				<path
   style="fill:#1d1d1b"
   d="m 153.789,515.014 c -0.002,0.025 -0.006,0.049 -0.008,0.075 0.002,-0.026 0.006,-0.05 0.008,-0.075 z"
   id="path143" />

				<path
   style="fill:#1d1d1b"
   d="m 161.414,518.281 c 2.389,-0.094 4.729,-0.656 6.643,-1.762 1.078,-0.621 1.854,-1.443 2.396,-2.356 -0.002,0.003 -0.002,0.005 -0.002,0.005 -0.025,0.178 -0.055,0.348 -0.086,0.51 -0.002,0.009 -0.002,0.018 -0.005,0.024 -0.029,0.152 -0.063,0.296 -0.1,0.436 -0.005,0.018 -0.008,0.037 -0.013,0.055 -0.033,0.124 -0.071,0.241 -0.108,0.354 -0.009,0.024 -0.016,0.051 -0.025,0.074 -0.047,0.131 -0.096,0.254 -0.151,0.364 -1.204,2.47 -4.188,2.845 -7.494,3.292 -3.566,0.082 -7.233,-0.065 -8.452,-2.772 -0.064,-0.144 -0.111,-0.288 -0.149,-0.433 -0.011,-0.037 -0.02,-0.073 -0.027,-0.109 -0.03,-0.138 -0.054,-0.274 -0.063,-0.413 0,0 -0.002,-0.01 -0.004,-0.015 -0.008,-0.15 -0.004,-0.299 0.008,-0.446 0.002,-0.026 0.006,-0.05 0.008,-0.075 0.015,-0.144 0.038,-0.288 0.071,-0.431 0,0 0,-0.003 0.001,-0.004 0.626,2.37 3.898,3.843 7.552,3.702 z"
   id="path144" />

				<path
   style="fill:#3c3b3b"
   d="m 169.729,508.293 c 0,0 -4.56,-4.111 -10.981,-1.178 l 1.069,-2.026 c 0,0 6.067,-2.327 9.912,1.119 z"
   id="path145" />

			</g>

		</g>

	</g>

	<path
   style="fill:#f49b54"
   d="m 168.441,400.741 h 14.441 c 0,0 1.805,13.104 -7.22,13.315 -9.025,0.212 -7.221,-13.315 -7.221,-13.315 z"
   id="path147" />

	<g
   id="g155">
		<g
   id="g151">
			<path
   style="fill:#eec9a5"
   d="m 145.257,408.799 c 3.116,0.235 3.959,5.049 4.648,7.404 0.54,1.847 0.88,3.022 1.393,5.753 0.141,0.746 0.479,2.596 -0.371,3.069 -1.091,0.608 -1.682,-1.922 -1.916,-2.567 -0.131,-0.361 -1.071,-3.385 -1.45,-1.925 -0.313,1.205 -0.069,1.682 0.172,2.885 0.38,1.91 2.358,5.056 1.56,6.41 -0.8,1.355 -2.044,-0.658 -2.044,-0.658 0,0 0.145,0.332 -0.579,0.535 -0.724,0.203 -1.709,-0.834 -1.731,-0.854 -0.023,-0.02 0.014,0.379 -0.568,0.166 -0.583,-0.215 -1.509,-1.113 -1.823,-1.418 0,0 -0.72,-0.113 -1.417,-1.004 -0.697,-0.891 -3.751,-7.806 0.167,-16.265 0.565,-1.223 1.641,-1.124 2.868,-1.431 0.383,-0.096 0.749,-0.127 1.091,-0.1 z"
   id="path148" />

			<path
   style="fill:#915f2d"
   d="m 145.701,425.439 c -0.633,-1.759 -1.005,-3.628 -1.326,-5.459 -0.002,-0.013 -0.018,-0.005 -0.016,0.005 0.238,1.889 0.578,3.727 1.166,5.549 0.406,1.259 1.061,2.996 1.963,4 0.021,0.023 0.053,-0.011 0.039,-0.034 -0.762,-1.219 -1.345,-2.718 -1.826,-4.061 z"
   id="path149" />

			<path
   style="fill:#915f2d"
   d="m 143.072,424.947 c -0.556,-1.482 -0.639,-3.064 -1.039,-4.573 -0.002,-0.009 -0.014,-0.001 -0.014,0.005 0.313,1.703 0.463,3.354 1.082,5.003 0.463,1.23 1.033,2.882 2.127,3.737 0.01,0.009 0.023,-0.01 0.014,-0.019 -1.125,-1.007 -1.661,-2.795 -2.17,-4.153 z"
   id="path150" />

			<path
   style="fill:#915f2d"
   d="m 140.443,421.369 c -0.002,-0.012 -0.02,-0.004 -0.018,0.006 0.107,1.248 0.373,2.526 0.797,3.711 0.403,1.126 1.068,2.559 2.074,3.287 0.016,0.011 0.041,-0.018 0.027,-0.031 -1.818,-1.713 -2.569,-4.61 -2.88,-6.973 z"
   id="path151" />

		</g>

		<g
   id="g153">
			<path
   style="fill:#e1b58c"
   d="m 150.555,381.237 3.52,-17.62 c 0.012,-2.083 0.02,-17.025 -0.004,-22.787 0,0 -7.655,0.471 -8.971,5.211 l -4.782,32.906 c 0.931,4.341 8.612,5.535 10.237,2.29 z"
   id="path152" />

			<path
   style="fill:#eec9a5"
   d="m 140.281,378.947 c 0,1.838 -0.006,9.518 0,11.167 0.018,4.368 0.427,10.111 0.938,14.448 0.537,4.566 1.027,7.471 1.566,8.025 l 3,-0.113 c 1.938,-0.017 0.768,-4.555 4.671,-28.734 l 0.394,-3.559 c -1.212,-3.681 -9.089,-5.562 -10.569,-1.234 z"
   id="path153" />

		</g>

		<path
   style="fill:#d10063"
   d="m 140.279,378.984 4.799,-33.309 c 1.185,-4.605 9.245,-4.846 9.245,-4.846 0.005,1.711 1.238,20.788 1.225,22.612 l -4.764,16.941 c -3.847,-2.808 -10.013,-1.048 -10.505,-1.398 z"
   id="path154" />

		<path
   style="fill:#e83578"
   d="m 140.281,378.947 c 0,1.838 -0.006,9.518 0,11.167 0.01,2.137 0.113,4.604 0.274,7.073 2.158,-1.869 5.57,-1.693 7.95,0.014 0.457,-3.616 1.076,-8.042 1.95,-13.461 l 0.394,-3.559 c -1.211,-3.681 -9.088,-5.562 -10.568,-1.234 z"
   id="path155" />

	</g>

	<g
   id="g163">
		<g
   id="g159">
			<path
   style="fill:#eec9a5"
   d="m 206.091,408.799 c -3.115,0.235 -3.959,5.049 -4.646,7.404 -0.54,1.847 -0.881,3.022 -1.395,5.753 -0.141,0.746 -0.477,2.596 0.372,3.069 1.091,0.608 1.682,-1.922 1.915,-2.567 0.132,-0.361 1.072,-3.385 1.451,-1.925 0.313,1.205 0.068,1.682 -0.172,2.885 -0.38,1.91 -2.359,5.056 -1.56,6.41 0.8,1.355 2.044,-0.658 2.044,-0.658 0,0 -0.146,0.332 0.579,0.535 0.724,0.203 1.709,-0.834 1.731,-0.854 0.022,-0.02 -0.014,0.379 0.568,0.166 0.582,-0.215 1.509,-1.113 1.823,-1.418 0,0 0.72,-0.113 1.417,-1.004 0.697,-0.891 3.75,-7.806 -0.167,-16.265 -0.565,-1.223 -1.642,-1.124 -2.868,-1.431 -0.383,-0.096 -0.748,-0.127 -1.092,-0.1 z"
   id="path156" />

			<path
   style="fill:#915f2d"
   d="m 205.65,425.439 c 0.632,-1.759 1.004,-3.628 1.324,-5.459 0.002,-0.013 0.018,-0.005 0.017,0.005 -0.239,1.889 -0.578,3.727 -1.167,5.549 -0.406,1.259 -1.059,2.996 -1.962,4 -0.021,0.023 -0.053,-0.011 -0.039,-0.034 0.76,-1.219 1.344,-2.718 1.827,-4.061 z"
   id="path157" />

			<path
   style="fill:#915f2d"
   d="m 208.278,424.947 c 0.556,-1.482 0.638,-3.064 1.039,-4.573 0.002,-0.009 0.014,-0.001 0.014,0.005 -0.313,1.703 -0.463,3.354 -1.082,5.003 -0.463,1.23 -1.033,2.882 -2.128,3.737 -0.01,0.009 -0.021,-0.01 -0.013,-0.019 1.125,-1.007 1.661,-2.795 2.17,-4.153 z"
   id="path158" />

			<path
   style="fill:#915f2d"
   d="m 210.907,421.369 c 10e-4,-0.012 0.019,-0.004 0.018,0.006 -0.107,1.248 -0.374,2.526 -0.798,3.711 -0.402,1.126 -1.067,2.559 -2.073,3.287 -0.017,0.011 -0.042,-0.018 -0.027,-0.031 1.816,-1.713 2.568,-4.61 2.88,-6.973 z"
   id="path159" />

		</g>

		<g
   id="g161">
			<path
   style="fill:#e1b58c"
   d="m 200.794,381.237 -3.521,-17.62 c -0.013,-2.083 -0.02,-17.025 0.004,-22.787 0,0 7.655,0.471 8.972,5.211 l 4.781,32.906 c -0.93,4.341 -8.611,5.535 -10.236,2.29 z"
   id="path160" />

			<path
   style="fill:#eec9a5"
   d="m 211.068,378.947 c 0,1.838 0.007,9.518 0,11.167 -0.018,4.368 -0.426,10.111 -0.937,14.448 -0.537,4.566 -1.028,7.471 -1.565,8.025 l -3.001,-0.113 c -1.938,-0.017 -0.768,-4.555 -4.671,-28.734 l -0.395,-3.559 c 1.211,-3.681 9.089,-5.562 10.569,-1.234 z"
   id="path161" />

		</g>

		<path
   style="fill:#d10063"
   d="m 211.071,378.984 -4.799,-33.309 c -1.185,-4.605 -9.245,-4.846 -9.245,-4.846 -0.006,1.711 -1.238,20.788 -1.226,22.612 l 4.764,16.941 c 3.847,-2.808 10.014,-1.048 10.506,-1.398 z"
   id="path162" />

		<path
   style="fill:#e83578"
   d="m 211.068,378.947 c 0,1.838 0.007,9.518 0,11.167 -0.009,2.137 -0.112,4.604 -0.273,7.073 -2.158,-1.869 -5.57,-1.693 -7.951,0.014 -0.456,-3.616 -1.074,-8.042 -1.949,-13.461 l -0.395,-3.559 c 1.21,-3.681 9.088,-5.562 10.568,-1.234 z"
   id="path163" />

	</g>

	<g
   id="g174">
		<g
   id="g166">
			<g
   id="g164">
				<path
   style="fill:#004e76"
   d="m 196.205,395.244 c -9.351,0.958 -18.164,2.018 -20.542,2.308 -2.379,-0.29 -11.192,-1.35 -20.543,-2.308 0,0 -1.493,3.895 -2.645,21.402 l 22.134,5.601 1.223,-4.676 0.884,4.676 22.134,-5.601 c -1.152,-17.506 -2.645,-21.402 -2.645,-21.402 z"
   id="path164" />

				<polygon
   style="fill:#5a889f"
   points="199.183,415.197 199.718,418.68 176.529,423.185 175.917,419.728 "
   id="polygon164" />

			</g>

			<path
   style="fill:#004061"
   d="m 189.672,398.711 6.456,-0.941 1.584,10.829 c 0,0 -6.917,-0.48 -8.04,-9.888 z"
   id="path165" />

			<path
   style="fill:#004061"
   d="m 161.759,398.711 -6.455,-0.941 -1.586,10.829 c 0,0 6.918,-0.48 8.041,-9.888 z"
   id="path166" />

			<polygon
   style="fill:#5a889f"
   points="152.14,415.197 151.605,418.68 174.795,423.185 175.407,419.728 "
   id="polygon166" />

		</g>

		<g
   id="g173">
			<g
   id="g169">
				<path
   style="fill:#007eaa"
   d="m 180.419,409.191 c 0,0 7.357,-2.171 11.459,-2.311 0,0 -7.045,2.213 -11.459,2.311 z"
   id="path167" />

				<path
   style="fill:#007eaa"
   d="m 180.999,412.059 c 0,0 7.356,-2.17 11.457,-2.31 0,0 -7.046,2.21 -11.457,2.31 z"
   id="path168" />

				<path
   style="fill:#007eaa"
   d="m 181.551,414.804 c 0,0 7.356,-2.173 11.458,-2.312 0,0 -7.046,2.213 -11.458,2.312 z"
   id="path169" />

			</g>

			<g
   id="g172">
				<path
   style="fill:#007eaa"
   d="m 170.896,409.191 c 0,0 -7.359,-2.171 -11.461,-2.311 0,0 7.048,2.213 11.461,2.311 z"
   id="path170" />

				<path
   style="fill:#007eaa"
   d="m 170.316,412.059 c 0,0 -7.356,-2.17 -11.457,-2.31 0,0 7.045,2.21 11.457,2.31 z"
   id="path171" />

				<path
   style="fill:#007eaa"
   d="m 169.763,414.804 c 0,0 -7.357,-2.173 -11.459,-2.312 0,0 7.047,2.213 11.459,2.312 z"
   id="path172" />

			</g>

		</g>

	</g>

	<g
   id="g179">
		<rect
   x="203.51401"
   y="407.29599"
   style="fill:#e8457a"
   width="6.6750002"
   height="2.983"
   id="rect174" />

		<rect
   x="205.24001"
   y="407.29599"
   style="fill:#b44175"
   width="4.9489999"
   height="2.983"
   id="rect175" />

		<g
   id="g176">
			<path
   style="fill:#571528"
   d="m 206.839,408.49 c 0.078,-1.339 0.824,-2.406 1.729,-2.566 -0.036,-0.004 -0.069,-0.018 -0.104,-0.021 -1.039,-0.059 -1.952,1.099 -2.039,2.587 -0.086,1.489 0.687,2.745 1.727,2.805 0.104,0.006 0.207,-0.004 0.309,-0.021 -0.984,-0.137 -1.705,-1.347 -1.622,-2.784 z"
   id="path175" />

			<path
   style="fill:#e8457a"
   d="m 210.189,408.707 c 0.084,-1.435 -0.636,-2.645 -1.62,-2.783 -0.905,0.16 -1.651,1.228 -1.729,2.566 -0.083,1.437 0.638,2.646 1.621,2.783 0.905,-0.159 1.652,-1.226 1.728,-2.566 z"
   id="path176" />

		</g>

		<path
   style="fill:#242422"
   d="m 208.961,408.692 c 0,0.054 -0.043,0.095 -0.095,0.095 h -1.551 c -0.053,0 -0.095,-0.041 -0.095,-0.095 v 0 c 0,-0.052 0.042,-0.094 0.095,-0.094 h 1.551 c 0.053,10e-4 0.095,0.043 0.095,0.094 z"
   id="path177" />

		<path
   style="fill:#242422"
   d="m 208.886,408.787 c -0.041,0 -0.073,-0.033 -0.073,-0.074 v -1.228 c 0,-0.041 0.032,-0.075 0.073,-0.075 v 0 c 0.041,0 0.075,0.034 0.075,0.075 v 1.228 c 0,0.041 -0.034,0.074 -0.075,0.074 z"
   id="path178" />

		<path
   style="fill:#b44175"
   d="m 208.569,405.924 c -0.905,0.16 -1.651,1.228 -1.729,2.566 -0.083,1.437 0.638,2.646 1.621,2.783 0.905,-0.159 1.652,-1.227 1.729,-2.566 0.083,-1.435 -0.637,-2.644 -1.621,-2.783 z m -0.097,4.65 c -0.755,-0.105 -1.309,-1.035 -1.246,-2.142 0.061,-1.029 0.634,-1.851 1.331,-1.974 0.756,0.105 1.31,1.035 1.245,2.143 -0.058,1.031 -0.632,1.851 -1.33,1.973 z"
   id="path179" />

	</g>

	<g
   id="g181">
		<path
   style="fill:#f1f1f1"
   d="m 184.613,359.585 c 0,0 -2.639,-4.755 -4.735,-1.418 -1.755,2.793 4.972,6.614 4.972,6.614 0,0 4.4,-3.292 4.722,-5.944 0.32,-2.653 -3.838,-3.067 -4.959,0.748 z"
   id="path180" />

		<path
   style="fill:#d5d5d5"
   d="m 179.83,360.195 c 1.031,2.318 5.02,4.586 5.02,4.586 0,0 3.057,-2.287 4.26,-4.586 z"
   id="path181" />

	</g>

	<path
   style="fill:#e1b58c"
   d="m 181.224,340.377 c 0,1.161 -2.781,6.614 -5.563,6.614 -2.781,0 -5.562,-5.453 -5.562,-6.614 v -10.378 c 0,-2.323 1.882,-4.206 4.204,-4.206 h 2.715 c 2.322,0 4.205,1.883 4.205,4.206 v 10.378 z"
   id="path182" />

	<g
   id="g212">
		<g
   id="g211">
			<path
   style="fill:#f38c00"
   d="m 201.15,291.033 c 0,0 11.072,-2.227 17.542,6.731 6.471,8.959 2.895,17.608 -3.411,26.627 -4.119,5.261 -3.016,8.36 -1.386,9.978 -1.303,1.758 -1.303,1.758 -1.303,1.758 l -2.377,-1.773 1.32,3.112 c 0,0 -2.354,2.99 -7.637,2.657 -1.179,-0.182 -2.852,-6.239 -2.852,-6.239 l 0.596,4.257 c 0,0 -4.609,1.009 -4.355,-4.711 0.25,-5.719 2.476,-34.151 3.863,-42.397 z"
   id="path183" />

			<g
   style="opacity:0.5"
   id="g184">
				<path
   style="fill:#f38c00"
   d="m 206.162,323.112 c 2.873,-4.363 3.824,-6.576 3.797,-13.884 -0.025,-7.309 4.282,-11.257 2.081,-14.968 -0.581,-0.979 -0.404,-1.534 0.166,-1.825 -5.527,-2.509 -11.056,-1.402 -11.056,-1.402 -1.387,8.246 -3.613,36.678 -3.863,42.397 -0.254,5.72 4.355,4.711 4.355,4.711 l -0.596,-4.257 c 0,0 1.673,6.058 2.852,6.239 0.96,0.06 1.82,0.011 2.59,-0.111 -3.614,-6.381 -2.699,-13.293 -0.326,-16.9 z"
   id="path184" />

			</g>

			<path
   style="fill:#f38c00"
   d="m 147.027,296.366 c 0,0 -11.486,0.122 -13.363,13.458 -1.087,6.801 1.184,11.085 3.162,15.535 1.975,4.454 0.756,7.387 -2.742,9.142 2.309,2.215 3.28,1.713 3.28,1.713 0,0 2.724,-2.934 3.088,-4.228 0.14,2.267 -2.767,6.6 -2.767,6.6 0,0 2.922,1.408 4.42,1.503 2.748,-0.298 6.258,-3.745 6.636,-8.238 0.391,2.753 0.05,3.673 0.05,3.673 0,0 1.888,-1.575 3.102,-2.909 0.23,-5.161 0.874,-27.325 -4.866,-36.249 z"
   id="path185" />

			<g
   style="opacity:0.5"
   id="g186">
				<path
   style="fill:#f38c00"
   d="m 147.027,296.366 c 0,0 -2.686,0.031 -5.67,1.569 0.696,0.653 0.994,1.461 0.488,2.453 -1.86,7.788 11.03,27.753 -0.578,39.558 0.305,0.073 0.592,0.127 0.838,0.143 2.748,-0.298 6.258,-3.745 6.636,-8.238 0.391,2.753 0.05,3.673 0.05,3.673 0,0 1.888,-1.575 3.102,-2.909 0.23,-5.161 0.874,-27.325 -4.866,-36.249 z"
   id="path186" />

			</g>

			<path
   style="fill:#e50e74"
   d="m 202.101,288.136 1.371,5.015 c 0,0 -0.307,3.809 2.589,6.261 2.526,-3.018 2.526,-3.018 2.526,-3.018 l -4.359,-2.87 c 0,0 1.98,-4.675 1.86,-5.85 -0.158,-0.595 -3.987,0.462 -3.987,0.462 z"
   id="path187" />

			<path
   style="fill:#f4d9bf"
   d="m 199.611,308.576 c -6.649,-4.425 -12.254,-16.789 -12.254,-16.789 l -1.497,3.15 c 0,0 0,0 -0.78,-3.08 -1.389,1.429 -5.508,3.226 -5.508,3.226 0,0 0.918,-0.809 2.295,-3.752 -7.618,5.797 -20.968,8.094 -30.407,8.472 2.063,8.464 0.727,12.494 -1.067,16.926 -1.9,12.976 9.74,17.173 21.039,18.21 11.299,1.038 20.956,-2.79 24.76,-8.179 1.899,-2.695 4.269,-11.095 3.419,-18.184 z"
   id="path188" />

			<g
   id="g190">
				<path
   style="fill:#673121"
   d="m 164.442,307.063 c 0.008,1.388 -0.432,2.518 -0.98,2.523 -0.549,0.009 -1.001,-1.108 -1.009,-2.494 -0.007,-1.388 0.434,-2.518 0.982,-2.522 0.549,-0.01 0.999,1.11 1.007,2.493 z"
   id="path189" />

				<path
   style="fill:#ffffff"
   d="m 163.298,306.029 c -0.028,0.419 -0.186,0.746 -0.352,0.734 -0.167,-0.013 -0.277,-0.363 -0.249,-0.782 0.029,-0.42 0.186,-0.748 0.354,-0.735 0.166,0.014 0.277,0.364 0.247,0.783 z"
   id="path190" />

			</g>

			<g
   id="g192">
				<path
   style="fill:#673121"
   d="m 182.781,306.289 c -0.047,1.462 -0.553,2.634 -1.131,2.621 -0.578,-0.012 -1.013,-1.207 -0.965,-2.668 0.047,-1.459 0.553,-2.633 1.132,-2.618 0.579,0.011 1.01,1.208 0.964,2.665 z"
   id="path191" />

				<path
   style="fill:#ffffff"
   d="m 181.618,305.156 c -0.048,0.439 -0.227,0.779 -0.399,0.762 -0.175,-0.021 -0.278,-0.396 -0.232,-0.836 0.046,-0.44 0.226,-0.781 0.399,-0.758 0.175,0.019 0.278,0.392 0.232,0.832 z"
   id="path192" />

			</g>

			<path
   style="fill:#96172d"
   d="m 164.544,319.157 c 0,0 11.831,2.385 21.385,-4.59 0.54,6.075 -2.48,13.36 -8.767,13.987 -6.286,0.63 -11.377,-6.347 -12.618,-9.397 z"
   id="path193" />

			<g
   id="g195">
				<path
   style="fill:#ffffff"
   d="m 175.464,321.383 c 2.598,-0.629 3.809,-2.319 4.367,-3.59 -4.033,1.47 -7.952,1.791 -10.816,1.754 1.174,1.041 3.481,2.552 6.449,1.836 z"
   id="path194" />

				<path
   style="fill:#ed776f"
   d="m 172.556,327.707 c 1.424,0.659 2.975,1.012 4.606,0.848 2.681,-0.268 4.766,-1.746 6.237,-3.828 -5.985,-1.77 -9.271,0.881 -10.843,2.98 z"
   id="path195" />

			</g>

			<g
   id="g197">
				<path
   style="fill:#c39368"
   d="m 161.407,317.137 c 0,0 0.067,0.079 0.214,0.201 0.145,0.127 0.378,0.286 0.682,0.472 0.305,0.185 0.698,0.371 1.156,0.553 0.465,0.17 1.001,0.328 1.592,0.469 0.595,0.135 1.247,0.233 1.939,0.306 0.35,0.025 0.707,0.049 1.072,0.073 0.365,0.007 0.74,0.013 1.122,0.018 0.38,0.018 0.769,-0.021 1.159,-0.027 0.392,-0.012 0.789,-0.032 1.189,-0.07 0.399,-0.036 0.801,-0.07 1.204,-0.106 l 1.212,-0.162 0.584,-0.075 0.6,-0.135 c 0.401,-0.089 0.798,-0.179 1.192,-0.267 l 0.591,-0.132 0.564,-0.169 c 0.373,-0.113 0.742,-0.225 1.105,-0.335 0.182,-0.056 0.362,-0.11 0.541,-0.164 0.176,-0.065 0.35,-0.131 0.521,-0.196 0.347,-0.125 0.686,-0.251 1.014,-0.371 0.664,-0.229 1.256,-0.533 1.825,-0.768 0.56,-0.246 1.056,-0.513 1.511,-0.723 0.448,-0.22 0.825,-0.438 1.145,-0.603 0.627,-0.354 0.979,-0.568 0.979,-0.568 0,0 -0.317,0.262 -0.912,0.674 -0.302,0.196 -0.661,0.448 -1.092,0.709 -0.435,0.252 -0.915,0.565 -1.471,0.84 -0.557,0.268 -1.143,0.606 -1.802,0.878 -0.661,0.264 -1.327,0.615 -2.081,0.836 -0.372,0.122 -0.75,0.248 -1.131,0.375 l -0.578,0.189 -0.589,0.138 c -0.394,0.092 -0.792,0.186 -1.19,0.279 l -0.6,0.139 -0.638,0.091 -1.231,0.153 c -0.413,0.031 -0.824,0.065 -1.231,0.096 -0.407,0.04 -0.813,0.051 -1.213,0.048 -0.401,-0.002 -0.797,0.027 -1.189,-0.002 -0.39,-0.021 -0.771,-0.029 -1.146,-0.063 -0.373,-0.045 -0.738,-0.088 -1.095,-0.13 -0.707,-0.114 -1.37,-0.252 -1.973,-0.423 -0.603,-0.171 -1.137,-0.386 -1.597,-0.601 -0.454,-0.23 -0.835,-0.452 -1.131,-0.669 -0.588,-0.43 -0.823,-0.778 -0.823,-0.778 z"
   id="path196" />

				<path
   style="fill:#c39368"
   d="m 185.736,312.554 c 0,0 0.205,0.007 0.441,0.173 0.121,0.08 0.241,0.205 0.34,0.372 0.036,0.09 0.096,0.181 0.107,0.288 0.025,0.105 0.027,0.216 0.023,0.327 -0.027,0.22 -0.111,0.423 -0.23,0.571 -0.116,0.15 -0.252,0.253 -0.375,0.319 -0.119,0.077 -0.241,0.098 -0.317,0.121 -0.079,0.021 -0.128,0.024 -0.128,0.024 0,0 0.071,-0.19 0.18,-0.404 0.021,-0.057 0.047,-0.115 0.079,-0.17 0.022,-0.059 0.038,-0.123 0.067,-0.179 0.031,-0.057 0.025,-0.121 0.055,-0.174 0.012,-0.058 0.024,-0.113 0.025,-0.169 0.018,-0.11 -0.002,-0.222 -0.014,-0.342 -0.027,-0.118 -0.061,-0.24 -0.1,-0.353 -0.092,-0.241 -0.153,-0.404 -0.153,-0.404 z"
   id="path197" />

			</g>

			<g
   id="g199">
				<path
   style="fill:#efcaa6"
   d="m 148.886,309.183 c -2.618,2.553 -2.007,8.141 1.506,7.546 0.995,-2.455 1.844,-4.787 2.059,-7.815 -1.311,-0.633 -2.532,-0.356 -3.565,0.269 z"
   id="path198" />

				<path
   style="fill:#f39f00"
   d="m 192.833,280.441 c -12.804,-8.059 -38.584,-4.273 -44.446,8.02 -5.862,12.294 0.993,20.303 0.993,20.303 -0.178,0.127 -0.341,0.268 -0.494,0.419 1.033,-0.625 2.254,-0.901 3.564,-0.27 0.172,-2.441 -0.069,-5.332 -0.991,-9.11 9.439,-0.378 22.789,-2.675 30.407,-8.472 -1.377,2.943 -2.295,3.752 -2.295,3.752 0,0 4.119,-1.797 5.508,-3.226 0.78,3.08 0.78,3.08 0.78,3.08 l 1.497,-3.15 c 0,0 5.604,12.364 12.254,16.789 0.851,7.089 -1.52,15.488 -3.42,18.184 18.612,-13.655 9.449,-38.261 -3.357,-46.319 z"
   id="path199" />

			</g>

			<polygon
   style="fill:#e50e74"
   points="145.792,296.69 146.693,302.55 142.419,302.221 144.772,296.565 140.331,294.108 145.16,291.388 "
   id="polygon199" />

			<path
   style="fill:#cc6809"
   d="m 161.124,301.204 c 0.2,-1.379 2.428,-1.833 2.951,-0.418 0.161,0.438 -0.356,0.712 -0.667,0.406 -0.246,-0.243 -0.373,-0.509 -0.762,-0.501 -0.412,0.01 -1.012,0.286 -1.266,0.614 -0.084,0.111 -0.279,0.047 -0.256,-0.101 z"
   id="path200" />

			<path
   style="fill:#cc6809"
   d="m 182.35,298.69 c -0.195,-1.381 -2.421,-1.841 -2.95,-0.428 -0.163,0.436 0.352,0.709 0.667,0.408 0.247,-0.242 0.374,-0.506 0.763,-0.498 0.412,0.01 1.012,0.288 1.263,0.619 0.084,0.109 0.279,0.044 0.257,-0.101 z"
   id="path201" />

			<path
   style="fill:#c39368"
   d="m 170.132,311.7 c -0.389,-0.76 -0.244,-1.68 0.457,-2.199 0.444,-0.329 1.025,-0.394 1.59,-0.36 -0.623,-0.271 -1.24,-0.262 -1.865,0.121 -0.713,0.436 -0.783,1.178 -0.748,1.939 0.034,0.81 0.422,1.354 1.099,1.751 0.504,0.299 1.248,0.478 1.7,0.064 -0.926,-0.081 -1.819,-0.504 -2.233,-1.316 z"
   id="path202" />

			<path
   style="fill:#f9cbc0"
   d="m 190.15,308.364 c 0.091,0.7 -1.202,1.446 -2.887,1.666 -1.685,0.22 -3.125,-0.172 -3.216,-0.872 -0.091,-0.701 1.2,-1.447 2.885,-1.664 1.687,-0.22 3.125,0.17 3.218,0.87 z"
   id="path203" />

			<path
   style="fill:#f9cbc0"
   d="m 160.691,312.465 c -0.078,0.703 -1.507,1.125 -3.197,0.942 -1.69,-0.182 -2.998,-0.9 -2.922,-1.602 0.074,-0.703 1.506,-1.126 3.195,-0.942 1.689,0.182 2.998,0.899 2.924,1.602 z"
   id="path204" />

			<g
   style="opacity:0.5"
   id="g207">
				<path
   style="fill:#f39f00"
   d="m 149.498,297.461 c 1.333,4.951 1.416,8.576 1.068,11.115 0.598,-0.068 1.23,0.022 1.885,0.337 0.172,-2.441 -0.069,-5.332 -0.991,-9.11 9.439,-0.378 22.789,-2.675 30.407,-8.472 -1.377,2.943 -2.295,3.752 -2.295,3.752 0,0 0.303,-0.134 0.766,-0.351 1.185,-1.719 2.733,-4.327 3.902,-7.582 -7.393,9.114 -24.758,11.59 -34.742,10.311 z"
   id="path205" />

				<path
   style="fill:#f39f00"
   d="m 186.079,286.293 -1.945,6.336 c 0.373,-0.26 0.703,-0.521 0.946,-0.772 0.78,3.08 0.78,3.08 0.78,3.08 l 0.148,-0.313 c -0.827,-4.08 0.071,-8.331 0.071,-8.331 z"
   id="path206" />

				<path
   style="fill:#f39f00"
   d="m 200.974,307.527 c -9.344,-6.273 -13.249,-19.02 -13.249,-19.02 -0.097,1.524 -0.073,2.886 0.006,4.068 1.358,2.791 6.243,12.25 11.88,16 0.344,2.868 0.157,5.945 -0.309,8.777 1.162,-3.312 1.66,-6.71 1.672,-9.825 z"
   id="path207" />

			</g>

			<path
   style="fill:#efcaa6"
   d="m 199.86,311.514 c 0,0 4.034,-2.234 6.365,0.294 2.329,2.527 0.978,8.219 -3.602,8.08 -2.136,-0.135 -3.343,-1.558 -3.343,-1.558 z"
   id="path208" />

			<g
   id="g210">
				<path
   style="fill:#c39368"
   d="m 200.549,315.995 c 0,0 0.058,-0.316 0.324,-0.704 0.257,-0.391 0.739,-0.84 1.345,-1.073 0.15,-0.064 0.309,-0.097 0.461,-0.137 0.152,-0.048 0.314,-0.039 0.461,-0.058 0.148,-0.018 0.293,0.009 0.43,0.016 0.135,0.001 0.259,0.046 0.375,0.071 0.227,0.047 0.401,0.141 0.524,0.201 0.12,0.061 0.185,0.103 0.185,0.103 0,0 -0.08,0.013 -0.211,0.023 -0.066,0.004 -0.146,0.009 -0.236,0.014 -0.088,-0.001 -0.188,0.023 -0.293,0.03 -0.215,0.017 -0.454,0.06 -0.704,0.108 -0.247,0.061 -0.507,0.123 -0.753,0.229 -0.254,0.082 -0.485,0.224 -0.715,0.341 -0.219,0.132 -0.429,0.262 -0.601,0.387 -0.351,0.249 -0.592,0.449 -0.592,0.449 z"
   id="path209" />

				<path
   style="fill:#c39368"
   d="m 149.061,312.1 c 0,0 0.23,-0.036 0.545,0.047 0.157,0.04 0.337,0.103 0.515,0.204 0.184,0.095 0.354,0.235 0.518,0.39 0.148,0.165 0.289,0.346 0.374,0.542 0.093,0.191 0.138,0.39 0.149,0.56 0.031,0.339 -0.094,0.553 -0.081,0.549 -0.011,0.003 -0.111,-0.2 -0.275,-0.435 -0.081,-0.117 -0.173,-0.246 -0.281,-0.375 -0.044,-0.07 -0.117,-0.125 -0.167,-0.195 -0.053,-0.068 -0.124,-0.128 -0.183,-0.194 -0.249,-0.259 -0.528,-0.509 -0.743,-0.718 -0.22,-0.207 -0.371,-0.375 -0.371,-0.375 z"
   id="path210" />

			</g>

		</g>

	</g>

</g>
  </g>
</svg>
