<?xml version="1.0" encoding="UTF-8" standalone="no"?>
<!-- Created with Inkscape (http://www.inkscape.org/) -->

<svg
   width="99.931099mm"
   height="182.98334mm"
   viewBox="0 0 99.931105 182.98335"
   version="1.1"
   id="svg1"
   inkscape:version="1.4.2 (f4327f4, 2025-05-13)"
   sodipodi:docname="girl5.svg"
   xmlns:inkscape="http://www.inkscape.org/namespaces/inkscape"
   xmlns:sodipodi="http://sodipodi.sourceforge.net/DTD/sodipodi-0.dtd"
   xmlns="http://www.w3.org/2000/svg"
   xmlns:svg="http://www.w3.org/2000/svg">
  <sodipodi:namedview
     id="namedview1"
     pagecolor="#ffffff"
     bordercolor="#000000"
     borderopacity="0.25"
     inkscape:showpageshadow="2"
     inkscape:pageopacity="0.0"
     inkscape:pagecheckerboard="0"
     inkscape:deskcolor="#d1d1d1"
     inkscape:document-units="mm"
     inkscape:zoom="1.2275954"
     inkscape:cx="-197.94796"
     inkscape:cy="215.86917"
     inkscape:window-width="2880"
     inkscape:window-height="1676"
     inkscape:window-x="-12"
     inkscape:window-y="-12"
     inkscape:window-maximized="1"
     inkscape:current-layer="layer1" />
  <defs
     id="defs1">
    <clipPath
       clipPathUnits="userSpaceOnUse"
       id="clipPath119">
      <path
         d="m 2429.58,8528.87 v 0 l -1.54,4.27 c 7.66,35.49 -15.79,67.53 -15.79,67.53 10.47,20.59 15.22,39.01 16.15,55.3 95.03,81.21 245.93,222.7 239.94,298.46 -6.68,84.06 -297.09,299.7 -435.14,397.71 -1.96,12.33 -3.87,24.38 -5.72,36.02 -4.67,29.42 -8.97,56.5 -12.82,80.63 v 0 c 0,0 399.66,-281.36 528.14,-436.13 0,0 44.89,-42.39 44.81,-102.96 0,-4.99 -0.32,-10.11 -0.98,-15.34 -8.76,-68.62 -357.05,-385.49 -357.05,-385.49"
         transform="translate(0,2.5000001e-4)"
         id="path119" />
    </clipPath>
    <clipPath
       clipPathUnits="userSpaceOnUse"
       id="clipPath299">
      <path
         d="m 6622.23,11070.3 c 4.28,3.8 8.4,7.9 12.38,12.2 -0.48,-0.6 -0.96,-1.2 -1.45,-1.8 -3.23,-3.4 -6.57,-6.6 -10.01,-9.8 -0.22,-0.1 -0.44,-0.3 -0.66,-0.4 l -0.26,-0.2"
         transform="translate(0,2.5000001e-4)"
         id="path299" />
    </clipPath>
    <clipPath
       clipPathUnits="userSpaceOnUse"
       id="clipPath602">
      <path
         d="m 4237.98,3522.14 c 0,0 0,0.01 0,0.02 0,-0.01 0,-0.01 0,-0.02 m 0.01,0.2 c 0,0.1 0.01,0.2 0.01,0.3 0,-0.1 -0.01,-0.2 -0.01,-0.3"
         transform="translate(0,2.5000001e-4)"
         id="path602" />
    </clipPath>
  </defs>
  <g
     inkscape:label="图层 1"
     inkscape:groupmode="layer"
     id="layer1"
     transform="translate(-157.1623,-229.39354)">
    <path
       id="path430"
       d="m 256.29189,345.22472 c 0.10231,-1.17052 0.45473,-2.29341 0.80151,-3.41348 -0.0896,0.15557 -0.18838,0.33373 -0.28751,0.5341 -0.18345,0.38488 -0.38488,0.8435 -0.53728,1.35573 -0.16934,0.51223 -0.28434,1.07527 -0.36689,1.64289 -0.0198,0.28857 -0.0632,0.57538 -0.0575,0.86007 -0.002,0.28328 -0.006,0.56515 0.0303,0.83467 0.0307,0.26987 0.0536,0.53093 0.12242,0.77223 0.0593,0.23954 0.0952,0.47272 0.18697,0.67204 0.0751,0.20179 0.15099,0.38312 0.21908,0.54328 0.0811,0.15769 0.16016,0.28681 0.22119,0.39582 0.0504,0.085 0.0903,0.14993 0.12241,0.20214 -0.43885,-1.41147 -0.58984,-2.8769 -0.45473,-4.39949"
       style="fill:#b88459;fill-opacity:1;fill-rule:nonzero;stroke:none;stroke-width:0.0352778" />
    <path
       id="path431"
       d="m 254.75096,342.30407 -0.0198,0.0399 c -0.18873,0.38629 -0.38135,0.8509 -0.53587,1.37054 -0.0811,0.2533 -0.14181,0.52847 -0.20496,0.80434 -0.0413,0.28257 -0.0988,0.5655 -0.12206,0.85407 -0.0145,0.28963 -0.0469,0.57856 -0.0307,0.86572 0.002,0.28434 0.025,0.56656 0.0702,0.83608 0.0321,0.27164 0.0808,0.52917 0.15628,0.76765 0.0646,0.242 0.12418,0.46778 0.22295,0.66357 0.0825,0.20214 0.16369,0.38136 0.24307,0.53728 0.0843,0.14076 0.15945,0.25824 0.22437,0.36478 -0.7747,-2.25778 -0.75707,-4.84047 -0.004,-7.10389"
       style="fill:#b88459;fill-opacity:1;fill-rule:nonzero;stroke:none;stroke-width:0.0352778" />
    <path
       id="path432"
       d="m 253.18674,343.16979 c -0.11324,0.23459 -0.23213,0.50941 -0.33267,0.81421 -0.11324,0.33302 -0.1905,0.6985 -0.26247,1.06715 -0.0448,0.37218 -0.0829,0.74718 -0.0663,1.10208 0.007,0.35313 0.0593,0.68368 0.12736,0.95779 0.0667,0.26211 0.1404,0.47272 0.21766,0.62018 -0.30903,-1.52047 -0.22648,-3.14536 0.31644,-4.56141"
       style="fill:#b88459;fill-opacity:1;fill-rule:nonzero;stroke:none;stroke-width:0.0352778" />
    <path
       id="path568"
       d="m 215.74502,233.13169 c 0,0 -16.32514,-10.49267 -30.86841,3.68053 0,0 -5.10222,3.27977 -7.18785,9.20679 -2.08915,5.92808 -10.3131,12.74657 -10.56816,19.72169 -0.25365,6.97407 -1.59315,7.46372 -4.42489,8.89671 -2.83351,1.43016 -4.41749,3.65372 -2.61761,6.70701 1.79599,3.0547 -0.55563,2.75696 -1.81928,3.83963 -1.26577,1.08268 -1.08797,3.55283 -1.08797,3.55283 0,0 1.13101,2.41864 3.66783,3.42159 2.53824,0.99836 4.22311,0.65334 5.03203,2.58057 0.81103,1.9311 1.95968,4.1208 5.72664,4.50568 3.76837,0.39123 5.43666,0.27869 6.72782,2.12337 1.2887,1.8482 6.81955,0.83961 8.70727,2.61408 1.88771,1.77377 6.62128,5.27262 13.24539,5.51497 3.44735,0.127 6.11929,-0.5849 8.60884,-1.29645 2.29447,-0.65617 4.43371,-1.31234 6.88199,-1.31163 5.0987,0.002 10.11484,1.18145 13.03655,-1.53141 2.92523,-2.71321 3.09245,-1.76565 7.47748,-1.68204 4.38502,0.0818 5.43666,0.2741 7.19878,-2.7552 1.7586,-3.0286 1.67393,-3.50591 4.08129,-3.97616 2.40382,-0.46566 6.46888,-2.51883 7.32684,-4.55965 0,0 -3.17712,-3.65584 -4.25238,-3.53907 -1.07527,0.12242 1.35396,-5.63492 -2.6536,-5.93936 -4.0132,-0.30833 -4.45735,-2.4063 -3.01695,-5.88716 1.43615,-3.4791 -0.73167,-4.69124 -3.70029,-7.9435 -2.96792,-3.25402 -5.8988,-15.23436 -7.70396,-19.82893 -1.80305,-4.59105 -4.9209,-15.61536 -17.8174,-16.11489"
       style="fill:#d14620;fill-opacity:1;fill-rule:nonzero;stroke:none;stroke-width:0.0352778" />
    <path
       id="path569"
       d="m 224.18452,270.12573 -42.8244,-9.85449 -3.97686,-1.89865 c 0,0 4.14196,-0.97755 4.92795,-11.2963 l 0.0702,-0.95215 c 0,0 -1.4224,-0.21272 -2.67405,-1.07139 0,0 26.78747,-2.13042 34.61914,-8.93198 0,0 5.59682,13.66591 19.20699,20.12915 l -2.20028,1.01953 c 0,0 -2.07327,5.59999 -0.24306,8.1975 l -6.90563,4.65878"
       style="fill:#a61c21;fill-opacity:1;fill-rule:nonzero;stroke:none;stroke-width:0.0352778" />
    <path
       id="path570"
       d="m 170.82582,349.35257 c -0.248,0.28787 -0.381,0.43674 -0.381,0.43674 1.70992,3.51155 13.17132,11.47727 27.53502,13.4881 -9.6012,-1.42169 -22.41445,-11.73339 -24.76077,-13.28737 -1.31622,-0.87207 -2.02283,-0.83679 -2.39325,-0.63747"
       style="fill:#305c76;fill-opacity:1;fill-rule:nonzero;stroke:none;stroke-width:0.0352778" />
    <path
       id="path571"
       d="m 188.64322,358.99116 c 0,0 6.33942,32.99182 5.81625,35.32015 -0.5267,2.33176 -3.69464,6.82266 -6.90951,9.44383 -3.21275,2.62819 -6.60153,5.18929 -1.57092,5.73264 5.03414,0.53619 9.0417,-0.84307 10.08239,-2.86812 1.03928,-2.03189 0.66852,-3.11147 1.03928,-2.03189 0.36478,1.07939 0.93487,3.04793 0.93487,3.04793 l 1.3469,-0.16578 c 0,0 0.8322,-7.83166 -0.0307,-14.38271 -0.86148,-6.55123 -3.07834,-31.35143 -3.07834,-31.35143 l -7.63023,-2.74462"
       style="fill:#f1cead;fill-opacity:1;fill-rule:nonzero;stroke:none;stroke-width:0.0352778" />
    <path
       id="path572"
       d="m 189.77211,364.96369 c -7.1e-4,0 -0.001,0 -0.001,0 -0.27482,-1.47461 -0.51541,-2.75166 -0.70309,-3.74297 h 3.5e-4 c 0.18733,0.99131 0.42828,2.26836 0.70415,3.74297 m 6.77051,-0.25047 c -0.06,-0.65617 -0.11112,-1.22414 -0.1524,-1.68275 v 0 c 0.0416,0.45861 0.0928,1.02658 0.1524,1.68275"
       style="fill:#ecd3ba;fill-opacity:1;fill-rule:nonzero;stroke:none;stroke-width:0.0352778" />
    <path
       id="path573"
       d="m 196.39022,363.03047 v 0 c -0.002,-0.0212 -0.004,-0.0423 -0.006,-0.06 h 3.5e-4 c 0.002,0.0176 0.004,0.0388 0.005,0.06 m -7.32226,-1.80975 h -3.5e-4 c -0.0445,-0.23636 -0.0861,-0.45508 -0.12453,-0.65969 0.0384,0.20461 0.0801,0.42333 0.12488,0.65969"
       style="fill:#284c59;fill-opacity:1;fill-rule:nonzero;stroke:none;stroke-width:0.0352778" />
    <path
       id="path574"
       d="m 196.77863,367.32025 c -2.49449,-0.42686 -4.95194,-1.16064 -7.00652,-2.35656 -0.27587,-1.47461 -0.51682,-2.75166 -0.70415,-3.74297 -0.0448,-0.23636 -0.0864,-0.45508 -0.12488,-0.65969 -0.0332,-0.17287 -0.0639,-0.33514 -0.0917,-0.48331 2.52518,1.27 5.10293,2.31775 7.53322,2.89278 0.002,0.0176 0.004,0.0388 0.006,0.06 0.0413,0.45861 0.0924,1.02658 0.1524,1.68275 0.0684,0.75847 0.14817,1.63689 0.23601,2.60703"
       style="fill:#e0ae84;fill-opacity:1;fill-rule:nonzero;stroke:none;stroke-width:0.0352778" />
    <path
       id="path575"
       d="m 205.95861,361.90864 c 0.0706,0.26811 4.75404,31.55943 4.94454,35.08019 0.19085,3.52075 -1.02623,14.22053 4.14619,15.29292 5.17243,1.07597 4.26085,-7.26723 3.05471,-10.27646 -1.2065,-3.00563 -2.55517,-6.52279 -2.80318,-9.26042 -0.24765,-2.73402 -2.10855,-31.19254 -2.10855,-31.19254 l -7.23371,0.35631"
       style="fill:#f1cead;fill-opacity:1;fill-rule:nonzero;stroke:none;stroke-width:0.0352778" />
    <path
       id="path576"
       d="m 206.83456,367.69066 c -0.23848,-1.60866 -0.44309,-2.97038 -0.59443,-3.96875 h 3.5e-4 c 0.15134,0.99837 0.35631,2.36009 0.59584,3.96875 -3.5e-4,0 -0.001,0 -0.002,0"
       style="fill:#ecd3ba;fill-opacity:1;fill-rule:nonzero;stroke:none;stroke-width:0.0352778" />
    <path
       id="path577"
       d="m 206.83632,367.69066 c -0.23953,-1.60866 -0.4445,-2.97038 -0.59584,-3.96875 0.34714,-0.0141 0.69462,-0.0282 1.04352,-0.0494 2.20027,-0.13406 4.19135,-0.42687 5.99158,-0.83609 0.0575,0.87489 0.14146,2.159 0.24377,3.70417 -2.18052,0.64205 -4.48451,0.98425 -6.68303,1.15005"
       style="fill:#e0ae84;fill-opacity:1;fill-rule:nonzero;stroke:none;stroke-width:0.0352778" />
    <path
       id="path578"
       d="m 201.27549,287.47005 -0.16369,2.27013 c 0,0 -4.49474,-0.67346 -6.47065,3.30376 -1.97767,3.98145 -6.11999,12.09781 -10.96716,18.85174 -4.84364,6.75358 -6.86823,10.1152 -8.43068,10.79324 -1.56034,0.67663 -6.8573,2.16499 -5.89174,2.76225 0.48542,0.29774 1.70109,-0.0275 2.77953,-0.35313 1.07174,-0.3235 2.00837,-0.647 1.95827,-0.35878 -0.10089,0.57715 -5.19465,4.59529 -3.8354,4.63586 0.62371,0.0173 1.71168,-0.89818 2.69699,-1.81328 1.16805,-1.0855 2.19145,-2.17064 2.12513,-1.7018 -0.12206,0.8703 -3.61527,5.703 -2.27824,5.27332 1.33809,-0.42863 4.32647,-5.71006 3.97722,-4.15643 -0.3489,1.55505 -2.04576,6.16726 -0.47449,4.93536 1.56951,-1.23013 2.48814,-6.60153 3.04059,-5.9757 0.54787,0.62195 0.83397,4.0326 1.78682,3.16865 0.95462,-0.86819 -0.0737,-4.74169 -0.71014,-5.78203 -0.63641,-1.03893 12.65379,-20.0152 12.65379,-20.0152 l 19.37985,-6.37787 c 0,0 12.02408,11.74221 11.1252,12.67072 -0.89712,0.92569 -6.06602,5.99123 -6.06602,5.99123 l 1.46015,3.61138 c 0,0 8.18198,-8.17598 8.59402,-9.78288 0.41134,-1.60725 -7.45102,-10.18505 -9.46997,-12.60934 -2.0193,-2.4264 -5.32341,-5.99334 -7.18079,-6.53908 -1.85737,-0.54469 -4.82565,-0.8756 -4.82565,-0.8756 l 0.15487,-2.10573 -4.96781,0.17921"
       style="fill:#eabd92;fill-opacity:1;fill-rule:nonzero;stroke:none;stroke-width:0.0352778" />
    <path
       id="path579"
       d="m 201.27549,287.47005 -0.16369,2.27013 c 0,0 -4.49474,-0.67346 -6.47065,3.30376 -1.97767,3.98145 -6.11999,12.09781 -10.96716,18.85174 -4.84364,6.75358 -6.86823,10.1152 -8.43068,10.79324 -1.56034,0.67663 -6.8573,2.16499 -5.89174,2.76225 0.48542,0.29774 1.70109,-0.0275 2.77953,-0.35313 1.07174,-0.3235 2.00837,-0.647 1.95827,-0.35878 -0.10089,0.57715 -5.19465,4.59529 -3.8354,4.63586 0.62371,0.0173 1.71168,-0.89818 2.69699,-1.81328 1.16805,-1.0855 2.19145,-2.17064 2.12513,-1.7018 -0.12206,0.8703 -3.61527,5.703 -2.27824,5.27332 1.33809,-0.42863 4.32647,-5.71006 3.97722,-4.15643 -0.3489,1.55505 -2.04576,6.16726 -0.47449,4.93536 1.56951,-1.23013 2.48814,-6.60153 3.04059,-5.9757 0.54787,0.62195 0.83397,4.0326 1.78682,3.16865 0.95462,-0.86819 -0.0737,-4.74169 -0.71014,-5.78203 -0.63641,-1.03893 12.65379,-20.0152 12.65379,-20.0152 l 19.37985,-6.37787 c 0,0 12.02408,11.74221 11.1252,12.67072 -0.89712,0.92569 -6.06602,5.99123 -6.06602,5.99123 l 1.46015,3.61138 c 0,0 8.18198,-8.17598 8.59402,-9.78288 0.41134,-1.60725 -7.45102,-10.18505 -9.46997,-12.60934 -2.0193,-2.4264 -5.32341,-5.99334 -7.18079,-6.53908 -1.85737,-0.54469 -4.82565,-0.8756 -4.82565,-0.8756 l 0.15487,-2.10573 -4.96781,0.17921"
       style="fill:#eabd92;fill-opacity:1;fill-rule:nonzero;stroke:none;stroke-width:0.0352778" />
    <path
       id="path580"
       d="m 203.29126,297.89287 c -0.33726,0 -0.68545,-0.0388 -1.04493,-0.12065 -4.05377,-0.92216 -3.02718,-6.8132 -2.77213,-8.01934 0.3429,-0.0406 0.65158,-0.0536 0.90594,-0.0536 0.44661,0 0.72566,0.0402 0.73166,0.0409 v 0 0 l 0.16369,-2.27013 4.96781,-0.17921 -0.15487,2.10573 v 0 c 0,0 1.89477,0.21096 3.60398,0.57397 -0.0935,1.27565 -0.58914,2.93441 -1.43263,4.40408 -0.72954,1.27 -1.71908,2.39853 -2.93511,3.01731 0,7e-4 0,10e-4 0,0.002 -0.62054,0.31573 -1.29999,0.49847 -2.03341,0.49847"
       style="fill:#e5ae80;fill-opacity:1;fill-rule:nonzero;stroke:none;stroke-width:0.0352778" />
    <path
       id="path581"
       d="m 170.44482,349.78966 c 0,0 0.133,-0.14922 0.381,-0.43709 -0.30021,0.16334 -0.381,0.43709 -0.381,0.43709"
       style="fill:#f9de4c;fill-opacity:1;fill-rule:nonzero;stroke:none;stroke-width:0.0352778" />
    <path
       id="path582"
       d="m 217.64544,318.65138 c -4.5847,-13.7026 -5.99264,-28.29737 -5.99264,-28.29737 l -1.95051,-0.55104 c -0.14746,3.16865 -2.93229,8.99936 -7.45596,7.96925 -4.52014,-1.02835 -2.7238,-8.23454 -2.7238,-8.23454 l -2.0514,0.46567 c 0,0 -3.06564,8.78205 -7.36776,25.66988 -3.89996,15.31479 -16.88783,30.90509 -19.27755,33.67934 0.37042,-0.19932 1.07703,-0.2346 2.39325,0.63747 2.34632,1.55398 15.15957,11.86568 24.76077,13.28737 2.99896,0.41981 6.11787,0.58562 9.30416,0.39512 18.46827,-1.12889 22.19713,-13.36852 22.19713,-13.36852 -0.25329,-1.42099 -7.24711,-17.94334 -11.83569,-31.65263"
       style="fill:#45c0b6;fill-opacity:1;fill-rule:nonzero;stroke:none;stroke-width:0.0352778" />
    <path
       id="path583"
       d="m 190.44309,404.98626 c -1.76565,0.0495 -2.4832,-0.64558 -2.77248,-1.3335 -0.0416,0.0353 -0.079,0.0706 -0.12065,0.10238 -3.21275,2.62819 -6.60188,5.18929 -1.57092,5.73264 5.03414,0.53619 9.0417,-0.84307 10.08239,-2.86812 1.03928,-2.03189 0.66852,-3.11147 1.03928,-2.03189 0.36478,1.07939 0.93487,3.04793 0.93487,3.04793 l 1.3469,-0.16578 c 0,0 0.54469,-5.12949 0.29457,-10.55867 -2.28847,2.08841 -6.17925,7.9834 -9.23396,8.07501"
       style="fill:#f15395;fill-opacity:1;fill-rule:nonzero;stroke:none;stroke-width:0.0352778" />
    <path
       id="path584"
       d="m 214.74878,407.83318 c -3.28436,0.0142 -3.79695,-4.52261 -3.80753,-4.62139 0.15451,4.05349 0.90769,8.40671 4.10809,9.06996 5.17243,1.07597 4.26085,-7.26723 3.05471,-10.27646 -0.0755,-0.18683 -0.15276,-0.37744 -0.22825,-0.56787 v 0.003 c 0.76941,4.18041 0.10407,6.37825 -3.12702,6.39233"
       style="fill:#f15395;fill-opacity:1;fill-rule:nonzero;stroke:none;stroke-width:0.0352778" />
    <path
       id="path585"
       d="m 229.07861,263.97046 c 0,0 3.09598,-1.79705 5.05742,0.81175 1.95968,2.60773 -1.17228,8.39646 -4.95511,5.27685 l -0.10231,-6.0886"
       style="fill:#eabd92;fill-opacity:1;fill-rule:nonzero;stroke:none;stroke-width:0.0352778" />
    <path
       id="path586"
       d="m 233.29642,266.84878 c 0,0 -0.21202,-0.0272 -0.5341,-0.0674 -0.15628,-0.0233 -0.33973,-0.0349 -0.53234,-0.0448 -0.19403,-0.0116 -0.39688,-0.0116 -0.59655,0.002 -0.40111,0.0208 -0.78211,0.13159 -1.04669,0.27976 -0.12947,0.0783 -0.24624,0.14605 -0.3108,0.21131 -0.0737,0.0593 -0.12241,0.0889 -0.12241,0.0889 0.0127,0.0102 0.0631,-0.21766 0.31291,-0.45579 0.054,-0.0649 0.13864,-0.10971 0.2159,-0.16898 0.0734,-0.0663 0.17039,-0.10865 0.26776,-0.15099 0.20179,-0.09 0.43144,-0.13582 0.65828,-0.15557 0.22825,-0.005 0.45297,-0.002 0.66146,0.0441 0.2032,0.0353 0.38841,0.10443 0.54116,0.15734 0.30903,0.12348 0.48542,0.25965 0.48542,0.25965"
       style="fill:#b88459;fill-opacity:1;fill-rule:nonzero;stroke:none;stroke-width:0.0352778" />
    <path
       id="path587"
       d="m 181.56121,259.74454 c 0,0 -2.29235,-2.73826 -5.03026,-0.94686 -2.73826,1.79 -1.78753,8.29028 2.84409,6.6354 l 2.18617,-5.68854"
       style="fill:#eabd92;fill-opacity:1;fill-rule:nonzero;stroke:none;stroke-width:0.0352778" />
    <path
       id="path588"
       d="m 176.60432,261.02547 c 0,0 0.2159,-0.0702 0.54822,-0.0797 0.16404,0 0.35807,-0.003 0.56515,0.0342 0.20849,0.0286 0.42404,0.0967 0.63606,0.18203 0.20496,0.0949 0.40605,0.21414 0.56303,0.36407 0.0751,0.0794 0.15417,0.14675 0.20285,0.23459 0.0522,0.085 0.11501,0.1524 0.1457,0.23284 0.15099,0.30762 0.12029,0.54151 0.13652,0.53234 0,0 -0.036,-0.0452 -0.0843,-0.12206 -0.0413,-0.0861 -0.12771,-0.18733 -0.22296,-0.30374 -0.19755,-0.23213 -0.51611,-0.4625 -0.88476,-0.61948 -0.18133,-0.0804 -0.3736,-0.14852 -0.56092,-0.2025 -0.18309,-0.0547 -0.36124,-0.10442 -0.51576,-0.13723 -0.3168,-0.0705 -0.52882,-0.11536 -0.52882,-0.11536"
       style="fill:#b88459;fill-opacity:1;fill-rule:nonzero;stroke:none;stroke-width:0.0352778" />
    <path
       id="path589"
       d="m 184.23456,245.69199 c 0,0 20.25191,0.4512 29.35287,-5.64727 0,0 9.71268,13.01503 16.50506,16.18298 0,0 -1.40934,6.4456 -0.84349,11.74891 0.56656,5.30154 -4.35081,15.91769 -15.66298,18.15183 -11.31288,2.23343 -16.14029,1.74978 -21.35928,-1.53952 -5.2197,-3.28931 -16.1798,-10.86344 -13.81513,-18.99039 2.36572,-8.13117 4.75897,-10.06651 4.79107,-13.80384 0.0325,-3.73874 1.03188,-6.1027 1.03188,-6.1027"
       style="fill:#f1cead;fill-opacity:1;fill-rule:nonzero;stroke:none;stroke-width:0.0352778" />
    <path
       id="path590"
       d="m 194.78155,249.49811 c 0.25894,-0.20214 0.56268,-0.34326 0.90065,-0.37395 0.32349,-0.0279 0.64346,-0.025 0.96343,0.0388 0.0198,0.002 0.10972,0.0222 0.2159,0.0459 0.16722,-0.18415 0.26988,-0.44344 0.21202,-0.65899 -0.33796,-1.2633 -2.3428,-0.34255 -2.2546,0.71896 -0.0159,0.0321 -0.0342,0.0695 -0.0483,0.10372 -0.0162,0.043 -0.009,0.0861 0.0109,0.12559"
       style="fill:#b13321;fill-opacity:1;fill-rule:nonzero;stroke:none;stroke-width:0.0352778" />
    <path
       id="path591"
       d="m 212.84519,249.22647 c 0.0861,-0.1591 0.13652,-0.34149 0.12418,-0.54222 -0.0399,-0.49318 -0.73378,-0.78246 -1.17969,-0.78705 -0.62195,-0.004 -1.05728,0.36125 -1.47426,0.77682 -0.12383,0.12135 -0.18203,0.26493 -0.18697,0.40605 0.8897,-0.21379 1.91311,-0.14112 2.71674,0.1464"
       style="fill:#b13321;fill-opacity:1;fill-rule:nonzero;stroke:none;stroke-width:0.0352778" />
    <path
       id="path592"
       d="m 201.43918,267.42945 c -0.133,-0.1083 -0.27341,-0.24165 -0.40464,-0.38806 -0.13123,-0.11112 -0.25506,-0.24094 -0.37606,-0.39475 -0.57891,-0.75142 0.0847,-1.78859 0.93345,-1.93887 0.52317,-0.0945 1.3268,0.33514 1.512,0.81245 l 0.0378,-0.0205 c -0.3235,-1.63513 -2.92347,-1.20933 -3.07234,0.34854 -0.13864,1.45027 1.41676,2.33363 2.77566,2.24296 -0.514,-0.11959 -1.00507,-0.3362 -1.40582,-0.66181"
       style="fill:#b88459;fill-opacity:1;fill-rule:nonzero;stroke:none;stroke-width:0.0352778" />
    <path
       id="path593"
       d="m 216.44493,274.6995 c 1.41817,-2.24932 2.31881,-4.75827 2.41583,-7.61154 l -0.0162,0.0145 c -2.93935,4.15678 -6.93279,7.01992 -11.81206,8.61836 -4.27355,1.397 -11.85545,2.55764 -14.92638,-1.55081 l -0.0377,0.025 c 0.69391,1.09608 1.71344,1.86091 2.89983,2.37808 4.35293,3.83998 10.32016,4.97734 15.76776,2.87302 2.22426,-0.86148 4.22346,-2.61867 5.709,-4.74662"
       style="fill:#b88459;fill-opacity:1;fill-rule:nonzero;stroke:none;stroke-width:0.0352778" />
    <path
       id="path594"
       d="m 195.16432,276.65741 c 3.00249,1.2252 7.03333,0.90523 9.85238,0.17286 5.16749,-1.34337 10.64365,-3.94829 13.57489,-8.55098 -1.99779,11.12979 -14.41451,14.87946 -23.42727,8.37812"
       style="fill:#ffffff;fill-opacity:1;fill-rule:nonzero;stroke:none;stroke-width:0.0352778" />
    <path
       id="path595"
       d="m 196.82943,254.9898 c -0.36513,1.36737 -1.15429,2.3435 -1.76248,2.1844 -0.60395,-0.16087 -0.79975,-1.39594 -0.43497,-2.75872 0.36336,-1.36631 1.15464,-2.34315 1.76212,-2.18476 0.60572,0.16052 0.79975,1.39559 0.43533,2.75908"
       style="fill:#2e1411;fill-opacity:1;fill-rule:nonzero;stroke:none;stroke-width:0.0352778" />
    <path
       id="path596"
       d="m 195.85082,253.62631 c -0.14711,0.40464 -0.40781,0.67769 -0.58772,0.61666 -0.17957,-0.0642 -0.20673,-0.44062 -0.0628,-0.84526 0.1457,-0.40252 0.40816,-0.67909 0.58632,-0.61454 0.18133,0.0617 0.20814,0.43992 0.0642,0.84314"
       style="fill:#ffffff;fill-opacity:1;fill-rule:nonzero;stroke:none;stroke-width:0.0352778" />
    <path
       id="path597"
       d="m 212.80003,255.57612 c -0.18168,1.39876 -0.8322,2.4712 -1.45803,2.39007 -0.61842,-0.0804 -0.98001,-1.28094 -0.79304,-2.6797 0.17991,-1.39877 0.83079,-2.4691 1.45274,-2.39219 0.6223,0.0811 0.98001,1.27917 0.79833,2.68182"
       style="fill:#2e1411;fill-opacity:1;fill-rule:nonzero;stroke:none;stroke-width:0.0352778" />
    <path
       id="path598"
       d="m 211.65139,254.3488 c -0.0956,0.41875 -0.31644,0.72637 -0.50377,0.68686 -0.18309,-0.0395 -0.26035,-0.41275 -0.17215,-0.82973 0.0914,-0.41769 0.31432,-0.72708 0.49953,-0.68651 0.18697,0.0402 0.26247,0.41063 0.17639,0.82938"
       style="fill:#ffffff;fill-opacity:1;fill-rule:nonzero;stroke:none;stroke-width:0.0352778" />
    <path
       id="path599"
       d="m 224.85868,260.49666 c 0.16898,0.99483 -1.65382,2.11737 -4.07035,2.51143 -2.41829,0.39334 -4.51485,-0.0896 -4.68383,-1.08268 -0.16545,-0.9906 1.65418,-2.11455 4.07247,-2.50684 2.41829,-0.39511 4.51273,0.0878 4.68171,1.07809"
       style="fill:#fab9b2;fill-opacity:1;fill-rule:nonzero;stroke:none;stroke-width:0.0352778" />
    <path
       id="path600"
       d="m 185.81324,260.80852 c -0.31645,0.95497 1.31268,2.34597 3.64278,3.10374 2.32833,0.7567 4.47499,0.5976 4.79108,-0.35737 0.31679,-0.95567 -1.31022,-2.34174 -3.63856,-3.10021 -2.33009,-0.75882 -4.47533,-0.5969 -4.7953,0.35384"
       style="fill:#fab9b2;fill-opacity:1;fill-rule:nonzero;stroke:none;stroke-width:0.0352778" />
    <path
       id="path601"
       d="m 4237.98,3522.14 h 0.02 v 0.5 h -0.02 z"
       style="fill:#773917;fill-opacity:1;fill-rule:nonzero;stroke:none"
       transform="matrix(0.03527778,0,0,-0.03527778,60.195059,414.07389)"
       clip-path="url(#clipPath602)" />
    <path
       id="path603"
       d="m 205.32467,297.3944 c 0,-0.001 0,-0.002 0,-0.002 1.21603,-0.61878 2.20557,-1.74731 2.93511,-3.01731 -0.72954,1.27141 -1.71944,2.401 -2.93511,3.01978"
       style="fill:#84a478;fill-opacity:1;fill-rule:nonzero;stroke:none;stroke-width:0.0352778" />
    <path
       id="path604"
       d="m 220.76117,359.986 c 1.1564,-2.45181 1.71909,-4.47675 1.71909,-4.47675 -11.9754,-20.62904 -15.88065,-44.58406 -17.15559,-58.11485 1.21567,-0.61878 2.20557,-1.74837 2.93511,-3.01978 0.87771,-1.52788 1.37795,-3.26037 1.44181,-4.55401 0,-3.5e-4 0,-3.5e-4 0,-7.1e-4 0,-0.002 0,-0.004 3.5e-4,-0.006 0,-0.004 3.5e-4,-0.007 3.5e-4,-0.0106 v 0 l 1.95051,0.55104 c 0,0 1.40794,14.59477 5.99264,28.29737 4.58858,13.70929 11.5824,30.23164 11.83569,31.65263 v 0 c 0,0 0,0 -3.5e-4,0 v 3.5e-4 c -0.0159,0.0519 -1.77377,5.72347 -8.71961,9.68164"
       style="fill:#3da7a2;fill-opacity:1;fill-rule:nonzero;stroke:none;stroke-width:0.0352778" />
    <path
       id="path605"
       d="m 198.58556,289.7497 c -0.35031,3.01167 -0.68651,7.48101 2.43804,8.8011 2.48673,1.05093 5.70336,0.27411 7.41292,-1.84044 1.55328,-1.92546 1.95087,-4.31941 1.96321,-6.70948 l -0.69744,-0.19791 c -0.14746,3.169 -2.93229,8.99936 -7.45596,7.96925 -4.52014,-1.02835 -2.7238,-8.23454 -2.7238,-8.23454 l -0.93697,0.21202"
       style="fill:#8e4fad;fill-opacity:1;fill-rule:nonzero;stroke:none;stroke-width:0.0352778" />
    <path
       id="path606"
       d="m 223.22991,356.17953 c -9.98044,7.29897 -22.23488,6.80155 -29.23082,4.55083 -3.86891,-1.24178 -7.69867,-2.90336 -11.08392,-5.15408 -3.39443,-2.26131 -7.05168,-6.25264 -11.21552,-7.25911 -0.36477,0.43991 -0.66322,0.79022 -0.87383,1.0354 0.37042,-0.19932 1.07703,-0.2346 2.39325,0.63747 2.34632,1.55398 15.15957,11.86568 24.76077,13.28737 2.99896,0.41981 6.11822,0.58562 9.30416,0.39512 18.46827,-1.12889 22.19713,-13.36852 22.19713,-13.36852 -0.0378,-0.20955 -0.22295,-0.75459 -0.52105,-1.56316 -1.52859,2.8314 -3.29953,5.6642 -5.73017,7.43868"
       style="fill:#8e4fad;fill-opacity:1;fill-rule:nonzero;stroke:none;stroke-width:0.0352778" />
    <path
       id="path607"
       d="m 221.43392,320.6107 c 0,0 1.52082,0.25824 1.19732,1.45945 -0.32208,1.20544 -2.58198,4.34304 -2.80846,3.70734 -0.23001,-0.63077 -0.21943,-2.02459 -0.15099,-2.13748 0.0684,-0.1136 1.76213,-3.02931 1.76213,-3.02931"
       style="fill:#eabd92;fill-opacity:1;fill-rule:nonzero;stroke:none;stroke-width:0.0352778" />
    <path
       id="path608"
       d="m 220.14451,318.31377 c 0,0 1.75648,-0.0861 1.69898,1.5307 -0.0575,1.60973 -1.61255,4.76814 -2.49555,4.61892 -0.87912,-0.15028 -1.07491,-2.26624 -0.95814,-2.71216 0.115,-0.44485 1.75471,-3.43746 1.75471,-3.43746"
       style="fill:#eabd92;fill-opacity:1;fill-rule:nonzero;stroke:none;stroke-width:0.0352778" />
    <path
       id="path609"
       d="m 218.42014,316.30082 c 0,0 2.10714,-0.42016 2.31069,1.08056 0.20496,1.49824 -0.6798,4.64996 -2.2419,5.3848 -1.56598,0.73589 -1.27671,-0.8823 -1.19027,-1.9872 0.079,-1.10173 1.12148,-4.47816 1.12148,-4.47816"
       style="fill:#eabd92;fill-opacity:1;fill-rule:nonzero;stroke:none;stroke-width:0.0352778" />
    <path
       id="path610"
       d="m 216.44634,314.92357 c 0,0 1.78894,-0.57432 2.24014,0.16087 0.45297,0.7306 0.12418,5.7083 -0.77822,6.28474 -0.90312,0.57679 -2.27119,-0.44697 -1.74061,-2.57846 0.52846,-2.13677 0.39017,-2.5915 0.39017,-2.5915 l -0.11148,-1.27565"
       style="fill:#eabd92;fill-opacity:1;fill-rule:nonzero;stroke:none;stroke-width:0.0352778" />
    <path
       id="path611"
       d="m 218.88051,316.22638 c 0,0 0.0219,0.38206 0.009,0.95356 -0.006,0.57362 -0.0501,1.33315 -0.15099,2.09162 -0.0483,0.38065 -0.13652,0.75494 -0.21942,1.10525 -0.0557,0.17427 -0.12947,0.33867 -0.1905,0.49213 -0.0755,0.15945 -0.17251,0.27164 -0.25012,0.39652 -0.10407,0.1083 -0.18662,0.22154 -0.30022,0.27587 -0.0988,0.0677 -0.21554,0.09 -0.30021,0.0829 -0.17604,-0.0152 -0.24271,-0.10689 -0.24095,-0.10301 -0.002,-0.004 0.0773,0.0804 0.24095,0.0751 0.0811,-0.006 0.17992,-0.0349 0.26458,-0.10936 0.0949,-0.0579 0.16334,-0.1718 0.25153,-0.27269 0.0684,-0.12312 0.16193,-0.25894 0.21731,-0.399 0.0505,-0.1531 0.1009,-0.31115 0.16017,-0.47907 0.072,-0.3436 0.14922,-0.71226 0.19226,-1.08938 0.11148,-0.74753 0.17074,-1.50636 0.22684,-2.07292 0.0536,-0.5655 0.0896,-0.94756 0.0896,-0.94756"
       style="fill:#b88459;fill-opacity:1;fill-rule:nonzero;stroke:none;stroke-width:0.0352778" />
    <path
       id="path612"
       d="m 220.73083,318.38326 c 0,0 0.005,0.31856 -0.061,0.79481 -0.0399,0.23389 -0.0864,0.51506 -0.16722,0.80469 -0.0794,0.29139 -0.18873,0.59619 -0.31291,0.89359 -0.133,0.29492 -0.29316,0.57785 -0.46743,0.8262 -0.17639,0.25259 -0.37783,0.45579 -0.55563,0.62018 -0.37394,0.32174 -0.68685,0.43039 -0.67768,0.44345 0,0 0.0646,-0.048 0.1778,-0.1323 0.12029,-0.0748 0.25894,-0.2166 0.42968,-0.38029 0.16369,-0.17145 0.33408,-0.39017 0.49812,-0.63218 0.16334,-0.24765 0.30904,-0.52846 0.43498,-0.81527 0.25894,-0.57361 0.42968,-1.18463 0.54081,-1.64394 0.11359,-0.4639 0.16051,-0.77894 0.16051,-0.77894"
       style="fill:#b88459;fill-opacity:1;fill-rule:nonzero;stroke:none;stroke-width:0.0352778" />
    <path
       id="path613"
       d="m 221.7807,320.71266 c 0,0 -0.0501,0.26634 -0.16898,0.65969 -0.11854,0.39158 -0.31468,0.90382 -0.55598,1.39735 -0.12735,0.24166 -0.26035,0.48331 -0.40781,0.69674 -0.14041,0.21837 -0.30198,0.40252 -0.44944,0.54822 -0.1457,0.14922 -0.29281,0.25012 -0.39899,0.30727 -0.10619,0.055 -0.16722,0.0892 -0.16722,0.0892 0,0 0.24095,-0.1464 0.49283,-0.4639 0.25682,-0.30727 0.53552,-0.77223 0.77294,-1.25483 0.248,-0.47943 0.46002,-0.98108 0.62194,-1.35502 0.15628,-0.3736 0.26071,-0.62477 0.26071,-0.62477"
       style="fill:#b88459;fill-opacity:1;fill-rule:nonzero;stroke:none;stroke-width:0.0352778" />
  </g>
</svg>
