<?xml version="1.0" encoding="UTF-8" standalone="no"?>
<!-- Created with Inkscape (http://www.inkscape.org/) -->

<svg
   width="23.94084mm"
   height="88.779518mm"
   viewBox="0 0 23.940839 88.779519"
   version="1.1"
   id="svg1"
   inkscape:version="1.4.2 (f4327f4, 2025-05-13)"
   sodipodi:docname="woman7.svg"
   xmlns:inkscape="http://www.inkscape.org/namespaces/inkscape"
   xmlns:sodipodi="http://sodipodi.sourceforge.net/DTD/sodipodi-0.dtd"
   xmlns="http://www.w3.org/2000/svg"
   xmlns:svg="http://www.w3.org/2000/svg">
  <sodipodi:namedview
     id="namedview1"
     pagecolor="#ffffff"
     bordercolor="#000000"
     borderopacity="0.25"
     inkscape:showpageshadow="2"
     inkscape:pageopacity="0.0"
     inkscape:pagecheckerboard="0"
     inkscape:deskcolor="#d1d1d1"
     inkscape:document-units="mm"
     inkscape:zoom="1.2275954"
     inkscape:cx="-162.92013"
     inkscape:cy="99.381278"
     inkscape:window-width="2880"
     inkscape:window-height="1676"
     inkscape:window-x="-12"
     inkscape:window-y="-12"
     inkscape:window-maximized="1"
     inkscape:current-layer="layer1" />
  <defs
     id="defs1" />
  <g
     inkscape:label="图层 1"
     inkscape:groupmode="layer"
     id="layer1"
     transform="translate(-147.90208,-121.97292)">
    <g
       id="XMLID_1335_"
       transform="matrix(0.26458333,0,0,0.26458333,44.525511,98.852473)">
		<path
   id="XMLID_62_"
   style="fill:#423043"
   d="m 432.754,260.969 c 0,0 7.167,31 9.167,39.667 2,8.667 -1.833,12.167 -2.833,25 -1,12.833 4.5,53.333 4.5,53.333 0,0 3.167,3.167 7.5,3.167 4.333,0 5.167,0 5.167,0 0,0 2,-60.5 3.667,-68 1.667,-7.5 0.167,-18.333 0,-21.667 -0.167,-3.333 -1.823,-30.626 -1.823,-30.626 z" />

		<path
   id="XMLID_63_"
   style="fill:#423043"
   d="m 399.254,256.302 c 0,0 1.667,32.5 3.333,41.167 1.667,8.667 -5.542,21.083 -2.417,53.208 3.125,32.125 3.125,32.125 3.125,32.125 0,0 4.625,1.375 7.875,1.125 3.25,-0.25 3.25,-0.25 3.25,-0.25 0,0 4.375,-59.625 4.5,-66.5 0.125,-6.875 2.25,-18.625 2.375,-23.125 0.125,-4.5 3.454,-31.999 3.454,-31.999 z" />

		<path
   id="XMLID_61_"
   style="fill:#8e7490"
   d="m 458.92,261.802 c 0,0 -10.625,0.5 -19.375,1.25 -8.75,0.75 -40.125,-4.875 -40.75,-5.125 -0.625,-0.25 0.125,-3.062 -0.438,-4.062 -0.563,-1 0,-2.25 0,-2.25 0,0 -0.25,-12.625 -1.125,-16.625 -0.875,-4 -2.375,-13.813 0,-23.438 2.375,-9.625 8.25,-16.313 8.25,-16.313 0,0 -1.438,-0.5 -1.875,-2 -0.437,-1.5 -3.125,-10.938 -4.375,-12.75 -1.25,-1.812 -1.188,-4.375 -1.188,-4.375 0,0 -4.5,-12.875 -4.875,-15.813 0,0 -2.688,-6 -2.438,-10.875 0.25,-4.875 3.208,-7.271 6.854,-8.542 3.646,-1.271 53.146,-1.208 57.583,3.854 4.437,5.062 6.5,17.735 7.875,20.211 1.375,2.477 5.813,15.539 5.75,20.477 -0.063,4.938 -3,8 -5.313,8.5 -2.313,0.5 -13.688,0.063 -13.688,0.063 0,0 -0.438,8.563 -0.688,9.75 -0.25,1.187 0.688,1.188 0.438,2.938 -0.25,1.75 -0.25,1.75 -0.25,1.75 0,0 3.563,6.813 4.75,15.375 1.187,8.562 4.688,35.625 5.313,36.937 0.625,1.312 -0.435,1.063 -0.435,1.063 z" />

		<path
   id="XMLID_56_"
   style="fill:#ddb385"
   d="m 429.462,131.011 c 0,0 -0.542,7.292 0.458,10.75 1,3.458 1.225,4.058 0.469,4.392 -4.677,2.066 -8.219,0.713 -10.511,-1.725 -1.341,-1.428 -1.208,-6.708 -0.875,-10.958 0.333,-4.25 1.25,-6 1.25,-6 z" />

		<path
   id="XMLID_59_"
   style="fill:#b28856"
   d="m 436.92,93.302 c 0,0 -0.75,-2.333 -4.333,-4.417 -3.583,-2.083 -10.75,-1.917 -15.25,0 -4.5,1.917 -8.25,6.404 -10.083,9.91 -1.833,3.506 -3.333,2.673 -3.25,5.923 0.083,3.25 1,6.25 -0.583,9.583 -1.583,3.333 -4.333,6.333 -4,11.75 0.333,5.417 2.333,4.671 1.083,7.294 -1.25,2.623 -3.583,3.956 -2.917,7.539 0.667,3.583 2.667,3.333 2.667,3.333 0,0 0.104,2.583 1.104,3.208 1,0.625 1.813,0.438 1.813,0.438 0,0 -0.25,2.438 0.563,3.813 0.813,1.375 3.875,-0.125 4.563,2.5 0.688,2.625 -1,3.688 0.75,5.938 1.75,2.25 0.313,4.563 1.5,4.813 1.187,0.25 0.25,-1.563 1.625,-2.063 1.375,-0.5 0.375,-1.938 1,-2.75 0.625,-0.812 1.618,-0.563 1.902,-2 0.285,-1.438 -0.34,-1.5 0.348,-2.125 0.688,-0.625 0.875,-1.25 0.063,-2.5 -0.812,-1.25 -0.375,-2.688 0.688,-2.063 1.063,0.625 1.487,1.688 1.025,2.563 -0.462,0.875 -0.65,2.125 0.35,1.625 1,-0.5 2.063,-1.938 1.938,-2.625 0,0 0.875,1.063 1.438,0.313 0.563,-0.75 1.313,-2.25 0.438,-5.438 -0.875,-3.188 -1.875,-9.938 -1.813,-13.5 0.062,-3.562 0.75,-4.938 0.75,-4.938 0,0 3.767,2.122 5.592,2.458 1.825,0.336 3.033,1 3.033,1 0,0 0.25,13.604 2.813,17.354 2.563,3.75 3.563,3.375 5.188,3.188 1.625,-0.187 -0.625,-1.063 -0.625,-2.063 0,-1 0.679,-0.063 1.215,0.563 0.536,0.626 1.738,0.25 2.855,1.25 1.117,1 -0.195,2.563 1.43,2.438 1.625,-0.125 1.625,-0.938 1.625,-0.938 0,0 0.5,1.438 0,2 -0.5,0.562 0.938,1.438 1.938,0.938 1,-0.5 1.375,-0.688 1.375,-0.688 0,0 0.5,-1.125 1.188,-1.188 0.688,-0.063 0.813,-1.063 0.5,-2.375 -0.313,-1.312 0.75,-2.125 0.813,-1.313 0.063,0.812 -0.438,1.25 0.563,1.875 1.001,0.625 0.688,2 0,2.875 -0.688,0.875 1.75,1.813 2.438,0.563 0.688,-1.25 0.5,-3 1.063,-4.438 0.563,-1.438 0.25,-3.125 -1.313,-5.438 -1.563,-2.313 -0.875,-2.938 -0.125,-3.563 0.75,-0.625 -0.688,-3.875 -3.625,-7.75 -2.937,-3.875 -5,-9.063 -4.438,-14.438 0.562,-5.375 2.25,-5.5 1.125,-8.25 -1.125,-2.75 -2.5,-6.625 -2.25,-10.063 0.25,-3.438 -2.632,-8.871 -5.757,-10.121 z" />

		<g
   id="XMLID_1495_">
			<path
   id="XMLID_1533_"
   style="fill:#705a72"
   d="m 449.432,159.665 c 1.639,2.183 2.654,4.7 2.776,7.447 0.111,2.51 -0.9,4.835 -0.998,7.318 -0.025,0.644 0.975,0.642 1,0 0.121,-3.063 1.316,-5.704 0.85,-8.827 -0.355,-2.379 -1.325,-4.527 -2.764,-6.443 -0.382,-0.508 -1.251,-0.01 -0.864,0.505 z" />

		</g>

		<path
   id="XMLID_60_"
   style="fill:#9e5a2e"
   d="m 442.983,377.615 c 0,0 1.875,0.875 6.875,1.563 5,0.688 6.875,0.063 7.063,0.5 0.188,0.437 -0.188,3.125 0,4.063 0.188,0.938 0.054,2.875 0.054,2.875 0,0 0.071,2.563 0.446,3.75 0.375,1.187 -0.313,2.25 -0.313,2.25 0,0 1.813,1.313 2,2.438 0.187,1.125 4.25,6.313 8.188,9.125 3.938,2.812 12.875,6.688 13.875,10.25 1,3.562 -24.5,1 -26.875,0.75 -2.375,-0.25 -5.688,-4.75 -5.688,-4.75 l -0.063,3.938 h -7.313 c 0,0 -0.063,-4 -0.625,-6.313 -0.562,-2.313 0.5,-9.813 2.25,-12.813 1.75,-3 0.063,-6.188 0.25,-6.938 0.187,-0.75 0.625,-2.063 0.438,-3.5 -0.187,-1.437 -1.375,-6.626 -0.562,-7.188 z" />

		<path
   id="XMLID_65_"
   style="fill:#9e5a2e"
   d="m 402.67,380.99 c 0,0 0.688,0.667 4.75,1.146 4.063,0.479 6.875,-1.833 7.438,-1.146 0.563,0.687 -0.75,4.063 0,4.625 0.75,0.562 0.145,2.25 0.145,2.25 0,0 0.23,3.25 0.73,4.625 0.5,1.375 0.625,2.125 0.813,4.188 0.188,2.063 1.5,9.063 3.625,12.125 2.125,3.062 4.563,7.75 5,9.938 0.437,2.188 -5.125,4.188 -8.438,4.188 -3.313,0 -8.25,-1.375 -10.188,-2.813 -1.938,-1.438 -2.875,-4.125 -3.875,-4.625 -1,-0.5 -2.875,-11.813 -2.313,-14.813 0.562,-3 2.25,-5.563 2.25,-9 0,-3.437 -0.75,-3.313 -0.313,-4.375 0.437,-1.062 0.813,-1.313 0.25,-2.25 -0.563,-0.937 0,-1.938 0,-1.938 0,0 -0.318,-2.08 0.126,-2.125 z" />

		<path
   id="XMLID_67_"
   style="fill:#ddb385"
   d="m 419.358,189.365 -7.125,8.563 c 0,0 1.313,0.938 9.875,0.5 8.562,-0.438 27.625,-6.813 27.625,-6.813 l -18.75,-4.625 z" />

		<path
   id="XMLID_68_"
   style="fill:#ddb385"
   d="m 445.045,182.261 c 0,0 5,-6.125 6.917,-7.833 1.917,-1.708 3.5,-2.167 6.542,-2.042 3.042,0.125 3.898,0.542 4.386,0.958 0.489,0.417 0.489,0.417 0.489,0.417 0,0 1.333,0.542 1.292,1.333 -0.042,0.792 -0.667,0.542 -0.667,0.542 0,0 1.292,0.731 1.417,1.678 0.125,0.947 -0.875,0.781 -0.875,0.781 0,0 1.063,0.375 0.886,0.958 -0.177,0.583 -4.094,1.061 -4.927,1.093 -0.833,0.032 -1.333,0 -1.333,0 0,0 -0.792,2.49 -3.125,3.282 -2.335,0.791 -11.002,-1.167 -11.002,-1.167 z" />

		<path
   id="XMLID_66_"
   style="fill:#ffce94"
   d="m 417.858,182.49 2.188,6.5 c 0,0 4.375,0.875 6.625,0 2.25,-0.875 3.086,-1.063 3.086,-1.063 0,0 17.977,6.688 23.789,6.688 5.812,0 7.188,-0.125 8.625,-2.313 1.437,-2.188 0.5,-5.875 -0.875,-7.375 -1.375,-1.5 -4.938,-1.75 -8.125,-2.438 -3.187,-0.688 -20.453,-1.625 -23.414,-2.188 -2.962,-0.561 -8.212,0.439 -11.899,2.189 z" />

		<g
   id="XMLID_1460_">
			<path
   id="XMLID_1532_"
   style="fill:#705a72"
   d="m 410.812,183.694 c -1.069,1.099 -5.835,5.242 -4.319,7.101 0.112,0.137 0.326,0.168 0.487,0.128 1.277,-0.311 2.592,-1.426 3.643,-2.19 1.219,-0.886 2.364,-1.861 3.449,-2.906 0.465,-0.447 -0.243,-1.154 -0.707,-0.707 -0.907,0.872 -1.85,1.702 -2.855,2.46 -0.847,0.639 -2.017,1.721 -3.047,2.014 -0.229,0.047 -0.278,0.103 -0.147,0.168 0.123,-0.374 0.288,-0.727 0.493,-1.06 0.31,-0.536 0.712,-1.013 1.113,-1.482 0.831,-0.971 1.707,-1.903 2.598,-2.819 0.448,-0.462 -0.259,-1.17 -0.708,-0.707 z" />

		</g>

		<g
   id="XMLID_1467_">
			<path
   id="XMLID_1531_"
   style="fill:#705a72"
   d="m 406.415,195.998 c 0.86,0.206 1.592,1.066 2.37,1.486 0.749,0.403 1.545,0.679 2.376,0.857 0.628,0.134 0.896,-0.83 0.266,-0.964 -0.96,-0.205 -1.861,-0.546 -2.688,-1.083 -0.694,-0.45 -1.232,-1.062 -2.057,-1.26 -0.627,-0.15 -0.893,0.814 -0.267,0.964 z" />

		</g>

		<g
   id="XMLID_1474_">
			<path
   id="XMLID_1529_"
   style="fill:#705a72"
   d="m 411.631,196.266 c 1.904,-2.236 3.722,-4.539 5.457,-6.909 0.381,-0.52 -0.487,-1.019 -0.863,-0.505 -1.685,2.301 -3.452,4.535 -5.301,6.706 -0.415,0.488 0.289,1.199 0.707,0.708 z" />

		</g>

		<g
   id="XMLID_1481_">
			<path
   id="XMLID_1528_"
   style="fill:#705a72"
   d="m 411.324,165.502 c 0.668,2.068 1.389,4.116 2.194,6.134 0.361,0.905 0.754,1.796 1.125,2.697 0.489,1.186 0.51,2.179 0.731,3.398 0.285,1.573 1.06,2.786 1.672,4.255 0.958,2.3 1.689,4.701 2.368,7.095 0.175,0.618 1.141,0.355 0.964,-0.266 -0.613,-2.16 -1.281,-4.308 -2.089,-6.404 -0.793,-2.059 -1.673,-3.696 -1.987,-5.908 -0.238,-1.683 -1.009,-3.128 -1.646,-4.701 -0.875,-2.158 -1.653,-4.35 -2.369,-6.566 -0.196,-0.61 -1.162,-0.349 -0.963,0.266 z" />

		</g>

		<g
   id="XMLID_1488_">
			<path
   id="XMLID_1527_"
   style="fill:#705a72"
   d="m 423.424,176.891 c 7.212,-1.507 14.533,-2.944 21.889,-1.606 0.629,0.114 0.899,-0.849 0.266,-0.964 -7.543,-1.372 -15.022,0.06 -22.42,1.606 -0.631,0.132 -0.364,1.096 0.265,0.964 z" />

		</g>

		<g
   id="XMLID_1502_">
			<path
   id="XMLID_1525_"
   style="fill:#705a72"
   d="m 459.723,181.361 c 1.555,0.441 3.014,1.114 4.321,2.069 0.64,0.467 1.175,1.02 1.752,1.555 0.315,0.293 0.491,0.501 0.94,0.444 0.234,-0.03 0.404,-0.137 0.482,-0.367 0.662,-1.956 -1.388,-3.836 -2.68,-4.936 -0.487,-0.415 -1.198,0.289 -0.707,0.707 1.009,0.859 2.947,2.415 2.423,3.963 0.161,-0.122 0.321,-0.245 0.482,-0.367 -0.285,0.036 -1.266,-1.142 -1.552,-1.373 -0.5,-0.404 -1.022,-0.778 -1.572,-1.112 -1.133,-0.688 -2.351,-1.187 -3.623,-1.548 -0.62,-0.175 -0.885,0.79 -0.266,0.965 z" />

		</g>

		<g
   id="XMLID_1509_">
			<path
   id="XMLID_1524_"
   style="fill:#705a72"
   d="m 464.166,187.234 c 0.325,1.007 0.416,2.016 0.289,3.065 -0.078,0.637 0.923,0.632 1,0 0.137,-1.131 0.025,-2.247 -0.325,-3.33 -0.196,-0.611 -1.162,-0.35 -0.964,0.265 z" />

		</g>

		<g
   id="XMLID_1516_">
			<path
   id="XMLID_1522_"
   style="fill:#705a72"
   d="m 447.82,209.799 c -0.372,0.761 -0.813,1.483 -1.338,2.148 -0.395,0.5 0.308,1.212 0.707,0.707 0.58,-0.734 1.083,-1.509 1.495,-2.351 0.281,-0.575 -0.581,-1.082 -0.864,-0.504 z" />

		</g>

		<g
   id="XMLID_1523_">
			<path
   id="XMLID_1521_"
   style="fill:#705a72"
   d="m 440.672,210.807 c -1.677,3.743 -3.589,7.351 -5.745,10.839 -0.339,0.549 0.525,1.052 0.863,0.505 2.156,-3.489 4.069,-7.097 5.745,-10.84 0.261,-0.581 -0.6,-1.09 -0.863,-0.504 z" />

		</g>

		<g
   id="XMLID_1530_">
			<path
   id="XMLID_1503_"
   style="fill:#705a72"
   d="m 441.164,220.222 c -0.603,1.011 -1.459,1.795 -2.211,2.689 -0.511,0.608 -1.385,1.604 -1.344,2.458 0.039,0.814 1.124,0.882 1.762,0.884 1.232,0.004 2.368,-0.52 3.46,-1.035 0.582,-0.274 0.075,-1.136 -0.505,-0.863 -0.993,0.468 -2.891,1.448 -3.97,0.672 0.083,0.144 0.165,0.288 0.248,0.432 0.049,-0.968 1.155,-1.966 1.761,-2.626 0.609,-0.664 1.199,-1.329 1.662,-2.105 0.331,-0.555 -0.533,-1.059 -0.863,-0.506 z" />

		</g>

		<g
   id="XMLID_1537_">
			<path
   id="XMLID_1339_"
   style="fill:#705a72"
   d="m 420.676,210.877 c 2.347,2.095 4.613,4.274 6.799,6.537 0.448,0.464 1.155,-0.244 0.707,-0.707 -2.186,-2.263 -4.453,-4.441 -6.799,-6.537 -0.479,-0.428 -1.188,0.277 -0.707,0.707 z" />

		</g>

		<g
   id="XMLID_1544_">
			<path
   id="XMLID_1338_"
   style="fill:#705a72"
   d="m 400.291,252.525 c 2.054,0.668 4.147,1.075 6.299,1.243 0.642,0.05 0.638,-0.95 0,-1 -2.063,-0.161 -4.066,-0.568 -6.033,-1.207 -0.614,-0.2 -0.877,0.766 -0.266,0.964 z" />

		</g>

		<g
   id="XMLID_1551_">
			<path
   id="XMLID_1337_"
   style="fill:#705a72"
   d="m 400.292,255.842 c 0.618,0.115 1.227,0.261 1.83,0.438 0.619,0.181 0.883,-0.783 0.266,-0.964 -0.603,-0.177 -1.212,-0.323 -1.83,-0.438 -0.629,-0.118 -0.899,0.845 -0.266,0.964 z" />

		</g>

		<g
   id="XMLID_1558_">
			<path
   id="XMLID_1526_"
   style="fill:#705a72"
   d="m 442.594,258.816 c 4.239,0.424 8.483,0.618 12.743,0.584 0.643,-0.005 0.645,-1.005 0,-1 -4.26,0.034 -8.504,-0.16 -12.743,-0.584 -0.639,-0.064 -0.635,0.936 0,1 z" />

		</g>

		<g
   id="XMLID_1565_">
			<path
   id="XMLID_1623_"
   style="fill:#544456"
   d="m 405.179,302.974 c 0.303,3.218 2.606,5.919 5.777,6.638 0.627,0.142 0.894,-0.822 0.266,-0.964 -2.707,-0.614 -4.78,-2.892 -5.043,-5.674 -0.06,-0.635 -1.061,-0.641 -1,0 z" />

		</g>

		<g
   id="XMLID_1572_">
			<path
   id="XMLID_1622_"
   style="fill:#544456"
   d="m 453.372,307.36 c 0.688,1.224 1.451,2.397 2.29,3.523 0.38,0.51 1.249,0.012 0.863,-0.505 -0.839,-1.126 -1.602,-2.299 -2.29,-3.523 -0.315,-0.56 -1.179,-0.057 -0.863,0.505 z" />

		</g>

		<g
   id="XMLID_1579_">
			<path
   id="XMLID_1615_"
   style="fill:#724425"
   d="m 441.551,408.874 c 2.347,0.813 4.79,0.864 7.171,0.161 0.616,-0.182 0.354,-1.147 -0.266,-0.964 -2.226,0.657 -4.448,0.598 -6.639,-0.161 -0.61,-0.211 -0.872,0.755 -0.266,0.964 z" />

		</g>

		<g
   id="XMLID_1586_">
			<path
   id="XMLID_1608_"
   style="fill:#724425"
   d="m 450.891,409.534 c 4.388,2.362 9.161,3.625 14.08,4.298 4.562,0.624 9.76,1.492 14.13,-0.361 0.591,-0.25 0.081,-1.112 -0.505,-0.863 -4.264,1.808 -9.891,0.794 -14.345,0.12 -4.49,-0.68 -8.841,-1.895 -12.855,-4.056 -0.567,-0.306 -1.073,0.557 -0.505,0.862 z" />

		</g>

		<g
   id="XMLID_1593_">
			<path
   id="XMLID_1520_"
   style="fill:#724425"
   d="m 402.03,411.793 c 4.556,5.558 15.294,11.69 21.744,5.811 0.477,-0.434 -0.232,-1.14 -0.707,-0.707 -5.972,5.443 -16.166,-0.733 -20.33,-5.811 -0.409,-0.498 -1.112,0.213 -0.707,0.707 z" />

		</g>

		<g
   id="XMLID_1628_">
			<path
   id="XMLID_1519_"
   style="fill:#724425"
   d="m 409.875,416.415 c 3.614,-1.553 7.403,-2.228 11.331,-2.065 0.643,0.027 0.642,-0.973 0,-1 -4.114,-0.171 -8.054,0.577 -11.835,2.202 -0.59,0.253 -0.081,1.115 0.504,0.863 z" />

		</g>

		<g
   id="XMLID_1635_">
			<path
   id="XMLID_1518_"
   style="fill:#724425"
   d="m 403.526,393.453 c 3.385,1.721 7.107,1.803 10.574,0.26 0.587,-0.261 0.079,-1.123 -0.505,-0.863 -3.123,1.39 -6.52,1.288 -9.564,-0.26 -0.573,-0.292 -1.079,0.57 -0.505,0.863 z" />

		</g>

		<path
   id="XMLID_1742_"
   style="fill:#ffce94"
   d="m 440.36,108.743 c -0.19,4.68 -1.62,11.75 -1.75,13.18 -0.23,2.44 -3.81,9.713 -9.69,10.963 -5.88,1.25 -13.333,-5.667 -13.62,-10.963 -0.033,-0.604 -0.23,-1.55 -0.23,-2.66 -0.18,-0.04 -2.57,-1.08 -3.27,-3.27 -0.71,-2.19 -0.55,-5.11 1.24,-5.65 1.8,-0.54 3.9,2.84 3.9,2.84 0,0 3.82,-1.82 7.61,-4.52 0.29,-0.21 0.59,-0.43 0.88,-0.65 2.06,-1.55 4.02,-3.34 5.24,-5.21 3.63,-5.56 6.04,-3.93 6.5,-3.25 0,-10e-4 3.37,4.499 3.19,9.19 z" />

		<g
   id="XMLID_1642_">
			<path
   id="XMLID_1517_"
   style="fill:#724425"
   d="m 403.31,388.863 c 0.516,0.297 1.032,0.591 1.547,0.89 0.418,0.242 1.009,0.51 1.21,0.979 0,-0.168 0,-0.336 0,-0.505 -0.109,0.209 -1.019,0.291 -1.303,0.295 -0.643,0.009 -0.645,1.009 0,1 0.671,-0.009 2.775,-0.319 2.103,-1.442 -0.256,-0.428 -0.767,-0.749 -1.182,-1.002 -0.614,-0.374 -1.247,-0.721 -1.87,-1.079 -0.559,-0.321 -1.063,0.543 -0.505,0.864 z" />

		</g>

		<g
   id="XMLID_1649_">
			<path
   id="XMLID_1510_"
   style="fill:#724425"
   d="m 406.305,387.316 c 0.722,0.497 1.509,0.865 2.35,1.111 0.619,0.181 0.883,-0.783 0.266,-0.964 -0.762,-0.224 -1.457,-0.56 -2.111,-1.011 -0.532,-0.365 -1.032,0.501 -0.505,0.864 z" />

		</g>

		<g
   id="XMLID_1656_">
			<path
   id="XMLID_1345_"
   style="fill:#724425"
   d="m 446.394,391.119 c 1.629,0.589 3.348,0.356 5.043,0.47 0.642,0.043 0.64,-0.957 0,-1 -1.605,-0.108 -3.234,0.123 -4.777,-0.435 -0.606,-0.219 -0.868,0.747 -0.266,0.965 z" />

		</g>

		<path
   id="XMLID_1153_"
   style="fill:#e19974"
   d="m 424.789,123.735 c 0,0 0.142,1.129 1.654,1.837 1.512,0.708 2.908,0.729 3.637,0.354 0.729,-0.375 0.667,-1.271 0.667,-1.271 z" />

		<path
   id="XMLID_1321_"
   style="fill:#e19974"
   d="m 424.916,123.309 c -0.09,-0.056 0.619,-0.436 2.104,-0.479 0.813,-0.024 1.438,0.673 1.438,0.673 0,0 0.793,-0.444 1.5,-0.257 1.109,0.294 1.021,0.958 1.083,0.958 0.063,0.001 -3.708,0.605 -6.125,-0.895 z" />

		<g
   id="XMLID_1663_">
			<path
   id="XMLID_1344_"
   style="fill:#724425"
   d="m 444.699,383.758 c 2.467,1.107 4.921,2.24 7.359,3.409 0.203,0.098 0.406,0.195 0.609,0.293 0.726,0.348 0.812,0.391 0.257,0.129 -0.574,0.146 -1.347,0.034 -1.924,0.005 -1.464,-0.073 -2.875,-0.346 -4.282,-0.743 -0.621,-0.175 -0.885,0.79 -0.266,0.964 1.064,0.3 8.102,1.991 7.97,-0.115 -0.064,-1.02 -2.089,-1.509 -2.774,-1.834 -2.137,-1.016 -4.286,-2.004 -6.444,-2.972 -0.583,-0.261 -1.092,0.6 -0.505,0.864 z" />

		</g>

		<g
   id="XMLID_1670_">
			<path
   id="XMLID_1343_"
   style="fill:#724425"
   d="m 449.398,381.834 c 1.255,0.726 2.553,1.357 3.893,1.911 0.594,0.246 0.853,-0.721 0.266,-0.964 -1.259,-0.52 -2.475,-1.128 -3.654,-1.81 -0.559,-0.323 -1.063,0.54 -0.505,0.863 z" />

		</g>

		<g
   id="XMLID_1677_">
			<path
   id="XMLID_1342_"
   style="fill:#724425"
   d="m 455.597,393.565 c -0.769,0.259 -1.503,0.594 -2.197,1.014 -0.313,0.189 -0.336,0.68 0,0.863 0.842,0.46 1.743,0.716 2.7,0.777 0.643,0.041 0.64,-0.959 0,-1 -0.779,-0.049 -1.511,-0.266 -2.195,-0.64 0,0.288 0,0.576 0,0.863 0.622,-0.376 1.269,-0.681 1.958,-0.913 0.607,-0.203 0.347,-1.17 -0.266,-0.964 z" />

		</g>

		<g
   id="XMLID_1600_">
			<path
   id="XMLID_1336_"
   style="fill:#724425"
   d="m 470.845,413.925 c 0.945,-1.508 2.18,-2.769 3.672,-3.739 0.538,-0.35 0.037,-1.216 -0.505,-0.863 -1.636,1.064 -2.995,2.443 -4.031,4.098 -0.342,0.547 0.522,1.049 0.864,0.504 z" />

		</g>

		<g
   id="XMLID_1607_">
			<path
   id="XMLID_1340_"
   style="fill:#705a72"
   d="m 399.438,177.244 c 1.071,0.403 2.158,0.754 3.263,1.052 0.622,0.168 0.888,-0.796 0.266,-0.964 -1.105,-0.298 -2.192,-0.648 -3.263,-1.052 -0.603,-0.227 -0.864,0.739 -0.266,0.964 z" />

		</g>

		<g
   id="XMLID_1614_">
			<path
   id="XMLID_1598_"
   style="fill:#705a72"
   d="m 397.102,228.02 c 0.939,2.517 1.956,5 3.052,7.452 0.262,0.587 1.124,0.078 0.863,-0.505 -1.06,-2.374 -2.042,-4.778 -2.951,-7.214 -0.222,-0.597 -1.189,-0.338 -0.964,0.267 z" />

		</g>

		<g
   id="XMLID_1621_">
			<path
   id="XMLID_1712_"
   style="fill:#916a37"
   d="m 425.32,109.293 c -0.16,-0.27 -0.36,-0.46 -0.66,-0.57 -0.04,-0.02 -0.08,-0.03 -0.11,-0.06 0.29,-0.21 0.59,-0.43 0.88,-0.65 0.31,0.18 0.56,0.44 0.75,0.78 0.32,0.56 -0.54,1.06 -0.86,0.5 z" />

		</g>

		<g
   id="XMLID_1643_">
			<path
   id="XMLID_1664_"
   style="fill:#916a37"
   d="m 432.751,109.569 c 1.339,-1.124 3.145,-1.003 4.369,0.221 0.456,0.456 1.163,-0.251 0.707,-0.707 -1.633,-1.632 -4.028,-1.694 -5.784,-0.221 -0.493,0.414 0.218,1.118 0.708,0.707 z" />

		</g>

		<g
   id="XMLID_1650_">
			<path
   id="XMLID_1681_"
   style="fill:#b5885b"
   d="m 428.491,115.99 c -0.06,0.704 0.043,1.295 0.39,1.914 0.211,0.377 0.527,0.741 0.543,1.188 0.021,0.565 -0.431,0.817 -0.88,1.077 -0.557,0.322 -0.054,1.187 0.505,0.863 0.749,-0.434 1.456,-0.989 1.409,-1.941 -0.022,-0.45 -0.217,-0.854 -0.439,-1.237 -0.374,-0.646 -0.594,-1.092 -0.528,-1.864 0.055,-0.641 -0.946,-0.638 -1,0 z" />

		</g>

		<g
   id="XMLID_1657_">
			<path
   id="XMLID_1734_"
   style="fill:#b5885b"
   d="m 424.227,123.555 c 1.888,0.862 4.818,1.566 6.882,1.049 0.312,-0.078 0.18,-0.561 -0.133,-0.482 -1.001,0.251 -2.152,0.029 -3.156,-0.103 -1.166,-0.153 -2.265,-0.405 -3.341,-0.896 -0.291,-0.133 -0.545,0.298 -0.252,0.432 z" />

		</g>

		<g
   id="XMLID_1659_">
			<path
   id="XMLID_1698_"
   style="fill:#916a37"
   d="m 416.305,108.832 c 1.66,-3.563 3.398,-7.122 6.544,-9.616 0.504,-0.399 -0.208,-1.103 -0.707,-0.707 -3.208,2.543 -5.006,6.18 -6.701,9.818 -0.269,0.58 0.592,1.088 0.864,0.505 z" />

		</g>

		<g
   id="XMLID_1661_">
			<path
   id="XMLID_1684_"
   style="fill:#916a37"
   d="m 415.162,107.31 c 0.228,-2.207 0.497,-4.395 1.559,-6.377 0.304,-0.567 -0.559,-1.073 -0.863,-0.505 -1.146,2.139 -1.449,4.501 -1.695,6.882 -0.067,0.64 0.933,0.635 0.999,0 z" />

		</g>

		<g
   id="XMLID_1669_">
			<path
   id="XMLID_1683_"
   style="fill:#916a37"
   d="m 403.862,128.925 c 0.242,1.225 0.272,2.359 -0.503,3.387 -0.432,0.572 -1.028,0.986 -1.433,1.584 -0.674,0.997 -0.811,2.101 -0.637,3.27 0.094,0.634 1.058,0.365 0.964,-0.266 -0.341,-2.297 1.433,-2.91 2.339,-4.609 0.604,-1.133 0.473,-2.42 0.233,-3.633 -0.124,-0.63 -1.088,-0.363 -0.963,0.267 z" />

		</g>

		<g
   id="XMLID_1680_">
			<path
   id="XMLID_1682_"
   style="fill:#916a37"
   d="m 407.464,137.545 c 0.514,1.798 -1.227,2.927 -2.198,4.161 -0.774,0.984 -1.08,2.013 -0.998,3.262 0.042,0.639 1.042,0.644 1,0 -0.134,-2.055 1.242,-2.96 2.375,-4.416 0.766,-0.985 1.135,-2.048 0.785,-3.272 -0.176,-0.618 -1.141,-0.356 -0.964,0.265 z" />

		</g>

		<g
   id="XMLID_1705_">
			<path
   id="XMLID_1679_"
   style="fill:#916a37"
   d="m 419.115,149.715 c 0.096,-1.289 0.147,-2.545 -0.391,-3.75 -0.573,-1.285 -1.642,-2.259 -1.694,-3.747 -0.023,-0.642 -1.023,-0.645 -1,0 0.039,1.119 0.472,1.956 1.049,2.897 0.947,1.544 1.17,2.801 1.035,4.6 -0.047,0.642 0.953,0.639 1.001,0 z" />

		</g>

		<g
   id="XMLID_1740_">
			<path
   id="XMLID_1660_"
   style="fill:#916a37"
   d="m 433.523,144.305 c -0.166,1.505 0.283,2.918 1.204,4.107 0.394,0.508 1.097,-0.204 0.707,-0.707 -0.761,-0.983 -1.046,-2.175 -0.911,-3.399 0.07,-0.64 -0.931,-0.635 -1,-0.001 z" />

		</g>

		<g
   id="XMLID_1747_">
			<path
   id="XMLID_1613_"
   style="fill:#916a37"
   d="m 444.147,149.712 c -0.84,-1.711 -3.807,-2.559 -3.633,-4.668 0.053,-0.641 -0.947,-0.638 -1,0 -0.213,2.589 2.807,3.211 3.77,5.173 0.283,0.577 1.145,0.071 0.863,-0.505 z" />

		</g>

		<g
   id="XMLID_1754_">
			<path
   id="XMLID_1605_"
   style="fill:#916a37"
   d="m 443.854,136.671 c -0.366,1.629 -10e-4,3.169 0.922,4.554 1.111,1.668 3.507,2.871 4.12,4.8 0.194,0.611 1.16,0.35 0.964,-0.266 -1.081,-3.401 -6.015,-4.494 -5.042,-8.822 0.141,-0.627 -0.823,-0.895 -0.964,-0.266 z" />

		</g>

		<g
   id="XMLID_1761_">
			<path
   id="XMLID_1666_"
   style="fill:#916a37"
   d="m 446.334,147.973 c 0.625,0.661 1.078,1.43 1.35,2.297 0.192,0.612 1.158,0.351 0.964,-0.266 -0.324,-1.032 -0.863,-1.952 -1.607,-2.738 -0.443,-0.469 -1.15,0.239 -0.707,0.707 z" />

		</g>

		<g
   id="XMLID_1768_">
			<path
   id="XMLID_1691_"
   style="fill:#916a37"
   d="m 436.242,94.387 c 0.092,0.794 -0.005,1.541 -0.297,2.285 -0.236,0.599 0.731,0.859 0.964,0.266 0.321,-0.816 0.434,-1.68 0.333,-2.551 -0.074,-0.631 -1.075,-0.639 -1,0 z" />

		</g>

		<g
   id="XMLID_1845_">
			<path
   id="XMLID_1710_"
   style="fill:#b5885b"
   d="m 463.27,174.796 c -1.415,-0.462 -2.855,-0.542 -4.318,-0.277 -0.632,0.114 -0.364,1.078 0.266,0.964 1.286,-0.232 2.545,-0.128 3.786,0.277 0.613,0.201 0.876,-0.765 0.266,-0.964 z" />

		</g>

		<g
   id="XMLID_1852_">
			<path
   id="XMLID_1703_"
   style="fill:#b5885b"
   d="m 463.719,177.399 c -1.31,-0.178 -2.671,-0.388 -3.979,-0.098 -0.628,0.139 -0.362,1.104 0.266,0.964 1.114,-0.247 2.331,-0.054 3.447,0.098 0.63,0.086 0.902,-0.878 0.266,-0.964 z" />

		</g>

		<g
   id="XMLID_1859_">
			<path
   id="XMLID_1667_"
   style="fill:#b5885b"
   d="m 458.546,173.641 c 0.516,-0.058 1.025,-0.066 1.543,-0.024 0.642,0.051 0.638,-0.949 0,-1 -0.518,-0.041 -1.027,-0.033 -1.543,0.024 -0.632,0.071 -0.64,1.071 0,1 z" />

		</g>

		<ellipse
   id="XMLID_1136_"
   style="fill:#66523b"
   cx="422.53699"
   cy="112.969"
   rx="1.039"
   ry="1.865" />

		<ellipse
   id="XMLID_1138_"
   style="fill:#66523b"
   cx="433.832"
   cy="114.01"
   rx="0.97600001"
   ry="1.75" />

		<g
   id="XMLID_58_">
			<path
   id="XMLID_1672_"
   style="fill:#b5885b"
   d="m 413.285,113.438 c 0.709,0.714 1.332,1.491 1.87,2.341 0.344,0.542 1.209,0.041 0.863,-0.505 -0.583,-0.92 -1.259,-1.771 -2.026,-2.543 -0.454,-0.457 -1.161,0.25 -0.707,0.707 z" />

		</g>

		<g
   id="XMLID_1149_">
			<path
   id="XMLID_1668_"
   style="fill:#b5885b"
   d="m 414.158,113.794 c -0.458,0.351 -0.823,0.749 -1.097,1.261 -0.304,0.567 0.559,1.073 0.863,0.505 0.188,-0.352 0.419,-0.657 0.739,-0.902 0.503,-0.387 0.006,-1.256 -0.505,-0.864 z" />

		</g>

		<path
   id="XMLID_1328_"
   style="fill:#ffffff"
   d="m 415.351,120.088 c 0,1.297 -1.034,2.348 -2.309,2.348 -1.275,0 -2.309,-1.051 -2.309,-2.348 0,-1.297 1.034,-2.348 2.309,-2.348 1.275,0 2.309,1.051 2.309,2.348 z" />

	</g>
  </g>
</svg>
