<?xml version="1.0" encoding="UTF-8" standalone="no"?>
<!-- Created with Inkscape (http://www.inkscape.org/) -->

<svg
   width="43.255074mm"
   height="124.109mm"
   viewBox="0 0 43.255074 124.109"
   version="1.1"
   id="svg1"
   inkscape:version="1.4.2 (f4327f4, 2025-05-13)"
   sodipodi:docname="woman1.svg"
   xmlns:inkscape="http://www.inkscape.org/namespaces/inkscape"
   xmlns:sodipodi="http://sodipodi.sourceforge.net/DTD/sodipodi-0.dtd"
   xmlns="http://www.w3.org/2000/svg"
   xmlns:svg="http://www.w3.org/2000/svg">
  <sodipodi:namedview
     id="namedview1"
     pagecolor="#ffffff"
     bordercolor="#000000"
     borderopacity="0.25"
     inkscape:showpageshadow="2"
     inkscape:pageopacity="0.0"
     inkscape:pagecheckerboard="0"
     inkscape:deskcolor="#d1d1d1"
     inkscape:document-units="mm"
     inkscape:zoom="1.2275954"
     inkscape:cx="193.87495"
     inkscape:cy="131.9653"
     inkscape:window-width="2880"
     inkscape:window-height="1676"
     inkscape:window-x="-12"
     inkscape:window-y="-12"
     inkscape:window-maximized="1"
     inkscape:current-layer="layer1" />
  <defs
     id="defs1" />
  <g
     inkscape:label="图层 1"
     inkscape:groupmode="layer"
     id="layer1"
     transform="translate(-53.710417,-113.50625)">
    <g
       id="XMLID_101_"
       transform="matrix(0.26458333,0,0,0.26458333,-9.8058892,95.536292)">
	<path
   id="XMLID_52_"
   style="fill:#682c1c"
   d="m 290.943,140.419 c 1.694,4 3.793,6.082 4.907,13.616 0.152,1.031 0.488,1.289 1.716,1.041 10.569,-2.134 43.189,1.382 44.122,-9.681 0.316,-3.742 -2.018,-19.613 -3.744,-22.938 -2.779,-5.353 -18.558,-12.598 -24.463,-13.325 -15.092,-1.86 -29.18,15.601 -22.538,31.287 z" />

	<path
   id="XMLID_39_"
   style="fill:#07191d"
   d="m 332.436,151.49 c 1.645,1.363 -9.139,14.576 -18.799,14.576 -9.66,0 -19.07,-11.951 -17.983,-13.839 0.357,-0.619 9.488,-5.06 19.148,-5.06 9.66,0 16.612,3.476 17.634,4.323 z" />

	<g
   id="XMLID_7_">
		<path
   id="XMLID_157_"
   style="fill:#ff9c8a"
   d="m 349.57,164.824 c -14.753,-10.118 -28.119,-9.351 -23.634,-37.304 l -24.796,-0.614 c -0.281,20.627 1.076,22.035 -7.008,29.972 -1.78,1.748 -13.263,9.143 -13.263,9.143 19.207,16.342 53.151,13.588 68.701,-1.197 z" />

		<path
   id="XMLID_155_"
   style="fill:#ff9c8a"
   d="m 283.852,102.28 c 4.038,40.832 41.216,54.954 45.551,20.306 7.823,-62.525 -48.837,-53.538 -45.551,-20.306 z" />

		<g
   id="XMLID_153_">
			<path
   id="XMLID_154_"
   style="fill:#ff9c8a"
   d="m 330.543,103.41 c -3.921,-0.228 -2.346,7.964 -1.458,12.003 1.749,7.965 7.633,-11.643 1.458,-12.003 z" />

		</g>

		<g
   id="XMLID_151_">
			<path
   id="XMLID_152_"
   style="fill:#ff9c8a"
   d="m 286.789,123.92 c -6.786,-8.948 0.416,-17.512 4.462,0.51 1.06,4.725 -3.441,0.837 -4.462,-0.51 z" />

		</g>

		<path
   id="XMLID_150_"
   style="fill:#382823"
   d="m 297.612,115.424 c -1.27,0.316 -3.399,-4.551 -0.319,-5.319 1.644,-0.409 2.397,4.801 0.319,5.319 z" />

		<path
   id="XMLID_149_"
   style="fill:#382823"
   d="m 319.379,110.001 c 1.27,-0.316 1.128,-5.679 -1.953,-4.912 -1.645,0.41 -0.125,5.43 1.953,4.912 z" />

		<path
   id="XMLID_146_"
   style="fill:#f07957"
   d="m 307.722,121.652 c 4.786,0.793 4.001,-1.328 2.724,-0.91 -4.244,1.389 -0.364,-1.672 -1.918,-9.281 -0.163,-0.8 -1.037,-0.589 -0.982,0.088 0.038,0.468 0.364,2.145 0.371,2.645 0.091,6.212 -1.724,7.205 -0.195,7.458 z" />

		<path
   id="XMLID_139_"
   style="fill:#f07957"
   d="m 318.362,126.618 c -5.576,13.283 -14.469,3.305 -12.503,2.777 11.323,-3.035 13.079,-4.149 12.503,-2.777 z" />

		<g
   id="XMLID_258_">
			<path
   id="XMLID_259_"
   style="fill:#f07957"
   d="m 286.559,118.156 c 0.025,-0.399 0.59,-0.354 0.565,0.04 -0.149,2.398 0.784,3.549 1.763,3.838 1.612,0.473 -2.673,1.644 -2.328,-3.878 z" />

		</g>

		<g
   id="XMLID_256_">
			<path
   id="XMLID_257_"
   style="fill:#f07957"
   d="m 330.995,111.989 c 0.577,-1.178 0.094,-2.67 -0.405,-3.976 -0.141,-0.369 0.386,-0.591 0.525,-0.225 1.874,4.905 -0.641,5.26 -0.12,4.201 z" />

		</g>

		<g
   id="XMLID_3_">
			<path
   id="XMLID_6_"
   style="fill:#f07957"
   d="m 302.407,139.381 c -0.422,-0.278 -0.025,-0.952 0.396,-0.676 8.117,5.331 17.01,4.124 21.625,-2.931 0.283,-0.434 0.899,0.02 0.617,0.452 -4.855,7.421 -14.162,8.719 -22.638,3.155 z" />

		</g>

		<path
   id="XMLID_87_"
   style="fill:#682c1c"
   d="m 297.489,104.593 c 2,-0.218 2.171,1.474 0.778,2.139 -14.85,7.093 -5.732,-1.599 -0.778,-2.139 z" />

		<path
   id="XMLID_85_"
   style="fill:#682c1c"
   d="m 313.637,100.037 c -1.863,0.802 -1.264,2.381 0.261,2.276 16.256,-1.125 4.353,-4.263 -0.261,-2.276 z" />

	</g>

	<path
   id="XMLID_9_"
   style="fill:#fffffb"
   d="m 277.568,165.268 c -0.03,21.642 3.427,61.12 9.445,81.632 3.624,12.353 54.621,9.553 56.19,-1.19 3.093,-21.181 9.605,-58.48 9.56,-81.013 l -21.108,-10.668 c -5.964,12.249 -30.693,11.747 -35.989,1.278 z" />

	<g
   id="XMLID_127_">
		<g
   id="XMLID_116_">
			<path
   id="XMLID_126_"
   style="fill:#fbad3c"
   d="m 299.896,162.678 c -0.496,-0.463 0.167,-1.257 0.662,-0.793 14.471,13.465 17.163,15.517 19.671,12.06 9.2,-12.684 11.685,-17.966 11.708,-18.018 0.418,-0.901 4.584,-2.707 -10.915,18.663 -3.247,4.473 -7.09,1.259 -21.126,-11.912 z" />

		</g>

		<path
   id="XMLID_118_"
   style="fill:#e6501f"
   d="m 317.9,177.937 c -2.105,0 -2.107,-3.375 0,-3.375 2.105,0 2.107,3.375 0,3.375 z" />

		<path
   id="XMLID_121_"
   style="fill:#e6501f"
   d="m 322.595,172.39 c -1.091,0 -1.092,-1.749 0,-1.749 1.091,0 1.092,1.749 0,1.749 z" />

		<path
   id="XMLID_124_"
   style="fill:#e6501f"
   d="m 312.256,174.139 c -1.637,0 -1.638,-2.624 0,-2.624 1.637,0 1.639,2.624 0,2.624 z" />

	</g>

	<path
   id="XMLID_56_"
   style="fill:#ff9c8a"
   d="m 300.928,513.28 c 2.612,8.215 12.086,8.236 13.505,-1.117 l 0.06,-22.643 -16.86,-0.26 z" />

	<path
   id="XMLID_20_"
   style="fill:#ffba58"
   d="m 315.878,509.535 c -8.705,3.104 -20.588,2.474 -20.998,-0.74 -29.957,-235.04 -43.011,-232.163 -5.64,-256.11 l 27.013,1.796 c 5.944,38.983 1.261,254.47 -0.375,255.054 z" />

	<path
   id="XMLID_11_"
   style="fill:#07191d"
   d="m 277.568,165.268 c -5.552,2.19 -6.807,6.016 -9.602,9.588 -12.636,16.151 -9.185,24.565 -18.412,36.726 -5.404,7.122 -8.499,15.928 -9.449,24.972 -0.845,8.042 10.884,25.504 15.479,31.895 7.227,10.051 7.198,12.828 11.411,12.828 0,0 0.122,-10.34 8.649,-17.361 -4.82,-15.448 -6.429,-18.206 -10.177,-25.09 22.926,-40.154 27.991,-44.654 29.04,-56.712 0.989,-11.373 -6.149,-21.102 -16.939,-16.846 z" />

	<path
   id="XMLID_37_"
   style="fill:#242c37"
   d="m 275.12,535.709 c -0.498,-0.837 -0.583,-1.909 -0.245,-2.831 0.987,-2.686 27.055,-20.298 26.054,-19.598 4.745,3.175 11.107,1.595 13.505,-1.117 1.636,3.621 6.345,16.667 1.592,17.97 -2.839,0.779 -38.805,9.11 -40.906,5.576 z" />

	<path
   id="XMLID_8_"
   style="fill:#ff9c8a"
   d="m 349.933,513.678 c 2.612,8.215 12.086,8.236 13.505,-1.117 l 0.06,-22.643 -16.86,-0.26 z" />

	<path
   id="XMLID_2_"
   style="fill:#242c37"
   d="m 324.125,536.107 c -1.484,-2.496 0.699,-4.719 2.988,-6.347 10.68,-7.596 22.821,-16.082 22.821,-16.082 4.745,3.175 11.107,1.595 13.505,-1.117 1.442,3.192 6.484,16.636 1.513,17.992 -2.857,0.779 -38.704,9.125 -40.827,5.554 z" />

	<path
   id="XMLID_38_"
   style="fill:#ffba58"
   d="m 347.805,511.275 c 7.231,1.408 19.352,-1.657 19.518,-4.872 C 380.42,253.464 350.253,250.35 350.253,250.35 l -34,4.131 c -2.996,46.481 27.103,255.927 31.552,256.794 z" />

	<path
   id="XMLID_25_"
   style="fill:#07191d"
   d="m 310.104,246.967 c -27.106,-82.022 -28.35,-83.119 -22.582,-87.578 2,-1.546 8.133,-7.162 8.133,-7.162 2.8,1.589 27.767,49.522 14.449,94.74 z" />

	<g
   id="XMLID_78_">
		<path
   style="fill:#46535b"
   d="m 284.119,183.149 c -0.127,0 -0.254,-0.046 -0.353,-0.141 -0.207,-0.195 -0.216,-0.521 -0.021,-0.727 l 11.157,-11.818 -12.706,-1.07 c -0.283,-0.024 -0.494,-0.272 -0.47,-0.556 0.024,-0.283 0.266,-0.499 0.556,-0.47 l 14.835,1.249 -12.624,13.371 c -0.101,0.108 -0.237,0.162 -0.374,0.162 z"
   id="path1" />

	</g>

	<g
   id="XMLID_102_">
		<path
   style="fill:#46535b"
   d="m 310.105,247.482 c -0.018,0 -0.036,-0.001 -0.054,-0.003 -0.282,-0.029 -0.488,-0.283 -0.458,-0.565 l 0.124,-1.166 c 0.99,-9.288 3.309,-31.038 -3.811,-38.887 l 0.202,-0.183 -0.227,0.108 c -0.395,-0.697 -11.133,-14.991 -22.083,-23.749 -0.222,-0.177 -0.258,-0.501 -0.081,-0.723 0.177,-0.222 0.502,-0.258 0.723,-0.081 9.561,7.646 20.576,21.177 22.203,23.958 7.454,8.169 5.101,30.241 4.096,39.665 l -0.124,1.165 c -0.026,0.264 -0.25,0.461 -0.51,0.461 z"
   id="path2" />

	</g>

	<path
   id="XMLID_24_"
   style="fill:#2c3945"
   d="m 282.239,168.881 13.771,1.159 -11.89,12.595 c 7.368,5.677 23.319,22.486 25.903,31.071 3.676,12.217 -0.527,40.513 -4.439,53.069 -10.403,1.291 -21.434,-1.848 -33.411,-4.598 -6.168,-48.208 -0.162,-90.375 -0.04,-93.108 0.088,-1.974 19.162,-15.334 23.523,-16.842 z" />

	<path
   id="XMLID_44_"
   style="fill:#07191d"
   d="m 323.664,257.769 c 0,0 28.879,-71.851 28.7,-73.844 -0.301,-3.348 -2.173,-18.916 -4.667,-20.844 -2,-1.546 -15.261,-11.591 -15.261,-11.591 -3.033,7.731 -10.672,86.681 -8.772,106.279 z" />

	<g
   id="XMLID_80_">
		<path
   style="fill:#46535b"
   d="m 348.193,183.378 c -0.131,0 -0.263,-0.05 -0.363,-0.15 l -13.749,-13.717 11.445,-5.436 c 0.259,-0.121 0.564,-0.012 0.685,0.244 0.122,0.257 0.013,0.564 -0.244,0.686 l -10.126,4.809 12.715,12.686 c 0.201,0.201 0.202,0.526 0.001,0.727 -0.1,0.101 -0.232,0.151 -0.364,0.151 z"
   id="path3" />

	</g>

	<g
   id="XMLID_42_">
		<path
   style="fill:#46535b"
   d="m 323.421,247.218 c -0.316,-0.019 -0.532,-0.263 -0.514,-0.547 2.055,-32.659 9.98,-43.584 24.367,-63.417 l 0.503,-0.692 c 0.166,-0.23 0.488,-0.282 0.719,-0.114 0.23,0.167 0.281,0.489 0.114,0.719 l -0.503,0.692 c -14.274,19.677 -22.136,30.516 -24.173,62.877 -0.017,0.273 -0.243,0.482 -0.513,0.482 z"
   id="path4" />

	</g>

	<g
   id="XMLID_105_">
		<path
   style="fill:#46535b"
   d="m 345.747,165.055 c -0.13,0 -0.26,-0.049 -0.36,-0.147 l -12.265,-12.027 c -0.203,-0.199 -0.206,-0.524 -0.007,-0.728 0.199,-0.203 0.525,-0.207 0.728,-0.007 l 12.265,12.027 c 0.203,0.199 0.206,0.524 0.007,0.728 -0.101,0.102 -0.235,0.154 -0.368,0.154 z"
   id="path5" />

	</g>

	<g
   id="XMLID_89_">
		<path
   style="fill:#ce8b35"
   d="m 360.764,277.955 c -0.177,0 -0.349,-0.091 -0.445,-0.255 -4.449,-7.622 -10.687,-12.733 -17.564,-14.391 -0.276,-0.067 -0.446,-0.345 -0.38,-0.621 0.067,-0.276 0.346,-0.446 0.621,-0.38 7.152,1.725 13.62,7.006 18.211,14.873 0.144,0.245 0.061,0.561 -0.185,0.704 -0.081,0.047 -0.17,0.07 -0.258,0.07 z"
   id="path6" />

	</g>

	<path
   id="XMLID_43_"
   style="fill:#2c3945"
   d="m 345.747,164.54 -10.785,5.122 13.232,13.202 c -5.472,7.03 -17.011,23.435 -19.595,32.021 -3.677,12.217 -7.649,40.388 -3.736,52.944 13.418,-0.923 28.956,-3.228 39.112,-7.649 6.168,-48.208 -6.722,-94.547 -6.844,-97.28 -0.088,-1.974 -20.333,-9.901 -24.694,-11.41 z" />

	<g
   id="XMLID_110_">
		<path
   style="fill:#07191d"
   d="m 303.345,263.169 c -0.242,0 -0.458,-0.171 -0.505,-0.418 l -4.922,-25.76 c -1.051,-0.843 -1.429,-1.689 -1.125,-2.518 1.171,-3.186 13.194,-3.884 16.855,-3.669 0.284,0.017 0.5,0.26 0.483,0.544 -0.017,0.284 -0.259,0.501 -0.544,0.483 -4.871,-0.283 -15.056,0.896 -15.829,2.998 -0.18,0.49 0.411,1.067 0.938,1.465 l 0.158,0.119 4.996,26.145 c 0.053,0.279 -0.129,0.549 -0.409,0.602 -0.032,0.006 -0.065,0.009 -0.096,0.009 z"
   id="path7" />

	</g>

	<g
   id="XMLID_84_">
		<path
   style="fill:#ce8b35"
   d="m 313.056,301.972 c -0.624,0 -1.318,-0.029 -2.089,-0.088 -0.283,-0.021 -0.496,-0.268 -0.475,-0.551 0.021,-0.283 0.267,-0.489 0.552,-0.475 3.209,0.236 4.944,-0.022 5.793,-0.879 0.704,-0.71 0.912,-1.934 0.72,-4.224 -0.402,-4.774 -0.819,-11.414 -1.224,-17.834 -0.544,-8.659 -1.16,-18.437 -1.555,-19.835 -0.017,-0.015 -0.034,-0.032 -0.05,-0.049 -0.188,-0.214 -0.167,-0.539 0.047,-0.727 0.147,-0.128 0.392,-0.172 0.574,-0.097 0.591,0.246 0.778,1.049 2.011,20.643 0.404,6.415 0.821,13.05 1.222,17.813 0.162,1.92 0.151,3.859 -1.014,5.035 -0.861,0.87 -2.227,1.268 -4.512,1.268 z"
   id="path8" />

	</g>

	<g
   id="XMLID_81_">
		<path
   style="fill:#46535b"
   d="m 331.268,239.705 c -0.197,0 -0.384,-0.113 -0.47,-0.304 -0.116,-0.259 0,-0.564 0.259,-0.68 8.721,-3.908 30.906,-10.878 31.129,-10.949 0.272,-0.084 0.56,0.066 0.645,0.337 0.085,0.271 -0.066,0.56 -0.337,0.645 -0.222,0.07 -22.35,7.022 -31.016,10.906 -0.068,0.03 -0.14,0.045 -0.21,0.045 z"
   id="path9" />

	</g>

	<path
   id="XMLID_12_"
   style="fill:#07191d"
   d="m 353.533,160.331 c 0,0 9.668,2.064 18.498,17.861 3.475,6.217 11.183,13.439 16.821,24.761 3.049,6.123 7.059,14.865 11.771,21.433 13.732,19.139 -25.235,23.362 -28,24.847 -4.081,2.191 -17.429,6.55 -25.164,6.158 -7.115,-0.36 -13.895,1.152 -17.858,1.152 -2.532,-3.571 -4.727,-9.032 -3.9,-13.724 13.578,-5.746 34.658,-14.327 48.777,-17.931 -13.135,-9.926 -14.686,-13.037 -14.686,-13.037 -3.207,-14.045 -6.261,-42.697 -6.259,-51.52 z" />

	<path
   style="fill:#ff9c8a"
   d="m 328.234,247.994 c -0.222,-0.567 -0.02,-1.305 -0.339,-1.912 -0.389,-0.741 -1.11,-1.316 -1.817,-1.821 -1.723,-1.23 -3.635,-2.04 -5.712,-2.658 -1.372,-0.408 -2.735,-0.855 -4.134,-1.158 -0.723,-0.157 -2.182,-0.68 -2.802,-0.396 -0.632,0.29 -0.967,1.444 -0.661,1.988 5.203,9.25 -5.438,-1.407 3.806,2.473 1.714,0.719 2.425,3.145 4.27,3.484 1.966,0.361 5.207,-0.807 7.389,0 z"
   id="path10" />

	<g
   id="XMLID_113_">
		<path
   id="XMLID_22_"
   style="fill:#d7d7d7"
   d="m 319.129,261.964 c -1.887,3.09 -12.246,4.709 -15.421,0.496 l -5.065,-26.611 c 6.879,3.861 18.312,1.74 22.311,-1.864 z" />

		<path
   id="XMLID_67_"
   style="fill:#e6501f"
   d="m 320.031,231.741 c 0.951,0.725 -5.661,3.839 -10.416,4.071 -4.603,0.225 -11.69,-1.571 -11.047,-2.438 1.513,-2.038 19.734,-2.951 21.463,-1.633 z" />

		<path
   id="XMLID_65_"
   style="fill:#475978"
   d="m 301.021,233.378 c -1.294,-0.212 5.622,-1.468 8.311,-1.624 17.61,-1.02 2.894,3.462 -8.311,1.624 z" />

		<path
   id="XMLID_70_"
   style="fill:#475978"
   d="m 321.851,233.57 c -0.425,-0.958 -0.718,-1.149 -1.819,-1.829 -4.848,3.215 -14.644,4.069 -21.463,1.633 -6.285,5.075 18.323,8.144 23.282,0.196 z" />

	</g>

	<path
   id="XMLID_674_"
   style="fill:#7b3b23"
   d="m 323.837,104.634 c -1.726,16.121 4.751,16.868 5.25,20.66 0.733,5.569 -8.087,5.07 6.375,25.642 2.497,3.552 23.214,-1.26 23.577,-4.727 0.707,-6.744 3.451,-14.248 -0.961,-19.572 -1.713,-2.067 -4.875,-3.387 -6.118,-5.655 -1.949,-3.557 1.367,-8.278 0.223,-12.096 -1.86,-6.208 -14.449,-7.623 -15.888,-13.94 -0.732,-3.213 2.469,-14.19 -6.844,-22.421 -12.04,-10.642 -37.314,-1.195 -26.605,11.57 0.002,0.001 23.473,-2.638 20.991,20.539 z" />

	<path
   id="XMLID_51_"
   style="fill:#7b3b23"
   d="m 291.49,115.854 c 8.029,13.817 2.464,17.408 3.534,21.065 0.745,2.548 11.952,8.04 3.682,24.002 -2.097,4.047 -20.688,11.387 -22.408,8.412 -3.345,-5.786 -8.839,-11.344 -6.98,-18.15 0.722,-2.642 3.055,-5.26 3.27,-7.872 0.337,-4.097 -4.558,-6.879 -5.053,-10.849 -0.806,-6.457 10.022,-13.403 8.792,-19.77 -0.626,-3.238 -6.981,-11.317 -2.798,-23.376 6.659,-19.193 33.143,-24.809 29.9,-5.266 -1.652,6.455 -25.866,7.838 -11.939,31.804 z" />

	<g
   id="XMLID_309_">
		<g
   id="XMLID_283_">
			<path
   id="XMLID_351_"
   style="fill:#682c1c"
   d="m 302.931,81.846 c 0.233,-2.261 -0.363,-4.609 -1.637,-6.44 -0.375,-0.538 0.396,-1.14 0.77,-0.6 1.414,2.034 2.076,4.64 1.817,7.15 -0.069,0.665 -1.019,0.555 -0.95,-0.11 z" />

		</g>

		<g
   id="XMLID_287_">
			<path
   id="XMLID_350_"
   style="fill:#682c1c"
   d="m 303.826,74.415 c 2.336,-3.04 6.207,-4.604 9.86,-3.984 0.627,0.106 0.47,1.106 -0.151,1 -3.325,-0.564 -6.843,0.858 -8.968,3.623 -0.397,0.52 -1.141,-0.119 -0.741,-0.639 z" />

		</g>

		<g
   id="XMLID_288_">
			<path
   id="XMLID_349_"
   style="fill:#682c1c"
   d="m 305.126,77.629 c -0.615,-0.143 -0.416,-1.132 0.205,-0.989 1.226,0.286 2.225,-2.332 4.096,-1.352 0.565,0.297 0.144,1.205 -0.424,0.908 -1.173,-0.617 -2.061,1.852 -3.877,1.433 z" />

		</g>

		<g
   id="XMLID_289_">
			<path
   id="XMLID_348_"
   style="fill:#682c1c"
   d="m 316.485,83.627 c -4.945,-3.169 -4.355,-3.203 -9.774,-2.848 -0.59,0.038 -1.24,0.197 -1.275,-0.425 -0.037,-0.62 0.63,-0.548 1.216,-0.586 5.717,-0.374 5.187,-0.297 10.328,2.992 0.54,0.347 0.045,1.213 -0.495,0.867 z" />

		</g>

		<g
   id="XMLID_291_">
			<path
   id="XMLID_347_"
   style="fill:#682c1c"
   d="m 299.165,75.576 c -2.311,-2.142 -8.302,-0.677 -9.285,1.034 -0.328,0.571 -1.146,0.047 -0.817,-0.526 1.33,-2.314 8.016,-3.785 10.731,-1.27 0.477,0.442 -0.154,1.202 -0.629,0.762 z" />

		</g>

		<g
   id="XMLID_295_">
			<path
   id="XMLID_346_"
   style="fill:#682c1c"
   d="m 296.11,80.584 c -0.56,-0.307 -0.122,-1.207 0.44,-0.899 1.325,0.726 2.403,-2.806 4.777,-1.276 0.537,0.346 0.045,1.213 -0.497,0.865 -1.698,-1.095 -2.576,2.487 -4.72,1.31 z" />

		</g>

		<g
   id="XMLID_297_">
			<path
   id="XMLID_345_"
   style="fill:#682c1c"
   d="m 292.654,90.322 c 1.625,-3.65 9.183,-5.195 7.94,-8.229 -0.628,-1.535 2.8,-0.349 0.089,2.858 -2.105,2.493 -5.902,2.966 -7.165,5.803 -0.27,0.606 -1.134,0.172 -0.864,-0.432 z" />

		</g>

		<g
   id="XMLID_298_">
			<path
   id="XMLID_344_"
   style="fill:#682c1c"
   d="m 277.154,101.888 c -4.475,-6.886 3.182,-15.833 3.52,-17.903 0.107,-0.659 1.05,-0.488 0.942,0.173 -0.39,2.388 -7.749,10.885 -3.674,17.156 0.358,0.551 -0.43,1.126 -0.788,0.574 z" />

		</g>

		<g
   id="XMLID_299_">
			<path
   id="XMLID_343_"
   style="fill:#682c1c"
   d="m 290.503,130.852 c 2.41,-17.897 -11.05,-15.076 -4.965,-32.682 0.217,-0.629 1.115,-0.281 0.897,0.348 -5.726,16.567 7.407,14.703 5.014,32.476 -0.089,0.663 -1.035,0.521 -0.946,-0.142 z" />

		</g>

		<g
   id="XMLID_301_">
			<path
   id="XMLID_342_"
   style="fill:#682c1c"
   d="m 335.95,103.945 c -10.801,-6.399 -7.931,-12.042 -7.473,-16.814 0.672,-6.946 -3.462,-13.21 -6.336,-13.35 -0.631,-0.031 -0.587,-1.04 0.044,-1.011 3.644,0.177 7.946,7.196 7.243,14.464 -0.468,4.839 -3.183,9.801 6.988,15.827 0.553,0.328 0.086,1.212 -0.466,0.884 z" />

		</g>

		<g
   id="XMLID_302_">
			<path
   id="XMLID_341_"
   style="fill:#682c1c"
   d="m 339.331,145.263 c -13.086,-7.928 1.277,-10.964 -5.998,-20.532 -2.266,-2.979 -8.114,-7.597 -6.602,-13.217 0.173,-0.645 1.092,-0.367 0.919,0.277 -1.345,4.999 4.116,9.263 6.426,12.304 7.823,10.285 -6.606,12.815 5.728,20.288 0.55,0.333 0.076,1.212 -0.473,0.88 z" />

		</g>

		<g
   id="XMLID_303_">
			<path
   id="XMLID_340_"
   style="fill:#682c1c"
   d="m 354.195,137.222 c -2.643,-15.735 -10.232,-5.309 -9.363,-19.743 0.124,-2.06 0.544,-6.125 -2.289,-7.831 -0.583,-0.352 -1.001,-0.362 -1.112,-0.315 -1.021,0.46 -1.035,-2.144 1.584,-0.566 3.31,1.996 2.911,6.423 2.77,8.776 -0.836,13.901 6.568,2.934 9.351,19.501 0.11,0.659 -0.829,0.837 -0.941,0.178 z" />

		</g>

		<g
   id="XMLID_304_">
			<path
   id="XMLID_339_"
   style="fill:#682c1c"
   d="m 348.63,143.882 c -2.119,-6.576 -3.513,-5.347 -6.482,-8.652 -2.141,-2.384 -2.935,-5.958 -2.023,-9.104 0.187,-0.642 1.099,-0.342 0.913,0.297 -0.8,2.759 -0.075,6.018 1.802,8.109 2.83,3.15 4.474,2.131 6.694,9.023 0.204,0.632 -0.699,0.962 -0.904,0.327 z" />

		</g>

		<g
   id="XMLID_305_">
			<path
   id="XMLID_338_"
   style="fill:#682c1c"
   d="m 278.08,156.122 c -0.927,-6.837 3.472,-10.833 -1.995,-17.93 -4.904,-6.365 -2.673,-9.804 3.216,-21.17 0.304,-0.587 1.142,-0.1 0.838,0.487 -13.458,25.975 2.039,13.319 -0.765,32.281 -0.332,2.245 -1.493,8.787 2.178,10.3 0.246,0.101 0.368,0.395 0.272,0.655 -0.383,1.042 -3.215,-0.728 -3.744,-4.623 z" />

		</g>

		<g
   id="XMLID_306_">
			<path
   id="XMLID_337_"
   style="fill:#682c1c"
   d="m 293.424,151.035 c 0.886,-4.488 1.722,-8.728 -8.107,-12.565 -0.592,-0.231 -0.263,-1.182 0.331,-0.95 10.603,4.139 9.642,9.011 8.712,13.722 -0.351,1.781 -1.012,4.683 0.209,5.561 1.267,0.912 -2.874,2.999 -1.145,-5.768 z" />

		</g>

		<g
   id="XMLID_308_">
			<path
   id="XMLID_336_"
   style="fill:#682c1c"
   d="m 288.509,163.094 c -0.897,-3.692 -1.101,-4.686 -1.638,-5.703 -0.833,-1.578 -4.041,-4.334 -2.662,-9.102 0.187,-0.642 1.098,-0.34 0.914,0.297 -1.222,4.225 1.684,6.608 2.583,8.312 0.604,1.145 0.811,2.168 1.729,5.942 0.159,0.651 -0.768,0.897 -0.926,0.254 z" />

		</g>

	</g>

	<g
   id="XMLID_114_">
		<g
   id="XMLID_73_">
			<path
   style="fill:#1f2930"
   d="m 270.034,231.445 c -0.205,0 -0.376,-0.161 -0.385,-0.368 -0.871,-18.829 -0.04,-29.828 1.11,-45.052 0.358,-4.745 0.765,-10.123 1.16,-16.272 0.014,-0.212 0.187,-0.375 0.41,-0.36 0.212,0.014 0.374,0.197 0.36,0.41 -0.396,6.154 -0.802,11.534 -1.161,16.281 -1.191,15.763 -1.978,26.176 -1.108,44.958 0.01,0.213 -0.155,0.393 -0.368,0.404 -0.006,-0.001 -0.012,-0.001 -0.018,-0.001 z"
   id="path11" />

		</g>

		<g
   id="XMLID_75_">
			<path
   style="fill:#1f2930"
   d="m 257.657,240.773 c -0.119,0 -0.235,-0.054 -0.311,-0.156 -0.126,-0.171 -0.09,-0.413 0.081,-0.54 l 0.153,-0.113 c 1.102,-0.818 3.08,-2.33 5.222,-2.265 -1.949,-1.641 -4.237,-4.201 -3.412,-6.695 0.066,-0.202 0.286,-0.314 0.487,-0.245 0.203,0.067 0.313,0.285 0.245,0.487 -0.936,2.833 3.362,6.097 4.702,7.029 0.268,0.187 0.337,0.387 0.205,0.595 -0.201,0.314 -0.517,0.13 -0.668,0.043 -2.288,-1.323 -4.911,0.623 -6.32,1.67 l -0.154,0.115 c -0.07,0.051 -0.15,0.075 -0.23,0.075 z"
   id="path12" />

		</g>

		<g
   id="XMLID_76_">
			<path
   style="fill:#1f2930"
   d="m 255.546,221.733 c -0.085,0 -0.171,-0.028 -0.243,-0.086 -2.495,-2.022 -2.192,-5.504 -1.773,-10.325 0.061,-0.705 0.125,-1.441 0.184,-2.207 0.016,-0.212 0.209,-0.368 0.414,-0.355 0.212,0.016 0.371,0.202 0.355,0.414 -0.059,0.77 -0.123,1.508 -0.184,2.216 -0.398,4.583 -0.686,7.895 1.491,9.659 0.165,0.134 0.191,0.377 0.057,0.543 -0.078,0.092 -0.189,0.141 -0.301,0.141 z"
   id="path13" />

		</g>

		<g
   id="XMLID_77_">
			<path
   style="fill:#1f2930"
   d="m 261.893,207.951 c -0.166,0 -0.319,-0.108 -0.37,-0.275 -1.838,-6.1 -2.072,-12.617 -0.676,-18.848 0.047,-0.209 0.257,-0.337 0.461,-0.292 0.208,0.046 0.339,0.253 0.292,0.461 -1.367,6.101 -1.138,12.483 0.662,18.456 0.061,0.204 -0.054,0.419 -0.258,0.481 -0.037,0.012 -0.075,0.017 -0.111,0.017 z"
   id="path14" />

		</g>

		<g
   id="XMLID_82_">
			<path
   style="fill:#1f2930"
   d="m 363.078,215.854 c -0.105,0 -0.21,-0.042 -0.286,-0.126 l -3.365,-3.753 c -1.872,-5.49 -6.683,-49.586 -6.249,-50.851 0.07,-0.202 0.288,-0.309 0.491,-0.24 0.195,0.067 0.302,0.276 0.245,0.473 -0.251,1.535 4.22,44.185 6.219,50.294 l 3.231,3.559 c 0.144,0.158 0.132,0.402 -0.026,0.545 -0.075,0.066 -0.168,0.099 -0.26,0.099 z"
   id="path15" />

		</g>

		<g
   id="XMLID_83_">
			<path
   style="fill:#1f2930"
   d="m 382.431,231.012 c -0.177,0 -0.336,-0.123 -0.376,-0.302 -0.625,-2.81 -2.936,-5.134 -5.621,-5.654 l -0.315,-0.061 -0.04,-0.362 c 0.007,-0.84 4.682,-3.295 8.655,-3.991 0.211,-0.033 0.41,0.104 0.447,0.314 0.037,0.21 -0.104,0.41 -0.314,0.447 -3.492,0.612 -6.563,2.291 -7.65,3.05 2.701,0.794 4.952,3.212 5.592,6.089 0.046,0.208 -0.085,0.415 -0.293,0.461 -0.029,0.006 -0.058,0.009 -0.085,0.009 z"
   id="path16" />

		</g>

	</g>

	<g
   id="XMLID_72_">
		<path
   style="fill:#ce8b35"
   d="m 267.727,285.023 c -0.038,0 -0.077,-0.004 -0.116,-0.013 -0.277,-0.063 -0.45,-0.339 -0.386,-0.617 2.003,-8.729 4.216,-16.307 11.049,-20.636 0.24,-0.152 0.559,-0.081 0.71,0.159 0.152,0.24 0.081,0.558 -0.159,0.71 -6.502,4.12 -8.646,11.494 -10.597,19.998 -0.055,0.238 -0.267,0.399 -0.501,0.399 z"
   id="path17" />

	</g>

	<g
   id="XMLID_86_">
		<path
   style="fill:#ce8b35"
   d="m 319.605,319.94 c -0.381,0 -0.545,-0.341 -0.936,-1.153 -0.65,-1.352 -2.003,-4.163 -4.047,-4.857 -0.853,-0.288 -1.737,-0.192 -2.704,0.296 -0.253,0.128 -0.564,0.026 -0.691,-0.227 -0.128,-0.254 -0.026,-0.564 0.227,-0.691 1.21,-0.61 2.387,-0.73 3.499,-0.352 2.295,0.778 3.737,3.519 4.496,5.079 1.227,-4.888 3.371,-6.653 5.013,-7.261 1.811,-0.671 3.653,-0.159 4.676,0.643 0.224,0.176 0.263,0.499 0.087,0.723 -0.175,0.225 -0.498,0.262 -0.722,0.088 -0.596,-0.466 -2.041,-1.094 -3.684,-0.488 -1.524,0.565 -3.565,2.358 -4.631,7.701 l -0.073,0.363 -0.416,0.13 c -0.033,0.005 -0.064,0.006 -0.094,0.006 z"
   id="path18" />

	</g>

	<g
   id="XMLID_91_">
		<path
   style="fill:#ce8b35"
   d="m 314.346,506.962 c -0.287,-0.002 -0.516,-0.233 -0.515,-0.518 0.007,-1.146 0.693,-115.291 2.458,-183.058 0.008,-0.284 0.236,-0.494 0.528,-0.501 0.284,0.008 0.509,0.244 0.502,0.528 -1.765,67.756 -2.451,181.892 -2.458,183.036 -0.002,0.284 -0.232,0.513 -0.515,0.513 z"
   id="path19" />

	</g>

	<g
   id="XMLID_48_">
		<path
   style="fill:#ce8b35"
   d="m 364.064,505.646 c -0.306,-0.013 -0.526,-0.252 -0.515,-0.536 0.063,-1.514 6.189,-152.103 -3.947,-218.656 -0.043,-0.281 0.15,-0.543 0.431,-0.586 0.29,-0.038 0.544,0.151 0.586,0.431 10.151,66.652 4.021,217.34 3.958,218.854 -0.011,0.276 -0.238,0.493 -0.513,0.493 z"
   id="path20" />

	</g>

	<g
   id="g21">
		<path
   style="fill:#ff9c8a"
   d="m 300.517,254.824 -0.39,-1.808 c -0.119,-0.552 0.304,-1.106 0.912,-1.132 3.335,-0.145 6.526,0.003 7.388,-0.281 -2.68,0.132 -5.336,-0.031 -7.685,0.069 -0.514,0.022 -0.968,-0.297 -1.069,-0.764 l -0.291,-1.351 c -0.123,-0.571 0.326,-1.109 0.956,-1.136 3.25,-0.136 11.284,-0.351 17.084,-1.246 8.85,-1.365 8.267,-2.115 10.06,-2.098 0.37,0.004 1.727,5.308 1.878,5.62 0.366,0.757 0.324,2.031 0.217,2.674 -0.559,3.378 -4.064,3.591 -4.924,3.953 -3.493,1.471 -0.828,2.774 -9.396,3.708 -3.73,0.407 -8.821,1.072 -12.286,1.132 -0.501,0.009 -0.937,-0.311 -1.035,-0.766 l -0.174,-0.809 c -0.111,-0.516 0.245,-1.016 0.803,-1.12 2.222,-0.414 5.14,-0.672 7.532,-1.074 -0.069,0.001 -3.841,0.498 -7.703,0.795 -0.523,0.04 -0.996,-0.286 -1.098,-0.761 l -0.345,-1.598 c -0.119,-0.552 0.303,-1.082 0.909,-1.132 2.761,-0.227 5.554,-0.546 6.983,-0.646 -1.557,-0.165 -4.378,0.338 -7.243,0.534 -0.518,0.036 -0.982,-0.293 -1.083,-0.763 z"
   id="path21" />

	</g>

</g>
  </g>
</svg>
