<?xml version="1.0" encoding="UTF-8" standalone="no"?>
<!-- Created with Inkscape (http://www.inkscape.org/) -->

<svg
   width="20.340242mm"
   height="84.863258mm"
   viewBox="0 0 20.340242 84.863259"
   version="1.1"
   id="svg1"
   inkscape:version="1.4.2 (f4327f4, 2025-05-13)"
   sodipodi:docname="woman6.svg"
   xmlns:inkscape="http://www.inkscape.org/namespaces/inkscape"
   xmlns:sodipodi="http://sodipodi.sourceforge.net/DTD/sodipodi-0.dtd"
   xmlns="http://www.w3.org/2000/svg"
   xmlns:svg="http://www.w3.org/2000/svg">
  <sodipodi:namedview
     id="namedview1"
     pagecolor="#ffffff"
     bordercolor="#000000"
     borderopacity="0.25"
     inkscape:showpageshadow="2"
     inkscape:pageopacity="0.0"
     inkscape:pagecheckerboard="0"
     inkscape:deskcolor="#d1d1d1"
     inkscape:document-units="mm"
     inkscape:zoom="1.2275954"
     inkscape:cx="171.06613"
     inkscape:cy="136.85291"
     inkscape:window-width="2880"
     inkscape:window-height="1676"
     inkscape:window-x="-12"
     inkscape:window-y="-12"
     inkscape:window-maximized="1"
     inkscape:current-layer="layer1" />
  <defs
     id="defs1" />
  <g
     inkscape:label="图层 1"
     inkscape:groupmode="layer"
     id="layer1"
     transform="translate(-59.531246,-112.18333)">
    <g
       id="XMLID_2_"
       transform="matrix(0.26458333,0,0,0.26458333,20.897844,86.568138)">
		<path
   id="XMLID_43_"
   style="fill:#ffce94"
   d="m 199.376,375.259 5.583,6.417 c 0,0 3.333,-1.75 5.583,-3.208 2.25,-1.458 3,-3.875 3,-3.875 l -4.131,-6.917 z" />

		<path
   id="XMLID_41_"
   style="fill:#64493b"
   d="m 213.542,374.009 c 0,0 8.917,15.289 9.333,16.978 0.417,1.689 -6.75,9.356 -6.75,9.356 0,0 -1.083,4.75 -4.417,7.333 -3.333,2.583 -13.75,3 -13.75,3 l -0.333,-9.833 c 0,0 8.333,-8.083 8.333,-12 0,-3.917 -2,-7.167 -2,-7.167 0,0 6.668,-3.25 9.584,-7.667 z" />

		<path
   id="XMLID_42_"
   style="fill:#9e5a2e"
   d="m 202.376,350.592 c 0,0 5.196,9.375 7.036,13.125 1.839,3.75 1.839,3.75 1.839,3.75 l -9.998,9.344 -5.627,-13.11 z" />

		<path
   id="XMLID_40_"
   style="fill:#ffce94"
   d="m 187.209,382.509 v 6.667 c 0,0 4.583,2.417 7.917,1.667 3.333,-0.75 3.333,-0.75 3.333,-0.75 l 0.917,-7.917 z" />

		<path
   id="XMLID_36_"
   style="fill:#9e5a2e"
   d="m 209.376,250.592 c 0,0 0.5,28 -2.25,44.25 -2.75,16.25 -4,18.375 -3.25,21 0.75,2.625 -0.214,4.75 -0.214,4.75 0,0 2.589,6.25 1.714,18.5 -0.875,12.25 -4.875,43.75 -4.875,43.75 0,0 -2.625,1.75 -7.125,2 -4.5,0.25 -7,-1.5 -7,-1.5 v -29.125 c 0,0 -18.625,-17.5 -21,-24.125 -2.375,-6.625 -1.625,-15.625 -1.875,-21.625 -0.25,-6 -6,-39.125 -5.5,-54.375 0.5,-15.25 7.375,-34.125 7.375,-34.125 h 34 c 0,0 8,7.625 10,30.625 z" />

		<path
   id="XMLID_16_"
   style="fill:#4e361d"
   d="m 182.126,157.592 c 0,0 1.837,2.167 4.919,1.75 3.081,-0.417 9.165,-3.5 9.165,-3.5 0,0 0.75,3.25 0,14.417 -0.75,11.167 -3,50.417 -3,50.417 0,0 -6.485,3.594 -14.833,3.417 -8.348,-0.177 -9.667,-2.25 -9.667,-2.25 0,0 1.167,-27 2.333,-36.167 1.166,-9.167 11.083,-28.084 11.083,-28.084 z" />

		<path
   id="XMLID_35_"
   style="fill:#6f87a8"
   d="m 183.626,158.259 c 0,0 -6.833,10.417 -7.5,17.917 -0.667,7.5 -3,17.833 -3.833,20.417 -0.833,2.583 -1.25,20 -2.583,30 -1.333,10 -2.5,29.25 -3.333,31.083 -0.833,1.833 -13.333,-3.417 -13.917,-4.583 -0.583,-1.167 4.667,-23.75 6.667,-28.583 2,-4.833 3.333,-9.75 3.583,-12.417 0.25,-2.667 -1.167,-9.5 -1.167,-9.5 0,0 -10.75,-2.333 -14.583,1.083 0,0 -0.333,-3.75 0.667,-4.917 1,-1.167 1.417,-3.583 1.833,-5.167 0.417,-1.583 3.333,-5.5 5,-10.25 1.667,-4.75 5.613,-19.333 10.807,-22.083 5.193,-2.75 9.443,-2.333 12.443,-4 3,-1.667 7.25,-3.083 7.25,-3.083 z" />

		<path
   id="XMLID_15_"
   style="fill:#6f87a8"
   d="m 193.876,152.676 c 0,0 12.583,-1.333 16.417,0 3.833,1.333 6.417,3 6.917,7.25 0.5,4.25 0.25,8.75 0.917,9.667 0.667,0.917 0.5,3.333 0,5 -0.5,1.667 -0.583,11.833 -0.417,13.167 0.167,1.333 0.333,8.25 -0.417,10.833 -0.75,2.583 -1.333,3.5 -1.333,3.5 0,0 -0.833,3.083 -2.833,4.75 -2,1.667 -5.5,1.833 -5.5,1.833 0,0 1.083,12.917 5.417,19.833 4.333,6.917 6.583,20.583 7.5,21.667 0.917,1.083 -0.333,4 -6.917,6.833 -6.583,2.833 -21.333,3.083 -23.25,0.917 -1.917,-2.167 -3.377,-51.833 -3.564,-61.167 -0.186,-9.333 0.73,-15.333 2.897,-22.333 2.166,-7 6.832,-15.417 4.166,-21.75 z" />

		<path
   id="XMLID_14_"
   style="fill:#9b7348"
   d="m 188.938,109.155 c 0,0 2.333,-1.958 1.833,-3.708 -0.5,-1.75 -0.818,-2.25 0.07,-2.208 0.888,0.042 0.93,0.125 1.93,0.958 1,0.833 0.917,-0.502 0.917,-1.542 0,-1.04 -0.333,-2.167 0.583,-3.458 0.917,-1.292 2.208,-1.25 2.208,-1.25 0,0 0.708,-1.042 2.333,-1.125 1.625,-0.083 2.042,0.458 2.042,0.458 0,0 2.333,0.125 3.375,1.708 1.042,1.583 -0.375,2.667 0,3.5 0.375,0.833 1.083,1.542 4.083,1.75 3,0.208 2.667,2.958 1.792,5.417 -0.875,2.459 -2,3.542 0,4.25 2,0.708 3.042,1.583 3.042,4.083 0,2.5 -0.958,2.881 -1.333,2.545 -0.375,-0.336 -0.208,-2.461 -1.625,-3.211 -1.417,-0.75 -3.375,-0.208 -3.917,-1.833 -0.542,-1.625 -1.417,-0.125 -0.833,1.208 0.583,1.333 1.875,1 2.208,2.083 0.333,1.083 -0.208,1.667 -0.708,1.417 -0.5,-0.25 -0.569,-1.583 -1.889,-1.667 -1.319,-0.083 -1.986,0.292 -2.736,-0.708 -0.75,-1 -2.458,-1.833 -2.458,-1.833 z" />

		<path
   id="XMLID_13_"
   style="fill:#b28856"
   d="m 179.792,106.426 c 0,0 1.417,-1.667 5.583,-1.417 4.167,0.25 7.417,1.417 7.417,1.417 0,0 4.917,0.083 7.333,2.75 2.417,2.667 4.333,7.173 5.667,8.67 1.334,1.497 1.917,3.997 1,7.914 -0.917,3.917 -4.816,12.085 -10.075,17.584 -5.259,5.499 -24.537,-8.501 -24.537,-8.501 0,0 -0.972,0.417 -1.055,-1.333 -0.083,-1.75 -1.167,-3.417 -1.5,-3.417 -0.333,0 -3.583,-2.167 -2.583,-4.917 1,-2.75 1.083,-4.917 0.833,-7.917 -0.25,-3 6.667,-12.667 11.917,-10.833 z" />

		<path
   id="XMLID_12_"
   style="fill:#ffce94"
   d="m 175.438,118.592 c 0,0 -2.75,3.563 -3.125,6.625 -0.375,3.063 0.188,8.438 0,12.063 -0.188,3.625 0.396,9.146 4.229,12.146 2.855,2.234 7.021,3.167 7.021,3.167 l -0.438,6.313 c 0,0 1.25,2.313 5.438,1.5 4.188,-0.813 7.125,-3.625 7.125,-3.625 -1,-10.25 1.25,-16.313 1.25,-16.313 0,0 2.563,-0.5 3.75,-3.125 1.187,-2.625 1,-5.813 -0.75,-6.875 -1.75,-1.062 -3.688,2.813 -3.688,2.813 0,0 -0.375,0.813 -0.813,1 -0.438,0.187 -1,-2 -0.625,-4.5 0.375,-2.5 1.063,-4.625 0.75,-6.063 -0.313,-1.438 -2.188,-3.875 -4.875,-4.563 -2.687,-0.688 -3.438,0.5 -8.313,0.063 -4.875,-0.437 -4.311,-2.438 -6.936,-0.626 z" />

		<path
   id="XMLID_38_"
   style="fill:#ffce94"
   d="m 146.542,204.092 c 0,0 0.792,-2.125 4.917,-2.833 4.125,-0.708 8.417,0.667 11.917,1.708 3.5,1.042 18.042,5.833 26.667,6.333 8.625,0.5 9.747,-0.812 14,-0.75 4.253,0.061 7.417,-0.48 10.125,0.864 2.708,1.344 4.792,2.553 6.042,4.761 1.25,2.208 1.25,4.208 0.833,5.167 -0.417,0.958 -1.75,-1.25 -1.75,-2.208 0,0 -0.542,-0.958 -1.667,-1.583 0,0 0.833,2.375 0.583,3.708 -0.25,1.333 -1.458,1.042 -1.458,1.042 0,0 0.167,1.625 -1.167,1.875 0,0 -0.208,1.208 -1.458,1.542 -1.25,0.333 -2.625,0.083 -4.5,-0.792 -1.875,-0.875 -1.458,-1.833 -1.583,-1.833 -0.125,0 -3.625,0.083 -6.5,-0.875 -2.875,-0.958 -3.333,-1.833 -5.75,-2.167 -2.417,-0.333 -17.583,-0.25 -22.042,-0.625 -4.458,-0.375 -15.178,-0.28 -21.708,-2.542 -8.542,-2.958 -5.501,-10.792 -5.501,-10.792 z" />

		<path
   id="XMLID_39_"
   style="fill:#ffce94"
   d="m 195.209,162.842 c 0,0 0.75,3.583 0.833,10.833 0.083,7.25 0.75,25.5 2.083,29.333 1.333,3.833 6.578,5.139 8.247,5.528 1.67,0.389 6.336,-5.194 6.253,-9.111 -0.083,-3.917 -5,-12.083 -6.583,-19.5 -1.583,-7.417 -5.38,-21.917 -3.894,-26.708 0.574,-1.851 5.715,-6.794 6.776,-8.165 2.577,-3.331 6.202,-6.96 7.889,-8.022 1.687,-1.062 3.25,-2.375 1.563,-2.5 -1.687,-0.125 -4.229,0.938 -5.229,1.688 -1,0.75 -1.708,1.563 -1.708,1.563 0,0 -0.375,-2.063 -1.375,-2.625 -1,-0.562 -2.125,1.438 -2.125,1.438 0,0 -1.688,-1.313 -2.563,-1.125 -0.875,0.188 -1.577,1.25 -1.577,1.25 0,0 -0.673,-0.375 -1.298,0.125 -0.625,0.5 -1.058,1.813 -1.058,1.813 0,0 -0.445,-0.115 -1.755,0.557 -1.31,0.671 -1.813,3.381 -1.625,3.943 0.188,0.562 0.188,0.563 0.188,0.563 0,0 -2.563,0.875 -3.813,5.063 -1.25,4.188 0.771,14.059 0.771,14.059 z" />

		<path
   id="XMLID_37_"
   style="fill:#64493b"
   d="m 165.001,413.28 c 0,0 0.75,-2.5 3.375,-4 2.625,-1.5 7.188,-2.063 8.188,-2.875 1,-0.812 9.813,-11.438 10.125,-14.438 0.312,-3 0.521,-3.313 0.521,-3.313 0,0 2.063,1.125 6.083,0.688 4.02,-0.437 5.646,-1.25 5.646,-1.25 0,0 0.063,5.375 0.438,7.75 0.375,2.375 0.813,11.875 0.813,11.875 0,0 -0.063,2.313 0,3.438 0.063,1.125 -5.375,2.313 -9.188,2.438 0,0 -8.625,3.625 -16.563,3.938 -7.938,0.313 -9.438,-2.375 -9.438,-2.375 z" />

		<g
   id="XMLID_163_">
			<path
   id="XMLID_572_"
   style="fill:#b28856"
   d="m 175.488,127.972 c 0.16,-0.212 0.724,-0.169 0.925,-0.137 0.406,0.064 0.702,0.258 0.974,0.558 0.867,0.956 2.277,-0.462 1.414,-1.414 -1.307,-1.441 -3.815,-1.638 -5.04,-0.016 -0.328,0.434 -0.066,1.114 0.359,1.368 0.509,0.305 1.044,0.07 1.368,-0.359 z" />

		</g>

		<g
   id="XMLID_165_">
			<path
   id="XMLID_564_"
   style="fill:#b28856"
   d="m 186.103,128.946 c 0.484,-0.415 1.149,-0.445 1.756,-0.432 0.83,0.018 1.246,0.284 1.82,0.865 0.906,0.917 2.32,-0.497 1.414,-1.414 -0.942,-0.954 -1.877,-1.421 -3.234,-1.451 -1.186,-0.026 -2.261,0.236 -3.17,1.017 -0.978,0.841 0.442,2.25 1.414,1.415 z" />

		</g>

		<g
   id="XMLID_167_">
			<path
   id="XMLID_691_"
   style="fill:#d6a474"
   d="m 184.211,153.055 c 2.802,-0.226 5.979,-1.137 7.74,-3.516 0.383,-0.518 -0.484,-1.017 -0.863,-0.505 -1.518,2.051 -4.495,2.828 -6.876,3.021 -0.638,0.051 -0.644,1.052 -10e-4,1 z" />

		</g>

		<g
   id="XMLID_168_">
			<path
   id="XMLID_687_"
   style="fill:#d6a474"
   d="m 194.769,157.338 c -0.846,-3.327 -0.987,-5.749 0.6,-8.761 1.079,-2.048 2.003,-4.09 4.595,-4.297 0.637,-0.051 0.643,-1.051 0,-1 -2.85,0.227 -3.912,1.974 -5.187,4.29 -1.901,3.453 -1.954,6.168 -0.972,10.033 0.159,0.624 1.123,0.36 0.964,-0.265 z" />

		</g>

		<g
   id="XMLID_169_">
			<path
   id="XMLID_694_"
   style="fill:#d6a474"
   d="m 199.489,141.721 c -0.125,1.462 0.406,2.865 1.442,3.899 0.456,0.455 1.163,-0.252 0.707,-0.707 -0.866,-0.865 -1.254,-1.977 -1.149,-3.192 0.055,-0.641 -0.945,-0.638 -1,0 z" />

		</g>

		<g
   id="XMLID_170_">
			<path
   id="XMLID_701_"
   style="fill:#d6a474"
   d="m 201.896,139.243 c 1.131,0.835 2.145,1.824 3.004,2.937 0.388,0.502 1.257,0.005 0.864,-0.505 -0.971,-1.259 -2.083,-2.351 -3.363,-3.295 -0.519,-0.383 -1.018,0.485 -0.505,0.863 z" />

		</g>

		<g
   id="XMLID_176_">
			<path
   id="XMLID_708_"
   style="fill:#d6a474"
   d="m 204.456,137.466 c 1.171,0.468 2.117,1.861 2.705,2.915 0.313,0.562 1.177,0.059 0.863,-0.505 -0.737,-1.323 -1.855,-2.796 -3.302,-3.375 -0.598,-0.238 -0.857,0.729 -0.266,0.965 z" />

		</g>

		<g
   id="XMLID_192_">
			<path
   id="XMLID_715_"
   style="fill:#d6a474"
   d="m 208.013,137.456 c 0.425,0.376 0.768,0.816 0.986,1.343 0.243,0.586 1.211,0.329 0.964,-0.266 -0.287,-0.691 -0.68,-1.286 -1.243,-1.785 -0.48,-0.424 -1.19,0.281 -0.707,0.708 z" />

		</g>

		<g
   id="XMLID_570_">
			<path
   id="XMLID_699_"
   style="fill:#d6a474"
   d="m 210.236,139.359 c 1.197,-1.071 2.398,-2.153 3.79,-2.969 0.894,-0.524 3.582,-1.927 4.585,-0.994 0.471,0.438 1.179,-0.268 0.707,-0.707 -1.145,-1.065 -3.107,-0.393 -4.376,0.125 -2.072,0.847 -3.767,2.365 -5.413,3.838 -0.481,0.43 0.228,1.135 0.707,0.707 z" />

		</g>

		<g
   id="XMLID_679_">
			<path
   id="XMLID_707_"
   style="fill:#d6a474"
   d="m 198.994,132.486 c -1.555,1.084 -1.711,3.63 -1.76,5.356 -0.018,0.644 0.982,0.643 1,0 0.036,-1.25 0.101,-3.681 1.265,-4.493 0.524,-0.365 0.024,-1.232 -0.505,-0.863 z" />

		</g>

		<g
   id="XMLID_680_">
			<path
   id="XMLID_736_"
   style="fill:#d6a474"
   d="m 197.912,135.728 c 0.334,0.089 0.549,0.289 0.646,0.622 0.179,0.617 1.145,0.354 0.964,-0.266 -0.192,-0.662 -0.676,-1.144 -1.344,-1.321 -0.623,-0.164 -0.889,0.801 -0.266,0.965 z" />

		</g>

		<g
   id="XMLID_686_">
			<path
   id="XMLID_754_"
   style="fill:#d6a474"
   d="m 180.394,133.927 c -0.246,1.007 -0.673,1.82 -1.341,2.605 -0.357,0.42 -0.66,0.768 -0.673,1.353 -0.027,1.189 1.046,2.013 2.112,2.226 0.628,0.125 0.897,-0.838 0.266,-0.964 -1.011,-0.202 -1.619,-0.754 -0.998,-1.907 0.152,-0.283 0.449,-0.528 0.634,-0.802 0.466,-0.687 0.767,-1.441 0.964,-2.245 0.153,-0.625 -0.811,-0.892 -0.964,-0.266 z" />

		</g>

		<path
   id="XMLID_693_"
   style="fill:#7f5a34"
   d="m 188.667,133.611 c 0,0.977 -0.421,1.769 -0.939,1.769 -0.519,0 -0.939,-0.792 -0.939,-1.769 0,-0.977 0.421,-1.769 0.939,-1.769 0.519,0 0.939,0.792 0.939,1.769 z" />

		<path
   id="XMLID_695_"
   style="fill:#7f5a34"
   d="m 178.238,133.32 c 0,0.977 -0.421,1.769 -0.939,1.769 -0.519,0 -0.939,-0.792 -0.939,-1.769 0,-0.977 0.421,-1.769 0.939,-1.769 0.519,0 0.939,0.792 0.939,1.769 z" />

		<path
   id="XMLID_696_"
   style="fill:#ffffff"
   d="m 180.158,143.405 c -0.172,-0.317 0.101,-0.698 0.453,-0.618 0.482,0.11 1.197,0.183 2.233,0.111 1.36,-0.096 2.496,-0.464 3.242,-0.777 0.364,-0.152 0.721,0.24 0.532,0.586 -0.452,0.832 -1.338,1.938 -2.995,2.485 -1.803,0.596 -2.912,-0.767 -3.465,-1.787 z" />

		<g
   id="XMLID_698_">
			<path
   id="XMLID_758_"
   style="fill:#d6a474"
   d="m 148.699,211.376 c 1.505,0.637 3.04,1.136 4.638,1.48 0.628,0.135 0.896,-0.829 0.266,-0.964 -1.508,-0.325 -2.978,-0.777 -4.399,-1.379 -0.586,-0.249 -1.097,0.613 -0.505,0.863 z" />

		</g>

		<g
   id="XMLID_700_">
			<path
   id="XMLID_760_"
   style="fill:#d6a474"
   d="m 204.043,205.596 c -0.544,-1.283 -0.911,-2.631 -1.093,-4.013 -0.083,-0.629 -1.084,-0.637 -1,0 0.207,1.571 0.611,3.059 1.229,4.518 0.251,0.591 1.112,0.082 0.864,-0.505 z" />

		</g>

		<g
   id="XMLID_735_">
			<path
   id="XMLID_767_"
   style="fill:#d6a474"
   d="m 192.83,218.36 c 2.217,-0.08 4.28,0.23 6.323,1.089 1.544,0.649 2.825,1.383 4.492,1.683 3.007,0.542 6.212,0.593 9.122,-0.396 0.606,-0.206 0.346,-1.172 -0.266,-0.964 -3.52,1.196 -8.019,1.027 -11.409,-0.513 -2.73,-1.24 -5.228,-2.009 -8.263,-1.9 -0.64,0.024 -0.643,1.024 0.001,1.001 z" />

		</g>

		<g
   id="XMLID_742_">
			<path
   id="XMLID_774_"
   style="fill:#d6a474"
   d="m 210.288,221.139 c 0.136,0.71 0.478,1.333 0.99,1.843 0.456,0.455 1.164,-0.252 0.707,-0.707 -0.398,-0.396 -0.627,-0.851 -0.732,-1.402 -0.121,-0.631 -1.085,-0.364 -0.965,0.266 z" />

		</g>

		<g
   id="XMLID_743_">
			<path
   id="XMLID_781_"
   style="fill:#d6a474"
   d="m 213.458,218.834 c 0.575,0.768 1.018,1.601 1.314,2.515 0.197,0.61 1.163,0.349 0.964,-0.266 -0.322,-0.993 -0.789,-1.918 -1.415,-2.754 -0.381,-0.509 -1.249,-0.011 -0.863,0.505 z" />

		</g>

		<g
   id="XMLID_749_">
			<path
   id="XMLID_788_"
   style="fill:#d6a474"
   d="m 215.056,216.604 c 0.529,0.794 0.878,1.641 1.064,2.576 0.126,0.631 1.09,0.364 0.964,-0.266 -0.201,-1.01 -0.594,-1.959 -1.165,-2.815 -0.355,-0.533 -1.222,-0.033 -0.863,0.505 z" />

		</g>

		<g
   id="XMLID_750_">
			<path
   id="XMLID_806_"
   style="fill:#d6a474"
   d="m 218.061,215.26 c -0.365,-0.999 -0.793,-1.984 -1.729,-2.569 -0.547,-0.342 -1.05,0.523 -0.505,0.864 0.696,0.435 1,1.234 1.269,1.971 0.219,0.6 1.186,0.341 0.965,-0.266 z" />

		</g>

		<g
   id="XMLID_757_">
			<path
   id="XMLID_813_"
   style="fill:#546e8e"
   d="m 151.251,197.388 c 1.583,-0.202 3.137,-0.163 4.691,0.234 0.793,0.203 1.557,0.476 2.291,0.84 0.426,0.211 0.823,0.566 1.3,0.635 0.248,0.036 0.562,-0.058 0.615,-0.349 0.58,-3.183 -4.831,-4.33 -6.745,-5.12 -0.594,-0.245 -0.853,0.722 -0.266,0.964 1.212,0.5 2.523,0.792 3.701,1.371 0.72,0.354 2.535,1.483 2.346,2.519 0.205,-0.116 0.41,-0.233 0.615,-0.349 -0.546,-0.08 -1.185,-0.607 -1.699,-0.827 -0.791,-0.339 -1.606,-0.603 -2.45,-0.777 -1.459,-0.301 -2.924,-0.329 -4.4,-0.141 -0.628,0.08 -0.636,1.081 0.001,1 z" />

		</g>

		<g
   id="XMLID_759_">
			<path
   id="XMLID_812_"
   style="fill:#546e8e"
   d="m 161.895,201.839 c 0.733,-5.984 0.623,-11.829 0.33,-17.832 -0.3,-6.141 3.393,-11.939 6.156,-17.218 0.298,-0.57 -0.565,-1.076 -0.863,-0.505 -2.532,4.838 -6.117,10.382 -6.33,15.985 -0.116,3.038 0.364,6.116 0.366,9.162 0.002,3.483 -0.236,6.951 -0.659,10.407 -0.078,0.638 0.923,0.633 1,0.001 z" />

		</g>

		<g
   id="XMLID_766_">
			<path
   id="XMLID_811_"
   style="fill:#546e8e"
   d="m 165.055,166.718 c 0.038,0.926 0.204,1.826 0.516,2.699 0.215,0.602 1.181,0.342 0.964,-0.266 -0.282,-0.791 -0.446,-1.594 -0.48,-2.433 -0.026,-0.642 -1.026,-0.645 -1,0 z" />

		</g>

		<g
   id="XMLID_773_">
			<path
   id="XMLID_810_"
   style="fill:#546e8e"
   d="m 165.874,190.428 c 1.771,0.125 3.542,0.251 5.312,0.376 0.642,0.045 0.639,-0.955 0,-1 -1.771,-0.126 -3.542,-0.251 -5.312,-0.376 -0.642,-0.045 -0.639,0.955 0,1 z" />

		</g>

		<g
   id="XMLID_780_">
			<path
   id="XMLID_809_"
   style="fill:#546e8e"
   d="m 193.943,191.844 c -0.528,0.422 -1.047,0.855 -1.551,1.306 -0.466,0.416 -1.055,0.854 -1.421,1.363 -0.227,0.317 -0.226,0.72 0.046,1.017 0.409,0.447 0.91,0.188 1.406,0.309 0.625,0.153 0.892,-0.811 0.266,-0.964 -0.187,-0.046 -0.312,-0.066 -0.505,-0.06 -0.065,0.008 -0.13,0.015 -0.194,0.023 -0.168,-0.051 -0.232,-0.008 -0.193,0.13 -0.18,0.252 0.295,-0.174 0.342,-0.219 0.172,-0.166 0.345,-0.33 0.52,-0.492 0.642,-0.595 1.308,-1.162 1.992,-1.707 0.502,-0.4 -0.21,-1.104 -0.708,-0.706 z" />

		</g>

		<g
   id="XMLID_787_">
			<path
   id="XMLID_795_"
   style="fill:#546e8e"
   d="m 207.247,183.935 c 4.306,1.398 7.574,4.803 8.814,9.154 0.176,0.618 1.141,0.355 0.964,-0.266 -1.338,-4.698 -4.869,-8.345 -9.512,-9.853 -0.614,-0.199 -0.876,0.767 -0.266,0.965 z" />

		</g>

		<g
   id="XMLID_794_">
			<path
   id="XMLID_685_"
   style="fill:#546e8e"
   d="m 213.97,190.971 c -0.727,-1.077 -2.109,-1.184 -2.223,0.363 -0.073,0.988 0.572,1.944 1.034,2.76 0.898,1.586 1.703,3.159 1.924,4.995 0.076,0.631 1.077,0.639 1,0 -0.147,-1.226 -0.474,-2.368 -0.989,-3.492 -0.317,-0.692 -0.696,-1.347 -1.071,-2.008 -0.176,-0.29 -0.343,-0.585 -0.502,-0.885 -0.449,-0.459 -0.461,-0.868 -0.037,-1.228 0.358,0.53 1.225,0.031 0.864,-0.505 z" />

		</g>

		<g
   id="XMLID_801_">
			<path
   id="XMLID_684_"
   style="fill:#546e8e"
   d="m 214.74,185.151 c -1.734,-3.048 -3.721,-6.214 -7.32,-7.168 -0.623,-0.165 -0.888,0.799 -0.266,0.964 3.336,0.884 5.124,3.898 6.723,6.709 0.317,0.559 1.182,0.055 0.863,-0.505 z" />

		</g>

		<g
   id="XMLID_808_">
			<path
   id="XMLID_683_"
   style="fill:#546e8e"
   d="m 208.751,154.397 c -3.24,1.911 -4.682,5.315 -5.892,8.713 -0.216,0.607 0.749,0.869 0.964,0.266 1.121,-3.147 2.424,-6.342 5.433,-8.116 0.554,-0.326 0.051,-1.191 -0.505,-0.863 z" />

		</g>

		<g
   id="XMLID_815_">
			<path
   id="XMLID_802_"
   style="fill:#546e8e"
   d="m 205.813,174.164 c 3.032,0.253 5.799,1.397 8.125,3.361 0.489,0.413 1.2,-0.291 0.707,-0.707 -2.538,-2.143 -5.521,-3.377 -8.832,-3.654 -0.642,-0.053 -0.638,0.947 0,1 z" />

		</g>

		<g
   id="XMLID_822_">
			<path
   id="XMLID_855_"
   style="fill:#546e8e"
   d="m 211.25,168.833 c 1.522,0.656 3.092,1.009 4.751,1.04 0.644,0.012 0.644,-0.988 0,-1 -1.473,-0.027 -2.891,-0.32 -4.246,-0.904 -0.585,-0.251 -1.095,0.61 -0.505,0.864 z" />

		</g>

		<g
   id="XMLID_829_">
			<path
   id="XMLID_890_"
   style="fill:#754b29"
   d="m 175.71,190.175 c 3.402,-0.154 6.768,-0.236 10.001,1.007 0,-0.321 0,-0.643 0,-0.964 -2.704,0.688 -5.56,0.653 -8.334,0.792 -0.64,0.032 -0.644,1.032 0,1 2.87,-0.144 5.8,-0.115 8.6,-0.827 0.515,-0.131 0.432,-0.798 0,-0.964 -3.307,-1.271 -6.78,-1.2 -10.267,-1.043 -0.641,0.028 -0.645,1.028 0,0.999 z" />

		</g>

		<g
   id="XMLID_836_">
			<path
   id="XMLID_896_"
   style="fill:#7c4c28"
   d="m 170.278,228.567 c 5.29,1.98 10.874,2.267 16.344,0.867 0.623,-0.159 0.359,-1.124 -0.266,-0.964 -5.305,1.357 -10.687,1.051 -15.812,-0.867 -0.603,-0.226 -0.864,0.74 -0.266,0.964 z" />

		</g>

		<g
   id="XMLID_843_">
			<path
   id="XMLID_573_"
   style="fill:#7c4c28"
   d="m 177.155,228.085 c 1.904,0 1.907,-2.958 0,-2.958 -1.904,0 -1.907,2.958 0,2.958 z" />

		</g>

		<g
   id="XMLID_850_">
			<path
   id="XMLID_895_"
   style="fill:#7c4c28"
   d="m 179.463,230.092 c -0.002,3.255 -0.003,6.51 -0.007,9.764 -0.004,3.297 -0.228,6.213 -2.202,8.98 -0.374,0.525 0.492,1.025 0.863,0.505 1.668,-2.338 2.271,-4.798 2.335,-7.644 0.086,-3.864 0.008,-7.74 0.011,-11.606 0,-0.643 -1,-0.644 -1,0.001 z" />

		</g>

		<g
   id="XMLID_857_">
			<path
   id="XMLID_894_"
   style="fill:#7c4c28"
   d="m 171.059,245.939 c 2.715,1.415 4.329,3.811 5.853,6.371 0.866,1.454 1.973,2.904 2.641,4.464 0.698,1.632 0.934,3.528 1.194,5.267 0.955,6.399 1.243,12.915 1.553,19.37 0.81,16.873 0.999,33.768 1.748,50.643 0.294,6.632 0.516,13.359 1.595,19.921 0.104,0.633 1.068,0.365 0.964,-0.266 -1.01,-6.137 -1.227,-12.429 -1.513,-18.632 -0.393,-8.535 -0.625,-17.077 -0.876,-25.617 -0.443,-15.102 -0.282,-30.547 -2.484,-45.527 -0.283,-1.928 -0.538,-4.066 -1.393,-5.846 -1.91,-3.976 -4.744,-8.912 -8.777,-11.013 -0.57,-0.296 -1.076,0.567 -0.505,0.865 z" />

		</g>

		<g
   id="XMLID_864_">
			<path
   id="XMLID_879_"
   style="fill:#7c4c28"
   d="m 174.764,229.591 c 0.093,5.39 0.058,10.778 -0.106,16.166 -0.02,0.644 0.98,0.643 1,0 0.164,-5.388 0.199,-10.776 0.106,-16.166 -0.011,-0.642 -1.011,-0.644 -1,0 z" />

		</g>

		<g
   id="XMLID_871_">
			<path
   id="XMLID_877_"
   style="fill:#7c4c28"
   d="m 201.376,315.722 c -1.125,1.372 -2.37,2.627 -3.734,3.762 -0.495,0.412 0.216,1.116 0.707,0.707 1.364,-1.135 2.609,-2.389 3.733,-3.762 0.406,-0.494 -0.297,-1.205 -0.706,-0.707 z" />

		</g>

		<g
   id="XMLID_878_">
			<path
   id="XMLID_872_"
   style="fill:#7c4c28"
   d="m 202.029,321.622 c -0.631,0.569 -1.23,1.169 -1.782,1.815 -0.397,0.464 -1.108,1.121 -1.15,1.771 -0.083,1.291 2.036,1.487 2.898,1.634 0.63,0.108 0.9,-0.856 0.266,-0.964 -0.458,-0.078 -0.91,-0.171 -1.358,-0.293 -0.138,-0.038 -0.653,-0.107 -0.731,-0.256 -0.126,-0.242 0.36,-0.672 0.478,-0.817 0.635,-0.785 1.339,-1.505 2.088,-2.182 0.477,-0.433 -0.232,-1.138 -0.709,-0.708 z" />

		</g>

		<g
   id="XMLID_885_">
			<path
   id="XMLID_869_"
   style="fill:#7c4c28"
   d="m 203.554,355.826 c 0.109,5.721 -1.899,11.207 -1.849,16.927 0.006,0.643 1.006,0.645 1,0 -0.051,-5.718 1.958,-11.203 1.849,-16.927 -0.012,-0.643 -1.012,-0.645 -1,0 z" />

		</g>

		<g
   id="XMLID_892_">
			<path
   id="XMLID_893_"
   style="fill:#7c4c28"
   d="m 176.382,324.179 c 1.211,-0.262 2.257,-0.853 3.249,-1.582 0.802,-0.589 1.693,-1.151 2.054,-2.115 0.226,-0.604 -0.741,-0.864 -0.964,-0.266 -0.306,0.818 -1.463,1.45 -2.147,1.908 -0.764,0.511 -1.556,0.895 -2.456,1.09 -0.63,0.137 -0.364,1.101 0.264,0.965 z" />

		</g>

		<g
   id="XMLID_899_">
			<path
   id="XMLID_901_"
   style="fill:#7c4c28"
   d="m 182.199,321.724 c -0.436,1.568 -1.104,3.011 -2.01,4.362 -0.359,0.536 0.507,1.037 0.863,0.505 0.95,-1.417 1.654,-2.958 2.11,-4.601 0.173,-0.621 -0.791,-0.886 -0.963,-0.266 z" />

		</g>

		<g
   id="XMLID_900_">
			<path
   id="XMLID_972_"
   style="fill:#7c4c28"
   d="m 171.119,249.566 c 1.661,0.282 3.292,0.672 4.901,1.172 0.616,0.191 0.879,-0.773 0.266,-0.964 -1.609,-0.5 -3.24,-0.89 -4.901,-1.172 -0.63,-0.107 -0.9,0.856 -0.266,0.964 z" />

		</g>

		<g
   id="XMLID_913_">
			<path
   id="XMLID_981_"
   style="fill:#967444"
   d="m 168.583,121.802 c 0.321,1.074 0.886,2.029 1.674,2.825 0.453,0.458 1.161,-0.249 0.707,-0.707 -0.669,-0.676 -1.144,-1.473 -1.417,-2.384 -0.184,-0.615 -1.149,-0.353 -0.964,0.266 z" />

		</g>

		<g
   id="XMLID_915_">
			<path
   id="XMLID_980_"
   style="fill:#967444"
   d="m 179.19,107.171 c -1.015,1.78 -1.57,3.709 -1.669,5.754 -0.031,0.643 0.969,0.642 1,0 0.09,-1.874 0.603,-3.62 1.532,-5.25 0.319,-0.559 -0.544,-1.064 -0.863,-0.504 z" />

		</g>

		<g
   id="XMLID_927_">
			<path
   id="XMLID_979_"
   style="fill:#967444"
   d="m 174.451,110.845 c -0.471,0.992 -0.596,2.013 -0.587,3.103 0.002,0.277 0.015,0.553 0.025,0.829 0.01,0.293 0.175,0.565 -0.143,0.354 -0.494,-0.329 -0.655,-1.776 -0.698,-2.29 -0.053,-0.637 -1.054,-0.642 -1,0 0.079,0.945 0.655,4.092 2.187,3.645 0.673,-0.196 0.67,-0.981 0.66,-1.544 -0.022,-1.228 -0.124,-2.447 0.42,-3.592 0.274,-0.578 -0.588,-1.086 -0.864,-0.505 z" />

		</g>

		<g
   id="XMLID_934_">
			<path
   id="XMLID_978_"
   style="fill:#967444"
   d="m 186.076,106.871 c -1.932,1.682 -3.535,3.658 -4.789,5.891 -0.316,0.562 0.548,1.066 0.863,0.505 1.215,-2.164 2.762,-4.059 4.633,-5.688 0.487,-0.424 -0.223,-1.129 -0.707,-0.708 z" />

		</g>

		<g
   id="XMLID_941_">
			<path
   id="XMLID_977_"
   style="fill:#967444"
   d="m 189.945,114.585 c 1.624,-1.779 3.656,-3.06 6.012,-3.625 0.172,-0.037 0.344,-0.074 0.516,-0.111 0.997,-0.298 1.184,-0.252 0.561,0.136 -0.271,0.421 -1.098,0.802 -1.489,1.088 -0.993,0.726 -1.985,1.451 -2.978,2.177 -0.514,0.376 -0.016,1.244 0.505,0.864 1.613,-1.179 3.666,-2.28 5.065,-3.706 0.57,-0.581 0.666,-1.254 -0.165,-1.62 -1.141,-0.503 -3.324,0.462 -4.34,0.903 -1.693,0.735 -3.153,1.829 -4.393,3.188 -0.434,0.474 0.271,1.183 0.706,0.706 z" />

		</g>

		<g
   id="XMLID_948_">
			<path
   id="XMLID_975_"
   style="fill:#967444"
   d="m 197.265,117.425 c 1.4,-0.501 2.837,-0.658 4.308,-0.419 0.63,0.102 0.9,-0.861 0.266,-0.964 -1.651,-0.268 -3.262,-0.145 -4.84,0.419 -0.601,0.215 -0.342,1.182 0.266,0.964 z" />

		</g>

		<g
   id="XMLID_955_">
			<path
   id="XMLID_974_"
   style="fill:#967444"
   d="m 199.136,121.789 c 1.668,-0.897 3.423,-1.478 5.293,-1.772 0.634,-0.1 0.365,-1.064 -0.266,-0.964 -1.952,0.307 -3.793,0.938 -5.532,1.873 -0.567,0.304 -0.062,1.168 0.505,0.863 z" />

		</g>

		<g
   id="XMLID_962_">
			<path
   id="XMLID_984_"
   style="fill:#967444"
   d="m 203.695,122.728 c -0.943,0.576 -1.977,1.096 -2.864,1.755 -0.418,0.311 -0.8,0.677 -0.81,1.238 -0.01,0.574 0.34,0.846 0.782,1.134 0.333,0.217 1.133,0.371 1.179,0.859 0.028,0.295 -0.622,0.98 -0.794,1.205 -0.39,0.511 0.478,1.01 0.863,0.505 0.624,-0.818 1.516,-1.904 0.507,-2.751 -0.608,-0.511 -1.799,-0.508 -0.991,-1.473 0.24,-0.287 0.796,-0.487 1.128,-0.69 0.502,-0.306 1.003,-0.613 1.504,-0.919 0.549,-0.335 0.047,-1.2 -0.504,-0.863 z" />

		</g>

		<g
   id="XMLID_969_">
			<path
   id="XMLID_1026_"
   style="fill:#546e8e"
   d="m 197.859,224.357 c 2.518,1.946 6.084,2.765 9.137,3.441 0.627,0.139 0.895,-0.825 0.266,-0.964 -2.831,-0.628 -6.364,-1.382 -8.696,-3.184 -0.503,-0.389 -1.216,0.314 -0.707,0.707 z" />

		</g>

		<g
   id="XMLID_976_">
			<path
   id="XMLID_1019_"
   style="fill:#546e8e"
   d="m 160.983,224.779 c 2.067,-0.025 3.43,-1.576 5.145,-2.49 0.568,-0.303 0.063,-1.166 -0.505,-0.863 -1.512,0.806 -2.819,2.332 -4.64,2.353 -0.643,0.008 -0.644,1.008 0,1 z" />

		</g>

		<g
   id="XMLID_983_">
			<path
   id="XMLID_1015_"
   style="fill:#546e8e"
   d="m 192.609,253.222 c 0.152,2.704 3.697,2.137 5.519,2.086 0.642,-0.018 0.645,-1.018 0,-1 -1.092,0.031 -4.423,0.627 -4.519,-1.086 -0.036,-0.64 -1.036,-0.644 -1,0 z" />

		</g>

		<g
   id="XMLID_990_">
			<path
   id="XMLID_1012_"
   style="fill:#546e8e"
   d="m 154.149,252.289 c 2.525,1.056 5.125,2.461 7.813,3.025 1.25,0.262 2.661,0.419 3.343,-0.844 0.306,-0.566 -0.557,-1.072 -0.864,-0.505 -1.085,2.01 -8.583,-2.036 -10.027,-2.64 -0.592,-0.248 -0.85,0.719 -0.265,0.964 z" />

		</g>

		<g
   id="XMLID_997_">
			<path
   id="XMLID_1007_"
   style="fill:#546e8e"
   d="m 165.712,251.844 c 0.121,-0.453 0.178,-0.908 0.166,-1.377 -0.015,-0.642 -1.016,-0.645 -1,0 0.009,0.383 -0.031,0.74 -0.131,1.111 -0.166,0.623 0.798,0.888 0.965,0.266 z" />

		</g>

		<g
   id="XMLID_1004_">
			<path
   id="XMLID_1023_"
   style="fill:#546e8e"
   d="m 189.858,220.954 c 1.085,8.791 2.099,17.591 3.042,26.399 0.068,0.633 1.069,0.64 1,0 -0.943,-8.808 -1.957,-17.608 -3.042,-26.399 -0.078,-0.63 -1.078,-0.638 -1,0 z" />

		</g>

		<g
   id="XMLID_1186_">
			<path
   id="XMLID_1065_"
   style="fill:#82624d"
   d="m 165.8,414.42 c 5.004,1.149 10.164,1.127 15.121,-0.263 5.841,-1.638 11.467,-3.135 17.491,-4.02 0.634,-0.093 0.365,-1.057 -0.266,-0.964 -5.352,0.786 -10.558,1.822 -15.713,3.469 -5.389,1.722 -10.831,2.084 -16.366,0.813 -0.627,-0.143 -0.895,0.821 -0.267,0.965 z" />

		</g>

		<g
   id="XMLID_1229_">
			<path
   id="XMLID_1064_"
   style="fill:#82624d"
   d="m 199.34,399.679 c 0.242,3.05 0.396,6.104 0.464,9.163 0.014,0.643 1.014,0.645 1,0 -0.068,-3.059 -0.222,-6.113 -0.464,-9.163 -0.051,-0.638 -1.051,-0.643 -1,0 z" />

		</g>

		<g
   id="XMLID_1244_">
			<path
   id="XMLID_966_"
   style="fill:#82624d"
   d="m 176.951,407.704 c 2.271,0.993 4.051,2.673 5.161,4.891 0.288,0.576 1.151,0.07 0.863,-0.505 -1.176,-2.351 -3.11,-4.196 -5.519,-5.249 -0.584,-0.256 -1.094,0.605 -0.505,0.863 z" />

		</g>

		<g
   id="XMLID_1245_">
			<path
   id="XMLID_965_"
   style="fill:#82624d"
   d="m 180.899,408.796 c 4.57,-5.23 9.375,-9.842 9.617,-17.194 0.021,-0.644 -0.979,-0.643 -1,0 -0.231,7.02 -4.975,11.51 -9.324,16.487 -0.422,0.483 0.283,1.193 0.707,0.707 z" />

		</g>

		<g
   id="XMLID_1246_">
			<path
   id="XMLID_964_"
   style="fill:#82624d"
   d="m 191.949,392.512 c 2.08,0.005 4.121,-0.065 6.037,-0.956 0.583,-0.271 0.076,-1.133 -0.505,-0.863 -1.741,0.809 -3.649,0.824 -5.532,0.819 -0.643,-0.002 -0.644,0.998 0,1 z" />

		</g>

		<g
   id="XMLID_1247_">
			<path
   id="XMLID_963_"
   style="fill:#82624d"
   d="m 179.077,405.238 c 1.021,0.35 1.952,0.865 2.808,1.521 0.51,0.392 1.009,-0.477 0.505,-0.863 -0.924,-0.71 -1.945,-1.244 -3.047,-1.622 -0.61,-0.209 -0.872,0.756 -0.266,0.964 z" />

		</g>

		<g
   id="XMLID_1248_">
			<path
   id="XMLID_961_"
   style="fill:#82624d"
   d="m 181.172,402.37 c 1.109,0.376 2.175,0.84 3.208,1.393 0.567,0.304 1.073,-0.559 0.505,-0.863 -1.107,-0.593 -2.257,-1.09 -3.447,-1.493 -0.611,-0.209 -0.873,0.757 -0.266,0.963 z" />

		</g>

		<g
   id="XMLID_1355_">
			<path
   id="XMLID_954_"
   style="fill:#82624d"
   d="m 183.563,399.536 c 1.038,0.31 2.03,0.713 2.988,1.217 0.569,0.299 1.075,-0.564 0.505,-0.864 -1.033,-0.543 -2.109,-0.984 -3.227,-1.318 -0.618,-0.184 -0.882,0.781 -0.266,0.965 z" />

		</g>

		<g
   id="XMLID_1369_">
			<path
   id="XMLID_949_"
   style="fill:#82624d"
   d="m 185.994,395.483 c 0.871,0.19 1.721,0.452 2.539,0.807 0.584,0.254 1.094,-0.608 0.505,-0.863 -0.9,-0.391 -1.818,-0.698 -2.777,-0.908 -0.628,-0.137 -0.896,0.827 -0.267,0.964 z" />

		</g>

		<g
   id="XMLID_1404_">
			<path
   id="XMLID_946_"
   style="fill:#82624d"
   d="m 202.118,407.475 c 4.041,-0.515 8.059,-1.343 10.488,-4.937 0.655,-0.969 1.002,-2.078 1.604,-3.073 0.726,-1.2 1.827,-2.172 2.751,-3.212 1.589,-1.788 3.007,-3.703 4.305,-5.711 0.35,-0.542 -0.515,-1.044 -0.863,-0.505 -1.176,1.82 -2.449,3.565 -3.874,5.2 -1.156,1.326 -2.507,2.504 -3.36,4.061 -1.136,2.074 -1.946,3.933 -4.063,5.253 -2.092,1.304 -4.594,1.619 -6.988,1.924 -0.63,0.081 -0.638,1.082 0,1 z" />

		</g>

		<g
   id="XMLID_1411_">
			<path
   id="XMLID_939_"
   style="fill:#82624d"
   d="m 201.154,399.706 c 2.654,0.423 4.868,3.645 5.915,5.908 0.27,0.583 1.132,0.076 0.863,-0.505 -1.155,-2.497 -3.592,-5.902 -6.512,-6.367 -0.63,-0.1 -0.901,0.863 -0.266,0.964 z" />

		</g>

		<g
   id="XMLID_1418_">
			<path
   id="XMLID_905_"
   style="fill:#82624d"
   d="m 204.821,400.584 c 1.909,-3.17 4.75,-6.087 5.462,-9.84 0.624,-3.287 -1.029,-6.203 -2.293,-9.129 -0.255,-0.589 -1.116,-0.08 -0.863,0.505 1.422,3.289 3.059,6.388 1.717,10.01 -1.082,2.92 -3.296,5.308 -4.886,7.949 -0.333,0.553 0.531,1.057 0.863,0.505 z" />

		</g>

		<g
   id="XMLID_1425_">
			<path
   id="XMLID_904_"
   style="fill:#82624d"
   d="m 213.285,377.178 c -0.781,1.276 -1.756,2.384 -2.913,3.332 -0.498,0.408 0.213,1.112 0.707,0.707 1.22,-1 2.246,-2.189 3.069,-3.534 0.337,-0.551 -0.527,-1.054 -0.863,-0.505 z" />

		</g>

		<g
   id="XMLID_1432_">
			<path
   id="XMLID_903_"
   style="fill:#82624d"
   d="m 202.376,397.569 c 0.961,0.049 1.885,0.276 2.755,0.688 0.579,0.274 1.087,-0.588 0.505,-0.864 -1.035,-0.49 -2.116,-0.767 -3.26,-0.825 -0.643,-0.032 -0.641,0.968 0,1.001 z" />

		</g>

		<g
   id="XMLID_1439_">
			<path
   id="XMLID_902_"
   style="fill:#82624d"
   d="m 204.739,394.271 c 0.885,0.125 1.748,0.327 2.597,0.608 0.612,0.203 0.875,-0.763 0.266,-0.964 -0.848,-0.281 -1.712,-0.483 -2.597,-0.608 -0.63,-0.089 -0.902,0.874 -0.266,0.964 z" />

		</g>

		<g
   id="XMLID_1446_">
			<path
   id="XMLID_932_"
   style="fill:#82624d"
   d="m 206.542,390.513 c 1.049,-0.033 2.086,0.032 3.12,0.212 0.629,0.109 0.9,-0.854 0.266,-0.964 -1.123,-0.195 -2.247,-0.283 -3.386,-0.248 -0.642,0.019 -0.644,1.02 0,1 z" />

		</g>

		<g
   id="XMLID_1453_">
			<path
   id="XMLID_1054_"
   style="fill:#82624d"
   d="m 206.661,385.943 c 0.757,-0.212 1.512,-0.293 2.297,-0.252 0.643,0.033 0.641,-0.967 0,-1 -0.869,-0.045 -1.725,0.054 -2.563,0.288 -0.619,0.173 -0.356,1.138 0.266,0.964 z" />

		</g>

	</g>
  </g>
</svg>
