<?xml version="1.0" encoding="UTF-8" standalone="no"?>
<!-- Created with Inkscape (http://www.inkscape.org/) -->

<svg
   width="45.774048mm"
   height="118.69706mm"
   viewBox="0 0 45.774049 118.69706"
   version="1.1"
   id="svg1"
   inkscape:version="1.4.2 (f4327f4, 2025-05-13)"
   sodipodi:docname="woman5.svg"
   xmlns:inkscape="http://www.inkscape.org/namespaces/inkscape"
   xmlns:sodipodi="http://sodipodi.sourceforge.net/DTD/sodipodi-0.dtd"
   xmlns="http://www.w3.org/2000/svg"
   xmlns:svg="http://www.w3.org/2000/svg">
  <sodipodi:namedview
     id="namedview1"
     pagecolor="#ffffff"
     bordercolor="#000000"
     borderopacity="0.25"
     inkscape:showpageshadow="2"
     inkscape:pageopacity="0.0"
     inkscape:pagecheckerboard="0"
     inkscape:deskcolor="#d1d1d1"
     inkscape:document-units="mm"
     inkscape:zoom="1.2275954"
     inkscape:cx="151.51572"
     inkscape:cy="76.57246"
     inkscape:window-width="2880"
     inkscape:window-height="1676"
     inkscape:window-x="-12"
     inkscape:window-y="-12"
     inkscape:window-maximized="1"
     inkscape:current-layer="layer1" />
  <defs
     id="defs1" />
  <g
     inkscape:label="图层 1"
     inkscape:groupmode="layer"
     id="layer1"
     transform="translate(-64.822879,-128.32291)">
    <g
       id="XMLID_296_"
       transform="matrix(0.26458333,0,0,0.26458333,-402.74536,104.82336)">
	<path
   id="XMLID_140_"
   style="fill:#2c3945"
   d="m 1852.243,152.317 c -0.872,0.008 -1.711,-0.33 -2.578,-0.425 -1.194,-0.132 -2.399,0.2 -3.595,0.094 -4.063,-0.358 -21.359,-10.031 -1.133,-25.635 25.2,-19.442 18.04,25.868 7.306,25.966 z" />

	<path
   id="XMLID_136_"
   style="fill:#2c3945"
   d="m 1817.822,145.18 c 5.346,5.924 15.158,3.868 12.267,-10.249 -2.111,-10.307 -21.166,0.39 -12.267,10.249 z" />

	<path
   id="XMLID_144_"
   style="fill:#ffe6d9"
   d="m 1841.465,159.191 c -10.94,0 -21.919,-3.208 -0.091,-3.208 21.544,0 11.124,3.208 0.091,3.208 z" />

	<path
   id="XMLID_46_"
   style="fill:#fd9c8d"
   d="m 1874.81,183.213 c -13.463,-9.709 -25.985,-9.492 -20.873,-34.695 l -23.166,-1.445 c -0.941,18.706 0.281,20.032 -7.538,26.945 -1.722,1.523 -12.703,7.821 -12.703,7.821 17.423,15.516 49.254,14.232 64.28,1.374 z" />

	<path
   id="XMLID_41_"
   style="fill:#fd9c8d"
   d="m 1824.868,111.781 c -9.736,35.91 18.037,60.973 33.053,33.244 27.098,-50.04 -25.129,-62.471 -33.053,-33.244 z" />

	<path
   id="XMLID_95_"
   style="fill:#2c3945"
   d="m 1850.934,101.278 c 0.819,5.916 -3.955,6.65 -8.121,6.845 -13.187,0.616 -19.295,17.812 -19.498,23.594 -9.962,-23.25 10.309,-47.833 23.416,-42.042 3.924,1.735 3.705,8.009 4.203,11.603 z" />

	<g
   id="XMLID_36_">
		<path
   id="XMLID_40_"
   style="fill:#fd9c8d"
   d="m 1865.136,129.233 c -3.338,-1.578 -4.626,5.896 -5.164,9.622 -1.063,7.343 10.421,-7.136 5.164,-9.622 z" />

	</g>

	<g
   id="XMLID_33_">
		<path
   id="XMLID_34_"
   style="fill:#fd9c8d"
   d="m 1821.85,122.362 c 3.638,-0.53 2.79,7.011 2.269,10.739 -1.027,7.348 -7.999,-9.905 -2.269,-10.739 z" />

	</g>

	<g
   id="XMLID_262_">
		<path
   id="XMLID_32_"
   style="fill:#382823"
   d="m 1832.578,127.743 c -1.208,-0.181 -1.482,-5.045 1.449,-4.605 1.563,0.235 0.527,4.902 -1.449,4.605 z" />

		<path
   id="XMLID_31_"
   style="fill:#382823"
   d="m 1853.281,130.854 c 1.208,0.181 2.824,-4.398 -0.106,-4.838 -1.564,-0.235 -1.871,4.541 0.106,4.838 z" />

		<path
   id="XMLID_148_"
   style="fill:#353b4a"
   d="m 1836.377,117.626 c 1.885,0.58 1.413,2.471 -0.054,2.176 -2.072,-0.417 -2.383,-1.388 -6.609,-0.269 -4.645,1.229 0.773,-3.719 6.663,-1.907 z" />

		<path
   id="XMLID_147_"
   style="fill:#353b4a"
   d="m 1852.297,120.214 c -1.956,-0.216 -2.231,1.698 -0.77,2.027 1.837,0.414 2.72,-0.33 6.193,2.385 3.817,2.985 0.689,-3.735 -5.423,-4.412 z" />

		<path
   id="XMLID_29_"
   style="fill:#ee795c"
   d="m 1839.176,135.468 c -0.306,0.356 -0.22,0.866 0.179,1.107 3.908,2.361 3.913,0.292 2.665,0.194 -4.144,-0.326 0.226,-1.54 1.343,-8.515 0.117,-0.733 -0.711,-0.864 -0.883,-0.273 -0.3,1.027 -0.626,4.375 -3.304,7.487 z" />

		<path
   id="XMLID_28_"
   style="fill:#ffffff"
   d="m 1846.867,144.021 c 0.237,-0.052 0.399,0.241 0.226,0.417 -9.531,9.691 -13.487,-2.599 -12.007,-1.807 2.336,1.25 6.71,2.492 11.781,1.39 z" />

	</g>

	<g
   id="XMLID_23_">
		<path
   id="XMLID_27_"
   style="fill:#ee795c"
   d="m 1822.072,126.144 c 0.152,-0.328 0.629,-0.091 0.479,0.234 -0.908,1.972 -0.47,3.274 0.289,3.865 0.117,0.091 0.14,0.262 0.052,0.382 -0.586,0.797 -2.119,-1.661 -0.82,-4.481 z" />

	</g>

	<g
   id="XMLID_19_">
		<path
   id="XMLID_21_"
   style="fill:#ee795c"
   d="m 1862.745,136.637 c 0.884,-0.791 0.948,-2.222 0.938,-3.501 0,-0.362 0.528,-0.363 0.53,-0.004 0.039,4.801 -2.28,4.229 -1.468,3.505 z" />

	</g>

	<g
   id="XMLID_10_">
		<path
   id="XMLID_15_"
   style="fill:#ee795c"
   d="m 1831.536,151.434 c 7.055,8.014 17.899,5.156 20.9,0.62 1.185,-1.768 0.098,4.301 -8.904,4.942 -9.943,0.707 -14.029,-7.879 -11.996,-5.562 z" />

	</g>

	<path
   id="XMLID_104_"
   style="fill:#fd9c8d"
   d="m 1842.783,316.601 c 1.921,37.423 0.757,71.826 5.785,95.874 11.247,53.795 7.456,98.558 7.456,98.558 4.701,4.538 13.614,3.601 13.523,-0.817 -0.831,-40.166 13.015,-53.42 5.376,-91.913 -10.144,-51.108 9.974,-107.168 8.802,-115.083 -3.731,-25.195 -43.434,-35.174 -40.942,13.381 z" />

	<path
   id="XMLID_106_"
   style="fill:#fd9c8d"
   d="m 1839.623,427.724 c 5.098,29.544 -0.699,48.095 -1.537,85.284 -0.124,5.517 -8.728,6.821 -13.496,1.194 0,0 -0.924,-45.677 -9.42,-91.639 -9.827,-53.161 -14.186,-109.661 -13.881,-104.26 -1.733,-30.603 14.716,-37.485 26.406,-35.113 32.501,6.595 3.973,98.438 11.928,144.534 z" />

	<g
   id="XMLID_132_">
		<path
   style="fill:#ffe6d9"
   d="m 1768.963,299.311 c -0.039,5.679 0.396,4.879 5.203,7.679 3.264,1.902 7.836,3.565 13.78,0.344 1,-0.542 24.32,1.693 27.581,-40.359 0.947,-12.213 -1.42,-17.67 -2.323,-29.886 -0.776,-10.491 10.392,-54.541 -5.033,-59.176 -16.568,-4.979 -26.236,43.349 -27.161,52.942 -1.634,16.966 -11.882,44.537 -12.047,68.456 z"
   id="path22" />

		<path
   style="fill:#ffcbb2"
   d="m 1781.33,309.664 c -3.067,0 -5.56,-1.153 -7.419,-2.235 -0.735,-0.429 -1.367,-0.772 -1.91,-1.067 -3.226,-1.753 -3.579,-2.111 -3.545,-7.054 0.101,-14.466 3.873,-30.261 7.201,-44.197 2.161,-9.047 4.202,-17.592 4.849,-24.304 0.842,-8.733 7.985,-43.939 20.022,-52.023 2.524,-1.694 5.147,-2.149 7.789,-1.355 11.757,3.533 8.757,27.913 6.568,45.714 -0.738,6.003 -1.376,11.186 -1.175,13.91 0.326,4.419 0.837,7.891 1.331,11.248 0.858,5.839 1.6,10.881 0.992,18.714 -1.954,25.201 -11.36,39.276 -27.201,40.706 -0.285,0.025 -0.608,0.055 -0.688,0.079 -2.51,1.36 -4.788,1.864 -6.814,1.864 z m -11.86,-10.349 c -0.031,4.5 0.084,4.562 3.016,6.155 0.551,0.3 1.191,0.647 1.935,1.081 2.876,1.675 7.379,3.531 13.284,0.337 0.186,-0.102 0.435,-0.124 1.036,-0.178 19.308,-1.742 24.948,-22.591 26.28,-39.774 0.6,-7.72 -0.135,-12.71 -0.984,-18.488 -0.496,-3.375 -1.009,-6.865 -1.339,-11.321 -0.208,-2.824 0.434,-8.053 1.18,-14.109 2.025,-16.459 5.085,-41.333 -5.852,-44.62 -2.342,-0.704 -4.675,-0.291 -6.932,1.226 -11.738,7.883 -18.747,42.647 -19.578,51.279 -0.653,6.781 -2.703,15.359 -4.872,24.441 -3.316,13.885 -7.075,29.62 -7.174,43.971 z"
   id="path23" />

	</g>

	<path
   id="XMLID_134_"
   style="fill:#005f5b"
   d="m 1870.302,259.411 c 16.467,31.027 15.472,43.296 23.269,101.865 0.283,2.129 -1.119,4.116 -3.175,4.503 -35.68,6.717 -58.659,8.213 -91.416,1.389 -1.916,-0.399 -3.26,-2.19 -3.139,-4.195 3.713,-61.42 0,-63.653 17.421,-102.012 16.026,3.641 40.728,1.543 57.04,-1.55 z" />

	<g
   id="XMLID_108_">
		<path
   id="XMLID_100_"
   style="fill:#ee795c"
   d="m 1782.513,342.152 c 1.515,-0.85 2.528,2.236 0.291,2.546 -0.735,0.102 -1.478,-0.309 -1.925,-0.917 -0.744,1.52 2.039,2.82 1.47,4.367 -1.077,2.931 -14.96,-3.495 -11.011,-11.882 0.844,-1.793 2.025,-0.257 3.171,0.48 7.701,4.952 13.859,0.859 8.004,5.406 z" />

		<path
   id="XMLID_97_"
   style="fill:#fd9c8d"
   d="m 1768.402,332.49 c -1.095,1.31 -1.128,1.719 -0.973,3.49 0.536,6.121 -1.671,6.117 1.571,9.646 5.734,6.243 10.364,8.423 10.104,5.57 -0.287,-3.157 -11.568,-6.775 -5.999,-15.549 3.951,-6.226 8.319,0.51 6.795,4.084 -0.416,0.977 -2.256,3.122 -0.83,6.073 7.305,-4.508 4.948,-12.285 5.62,-16.93 0.258,-1.786 2.532,-8.46 -2.639,-9.571 -3.124,-0.673 -3.539,1.095 -13.649,13.187 z" />

	</g>

	<path
   id="XMLID_115_"
   style="fill:#004243"
   d="m 1870.302,259.411 c -19.258,6.067 -41.114,6.774 -57.04,1.55 l 1.798,-11.418 52.861,-1.436 z" />

	<g
   id="XMLID_205_">
		<path
   id="XMLID_203_"
   style="fill:#ff9c8a"
   d="m 1889.16,330.583 c -2.463,0.224 -0.254,-5.598 0.144,-11.987 0.702,-11.251 -5.276,-13.389 -5.434,-8.594 -0.056,1.684 1.349,4.834 -1.538,6.736 -0.522,0.344 -1.947,0.693 -1.744,-0.857 0.457,-3.481 -1.953,-2.438 1.341,-13.452 1.409,-4.711 0.657,-11.471 5.494,-11.48 5.154,-0.009 4.957,8.354 5.318,10.524 3.44,20.655 -2.65,29.026 -3.581,29.11 z" />

	</g>

	<g
   id="XMLID_96_">
		<path
   style="fill:#ffe6d9"
   d="m 1856.795,197.459 c 6.571,18.973 56.489,36.933 47.308,45.715 -7.63,7.298 -13.546,16.476 -17.112,26.543 -2.205,6.227 0.496,4.161 3.259,10.148 3.011,6.526 4.58,8.089 11.595,7.663 7.014,-0.425 15.401,6.899 20.278,1.7 9.114,-9.719 15.749,-22.95 16.005,-36.447 0.168,-8.903 3.861,-20.148 -0.787,-28.712 -2.644,-4.873 -7.753,-7.649 -11.358,-11.82 -11.776,-13.624 -29.51,-17.371 -44.32,-30.342 -13.31,-11.655 -29.249,2.9 -24.868,15.552 z"
   id="path24" />

		<path
   style="fill:#ffcbb2"
   d="m 1917.622,291.599 c -2.319,0 -4.867,-0.88 -7.368,-1.744 -2.818,-0.974 -5.718,-1.976 -8.379,-1.82 -7.207,0.438 -8.97,-1.203 -12.085,-7.957 -0.985,-2.134 -1.936,-3.183 -2.7,-4.026 -1.473,-1.624 -2.013,-2.446 -0.575,-6.504 3.59,-10.14 9.551,-19.387 17.238,-26.74 0.721,-0.689 1.033,-1.435 0.955,-2.279 -0.368,-4.007 -9.276,-9.841 -18.707,-16.017 -12.351,-8.089 -26.35,-17.257 -29.686,-26.887 -2.189,-6.325 0.568,-13.841 6.559,-17.874 6.056,-4.075 13.202,-3.409 19.123,1.776 6.648,5.823 13.92,9.792 20.952,13.629 8.691,4.743 16.9,9.223 23.417,16.762 1.379,1.596 3.021,3.017 4.608,4.391 2.533,2.193 5.153,4.462 6.812,7.519 3.389,6.244 2.471,13.68 1.583,20.872 -0.354,2.858 -0.687,5.557 -0.734,8.092 -0.239,12.693 -6.123,26.101 -16.141,36.784 -1.398,1.489 -3.066,2.023 -4.872,2.023 z m -15.174,-4.595 c 2.657,0 5.439,0.961 8.137,1.893 4.334,1.497 8.426,2.911 11.168,-0.015 9.849,-10.502 15.632,-23.664 15.867,-36.11 0.049,-2.587 0.386,-5.311 0.741,-8.196 0.868,-7.033 1.767,-14.306 -1.467,-20.264 -1.571,-2.895 -4.007,-5.003 -6.585,-7.236 -1.614,-1.398 -3.283,-2.843 -4.711,-4.494 -6.396,-7.399 -14.526,-11.837 -23.135,-16.535 -7.08,-3.864 -14.402,-7.86 -21.135,-13.756 -5.554,-4.865 -12.243,-5.498 -17.889,-1.698 -5.615,3.78 -8.209,10.803 -6.166,16.701 3.222,9.303 17.066,18.37 29.282,26.371 10.059,6.588 18.748,12.278 19.161,16.772 0.106,1.156 -0.319,2.201 -1.264,3.105 -7.573,7.244 -13.446,16.354 -16.984,26.346 -1.293,3.649 -0.873,4.112 0.371,5.484 0.769,0.847 1.82,2.007 2.869,4.282 2.926,6.341 4.296,7.779 11.104,7.37 0.212,-0.014 0.424,-0.02 0.636,-0.02 z"
   id="path25" />

	</g>

	<path
   id="XMLID_123_"
   style="fill:#ffcbb2"
   d="m 1884.405,291.772 7.996,5.867 9.443,-10.11 c -4.881,-0.757 -8.648,-3.347 -11.595,-7.663 z" />

	<g
   id="XMLID_94_">
		<path
   style="fill:#ffe6d9"
   d="m 1825.977,171.42 c 2.224,7.746 28.703,7.212 30.369,-0.378 7.909,2.51 15.011,4.491 22.196,8.714 6.496,43.965 -2.288,68.794 -12.74,70.64 -21.744,3.547 -34.64,4.186 -50.787,0.727 -14.245,-4.667 -12.779,-53.392 -6.843,-73.21 -10e-4,10e-4 6.386,-2.959 17.805,-6.493 z"
   id="path26" />

		<path
   style="fill:#ffcbb2"
   d="m 1836.147,253.916 c -6.995,0 -13.778,-0.699 -21.239,-2.297 -15.178,-4.969 -12.876,-54.972 -7.222,-73.851 l 0.066,-0.218 0.207,-0.096 c 0.064,-0.03 6.548,-3.015 17.868,-6.518 l 0.494,-0.153 0.143,0.497 c 1.059,3.69 8.596,5.399 15.508,5.181 7.51,-0.238 13.218,-2.511 13.88,-5.527 l 0.119,-0.542 3.128,0.986 c 6.82,2.138 13.262,4.157 19.7,7.942 l 0.209,0.123 0.036,0.24 c 6.442,43.608 -1.969,69.238 -13.154,71.213 -11.492,1.874 -20.79,3.02 -29.743,3.02 z m -27.555,-75.636 c -6.104,20.695 -6.928,67.936 6.581,72.361 16.799,3.596 30.209,2.571 50.547,-0.746 9.155,-1.617 19.028,-24.35 12.356,-69.824 -6.27,-3.648 -12.592,-5.629 -19.28,-7.727 l -2.107,-0.663 c -1.436,3.965 -8.697,5.602 -14.685,5.792 -7.024,0.225 -14.649,-1.378 -16.343,-5.425 -9.854,3.074 -15.902,5.71 -17.069,6.232 z"
   id="path27" />

	</g>

	<g
   id="XMLID_119_">
		<path
   style="fill:#004f4f"
   d="m 1838.093,266.708 c -1.096,0 -1.732,-0.151 -2.217,-0.568 -0.546,-0.47 -0.649,-1.12 -0.679,-1.568 -0.134,-1.983 -0.262,-3.635 -0.369,-5.01 -0.37,-4.757 -0.481,-6.193 0.299,-7.099 0.455,-0.529 1.081,-0.63 1.512,-0.661 1.353,-0.096 2.509,-0.192 3.495,-0.273 3.656,-0.303 5.028,-0.416 5.901,0.336 0.546,0.47 0.649,1.121 0.679,1.568 0.134,1.983 0.262,3.635 0.369,5.01 0.37,4.757 0.482,6.192 -0.299,7.098 -0.455,0.529 -1.081,0.63 -1.512,0.661 l -0.065,-0.91 0.065,0.91 c -1.354,0.096 -2.511,0.192 -3.497,0.274 -1.628,0.134 -2.802,0.232 -3.682,0.232 z m 5.829,-13.592 c -0.849,0 -2.18,0.11 -3.638,0.231 -0.992,0.082 -2.155,0.178 -3.517,0.275 -0.215,0.015 -0.275,0.047 -0.277,0.049 -0.262,0.361 -0.086,2.621 0.157,5.749 0.107,1.38 0.236,3.039 0.37,5.029 0.017,0.249 0.057,0.315 0.059,0.318 0.315,0.24 2.278,0.078 4.549,-0.11 0.992,-0.082 2.156,-0.179 3.519,-0.275 0.215,-0.015 0.275,-0.047 0.277,-0.049 0.262,-0.361 0.086,-2.621 -0.157,-5.749 -0.107,-1.381 -0.236,-3.039 -0.37,-5.03 -0.017,-0.249 -0.057,-0.316 -0.059,-0.318 -0.113,-0.086 -0.439,-0.12 -0.913,-0.12 z"
   id="path28" />

	</g>

	<path
   id="XMLID_120_"
   style="fill:#ffcbb2"
   d="m 1786.285,320.561 -9.822,0.244 -2.298,-13.815 c 4.453,2.189 8.985,2.217 13.78,0.344 z" />

	<path
   id="XMLID_135_"
   style="fill:#2c3945"
   d="m 1862.915,163.346 c 1.608,-26.547 11.073,-39.898 0.25,-61.728 -5.773,-11.645 -13.503,-12.43 -14.547,-7.62 -0.13,0.603 13.903,75.858 14.297,69.348 z" />

	<path
   id="XMLID_142_"
   style="fill:#ffcbb2"
   d="m 1856.346,171.042 c -1.032,7.531 -28.838,8.539 -30.369,0.378 l 2.882,-14.339 c 8.459,2.178 16.025,2.653 25.016,0 z" />

	<g
   id="XMLID_204_">
		<path
   style="fill:#30323e"
   d="m 1850.671,102.178 c -0.045,0 -0.091,-0.006 -0.137,-0.019 -0.269,-0.076 -0.427,-0.355 -0.352,-0.625 0.689,-2.457 0.298,-5.207 -1.048,-7.357 -0.149,-0.237 -0.076,-0.55 0.161,-0.699 0.233,-0.147 0.551,-0.078 0.698,0.161 1.494,2.388 1.93,5.442 1.165,8.168 -0.061,0.225 -0.266,0.371 -0.487,0.371 z"
   id="path29" />

	</g>

	<g
   id="XMLID_210_">
		<path
   style="fill:#30323e"
   d="m 1836.124,95.696 c -0.122,0 -0.245,-0.044 -0.343,-0.133 -0.206,-0.189 -0.22,-0.51 -0.031,-0.716 2.657,-2.902 6.461,-3.495 8.91,-3.121 1.586,0.242 2.767,0.886 3.159,1.721 0.119,0.253 0.01,0.555 -0.243,0.674 -0.255,0.119 -0.556,0.01 -0.675,-0.244 -0.197,-0.42 -1.014,-0.939 -2.394,-1.149 -2.2,-0.336 -5.622,0.196 -8.009,2.803 -0.101,0.11 -0.237,0.165 -0.374,0.165 z"
   id="path30" />

	</g>

	<g
   id="XMLID_211_">
		<path
   style="fill:#30323e"
   d="m 1843.261,98.297 c -0.326,0 -0.653,-0.021 -0.982,-0.07 -0.276,-0.042 -0.468,-0.3 -0.426,-0.577 0.04,-0.278 0.3,-0.47 0.576,-0.426 1.086,0.163 2.185,-0.038 3.348,-0.251 0.627,-0.115 1.275,-0.234 1.927,-0.292 0.771,-0.073 1.018,0.342 1.091,0.521 0.106,0.259 -0.017,0.555 -0.276,0.661 -0.223,0.089 -0.472,0.013 -0.606,-0.175 -0.025,-0.003 -0.065,-0.003 -0.119,0.002 -0.604,0.054 -1.229,0.169 -1.834,0.279 -0.881,0.162 -1.783,0.328 -2.699,0.328 z"
   id="path31" />

	</g>

	<g
   id="XMLID_212_">
		<path
   style="fill:#30323e"
   d="m 1835.836,108.806 c -0.124,0 -0.249,-0.045 -0.347,-0.137 -0.204,-0.191 -0.215,-0.512 -0.024,-0.717 3.272,-3.493 5.42,-3.592 7.497,-3.688 1.12,-0.052 2.179,-0.101 3.451,-0.68 0.885,-0.402 1.889,-1.256 2.051,-2.444 0.037,-0.278 0.3,-0.47 0.57,-0.434 0.277,0.038 0.472,0.294 0.434,0.571 -0.182,1.336 -1.191,2.574 -2.635,3.23 -1.45,0.66 -2.657,0.716 -3.824,0.77 -1.961,0.09 -3.814,0.176 -6.804,3.368 -0.099,0.107 -0.234,0.161 -0.369,0.161 z"
   id="path32" />

	</g>

	<g
   id="XMLID_214_">
		<path
   style="fill:#30323e"
   d="m 1823.529,113.295 c -0.026,0 -0.052,-0.002 -0.078,-0.006 -0.277,-0.042 -0.467,-0.302 -0.424,-0.578 0.741,-4.798 3.494,-8.996 5.923,-12.7 0.153,-0.234 0.468,-0.3 0.702,-0.146 0.233,0.153 0.299,0.468 0.146,0.702 -2.372,3.618 -5.062,7.718 -5.769,12.298 -0.039,0.25 -0.255,0.43 -0.5,0.43 z"
   id="path33" />

	</g>

	<g
   id="XMLID_215_">
		<path
   style="fill:#30323e"
   d="m 1825.27,118.559 c -0.03,0 -0.061,-0.002 -0.091,-0.008 -0.275,-0.05 -0.459,-0.313 -0.409,-0.589 0.748,-4.155 1.324,-5.167 3.468,-7.691 0.182,-0.214 0.501,-0.239 0.715,-0.058 0.214,0.181 0.239,0.501 0.059,0.714 -1.916,2.256 -2.501,3.09 -3.243,7.214 -0.045,0.246 -0.259,0.418 -0.499,0.418 z"
   id="path34" />

	</g>

	<g
   id="XMLID_216_">
		<path
   style="fill:#30323e"
   d="m 1860.785,103.713 c -0.275,0 -0.501,-0.22 -0.507,-0.496 -0.076,-3.475 -3.429,-6.688 -5.784,-7.86 -1.114,-0.554 -1.679,-0.502 -1.822,-0.4 -0.227,0.164 -0.543,0.114 -0.708,-0.114 -0.164,-0.227 -0.112,-0.544 0.114,-0.708 0.753,-0.545 1.975,-0.13 2.867,0.313 2.406,1.197 6.257,4.629 6.347,8.745 0.01,0.28 -0.216,0.512 -0.496,0.518 0,0.002 -0.01,0.002 -0.011,0.002 z"
   id="path35" />

	</g>

	<g
   id="XMLID_218_">
		<path
   style="fill:#30323e"
   d="m 1855.578,102.002 c -0.233,0 -0.443,-0.162 -0.495,-0.399 -0.162,-0.748 -1.402,-2.127 -2.304,-2.06 -0.313,0.02 -0.518,-0.202 -0.531,-0.481 -0.015,-0.279 0.201,-0.518 0.48,-0.532 1.441,-0.076 3.094,1.702 3.345,2.856 0.059,0.274 -0.114,0.544 -0.388,0.603 -0.036,0.01 -0.072,0.013 -0.107,0.013 z"
   id="path36" />

	</g>

	<g
   id="XMLID_219_">
		<path
   style="fill:#30323e"
   d="m 1856.353,123.803 c -0.229,0 -0.436,-0.154 -0.492,-0.386 -1.836,-7.462 -2.453,-11.87 -2.862,-14.786 -0.353,-2.518 -0.53,-3.781 -1.183,-4.84 -0.146,-0.239 -0.072,-0.551 0.166,-0.698 0.237,-0.147 0.55,-0.073 0.697,0.166 0.764,1.24 0.963,2.658 1.323,5.232 0.406,2.896 1.019,7.273 2.843,14.685 0.067,0.272 -0.1,0.546 -0.371,0.613 -0.042,0.009 -0.082,0.014 -0.121,0.014 z"
   id="path37" />

	</g>

	<g
   id="XMLID_220_">
		<path
   style="fill:#30323e"
   d="m 1863.926,130.872 c -0.025,0 -0.05,-0.001 -0.075,-0.005 -0.277,-0.041 -0.469,-0.299 -0.427,-0.576 l 0.032,-0.223 c 0.898,-6.053 2.017,-13.585 -0.871,-19.944 -0.115,-0.255 0,-0.555 0.252,-0.671 0.256,-0.116 0.556,-0.003 0.672,0.252 3.011,6.631 1.868,14.328 0.95,20.512 l -0.033,0.223 c -0.037,0.251 -0.253,0.432 -0.5,0.432 z"
   id="path38" />

	</g>

	<g
   id="XMLID_221_">
		<path
   style="fill:#30323e"
   d="m 1862.113,147.817 c -0.251,0 -0.47,-0.187 -0.502,-0.443 -0.614,-4.86 -1.499,-9.736 -2.631,-14.494 -0.064,-0.272 0.104,-0.545 0.376,-0.61 0.275,-0.065 0.545,0.105 0.61,0.376 1.141,4.792 2.032,9.705 2.65,14.601 0.035,0.278 -0.162,0.531 -0.439,0.566 -0.021,0.003 -0.042,0.004 -0.064,0.004 z"
   id="path39" />

	</g>

	<g
   id="XMLID_222_">
		<path
   style="fill:#30323e"
   d="m 1818.882,141.96 c -0.086,0 -0.172,-0.021 -0.251,-0.066 -1.297,-0.739 -1.79,-2.039 -1.39,-3.663 0.463,-1.872 2.033,-3.747 3.169,-3.785 0.322,0.017 0.515,0.211 0.523,0.49 0.01,0.28 -0.21,0.514 -0.49,0.523 -0.488,0.016 -1.823,1.422 -2.218,3.015 -0.29,1.176 0.015,2.03 0.907,2.538 0.243,0.139 0.328,0.448 0.19,0.691 -0.094,0.165 -0.265,0.257 -0.44,0.257 z"
   id="path40" />

	</g>

	<g
   id="XMLID_224_">
		<path
   style="fill:#30323e"
   d="m 1825.557,144.35 c -0.125,0 -0.25,-0.046 -0.348,-0.138 -1.563,-1.474 -2.515,-3.654 -2.547,-5.832 0,-0.28 0.22,-0.51 0.499,-0.514 0.284,0 0.511,0.222 0.515,0.499 0.028,1.909 0.861,3.819 2.229,5.109 0.204,0.192 0.213,0.513 0.021,0.716 -0.101,0.107 -0.235,0.16 -0.369,0.16 z"
   id="path41" />

	</g>

	<g
   id="XMLID_227_">
		<path
   style="fill:#30323e"
   d="m 1823.533,146.617 c -0.025,0 -0.05,-0.002 -0.075,-0.005 -1.397,-0.208 -2.703,-1.048 -3.493,-2.25 -0.153,-0.234 -0.089,-0.548 0.146,-0.702 0.232,-0.153 0.547,-0.09 0.702,0.146 0.633,0.963 1.678,1.638 2.794,1.803 0.277,0.041 0.469,0.299 0.427,0.576 -0.038,0.251 -0.254,0.432 -0.501,0.432 z"
   id="path42" />

	</g>

	<g
   id="XMLID_260_">
		<g
   id="XMLID_231_">
			<path
   style="fill:#ffcbb2"
   d="m 1912.659,247.663 c -0.207,0 -0.4,-0.127 -0.476,-0.333 -1.23,-3.361 -2.779,-6.468 -5.796,-6.413 l -0.997,0.017 6.172,-8.774 c 0.161,-0.23 0.478,-0.284 0.707,-0.123 0.229,0.161 0.284,0.477 0.123,0.706 l -5.087,7.231 c 3.485,0.604 5.047,4.87 5.829,7.008 0.097,0.263 -0.038,0.554 -0.302,0.65 -0.056,0.021 -0.115,0.031 -0.173,0.031 z"
   id="path43" />

		</g>

		<g
   id="XMLID_232_">
			<path
   style="fill:#ffcbb2"
   d="m 1925.484,231.48 c -0.243,0 -0.458,-0.176 -0.499,-0.424 -0.354,-2.154 0.527,-3.498 1.381,-4.798 1.281,-1.951 2.607,-3.969 0.91,-9.272 -0.086,-0.267 0.062,-0.552 0.328,-0.637 0.267,-0.084 0.552,0.062 0.637,0.329 1.845,5.764 0.252,8.189 -1.027,10.137 -0.849,1.292 -1.519,2.313 -1.228,4.076 0.046,0.276 -0.142,0.537 -0.418,0.582 -0.028,0.006 -0.056,0.007 -0.084,0.007 z"
   id="path44" />

		</g>

		<g
   id="XMLID_235_">
			<path
   style="fill:#ffcbb2"
   d="m 1787.899,307.751 -0.511,-0.958 c -0.793,-1.487 -1.172,-3.169 -1.096,-4.864 0.014,-0.279 0.261,-0.487 0.53,-0.483 0.279,0.013 0.496,0.25 0.483,0.53 -0.052,1.138 0.126,2.27 0.519,3.325 1.152,-2.495 2.742,-4.812 4.64,-6.752 0.195,-0.201 0.516,-0.204 0.717,-0.008 0.2,0.195 0.204,0.517 0.01,0.717 -2.073,2.119 -3.762,4.708 -4.885,7.486 z"
   id="path45" />

		</g>

		<g
   id="XMLID_236_">
			<path
   style="fill:#ffcbb2"
   d="m 1774.289,305.541 c -0.214,0 -0.413,-0.137 -0.482,-0.352 -0.749,-2.326 -0.817,-4.909 -0.193,-7.275 0.072,-0.271 0.347,-0.43 0.62,-0.36 0.271,0.072 0.432,0.349 0.36,0.62 -0.576,2.18 -0.513,4.562 0.178,6.705 0.086,0.267 -0.06,0.552 -0.327,0.638 -0.053,0.016 -0.104,0.024 -0.156,0.024 z"
   id="path46" />

		</g>

		<g
   id="XMLID_237_">
			<path
   style="fill:#ffcbb2"
   d="m 1891.52,278.046 c -0.242,0 -0.457,-0.174 -0.499,-0.422 -0.538,-3.158 0.6,-6.6 2.899,-8.768 0.203,-0.191 0.523,-0.183 0.717,0.021 0.191,0.204 0.183,0.524 -0.021,0.716 -2.059,1.942 -3.077,5.028 -2.594,7.86 0.047,0.276 -0.139,0.538 -0.415,0.585 -0.03,0.005 -0.059,0.008 -0.087,0.008 z"
   id="path47" />

		</g>

		<g
   id="XMLID_238_">
			<path
   style="fill:#ffcbb2"
   d="m 1901.84,286.268 c -0.223,0 -0.427,-0.147 -0.488,-0.372 -0.075,-0.27 0.083,-0.549 0.353,-0.624 2.923,-0.809 5.52,-2.636 7.313,-5.144 0.163,-0.228 0.479,-0.279 0.707,-0.118 0.228,0.163 0.28,0.479 0.117,0.707 -1.927,2.696 -4.721,4.661 -7.867,5.532 -0.045,0.013 -0.09,0.019 -0.135,0.019 z"
   id="path48" />

		</g>

		<g
   id="XMLID_239_">
			<path
   style="fill:#ffcbb2"
   d="m 1792.139,228.541 c -0.091,0 -0.182,-0.024 -0.265,-0.074 -4.28,-2.616 -6.708,-7.968 -5.903,-13.016 0.044,-0.277 0.306,-0.464 0.581,-0.42 0.276,0.044 0.465,0.304 0.421,0.581 -0.742,4.652 1.491,9.583 5.431,11.99 0.238,0.146 0.313,0.458 0.168,0.697 -0.097,0.156 -0.264,0.242 -0.433,0.242 z"
   id="path49" />

		</g>

		<g
   id="XMLID_240_">
			<path
   style="fill:#ffcbb2"
   d="m 1802.674,264.597 c -0.145,0 -0.287,-0.061 -0.388,-0.18 -0.181,-0.214 -0.153,-0.534 0.062,-0.714 0.867,-0.73 1.676,-1.401 2.426,-2.023 4.619,-3.827 6.938,-5.748 6.642,-8.334 -0.031,-0.278 0.168,-0.529 0.446,-0.561 0.28,-0.033 0.528,0.167 0.562,0.446 0.357,3.131 -2.102,5.169 -7.002,9.23 -0.748,0.62 -1.556,1.289 -2.421,2.018 -0.096,0.079 -0.212,0.118 -0.327,0.118 z"
   id="path50" />

		</g>

		<g
   id="XMLID_241_">
			<path
   style="fill:#ffcbb2"
   d="m 1819.011,249.186 c -0.133,0 -0.266,-0.052 -0.365,-0.156 -2.639,-2.746 -4.12,-6.686 -3.963,-10.538 0.013,-0.28 0.263,-0.499 0.527,-0.486 0.28,0.011 0.497,0.247 0.486,0.527 -0.146,3.583 1.229,7.244 3.68,9.795 0.194,0.202 0.188,0.523 -0.014,0.717 -0.098,0.094 -0.225,0.141 -0.351,0.141 z"
   id="path51" />

		</g>

		<g
   id="XMLID_242_">
			<path
   style="fill:#ffcbb2"
   d="m 1858.006,248.581 c -0.157,0 -0.312,-0.073 -0.411,-0.21 -0.164,-0.227 -0.112,-0.544 0.114,-0.708 4.268,-3.081 7.061,-8.112 7.472,-13.458 0.021,-0.279 0.272,-0.486 0.545,-0.466 0.279,0.021 0.488,0.265 0.467,0.544 -0.435,5.639 -3.384,10.948 -7.89,14.202 -0.09,0.064 -0.194,0.096 -0.297,0.096 z"
   id="path52" />

		</g>

	</g>

	<g
   id="XMLID_261_">
		<g
   id="XMLID_243_">
			<path
   style="fill:#004243"
   d="m 1816.025,367.163 c -0.266,0 -0.488,-0.207 -0.505,-0.476 -2.056,-33.267 1.141,-70.195 8.771,-101.315 0.066,-0.272 0.338,-0.442 0.613,-0.371 0.271,0.066 0.438,0.341 0.371,0.613 -7.605,31.025 -10.793,67.843 -8.743,101.012 0.018,0.279 -0.195,0.52 -0.475,0.537 -0.01,0 -0.021,0 -0.032,0 z"
   id="path53" />

		</g>

		<g
   id="XMLID_244_">
			<path
   style="fill:#004243"
   d="m 1870.251,365.757 c -0.313,-0.019 -0.524,-0.26 -0.507,-0.539 2.531,-39.674 -0.813,-73.586 -9.938,-100.795 -0.089,-0.265 0.054,-0.553 0.319,-0.642 0.268,-0.088 0.553,0.054 0.642,0.319 9.168,27.334 12.529,61.376 9.989,101.182 -0.017,0.269 -0.24,0.475 -0.505,0.475 z"
   id="path54" />

		</g>

		<g
   id="XMLID_245_">
			<path
   style="fill:#004243"
   d="m 1805.614,283.587 c -0.141,0 -0.281,-0.059 -0.381,-0.173 -0.185,-0.21 -0.164,-0.531 0.047,-0.715 6.693,-5.863 10.861,-13.384 14.056,-19.968 0.123,-0.252 0.427,-0.356 0.678,-0.235 0.252,0.122 0.356,0.425 0.234,0.677 -3.238,6.675 -7.47,14.306 -14.3,20.288 -0.095,0.085 -0.215,0.126 -0.334,0.126 z"
   id="path55" />

		</g>

		<g
   id="XMLID_246_">
			<path
   style="fill:#004243"
   d="m 1878.62,279.301 c -0.043,0 -0.087,-0.005 -0.131,-0.017 -6.726,-1.796 -13.527,-11.969 -15.254,-18.184 -0.075,-0.27 0.083,-0.549 0.352,-0.624 0.269,-0.075 0.549,0.083 0.624,0.353 1.849,6.651 8.746,15.929 14.539,17.476 0.271,0.072 0.431,0.35 0.359,0.621 -0.059,0.226 -0.264,0.375 -0.489,0.375 z"
   id="path56" />

		</g>

	</g>

	<g
   id="XMLID_1993_">
		<g
   id="XMLID_1998_">
			<path
   style="fill:#f2e8de"
   d="m 1798.95,536.178 c -0.504,-0.808 -0.598,-1.848 -0.266,-2.745 0.966,-2.615 26.901,-19.918 25.906,-19.231 4.768,3.043 11.118,1.456 13.496,-1.194 1.663,3.5 6.47,16.121 1.727,17.425 -2.833,0.778 -38.735,9.157 -40.863,5.745 z"
   id="path57" />

			<path
   style="fill:#fffffb"
   d="m 1802.741,537.436 c -2.246,0 -3.785,-0.289 -4.221,-0.988 -0.586,-0.94 -0.703,-2.132 -0.313,-3.189 0.91,-2.462 20.956,-16.04 25.513,-19.008 l -0.047,-0.03 0.628,-0.434 0.046,0.06 c 0.177,-0.11 0.275,-0.169 0.287,-0.169 l 0.366,0.013 0.063,0.211 c 4.575,2.766 10.514,1.146 12.644,-1.232 l 0.509,-0.566 0.327,0.688 c 1.434,3.019 5.123,12.521 3.324,16.445 -0.402,0.88 -1.049,1.446 -1.921,1.686 -0.315,0.085 -26.614,6.513 -37.205,6.513 z m -3.361,-1.526 c 1.739,2.794 34.404,-4.347 40.298,-5.967 0.577,-0.158 0.992,-0.527 1.267,-1.13 1.416,-3.09 -1.307,-11.093 -3.021,-14.939 -2.723,2.381 -8.591,3.758 -13.332,0.927 -3.251,2.117 -24.657,16.707 -25.434,18.809 -0.278,0.754 -0.193,1.636 0.222,2.301 v 0 z"
   id="path58" />

		</g>

		<g
   id="XMLID_1994_">
			<g
   id="XMLID_1997_">
				<path
   style="fill:#fffffb"
   d="m 1812.706,529.761 c -1.016,0 -2.178,-0.327 -3.095,-0.761 -0.863,-0.407 -1.95,-1.111 -2.225,-2.148 -0.142,-0.541 0.18,-1.096 0.722,-1.239 0.54,-0.139 1.094,0.179 1.238,0.72 0.046,0.13 0.441,0.542 1.325,0.922 1.148,0.492 2.19,0.559 2.498,0.416 0.515,-0.233 1.111,-0.01 1.345,0.5 0.233,0.509 0.01,1.11 -0.499,1.344 -0.375,0.172 -0.826,0.246 -1.309,0.246 z"
   id="path59" />

			</g>

			<g
   id="XMLID_1996_">
				<path
   style="fill:#fffffb"
   d="m 1818.01,525.886 c -2.079,0 -4.115,-1.121 -5.228,-2.934 -0.293,-0.478 -0.144,-1.102 0.334,-1.395 0.476,-0.294 1.102,-0.143 1.395,0.334 0.818,1.333 2.439,2.136 3.965,1.936 0.558,-0.073 1.064,0.322 1.134,0.878 0.07,0.555 -0.322,1.063 -0.878,1.134 -0.241,0.031 -0.482,0.047 -0.722,0.047 z"
   id="path60" />

			</g>

			<g
   id="XMLID_1995_">
				<path
   style="fill:#fffffb"
   d="m 1822.686,522.132 c -1.87,0 -3.74,-0.725 -5.126,-2.014 -0.41,-0.381 -0.434,-1.022 -0.052,-1.433 0.38,-0.41 1.024,-0.434 1.433,-0.052 1.154,1.073 2.765,1.615 4.308,1.439 0.563,-0.06 1.058,0.339 1.12,0.896 0.061,0.557 -0.339,1.058 -0.896,1.12 -0.262,0.03 -0.525,0.044 -0.787,0.044 z"
   id="path61" />

			</g>

		</g>

	</g>

	<g
   id="XMLID_181_">
		<g
   id="XMLID_1992_">
			<path
   style="fill:#f2e8de"
   d="m 1829.813,532.284 c -1.439,-2.451 0.785,-4.565 3.102,-6.099 10.816,-7.159 23.109,-15.152 23.109,-15.152 4.686,3.175 11.076,1.767 13.523,-0.817 1.384,3.125 6.181,16.268 1.187,17.486 -2.871,0.7 -38.863,8.089 -40.921,4.582 z"
   id="path62" />

			<path
   style="fill:#fffffb"
   d="m 1834.452,533.675 c -2.721,0 -4.602,-0.325 -5.077,-1.134 -1.296,-2.208 -0.199,-4.489 3.26,-6.779 10.694,-7.077 22.989,-15.073 23.112,-15.153 l 0.282,-0.184 0.278,0.188 c 4.525,3.066 10.645,1.604 12.87,-0.746 l 0.523,-0.553 0.309,0.696 c 1.351,3.053 4.78,12.639 2.877,16.506 -0.439,0.892 -1.123,1.456 -2.034,1.678 -0.309,0.077 -25.312,5.481 -36.4,5.481 z m -4.202,-1.648 c 1.68,2.863 34.213,-3.319 40.362,-4.817 0.614,-0.15 1.061,-0.523 1.364,-1.141 1.516,-3.079 -0.955,-11.008 -2.613,-14.992 -2.782,2.302 -8.68,3.511 -13.341,0.561 -1.887,1.228 -13.03,8.484 -22.828,14.969 -3.01,1.993 -3.945,3.715 -2.944,5.42 z"
   id="path63" />

		</g>

		<g
   id="XMLID_1988_">
			<g
   id="XMLID_1991_">
				<path
   style="fill:#fffffb"
   d="m 1843.09,527.351 c -0.052,0 -0.104,-0.004 -0.157,-0.012 -1.18,-0.184 -4.768,-0.743 -5.02,-3.816 -0.045,-0.558 0.37,-1.047 0.929,-1.093 0.559,-0.04 1.047,0.371 1.093,0.929 0.056,0.688 0.483,1.536 3.311,1.977 0.553,0.086 0.932,0.604 0.846,1.158 -0.079,0.499 -0.511,0.857 -1.002,0.857 z"
   id="path64" />

			</g>

			<g
   id="XMLID_1990_">
				<path
   style="fill:#fffffb"
   d="m 1848.207,523.39 c -2.125,-0.091 -4.148,-1.238 -5.323,-2.996 -0.311,-0.465 -0.186,-1.095 0.279,-1.406 0.466,-0.313 1.096,-0.187 1.406,0.279 0.823,1.23 2.233,2.034 3.681,2.097 0.56,0.023 0.993,0.497 0.969,1.057 -0.024,0.543 -0.472,0.969 -1.012,0.969 z"
   id="path65" />

			</g>

			<g
   id="XMLID_1989_">
				<path
   style="fill:#fffffb"
   d="m 1852.542,519.837 c -1.685,0 -3.714,-1.106 -4.453,-2.129 -0.327,-0.454 -0.226,-1.088 0.229,-1.416 0.454,-0.326 1.088,-0.226 1.416,0.229 0.498,0.69 2.392,1.526 3.144,1.244 0.524,-0.198 1.108,0.068 1.305,0.594 0.196,0.524 -0.069,1.108 -0.594,1.305 -0.322,0.119 -0.676,0.173 -1.047,0.173 z"
   id="path66" />

			</g>

		</g>

	</g>

</g>
  </g>
</svg>
