<?xml version="1.0" encoding="UTF-8" standalone="no"?>
<!-- Created with Inkscape (http://www.inkscape.org/) -->

<svg
   width="17.143412mm"
   height="17.109545mm"
   viewBox="0 0 17.143413 17.109545"
   version="1.1"
   id="svg1"
   inkscape:version="1.4.2 (f4327f4, 2025-05-13)"
   sodipodi:docname="Arc de Triomphe-50.svg"
   xmlns:inkscape="http://www.inkscape.org/namespaces/inkscape"
   xmlns:sodipodi="http://sodipodi.sourceforge.net/DTD/sodipodi-0.dtd"
   xmlns="http://www.w3.org/2000/svg"
   xmlns:svg="http://www.w3.org/2000/svg">
  <sodipodi:namedview
     id="namedview1"
     pagecolor="#ffffff"
     bordercolor="#000000"
     borderopacity="0.25"
     inkscape:showpageshadow="2"
     inkscape:pageopacity="0.0"
     inkscape:pagecheckerboard="0"
     inkscape:deskcolor="#d1d1d1"
     inkscape:document-units="mm"
     inkscape:zoom="13.888656"
     inkscape:cx="35.136588"
     inkscape:cy="25.992435"
     inkscape:window-width="2880"
     inkscape:window-height="1676"
     inkscape:window-x="-12"
     inkscape:window-y="-12"
     inkscape:window-maximized="1"
     inkscape:current-layer="g30" />
  <defs
     id="defs1" />
  <g
     inkscape:label="图层 1"
     inkscape:groupmode="layer"
     id="layer1"
     transform="translate(-180.11097,-188.74514)">
    <g
       id="g30"
       transform="matrix(0.26458333,0,0,0.26458333,149.64621,130.62585)">
		
		
		
		
		
		
		
			
		
		
		
	<g
   id="g1778"
   transform="translate(-27.561602,-29.399555)">
	<g
   id="g1069">
		<g
   id="g1064">
			<g
   id="g1063">
				<g
   id="g1062">
					<g
   id="g1061">
						<rect
   x="163.54401"
   y="275.92801"
   style="fill:#e5d4d1"
   width="2.9159999"
   height="37.797001"
   id="rect1060" />

					</g>

				</g>

			</g>

		</g>

		<g
   id="g1068">
			<g
   id="g1067">
				<g
   id="g1066">
					<g
   id="g1065">
						<rect
   x="183.742"
   y="275.92801"
   style="fill:#e5d4d1"
   width="2.9159999"
   height="37.797001"
   id="rect1064" />

					</g>

				</g>

			</g>

		</g>

	</g>

	<g
   id="g1087">
		<g
   id="g1086">
			<g
   id="g1073">
				<g
   id="g1072">
					<g
   id="g1071">
						<g
   id="g1070">
							<path
   style="fill:#edd7d6"
   d="m 166.302,283.078 -6.708,-0.087 3.234,-17.461 25.411,0.767 2.301,16.696 -6.838,0.085 v -1.316 c 0,-4.797 -3.902,-8.699 -8.699,-8.699 -4.797,0 -8.699,3.902 -8.699,8.699 v 1.316 z m 8.699,-12.616 c 5.785,0 10.569,4.371 11.223,9.984 l 1.337,-0.016 -1.599,-11.601 -20.985,-0.633 -2.266,12.236 1.067,0.014 c 0.654,-5.614 5.438,-9.984 11.223,-9.984 z"
   id="path1069" />

						</g>

					</g>

				</g>

			</g>

			<g
   id="g1077">
				<g
   id="g1076">
					<g
   id="g1075">
						<g
   id="g1074">
							<path
   style="fill:#cea5a5"
   d="m 165.602,282.368 -5.169,-0.067 2.973,-16.054 24.219,0.731 2.112,15.325 -5.337,0.066 v -0.607 c 0,-5.183 -4.216,-9.399 -9.399,-9.399 -5.183,0 -9.399,4.216 -9.399,9.399 z m 9.399,-11.206 c 5.641,0 10.266,4.429 10.582,9.992 l 2.78,-0.034 -1.788,-12.973 -22.177,-0.669 -2.526,13.643 2.547,0.033 c 0.316,-5.563 4.942,-9.992 10.582,-9.992 z"
   id="path1073" />

						</g>

					</g>

				</g>

			</g>

			<g
   id="g1081">
				<g
   id="g1080">
					<g
   id="g1079">
						<g
   id="g1078">
							<path
   style="fill:#edd7d6"
   d="m 165.302,282.065 -4.509,-0.059 2.861,-15.452 23.709,0.715 2.031,14.737 -4.693,0.058 v -0.304 c 0,-5.348 -4.351,-9.699 -9.699,-9.699 -5.348,0 -9.699,4.351 -9.699,9.699 v 0.305 z m 9.699,-10.603 c 5.577,0 10.133,4.456 10.295,9.995 l 3.411,-0.042 -1.869,-13.561 -22.687,-0.685 -2.638,14.246 3.194,0.041 c 0.16,-5.538 4.717,-9.994 10.294,-9.994 z"
   id="path1077" />

						</g>

					</g>

				</g>

			</g>

			<g
   id="g1085">
				<g
   id="g1084">
					<g
   id="g1083">
						<g
   id="g1082">
							<path
   style="fill:#ccb2b0"
   d="m 187.1,267.562 1.95,14.149 -4.05,0.05 c 0,-5.522 -4.478,-9.999 -9.999,-9.999 -5.522,0 -9.999,4.478 -9.999,9.999 l -3.85,-0.05 2.75,-14.849 z"
   id="path1081" />

						</g>

					</g>

				</g>

			</g>

		</g>

	</g>

	<g
   id="g1265">
		<g
   id="g1251">
			<g
   id="g1206">
				<g
   id="g1117">
					<g
   id="g1091">
						<g
   id="g1090">
							<g
   id="g1089">
								<g
   id="g1088">
									<rect
   x="145.20799"
   y="267.862"
   style="fill:#f1e7e5"
   width="19.997999"
   height="45.862999"
   id="rect1087" />

								</g>

							</g>

						</g>

					</g>

					<g
   id="g1095">
						<g
   id="g1094">
							<g
   id="g1093">
								<g
   id="g1092">
									<rect
   x="145.108"
   y="284.461"
   style="fill:#e5d4d1"
   width="20.198"
   height="1.467"
   id="rect1091" />

								</g>

							</g>

						</g>

					</g>

					<g
   id="g1099">
						<g
   id="g1098">
							<g
   id="g1097">
								<g
   id="g1096">
									<rect
   x="144.175"
   y="283.061"
   style="fill:#ccaca8"
   width="22.065001"
   height="1.766"
   id="rect1095" />

								</g>

							</g>

						</g>

					</g>

					<g
   id="g1103">
						<g
   id="g1102">
							<g
   id="g1101">
								<g
   id="g1100">
									<rect
   x="144.341"
   y="283.26099"
   style="fill:#f9f3f2"
   width="21.731001"
   height="1.067"
   id="rect1099" />

								</g>

							</g>

						</g>

					</g>

					<g
   id="g1112">
						<g
   id="g1107">
							<g
   id="g1106">
								<g
   id="g1105">
									<g
   id="g1104">
										<rect
   x="145.108"
   y="305.07901"
   style="fill:#ccaca8"
   width="20.198"
   height="1.325"
   id="rect1103" />

									</g>

								</g>

							</g>

						</g>

						<g
   id="g1111">
							<g
   id="g1110">
								<g
   id="g1109">
									<g
   id="g1108">
										<rect
   x="145.108"
   y="305.229"
   style="fill:#f9f3f2"
   width="19.893"
   height="0.80000001"
   id="rect1107" />

									</g>

								</g>

							</g>

						</g>

					</g>

					<g
   id="g1116">
						<g
   id="g1115">
							<g
   id="g1114">
								<g
   id="g1113">
									<rect
   x="150.94099"
   y="288.85999"
   style="fill:#e5d4d1"
   width="8.5319996"
   height="15.199"
   id="rect1112" />

								</g>

							</g>

						</g>

					</g>

				</g>

				<g
   id="g1205">
					<g
   id="g1121">
						<g
   id="g1120">
							<g
   id="g1119">
								<g
   id="g1118">
									<rect
   x="184.996"
   y="267.862"
   style="fill:#f1e7e5"
   width="19.997999"
   height="45.862999"
   id="rect1117" />

								</g>

							</g>

						</g>

					</g>

					<g
   id="g1140">
						<g
   id="g1130">
							<g
   id="g1125">
								<g
   id="g1124">
									<g
   id="g1123">
										<g
   id="g1122">
											<rect
   x="187.996"
   y="271.961"
   style="fill:#d8beba"
   width="13.999"
   height="8.6009998"
   id="rect1121" />

										</g>

									</g>

								</g>

							</g>

							<g
   id="g1129">
								<g
   id="g1128">
									<g
   id="g1127">
										<g
   id="g1126">
											<path
   style="fill:#fff4f3"
   d="m 202.394,280.962 h -14.799 v -9.402 h 14.799 z m -13.998,-0.8 h 13.199 v -7.802 h -13.199 z"
   id="path1125" />

										</g>

									</g>

								</g>

							</g>

						</g>

						<g
   id="g1139">
							<g
   id="g1134">
								<g
   id="g1133">
									<g
   id="g1132">
										<g
   id="g1131">
											<rect
   x="189.19501"
   y="273.04501"
   style="fill:#e5d4d1"
   width="11.599"
   height="6.4320002"
   id="rect1130" />

										</g>

									</g>

								</g>

							</g>

							<g
   id="g1138">
								<g
   id="g1137">
									<g
   id="g1136">
										<g
   id="g1135">
											<path
   style="fill:#f7eeed"
   d="m 201.094,279.777 h -12.199 v -7.032 h 12.199 z m -11.598,-0.6 h 10.999 v -5.832 h -10.999 z"
   id="path1134" />

										</g>

									</g>

								</g>

							</g>

						</g>

					</g>

					<g
   id="g1153">
						<g
   id="g1144">
							<g
   id="g1143">
								<g
   id="g1142">
									<g
   id="g1141">
										<rect
   x="184.696"
   y="284.461"
   style="fill:#e5d4d1"
   width="20.198"
   height="1.467"
   id="rect1140" />

									</g>

								</g>

							</g>

						</g>

						<g
   id="g1148">
							<g
   id="g1147">
								<g
   id="g1146">
									<g
   id="g1145">
										<rect
   x="183.963"
   y="283.061"
   style="fill:#ccaca8"
   width="22.065001"
   height="1.766"
   id="rect1144" />

									</g>

								</g>

							</g>

						</g>

						<g
   id="g1152">
							<g
   id="g1151">
								<g
   id="g1150">
									<g
   id="g1149">
										<rect
   x="183.963"
   y="283.26099"
   style="fill:#f9f3f2"
   width="21.731001"
   height="1.067"
   id="rect1148" />

									</g>

								</g>

							</g>

						</g>

					</g>

					<g
   id="g1162">
						<g
   id="g1157">
							<g
   id="g1156">
								<g
   id="g1155">
									<g
   id="g1154">
										<rect
   x="184.896"
   y="305.07901"
   style="fill:#ccaca8"
   width="20.198"
   height="1.325"
   id="rect1153" />

									</g>

								</g>

							</g>

						</g>

						<g
   id="g1161">
							<g
   id="g1160">
								<g
   id="g1159">
									<g
   id="g1158">
										<rect
   x="184.896"
   y="305.229"
   style="fill:#f9f3f2"
   width="19.893"
   height="0.80000001"
   id="rect1157" />

									</g>

								</g>

							</g>

						</g>

					</g>

					<g
   id="g1175">
						<g
   id="g1166">
							<g
   id="g1165">
								<g
   id="g1164">
									<g
   id="g1163">
										<rect
   x="189.429"
   y="304.246"
   style="fill:#ccaca8"
   width="11.132"
   height="1.325"
   id="rect1162" />

									</g>

								</g>

							</g>

						</g>

						<g
   id="g1170">
							<g
   id="g1169">
								<g
   id="g1168">
									<g
   id="g1167">
										<rect
   x="189.429"
   y="304.396"
   style="fill:#f9f3f2"
   width="10.964"
   height="0.80000001"
   id="rect1166" />

									</g>

								</g>

							</g>

						</g>

						<g
   id="g1174">
							<g
   id="g1173">
								<g
   id="g1172">
									<g
   id="g1171">
										<rect
   x="189.429"
   y="305.53"
   style="fill:#f9f3f2"
   width="10.964"
   height="8.1990004"
   id="rect1170" />

									</g>

								</g>

							</g>

						</g>

					</g>

					<g
   id="g1204">
						<g
   id="g1179">
							<g
   id="g1178">
								<g
   id="g1177">
									<g
   id="g1176">
										<path
   style="fill:#e5d4d1"
   d="m 192.806,296.884 c 0,0 -0.205,-0.025 -0.205,0.205 0,0.23 0.143,0.28 0.093,0.33 -0.05,0.05 -0.224,0.236 -0.224,0.236 l 0.336,0.585 z"
   id="path1175" />

									</g>

								</g>

							</g>

						</g>

						<g
   id="g1183">
							<g
   id="g1182">
								<g
   id="g1181">
									<g
   id="g1180">
										<path
   style="fill:#ccb2b0"
   d="m 194.895,291.323 c -0.05,-0.075 -0.423,-0.995 -0.896,-1.244 -0.473,-0.249 -1.592,0.324 -1.941,1.194 -0.348,0.871 -0.622,2.836 -0.622,2.836 0,0 -1.169,1.866 -1.294,2.314 -0.124,0.448 0.149,1.592 0.174,1.717 0.025,0.124 -0.672,2.363 -0.672,2.363 l -0.498,0.896 0.348,0.647 c 0,0 -0.124,0.572 -0.199,0.746 -0.075,0.174 -0.299,0.149 0.025,0.746 0.323,0.597 1.393,0.746 1.393,0.746 h 4.279 z"
   id="path1179" />

									</g>

								</g>

							</g>

						</g>

						<g
   id="g1187">
							<g
   id="g1186">
								<g
   id="g1185">
									<g
   id="g1184">
										<path
   style="fill:#ccb2b0"
   d="m 195.095,291.323 c 0.05,-0.075 0.423,-0.995 0.896,-1.244 0.473,-0.249 1.592,0.324 1.941,1.194 0.348,0.871 0.622,2.836 0.622,2.836 0,0 1.169,1.866 1.294,2.314 0.124,0.448 -0.149,1.592 -0.174,1.717 -0.025,0.124 0.672,2.363 0.672,2.363 l 0.498,0.896 -0.348,0.647 c 0,0 0.124,0.572 0.199,0.746 0.075,0.174 0.299,0.149 -0.025,0.746 -0.323,0.597 -1.393,0.746 -1.393,0.746 h -4.279 z"
   id="path1183" />

									</g>

								</g>

							</g>

						</g>

						<g
   id="g1191">
							<g
   id="g1190">
								<g
   id="g1189">
									<g
   id="g1188">
										<path
   style="fill:#ddc7c5"
   d="m 194.796,290.477 c 0,0 -0.1,0.249 -0.373,0.448 -0.274,0.199 -0.547,0.896 -0.547,0.896 l -0.398,0.647 c 0,0 -0.846,0.522 -0.921,0.672 -0.075,0.149 -0.547,0.522 -0.398,0.622 0.149,0.1 0.299,0.299 0.423,0.149 0.124,-0.149 0.224,-0.473 0.224,-0.473 0,0 0.846,-0.547 0.921,-0.572 0.075,-0.025 0.622,-0.871 0.622,-0.871 0,0 0.224,0.348 0.05,0.846 -0.174,0.498 -0.473,1.145 -0.448,1.294 0.025,0.149 0.721,1.916 0.721,1.916 l 0.995,0.622 c 0,0 1.194,-1.841 0.796,-2.612 -0.398,-0.771 -0.473,-0.547 -0.473,-0.547 0,0 0.373,-0.298 0.373,-0.821 0,-0.523 -0.025,0 0.025,-0.672 0.05,-0.672 -0.075,-1.368 -0.597,-1.468 -0.522,-0.1 -0.249,-0.174 -0.249,-0.174 0,0 0.547,-0.697 0.05,-1.07 -0.497,-0.373 -0.224,-0.174 -0.224,-0.174 0,0 0.075,-0.473 -0.224,-0.498 -0.298,-0.025 -0.597,0.249 -0.398,0.423 0.199,0.174 0.05,0.174 0.05,0.174 0,0 -0.423,0.398 -0.423,0.672 0,0.272 0.423,0.571 0.423,0.571 z"
   id="path1187" />

									</g>

								</g>

							</g>

						</g>

						<g
   id="g1195">
							<g
   id="g1194">
								<g
   id="g1193">
									<g
   id="g1192">
										<path
   style="fill:#d6bcba"
   d="m 195.219,295.602 c 0,0 -1.343,-1.468 -2.164,-1.567 -0.821,-0.099 -1.742,0.348 -1.742,0.348 l -0.547,-0.05 0.398,0.647 c 0,0 0.1,0.722 0.174,0.821 0.075,0.099 0.299,1.219 0.448,1.219 0.149,0 0.572,-0.075 0.597,-0.299 0.025,-0.224 0,-0.622 0.025,-0.846 0.025,-0.224 0.124,-0.746 0.124,-0.746 0,0 0.199,0.473 0.199,0.946 0,0.473 -0.149,0.672 -0.149,0.672 0,0 -0.199,0.05 -0.199,0.423 0,0.373 0,0.373 0,0.373 0,0 -0.871,-0.771 -1.145,-0.721 -0.274,0.05 -0.398,0 -0.697,0.398 -0.299,0.398 -0.746,0.821 -0.746,0.821 0,0 -0.05,0.647 0.05,0.871 0.1,0.224 0.075,0.423 0.149,0.398 0.074,-0.025 0.647,-0.547 0.647,-0.547 0,0 -0.299,-0.075 -0.249,-0.373 0.05,-0.299 0.697,-0.921 0.697,-0.921 0,0 0.348,0.174 0.547,0.547 0.199,0.373 1.07,0.796 1.169,0.821 0.099,0.025 1.294,-0.721 1.294,-0.721 l 0.547,1.742 c 0,0 -1.194,-0.896 -1.965,-0.721 -0.771,0.174 -1.518,1.692 -1.468,2.811 0.05,1.12 0.025,1.219 0.274,1.368 0.249,0.149 -0.423,-0.324 -0.448,0.149 -0.025,0.473 0.075,0.896 0.224,0.896 0.149,0 3.707,0 3.707,0 z"
   id="path1191" />

									</g>

								</g>

							</g>

						</g>

						<g
   id="g1199">
							<g
   id="g1198">
								<g
   id="g1197">
									<g
   id="g1196">
										<path
   style="fill:#d6bcba"
   d="m 197.831,294.358 c 0,0 -0.473,-0.622 -0.398,-0.622 0.075,0 0.722,-0.149 0.995,0.025 0.274,0.174 0.572,0.373 0.572,0.1 0,-0.274 0.299,-0.05 0.299,-0.05 0,0 -0.1,-0.448 -0.398,-0.448 -0.299,0 -1.02,-0.274 -1.592,-0.224 -0.572,0.05 -0.572,0.05 -0.572,0.05 l 0.274,1.791 c 0,0 -0.572,0.05 -0.796,0.796 -0.224,0.746 -0.448,1.667 -0.448,1.667 l -0.348,2.438 c 0,0 1.144,2.314 1.219,2.836 0.075,0.522 0.149,1.617 0.323,1.543 0.174,-0.075 2.264,-0.323 2.264,-0.323 0,0 -0.373,-1.244 -0.149,-1.568 0.224,-0.323 0.448,0.522 0.448,0.522 0,0 0.075,0.721 0.224,0.572 0.149,-0.149 0.174,-1.592 0.174,-1.592 0,0 0.622,0.174 0.721,-0.199 0.1,-0.373 -1.144,-1.02 -1.144,-1.02 0,0 0.398,-0.721 -0.025,-1.269 -0.423,-0.547 -0.647,-1.07 -1.244,-1.12 -0.597,-0.05 -0.896,-0.199 -0.896,-0.199 l 0.249,-1.169 1.045,-0.473 c 0,0 0.323,0.423 0.448,0.796 0.124,0.373 1.02,1.12 1.02,1.12 0,0 0.025,0.547 0.124,0.523 0.099,-0.024 0.746,-0.423 0.473,-0.622 -0.273,-0.199 -0.398,-0.174 -0.448,-0.274 -0.05,-0.099 -1.02,-2.214 -1.244,-2.488 -0.224,-0.274 0.622,0.348 0.597,-0.124 -0.025,-0.473 -0.124,-1.07 -1.02,-0.995 -0.896,0.075 -0.423,0.274 -0.423,0.274 z"
   id="path1195" />

									</g>

								</g>

							</g>

						</g>

						<g
   id="g1203">
							<g
   id="g1202">
								<g
   id="g1201">
									<g
   id="g1200">
										<path
   style="fill:#e5d4d1"
   d="m 195.524,295.105 c 0,0 -0.485,0.019 -0.541,0.411 -0.056,0.392 0.037,0.429 -0.037,0.578 -0.075,0.149 -0.112,0.243 -0.037,0.261 0.075,0.019 0.168,0.037 0.168,0.131 0,0.094 -0.168,0.224 0.019,0.224 0.187,0 0.355,0 0.355,0 0,0 0.112,0.205 -0.149,0.205 -0.261,0 -0.896,-0.149 -1.082,0.149 -0.187,0.299 -0.616,1.4 -0.616,1.4 0,0 -0.541,0.373 -0.728,0.634 -0.187,0.261 -0.616,0.709 -0.616,0.709 l 0.019,0.355 -0.634,0.97 0.093,0.69 0.56,-0.765 c 0,0 0.187,-0.858 0.224,-0.914 0.037,-0.056 0.392,-0.187 0.392,-0.187 l -0.019,-0.354 c 0,0 0.84,-0.467 1.026,-0.709 0.187,-0.243 0.522,-0.877 0.522,-0.877 0,0 0.056,0.821 0.019,1.064 -0.037,0.243 -0.299,0.896 -0.504,1.101 -0.205,0.205 -1.399,2.5 -1.399,2.5 0,0 -0.672,0.952 -0.858,1.082 -0.187,0.131 -0.896,0.355 -0.896,0.355 l -0.093,0.243 1.754,-0.056 -0.056,-0.336 c 0,0 1.176,-1.064 1.213,-1.474 0.037,-0.41 0.093,-0.504 0.093,-0.504 l 1.381,-1.605 c 0,0 0.616,0.989 0.69,1.138 0.075,0.149 0.28,0.448 0.242,0.858 -0.037,0.411 -0.093,0.373 0.075,0.858 0.168,0.485 0.299,0.952 0.205,1.082 -0.093,0.131 0.933,0.019 0.933,0.019 l -0.429,-0.392 c 0,0 0.205,-0.821 -0.019,-1.474 -0.133,-0.389 -0.227,-0.871 -0.281,-1.197 -0.037,-0.221 -0.049,-0.277 -0.055,-0.37 -0.056,-0.97 -0.355,-1.623 -0.317,-1.698 0.037,-0.075 0.373,-0.765 0.373,-0.765 0,0 0.299,2.183 0.261,2.239 -0.037,0.056 -0.112,0.41 -0.112,0.41 0,0 0.056,0.485 0.205,0.429 0.149,-0.056 0.373,-0.746 0.317,-0.821 -0.056,-0.075 -0.131,-1.288 -0.112,-1.381 0.019,-0.093 -0.112,-0.224 -0.112,-0.224 0,0 0.112,-1.511 -0.037,-1.661 -0.149,-0.149 -0.84,-0.448 -0.896,-0.578 -0.056,-0.131 0.019,-0.429 0.019,-0.429 0,0 0.467,-0.448 0.261,-0.896 -0.206,-0.447 -0.672,-0.428 -0.784,-0.428 z"
   id="path1199" />

									</g>

								</g>

							</g>

						</g>

					</g>

				</g>

			</g>

			<g
   id="g1225">
				<g
   id="g1215">
					<g
   id="g1210">
						<g
   id="g1209">
							<g
   id="g1208">
								<g
   id="g1207">
									<rect
   x="147.935"
   y="271.961"
   style="fill:#d8beba"
   width="13.999"
   height="8.6009998"
   id="rect1206" />

								</g>

							</g>

						</g>

					</g>

					<g
   id="g1214">
						<g
   id="g1213">
							<g
   id="g1212">
								<g
   id="g1211">
									<path
   style="fill:#fff4f3"
   d="m 162.334,280.962 h -14.799 v -9.402 h 14.799 z m -13.999,-0.8 h 13.199 v -7.802 h -13.199 z"
   id="path1210" />

								</g>

							</g>

						</g>

					</g>

				</g>

				<g
   id="g1224">
					<g
   id="g1219">
						<g
   id="g1218">
							<g
   id="g1217">
								<g
   id="g1216">
									<rect
   x="149.13499"
   y="273.04501"
   style="fill:#e5d4d1"
   width="11.599"
   height="6.4320002"
   id="rect1215" />

								</g>

							</g>

						</g>

					</g>

					<g
   id="g1223">
						<g
   id="g1222">
							<g
   id="g1221">
								<g
   id="g1220">
									<path
   style="fill:#f7eeed"
   d="m 161.034,279.777 h -12.199 v -7.032 h 12.199 z m -11.599,-0.6 h 10.999 v -5.832 h -10.999 z"
   id="path1219" />

								</g>

							</g>

						</g>

					</g>

				</g>

			</g>

			<g
   id="g1250">
				<g
   id="g1229">
					<g
   id="g1228">
						<g
   id="g1227">
							<g
   id="g1226">
								<path
   style="fill:#ccb2b0"
   d="m 153.943,292.633 c 0,0 -0.548,-2.091 -1.136,-2.091 -0.587,0 -1.292,0.349 -1.958,2.266 -0.666,1.917 -1.214,3.442 -1.567,4.88 -0.353,1.438 -0.627,4.095 0.078,5.577 0.705,1.481 1.292,1.176 1.292,1.176 h 3.682 v -11.589 z"
   id="path1225" />

							</g>

						</g>

					</g>

				</g>

				<g
   id="g1233">
					<g
   id="g1232">
						<g
   id="g1231">
							<g
   id="g1230">
								<path
   style="fill:#ccb2b0"
   d="m 154.726,292.633 c 0,0 0.548,-2.091 1.136,-2.091 0.587,0 1.293,0.349 1.958,2.266 0.666,1.917 1.214,3.442 1.567,4.88 0.353,1.438 0.627,4.095 -0.078,5.577 -0.705,1.481 -1.292,1.176 -1.292,1.176 h -3.682 v -11.589 z"
   id="path1229" />

							</g>

						</g>

					</g>

				</g>

				<g
   id="g1237">
					<g
   id="g1236">
						<g
   id="g1235">
							<g
   id="g1234">
								<path
   style="fill:#d6bcba"
   d="m 152.102,295.487 c 0,0 -0.352,0.152 -0.352,0.436 0,0.284 0.176,0.61 0.176,0.61 0,0 -0.822,0.457 -0.725,0.784 0.098,0.327 0.255,1.176 0.255,1.176 0,0 -1.156,1.503 -0.901,2.287 0.255,0.784 -0.294,0.915 -0.352,1.264 -0.059,0.348 0.705,2.287 0.705,2.287 l 3.506,-0.131 -0.039,-8.278 c -0.001,0 -0.354,-1.917 -2.273,-0.435 z"
   id="path1233" />

							</g>

						</g>

					</g>

				</g>

				<g
   id="g1241">
					<g
   id="g1240">
						<g
   id="g1239">
							<g
   id="g1238">
								<path
   style="fill:#d6bcba"
   d="m 156.293,295.138 c 0,0 0.509,-0.545 0.842,-0.37 0.333,0.174 0.294,-0.109 0.352,-0.283 0.059,-0.174 0.294,-0.327 0.294,-0.327 0,0 -0.118,0.24 -0.078,0.523 0.04,0.283 0.176,0.479 0.431,0.588 0.255,0.109 0.294,0.043 0.372,-0.152 0.078,-0.196 0.176,0.261 -0.098,0.545 -0.274,0.283 -0.157,0.741 -0.157,0.741 0,0 -0.274,0.501 -0.255,0.893 0.02,0.392 -0.255,0.283 -0.509,0.131 -0.255,-0.153 -0.372,-0.436 -0.372,-0.436 0,0 -0.431,0.762 -0.274,1.067 0.157,0.305 0.94,0.131 1.018,0.131 0.078,0 1.547,1.002 1.547,1.285 0,0.283 -0.078,0.719 -0.078,0.719 l -0.529,-0.261 0.039,-0.37 c 0,0 -0.744,-0.893 -0.999,-0.806 -0.255,0.087 -0.666,0.654 -0.666,0.654 0,0 -0.313,1.852 0.118,1.721 0.431,-0.131 0.627,-0.806 1.018,-0.545 0.392,0.261 0.157,1.263 0.098,1.852 -0.059,0.588 0.313,0.697 0.411,0.762 0.098,0.065 1.253,1.242 -1.547,1.155 -2.801,-0.087 -3.192,-0.196 -3.192,-0.196 l 0.059,-6.252 z"
   id="path1237" />

							</g>

						</g>

					</g>

				</g>

				<g
   id="g1245">
					<g
   id="g1244">
						<g
   id="g1243">
							<g
   id="g1242">
								<path
   style="fill:#ddc7c5"
   d="m 153.767,290.215 c -0.003,0.09 0.196,0.545 0.235,0.654 0.039,0.109 -0.078,0.348 -0.078,0.348 0,0 -0.49,0.152 -0.666,0.458 -0.176,0.305 -0.411,1.394 -0.666,1.786 -0.255,0.392 -0.823,1.111 -1.018,1.155 -0.196,0.044 -0.333,0.392 -0.274,0.523 0.059,0.131 0.176,0.327 0.176,0.327 0,0 0.059,-0.501 0.353,-0.61 0.294,-0.109 1.214,-0.98 1.469,-1.481 0.255,-0.501 0.333,0.37 0.157,0.806 -0.176,0.436 -0.607,1.089 -0.568,1.852 0.039,0.762 0.235,1.939 1.195,3.072 0.96,1.133 2.938,-0.893 2.546,-3.028 -0.392,-2.135 -0.333,-2.658 -0.333,-2.658 l 1.469,0.152 c 0,0 0.509,0.022 0.568,-0.131 0.059,-0.152 -0.02,-0.436 -0.02,-0.436 l 0.098,-0.109 c 0,0 -0.157,-0.196 -0.353,0 -0.196,0.196 -0.313,0.261 -0.313,0.261 0,0 -1.528,-1.481 -1.821,-1.699 -0.294,-0.218 -1.058,-0.37 -1.058,-0.37 l -0.078,-0.414 c 0,0 0.353,-0.327 0.196,-0.741 -0.157,-0.414 -0.235,-0.545 -0.235,-0.545 0,0 0.49,-0.545 0.157,-0.632 -0.333,-0.087 -0.96,-0.24 -0.94,-0.022 0.02,0.218 0.274,0.501 0.215,0.61 -0.061,0.109 -0.394,0.153 -0.413,0.872 z"
   id="path1241" />

							</g>

						</g>

					</g>

				</g>

				<g
   id="g1249">
					<g
   id="g1248">
						<g
   id="g1247">
							<g
   id="g1246">
								<path
   style="fill:#e5d4d1"
   d="m 154.394,296.685 c 0,0 -0.823,-0.196 -0.92,0.131 -0.098,0.327 -0.568,1.503 -0.353,1.677 0.215,0.174 0.822,0.196 0.842,0.283 0.02,0.087 -0.352,1.873 -0.49,2.287 -0.137,0.414 -0.705,2.854 -0.705,2.854 0,0 -0.725,0.152 -0.725,0.283 0,0.131 -0.118,0.24 0.02,0.174 0.137,-0.065 1.175,0 1.175,0 0,0 0.157,-0.763 0.47,-1.242 0.313,-0.479 0.235,-0.741 0.255,-0.893 0.02,-0.152 0.96,-2.178 0.96,-2.178 0,0 0.059,1.46 -0.098,1.961 -0.157,0.501 -0.059,1.786 -0.176,2.026 -0.118,0.24 -0.157,0.109 -0.118,0.24 0.039,0.131 0.039,0.087 0.039,0.087 h 0.96 c 0,0 -0.157,-0.349 -0.274,-0.37 -0.118,-0.022 0.255,-0.959 0.196,-1.503 -0.059,-0.545 0.157,-0.806 0.196,-1.046 0.039,-0.24 0.196,-1.982 0.196,-1.982 0,0 0.294,0.653 0.157,0.893 -0.137,0.24 -0.157,0.37 -0.157,0.37 0,0 0.196,0.218 0.353,0.043 0.157,-0.174 0.098,-1.133 0.098,-1.263 0,-0.13 -0.137,-2.309 -0.47,-2.57 -0.333,-0.261 -0.568,-0.283 -0.568,-0.283 l -0.078,-0.24 c 0,0 0.078,0.044 0.117,-0.218 0.039,-0.261 0.313,-1.046 -0.372,-1.089 -0.685,-0.044 -0.627,0.37 -0.568,0.675 0.059,0.305 0.157,0.61 0.157,0.61 z"
   id="path1245" />

							</g>

						</g>

					</g>

				</g>

			</g>

		</g>

		<g
   id="g1264">
			<g
   id="g1255">
				<g
   id="g1254">
					<g
   id="g1253">
						<g
   id="g1252">
							<rect
   x="149.702"
   y="304.246"
   style="fill:#ccaca8"
   width="11.132"
   height="1.325"
   id="rect1251" />

						</g>

					</g>

				</g>

			</g>

			<g
   id="g1259">
				<g
   id="g1258">
					<g
   id="g1257">
						<g
   id="g1256">
							<rect
   x="149.702"
   y="304.396"
   style="fill:#f9f3f2"
   width="10.964"
   height="0.80000001"
   id="rect1255" />

						</g>

					</g>

				</g>

			</g>

			<g
   id="g1263">
				<g
   id="g1262">
					<g
   id="g1261">
						<g
   id="g1260">
							<rect
   x="149.702"
   y="305.53"
   style="fill:#f9f3f2"
   width="10.964"
   height="8.1990004"
   id="rect1259" />

						</g>

					</g>

				</g>

			</g>

		</g>

	</g>

	<g
   id="g1398">
		<g
   id="g1270">
			<g
   id="g1269">
				<g
   id="g1268">
					<g
   id="g1267">
						<g
   id="g1266">
							<path
   style="fill:#d6bcb9"
   d="m 202.448,253.662 c -0.545,0.038 -0.574,-0.799 -1.121,-0.799 -0.546,0 -0.546,0.8 -1.093,0.8 -0.546,0 -0.546,-0.8 -1.093,-0.8 -0.546,0 -0.546,0.8 -1.093,0.8 -0.546,0 -0.546,-0.8 -1.093,-0.8 -0.546,0 -0.546,0.8 -1.093,0.8 -0.547,0 -0.547,-0.8 -1.093,-0.8 -0.546,0 -0.546,0.8 -1.093,0.8 -0.546,0 -0.546,-0.8 -1.093,-0.8 -0.547,0 -0.546,0.8 -1.093,0.8 -0.546,0 -0.546,-0.8 -1.093,-0.8 -0.547,0 -0.546,0.8 -1.093,0.8 -0.546,0 -0.546,-0.8 -1.093,-0.8 -0.546,0 -0.546,0.8 -1.092,0.8 -0.546,0 -0.546,-0.8 -1.092,-0.8 -0.546,0 -0.546,0.8 -1.093,0.8 -0.547,0 -0.546,-0.8 -1.093,-0.8 -0.546,0 -0.546,0.8 -1.092,0.8 -0.546,0 -0.546,-0.8 -1.092,-0.8 -0.546,0 -0.546,0.8 -1.092,0.8 -0.547,0 -0.547,-0.8 -1.093,-0.8 -0.546,0 -0.546,0.8 -1.092,0.8 -0.546,0 -0.546,-0.8 -1.092,-0.8 -0.546,0 -0.546,0.8 -1.093,0.8 -0.547,0 -0.547,-0.8 -1.093,-0.8 -0.546,0 -0.546,0.8 -1.092,0.8 -0.546,0 -0.546,-0.8 -1.093,-0.8 -0.547,0 -0.547,0.8 -1.093,0.8 -0.546,0 -0.546,-0.8 -1.093,-0.8 -0.547,0 -0.547,0.8 -1.093,0.8 -0.546,0 -0.546,-0.8 -1.093,-0.8 -0.547,0 -0.547,0.8 -1.093,0.8 -0.546,0 -0.547,-0.8 -1.093,-0.8 -0.547,0 -0.547,0.8 -1.094,0.8 -0.547,0 -0.547,-0.8 -1.093,-0.8 -0.547,0 -0.547,0.8 -1.093,0.8 -0.547,0 -0.547,-0.8 -1.094,-0.8 -0.547,0 -0.547,0.8 -1.094,0.8 -0.547,0 -0.547,-0.8 -1.094,-0.8 -0.547,0 -0.547,0.8 -1.093,0.8 -0.546,0 -0.546,-0.8 -1.093,-0.8 -0.547,0 -0.547,0.8 -1.093,0.8 -0.547,0 -0.547,-0.8 -1.094,-0.8 -0.547,0 -0.547,0.8 -1.094,0.8 -0.547,0 -0.547,-0.8 -1.094,-0.8 -0.547,0 -0.547,0.8 -1.094,0.8 -0.547,0 -0.547,-0.8 -1.093,-0.8 -0.547,0 -0.547,0.8 -1.094,0.8 -0.548,0 -0.548,-0.8 -1.095,-0.8 -0.548,0 -0.576,0.836 -1.122,0.799 -0.037,-0.002 -0.039,-4.528 -0.001,-4.531 0.545,-0.038 0.574,0.799 1.121,0.799 0.546,0 0.546,-0.8 1.093,-0.8 0.547,0 0.547,0.8 1.093,0.8 0.546,0 0.546,-0.8 1.093,-0.8 0.546,0 0.546,0.8 1.093,0.8 0.546,0 0.546,-0.8 1.093,-0.8 0.547,0 0.547,0.8 1.093,0.8 0.546,0 0.546,-0.8 1.093,-0.8 0.546,0 0.546,0.8 1.093,0.8 0.547,0 0.546,-0.8 1.093,-0.8 0.546,0 0.546,0.8 1.093,0.8 0.546,0 0.546,-0.8 1.093,-0.8 0.546,0 0.546,0.8 1.093,0.8 0.546,0 0.546,-0.8 1.092,-0.8 0.546,0 0.546,0.8 1.092,0.8 0.546,0 0.546,-0.8 1.093,-0.8 0.546,0 0.546,0.8 1.093,0.8 0.546,0 0.546,-0.8 1.092,-0.8 0.546,0 0.546,0.8 1.092,0.8 0.546,0 0.546,-0.8 1.092,-0.8 0.547,0 0.547,0.8 1.093,0.8 0.546,0 0.546,-0.8 1.092,-0.8 0.546,0 0.546,0.8 1.092,0.8 0.546,0 0.546,-0.8 1.093,-0.8 0.547,0 0.547,0.8 1.093,0.8 0.546,0 0.546,-0.8 1.093,-0.8 0.546,0 0.546,0.8 1.093,0.8 0.547,0 0.547,-0.8 1.093,-0.8 0.546,0 0.546,0.8 1.093,0.8 0.547,0 0.547,-0.8 1.093,-0.8 0.546,0 0.546,0.8 1.093,0.8 0.547,0 0.547,-0.8 1.093,-0.8 0.546,0 0.547,0.8 1.093,0.8 0.547,0 0.547,-0.8 1.094,-0.8 0.546,0 0.546,0.8 1.093,0.8 0.547,0 0.547,-0.8 1.094,-0.8 0.547,0 0.547,0.8 1.094,0.8 0.547,0 0.547,-0.8 1.093,-0.8 0.547,0 0.547,0.8 1.094,0.8 0.547,0 0.547,-0.8 1.093,-0.8 0.546,0 0.546,0.8 1.093,0.8 0.547,0 0.547,-0.8 1.093,-0.8 0.547,0 0.547,0.8 1.094,0.8 0.547,0 0.547,-0.8 1.094,-0.8 0.547,0 0.547,0.8 1.094,0.8 0.547,0 0.547,-0.8 1.094,-0.8 0.547,0 0.547,0.8 1.093,0.8 0.547,0 0.547,-0.8 1.094,-0.8 0.548,0 0.548,0.8 1.095,0.8 0.548,0 0.576,-0.836 1.122,-0.799 0.036,0.003 0.038,4.529 0,4.531 z"
   id="path1265" />

						</g>

					</g>

				</g>

			</g>

		</g>

		<g
   id="g1397">
			<g
   id="g1279">
				<g
   id="g1274">
					<g
   id="g1273">
						<g
   id="g1272">
							<g
   id="g1271">
								<rect
   x="147.205"
   y="249.26401"
   style="fill:#f1e7e5"
   width="1.023"
   height="3.2"
   id="rect1270" />

							</g>

						</g>

					</g>

				</g>

				<g
   id="g1278">
					<g
   id="g1277">
						<g
   id="g1276">
							<g
   id="g1275">
								<path
   style="fill:#c49a97"
   d="m 148.428,252.663 h -1.423 v -3.6 h 1.423 z m -1.023,-0.4 h 0.623 v -2.8 h -0.623 z"
   id="path1274" />

							</g>

						</g>

					</g>

				</g>

			</g>

			<g
   id="g1288">
				<g
   id="g1283">
					<g
   id="g1282">
						<g
   id="g1281">
							<g
   id="g1280">
								<rect
   x="151.418"
   y="249.26401"
   style="fill:#f1e7e5"
   width="1.023"
   height="3.2"
   id="rect1279" />

							</g>

						</g>

					</g>

				</g>

				<g
   id="g1287">
					<g
   id="g1286">
						<g
   id="g1285">
							<g
   id="g1284">
								<path
   style="fill:#c49a97"
   d="m 152.641,252.663 h -1.423 v -3.6 h 1.423 z m -1.023,-0.4 h 0.623 v -2.8 h -0.623 z"
   id="path1283" />

							</g>

						</g>

					</g>

				</g>

			</g>

			<g
   id="g1297">
				<g
   id="g1292">
					<g
   id="g1291">
						<g
   id="g1290">
							<g
   id="g1289">
								<rect
   x="155.631"
   y="249.26401"
   style="fill:#f1e7e5"
   width="1.023"
   height="3.2"
   id="rect1288" />

							</g>

						</g>

					</g>

				</g>

				<g
   id="g1296">
					<g
   id="g1295">
						<g
   id="g1294">
							<g
   id="g1293">
								<path
   style="fill:#c49a97"
   d="m 156.854,252.663 h -1.423 v -3.6 h 1.423 z m -1.023,-0.4 h 0.623 v -2.8 h -0.623 z"
   id="path1292" />

							</g>

						</g>

					</g>

				</g>

			</g>

			<g
   id="g1306">
				<g
   id="g1301">
					<g
   id="g1300">
						<g
   id="g1299">
							<g
   id="g1298">
								<rect
   x="159.84399"
   y="249.26401"
   style="fill:#f1e7e5"
   width="1.023"
   height="3.2"
   id="rect1297" />

							</g>

						</g>

					</g>

				</g>

				<g
   id="g1305">
					<g
   id="g1304">
						<g
   id="g1303">
							<g
   id="g1302">
								<path
   style="fill:#c49a97"
   d="m 161.067,252.663 h -1.423 v -3.6 h 1.423 z m -1.023,-0.4 h 0.623 v -2.8 h -0.623 z"
   id="path1301" />

							</g>

						</g>

					</g>

				</g>

			</g>

			<g
   id="g1315">
				<g
   id="g1310">
					<g
   id="g1309">
						<g
   id="g1308">
							<g
   id="g1307">
								<rect
   x="164.05701"
   y="249.26401"
   style="fill:#f1e7e5"
   width="1.023"
   height="3.2"
   id="rect1306" />

							</g>

						</g>

					</g>

				</g>

				<g
   id="g1314">
					<g
   id="g1313">
						<g
   id="g1312">
							<g
   id="g1311">
								<path
   style="fill:#c49a97"
   d="m 165.28,252.663 h -1.423 v -3.6 h 1.423 z m -1.023,-0.4 h 0.623 v -2.8 h -0.623 z"
   id="path1310" />

							</g>

						</g>

					</g>

				</g>

			</g>

			<g
   id="g1324">
				<g
   id="g1319">
					<g
   id="g1318">
						<g
   id="g1317">
							<g
   id="g1316">
								<rect
   x="168.27"
   y="249.26401"
   style="fill:#f1e7e5"
   width="1.023"
   height="3.2"
   id="rect1315" />

							</g>

						</g>

					</g>

				</g>

				<g
   id="g1323">
					<g
   id="g1322">
						<g
   id="g1321">
							<g
   id="g1320">
								<path
   style="fill:#c49a97"
   d="m 169.493,252.663 h -1.423 v -3.6 h 1.423 z m -1.023,-0.4 h 0.623 v -2.8 h -0.623 z"
   id="path1319" />

							</g>

						</g>

					</g>

				</g>

			</g>

			<g
   id="g1333">
				<g
   id="g1328">
					<g
   id="g1327">
						<g
   id="g1326">
							<g
   id="g1325">
								<rect
   x="172.483"
   y="249.26401"
   style="fill:#f1e7e5"
   width="1.023"
   height="3.2"
   id="rect1324" />

							</g>

						</g>

					</g>

				</g>

				<g
   id="g1332">
					<g
   id="g1331">
						<g
   id="g1330">
							<g
   id="g1329">
								<path
   style="fill:#c49a97"
   d="m 173.706,252.663 h -1.423 v -3.6 h 1.423 z m -1.023,-0.4 h 0.623 v -2.8 h -0.623 z"
   id="path1328" />

							</g>

						</g>

					</g>

				</g>

			</g>

			<g
   id="g1342">
				<g
   id="g1337">
					<g
   id="g1336">
						<g
   id="g1335">
							<g
   id="g1334">
								<rect
   x="176.696"
   y="249.26401"
   style="fill:#f1e7e5"
   width="1.023"
   height="3.2"
   id="rect1333" />

							</g>

						</g>

					</g>

				</g>

				<g
   id="g1341">
					<g
   id="g1340">
						<g
   id="g1339">
							<g
   id="g1338">
								<path
   style="fill:#c49a97"
   d="m 177.919,252.663 h -1.423 v -3.6 h 1.423 z m -1.023,-0.4 h 0.623 v -2.8 h -0.623 z"
   id="path1337" />

							</g>

						</g>

					</g>

				</g>

			</g>

			<g
   id="g1351">
				<g
   id="g1346">
					<g
   id="g1345">
						<g
   id="g1344">
							<g
   id="g1343">
								<rect
   x="180.909"
   y="249.26401"
   style="fill:#f1e7e5"
   width="1.023"
   height="3.2"
   id="rect1342" />

							</g>

						</g>

					</g>

				</g>

				<g
   id="g1350">
					<g
   id="g1349">
						<g
   id="g1348">
							<g
   id="g1347">
								<path
   style="fill:#c49a97"
   d="m 182.132,252.663 h -1.423 v -3.6 h 1.423 z m -1.023,-0.4 h 0.623 v -2.8 h -0.623 z"
   id="path1346" />

							</g>

						</g>

					</g>

				</g>

			</g>

			<g
   id="g1360">
				<g
   id="g1355">
					<g
   id="g1354">
						<g
   id="g1353">
							<g
   id="g1352">
								<rect
   x="185.12199"
   y="249.26401"
   style="fill:#f1e7e5"
   width="1.023"
   height="3.2"
   id="rect1351" />

							</g>

						</g>

					</g>

				</g>

				<g
   id="g1359">
					<g
   id="g1358">
						<g
   id="g1357">
							<g
   id="g1356">
								<path
   style="fill:#c49a97"
   d="m 186.345,252.663 h -1.423 v -3.6 h 1.423 z m -1.023,-0.4 h 0.623 v -2.8 h -0.623 z"
   id="path1355" />

							</g>

						</g>

					</g>

				</g>

			</g>

			<g
   id="g1369">
				<g
   id="g1364">
					<g
   id="g1363">
						<g
   id="g1362">
							<g
   id="g1361">
								<rect
   x="189.33501"
   y="249.26401"
   style="fill:#f1e7e5"
   width="1.023"
   height="3.2"
   id="rect1360" />

							</g>

						</g>

					</g>

				</g>

				<g
   id="g1368">
					<g
   id="g1367">
						<g
   id="g1366">
							<g
   id="g1365">
								<path
   style="fill:#c49a97"
   d="m 190.558,252.663 h -1.423 v -3.6 h 1.423 z m -1.023,-0.4 h 0.623 v -2.8 h -0.623 z"
   id="path1364" />

							</g>

						</g>

					</g>

				</g>

			</g>

			<g
   id="g1378">
				<g
   id="g1373">
					<g
   id="g1372">
						<g
   id="g1371">
							<g
   id="g1370">
								<rect
   x="193.548"
   y="249.26401"
   style="fill:#f1e7e5"
   width="1.023"
   height="3.2"
   id="rect1369" />

							</g>

						</g>

					</g>

				</g>

				<g
   id="g1377">
					<g
   id="g1376">
						<g
   id="g1375">
							<g
   id="g1374">
								<path
   style="fill:#c49a97"
   d="m 194.771,252.663 h -1.423 v -3.6 h 1.423 z m -1.023,-0.4 h 0.623 v -2.8 h -0.623 z"
   id="path1373" />

							</g>

						</g>

					</g>

				</g>

			</g>

			<g
   id="g1387">
				<g
   id="g1382">
					<g
   id="g1381">
						<g
   id="g1380">
							<g
   id="g1379">
								<rect
   x="197.761"
   y="249.26401"
   style="fill:#f1e7e5"
   width="1.023"
   height="3.2"
   id="rect1378" />

							</g>

						</g>

					</g>

				</g>

				<g
   id="g1386">
					<g
   id="g1385">
						<g
   id="g1384">
							<g
   id="g1383">
								<path
   style="fill:#c49a97"
   d="m 198.984,252.663 h -1.423 v -3.6 h 1.423 z m -1.023,-0.4 h 0.623 v -2.8 h -0.623 z"
   id="path1382" />

							</g>

						</g>

					</g>

				</g>

			</g>

			<g
   id="g1396">
				<g
   id="g1391">
					<g
   id="g1390">
						<g
   id="g1389">
							<g
   id="g1388">
								<rect
   x="201.974"
   y="249.26401"
   style="fill:#f1e7e5"
   width="1.023"
   height="3.2"
   id="rect1387" />

							</g>

						</g>

					</g>

				</g>

				<g
   id="g1395">
					<g
   id="g1394">
						<g
   id="g1393">
							<g
   id="g1392">
								<path
   style="fill:#c49a97"
   d="m 203.197,252.663 h -1.423 v -3.6 h 1.423 z m -1.023,-0.4 h 0.623 v -2.8 h -0.623 z"
   id="path1391" />

							</g>

						</g>

					</g>

				</g>

			</g>

		</g>

	</g>

	<g
   id="g1402">
		<g
   id="g1401">
			<g
   id="g1400">
				<g
   id="g1399">
					<rect
   x="145.104"
   y="263.396"
   style="fill:#d6bcb9"
   width="59.994999"
   height="4.4660001"
   id="rect1398" />

				</g>

			</g>

		</g>

	</g>

	<g
   id="g1406">
		<g
   id="g1405">
			<g
   id="g1404">
				<g
   id="g1403">
					<path
   style="fill:#e5d4d1"
   d="m 205.132,267.629 c -0.214,0 -0.273,-0.421 -0.398,-2.092 -0.049,-0.66 -0.114,-1.532 -0.199,-1.829 -0.084,0.297 -0.149,1.169 -0.199,1.829 -0.125,1.671 -0.185,2.092 -0.398,2.092 -0.206,0 -0.265,-0.313 -0.398,-2.092 -0.049,-0.659 -0.114,-1.53 -0.198,-1.828 -0.084,0.298 -0.149,1.169 -0.198,1.828 -0.132,1.779 -0.192,2.092 -0.398,2.092 -0.206,0 -0.265,-0.313 -0.398,-2.093 -0.049,-0.659 -0.114,-1.53 -0.198,-1.828 -0.084,0.298 -0.149,1.169 -0.198,1.828 -0.132,1.779 -0.192,2.092 -0.397,2.092 -0.206,0 -0.265,-0.313 -0.398,-2.092 -0.049,-0.659 -0.114,-1.53 -0.198,-1.828 -0.084,0.298 -0.149,1.169 -0.198,1.828 -0.132,1.78 -0.192,2.092 -0.398,2.092 -0.206,0 -0.265,-0.313 -0.398,-2.092 -0.049,-0.659 -0.114,-1.53 -0.198,-1.828 -0.084,0.298 -0.149,1.168 -0.198,1.828 -0.132,1.78 -0.192,2.092 -0.397,2.092 -0.205,0 -0.265,-0.313 -0.397,-2.092 -0.049,-0.659 -0.114,-1.53 -0.198,-1.828 -0.084,0.298 -0.149,1.168 -0.198,1.828 -0.133,1.78 -0.192,2.092 -0.397,2.092 -0.206,0 -0.265,-0.313 -0.397,-2.093 -0.049,-0.659 -0.114,-1.529 -0.198,-1.827 -0.084,0.298 -0.149,1.169 -0.198,1.828 -0.132,1.779 -0.192,2.092 -0.397,2.092 -0.205,0 -0.265,-0.313 -0.397,-2.092 -0.049,-0.659 -0.114,-1.53 -0.198,-1.828 -0.084,0.298 -0.149,1.169 -0.198,1.828 -0.132,1.78 -0.192,2.092 -0.397,2.092 -0.205,0 -0.265,-0.313 -0.397,-2.092 -0.049,-0.659 -0.113,-1.529 -0.197,-1.827 -0.084,0.299 -0.149,1.168 -0.198,1.827 -0.132,1.78 -0.192,2.092 -0.397,2.092 -0.205,0 -0.265,-0.313 -0.397,-2.092 -0.049,-0.659 -0.114,-1.529 -0.198,-1.828 -0.084,0.298 -0.149,1.169 -0.198,1.828 -0.132,1.78 -0.192,2.092 -0.397,2.092 -0.206,0 -0.265,-0.313 -0.397,-2.093 -0.049,-0.659 -0.114,-1.529 -0.198,-1.827 -0.084,0.298 -0.149,1.169 -0.198,1.828 -0.132,1.779 -0.192,2.092 -0.397,2.092 -0.206,0 -0.265,-0.313 -0.397,-2.092 -0.049,-0.659 -0.114,-1.53 -0.198,-1.828 -0.084,0.298 -0.149,1.168 -0.198,1.827 -0.132,1.78 -0.192,2.093 -0.397,2.093 -0.205,0 -0.265,-0.313 -0.397,-2.093 -0.049,-0.659 -0.114,-1.529 -0.198,-1.827 -0.084,0.298 -0.149,1.169 -0.198,1.828 -0.132,1.779 -0.192,2.092 -0.397,2.092 -0.205,0 -0.265,-0.313 -0.397,-2.092 -0.049,-0.659 -0.114,-1.529 -0.198,-1.828 -0.084,0.298 -0.149,1.169 -0.198,1.828 -0.132,1.779 -0.192,2.092 -0.397,2.092 -0.206,0 -0.265,-0.313 -0.397,-2.092 -0.049,-0.659 -0.114,-1.529 -0.198,-1.828 -0.084,0.298 -0.149,1.169 -0.198,1.828 -0.132,1.779 -0.192,2.092 -0.397,2.092 -0.205,0 -0.265,-0.313 -0.397,-2.092 -0.049,-0.659 -0.114,-1.529 -0.198,-1.827 -0.084,0.298 -0.149,1.168 -0.198,1.828 -0.132,1.779 -0.192,2.092 -0.397,2.092 -0.205,0 -0.265,-0.313 -0.397,-2.092 -0.049,-0.659 -0.114,-1.529 -0.198,-1.828 -0.084,0.299 -0.149,1.169 -0.198,1.828 -0.132,1.779 -0.192,2.092 -0.397,2.092 -0.205,0 -0.265,-0.313 -0.397,-2.092 -0.049,-0.659 -0.114,-1.529 -0.198,-1.828 -0.084,0.299 -0.149,1.169 -0.198,1.828 -0.132,1.78 -0.192,2.092 -0.397,2.092 -0.205,0 -0.265,-0.313 -0.397,-2.092 -0.049,-0.659 -0.114,-1.529 -0.198,-1.827 -0.084,0.299 -0.148,1.168 -0.197,1.827 -0.132,1.779 -0.192,2.092 -0.397,2.092 -0.205,0 -0.265,-0.313 -0.397,-2.092 -0.049,-0.659 -0.114,-1.529 -0.198,-1.827 -0.084,0.298 -0.149,1.168 -0.198,1.827 -0.132,1.78 -0.192,2.093 -0.397,2.093 -0.205,0 -0.265,-0.313 -0.397,-2.092 -0.049,-0.659 -0.114,-1.529 -0.198,-1.827 -0.084,0.299 -0.148,1.168 -0.198,1.827 -0.132,1.78 -0.192,2.092 -0.397,2.092 -0.205,0 -0.265,-0.313 -0.397,-2.092 -0.049,-0.659 -0.114,-1.528 -0.197,-1.827 -0.084,0.299 -0.148,1.168 -0.197,1.827 -0.132,1.78 -0.191,2.092 -0.397,2.092 -0.205,0 -0.265,-0.313 -0.397,-2.093 -0.049,-0.659 -0.114,-1.528 -0.197,-1.827 -0.084,0.299 -0.149,1.169 -0.198,1.827 -0.132,1.779 -0.192,2.092 -0.397,2.092 -0.205,0 -0.265,-0.313 -0.397,-2.092 -0.049,-0.659 -0.114,-1.529 -0.198,-1.828 -0.084,0.299 -0.149,1.169 -0.198,1.827 -0.132,1.78 -0.192,2.093 -0.397,2.093 -0.205,0 -0.265,-0.313 -0.397,-2.092 -0.049,-0.659 -0.114,-1.529 -0.197,-1.827 -0.084,0.299 -0.148,1.168 -0.197,1.827 -0.132,1.78 -0.191,2.093 -0.397,2.093 -0.205,0 -0.265,-0.313 -0.397,-2.092 -0.049,-0.659 -0.113,-1.528 -0.197,-1.827 -0.084,0.299 -0.148,1.168 -0.197,1.827 -0.132,1.78 -0.191,2.093 -0.397,2.093 -0.205,0 -0.264,-0.313 -0.397,-2.093 -0.049,-0.659 -0.113,-1.528 -0.197,-1.827 -0.084,0.299 -0.148,1.168 -0.197,1.827 -0.132,1.78 -0.191,2.092 -0.397,2.092 -0.205,0 -0.265,-0.313 -0.397,-2.092 -0.049,-0.659 -0.114,-1.528 -0.197,-1.827 -0.084,0.299 -0.148,1.168 -0.197,1.827 -0.132,1.78 -0.192,2.092 -0.397,2.092 -0.205,0 -0.265,-0.313 -0.397,-2.092 -0.049,-0.659 -0.114,-1.529 -0.198,-1.827 -0.084,0.299 -0.149,1.168 -0.198,1.827 -0.132,1.78 -0.192,2.093 -0.397,2.093 -0.205,0 -0.265,-0.313 -0.397,-2.092 -0.049,-0.659 -0.114,-1.528 -0.198,-1.827 -0.084,0.299 -0.148,1.168 -0.197,1.827 -0.132,1.78 -0.192,2.093 -0.397,2.093 -0.205,0 -0.264,-0.313 -0.396,-2.092 -0.049,-0.659 -0.113,-1.527 -0.197,-1.827 -0.084,0.299 -0.148,1.168 -0.197,1.827 -0.132,1.78 -0.191,2.092 -0.396,2.092 -0.205,0 -0.264,-0.313 -0.396,-2.092 -0.049,-0.658 -0.113,-1.527 -0.197,-1.827 -0.084,0.299 -0.148,1.168 -0.197,1.827 -0.132,1.779 -0.191,2.092 -0.396,2.092 -0.205,0 -0.265,-0.313 -0.397,-2.092 -0.049,-0.659 -0.114,-1.529 -0.198,-1.828 -0.084,0.299 -0.149,1.169 -0.198,1.828 -0.132,1.779 -0.192,2.092 -0.397,2.092 -0.205,0 -0.265,-0.313 -0.397,-2.092 -0.049,-0.659 -0.113,-1.528 -0.197,-1.827 -0.084,0.299 -0.148,1.168 -0.197,1.827 -0.132,1.78 -0.191,2.093 -0.397,2.093 -0.205,0 -0.265,-0.313 -0.397,-2.092 -0.049,-0.659 -0.114,-1.529 -0.198,-1.827 -0.084,0.299 -0.149,1.168 -0.198,1.827 -0.132,1.78 -0.192,2.092 -0.397,2.092 -0.206,0 -0.265,-0.313 -0.397,-2.093 -0.049,-0.659 -0.114,-1.529 -0.198,-1.827 -0.084,0.299 -0.148,1.168 -0.198,1.827 -0.132,1.78 -0.191,2.093 -0.397,2.093 -0.205,0 -0.265,-0.313 -0.397,-2.092 -0.049,-0.659 -0.114,-1.529 -0.198,-1.827 -0.084,0.299 -0.149,1.168 -0.197,1.827 -0.132,1.78 -0.192,2.093 -0.397,2.093 -0.205,0 -0.265,-0.313 -0.397,-2.092 -0.049,-0.659 -0.114,-1.528 -0.197,-1.827 -0.084,0.299 -0.149,1.168 -0.197,1.827 -0.132,1.78 -0.192,2.093 -0.397,2.093 -0.205,0 -0.265,-0.313 -0.397,-2.093 -0.049,-0.659 -0.113,-1.528 -0.197,-1.827 -0.084,0.299 -0.149,1.168 -0.198,1.827 -0.132,1.779 -0.192,2.092 -0.397,2.092 -0.205,0 -0.265,-0.313 -0.397,-2.093 -0.049,-0.659 -0.114,-1.529 -0.198,-1.827 -0.084,0.299 -0.148,1.168 -0.198,1.827 -0.132,1.78 -0.192,2.093 -0.397,2.093 -0.205,0 -0.265,-0.313 -0.397,-2.093 -0.049,-0.659 -0.113,-1.528 -0.197,-1.827 -0.084,0.299 -0.149,1.168 -0.198,1.827 -0.132,1.779 -0.191,2.092 -0.397,2.092 -0.205,0 -0.265,-0.313 -0.397,-2.092 -0.049,-0.659 -0.114,-1.528 -0.198,-1.827 -0.084,0.299 -0.148,1.168 -0.197,1.827 -0.132,1.78 -0.191,2.093 -0.397,2.093 -0.205,0 -0.265,-0.313 -0.397,-2.092 -0.049,-0.659 -0.114,-1.528 -0.197,-1.827 -0.084,0.299 -0.149,1.168 -0.198,1.827 -0.132,1.78 -0.191,2.092 -0.397,2.092 -0.205,0 -0.265,-0.313 -0.397,-2.093 -0.049,-0.659 -0.113,-1.528 -0.197,-1.827 -0.084,0.299 -0.149,1.168 -0.198,1.827 -0.132,1.779 -0.191,2.092 -0.397,2.092 -0.205,0 -0.265,-0.313 -0.397,-2.092 -0.049,-0.659 -0.114,-1.529 -0.198,-1.827 -0.084,0.299 -0.148,1.168 -0.198,1.827 -0.132,1.78 -0.192,2.093 -0.397,2.093 -0.205,0 -0.265,-0.313 -0.397,-2.092 -0.049,-0.659 -0.113,-1.529 -0.197,-1.827 -0.084,0.299 -0.148,1.168 -0.197,1.827 -0.132,1.78 -0.192,2.092 -0.397,2.092 -0.205,0 -0.265,-0.313 -0.397,-2.092 -0.049,-0.659 -0.114,-1.528 -0.197,-1.827 -0.084,0.299 -0.148,1.168 -0.197,1.827 -0.132,1.78 -0.191,2.092 -0.397,2.092 -0.205,0 -0.265,-0.313 -0.397,-2.092 -0.049,-0.659 -0.114,-1.528 -0.197,-1.827 -0.084,0.299 -0.148,1.168 -0.197,1.827 -0.132,1.78 -0.191,2.092 -0.397,2.092 -0.205,0 -0.265,-0.313 -0.397,-2.092 -0.049,-0.659 -0.114,-1.529 -0.197,-1.827 -0.084,0.299 -0.149,1.168 -0.197,1.827 -0.132,1.78 -0.191,2.092 -0.397,2.092 -0.205,0 -0.265,-0.313 -0.397,-2.092 -0.049,-0.659 -0.113,-1.529 -0.197,-1.827 -0.084,0.299 -0.149,1.168 -0.198,1.827 -0.132,1.779 -0.192,2.092 -0.397,2.092 -0.205,0 -0.265,-0.313 -0.397,-2.092 -0.057,-0.761 -0.134,-1.802 -0.238,-1.922 0.003,0.004 0.018,0.015 0.04,0.015 v -0.2 c 0.205,0 0.265,0.313 0.397,2.092 0.049,0.659 0.114,1.529 0.198,1.827 0.084,-0.299 0.148,-1.168 0.198,-1.827 0.132,-1.78 0.192,-2.093 0.397,-2.093 0.205,0 0.265,0.313 0.397,2.092 0.049,0.659 0.114,1.528 0.197,1.827 0.084,-0.299 0.148,-1.168 0.197,-1.827 0.132,-1.78 0.191,-2.092 0.397,-2.092 0.205,0 0.265,0.313 0.397,2.093 0.049,0.659 0.113,1.528 0.197,1.827 0.084,-0.299 0.148,-1.168 0.197,-1.827 0.132,-1.78 0.191,-2.092 0.397,-2.092 0.205,0 0.265,0.313 0.397,2.093 0.049,0.659 0.113,1.528 0.197,1.827 0.084,-0.299 0.148,-1.168 0.197,-1.827 0.132,-1.78 0.191,-2.092 0.397,-2.092 0.205,0 0.265,0.313 0.397,2.093 0.049,0.659 0.114,1.528 0.197,1.827 0.084,-0.299 0.148,-1.168 0.197,-1.827 0.132,-1.78 0.191,-2.092 0.397,-2.092 0.205,0 0.265,0.313 0.397,2.093 0.049,0.659 0.114,1.528 0.197,1.827 0.084,-0.299 0.149,-1.168 0.198,-1.827 0.132,-1.779 0.192,-2.092 0.397,-2.092 0.205,0 0.265,0.313 0.397,2.092 0.049,0.659 0.114,1.529 0.198,1.827 0.084,-0.299 0.148,-1.168 0.197,-1.827 0.132,-1.78 0.192,-2.093 0.397,-2.093 0.205,0 0.265,0.313 0.397,2.092 0.049,0.659 0.114,1.529 0.198,1.827 0.084,-0.299 0.148,-1.168 0.197,-1.827 0.132,-1.78 0.191,-2.092 0.397,-2.092 0.205,0 0.265,0.313 0.397,2.092 0.049,0.659 0.114,1.528 0.197,1.827 0.084,-0.299 0.149,-1.169 0.197,-1.827 0.132,-1.779 0.191,-2.092 0.397,-2.092 0.205,0 0.265,0.313 0.397,2.092 0.049,0.659 0.113,1.528 0.197,1.827 0.084,-0.299 0.148,-1.168 0.197,-1.827 0.132,-1.78 0.192,-2.093 0.397,-2.093 0.205,0 0.265,0.313 0.397,2.092 0.049,0.659 0.114,1.529 0.198,1.828 0.084,-0.299 0.149,-1.169 0.198,-1.828 0.132,-1.779 0.192,-2.092 0.397,-2.092 0.205,0 0.265,0.313 0.397,2.092 0.049,0.659 0.114,1.529 0.198,1.828 0.084,-0.299 0.148,-1.168 0.198,-1.827 0.132,-1.78 0.192,-2.093 0.397,-2.093 0.205,0 0.265,0.313 0.397,2.092 0.049,0.659 0.114,1.529 0.198,1.827 0.084,-0.299 0.148,-1.168 0.197,-1.827 0.132,-1.779 0.192,-2.092 0.397,-2.092 0.205,0 0.265,0.313 0.397,2.092 0.049,0.659 0.114,1.528 0.197,1.827 0.084,-0.299 0.149,-1.168 0.198,-1.827 0.132,-1.779 0.192,-2.092 0.397,-2.092 0.205,0 0.265,0.313 0.397,2.093 0.049,0.659 0.114,1.528 0.197,1.827 0.084,-0.299 0.149,-1.168 0.198,-1.827 0.132,-1.779 0.192,-2.092 0.397,-2.092 0.205,0 0.265,0.313 0.397,2.092 0.049,0.659 0.114,1.529 0.198,1.828 0.084,-0.298 0.149,-1.168 0.198,-1.827 0.132,-1.78 0.192,-2.092 0.397,-2.092 0.205,0 0.265,0.313 0.397,2.092 0.049,0.659 0.113,1.529 0.197,1.827 0.084,-0.299 0.149,-1.168 0.198,-1.827 0.132,-1.779 0.192,-2.092 0.397,-2.092 0.205,0 0.265,0.313 0.397,2.092 0.049,0.659 0.114,1.528 0.198,1.827 0.084,-0.299 0.148,-1.168 0.197,-1.827 0.132,-1.78 0.192,-2.093 0.397,-2.093 0.205,0 0.265,0.313 0.397,2.093 0.049,0.659 0.114,1.528 0.197,1.827 0.084,-0.299 0.148,-1.168 0.197,-1.827 0.132,-1.78 0.191,-2.093 0.396,-2.093 0.205,0 0.264,0.313 0.396,2.092 0.049,0.658 0.113,1.527 0.197,1.827 0.084,-0.299 0.148,-1.168 0.197,-1.827 0.132,-1.78 0.191,-2.092 0.396,-2.092 0.205,0 0.265,0.313 0.397,2.092 0.049,0.659 0.113,1.528 0.197,1.827 0.084,-0.299 0.148,-1.169 0.197,-1.827 0.132,-1.779 0.191,-2.092 0.397,-2.092 0.205,0 0.265,0.313 0.397,2.092 0.049,0.659 0.114,1.529 0.198,1.827 0.084,-0.299 0.149,-1.169 0.198,-1.828 0.132,-1.779 0.192,-2.092 0.397,-2.092 0.205,0 0.265,0.313 0.397,2.092 0.049,0.659 0.114,1.529 0.198,1.827 0.084,-0.299 0.148,-1.168 0.197,-1.827 0.132,-1.78 0.191,-2.092 0.397,-2.092 0.205,0 0.265,0.313 0.397,2.092 0.049,0.659 0.113,1.528 0.197,1.827 0.084,-0.299 0.148,-1.168 0.197,-1.827 0.132,-1.78 0.191,-2.092 0.397,-2.092 0.206,0 0.265,0.313 0.397,2.092 0.049,0.659 0.113,1.528 0.197,1.827 0.084,-0.299 0.148,-1.169 0.197,-1.827 0.132,-1.779 0.191,-2.092 0.397,-2.092 0.205,0 0.265,0.313 0.397,2.093 0.049,0.659 0.113,1.528 0.197,1.827 0.084,-0.299 0.148,-1.168 0.197,-1.827 0.132,-1.779 0.191,-2.092 0.397,-2.092 0.205,0 0.265,0.313 0.397,2.093 0.049,0.659 0.114,1.529 0.198,1.827 0.084,-0.298 0.149,-1.169 0.198,-1.828 0.132,-1.779 0.192,-2.092 0.397,-2.092 0.206,0 0.265,0.313 0.397,2.093 0.049,0.659 0.114,1.528 0.198,1.827 0.084,-0.299 0.148,-1.168 0.198,-1.827 0.132,-1.78 0.191,-2.093 0.397,-2.093 0.205,0 0.265,0.313 0.397,2.092 0.049,0.659 0.114,1.528 0.197,1.827 0.084,-0.299 0.148,-1.168 0.197,-1.827 0.132,-1.78 0.191,-2.092 0.397,-2.092 0.206,0 0.265,0.313 0.397,2.092 0.049,0.659 0.114,1.528 0.197,1.827 0.084,-0.299 0.149,-1.168 0.198,-1.827 0.132,-1.78 0.192,-2.092 0.397,-2.092 0.205,0 0.265,0.313 0.397,2.092 0.049,0.659 0.114,1.529 0.198,1.828 0.084,-0.298 0.149,-1.169 0.198,-1.828 0.132,-1.779 0.192,-2.092 0.397,-2.092 0.205,0 0.265,0.313 0.397,2.092 0.049,0.659 0.114,1.529 0.198,1.827 0.084,-0.299 0.149,-1.168 0.197,-1.827 0.132,-1.78 0.192,-2.093 0.397,-2.093 0.205,0 0.265,0.313 0.397,2.092 0.049,0.659 0.114,1.529 0.197,1.827 0.084,-0.299 0.149,-1.168 0.198,-1.827 0.132,-1.78 0.192,-2.092 0.397,-2.092 0.205,0 0.265,0.313 0.397,2.092 0.049,0.659 0.114,1.529 0.198,1.828 0.084,-0.298 0.149,-1.168 0.198,-1.827 0.132,-1.78 0.192,-2.093 0.397,-2.093 0.205,0 0.265,0.313 0.397,2.092 0.049,0.659 0.114,1.529 0.198,1.827 0.084,-0.299 0.148,-1.168 0.197,-1.827 0.132,-1.78 0.192,-2.093 0.397,-2.093 0.205,0 0.265,0.313 0.397,2.092 0.049,0.659 0.114,1.529 0.198,1.828 0.084,-0.298 0.149,-1.168 0.198,-1.827 0.132,-1.78 0.192,-2.093 0.397,-2.093 0.205,0 0.265,0.313 0.397,2.092 0.049,0.659 0.114,1.529 0.198,1.827 0.084,-0.298 0.149,-1.168 0.198,-1.827 0.132,-1.78 0.192,-2.093 0.397,-2.093 0.206,0 0.265,0.313 0.397,2.092 0.049,0.659 0.114,1.529 0.198,1.828 0.084,-0.298 0.149,-1.168 0.198,-1.827 0.132,-1.78 0.192,-2.093 0.397,-2.093 0.205,0 0.265,0.313 0.397,2.092 0.049,0.659 0.114,1.53 0.198,1.828 0.084,-0.298 0.149,-1.169 0.198,-1.828 0.132,-1.779 0.192,-2.092 0.397,-2.092 0.206,0 0.265,0.313 0.397,2.093 0.049,0.659 0.114,1.529 0.198,1.827 0.084,-0.298 0.149,-1.168 0.198,-1.827 0.132,-1.78 0.192,-2.093 0.397,-2.093 0.206,0 0.265,0.313 0.397,2.092 0.049,0.659 0.114,1.53 0.198,1.828 0.084,-0.298 0.149,-1.169 0.198,-1.828 0.132,-1.78 0.192,-2.092 0.397,-2.092 0.205,0 0.265,0.313 0.397,2.092 0.049,0.659 0.114,1.529 0.198,1.828 0.084,-0.298 0.149,-1.168 0.198,-1.828 0.132,-1.78 0.192,-2.092 0.397,-2.092 0.205,0 0.265,0.313 0.397,2.092 0.049,0.659 0.114,1.529 0.197,1.827 0.084,-0.299 0.149,-1.168 0.198,-1.827 0.132,-1.78 0.192,-2.092 0.397,-2.092 0.206,0 0.265,0.313 0.398,2.093 0.049,0.659 0.114,1.529 0.198,1.827 0.084,-0.298 0.149,-1.168 0.198,-1.827 0.132,-1.78 0.192,-2.093 0.397,-2.093 0.205,0 0.265,0.313 0.397,2.092 0.049,0.659 0.114,1.53 0.198,1.828 0.084,-0.298 0.149,-1.169 0.198,-1.828 0.132,-1.78 0.192,-2.092 0.397,-2.092 0.205,0 0.265,0.313 0.398,2.092 0.049,0.659 0.114,1.53 0.198,1.828 0.084,-0.298 0.149,-1.168 0.198,-1.828 0.132,-1.78 0.192,-2.092 0.397,-2.092 0.206,0 0.265,0.313 0.397,2.093 0.049,0.659 0.114,1.53 0.198,1.828 0.084,-0.298 0.149,-1.169 0.198,-1.828 0.133,-1.78 0.192,-2.092 0.398,-2.092 0.206,0 0.265,0.313 0.398,2.092 0.049,0.659 0.114,1.53 0.198,1.828 0.084,-0.298 0.149,-1.168 0.198,-1.828 0.132,-1.78 0.192,-2.093 0.397,-2.093 0.206,0 0.265,0.313 0.397,2.092 0.049,0.66 0.114,1.53 0.198,1.828 0.084,-0.298 0.149,-1.169 0.198,-1.828 0.133,-1.78 0.192,-2.093 0.398,-2.093 0.206,0 0.265,0.313 0.398,2.092 0.049,0.66 0.114,1.531 0.198,1.828 0.084,-0.297 0.149,-1.168 0.199,-1.828 0.125,-1.672 0.185,-2.093 0.398,-2.093 0.214,0 0.273,0.421 0.398,2.092 0.057,0.761 0.134,1.802 0.239,1.922 -0.003,-0.004 -0.018,-0.015 -0.04,-0.015 v 0.198 z"
   id="path1402" />

				</g>

			</g>

		</g>

	</g>

	<g
   id="g1410">
		<g
   id="g1409">
			<g
   id="g1408">
				<g
   id="g1407">
					<rect
   x="142.70399"
   y="262.629"
   style="fill:#f1e7e5"
   width="64.793999"
   height="1.533"
   id="rect1406" />

				</g>

			</g>

		</g>

	</g>

	<g
   id="g1414">
		<g
   id="g1413">
			<g
   id="g1412">
				<g
   id="g1411">
					<rect
   x="142.70399"
   y="259.99399"
   style="fill:#e5d4d1"
   width="64.793999"
   height="2.8039999"
   id="rect1410" />

				</g>

			</g>

		</g>

	</g>

	<g
   id="g1418">
		<g
   id="g1417">
			<g
   id="g1416">
				<g
   id="g1415">
					<rect
   x="145.237"
   y="252.63"
   style="fill:#f1e7e5"
   width="59.728001"
   height="1.533"
   id="rect1414" />

				</g>

			</g>

		</g>

	</g>

	<g
   id="g1422">
		<g
   id="g1421">
			<g
   id="g1420">
				<g
   id="g1419">
					<rect
   x="145.237"
   y="251.563"
   style="fill:#ccaca8"
   width="59.728001"
   height="1.533"
   id="rect1418" />

				</g>

			</g>

		</g>

	</g>

	<g
   id="g1426">
		<g
   id="g1425">
			<g
   id="g1424">
				<g
   id="g1423">
					<rect
   x="144.237"
   y="251.755"
   style="fill:#f1e7e5"
   width="61.728001"
   height="0.48300001"
   id="rect1422" />

				</g>

			</g>

		</g>

	</g>

	<g
   id="g1638">
		<g
   id="g1430">
			<g
   id="g1429">
				<g
   id="g1428">
					<g
   id="g1427">
						<rect
   x="146.019"
   y="253.728"
   style="fill:#e5d4d1"
   width="57.862"
   height="6.4039998"
   id="rect1426" />

					</g>

				</g>

			</g>

		</g>

		<g
   id="g1439">
			<g
   id="g1434">
				<g
   id="g1433">
					<g
   id="g1432">
						<g
   id="g1431">
							<rect
   x="145.80701"
   y="254.16299"
   style="fill:#d6bcb9"
   width="1.528"
   height="5.7989998"
   id="rect1430" />

						</g>

					</g>

				</g>

			</g>

			<g
   id="g1438">
				<g
   id="g1437">
					<g
   id="g1436">
						<g
   id="g1435">
							<rect
   x="145.993"
   y="254.16299"
   style="fill:#f9f3f2"
   width="1.158"
   height="5.7989998"
   id="rect1434" />

						</g>

					</g>

				</g>

			</g>

		</g>

		<g
   id="g1448">
			<g
   id="g1443">
				<g
   id="g1442">
					<g
   id="g1441">
						<g
   id="g1440">
							<rect
   x="151.005"
   y="254.16299"
   style="fill:#d6bcb9"
   width="1.528"
   height="5.7989998"
   id="rect1439" />

						</g>

					</g>

				</g>

			</g>

			<g
   id="g1447">
				<g
   id="g1446">
					<g
   id="g1445">
						<g
   id="g1444">
							<rect
   x="151.19"
   y="254.16299"
   style="fill:#f9f3f2"
   width="1.158"
   height="5.7989998"
   id="rect1443" />

						</g>

					</g>

				</g>

			</g>

		</g>

		<g
   id="g1457">
			<g
   id="g1452">
				<g
   id="g1451">
					<g
   id="g1450">
						<g
   id="g1449">
							<rect
   x="156.203"
   y="254.16299"
   style="fill:#d6bcb9"
   width="1.528"
   height="5.7989998"
   id="rect1448" />

						</g>

					</g>

				</g>

			</g>

			<g
   id="g1456">
				<g
   id="g1455">
					<g
   id="g1454">
						<g
   id="g1453">
							<rect
   x="156.388"
   y="254.16299"
   style="fill:#f9f3f2"
   width="1.158"
   height="5.7989998"
   id="rect1452" />

						</g>

					</g>

				</g>

			</g>

		</g>

		<g
   id="g1466">
			<g
   id="g1461">
				<g
   id="g1460">
					<g
   id="g1459">
						<g
   id="g1458">
							<rect
   x="161.401"
   y="254.16299"
   style="fill:#d6bcb9"
   width="1.528"
   height="5.7989998"
   id="rect1457" />

						</g>

					</g>

				</g>

			</g>

			<g
   id="g1465">
				<g
   id="g1464">
					<g
   id="g1463">
						<g
   id="g1462">
							<rect
   x="161.586"
   y="254.16299"
   style="fill:#f9f3f2"
   width="1.158"
   height="5.7989998"
   id="rect1461" />

						</g>

					</g>

				</g>

			</g>

		</g>

		<g
   id="g1475">
			<g
   id="g1470">
				<g
   id="g1469">
					<g
   id="g1468">
						<g
   id="g1467">
							<rect
   x="166.599"
   y="254.16299"
   style="fill:#d6bcb9"
   width="1.528"
   height="5.7989998"
   id="rect1466" />

						</g>

					</g>

				</g>

			</g>

			<g
   id="g1474">
				<g
   id="g1473">
					<g
   id="g1472">
						<g
   id="g1471">
							<rect
   x="166.784"
   y="254.16299"
   style="fill:#f9f3f2"
   width="1.158"
   height="5.7989998"
   id="rect1470" />

						</g>

					</g>

				</g>

			</g>

		</g>

		<g
   id="g1484">
			<g
   id="g1479">
				<g
   id="g1478">
					<g
   id="g1477">
						<g
   id="g1476">
							<rect
   x="171.797"
   y="254.16299"
   style="fill:#d6bcb9"
   width="1.528"
   height="5.7989998"
   id="rect1475" />

						</g>

					</g>

				</g>

			</g>

			<g
   id="g1483">
				<g
   id="g1482">
					<g
   id="g1481">
						<g
   id="g1480">
							<rect
   x="171.98199"
   y="254.16299"
   style="fill:#f9f3f2"
   width="1.158"
   height="5.7989998"
   id="rect1479" />

						</g>

					</g>

				</g>

			</g>

		</g>

		<g
   id="g1493">
			<g
   id="g1488">
				<g
   id="g1487">
					<g
   id="g1486">
						<g
   id="g1485">
							<rect
   x="176.995"
   y="254.16299"
   style="fill:#d6bcb9"
   width="1.528"
   height="5.7989998"
   id="rect1484" />

						</g>

					</g>

				</g>

			</g>

			<g
   id="g1492">
				<g
   id="g1491">
					<g
   id="g1490">
						<g
   id="g1489">
							<rect
   x="177.17999"
   y="254.16299"
   style="fill:#f9f3f2"
   width="1.158"
   height="5.7989998"
   id="rect1488" />

						</g>

					</g>

				</g>

			</g>

		</g>

		<g
   id="g1502">
			<g
   id="g1497">
				<g
   id="g1496">
					<g
   id="g1495">
						<g
   id="g1494">
							<rect
   x="182.19299"
   y="254.16299"
   style="fill:#d6bcb9"
   width="1.528"
   height="5.7989998"
   id="rect1493" />

						</g>

					</g>

				</g>

			</g>

			<g
   id="g1501">
				<g
   id="g1500">
					<g
   id="g1499">
						<g
   id="g1498">
							<rect
   x="182.37801"
   y="254.16299"
   style="fill:#f9f3f2"
   width="1.158"
   height="5.7989998"
   id="rect1497" />

						</g>

					</g>

				</g>

			</g>

		</g>

		<g
   id="g1511">
			<g
   id="g1506">
				<g
   id="g1505">
					<g
   id="g1504">
						<g
   id="g1503">
							<rect
   x="187.39101"
   y="254.16299"
   style="fill:#d6bcb9"
   width="1.528"
   height="5.7989998"
   id="rect1502" />

						</g>

					</g>

				</g>

			</g>

			<g
   id="g1510">
				<g
   id="g1509">
					<g
   id="g1508">
						<g
   id="g1507">
							<rect
   x="187.576"
   y="254.16299"
   style="fill:#f9f3f2"
   width="1.158"
   height="5.7989998"
   id="rect1506" />

						</g>

					</g>

				</g>

			</g>

		</g>

		<g
   id="g1520">
			<g
   id="g1515">
				<g
   id="g1514">
					<g
   id="g1513">
						<g
   id="g1512">
							<rect
   x="192.589"
   y="254.16299"
   style="fill:#d6bcb9"
   width="1.528"
   height="5.7989998"
   id="rect1511" />

						</g>

					</g>

				</g>

			</g>

			<g
   id="g1519">
				<g
   id="g1518">
					<g
   id="g1517">
						<g
   id="g1516">
							<rect
   x="192.774"
   y="254.16299"
   style="fill:#f9f3f2"
   width="1.158"
   height="5.7989998"
   id="rect1515" />

						</g>

					</g>

				</g>

			</g>

		</g>

		<g
   id="g1529">
			<g
   id="g1524">
				<g
   id="g1523">
					<g
   id="g1522">
						<g
   id="g1521">
							<rect
   x="197.786"
   y="254.16299"
   style="fill:#d6bcb9"
   width="1.528"
   height="5.7989998"
   id="rect1520" />

						</g>

					</g>

				</g>

			</g>

			<g
   id="g1528">
				<g
   id="g1527">
					<g
   id="g1526">
						<g
   id="g1525">
							<rect
   x="197.972"
   y="254.16299"
   style="fill:#f9f3f2"
   width="1.158"
   height="5.7989998"
   id="rect1524" />

						</g>

					</g>

				</g>

			</g>

		</g>

		<g
   id="g1538">
			<g
   id="g1533">
				<g
   id="g1532">
					<g
   id="g1531">
						<g
   id="g1530">
							<rect
   x="202.866"
   y="254.16299"
   style="fill:#d6bcb9"
   width="1.528"
   height="5.7989998"
   id="rect1529" />

						</g>

					</g>

				</g>

			</g>

			<g
   id="g1537">
				<g
   id="g1536">
					<g
   id="g1535">
						<g
   id="g1534">
							<rect
   x="203.05099"
   y="254.16299"
   style="fill:#f9f3f2"
   width="1.158"
   height="5.7989998"
   id="rect1533" />

						</g>

					</g>

				</g>

			</g>

		</g>

		<g
   id="g1547">
			<g
   id="g1542">
				<g
   id="g1541">
					<g
   id="g1540">
						<g
   id="g1539">
							<path
   style="fill:#d6bcb9"
   d="m 150.57,256.996 c 0,0.773 -0.627,1.4 -1.4,1.4 -0.773,0 -1.4,-0.627 -1.4,-1.4 0,-0.773 0.627,-1.4 1.4,-1.4 0.773,0 1.4,0.627 1.4,1.4 z"
   id="path1538" />

						</g>

					</g>

				</g>

			</g>

			<g
   id="g1546">
				<g
   id="g1545">
					<g
   id="g1544">
						<g
   id="g1543">
							<path
   style="fill:#f9f3f2"
   d="m 150.279,256.996 c 0,0.612 -0.496,1.108 -1.108,1.108 -0.612,0 -1.108,-0.496 -1.108,-1.108 0,-0.612 0.496,-1.108 1.108,-1.108 0.612,0 1.108,0.496 1.108,1.108 z"
   id="path1542" />

						</g>

					</g>

				</g>

			</g>

		</g>

		<g
   id="g1556">
			<g
   id="g1551">
				<g
   id="g1550">
					<g
   id="g1549">
						<g
   id="g1548">
							<path
   style="fill:#d6bcb9"
   d="m 155.768,256.996 c 0,0.773 -0.627,1.4 -1.4,1.4 -0.773,0 -1.4,-0.627 -1.4,-1.4 0,-0.773 0.627,-1.4 1.4,-1.4 0.774,0 1.4,0.627 1.4,1.4 z"
   id="path1547" />

						</g>

					</g>

				</g>

			</g>

			<g
   id="g1555">
				<g
   id="g1554">
					<g
   id="g1553">
						<g
   id="g1552">
							<path
   style="fill:#f9f3f2"
   d="m 155.477,256.996 c 0,0.612 -0.496,1.108 -1.108,1.108 -0.612,0 -1.108,-0.496 -1.108,-1.108 0,-0.612 0.496,-1.108 1.108,-1.108 0.611,0 1.108,0.496 1.108,1.108 z"
   id="path1551" />

						</g>

					</g>

				</g>

			</g>

		</g>

		<g
   id="g1565">
			<g
   id="g1560">
				<g
   id="g1559">
					<g
   id="g1558">
						<g
   id="g1557">
							<path
   style="fill:#d6bcb9"
   d="m 160.966,256.996 c 0,0.773 -0.627,1.4 -1.4,1.4 -0.773,0 -1.4,-0.627 -1.4,-1.4 0,-0.773 0.627,-1.4 1.4,-1.4 0.773,0 1.4,0.627 1.4,1.4 z"
   id="path1556" />

						</g>

					</g>

				</g>

			</g>

			<g
   id="g1564">
				<g
   id="g1563">
					<g
   id="g1562">
						<g
   id="g1561">
							<path
   style="fill:#f9f3f2"
   d="m 160.675,256.996 c 0,0.612 -0.496,1.108 -1.108,1.108 -0.612,0 -1.108,-0.496 -1.108,-1.108 0,-0.612 0.496,-1.108 1.108,-1.108 0.611,0 1.108,0.496 1.108,1.108 z"
   id="path1560" />

						</g>

					</g>

				</g>

			</g>

		</g>

		<g
   id="g1574">
			<g
   id="g1569">
				<g
   id="g1568">
					<g
   id="g1567">
						<g
   id="g1566">
							<path
   style="fill:#d6bcb9"
   d="m 166.164,256.996 c 0,0.773 -0.627,1.4 -1.4,1.4 -0.773,0 -1.4,-0.627 -1.4,-1.4 0,-0.773 0.627,-1.4 1.4,-1.4 0.773,0 1.4,0.627 1.4,1.4 z"
   id="path1565" />

						</g>

					</g>

				</g>

			</g>

			<g
   id="g1573">
				<g
   id="g1572">
					<g
   id="g1571">
						<g
   id="g1570">
							<path
   style="fill:#f9f3f2"
   d="m 165.872,256.996 c 0,0.612 -0.496,1.108 -1.108,1.108 -0.612,0 -1.108,-0.496 -1.108,-1.108 0,-0.612 0.496,-1.108 1.108,-1.108 0.612,0 1.108,0.496 1.108,1.108 z"
   id="path1569" />

						</g>

					</g>

				</g>

			</g>

		</g>

		<g
   id="g1583">
			<g
   id="g1578">
				<g
   id="g1577">
					<g
   id="g1576">
						<g
   id="g1575">
							<path
   style="fill:#d6bcb9"
   d="m 171.362,256.996 c 0,0.773 -0.627,1.4 -1.4,1.4 -0.773,0 -1.4,-0.627 -1.4,-1.4 0,-0.773 0.627,-1.4 1.4,-1.4 0.773,0 1.4,0.627 1.4,1.4 z"
   id="path1574" />

						</g>

					</g>

				</g>

			</g>

			<g
   id="g1582">
				<g
   id="g1581">
					<g
   id="g1580">
						<g
   id="g1579">
							<path
   style="fill:#f9f3f2"
   d="m 171.07,256.996 c 0,0.612 -0.496,1.108 -1.108,1.108 -0.612,0 -1.108,-0.496 -1.108,-1.108 0,-0.612 0.496,-1.108 1.108,-1.108 0.612,0 1.108,0.496 1.108,1.108 z"
   id="path1578" />

						</g>

					</g>

				</g>

			</g>

		</g>

		<g
   id="g1592">
			<g
   id="g1587">
				<g
   id="g1586">
					<g
   id="g1585">
						<g
   id="g1584">
							<path
   style="fill:#d6bcb9"
   d="m 176.56,256.996 c 0,0.773 -0.627,1.4 -1.4,1.4 -0.773,0 -1.4,-0.627 -1.4,-1.4 0,-0.773 0.627,-1.4 1.4,-1.4 0.773,0 1.4,0.627 1.4,1.4 z"
   id="path1583" />

						</g>

					</g>

				</g>

			</g>

			<g
   id="g1591">
				<g
   id="g1590">
					<g
   id="g1589">
						<g
   id="g1588">
							<path
   style="fill:#f9f3f2"
   d="m 176.268,256.996 c 0,0.612 -0.496,1.108 -1.108,1.108 -0.612,0 -1.108,-0.496 -1.108,-1.108 0,-0.612 0.496,-1.108 1.108,-1.108 0.612,0 1.108,0.496 1.108,1.108 z"
   id="path1587" />

						</g>

					</g>

				</g>

			</g>

		</g>

		<g
   id="g1601">
			<g
   id="g1596">
				<g
   id="g1595">
					<g
   id="g1594">
						<g
   id="g1593">
							<path
   style="fill:#d6bcb9"
   d="m 181.758,256.996 c 0,0.773 -0.627,1.4 -1.4,1.4 -0.773,0 -1.4,-0.627 -1.4,-1.4 0,-0.773 0.627,-1.4 1.4,-1.4 0.773,0 1.4,0.627 1.4,1.4 z"
   id="path1592" />

						</g>

					</g>

				</g>

			</g>

			<g
   id="g1600">
				<g
   id="g1599">
					<g
   id="g1598">
						<g
   id="g1597">
							<path
   style="fill:#f9f3f2"
   d="m 181.466,256.996 c 0,0.612 -0.496,1.108 -1.108,1.108 -0.612,0 -1.108,-0.496 -1.108,-1.108 0,-0.612 0.496,-1.108 1.108,-1.108 0.612,0 1.108,0.496 1.108,1.108 z"
   id="path1596" />

						</g>

					</g>

				</g>

			</g>

		</g>

		<g
   id="g1610">
			<g
   id="g1605">
				<g
   id="g1604">
					<g
   id="g1603">
						<g
   id="g1602">
							<path
   style="fill:#d6bcb9"
   d="m 186.956,256.996 c 0,0.773 -0.627,1.4 -1.4,1.4 -0.773,0 -1.4,-0.627 -1.4,-1.4 0,-0.773 0.627,-1.4 1.4,-1.4 0.773,0 1.4,0.627 1.4,1.4 z"
   id="path1601" />

						</g>

					</g>

				</g>

			</g>

			<g
   id="g1609">
				<g
   id="g1608">
					<g
   id="g1607">
						<g
   id="g1606">
							<path
   style="fill:#f9f3f2"
   d="m 186.664,256.996 c 0,0.612 -0.496,1.108 -1.108,1.108 -0.612,0 -1.108,-0.496 -1.108,-1.108 0,-0.612 0.496,-1.108 1.108,-1.108 0.612,0 1.108,0.496 1.108,1.108 z"
   id="path1605" />

						</g>

					</g>

				</g>

			</g>

		</g>

		<g
   id="g1619">
			<g
   id="g1614">
				<g
   id="g1613">
					<g
   id="g1612">
						<g
   id="g1611">
							<path
   style="fill:#d6bcb9"
   d="m 192.154,256.996 c 0,0.773 -0.627,1.4 -1.4,1.4 -0.773,0 -1.4,-0.627 -1.4,-1.4 0,-0.773 0.627,-1.4 1.4,-1.4 0.773,0 1.4,0.627 1.4,1.4 z"
   id="path1610" />

						</g>

					</g>

				</g>

			</g>

			<g
   id="g1618">
				<g
   id="g1617">
					<g
   id="g1616">
						<g
   id="g1615">
							<path
   style="fill:#f9f3f2"
   d="m 191.862,256.996 c 0,0.612 -0.496,1.108 -1.108,1.108 -0.612,0 -1.108,-0.496 -1.108,-1.108 0,-0.612 0.496,-1.108 1.108,-1.108 0.612,0 1.108,0.496 1.108,1.108 z"
   id="path1614" />

						</g>

					</g>

				</g>

			</g>

		</g>

		<g
   id="g1628">
			<g
   id="g1623">
				<g
   id="g1622">
					<g
   id="g1621">
						<g
   id="g1620">
							<path
   style="fill:#d6bcb9"
   d="m 202.549,256.996 c 0,0.773 -0.627,1.4 -1.4,1.4 -0.773,0 -1.4,-0.627 -1.4,-1.4 0,-0.773 0.627,-1.4 1.4,-1.4 0.774,0 1.4,0.627 1.4,1.4 z"
   id="path1619" />

						</g>

					</g>

				</g>

			</g>

			<g
   id="g1627">
				<g
   id="g1626">
					<g
   id="g1625">
						<g
   id="g1624">
							<path
   style="fill:#f9f3f2"
   d="m 202.258,256.996 c 0,0.612 -0.496,1.108 -1.108,1.108 -0.612,0 -1.108,-0.496 -1.108,-1.108 0,-0.612 0.496,-1.108 1.108,-1.108 0.612,0 1.108,0.496 1.108,1.108 z"
   id="path1623" />

						</g>

					</g>

				</g>

			</g>

		</g>

		<g
   id="g1637">
			<g
   id="g1632">
				<g
   id="g1631">
					<g
   id="g1630">
						<g
   id="g1629">
							<path
   style="fill:#d6bcb9"
   d="m 197.352,256.996 c 0,0.773 -0.627,1.4 -1.4,1.4 -0.773,0 -1.4,-0.627 -1.4,-1.4 0,-0.773 0.627,-1.4 1.4,-1.4 0.773,0 1.4,0.627 1.4,1.4 z"
   id="path1628" />

						</g>

					</g>

				</g>

			</g>

			<g
   id="g1636">
				<g
   id="g1635">
					<g
   id="g1634">
						<g
   id="g1633">
							<path
   style="fill:#f9f3f2"
   d="m 197.06,256.996 c 0,0.612 -0.496,1.108 -1.108,1.108 -0.612,0 -1.108,-0.496 -1.108,-1.108 0,-0.612 0.496,-1.108 1.108,-1.108 0.612,0 1.108,0.496 1.108,1.108 z"
   id="path1632" />

						</g>

					</g>

				</g>

			</g>

		</g>

	</g>

	<g
   id="g1642">
		<g
   id="g1641">
			<g
   id="g1640">
				<g
   id="g1639">
					<rect
   x="142.70399"
   y="260.13599"
   style="fill:#f1e7e5"
   width="64.793999"
   height="1.054"
   id="rect1638" />

				</g>

			</g>

		</g>

	</g>

	<g
   id="g1769">
		<g
   id="g1651">
			<g
   id="g1646">
				<g
   id="g1645">
					<g
   id="g1644">
						<g
   id="g1643">
							<rect
   x="144.328"
   y="261.379"
   style="fill:#f1e7e5"
   width="1.128"
   height="1.1"
   id="rect1642" />

						</g>

					</g>

				</g>

			</g>

			<g
   id="g1650">
				<g
   id="g1649">
					<g
   id="g1648">
						<g
   id="g1647">
							<path
   style="fill:#c49a97"
   d="m 145.656,262.679 h -1.528 v -1.5 h 1.528 z m -1.128,-0.4 h 0.728 v -0.7 h -0.728 z"
   id="path1646" />

						</g>

					</g>

				</g>

			</g>

		</g>

		<g
   id="g1660">
			<g
   id="g1655">
				<g
   id="g1654">
					<g
   id="g1653">
						<g
   id="g1652">
							<rect
   x="148.976"
   y="261.379"
   style="fill:#f1e7e5"
   width="1.128"
   height="1.1"
   id="rect1651" />

						</g>

					</g>

				</g>

			</g>

			<g
   id="g1659">
				<g
   id="g1658">
					<g
   id="g1657">
						<g
   id="g1656">
							<path
   style="fill:#c49a97"
   d="m 150.304,262.679 h -1.528 v -1.5 h 1.528 z m -1.128,-0.4 h 0.728 v -0.7 h -0.728 z"
   id="path1655" />

						</g>

					</g>

				</g>

			</g>

		</g>

		<g
   id="g1669">
			<g
   id="g1664">
				<g
   id="g1663">
					<g
   id="g1662">
						<g
   id="g1661">
							<rect
   x="153.623"
   y="261.379"
   style="fill:#f1e7e5"
   width="1.128"
   height="1.1"
   id="rect1660" />

						</g>

					</g>

				</g>

			</g>

			<g
   id="g1668">
				<g
   id="g1667">
					<g
   id="g1666">
						<g
   id="g1665">
							<path
   style="fill:#c49a97"
   d="m 154.951,262.679 h -1.528 v -1.5 h 1.528 z m -1.128,-0.4 h 0.728 v -0.7 h -0.728 z"
   id="path1664" />

						</g>

					</g>

				</g>

			</g>

		</g>

		<g
   id="g1678">
			<g
   id="g1673">
				<g
   id="g1672">
					<g
   id="g1671">
						<g
   id="g1670">
							<rect
   x="158.271"
   y="261.379"
   style="fill:#f1e7e5"
   width="1.128"
   height="1.1"
   id="rect1669" />

						</g>

					</g>

				</g>

			</g>

			<g
   id="g1677">
				<g
   id="g1676">
					<g
   id="g1675">
						<g
   id="g1674">
							<path
   style="fill:#c49a97"
   d="m 159.599,262.679 h -1.528 v -1.5 h 1.528 z m -1.128,-0.4 h 0.728 v -0.7 h -0.728 z"
   id="path1673" />

						</g>

					</g>

				</g>

			</g>

		</g>

		<g
   id="g1687">
			<g
   id="g1682">
				<g
   id="g1681">
					<g
   id="g1680">
						<g
   id="g1679">
							<rect
   x="162.918"
   y="261.379"
   style="fill:#f1e7e5"
   width="1.128"
   height="1.1"
   id="rect1678" />

						</g>

					</g>

				</g>

			</g>

			<g
   id="g1686">
				<g
   id="g1685">
					<g
   id="g1684">
						<g
   id="g1683">
							<path
   style="fill:#c49a97"
   d="m 164.246,262.679 h -1.528 v -1.5 h 1.528 z m -1.128,-0.4 h 0.728 v -0.7 h -0.728 z"
   id="path1682" />

						</g>

					</g>

				</g>

			</g>

		</g>

		<g
   id="g1696">
			<g
   id="g1691">
				<g
   id="g1690">
					<g
   id="g1689">
						<g
   id="g1688">
							<rect
   x="167.56599"
   y="261.379"
   style="fill:#f1e7e5"
   width="1.128"
   height="1.1"
   id="rect1687" />

						</g>

					</g>

				</g>

			</g>

			<g
   id="g1695">
				<g
   id="g1694">
					<g
   id="g1693">
						<g
   id="g1692">
							<path
   style="fill:#c49a97"
   d="m 168.894,262.679 h -1.528 v -1.5 h 1.528 z m -1.128,-0.4 h 0.728 v -0.7 h -0.728 z"
   id="path1691" />

						</g>

					</g>

				</g>

			</g>

		</g>

		<g
   id="g1705">
			<g
   id="g1700">
				<g
   id="g1699">
					<g
   id="g1698">
						<g
   id="g1697">
							<rect
   x="172.213"
   y="261.379"
   style="fill:#f1e7e5"
   width="1.128"
   height="1.1"
   id="rect1696" />

						</g>

					</g>

				</g>

			</g>

			<g
   id="g1704">
				<g
   id="g1703">
					<g
   id="g1702">
						<g
   id="g1701">
							<path
   style="fill:#c49a97"
   d="m 173.541,262.679 h -1.528 v -1.5 h 1.528 z m -1.128,-0.4 h 0.728 v -0.7 h -0.728 z"
   id="path1700" />

						</g>

					</g>

				</g>

			</g>

		</g>

		<g
   id="g1714">
			<g
   id="g1709">
				<g
   id="g1708">
					<g
   id="g1707">
						<g
   id="g1706">
							<rect
   x="176.86099"
   y="261.379"
   style="fill:#f1e7e5"
   width="1.128"
   height="1.1"
   id="rect1705" />

						</g>

					</g>

				</g>

			</g>

			<g
   id="g1713">
				<g
   id="g1712">
					<g
   id="g1711">
						<g
   id="g1710">
							<path
   style="fill:#c49a97"
   d="m 178.189,262.679 h -1.528 v -1.5 h 1.528 z m -1.128,-0.4 h 0.728 v -0.7 h -0.728 z"
   id="path1709" />

						</g>

					</g>

				</g>

			</g>

		</g>

		<g
   id="g1723">
			<g
   id="g1718">
				<g
   id="g1717">
					<g
   id="g1716">
						<g
   id="g1715">
							<rect
   x="181.508"
   y="261.379"
   style="fill:#f1e7e5"
   width="1.128"
   height="1.1"
   id="rect1714" />

						</g>

					</g>

				</g>

			</g>

			<g
   id="g1722">
				<g
   id="g1721">
					<g
   id="g1720">
						<g
   id="g1719">
							<path
   style="fill:#c49a97"
   d="m 182.836,262.679 h -1.528 v -1.5 h 1.528 z m -1.128,-0.4 h 0.728 v -0.7 h -0.728 z"
   id="path1718" />

						</g>

					</g>

				</g>

			</g>

		</g>

		<g
   id="g1732">
			<g
   id="g1727">
				<g
   id="g1726">
					<g
   id="g1725">
						<g
   id="g1724">
							<rect
   x="186.15601"
   y="261.379"
   style="fill:#f1e7e5"
   width="1.128"
   height="1.1"
   id="rect1723" />

						</g>

					</g>

				</g>

			</g>

			<g
   id="g1731">
				<g
   id="g1730">
					<g
   id="g1729">
						<g
   id="g1728">
							<path
   style="fill:#c49a97"
   d="m 187.484,262.679 h -1.528 v -1.5 h 1.528 z m -1.128,-0.4 h 0.728 v -0.7 h -0.728 z"
   id="path1727" />

						</g>

					</g>

				</g>

			</g>

		</g>

		<g
   id="g1741">
			<g
   id="g1736">
				<g
   id="g1735">
					<g
   id="g1734">
						<g
   id="g1733">
							<rect
   x="190.80299"
   y="261.379"
   style="fill:#f1e7e5"
   width="1.128"
   height="1.1"
   id="rect1732" />

						</g>

					</g>

				</g>

			</g>

			<g
   id="g1740">
				<g
   id="g1739">
					<g
   id="g1738">
						<g
   id="g1737">
							<path
   style="fill:#c49a97"
   d="m 192.131,262.679 h -1.528 v -1.5 h 1.528 z m -1.128,-0.4 h 0.728 v -0.7 h -0.728 z"
   id="path1736" />

						</g>

					</g>

				</g>

			</g>

		</g>

		<g
   id="g1750">
			<g
   id="g1745">
				<g
   id="g1744">
					<g
   id="g1743">
						<g
   id="g1742">
							<rect
   x="195.451"
   y="261.379"
   style="fill:#f1e7e5"
   width="1.128"
   height="1.1"
   id="rect1741" />

						</g>

					</g>

				</g>

			</g>

			<g
   id="g1749">
				<g
   id="g1748">
					<g
   id="g1747">
						<g
   id="g1746">
							<path
   style="fill:#c49a97"
   d="m 196.779,262.679 h -1.528 v -1.5 h 1.528 z m -1.128,-0.4 h 0.728 v -0.7 h -0.728 z"
   id="path1745" />

						</g>

					</g>

				</g>

			</g>

		</g>

		<g
   id="g1759">
			<g
   id="g1754">
				<g
   id="g1753">
					<g
   id="g1752">
						<g
   id="g1751">
							<rect
   x="200.09801"
   y="261.379"
   style="fill:#f1e7e5"
   width="1.128"
   height="1.1"
   id="rect1750" />

						</g>

					</g>

				</g>

			</g>

			<g
   id="g1758">
				<g
   id="g1757">
					<g
   id="g1756">
						<g
   id="g1755">
							<path
   style="fill:#c49a97"
   d="m 201.426,262.679 h -1.528 v -1.5 h 1.528 z m -1.128,-0.4 h 0.728 v -0.7 h -0.728 z"
   id="path1754" />

						</g>

					</g>

				</g>

			</g>

		</g>

		<g
   id="g1768">
			<g
   id="g1763">
				<g
   id="g1762">
					<g
   id="g1761">
						<g
   id="g1760">
							<rect
   x="204.745"
   y="261.379"
   style="fill:#f1e7e5"
   width="1.128"
   height="1.1"
   id="rect1759" />

						</g>

					</g>

				</g>

			</g>

			<g
   id="g1767">
				<g
   id="g1766">
					<g
   id="g1765">
						<g
   id="g1764">
							<path
   style="fill:#c49a97"
   d="m 206.074,262.679 h -1.528 v -1.5 h 1.528 z m -1.129,-0.4 h 0.728 v -0.7 h -0.728 z"
   id="path1763" />

						</g>

					</g>

				</g>

			</g>

		</g>

	</g>

	<g
   id="g1773">
		<g
   id="g1772">
			<g
   id="g1771">
				<g
   id="g1770">
					<rect
   x="144.57001"
   y="267.862"
   style="fill:#fcf2f0"
   width="61.061001"
   height="0.73299998"
   id="rect1769" />

				</g>

			</g>

		</g>

	</g>

	<g
   id="g1777">
		<g
   id="g1776">
			<g
   id="g1775">
				<g
   id="g1774">
					<rect
   x="144.57001"
   y="268.401"
   style="fill:#e5d4d1"
   width="61.061001"
   height="0.50400001"
   id="rect1773" />

				</g>

			</g>

		</g>

	</g>

</g>
</g>
  </g>
</svg>
