<?xml version="1.0" encoding="UTF-8" standalone="no"?>
<!-- Created with Inkscape (http://www.inkscape.org/) -->

<svg
   width="12.276137mm"
   height="71.133759mm"
   viewBox="0 0 12.276138 71.13376"
   version="1.1"
   id="svg1"
   inkscape:version="1.4.2 (f4327f4, 2025-05-13)"
   sodipodi:docname="Big Ben-96.svg"
   xmlns:inkscape="http://www.inkscape.org/namespaces/inkscape"
   xmlns:sodipodi="http://sodipodi.sourceforge.net/DTD/sodipodi-0.dtd"
   xmlns="http://www.w3.org/2000/svg"
   xmlns:svg="http://www.w3.org/2000/svg">
  <sodipodi:namedview
     id="namedview1"
     pagecolor="#ffffff"
     bordercolor="#000000"
     borderopacity="0.25"
     inkscape:showpageshadow="2"
     inkscape:pageopacity="0.0"
     inkscape:pagecheckerboard="0"
     inkscape:deskcolor="#d1d1d1"
     inkscape:document-units="mm"
     inkscape:zoom="3.4721641"
     inkscape:cx="22.464376"
     inkscape:cy="103.96974"
     inkscape:window-width="2880"
     inkscape:window-height="1676"
     inkscape:window-x="-12"
     inkscape:window-y="-12"
     inkscape:window-maximized="1"
     inkscape:current-layer="g30" />
  <defs
     id="defs1" />
  <g
     inkscape:label="图层 1"
     inkscape:groupmode="layer"
     id="layer1"
     transform="translate(-166.42291,-171.71459)">
    <g
       id="g30"
       transform="matrix(0.26458333,0,0,0.26458333,149.64621,130.62585)">
		
		
		
		
		
		
		
			
		
		
		
	<g
   id="g263"
   transform="translate(-214.10998,51.796019)">
			
			
		<g
   id="g262"
   transform="translate(-16.884009,-2.0000002)">
				
					<rect
   x="299.93701"
   y="240.976"
   style="fill:none;stroke:#000000;stroke-width:2;stroke-linejoin:round;stroke-miterlimit:10"
   width="35.327"
   height="132.37601"
   id="rect215" />

				
					<rect
   x="298.08701"
   y="235.707"
   style="fill:none;stroke:#000000;stroke-width:2;stroke-linejoin:round;stroke-miterlimit:10"
   width="39.027"
   height="5.2690001"
   id="rect216" />

				
					<rect
   x="298.08701"
   y="193.13901"
   style="fill:none;stroke:#000000;stroke-width:2;stroke-linejoin:round;stroke-miterlimit:10"
   width="39.027"
   height="11.458"
   id="rect217" />

				<polygon
   style="fill:none;stroke:#000000;stroke-width:2;stroke-linejoin:round;stroke-miterlimit:10"
   points="306.265,170.045 298.087,193.139 298.087,204.596 337.114,204.596 337.114,193.139 328.7,170.045 "
   id="polygon217" />

				<polyline
   style="fill:none;stroke:#000000;stroke-width:2;stroke-linejoin:round;stroke-miterlimit:10"
   points="      310.87,145.315 306.143,159.304 306.143,170.045 328.7,170.045 328.7,159.304 323.837,145.315     "
   id="polyline217" />

				
					<rect
   x="295.40201"
   y="204.59599"
   style="fill:none;stroke:#000000;stroke-width:2;stroke-linejoin:round;stroke-miterlimit:10"
   width="44.397999"
   height="31.111"
   id="rect218" />

				<path
   style="fill:none;stroke:#000000;stroke-width:2;stroke-linejoin:round;stroke-miterlimit:10"
   d="m 333.157,220.151 c 0,8.591 -6.965,15.556 -15.557,15.556 -8.591,0 -15.555,-6.965 -15.555,-15.556 0,-8.591 6.964,-15.555 15.555,-15.555 8.592,0 15.557,6.964 15.557,15.555 z"
   id="path218" />

				
					<line
   style="fill:none;stroke:#000000;stroke-width:2;stroke-linejoin:round;stroke-miterlimit:10"
   x1="300.685"
   y1="204.59599"
   x2="300.685"
   y2="235.707"
   id="line218" />

				
					<line
   style="fill:none;stroke:#000000;stroke-width:2;stroke-linejoin:round;stroke-miterlimit:10"
   x1="334.56201"
   y1="204.59599"
   x2="334.56201"
   y2="235.707"
   id="line219" />

				<path
   style="fill:none;stroke:#000000;stroke-linejoin:round;stroke-miterlimit:10"
   d="m 329.696,220.151 c 0,6.68 -5.415,12.094 -12.096,12.094 -6.678,0 -12.094,-5.414 -12.094,-12.094 0,-6.68 5.416,-12.094 12.094,-12.094 6.68,0 12.096,5.415 12.096,12.094 z"
   id="path219" />

				<polyline
   style="fill:none;stroke:#000000;stroke-width:2;stroke-linejoin:round;stroke-miterlimit:10"
   points="317.6,210.544       317.6,220.151 318.556,220.151 323.569,220.151     "
   id="polyline219" />

				<line
   style="fill:none;stroke:#000000;stroke-miterlimit:10"
   x1="295.40201"
   y1="204.59599"
   x2="295.40201"
   y2="188.30499"
   id="line220" />

				<line
   style="fill:none;stroke:#000000;stroke-miterlimit:10"
   x1="295.40201"
   y1="186.694"
   x2="295.40201"
   y2="184.008"
   id="line221" />

				<line
   style="fill:none;stroke:#000000;stroke-miterlimit:10"
   x1="339.79999"
   y1="204.59599"
   x2="339.79999"
   y2="188.30499"
   id="line222" />

				<line
   style="fill:none;stroke:#000000;stroke-miterlimit:10"
   x1="339.79999"
   y1="186.694"
   x2="339.79999"
   y2="184.008"
   id="line223" />

				<path
   style="fill:none;stroke:#000000;stroke-width:2;stroke-linejoin:round;stroke-miterlimit:10"
   d="m 310.87,145.315 c 1.877,-5.338 6.492,-17.28 6.492,-29.454"
   id="path223" />

				<path
   style="fill:none;stroke:#000000;stroke-width:2;stroke-linejoin:round;stroke-miterlimit:10"
   d="m 323.854,145.315 c -1.877,-5.338 -6.492,-17.28 -6.492,-29.454"
   id="path224" />

				<path
   style="fill:none;stroke:#000000;stroke-width:2;stroke-linejoin:round;stroke-miterlimit:10"
   d="m 312.349,163.585 c 0,-0.856 -0.693,-1.551 -1.55,-1.551 -0.856,0 -1.55,0.695 -1.55,1.551 h -0.002 v 6.46 h 3.104 v -6.46 z"
   id="path225" />

				<path
   style="fill:none;stroke:#000000;stroke-width:2;stroke-linejoin:round;stroke-miterlimit:10"
   d="m 318.913,163.585 c 0,-0.856 -0.695,-1.551 -1.551,-1.551 -0.857,0 -1.551,0.695 -1.551,1.551 h -10e-4 v 6.46 h 3.103 z"
   id="path226" />

				<path
   style="fill:none;stroke:#000000;stroke-width:2;stroke-linejoin:round;stroke-miterlimit:10"
   d="m 325.476,163.585 c 0,-0.856 -0.695,-1.551 -1.551,-1.551 -0.855,0 -1.551,0.695 -1.551,1.551 v 0 6.46 h 3.102 z"
   id="path227" />

				<path
   style="fill:none;stroke:#000000;stroke-width:2;stroke-linejoin:round;stroke-miterlimit:10"
   d="m 306.25,198.363 c 0,-1.53 -1.24,-2.771 -2.772,-2.771 -1.53,0 -2.771,1.241 -2.771,2.771 h -0.022 v 6.233 h 5.589 v -6.233 z"
   id="path228" />

				<path
   style="fill:none;stroke:#000000;stroke-width:2;stroke-linejoin:round;stroke-miterlimit:10"
   d="m 315.661,198.363 c 0,-1.53 -1.241,-2.771 -2.771,-2.771 -1.531,0 -2.771,1.241 -2.771,2.771 h -0.023 v 6.233 h 5.59 v -6.233 z"
   id="path229" />

				<path
   style="fill:none;stroke:#000000;stroke-width:2;stroke-linejoin:round;stroke-miterlimit:10"
   d="m 325.072,198.363 c 0,-1.53 -1.241,-2.771 -2.771,-2.771 -1.531,0 -2.772,1.241 -2.772,2.771 h -0.023 v 6.233 h 5.59 v -6.233 z"
   id="path230" />

				<path
   style="fill:none;stroke:#000000;stroke-width:2;stroke-linejoin:round;stroke-miterlimit:10"
   d="m 334.482,198.363 c 0,-1.53 -1.24,-2.771 -2.771,-2.771 -1.53,0 -2.771,1.241 -2.771,2.771 h -0.024 v 6.233 h 5.59 v -6.233 z"
   id="path231" />

				
					<line
   style="fill:none;stroke:#000000;stroke-width:2;stroke-linejoin:round;stroke-miterlimit:10"
   x1="303.63199"
   y1="243.564"
   x2="303.63199"
   y2="252.95399"
   id="line231" />

				
					<line
   style="fill:none;stroke:#000000;stroke-linejoin:round;stroke-miterlimit:10"
   x1="307.09399"
   y1="243.564"
   x2="307.09399"
   y2="252.95399"
   id="line232" />

				
					<line
   style="fill:none;stroke:#000000;stroke-width:2;stroke-linejoin:round;stroke-miterlimit:10"
   x1="310.55399"
   y1="243.564"
   x2="310.55399"
   y2="252.95399"
   id="line233" />

				
					<line
   style="fill:none;stroke:#000000;stroke-linejoin:round;stroke-miterlimit:10"
   x1="314.01501"
   y1="243.564"
   x2="314.01501"
   y2="252.95399"
   id="line234" />

				
					<line
   style="fill:none;stroke:#000000;stroke-width:2;stroke-linejoin:round;stroke-miterlimit:10"
   x1="317.47501"
   y1="243.564"
   x2="317.47501"
   y2="252.95399"
   id="line235" />

				
					<line
   style="fill:none;stroke:#000000;stroke-linejoin:round;stroke-miterlimit:10"
   x1="320.93701"
   y1="243.564"
   x2="320.93701"
   y2="252.95399"
   id="line236" />

				
					<line
   style="fill:none;stroke:#000000;stroke-width:2;stroke-linejoin:round;stroke-miterlimit:10"
   x1="324.397"
   y1="243.564"
   x2="324.397"
   y2="252.95399"
   id="line237" />

				
					<line
   style="fill:none;stroke:#000000;stroke-linejoin:round;stroke-miterlimit:10"
   x1="327.858"
   y1="243.564"
   x2="327.858"
   y2="252.95399"
   id="line238" />

				
					<line
   style="fill:none;stroke:#000000;stroke-width:2;stroke-linejoin:round;stroke-miterlimit:10"
   x1="331.319"
   y1="243.564"
   x2="331.319"
   y2="252.95399"
   id="line239" />

				
					<line
   style="fill:none;stroke:#000000;stroke-width:2;stroke-linejoin:round;stroke-miterlimit:10"
   x1="306.14301"
   y1="159.304"
   x2="328.70001"
   y2="159.304"
   id="line240" />

				
					<rect
   x="305.362"
   y="259.94699"
   style="fill:none;stroke:#000000;stroke-width:2;stroke-linejoin:round;stroke-miterlimit:10"
   width="3.4619999"
   height="16.129999"
   id="rect240" />

				
					<rect
   x="312.285"
   y="259.94699"
   style="fill:none;stroke:#000000;stroke-width:2;stroke-linejoin:round;stroke-miterlimit:10"
   width="3.461"
   height="16.129999"
   id="rect241" />

				
					<rect
   x="319.20599"
   y="259.94699"
   style="fill:none;stroke:#000000;stroke-width:2;stroke-linejoin:round;stroke-miterlimit:10"
   width="3.461"
   height="16.129999"
   id="rect242" />

				
					<rect
   x="326.12799"
   y="259.94699"
   style="fill:none;stroke:#000000;stroke-width:2;stroke-linejoin:round;stroke-miterlimit:10"
   width="3.461"
   height="16.129999"
   id="rect243" />

				
					<rect
   x="305.362"
   y="285.728"
   style="fill:none;stroke:#000000;stroke-width:2;stroke-linejoin:round;stroke-miterlimit:10"
   width="3.4619999"
   height="16.129999"
   id="rect244" />

				
					<rect
   x="312.285"
   y="285.728"
   style="fill:none;stroke:#000000;stroke-width:2;stroke-linejoin:round;stroke-miterlimit:10"
   width="3.461"
   height="16.129999"
   id="rect245" />

				
					<rect
   x="319.20599"
   y="285.728"
   style="fill:none;stroke:#000000;stroke-width:2;stroke-linejoin:round;stroke-miterlimit:10"
   width="3.461"
   height="16.129999"
   id="rect246" />

				
					<rect
   x="326.12799"
   y="285.728"
   style="fill:none;stroke:#000000;stroke-width:2;stroke-linejoin:round;stroke-miterlimit:10"
   width="3.461"
   height="16.129999"
   id="rect247" />

				
					<rect
   x="305.362"
   y="311.50699"
   style="fill:none;stroke:#000000;stroke-width:2;stroke-linejoin:round;stroke-miterlimit:10"
   width="3.4619999"
   height="16.129"
   id="rect248" />

				
					<rect
   x="312.285"
   y="311.50699"
   style="fill:none;stroke:#000000;stroke-width:2;stroke-linejoin:round;stroke-miterlimit:10"
   width="3.461"
   height="16.129"
   id="rect249" />

				
					<rect
   x="319.20599"
   y="311.50699"
   style="fill:none;stroke:#000000;stroke-width:2;stroke-linejoin:round;stroke-miterlimit:10"
   width="3.461"
   height="16.129"
   id="rect250" />

				
					<rect
   x="326.12799"
   y="311.50699"
   style="fill:none;stroke:#000000;stroke-width:2;stroke-linejoin:round;stroke-miterlimit:10"
   width="3.461"
   height="16.129"
   id="rect251" />

				
					<rect
   x="305.362"
   y="337.28699"
   style="fill:none;stroke:#000000;stroke-width:2;stroke-linejoin:round;stroke-miterlimit:10"
   width="3.4619999"
   height="16.129"
   id="rect252" />

				
					<rect
   x="312.285"
   y="337.28699"
   style="fill:none;stroke:#000000;stroke-width:2;stroke-linejoin:round;stroke-miterlimit:10"
   width="3.461"
   height="16.129"
   id="rect253" />

				
					<rect
   x="319.20599"
   y="337.28699"
   style="fill:none;stroke:#000000;stroke-width:2;stroke-linejoin:round;stroke-miterlimit:10"
   width="3.461"
   height="16.129"
   id="rect254" />

				
					<rect
   x="326.12799"
   y="337.28699"
   style="fill:none;stroke:#000000;stroke-width:2;stroke-linejoin:round;stroke-miterlimit:10"
   width="3.461"
   height="16.129"
   id="rect255" />

				
					<line
   style="fill:none;stroke:#000000;stroke-linejoin:round;stroke-miterlimit:10"
   x1="297.33301"
   y1="281"
   x2="337.11301"
   y2="281"
   id="line255" />

				
					<line
   style="fill:none;stroke:#000000;stroke-linejoin:round;stroke-miterlimit:10"
   x1="297.33301"
   y1="307.164"
   x2="337.11301"
   y2="307.164"
   id="line256" />

				
					<line
   style="fill:none;stroke:#000000;stroke-linejoin:round;stroke-miterlimit:10"
   x1="297.33301"
   y1="333.328"
   x2="337.11301"
   y2="333.328"
   id="line257" />

				<polyline
   style="fill:none;stroke:#000000;stroke-linejoin:round;stroke-miterlimit:10"
   points="327.239,193.139       323.083,170.045 312.001,170.045 307.962,193.139     "
   id="polyline257" />

				
					<line
   style="fill:none;stroke:#000000;stroke-linejoin:round;stroke-miterlimit:10"
   x1="297.33301"
   y1="333.328"
   x2="337.11301"
   y2="333.328"
   id="line258" />

				
					<line
   style="fill:none;stroke:#000000;stroke-linejoin:round;stroke-miterlimit:10"
   x1="317.60101"
   y1="170.045"
   x2="317.60101"
   y2="193.13901"
   id="line259" />

				
					<line
   style="fill:none;stroke:#000000;stroke-linejoin:round;stroke-miterlimit:10"
   x1="317.45599"
   y1="118.877"
   x2="320.60699"
   y2="159.304"
   id="line260" />

				
					<line
   style="fill:none;stroke:#000000;stroke-linejoin:round;stroke-miterlimit:10"
   x1="317.45599"
   y1="118.877"
   x2="313.68701"
   y2="159.304"
   id="line261" />

				
					<line
   style="fill:none;stroke:#000000;stroke-linejoin:round;stroke-miterlimit:10"
   x1="317.474"
   y1="112.957"
   x2="317.474"
   y2="105.5"
   id="line262" />

			</g>
</g>
</g>
  </g>
</svg>
