<?xml version="1.0" encoding="UTF-8" standalone="no"?>
<!-- Created with Inkscape (http://www.inkscape.org/) -->

<svg
   width="12.45235mm"
   height="35.727348mm"
   viewBox="0 0 12.45235 35.727349"
   version="1.1"
   id="svg1"
   inkscape:version="1.4.2 (f4327f4, 2025-05-13)"
   sodipodi:docname="Statue of Liberty-93.svg"
   xmlns:inkscape="http://www.inkscape.org/namespaces/inkscape"
   xmlns:sodipodi="http://sodipodi.sourceforge.net/DTD/sodipodi-0.dtd"
   xmlns="http://www.w3.org/2000/svg"
   xmlns:svg="http://www.w3.org/2000/svg">
  <sodipodi:namedview
     id="namedview1"
     pagecolor="#ffffff"
     bordercolor="#000000"
     borderopacity="0.25"
     inkscape:showpageshadow="2"
     inkscape:pageopacity="0.0"
     inkscape:pagecheckerboard="0"
     inkscape:deskcolor="#d1d1d1"
     inkscape:document-units="mm"
     inkscape:zoom="3.4721641"
     inkscape:cx="-65.377094"
     inkscape:cy="18.720313"
     inkscape:window-width="2880"
     inkscape:window-height="1676"
     inkscape:window-x="-12"
     inkscape:window-y="-12"
     inkscape:window-maximized="1"
     inkscape:current-layer="g30" />
  <defs
     id="defs1" />
  <g
     inkscape:label="图层 1"
     inkscape:groupmode="layer"
     id="layer1"
     transform="translate(-189.70625,-194.20417)">
    <g
       id="g30"
       transform="matrix(0.26458333,0,0,0.26458333,149.64621,130.62585)">
		
		
		
		
		
		
		
			
		
		
		
	<g
   id="g342"
   transform="translate(10.017013,196.33053)">
			<path
   style="fill:#c2d3e2"
   d="m 143.988,90.898 c -0.055,3.133 0.385,4.067 0.934,4.012 0.55,-0.055 7.749,-7.039 7.749,-7.039 l -5.857,-4.012 c 0.001,0.001 -2.771,3.907 -2.826,7.039 z"
   id="path303" />

			<rect
   x="144.231"
   y="50.002998"
   style="fill:#466d71"
   width="3.243"
   height="4.2690001"
   id="rect303" />

			<path
   style="fill:#466d71"
   d="m 186.124,112.725 -0.973,0.447 -2.925,4.416 -0.598,2.455 c 0,0 2.455,-0.537 2.809,-0.861 0.354,-0.324 2.455,-4.574 2.492,-4.684 0.037,-0.11 -0.391,-1.038 -0.494,-1.307 -0.105,-0.269 -0.311,-0.466 -0.311,-0.466 z"
   id="path304" />

			<path
   style="fill:#466d71"
   d="m 173.725,132.024 c 0,0 4.397,-2.199 5.899,-3.334 1.502,-1.136 2.125,-9.453 2.125,-9.453 l -7.621,1.282 z"
   id="path305" />

			<polygon
   style="fill:#466d71"
   points="154.403,89.019 157.627,92.903 158.311,87.749 156.558,86.281 "
   id="polygon305" />

			<polygon
   style="fill:#466d71"
   points="169.049,96.909 167.198,86.639 165.224,87.065 165.224,90.29 165.688,97.154 "
   id="polygon306" />

			<polygon
   style="fill:#466d71"
   points="161.618,71.015 160.984,77.626 162.252,77.626 "
   id="polygon307" />

			<polygon
   style="fill:#466d71"
   points="167.237,82.294 167.237,83.562 173.848,82.928 "
   id="polygon308" />

			<polygon
   style="fill:#466d71"
   points="149.428,82.928 156.04,83.562 156.04,82.294 "
   id="polygon309" />

			<polygon
   style="fill:#466d71"
   points="164.402,78.214 165.332,79.076 169.361,73.796 "
   id="polygon310" />

			<polygon
   style="fill:#466d71"
   points="166.604,80.051 167.117,81.211 172.907,77.958 "
   id="polygon311" />

			<polygon
   style="fill:#466d71"
   points="150.114,77.958 155.904,81.211 156.417,80.051 "
   id="polygon312" />

			<polygon
   style="fill:#466d71"
   points="153.631,73.796 157.66,79.076 158.59,78.214 "
   id="polygon313" />

			<path
   style="fill:#c2d3e2"
   d="m 151.105,76.732 c -0.195,-1.099 -1.979,-8.696 -2.027,-9.429 -0.049,-0.733 0.024,-0.83 -0.073,-2.247 -0.098,-1.417 -2.37,-3.273 -2.37,-3.273 l -1.49,4.519 c 0,0 -0.171,7.279 0.073,9.331 0.244,2.052 0.879,3.811 1.05,4.788 0.171,0.977 0.586,3.786 0.953,5.936 0.366,2.15 0.953,5.301 0.953,5.301 l 5.789,-2.003 c 0,0 -2.15,-7.621 -2.418,-8.427 -0.269,-0.807 -0.244,-3.396 -0.44,-4.496 z"
   id="path313" />

			<path
   style="fill:#466d71"
   d="m 151.105,76.732 c -0.195,-1.099 -1.979,-8.696 -2.027,-9.429 -0.047,-0.705 0.019,-0.823 -0.063,-2.094 0.765,-0.524 -0.077,-4.39 -0.279,-4.286 -0.2,0.103 -2.948,3.599 -3.085,3.845 l -0.359,1.09 c -0.085,0.426 -0.134,0.886 -0.164,1.315 -0.007,0.402 -0.016,0.919 -0.023,1.502 0.121,0.912 0.862,1.34 1.598,1.34 0.806,0 1.392,-1.466 1.795,-0.916 0.403,0.55 1.869,10.333 1.905,12.311 0.037,1.979 -1.136,7.401 -1.136,7.401 l 2.683,-6.226 c -0.197,-0.679 -0.346,-1.183 -0.405,-1.36 -0.269,-0.804 -0.244,-3.393 -0.44,-4.493 z"
   id="path314" />

			<polygon
   style="fill:#c2d3e2"
   points="144.448,65.74 147.257,65.74 147.623,57.337 144.081,57.337 "
   id="polygon314" />

			<rect
   x="144.30701"
   y="65.641998"
   style="fill:#c2d3e2"
   width="3.066"
   height="0.81800002"
   id="rect314" />

			<polygon
   style="fill:#c2d3e2"
   points="145.059,68.184 146.646,68.184 147.287,66.391 144.417,66.391 "
   id="polygon315" />

			<path
   style="fill:#c2d3e2"
   d="m 146.113,67.751 h -0.545 c -0.212,0 -0.385,0.173 -0.385,0.385 v 0.096 c 0,0.212 0.173,0.385 0.385,0.385 h 0.545 c 0.212,0 0.385,-0.173 0.385,-0.385 v -0.096 c -10e-4,-0.211 -0.174,-0.385 -0.385,-0.385 z"
   id="path315" />

			<path
   style="fill:#466d71"
   d="m 147.798,56.158 h -3.892 c -0.26,0 -0.472,0.213 -0.472,0.473 v 0.268 c 0,0.26 0.213,0.473 0.472,0.473 h 3.892 c 0.26,0 0.473,-0.213 0.473,-0.473 v -0.268 c 0,-0.26 -0.213,-0.473 -0.473,-0.473 z"
   id="path316" />

			<polygon
   style="fill:#466d71"
   points="143.868,57 147.805,57 150.286,55.041 141.419,55.041 "
   id="polygon316" />

			<rect
   x="141.39101"
   y="54.264"
   style="fill:#c2d3e2"
   width="8.9219999"
   height="0.77700001"
   id="rect316" />

			<polygon
   style="fill:#c2d3e2"
   points="145.852,51.817 141.391,51.817 141.758,53.044 141.391,54.271 145.852,54.271 150.313,54.271 149.947,53.044 150.313,51.817 "
   id="polygon317" />

			<g
   id="g317">
				<path
   style="fill:#cd6c00"
   d="m 145.855,43.994 c -0.101,0.092 0.559,0.421 0.357,1.319 -0.202,0.898 -2.657,1.869 -2.657,2.712 0,0.843 0.678,1.979 0.678,1.979 0,0 1.997,0 3.243,0 0.715,0 2.107,-1.722 1.282,-4.177 -0.639,-1.905 -2.803,-1.925 -2.903,-1.833 z"
   id="path317" />

			</g>

			<path
   style="fill:#c2d3e2"
   d="m 161.487,77.538 c -3.102,0 -5.789,2.052 -5.789,4.397 0,2.345 1.001,3.298 1.001,3.298 0.036,0.036 10.015,0.22 10.015,0.22 0,0 0.757,-0.928 0.757,-3.176 0.001,-2.296 -2.296,-4.739 -5.984,-4.739 z"
   id="path318" />

			<path
   style="fill:#466d71"
   d="m 161.523,78.174 c -3.007,0 -5.611,1.988 -5.611,4.261 0,2.273 0.971,3.196 0.971,3.196 0.035,0.035 9.706,0.213 9.706,0.213 0,0 0.734,-0.9 0.734,-3.077 0,-2.226 -2.225,-4.593 -5.8,-4.593 z"
   id="path319" />

			<path
   style="fill:#c2d3e2"
   d="m 165.249,94.32 c -0.025,-1.001 0.049,-4.031 0.171,-4.275 0.122,-0.244 0.513,-3.005 0.366,-4.47 -0.147,-1.466 -0.66,-3.689 -0.66,-3.689 0,0 -1.637,-1.295 -3.493,-1.148 -1.856,0.147 -3.786,1.783 -3.786,1.783 0,0 0.098,5.521 0.611,6.742 0.513,1.221 -0.611,3.591 -0.611,3.591 l 4.275,5.032 4.641,-1.319 c 0,0 -1.49,-1.245 -1.514,-2.247 z"
   id="path320" />

			<path
   style="fill:#a6bcc5"
   d="m 167.181,96.339 c -1.209,-0.22 -3.408,1.209 -5.001,0.495 -1.593,-0.714 -4.177,-4.562 -4.946,-5.606 -0.769,-1.044 -3.993,-4.127 -3.993,-4.127 l -7.494,6.491 c 0,0 2.477,2.71 2.363,5.991 -0.086,2.486 -1.297,4.396 -0.989,5.936 0.339,1.693 3.275,0.575 3.095,4.896 -0.076,1.836 -3.699,5.821 -3.48,10.053 0.142,2.724 3.238,1.66 3.078,2.748 -0.149,1.012 -1.851,5.194 -1.814,7.749 0.04,2.692 1.826,3.801 1.928,6.542 0.122,3.277 0.237,5.979 0.216,6.648 -0.055,1.759 -1.099,5.276 -1.429,9.508 -0.33,4.232 0.605,11.871 0.275,13.465 -0.33,1.594 -2.803,6.815 -2.803,6.815 0,0 29.788,0 30.282,0 0.495,0 -0.714,-11.157 -0.714,-11.376 0,-0.22 1.154,-0.55 1.374,-0.77 0.22,-0.22 -0.385,-12.75 -0.385,-13.465 0,-0.714 1.209,-1.319 1.649,-1.869 0.44,-0.55 -4.836,-44.022 -6.046,-46.55 -1.209,-2.53 -3.957,-3.354 -5.166,-3.574 z"
   id="path321" />

			<path
   style="fill:#c2d3e2"
   d="m 165.688,81.789 c -1.71,-1.881 -3.884,-1.173 -4.153,-1.173 -0.269,0 -2.02,-0.367 -3.469,0.879 -1.221,1.05 -1.368,2.369 -1.368,2.369 0,0 -0.36,0.341 -0.415,1.27 -0.098,1.637 1.872,2.639 1.872,2.639 l 7.586,0.097 c 0,0 1.559,-0.929 1.656,-1.686 0.098,-0.757 -0.586,-1.71 -0.635,-1.881 -0.048,-0.169 -0.222,-1.577 -1.074,-2.514 z"
   id="path322" />

			<polygon
   style="fill:#466d71"
   points="173.21,103.988 174.494,116.012 178.488,109.49 "
   id="polygon322" />

			<polygon
   style="fill:#466d71"
   points="188.455,108.94 187.245,108.207 175.52,124.109 175.52,124.879 178.419,125.392 "
   id="polygon323" />

			<polygon
   style="fill:#c2d3e2"
   points="187.245,108.207 180.76,104.58 174.641,114.619 175.52,124.109 177.499,124.659 "
   id="polygon324" />

			<polygon
   style="fill:#c2d3e2"
   points="167.064,105.59 164.638,151.26 171.976,147.23 "
   id="polygon325" />

			<path
   style="fill:#466d71"
   d="m 171.983,99.267 2.987,45.471 c 0,0 -10.406,5.496 -10.333,6.522 0.073,1.026 3.151,1.686 3.151,2.931 0,1.246 -10.919,5.643 -11.652,6.742 -0.733,1.099 5.203,-0.953 5.496,0.733 0.293,1.686 -1.979,12.092 -1.979,12.275 7.962,0 16.55,0 16.814,0 0.495,0 -0.714,-11.157 -0.714,-11.376 0,-0.22 1.154,-0.55 1.374,-0.77 0.22,-0.22 -0.385,-12.75 -0.385,-13.465 0,-0.714 1.209,-1.319 1.649,-1.869 0.44,-0.55 -4.836,-44.022 -6.046,-46.55 -0.107,-0.228 -0.229,-0.442 -0.362,-0.644 z"
   id="path325" />

			<path
   style="fill:#466d71"
   d="m 163.699,132.476 c -1.445,2.148 -3.44,5.126 -4.158,5.742 -1.154,0.989 -3.902,4.891 -5.551,7.365 -1.649,2.473 -4.672,2.748 -4.672,2.748 -0.33,4.946 2.253,7.804 4.397,5.881 2.143,-1.923 6.32,-13.41 7.145,-15.333 0.824,-1.924 3.243,-0.22 3.847,-0.275 0.605,-0.055 1.825,-24.081 1.66,-24.136 -0.062,-0.022 -1.791,16.704 -2.668,18.008 z"
   id="path326" />

			<path
   style="fill:#c2d3e2"
   d="m 147.923,90.298 c -1.022,0.93 -3.815,3.325 -3.385,4.451 1.219,3.19 6.855,-0.436 8.298,-6.708 0.751,-3.263 0.731,-3.079 -1.027,-5.937 0,-0.001 -2.863,7.264 -3.886,8.194 z"
   id="path327" />

			<path
   style="fill:#466d71"
   d="m 144.081,57.02 c -0.164,0.11 -0.476,0.652 -0.365,1.044 0.111,0.393 -0.242,1.805 -0.256,1.899 -0.022,0.148 0.073,1.246 0.073,1.246 0,0 0.843,0.208 0.721,0.525 -0.122,0.318 -0.745,0.647 -0.807,0.77 -0.062,0.122 0.941,2.247 0.941,2.247 0,0 0.049,-0.501 0.073,-0.916 0.024,-0.415 0.879,-1.05 1.563,-0.806 0.684,0.244 1.335,1.818 1.335,1.818 l 0.264,-7.51 -3.313,-0.04 c 0,0.001 -0.065,-0.387 -0.229,-0.277 z"
   id="path328" />

			<path
   style="fill:#466d71"
   d="m 165.271,94.516 c -0.176,-0.486 0.149,-4.471 0.149,-4.471 l 1.755,-3.374 c 0,0 0.2,-0.07 0.23,-0.73 0.031,-0.66 -0.617,-1.441 -0.641,-1.636 -0.024,-0.195 -0.024,-0.342 -0.195,-0.743 -0.171,-0.401 -4.568,-1.748 -4.763,-1.724 -0.195,0.024 -2.736,1.002 -3.566,1.612 -0.831,0.611 -1.705,1.697 -1.68,2.831 0.025,1.134 1.488,3.472 1.488,3.472 l 0.216,-1.25 c 0,0 -0.189,-1.511 -0.048,-2.072 0.14,-0.561 0.904,-0.66 1.71,-0.635 0.806,0.024 1.099,-0.269 1.075,-0.904 -0.025,-0.635 -1.93,-0.122 -2.15,-0.293 -0.22,-0.171 2.858,-2.345 2.995,-2.345 0.137,0 2.623,1.783 2.696,1.926 0.073,0.143 -1.783,-0.093 -2.174,0.2 -0.391,0.293 -0.196,2.345 -0.122,2.638 0.073,0.293 -0.44,0.366 -0.806,0.317 -0.366,-0.049 -0.727,0.409 -0.513,0.366 0.366,-0.073 0.806,0.415 0.537,0.464 -0.269,0.049 -0.831,0.425 -0.831,0.425 0,0 0.986,-0.231 1.365,-0.108 0.131,0.042 -0.045,0.538 0.052,0.685 0.098,0.146 1.173,-0.22 1.173,-0.635 0,-0.415 -0.391,-1.368 -0.391,-1.93 0,-0.562 1.514,-0.66 1.954,0.038 0.44,0.698 -1.881,3.626 -2.702,3.748 -0.821,0.122 -2.819,-0.391 -3.136,-0.366 -0.318,0.024 -0.146,0.489 2.345,3.469 1.761,2.107 3.767,2.773 4.791,2.983 0.425,0.087 2.997,0.45 2.997,0.45 0,0 -3.634,-1.921 -3.81,-2.408 z"
   id="path329" />

			<path
   style="fill:#c2d3e2"
   d="m 148.076,59.462 c -0.22,-0.464 -1.002,-1.221 -1.173,-1.319 -0.171,-0.098 -0.66,-0.073 -0.733,0.708 -0.073,0.782 1.197,2.296 1.075,3.151 -0.122,0.855 0.587,2.995 0.568,2.346 -0.085,-2.889 1.002,-3.147 0.953,-3.416 -0.048,-0.268 -0.47,-1.006 -0.69,-1.47 z"
   id="path330" />

			<path
   style="fill:#466d71"
   d="m 184.045,111.305 c -0.318,0.446 0.275,1.325 0.153,1.435 -0.122,0.11 -1.067,-0.253 -1.209,0.153 -0.134,0.385 0.586,1.24 0.476,1.264 -0.11,0.024 -1.136,-0.739 -1.414,-0.14 -0.122,0.263 0.265,0.763 0.204,0.812 -0.061,0.049 -0.824,-0.122 -0.629,0.757 0.083,0.373 0.641,1.368 0.641,1.368 l 3.176,-5.276 c 10e-4,-10e-4 -1.237,-0.599 -1.398,-0.373 z"
   id="path331" />

			<path
   style="fill:#c2d3e2"
   d="m 181.676,115.047 c -0.177,0.239 0.391,0.989 0.598,1.319 0.208,0.33 0.611,0.989 0.818,0.989 0.207,0 0.66,-0.33 0.66,-0.44 0,-0.11 -0.586,-0.916 -0.782,-1.209 -0.195,-0.293 -1.013,-1.038 -1.294,-0.659 z"
   id="path332" />

			<path
   style="fill:#c2d3e2"
   d="m 183.604,114.319 c -0.272,-0.252 -1.291,-0.814 -1.486,-0.358 -0.123,0.288 0.642,0.917 0.935,1.203 0.293,0.287 0.867,0.863 1.079,0.812 0.212,-0.051 0.594,-0.499 0.567,-0.611 -0.026,-0.112 -0.823,-0.794 -1.095,-1.046 z"
   id="path333" />

			<path
   style="fill:#c2d3e2"
   d="m 184.527,113.237 c -0.277,-0.257 -1.317,-0.831 -1.516,-0.365 -0.125,0.294 0.655,0.935 0.954,1.228 0.299,0.293 0.885,0.88 1.101,0.828 0.217,-0.052 0.606,-0.509 0.579,-0.624 -0.027,-0.115 -0.841,-0.81 -1.118,-1.067 z"
   id="path334" />

			<path
   style="fill:#c2d3e2"
   d="m 184.029,111.373 c -0.166,0.273 0.516,1.019 0.77,1.351 0.255,0.332 0.751,0.997 0.973,0.977 0.222,-0.021 0.672,-0.418 0.661,-0.535 -0.011,-0.118 -0.717,-0.921 -0.955,-1.215 -0.237,-0.295 -1.186,-1.011 -1.449,-0.578 z"
   id="path335" />

			<path
   style="fill:#c2d3e2"
   d="m 143.643,58.485 c -0.403,0.11 -0.647,0.562 -0.611,0.916 0.037,0.354 0.433,0.532 0.433,0.532 0.145,0.012 0.263,-0.483 1.655,-0.397 0.533,0.033 0.745,-0.318 0.708,-0.684 -0.036,-0.367 -1.782,-0.477 -2.185,-0.367 z"
   id="path336" />

			<path
   style="fill:#c2d3e2"
   d="m 145.365,60.146 c -0.391,-0.11 -1.815,-0.32 -1.979,-0.183 -0.525,0.44 -0.024,1.173 0.147,1.246 0.171,0.073 2.687,0.085 2.895,0.037 0.208,-0.049 0.244,-0.513 0.098,-0.696 -0.107,-0.134 -0.77,-0.294 -1.161,-0.404 z"
   id="path337" />

			<path
   style="fill:#c2d3e2"
   d="m 145.047,61.478 c -0.326,-0.067 -1.416,-0.312 -1.539,-0.183 -0.395,0.414 -0.207,1.158 -0.062,1.209 0.145,0.051 2.246,-0.069 2.411,-0.126 0.165,-0.056 0.161,-0.458 0.028,-0.605 -0.096,-0.106 -0.512,-0.228 -0.838,-0.295 z"
   id="path338" />

			<rect
   x="143.83099"
   y="173.94099"
   style="fill:#a6bcc5"
   width="34.409"
   height="5.0570002"
   id="rect338" />

			<path
   style="fill:#466d71"
   d="m 157.98,108.737 c -4.177,3.078 -10.364,9.311 -10.859,10.85 -0.198,0.617 -0.105,1.436 0.077,2.197 0.824,0.96 2.461,0.646 2.61,1.257 0.009,-0.44 0.153,-1.81 1.269,-5.157 0.724,-2.172 5.224,-5.746 8.101,-8.614 2.801,-2.792 3.99,-4.906 3.99,-4.906 0,0 -1.011,1.295 -5.188,4.373 z"
   id="path339" />

			<path
   style="fill:#466d71"
   d="m 148.523,133.315 c 0.452,1.072 1.069,2.006 1.308,3.309 l 0.092,-0.019 13.245,-30.097 c 0,0 -3.049,5.311 -5.639,9.285 -4.323,6.631 -9.005,17.521 -9.006,17.522 z"
   id="path340" />

			<path
   style="fill:#c2d3e2"
   d="m 144.174,55.755 c -0.183,-0.037 -0.989,1.227 -1.063,1.722 -0.073,0.495 0.385,1.136 0.385,1.136 l 0.635,-0.146 c 0,0 -0.016,-0.367 -0.025,-0.568 -0.009,-0.201 0.306,-0.751 0.38,-1.099 0.073,-0.348 -0.129,-1.008 -0.312,-1.045 z"
   id="path341" />

			<path
   style="fill:#466d71"
   d="m 153.087,84.332 -0.065,-0.15 c 0,0 -0.001,-0.002 -0.001,-0.003 -10e-4,0.006 -1.286,6.048 -1.994,7.602 -1.106,2.428 -3.16,3.239 -2.968,3.591 0.337,0.619 1.173,1.795 1.282,3.627 0.11,1.832 -0.749,3.173 -0.2,3.283 0.549,0.11 2.922,-3.243 3.879,-7.145 0.731,-2.981 1.257,-5.706 1.464,-6.826 -0.697,-0.688 -1.243,-1.211 -1.243,-1.211 0,0 0.34,-1.979 -0.154,-2.768 z"
   id="path342" />

		</g>
</g>
  </g>
</svg>
