<?xml version="1.0" encoding="UTF-8" standalone="no"?>
<!-- Created with Inkscape (http://www.inkscape.org/) -->

<svg
   width="39.450432mm"
   height="16.947886mm"
   viewBox="0 0 39.450435 16.947886"
   version="1.1"
   id="svg1"
   inkscape:version="1.4.2 (f4327f4, 2025-05-13)"
   sodipodi:docname="Tiananmen-33.76.svg"
   xmlns:inkscape="http://www.inkscape.org/namespaces/inkscape"
   xmlns:sodipodi="http://sodipodi.sourceforge.net/DTD/sodipodi-0.dtd"
   xmlns="http://www.w3.org/2000/svg"
   xmlns:svg="http://www.w3.org/2000/svg">
  <sodipodi:namedview
     id="namedview1"
     pagecolor="#ffffff"
     bordercolor="#000000"
     borderopacity="0.25"
     inkscape:showpageshadow="2"
     inkscape:pageopacity="0.0"
     inkscape:pagecheckerboard="0"
     inkscape:deskcolor="#d1d1d1"
     inkscape:document-units="mm"
     inkscape:zoom="4.9103816"
     inkscape:cx="59.873147"
     inkscape:cy="8.7569569"
     inkscape:window-width="2880"
     inkscape:window-height="1676"
     inkscape:window-x="-12"
     inkscape:window-y="-12"
     inkscape:window-maximized="1"
     inkscape:current-layer="g30" />
  <defs
     id="defs1" />
  <g
     inkscape:label="图层 1"
     inkscape:groupmode="layer"
     id="layer1"
     transform="translate(-181.43389,-188.74514)">
    <g
       id="g30"
       transform="matrix(0.26458333,0,0,0.26458333,149.64621,130.62585)">
		
		
		
		
		
		
		
			
		
		
		
	<g
   id="g28"
   transform="translate(-248.8906,-84.835543)">
			<g
   id="g27">
				<g
   id="g26">
					<path
   style="fill:#fd7d00"
   d="m 475.077,304.499 -2.356,3.32 H 443.586 414.45 l -2.357,-3.32 c -10.604,21.53 -34.384,19.602 -34.384,19.602 l 2.571,5.141 h 63.305 63.305 l 2.571,-5.141 c 0,0 -23.78,1.928 -34.384,-19.602 z"
   id="path23" />

					<polygon
   style="fill:#fd7d00"
   points="499.74,335.259 387.43,335.259 380.28,331.242 506.89,331.242 "
   id="polygon23" />

					<path
   style="fill:#fd7d00"
   d="M 499.74,337.258 H 443.585 387.43 c 0,0 -8.917,3.695 -18.397,2.089 0,0 1.285,4.177 6.266,6.105 h 68.286 68.286 c 4.981,-1.928 6.266,-6.105 6.266,-6.105 -9.479,1.607 -18.397,-2.089 -18.397,-2.089 z"
   id="path24" />

					<g
   id="g25">
						<rect
   x="379.85199"
   y="347.452"
   style="fill:#fd7d00"
   width="127.467"
   height="2.464"
   id="rect24" />

						<path
   style="fill:#fd7d00"
   d="m 379.852,351.915 v 11.569 h 2.785 v -6.641 c 0,-1.42 1.151,-2.571 2.571,-2.571 1.42,0 2.571,1.151 2.571,2.571 v 6.641 h 1.821 v -5.034 c 0,-2.307 1.87,-4.178 4.177,-4.178 2.307,0 4.177,1.87 4.177,4.178 v 5.034 h 2.892 v -5.034 c 0,-2.307 1.87,-4.178 4.177,-4.178 2.307,0 4.177,1.87 4.177,4.178 v 5.034 h 4.285 v -5.034 c 0,-2.307 1.87,-4.178 4.177,-4.178 v 0 c 2.307,0 4.177,1.87 4.177,4.178 v 5.034 h 2.999 v -5.034 c 0,-2.307 1.87,-4.178 4.178,-4.178 2.307,0 4.178,1.87 4.178,4.178 v 5.034 h 3.32 v -2.142 c 0,-3.905 3.165,-7.07 7.07,-7.07 3.905,0 7.07,3.165 7.07,7.07 v 2.142 h 3.32 v -5.034 c 0,-2.307 1.87,-4.178 4.177,-4.178 2.307,0 4.178,1.87 4.178,4.178 v 5.034 h 2.999 v -5.034 c 0,-2.307 1.87,-4.178 4.178,-4.178 v 0 c 2.307,0 4.177,1.87 4.177,4.178 v 5.034 h 4.285 v -5.034 c 0,-2.307 1.87,-4.178 4.177,-4.178 2.307,0 4.178,1.87 4.178,4.178 v 5.034 h 2.892 v -5.034 c 0,-2.307 1.87,-4.178 4.178,-4.178 2.307,0 4.177,1.87 4.177,4.178 v 5.034 h 1.821 v -6.641 c 0,-1.42 1.151,-2.571 2.571,-2.571 1.42,0 2.571,1.151 2.571,2.571 v 6.641 h 2.785 v -11.569 z"
   id="path25" />

					</g>

				</g>

				<polygon
   style="fill:#fd7d00"
   points="511.235,368.554 375.935,368.554 375.935,364.483 511.127,364.483 "
   id="polygon26" />

			</g>

		</g>
</g>
  </g>
</svg>
