<?xml version="1.0" encoding="UTF-8" standalone="no"?>
<!-- Created with Inkscape (http://www.inkscape.org/) -->

<svg
   width="25.384018mm"
   height="47.495045mm"
   viewBox="0 0 25.384016 47.495045"
   version="1.1"
   id="svg1"
   inkscape:version="1.4.2 (f4327f4, 2025-05-13)"
   sodipodi:docname="boy18.svg"
   xmlns:inkscape="http://www.inkscape.org/namespaces/inkscape"
   xmlns:sodipodi="http://sodipodi.sourceforge.net/DTD/sodipodi-0.dtd"
   xmlns:xlink="http://www.w3.org/1999/xlink"
   xmlns="http://www.w3.org/2000/svg"
   xmlns:svg="http://www.w3.org/2000/svg">
  <sodipodi:namedview
     id="namedview1"
     pagecolor="#ffffff"
     bordercolor="#000000"
     borderopacity="0.25"
     inkscape:showpageshadow="2"
     inkscape:pageopacity="0.0"
     inkscape:pagecheckerboard="0"
     inkscape:deskcolor="#d1d1d1"
     inkscape:document-units="mm"
     inkscape:zoom="1.2275954"
     inkscape:cx="-52.949042"
     inkscape:cy="-83.089266"
     inkscape:window-width="2880"
     inkscape:window-height="1676"
     inkscape:window-x="-12"
     inkscape:window-y="-12"
     inkscape:window-maximized="1"
     inkscape:current-layer="layer1" />
  <defs
     id="defs1">
    <clipPath
       id="SVGID_00000119818789281150872890000010399472127891452846_">
					<use
   xlink:href="#SVGID_1_"
   style="overflow:visible"
   id="use374" />

				</clipPath>
    <path
       id="SVGID_1_"
       d="m 372.545,399.307 c 0,0 -1.283,0 -3.26,0 -6.713,0 -19.791,0 -19.801,0 0,0.838 4.299,47.073 4.58,51.589 0.954,15.214 4.023,46.87 4.105,48.206 0,0 1.713,0.708 5.477,0 l 3.053,-47.784 3.107,-36.587 c 0,0 0.585,-1.01 1.11,-1.054 0.524,0.044 0.994,1.159 0.994,1.159 l 3.633,36.588 2.381,47.703 c 4.615,0.856 6.041,-0.025 6.041,-0.025 0.084,-1.336 2.072,-29.132 3.002,-48.613 1.178,-24.746 5.303,-50.712 5.303,-51.182 -0.01,0 -13.012,0 -19.725,0 z" />
  </defs>
  <g
     inkscape:label="图层 1"
     inkscape:groupmode="layer"
     id="layer1"
     transform="translate(-118.95519,-170.72766)">
    <g
       id="XMLID_729_"
       transform="matrix(0.26458333,0,0,0.26458333,24.54313,102.23546)">
			<path
   id="XMLID_778_"
   style="fill:#ffc8ac"
   d="m 423.47,369.939 c -3.987,-13.05 -8.881,-16.222 -9.243,-20.572 -0.339,-4.064 -0.435,-8.609 -0.435,-8.609 h -18.087 c 0,0 -0.096,4.546 -0.435,8.609 -0.362,4.351 -5.256,7.522 -9.243,20.572 -4.6,15.051 -5.935,31.356 -5.935,31.356 0,0 9.62,3.205 24.655,3.205 15.036,0 24.656,-3.205 24.656,-3.205 0,0 -1.334,-16.306 -5.933,-31.356 z" />

			<path
   id="XMLID_688_"
   style="fill:#002030"
   d="m 428.606,335.22 c 0,0 10.854,-0.765 14.393,-14.256 3.539,-13.492 3.633,-25.88 1.307,-33.162 -2.326,-7.282 -7.56,-8.723 -7.56,-8.723 0,0 2.529,-4.911 -5.893,-12.752 -5.358,-4.989 -35.963,-13.941 -54.018,0.004 -20.154,15.566 -14.643,36.945 -9.602,44.619 z" />

			<path
   id="XMLID_397_"
   style="fill:#002030"
   d="m 428.606,335.22 c 4.892,-3.627 12.708,-8.221 12.647,-36.542 h -9.617 z" />

			<path
   id="XMLID_777_"
   style="fill:#f49282"
   d="m 413.85,340.757 h -18.145 c 0,0 -0.078,3.674 -0.34,7.369 1.858,0.104 3.697,0.145 5.483,0.145 4.267,0 10.126,-1.47 13.107,-3.103 -0.163,-3.339 -0.105,-4.411 -0.105,-4.411 z" />

			<path
   id="XMLID_776_"
   style="fill:#ffc8ac"
   d="m 380.093,401.295 2.599,31.107 c 0,0 -4.795,1.415 -7.255,2.83 -2.459,1.415 -1.858,3.145 9.084,3.145 10.942,0 15.906,0 15.906,0 l 3.357,-37.081 h -23.691 z" />

			<path
   id="XMLID_775_"
   style="fill:#ffc8ac"
   d="m 429.471,401.295 -2.6,31.107 c 0,0 4.796,1.415 7.255,2.83 2.46,1.415 1.858,3.145 -9.084,3.145 -10.942,0 -15.906,0 -15.906,0 l -3.356,-37.081 h 23.691 z" />

			<path
   id="XMLID_413_"
   style="fill:#ffc8ac"
   d="m 394.891,351.652 c -2.893,-1.26 -7.893,0.396 -16.976,10.578 -2.618,2.935 -5.181,5.919 -7.684,8.953 -1.87,2.266 -3.708,4.559 -5.5,6.886 -0.659,0.855 -1.283,1.772 -2.109,2.479 -0.932,0.797 -2.148,1.104 -3.305,1.415 -0.726,0.194 -1.627,0.315 -2.178,0.877 -0.573,0.583 -0.292,1.451 0.434,1.738 0.78,0.309 1.746,0.104 2.565,0.167 0.139,0.011 0.274,0.057 0.358,0.166 0.13,0.166 -0.006,0.413 -0.09,0.539 -0.55,0.813 -0.893,1.222 -1.221,1.697 -0.533,0.773 -2.063,2.461 -1.393,3.475 0.264,0.398 0.973,0.534 1.328,0.362 0.575,-0.278 1.09,-0.664 1.564,-1.089 0.238,-0.215 0.468,-0.44 0.692,-0.668 0.182,-0.185 0.431,-0.524 0.73,-0.489 0.252,0.029 0.246,0.343 0.207,0.525 -0.045,0.211 -0.148,0.406 -0.252,0.593 -0.394,0.71 -0.851,1.409 -1.146,2.165 -0.144,0.367 -0.275,0.744 -0.309,1.136 -0.026,0.307 0.02,0.643 0.236,0.86 0.158,0.156 0.384,0.228 0.606,0.244 0.496,0.036 0.984,-0.179 1.373,-0.488 0.487,-0.388 0.875,-0.879 1.255,-1.367 0.396,-0.51 0.79,-1.023 1.206,-1.518 0.089,-0.105 0.195,-0.219 0.333,-0.227 0.149,-0.009 0.28,0.117 0.324,0.261 0.044,0.143 0.02,0.297 -0.014,0.443 -0.087,0.393 -0.265,0.719 -0.413,1.087 -0.154,0.382 -0.288,0.771 -0.402,1.167 -0.122,0.429 -0.23,0.9 -0.061,1.314 0.31,0.759 1.201,0.905 1.871,0.413 0.661,-0.487 2.105,-3.274 2.34,-3.705 1.444,-2.65 3.313,-5.031 5.065,-7.488 2.766,-3.875 9.23,-11.54 11.753,-13.777 z" />

			<path
   id="XMLID_412_"
   style="fill:#ffc8ac"
   d="m 414.714,351.652 c 2.893,-1.26 7.893,0.396 16.977,10.578 2.618,2.935 5.181,5.919 7.684,8.953 1.869,2.266 3.707,4.559 5.5,6.886 0.658,0.855 1.282,1.772 2.108,2.479 0.932,0.797 2.148,1.104 3.306,1.415 0.725,0.194 1.627,0.315 2.178,0.877 0.572,0.583 0.292,1.451 -0.434,1.738 -0.78,0.309 -1.746,0.104 -2.566,0.167 -0.138,0.011 -0.273,0.057 -0.358,0.166 -0.129,0.166 0.006,0.413 0.091,0.539 0.549,0.813 0.892,1.222 1.22,1.697 0.534,0.773 2.063,2.461 1.392,3.475 -0.263,0.398 -0.972,0.534 -1.328,0.362 -0.574,-0.278 -1.09,-0.664 -1.564,-1.089 -0.238,-0.215 -0.468,-0.44 -0.692,-0.668 -0.183,-0.185 -0.432,-0.524 -0.73,-0.489 -0.253,0.029 -0.247,0.343 -0.207,0.525 0.045,0.211 0.147,0.406 0.252,0.593 0.393,0.71 0.851,1.409 1.146,2.165 0.143,0.367 0.274,0.744 0.309,1.136 0.026,0.307 -0.02,0.643 -0.237,0.86 -0.157,0.156 -0.384,0.228 -0.605,0.244 -0.496,0.036 -0.984,-0.179 -1.374,-0.488 -0.486,-0.388 -0.874,-0.879 -1.254,-1.367 -0.397,-0.51 -0.791,-1.023 -1.207,-1.518 -0.089,-0.105 -0.194,-0.219 -0.332,-0.227 -0.149,-0.009 -0.28,0.117 -0.324,0.261 -0.044,0.143 -0.02,0.297 0.013,0.443 0.088,0.393 0.266,0.719 0.414,1.087 0.154,0.382 0.288,0.771 0.401,1.167 0.123,0.429 0.232,0.9 0.063,1.314 -0.31,0.759 -1.202,0.905 -1.871,0.413 -0.662,-0.487 -2.105,-3.274 -2.341,-3.705 -1.443,-2.65 -2.967,-5.293 -4.722,-7.748 -4.675,-6.545 -9.574,-11.28 -12.096,-13.517 z" />

			<path
   id="XMLID_411_"
   style="fill:#ea9565"
   d="m 380.09,401.295 c 0,11.12 2.6,31.107 2.6,31.107 0,0 -4.796,1.415 -7.255,2.83 -2.46,1.415 -1.858,3.145 9.084,3.145 10.941,0 15.906,0 15.906,0 l 3.357,-37.081 c -10e-4,-10e-4 -23.692,-11.121 -23.692,-10e-4 z" />

			<path
   id="XMLID_410_"
   style="fill:#d8794a"
   d="m 403.006,409.86 c -1.947,-0.299 -5.12,-1.442 -5.12,-1.442 l -1.841,23.983 h 4.921 z" />

			<path
   id="XMLID_408_"
   style="fill:#ea9565"
   d="m 429.468,401.295 c 0,11.12 -2.6,31.107 -2.6,31.107 0,0 4.796,1.415 7.256,2.83 2.459,1.415 1.858,3.145 -9.084,3.145 -10.942,0 -15.907,0 -15.907,0 l -3.356,-37.081 c -10e-4,-10e-4 23.691,-11.121 23.691,-10e-4 z" />

			<path
   id="XMLID_414_"
   style="fill:#ea9565"
   d="m 401.52,403.296 h 6.282 v 6.282 c -2.095,0.565 -4.189,0.565 -6.282,0 z" />

			<path
   id="XMLID_407_"
   style="fill:#49ae48"
   d="m 394.84,351.223 c -1.723,-1.949 -5.985,-2.609 -12.674,4.152 -6.689,6.761 -8.716,8.983 -8.716,8.983 0,0 1.986,8.407 11.573,11.394 z" />

			<path
   id="XMLID_405_"
   style="fill:#49ae48"
   d="m 414.657,351.223 c 1.723,-1.949 5.985,-2.609 12.674,4.152 6.689,6.761 8.716,8.983 8.716,8.983 0,0 -1.986,8.407 -11.573,11.394 z" />

			<path
   id="XMLID_404_"
   style="fill:#ffe568"
   d="m 423.468,369.939 c -3.408,-11.154 -7.477,-15.092 -8.813,-18.717 v 0 c -0.032,0.085 -1.651,4.233 -9.908,4.233 -8.251,0 -9.874,-4.143 -9.909,-4.232 -1.337,3.624 -5.404,7.562 -8.813,18.716 -4.599,15.051 -5.935,23.311 -5.935,31.356 0,0 9.62,3.205 24.656,3.205 15.036,0 24.656,-3.205 24.656,-3.205 0,-8.194 -1.336,-16.306 -5.934,-31.356 z" />

			<path
   id="XMLID_772_"
   style="fill:#002030"
   d="m 409.136,438.376 c 0,0 4.964,0 15.906,0 10.942,0 11.544,-1.729 9.084,-3.145 -2.459,-1.415 -7.255,-2.83 -7.255,-2.83 h -18.276 z" />

			<path
   id="XMLID_771_"
   style="fill:#002030"
   d="m 382.691,432.401 c 0,0 -4.795,1.415 -7.255,2.83 -2.459,1.415 -1.858,3.145 9.084,3.145 10.942,0 15.906,0 15.906,0 l 0.541,-5.975 z" />

			<path
   id="XMLID_766_"
   style="fill:#ffc8ac"
   d="m 400.848,342.79 c 9.636,0 20.877,-1.146 27.759,-7.57 6.883,-6.424 7.571,-22.941 3.441,-39.229 -4.129,-16.288 -19.959,-19.959 -31.2,-19.959 -11.241,0 -27.07,3.671 -31.2,19.959 -4.129,16.288 -3.466,30.71 4.119,37.878 6.842,6.465 17.446,8.921 27.081,8.921 z" />

			<path
   id="XMLID_742_"
   style="fill:#fca39a"
   d="m 369.915,325.121 c 0,-3.822 3.099,-6.921 6.921,-6.921 3.823,0 6.922,3.099 6.922,6.921 0,3.823 -3.099,6.922 -6.922,6.922 -3.822,0 -6.921,-3.099 -6.921,-6.922 z" />

			<path
   id="XMLID_741_"
   style="fill:#fca39a"
   d="m 417.794,325.121 c 0,-3.822 3.099,-6.921 6.921,-6.921 3.822,0 6.921,3.099 6.921,6.921 0,3.823 -3.099,6.922 -6.921,6.922 -3.822,0 -6.921,-3.099 -6.921,-6.922 z" />

			<path
   id="XMLID_491_"
   style="fill:#8e3257"
   d="m 409.601,329.839 c 0,0 -1.254,5.936 -8.397,5.992 -8.234,0.065 -8.689,-6.137 -8.689,-6.137 0,0 1.439,-0.057 8.078,0.033 4.53,0.061 9.008,0.112 9.008,0.112 z" />

			<path
   id="XMLID_490_"
   style="fill:#ee7ba5"
   d="m 401.203,335.831 c -1.967,0.016 -3.48,-0.332 -4.658,-0.861 1.203,-1.22 3.031,-2.036 5.108,-2.118 1.882,-0.074 3.609,0.467 4.882,1.402 -1.243,0.885 -2.957,1.559 -5.332,1.577 z" />

			<path
   id="XMLID_765_"
   style="fill:#fca39a"
   d="m 399.191,321.423 c -2.517,-0.085 -4.791,1.512 -4.776,2.26 0.034,1.748 8.953,2.105 8.857,0 -0.052,-1.176 -1.92,-2.188 -4.081,-2.26 z" />

			<g
   id="XMLID_763_">
				<path
   id="XMLID_764_"
   style="fill:#9e5147"
   d="m 394.188,324.153 c 1.582,-1.185 2.731,-2.365 4.888,-2.372 1.985,-0.008 3.042,1.059 4.128,2.536 0.186,0.254 0.666,0.264 0.617,-0.135 -0.547,-4.473 -8.571,-4.057 -9.725,-0.159 -0.015,0.051 0.016,0.187 0.092,0.13 z" />

			</g>

			<g
   id="XMLID_753_">
				<path
   id="XMLID_758_"
   style="fill:#ffffff"
   d="m 417.448,301.961 c -3.327,-0.011 -8.228,1.991 -9.643,6.775 -1.722,5.818 1.849,11.469 9.643,11.193 8.365,-0.296 11.323,-5.266 10.428,-9.879 -0.96,-4.941 -4.592,-8.071 -10.428,-8.089 z" />

				<g
   id="XMLID_756_">
					<path
   id="XMLID_757_"
   style="fill:#002030"
   d="m 407.671,309.761 c 1.556,-4.692 6.913,-7.591 11.685,-6.63 1.933,0.39 4.014,1.453 5.293,2.977 1.429,1.701 1.632,3.912 2.975,5.609 0.212,0.269 0.768,0.431 0.963,0.05 1.248,-2.439 -0.7,-5.615 -2.44,-7.373 -1.813,-1.833 -4.531,-3.059 -7.08,-3.354 -2.601,-0.301 -5.485,0.278 -7.705,1.694 -2.672,1.705 -3.438,3.928 -3.904,6.948 -0.027,0.171 0.148,0.275 0.213,0.079 z" />

				</g>

				<path
   id="XMLID_755_"
   style="fill:#19313a"
   d="m 408.371,312.434 c 0,-4.146 3.359,-7.506 7.505,-7.506 4.145,0 7.505,3.36 7.505,7.506 0,4.145 -3.359,7.505 -7.505,7.505 -4.146,0 -7.505,-3.361 -7.505,-7.505 z" />

				<path
   id="XMLID_754_"
   style="fill:#ffffff"
   d="m 409.916,311.751 c 0,-1.325 1.074,-2.399 2.399,-2.399 1.324,0 2.398,1.074 2.398,2.399 0,1.325 -1.074,2.399 -2.398,2.399 -1.325,0 -2.399,-1.074 -2.399,-2.399 z" />

			</g>

			<g
   id="XMLID_747_">
				<path
   id="XMLID_752_"
   style="fill:#ffffff"
   d="m 384.348,301.961 c 3.328,-0.011 8.228,1.991 9.643,6.775 1.722,5.818 -1.849,11.469 -9.643,11.193 -8.364,-0.296 -11.323,-5.266 -10.427,-9.879 0.96,-4.941 4.591,-8.071 10.427,-8.089 z" />

				<g
   id="XMLID_750_">
					<path
   id="XMLID_751_"
   style="fill:#002030"
   d="m 394.337,309.623 c -0.504,-3.125 -1.787,-5.565 -4.626,-7.195 -2.639,-1.515 -5.991,-1.855 -8.892,-0.992 -2.049,0.61 -4.145,1.757 -5.557,3.39 -1.425,1.648 -3.39,4.627 -1.992,6.739 0.227,0.343 0.788,0.655 1.077,0.202 0.903,-1.417 1.125,-3.101 2.013,-4.542 0.988,-1.606 2.372,-2.665 4.084,-3.43 5.259,-2.349 11.888,0.375 13.673,5.979 0.073,0.229 0.244,0 0.22,-0.151 z" />

				</g>

				<path
   id="XMLID_749_"
   style="fill:#19313a"
   d="m 393.426,312.434 c 0,-4.146 -3.36,-7.506 -7.506,-7.506 -4.145,0 -7.505,3.36 -7.505,7.506 0,4.145 3.36,7.505 7.505,7.505 4.145,0 7.506,-3.361 7.506,-7.505 z" />

				<path
   id="XMLID_748_"
   style="fill:#ffffff"
   d="m 384.644,311.751 c 0,-1.325 -1.074,-2.399 -2.4,-2.399 -1.326,0 -2.399,1.074 -2.399,2.399 0,1.325 1.074,2.399 2.399,2.399 1.325,0 2.4,-1.074 2.4,-2.399 z" />

			</g>

			<g
   id="XMLID_745_">
				<path
   id="XMLID_746_"
   style="fill:#002030"
   d="m 424.304,298.439 c 0.055,-0.16 0.087,-0.319 0.052,-0.483 -0.185,-0.841 -0.654,-1.461 -1.226,-2.09 -0.77,-0.847 -1.725,-1.525 -2.719,-2.083 -1.938,-1.086 -4.181,-1.636 -6.402,-1.517 -0.419,0.022 -0.849,0.071 -1.218,0.27 -0.479,0.258 -0.811,0.77 -0.852,1.313 -0.074,1.003 0.73,1.471 1.614,1.604 0.668,0.101 1.336,0.202 2.004,0.303 0.489,0.074 0.978,0.148 1.464,0.247 1.624,0.328 3.193,0.925 4.624,1.76 0.592,0.346 1.177,0.738 1.848,0.879 0.236,0.048 0.697,0.096 0.811,-0.203 z" />

			</g>

			<g
   id="XMLID_743_">
				<path
   id="XMLID_744_"
   style="fill:#002030"
   d="m 375.924,297.705 c -0.042,-0.164 -0.062,-0.324 -0.014,-0.485 0.249,-0.825 0.765,-1.407 1.383,-1.99 0.833,-0.784 1.838,-1.387 2.872,-1.866 2.016,-0.933 4.295,-1.309 6.5,-1.018 0.416,0.055 0.841,0.136 1.193,0.363 0.458,0.294 0.749,0.83 0.747,1.374 -0.003,1.006 -0.842,1.409 -1.733,1.475 -0.674,0.05 -1.348,0.099 -2.021,0.148 -0.493,0.036 -0.987,0.072 -1.479,0.133 -1.645,0.202 -3.255,0.676 -4.746,1.398 -0.617,0.298 -1.231,0.645 -1.91,0.733 -0.239,0.031 -0.702,0.043 -0.792,-0.265 z" />

			</g>

			<path
   id="XMLID_737_"
   style="fill:#ffc8ac"
   d="m 433.894,305.4 c 1.11,-3.536 5.978,-8.511 11.601,-6.348 5.624,2.163 6.922,10.599 3.785,16.871 -3.136,6.272 -11.692,8.57 -14.877,4.015 z" />

			<path
   id="XMLID_736_"
   style="fill:#9e5147"
   d="m 433.576,309.822 c -0.068,0.209 0.215,0.657 0.463,0.494 1.06,-0.696 1.816,-1.711 2.924,-2.338 1.198,-0.678 2.52,-0.872 3.853,-0.729 0.621,0.859 1.176,1.52 1.045,2.838 -0.113,1.143 -0.6,2.407 -1.391,3.25 -0.622,0.662 -1.561,0.856 -2.323,1.307 -0.059,0.034 -0.119,0.219 -0.02,0.242 3.615,0.882 6.04,-4.148 4.927,-7.063 2.04,0.86 3.729,2.569 3.62,4.959 -0.006,0.112 0.112,0.087 0.145,0.005 2.972,-7.489 -10.895,-10.127 -13.243,-2.965 z" />

			<path
   id="XMLID_398_"
   style="fill:#002030"
   d="m 432.767,299.053 c 0,0 -6.844,-5.691 -10.81,-17.5 l -1.45,0.604 c -13.449,5.598 -28.554,5.715 -42.088,0.325 v 0 c -1.84,2.199 -9.162,5.01 -11.184,28.469 0,0 -5.191,-20.24 4.157,-33.587 9.349,-13.347 25.872,-15.589 44.484,-12.24 12.502,2.25 26.086,12.085 25.377,33.555 -1.291,9.314 -6.121,14.603 -7.144,12.853 -1.023,-1.753 -0.845,-10.009 -1.342,-12.479 l 8.486,-0.375" />

			<g
   id="XMLID_689_">
				<path
   id="XMLID_690_"
   style="fill:#002030"
   d="m 444.01,277.092 c -1.399,-2.486 -6.926,-0.049 -7.915,1.686 -0.153,0.269 -0.404,0.787 -0.235,1.091 0.566,1.02 2.323,-0.791 2.682,-1.014 1.219,-0.758 3.881,-2.022 5.369,-1.547 0.127,0.042 0.146,-0.134 0.099,-0.216 z" />

			</g>

		</g>
  </g>
</svg>
