<?xml version="1.0" encoding="UTF-8" standalone="no"?>
<!-- Created with Inkscape (http://www.inkscape.org/) -->

<svg
   width="19.387278mm"
   height="52.793091mm"
   viewBox="0 0 19.387278 52.793096"
   version="1.1"
   id="svg1"
   inkscape:version="1.4.2 (f4327f4, 2025-05-13)"
   sodipodi:docname="girl8.svg"
   xmlns:inkscape="http://www.inkscape.org/namespaces/inkscape"
   xmlns:sodipodi="http://sodipodi.sourceforge.net/DTD/sodipodi-0.dtd"
   xmlns="http://www.w3.org/2000/svg"
   xmlns:svg="http://www.w3.org/2000/svg">
  <sodipodi:namedview
     id="namedview1"
     pagecolor="#ffffff"
     bordercolor="#000000"
     borderopacity="0.25"
     inkscape:showpageshadow="2"
     inkscape:pageopacity="0.0"
     inkscape:pagecheckerboard="0"
     inkscape:deskcolor="#d1d1d1"
     inkscape:document-units="mm"
     inkscape:zoom="1.2275954"
     inkscape:cx="-227.27358"
     inkscape:cy="-109.15649"
     inkscape:window-width="2880"
     inkscape:window-height="1676"
     inkscape:window-x="-12"
     inkscape:window-y="-12"
     inkscape:window-maximized="1"
     inkscape:current-layer="layer1" />
  <defs
     id="defs1">
    <clipPath
       clipPathUnits="userSpaceOnUse"
       id="clipPath119">
      <path
         d="m 2429.58,8528.87 v 0 l -1.54,4.27 c 7.66,35.49 -15.79,67.53 -15.79,67.53 10.47,20.59 15.22,39.01 16.15,55.3 95.03,81.21 245.93,222.7 239.94,298.46 -6.68,84.06 -297.09,299.7 -435.14,397.71 -1.96,12.33 -3.87,24.38 -5.72,36.02 -4.67,29.42 -8.97,56.5 -12.82,80.63 v 0 c 0,0 399.66,-281.36 528.14,-436.13 0,0 44.89,-42.39 44.81,-102.96 0,-4.99 -0.32,-10.11 -0.98,-15.34 -8.76,-68.62 -357.05,-385.49 -357.05,-385.49"
         transform="translate(0,2.5000001e-4)"
         id="path119" />
    </clipPath>
    <clipPath
       clipPathUnits="userSpaceOnUse"
       id="clipPath299">
      <path
         d="m 6622.23,11070.3 c 4.28,3.8 8.4,7.9 12.38,12.2 -0.48,-0.6 -0.96,-1.2 -1.45,-1.8 -3.23,-3.4 -6.57,-6.6 -10.01,-9.8 -0.22,-0.1 -0.44,-0.3 -0.66,-0.4 l -0.26,-0.2"
         transform="translate(0,2.5000001e-4)"
         id="path299" />
    </clipPath>
    <clipPath
       clipPathUnits="userSpaceOnUse"
       id="clipPath602">
      <path
         d="m 4237.98,3522.14 c 0,0 0,0.01 0,0.02 0,-0.01 0,-0.01 0,-0.02 m 0.01,0.2 c 0,0.1 0.01,0.2 0.01,0.3 0,-0.1 -0.01,-0.2 -0.01,-0.3"
         transform="translate(0,2.5000001e-4)"
         id="path602" />
    </clipPath>
  </defs>
  <g
     inkscape:label="图层 1"
     inkscape:groupmode="layer"
     id="layer1"
     transform="translate(-164.57068,-366.97685)">
    <g
       id="g190"
       transform="matrix(0.26458333,0,0,0.26458333,149.22941,301.72223)">
		<path
   style="fill:#e9a680"
   d="m 92.588,246.679 c 0,0 -20.667,-2.521 -30.159,29.217 -9.492,31.738 -5.679,50.722 30.159,50.722 35.838,0 35.245,-27.882 27.83,-51.76 -7.416,-23.878 -22.142,-27.882 -27.83,-28.179 z"
   id="path156" />

		<path
   style="fill:#f3ddc9"
   d="m 95.865,251.965 h -8.48 c -14.104,0 -24.789,24.181 -21.282,41.931 2.077,10.51 8.836,19.31 25.649,19.31 19.164,0 25.104,-11.432 25.923,-23.799 1.089,-16.43 -9.118,-37.442 -21.81,-37.442 z"
   id="path157" />

		<polygon
   style="fill:#f3ddc9"
   points="89.024,310.877 89.024,319.528 94.361,319.528 94.163,310.877 "
   id="polygon157" />

		<path
   style="fill:#f3ddc9"
   d="m 102.357,332.23 c 0,-16.758 -10.763,-17.028 -10.763,-17.028 0,0 -10.763,0.27 -10.763,17.028 0,16.758 -11.62,42.013 10.075,42.013 21.695,0 11.451,-25.255 11.451,-42.013 z"
   id="path158" />

		<polygon
   style="fill:#d2695c"
   points="78.076,368.217 81.485,437.658 85.478,437.658 91.812,371.483 "
   id="polygon158" />

		<polygon
   style="fill:#d2695c"
   points="105.111,368.217 101.702,437.658 97.709,437.658 91.375,371.483 "
   id="polygon159" />

		<path
   style="fill:#e9a680"
   d="m 62.805,284.615 c 0,0 24.107,-2.833 31.501,-31.695 7.055,19.478 25.908,28.526 25.908,28.526 0,0 -3.906,-31.518 -30.233,-31.518 -26.327,0 -24.119,28.303 -27.176,34.687 z"
   id="path159" />

		<g
   id="g171">
			<g
   id="g161">
				<path
   style="fill:#ffffff"
   d="m 82.931,290.526 c 0,1.905 -1.544,3.449 -3.449,3.449 -1.905,0 -3.449,-1.544 -3.449,-3.449 0,-1.905 1.544,-3.449 3.449,-3.449 1.904,0 3.449,1.544 3.449,3.449 z"
   id="path160" />

				<path
   style="fill:#5e4f44"
   d="m 77.077,290.526 c 0,1.328 1.076,2.404 2.404,2.404 1.328,0 2.404,-1.076 2.404,-2.404 0,-1.328 -1.076,-2.404 -2.404,-2.404 -1.327,0 -2.404,1.077 -2.404,2.404 z"
   id="path161" />

			</g>

			<g
   id="g163">
				<path
   style="fill:#ffffff"
   d="m 108.535,290.526 c 0,1.905 -1.544,3.449 -3.449,3.449 -1.905,0 -3.449,-1.544 -3.449,-3.449 0,-1.905 1.544,-3.449 3.449,-3.449 1.905,0 3.449,1.544 3.449,3.449 z"
   id="path162" />

				<path
   style="fill:#5e4f44"
   d="m 102.682,290.526 c 0,1.328 1.076,2.404 2.404,2.404 1.328,0 2.404,-1.076 2.404,-2.404 0,-1.328 -1.076,-2.404 -2.404,-2.404 -1.328,0 -2.404,1.077 -2.404,2.404 z"
   id="path163" />

			</g>

			<path
   style="fill:none;stroke:#e9a680;stroke-width:0.9942;stroke-miterlimit:10"
   d="m 85.643,296.88 c 0,0 5.881,4.035 13.514,0"
   id="path164" />

			<circle
   style="fill:#f3ddc9"
   cx="66.248001"
   cy="295.48999"
   r="5.8530002"
   id="circle164" />

			<path
   style="fill:#e6c9b0"
   d="m 89.176,295.49 h 5.554 c 0,0 -0.288,-2.56 -2.777,-2.56 -2.489,0 -2.777,2.56 -2.777,2.56 z"
   id="path165" />

			<path
   style="fill:none;stroke:#e48878;stroke-width:0.9942;stroke-miterlimit:10"
   d="m 76.032,284.891 c 0,0 2.086,-2.197 6.899,-2.197"
   id="path166" />

			<path
   style="fill:none;stroke:#e48878;stroke-width:0.9942;stroke-miterlimit:10"
   d="m 108.535,284.891 c 0,0 -2.086,-2.197 -6.899,-2.197"
   id="path167" />

			<circle
   style="fill:#e6c9b0"
   cx="66.248001"
   cy="295.48999"
   r="2.5769999"
   id="circle167" />

			<circle
   style="fill:#f3ddc9"
   cx="117.637"
   cy="295.48999"
   r="5.8530002"
   id="circle168" />

			<circle
   style="fill:#e6c9b0"
   cx="117.637"
   cy="295.48999"
   r="2.5769999"
   id="circle169" />

			<circle
   style="fill:#e9b9c9"
   cx="74.022003"
   cy="294.51199"
   r="1.901"
   id="circle170" />

			<circle
   style="fill:#e9b9c9"
   cx="109.883"
   cy="294.51199"
   r="1.901"
   id="circle171" />

		</g>

		<path
   style="fill:#f3ddc9"
   d="m 89.56,315.202 c 0,0 -8.958,0.647 -16.612,21.352 -7.653,20.705 -2.881,39.62 -2.881,39.62 h 2.248 c 0,0 -2.455,-29.575 16.611,-51.757"
   id="path171" />

		<path
   style="fill:#f3ddc9"
   d="m 84.835,325.321 c 0,0 10.034,7.254 26.856,-7.729 16.484,-14.682 17.484,-33.614 17.484,-33.614 h -3.578 c 0,0 -6.85,32.852 -32.171,31.16"
   id="path172" />

		<polygon
   style="fill:#f2e2e2"
   points="105.086,313.582 106.889,311.195 111.109,320.069 108.535,320.211 "
   id="polygon172" />

		<polyline
   style="fill:#f2e2e2"
   points="75.145,331.204 72.121,333.145 80.157,339.447 80.79,336.499   "
   id="polyline172" />

		<path
   style="fill:#f2e2e2"
   d="m 78.076,366.887 -1.577,3.92 c 0,0 13.718,7.747 30.353,0 0.336,0 -1.742,-4.368 -1.742,-4.368 z"
   id="path173" />

		<path
   style="fill:#e9b9c9"
   d="m 89.024,315.304 c 0,0 -0.992,4.998 2.816,7.574 3.325,-2.199 2.421,-7.702 2.421,-7.702 0,0 6.723,-1.866 10.824,-1.594 0.048,-0.015 3.449,6.629 3.449,6.629 0,0 -3.363,3.554 -6.051,4.786 5.264,26.657 2.626,41.442 2.626,41.442 0,0 -9.553,6.496 -27.034,0.448 -1.465,-13.329 2.714,-30.388 2.714,-30.388 0,0 -3.08,-1.216 -5.645,-5.295 0.907,-7.215 7.475,-15.513 13.88,-15.9 z"
   id="path174" />

		<g
   id="g176">
			<path
   style="fill:#e9b9c9"
   d="m 85.527,437.832 0.091,-1.333 -4.104,0.584 c 0,0 -2.827,1.438 -4.903,3.562 l 2.572,2.377 z"
   id="path175" />

			<path
   style="fill:#f2e2e2"
   d="m 79.183,443.022 -2.572,-2.377 c -1.266,1.295 -2.253,2.845 -2.147,4.483 0.28,4.322 10.993,-6.269 10.993,-6.269 l 0.07,-1.027 z"
   id="path176" />

		</g>

		<g
   id="g178">
			<path
   style="fill:#e9b9c9"
   d="m 97.581,437.832 -0.091,-1.333 4.104,0.584 c 0,0 2.827,1.438 4.903,3.562 l -2.572,2.377 z"
   id="path177" />

			<path
   style="fill:#f2e2e2"
   d="m 103.925,443.022 2.572,-2.377 c 1.266,1.295 2.253,2.845 2.147,4.483 -0.28,4.322 -10.993,-6.269 -10.993,-6.269 l -0.07,-1.027 z"
   id="path178" />

		</g>

		<path
   style="fill:#f3ddc9"
   d="m 69.55,373.599 c 1.443,-0.576 3.105,-0.043 4.096,1.261 0.353,0.464 0.696,1.072 0.98,1.865 1.111,3.098 0.577,3.079 0.179,3.156 -0.398,0.076 -1.095,-0.631 -1.603,-2.687 0.499,5.283 0.595,6.244 -0.308,6.359 -0.918,0.116 -1.35,-4.636 -1.35,-4.636 0,0 0.016,4.861 -0.55,5.243 -0.566,0.382 -1.176,-0.339 -1.119,-1.961 0.057,-1.622 0.042,-3.119 0.042,-3.119 0,0 -0.304,4.1 -0.912,4.38 -0.531,0.245 -1.137,-0.12 -0.814,-2.411 0.179,-1.27 0.339,-2.234 0.339,-2.234 0,0 -0.551,2.676 -1.138,2.549 -0.57,-0.123 -0.662,-1.312 0.033,-4.417 0.131,-0.582 0.307,-1.156 0.558,-1.687 0.399,-0.847 0.865,-1.38 1.567,-1.661 z"
   id="path179" />

		<path
   style="fill:#f3ddc9"
   d="m 128.642,285.311 c -1.443,0.577 -3.105,0.044 -4.096,-1.261 -0.353,-0.464 -0.696,-1.072 -0.98,-1.864 -1.111,-3.099 -0.577,-3.079 -0.179,-3.156 0.398,-0.076 1.095,0.631 1.603,2.687 -0.499,-5.283 -0.595,-6.244 0.308,-6.359 0.918,-0.116 1.35,4.636 1.35,4.636 0,0 -0.016,-4.862 0.55,-5.243 0.566,-0.381 1.176,0.339 1.119,1.961 -0.057,1.622 -0.042,3.119 -0.042,3.119 0,0 0.304,-4.1 0.911,-4.38 0.531,-0.245 1.137,0.12 0.814,2.411 -0.179,1.27 -0.339,2.234 -0.339,2.234 0,0 0.551,-2.676 1.138,-2.549 0.57,0.123 0.663,1.312 -0.033,4.417 -0.13,0.582 -0.307,1.156 -0.558,1.687 -0.398,0.846 -0.864,1.38 -1.566,1.66 z"
   id="path180" />

		<path
   style="fill:#ffffff"
   d="m 91.947,353.887 c 0,0 -7.79,-8.734 -7.955,-18.848 -0.165,-10.114 5.192,-7.317 7.961,-3.614 3.345,-4.114 7.508,-4.796 7.919,0.441 0.411,5.236 -1.945,13.547 -7.925,22.021 z"
   id="path181" />

		<path
   style="fill:#f2e2e2"
   d="m 89.024,314.271 -1.627,-0.574 c 0,0 -1.76,8.036 4.556,11.007 5.506,-3.613 4.29,-11.15 4.29,-11.15 l -2.001,0.813 c 0,0 0.345,4.87 -2.153,7.434 -3.274,-2.972 -3.065,-7.53 -3.065,-7.53 z"
   id="path182" />

		<polygon
   style="fill:#e48878"
   points="81.064,434.858 86.073,434.638 85.81,437.658 81.064,437.31 "
   id="polygon182" />

		<polygon
   style="fill:#e48878"
   points="97.102,434.858 102.111,435.254 102.111,437.312 97.322,438.154 "
   id="polygon183" />

		<path
   style="fill:#d2695c"
   d="m 65.431,280.91 c 0,0 4.75,-25.565 26.969,-25.565 22.219,0 25.237,27.24 25.237,27.24 0,0 -0.538,-31.234 -25.237,-31.234 -24.698,0 -26.969,29.559 -26.969,29.559 z"
   id="path183" />

		<path
   style="fill:#e9a680"
   d="m 86.651,291.275 c 0,-0.271 -0.22,-0.491 -0.491,-0.491 -0.271,0 -0.491,0.22 -0.491,0.491 0,0.271 0.22,0.491 0.491,0.491 0.271,0 0.491,-0.22 0.491,-0.491 z"
   id="path184" />

		<path
   style="fill:#e9a680"
   d="m 95.34,289.964 c 0,-0.271 -0.22,-0.491 -0.491,-0.491 -0.271,0 -0.491,0.22 -0.491,0.491 0,0.271 0.22,0.491 0.491,0.491 0.271,0 0.491,-0.22 0.491,-0.491 z"
   id="path185" />

		<path
   style="fill:#e9a680"
   d="m 92.444,291.275 c 0,-0.271 -0.22,-0.491 -0.491,-0.491 -0.271,0 -0.491,0.22 -0.491,0.491 0,0.271 0.22,0.491 0.491,0.491 0.271,0 0.491,-0.22 0.491,-0.491 z"
   id="path186" />

		<path
   style="fill:#e9a680"
   d="m 98.237,291.275 c 0,-0.271 -0.22,-0.491 -0.491,-0.491 -0.271,0 -0.491,0.22 -0.491,0.491 0,0.271 0.22,0.491 0.491,0.491 0.271,0 0.491,-0.22 0.491,-0.491 z"
   id="path187" />

		<path
   style="fill:#e9a680"
   d="m 89.547,289.964 c 0,-0.271 -0.22,-0.491 -0.491,-0.491 -0.271,0 -0.491,0.22 -0.491,0.491 0,0.271 0.22,0.491 0.491,0.491 0.271,0 0.491,-0.22 0.491,-0.491 z"
   id="path188" />

		<path
   style="fill:#f6e290"
   d="m 72.054,373.942 h -2.753 c -0.387,0 -0.704,-0.317 -0.704,-0.704 v 0 c 0,-0.387 0.317,-0.704 0.704,-0.704 h 2.753 c 0.387,0 0.704,0.317 0.704,0.704 v 0 c 0,0.387 -0.316,0.704 -0.704,0.704 z"
   id="path189" />

		<path
   style="fill:#abcff1"
   d="m 72.406,372.67 h -3.457 c -0.194,0 -0.352,-0.158 -0.352,-0.352 v 0 c 0,-0.194 0.158,-0.352 0.352,-0.352 h 3.457 c 0.194,0 0.352,0.158 0.352,0.352 v 0 c 0,0.194 -0.158,0.352 -0.352,0.352 z"
   id="path190" />

	</g>
  </g>
</svg>
