<?xml version="1.0" encoding="UTF-8" standalone="no"?>
<!-- Created with Inkscape (http://www.inkscape.org/) -->

<svg
   width="25.4932mm"
   height="48.429733mm"
   viewBox="0 0 25.493198 48.429734"
   version="1.1"
   id="svg1"
   inkscape:version="1.4.2 (f4327f4, 2025-05-13)"
   sodipodi:docname="boy17.svg"
   xmlns:inkscape="http://www.inkscape.org/namespaces/inkscape"
   xmlns:sodipodi="http://sodipodi.sourceforge.net/DTD/sodipodi-0.dtd"
   xmlns:xlink="http://www.w3.org/1999/xlink"
   xmlns="http://www.w3.org/2000/svg"
   xmlns:svg="http://www.w3.org/2000/svg">
  <sodipodi:namedview
     id="namedview1"
     pagecolor="#ffffff"
     bordercolor="#000000"
     borderopacity="0.25"
     inkscape:showpageshadow="2"
     inkscape:pageopacity="0.0"
     inkscape:pagecheckerboard="0"
     inkscape:deskcolor="#d1d1d1"
     inkscape:document-units="mm"
     inkscape:zoom="1.2275954"
     inkscape:cx="-65.168051"
     inkscape:cy="-78.201662"
     inkscape:window-width="2880"
     inkscape:window-height="1676"
     inkscape:window-x="-12"
     inkscape:window-y="-12"
     inkscape:window-maximized="1"
     inkscape:current-layer="layer1" />
  <defs
     id="defs1">
    <clipPath
       id="SVGID_00000119818789281150872890000010399472127891452846_">
					<use
   xlink:href="#SVGID_1_"
   style="overflow:visible"
   id="use374" />

				</clipPath>
    <path
       id="SVGID_1_"
       d="m 372.545,399.307 c 0,0 -1.283,0 -3.26,0 -6.713,0 -19.791,0 -19.801,0 0,0.838 4.299,47.073 4.58,51.589 0.954,15.214 4.023,46.87 4.105,48.206 0,0 1.713,0.708 5.477,0 l 3.053,-47.784 3.107,-36.587 c 0,0 0.585,-1.01 1.11,-1.054 0.524,0.044 0.994,1.159 0.994,1.159 l 3.633,36.588 2.381,47.703 c 4.615,0.856 6.041,-0.025 6.041,-0.025 0.084,-1.336 2.072,-29.132 3.002,-48.613 1.178,-24.746 5.303,-50.712 5.303,-51.182 -0.01,0 -13.012,0 -19.725,0 z" />
  </defs>
  <g
     inkscape:label="图层 1"
     inkscape:groupmode="layer"
     id="layer1"
     transform="translate(-122.13019,-169.40475)">
    <g
       id="XMLID_493_"
       transform="matrix(0.26458333,0,0,0.26458333,107.97822,101.84353)">
			<path
   id="XMLID_543_"
   style="fill:#ffc8ac"
   d="m 120.538,369.953 c -3.988,-13.051 -8.881,-16.222 -9.244,-20.572 -0.338,-4.064 -0.434,-8.609 -0.434,-8.609 H 92.772 c 0,0 -0.095,4.545 -0.434,8.609 -0.362,4.351 -5.256,7.521 -9.244,20.572 -4.599,15.051 -5.935,31.357 -5.935,31.357 0,0 9.62,3.205 24.656,3.205 15.036,0 24.656,-3.205 24.656,-3.205 0,0 -1.335,-16.306 -5.933,-31.357 z" />

			<path
   id="XMLID_687_"
   style="fill:#cc5440"
   d="m 131.67,276.046 c 0,0 6.503,1.288 9.488,10.045 2.985,8.757 6.208,41.755 -15.484,49.144 z" />

			<g
   id="XMLID_694_">
				<path
   id="XMLID_695_"
   style="fill:#cc5440"
   d="m 131.43,266.109 c 1.444,1.206 1.62,4.406 1.433,6.042 -0.194,1.705 -0.914,2.56 -2.001,3.853 -0.547,0.651 -0.613,0.561 -0.884,1.335 -0.118,0.336 0.386,0.579 0.646,0.49 3.05,-1.037 3.935,-5.152 3.382,-7.933 -0.273,-1.373 -0.916,-3.743 -2.51,-4.113 -0.164,-0.038 -0.147,0.258 -0.066,0.326 z" />

			</g>

			<path
   id="XMLID_693_"
   style="fill:#cc5440"
   d="m 139.008,276.17 c -0.905,-2.706 -6.793,-1.354 -8.092,0.164 -0.201,0.234 -0.545,0.696 -0.437,1.027 0.364,1.108 2.431,-0.339 2.825,-0.49 1.34,-0.515 4.192,-1.255 5.564,-0.508 0.118,0.065 0.17,-0.103 0.14,-0.193 z" />

			<path
   id="XMLID_685_"
   style="fill:#cc5440"
   d="m 131.67,276.046 c 0,0 0.327,-14.593 -20.593,-19.12 -22.655,-4.901 -39.71,1.959 -50.568,15.942 -8.752,11.271 -11.217,37.296 3.793,38.097 15.009,0.801 67.368,-34.919 67.368,-34.919 z" />

			<path
   id="XMLID_542_"
   style="fill:#cc5440"
   d="m 125.674,335.234 c 4.892,-3.627 12.707,-8.221 12.646,-36.542 h -9.617 z" />

			<path
   id="XMLID_541_"
   style="fill:#f49282"
   d="M 110.917,340.772 H 92.772 c 0,0 -0.078,3.674 -0.339,7.369 1.857,0.104 3.698,0.145 5.482,0.145 4.266,0 10.126,-1.47 13.108,-3.103 -0.163,-3.339 -0.106,-4.411 -0.106,-4.411 z" />

			<path
   id="XMLID_540_"
   style="fill:#ffc8ac"
   d="m 77.16,401.31 2.6,31.106 c 0,0 -4.796,1.415 -7.255,2.83 -2.459,1.415 -1.858,3.145 9.084,3.145 10.942,0 15.907,0 15.907,0 l 3.357,-37.081 z" />

			<path
   id="XMLID_539_"
   style="fill:#ffc8ac"
   d="m 126.538,401.31 -2.6,31.106 c 0,0 4.796,1.415 7.255,2.83 2.46,1.415 1.858,3.145 -9.084,3.145 -10.942,0 -15.907,0 -15.907,0 l -3.356,-37.081 z" />

			<path
   id="XMLID_546_"
   style="fill:#9dd7f0"
   d="m 77.157,401.31 c 0,4.845 0.494,11.372 1.051,17.197 h 21.084 l 1.557,-17.197 c 0,0 -23.692,-11.12 -23.692,0 z" />

			<path
   id="XMLID_545_"
   style="opacity:0.5;fill:#588bc8"
   d="m 99.292,418.507 0.781,-8.632 c -1.947,-0.299 -5.12,-1.442 -5.12,-1.442 l -0.773,10.074 z" />

			<path
   id="XMLID_547_"
   style="fill:#9dd7f0"
   d="m 102.844,401.31 1.557,17.197 h 21.084 c 0.557,-5.825 1.05,-12.353 1.05,-17.197 0,-11.12 -23.691,0 -23.691,0 z" />

			<path
   id="XMLID_538_"
   style="fill:#ffc8ac"
   d="m 91.958,351.667 c -2.894,-1.26 -7.893,0.396 -16.976,10.577 -2.618,2.936 -5.181,5.92 -7.684,8.954 -1.87,2.266 -3.708,4.559 -5.5,6.886 -0.659,0.855 -1.283,1.772 -2.109,2.479 -0.931,0.797 -2.148,1.104 -3.305,1.414 -0.725,0.195 -1.628,0.316 -2.178,0.878 -0.573,0.583 -0.291,1.451 0.434,1.738 0.78,0.309 1.746,0.104 2.566,0.167 0.138,0.011 0.274,0.057 0.358,0.166 0.129,0.166 -0.006,0.413 -0.091,0.539 -0.549,0.813 -0.892,1.222 -1.22,1.697 -0.534,0.773 -2.063,2.461 -1.393,3.475 0.263,0.397 0.972,0.534 1.328,0.362 0.575,-0.278 1.09,-0.664 1.564,-1.089 0.239,-0.215 0.468,-0.439 0.693,-0.668 0.182,-0.186 0.431,-0.524 0.73,-0.489 0.252,0.029 0.246,0.343 0.207,0.525 -0.045,0.211 -0.148,0.406 -0.252,0.593 -0.394,0.709 -0.851,1.409 -1.146,2.165 -0.144,0.367 -0.275,0.743 -0.309,1.136 -0.026,0.306 0.02,0.642 0.237,0.859 0.157,0.157 0.384,0.229 0.605,0.245 0.496,0.035 0.984,-0.179 1.374,-0.488 0.487,-0.388 0.875,-0.879 1.254,-1.367 0.396,-0.51 0.791,-1.023 1.206,-1.518 0.089,-0.105 0.195,-0.219 0.333,-0.227 0.15,-0.009 0.28,0.117 0.324,0.261 0.044,0.143 0.019,0.297 -0.013,0.443 -0.087,0.393 -0.265,0.719 -0.414,1.087 -0.154,0.382 -0.288,0.771 -0.401,1.167 -0.123,0.429 -0.231,0.9 -0.062,1.313 0.311,0.759 1.202,0.905 1.871,0.413 0.662,-0.487 2.105,-3.274 2.34,-3.705 1.444,-2.65 3.313,-5.031 5.065,-7.488 2.765,-3.875 9.23,-11.54 11.752,-13.777 z" />

			<path
   id="XMLID_537_"
   style="fill:#ffc8ac"
   d="m 111.782,351.667 c 2.894,-1.26 7.893,0.396 16.976,10.577 2.618,2.936 5.181,5.92 7.684,8.954 1.87,2.266 3.708,4.559 5.5,6.886 0.658,0.855 1.283,1.772 2.109,2.479 0.931,0.797 2.148,1.104 3.305,1.414 0.725,0.195 1.627,0.316 2.178,0.878 0.573,0.583 0.292,1.451 -0.434,1.738 -0.78,0.309 -1.746,0.104 -2.565,0.167 -0.138,0.011 -0.274,0.057 -0.359,0.166 -0.129,0.166 0.006,0.413 0.091,0.539 0.549,0.813 0.892,1.222 1.22,1.697 0.534,0.773 2.063,2.461 1.392,3.475 -0.263,0.397 -0.972,0.534 -1.328,0.362 -0.575,-0.278 -1.09,-0.664 -1.564,-1.089 -0.239,-0.215 -0.468,-0.439 -0.693,-0.668 -0.182,-0.186 -0.431,-0.524 -0.729,-0.489 -0.252,0.029 -0.246,0.343 -0.207,0.525 0.045,0.211 0.148,0.406 0.252,0.593 0.394,0.709 0.851,1.409 1.146,2.165 0.144,0.367 0.275,0.743 0.309,1.136 0.026,0.306 -0.02,0.642 -0.237,0.859 -0.157,0.157 -0.384,0.229 -0.605,0.245 -0.496,0.035 -0.984,-0.179 -1.374,-0.488 -0.487,-0.388 -0.875,-0.879 -1.254,-1.367 -0.396,-0.51 -0.791,-1.023 -1.207,-1.518 -0.089,-0.105 -0.195,-0.219 -0.333,-0.227 -0.149,-0.009 -0.28,0.117 -0.324,0.261 -0.044,0.143 -0.02,0.297 0.013,0.443 0.088,0.393 0.266,0.719 0.414,1.087 0.154,0.382 0.288,0.771 0.401,1.167 0.123,0.429 0.231,0.9 0.063,1.313 -0.311,0.759 -1.202,0.905 -1.871,0.413 -0.662,-0.487 -2.106,-3.274 -2.34,-3.705 -1.444,-2.65 -2.968,-5.293 -4.722,-7.748 -4.675,-6.545 -9.574,-11.28 -12.097,-13.518 z" />

			<path
   id="XMLID_533_"
   style="fill:#9dd7f0"
   d="m 98.587,403.31 h 6.282 v 6.282 c -2.094,0.565 -4.188,0.565 -6.282,0 z" />

			<path
   id="XMLID_532_"
   style="fill:#315095"
   d="m 91.907,351.236 c -1.723,-1.948 -5.985,-2.608 -12.674,4.153 -6.689,6.761 -8.715,8.983 -8.715,8.983 0,0 1.986,8.407 11.572,11.394 z" />

			<path
   id="XMLID_531_"
   style="fill:#315095"
   d="m 111.725,351.236 c 1.723,-1.948 5.985,-2.608 12.674,4.153 6.689,6.761 8.715,8.983 8.715,8.983 0,0 -1.986,8.407 -11.573,11.394 z" />

			<path
   id="XMLID_530_"
   style="fill:#e73555"
   d="m 120.535,369.953 c -3.408,-11.154 -7.476,-15.092 -8.813,-18.717 v 0 c -0.032,0.084 -1.651,4.233 -9.909,4.233 -8.251,0 -9.874,-4.143 -9.909,-4.233 -1.337,3.625 -5.405,7.563 -8.813,18.717 -4.599,15.051 -5.935,23.311 -5.935,31.357 0,0 9.62,3.205 24.656,3.205 15.036,0 24.656,-3.205 24.656,-3.205 10e-4,-8.195 -1.334,-16.306 -5.933,-31.357 z" />

			<path
   id="XMLID_529_"
   style="fill:#002030"
   d="m 106.203,438.391 c 0,0 4.964,0 15.907,0 10.942,0 11.543,-1.729 9.084,-3.145 -2.459,-1.415 -7.255,-2.83 -7.255,-2.83 h -18.276 z" />

			<path
   id="XMLID_528_"
   style="fill:#002030"
   d="m 79.759,432.416 c 0,0 -4.796,1.415 -7.255,2.83 -2.459,1.415 -1.858,3.145 9.084,3.145 10.942,0 15.907,0 15.907,0 l 0.541,-5.975 z" />

			<path
   id="XMLID_527_"
   style="fill:#ffc8ac"
   d="m 97.915,342.805 c 9.636,0 20.877,-1.146 27.759,-7.57 6.882,-6.424 7.57,-22.941 3.441,-39.229 -4.129,-16.288 -19.958,-19.959 -31.2,-19.959 -11.241,0 -27.07,3.671 -31.2,19.959 -4.129,16.288 -3.441,32.806 3.441,39.229 6.883,6.423 18.124,7.57 27.759,7.57 z" />

			<path
   id="XMLID_500_"
   style="fill:#fca39a"
   d="m 65.583,325.136 c 0,-3.822 3.099,-6.921 6.921,-6.921 3.823,0 6.921,3.099 6.921,6.921 0,3.822 -3.099,6.922 -6.921,6.922 -3.822,0 -6.921,-3.1 -6.921,-6.922 z" />

			<path
   id="XMLID_499_"
   style="fill:#fca39a"
   d="m 114.861,325.136 c 0,-3.822 3.099,-6.921 6.921,-6.921 3.822,0 6.921,3.099 6.921,6.921 0,3.822 -3.099,6.922 -6.921,6.922 -3.822,0 -6.921,-3.1 -6.921,-6.922 z" />

			<path
   id="XMLID_686_"
   style="fill:#cc5440"
   d="m 119.023,281.567 c 0,0 1.345,12.714 4.688,16.974 3.343,4.259 -15.123,3.378 -19.264,-11.227 0,0 2.746,11.684 0.074,13.456 -2.672,1.773 -22.48,2.06 -29.036,-18.273 z" />

			<path
   id="XMLID_524_"
   style="fill:#fca39a"
   d="m 96.259,321.436 c -2.517,-0.085 -4.791,1.513 -4.777,2.261 0.035,1.748 8.953,2.105 8.858,0 -0.053,-1.175 -1.921,-2.187 -4.081,-2.261 z" />

			<g
   id="XMLID_522_">
				<path
   id="XMLID_523_"
   style="fill:#9e5147"
   d="m 91.255,324.168 c 1.582,-1.186 2.731,-2.365 4.888,-2.372 1.985,-0.008 3.041,1.06 4.127,2.536 0.186,0.254 0.667,0.264 0.618,-0.135 -0.548,-4.473 -8.572,-4.057 -9.725,-0.159 -0.015,0.051 0.017,0.186 0.092,0.13 z" />

			</g>

			<g
   id="XMLID_513_">
				<path
   id="XMLID_520_"
   style="fill:#ffffff"
   d="m 114.516,301.976 c -3.328,-0.011 -8.228,1.991 -9.643,6.774 -1.722,5.819 1.849,11.47 9.643,11.194 8.365,-0.296 11.323,-5.266 10.427,-9.879 -0.96,-4.941 -4.591,-8.071 -10.427,-8.089 z" />

				<g
   id="XMLID_518_">
					<path
   id="XMLID_519_"
   style="fill:#002030"
   d="m 104.739,309.775 c 1.555,-4.692 6.913,-7.591 11.685,-6.63 1.932,0.39 4.013,1.453 5.293,2.977 1.429,1.701 1.632,3.912 2.974,5.609 0.213,0.269 0.768,0.431 0.963,0.049 1.248,-2.438 -0.699,-5.614 -2.439,-7.372 -1.814,-1.833 -4.531,-3.059 -7.08,-3.354 -2.601,-0.301 -5.485,0.278 -7.706,1.694 -2.672,1.705 -3.437,3.928 -3.904,6.948 -0.027,0.171 0.149,0.276 0.214,0.079 z" />

				</g>

				<path
   id="XMLID_515_"
   style="fill:#19313a"
   d="m 105.438,312.447 c 0,-4.145 3.36,-7.505 7.505,-7.505 4.145,0 7.505,3.36 7.505,7.505 0,4.146 -3.36,7.506 -7.505,7.506 -4.145,0 -7.505,-3.36 -7.505,-7.506 z" />

				<path
   id="XMLID_514_"
   style="fill:#ffffff"
   d="m 107.108,311.766 c 0,-1.325 1.074,-2.399 2.399,-2.399 1.325,0 2.4,1.074 2.4,2.399 0,1.325 -1.074,2.399 -2.4,2.399 -1.325,0 -2.399,-1.074 -2.399,-2.399 z" />

			</g>

			<g
   id="XMLID_506_">
				<path
   id="XMLID_512_"
   style="fill:#ffffff"
   d="m 80.015,301.976 c 3.328,-0.011 8.228,1.991 9.644,6.774 1.722,5.819 -1.848,11.47 -9.644,11.194 -8.364,-0.296 -11.323,-5.266 -10.427,-9.879 0.96,-4.941 4.592,-8.071 10.427,-8.089 z" />

				<g
   id="XMLID_510_">
					<path
   id="XMLID_511_"
   style="fill:#002030"
   d="m 90.004,309.638 c -0.503,-3.125 -1.787,-5.565 -4.626,-7.195 -2.639,-1.515 -5.991,-1.855 -8.891,-0.992 -2.049,0.61 -4.146,1.757 -5.557,3.39 -1.425,1.648 -3.39,4.627 -1.992,6.739 0.227,0.342 0.788,0.655 1.077,0.201 0.903,-1.416 1.126,-3.1 2.013,-4.541 0.989,-1.606 2.372,-2.665 4.085,-3.431 5.259,-2.348 11.888,0.376 13.672,5.979 0.073,0.23 0.244,10e-4 0.219,-0.15 z" />

				</g>

				<path
   id="XMLID_508_"
   style="fill:#19313a"
   d="m 89.093,312.447 c 0,-4.145 -3.36,-7.505 -7.505,-7.505 -4.145,0 -7.505,3.36 -7.505,7.505 0,4.146 3.36,7.506 7.505,7.506 4.145,0 7.505,-3.36 7.505,-7.506 z" />

				<circle
   id="XMLID_507_"
   style="fill:#ffffff"
   cx="78.216003"
   cy="311.76599"
   r="2.3989999" />

			</g>

			<g
   id="XMLID_504_">
				<path
   id="XMLID_505_"
   style="fill:#a03717"
   d="m 121.372,298.453 c 0.055,-0.16 0.087,-0.319 0.051,-0.483 -0.184,-0.841 -0.653,-1.462 -1.225,-2.091 -0.77,-0.847 -1.725,-1.524 -2.719,-2.082 -1.937,-1.086 -4.181,-1.637 -6.402,-1.517 -0.419,0.022 -0.849,0.07 -1.219,0.27 -0.479,0.258 -0.811,0.77 -0.851,1.313 -0.074,1.003 0.73,1.471 1.613,1.604 0.668,0.101 1.336,0.202 2.004,0.303 0.49,0.074 0.979,0.148 1.464,0.247 1.624,0.328 3.193,0.925 4.624,1.76 0.592,0.346 1.177,0.737 1.848,0.879 0.237,0.049 0.698,0.097 0.812,-0.203 z" />

			</g>

			<g
   id="XMLID_501_">
				<path
   id="XMLID_502_"
   style="fill:#a03717"
   d="m 72.991,297.72 c -0.042,-0.164 -0.062,-0.325 -0.014,-0.485 0.249,-0.825 0.765,-1.407 1.383,-1.99 0.833,-0.784 1.837,-1.387 2.872,-1.866 2.016,-0.933 4.295,-1.309 6.5,-1.017 0.416,0.055 0.841,0.136 1.194,0.363 0.458,0.294 0.749,0.83 0.747,1.374 -0.003,1.006 -0.842,1.409 -1.733,1.475 -0.674,0.049 -1.347,0.099 -2.021,0.147 -0.494,0.036 -0.988,0.072 -1.479,0.133 -1.644,0.202 -3.255,0.676 -4.746,1.397 -0.617,0.299 -1.231,0.646 -1.911,0.734 -0.239,0.031 -0.702,0.042 -0.792,-0.265 z" />

			</g>

			<path
   id="XMLID_498_"
   style="fill:#ffc8ac"
   d="m 130.961,305.415 c 1.111,-3.536 5.978,-8.511 11.602,-6.348 5.623,2.163 6.921,10.599 3.785,16.871 -3.136,6.272 -11.693,8.57 -14.877,4.015 z" />

			<path
   id="XMLID_497_"
   style="fill:#9e5147"
   d="m 130.644,309.837 c -0.068,0.209 0.215,0.657 0.462,0.494 1.061,-0.696 1.817,-1.711 2.924,-2.338 1.199,-0.678 2.52,-0.872 3.853,-0.729 0.621,0.859 1.176,1.52 1.045,2.838 -0.114,1.143 -0.6,2.406 -1.392,3.25 -0.622,0.662 -1.56,0.856 -2.323,1.307 -0.059,0.034 -0.119,0.219 -0.021,0.242 3.615,0.882 6.04,-4.148 4.927,-7.063 2.04,0.86 3.729,2.569 3.62,4.958 -0.005,0.113 0.113,0.088 0.146,0.006 2.973,-7.489 -10.894,-10.127 -13.241,-2.965 z" />

			<path
   id="XMLID_495_"
   style="fill:#cc5440"
   d="m 129.834,299.067 c 0,0 -6.844,-5.691 -10.811,-17.5 l -10.494,4.367 c -7.651,3.185 -16.245,3.252 -23.944,0.185 l -9.1,-3.624 c -1.84,2.199 -9.163,5.01 -11.184,28.469 0,0 -5.191,-20.24 4.158,-33.587 9.349,-13.348 25.872,-15.59 44.484,-12.24 12.502,2.25 26.086,12.084 25.376,33.555 -1.291,9.313 -6.121,14.602 -7.143,12.852 -1.022,-1.75 -0.845,-10.006 -1.342,-12.477 l 8.486,-0.375" />

			<g
   id="XMLID_691_">
				<path
   id="XMLID_692_"
   style="fill:#9e5147"
   d="m 89.486,332.556 c 5.796,3.442 15.386,1.957 19.896,-2.947 0.482,-0.523 -0.563,-1.026 -0.989,-0.561 -4.538,4.951 -12.954,5.43 -18.837,3.036 -0.325,-0.134 -0.276,0.35 -0.07,0.472 z" />

			</g>

			<g
   id="XMLID_525_">
				<path
   id="XMLID_526_"
   style="fill:#9e5147"
   d="m 108.319,327.374 c -0.563,0.575 0.015,1.61 0.478,2.042 0.532,0.495 1.459,0.963 2.2,0.705 0.252,-0.088 0.524,-0.394 0.247,-0.639 -0.218,-0.192 -0.751,-0.024 -1.034,-0.084 -1.036,-0.217 -1.339,-1.076 -1.662,-1.955 -0.039,-0.103 -0.149,-0.151 -0.229,-0.069 z" />

			</g>

		</g>
  </g>
</svg>
