<?xml version="1.0" encoding="UTF-8" standalone="no"?>
<!-- Created with Inkscape (http://www.inkscape.org/) -->

<svg
   width="25.383936mm"
   height="48.90538mm"
   viewBox="0 0 25.383934 48.905381"
   version="1.1"
   id="svg1"
   inkscape:version="1.4.2 (f4327f4, 2025-05-13)"
   sodipodi:docname="girl18.svg"
   xmlns:inkscape="http://www.inkscape.org/namespaces/inkscape"
   xmlns:sodipodi="http://sodipodi.sourceforge.net/DTD/sodipodi-0.dtd"
   xmlns:xlink="http://www.w3.org/1999/xlink"
   xmlns="http://www.w3.org/2000/svg"
   xmlns:svg="http://www.w3.org/2000/svg">
  <sodipodi:namedview
     id="namedview1"
     pagecolor="#ffffff"
     bordercolor="#000000"
     borderopacity="0.25"
     inkscape:showpageshadow="2"
     inkscape:pageopacity="0.0"
     inkscape:pagecheckerboard="0"
     inkscape:deskcolor="#d1d1d1"
     inkscape:document-units="mm"
     inkscape:zoom="1.2275954"
     inkscape:cx="78.201662"
     inkscape:cy="-109.15649"
     inkscape:window-width="2880"
     inkscape:window-height="1676"
     inkscape:window-x="-12"
     inkscape:window-y="-12"
     inkscape:window-maximized="1"
     inkscape:current-layer="layer1" />
  <defs
     id="defs1">
    <clipPath
       id="SVGID_00000119818789281150872890000010399472127891452846_">
					<use
   xlink:href="#SVGID_1_"
   style="overflow:visible"
   id="use374" />

				</clipPath>
    <path
       id="SVGID_1_"
       d="m 372.545,399.307 c 0,0 -1.283,0 -3.26,0 -6.713,0 -19.791,0 -19.801,0 0,0.838 4.299,47.073 4.58,51.589 0.954,15.214 4.023,46.87 4.105,48.206 0,0 1.713,0.708 5.477,0 l 3.053,-47.784 3.107,-36.587 c 0,0 0.585,-1.01 1.11,-1.054 0.524,0.044 0.994,1.159 0.994,1.159 l 3.633,36.588 2.381,47.703 c 4.615,0.856 6.041,-0.025 6.041,-0.025 0.084,-1.336 2.072,-29.132 3.002,-48.613 1.178,-24.746 5.303,-50.712 5.303,-51.182 -0.01,0 -13.012,0 -19.725,0 z" />
  </defs>
  <g
     inkscape:label="图层 1"
     inkscape:groupmode="layer"
     id="layer1"
     transform="translate(-84.294772,-177.60683)">
    <g
       id="XMLID_304_"
       transform="matrix(0.26458333,0,0,0.26458333,30.841007,110.53343)">
			<g
   id="XMLID_494_">
				<path
   id="XMLID_585_"
   style="fill:#894e4e"
   d="m 263.083,256.422 c -2.851,0.134 -3.153,6.166 -2.047,7.83 0.171,0.257 0.521,0.715 0.869,0.7 1.165,-0.049 0.337,-2.432 0.298,-2.852 -0.13,-1.43 -0.064,-4.376 1.028,-5.492 0.094,-0.095 -0.054,-0.191 -0.148,-0.186 z" />

			</g>

			<path
   id="XMLID_487_"
   style="fill:#894e4e"
   d="m 294.398,279.639 c -4.425,6.669 -12.845,4.309 -21.398,-1.366 -8.553,-5.676 -14,-12.517 -9.574,-19.186 4.425,-6.67 14.946,-7.476 23.499,-1.8 8.552,5.675 11.899,15.682 7.473,22.352 z" />

			<path
   id="XMLID_34_"
   style="fill:#ffc8ac"
   d="m 240.088,351.62 c -2.894,-1.26 -7.893,0.395 -16.976,10.577 -2.618,2.935 -5.181,5.92 -7.684,8.953 -1.87,2.267 -3.708,4.559 -5.5,6.887 -0.658,0.855 -1.282,1.772 -2.109,2.479 -0.931,0.796 -2.148,1.103 -3.305,1.414 -0.725,0.194 -1.627,0.315 -2.178,0.877 -0.573,0.584 -0.292,1.452 0.434,1.738 0.78,0.309 1.746,0.104 2.566,0.168 0.138,0.011 0.273,0.056 0.358,0.165 0.129,0.166 -0.006,0.414 -0.091,0.54 -0.549,0.813 -0.892,1.222 -1.22,1.697 -0.534,0.773 -2.064,2.46 -1.393,3.475 0.263,0.398 0.972,0.534 1.328,0.361 0.575,-0.278 1.09,-0.663 1.564,-1.089 0.239,-0.214 0.468,-0.439 0.693,-0.667 0.182,-0.186 0.431,-0.524 0.73,-0.49 0.252,0.03 0.246,0.344 0.207,0.525 -0.045,0.211 -0.148,0.406 -0.252,0.594 -0.394,0.709 -0.851,1.409 -1.146,2.165 -0.144,0.366 -0.275,0.743 -0.309,1.136 -0.026,0.306 0.02,0.643 0.237,0.859 0.157,0.157 0.384,0.228 0.605,0.244 0.496,0.036 0.984,-0.179 1.374,-0.488 0.487,-0.387 0.874,-0.878 1.254,-1.366 0.396,-0.51 0.791,-1.023 1.206,-1.518 0.089,-0.106 0.195,-0.22 0.333,-0.227 0.149,-0.009 0.28,0.118 0.324,0.261 0.044,0.144 0.02,0.298 -0.013,0.443 -0.088,0.393 -0.266,0.72 -0.414,1.088 -0.154,0.382 -0.288,0.771 -0.401,1.167 -0.123,0.429 -0.231,0.9 -0.063,1.313 0.311,0.76 1.202,0.906 1.871,0.413 0.662,-0.486 2.106,-3.275 2.341,-3.704 1.444,-2.65 3.312,-5.031 5.066,-7.488 2.765,-3.876 9.23,-11.541 11.752,-13.777 z" />

			<path
   id="XMLID_33_"
   style="fill:#ffc8ac"
   d="m 259.911,351.62 c 2.894,-1.26 7.893,0.395 16.976,10.577 2.618,2.935 5.181,5.92 7.685,8.953 1.869,2.267 3.707,4.559 5.5,6.887 0.658,0.855 1.282,1.772 2.108,2.479 0.932,0.796 2.148,1.103 3.306,1.414 0.725,0.194 1.627,0.315 2.178,0.877 0.572,0.584 0.291,1.452 -0.435,1.738 -0.78,0.309 -1.745,0.104 -2.565,0.168 -0.138,0.011 -0.273,0.056 -0.358,0.165 -0.129,0.166 0.006,0.414 0.091,0.54 0.549,0.813 0.892,1.222 1.22,1.697 0.533,0.773 2.063,2.46 1.393,3.475 -0.264,0.398 -0.972,0.534 -1.328,0.361 -0.574,-0.278 -1.09,-0.663 -1.564,-1.089 -0.239,-0.214 -0.468,-0.439 -0.693,-0.667 -0.182,-0.186 -0.431,-0.524 -0.729,-0.49 -0.252,0.03 -0.246,0.344 -0.207,0.525 0.046,0.211 0.148,0.406 0.252,0.594 0.393,0.709 0.852,1.409 1.147,2.165 0.143,0.366 0.275,0.743 0.309,1.136 0.026,0.306 -0.02,0.643 -0.237,0.859 -0.157,0.157 -0.384,0.228 -0.605,0.244 -0.496,0.036 -0.984,-0.179 -1.374,-0.488 -0.487,-0.387 -0.875,-0.878 -1.254,-1.366 -0.397,-0.51 -0.791,-1.023 -1.207,-1.518 -0.089,-0.106 -0.194,-0.22 -0.333,-0.227 -0.149,-0.009 -0.28,0.118 -0.324,0.261 -0.044,0.144 -0.02,0.298 0.014,0.443 0.088,0.393 0.266,0.72 0.414,1.088 0.153,0.382 0.288,0.771 0.401,1.167 0.123,0.429 0.231,0.9 0.063,1.313 -0.312,0.76 -1.202,0.906 -1.871,0.413 -0.662,-0.486 -2.107,-3.275 -2.341,-3.704 -1.444,-2.65 -2.968,-5.293 -4.722,-7.749 -4.675,-6.544 -9.574,-11.28 -12.097,-13.517 z" />

			<path
   id="XMLID_625_"
   style="fill:#ffc8ac"
   d="m 268.81,369.905 c -3.988,-13.05 -8.882,-16.222 -9.244,-20.571 -0.339,-4.065 -0.435,-8.609 -0.435,-8.609 h -18.087 c 0,0 -0.095,4.545 -0.434,8.609 -0.362,4.35 -5.256,7.521 -9.244,20.571 -4.599,15.051 -5.935,31.356 -5.935,31.356 0,0 9.62,3.206 24.656,3.206 15.035,0 24.655,-3.206 24.655,-3.206 0,0 -1.334,-16.305 -5.932,-31.356 z" />

			<path
   id="XMLID_485_"
   style="fill:#aa5e5e"
   d="m 212.432,316.777 c -4.27,-0.819 -15.521,-28.596 5.275,-46.552 20.796,-17.955 54.709,-7.449 57.913,6.017 0.851,-0.11 7.32,-0.535 12.142,9.045 4.35,8.643 6.937,41.823 -11.861,47.559 -18.799,5.735 -63.469,-16.069 -63.469,-16.069 z" />

			<path
   id="XMLID_624_"
   style="fill:#f49282"
   d="m 259.188,340.725 h -18.145 c 0,0 -0.078,3.674 -0.339,7.368 1.857,0.104 3.698,0.146 5.482,0.146 4.266,0 10.126,-1.47 13.108,-3.104 -0.162,-3.339 -0.106,-4.41 -0.106,-4.41 z" />

			<path
   id="XMLID_623_"
   style="fill:#0880a5"
   d="m 225.432,401.262 c 0,11.12 2.6,31.107 2.6,31.107 0,0 -4.796,1.415 -7.255,2.83 -2.46,1.416 -1.858,3.146 9.084,3.146 10.942,0 15.907,0 15.907,0 l 3.356,-37.082 c -0.001,-10e-4 -23.692,-11.12 -23.692,-10e-4 z" />

			<path
   id="XMLID_32_"
   style="fill:#0e547a"
   d="m 248.348,409.827 c -1.947,-0.299 -5.12,-1.442 -5.12,-1.442 l -1.841,23.983 h 4.92 z" />

			<path
   id="XMLID_622_"
   style="fill:#0880a5"
   d="m 274.81,401.262 c 0,11.12 -2.6,31.107 -2.6,31.107 0,0 4.796,1.415 7.255,2.83 2.46,1.416 1.858,3.146 -9.084,3.146 -10.941,0 -15.906,0 -15.906,0 l -3.356,-37.082 c -0.001,-10e-4 23.691,-11.12 23.691,-10e-4 z" />

			<path
   id="XMLID_620_"
   style="fill:#0880a5"
   d="m 246.947,403.254 h 6.282 v 6.282 c -2.094,0.564 -4.187,0.564 -6.282,0 z" />

			<path
   id="XMLID_619_"
   style="fill:#002030"
   d="m 254.475,438.344 c 0,0 4.965,0 15.907,0 10.941,0 11.543,-1.73 9.083,-3.146 -2.459,-1.415 -7.255,-2.83 -7.255,-2.83 h -18.276 z" />

			<path
   id="XMLID_618_"
   style="fill:#002030"
   d="m 228.031,432.368 c 0,0 -4.796,1.415 -7.255,2.83 -2.46,1.416 -1.858,3.146 9.084,3.146 10.942,0 15.907,0 15.907,0 l 0.54,-5.976 z" />

			<path
   id="XMLID_613_"
   style="fill:#ffc8ac"
   d="m 246.187,342.758 c 9.635,0 20.876,-1.147 27.759,-7.57 6.882,-6.424 7.57,-22.941 3.44,-39.23 -4.129,-16.288 -19.959,-19.959 -31.2,-19.959 -11.241,0 -27.071,3.671 -31.2,19.959 -4.129,16.289 -3.441,32.807 3.441,39.23 6.883,6.422 18.125,7.57 27.76,7.57 z" />

			<path
   id="XMLID_589_"
   style="fill:#fca39a"
   d="m 213.855,325.089 c 0,-3.822 3.099,-6.921 6.921,-6.921 3.822,0 6.921,3.099 6.921,6.921 0,3.822 -3.099,6.921 -6.921,6.921 -3.822,0 -6.921,-3.099 -6.921,-6.921 z" />

			<circle
   id="XMLID_588_"
   style="fill:#fca39a"
   cx="270.05399"
   cy="325.08899"
   r="6.921" />

			<path
   id="XMLID_406_"
   style="fill:#8e3257"
   d="m 237.915,328.665 c 0,0 1.488,5.882 8.627,5.657 8.229,-0.259 8.439,-6.474 8.439,-6.474 0,0 -1.44,0 -8.07,0.351 -4.524,0.24 -8.996,0.466 -8.996,0.466 z" />

			<path
   id="XMLID_409_"
   style="fill:#ee7ba5"
   d="m 246.542,334.322 c 1.966,-0.062 3.463,-0.469 4.62,-1.044 -1.25,-1.171 -3.108,-1.916 -5.188,-1.916 -1.883,0 -3.588,0.609 -4.822,1.595 1.278,0.835 3.016,1.44 5.39,1.365 z" />

			<path
   id="XMLID_393_"
   style="fill:#aa5e5e"
   d="m 246.187,272.013 c -38.303,0 -34.469,30.664 -34.469,30.664 12.402,-2.58 19.969,-11.857 23.145,-16.662 -0.409,4.141 -1.078,11.341 -0.918,12.631 0.117,0.945 6.289,1.346 12.242,1.268 5.954,0.078 12.124,-0.322 12.242,-1.268 0.16,-1.29 -0.509,-8.49 -0.918,-12.631 3.176,4.805 10.743,14.082 23.146,16.662 -10e-4,0 3.833,-30.664 -34.47,-30.664 z" />

			<path
   id="XMLID_612_"
   style="fill:#fca39a"
   d="m 244.531,319.762 c -2.517,-0.085 -4.792,1.513 -4.777,2.26 0.035,1.749 8.953,2.105 8.858,0 -0.053,-1.176 -1.921,-2.187 -4.081,-2.26 z" />

			<g
   id="XMLID_610_">
				<path
   id="XMLID_611_"
   style="fill:#9e5147"
   d="m 239.527,322.492 c 1.581,-1.185 2.732,-2.364 4.888,-2.372 1.985,-0.007 3.042,1.06 4.128,2.537 0.186,0.253 0.667,0.264 0.618,-0.135 -0.548,-4.474 -8.572,-4.057 -9.725,-0.16 -0.016,0.051 0.015,0.187 0.091,0.13 z" />

			</g>

			<g
   id="XMLID_600_">
				<path
   id="XMLID_605_"
   style="fill:#ffffff"
   d="m 262.788,301.929 c -3.328,-0.011 -8.229,1.991 -9.644,6.774 -1.723,5.818 1.849,11.47 9.644,11.193 8.364,-0.295 11.322,-5.266 10.427,-9.879 -0.96,-4.941 -4.592,-8.07 -10.427,-8.088 z" />

				<g
   id="XMLID_603_">
					<path
   id="XMLID_604_"
   style="fill:#002030"
   d="m 253.011,309.728 c 1.555,-4.692 6.912,-7.591 11.685,-6.63 1.933,0.389 4.014,1.453 5.293,2.976 1.43,1.702 1.632,3.913 2.975,5.609 0.213,0.268 0.768,0.432 0.963,0.05 1.248,-2.439 -0.699,-5.615 -2.44,-7.373 -1.814,-1.832 -4.53,-3.058 -7.08,-3.353 -2.601,-0.301 -5.484,0.277 -7.705,1.694 -2.672,1.704 -3.438,3.928 -3.904,6.947 -0.029,0.172 0.147,0.276 0.213,0.08 z" />

				</g>

				<path
   id="XMLID_602_"
   style="fill:#19313a"
   d="m 253.71,312.4 c 0,-4.145 3.36,-7.505 7.505,-7.505 4.146,0 7.506,3.36 7.506,7.505 0,4.146 -3.36,7.505 -7.506,7.505 -4.145,0 -7.505,-3.359 -7.505,-7.505 z" />

				<path
   id="XMLID_601_"
   style="fill:#ffffff"
   d="m 254.981,311.719 c 0,-1.325 1.074,-2.4 2.4,-2.4 1.326,0 2.399,1.074 2.399,2.4 0,1.325 -1.074,2.398 -2.399,2.398 -1.325,0 -2.4,-1.073 -2.4,-2.398 z" />

			</g>

			<g
   id="XMLID_594_">
				<path
   id="XMLID_599_"
   style="fill:#ffffff"
   d="m 228.287,301.929 c 3.328,-0.011 8.228,1.991 9.644,6.774 1.722,5.818 -1.848,11.47 -9.644,11.193 -8.364,-0.295 -11.323,-5.266 -10.427,-9.879 0.96,-4.941 4.592,-8.07 10.427,-8.088 z" />

				<g
   id="XMLID_597_">
					<path
   id="XMLID_598_"
   style="fill:#002030"
   d="m 238.276,309.591 c -0.504,-3.125 -1.787,-5.566 -4.626,-7.195 -2.639,-1.516 -5.991,-1.855 -8.892,-0.992 -2.049,0.61 -4.146,1.757 -5.557,3.389 -1.425,1.649 -3.39,4.628 -1.992,6.739 0.227,0.343 0.788,0.655 1.077,0.202 0.903,-1.417 1.126,-3.1 2.013,-4.542 0.989,-1.605 2.372,-2.665 4.085,-3.43 5.258,-2.349 11.887,0.376 13.672,5.98 0.074,0.229 0.245,-0.001 0.22,-0.151 z" />

				</g>

				<circle
   id="XMLID_596_"
   style="fill:#19313a"
   cx="229.86"
   cy="312.39999"
   r="7.5050001" />

				<path
   id="XMLID_595_"
   style="fill:#ffffff"
   d="m 228.581,311.719 c 0,-1.325 -1.074,-2.4 -2.399,-2.4 -1.325,0 -2.399,1.074 -2.399,2.4 0,1.325 1.074,2.398 2.399,2.398 1.325,0 2.399,-1.073 2.399,-2.398 z" />

			</g>

			<g
   id="XMLID_592_">
				<path
   id="XMLID_593_"
   style="fill:#7a4141"
   d="m 275.344,299.119 c 0.054,-0.16 0.086,-0.319 0.051,-0.482 -0.185,-0.842 -0.654,-1.462 -1.226,-2.091 -0.77,-0.847 -1.725,-1.525 -2.719,-2.083 -1.938,-1.086 -4.181,-1.636 -6.402,-1.517 -0.419,0.023 -0.849,0.071 -1.218,0.27 -0.479,0.258 -0.811,0.771 -0.852,1.313 -0.074,1.003 0.731,1.471 1.614,1.605 0.668,0.102 1.336,0.202 2.004,0.304 0.489,0.074 0.979,0.148 1.464,0.246 1.624,0.328 3.193,0.926 4.624,1.76 0.592,0.346 1.177,0.738 1.848,0.88 0.237,0.048 0.697,0.095 0.812,-0.205 z" />

			</g>

			<g
   id="XMLID_590_">
				<path
   id="XMLID_591_"
   style="fill:#7a4141"
   d="m 217.463,298.386 c -0.042,-0.164 -0.062,-0.324 -0.014,-0.485 0.249,-0.824 0.765,-1.406 1.383,-1.989 0.833,-0.785 1.837,-1.388 2.872,-1.866 2.015,-0.934 4.294,-1.309 6.499,-1.018 0.416,0.055 0.841,0.137 1.194,0.363 0.458,0.294 0.749,0.83 0.747,1.374 -0.003,1.006 -0.842,1.41 -1.732,1.475 -0.674,0.05 -1.348,0.099 -2.021,0.148 -0.494,0.036 -0.987,0.072 -1.479,0.132 -1.645,0.202 -3.255,0.677 -4.747,1.398 -0.617,0.299 -1.231,0.645 -1.91,0.733 -0.238,0.032 -0.702,0.042 -0.792,-0.265 z" />

			</g>

			<path
   id="XMLID_584_"
   style="fill:#ffc8ac"
   d="m 279.233,305.367 c 1.11,-3.535 5.977,-8.511 11.602,-6.348 5.623,2.163 6.921,10.599 3.785,16.871 -3.137,6.273 -11.693,8.57 -14.877,4.015 z" />

			<path
   id="XMLID_583_"
   style="fill:#9e5147"
   d="m 278.915,309.789 c -0.068,0.209 0.215,0.657 0.463,0.495 1.061,-0.697 1.817,-1.712 2.924,-2.338 1.198,-0.679 2.521,-0.873 3.853,-0.729 0.621,0.859 1.177,1.52 1.046,2.838 -0.114,1.143 -0.601,2.406 -1.392,3.249 -0.622,0.663 -1.561,0.857 -2.323,1.308 -0.059,0.034 -0.118,0.218 -0.021,0.242 3.615,0.882 6.04,-4.148 4.927,-7.063 2.04,0.86 3.728,2.569 3.62,4.958 -0.006,0.112 0.113,0.087 0.146,0.006 2.972,-7.49 -10.895,-10.128 -13.243,-2.966 z" />

			<path
   id="XMLID_581_"
   style="fill:#aa5e5e"
   d="m 286.592,298.646 c -1.291,9.313 -7.464,14.429 -8.486,12.678 -1.022,-1.751 0.498,-9.832 0,-12.304 l 8.486,-0.374" />

			<path
   id="XMLID_579_"
   style="fill:#74cc78"
   d="m 268.81,369.905 c -3.408,-11.154 -7.477,-15.092 -8.814,-18.716 v 0 c -0.032,0.084 -1.651,4.233 -9.908,4.233 -8.251,0 -9.874,-4.144 -9.909,-4.233 -1.337,3.625 -5.405,7.563 -8.813,18.716 -4.599,15.051 -5.935,23.311 -5.935,31.356 0,0 9.62,3.206 24.656,3.206 15.035,0 24.655,-3.206 24.655,-3.206 10e-4,-8.194 -1.334,-16.305 -5.932,-31.356 z" />

		</g>
  </g>
</svg>
