<?xml version="1.0" encoding="UTF-8" standalone="no"?>
<!-- Created with Inkscape (http://www.inkscape.org/) -->

<svg
   width="17.941431mm"
   height="53.478451mm"
   viewBox="0 0 17.941432 53.478456"
   version="1.1"
   id="svg1"
   inkscape:version="1.4.2 (f4327f4, 2025-05-13)"
   sodipodi:docname="boy10.svg"
   xmlns:inkscape="http://www.inkscape.org/namespaces/inkscape"
   xmlns:sodipodi="http://sodipodi.sourceforge.net/DTD/sodipodi-0.dtd"
   xmlns="http://www.w3.org/2000/svg"
   xmlns:svg="http://www.w3.org/2000/svg">
  <sodipodi:namedview
     id="namedview1"
     pagecolor="#ffffff"
     bordercolor="#000000"
     borderopacity="0.25"
     inkscape:showpageshadow="2"
     inkscape:pageopacity="0.0"
     inkscape:pagecheckerboard="0"
     inkscape:deskcolor="#d1d1d1"
     inkscape:document-units="mm"
     inkscape:zoom="1.2275954"
     inkscape:cx="162.92013"
     inkscape:cy="-41.544633"
     inkscape:window-width="2880"
     inkscape:window-height="1676"
     inkscape:window-x="-12"
     inkscape:window-y="-12"
     inkscape:window-maximized="1"
     inkscape:current-layer="layer1" />
  <defs
     id="defs1">
    <clipPath
       clipPathUnits="userSpaceOnUse"
       id="clipPath119">
      <path
         d="m 2429.58,8528.87 v 0 l -1.54,4.27 c 7.66,35.49 -15.79,67.53 -15.79,67.53 10.47,20.59 15.22,39.01 16.15,55.3 95.03,81.21 245.93,222.7 239.94,298.46 -6.68,84.06 -297.09,299.7 -435.14,397.71 -1.96,12.33 -3.87,24.38 -5.72,36.02 -4.67,29.42 -8.97,56.5 -12.82,80.63 v 0 c 0,0 399.66,-281.36 528.14,-436.13 0,0 44.89,-42.39 44.81,-102.96 0,-4.99 -0.32,-10.11 -0.98,-15.34 -8.76,-68.62 -357.05,-385.49 -357.05,-385.49"
         transform="translate(0,2.5000001e-4)"
         id="path119" />
    </clipPath>
    <clipPath
       clipPathUnits="userSpaceOnUse"
       id="clipPath299">
      <path
         d="m 6622.23,11070.3 c 4.28,3.8 8.4,7.9 12.38,12.2 -0.48,-0.6 -0.96,-1.2 -1.45,-1.8 -3.23,-3.4 -6.57,-6.6 -10.01,-9.8 -0.22,-0.1 -0.44,-0.3 -0.66,-0.4 l -0.26,-0.2"
         transform="translate(0,2.5000001e-4)"
         id="path299" />
    </clipPath>
    <clipPath
       clipPathUnits="userSpaceOnUse"
       id="clipPath602">
      <path
         d="m 4237.98,3522.14 c 0,0 0,0.01 0,0.02 0,-0.01 0,-0.01 0,-0.02 m 0.01,0.2 c 0,0.1 0.01,0.2 0.01,0.3 0,-0.1 -0.01,-0.2 -0.01,-0.3"
         transform="translate(0,2.5000001e-4)"
         id="path602" />
    </clipPath>
  </defs>
  <g
     inkscape:label="图层 1"
     inkscape:groupmode="layer"
     id="layer1"
     transform="translate(-61.383183,-349.24976)">
    <g
       id="g27"
       transform="matrix(0.26458333,0,0,0.26458333,-9.2523617,341.73102)">
		<path
   style="fill:#f6e290"
   d="m 329.147,56.879 c -4.43,-29.292 -29.622,-28.477 -30.163,-28.456 -0.541,-0.021 -25.733,-0.837 -30.163,28.456 -3.955,26.152 23.114,36.186 29.494,38.175 l -0.004,0.391 c 0,0 0.251,-0.065 0.672,-0.188 0.421,0.123 0.672,0.188 0.672,0.188 l -0.004,-0.391 c 6.383,-1.989 33.451,-12.023 29.496,-38.175 z"
   id="path1" />

		<path
   style="fill:#e3c8a2"
   d="m 303.256,36.533 h -8.48 c -14.104,0 -24.789,24.181 -21.282,41.931 2.076,10.51 8.836,19.31 25.649,19.31 19.164,0 25.104,-11.432 25.923,-23.799 1.089,-16.43 -9.118,-37.442 -21.81,-37.442 z"
   id="path2" />

		<rect
   x="296.319"
   y="95.445"
   style="fill:#e3c8a2"
   width="5.3299999"
   height="8.6520004"
   id="rect2" />

		<path
   style="fill:#e3c8a2"
   d="m 309.748,116.798 c 0,-16.757 -10.763,-17.028 -10.763,-17.028 0,0 -10.763,0.27 -10.763,17.028 0,16.758 -10.931,49.191 10.763,49.191 21.694,0.001 10.763,-32.433 10.763,-49.191 z"
   id="path3" />

		<polygon
   style="fill:#e3c8a2"
   points="285.467,152.785 288.875,222.226 292.869,222.226 298.984,158.336 "
   id="polygon3" />

		<polygon
   style="fill:#e3c8a2"
   points="312.501,152.785 309.093,222.226 305.1,222.226 298.984,158.336 "
   id="polygon4" />

		<path
   style="fill:#f6e290"
   d="m 271.762,61.931 c 0,0 19.464,8.959 33.981,-22.854 6.73,19.799 19.404,21.833 19.404,21.833 0,0 0.23,-28.062 -28.023,-28.062 -28.254,0 -25.362,29.083 -25.362,29.083 z"
   id="path4" />

		<g
   id="g10">
			<circle
   style="fill:#e3c8a2"
   cx="272.82199"
   cy="75.695999"
   r="5.8530002"
   id="circle4" />

			<path
   style="fill:#cbad88"
   d="m 296.096,75.696 h 5.554 c 0,0 -0.289,-2.56 -2.777,-2.56 -2.489,0 -2.777,2.56 -2.777,2.56 z"
   id="path5" />

			<path
   style="fill:none;stroke:#dec065;stroke-width:0.9942;stroke-miterlimit:10"
   d="m 282.952,65.096 c 0,0 2.086,-2.197 6.899,-2.197"
   id="path6" />

			<path
   style="fill:none;stroke:#dec065;stroke-width:0.9942;stroke-miterlimit:10"
   d="m 315.455,65.096 c 0,0 -2.086,-2.197 -6.899,-2.197"
   id="path7" />

			<circle
   style="fill:#cbad88"
   cx="272.82199"
   cy="75.695999"
   r="2.5769999"
   id="circle7" />

			<circle
   style="fill:#e3c8a2"
   cx="325.146"
   cy="75.695999"
   r="5.8530002"
   id="circle8" />

			<circle
   style="fill:#cbad88"
   cx="325.146"
   cy="75.695999"
   r="2.5769999"
   id="circle9" />

			<path
   style="fill:#da9e9e"
   d="m 282.843,74.717 c 0,1.05 -0.851,1.9 -1.901,1.9 -1.05,0 -1.9,-0.851 -1.9,-1.9 0,-1.05 0.851,-1.9 1.9,-1.9 1.05,-10e-4 1.901,0.85 1.901,1.9 z"
   id="path9" />

			<path
   style="fill:#da9e9e"
   d="m 318.704,74.717 c 0,1.05 -0.851,1.9 -1.9,1.9 -1.049,0 -1.901,-0.851 -1.901,-1.9 0,-1.05 0.851,-1.9 1.901,-1.9 1.05,0 1.9,0.85 1.9,1.9 z"
   id="path10" />

		</g>

		<path
   style="fill:#e3c8a2"
   d="m 298.984,99.771 c 0,0 9.196,0.796 18.175,11.81 9.532,11.691 12.253,-1.457 10.694,-4.769 2.15,0.132 2.844,0.132 2.844,0.132 0,0 3.615,21.833 -14.148,12.319 -16.085,-8.615 -17.565,-19.492 -17.565,-19.492 z"
   id="path11" />

		<path
   style="fill:#e3c8a2"
   d="m 298.37,99.838 c 0,0 -8.958,0.646 -16.612,21.352 -7.653,20.705 -2.881,39.62 -2.881,39.62 h 2.248 c 0,0 -2.455,-29.575 16.611,-51.757"
   id="path12" />

		<g
   id="g13">
			<path
   style="fill:#33527b"
   d="m 313.456,149.266 c -13.386,3.947 -24.596,1.561 -28.401,0.498 -0.248,4.087 -0.493,8.706 -0.725,13.926 -1.504,33.887 0,49.897 0,49.897 h 11.927 l 2.728,-47.597 2.967,47.597 h 11.067 c 0,0 1.289,-28.664 1.074,-49.897 -0.047,-4.619 -0.289,-9.544 -0.637,-14.424 z"
   id="path13" />

		</g>

		<rect
   x="283.66101"
   y="208.967"
   style="fill:#456b92"
   width="13.025"
   height="5.1570001"
   id="rect13" />

		<rect
   x="301.19901"
   y="208.967"
   style="fill:#456b92"
   width="12.141"
   height="5.1570001"
   id="rect14" />

		<path
   style="fill:#d2e7fd"
   d="m 279.875,123.988 c 0,0 -4.441,19.66 -3.542,30.86 2.75,1.976 5.521,0.396 5.521,0.396 l 4.184,-26.046"
   id="path14" />

		<line
   style="fill:#e3c8a2"
   x1="288.785"
   y1="220.382"
   x2="293.172"
   y2="220.382"
   id="line14" />

		<g
   id="g16">
			<path
   style="fill:#d2695c"
   d="m 287.009,226.581 c 2.661,-2.241 5.163,-4.449 5.959,-5.154 l 0.081,-1.113 -4.279,-0.235 c 0,0 -2.647,1.504 -4.748,3.768 0.724,0.109 2.087,0.604 2.987,2.734 z"
   id="path15" />

			<path
   style="fill:#d2e7fd"
   d="m 287.009,226.581 c -0.9,-2.13 -2.263,-2.625 -2.987,-2.734 -1.49,1.606 -2.67,3.594 -2.332,5.717 0.682,4.277 11.186,-6.88 11.186,-6.88 l 0.092,-1.258 c -0.796,0.706 -3.298,2.914 -5.959,5.155 z"
   id="path16" />

		</g>

		<g
   id="g18">
			<path
   style="fill:#d2695c"
   d="m 310.962,226.581 c -2.661,-2.241 -5.163,-4.449 -5.959,-5.154 l -0.081,-1.113 4.276,-0.235 c 0,0 2.65,1.504 4.751,3.768 -0.724,0.109 -2.087,0.604 -2.987,2.734 z"
   id="path17" />

			<path
   style="fill:#d2e7fd"
   d="m 310.962,226.581 c 0.9,-2.13 2.263,-2.625 2.987,-2.734 1.49,1.606 2.67,3.594 2.332,5.717 -0.682,4.277 -11.186,-6.88 -11.186,-6.88 l -0.092,-1.258 c 0.797,0.706 3.298,2.914 5.959,5.155 z"
   id="path18" />

		</g>

		<path
   style="fill:#d2e7fd"
   d="m 317.001,110.717 c 0,0 4.166,5.181 7.543,4.379 1.99,-0.472 2.405,-3.607 2.405,-3.607 0,0 3.061,-0.64 5.357,0.672 -0.875,9.948 -8.486,14.216 -18.51,5.523"
   id="path19" />

		<path
   style="fill:#d2e7fd"
   d="m 284.07,152.91 c -0.18,1.987 -0.324,3.81 -0.409,5.342 15.604,4.62 31.331,-0.599 31.331,-0.599 0,0 -0.075,-2.001 -0.26,-5.195 -16.422,4.144 -28.364,1.123 -30.662,0.452 z"
   id="path20" />

		<g
   id="g22">
			<path
   style="fill:#d2695c"
   d="m 318.704,111.488 c -5.368,-6.398 -11.308,-9.734 -15.326,-10.786 -0.263,1.232 -1.138,3.265 -4.051,3.394 -3.246,0.144 -4.199,-1.83 -4.478,-3.139 -3.861,1.522 -13.515,6.963 -15.999,23.879 2.291,4.201 7.189,4.362 7.189,4.362 l 1.192,-3.395 c 0,0 -2.161,16.095 -3.161,27.107 2.298,0.671 14.241,3.691 30.663,-0.452 -0.493,-8.545 -1.771,-25.688 -4.508,-36.325 2.686,2.256 4.768,2.903 4.768,2.903 0,0 4.307,-3.182 3.711,-7.548 z"
   id="path21" />

			<path
   style="fill:#d2e7fd"
   d="m 299.327,104.096 c 2.913,-0.129 3.787,-2.162 4.051,-3.394 -0.624,-0.163 -1.206,-0.276 -1.728,-0.332 -2.815,3.943 -5.187,0.058 -5.187,0.058 0,0 -0.617,0.136 -1.614,0.529 0.278,1.31 1.232,3.283 4.478,3.139 z"
   id="path22" />

		</g>

		<path
   style="fill:none;stroke:#5e4f44;stroke-width:0.9942;stroke-miterlimit:10"
   d="m 282.952,70.732 c 0,0 0.16,-3.449 3.449,-3.449 3.29,0 3.449,3.449 3.449,3.449"
   id="path23" />

		<path
   style="fill:none;stroke:#5e4f44;stroke-width:0.9942;stroke-miterlimit:10"
   d="m 308.557,70.732 c 0,0 0.159,-3.449 3.449,-3.449 3.29,0 3.449,3.449 3.449,3.449"
   id="path24" />

		<path
   style="fill:#d2695c"
   d="m 302.628,77.876 c -1.214,0.662 -2.912,0.772 -3.702,0.785 -0.523,0.007 -2.474,-0.02 -3.876,-0.785 -1.631,-0.89 -2.891,-0.037 -1.89,1.334 0.992,1.36 3.405,1.807 5.651,1.815 v 0.002 c 0.009,0 0.018,-0.001 0.028,-0.001 0.009,0 0.018,0.001 0.028,0.001 v -0.002 c 2.246,-0.007 4.659,-0.454 5.651,-1.815 1,-1.371 -0.26,-2.223 -1.89,-1.334 z"
   id="path25" />

		<path
   style="fill:#e3c8a2"
   d="m 330.342,110.035 c -1.622,0.302 -3.19,-0.699 -3.878,-2.408 -0.245,-0.608 -0.443,-1.375 -0.536,-2.338 -0.361,-3.76 0.182,-3.61 0.608,-3.6 0.427,0.01 0.963,0.975 0.967,3.415 0.814,-6.076 0.956,-7.182 1.91,-7.094 0.969,0.09 0.22,5.55 0.22,5.55 0,0 1.203,-5.484 1.878,-5.777 0.676,-0.294 1.12,0.666 0.654,2.48 -0.465,1.814 -0.825,3.506 -0.825,3.506 0,0 1.34,-4.548 2.032,-4.718 0.605,-0.148 1.134,0.409 0.228,2.913 -0.502,1.388 -0.907,2.436 -0.907,2.436 0,0 1.236,-2.884 1.805,-2.599 0.553,0.276 0.349,1.638 -1.142,4.971 -0.28,0.625 -0.604,1.229 -0.994,1.768 -0.62,0.859 -1.231,1.348 -2.02,1.495 z"
   id="path26" />

		<path
   style="fill:#e3c8a2"
   d="m 279.026,158.98 c 1.624,-0.295 3.187,0.712 3.867,2.424 0.242,0.609 0.438,1.377 0.526,2.34 0.345,3.762 -0.197,3.609 -0.624,3.597 -0.427,-0.012 -0.959,-0.979 -0.953,-3.419 -0.84,6.072 -0.988,7.178 -1.941,7.085 -0.968,-0.094 -0.196,-5.551 -0.196,-5.551 0,0 -1.227,5.479 -1.903,5.769 -0.677,0.291 -1.117,-0.671 -0.643,-2.483 0.473,-1.812 0.84,-3.502 0.84,-3.502 0,0 -1.359,4.543 -2.052,4.709 -0.606,0.146 -1.132,-0.414 -0.216,-2.914 0.508,-1.386 0.918,-2.432 0.918,-2.432 0,0 -1.248,2.878 -1.816,2.591 -0.552,-0.279 -0.342,-1.64 1.164,-4.966 0.282,-0.623 0.61,-1.226 1.002,-1.763 0.624,-0.855 1.237,-1.341 2.027,-1.485 z"
   id="path27" />

	</g>
  </g>
</svg>
