<?xml version="1.0" encoding="UTF-8" standalone="no"?>
<!-- Created with Inkscape (http://www.inkscape.org/) -->

<svg
   width="30.804695mm"
   height="53.676285mm"
   viewBox="0 0 30.804695 53.676285"
   version="1.1"
   id="svg1"
   inkscape:version="1.4.2 (f4327f4, 2025-05-13)"
   sodipodi:docname="boy2.svg"
   xmlns:inkscape="http://www.inkscape.org/namespaces/inkscape"
   xmlns:sodipodi="http://sodipodi.sourceforge.net/DTD/sodipodi-0.dtd"
   xmlns="http://www.w3.org/2000/svg"
   xmlns:svg="http://www.w3.org/2000/svg">
  <sodipodi:namedview
     id="namedview1"
     pagecolor="#ffffff"
     bordercolor="#000000"
     borderopacity="0.25"
     inkscape:showpageshadow="2"
     inkscape:pageopacity="0.0"
     inkscape:pagecheckerboard="0"
     inkscape:deskcolor="#d1d1d1"
     inkscape:document-units="mm"
     inkscape:zoom="1.2275954"
     inkscape:cx="-197.13336"
     inkscape:cy="79.830863"
     inkscape:window-width="2880"
     inkscape:window-height="1676"
     inkscape:window-x="-12"
     inkscape:window-y="-12"
     inkscape:window-maximized="1"
     inkscape:current-layer="layer1" />
  <defs
     id="defs1" />
  <g
     inkscape:label="图层 1"
     inkscape:groupmode="layer"
     id="layer1"
     transform="translate(-157.1625,-127.26459)">
    <g
       id="g143"
       transform="matrix(0.26458333,0,0,0.26458333,65.75166,122.5521)">
		<path
   style="fill:#f8a880"
   d="m 418.141,197.289 c -1.215,0 -2.634,-0.062 -3.949,-0.268 l 2.094,13.374 c 0.954,-0.098 2.224,-0.155 3.945,-0.155 1.327,0 2.561,0.036 3.343,0.061 0.398,-4.454 0.867,-10.025 1.108,-13.567 -2.116,0.367 -4.468,0.555 -6.541,0.555 z"
   id="path102" />

		<path
   style="fill:#faab23"
   d="m 424.362,211.898 c -0.077,0 -0.269,-0.006 -0.551,-0.015 -0.731,-0.025 -2.097,-0.07 -3.58,-0.07 -4.283,0 -5.297,0.386 -5.501,0.498 -0.5,1.135 -0.87,4.734 -0.181,6.019 0.467,0.282 2.97,0.777 9.477,0.777 h 10e-4 c 4.507,0 9.035,-0.268 10.093,-0.599 0.047,-0.014 0.189,-0.059 0.12,-0.516 -0.316,-2.069 -4.088,-6.094 -9.878,-6.094 z"
   id="path103" />

		<path
   style="fill:#f8a880"
   d="m 389.115,196.798 c -0.98,0 -1.85,-0.045 -2.662,-0.114 0.24,3.539 0.712,9.143 1.112,13.618 0.782,-0.025 2.016,-0.061 3.343,-0.061 1.721,0 2.991,0.058 3.945,0.155 l 2.212,-14.128 c -1.993,0.226 -5.046,0.53 -7.95,0.53 z"
   id="path104" />

		<path
   style="fill:#f8a880"
   d="m 436.063,141.342 c -2.367,1.525 -5.428,2.635 -8.011,3.38 0.873,1.862 1.841,3.773 2.797,5.655 3.262,6.419 6.078,11.963 4.566,14.554 -1.052,1.802 -1.396,3.703 -0.946,5.215 0.237,0.793 0.686,1.405 1.234,1.678 h 0.001 c 0.58,0 1.896,-1.904 2.458,-2.717 0.948,-1.372 1.471,-2.128 2.217,-2.128 0.382,0 0.719,0.219 0.902,0.585 0.728,1.456 -0.234,3.36 -1.69,6.241 l -0.463,0.919 c -0.213,0.427 -0.426,0.829 -0.627,1.208 -0.49,0.926 -1.16,2.194 -0.989,2.509 0.006,0.011 0.16,0.271 1.29,0.374 0.068,0.006 0.134,0.009 0.203,0.009 2.925,-0.001 7.242,-5.099 7.242,-9.679 0,-2.89 -1.126,-4.453 -2.319,-6.106 -0.851,-1.18 -1.73,-2.399 -2.258,-4.115 -1.455,-4.732 -3.826,-12.092 -5.607,-17.582 z"
   id="path105" />

		<path
   style="fill:#faab23"
   d="m 421.248,120.707 c 1.207,5.741 2.962,14.397 4.468,23.005 3.81,-0.946 9.999,-2.904 12.03,-6.011 0.591,-0.904 0.759,-1.819 0.514,-2.798 -1.1,-4.399 -8.612,-11.035 -14.103,-15.402 -0.972,0.447 -1.943,0.845 -2.909,1.206 z"
   id="path106" />

		<path
   style="fill:#f8a880"
   d="m 371.637,141.342 c -1.782,5.491 -4.152,12.85 -5.609,17.583 -0.527,1.715 -1.407,2.935 -2.258,4.115 -1.192,1.654 -2.319,3.216 -2.319,6.106 0,4.581 4.317,9.679 7.242,9.679 0.068,0 0.135,-0.003 0.203,-0.009 1.131,-0.102 1.284,-0.362 1.29,-0.374 0.171,-0.316 -0.5,-1.583 -0.989,-2.509 -0.201,-0.379 -0.414,-0.781 -0.627,-1.208 l -0.463,-0.919 c -1.455,-2.881 -2.418,-4.785 -1.689,-6.241 0.183,-0.366 0.52,-0.585 0.901,-0.585 0.748,0 1.269,0.756 2.217,2.127 0.562,0.814 1.88,2.721 2.446,2.722 0.561,-0.278 1.011,-0.89 1.247,-1.683 0.45,-1.512 0.105,-3.412 -0.946,-5.215 -1.512,-2.591 1.305,-8.135 4.567,-14.554 0.956,-1.882 1.924,-3.793 2.798,-5.655 -2.583,-0.745 -5.644,-1.855 -8.011,-3.38 z"
   id="path107" />

		<path
   style="fill:#faab23"
   d="m 381.918,143.695 c 1.085,-7.724 2.493,-15.943 3.796,-23.201 -0.782,-0.275 -1.558,-0.564 -2.325,-0.872 -5.477,4.368 -12.861,10.922 -13.951,15.281 -0.245,0.979 -0.077,1.893 0.514,2.798 2.021,3.09 8.152,5.043 11.966,5.994 z"
   id="path108" />

		<path
   style="fill:#ad8c3a"
   d="m 429.059,193.712 c 1.388,-1.052 0.038,-12.509 -1.491,-21.256 -3.002,2.219 -15.208,3.577 -25.404,3.577 -10e-4,0 -10e-4,0 -0.003,0 -6.05,0 -16.008,-0.482 -19.833,-3.42 -0.625,7.112 -1.346,18.458 -0.359,20.825 0.223,0.537 1.368,1.786 7.147,1.786 3.412,0 7.099,-0.437 8.871,-0.647 l 0.693,-0.081 c 1.067,-0.119 2.419,-2.277 3.505,-4.01 1.34,-2.14 2.497,-3.988 3.96,-3.988 1.607,0 2.273,1.766 2.979,3.635 0.629,1.664 1.342,3.55 2.698,4.501 0.969,0.678 3.332,1.082 6.319,1.082 4.516,0 9.311,-0.88 10.918,-2.004 z"
   id="path109" />

		<path
   style="fill:#acd03d"
   d="m 419.754,121.234 c -1.754,0.585 -3.48,1.043 -5.146,1.394 -0.081,0.314 -0.166,0.63 -0.262,0.947 -1.63,5.399 -4.702,8.253 -8.883,8.253 -0.001,0 -0.001,0 -0.002,0 -0.194,0 -0.393,-0.006 -0.595,-0.018 -6.476,-0.406 -9.103,-5.29 -10.165,-8.969 -2.536,-0.446 -5.036,-1.064 -7.477,-1.844 -5.252,29.282 -6.83,45.97 -4.689,49.594 1.41,2.387 8.931,3.87 19.626,3.87 10e-4,0 0.002,0 0.003,0 12.114,0 23.179,-1.82 24.615,-3.387 1.873,-2.043 -2.07,-26.259 -7.025,-49.84 z"
   id="path110" />

		<path
   style="fill:#f8a880"
   d="m 404.964,130.238 c 0.168,0.011 0.335,0.016 0.497,0.016 10e-4,0 10e-4,0 0.002,0 3.466,0 5.948,-2.401 7.377,-7.135 0.017,-0.056 0.03,-0.111 0.046,-0.166 -3.227,0.557 -6.188,0.741 -8.652,0.741 -2.621,0 -5.244,-0.195 -7.84,-0.57 1.037,3.118 3.356,6.789 8.57,7.114 z"
   id="path111" />

		<path
   style="fill:#f8a880"
   d="m 358.736,102.955 c 1.086,0 2.108,-0.201 2.948,-0.438 -2.385,-4.063 -3.973,-8.743 -4.72,-13.668 -0.134,0.006 -0.259,0.026 -0.397,0.026 l -0.249,-0.003 c -1.898,-0.052 -3.476,-0.709 -4.706,-1.94 -1.387,2.088 -1.558,5.228 -0.46,9.138 1.283,4.568 3.835,6.885 7.584,6.885 z"
   id="path112" />

		<path
   style="fill:#f8a880"
   d="m 450.525,88.454 c -0.486,0.067 -0.958,0.098 -1.411,0.102 -0.955,3.61 -2.396,7.281 -4.357,10.966 -0.544,1.023 -1.112,1.991 -1.691,2.931 0.878,0.265 1.992,0.502 3.177,0.502 h 0.001 c 3.748,0 6.299,-2.317 7.583,-6.885 1.012,-3.604 0.957,-6.562 -0.144,-8.638 -0.87,0.481 -1.904,0.848 -3.158,1.022 z"
   id="path113" />

		<path
   style="fill:#f8a880"
   d="m 443.368,98.782 c 1.854,-3.484 3.228,-6.951 4.153,-10.36 -3.83,-0.695 -5.409,-3.989 -5.8,-6.211 -4.475,-0.893 -5.897,-5.749 -6.295,-7.745 -0.418,0.063 -0.838,0.096 -1.257,0.096 -4.683,0 -8.166,-3.931 -9.372,-5.503 -1.321,0.769 -2.769,1.157 -4.314,1.157 -3.925,0 -7.408,-2.494 -8.757,-3.598 -2.12,2.078 -4.539,3.13 -7.202,3.13 -3.73,0 -6.836,-2.08 -8.025,-2.999 -1.951,1.446 -4.11,2.178 -6.428,2.178 -2.287,-0.001 -4.131,-0.724 -5.043,-1.163 -3.61,4.19 -8.215,3.93 -9.976,3.606 -2.636,5.949 -8.046,7.289 -9.98,7.582 -0.31,3.339 -1.999,8.521 -6.565,9.679 1.149,7.562 4.368,14.519 9.443,19.38 9.223,8.835 22.787,14.109 36.282,14.109 9.98,10e-4 28.332,-3.03 39.136,-23.338 z M 421.003,84.318 c 2.413,0 4.37,1.956 4.37,4.37 0,2.413 -1.956,4.37 -4.37,4.37 -2.414,0 -4.37,-1.956 -4.37,-4.37 0.001,-2.413 1.957,-4.37 4.37,-4.37 z m -16.195,10.667 c 0.338,-0.653 1.337,-0.898 2.007,-0.718 0.66,0.177 1.186,0.652 1.472,1.269 0.651,1.406 -0.246,3.422 -1.966,3.314 -0.545,-0.034 -0.749,-0.72 -0.277,-1.023 0.413,-0.265 0.954,-0.433 1.17,-0.914 0.142,-0.316 0.097,-0.702 -0.034,-1.014 -0.128,-0.304 -0.405,-0.584 -0.733,-0.656 -0.485,-0.107 -0.887,0.185 -1.35,0.247 -0.27,0.037 -0.392,-0.306 -0.289,-0.505 z m -9.227,10.283 c 0.191,-1.337 2.115,-1.883 6.641,-1.883 4.678,0 10.517,0.651 11.657,0.977 0.88,0.251 1.343,1.19 1.238,2.512 -0.225,2.849 -3.008,7.383 -9.75,8.2 -0.54,0.066 -1.068,0.099 -1.57,0.099 -2.577,0 -4.622,-0.851 -6.078,-2.531 -2.237,-2.579 -2.295,-6.28 -2.138,-7.374 z m -8.835,-20.95 c 2.413,0 4.37,1.956 4.37,4.37 0,2.413 -1.956,4.37 -4.37,4.37 -2.413,0 -4.369,-1.956 -4.369,-4.37 0,-2.413 1.956,-4.37 4.369,-4.37 z"
   id="path114" />

		<path
   style="fill:#83595d"
   d="m 456.395,78.716 c -0.014,-0.201 0.048,-0.4 0.175,-0.556 0.314,-0.387 7.634,-9.537 1.113,-15.312 -0.213,-0.188 -0.307,-0.478 -0.248,-0.756 0.011,-0.051 1.076,-5.154 -1.329,-8.76 -1.201,-1.801 -3.095,-2.951 -5.628,-3.416 -0.393,-0.072 -0.67,-0.428 -0.642,-0.827 0.004,-0.056 0.35,-5.66 -2.565,-8.921 -1.298,-1.451 -3.079,-2.236 -5.293,-2.332 -0.363,-0.015 -0.667,-0.278 -0.737,-0.633 -0.066,-0.327 -1.687,-8.018 -9.023,-8.018 -1.208,0 -2.526,0.211 -3.919,0.626 -0.215,0.064 -0.45,0.033 -0.642,-0.088 -0.191,-0.121 -0.323,-0.319 -0.358,-0.542 -0.047,-0.289 -1.221,-7.084 -7.762,-7.084 -1.682,0 -3.603,0.448 -5.71,1.331 -0.295,0.123 -0.634,0.055 -0.859,-0.168 -0.039,-0.039 -3.956,-3.875 -9.137,-3.875 -3.26,0 -6.36,1.506 -9.212,4.477 -0.241,0.251 -0.617,0.315 -0.929,0.154 -0.029,-0.015 -2.977,-1.514 -6.488,-1.514 -4.03,0 -7.149,1.921 -9.27,5.708 -0.133,0.239 -0.382,0.391 -0.655,0.401 -0.1,0.004 -10.121,0.501 -12.393,8.449 -0.091,0.322 -0.378,0.55 -0.712,0.569 -0.43,0.025 -10.546,0.728 -10.735,11.322 -0.005,0.28 -0.159,0.536 -0.402,0.672 -0.261,0.148 -6.415,3.747 -4.333,12.452 0.047,0.198 0.015,0.407 -0.087,0.582 -0.179,0.307 -4.331,7.592 1.543,14.035 0.145,0.16 0.219,0.373 0.203,0.589 -0.004,0.055 -0.384,5.517 2.171,8.348 0.975,1.08 2.228,1.626 3.829,1.669 l 0.206,0.003 c 6.517,0 6.964,-8.716 6.98,-9.087 0.017,-0.402 0.338,-0.728 0.741,-0.753 0.281,-0.016 6.917,-0.491 9.56,-7.288 0.149,-0.385 0.567,-0.589 0.967,-0.467 0.006,0.002 0.869,0.26 2.134,0.26 2.005,0 4.893,-0.639 7.26,-3.682 0.245,-0.315 0.69,-0.394 1.033,-0.186 0.021,0.013 2.079,1.257 4.83,1.258 2.149,0 4.148,-0.747 5.941,-2.219 0.298,-0.248 0.733,-0.238 1.024,0.021 0.034,0.031 3.418,3.018 7.488,3.018 2.429,0 4.641,-1.066 6.575,-3.17 0.141,-0.155 0.34,-0.246 0.55,-0.253 0.212,-0.036 0.416,0.069 0.567,0.213 0.04,0.037 3.966,3.678 8.267,3.678 1.474,0 2.842,-0.434 4.066,-1.29 0.172,-0.121 0.388,-0.167 0.598,-0.128 0.209,0.04 0.392,0.162 0.509,0.339 0.036,0.054 3.638,5.425 8.512,5.425 0.568,0 1.141,-0.074 1.703,-0.219 0.221,-0.055 0.456,-0.013 0.642,0.115 0.189,0.129 0.31,0.333 0.336,0.559 0.008,0.067 0.823,6.762 5.659,7.3 0.372,0.041 0.663,0.34 0.697,0.713 0.02,0.225 0.563,5.531 5.823,5.531 0.406,0 0.836,-0.032 1.278,-0.093 6.546,-0.91 6.109,-7.884 6.088,-8.18 z"
   id="path115" />

		<path
   style="fill:#faab23"
   d="m 390.908,211.813 c -1.483,0 -2.849,0.045 -3.58,0.07 -0.282,0.009 -0.474,0.015 -0.551,0.015 -5.788,0 -9.561,4.026 -9.878,6.093 -0.07,0.457 0.073,0.502 0.12,0.516 1.058,0.331 5.587,0.599 10.094,0.599 6.507,0 9.011,-0.496 9.478,-0.777 0.688,-1.286 0.318,-4.885 -0.182,-6.019 -0.205,-0.111 -1.218,-0.497 -5.501,-0.497 z"
   id="path116" />

		<path
   style="fill:#ffffff"
   d="m 419.955,89.037 c 0.965,0 1.748,-0.783 1.748,-1.748 0,-0.965 -0.783,-1.748 -1.748,-1.748 -0.965,0 -1.748,0.783 -1.748,1.748 0,0.966 0.782,1.748 1.748,1.748 z"
   id="path117" />

		<path
   style="fill:#ffffff"
   d="m 385.697,89.037 c 0.965,0 1.748,-0.783 1.748,-1.748 0,-0.965 -0.783,-1.748 -1.748,-1.748 -0.965,0 -1.748,0.783 -1.748,1.748 10e-4,0.966 0.783,1.748 1.748,1.748 z"
   id="path118" />

		<path
   style="fill:#f16559"
   d="m 405.179,113.513 c 4.857,-0.589 7.402,-3.366 8.165,-5.769 0.362,-1.143 0.178,-1.791 0.073,-1.885 -0.926,-0.258 -6.561,-0.901 -11.195,-0.901 -3.991,0 -4.92,0.491 -5.095,0.618 -0.093,0.875 -0.04,3.937 1.78,6.036 1.385,1.595 3.505,2.236 6.272,1.901 z"
   id="path119" />

		<path
   style="fill:#f16559"
   d="m 425.919,96.356 c -1.151,-1.151 -2.547,0.452 -3.212,1.322 -0.659,0.864 -1.726,2.099 -1.705,3.244 0.009,0.476 0.439,0.769 0.887,0.675 1.072,-0.223 1.867,-1.515 2.605,-2.242 0.699,-0.688 2.568,-1.856 1.425,-2.999 z"
   id="path120" />

		<path
   style="fill:#f16559"
   d="m 428.228,97.072 c -1.343,0.403 -2.225,1.606 -3.092,2.641 -0.887,1.059 -1.753,2.195 -2.365,3.435 -0.402,0.812 0.552,1.545 1.235,0.953 0.981,-0.85 1.869,-1.811 2.808,-2.709 0.891,-0.853 2.097,-1.582 2.649,-2.713 0.401,-0.821 -0.254,-1.902 -1.235,-1.607 z"
   id="path121" />

		<path
   style="fill:#f16559"
   d="m 428.866,100.196 c -0.935,0.476 -1.406,1.34 -1.847,2.254 -0.223,0.463 -0.204,0.99 0.177,1.37 0.4,0.399 1.213,0.482 1.599,0 0.632,-0.79 1.36,-1.427 1.606,-2.444 0.221,-0.92 -0.717,-1.597 -1.535,-1.18 z"
   id="path122" />

		<path
   style="fill:#f16559"
   d="m 381.225,97.701 c -0.529,0.233 -0.862,0.683 -1.142,1.177 -0.239,0.422 -0.598,0.843 -0.702,1.321 -0.115,0.534 0.348,1.102 0.922,0.922 0.544,-0.17 0.967,-0.631 1.386,-1.004 0.524,-0.467 0.794,-0.95 0.885,-1.642 0.1,-0.754 -0.816,-1.009 -1.349,-0.774 z"
   id="path123" />

		<path
   style="fill:#f16559"
   d="m 384.821,97.749 c -1.157,0.648 -1.826,1.761 -2.562,2.824 -0.76,1.096 -1.561,2.169 -2.288,3.287 -0.502,0.772 0.57,1.447 1.197,0.923 1.033,-0.862 1.947,-1.864 2.883,-2.827 0.915,-0.941 1.813,-1.787 2.305,-3.027 0.356,-0.902 -0.806,-1.589 -1.535,-1.18 z"
   id="path124" />

		<path
   style="fill:#f16559"
   d="m 386.999,100.988 c -1.621,0.472 -2.65,1.91 -3.306,3.397 -0.568,1.288 1.105,2.325 1.91,1.117 0.741,-1.112 1.889,-1.838 2.548,-3.015 0.43,-0.768 -0.274,-1.755 -1.152,-1.499 z"
   id="path125" />

		<path
   style="fill:#ffffff"
   d="m 375.348,113.02 c -4.18,-3.954 -8.899,-7.084 -11.905,-12.127 -2.461,-4.13 -2.285,-9.071 -4.293,-13.222 -0.263,-0.543 -1.257,-0.305 -1.176,0.318 0.61,4.686 1.138,8.887 3.057,13.206 -0.018,-0.008 -0.029,-0.021 -0.048,-0.029 -0.151,-0.061 -0.303,-0.122 -0.454,-0.184 -0.243,-0.098 -0.445,-0.027 -0.589,0.118 -1.235,-0.045 -2.462,-0.05 -3.688,-0.289 -2.625,-0.512 -3.152,-2.901 -3.754,-5.132 -0.475,-1.762 -0.925,-3.543 -0.786,-5.379 0.064,-0.843 0.643,-2.062 0.112,-2.84 -0.155,-0.228 -0.371,-0.306 -0.639,-0.26 -1.232,0.213 -1.46,2.403 -1.641,3.368 -0.452,2.404 0.678,5.224 1.307,7.494 1.312,4.736 5.657,5.17 9.904,4.8 0.423,-0.037 0.681,-0.282 0.781,-0.577 2.643,5.215 8.148,9.035 13.276,11.429 0.434,0.203 0.923,-0.328 0.536,-0.694 z"
   id="path126" />

		<path
   style="fill:#ffffff"
   d="m 459.452,73.779 c 1.584,-4.362 1.366,-8.484 -2.336,-11.38 0.068,-0.042 0.132,-0.091 0.186,-0.159 3.181,-4.016 0,-11.078 -4.692,-12.368 -2.167,-0.596 -2.159,-0.713 -2.463,-3.158 -0.158,-1.272 -0.274,-2.539 -0.639,-3.773 -1.006,-3.404 -4.98,-5.16 -8.098,-5.978 0,-0.004 0.002,-0.006 0.002,-0.01 -0.155,-3.441 -1.821,-5.975 -4.751,-7.726 -2.546,-1.522 -7.904,0.591 -9.013,-1.867 -1.424,-3.154 -2.899,-4.852 -6.419,-5.425 -2.354,-0.383 -5.285,-0.128 -7.329,1.249 -0.08,-0.17 -0.201,-0.321 -0.411,-0.412 -2.596,-1.122 -4.101,-2.755 -7.095,-3.024 -2.297,-0.207 -4.486,-0.156 -6.755,0.213 -1.179,0.192 -5.18,1.466 -5.566,3.216 -5.734,-3.479 -13.351,-1.405 -16.478,4.503 -0.093,-0.074 -0.203,-0.127 -0.33,-0.145 -0.094,-0.013 -0.189,-0.026 -0.283,-0.04 -0.203,-0.028 -0.377,0.019 -0.53,0.096 -1.125,0.233 -2.492,0.058 -3.65,0.376 -1.424,0.391 -2.823,1.16 -3.983,2.059 -2.073,1.607 -4.059,3.981 -4.228,6.692 -0.135,0.042 -0.273,0.109 -0.41,0.216 -0.628,0.492 -1.335,0.93 -2.08,1.346 -0.141,-0.106 -0.321,-0.167 -0.503,-0.14 -1.464,0.22 -2.89,0.689 -4.233,1.352 -0.631,0.312 -1.239,0.73 -1.635,1.321 -0.348,0.521 -0.147,0.8 0.046,1.192 -1.033,0.877 -1.876,1.923 -2.353,3.278 -1.557,4.43 -6.016,7.941 -6.011,12.973 0.002,2.386 -0.039,4.423 -0.626,6.696 -0.463,1.794 -0.668,3.562 -0.709,5.412 -0.061,2.804 0.845,5.291 3.131,6.673 -0.573,5.306 1.318,11.063 7.475,11.293 0.623,0.023 0.647,-0.814 0.137,-1.014 -4.701,-1.839 -6.12,-5.888 -5.388,-10.585 0.101,-0.648 -0.162,-1.097 -0.764,-1.345 -3.755,-1.551 -2.656,-8.084 -1.33,-10.94 1.338,-2.882 -0.085,-5.906 0.772,-9.011 0.855,-3.097 3.922,-5.071 4.835,-8.369 1.331,-4.809 6.946,-5.89 10.465,-8.538 0.484,-0.364 0.543,-0.847 0.379,-1.233 2.222,-4.365 5.692,-8.129 11.081,-7.666 0.293,0.025 0.586,-0.142 0.785,-0.375 0.138,0.006 0.276,-0.031 0.377,-0.141 3.119,-3.376 5.927,-5.743 10.777,-5.71 1.694,0.011 4.492,2.64 5.995,1.334 0.152,-0.132 0.201,-0.302 0.207,-0.474 2.234,-1.586 4.139,-2.143 6.998,-2.415 1.719,-0.163 3.494,-0.024 5.192,0.236 2.073,0.317 3.581,1.833 5.484,2.587 0.273,0.108 0.527,0.073 0.737,-0.049 2.066,-0.139 4.063,-0.639 6.167,-0.665 4.491,-0.056 5.543,3.387 7.307,6.554 0.228,0.409 0.724,0.587 1.167,0.475 4.842,-1.229 11.042,-0.501 11.332,5.965 0.028,0.626 0.515,0.943 1.002,0.965 0.05,0.149 0.151,0.285 0.328,0.378 3.854,2.033 6.531,3.76 7.085,8.418 0.164,1.38 0.233,3.246 1.149,4.382 1.008,1.25 2.331,0.637 3.661,1.31 4.013,2.031 3.49,5.599 3.127,9.191 -0.027,0.27 0.104,0.503 0.302,0.667 -0.166,0.185 -0.237,0.454 -0.077,0.679 2.81,3.938 2.309,7.232 0.811,11.53 -1.49,4.274 -1.738,8.729 -5.058,12.08 -0.658,0.664 0.172,1.643 0.963,1.248 0.017,-0.009 0.032,-0.021 0.049,-0.029 0,0.015 -0.006,0.027 -0.005,0.042 0.249,3.091 0.439,5.969 -0.469,8.992 -1.063,3.538 -4.945,6.912 -8.722,5.605 -0.699,-0.242 -1.072,0.785 -0.486,1.153 3.545,2.229 7.32,-0.315 9.602,-3.185 2.786,-3.503 2.817,-8.665 1.604,-12.772 -0.078,-0.266 -0.279,-0.422 -0.507,-0.494 3.679,-2.848 4.262,-9.375 5.698,-13.332 z"
   id="path127" />

		<path
   style="fill:#ffffff"
   d="m 445.83,96.063 c 1.093,-2.09 2.359,-4.815 2.248,-7.2 -0.052,-1.114 -1.8,-1.467 -2.028,-0.274 -0.52,2.721 -1.614,5.336 -2.86,7.802 -0.664,1.315 -2.021,3.176 -2.229,4.869 -1.366,1.563 -2.433,3.359 -3.652,5.053 -1.96,2.725 -4.525,5.107 -7.199,7.117 -2.322,1.745 -8.276,3.143 -9.052,6.163 -0.027,0.106 0.086,0.19 0.181,0.139 4.02,-2.197 8.313,-3.123 12.028,-5.99 3.94,-3.041 7.818,-7.619 9.844,-12.184 0.167,-0.376 0.076,-0.754 -0.133,-1.023 0.053,-0.09 0.102,-0.18 0.158,-0.269 0.896,-1.412 1.917,-2.717 2.694,-4.203 z"
   id="path128" />

		<path
   style="fill:#ffffff"
   d="m 383.038,119.237 c -3.516,4.131 -8.805,7.342 -11.549,11.865 -0.186,-0.051 -0.391,-0.021 -0.553,0.154 -2.027,2.193 -2.191,5.313 -1.1,7.986 0.002,0.014 0.003,0.028 0.005,0.042 0.003,-0.001 0.006,-0.003 0.009,-0.004 0.032,0.078 0.054,0.158 0.088,0.235 0.382,0.857 1.925,0.454 1.805,-0.489 -1.162,-9.124 8.962,-12.061 12.542,-18.826 0.407,-0.766 -0.639,-1.677 -1.247,-0.963 z"
   id="path129" />

		<path
   style="fill:#ffffff"
   d="m 424.718,119.075 c -0.362,-0.242 -0.827,0.234 -0.594,0.594 1.926,2.981 4.916,5.251 7.333,7.829 1.829,1.951 3.438,4.02 4.425,6.532 0.508,1.292 0.302,2.818 0.667,4.161 0.115,0.422 0.473,0.632 0.883,0.673 0.058,0.006 0.117,0.011 0.175,0.017 0.413,0.04 0.707,-0.363 0.729,-0.729 0.501,-8.435 -7.152,-14.745 -13.618,-19.077 z"
   id="path130" />

		<path
   style="fill:#ffffff"
   d="m 369.63,177.497 c -4.919,-1.858 -8.629,-6.709 -6.327,-12.094 1.036,-2.423 3.55,-4.779 4.772,-7.272 2.302,-4.699 3.501,-11.131 4.269,-16.282 0.125,-0.836 -1.006,-1.187 -1.286,-0.355 -1.45,4.312 -2.682,8.448 -3.667,12.885 -1.025,4.62 -4.81,7.696 -6.444,11.96 -2.026,5.287 3.35,12.147 8.496,12.543 0.847,0.065 0.88,-1.123 0.187,-1.385 z"
   id="path131" />

		<path
   style="fill:#ffffff"
   d="m 442.466,159.038 c -0.999,-2.685 -1.358,-5.638 -2.352,-8.363 -1.105,-3.028 -2.416,-5.994 -3.653,-8.97 -0.215,-0.516 -0.973,-0.337 -0.853,0.235 1.306,6.225 3.257,13.032 5.46,18.992 1.125,3.043 3.173,4.697 3.382,8.217 0.256,4.304 -2.062,8.008 -6.492,8.577 -1.218,0.156 -1.264,2.076 0,1.95 5.728,-0.569 8.28,-5.117 8.406,-10.527 0.096,-4.165 -2.535,-6.447 -3.898,-10.111 z"
   id="path132" />

		<path
   style="fill:#ffffff"
   d="m 384.485,171.466 c -1.405,-4.846 -1.418,-9.373 -0.952,-14.349 0.462,-4.945 -0.543,-9.919 0.16,-14.823 0.082,-0.57 -0.71,-0.826 -0.885,-0.244 -1.466,4.878 -0.932,10.048 -1.49,15.067 -0.573,5.157 -0.869,10.304 1.49,15.056 0.468,0.944 1.963,0.279 1.677,-0.707 z"
   id="path133" />

		<path
   style="fill:#ffffff"
   d="m 427.971,174.48 c 0.132,-0.035 0.232,-0.137 0.209,-0.324 -0.078,-0.636 -0.166,-1.22 -0.436,-1.806 -0.006,-0.013 -0.021,-0.009 -0.031,-0.017 -0.001,-0.041 -0.005,-0.088 -0.005,-0.128 0.002,-0.522 -0.402,-0.869 -0.846,-0.915 0.002,-0.005 0.005,-0.007 0.007,-0.011 2.897,-8.527 0.117,-20.08 -2.737,-28.325 -0.12,-0.346 -0.719,-0.316 -0.676,0.091 0.952,9.015 3.638,18.777 1.47,27.697 -0.18,0.741 0.37,1.202 0.941,1.227 -0.074,0.296 0.012,0.618 0.217,0.869 0.005,0.007 0.009,0.01 0.014,0.017 -0.121,0.008 -0.242,0.204 -0.229,0.925 0.037,2.013 1.236,4.131 1.77,6.05 0.723,2.597 0.694,5.447 0.929,8.124 0.391,4.454 -1.476,5.962 -4.938,7.586 -0.325,0.153 -0.136,0.608 0.17,0.626 11.817,0.69 5.578,-14.198 4.171,-21.686 z"
   id="path134" />

		<path
   style="fill:#ffffff"
   d="m 391.288,195.236 c -1.248,-0.757 -2.641,-0.529 -4.044,-0.507 -0.901,0.014 -1.799,0.032 -2.687,-0.134 -0.197,-0.037 -0.371,-0.111 -0.537,-0.199 0.009,-0.106 -0.004,-0.219 -0.047,-0.338 -2.535,-6.989 0.593,-14.471 -1.163,-21.483 -0.049,-0.194 -0.237,-0.415 -0.445,-0.445 -0.024,-0.004 -0.048,-0.007 -0.072,-0.011 -0.581,-0.085 -1.053,0.544 -0.596,1.025 0.522,0.549 -0.37,4.96 -0.469,5.773 -0.25,2.055 -0.458,4.099 -0.529,6.169 -0.105,3.035 0.199,6.398 1.44,9.206 0.012,0.04 0.008,0.077 0.027,0.117 0.057,0.113 0.113,0.227 0.17,0.34 0.108,0.216 0.279,0.339 0.47,0.395 0.561,0.66 1.672,1.086 2.332,1.251 0.217,0.054 0.437,0.098 0.659,0.135 -0.166,0.082 -0.3,0.245 -0.359,0.52 -0.46,2.13 -0.173,4.409 0.087,6.551 0.255,2.097 0.524,4.845 1.807,6.583 0.428,0.58 1.337,0.402 1.374,-0.372 0.088,-1.863 -0.621,-3.829 -0.895,-5.677 -0.331,-2.234 -0.376,-4.532 -0.758,-6.753 0.011,-0.107 -0.004,-0.213 -0.047,-0.313 -10e-4,-0.007 -0.002,-0.013 -0.003,-0.02 -0.002,0.001 -0.003,0.003 -0.005,0.004 -0.076,-0.168 -0.214,-0.315 -0.382,-0.421 1.436,0.124 2.931,-0.012 4.323,-0.115 0.668,-0.048 0.962,-0.91 0.349,-1.281 z"
   id="path135" />

		<path
   style="fill:#ffffff"
   d="m 424.036,196.65 c -0.376,-0.206 -0.765,0.128 -0.686,0.527 -0.038,-0.191 -0.1,1.081 -0.108,1.34 -0.036,1.13 -0.156,2.264 -0.266,3.388 -0.274,2.802 -0.464,5.618 -0.219,8.431 0.098,1.117 1.643,1.12 1.737,0 0.25,-2.978 0.355,-6.047 0.456,-9.04 0.044,-1.296 0.465,-3.892 -0.914,-4.646 z"
   id="path136" />

		<path
   style="fill:#ffffff"
   d="m 388.318,210.753 c -4.239,-0.915 -12.624,2.536 -12.032,7.798 0.083,0.738 1.071,0.934 1.32,0.179 1.634,-4.974 6.529,-5.116 10.712,-6.713 0.556,-0.211 0.692,-1.114 0,-1.264 z"
   id="path137" />

		<path
   style="fill:#ffffff"
   d="m 434.095,216.667 c -1.657,-1.136 -2.598,-3.005 -4.402,-3.985 -1.884,-1.024 -4.23,-1.655 -6.355,-1.183 -0.41,0.091 -0.406,0.728 0,0.822 2.378,0.546 4.399,1.063 6.259,2.775 1.182,1.088 2.023,2.577 3.409,3.436 1.195,0.741 2.223,-1.087 1.089,-1.865 z"
   id="path138" />

		<path
   style="fill:#573f45"
   d="m 457.974,78.913 c 1.196,-1.593 7.55,-10.733 1.083,-16.939 0.232,-1.44 0.716,-5.973 -1.636,-9.506 -1.337,-2.01 -3.352,-3.341 -5.994,-3.961 0.01,-1.735 -0.243,-6.319 -2.978,-9.383 -1.473,-1.65 -3.427,-2.597 -5.817,-2.82 -0.59,-2.049 -3.068,-8.693 -10.413,-8.693 -1.122,0 -2.319,0.159 -3.567,0.471 -0.598,-2.137 -2.744,-7.559 -9.115,-7.559 -1.763,0 -3.727,0.424 -5.848,1.263 -1.189,-1.047 -4.953,-3.975 -9.858,-3.975 -3.551,0 -6.895,1.533 -9.95,4.558 -1.076,-0.472 -3.657,-1.441 -6.678,-1.441 -4.444,0 -8.041,2.123 -10.431,6.146 -2.067,0.2 -10.726,1.484 -13.243,9.045 -2.335,0.319 -11.234,2.199 -11.652,12.384 -1.489,1.034 -6.631,5.286 -4.772,13.646 -0.778,1.535 -3.998,8.864 1.669,15.354 -0.047,1.197 -0.041,5.207 1.81,8.136 -0.01,0.014 -0.023,0.025 -0.033,0.039 -1.314,1.735 -2.54,5.019 -0.911,10.818 1.863,6.638 5.975,8.032 9.097,8.032 1.462,0 2.8,-0.304 3.824,-0.629 1.257,1.917 2.68,3.694 4.303,5.25 4.21,4.033 9.297,7.341 14.862,9.782 -5.554,4.49 -12.659,10.977 -13.812,15.592 -0.352,1.407 -0.109,2.766 0.724,4.04 0.425,0.65 0.993,1.252 1.662,1.809 -1.799,5.541 -4.271,13.207 -5.773,18.091 -0.452,1.469 -1.219,2.532 -2.031,3.658 -1.285,1.783 -2.616,3.627 -2.616,7.025 0,5.581 5.128,11.252 8.815,11.252 0.116,0 0.23,-0.005 0.344,-0.015 0.852,-0.078 2.04,-0.285 2.532,-1.191 0.572,-1.056 -0.114,-2.352 -0.981,-3.994 -0.196,-0.369 -0.404,-0.761 -0.61,-1.176 l -0.466,-0.925 c -0.707,-1.399 -1.352,-2.676 -1.627,-3.611 0.124,0.176 0.247,0.354 0.358,0.515 1.155,1.673 2.349,3.4 3.74,3.401 0.251,0 0.491,-0.057 0.718,-0.17 0.948,-0.475 1.672,-1.411 2.037,-2.637 0.573,-1.926 0.174,-4.28 -1.096,-6.456 -1.078,-1.851 1.944,-7.8 4.611,-13.049 1.004,-1.977 2.024,-3.987 2.937,-5.947 0.175,0.045 0.346,0.088 0.512,0.129 -1.572,11.584 -2.334,21.798 -0.794,25.561 -0.676,6.997 -1.634,20.227 -0.391,23.211 0.516,1.239 1.966,2.043 4.354,2.446 0.151,2.485 0.475,6.694 1.121,13.871 -6.301,0.358 -10.265,4.905 -10.646,7.394 -0.169,1.106 0.293,1.969 1.205,2.255 1.41,0.441 6.381,0.671 10.563,0.671 9.904,0 10.526,-1.035 10.792,-1.478 1.088,-1.814 0.582,-6.259 -0.126,-7.674 -0.161,-0.322 -0.44,-0.641 -1.372,-0.88 l 2.281,-14.57 0.167,-0.019 c 1.823,-0.202 3.267,-2.508 4.664,-4.739 0.761,-1.216 2.035,-3.249 2.627,-3.249 0.519,0 1.045,1.391 1.507,2.618 0.675,1.784 1.514,4.005 3.269,5.233 0.437,0.306 0.997,0.542 1.621,0.731 l 2.191,13.996 c -0.932,0.239 -1.211,0.557 -1.372,0.879 -0.708,1.415 -1.213,5.862 -0.125,7.675 0.265,0.443 0.887,1.478 10.791,1.478 h 10e-4 c 4.181,0 9.152,-0.23 10.562,-0.671 0.913,-0.286 1.374,-1.149 1.205,-2.255 -0.38,-2.49 -4.344,-7.036 -10.646,-7.394 0.652,-7.252 0.976,-11.473 1.125,-13.947 1.545,-0.362 2.86,-0.833 3.687,-1.412 2.551,-1.786 0.428,-16.098 -1.349,-25.154 0.45,-4.5 -0.873,-14.357 -2.625,-24.573 0.17,-0.042 0.345,-0.086 0.524,-0.132 0.912,1.96 1.932,3.97 2.936,5.947 2.667,5.25 5.689,11.199 4.611,13.049 -1.27,2.176 -1.669,4.53 -1.096,6.456 0.365,1.226 1.089,2.162 2.038,2.637 0.225,0.113 0.466,0.17 0.717,0.17 1.39,0 2.585,-1.729 3.74,-3.4 0.111,-0.162 0.234,-0.34 0.359,-0.516 -0.277,0.935 -0.922,2.211 -1.629,3.61 l -0.466,0.926 c -0.207,0.415 -0.415,0.807 -0.61,1.176 -0.867,1.642 -1.554,2.938 -0.981,3.994 0.492,0.906 1.68,1.113 2.532,1.191 0.114,0.01 0.227,0.015 0.344,0.015 0,0 0,0 0.001,0 3.686,-0.001 8.814,-5.671 8.814,-11.252 0,-3.398 -1.33,-5.242 -2.616,-7.027 -0.812,-1.125 -1.579,-2.188 -2.031,-3.657 -1.502,-4.884 -3.974,-12.551 -5.773,-18.092 0.668,-0.556 1.236,-1.158 1.661,-1.808 0.833,-1.274 1.076,-2.633 0.724,-4.04 -1.17,-4.682 -8.465,-11.29 -14.053,-15.786 5.841,-2.974 11.654,-7.651 16.455,-14.909 1.048,0.35 2.482,0.7 4.053,0.7 h 10e-4 c 3.122,0 7.232,-1.394 9.096,-8.032 1.396,-4.972 0.693,-8.092 -0.364,-9.975 2.825,-2.479 3.009,-6.46 2.996,-7.608 z m -4.148,17.157 c -1.283,4.568 -3.834,6.885 -7.583,6.885 h -10e-4 c -1.185,0 -2.299,-0.237 -3.177,-0.502 0.579,-0.94 1.147,-1.908 1.691,-2.931 1.961,-3.685 3.401,-7.356 4.357,-10.966 0.453,-0.004 0.925,-0.035 1.411,-0.102 1.255,-0.174 2.289,-0.541 3.158,-1.023 1.101,2.076 1.156,5.035 0.144,8.639 z m -15.565,38.833 c 0.245,0.979 0.077,1.893 -0.514,2.798 -2.031,3.107 -8.22,5.065 -12.03,6.011 -1.507,-8.609 -3.262,-17.264 -4.468,-23.005 0.965,-0.361 1.936,-0.759 2.91,-1.206 5.49,4.368 13.002,11.003 14.102,15.402 z m 7.987,34.242 c 0,4.58 -4.317,9.678 -7.242,9.679 -0.069,0 -0.135,-0.003 -0.203,-0.009 -1.131,-0.102 -1.284,-0.362 -1.29,-0.374 -0.171,-0.316 0.5,-1.583 0.989,-2.509 0.201,-0.379 0.414,-0.781 0.627,-1.208 l 0.463,-0.919 c 1.455,-2.881 2.418,-4.785 1.69,-6.241 -0.183,-0.366 -0.52,-0.585 -0.902,-0.585 -0.747,0 -1.269,0.756 -2.217,2.128 -0.562,0.813 -1.878,2.717 -2.458,2.717 h -10e-4 c -0.548,-0.273 -0.997,-0.886 -1.234,-1.678 -0.45,-1.512 -0.105,-3.412 0.946,-5.215 1.512,-2.591 -1.305,-8.135 -4.566,-14.554 -0.956,-1.882 -1.924,-3.793 -2.797,-5.655 2.583,-0.746 5.644,-1.855 8.011,-3.38 1.781,5.491 4.152,12.85 5.608,17.583 0.528,1.715 1.407,2.935 2.258,4.115 1.191,1.653 2.318,3.215 2.318,6.105 z m -19.47,1.929 c -1.436,1.567 -12.5,3.387 -24.615,3.387 -0.001,0 -0.002,0 -0.003,0 -10.695,0 -18.216,-1.483 -19.626,-3.87 -2.141,-3.623 -0.563,-20.312 4.689,-49.594 2.441,0.78 4.941,1.398 7.477,1.844 1.063,3.678 3.69,8.563 10.165,8.969 0.202,0.012 0.401,0.018 0.595,0.018 0.001,0 0.001,0 0.002,0 4.181,0 7.253,-2.854 8.883,-8.253 0.096,-0.317 0.181,-0.633 0.262,-0.947 1.667,-0.35 3.392,-0.809 5.146,-1.394 4.956,23.581 8.899,47.797 7.025,49.84 z m 7.342,47.434 c -1.058,0.331 -5.586,0.599 -10.093,0.599 h -10e-4 c -6.507,0 -9.01,-0.496 -9.477,-0.777 -0.689,-1.285 -0.318,-4.884 0.181,-6.019 0.204,-0.111 1.218,-0.498 5.501,-0.498 1.483,0 2.849,0.045 3.58,0.07 0.281,0.009 0.474,0.015 0.551,0.015 5.789,0 9.561,4.025 9.878,6.093 0.07,0.458 -0.073,0.502 -0.12,0.517 z m -10.546,-8.207 c -0.782,-0.025 -2.016,-0.061 -3.343,-0.061 -1.721,0 -2.991,0.058 -3.945,0.155 l -2.094,-13.374 c 1.315,0.206 2.734,0.268 3.949,0.268 2.073,0 4.425,-0.189 6.542,-0.555 -0.242,3.542 -0.711,9.113 -1.109,13.567 z m -5.433,-14.585 c -2.987,0 -5.35,-0.404 -6.319,-1.082 -1.357,-0.951 -2.07,-2.837 -2.698,-4.501 -0.706,-1.869 -1.372,-3.635 -2.979,-3.635 -1.464,0 -2.621,1.848 -3.96,3.988 -1.086,1.734 -2.437,3.892 -3.505,4.01 l -0.693,0.081 c -1.772,0.21 -5.458,0.647 -8.871,0.647 -5.779,0 -6.924,-1.249 -7.147,-1.786 -0.986,-2.367 -0.265,-13.712 0.359,-20.825 3.825,2.938 13.784,3.42 19.833,3.42 0.002,0 0.002,0 0.003,0 10.196,0 22.402,-1.359 25.404,-3.577 1.53,8.746 2.879,20.203 1.491,21.256 -1.607,1.124 -6.402,2.004 -10.918,2.004 z M 396.59,218.33 c -0.467,0.282 -2.971,0.777 -9.478,0.777 -4.507,0 -9.036,-0.268 -10.094,-0.599 -0.047,-0.014 -0.189,-0.059 -0.12,-0.516 0.316,-2.068 4.089,-6.093 9.878,-6.093 0.077,0 0.269,-0.006 0.551,-0.015 0.731,-0.025 2.097,-0.07 3.58,-0.07 4.283,0 5.297,0.386 5.501,0.498 0.5,1.133 0.871,4.731 0.182,6.018 z m -5.682,-8.09 c -1.327,0 -2.561,0.036 -3.343,0.061 -0.4,-4.475 -0.871,-10.079 -1.112,-13.618 0.813,0.069 1.683,0.114 2.662,0.114 2.903,0 5.957,-0.304 7.95,-0.53 l -2.212,14.128 c -0.954,-0.097 -2.224,-0.155 -3.945,-0.155 z m -18.624,-45.309 c 1.052,1.802 1.396,3.703 0.946,5.215 -0.237,0.793 -0.686,1.405 -1.247,1.683 -0.565,-0.001 -1.883,-1.908 -2.446,-2.722 -0.948,-1.371 -1.47,-2.127 -2.217,-2.127 -0.381,0 -0.718,0.219 -0.901,0.585 -0.729,1.456 0.233,3.36 1.689,6.241 l 0.463,0.919 c 0.213,0.427 0.426,0.829 0.627,1.208 0.49,0.926 1.16,2.194 0.989,2.509 -0.006,0.011 -0.16,0.271 -1.29,0.374 -0.068,0.006 -0.135,0.009 -0.203,0.009 -2.925,0 -7.242,-5.098 -7.242,-9.679 0,-2.89 1.127,-4.452 2.319,-6.106 0.851,-1.18 1.731,-2.399 2.258,-4.115 1.456,-4.733 3.827,-12.092 5.609,-17.583 2.367,1.525 5.427,2.634 8.011,3.38 -0.873,1.862 -1.841,3.773 -2.798,5.655 -3.262,6.42 -6.078,11.963 -4.567,14.554 z m -2.331,-27.23 c -0.591,-0.904 -0.759,-1.819 -0.514,-2.798 1.09,-4.359 8.474,-10.913 13.951,-15.281 0.767,0.307 1.543,0.597 2.325,0.872 -1.304,7.258 -2.712,15.477 -3.796,23.201 -3.815,-0.951 -9.946,-2.904 -11.966,-5.994 z m 26.441,-14.577 c 2.596,0.375 5.219,0.57 7.84,0.57 2.464,0 5.425,-0.183 8.652,-0.741 -0.016,0.056 -0.029,0.111 -0.046,0.166 -1.429,4.734 -3.911,7.135 -7.377,7.135 -0.001,0 -0.001,0 -0.002,0 -0.162,0 -0.329,-0.005 -0.497,-0.016 -5.214,-0.325 -7.533,-3.996 -8.57,-7.114 z m 7.839,-1.003 c -13.496,0 -27.059,-5.274 -36.282,-14.109 -5.074,-4.861 -8.294,-11.818 -9.443,-19.38 4.566,-1.158 6.255,-6.339 6.565,-9.679 1.935,-0.293 7.344,-1.632 9.98,-7.582 1.76,0.324 6.366,0.584 9.976,-3.606 0.912,0.439 2.756,1.162 5.043,1.163 2.319,0 4.477,-0.732 6.428,-2.178 1.189,0.919 4.295,2.999 8.025,2.999 2.663,0 5.082,-1.052 7.202,-3.13 1.349,1.104 4.832,3.598 8.757,3.598 1.544,0 2.992,-0.388 4.314,-1.157 1.205,1.572 4.688,5.503 9.372,5.503 0.419,0 0.839,-0.033 1.257,-0.096 0.398,1.996 1.82,6.852 6.295,7.745 0.39,2.222 1.969,5.515 5.8,6.211 -0.924,3.409 -2.299,6.875 -4.153,10.36 -10.805,20.307 -29.157,23.338 -39.136,23.338 z m -52.621,-35.19 c 1.23,1.231 2.808,1.888 4.706,1.94 l 0.249,0.003 c 0.138,0 0.263,-0.019 0.397,-0.026 0.747,4.925 2.335,9.605 4.72,13.668 -0.84,0.237 -1.862,0.438 -2.948,0.438 -3.749,0 -6.301,-2.317 -7.584,-6.885 -1.097,-3.91 -0.927,-7.05 0.46,-9.138 z m 98.696,-0.036 c -0.442,0.061 -0.872,0.093 -1.278,0.093 -5.26,0 -5.803,-5.306 -5.823,-5.531 -0.034,-0.373 -0.325,-0.672 -0.697,-0.713 -4.836,-0.538 -5.651,-7.232 -5.659,-7.3 -0.026,-0.226 -0.147,-0.43 -0.336,-0.559 -0.186,-0.128 -0.421,-0.17 -0.642,-0.115 -0.562,0.146 -1.135,0.219 -1.703,0.219 -4.875,0 -8.477,-5.37 -8.512,-5.425 -0.117,-0.177 -0.3,-0.299 -0.509,-0.339 -0.21,-0.039 -0.426,0.007 -0.598,0.128 -1.224,0.856 -2.592,1.29 -4.066,1.29 -4.3,0 -8.227,-3.641 -8.267,-3.678 -0.152,-0.144 -0.355,-0.249 -0.567,-0.213 -0.21,0.007 -0.409,0.098 -0.55,0.253 -1.934,2.103 -4.146,3.17 -6.575,3.17 -4.07,0 -7.455,-2.987 -7.488,-3.018 -0.291,-0.259 -0.726,-0.269 -1.024,-0.021 -1.793,1.473 -3.792,2.219 -5.941,2.219 -2.751,-0.001 -4.809,-1.244 -4.83,-1.258 -0.343,-0.208 -0.789,-0.129 -1.033,0.186 -2.367,3.043 -5.255,3.682 -7.26,3.682 -1.265,0 -2.128,-0.258 -2.134,-0.26 -0.4,-0.122 -0.817,0.082 -0.967,0.467 -2.643,6.796 -9.28,7.271 -9.56,7.288 -0.402,0.025 -0.724,0.35 -0.741,0.753 -0.016,0.371 -0.463,9.087 -6.98,9.087 l -0.206,-0.003 c -1.602,-0.043 -2.854,-0.589 -3.829,-1.669 -2.555,-2.831 -2.175,-8.292 -2.171,-8.348 0.016,-0.216 -0.057,-0.429 -0.203,-0.589 -5.874,-6.443 -1.723,-13.727 -1.543,-14.035 0.102,-0.175 0.134,-0.384 0.087,-0.582 -2.082,-8.705 4.072,-12.304 4.333,-12.452 0.244,-0.136 0.397,-0.392 0.402,-0.672 0.188,-10.594 10.305,-11.297 10.735,-11.322 0.334,-0.02 0.621,-0.248 0.712,-0.569 2.272,-7.948 12.292,-8.445 12.393,-8.449 0.273,-0.01 0.522,-0.163 0.655,-0.401 2.121,-3.787 5.241,-5.708 9.27,-5.708 3.511,0 6.459,1.498 6.488,1.514 0.311,0.162 0.688,0.097 0.929,-0.154 2.852,-2.971 5.952,-4.477 9.212,-4.477 5.181,0 9.098,3.836 9.137,3.875 0.225,0.223 0.564,0.291 0.859,0.168 2.107,-0.884 4.028,-1.331 5.71,-1.331 6.541,0 7.715,6.795 7.762,7.084 0.036,0.223 0.167,0.421 0.358,0.542 0.193,0.121 0.427,0.153 0.642,0.088 1.393,-0.415 2.711,-0.626 3.919,-0.626 7.336,0 8.957,7.691 9.023,8.018 0.071,0.355 0.375,0.618 0.737,0.633 2.214,0.096 3.995,0.881 5.293,2.332 2.916,3.261 2.569,8.865 2.565,8.921 -0.028,0.399 0.249,0.756 0.642,0.827 2.533,0.465 4.426,1.615 5.628,3.416 2.406,3.606 1.341,8.709 1.329,8.76 -0.06,0.278 0.035,0.567 0.248,0.756 6.521,5.775 -0.799,14.924 -1.113,15.312 -0.127,0.156 -0.189,0.355 -0.175,0.556 0.02,0.297 0.457,7.271 -6.088,8.18 z"
   id="path139" />

		<path
   style="fill:#573f45"
   d="m 421.003,93.058 c 2.413,0 4.37,-1.956 4.37,-4.37 0,-2.413 -1.956,-4.37 -4.37,-4.37 -2.414,0 -4.37,1.956 -4.37,4.37 0.001,2.413 1.957,4.37 4.37,4.37 z m -1.048,-7.516 c 0.965,0 1.748,0.783 1.748,1.748 0,0.965 -0.783,1.748 -1.748,1.748 -0.965,0 -1.748,-0.783 -1.748,-1.748 0,-0.965 0.782,-1.748 1.748,-1.748 z"
   id="path140" />

		<path
   style="fill:#573f45"
   d="m 386.746,93.058 c 2.413,0 4.37,-1.956 4.37,-4.37 0,-2.413 -1.956,-4.37 -4.37,-4.37 -2.413,0 -4.369,1.956 -4.369,4.37 0,2.413 1.956,4.37 4.369,4.37 z m -1.049,-7.516 c 0.965,0 1.748,0.783 1.748,1.748 0,0.965 -0.783,1.748 -1.748,1.748 -0.965,0 -1.748,-0.783 -1.748,-1.748 10e-4,-0.965 0.783,-1.748 1.748,-1.748 z"
   id="path141" />

		<path
   style="fill:#573f45"
   d="m 405.098,95.491 c 0.463,-0.062 0.865,-0.354 1.35,-0.247 0.328,0.072 0.605,0.352 0.733,0.656 0.13,0.311 0.176,0.698 0.034,1.014 -0.215,0.481 -0.757,0.648 -1.17,0.914 -0.472,0.303 -0.268,0.988 0.277,1.023 1.719,0.108 2.617,-1.908 1.966,-3.314 -0.286,-0.617 -0.812,-1.091 -1.472,-1.269 -0.671,-0.181 -1.669,0.065 -2.007,0.718 -0.104,0.198 0.018,0.541 0.289,0.505 z"
   id="path142" />

		<path
   style="fill:#573f45"
   d="m 403.797,115.173 c 0.502,0 1.03,-0.034 1.57,-0.099 6.742,-0.817 9.524,-5.351 9.75,-8.2 0.105,-1.322 -0.358,-2.261 -1.238,-2.512 -1.14,-0.326 -6.978,-0.977 -11.657,-0.977 -4.527,0 -6.451,0.546 -6.641,1.883 -0.157,1.094 -0.098,4.795 2.138,7.375 1.456,1.679 3.502,2.53 6.078,2.53 z m -6.67,-9.597 c 0.175,-0.128 1.104,-0.618 5.095,-0.618 4.633,0 10.269,0.643 11.195,0.901 0.105,0.094 0.29,0.742 -0.073,1.885 -0.763,2.403 -3.308,5.18 -8.165,5.769 -2.767,0.335 -4.887,-0.306 -6.272,-1.901 -1.82,-2.099 -1.873,-5.161 -1.78,-6.036 z"
   id="path143" />

	</g>
  </g>
</svg>
