<?xml version="1.0" encoding="UTF-8" standalone="no"?>
<!-- Created with Inkscape (http://www.inkscape.org/) -->

<svg
   width="23.929653mm"
   height="48.94297mm"
   viewBox="0 0 23.929654 48.942975"
   version="1.1"
   id="svg1"
   inkscape:version="1.4.2 (f4327f4, 2025-05-13)"
   sodipodi:docname="boy11.svg"
   xmlns:inkscape="http://www.inkscape.org/namespaces/inkscape"
   xmlns:sodipodi="http://sodipodi.sourceforge.net/DTD/sodipodi-0.dtd"
   xmlns="http://www.w3.org/2000/svg"
   xmlns:svg="http://www.w3.org/2000/svg">
  <sodipodi:namedview
     id="namedview1"
     pagecolor="#ffffff"
     bordercolor="#000000"
     borderopacity="0.25"
     inkscape:showpageshadow="2"
     inkscape:pageopacity="0.0"
     inkscape:pagecheckerboard="0"
     inkscape:deskcolor="#d1d1d1"
     inkscape:document-units="mm"
     inkscape:zoom="1.2275954"
     inkscape:cx="-82.274665"
     inkscape:cy="-52.949042"
     inkscape:window-width="2880"
     inkscape:window-height="1676"
     inkscape:window-x="-12"
     inkscape:window-y="-12"
     inkscape:window-maximized="1"
     inkscape:current-layer="layer1" />
  <defs
     id="defs1">
    <clipPath
       clipPathUnits="userSpaceOnUse"
       id="clipPath119">
      <path
         d="m 2429.58,8528.87 v 0 l -1.54,4.27 c 7.66,35.49 -15.79,67.53 -15.79,67.53 10.47,20.59 15.22,39.01 16.15,55.3 95.03,81.21 245.93,222.7 239.94,298.46 -6.68,84.06 -297.09,299.7 -435.14,397.71 -1.96,12.33 -3.87,24.38 -5.72,36.02 -4.67,29.42 -8.97,56.5 -12.82,80.63 v 0 c 0,0 399.66,-281.36 528.14,-436.13 0,0 44.89,-42.39 44.81,-102.96 0,-4.99 -0.32,-10.11 -0.98,-15.34 -8.76,-68.62 -357.05,-385.49 -357.05,-385.49"
         transform="translate(0,2.5000001e-4)"
         id="path119" />
    </clipPath>
    <clipPath
       clipPathUnits="userSpaceOnUse"
       id="clipPath299">
      <path
         d="m 6622.23,11070.3 c 4.28,3.8 8.4,7.9 12.38,12.2 -0.48,-0.6 -0.96,-1.2 -1.45,-1.8 -3.23,-3.4 -6.57,-6.6 -10.01,-9.8 -0.22,-0.1 -0.44,-0.3 -0.66,-0.4 l -0.26,-0.2"
         transform="translate(0,2.5000001e-4)"
         id="path299" />
    </clipPath>
    <clipPath
       clipPathUnits="userSpaceOnUse"
       id="clipPath602">
      <path
         d="m 4237.98,3522.14 c 0,0 0,0.01 0,0.02 0,-0.01 0,-0.01 0,-0.02 m 0.01,0.2 c 0,0.1 0.01,0.2 0.01,0.3 0,-0.1 -0.01,-0.2 -0.01,-0.3"
         transform="translate(0,2.5000001e-4)"
         id="path602" />
    </clipPath>
  </defs>
  <g
     inkscape:label="图层 1"
     inkscape:groupmode="layer"
     id="layer1"
     transform="translate(-126.2061,-352.16018)">
    <g
       id="g62"
       transform="matrix(0.26458333,0,0,0.26458333,32.560607,340.1058)">
		<path
   style="fill:#33527b"
   d="m 368.79,87.808 c 0,0 -8.734,-20.253 5.81,-35.861 13.834,-13.834 39.729,-0.887 39.729,-0.887 0,0 10.642,-7.272 22.525,6.917 11.883,14.189 5.506,45.937 -18.619,42.744 C 394.11,97.529 368.79,87.808 368.79,87.808 Z"
   id="path28" />

		<path
   style="fill:#f3ddc9"
   d="m 409.214,55.059 h -10.399 c -17.295,0 -30.398,22.82 -26.097,39.572 2.546,9.919 10.835,18.223 31.453,18.223 23.5,0 30.784,-10.789 31.788,-22.46 1.334,-15.505 -11.182,-35.335 -26.745,-35.335 z"
   id="path29" />

		<rect
   x="400.01199"
   y="110.656"
   style="fill:#f3ddc9"
   width="7.927"
   height="8.165"
   id="rect29" />

		<path
   style="fill:#f3ddc9"
   d="m 386.167,133.629 c 0,-17.484 17.754,-17.766 17.754,-17.766 0,0 17.754,0.282 17.754,17.766 0,17.484 18.031,51.324 -17.754,51.324 -35.785,0 -17.754,-33.84 -17.754,-51.324 z"
   id="path30" />

		<polygon
   style="fill:#f3ddc9"
   points="424.685,175.539 412.929,222.897 409.334,222.897 409.334,178.719 "
   id="polygon30" />

		<polygon
   style="fill:#f3ddc9"
   points="382.941,175.539 394.696,222.897 398.292,222.897 399.033,170.817 "
   id="polygon31" />

		<path
   style="fill:#33527b"
   d="m 374.543,70.508 c 0,0 24.281,7.972 42.671,-10.048 6.149,-6.404 1.516,-8.933 1.516,-8.933 l -32.506,2.777 -8.198,2.837"
   id="path31" />

		<g
   id="g41">
			<g
   id="g33">
				<path
   style="fill:#ffffff"
   d="m 395.236,86.912 c 0,1.769 -1.434,3.203 -3.203,3.203 -1.769,0 -3.203,-1.434 -3.203,-3.203 0,-1.769 1.434,-3.203 3.203,-3.203 1.769,-0.001 3.203,1.434 3.203,3.203 z"
   id="path32" />

				<path
   style="fill:#5e4f44"
   d="m 389.801,86.912 c 0,1.233 0.999,2.232 2.232,2.232 1.233,0 2.232,-0.999 2.232,-2.232 0,-1.233 -1,-2.232 -2.232,-2.232 -1.233,-0.001 -2.232,0.999 -2.232,2.232 z"
   id="path33" />

			</g>

			<g
   id="g34">
				<circle
   style="fill:#ffffff"
   cx="415.80899"
   cy="86.912003"
   r="3.2030001"
   id="circle33" />

				<circle
   style="fill:#5e4f44"
   cx="415.80899"
   cy="86.912003"
   r="2.2320001"
   id="circle34" />

			</g>

			<path
   style="fill:none;stroke:#e9a680;stroke-width:0.9233;stroke-miterlimit:10"
   d="m 397.755,92.812 c 0,0 5.461,3.746 12.549,0"
   id="path34" />

			<circle
   style="fill:#f3ddc9"
   cx="372.022"
   cy="91.521004"
   r="5.4349999"
   id="circle35" />

			<path
   style="fill:#e6c9b0"
   d="m 401.035,91.521 h 5.157 c 0,0 -0.268,-2.377 -2.578,-2.377 -2.31,0 -2.579,2.377 -2.579,2.377 z"
   id="path35" />

			<path
   style="fill:none;stroke:#33527b;stroke-width:0.9233;stroke-miterlimit:10"
   d="m 388.83,81.678 c 0,0 1.937,-2.04 6.406,-2.04"
   id="path36" />

			<path
   style="fill:none;stroke:#33527b;stroke-width:0.9233;stroke-miterlimit:10"
   d="m 419.012,81.678 c 0,0 -1.937,-2.04 -6.406,-2.04"
   id="path37" />

			<circle
   style="fill:#e6c9b0"
   cx="372.022"
   cy="91.521004"
   r="2.3929999"
   id="circle37" />

			<circle
   style="fill:#f3ddc9"
   cx="436.05701"
   cy="91.521004"
   r="5.4349999"
   id="circle38" />

			<circle
   style="fill:#e6c9b0"
   cx="436.05701"
   cy="91.521004"
   r="2.3929999"
   id="circle39" />

			<circle
   style="fill:#e9b9c9"
   cx="386.96399"
   cy="90.612"
   r="1.765"
   id="circle40" />

			<circle
   style="fill:#e9b9c9"
   cx="420.26401"
   cy="90.612"
   r="1.765"
   id="circle41" />

		</g>

		<path
   style="fill:#f3ddc9"
   d="m 403.921,115.863 c 0,0 16.203,-0.818 29.035,22.587 8.535,14.903 7.699,21.63 7.699,21.63 h -3.517 c 0,0 -8.294,-18.98 -23.562,-26.728"
   id="path41" />

		<path
   style="fill:#f3ddc9"
   d="m 398.245,130.149 c 0,0 -15.344,1.3 -28.973,-10.371 -10.138,-10.806 -11.745,-17.597 -11.745,-17.597 l 3.41,-1.236 c 0,0 8.291,16.209 33.841,17.316"
   id="path42" />

		<path
   style="fill:#c3e1fd"
   d="m 391.688,118.046 -11.526,-2.432 -2.275,12.425 8.532,2.153 -4.623,31.977 22.125,7.613 22.125,-7.613 -3.295,-22.146 5.809,-10.734 c 0,0 -6.78,-7.531 -12.555,-10.139 -9.941,10.723 -13.69,13.306 -13.69,13.306 z"
   id="path43" />

		<path
   style="fill:#456b92"
   d="m 381.796,162.169 c 0,0 19.374,5.59 44.251,0 0.854,27.412 -1.362,40.473 -1.362,40.473 H 406.26 l -2.24,-12.944 -2.074,12.944 h -20.149 c -0.001,0 -3.679,-19.075 -0.001,-40.473 z"
   id="path44" />

		<polyline
   style="fill:#456b92"
   points="389.117,165.209 391.688,118.046 396.791,117.407 396.791,134.656 410.304,134.656     411.368,117.407 416.006,119.15 417.571,165.209   "
   id="polyline44" />

		<polygon
   style="fill:#c3e1fd"
   points="400.012,115.458 403.975,125.04 407.939,115.458 411.368,117.407 410.304,134.656 396.791,134.656 396.791,117.407 "
   id="polygon44" />

		<polygon
   style="fill:#abcff1"
   points="403.975,127.182 411.368,116.845 407.939,115.458 403.921,124.177 400.012,115.458 396.163,117.241 "
   id="polygon45" />

		<polygon
   style="fill:#abcff1"
   points="380.161,115.615 383.025,116.219 380.942,129.396 376.806,127.957 "
   id="polygon46" />

		<polygon
   style="fill:#abcff1"
   points="427.06,127.788 429.693,130.192 424.026,141.308 422.202,139.578 "
   id="polygon47" />

		
			<line
   style="fill:#f2e2e2;stroke:#abcff1;stroke-width:0.4616;stroke-miterlimit:10"
   x1="403.97501"
   y1="125.551"
   x2="403.97501"
   y2="134.65601"
   id="line47" />

		<path
   style="fill:#abcff1"
   d="m 406.011,127.182 c 0,-0.377 -0.306,-0.683 -0.683,-0.683 -0.377,0 -0.683,0.306 -0.683,0.683 0,0.377 0.306,0.683 0.683,0.683 0.377,0 0.683,-0.306 0.683,-0.683 z"
   id="path47" />

		<circle
   style="fill:#abcff1"
   cx="405.328"
   cy="133.548"
   r="0.68300003"
   id="circle47" />

		<g
   id="g48">
			<line
   style="fill:#f2e2e2"
   x1="386.242"
   y1="130.103"
   x2="389.117"
   y2="117.504"
   id="line48" />

			
				<rect
   x="381.21799"
   y="123.573"
   transform="matrix(0.2228,-0.9749,0.9749,0.2228,180.6292,474.1651)"
   style="fill:#abcff1"
   width="12.923"
   height="0.461"
   id="rect48" />

		</g>

		<g
   id="g49">
			<line
   style="fill:#f2e2e2"
   x1="422.29999"
   y1="139.341"
   x2="419.36301"
   y2="121.092"
   id="line49" />

			<polygon
   style="fill:#abcff1"
   points="422.3,139.341 419.1,120.913 419.624,121.262 422.557,138.717 "
   id="polygon49" />

		</g>

		<polygon
   style="fill:#33527b"
   points="380.776,198.133 402.925,198.524 402.274,203.149 381.624,203.149 "
   id="polygon50" />

		<polygon
   style="fill:#33527b"
   points="425.666,198.133 404.945,198.524 405.554,203.149 424.872,203.149 "
   id="polygon51" />

		<path
   style="fill:#33527b"
   d="m 396.791,139.038 h 14.093 c 0,0 1.001,11.37 -7.118,11.37 -8.12,0 -6.975,-11.37 -6.975,-11.37 z"
   id="path51" />

		<path
   style="fill:#456b92"
   d="m 394.536,222.11 c 0,0 -6.806,3.457 -6.547,7.47 0.26,4.013 10.321,-5.843 10.321,-5.843 v -2.69 z"
   id="path52" />

		<path
   style="fill:#456b92"
   d="m 413.145,222.152 c 0,0 6.806,3.457 6.547,7.47 -0.26,4.013 -10.358,-6.414 -10.358,-6.414 v -1.598 z"
   id="path53" />

		<polygon
   style="fill:#d2e7fd"
   points="394.503,222.119 393.268,217.145 398.39,216.01 398.31,221.047 "
   id="polygon53" />

		<polygon
   style="fill:#d2e7fd"
   points="409.334,221.61 409.334,216.01 414.329,217.258 413.145,222.152 "
   id="polygon54" />

		<path
   style="fill:none;stroke:#33527b;stroke-width:0.9942;stroke-miterlimit:10"
   d="m 381.796,162.169 c 0,0 8.525,2.478 22.849,2.478 14.324,0 21.401,-2.478 21.401,-2.478"
   id="path54" />

		<path
   style="fill:none;stroke:#33527b;stroke-width:0.9942;stroke-miterlimit:10"
   d="m 391.851,163.949 c 0,0 1.403,11.59 -11.519,11.59"
   id="path55" />

		<path
   style="fill:none;stroke:#33527b;stroke-width:0.9942;stroke-miterlimit:10"
   d="m 414.717,164.198 c 0,0 -1.42,12.677 11.525,12.677"
   id="path56" />

		
			<line
   style="fill:none;stroke:#33527b;stroke-width:0.9942;stroke-miterlimit:10"
   x1="396.73599"
   y1="132.86501"
   x2="390.88"
   y2="132.86501"
   id="line56" />

		
			<line
   style="fill:none;stroke:#33527b;stroke-width:0.9942;stroke-miterlimit:10"
   x1="390.88"
   y1="134.65601"
   x2="416.53299"
   y2="134.65601"
   id="line57" />

		
			<line
   style="fill:none;stroke:#33527b;stroke-width:0.9942;stroke-miterlimit:10"
   x1="410.414"
   y1="132.86501"
   x2="416.47198"
   y2="132.86501"
   id="line58" />

		<path
   style="fill:#f3ddc9"
   d="m 359.006,105.134 c 1.932,0.252 3.841,-0.804 4.718,-2.544 0.312,-0.619 0.575,-1.397 0.716,-2.367 0.552,-3.791 -0.102,-3.623 -0.613,-3.599 -0.511,0.023 -1.184,1.011 -1.267,3.463 -0.78,-6.081 -0.916,-7.188 -2.059,-7.069 -1.162,0.121 -0.44,5.586 -0.44,5.586 0,0 -1.265,-5.474 -2.064,-5.747 -0.799,-0.273 -1.361,0.705 -0.862,2.513 0.499,1.809 0.876,3.497 0.876,3.497 0,0 -1.458,-4.529 -2.281,-4.678 -0.72,-0.13 -1.37,0.447 -0.367,2.936 0.556,1.379 1.008,2.42 1.008,2.42 0,0 -1.387,-2.859 -2.077,-2.555 -0.671,0.296 -0.47,1.658 1.208,4.961 0.315,0.619 0.684,1.216 1.133,1.745 0.715,0.843 1.431,1.316 2.371,1.438 z"
   id="path58" />

		<path
   style="fill:#f3ddc9"
   d="m 439.308,157.806 c -1.932,-0.252 -3.841,0.804 -4.718,2.544 -0.312,0.619 -0.575,1.396 -0.716,2.367 -0.552,3.791 0.102,3.623 0.613,3.599 0.511,-0.024 1.184,-1.011 1.267,-3.463 0.78,6.081 0.916,7.189 2.06,7.069 1.162,-0.121 0.44,-5.586 0.44,-5.586 0,0 1.265,5.474 2.064,5.747 0.799,0.274 1.361,-0.705 0.862,-2.513 -0.499,-1.809 -0.876,-3.498 -0.876,-3.498 0,0 1.458,4.529 2.281,4.678 0.72,0.13 1.37,-0.447 0.366,-2.936 -0.556,-1.379 -1.008,-2.42 -1.008,-2.42 0,0 1.387,2.859 2.077,2.555 0.671,-0.295 0.471,-1.658 -1.208,-4.961 -0.315,-0.619 -0.684,-1.216 -1.134,-1.745 -0.715,-0.842 -1.43,-1.314 -2.37,-1.437 z"
   id="path59" />

		<path
   style="fill:none;stroke:#db9022;stroke-width:0.9942;stroke-miterlimit:10"
   d="m 384.188,92.121 h 10.969 c 3.034,0 5.516,-2.482 5.516,-5.516 v 0 c 0,-3.034 -2.482,-5.516 -5.516,-5.516 h -10.969 c -3.034,0 -5.516,2.482 -5.516,5.516 v 0 c 0,3.034 2.482,5.516 5.516,5.516 z"
   id="path60" />

		<path
   style="fill:none;stroke:#db9022;stroke-width:0.9942;stroke-miterlimit:10"
   d="m 412.257,92.121 h 10.969 c 3.034,0 5.516,-2.482 5.516,-5.516 v 0 c 0,-3.034 -2.482,-5.516 -5.516,-5.516 h -10.969 c -3.034,0 -5.516,2.482 -5.516,5.516 v 0 c 0,3.034 2.482,5.516 5.516,5.516 z"
   id="path61" />

		
			<line
   style="fill:none;stroke:#db9022;stroke-width:0.9942;stroke-miterlimit:10"
   x1="371.97601"
   y1="85.597"
   x2="378.672"
   y2="86.085999"
   id="line61" />

		
			<line
   style="fill:none;stroke:#db9022;stroke-width:0.9942;stroke-miterlimit:10"
   x1="428.561"
   y1="86.085999"
   x2="435.95001"
   y2="85.597"
   id="line62" />

		<path
   style="fill:none;stroke:#db9022;stroke-width:0.9942;stroke-miterlimit:10"
   d="m 400.672,86.605 c 0,0 2.784,-0.649 6.069,0"
   id="path62" />

	</g>
  </g>
</svg>
