<?xml version="1.0" encoding="UTF-8" standalone="no"?>
<!-- Created with Inkscape (http://www.inkscape.org/) -->

<svg
   width="29.877348mm"
   height="48.740429mm"
   viewBox="0 0 29.877349 48.740434"
   version="1.1"
   id="svg1"
   inkscape:version="1.4.2 (f4327f4, 2025-05-13)"
   sodipodi:docname="girl9.svg"
   xmlns:inkscape="http://www.inkscape.org/namespaces/inkscape"
   xmlns:sodipodi="http://sodipodi.sourceforge.net/DTD/sodipodi-0.dtd"
   xmlns="http://www.w3.org/2000/svg"
   xmlns:svg="http://www.w3.org/2000/svg">
  <sodipodi:namedview
     id="namedview1"
     pagecolor="#ffffff"
     bordercolor="#000000"
     borderopacity="0.25"
     inkscape:showpageshadow="2"
     inkscape:pageopacity="0.0"
     inkscape:pagecheckerboard="0"
     inkscape:deskcolor="#d1d1d1"
     inkscape:document-units="mm"
     inkscape:zoom="1.2275954"
     inkscape:cx="48.876039"
     inkscape:cy="-167.80773"
     inkscape:window-width="2880"
     inkscape:window-height="1676"
     inkscape:window-x="-12"
     inkscape:window-y="-12"
     inkscape:window-maximized="1"
     inkscape:current-layer="layer1" />
  <defs
     id="defs1">
    <clipPath
       clipPathUnits="userSpaceOnUse"
       id="clipPath119">
      <path
         d="m 2429.58,8528.87 v 0 l -1.54,4.27 c 7.66,35.49 -15.79,67.53 -15.79,67.53 10.47,20.59 15.22,39.01 16.15,55.3 95.03,81.21 245.93,222.7 239.94,298.46 -6.68,84.06 -297.09,299.7 -435.14,397.71 -1.96,12.33 -3.87,24.38 -5.72,36.02 -4.67,29.42 -8.97,56.5 -12.82,80.63 v 0 c 0,0 399.66,-281.36 528.14,-436.13 0,0 44.89,-42.39 44.81,-102.96 0,-4.99 -0.32,-10.11 -0.98,-15.34 -8.76,-68.62 -357.05,-385.49 -357.05,-385.49"
         transform="translate(0,2.5000001e-4)"
         id="path119" />
    </clipPath>
    <clipPath
       clipPathUnits="userSpaceOnUse"
       id="clipPath299">
      <path
         d="m 6622.23,11070.3 c 4.28,3.8 8.4,7.9 12.38,12.2 -0.48,-0.6 -0.96,-1.2 -1.45,-1.8 -3.23,-3.4 -6.57,-6.6 -10.01,-9.8 -0.22,-0.1 -0.44,-0.3 -0.66,-0.4 l -0.26,-0.2"
         transform="translate(0,2.5000001e-4)"
         id="path299" />
    </clipPath>
    <clipPath
       clipPathUnits="userSpaceOnUse"
       id="clipPath602">
      <path
         d="m 4237.98,3522.14 c 0,0 0,0.01 0,0.02 0,-0.01 0,-0.01 0,-0.02 m 0.01,0.2 c 0,0.1 0.01,0.2 0.01,0.3 0,-0.1 -0.01,-0.2 -0.01,-0.3"
         transform="translate(0,2.5000001e-4)"
         id="path602" />
    </clipPath>
  </defs>
  <g
     inkscape:label="图层 1"
     inkscape:groupmode="layer"
     id="layer1"
     transform="translate(-91.545681,-382.58727)">
    <g
       id="g155"
       transform="matrix(0.26458333,0,0,0.26458333,52.546,313.27998)">
		<path
   style="fill:#f6e290"
   d="m 228.76,285.894 c 0,0 -4.198,-15.095 5.359,-19.65 9.557,-4.555 14.023,5.806 9.557,9.557 9.557,-3.841 15.75,0.149 16.584,8.069 0.834,7.92 -6.937,10.51 -6.937,10.51 0,0 6.074,0.715 5.359,8.575 -0.715,7.86 -15.274,11.165 -22.598,-2.948"
   id="path119-1" />

		<path
   style="fill:#f6e290"
   d="m 178.963,285.894 c 0,0 4.198,-15.095 -5.359,-19.65 -9.557,-4.555 -14.023,5.806 -9.557,9.557 -9.557,-3.841 -15.75,0.149 -16.584,8.069 -0.834,7.92 6.937,10.51 6.937,10.51 0,0 -6.074,0.715 -5.359,8.575 0.715,7.86 15.274,11.165 22.598,-2.948"
   id="path120" />

		<path
   style="fill:#f6e290"
   d="m 236.612,284.632 c -13.54,-24.66 -35.363,-22.644 -35.37,-22.643 -5.431,0.251 -20.283,2.836 -31.159,22.643 -13.543,24.664 6.257,34.168 33.264,34.168 27.007,0 46.808,-9.504 33.265,-34.168 z"
   id="path121" />

		<path
   style="fill:#e3c8a2"
   d="m 197.975,270.806 h 10.664 c 17.736,0 31.173,22.188 26.763,38.476 -2.611,9.644 -11.111,17.718 -32.255,17.718 -24.1,0 -31.57,-10.49 -32.6,-21.838 -1.367,-15.076 11.468,-34.356 27.428,-34.356 z"
   id="path122" />

		<rect
   x="199.283"
   y="324.745"
   style="fill:#e3c8a2"
   width="8.1300001"
   height="8.3730001"
   id="rect122" />

		<path
   style="fill:#e3c8a2"
   d="m 185.14,347.088 c 0,-18.549 18.208,-18.849 18.208,-18.849 0,0 18.208,0.299 18.208,18.849 0,18.55 18.492,50.285 -18.208,50.285 -36.7,0 -18.208,-31.735 -18.208,-50.285 z"
   id="path123" />

		<polygon
   style="fill:#dfa0b9"
   points="226.214,383.103 212.585,438.005 208.898,438.115 205.845,390.335 "
   id="polygon123" />

		<polygon
   style="fill:#dfa0b9"
   points="181.049,381.8 193.887,438.005 197.574,438.005 200.85,385.003 "
   id="polygon124" />

		<path
   style="fill:#f6e290"
   d="m 168.525,290.375 c 0,0 27.628,9.296 53.183,-18.49 -24.383,-9.473 -41.441,-4.073 -53.183,18.49 z"
   id="path124" />

		<g
   id="g135">
			<g
   id="g125">
				<path
   style="fill:#ffffff"
   d="m 194.705,304.474 c 0,1.814 -1.471,3.285 -3.285,3.285 -1.814,0 -3.285,-1.471 -3.285,-3.285 0,-1.814 1.471,-3.285 3.285,-3.285 1.815,0 3.285,1.471 3.285,3.285 z"
   id="path125" />

				<circle
   style="fill:#5e4f44"
   cx="191.42101"
   cy="304.474"
   r="2.289"
   id="circle125" />

			</g>

			<g
   id="g127">
				<path
   style="fill:#ffffff"
   d="m 219.088,304.474 c 0,1.814 -1.471,3.285 -3.285,3.285 -1.814,0 -3.285,-1.471 -3.285,-3.285 0,-1.814 1.471,-3.285 3.285,-3.285 1.815,0 3.285,1.471 3.285,3.285 z"
   id="path126" />

				<path
   style="fill:#5e4f44"
   d="m 213.514,304.474 c 0,1.264 1.025,2.289 2.289,2.289 1.264,0 2.289,-1.025 2.289,-2.289 0,-1.264 -1.025,-2.289 -2.289,-2.289 -1.264,0 -2.289,1.025 -2.289,2.289 z"
   id="path127" />

			</g>

			<path
   style="fill:#e3c8a2"
   d="m 176.022,309.202 c 0,3.078 -2.496,5.574 -5.574,5.574 -3.078,0 -5.574,-2.496 -5.574,-5.574 0,-3.079 2.496,-5.574 5.574,-5.574 3.078,0 5.574,2.495 5.574,5.574 z"
   id="path128" />

			<path
   style="fill:#cbad88"
   d="m 200.652,309.202 h 5.289 c 0,0 -0.275,-2.438 -2.644,-2.438 -2.369,0 -2.645,2.438 -2.645,2.438 z"
   id="path129" />

			<path
   style="fill:none;stroke:#dec065;stroke-width:0.9468;stroke-miterlimit:10"
   d="m 188.136,299.107 c 0,0 1.987,-2.092 6.57,-2.092"
   id="path130" />

			<path
   style="fill:none;stroke:#dec065;stroke-width:0.9468;stroke-miterlimit:10"
   d="m 219.088,299.107 c 0,0 -1.987,-2.092 -6.57,-2.092"
   id="path131" />

			<path
   style="fill:#cbad88"
   d="m 172.902,309.202 c 0,1.355 -1.099,2.454 -2.454,2.454 -1.355,0 -2.454,-1.099 -2.454,-2.454 0,-1.355 1.099,-2.454 2.454,-2.454 1.355,0 2.454,1.098 2.454,2.454 z"
   id="path132" />

			<path
   style="fill:#e3c8a2"
   d="m 241.822,309.202 c 0,3.078 -2.496,5.574 -5.574,5.574 -3.079,0 -5.574,-2.496 -5.574,-5.574 0,-3.079 2.496,-5.574 5.574,-5.574 3.078,0 5.574,2.495 5.574,5.574 z"
   id="path133" />

			<circle
   style="fill:#cbad88"
   cx="236.24699"
   cy="309.202"
   r="2.454"
   id="circle133" />

			<path
   style="fill:#da9e9e"
   d="m 188.031,308.27 c 0,1 -0.81,1.81 -1.81,1.81 -1,0 -1.81,-0.81 -1.81,-1.81 0,-1 0.81,-1.81 1.81,-1.81 1,0 1.81,0.81 1.81,1.81 z"
   id="path134" />

			<path
   style="fill:#da9e9e"
   d="m 222.182,308.27 c 0,1 -0.81,1.81 -1.81,1.81 -1,0 -1.81,-0.81 -1.81,-1.81 0,-1 0.81,-1.81 1.81,-1.81 0.999,0 1.81,0.81 1.81,1.81 z"
   id="path135" />

		</g>

		<path
   style="fill:#e3c8a2"
   d="m 200.85,327.003 c 0,0 16.617,-0.839 29.777,23.163 8.753,15.284 7.896,22.182 7.896,22.182 h -4.717 c 0,0 -7.396,-19.464 -23.053,-27.411"
   id="path136" />

		<path
   style="fill:#e3c8a2"
   d="m 205.845,327.003 c 0,0 -16.617,-0.839 -29.777,23.163 -8.753,15.284 -7.896,22.182 -7.896,22.182 h 4.717 c 0,0 7.396,-19.464 23.053,-27.411"
   id="path137" />

		<path
   style="fill:#e3c8a2"
   d="m 193.73,437.218 c 0,0 -6.98,3.545 -6.714,7.66 0.266,4.116 10.585,-5.992 10.585,-5.992 v -2.759 z"
   id="path138" />

		<path
   style="fill:#e3c8a2"
   d="m 212.807,437.236 c 0,0 6.98,3.545 6.714,7.66 -0.266,4.115 -10.622,-6.578 -10.622,-6.578 v -1.639 z"
   id="path139" />

		<path
   style="fill:#d2e7fd"
   d="m 191.29,332.278 c 0,0 -8.912,3.996 -13.063,11.26 4.744,8.154 10.904,9.637 10.904,9.637 0,0 6.772,-11.549 2.159,-20.897 z"
   id="path140" />

		<path
   style="fill:#d2e7fd"
   d="m 215.123,332.497 c 0,0 8.912,3.996 13.063,11.26 -4.744,8.154 -10.904,9.637 -10.904,9.637 0,0 -6.771,-11.55 -2.159,-20.897 z"
   id="path141" />

		<path
   style="fill:#456b92"
   d="m 178.227,374.572 -9.545,25.777 c 0,0 38.653,9.605 67.878,-0.71 l -8.374,-25.75"
   id="path142" />

		<path
   style="fill:#d2e7fd"
   d="m 199.283,328.201 4.065,12.707 4.178,-12.669 c 0,0 4.686,1.274 5.789,3.439 1.103,2.165 -2.372,9.884 -9.967,9.884 -7.595,0 -8.522,-7.491 -8.967,-11.153 2.78,-1.661 4.902,-2.208 4.902,-2.208 z"
   id="path143" />

		<path
   style="fill:#5e4f44"
   d="m 187.876,423.27 11.6,-0.427 -1.465,15.996 c 0,0 -5.039,5.128 -8.32,6.716 -3.28,1.587 -4.643,-0.04 -3.055,-3.541 1.587,-3.5 5.327,-6.572 5.327,-6.572 z"
   id="path144" />

		<path
   style="fill:#5e4f44"
   d="m 218.228,423.27 -11.6,-0.427 1.465,15.996 c 0,0 5.039,5.128 8.319,6.716 3.28,1.587 4.643,-0.04 3.055,-3.541 -1.587,-3.5 -5.327,-6.572 -5.327,-6.572 z"
   id="path145" />

		<g
   id="g148">
			<path
   style="fill:#33527b"
   d="m 203.723,344.07 c 10.435,0 11.236,-8.327 11.019,-12.329 -1.018,-0.659 -2.025,-1.184 -3.013,-1.691 -0.018,1.594 -0.464,10.309 -8.382,10.309 -7.727,0 -8.251,-8.451 -8.312,-10.347 -1.119,0.535 -2.055,1.102 -2.712,1.534 -0.241,3.222 0.043,12.524 11.4,12.524 z"
   id="path146" />

			<path
   style="fill:#d2695c"
   d="m 205.239,372.348 c 11.57,-0.428 18.423,-1.975 21.733,-2.971 -2.697,-10.004 -8.092,-29.914 -10.011,-35.955 -0.744,-0.665 -1.484,-1.207 -2.218,-1.682 0.217,4.002 -0.585,12.329 -11.019,12.329 -11.357,0 -11.641,-9.302 -11.399,-12.523 -0.657,0.433 -1.034,0.732 -1.034,0.732 0,0 -7.847,23.411 -11.957,38.173 2.962,0.697 11.87,2.416 25.905,1.897 z"
   id="path147" />

			<path
   style="fill:#33527b"
   d="m 205.239,372.348 c -14.035,0.519 -22.943,-1.201 -25.906,-1.897 -0.409,1.469 -0.782,2.855 -1.106,4.121 6.941,1.47 33.473,3.12 49.96,-0.684 -0.275,-1.022 -0.695,-2.585 -1.215,-4.511 -3.31,0.997 -10.163,2.544 -21.733,2.971 z"
   id="path148" />

		</g>

		<path
   style="fill:#d2695c"
   d="m 204.067,315.166 c -0.348,0.005 -0.412,0.008 -0.412,0.008 z"
   id="path149" />

		<g
   id="g152">
			<path
   style="fill:#ffffff"
   d="m 209.441,310.896 c -0.385,0.042 -0.821,0.175 -1.283,0.428 -0.111,0.061 -0.231,0.11 -0.348,0.164 -1.447,0.658 -3.286,0.781 -4.179,0.796 -0.639,0.009 -3.027,-0.025 -4.741,-0.959 -0.002,-10e-4 -0.004,-0.002 -0.006,-0.003 -0.46,-0.25 -0.894,-0.382 -1.277,-0.424 l 0.459,1.652 -1.222,0.691 c 2.452,2.553 10.855,2.636 13.361,0 l -1.222,-0.691 z"
   id="path150" />

			<path
   style="fill:#d2695c"
   d="m 197.607,310.896 c -1.275,-0.139 -1.969,0.771 -1.029,2.059 0.073,0.101 0.176,0.19 0.266,0.284 l 1.222,-0.691 z"
   id="path151" />

			<path
   style="fill:#d2695c"
   d="m 209.441,310.896 -0.459,1.652 1.222,0.691 c 0.09,-0.094 0.192,-0.183 0.265,-0.284 0.941,-1.288 0.247,-2.198 -1.028,-2.059 z"
   id="path152" />

		</g>

		<path
   style="fill:#e3c8a2"
   d="m 237.229,370.78 c -1.932,-0.252 -3.841,0.804 -4.718,2.544 -0.312,0.619 -0.575,1.397 -0.716,2.367 -0.552,3.791 0.102,3.623 0.613,3.599 0.511,-0.023 1.184,-1.011 1.267,-3.463 0.78,6.081 0.916,7.189 2.059,7.069 1.162,-0.121 0.44,-5.586 0.44,-5.586 0,0 1.265,5.474 2.064,5.747 0.799,0.273 1.361,-0.705 0.862,-2.513 -0.499,-1.809 -0.876,-3.497 -0.876,-3.497 0,0 1.458,4.529 2.282,4.678 0.719,0.13 1.37,-0.447 0.366,-2.936 -0.556,-1.379 -1.008,-2.42 -1.008,-2.42 0,0 1.387,2.859 2.077,2.555 0.67,-0.296 0.47,-1.658 -1.208,-4.961 -0.315,-0.619 -0.684,-1.216 -1.133,-1.745 -0.715,-0.842 -1.431,-1.315 -2.371,-1.438 z"
   id="path153" />

		<path
   style="fill:#e3c8a2"
   d="m 169.19,370.78 c 1.932,-0.252 3.841,0.804 4.718,2.544 0.312,0.619 0.575,1.397 0.716,2.367 0.552,3.791 -0.102,3.623 -0.613,3.599 -0.511,-0.023 -1.184,-1.011 -1.267,-3.463 -0.78,6.081 -0.916,7.189 -2.06,7.069 -1.162,-0.121 -0.44,-5.586 -0.44,-5.586 0,0 -1.265,5.474 -2.064,5.747 -0.799,0.273 -1.361,-0.705 -0.862,-2.513 0.499,-1.809 0.876,-3.497 0.876,-3.497 0,0 -1.458,4.529 -2.281,4.678 -0.719,0.13 -1.37,-0.447 -0.366,-2.936 0.556,-1.379 1.008,-2.42 1.008,-2.42 0,0 -1.387,2.859 -2.077,2.555 -0.671,-0.296 -0.471,-1.658 1.208,-4.961 0.315,-0.619 0.684,-1.216 1.133,-1.745 0.715,-0.842 1.431,-1.315 2.371,-1.438 z"
   id="path154" />

		<path
   style="fill:#d56f92"
   d="m 172.133,293.067 c 0,0 -2.281,-6.307 0.159,-7.629 2.44,-1.321 3.939,6.366 3.939,6.366 z"
   id="path155" />

	</g>
  </g>
</svg>
