<?xml version="1.0" encoding="UTF-8" standalone="no"?>
<!-- Created with Inkscape (http://www.inkscape.org/) -->

<svg
   width="28.37928mm"
   height="51.261433mm"
   viewBox="0 0 28.37928 51.261433"
   version="1.1"
   id="svg1"
   inkscape:version="1.4.2 (f4327f4, 2025-05-13)"
   sodipodi:docname="boy1.svg"
   xmlns:inkscape="http://www.inkscape.org/namespaces/inkscape"
   xmlns:sodipodi="http://sodipodi.sourceforge.net/DTD/sodipodi-0.dtd"
   xmlns="http://www.w3.org/2000/svg"
   xmlns:svg="http://www.w3.org/2000/svg">
  <sodipodi:namedview
     id="namedview1"
     pagecolor="#ffffff"
     bordercolor="#000000"
     borderopacity="0.25"
     inkscape:showpageshadow="2"
     inkscape:pageopacity="0.0"
     inkscape:pagecheckerboard="0"
     inkscape:deskcolor="#d1d1d1"
     inkscape:document-units="mm"
     inkscape:zoom="1.2275954"
     inkscape:cx="-160.47633"
     inkscape:cy="92.049873"
     inkscape:window-width="2880"
     inkscape:window-height="1676"
     inkscape:window-x="-12"
     inkscape:window-y="-12"
     inkscape:window-maximized="1"
     inkscape:current-layer="layer1" />
  <defs
     id="defs1" />
  <g
     inkscape:label="图层 1"
     inkscape:groupmode="layer"
     id="layer1"
     transform="translate(-147.37292,-124.08959)">
    <g
       id="g189"
       transform="matrix(0.26458333,0,0,0.26458333,138.47828,116.96277)">
		<path
   style="fill:#fcc78b"
   d="m 102.899,197.289 c -1.215,0 -2.634,-0.062 -3.95,-0.268 l 2.095,13.374 c 0.954,-0.097 2.224,-0.155 3.945,-0.155 1.327,0 2.56,0.036 3.342,0.061 0.398,-4.454 0.867,-10.025 1.108,-13.567 -2.115,0.367 -4.467,0.555 -6.54,0.555 z"
   id="path144" />

		<path
   style="fill:#f16f67"
   d="m 109.12,211.898 c -0.077,0 -0.269,-0.006 -0.551,-0.015 -0.731,-0.025 -2.097,-0.07 -3.58,-0.07 -4.283,0 -5.298,0.386 -5.502,0.498 -0.499,1.135 -0.869,4.735 -0.181,6.019 0.467,0.282 2.971,0.777 9.477,0.777 h 0.001 c 4.507,0 9.035,-0.268 10.093,-0.599 0.047,-0.014 0.189,-0.059 0.12,-0.516 -0.315,-2.069 -4.088,-6.094 -9.877,-6.094 z"
   id="path145" />

		<path
   style="fill:#fcc78b"
   d="m 73.872,196.798 c -0.979,0 -1.85,-0.045 -2.662,-0.114 0.241,3.539 0.713,9.143 1.112,13.618 0.782,-0.025 2.016,-0.061 3.342,-0.061 1.721,0 2.992,0.058 3.945,0.155 l 2.213,-14.128 c -1.992,0.226 -5.046,0.53 -7.95,0.53 z"
   id="path146" />

		<path
   style="fill:#fcc78b"
   d="m 120.82,141.342 c -2.367,1.525 -5.427,2.634 -8.01,3.38 0.873,1.861 1.841,3.772 2.797,5.654 3.261,6.419 6.077,11.964 4.565,14.555 -1.051,1.802 -1.396,3.703 -0.945,5.216 0.235,0.793 0.685,1.404 1.233,1.677 h 0.001 c 0.581,0 1.897,-1.904 2.459,-2.718 0.947,-1.371 1.47,-2.127 2.216,-2.127 0.382,0 0.719,0.219 0.902,0.585 0.728,1.456 -0.235,3.36 -1.69,6.241 l -0.463,0.919 c -0.213,0.426 -0.426,0.829 -0.627,1.208 -0.49,0.925 -1.16,2.193 -0.988,2.509 0.005,0.011 0.159,0.271 1.29,0.374 0.068,0.006 0.134,0.009 0.203,0.009 2.925,-0.001 7.24,-5.099 7.24,-9.679 0,-2.89 -1.126,-4.453 -2.319,-6.106 -0.851,-1.18 -1.73,-2.399 -2.258,-4.115 -1.454,-4.732 -3.825,-12.091 -5.606,-17.582 z"
   id="path147" />

		<path
   style="fill:#f16f67"
   d="m 106.006,120.707 c 1.206,5.741 2.962,14.397 4.469,23.005 3.81,-0.946 10,-2.904 12.031,-6.011 0.59,-0.904 0.759,-1.819 0.514,-2.798 -1.1,-4.4 -8.612,-11.036 -14.102,-15.402 -0.975,0.446 -1.947,0.845 -2.912,1.206 z"
   id="path148" />

		<path
   style="fill:#fcc78b"
   d="m 48.529,163.04 c -1.192,1.653 -2.319,3.216 -2.319,6.106 0,4.581 4.316,9.679 7.241,9.679 0.067,0 0.135,-0.003 0.203,-0.009 1.131,-0.102 1.284,-0.362 1.29,-0.374 0.171,-0.316 -0.5,-1.583 -0.989,-2.509 -0.201,-0.379 -0.414,-0.781 -0.627,-1.208 l -0.463,-0.919 c -1.455,-2.881 -2.418,-4.785 -1.689,-6.241 0.183,-0.366 0.52,-0.585 0.901,-0.585 0.748,0 1.269,0.756 2.217,2.127 0.562,0.814 1.88,2.721 2.445,2.722 0.561,-0.278 1.011,-0.89 1.247,-1.683 0.451,-1.512 0.105,-3.412 -0.945,-5.215 -1.512,-2.591 1.305,-8.136 4.566,-14.556 0.956,-1.882 1.924,-3.792 2.797,-5.653 -2.583,-0.746 -5.643,-1.855 -8.01,-3.38 -1.781,5.491 -4.152,12.85 -5.608,17.583 -0.528,1.715 -1.406,2.935 -2.257,4.115 z"
   id="path149" />

		<path
   style="fill:#f16f67"
   d="m 66.676,143.695 c 1.084,-7.724 2.492,-15.943 3.796,-23.202 -0.783,-0.274 -1.558,-0.564 -2.325,-0.871 -5.476,4.368 -12.861,10.923 -13.951,15.281 -0.245,0.979 -0.076,1.893 0.514,2.798 2.02,3.09 8.15,5.043 11.966,5.994 z"
   id="path150" />

		<path
   style="fill:#548692"
   d="m 113.817,193.712 c 1.388,-1.052 0.038,-12.51 -1.492,-21.256 -3.002,2.219 -15.208,3.578 -25.405,3.578 -0.001,0 -0.001,0 -0.003,0 -6.05,0 -16.008,-0.482 -19.833,-3.42 -0.624,7.112 -1.345,18.457 -0.359,20.824 0.223,0.537 1.368,1.786 7.146,1.786 3.412,0 7.099,-0.437 8.871,-0.647 l 0.693,-0.081 c 1.068,-0.119 2.419,-2.277 3.505,-4.01 1.341,-2.139 2.498,-3.988 3.961,-3.988 1.606,0 2.272,1.765 2.978,3.634 0.629,1.665 1.342,3.552 2.699,4.502 0.969,0.678 3.331,1.082 6.32,1.082 4.516,0 9.312,-0.88 10.919,-2.004 z"
   id="path151" />

		<path
   style="fill:#78bbcb"
   d="m 104.511,121.234 c -1.754,0.585 -3.48,1.044 -5.146,1.394 -0.081,0.314 -0.166,0.63 -0.262,0.947 -1.629,5.399 -4.702,8.253 -8.882,8.253 -0.001,0 -0.001,0 -0.002,0 -0.194,0 -0.393,-0.006 -0.595,-0.018 -6.477,-0.406 -9.103,-5.29 -10.166,-8.969 -2.536,-0.446 -5.036,-1.064 -7.477,-1.844 -5.252,29.282 -6.83,45.97 -4.689,49.594 1.41,2.387 8.931,3.87 19.626,3.87 10e-4,0 0.002,0 0.003,0 12.114,0 23.179,-1.82 24.615,-3.387 1.874,-2.043 -2.07,-26.259 -7.025,-49.84 z m -12.336,15.502 c 0.4,-2.4 10.276,-2.684 10.375,-2.684 1.236,0 1.669,0.135 1.941,0.339 1.381,1.036 1.648,10.921 1.102,12.743 -0.63,2.096 -3.066,3.217 -4.523,3.887 -0.223,0.102 -0.424,0.195 -0.594,0.28 -0.249,0.125 -0.548,0.188 -0.887,0.188 -1.859,0 -5.163,-1.983 -6.105,-2.736 -1.546,-1.239 -1.425,-11.313 -1.309,-12.017 z"
   id="path152" />

		<path
   style="fill:#fcc78b"
   d="m 89.722,130.238 c 4.545,0.323 6.796,-3.48 7.911,-7.283 -3.223,0.556 -6.18,0.739 -8.642,0.739 -2.621,0 -5.244,-0.195 -7.84,-0.57 1.037,3.118 3.356,6.789 8.571,7.114 z"
   id="path153" />

		<path
   style="fill:#fcc78b"
   d="m 43.493,102.955 c 1.087,0 2.109,-0.201 2.949,-0.438 -0.991,-1.688 -1.838,-3.486 -2.552,-5.362 -0.189,-0.019 -0.372,-0.094 -0.506,-0.242 -0.082,-0.09 -3.693,-4.177 -6.235,-10.932 -0.209,0.201 -0.409,0.412 -0.587,0.647 -1.576,2.08 -1.801,5.345 -0.651,9.441 1.282,4.569 3.833,6.886 7.582,6.886 z"
   id="path154" />

		<path
   style="fill:#fcc78b"
   d="m 134.98,84.628 c -0.202,0.632 -0.402,1.234 -0.6,1.811 -0.906,4.287 -2.52,8.675 -4.866,13.083 -0.544,1.023 -1.112,1.991 -1.691,2.931 0.879,0.265 1.992,0.502 3.178,0.502 3.749,0 6.3,-2.317 7.583,-6.885 1.15,-4.097 0.925,-7.361 -0.651,-9.441 -0.738,-0.972 -1.755,-1.649 -2.953,-2.001 z"
   id="path155" />

		<path
   style="fill:#fcc78b"
   d="m 52.709,108.012 c 9.223,8.835 22.786,14.109 36.281,14.109 9.978,0 28.33,-3.032 39.135,-23.339 0.915,-1.719 1.709,-3.434 2.398,-5.14 -0.204,-0.144 -0.337,-0.376 -0.337,-0.639 0,-10.979 -2.761,-18.092 -8.206,-21.142 -6.161,-3.45 -9.783,-9.111 -11.119,-11.52 -2.507,3.077 -11.033,12.006 -25.507,12.006 -0.789,0 -1.594,-0.027 -2.394,-0.08 -0.712,-0.046 -1.442,-0.07 -2.17,-0.07 -17.189,0 -34.63,13.008 -35.948,23.001 1.665,4.957 4.307,9.404 7.867,12.814 z m 50.85,-23.694 c 2.413,0 4.37,1.956 4.37,4.37 0,2.413 -1.956,4.37 -4.37,4.37 -2.413,0 -4.37,-1.956 -4.37,-4.37 0,-2.413 1.956,-4.37 4.37,-4.37 z M 87.363,94.985 c 0.338,-0.653 1.337,-0.898 2.007,-0.718 0.66,0.177 1.186,0.652 1.472,1.269 0.651,1.406 -0.246,3.422 -1.966,3.314 -0.545,-0.034 -0.749,-0.72 -0.277,-1.023 0.413,-0.265 0.954,-0.433 1.17,-0.914 0.142,-0.316 0.097,-0.702 -0.034,-1.014 -0.128,-0.304 -0.405,-0.584 -0.733,-0.656 -0.485,-0.107 -0.887,0.185 -1.35,0.247 -0.27,0.037 -0.392,-0.306 -0.289,-0.505 z m -10.238,9.053 c 0.251,-0.431 0.774,-1.327 10.42,-1.327 3.971,0 11.094,0.217 12.613,1.03 0.96,0.514 1.287,1.897 0.877,3.699 -0.689,3.031 -4.106,8.859 -12.1,9.214 -0.229,0.01 -0.457,0.015 -0.678,0.015 -5.846,0 -8.719,-3.484 -9.912,-5.561 -1.587,-2.761 -1.911,-5.885 -1.22,-7.07 z m -7.824,-19.72 c 2.413,0 4.37,1.956 4.37,4.37 0,2.413 -1.956,4.37 -4.37,4.37 -2.413,0 -4.369,-1.956 -4.369,-4.37 0,-2.413 1.956,-4.37 4.369,-4.37 z"
   id="path156" />

		<path
   style="fill:#f16f67"
   d="m 75.665,211.813 c -1.483,0 -2.849,0.045 -3.58,0.07 -0.282,0.009 -0.474,0.015 -0.551,0.015 -5.788,0 -9.561,4.025 -9.877,6.093 -0.07,0.457 0.073,0.502 0.12,0.516 1.058,0.331 5.586,0.599 10.093,0.599 6.507,0 9.011,-0.496 9.478,-0.777 0.687,-1.285 0.318,-4.884 -0.181,-6.019 -0.204,-0.111 -1.219,-0.497 -5.502,-0.497 z"
   id="path157" />

		<path
   style="fill:#8c5d40"
   d="m 43.371,94.398 c 2.007,-10.715 19.526,-23.774 37.418,-23.774 0.762,0 1.527,0.025 2.272,0.074 0.766,0.05 1.537,0.076 2.292,0.076 16.568,0 24.898,-12.21 24.98,-12.333 0.158,-0.237 0.434,-0.38 0.715,-0.347 0.284,0.021 0.534,0.196 0.653,0.454 0.036,0.078 3.684,7.818 11.045,11.941 5.315,2.976 8.301,9.292 8.898,18.799 2.897,-7.582 8.811,-26.188 2.476,-38.171 -3.004,-5.682 -8.452,-9.223 -16.193,-10.525 -0.12,-0.019 -0.232,-0.067 -0.331,-0.137 C 106.779,32.641 94.973,28.51 83.455,28.51 67.23,28.51 52.516,36.822 43.088,51.313 29.352,72.428 39.646,89.418 43.371,94.398 Z"
   id="path158" />

		<path
   style="fill:#f16f67"
   d="m 99.59,149.916 c 0.134,0 0.183,-0.023 0.184,-0.023 0.182,-0.091 0.399,-0.191 0.639,-0.302 1.294,-0.594 3.247,-1.493 3.673,-2.91 0.55,-1.832 0.007,-9.601 -0.574,-11.005 -0.145,-0.023 -0.433,-0.051 -0.962,-0.051 -3.136,0 -8.037,0.835 -8.84,1.489 -0.2,1.694 0.138,9.531 0.807,10.457 0.948,0.75 3.863,2.345 5.073,2.345 z"
   id="path159" />

		<path
   style="fill:#ffffff"
   d="m 102.51,89.037 c 0.965,0 1.748,-0.783 1.748,-1.748 0,-0.965 -0.783,-1.748 -1.748,-1.748 -0.965,0 -1.748,0.783 -1.748,1.748 0,0.966 0.783,1.748 1.748,1.748 z"
   id="path160" />

		<path
   style="fill:#ffffff"
   d="m 68.252,89.037 c 0.965,0 1.748,-0.783 1.748,-1.748 0,-0.965 -0.783,-1.748 -1.748,-1.748 -0.965,0 -1.748,0.783 -1.748,1.748 10e-4,0.966 0.783,1.748 1.748,1.748 z"
   id="path161" />

		<path
   style="fill:#f16559"
   d="m 88.866,115.083 c 7.047,-0.314 10.038,-5.364 10.636,-7.991 0.293,-1.288 0.035,-1.899 -0.087,-1.964 -0.76,-0.408 -5.711,-0.844 -11.87,-0.844 -5.68,0 -8.489,0.372 -9.105,0.644 -0.237,0.667 -0.103,3.008 1.269,5.397 1.302,2.266 3.969,4.986 9.157,4.758 z"
   id="path162" />

		<path
   style="fill:#f16559"
   d="m 112.002,95.025 c -1.022,-0.431 -2.023,0.325 -2.725,1.001 -0.708,0.682 -1.339,1.383 -2.121,1.983 -0.804,0.618 -0.329,1.738 0.673,1.596 0.897,-0.126 1.649,-0.818 2.325,-1.37 0.71,-0.579 1.665,-1.049 2.228,-1.773 0.426,-0.547 0.254,-1.17 -0.38,-1.437 z"
   id="path163" />

		<path
   style="fill:#f16559"
   d="m 114.367,96.867 c -1.206,0.292 -2.056,0.921 -3.019,1.672 -0.978,0.762 -2.152,1.658 -2.77,2.748 -0.26,0.458 0.18,1.21 0.749,0.975 1.064,-0.44 1.997,-1.261 2.938,-1.923 1.008,-0.709 2.007,-1.275 2.842,-2.198 0.513,-0.565 0.018,-1.458 -0.74,-1.274 z"
   id="path164" />

		<path
   style="fill:#f16559"
   d="m 114.231,100.692 c -1.021,0.434 -1.778,1.11 -2.483,1.952 -0.546,0.652 0.142,1.699 0.943,1.222 0.945,-0.562 1.632,-1.307 2.354,-2.12 0.535,-0.6 -0.128,-1.346 -0.814,-1.054 z"
   id="path165" />

		<path
   style="fill:#f16559"
   d="m 68.471,96.225 c -0.682,-0.674 -1.519,-0.3 -2.237,0.101 -0.574,0.321 -1.131,0.706 -1.743,0.951 -0.398,0.159 -1.153,0.291 -1.157,0.849 -0.011,1.688 3.027,0.517 4.399,-0.105 0.064,-0.003 0.129,-0.015 0.195,-0.042 0.7,-0.286 1.199,-1.106 0.543,-1.754 z"
   id="path166" />

		<path
   style="fill:#f16559"
   d="m 72.66,98.263 c -2.756,-2.354 -8.188,2.457 -10.172,4.235 -0.662,0.593 0.178,1.497 0.894,1.158 1.485,-0.705 2.823,-1.724 4.261,-2.522 1.541,-0.857 3.074,-0.971 4.667,-1.543 0.514,-0.184 0.84,-0.909 0.35,-1.328 z"
   id="path167" />

		<path
   style="fill:#f16559"
   d="m 69.809,101.451 c -1.28,0.51 -2.455,1.162 -3.622,1.898 -0.579,0.365 -0.201,1.432 0.486,1.153 1.352,-0.549 2.695,-0.906 3.838,-1.846 0.544,-0.448 -0.039,-1.469 -0.702,-1.205 z"
   id="path168" />

		<path
   style="fill:#ffffff"
   d="m 45.705,102.239 c -1.817,-0.147 -3.158,0.137 -4.75,-1.103 -1.27,-0.989 -2.076,-2.636 -2.806,-4.036 -1.671,-3.207 -2.474,-7.074 -0.618,-10.353 0.363,-0.641 -0.507,-1.342 -1.029,-0.794 -5.001,5.25 1.541,21.847 9.509,17.416 0.563,-0.313 0.264,-1.084 -0.306,-1.13 z"
   id="path169" />

		<path
   style="fill:#ffffff"
   d="m 135.469,84.654 c -0.292,-0.083 -0.634,0.279 -0.426,0.554 2.453,3.232 2.931,5.635 1.996,9.626 -1.035,4.417 -3.634,6.767 -8.312,6.327 -0.697,-0.066 -1.086,0.937 -0.573,1.385 3.827,3.343 9.073,-1.864 10.42,-5.325 1.602,-4.12 2.315,-11.022 -3.105,-12.567 z"
   id="path170" />

		<path
   style="fill:#ffffff"
   d="m 137.931,68.763 c 0.01,-0.472 -0.373,-0.659 -0.724,-0.595 0.735,-4.782 0.696,-8.683 -1.056,-13.808 -1.544,-4.519 -4.473,-8.123 -8.452,-10.706 -2.228,-1.446 -6.611,-3.808 -9.616,-3.319 -0.038,-0.034 -0.061,-0.074 -0.107,-0.105 -0.253,-0.166 -0.51,-0.327 -0.765,-0.492 -0.004,-0.056 0.005,-0.104 -0.003,-0.164 -0.003,-0.021 -0.032,-0.022 -0.033,0 -0.002,0.044 -0.013,0.086 -0.017,0.13 C 105.333,32.047 91.93,26.3 77.519,28.288 c -0.112,0.015 -0.197,0.069 -0.268,0.135 -11.716,1.938 -22.966,7.941 -30.454,17.282 -3.817,4.761 -7.292,10.298 -9.625,15.936 -3.267,7.896 -0.402,15.242 0.062,23.201 0.046,0.781 1.168,0.782 1.213,0 0.135,-2.338 -0.061,-4.537 -0.407,-6.842 -0.728,-4.841 -0.445,-9.392 0.786,-14.152 1.601,-6.192 6.613,-12.701 10.567,-17.64 3.946,-4.93 9.07,-7.768 14.436,-10.857 2.76,-1.589 5.58,-2.732 8.605,-3.711 2.411,-0.78 4.838,-0.656 7.133,-1.74 0.027,-0.013 0.042,-0.035 0.066,-0.05 5.752,0.787 11.52,1.011 17.096,2.825 7.07,2.299 13.578,5.174 20.037,8.848 0.045,0.367 0.297,0.678 0.778,0.626 2.827,-0.307 7.761,2.855 10.129,4.351 4.447,2.809 6.448,7.869 7.671,12.719 1.306,5.177 -0.654,9.89 -1.316,14.975 -0.662,5.091 -2.487,9.655 -3.441,14.712 -0.273,1.449 1.793,2.057 2.228,0.614 0.904,-2.999 1.512,-6.018 2.549,-8.988 0.746,-2.137 0.822,-4.436 1.007,-6.702 0.963,-1.591 1.52,-3.19 1.56,-5.067 z"
   id="path171" />

		<path
   style="fill:#ffffff"
   d="m 103.868,65.074 c -6.985,4.928 -16.015,4.032 -24.046,4.223 -3.326,0.079 -6.675,0.717 -9.954,1.237 -3.485,0.552 -5.724,2.88 -8.665,4.597 -0.101,0.059 -0.054,0.21 0.058,0.214 3.559,0.128 6.734,-2.599 10.378,-3.004 4.526,-0.503 8.737,-1.114 13.301,-0.868 5.978,0.323 15.307,-0.734 19.444,-5.73 0.287,-0.346 -0.093,-0.968 -0.516,-0.669 z"
   id="path172" />

		<path
   style="fill:#ffffff"
   d="m 116.014,65.276 c -0.165,-0.043 -0.291,0.165 -0.167,0.288 2.186,2.166 4.952,3.862 7.523,5.533 2.694,1.751 3.121,5.14 4.721,7.652 0.369,0.579 1.43,0.399 1.374,-0.372 -0.489,-6.74 -7.467,-11.55 -13.451,-13.101 z"
   id="path173" />

		<path
   style="fill:#ffffff"
   d="m 109.766,119.172 c -0.624,-0.292 -1.06,0.498 -0.529,0.906 2.819,2.162 5.019,5.051 7.463,7.607 2.816,2.945 5.965,7.32 4.413,11.518 -0.232,0.627 0.648,1.068 1.082,0.63 6.319,-6.38 -7.195,-18.21 -12.429,-20.661 z"
   id="path174" />

		<path
   style="fill:#ffffff"
   d="m 65.334,121.105 c -4.209,1.54 -8.018,5.763 -10.091,9.628 -1.496,2.789 -2.23,7.623 0.869,9.553 0.809,0.504 1.791,-0.721 1.032,-1.338 -2.938,-2.392 -0.512,-7.18 1.166,-9.572 2.081,-2.965 4.854,-5.081 7.469,-7.504 0.328,-0.303 -0.009,-0.927 -0.445,-0.767 z"
   id="path175" />

		<path
   style="fill:#ffffff"
   d="m 57.38,141.233 c 0.253,-0.545 -0.436,-1.201 -0.888,-0.685 -2.281,2.605 -3.058,6.45 -3.894,9.718 -0.644,2.517 -1.377,4.999 -1.854,7.555 -0.634,3.406 -2.939,5.14 -4.639,7.856 -3.305,5.279 3.022,13.43 8.514,13.477 0.884,0.008 1.126,-1.442 0.214,-1.577 -4.031,-0.597 -6.41,-3.335 -7.521,-7.126 -1.303,-4.444 3.01,-5.984 4.42,-9.367 2.633,-6.32 2.763,-13.64 5.648,-19.851 z"
   id="path176" />

		<path
   style="fill:#ffffff"
   d="m 131.788,167.314 c -1.271,-4.868 -5.2,-8.24 -6.482,-13.22 -1.141,-4.431 -1.307,-9.102 -3.851,-13.041 -0.283,-0.439 -1.093,-0.159 -0.884,0.373 2.101,5.328 1.292,11.546 3.732,16.715 1.705,3.612 5.033,6.634 5.422,10.771 0.432,4.594 -3.786,7.987 -7.752,8.921 -1.383,0.326 -0.77,2.299 0.575,2.086 5.466,-0.868 10.769,-6.749 9.24,-12.605 z"
   id="path177" />

		<path
   style="fill:#ffffff"
   d="m 103.642,136.4 c -0.239,-0.491 -1.046,-0.255 -1.021,0.277 0.117,2.501 0.526,4.988 0.651,7.494 0.091,1.816 -0.292,3.168 -1.828,4.23 -0.793,0.548 -1.329,0.963 -1.764,1.834 -0.229,0.459 0.154,1.166 0.731,0.951 1.991,-0.743 4.47,-2.433 4.731,-4.737 0.359,-3.172 -0.092,-7.154 -1.5,-10.049 z"
   id="path178" />

		<path
   style="fill:#ffffff"
   d="m 111.278,155.401 c -0.297,-4.742 -0.466,-9.827 -2.488,-14.199 -0.079,-0.171 -0.36,-0.086 -0.351,0.095 0.494,9.987 0.912,19.901 1.177,29.888 0.032,1.21 1.801,1.197 1.868,0 0.299,-5.33 0.127,-10.463 -0.206,-15.784 z"
   id="path179" />

		<path
   style="fill:#ffffff"
   d="m 67.668,156.45 c 0.092,-4.712 0.423,-9.404 0.533,-14.104 0.003,-0.117 -0.132,-0.15 -0.21,-0.087 -0.768,0.624 -0.78,0.69 -0.816,1.87 -0.091,2.932 -0.659,5.779 -1.043,8.678 -0.873,6.588 -0.185,12.738 1.513,19.118 0.236,0.886 1.603,0.703 1.593,-0.216 -0.053,-5.128 -1.672,-10.023 -1.57,-15.259 z"
   id="path180" />

		<path
   style="fill:#ffffff"
   d="m 80.837,211.09 c -2.778,-0.296 -5.311,-0.595 -7.802,-0.486 0.132,-0.156 0.23,-0.352 0.237,-0.617 0.064,-2.314 -0.456,-4.636 -0.617,-6.945 -0.145,-2.075 -0.091,-4.222 -0.482,-6.265 -0.013,-0.066 -0.043,-0.113 -0.071,-0.164 2.801,0.177 5.782,-0.275 7.651,-0.803 0.555,-0.157 0.464,-1.076 -0.139,-1.03 -3.025,0.229 -5.816,-0.225 -8.794,-0.798 -0.849,-0.163 -1.726,-0.178 -2.579,-0.304 -1.855,-0.274 -1.083,-5.128 -0.942,-6.392 0.53,-4.736 1.193,-9.768 0.458,-14.507 -0.087,-0.561 -0.999,-0.538 -1.106,0 -0.674,3.4 -0.905,6.917 -1.203,10.367 -0.265,3.067 -1.457,7.292 -0.041,10.222 0.944,1.953 3.207,2.851 5.75,3.155 -0.077,0.068 -0.134,0.152 -0.164,0.253 0,0 0,-0.001 0,-0.001 -10e-4,0.002 -10e-4,0.004 -0.002,0.005 -0.007,0.025 -0.018,0.048 -0.021,0.076 -1.283,4.203 0.08,8.88 0.303,13.128 0.017,0.325 0.152,0.566 0.343,0.727 -1.878,0.212 -3.754,0.702 -5.714,1.656 -2.052,0.999 -5.028,3.719 -4.629,6.196 0.11,0.685 1.261,0.682 1.375,0 0.494,-2.956 4.853,-4.89 7.229,-5.618 3.696,-1.133 7.218,-0.097 10.96,-0.219 1.077,-0.032 1.031,-1.525 0,-1.636 z"
   id="path181" />

		<path
   style="fill:#ffffff"
   d="m 114.427,211.817 c -1.795,-0.977 -3.714,-1.267 -5.676,-1.233 0.093,-0.097 0.154,-0.226 0.164,-0.392 0.004,-0.068 0.009,-0.137 0.013,-0.205 0.003,-0.044 -0.02,-0.078 -0.029,-0.117 0.198,-1.723 0.07,-3.427 0.117,-5.165 0.074,-2.746 0.927,-5.462 1.301,-8.174 0.006,-0.047 -0.004,-0.085 -0.004,-0.129 2.818,-0.563 4.826,-2.067 5.302,-6.704 0.426,-4.149 -1.486,-8.22 -1.702,-12.317 -0.094,-1.787 0.048,-4.042 -1.815,-4.81 -0.515,-0.213 -0.791,0.437 -0.629,0.818 0.79,1.856 0.747,3.695 0.923,5.661 0.252,2.815 1.054,5.493 1.115,8.351 0.076,3.599 -0.809,6.744 -4.92,7.673 -2.168,0.49 -4.241,0.491 -6.348,1.273 -0.361,0.134 -0.342,0.78 0.098,0.724 2.347,-0.296 4.595,-0.259 6.558,-0.463 -1.555,4.507 -2.1,9.017 -1.196,13.736 0.019,0.099 0.086,0.194 0.169,0.272 -2.851,0.18 -5.766,0.931 -8.503,1.188 -0.318,0.03 -0.373,0.434 -0.074,0.547 3.348,1.269 7.015,0.415 10.502,0.361 3.516,-0.054 6.563,2.602 8.322,5.344 0.284,0.443 1.04,0.535 1.302,0 1.347,-2.756 -3.071,-5.194 -4.99,-6.239 z"
   id="path182" />

		<path
   style="fill:#ffffff"
   d="m 129.876,95.082 c -3.454,5.612 -7.288,11.959 -12.619,15.951 -4.071,3.049 -9.225,7.558 -14.303,8.474 -0.369,0.067 -0.226,0.555 0.08,0.596 5.313,0.713 11.145,-4.516 15.298,-7.231 5.736,-3.749 10.168,-11.093 12.442,-17.411 0.195,-0.541 -0.615,-0.839 -0.898,-0.379 z"
   id="path183" />

		<path
   style="fill:#573f45"
   d="m 47.253,162.119 c -1.285,1.784 -2.616,3.629 -2.616,7.027 0,5.581 5.128,11.252 8.814,11.252 0.116,0 0.23,-0.005 0.344,-0.015 0.852,-0.078 2.04,-0.285 2.532,-1.191 0.573,-1.056 -0.114,-2.352 -0.981,-3.994 -0.195,-0.369 -0.403,-0.761 -0.61,-1.176 l -0.466,-0.925 c -0.707,-1.399 -1.352,-2.676 -1.627,-3.611 0.124,0.176 0.247,0.354 0.358,0.515 1.155,1.673 2.349,3.4 3.74,3.401 0.251,0 0.492,-0.057 0.718,-0.17 0.948,-0.475 1.672,-1.411 2.037,-2.637 0.573,-1.926 0.175,-4.28 -1.095,-6.456 -1.079,-1.851 1.944,-7.801 4.611,-13.05 1.004,-1.977 2.023,-3.986 2.935,-5.947 0.175,0.045 0.346,0.088 0.512,0.129 -1.572,11.585 -2.334,21.799 -0.794,25.561 -0.675,6.997 -1.634,20.226 -0.39,23.211 0.516,1.239 1.966,2.043 4.353,2.446 0.152,2.485 0.475,6.694 1.121,13.871 -6.302,0.357 -10.266,4.904 -10.647,7.394 -0.169,1.106 0.294,1.969 1.206,2.255 1.41,0.441 6.38,0.671 10.562,0.671 9.904,0 10.526,-1.035 10.792,-1.478 1.087,-1.813 0.583,-6.258 -0.125,-7.675 -0.161,-0.322 -0.441,-0.64 -1.373,-0.879 l 2.282,-14.57 0.166,-0.019 c 1.823,-0.202 3.267,-2.508 4.664,-4.739 0.761,-1.216 2.035,-3.249 2.628,-3.249 0.518,0 1.043,1.39 1.506,2.617 0.674,1.785 1.514,4.006 3.268,5.234 0.438,0.306 0.998,0.543 1.622,0.731 l 2.192,13.995 c -0.933,0.24 -1.212,0.558 -1.373,0.88 -0.708,1.416 -1.212,5.862 -0.125,7.674 0.265,0.443 0.887,1.478 10.791,1.478 h 0.001 c 4.181,0 9.152,-0.23 10.562,-0.671 0.912,-0.286 1.375,-1.149 1.206,-2.255 -0.381,-2.49 -4.345,-7.037 -10.647,-7.394 0.652,-7.251 0.976,-11.472 1.125,-13.947 1.545,-0.362 2.861,-0.834 3.688,-1.413 2.55,-1.786 0.427,-16.097 -1.35,-25.153 0.451,-4.499 -0.872,-14.358 -2.624,-24.574 0.17,-0.042 0.345,-0.086 0.524,-0.132 0.912,1.96 1.932,3.97 2.936,5.948 2.667,5.249 5.689,11.199 4.611,13.049 -1.27,2.176 -1.669,4.531 -1.095,6.457 0.365,1.225 1.088,2.161 2.037,2.636 0.225,0.113 0.466,0.17 0.717,0.17 1.391,0 2.585,-1.729 3.74,-3.4 0.112,-0.162 0.235,-0.34 0.358,-0.515 -0.275,0.934 -0.921,2.211 -1.627,3.609 l -0.466,0.926 c -0.207,0.415 -0.415,0.806 -0.609,1.175 -0.869,1.642 -1.555,2.938 -0.982,3.995 0.492,0.906 1.681,1.113 2.533,1.191 0.114,0.01 0.227,0.015 0.344,0.015 3.686,-0.001 8.814,-5.671 8.814,-11.252 0,-3.398 -1.33,-5.242 -2.616,-7.027 -0.812,-1.125 -1.579,-2.188 -2.031,-3.657 -1.502,-4.884 -3.974,-12.55 -5.773,-18.091 0.668,-0.556 1.237,-1.158 1.662,-1.809 0.833,-1.274 1.076,-2.633 0.724,-4.04 -1.17,-4.682 -8.466,-11.291 -14.053,-15.786 5.84,-2.974 11.654,-7.652 16.454,-14.909 1.048,0.35 2.482,0.7 4.053,0.7 0.001,0 0.001,0 0.001,0 3.121,0 7.233,-1.394 9.096,-8.032 1.628,-5.799 0.403,-9.083 -0.911,-10.818 -0.927,-1.223 -2.234,-2.091 -3.743,-2.544 2.787,-9.253 5.28,-22.892 0.071,-32.749 -3.22,-6.095 -8.987,-9.9 -17.143,-11.312 -11.049,-7.939 -23.118,-12.135 -34.916,-12.135 -16.768,0 -31.962,8.572 -41.686,23.518 -8.755,13.458 -7.956,25.485 -5.18,33.932 -0.479,0.373 -0.912,0.802 -1.281,1.29 -1.315,1.735 -2.54,5.019 -0.911,10.818 1.863,6.638 5.975,8.032 9.096,8.032 1.462,0 2.8,-0.304 3.825,-0.629 1.257,1.918 2.68,3.695 4.304,5.25 4.21,4.032 9.296,7.341 14.861,9.782 -5.554,4.49 -12.659,10.977 -13.812,15.592 -0.352,1.407 -0.109,2.766 0.724,4.04 0.425,0.65 0.993,1.252 1.662,1.809 -1.799,5.541 -4.271,13.207 -5.773,18.091 -0.453,1.469 -1.22,2.532 -2.032,3.658 z m 7.457,-24.418 c -0.59,-0.904 -0.759,-1.819 -0.514,-2.798 1.09,-4.358 8.474,-10.913 13.951,-15.281 0.767,0.308 1.543,0.597 2.325,0.871 -1.304,7.258 -2.712,15.478 -3.796,23.202 -3.816,-0.951 -9.946,-2.904 -11.966,-5.994 z M 36.562,86.628 c 0.178,-0.235 0.378,-0.446 0.587,-0.647 2.542,6.756 6.153,10.842 6.235,10.932 0.134,0.147 0.317,0.223 0.506,0.242 0.715,1.875 1.562,3.673 2.552,5.362 -0.84,0.237 -1.862,0.438 -2.949,0.438 -3.749,0 -6.3,-2.317 -7.583,-6.885 -1.15,-4.097 -0.924,-7.362 0.652,-9.442 z M 83.455,28.51 c 11.518,0 23.324,4.13 34.143,11.944 0.098,0.071 0.211,0.118 0.331,0.137 7.741,1.302 13.19,4.843 16.193,10.525 6.334,11.983 0.421,30.589 -2.476,38.171 -0.598,-9.507 -3.583,-15.823 -8.898,-18.799 -7.361,-4.123 -11.009,-11.863 -11.045,-11.941 -0.12,-0.258 -0.37,-0.432 -0.653,-0.454 -0.281,-0.033 -0.557,0.11 -0.715,0.347 -0.082,0.123 -8.412,12.333 -24.98,12.333 -0.755,0 -1.526,-0.026 -2.292,-0.076 -0.745,-0.049 -1.511,-0.074 -2.272,-0.074 -17.892,0 -35.411,13.059 -37.418,23.774 C 39.648,89.417 29.354,72.427 43.09,51.312 52.517,36.822 67.23,28.51 83.455,28.51 Z m 55.128,67.56 c -1.282,4.568 -3.833,6.885 -7.583,6.885 -1.186,0 -2.299,-0.237 -3.178,-0.502 0.579,-0.94 1.147,-1.908 1.691,-2.931 2.345,-4.408 3.96,-8.796 4.866,-13.083 0.198,-0.578 0.398,-1.18 0.6,-1.811 1.198,0.353 2.215,1.029 2.952,2.001 1.577,2.079 1.803,5.344 0.652,9.441 z M 44.841,95.199 C 46.159,85.206 63.6,72.198 80.789,72.198 c 0.728,0 1.458,0.024 2.17,0.07 0.8,0.053 1.606,0.08 2.394,0.08 14.474,0 23,-8.928 25.507,-12.006 1.336,2.41 4.958,8.07 11.119,11.52 5.445,3.05 8.206,10.162 8.206,21.142 0,0.262 0.133,0.495 0.337,0.639 -0.689,1.706 -1.483,3.421 -2.398,5.14 -10.804,20.307 -29.157,23.339 -39.135,23.339 -13.496,0 -27.058,-5.274 -36.281,-14.109 -3.559,-3.411 -6.201,-7.858 -7.867,-12.814 z m 78.178,39.704 c 0.245,0.979 0.076,1.893 -0.514,2.798 -2.031,3.108 -8.22,5.065 -12.031,6.011 -1.507,-8.608 -3.262,-17.264 -4.469,-23.005 0.966,-0.361 1.937,-0.76 2.911,-1.206 5.491,4.366 13.003,11.002 14.103,15.402 z m 7.986,34.242 c 0,4.58 -4.316,9.678 -7.24,9.679 -0.069,0 -0.135,-0.003 -0.203,-0.009 -1.132,-0.102 -1.285,-0.362 -1.29,-0.374 -0.172,-0.317 0.499,-1.584 0.988,-2.509 0.201,-0.379 0.414,-0.783 0.627,-1.208 l 0.463,-0.919 c 1.455,-2.881 2.418,-4.785 1.69,-6.241 -0.183,-0.366 -0.52,-0.585 -0.902,-0.585 -0.747,0 -1.269,0.756 -2.216,2.127 -0.562,0.814 -1.878,2.718 -2.459,2.718 h -10e-4 c -0.548,-0.273 -0.998,-0.885 -1.233,-1.677 -0.451,-1.513 -0.105,-3.413 0.945,-5.216 1.512,-2.591 -1.305,-8.136 -4.565,-14.555 -0.956,-1.882 -1.924,-3.793 -2.797,-5.654 2.583,-0.746 5.643,-1.855 8.01,-3.38 1.781,5.491 4.152,12.85 5.608,17.583 0.528,1.715 1.407,2.935 2.258,4.115 1.19,1.653 2.317,3.215 2.317,6.105 z m -19.47,1.929 c -1.436,1.567 -12.5,3.387 -24.615,3.387 -0.001,0 -0.002,0 -0.003,0 -10.695,0 -18.216,-1.483 -19.626,-3.87 -2.141,-3.623 -0.563,-20.312 4.689,-49.594 2.441,0.78 4.941,1.398 7.477,1.844 1.063,3.678 3.69,8.563 10.166,8.969 0.202,0.012 0.401,0.018 0.595,0.018 10e-4,0 10e-4,0 0.002,0 4.181,0 7.253,-2.854 8.882,-8.253 0.096,-0.317 0.181,-0.633 0.262,-0.947 1.666,-0.35 3.392,-0.809 5.146,-1.394 4.956,23.581 8.9,47.797 7.025,49.84 z m 7.342,47.434 c -1.058,0.331 -5.586,0.599 -10.093,0.599 h -0.001 c -6.506,0 -9.01,-0.496 -9.477,-0.777 -0.688,-1.284 -0.317,-4.884 0.181,-6.019 0.204,-0.111 1.219,-0.498 5.502,-0.498 1.483,0 2.849,0.045 3.58,0.07 0.282,0.009 0.474,0.015 0.551,0.015 5.788,0 9.561,4.025 9.877,6.093 0.07,0.458 -0.073,0.502 -0.12,0.517 z m -10.546,-8.207 c -0.782,-0.025 -2.015,-0.061 -3.342,-0.061 -1.721,0 -2.992,0.058 -3.945,0.155 l -2.095,-13.374 c 1.316,0.206 2.734,0.268 3.95,0.268 2.073,0 4.425,-0.189 6.541,-0.555 -0.242,3.542 -0.711,9.113 -1.109,13.567 z m -5.432,-14.585 c -2.988,0 -5.351,-0.404 -6.32,-1.082 -1.357,-0.951 -2.07,-2.837 -2.699,-4.502 -0.706,-1.869 -1.372,-3.634 -2.978,-3.634 -1.464,0 -2.621,1.849 -3.961,3.988 -1.086,1.734 -2.436,3.892 -3.505,4.01 l -0.693,0.081 c -1.772,0.21 -5.459,0.647 -8.871,0.647 -5.778,0 -6.923,-1.249 -7.146,-1.786 -0.986,-2.368 -0.266,-13.712 0.359,-20.824 3.825,2.937 13.783,3.42 19.833,3.42 0.002,0 0.002,0 0.003,0 10.196,0 22.403,-1.359 25.405,-3.578 1.53,8.746 2.88,20.204 1.492,21.256 -1.608,1.124 -6.404,2.004 -10.919,2.004 z M 81.347,218.33 c -0.467,0.282 -2.971,0.777 -9.478,0.777 -4.507,0 -9.035,-0.268 -10.093,-0.599 -0.047,-0.014 -0.189,-0.059 -0.12,-0.516 0.315,-2.069 4.088,-6.093 9.877,-6.093 0.077,0 0.269,-0.006 0.551,-0.015 0.731,-0.025 2.097,-0.07 3.58,-0.07 4.283,0 5.298,0.386 5.502,0.498 0.499,1.134 0.869,4.732 0.181,6.018 z m -5.682,-8.09 c -1.327,0 -2.56,0.036 -3.342,0.061 -0.4,-4.475 -0.872,-10.079 -1.112,-13.618 0.813,0.069 1.683,0.114 2.662,0.114 2.904,0 5.958,-0.304 7.951,-0.53 l -2.213,14.128 c -0.955,-0.097 -2.225,-0.155 -3.946,-0.155 z m 5.486,-87.116 c 2.596,0.375 5.219,0.57 7.84,0.57 2.462,0 5.419,-0.183 8.642,-0.739 -1.115,3.803 -3.366,7.606 -7.911,7.283 -5.215,-0.325 -7.534,-3.996 -8.571,-7.114 z m -16.746,21.598 c -0.873,1.861 -1.841,3.771 -2.797,5.653 -3.261,6.42 -6.077,11.965 -4.566,14.556 1.051,1.802 1.396,3.703 0.945,5.215 -0.236,0.793 -0.686,1.405 -1.247,1.683 -0.565,-0.001 -1.883,-1.908 -2.445,-2.722 -0.948,-1.371 -1.47,-2.127 -2.217,-2.127 -0.381,0 -0.718,0.219 -0.901,0.585 -0.729,1.456 0.234,3.36 1.689,6.241 l 0.463,0.919 c 0.213,0.427 0.426,0.829 0.627,1.208 0.489,0.926 1.16,2.194 0.989,2.509 -0.006,0.011 -0.16,0.271 -1.29,0.374 -0.068,0.006 -0.135,0.009 -0.203,0.009 -2.925,0 -7.241,-5.098 -7.241,-9.679 0,-2.89 1.127,-4.453 2.319,-6.106 0.851,-1.18 1.73,-2.399 2.258,-4.115 1.456,-4.733 3.827,-12.092 5.608,-17.583 2.366,1.525 5.426,2.634 8.009,3.38 z"
   id="path184" />

		<path
   style="fill:#573f45"
   d="m 99.59,151.489 c 0.339,0 0.638,-0.064 0.887,-0.188 0.17,-0.085 0.371,-0.177 0.594,-0.28 1.456,-0.67 3.893,-1.79 4.523,-3.887 0.546,-1.822 0.279,-11.707 -1.102,-12.743 -0.271,-0.204 -0.705,-0.339 -1.941,-0.339 -0.099,0 -9.975,0.285 -10.375,2.684 -0.117,0.703 -0.238,10.778 1.31,12.016 0.942,0.754 4.245,2.737 6.104,2.737 z m -5.879,-14.375 c 0.803,-0.654 5.704,-1.489 8.84,-1.489 0.528,0 0.816,0.029 0.962,0.051 0.581,1.404 1.123,9.173 0.574,11.005 -0.425,1.416 -2.379,2.316 -3.673,2.91 -0.24,0.111 -0.457,0.211 -0.639,0.302 -0.001,0 -0.05,0.023 -0.184,0.023 -1.21,0 -4.125,-1.595 -5.073,-2.344 -0.669,-0.927 -1.007,-8.764 -0.807,-10.458 z"
   id="path185" />

		<path
   style="fill:#573f45"
   d="m 103.559,93.058 c 2.413,0 4.37,-1.956 4.37,-4.37 0,-2.413 -1.956,-4.37 -4.37,-4.37 -2.413,0 -4.37,1.956 -4.37,4.37 0,2.413 1.956,4.37 4.37,4.37 z m -1.049,-7.516 c 0.965,0 1.748,0.783 1.748,1.748 0,0.965 -0.783,1.748 -1.748,1.748 -0.965,0 -1.748,-0.783 -1.748,-1.748 0,-0.965 0.783,-1.748 1.748,-1.748 z"
   id="path186" />

		<path
   style="fill:#573f45"
   d="m 69.301,93.058 c 2.413,0 4.37,-1.956 4.37,-4.37 0,-2.413 -1.956,-4.37 -4.37,-4.37 -2.413,0 -4.369,1.956 -4.369,4.37 0,2.413 1.956,4.37 4.369,4.37 z m -1.049,-7.516 c 0.965,0 1.748,0.783 1.748,1.748 0,0.965 -0.783,1.748 -1.748,1.748 -0.965,0 -1.748,-0.783 -1.748,-1.748 10e-4,-0.965 0.783,-1.748 1.748,-1.748 z"
   id="path187" />

		<path
   style="fill:#573f45"
   d="m 87.653,95.491 c 0.463,-0.062 0.865,-0.354 1.35,-0.247 0.328,0.072 0.605,0.352 0.733,0.656 0.13,0.311 0.176,0.698 0.034,1.014 -0.216,0.481 -0.757,0.648 -1.17,0.914 -0.472,0.303 -0.268,0.988 0.277,1.023 1.719,0.108 2.617,-1.908 1.966,-3.314 -0.286,-0.617 -0.812,-1.091 -1.472,-1.269 -0.671,-0.181 -1.669,0.065 -2.007,0.718 -0.104,0.198 0.018,0.541 0.289,0.505 z"
   id="path188" />

		<path
   style="fill:#573f45"
   d="m 88.257,116.67 c 0.221,0 0.449,-0.005 0.678,-0.015 7.994,-0.355 11.411,-6.183 12.1,-9.214 0.411,-1.802 0.083,-3.185 -0.877,-3.699 -1.519,-0.813 -8.643,-1.03 -12.613,-1.03 -9.646,0 -10.169,0.896 -10.42,1.327 -0.691,1.185 -0.367,4.309 1.22,7.07 1.193,2.077 4.067,5.561 9.912,5.561 z M 78.44,104.928 c 0.617,-0.272 3.426,-0.644 9.105,-0.644 6.158,0 11.11,0.436 11.87,0.844 0.122,0.066 0.38,0.676 0.087,1.964 -0.598,2.627 -3.59,7.677 -10.636,7.991 -5.187,0.227 -7.855,-2.493 -9.157,-4.758 -1.372,-2.389 -1.506,-4.73 -1.269,-5.397 z"
   id="path189" />

	</g>
  </g>
</svg>
