<?xml version="1.0" encoding="UTF-8" standalone="no"?>
<!-- Created with Inkscape (http://www.inkscape.org/) -->

<svg
   width="100.71008mm"
   height="212.03194mm"
   viewBox="0 0 100.71009 212.03194"
   version="1.1"
   id="svg1"
   inkscape:version="1.4.2 (f4327f4, 2025-05-13)"
   sodipodi:docname="boy5.svg"
   xmlns:inkscape="http://www.inkscape.org/namespaces/inkscape"
   xmlns:sodipodi="http://sodipodi.sourceforge.net/DTD/sodipodi-0.dtd"
   xmlns="http://www.w3.org/2000/svg"
   xmlns:svg="http://www.w3.org/2000/svg">
  <sodipodi:namedview
     id="namedview1"
     pagecolor="#ffffff"
     bordercolor="#000000"
     borderopacity="0.25"
     inkscape:showpageshadow="2"
     inkscape:pageopacity="0.0"
     inkscape:pagecheckerboard="0"
     inkscape:deskcolor="#d1d1d1"
     inkscape:document-units="mm"
     inkscape:zoom="1.2275954"
     inkscape:cx="-188.17275"
     inkscape:cy="514.82761"
     inkscape:window-width="2880"
     inkscape:window-height="1676"
     inkscape:window-x="-12"
     inkscape:window-y="-12"
     inkscape:window-maximized="1"
     inkscape:current-layer="layer1" />
  <defs
     id="defs1">
    <clipPath
       clipPathUnits="userSpaceOnUse"
       id="clipPath119">
      <path
         d="m 2429.58,8528.87 v 0 l -1.54,4.27 c 7.66,35.49 -15.79,67.53 -15.79,67.53 10.47,20.59 15.22,39.01 16.15,55.3 95.03,81.21 245.93,222.7 239.94,298.46 -6.68,84.06 -297.09,299.7 -435.14,397.71 -1.96,12.33 -3.87,24.38 -5.72,36.02 -4.67,29.42 -8.97,56.5 -12.82,80.63 v 0 c 0,0 399.66,-281.36 528.14,-436.13 0,0 44.89,-42.39 44.81,-102.96 0,-4.99 -0.32,-10.11 -0.98,-15.34 -8.76,-68.62 -357.05,-385.49 -357.05,-385.49"
         transform="translate(0,2.5000001e-4)"
         id="path119" />
    </clipPath>
  </defs>
  <g
     inkscape:label="图层 1"
     inkscape:groupmode="layer"
     id="layer1"
     transform="translate(-154.51642,-184.67909)">
    <path
       id="path333"
       d="m 248.52003,393.76939 c -0.66675,-1.06433 -2.52765,-1.54588 -3.75426,-1.7579 -1.97732,-0.34043 -4.81471,-0.84772 -6.79767,-1.16416 -3.2632,-0.52211 -5.96548,-0.50377 -9.06533,-1.57198 -0.043,-0.0145 -0.0734,-0.004 -0.10055,0.0169 -0.72107,-0.41451 -1.61995,-0.37782 -2.43063,-0.56903 -0.25189,-0.061 -0.50377,0.21943 -0.34361,0.40182 -0.29633,1.41852 -0.33973,2.7506 -0.33796,4.2037 0.004,1.15605 0.40463,1.81045 1.74237,1.97308 1.6196,0.19791 3.24838,0.10866 4.87398,0.0212 1.64112,0.0409 3.29565,0.005 4.93677,-0.0681 1.41146,0.0272 6.76204,-0.26776 7.89658,-0.27693 0.11289,-7e-4 0.23036,-3.5e-4 0.35031,0 1.06821,0.003 2.36678,0.006 3.02648,-0.77293 0.1023,-0.12312 0.0808,-0.31292 0.004,-0.43568"
       style="fill:#728f44;fill-opacity:1;fill-rule:nonzero;stroke:none;stroke-width:0.0352778" />
    <path
       id="path334"
       d="m 244.96192,394.46789 c -3.00779,-0.003 -6.01028,0.0628 -9.01665,0.11253 -2.63948,0.0444 -6.2043,0.23178 -8.3566,-0.0226 -0.62936,-0.0737 -1.52471,-0.0674 -1.85702,-0.7052 0.12382,0.82868 0.5842,1.31375 1.70074,1.44921 1.6196,0.19791 3.24838,0.10866 4.87398,0.0215 1.64147,0.0406 3.29565,0.005 4.93677,-0.0684 1.41146,0.0272 6.76204,-0.26776 7.89658,-0.27693 1.1183,-0.007 2.64301,0.0935 3.37643,-0.77293 0.0381,-0.0441 0.0522,-0.096 0.0593,-0.15099 -0.81068,0.47978 -2.48073,0.41451 -3.6135,0.41381"
       style="fill:#516831;fill-opacity:1;fill-rule:nonzero;stroke:none;stroke-width:0.0352778" />
    <path
       id="path335"
       d="m 194.42967,390.75278 c -0.0289,-1.94133 -1.63618,-2.37631 -3.55282,-2.37843 -0.7172,-7e-4 -2.29024,-0.33584 -2.89455,0.17639 -0.29668,0.2533 -0.30762,0.65017 -0.23212,1.0661 -0.0699,1.66582 -1.81575,1.78329 -3.48792,2.07574 -1.49436,0.26141 -3.03671,0.5207 -4.54131,0.71861 -2.08562,0.27376 -5.4871,0.47978 -6.5285,2.41053 -0.87207,1.61996 2.28882,1.76742 3.21839,1.8221 3.14995,0.18203 6.32531,-0.06 9.48196,-0.0907 2.48144,-0.0261 5.1174,-0.17957 7.52299,-0.74437 1.93957,-0.45649 1.0354,-3.86362 1.01388,-5.05601"
       style="fill:#728f44;fill-opacity:1;fill-rule:nonzero;stroke:none;stroke-width:0.0352778" />
    <path
       id="path336"
       d="m 192.99704,395.23976 c -1.64006,0.3228 -6.8326,0.70697 -7.72054,0.74895 -2.47403,0.11783 -4.9082,0.24342 -7.38576,0.19403 -1.16875,-0.0233 -3.86397,0.20673 -4.70006,-0.78387 -0.0518,-0.0621 -0.0914,-0.12136 -0.12558,-0.18063 -0.17992,1.24425 2.49907,1.37654 3.34574,1.42558 3.14995,0.18203 6.32531,-0.06 9.48196,-0.0907 2.48144,-0.0261 5.1174,-0.17957 7.52299,-0.74437 0.63958,-0.15063 0.96379,-0.62618 1.11972,-1.23507 -0.30904,0.32985 -0.8121,0.52282 -1.53847,0.66604"
       style="fill:#516831;fill-opacity:1;fill-rule:nonzero;stroke:none;stroke-width:0.0352778" />
    <path
       id="path337"
       d="m 230.5139,389.13494 c -0.043,-3.19299 -0.57714,-6.31613 -1.1236,-9.47596 -0.61665,-3.56694 -1.23331,-7.1314 -1.84467,-10.70187 -1.19768,-7.03368 -2.04611,-14.103 -3.16301,-21.15185 -1.12324,-7.10001 -1.99884,-14.14745 -4.1656,-21.07883 -1.09114,-3.49038 -1.91629,-7.04038 -3.0547,-10.51771 -0.55527,-1.69616 -1.16134,-3.37079 -1.69333,-5.07189 -0.39406,-1.25765 -0.60078,-2.6349 -1.40441,-3.75391 l -0.0339,-0.0208 c -0.1711,-0.40534 -0.369,-0.79904 -0.58596,-1.17158 -0.86713,-1.46508 -2.60385,-2.04646 -4.18606,-2.73438 -3.9751,-1.72684 -8.96797,-1.93357 -13.32266,-1.64747 -3.91548,0.25576 -8.35624,2.28847 -10.10426,5.53544 -0.64876,1.20544 -0.69956,2.48038 -0.68474,3.77296 -1.5427,14.51398 -1.59103,29.16943 -1.38642,43.73421 0.0473,3.45158 0.48931,6.91409 0.74436,10.35685 0.27693,3.78107 0.40993,7.55933 0.91546,11.32558 0.49424,3.70276 0.89359,7.36918 1.85702,11.0102 0.20144,0.75 0.61701,1.59843 0.65441,2.36502 0.0127,0.28152 0.21766,0.76694 0.54504,0.89288 0.88935,0.34184 1.87819,0.22401 2.86032,0.10654 0.7172,-0.0857 1.43087,-0.1718 2.10009,-0.0787 0.1651,0.0222 0.31997,-0.0222 0.44026,-0.1009 0.32915,0.01 0.62054,-0.31997 0.44944,-0.64452 -0.47448,-0.88441 -0.37394,-2.28318 -0.5214,-3.25579 -0.21026,-1.37407 -0.30551,-2.79082 -0.55704,-4.15149 -0.29668,-1.60584 -0.27164,-3.36761 -0.3743,-4.99921 -0.0914,-1.42734 -0.17956,-2.86315 -0.28751,-4.29154 -0.48895,-6.41068 -1.27847,-12.90638 -0.71543,-19.33681 0.26388,-3.01414 0.71014,-6.0004 0.92216,-9.01982 0.21907,-3.07376 0.20673,-6.1394 0.65969,-9.19375 0.50553,-3.42723 1.0414,-6.84847 1.63795,-10.2616 0.35772,-2.04611 0.97473,-4.03013 1.60373,-6.01239 1.63301,0.16298 3.26143,0.27869 4.91384,0.32879 1.64712,0.0487 3.28648,0.14499 4.92795,0.25012 3.01908,4.79178 4.15855,10.42176 6.02686,15.57267 1.01565,2.79224 1.82668,5.69454 2.37843,8.58696 0.59549,3.11468 1.65241,6.15421 2.27824,9.26748 1.21144,6.00851 3.15348,11.86956 4.42983,17.86396 0.63323,2.97215 1.25306,5.94924 1.89477,8.91857 0.6096,2.81552 1.24812,5.71007 1.29822,8.58591 -0.12559,0.19438 -0.0536,0.45685 0.10618,0.61136 0.44027,0.41875 1.37337,0.27764 1.97768,0.3489 0.93662,0.1076 1.79987,0.0815 2.71533,0.0303 l 0.0699,-0.001 c 0.26246,0.11959 0.63465,0.0589 0.762,-0.19544 0.1404,-0.16051 0.14746,-0.40428 0.0399,-0.59549"
       style="fill:#9e4d5a;fill-opacity:1;fill-rule:nonzero;stroke:none;stroke-width:0.0352778" />
    <path
       id="path338"
       d="m 193.76433,386.54132 c -3.5e-4,0 -7e-4,0 -0.001,0 -0.0265,-0.18873 -0.0515,-0.37782 -0.0755,-0.56762 0.001,0 0.002,-3.5e-4 0.003,-3.5e-4 0.024,0.1905 0.048,0.37924 0.0737,0.56797"
       style="fill:#cc9ca3;fill-opacity:1;fill-rule:nonzero;stroke:none;stroke-width:0.0352778" />
    <path
       id="path339"
       d="m 187.17162,387.1234 c -0.0392,-0.1598 -0.0769,-0.31996 -0.11536,-0.47907 2.24085,-0.14146 4.43019,-0.35348 6.63152,-0.67063 0.024,0.1898 0.049,0.37889 0.0755,0.56762 -0.10336,-0.006 -0.20849,-0.008 -0.31432,-0.008 -0.84773,0 -1.7593,0.16404 -2.56858,0.26246 -1.21743,0.14958 -2.47826,0.24095 -3.70875,0.32773"
       style="fill:#80333f;fill-opacity:1;fill-rule:nonzero;stroke:none;stroke-width:0.0352778" />
    <path
       id="path340"
       d="m 224.68637,386.63904 c -0.0226,-0.20355 -0.0473,-0.4071 -0.073,-0.61101 7.1e-4,0 0.002,3.5e-4 0.002,3.5e-4 0.0265,0.2032 0.0511,0.40605 0.0737,0.60925 -10e-4,7.1e-4 -0.002,10e-4 -0.003,10e-4"
       style="fill:#cc9ca3;fill-opacity:1;fill-rule:nonzero;stroke:none;stroke-width:0.0352778" />
    <path
       id="path341"
       d="m 224.68954,386.63763 c -0.0226,-0.2032 -0.0473,-0.40605 -0.0737,-0.60925 0.45226,0.0296 0.90805,0.0444 1.36631,0.0444 1.4358,0 2.89207,-0.14428 4.30847,-0.42298 0.0215,0.19967 0.0416,0.3997 0.0607,0.59972 -0.19932,-0.0258 -0.41592,-0.036 -0.63782,-0.036 -0.50341,0 -1.0347,0.0529 -1.45768,0.0977 -0.51082,0.0568 -1.02129,0.0917 -1.53564,0.11606 -0.39758,0.0152 -0.92251,0.11113 -1.40229,0.13653 -0.0434,-0.002 -0.085,-0.003 -0.12453,-0.003 -0.22472,0 -0.38735,0.0296 -0.50377,0.0765"
       style="fill:#80333f;fill-opacity:1;fill-rule:nonzero;stroke:none;stroke-width:0.0352778" />
    <path
       id="path342"
       d="m 215.79037,312.13696 c -0.0896,-0.272 -0.1778,-0.54434 -0.26388,-0.81774 0.0875,0.27269 0.18168,0.54363 0.27129,0.81527 -0.002,10e-4 -0.005,0.002 -0.007,0.002"
       style="fill:#cc9ca3;fill-opacity:1;fill-rule:nonzero;stroke:none;stroke-width:0.0352778" />
    <path
       id="path343"
       d="m 197.57716,314.89674 c -2.06905,0 -4.13491,-0.10301 -6.20395,-0.24942 -2.13431,-0.15099 -4.40867,-0.35489 -6.46184,-1.00894 0.073,-0.77505 0.13688,-1.5487 0.2152,-2.32304 3.14537,0.86077 6.49993,1.2453 9.73984,1.38782 0.68756,0.03 1.46191,0.0452 2.29835,0.0452 5.54284,0 13.84229,-0.66746 18.15606,-2.11526 0.0473,0.16934 0.096,0.33761 0.14817,0.50377 0.0187,0.061 0.0377,0.12171 0.0575,0.18239 0.0861,0.2734 0.17427,0.54574 0.26388,0.81774 -4.80378,1.48942 -9.84427,2.35585 -14.9352,2.66523 -1.09397,0.066 -2.18652,0.0946 -3.27801,0.0946"
       style="fill:#80333f;fill-opacity:1;fill-rule:nonzero;stroke:none;stroke-width:0.0352778" />
    <path
       id="path344"
       d="m 224.30219,384.05424 c -0.14217,-0.78634 -0.30057,-1.56986 -0.46531,-2.34809 0.16474,0.7747 0.3242,1.55434 0.46566,2.33645 0,0.004 -3.5e-4,0.008 -3.5e-4,0.0116 m -0.75741,-3.70382 v 0 c -0.64171,-2.96933 -1.26154,-5.94642 -1.89477,-8.91857 -1.27635,-5.9944 -3.21839,-11.85545 -4.42983,-17.86396 -0.62583,-3.11327 -1.68275,-6.1528 -2.27824,-9.26748 -0.55175,-2.89242 -1.36278,-5.79472 -2.37843,-8.58696 -1.86831,-5.15091 -3.00778,-10.78089 -6.02686,-15.57267 -1.64147,-0.10513 -3.28083,-0.20144 -4.92795,-0.25012 -0.0205,-3.5e-4 -0.0409,-0.001 -0.061,-0.002 0.0201,7e-4 0.0406,10e-4 0.061,0.002 1.64712,0.0487 3.28648,0.14499 4.92795,0.25012 3.01908,4.79178 4.15855,10.42176 6.02686,15.57267 1.01565,2.79224 1.82668,5.69454 2.37843,8.58696 0.59549,3.11468 1.65241,6.15421 2.27824,9.26748 1.21144,6.00851 3.15348,11.86956 4.42983,17.86396 0.63323,2.97215 1.25306,5.94924 1.89477,8.91857 v 0"
       style="fill:#cc9ca3;fill-opacity:1;fill-rule:nonzero;stroke:none;stroke-width:0.0352778" />
    <path
       id="path345"
       d="m 224.30254,384.0426 c -0.14146,-0.78211 -0.30092,-1.56175 -0.46566,-2.33645 -0.096,-0.45367 -0.19403,-0.90593 -0.2921,-1.35573 v 0 c -0.64171,-2.96933 -1.26154,-5.94642 -1.89477,-8.91857 -1.27635,-5.9944 -3.21839,-11.85545 -4.42983,-17.86396 -0.62583,-3.11327 -1.68275,-6.1528 -2.27824,-9.26748 -0.55175,-2.89242 -1.36278,-5.79472 -2.37843,-8.58696 -1.86831,-5.15091 -3.00778,-10.78089 -6.02686,-15.57267 -1.64147,-0.10513 -3.28083,-0.20144 -4.92795,-0.25012 -0.0205,-3.5e-4 -0.0409,-0.001 -0.061,-0.002 -1.19309,-0.0377 -2.37737,-0.11924 -3.55847,-0.21837 3.49744,-0.42052 7.00299,-0.7747 10.51278,-1.10737 6.08048,12.31759 8.61377,25.63918 11.1827,38.79744 0.61137,3.13902 4.11374,20.21276 4.44994,22.60777 0.18697,1.35537 0.21943,2.71356 0.16792,4.07423"
       style="fill:#80333f;fill-opacity:1;fill-rule:nonzero;stroke:none;stroke-width:0.0352778" />
    <path
       id="path346"
       d="m 231.33376,389.03511 c -0.11148,-0.49495 -0.0522,-0.98319 -0.0917,-1.48026 -0.0452,-0.54045 0.0413,-1.131 -0.71015,-1.2767 -0.67239,-0.12841 -1.60937,-0.0377 -2.27612,0.0332 -0.51082,0.0568 -1.02129,0.0917 -1.53564,0.11606 -0.39758,0.0152 -0.92251,0.11113 -1.40229,0.13653 -1.00119,-0.0437 -0.9331,0.43497 -0.88124,0.61101 0.16369,0.55139 0.17286,1.08197 0.15134,1.64571 -0.0106,0.32244 -0.0106,0.65687 0.0448,0.97684 0.0395,0.25083 0.19262,0.42263 0.47308,0.49354 0.49988,0.12594 1.1049,0.091 1.68204,0.0561 0.27129,-0.0166 0.53623,-0.0332 0.78141,-0.0328 0.53516,0 1.0802,-0.0628 1.61395,-0.0935 0.22684,-0.0131 0.4625,-0.003 0.69815,0.007 0.33267,0.0141 0.66499,0.0279 0.97226,-0.0226 0.26987,-0.0452 0.46743,-0.16087 0.54116,-0.40852 0.0808,-0.27834 0.004,-0.47554 -0.061,-0.76129"
       style="fill:#9f3653;fill-opacity:1;fill-rule:nonzero;stroke:none;stroke-width:0.0352778" />
    <path
       id="path347"
       d="m 194.62899,388.85449 c -0.09,-0.63571 0.018,-1.30705 -0.1651,-1.92652 -0.0702,-0.23248 -0.29668,-0.35666 -0.55351,-0.37677 -0.96943,-0.0808 -2.07151,0.12806 -3.03001,0.24447 -1.26753,0.15558 -2.58162,0.24836 -3.85974,0.33832 -0.0811,0.006 -0.15487,0.0512 -0.20179,0.11042 -0.25505,0.12065 -0.38982,0.36301 -0.32349,0.62406 0.18027,0.72002 0.33443,1.46262 0.51999,2.18864 0.13829,0.54045 0.14358,1.05762 0.84843,1.20473 2.09797,0.43992 4.28237,-0.1778 6.3627,-0.18591 0.27693,-0.001 0.51047,-0.1584 0.58949,-0.39017 0.19791,-0.5708 -0.10759,-1.24602 -0.18697,-1.83127"
       style="fill:#9f3653;fill-opacity:1;fill-rule:nonzero;stroke:none;stroke-width:0.0352778" />
    <path
       id="path348"
       d="m 224.59641,388.42904 c 3.5e-4,-0.42193 -0.0346,-0.83185 -0.15981,-1.25413 -0.025,-0.0847 -0.054,-0.23989 0.0353,-0.37289 -0.0889,0.133 -0.06,0.28822 -0.0353,0.37289 0.12523,0.42228 0.16016,0.8322 0.15981,1.25413"
       style="fill:#eaced4;fill-opacity:1;fill-rule:nonzero;stroke:none;stroke-width:0.0352778" />
    <path
       id="path349"
       d="m 225.97577,390.37954 c -0.0508,0 -0.10125,-3.5e-4 -0.15099,-0.002 v 0 c 0.0497,10e-4 0.10019,0.002 0.15099,0.002 0.26776,0 0.54292,-0.0162 0.81209,-0.0325 0.26847,-0.0162 0.53129,-0.0328 0.77435,-0.0328 0.002,0 0.005,0 0.007,0 0.53516,0 1.0802,-0.0628 1.61395,-0.0935 0.078,-0.004 0.15734,-0.006 0.23707,-0.006 0.0198,0 0.0392,0 0.0589,0 0.0201,10e-4 0.0402,0.002 0.0603,0.003 -0.0455,-10e-4 -0.091,-10e-4 -0.13582,-10e-4 -0.0748,0 -0.14887,10e-4 -0.22049,0.005 -0.53375,0.0307 -1.07879,0.0935 -1.61395,0.0935 -0.002,0 -0.005,0 -0.007,0 -0.24306,0 -0.50588,0.0166 -0.77435,0.0328 -0.26917,0.0162 -0.54433,0.0325 -0.81209,0.0325"
       style="fill:#697539;fill-opacity:1;fill-rule:nonzero;stroke:none;stroke-width:0.0352778" />
    <path
       id="path350"
       d="m 225.97577,390.37954 c -0.0508,0 -0.10125,-3.5e-4 -0.15099,-0.002 -0.25259,-0.006 -0.49636,-0.0307 -0.71896,-0.0868 -0.28046,-0.0709 -0.43357,-0.24271 -0.47308,-0.49354 -0.0381,-0.22013 -0.0501,-0.44697 -0.0504,-0.67204 0,-0.10231 0.002,-0.20426 0.006,-0.3048 0.005,-0.13229 0.008,-0.26247 0.008,-0.39158 3.5e-4,-0.42193 -0.0346,-0.83185 -0.15981,-1.25413 -0.0247,-0.0847 -0.0536,-0.23989 0.0353,-0.37289 0.0875,-0.13088 0.28963,-0.24024 0.72249,-0.24024 0.036,0 0.0734,7.1e-4 0.11253,0.002 0.0416,0.883 0.0254,1.84397 0.67945,2.50402 0.58491,0.58737 1.38642,0.83643 2.22956,1.00118 0.38876,0.0748 0.81879,0.12594 1.26329,0.1457 -0.0197,0 -0.0391,0 -0.0589,0 -0.0797,0 -0.1591,0.002 -0.23707,0.006 -0.53375,0.0307 -1.07879,0.0935 -1.61395,0.0935 -0.002,0 -0.005,0 -0.007,0 -0.24306,0 -0.50588,0.0166 -0.77435,0.0328 -0.26917,0.0162 -0.54433,0.0325 -0.81209,0.0325"
       style="fill:#922e49;fill-opacity:1;fill-rule:nonzero;stroke:none;stroke-width:0.0352778" />
    <path
       id="path351"
       d="m 189.52747,391.41989 c -0.55845,0 -1.11407,-0.0427 -1.6637,-0.15805 -0.031,-0.006 -0.06,-0.0134 -0.0878,-0.0212 0.0279,0.008 0.0572,0.0148 0.0878,0.0212 0.54963,0.11536 1.10525,0.15805 1.6637,0.15805 1.57198,0 3.16371,-0.33797 4.699,-0.34396 0.0776,-3.6e-4 0.1517,-0.0127 0.21978,-0.0356 v 0 c -0.0681,0.0229 -0.14217,0.0353 -0.21978,0.0356 -1.53529,0.006 -3.12702,0.34396 -4.699,0.34396"
       style="fill:#697539;fill-opacity:1;fill-rule:nonzero;stroke:none;stroke-width:0.0352778" />
    <path
       id="path352"
       d="m 193.91038,386.5512 c -0.0339,-0.003 -0.0674,-0.005 -0.10124,-0.007 0.0339,0.002 0.0677,0.005 0.10124,0.007"
       style="fill:#eaced4;fill-opacity:1;fill-rule:nonzero;stroke:none;stroke-width:0.0352778" />
    <path
       id="path353"
       d="m 189.52747,391.41989 c -0.55845,0 -1.11407,-0.0427 -1.6637,-0.15805 -0.0307,-0.006 -0.06,-0.0134 -0.0878,-0.0212 -0.10619,-0.03 -0.1905,-0.0713 -0.26494,-0.11994 0.55104,0.11007 1.1176,0.16334 1.68699,0.16334 0.9024,0 1.81081,-0.13441 2.66982,-0.39088 0.88441,-0.26529 1.86761,-0.60748 1.95439,-1.56034 0.0843,-0.95285 -0.18168,-1.88595 -0.52,-2.79223 0.0836,-0.001 0.16757,-0.003 0.25153,-0.003 0.0857,0 0.1711,10e-4 0.25542,0.006 0.0339,0.002 0.0674,0.005 0.10124,0.007 v 0 c 0.25683,0.0201 0.48331,0.14429 0.55351,0.37677 0.18309,0.61947 0.0751,1.29081 0.1651,1.92652 0.0603,0.44591 0.25224,0.94403 0.25259,1.40828 0,0.145 -0.0183,0.28717 -0.0656,0.42299 -0.0568,0.16686 -0.19402,0.29527 -0.36971,0.35454 -0.0681,0.0229 -0.14217,0.0353 -0.21978,0.0356 -1.53529,0.006 -3.12702,0.34396 -4.699,0.34396"
       style="fill:#922e49;fill-opacity:1;fill-rule:nonzero;stroke:none;stroke-width:0.0352778" />
    <path
       id="path354"
       d="m 253.41553,251.56642 c -1.4291,0.74612 -2.77389,1.91205 -3.62797,3.20216 0.38665,-1.07421 0.68686,-2.17699 1.0086,-3.25331 0.26423,-0.8883 0.50517,-1.76918 0.64699,-2.679 0.0649,-0.39088 0.40675,-1.26718 0.0275,-1.60584 -1.13665,-1.01953 -3.18241,4.21393 -3.98251,6.42161 -0.20144,0.28328 -0.32738,0.93592 -0.68898,1.09573 -0.44414,0.19614 0.12065,-3.64808 0.22331,-4.94242 0.0734,-0.89711 0.41699,-2.62431 -0.83432,-3.03706 -1.16699,-0.38453 -1.56633,2.60032 -1.70074,5.04684 -0.14217,0.69179 0.0229,2.63772 -0.59549,3.18452 -0.28222,0.25153 -1.07703,-2.85961 -1.2259,-3.73345 -0.17992,-1.03469 0.0882,-3.65477 -1.65594,-3.83116 -2.3428,-0.23989 -0.0773,8.55239 -0.30374,8.7817 -0.23178,0.23741 -0.8128,-0.10337 -1.4672,-0.73731 -0.73696,-0.71332 -2.2225,-2.16535 -3.51508,-1.50848 -0.85549,0.43533 -0.30551,1.20403 0.15134,1.71627 0.31785,0.36159 0.69391,0.70202 1.09114,1.03469 0.86854,1.30705 1.99037,2.74073 3.45546,3.27766 0.48189,0.17604 1.01212,0.32914 1.56245,0.45473 -1.4672,2.70228 -2.6356,5.53509 -4.21075,8.20032 -1.63054,2.7619 -3.4664,5.49169 -4.9837,8.32097 -0.65052,-0.78669 -1.41675,-1.51941 -2.09267,-2.27153 -1.08268,-1.2058 -2.08739,-2.41935 -3.29389,-3.53025 v -0.055 c -0.0399,-0.1771 -0.30374,-0.21943 -0.43886,-0.10584 -0.13828,0.11854 -0.42968,0.21802 -0.59831,0.31292 -0.37429,0.21202 -0.70696,0.48507 -1.05727,0.72248 -0.59902,0.40252 -1.20474,0.78494 -1.81434,1.17299 -0.0825,0.054 -0.13864,0.11536 -0.17603,0.1771 l -0.0575,-0.0473 c -0.14746,-0.11818 -0.40111,0.0293 -0.28751,0.19227 2.31034,3.29565 5.95454,6.51263 9.46362,8.81662 1.04669,0.68615 2.17946,1.11936 2.72062,-0.22084 0.0377,-0.0917 0.0699,-0.18344 0.10583,-0.27587 2.27612,-2.95063 3.65372,-6.56167 5.30754,-9.76912 1.00507,-1.95087 2.1015,-3.86398 3.18947,-5.7778 1.0033,-1.7593 1.73143,-3.5948 2.58198,-5.39538 1.31269,0.0621 2.56752,-0.21484 3.41983,-1.25131 0.88441,-1.08055 1.3589,-2.0902 1.64817,-3.3782 0.36725,-0.30938 2.17241,-2.01048 2.64866,-2.56822 0.36477,-0.42898 1.15993,-1.13171 1.16699,-1.71661 0.0159,-1.03999 -1.06821,-0.82762 -1.81081,-0.44027"
       style="fill:#eabd92;fill-opacity:1;fill-rule:nonzero;stroke:none;stroke-width:0.0352778" />
    <path
       id="path355"
       d="m 179.0034,270.23613 c -0.14887,-0.145 -0.20849,-0.40358 -0.30021,-0.57891 -0.20849,-0.39935 -0.42404,-0.78246 -0.5969,-1.19627 -0.22472,-0.53975 -0.53022,-1.19804 -1.07174,-1.54305 -0.12735,-0.0818 -0.24412,-0.0339 -0.31115,0.055 l -0.0159,0.006 c -1.6129,1.50389 -3.07799,3.0674 -4.54131,4.68101 -0.54328,0.59619 -1.14018,1.18039 -1.73532,1.77341 -0.14746,-0.44591 -0.30021,-0.88971 -0.44944,-1.33385 -0.43321,-1.29681 -0.64558,-2.68323 -1.21179,-3.94088 -0.5969,-1.32539 -0.83961,-2.82893 -1.33032,-4.19559 -0.40993,-1.14159 -0.67945,-2.31916 -1.016,-3.48156 0.43709,-0.14006 0.86148,-0.32033 1.264,-0.53129 0.901,-0.47272 1.64853,-1.18216 2.4451,-1.77517 0.64911,-0.48119 1.81575,-1.21779 2.18264,-1.90959 0.53763,-1.01706 -0.0413,-1.54199 -1.22802,-1.30352 -0.93839,0.1905 -1.79599,0.82057 -2.59433,1.26542 -0.77117,0.42898 -1.29081,0.007 -0.17991,-2.50966 0.57573,-1.30599 1.68133,-3.30094 1.12007,-4.74557 -0.0462,-0.11571 -0.145,-0.24095 -0.29457,-0.26352 -1.17758,-0.18521 -1.78188,1.27211 -2.18264,2.00483 -0.70485,1.28799 -1.33421,3.05612 -1.47602,4.55189 -0.0377,-0.066 -0.072,-0.13617 -0.10442,-0.20637 0.0303,-1.37725 -0.09,-2.74638 -0.32562,-4.12256 -0.14887,-0.87419 -0.38276,-2.49202 -1.63936,-2.57846 -0.78246,-0.0529 -0.94403,1.64712 -1.00541,2.05 -0.25683,1.7025 0.15698,3.42759 0.47131,5.09481 -0.024,0.005 -0.0497,0.005 -0.0755,0.005 -0.0109,-3.5e-4 -0.0219,-3.5e-4 -0.0324,0 -0.41699,-0.90452 -0.88442,-1.7974 -1.35749,-2.63772 -0.4946,-0.88088 -1.47779,-2.6737 -2.81023,-2.70757 -0.15275,-0.005 -0.29457,0.0716 -0.37359,0.18521 -0.46743,0.67487 0.0339,1.72226 0.26564,2.40453 0.43356,1.28905 1.15993,2.62855 2.01754,3.73627 l 0.0109,0.009 -0.002,0.0716 c -0.96026,-0.68227 -2.01401,-1.31339 -3.01519,-1.83268 -0.57186,-0.29422 -2.22215,-1.21356 -2.85151,-0.6163 -0.097,0.0938 -0.17286,0.24906 -0.11677,0.37782 0.73872,1.6323 2.50437,2.62396 4.15679,3.50591 0.42403,0.54222 0.52846,1.16064 0.82126,1.80163 0.20144,0.43498 0.6851,0.80434 1.17052,0.97685 0.47307,0.16827 1.00153,0.24447 1.54975,0.2547 0.0921,0.7814 0.32562,1.56951 0.49636,2.3047 0.41169,1.78294 1.05163,3.46639 1.66829,5.19677 0.56127,1.58856 1.08091,3.18876 1.64888,4.7759 0.42263,1.19239 1.65065,4.79919 1.92017,5.29097 0.71014,1.28799 2.35726,0.24518 3.12667,-0.29669 1.56422,-1.09749 2.95557,-2.40594 4.324,-3.683 1.20614,-1.12818 2.50437,-2.3241 3.36726,-3.695 0.30762,-0.0826 0.50906,-0.41416 0.21766,-0.69461"
       style="fill:#eabd92;fill-opacity:1;fill-rule:nonzero;stroke:none;stroke-width:0.0352778" />
    <path
       id="path356"
       d="m 225.42226,276.50287 c -0.42016,-0.44591 -0.82515,-0.89782 -1.20862,-1.35396 0.28469,-0.27023 0.5708,-0.53905 0.85972,-0.80539 0.0469,-0.0423 0.10231,-0.0864 0.15099,-0.12947 -0.002,3.5e-4 -0.005,3.5e-4 -0.008,7e-4 0.81668,-0.71472 2.06551,-1.52894 2.80917,-2.44263 0.42968,0.43039 0.83749,0.87312 1.2386,1.32009 -1.27494,1.14159 -2.56046,2.27507 -3.8421,3.41066"
       style="fill:#e09d6c;fill-opacity:1;fill-rule:nonzero;stroke:none;stroke-width:0.0352778" />
    <path
       id="path357"
       d="m 176.92872,273.18041 c 0,-3.5e-4 0,-3.5e-4 -3.5e-4,-3.5e-4 0.049,-0.0494 0.0981,-0.0991 0.1464,-0.14888 -0.0483,0.0498 -0.097,0.0995 -0.14605,0.14923"
       style="fill:#f0cfaf;fill-opacity:1;fill-rule:nonzero;stroke:none;stroke-width:0.0352778" />
    <path
       id="path358"
       d="m 176.92837,273.18006 c -0.8181,-1.32962 -1.75825,-2.6162 -2.46804,-3.98251 0.38806,-0.40182 0.78105,-0.80046 1.18181,-1.19557 0.27023,0.45826 0.5722,0.90629 0.87418,1.35396 -3.5e-4,0 -7e-4,0 -0.001,0 0.0713,0.10443 0.14252,0.2092 0.21272,0.31362 0.13547,0.20215 0.26917,0.40464 0.399,0.60819 0.0928,0.14641 0.18344,0.29316 0.27128,0.44098 0.0949,0.1598 0.32667,0.66463 0.63571,1.24671 -0.29986,0.36654 -0.62371,0.72073 -0.95885,1.06574 -0.0483,0.0498 -0.0974,0.0995 -0.1464,0.14888"
       style="fill:#e09d6c;fill-opacity:1;fill-rule:nonzero;stroke:none;stroke-width:0.0352778" />
    <path
       id="path359"
       d="m 226.62841,268.10923 c -1.21179,-1.37619 -2.41053,-2.73932 -3.71758,-4.05095 -2.48179,-2.48991 -5.24827,-4.93783 -8.61977,-6.46606 -1.76001,-0.79728 -3.94476,-1.11937 -5.86458,-1.47603 -1.52999,-0.28539 -3.16089,-0.37676 -4.7378,-0.31291 -2.5654,-0.26106 -5.15232,-0.44485 -7.74171,-0.46108 -2.55341,-0.0152 -4.73393,0.6103 -7.04603,1.50107 -2.59962,1.00048 -5.01086,2.528 -7.24359,4.058 -1.16875,0.7994 -2.31069,1.61537 -3.43429,2.4631 -0.97261,0.73307 -2.52236,1.56421 -3.18382,2.5467 -0.42439,0.63077 0.0843,1.14512 0.38629,1.70744 0.57185,1.06151 1.35396,2.05458 1.97238,3.10022 0.2914,0.49 1.87184,4.23051 3.01131,3.47697 0.83291,-0.54927 1.4351,-1.33032 2.14313,-1.99284 0.94403,-0.88088 1.84644,-1.80058 2.7566,-2.71039 0.1651,-0.16545 0.34008,-0.32279 0.514,-0.48366 -0.24095,0.53587 -0.46743,1.07562 -0.66322,1.61643 -1.35749,3.73803 -2.09479,7.62317 -2.794,11.48786 -1.33597,7.36247 -2.59292,14.67555 -2.22603,22.15056 0.0759,1.52541 0.39017,3.04447 0.44415,4.56389 0.0342,0.95391 1.25695,1.38606 2.08527,1.69615 3.81176,1.43122 8.09625,1.99919 12.19729,2.17946 6.235,0.272 19.53472,-0.67345 22.63211,-3.1249 0.59513,-0.47272 0.58631,-1.54729 0.65087,-2.18546 0.13829,-1.38783 0.0776,-2.79047 0.0776,-4.18289 -0.009,-5.45571 0.30551,-10.90789 0.27305,-16.36289 -0.018,-3.02295 -0.079,-6.02192 -0.23742,-9.0424 -0.054,-0.99166 -0.17956,-1.96991 -0.33443,-2.94076 0.0561,0.0459 0.11148,0.0907 0.16722,0.13582 0.92992,0.7553 3.34433,2.78765 3.61174,2.53859 1.12959,-1.05339 2.22602,-2.14418 3.3662,-3.19475 1.05551,-0.97473 3.05118,-2.14066 3.48615,-3.49815 0.26988,-0.84314 -1.40934,-2.14206 -1.9311,-2.73614"
       style="fill:#79b5cf;fill-opacity:1;fill-rule:nonzero;stroke:none;stroke-width:0.0352778" />
    <path
       id="path360"
       d="m 218.26263,277.80462 c -0.008,-0.15099 -0.0183,-0.30162 -0.0296,-0.45191 0.0116,0.15029 0.0215,0.30092 0.0296,0.45191"
       style="fill:#d0e8ee;fill-opacity:1;fill-rule:nonzero;stroke:none;stroke-width:0.0352778" />
    <path
       id="path361"
       d="m 214.94017,310.75266 c 0.4191,-0.58844 0.7553,-1.23861 0.97649,-1.98191 0.95074,-3.22263 1.73108,-29.7367 1.88948,-31.68368 0.054,-0.68051 0.10795,-1.36631 0.14393,-2.05211 0.1203,0.76624 0.22331,1.53741 0.28293,2.31775 0.0113,0.15029 0.0212,0.30092 0.0296,0.45191 v 0 c 0.1584,3.02048 0.21943,6.01945 0.23742,9.0424 0.001,0.27728 0.002,0.55421 0.002,0.83115 -7e-4,5.09234 -0.27446,10.18257 -0.27552,15.27598 0,0.085 3.5e-4,0.17039 3.5e-4,0.25576 0,0.65264 0.0134,1.3074 0.0134,1.96215 -3.5e-4,0.7419 -0.0176,1.48343 -0.091,2.22074 -0.0646,0.63817 -0.0557,1.71274 -0.65087,2.18546 v 0 c -0.55704,0.44027 -1.44322,0.8315 -2.55835,1.1744"
       style="fill:#6aa4c5;fill-opacity:1;fill-rule:nonzero;stroke:none;stroke-width:0.0352778" />
    <path
       id="path362"
       d="m 183.69676,310.8853 c -0.34572,-0.11359 -0.68897,-0.23389 -1.02764,-0.3616 -0.82832,-0.31009 -2.05105,-0.74224 -2.08527,-1.69615 -0.054,-1.51942 -0.3683,-3.03848 -0.44415,-4.56389 -0.0437,-0.89076 -0.0642,-1.77906 -0.0646,-2.66524 3.6e-4,0.88618 0.0208,1.77448 0.0646,2.66524 0.0759,1.52541 0.39017,3.04447 0.44415,4.56389 0.0342,0.95391 1.25695,1.38606 2.08527,1.69615 0.33902,0.12736 0.68157,0.24765 1.02764,0.3616 m 1.46297,-40.26006 c 0.024,-0.0667 0.0483,-0.133 0.0734,-0.19932 -0.0251,0.0663 -0.0494,0.133 -0.0734,0.19932"
       style="fill:#d0e8ee;fill-opacity:1;fill-rule:nonzero;stroke:none;stroke-width:0.0352778" />
    <path
       id="path363"
       d="m 183.94406,310.96503 c -0.0825,-0.0261 -0.1651,-0.0529 -0.2473,-0.0797 -0.34607,-0.11395 -0.68862,-0.23424 -1.02764,-0.3616 -0.82832,-0.31009 -2.05105,-0.74224 -2.08527,-1.69615 -0.054,-1.51942 -0.3683,-3.03848 -0.44415,-4.56389 -0.0437,-0.89076 -0.0642,-1.77906 -0.0646,-2.66524 -0.002,-6.5532 1.11372,-13.00021 2.29059,-19.48532 0.69921,-3.86469 1.43651,-7.74983 2.794,-11.48786 v 0 c 0.024,-0.0663 0.0483,-0.133 0.0734,-0.19932 0.14323,-0.37959 0.30198,-0.75741 0.46708,-1.13418 -0.004,0.0208 -0.009,0.043 -0.0141,0.066 0.0205,-0.0325 0.0406,-0.0649 0.0607,-0.097 l 0.0205,0.002 c -2.22779,5.50862 -2.74884,11.3799 -3.12102,17.18098 -0.19262,2.97004 -0.40287,5.94219 -0.51082,8.91681 -0.0504,1.39947 -0.079,2.82364 0.007,4.23969 -0.0504,0.93027 -0.0698,1.86337 -0.0377,2.81234 0.0706,2.17735 0.007,4.45523 0.73025,6.55744 0.24801,0.72354 0.63783,1.38147 1.10914,1.99531"
       style="fill:#6aa4c5;fill-opacity:1;fill-rule:nonzero;stroke:none;stroke-width:0.0352778" />
    <path
       id="path364"
       d="m 226.62841,268.10923 c -1.21179,-1.37619 -2.41053,-2.73932 -3.71758,-4.05095 -2.48179,-2.48991 -5.24827,-4.93783 -8.61977,-6.46606 -1.76001,-0.79728 -3.94476,-1.11937 -5.86458,-1.47603 -1.52999,-0.28539 -3.16089,-0.37676 -4.7378,-0.31291 -2.5654,-0.26106 -5.15232,-0.44485 -7.74171,-0.46108 -2.55341,-0.0152 -4.73393,0.6103 -7.04603,1.50107 -2.59962,1.00048 -5.01086,2.528 -7.24359,4.058 -1.16875,0.7994 -2.31069,1.61537 -3.43429,2.4631 -0.97261,0.73307 -2.52236,1.56421 -3.18382,2.5467 -0.42439,0.63077 0.0843,1.14512 0.38629,1.70744 0.57185,1.06151 1.35396,2.05458 1.97238,3.10022 0.2914,0.49 1.87184,4.23051 3.01131,3.47697 0.83291,-0.54927 1.4351,-1.33032 2.14313,-1.99284 0.94403,-0.88088 1.84644,-1.80058 2.7566,-2.71039 0.0882,-0.0889 0.18133,-0.17357 0.27305,-0.25894 0.35949,-0.29175 0.35949,-0.28293 0.37924,-0.28293 1.3395,0 2.48497,0.266 3.75955,0.55281 1.45486,0.32702 2.95593,0.50306 4.42454,0.7747 3.44523,0.6357 6.8446,1.45908 10.29159,2.09938 3.29001,0.60995 6.60541,1.0929 9.90283,1.66652 1.41146,0.24553 3.61385,0.98637 3.58845,0.81985 0.0561,0.0459 0.11148,0.0907 0.16722,0.13582 0.92992,0.7553 3.34433,2.78765 3.61174,2.53859 1.12959,-1.05339 2.22602,-2.14418 3.3662,-3.19475 1.05551,-0.97473 3.05118,-2.14066 3.48615,-3.49815 0.26988,-0.84314 -1.40934,-2.14206 -1.9311,-2.73614"
       style="fill:#519dc9;fill-opacity:1;fill-rule:nonzero;stroke:none;stroke-width:0.0352778" />
    <path
       id="path365"
       d="m 217.93032,275.02297 c 0.0483,-0.17181 0.0931,-0.34502 0.13652,-0.52035 -0.054,-0.79693 -0.25188,-1.60196 -0.35066,-2.37808 -0.10442,-0.83961 -0.33796,-1.75648 -0.7299,-2.52941 -0.0286,-0.055 -0.12029,-0.0145 -0.10795,0.0413 0.43498,1.71874 0.42087,3.50944 0.71579,5.24475 0.12594,0.0332 0.23354,0.0833 0.3362,0.14182"
       style="fill:#4287be;fill-opacity:1;fill-rule:nonzero;stroke:none;stroke-width:0.0352778" />
    <path
       id="path366"
       d="m 188.28605,264.82592 c -0.88442,1.07739 -1.79952,2.29694 -2.47756,3.55812 -0.13864,0.49989 -0.0109,0.47308 -0.12242,0.97367 1.03012,-1.645 1.6256,-2.84868 2.69734,-4.48099 0.0356,-0.0571 -0.0543,-0.10089 -0.0974,-0.0508"
       style="fill:#4287be;fill-opacity:1;fill-rule:nonzero;stroke:none;stroke-width:0.0352778" />
    <path
       id="path367"
       d="m 185.3594,269.44273 v 0 c 0.073,-0.0713 0.14817,-0.14005 0.2226,-0.2092 0.004,-0.003 0.008,-0.006 0.012,-0.01 -3.5e-4,7e-4 -7.1e-4,0.002 -0.001,0.002 l -0.0109,0.007 c -0.0744,0.0692 -0.14957,0.13794 -0.2226,0.2092"
       style="fill:#a9d8e4;fill-opacity:1;fill-rule:nonzero;stroke:none;stroke-width:0.0352778" />
    <path
       id="path368"
       d="m 178.03362,271.96544 c -0.30904,-0.58208 -0.54081,-1.08691 -0.63571,-1.24671 -0.0878,-0.14782 -0.1785,-0.29457 -0.27128,-0.44098 0.0931,0.14641 0.18379,0.29316 0.27128,0.44098 0.0949,0.1598 0.32667,0.66463 0.63571,1.24671 v 0"
       style="fill:#908764;fill-opacity:1;fill-rule:nonzero;stroke:none;stroke-width:0.0352778" />
    <path
       id="path369"
       d="m 176.72763,269.66956 c -0.0702,-0.10442 -0.14146,-0.20919 -0.21272,-0.31362 7.1e-4,0 0.001,0 0.001,0 0.0706,0.10478 0.14111,0.2092 0.21131,0.31362"
       style="fill:#908764;fill-opacity:1;fill-rule:nonzero;stroke:none;stroke-width:0.0352778" />
    <path
       id="path370"
       d="m 180.08855,274.29589 c -0.70273,0 -1.50213,-1.2887 -2.05493,-2.33045 -0.30904,-0.58208 -0.54081,-1.08691 -0.63571,-1.24671 -0.0875,-0.14782 -0.17815,-0.29457 -0.27128,-0.44098 -0.12947,-0.20355 -0.26318,-0.40604 -0.399,-0.60819 -0.0702,-0.10442 -0.14075,-0.20884 -0.21131,-0.31362 0.1584,0.008 0.31785,0.0127 0.47837,0.0127 0.57996,0 1.17016,-0.0543 1.74448,-0.15204 1.97944,-0.33691 3.74298,-1.36455 5.42573,-2.28247 1.24671,-0.67769 2.55869,-1.26048 3.84069,-1.88772 -0.4692,0.5655 -0.87877,1.16417 -1.24319,1.78682 -0.34643,0.50483 -0.67098,1.02447 -0.95391,1.55081 -0.072,0.25929 -0.0723,0.37712 -0.0713,0.49989 -0.0487,0.11289 -0.0963,0.22648 -0.14323,0.34008 -0.004,0.003 -0.008,0.006 -0.012,0.01 -0.0744,0.0692 -0.14957,0.13794 -0.2226,0.2092 -0.0169,0.0162 -0.0339,0.0332 -0.0504,0.0497 -0.91016,0.90981 -1.81257,1.82951 -2.7566,2.71039 -0.70803,0.66252 -1.31022,1.44357 -2.14313,1.99284 -0.10371,0.0688 -0.21096,0.10019 -0.32067,0.10019"
       style="fill:#4385bb;fill-opacity:1;fill-rule:nonzero;stroke:none;stroke-width:0.0352778" />
    <path
       id="path371"
       d="m 185.73723,268.88393 c -0.001,-0.12277 -7.1e-4,-0.2406 0.0713,-0.49989 0.28293,-0.52634 0.60748,-1.04598 0.95391,-1.55081 -0.38665,0.66075 -0.72249,1.34796 -1.02517,2.0507"
       style="fill:#3774b2;fill-opacity:1;fill-rule:nonzero;stroke:none;stroke-width:0.0352778" />
    <path
       id="path372"
       d="m 224.21364,275.14891 v 0 c 0.28469,-0.27023 0.5708,-0.53905 0.85972,-0.80539 0.0459,-0.0427 0.0938,-0.0854 0.14323,-0.12877 0.003,-3.5e-4 0.005,-3.5e-4 0.008,-7e-4 -0.0487,0.043 -0.10407,0.0871 -0.15099,0.12947 -0.28892,0.26634 -0.57503,0.53516 -0.85972,0.80539"
       style="fill:#908764;fill-opacity:1;fill-rule:nonzero;stroke:none;stroke-width:0.0352778" />
    <path
       id="path373"
       d="m 218.05979,274.97111 c -0.0314,-0.0254 -0.0624,-0.0508 -0.0938,-0.0765 v 0 c 0.0314,0.0257 0.0624,0.0512 0.0938,0.0765"
       style="fill:#a9d8e4;fill-opacity:1;fill-rule:nonzero;stroke:none;stroke-width:0.0352778" />
    <path
       id="path374"
       d="m 221.64119,277.55909 c -0.47237,0 -2.66912,-1.8475 -3.54577,-2.55941 v 0 c -0.012,-0.01 -0.0236,-0.019 -0.0356,-0.0286 -0.0314,-0.0254 -0.0624,-0.0508 -0.0938,-0.0765 0.0349,-0.12983 0.0684,-0.26035 0.10089,-0.39194 -0.054,-0.79693 -0.25188,-1.60196 -0.35066,-2.37808 -0.10442,-0.83961 -0.33796,-1.75648 -0.7299,-2.52941 -0.002,-0.004 -0.005,-0.008 -0.008,-0.0113 -0.024,-0.0914 -0.0487,-0.18239 -0.0748,-0.27305 1.76354,2.20098 4.03966,4.37903 7.05838,4.87257 0.24589,0.0399 0.49107,0.0575 0.73378,0.0575 0.17533,0 0.34925,-0.009 0.5207,-0.0261 -0.0494,0.0434 -0.0974,0.0861 -0.14323,0.12877 -0.28892,0.26634 -0.57503,0.53516 -0.85972,0.80539 -0.001,10e-4 -0.002,0.002 -0.004,0.004 -0.83714,0.79446 -1.66052,1.6002 -2.5026,2.38548 -0.0152,0.0141 -0.0374,0.0208 -0.066,0.0208"
       style="fill:#4385bb;fill-opacity:1;fill-rule:nonzero;stroke:none;stroke-width:0.0352778" />
    <path
       id="path375"
       d="m 217.96595,274.89456 c -0.009,-0.007 -0.018,-0.0145 -0.0268,-0.0219 -0.0575,-1.1758 -0.30551,-2.2987 -0.60219,-3.42829 -0.0924,-0.62583 -0.19968,-1.24954 -0.35843,-1.86055 0.003,0.003 0.006,0.007 0.008,0.0113 0.39194,0.77293 0.62548,1.6898 0.7299,2.52941 0.0988,0.77612 0.29669,1.58115 0.35066,2.37808 -0.0325,0.13159 -0.066,0.26211 -0.10089,0.39194 v 0"
       style="fill:#3774b2;fill-opacity:1;fill-rule:nonzero;stroke:none;stroke-width:0.0352778" />
    <path
       id="path376"
       d="m 200.14432,263.8445 c -2.66206,-3.6e-4 -4.77203,-2.02848 -5.25286,-4.29437 -0.28928,-1.35819 -0.1076,-2.78412 0.0688,-4.18041 0.30198,-0.0176 0.60713,-0.0279 0.91969,-0.0279 0.0222,0 0.0448,0 0.067,3.5e-4 2.58939,0.0162 5.17631,0.20002 7.74171,0.46108 0.29915,-0.012 0.60007,-0.018 0.90205,-0.018 0.80045,0 1.6069,0.0423 2.39924,0.1277 -0.47836,3.38808 -1.65064,6.97477 -5.74992,7.81827 -0.37359,0.0769 -0.73942,0.11324 -1.09573,0.11324"
       style="fill:#4385bb;fill-opacity:1;fill-rule:nonzero;stroke:none;stroke-width:0.0352778" />
    <path
       id="path377"
       d="m 203.67809,251.79537 c -0.0935,-0.30021 -0.55209,-0.30974 -0.70485,-0.0871 -1.00859,0.14851 -1.99919,0.35524 -2.9591,0.65228 -0.65651,0.20108 -1.35748,0.3168 -1.99601,0.55527 -0.0663,-0.0268 -0.15452,-0.0173 -0.21237,0.0522 l -0.0356,0.0575 c -0.0899,0.0402 -0.1852,0.0716 -0.27128,0.11959 -0.18733,0.10407 -0.12947,0.33725 0.043,0.39264 -0.11712,0.4692 -0.0811,1.00859 -0.13829,1.44921 -0.23742,1.79423 -0.72849,4.08764 0.39546,5.71571 1.64889,2.38548 5.17808,1.44815 6.15033,-0.73907 1.11125,-2.50367 0.53411,-5.59788 -0.27129,-8.16822"
       style="fill:#eabd92;fill-opacity:1;fill-rule:nonzero;stroke:none;stroke-width:0.0352778" />
    <path
       id="path378"
       d="m 228.07585,228.94243 c -1.97978,-1.16417 -3.36585,0.508 -4.3942,1.84855 -0.043,0.0565 -0.0487,0.11289 -0.0321,0.16581 -1.31268,1.47461 -1.52858,3.66183 -1.26435,5.42572 0.27163,1.77447 1.44215,2.72344 3.43252,2.1978 2.40207,-0.63852 3.10657,-3.10797 3.49533,-5.00238 0.29845,-1.45698 0.32526,-3.71828 -1.2372,-4.6355"
       style="fill:#eabd92;fill-opacity:1;fill-rule:nonzero;stroke:none;stroke-width:0.0352778" />
    <path
       id="path379"
       d="m 227.37665,232.81945 c -0.51611,-0.71614 -1.59315,-0.37747 -2.21721,0.0318 -0.34149,0.22578 -0.63077,0.51506 -0.87912,0.81492 -0.11324,0.13758 -0.25189,0.27517 -0.3235,0.43744 -0.0699,0.15875 -0.0452,0.29987 -0.0935,0.45509 -0.0268,0.0882 0.0988,0.15522 0.17639,0.0917 0.11113,-0.0953 0.10584,-0.13406 0.18662,-0.27517 0.14746,-0.25752 0.41028,-0.4833 0.63994,-0.68791 0.57574,-0.51506 1.33774,-0.92075 2.1269,-0.53623 0.23213,0.11289 0.53799,-0.11641 0.38347,-0.33161"
       style="fill:#b88459;fill-opacity:1;fill-rule:nonzero;stroke:none;stroke-width:0.0352778" />
    <path
       id="path380"
       d="m 180.27623,232.26912 c -0.0536,-1.24531 0.12417,-3.03742 -0.88618,-4.05342 -0.18521,-0.18344 -0.4385,-0.35277 -0.7299,-0.49741 -1.22625,-1.07245 -3.14819,-1.28059 -4.02943,0.47625 -1.05163,2.10608 0.13159,6.05719 2.20451,7.4048 2.81199,1.82739 3.52037,-1.48166 3.441,-3.33022"
       style="fill:#eabd92;fill-opacity:1;fill-rule:nonzero;stroke:none;stroke-width:0.0352778" />
    <path
       id="path381"
       d="m 178.45166,230.27945 c -0.56833,-0.4833 -1.67217,-0.635 -2.24226,-0.0847 -0.15275,0.14464 -0.0702,0.46919 0.2032,0.44097 0.6276,-0.0635 1.12889,-0.24695 1.67958,0.15875 0.51752,0.38453 1.0354,1.00542 1.13242,1.59808 0.018,0.127 0.2607,0.13053 0.28433,0.004 0.14006,-0.77258 -0.44414,-1.59808 -1.05727,-2.11667"
       style="fill:#b88459;fill-opacity:1;fill-rule:nonzero;stroke:none;stroke-width:0.0352778" />
    <path
       id="path382"
       d="m 241.82431,212.33365 c -0.63253,-2.2225 -1.60514,-4.13809 -2.78306,-6.18773 -1.44886,-2.52589 -3.0473,-5.38691 -5.17984,-7.52122 -1.97591,-1.97908 -3.99274,-3.81705 -6.23676,-5.55272 -1.06645,-0.82197 -2.5153,-1.41464 -3.78813,-1.94028 -0.50165,-0.20814 -1.02693,-0.43392 -1.56633,-0.62089 0.90099,-0.46214 1.8161,-0.90311 2.79047,-1.27 0.38136,-0.14464 -6.852,-1.90147 -9.66364,-0.77611 -0.30233,-0.33514 -0.61348,-0.65617 -0.91722,-0.96661 -1.33174,-1.36525 -4.9657,-3.0092 -4.89197,-2.80106 0.39723,1.13948 0.89182,2.25425 1.41358,3.3655 -1.74061,-0.26105 -3.38773,-0.47272 -5.20524,-0.46566 -2.29799,0.007 -4.71452,0.29633 -6.97265,0.66322 -2.63737,0.43039 -5.2444,0.94897 -7.77558,1.73567 -2.35197,0.73025 -4.34763,1.78505 -6.3955,3.03389 -3.61562,2.20838 -6.92186,4.96358 -9.63472,8.01158 -1.47602,1.65453 -2.88572,3.34786 -4.05095,5.18936 -0.8703,1.37583 -2.01577,2.80811 -2.45251,4.36033 -0.0808,0.28223 2.21686,0.12348 2.98274,-0.11641 -0.43639,0.67733 -0.96167,1.36878 -1.19027,2.08491 -0.17816,0.55387 2.83351,3.94759 3.57117,5.06589 1.58926,2.40595 3.15524,4.83659 4.41536,7.39775 1.3522,2.74109 1.95792,5.69737 2.82822,8.5725 0.0734,0.23989 0.33973,0.26106 0.50871,0.14464 0.0109,0.0882 0.0684,0.16934 0.17815,0.19403 0.87701,0.21167 1.81575,0.18697 2.7432,0.15875 0.40323,-0.0106 0.80433,-0.0212 1.19768,-0.0141 1.80693,0.0388 3.61562,0.0776 5.42431,0.11642 3.82588,0.0847 7.65563,0.0564 11.48327,0.067 3.43041,0.0106 6.86294,0.10584 10.29124,0.10937 1.66299,0.004 3.32069,0.0952 4.98581,0.1023 1.18815,0.007 2.6483,0.21872 3.75743,-0.23636 0.20355,-0.0811 0.32209,-0.34219 0.24836,-0.52917 -0.0755,-0.19402 -0.15664,-0.27516 -0.34184,-0.40922 l 1.35043,1.41111 c 2.43981,-4.04636 3.56376,-9.80016 7.03157,-13.20447 1.84114,-1.80975 3.83152,-3.52425 5.90444,-5.12233 1.08938,-0.84314 2.24367,-1.59456 3.43041,-2.32128 0.73342,-0.44803 2.56893,-1.52047 2.50966,-1.72861"
       style="fill:#f06e25;fill-opacity:1;fill-rule:nonzero;stroke:none;stroke-width:0.0352778" />
    <path
       id="path383"
       d="m 225.98282,228.0887 c 0.30445,-0.71261 0.61913,-1.42169 0.95674,-2.10961 -0.0268,0.10584 -0.0526,0.2152 -0.0773,0.32456 -0.29845,0.59619 -0.58914,1.19944 -0.87948,1.78505 m -47.70402,-3.09739 c -0.26388,-0.53269 -0.54822,-1.05833 -0.83573,-1.58397 -0.001,-0.007 -0.002,-0.0141 -0.003,-0.0212 0.29139,0.53269 0.57185,1.06538 0.83855,1.60513"
       style="fill:#eab891;fill-opacity:1;fill-rule:nonzero;stroke:none;stroke-width:0.0352778" />
    <path
       id="path384"
       d="m 219.79157,234.53043 c -0.6357,0 -1.27917,-0.0529 -1.85772,-0.0564 -1.66512,-0.007 -3.32282,-0.0988 -4.98581,-0.1023 -3.4283,-0.004 -6.86083,-0.0988 -10.29124,-0.10937 -3.82764,-0.0106 -7.65739,0.0176 -11.48327,-0.067 -1.80869,-0.0388 -3.61738,-0.0776 -5.42431,-0.11642 -0.0942,0 -0.18873,-0.004 -0.28363,-0.004 -0.30198,0 -0.60713,0.0106 -0.91405,0.0176 -0.30656,0.0106 -0.61419,0.0176 -0.92075,0.0176 -0.62054,0 -1.23543,-0.0353 -1.82245,-0.17639 -0.10971,-0.0247 -0.16722,-0.10583 -0.17815,-0.19403 -0.0646,0.0459 -0.14288,0.0706 -0.21978,0.0706 -0.12418,0 -0.24342,-0.0635 -0.28893,-0.2152 -0.32032,-1.05833 -0.60501,-2.12725 -0.90417,-3.19263 -0.17215,-0.61384 -0.34925,-1.22767 -0.54081,-1.83445 -0.37958,-1.2065 -0.81562,-2.39536 -1.38324,-3.54542 v 0 c -0.005,-0.0106 -0.01,-0.0212 -0.0145,-0.0317 -0.2667,-0.53975 -0.54716,-1.07244 -0.83855,-1.60513 -0.40358,-2.96334 -1.57974,-5.82789 -3.16336,-8.49489 2.57104,-1.46403 4.93677,-3.24203 7.26334,-5.03767 4.58294,-3.53483 9.47349,-6.57225 14.67838,-9.2957 -1.00083,1.11831 -11.26914,13.43731 -11.06064,13.43731 3.5e-4,0 0.001,0 0.002,0 2.91253,-0.69144 19.39749,-10.51631 21.83553,-11.39472 -0.47448,1.34055 -12.12885,11.1513 -11.88755,11.176 0.0268,0.004 0.0565,0.004 0.0896,0.004 2.02635,0 15.32114,-4.82953 17.27094,-5.55978 2.18052,-0.81845 6.12881,-2.01436 8.11001,-3.16795 -0.54293,1.53459 -5.57001,8.21973 -5.47159,8.21973 0.001,0 0.002,-0.004 0.005,-0.004 0.66499,-0.43039 7.0351,-6.14539 7.60518,-6.51228 0.78917,1.83444 1.8468,7.33778 2.01225,7.33425 0.001,0 0.002,0 0.003,0 0.51224,-0.24342 1.93076,-2.39183 2.25637,-2.80458 0.0286,0.0564 0.0501,0.11289 0.079,0.1658 0.91687,1.85561 2.10714,3.5807 3.22333,5.34459 -0.2353,0.43391 -0.46178,0.87136 -0.67768,1.31586 -0.80716,1.67216 -1.3716,3.42547 -1.89124,5.1823 -0.26494,0.89253 -0.55845,1.78153 -0.78211,2.68464 -0.33761,0.68792 -0.65229,1.397 -0.95674,2.10961 -1.28058,2.58939 -2.54846,4.86834 -4.40972,5.19642 l 0.0247,0.0141 c 0.1852,0.13406 0.26634,0.2152 0.34184,0.40922 0.0152,0.0388 0.0222,0.0776 0.0222,0.11995 -3.5e-4,0.1658 -0.1083,0.34219 -0.27058,0.40922 -0.56903,0.23283 -1.23013,0.29281 -1.89971,0.29281"
       style="fill:#df5620;fill-opacity:1;fill-rule:nonzero;stroke:none;stroke-width:0.0352778" />
    <path
       id="path385"
       d="m 198.0721,255.12383 c 3.11397,0.34819 6.27486,0.0332 9.23043,-1.27106 5.95313,-2.63207 10.73009,-7.43726 13.87475,-12.55254 0.90594,-1.47108 1.74414,-3.01625 2.42359,-4.57905 2.28141,-5.23875 2.65359,-11.11603 3.21451,-16.65817 0.15134,-1.46403 0.28963,-2.99861 0.56797,-4.445 0.013,-0.0635 0.013,-0.12347 0.0201,-0.18697 -0.004,-0.14817 -0.004,-0.29634 -0.006,-0.4445 l -0.001,-0.0247 c -0.33302,-0.72319 -0.6671,-1.44286 -0.96908,-2.16958 l -0.0399,0.007 c -0.37747,0.22931 -0.63641,0.56092 -0.96732,0.83609 -0.71543,0.59266 -0.68686,0.75141 -1.01388,-0.15875 -0.45861,-1.28411 -1.82492,-4.40973 -1.9685,-4.41678 -0.12594,-0.007 -6.05014,3.71475 -7.42738,4.23686 0.45473,-0.43744 2.97391,-4.28272 2.76719,-4.21217 -4.01144,1.36173 -8.02429,2.60703 -12.29643,3.22086 -3.2953,0.4692 -6.64104,0.71262 -9.96033,1.06892 l 0.0307,-0.0212 c 2.73296,-2.08844 7.44325,-7.70466 7.03685,-7.52475 -3.31858,1.45698 -6.6936,2.74109 -9.96032,4.31448 -2.52413,1.21708 -5.13645,2.34244 -7.41998,3.89114 0.75318,-1.83798 3.16265,-5.76792 2.83704,-5.59153 -3.81318,2.032 -10.11696,8.37494 -10.12014,8.39964 -0.16721,2.95627 0.43286,6.00075 0.47272,8.97114 0.0395,2.9845 0.0194,5.97958 0.4371,8.94644 0.27269,1.90853 0.72778,3.80295 1.46332,5.61975 2.07857,5.12939 6.47065,9.63295 11.63038,12.55078 1.82668,1.03117 3.97192,1.95086 6.14362,2.19357"
       style="fill:#f1cead;fill-opacity:1;fill-rule:nonzero;stroke:none;stroke-width:0.0352778" />
    <path
       id="path386"
       d="m 206.81535,220.68037 c 0,0 1.10596,-2.59997 3.28471,-2.69875 2.17946,-0.10231 3.31717,1.12536 3.81177,1.67569 0.49247,0.55386 -3.7525,-2.48708 -7.09648,1.02306"
       style="fill:#c95f1d;fill-opacity:1;fill-rule:nonzero;stroke:none;stroke-width:0.0352778" />
    <path
       id="path387"
       d="m 194.21201,221.37887 c 0,0 -1.10949,-2.59997 -3.28824,-2.69875 -2.17911,-0.10231 -3.31753,1.12536 -3.81177,1.67569 -0.49248,0.55034 3.7525,-2.49061 7.10001,1.02306"
       style="fill:#c95f1d;fill-opacity:1;fill-rule:nonzero;stroke:none;stroke-width:0.0352778" />
    <path
       id="path388"
       d="m 209.54479,227.91937 c 0.0377,1.45344 -0.51223,2.64231 -1.23331,2.65994 -0.71932,0.0141 -1.33456,-1.15005 -1.37372,-2.60702 -0.0377,-1.44992 0.51612,-2.64231 1.23331,-2.65642 0.72108,-0.0176 1.33597,1.15006 1.37372,2.6035"
       style="fill:#592620;fill-opacity:1;fill-rule:nonzero;stroke:none;stroke-width:0.0352778" />
    <path
       id="path389"
       d="m 208.02573,226.84693 c -0.0307,0.44097 -0.2286,0.78669 -0.44627,0.77611 -0.21942,-0.0106 -0.37041,-0.37395 -0.34325,-0.81845 0.0307,-0.43744 0.23001,-0.78316 0.44768,-0.77258 0.21766,0.0106 0.37041,0.37747 0.34184,0.81492"
       style="fill:#ffffff;fill-opacity:1;fill-rule:nonzero;stroke:none;stroke-width:0.0352778" />
    <path
       id="path390"
       d="m 192.34229,227.57012 c 0.0395,1.45697 -0.51259,2.64583 -1.23367,2.65994 -0.71896,0.0141 -1.3335,-1.15005 -1.37336,-2.6035 -0.0378,-1.45344 0.51611,-2.64583 1.23331,-2.65994 0.72108,-0.0141 1.33597,1.15006 1.37372,2.6035"
       style="fill:#592620;fill-opacity:1;fill-rule:nonzero;stroke:none;stroke-width:0.0352778" />
    <path
       id="path391"
       d="m 190.82287,226.5012 c -0.0303,0.43745 -0.22825,0.7867 -0.44556,0.77611 -0.21978,-0.0141 -0.37041,-0.37747 -0.3436,-0.81844 0.0307,-0.44097 0.2286,-0.78669 0.44767,-0.77611 0.21767,0.0141 0.37183,0.37747 0.34149,0.81844"
       style="fill:#ffffff;fill-opacity:1;fill-rule:nonzero;stroke:none;stroke-width:0.0352778" />
    <path
       id="path392"
       d="m 202.66598,238.7567 c -1.56599,0.35984 -5.89351,1.88737 -6.06814,-0.74083 -0.11112,-1.68275 1.75084,-3.41842 2.42712,-4.90714 0.036,-0.0776 -0.0988,-0.14817 -0.15805,-0.0847 -1.00683,1.06539 -1.75683,2.29306 -2.44334,3.53837 -0.40075,0.73025 -0.82515,1.84855 -0.26246,2.62466 1.45979,2.01084 4.86515,0.77964 6.61811,-0.1905 0.14217,-0.0776 0.054,-0.27869 -0.11324,-0.23989"
       style="fill:#b88459;fill-opacity:1;fill-rule:nonzero;stroke:none;stroke-width:0.0352778" />
    <path
       id="path393"
       d="m 204.98549,245.0679 c -0.41381,-0.127 -0.81315,-0.0459 -1.19239,0.13053 -0.34325,0.15522 -0.10936,0.635 0.25541,0.5468 0.0236,-0.007 0.15628,-0.0317 0.30727,-0.0529 -0.71579,1.31938 -2.01542,2.40135 -3.55071,2.92735 -2.90724,0.99695 -5.02496,0.025 -7.15751,-1.67852 -0.079,-0.0635 -0.22648,0.0212 -0.15804,0.10583 1.70603,2.12372 4.06118,3.05506 6.96313,2.34844 2.21156,-0.53763 4.02202,-2.01683 4.76638,-3.95358 0.0628,-0.16227 -0.0667,-0.32102 -0.23354,-0.37394"
       style="fill:#b88459;fill-opacity:1;fill-rule:nonzero;stroke:none;stroke-width:0.0352778" />
  </g>
</svg>
