<?xml version="1.0" encoding="UTF-8" standalone="no"?>
<!-- Created with Inkscape (http://www.inkscape.org/) -->

<svg
   width="29.907104mm"
   height="67.628716mm"
   viewBox="0 0 29.907104 67.628716"
   version="1.1"
   id="svg1"
   inkscape:version="1.4.2 (f4327f4, 2025-05-13)"
   sodipodi:docname="girl12.svg"
   xmlns:inkscape="http://www.inkscape.org/namespaces/inkscape"
   xmlns:sodipodi="http://sodipodi.sourceforge.net/DTD/sodipodi-0.dtd"
   xmlns="http://www.w3.org/2000/svg"
   xmlns:svg="http://www.w3.org/2000/svg">
  <sodipodi:namedview
     id="namedview1"
     pagecolor="#ffffff"
     bordercolor="#000000"
     borderopacity="0.25"
     inkscape:showpageshadow="2"
     inkscape:pageopacity="0.0"
     inkscape:pagecheckerboard="0"
     inkscape:deskcolor="#d1d1d1"
     inkscape:document-units="mm"
     inkscape:zoom="1.2275954"
     inkscape:cx="248.4532"
     inkscape:cy="-102.63968"
     inkscape:window-width="2880"
     inkscape:window-height="1676"
     inkscape:window-x="-12"
     inkscape:window-y="-12"
     inkscape:window-maximized="1"
     inkscape:current-layer="layer1" />
  <defs
     id="defs1" />
  <g
     inkscape:label="图层 1"
     inkscape:groupmode="layer"
     id="layer1"
     transform="translate(-39.315622,-175.75474)">
    <g
       id="g101"
       transform="matrix(0.26458333,0,0,0.26458333,36.385604,105.97452)">
	<g
   id="g44">
		<g
   id="g1">
			<path
   style="fill:#eec9a5"
   d="m 63.669,399.307 c 0,0 -1.282,0 -3.26,0 -6.713,0 -19.79,0 -19.801,0 0,0.838 4.299,47.073 4.581,51.589 0.953,15.214 4.022,46.87 4.105,48.206 0,0 1.712,0.708 5.476,0 l 3.053,-47.784 3.106,-36.587 c 0,0 0.586,-1.01 1.11,-1.054 0.523,0.044 0.995,1.159 0.995,1.159 l 3.632,36.588 2.382,47.703 c 4.614,0.856 6.041,-0.025 6.041,-0.025 0.084,-1.336 2.072,-29.132 3.001,-48.613 1.179,-24.746 5.304,-50.712 5.304,-51.182 -0.011,0 -13.011,0 -19.725,0 z"
   id="path1" />

		</g>

		<g
   id="g2">
			<path
   style="fill:#e1b58c"
   d="m 45.267,452.087 h 12.507 l 0.05,-0.77 3.106,-36.587 c 0,0 0.586,-1.01 1.11,-1.054 0.523,0.044 0.995,1.159 0.995,1.159 l 3.632,36.588 0.033,0.663 h 11.313 c 0.026,-0.538 0.053,-1.072 0.078,-1.599 1.179,-24.746 5.304,-50.712 5.304,-51.182 H 63.669 c 0,0 -1.282,0 -3.26,0 H 40.608 c 0,0.838 4.299,47.073 4.581,51.589 0.024,0.387 0.05,0.788 0.078,1.193 z"
   id="path2" />

		</g>

		<g
   id="g4">
			<path
   style="fill:#838587"
   d="m 68.564,489.416 0.484,9.711 c 4.614,0.856 6.041,-0.025 6.041,-0.025 0.029,-0.469 0.294,-4.2 0.664,-9.686 z"
   id="path3" />

			<path
   style="fill:#838587"
   d="m 48.408,489.416 c 0.501,5.437 0.859,9.241 0.887,9.686 0,0 1.712,0.708 5.476,0 l 0.619,-9.686 z"
   id="path4" />

		</g>

		<path
   style="fill:#838587"
   d="m 74.97,498.31 c 0,0 0.291,0.016 0.359,0.375 0.068,0.357 3.53,8.89 4.452,10.521 0.921,1.632 0.101,5.271 -4.267,5.359 -4.367,0.089 -7.235,-2.333 -7.482,-5.308 0,0 -0.141,-7.799 0.895,-11.23 0,0 0.378,-0.387 1.457,0 1.08,0.387 4.586,0.283 4.586,0.283 z"
   id="path5" />

		<g
   id="g24">
			<path
   style="fill:#319592"
   d="m 67.531,515.507 c 0.043,0.132 0.089,0.255 0.141,0.368 -0.052,-0.113 -0.098,-0.237 -0.141,-0.368 z"
   id="path6" />

			<path
   style="fill:#319592"
   d="m 67.239,514.05 c 0.021,0.179 0.045,0.352 0.072,0.516 -0.027,-0.165 -0.051,-0.337 -0.072,-0.516 z"
   id="path7" />

			<path
   style="fill:#319592"
   d="m 67.411,515.074 c 0.031,0.129 0.064,0.249 0.1,0.365 -0.035,-0.115 -0.069,-0.236 -0.1,-0.365 z"
   id="path8" />

			<path
   style="fill:#319592"
   d="m 67.313,514.583 c 0.025,0.155 0.056,0.302 0.088,0.445 -0.032,-0.141 -0.062,-0.29 -0.088,-0.445 z"
   id="path9" />

			<polygon
   style="fill:#1d1d1b"
   points="67.239,514.047 67.237,514.044 67.239,514.044 "
   id="polygon9" />

			<path
   style="fill:#1d1d1b"
   d="m 67.511,515.44 c 0.008,0.021 0.014,0.047 0.021,0.067 -0.007,-0.021 -0.013,-0.046 -0.021,-0.067 z"
   id="path10" />

			<path
   style="fill:#1d1d1b"
   d="m 67.401,515.028 c 0.004,0.015 0.006,0.03 0.01,0.046 -0.004,-0.015 -0.006,-0.031 -0.01,-0.046 z"
   id="path11" />

			<path
   style="fill:#1d1d1b"
   d="m 67.312,514.565 c 0.001,0.005 0.001,0.011 0.002,0.018 -10e-4,-0.007 -10e-4,-0.013 -0.002,-0.018 z"
   id="path12" />

			<path
   style="fill:#1d1d1b"
   d="m 69.563,516.442 c 1.88,1.138 4.202,1.741 6.588,1.878 3.647,0.205 6.963,-1.209 7.662,-3.568 10e-4,0.004 0.003,0.009 0.003,0.014 0.027,0.138 0.046,0.278 0.056,0.419 0.002,0.026 0.005,0.054 0.006,0.079 0.008,0.148 0.008,0.296 -0.006,0.444 -0.001,0.005 -0.003,0.013 -0.003,0.018 -0.014,0.137 -0.043,0.273 -0.077,0.41 -0.009,0.036 -0.02,0.072 -0.029,0.108 -0.043,0.143 -0.095,0.288 -0.164,0.431 -1.3,2.685 -4.97,2.769 -8.534,2.623 -3.291,-0.504 -6.262,-0.932 -7.392,-3.422 -0.052,-0.113 -0.098,-0.236 -0.141,-0.368 -0.007,-0.02 -0.013,-0.046 -0.021,-0.067 -0.035,-0.116 -0.068,-0.236 -0.1,-0.365 -0.004,-0.016 -0.006,-0.031 -0.01,-0.046 -0.032,-0.143 -0.063,-0.29 -0.088,-0.445 -0.001,-0.007 -0.001,-0.013 -0.002,-0.018 -0.027,-0.164 -0.052,-0.337 -0.072,-0.516 0,0 0,-0.004 0,-0.006 0.513,0.922 1.264,1.757 2.324,2.397 z"
   id="path13" />

			<g
   id="g23">
				<path
   style="fill:#319592"
   d="m 83.901,514.583 c 0.033,0.143 0.057,0.287 0.07,0.431 -0.013,-0.144 -0.036,-0.287 -0.07,-0.431 z"
   id="path14" />

				<path
   style="fill:#319592"
   d="m 83.984,515.55 c -0.01,0.139 -0.034,0.275 -0.063,0.413 0.029,-0.138 0.054,-0.275 0.063,-0.413 z"
   id="path15" />

				<path
   style="fill:#319592"
   d="m 83.894,516.072 c -0.039,0.144 -0.085,0.288 -0.149,0.433 0.064,-0.145 0.109,-0.288 0.149,-0.433 z"
   id="path16" />

				<path
   style="fill:#319592"
   d="m 83.979,515.089 c 0.013,0.147 0.016,0.297 0.008,0.446 0.01,-0.149 0.005,-0.299 -0.008,-0.446 z"
   id="path17" />

				<path
   style="fill:#3c3b3b"
   d="m 75.458,499.163 c 0.278,1.7 1.02,3.323 1.785,4.944 0.857,1.818 2.244,4.186 2.102,6.167 -0.329,4.565 -7.723,3.403 -9.862,0.755 -0.776,-1.469 -1.122,-4.323 -1.116,-5.86 0.005,-1.028 0.133,-2.047 0.241,-3.071 0.14,-1.334 0.382,-2.729 0.32,-4.069 -0.874,1.931 -2.304,11.425 -1.619,16.135 0.542,0.913 1.318,1.735 2.396,2.356 1.913,1.106 4.254,1.668 6.643,1.762 3.653,0.141 6.926,-1.332 7.553,-3.702 -0.255,-1.095 -1,-2.153 -1.693,-3.101 -1.08,-1.479 -2.11,-2.945 -2.991,-4.501 -1.473,-2.605 -2.506,-5.222 -3.416,-7.926 -0.227,-0.288 -0.427,-0.506 -0.598,-0.675 0.036,0.102 0.078,0.205 0.127,0.308 0.003,0.099 0.061,0.431 0.128,0.478 z"
   id="path18" />

				<path
   style="fill:#1d1d1b"
   d="m 83.921,515.963 c -0.008,0.036 -0.018,0.072 -0.027,0.109 0.009,-0.037 0.019,-0.073 0.027,-0.109 z"
   id="path19" />

				<path
   style="fill:#1d1d1b"
   d="m 83.987,515.535 c -10e-4,0.005 -0.003,0.01 -0.003,0.01 0,0 0.002,-0.005 0.003,-0.01 z"
   id="path20" />

				<polygon
   style="fill:#1d1d1b"
   points="83.901,514.582 83.9,514.579 "
   id="polygon20" />

				<path
   style="fill:#1d1d1b"
   d="m 83.972,515.014 c 0.003,0.025 0.006,0.049 0.008,0.075 -0.002,-0.026 -0.005,-0.05 -0.008,-0.075 z"
   id="path21" />

				<path
   style="fill:#1d1d1b"
   d="m 76.348,518.281 c -2.389,-0.094 -4.729,-0.656 -6.643,-1.762 -1.078,-0.621 -1.854,-1.443 -2.396,-2.356 0.001,0.003 0.001,0.005 0.001,0.005 0.025,0.178 0.055,0.348 0.087,0.51 10e-4,0.009 0.002,0.018 0.005,0.024 0.029,0.152 0.063,0.296 0.1,0.436 0.004,0.018 0.008,0.037 0.013,0.055 0.033,0.124 0.071,0.241 0.108,0.354 0.009,0.024 0.016,0.051 0.024,0.074 0.046,0.131 0.097,0.254 0.151,0.364 1.204,2.47 4.188,2.845 7.494,3.292 3.566,0.082 7.232,-0.065 8.452,-2.772 0.064,-0.144 0.11,-0.288 0.149,-0.433 0.01,-0.037 0.02,-0.073 0.027,-0.109 0.029,-0.138 0.054,-0.274 0.063,-0.413 0,0 0.002,-0.01 0.003,-0.015 0.008,-0.15 0.005,-0.299 -0.008,-0.446 -0.002,-0.026 -0.005,-0.05 -0.008,-0.075 -0.014,-0.144 -0.037,-0.288 -0.07,-0.431 0,0 0,-0.003 -0.001,-0.004 -0.626,2.37 -3.898,3.843 -7.551,3.702 z"
   id="path22" />

				<path
   style="fill:#3c3b3b"
   d="m 68.032,508.293 c 0,0 4.559,-4.111 10.981,-1.178 l -1.069,-2.026 c 0,0 -6.067,-2.327 -9.912,1.119 z"
   id="path23" />

			</g>

		</g>

		<path
   style="fill:#838587"
   d="m 49.229,498.31 c 0,0 -0.291,0.016 -0.358,0.375 -0.068,0.357 -3.531,8.89 -4.453,10.521 -0.921,1.632 -0.1,5.271 4.267,5.359 4.367,0.089 7.235,-2.333 7.483,-5.308 0,0 0.14,-7.799 -0.896,-11.23 0,0 -0.378,-0.387 -1.457,0 -1.08,0.387 -4.586,0.283 -4.586,0.283 z"
   id="path24" />

		<g
   id="g43">
			<path
   style="fill:#319592"
   d="m 56.667,515.507 c -0.043,0.132 -0.088,0.255 -0.141,0.368 0.053,-0.113 0.098,-0.237 0.141,-0.368 z"
   id="path25" />

			<path
   style="fill:#319592"
   d="m 56.959,514.05 c -0.021,0.179 -0.044,0.352 -0.071,0.516 0.027,-0.165 0.05,-0.337 0.071,-0.516 z"
   id="path26" />

			<path
   style="fill:#319592"
   d="m 56.787,515.074 c -0.03,0.129 -0.064,0.249 -0.1,0.365 0.036,-0.115 0.07,-0.236 0.1,-0.365 z"
   id="path27" />

			<path
   style="fill:#319592"
   d="m 56.886,514.583 c -0.026,0.155 -0.057,0.302 -0.089,0.445 0.032,-0.141 0.062,-0.29 0.089,-0.445 z"
   id="path28" />

			<polygon
   style="fill:#1d1d1b"
   points="56.959,514.047 56.96,514.044 "
   id="polygon28" />

			<path
   style="fill:#1d1d1b"
   d="m 56.688,515.44 c -0.008,0.021 -0.013,0.047 -0.021,0.067 0.006,-0.021 0.013,-0.046 0.021,-0.067 z"
   id="path29" />

			<path
   style="fill:#1d1d1b"
   d="m 56.797,515.028 c -0.003,0.015 -0.006,0.03 -0.01,0.046 0.004,-0.015 0.007,-0.031 0.01,-0.046 z"
   id="path30" />

			<path
   style="fill:#1d1d1b"
   d="m 56.888,514.565 c -0.002,0.005 -0.002,0.011 -0.002,0.011 0,0 0,-0.006 0.002,-0.011 z"
   id="path31" />

			<path
   style="fill:#1d1d1b"
   d="m 54.636,516.442 c -1.88,1.138 -4.202,1.741 -6.588,1.878 -3.648,0.205 -6.963,-1.209 -7.662,-3.568 -0.001,0.004 -0.002,0.009 -0.003,0.014 -0.027,0.138 -0.046,0.278 -0.056,0.419 -0.002,0.026 -0.005,0.054 -0.006,0.079 -0.008,0.148 -0.008,0.296 0.006,0.444 0.002,0.005 0.004,0.013 0.004,0.018 0.013,0.137 0.042,0.273 0.076,0.41 0.01,0.036 0.02,0.072 0.029,0.108 0.043,0.143 0.096,0.288 0.164,0.431 1.3,2.685 4.971,2.769 8.534,2.623 3.292,-0.504 6.263,-0.932 7.392,-3.422 0.053,-0.113 0.098,-0.236 0.141,-0.368 0.008,-0.02 0.013,-0.046 0.021,-0.067 0.035,-0.116 0.069,-0.236 0.1,-0.365 0.004,-0.016 0.007,-0.031 0.01,-0.046 0.032,-0.143 0.063,-0.29 0.089,-0.445 0,0 0,-0.013 0.002,-0.018 0.027,-0.164 0.051,-0.337 0.071,-0.516 0,0 0,-0.004 10e-4,-0.006 -0.515,0.922 -1.266,1.757 -2.325,2.397 z"
   id="path32" />

			<g
   id="g42">
				<path
   style="fill:#319592"
   d="m 40.297,514.583 c -0.033,0.143 -0.056,0.287 -0.07,0.431 0.014,-0.144 0.037,-0.287 0.07,-0.431 z"
   id="path33" />

				<path
   style="fill:#319592"
   d="m 40.214,515.55 c 0.01,0.139 0.034,0.275 0.064,0.413 -0.03,-0.138 -0.054,-0.275 -0.064,-0.413 z"
   id="path34" />

				<path
   style="fill:#319592"
   d="m 40.306,516.072 c 0.038,0.144 0.084,0.288 0.148,0.433 -0.064,-0.145 -0.11,-0.288 -0.148,-0.433 z"
   id="path35" />

				<path
   style="fill:#319592"
   d="m 40.219,515.089 c -0.013,0.147 -0.016,0.297 -0.008,0.446 -0.009,-0.149 -0.005,-0.299 0.008,-0.446 z"
   id="path36" />

				<path
   style="fill:#3c3b3b"
   d="m 48.74,499.163 c -0.278,1.7 -1.02,3.323 -1.784,4.944 -0.858,1.818 -2.244,4.186 -2.103,6.167 0.329,4.565 7.723,3.403 9.862,0.755 0.777,-1.469 1.122,-4.323 1.116,-5.86 -0.005,-1.028 -0.133,-2.047 -0.241,-3.071 -0.14,-1.334 -0.382,-2.729 -0.32,-4.069 0.874,1.931 2.305,11.425 1.619,16.135 -0.541,0.913 -1.318,1.735 -2.396,2.356 -1.913,1.106 -4.254,1.668 -6.643,1.762 -3.652,0.141 -6.926,-1.332 -7.553,-3.702 0.256,-1.095 1,-2.153 1.693,-3.101 1.08,-1.479 2.11,-2.945 2.992,-4.501 1.473,-2.605 2.506,-5.222 3.415,-7.926 0.227,-0.288 0.427,-0.506 0.599,-0.675 -0.037,0.102 -0.079,0.205 -0.127,0.308 -0.003,0.099 -0.061,0.431 -0.129,0.478 z"
   id="path37" />

				<path
   style="fill:#1d1d1b"
   d="m 40.278,515.963 c 0.007,0.036 0.017,0.072 0.027,0.109 -0.01,-0.037 -0.02,-0.073 -0.027,-0.109 z"
   id="path38" />

				<path
   style="fill:#1d1d1b"
   d="m 40.211,515.535 c 0.001,0.005 0.003,0.01 0.003,0.01 0,0 -0.002,-0.005 -0.003,-0.01 z"
   id="path39" />

				<polygon
   style="fill:#1d1d1b"
   points="40.297,514.582 40.298,514.579 "
   id="polygon39" />

				<path
   style="fill:#1d1d1b"
   d="m 40.227,515.014 c -0.003,0.025 -0.006,0.049 -0.008,0.075 0.002,-0.026 0.005,-0.05 0.008,-0.075 z"
   id="path40" />

				<path
   style="fill:#1d1d1b"
   d="m 47.851,518.281 c 2.389,-0.094 4.729,-0.656 6.643,-1.762 1.078,-0.621 1.855,-1.443 2.396,-2.356 -10e-4,0.003 -10e-4,0.005 -10e-4,0.005 -0.025,0.178 -0.055,0.348 -0.087,0.51 -10e-4,0.009 -0.002,0.018 -0.004,0.024 -0.029,0.152 -0.063,0.296 -0.1,0.436 -0.005,0.018 -0.009,0.037 -0.014,0.055 -0.033,0.124 -0.07,0.241 -0.108,0.354 -0.01,0.024 -0.017,0.051 -0.025,0.074 -0.046,0.131 -0.096,0.254 -0.15,0.364 -1.205,2.47 -4.188,2.845 -7.494,3.292 -3.566,0.082 -7.234,-0.065 -8.453,-2.772 -0.065,-0.144 -0.11,-0.288 -0.148,-0.433 -0.011,-0.037 -0.021,-0.073 -0.027,-0.109 -0.03,-0.138 -0.055,-0.274 -0.064,-0.413 0,0 -0.002,-0.01 -0.003,-0.015 -0.008,-0.15 -0.005,-0.299 0.008,-0.446 0.002,-0.026 0.005,-0.05 0.008,-0.075 0.015,-0.144 0.037,-0.288 0.07,-0.431 0,0 0,-0.003 10e-4,-0.004 0.626,2.37 3.899,3.843 7.552,3.702 z"
   id="path41" />

				<path
   style="fill:#3c3b3b"
   d="m 56.167,508.293 c 0,0 -4.56,-4.111 -10.982,-1.178 l 1.07,-2.026 c 0,0 6.066,-2.327 9.912,1.119 z"
   id="path42" />

			</g>

		</g>

	</g>

	<g
   id="g69">
		<g
   id="g51">
			<g
   id="g47">
				<path
   style="fill:#eec9a5"
   d="m 91.735,408.799 c -3.117,0.235 -3.96,5.049 -4.646,7.404 -0.541,1.847 -0.882,3.022 -1.396,5.753 -0.14,0.746 -0.477,2.596 0.372,3.069 1.09,0.608 1.681,-1.922 1.916,-2.567 0.131,-0.361 1.071,-3.385 1.449,-1.925 0.314,1.205 0.069,1.682 -0.17,2.885 -0.381,1.91 -2.359,5.056 -1.56,6.41 0.8,1.355 2.045,-0.658 2.045,-0.658 0,0 -0.146,0.332 0.578,0.535 0.724,0.203 1.708,-0.834 1.732,-0.854 0.022,-0.02 -0.014,0.379 0.568,0.166 0.582,-0.215 1.509,-1.113 1.823,-1.418 0,0 0.72,-0.113 1.417,-1.004 0.696,-0.891 3.749,-7.806 -0.167,-16.265 -0.565,-1.223 -1.641,-1.124 -2.868,-1.431 -0.386,-0.096 -0.75,-0.127 -1.093,-0.1 z"
   id="path44" />

				<path
   style="fill:#915f2d"
   d="m 91.294,425.439 c 0.631,-1.759 1.003,-3.628 1.323,-5.459 0.002,-0.013 0.018,-0.005 0.017,0.005 -0.24,1.889 -0.578,3.727 -1.166,5.549 -0.407,1.259 -1.061,2.996 -1.962,4 -0.021,0.023 -0.054,-0.011 -0.04,-0.034 0.762,-1.219 1.345,-2.718 1.828,-4.061 z"
   id="path45" />

				<path
   style="fill:#915f2d"
   d="m 93.921,424.947 c 0.555,-1.482 0.639,-3.064 1.039,-4.573 0.002,-0.009 0.015,-0.001 0.014,0.005 -0.313,1.703 -0.463,3.354 -1.082,5.003 -0.463,1.23 -1.033,2.882 -2.127,3.737 -0.01,0.009 -0.021,-0.01 -0.014,-0.019 1.125,-1.007 1.661,-2.795 2.17,-4.153 z"
   id="path46" />

				<path
   style="fill:#915f2d"
   d="m 96.55,421.369 c 0.003,-0.012 0.018,-0.004 0.017,0.006 -0.106,1.248 -0.372,2.526 -0.796,3.711 -0.403,1.126 -1.068,2.559 -2.074,3.287 -0.015,0.011 -0.041,-0.018 -0.027,-0.031 1.817,-1.713 2.568,-4.61 2.88,-6.973 z"
   id="path47" />

			</g>

			<g
   id="g50">
				<path
   style="fill:#e1b58c"
   d="M 86.665,381.237 83.144,363.09 c -0.013,-2.083 -0.02,-16.498 0.004,-22.26 0,0 7.655,0.471 8.971,5.211 l 4.78,32.906 c -0.928,4.341 -8.609,5.535 -10.234,2.29 z"
   id="path48" />

				<path
   style="fill:#eec9a5"
   d="m 96.938,378.947 c 0,1.838 0.007,9.518 0,11.167 -0.018,4.368 -0.426,10.111 -0.937,14.448 -0.537,4.566 -1.028,7.471 -1.565,8.025 l -3.001,-0.113 c -1.938,-0.017 -0.769,-4.555 -4.671,-28.734 l -0.395,-3.559 c 1.212,-3.681 9.089,-5.562 10.569,-1.234 z"
   id="path49" />

				<path
   style="fill:#b62420"
   d="m 93.549,356.658 c 0.488,-0.355 0.979,-0.705 1.472,-1.054 l -2.806,-10.25 c -1.315,-4.382 -9.066,-4.524 -9.066,-4.524 -0.005,1.711 -1.047,22.441 -1.034,24.266 l 0.106,0.271 c 3.846,-2.808 7.473,-5.908 11.328,-8.709 z"
   id="path50" />

			</g>

		</g>

		<g
   id="g57">
			<g
   id="g52">
				<path
   style="fill:#e1b58c"
   d="m 37.079,381.237 3.521,-17.62 c 0.013,-2.083 0.019,-17.025 -0.005,-22.787 0,0 -7.654,0.471 -8.971,5.211 l -4.781,32.906 c 0.93,4.341 8.611,5.535 10.236,2.29 z"
   id="path51" />

				<path
   style="fill:#eec9a5"
   d="m 26.806,378.947 c 0,1.838 -0.008,9.518 0,11.167 0.017,4.368 0.426,10.111 0.935,14.448 0.538,4.566 1.029,7.471 1.566,8.025 l 3.001,-0.113 c 1.938,-0.017 0.768,-4.555 4.671,-28.734 l 0.394,-3.559 c -1.211,-3.681 -9.088,-5.562 -10.567,-1.234 z"
   id="path52" />

			</g>

			<g
   id="g56">
				<path
   style="fill:#eec9a5"
   d="m 31.782,408.799 c 3.115,0.235 3.959,5.049 4.646,7.404 0.54,1.847 0.881,3.022 1.395,5.753 0.141,0.746 0.477,2.596 -0.372,3.069 -1.091,0.608 -1.682,-1.922 -1.916,-2.567 -0.131,-0.361 -1.071,-3.385 -1.45,-1.925 -0.313,1.205 -0.068,1.682 0.172,2.885 0.38,1.91 2.359,5.056 1.56,6.41 -0.8,1.355 -2.044,-0.658 -2.044,-0.658 0,0 0.146,0.332 -0.579,0.535 -0.724,0.203 -1.709,-0.834 -1.732,-0.854 -0.022,-0.02 0.014,0.379 -0.568,0.166 -0.582,-0.215 -1.509,-1.113 -1.824,-1.418 0,0 -0.719,-0.113 -1.416,-1.004 -0.697,-0.891 -3.75,-7.806 0.167,-16.265 0.565,-1.223 1.642,-1.124 2.868,-1.431 0.384,-0.096 0.749,-0.127 1.093,-0.1 z"
   id="path53" />

				<path
   style="fill:#915f2d"
   d="m 32.224,425.439 c -0.632,-1.759 -1.004,-3.628 -1.324,-5.459 -0.002,-0.013 -0.019,-0.005 -0.018,0.005 0.24,1.889 0.579,3.727 1.168,5.549 0.405,1.259 1.06,2.996 1.961,4 0.021,0.023 0.054,-0.011 0.04,-0.034 -0.762,-1.219 -1.345,-2.718 -1.827,-4.061 z"
   id="path54" />

				<path
   style="fill:#915f2d"
   d="m 29.596,424.947 c -0.556,-1.482 -0.638,-3.064 -1.039,-4.573 -0.002,-0.009 -0.015,-0.001 -0.014,0.005 0.313,1.703 0.463,3.354 1.082,5.003 0.463,1.23 1.032,2.882 2.127,3.737 0.01,0.009 0.022,-0.01 0.014,-0.019 -1.125,-1.007 -1.662,-2.795 -2.17,-4.153 z"
   id="path55" />

				<path
   style="fill:#915f2d"
   d="m 26.966,421.369 c -0.001,-0.012 -0.018,-0.004 -0.017,0.006 0.107,1.248 0.374,2.526 0.798,3.711 0.402,1.126 1.067,2.559 2.072,3.287 0.017,0.011 0.043,-0.018 0.027,-0.031 -1.816,-1.713 -2.568,-4.61 -2.88,-6.973 z"
   id="path56" />

			</g>

		</g>

		<g
   id="g62">
			<rect
   x="89.463997"
   y="406.45599"
   style="fill:#e8457a"
   width="6.6760001"
   height="2.983"
   id="rect57" />

			<rect
   x="91.190002"
   y="406.45599"
   style="fill:#b44175"
   width="4.9489999"
   height="2.983"
   id="rect58" />

			<g
   id="g59">
				<path
   style="fill:#571528"
   d="m 92.79,407.65 c 0.077,-1.339 0.823,-2.406 1.729,-2.566 -0.036,-0.004 -0.069,-0.019 -0.104,-0.022 -1.04,-0.059 -1.952,1.1 -2.038,2.588 -0.087,1.489 0.686,2.745 1.726,2.804 0.104,0.007 0.206,-0.003 0.309,-0.021 -0.985,-0.136 -1.706,-1.347 -1.622,-2.783 z"
   id="path58" />

				<path
   style="fill:#e8457a"
   d="m 96.14,407.867 c 0.084,-1.436 -0.637,-2.645 -1.621,-2.783 -0.905,0.16 -1.651,1.227 -1.729,2.566 -0.084,1.436 0.637,2.647 1.62,2.783 0.905,-0.159 1.652,-1.226 1.73,-2.566 z"
   id="path59" />

			</g>

			<path
   style="fill:#242422"
   d="m 94.911,407.853 c 0,0.053 -0.043,0.095 -0.095,0.095 h -1.552 c -0.052,0 -0.094,-0.042 -0.094,-0.095 v 0 c 0,-0.052 0.042,-0.094 0.094,-0.094 h 1.552 c 0.052,0 0.095,0.042 0.095,0.094 z"
   id="path60" />

			<path
   style="fill:#242422"
   d="m 94.837,407.947 c -0.042,0 -0.074,-0.033 -0.074,-0.075 v -1.228 c 0,-0.042 0.032,-0.075 0.074,-0.075 v 0 c 0.04,0 0.074,0.033 0.074,0.075 v 1.228 c 0,0.042 -0.034,0.075 -0.074,0.075 z"
   id="path61" />

			<path
   style="fill:#b44175"
   d="m 94.519,405.084 c -0.905,0.16 -1.651,1.227 -1.729,2.566 -0.084,1.436 0.637,2.647 1.62,2.783 0.905,-0.159 1.651,-1.227 1.729,-2.566 0.085,-1.435 -0.636,-2.645 -1.62,-2.783 z m -0.096,4.65 c -0.756,-0.105 -1.311,-1.035 -1.246,-2.143 0.059,-1.028 0.633,-1.851 1.33,-1.973 0.756,0.105 1.31,1.035 1.246,2.143 -0.06,1.03 -0.633,1.85 -1.33,1.973 z"
   id="path62" />

		</g>

		<path
   style="fill:#b62420"
   d="m 30.514,356.658 c -0.488,-0.355 -0.979,-0.705 -1.472,-1.054 l 2.806,-10.25 c 1.315,-4.382 9.066,-4.524 9.066,-4.524 0.005,1.711 1.046,22.441 1.033,24.266 l -0.106,0.271 c -3.847,-2.808 -7.473,-5.908 -11.327,-8.709 z"
   id="path63" />

		<path
   style="fill:#e42729"
   d="m 63.974,440.344 c 13.185,-0.638 24.309,-3.677 24.309,-3.677 -1.264,-12.423 -4.641,-40.819 -4.641,-40.819 l -0.017,-0.006 c -0.591,-4.893 -2.849,-13.662 -2.849,-14.784 0,0 3.139,-36.7 2.688,-40.227 L 62.023,335.876 40.58,340.83 c -0.449,3.527 2.809,40.227 2.809,40.227 0,1.142 -2.308,10.302 -2.838,15.188 -0.445,3.757 -3.416,28.865 -4.583,40.343 0,0 11.124,3.039 24.309,3.677 z"
   id="path64" />

		<path
   style="fill:#d32727"
   d="m 83.625,395.842 c -0.591,-4.893 -2.849,-13.662 -2.849,-14.784 0,0 0.633,-7.401 1.29,-15.875 H 42.049 c 0.684,8.474 1.341,15.875 1.341,15.875 0,1.142 -2.308,10.302 -2.838,15.188 -0.445,3.757 -3.416,28.865 -4.583,40.343 0,0 11.124,3.039 24.309,3.677 l 3.696,0.079 c 13.185,-0.638 24.309,-3.677 24.309,-3.677 -1.264,-12.423 -4.641,-40.819 -4.641,-40.819 z"
   id="path65" />

		<g
   id="g67">
			<path
   style="fill:#f49b54"
   d="m 56.472,335.857 -5.727,2.814 c 0,0 0.049,12.048 4.908,13.775 4.859,1.726 6.364,-5.417 6.364,-5.417 0,0 -5.36,-1.865 -5.545,-11.172 z"
   id="path66" />

			<path
   style="fill:#f49b54"
   d="m 67.613,335.883 5.715,2.838 c 0,0 -0.103,12.046 -4.969,13.752 -4.867,1.705 -6.342,-5.443 -6.342,-5.443 0,0 5.371,-1.842 5.596,-11.147 z"
   id="path67" />

		</g>

		<path
   style="fill:#e1b58c"
   d="m 67.599,340.377 c 0,1.161 -2.781,6.614 -5.563,6.614 -2.781,0 -5.561,-5.453 -5.561,-6.614 v -10.378 c 0,-2.323 1.882,-4.206 4.204,-4.206 h 2.715 c 2.322,0 4.205,1.883 4.205,4.206 z"
   id="path68" />

		<path
   style="fill:#f49b54"
   d="m 67.673,400.741 h 14.441 c 0,0 1.805,13.104 -7.221,13.315 -9.024,0.212 -7.22,-13.315 -7.22,-13.315 z"
   id="path69" />

	</g>

	<g
   id="g100">
		<path
   style="fill:#ffbe00"
   d="m 45.098,277.488 c -0.55,-0.811 -1.288,-1.25 -2.048,-1.285 0.422,-0.758 0.76,-1.567 1.033,-2.254 0.645,-1.631 1.04,-3.764 0.119,-5.37 -1.267,-2.216 -3.766,-1.704 -5.185,-0.176 -0.025,-0.79 -0.19,-1.564 -0.526,-2.263 -1.026,-2.117 -3.746,-2.678 -5.854,-2.289 -1.995,0.369 -4.451,2.112 -4.845,4.219 -0.082,0.441 -0.16,0.985 -0.18,1.543 -0.375,-0.388 -0.808,-0.724 -1.283,-0.972 -1.867,-0.978 -4.285,-0.483 -6.095,0.356 -2.216,1.03 -3.826,4.131 -2.992,6.319 -0.382,0.015 -0.758,0.073 -1.119,0.192 -2.375,0.785 -4.328,2.77 -4.928,5.201 -0.809,3.268 2.582,7.607 5.981,7.373 -0.535,1.374 -0.201,3.136 1.026,4.151 1.202,0.99 2.751,0.919 4.152,0.322 -0.549,1.958 0.953,3.937 3.18,4.368 1.962,0.379 4.127,-1.074 5.553,-2.738 2.258,0.065 4.377,-1.89 6.045,-3.166 2.542,-1.942 4.97,-4.242 6.842,-6.849 1.241,-1.728 2.483,-4.684 1.124,-6.682 z"
   id="path70" />

		<path
   style="opacity:0.6;fill:#d48000"
   d="m 45.098,277.488 c -0.55,-0.811 -1.288,-1.25 -2.048,-1.285 0.422,-0.758 0.76,-1.567 1.033,-2.254 0.645,-1.631 1.04,-3.764 0.119,-5.37 -0.003,-0.009 -0.008,-0.016 -0.013,-0.023 -0.25,2.074 -1.104,4.236 -1.939,5.534 -1.251,1.951 -2.597,3.184 -4.996,3.125 -0.788,-0.019 -1.616,-0.211 -2.25,-0.596 -0.772,3.044 -3.453,6.915 -6.704,6.651 -1.53,-0.124 -1.652,-1.231 -1.289,-2.404 -3.235,1.924 -7.914,3.913 -10.124,1.336 -2.728,-3.18 1.395,-5.429 4.941,-6.578 -0.658,-0.267 -1.252,-0.631 -1.738,-1.138 -1.413,-1.465 -1.572,-3.362 -0.859,-4.846 -1.66,1.358 -2.688,3.839 -1.988,5.677 -0.382,0.015 -0.758,0.073 -1.119,0.192 -2.375,0.785 -4.328,2.77 -4.928,5.201 -0.809,3.268 2.582,7.607 5.981,7.373 -0.535,1.374 -0.201,3.136 1.026,4.151 1.202,0.99 2.751,0.919 4.152,0.322 -0.549,1.958 0.953,3.937 3.18,4.368 1.962,0.379 4.127,-1.074 5.553,-2.738 2.258,0.065 4.377,-1.89 6.045,-3.166 2.542,-1.942 4.97,-4.242 6.842,-6.849 1.24,-1.729 2.482,-4.685 1.123,-6.683 z"
   id="path71" />

		<path
   style="opacity:0.6;fill:#d48000"
   d="m 44.173,276.568 c -0.642,0.175 -1.277,0.367 -1.899,0.605 -5.104,1.959 -8.72,6.049 -11.24,10.833 -1.15,2.184 -2.493,5.868 -5.527,5.795 -1.574,-0.038 -1.824,-1.562 -1.707,-2.863 -1.068,0.449 -2.172,0.641 -3.155,0.392 -2.615,-0.66 -3.031,-3.836 -1.731,-5.847 -3.511,0.132 -6.655,-0.957 -7.823,-4.122 -0.262,3.163 2.91,6.941 6.086,6.723 -0.535,1.374 -0.201,3.136 1.026,4.151 1.202,0.99 2.751,0.919 4.152,0.322 -0.549,1.958 0.953,3.937 3.18,4.368 1.962,0.379 4.127,-1.074 5.553,-2.738 2.258,0.065 4.377,-1.89 6.045,-3.166 2.542,-1.942 4.97,-4.242 6.842,-6.849 1.241,-1.73 2.483,-4.687 1.124,-6.685 -0.271,-0.397 -0.585,-0.704 -0.926,-0.919 z"
   id="path72" />

		<path
   style="fill:#ffbe00"
   d="m 122.999,297.174 c -0.541,-0.938 -1.44,-1.602 -2.441,-2.04 2.277,-1.683 3.92,-4.128 3.479,-6.991 -0.544,-3.558 -3.84,-4.607 -6.719,-3.738 0.753,-1.744 0.831,-3.722 -0.24,-5.319 -1.097,-1.63 -2.984,-1.934 -4.755,-1.415 -0.689,0.199 -1.542,0.551 -2.233,1.061 -0.077,-1.656 -0.86,-3.068 -2.91,-3.486 -1.559,-0.32 -3.227,1.301 -4.09,2.367 -0.273,0.339 -0.524,0.719 -0.741,1.127 -0.06,-0.195 -0.12,-0.392 -0.196,-0.584 -0.873,-2.16 -3.379,-2.852 -5.48,-2.408 -5.119,1.084 -6.779,7.923 -5.094,12.342 -2.286,5.435 -0.629,11.393 4.287,14.704 0.262,1.417 0.783,2.852 1.795,3.809 0.948,0.896 2.457,1.656 3.697,0.842 0.457,-0.301 0.816,-0.749 1.09,-1.274 1.694,2.559 5.164,3.932 8.15,3.044 2.127,-0.632 3.198,-2.478 3.229,-4.429 0.815,0.467 1.727,0.73 2.791,0.652 2.271,-0.166 4.188,-1.183 5.574,-2.959 1.09,-1.404 1.756,-3.659 0.807,-5.305 z"
   id="path73" />

		<path
   style="opacity:0.6;fill:#d48000"
   d="m 122.999,297.174 c -0.541,-0.938 -1.44,-1.602 -2.441,-2.04 2.277,-1.683 3.92,-4.128 3.479,-6.991 -0.074,-0.501 -0.21,-0.946 -0.389,-1.349 -0.183,0.686 -0.458,1.349 -0.793,1.919 -1.104,1.887 -2.821,3.536 -4.805,4.057 2.026,1.509 3.722,3.51 2.635,5.473 -1.398,2.529 -4.709,0.944 -6.821,-0.688 -0.532,0.927 -1.279,1.682 -2.17,2.056 -1.714,0.727 -3.613,-0.025 -4.549,-1.595 -0.628,-1.059 -0.675,-2.391 -0.471,-3.66 -0.575,0.268 -1.194,0.432 -1.857,0.433 -1.71,0.005 -3.255,-0.898 -4.206,-2.31 -0.934,-1.383 -1.398,-3.188 -0.811,-4.801 0.164,-0.453 0.398,-0.841 0.683,-1.174 -2.309,-0.579 -4.447,-1.842 -5.662,-3.572 -1.326,-1.883 -1.282,-4.508 -0.258,-6.292 -3.433,2.251 -4.414,7.711 -2.985,11.449 -2.286,5.435 -0.629,11.393 4.287,14.704 0.262,1.417 0.783,2.852 1.795,3.809 0.948,0.896 2.457,1.656 3.697,0.842 0.457,-0.301 0.816,-0.749 1.09,-1.274 1.694,2.559 5.164,3.932 8.15,3.044 2.127,-0.632 3.198,-2.478 3.229,-4.429 0.815,0.467 1.727,0.73 2.791,0.652 2.271,-0.166 4.188,-1.183 5.574,-2.959 1.091,-1.403 1.757,-3.658 0.808,-5.304 z"
   id="path74" />

		<path
   style="opacity:0.6;fill:#d48000"
   d="m 113.62,303.23 c -0.025,0.477 -0.109,0.957 -0.268,1.435 -0.589,1.787 -2.564,2.857 -4.373,2.87 -3.481,0.021 -5.828,-2.414 -6.04,-5.596 -0.325,0.443 -0.663,0.856 -1.015,1.205 -1.361,1.367 -3.75,1.225 -3.564,-1.32 0.193,-2.641 1.328,-5.002 1.113,-7.731 -0.312,-3.905 -2.15,-5.83 -4.963,-8.186 -1.606,-1.346 -2.706,-3.251 -2.935,-5.206 -0.84,2.39 -0.84,5.185 0.002,7.387 -2.286,5.435 -0.629,11.393 4.287,14.704 0.262,1.417 0.783,2.852 1.795,3.809 0.948,0.896 2.457,1.656 3.697,0.842 0.457,-0.301 0.816,-0.749 1.09,-1.274 1.694,2.559 5.164,3.932 8.15,3.044 2.127,-0.632 3.198,-2.478 3.229,-4.429 0.815,0.467 1.727,0.73 2.791,0.652 2.271,-0.166 4.188,-1.183 5.574,-2.959 0.279,-0.358 0.529,-0.773 0.732,-1.221 -2.564,2.081 -6.382,3.597 -9.302,1.974 z"
   id="path75" />

		<path
   style="fill:#cd2400"
   d="m 39.22,282.501 c 0.188,-1.493 -0.257,-3.354 -1.997,-3.493 -1.845,-0.152 -3.415,1.721 -4.226,3.136 -0.697,1.21 -1.849,3.877 -0.315,5.002 1.348,0.988 3.493,-0.055 4.515,-1.169 0.629,-0.306 1.149,-0.911 1.479,-1.479 0.301,-0.517 0.691,-1.346 0.544,-1.997 z"
   id="path76" />

		<path
   style="fill:#cd2400"
   d="m 98.591,294.696 c 0.119,-1.569 -0.358,-3.183 -1.08,-4.557 -0.475,-0.908 -1.664,-2.415 -2.863,-2.316 -1.016,0.083 -1.248,1.015 -1.146,2.064 -0.041,0.277 -0.034,0.596 0.024,0.956 0.233,1.498 0.561,3.063 1.128,4.471 0.339,0.838 1.282,2.259 2.401,1.978 1.196,-0.301 1.451,-1.504 1.536,-2.596 z"
   id="path77" />

		<path
   style="fill:#ffbe00"
   d="m 97.595,305.121 c 1.099,-15.066 -7.781,-22.688 -13.582,-27.146 -5.805,-4.457 -9.393,-1.477 -9.393,-1.477 -2.556,-11.319 -17.958,-8.02 -29.578,-0.724 -11.621,7.294 -18.613,19.784 -15.193,30.742 3.422,10.957 13.585,19.318 13.585,19.318 0,0 23.646,4.18 35.269,2.251 11.622,-1.925 17.794,-7.895 18.892,-22.964 z"
   id="path78" />

		<path
   style="opacity:0.6;fill:#d48000"
   d="m 97.648,303.853 c -0.422,-1.766 -1.053,-3.487 -1.779,-5.188 -0.285,1.349 -0.827,2.603 -1.751,3.494 -1.992,1.921 -6.541,0.396 -8.635,-0.341 -6.511,-2.286 -11.692,-8.242 -11.989,-15.31 -0.161,-3.827 0.56,-8.848 3.85,-10.963 -1.75,0.147 -2.724,0.952 -2.724,0.952 -0.466,-2.06 -1.36,-3.631 -2.577,-4.785 0.47,0.987 0.796,2.033 0.897,3.147 0.42,4.669 -1.82,9.915 -4.662,13.535 -4.595,5.862 -11.33,7.983 -18.49,8.442 -3.853,0.246 -13.572,1.038 -15.129,-4.04 -0.8,-2.607 0.832,-5.315 2.396,-7.469 -2.176,1.684 -4.155,3.698 -5.999,6.03 -2.167,4.951 -2.75,10.211 -1.208,15.158 3.422,10.957 13.585,19.318 13.585,19.318 0,0 23.646,4.18 35.269,2.251 11.623,-1.926 17.795,-7.896 18.893,-22.965 0.032,-0.429 0.041,-0.844 0.053,-1.266 z"
   id="path79" />

		<path
   style="opacity:0.6;fill:#d48000"
   d="m 94.814,315.01 c -2.253,0.272 -3.007,-2.131 -4.835,-2.974 -4.387,-2.031 -6.574,1.389 -10.061,3.036 -1.982,0.936 -3.856,0.75 -5.998,0.545 -3.48,-0.333 -6.918,-0.882 -10.346,-1.576 -3.203,-0.652 -6.54,-1.208 -9.564,-2.497 -2.35,-1.006 -4.218,-2.494 -6.262,-3.989 -0.104,-0.078 -0.17,-0.163 -0.213,-0.252 -4.123,-2.38 -9.407,-4.948 -13.482,-1.881 -0.83,0.63 -2.204,1.992 -3.328,1.018 -0.469,-0.404 -0.886,-0.864 -1.258,-1.363 0.11,0.482 0.234,0.963 0.381,1.44 3.422,10.957 13.585,19.318 13.585,19.318 0,0 23.646,4.18 35.269,2.251 8.773,-1.453 14.439,-5.215 17.164,-13.449 -0.322,0.19 -0.671,0.325 -1.052,0.373 z"
   id="path80" />

		<g
   id="g82">
			<path
   style="fill:#efcaa6"
   d="m 40.308,309.273 c 0,0 -0.72,-2.194 -1.835,-2.543 -1.118,-0.35 -3.88,0.354 -4.723,3.335 -0.845,2.979 0.826,5.469 2.45,6.225 1.622,0.755 2.711,-1.116 2.711,-1.116 z"
   id="path81" />

			<path
   style="fill:#c39368"
   d="m 37.316,310.076 c -1.417,-0.936 -2.199,0.883 -2.546,2.086 -0.018,0.056 0.057,0.073 0.084,0.027 0.262,-0.441 0.5,-0.917 0.788,-1.346 0.492,-0.728 1.226,-0.432 1.641,0.115 0.158,0.21 0.272,0.436 0.365,0.676 -0.333,0.022 -0.668,0.268 -0.899,0.501 -0.319,0.323 -0.521,0.741 -0.676,1.171 -0.023,0.066 0.065,0.102 0.105,0.056 0.24,-0.273 0.457,-0.577 0.711,-0.838 0.286,-0.292 0.576,-0.312 0.914,-0.388 0.168,0.715 0.17,1.496 0.248,2.223 0.016,0.133 0.195,0.162 0.23,0.018 0.354,-1.419 0.337,-3.444 -0.965,-4.301 z"
   id="path82" />

		</g>

		<g
   id="g84">
			<path
   style="fill:#efcaa6"
   d="m 85.654,315.31 c 0,0 1.542,-1.635 2.736,-1.519 1.195,0.115 3.534,1.771 3.163,4.68 -0.371,2.915 -2.934,4.451 -4.769,4.494 -1.834,0.044 -2.128,-1.992 -2.128,-1.992 z"
   id="path83" />

			<path
   style="fill:#c39368"
   d="m 88.17,317.134 c 1.71,-0.276 1.737,1.598 1.593,2.774 -0.008,0.057 -0.085,0.045 -0.092,-0.003 -0.075,-0.483 -0.113,-0.989 -0.218,-1.47 -0.18,-0.818 -0.993,-0.841 -1.598,-0.517 -0.233,0.122 -0.432,0.276 -0.612,0.452 0.309,0.139 0.529,0.48 0.654,0.772 0.175,0.405 0.205,0.843 0.18,1.274 -0.005,0.066 -0.1,0.063 -0.121,0.009 -0.123,-0.331 -0.205,-0.675 -0.346,-0.999 -0.153,-0.362 -0.42,-0.488 -0.713,-0.683 -0.439,0.561 -0.747,1.241 -1.107,1.841 -0.066,0.112 -0.249,0.067 -0.226,-0.071 0.226,-1.366 1.037,-3.123 2.606,-3.379 z"
   id="path84" />

		</g>

		<path
   style="fill:#f4d9bf"
   d="m 89.171,304.063 c 0.553,-1.141 1.098,-2.178 1.529,-3.184 -0.801,-0.393 -1.578,-0.795 -2.311,-1.218 -5.646,-3.255 -10.814,-7.226 -17.414,-8.388 -6.975,-1.228 -14.196,-1.02 -21.22,-0.295 -4.461,0.457 -8.337,1.516 -12.234,2.951 -0.116,2.539 0.076,5.267 0.875,6.993 0.985,2.134 1.266,4.095 1.202,6.482 -0.101,3.737 -2.252,7.413 -2.328,11.165 -0.074,3.715 2.045,6.648 4.696,9.042 6.199,5.6 15.324,7.212 23.388,6.366 6.854,-0.722 15.527,-2.708 19.965,-10.866 1.669,-3.069 0.703,-5.67 0.98,-9.057 0.335,-4.085 1.406,-6.962 2.872,-9.991 z"
   id="path85" />

		<path
   style="fill:#f9cbc0"
   d="m 77.652,316.639 c 0.165,0.862 -1.496,1.872 -3.712,2.256 -2.219,0.383 -4.146,-0.004 -4.315,-0.868 -0.166,-0.863 1.497,-1.873 3.71,-2.256 2.219,-0.384 4.15,0.002 4.317,0.868 z"
   id="path86" />

		<path
   style="fill:#f9cbc0"
   d="m 48.802,318.205 c -0.09,0.872 -1.971,1.367 -4.206,1.102 -2.233,-0.265 -3.974,-1.185 -3.887,-2.063 0.087,-0.876 1.97,-1.369 4.202,-1.103 2.235,0.267 3.976,1.19 3.891,2.064 z"
   id="path87" />

		<g
   id="g89">
			<path
   style="fill:#3d1a0b"
   d="m 51.711,314.147 c -0.074,1.556 -0.614,2.804 -1.201,2.794 -0.593,-0.018 -1.013,-1.288 -0.937,-2.845 0.074,-1.557 0.614,-2.804 1.204,-2.792 0.592,0.016 1.009,1.287 0.934,2.843 z"
   id="path88" />

			<path
   style="fill:#ffffff"
   d="m 50.542,312.94 c -0.053,0.469 -0.243,0.829 -0.42,0.813 -0.178,-0.024 -0.278,-0.419 -0.222,-0.89 0.058,-0.467 0.246,-0.831 0.423,-0.808 0.179,0.016 0.279,0.417 0.219,0.885 z"
   id="path89" />

		</g>

		<g
   id="g91">
			<path
   style="fill:#3d1a0b"
   d="m 71.332,313.381 c -0.005,1.555 -0.489,2.828 -1.08,2.845 -0.592,0.017 -1.07,-1.231 -1.06,-2.789 0.004,-1.556 0.49,-2.829 1.082,-2.847 0.591,-0.015 1.065,1.232 1.058,2.791 z"
   id="path90" />

			<path
   style="fill:#ffffff"
   d="m 70.111,312.232 c -0.034,0.471 -0.21,0.84 -0.386,0.831 -0.18,-0.012 -0.295,-0.403 -0.26,-0.875 0.037,-0.47 0.207,-0.842 0.387,-0.827 0.179,0.009 0.297,0.401 0.259,0.871 z"
   id="path91" />

		</g>

		<path
   style="fill:#c39368"
   d="m 60.927,320.345 c -0.271,-0.622 -0.615,-1.211 -1.121,-1.613 0.529,-0.802 0.646,-2.051 0.324,-2.927 -0.028,-0.08 -0.148,-0.058 -0.127,0.029 0.205,0.927 -0.18,1.839 -0.628,2.633 -0.151,-0.07 -0.311,-0.137 -0.489,-0.177 -0.715,-0.156 -1.402,0.125 -1.747,0.763 -0.853,1.581 0.649,3.163 2.179,3.407 0.087,0.016 0.105,-0.107 0.044,-0.15 -0.611,-0.41 -1.244,-0.68 -1.587,-1.373 -0.211,-0.419 -0.24,-0.953 -0.122,-1.396 0.154,-0.568 0.688,-0.696 1.215,-0.594 0.938,0.173 1.362,0.828 1.962,1.47 0.049,0.054 0.125,-0.011 0.097,-0.072 z"
   id="path92" />

		<path
   style="fill:#d48000"
   d="m 72.279,303.337 c -2.547,-0.335 -4.359,1.663 -4.557,4.067 -0.01,0.143 0.211,0.223 0.257,0.072 0.565,-1.934 2.164,-3.434 4.323,-2.736 1.786,0.575 2.071,2.75 2.784,4.18 0.18,0.354 0.636,0.273 0.736,-0.089 0.562,-2.111 -1.231,-5.187 -3.543,-5.494 z"
   id="path93" />

		<path
   style="fill:#d48000"
   d="m 50.031,303.451 c -1.58,0.14 -4.013,2.56 -2.903,4.191 0.108,0.158 0.335,0.162 0.483,0.063 1.008,-0.686 0.953,-2.176 2.119,-2.822 2.008,-1.115 2.828,2.375 3.121,3.594 0.033,0.143 0.267,0.176 0.281,0.001 0.145,-1.871 -0.48,-5.263 -3.101,-5.027 z"
   id="path94" />

		<path
   style="fill:#930323"
   d="m 67.157,328.215 c -1.259,1.582 -3.27,2.398 -5.293,2.705 -2.014,0.306 -4.252,0.103 -6.123,-0.673 -1.239,-0.512 -2.141,-1.449 -2.649,-2.609 -0.333,-0.753 -0.478,-1.564 -0.858,-2.295 2.322,0.699 4.914,0.785 7.256,0.518 1.887,-0.213 3.732,-0.709 5.533,-1.256 0.834,-0.251 1.609,-0.608 2.389,-0.979 0.669,-0.325 1.222,-0.763 1.831,-1.15 -0.351,2.019 -0.754,4.069 -2.086,5.739 z"
   id="path95" />

		<path
   style="fill:#ffffff"
   d="m 66.364,325.058 c 0.051,-0.322 0.075,-0.652 0.058,-0.977 -0.456,0.198 -0.918,0.381 -1.399,0.525 -1.801,0.547 -3.646,1.043 -5.533,1.256 -1.558,0.176 -3.225,0.192 -4.854,-0.021 0.146,0.368 0.331,0.718 0.55,1.05 3.842,1.143 7.881,0.295 11.178,-1.833 z"
   id="path96" />

		<path
   style="fill:#f9cbc0"
   d="m 57.968,330.88 c 1.291,0.222 2.638,0.229 3.896,0.04 1.267,-0.191 2.531,-0.583 3.608,-1.24 -2.657,-1.22 -5.925,-1.158 -7.504,1.2 z"
   id="path97" />

		<path
   style="fill:#c39368"
   d="m 69.407,321.907 c -0.014,0.001 -0.025,0.002 -0.037,0.01 -0.582,0.286 -1.06,0.712 -1.604,1.058 -0.754,0.478 -1.664,0.837 -2.513,1.132 -1.735,0.6 -3.575,1.025 -5.393,1.3 -3.265,0.494 -7.354,0.225 -10.296,-1.309 -0.028,-0.015 -0.059,0.027 -0.03,0.046 0.779,0.488 1.635,0.864 2.534,1.146 0.595,2.113 1.054,3.981 3.216,5.154 1.912,1.034 4.474,1.132 6.609,0.864 2.074,-0.26 3.985,-1.149 5.395,-2.601 1.726,-1.771 2.098,-4.309 2.485,-6.582 0.037,-0.213 -0.223,-0.311 -0.366,-0.218 z m -2.25,6.308 c -1.259,1.582 -3.27,2.398 -5.293,2.705 -2.014,0.306 -4.252,0.103 -6.123,-0.673 -1.239,-0.512 -2.141,-1.449 -2.649,-2.609 -0.333,-0.753 -0.478,-1.564 -0.858,-2.295 2.322,0.699 4.914,0.785 7.256,0.518 1.887,-0.213 3.732,-0.709 5.533,-1.256 0.834,-0.251 1.609,-0.608 2.389,-0.979 0.669,-0.325 1.222,-0.763 1.831,-1.15 -0.351,2.019 -0.754,4.069 -2.086,5.739 z"
   id="path98" />

		<path
   style="fill:#ffbe00"
   d="m 94.677,304.302 c 0.01,-0.06 0.017,-0.118 0.002,-0.188 -0.683,-3.473 -1.443,-7.025 -3.106,-10.178 -1.601,-3.036 -3.998,-5.59 -6.583,-7.811 -5.975,-5.132 -13.494,-7.405 -21.169,-8.448 -6.346,-0.863 -13.031,-0.238 -18.822,2.615 -3.108,1.53 -5.617,3.719 -7.597,6.553 -2.058,2.942 -4.129,6.027 -3.99,9.747 -0.018,0.057 -0.016,0.122 0.047,0.176 5.707,4.904 13.854,4.933 20.807,3.191 4.475,-1.121 8.8,-3.276 12.604,-6.095 -0.294,0.559 -0.626,1.111 -1.035,1.66 -1.324,1.784 -2.836,3.238 -5.002,3.845 -0.1,0.027 -0.077,0.195 0.025,0.2 0.092,0.003 0.184,-0.005 0.277,-0.01 h 0.002 c 2.514,0.387 5.072,-1.25 6.836,-2.891 0.659,-0.613 1.344,-1.434 1.922,-2.349 0.426,1.722 1.361,3.604 2.697,4.796 0.066,0.061 0.14,0.011 0.161,-0.059 0.132,0.145 0.274,0.284 0.433,0.407 0.096,0.069 0.188,-0.044 0.137,-0.138 -0.646,-1.105 -0.829,-2.662 -0.697,-4.162 1.559,3.306 4.853,5.646 8.074,7.281 2.3,1.168 4.84,1.917 7.339,2.51 1.735,0.415 4.851,0.952 6.465,-0.072 0.218,-0.138 0.247,-0.373 0.173,-0.58 z"
   id="path99" />

		<path
   style="opacity:0.6;fill:#d48000"
   d="m 94.677,304.302 c 0.01,-0.06 0.017,-0.118 0.002,-0.188 -0.137,-0.696 -0.28,-1.398 -0.431,-2.097 -0.044,0.045 -0.086,0.097 -0.13,0.143 -1.992,1.921 -6.541,0.396 -8.635,-0.341 -6.511,-2.286 -11.692,-8.242 -11.989,-15.31 -0.085,-2.015 0.078,-4.359 0.728,-6.436 -0.544,-0.192 -1.098,-0.367 -1.651,-0.538 -0.736,3.242 -2.376,6.422 -4.292,8.86 -4.595,5.862 -11.33,7.983 -18.49,8.442 -3.853,0.246 -13.572,1.038 -15.129,-4.04 -0.112,-0.366 -0.172,-0.733 -0.197,-1.101 -0.688,1.523 -1.118,3.139 -1.051,4.895 -0.018,0.057 -0.016,0.122 0.047,0.176 5.707,4.904 13.854,4.933 20.807,3.191 4.475,-1.121 8.8,-3.276 12.604,-6.095 -0.294,0.559 -0.626,1.111 -1.035,1.66 -1.324,1.784 -2.836,3.238 -5.002,3.845 -0.1,0.027 -0.077,0.195 0.025,0.2 0.092,0.003 0.184,-0.005 0.277,-0.01 h 0.002 c 2.514,0.387 5.072,-1.25 6.836,-2.891 0.659,-0.613 1.344,-1.434 1.922,-2.349 0.426,1.722 1.361,3.604 2.697,4.796 0.066,0.061 0.14,0.011 0.161,-0.059 0.132,0.145 0.274,0.284 0.433,0.407 0.096,0.069 0.188,-0.044 0.137,-0.138 -0.646,-1.105 -0.829,-2.662 -0.697,-4.162 1.559,3.306 4.853,5.646 8.074,7.281 2.3,1.168 4.84,1.917 7.339,2.51 1.735,0.415 4.851,0.952 6.465,-0.072 0.218,-0.137 0.247,-0.372 0.173,-0.579 z"
   id="path100" />

	</g>

</g>
  </g>
</svg>
