<?xml version="1.0" encoding="UTF-8" standalone="no"?>
<!-- Created with Inkscape (http://www.inkscape.org/) -->

<svg
   width="74.265022mm"
   height="208.15794mm"
   viewBox="0 0 74.265027 208.15795"
   version="1.1"
   id="svg1"
   inkscape:version="1.4.2 (f4327f4, 2025-05-13)"
   sodipodi:docname="boy6.svg"
   xmlns:inkscape="http://www.inkscape.org/namespaces/inkscape"
   xmlns:sodipodi="http://sodipodi.sourceforge.net/DTD/sodipodi-0.dtd"
   xmlns="http://www.w3.org/2000/svg"
   xmlns:svg="http://www.w3.org/2000/svg">
  <sodipodi:namedview
     id="namedview1"
     pagecolor="#ffffff"
     bordercolor="#000000"
     borderopacity="0.25"
     inkscape:showpageshadow="2"
     inkscape:pageopacity="0.0"
     inkscape:pagecheckerboard="0"
     inkscape:deskcolor="#d1d1d1"
     inkscape:document-units="mm"
     inkscape:zoom="1.2275954"
     inkscape:cx="-109.97109"
     inkscape:cy="362.49729"
     inkscape:window-width="2880"
     inkscape:window-height="1676"
     inkscape:window-x="-12"
     inkscape:window-y="-12"
     inkscape:window-maximized="1"
     inkscape:current-layer="layer1" />
  <defs
     id="defs1">
    <clipPath
       clipPathUnits="userSpaceOnUse"
       id="clipPath119">
      <path
         d="m 2429.58,8528.87 v 0 l -1.54,4.27 c 7.66,35.49 -15.79,67.53 -15.79,67.53 10.47,20.59 15.22,39.01 16.15,55.3 95.03,81.21 245.93,222.7 239.94,298.46 -6.68,84.06 -297.09,299.7 -435.14,397.71 -1.96,12.33 -3.87,24.38 -5.72,36.02 -4.67,29.42 -8.97,56.5 -12.82,80.63 v 0 c 0,0 399.66,-281.36 528.14,-436.13 0,0 44.89,-42.39 44.81,-102.96 0,-4.99 -0.32,-10.11 -0.98,-15.34 -8.76,-68.62 -357.05,-385.49 -357.05,-385.49"
         transform="translate(0,2.5000001e-4)"
         id="path119" />
    </clipPath>
    <clipPath
       clipPathUnits="userSpaceOnUse"
       id="clipPath299">
      <path
         d="m 6622.23,11070.3 c 4.28,3.8 8.4,7.9 12.38,12.2 -0.48,-0.6 -0.96,-1.2 -1.45,-1.8 -3.23,-3.4 -6.57,-6.6 -10.01,-9.8 -0.22,-0.1 -0.44,-0.3 -0.66,-0.4 l -0.26,-0.2"
         transform="translate(0,2.5000001e-4)"
         id="path299" />
    </clipPath>
  </defs>
  <g
     inkscape:label="图层 1"
     inkscape:groupmode="layer"
     id="layer1"
     transform="translate(-133.87894,-190.49988)">
    <path
       id="path243"
       d="m 188.32525,290.66302 -1.81045,2.56893 4.18888,5.17243 1.65418,-2.56646 -4.03261,-5.1749"
       style="fill:#eabd92;fill-opacity:1;fill-rule:nonzero;stroke:none;stroke-width:0.0352778" />
    <path
       id="path244"
       d="m 190.81869,235.7401 c 0,0 0.88476,-2.21897 2.73473,-2.48003 1.84997,-0.26105 4.00791,1.83798 3.11432,5.21759 -0.89358,3.37608 -4.67289,5.68678 -7.02627,4.27919 0,0 0.38135,-3.59833 0.67592,-4.72369 0.29457,-1.12889 0.5013,-2.29306 0.5013,-2.29306"
       style="fill:#eabd92;fill-opacity:1;fill-rule:nonzero;stroke:none;stroke-width:0.0352778" />
    <path
       id="path245"
       d="m 194.28332,237.26763 c 0,0 -0.36478,0 -0.86995,0.127 -0.24801,0.0706 -0.53376,0.15875 -0.81457,0.30692 -0.14711,0.06 -0.27658,0.16227 -0.42263,0.23989 -0.13476,0.0952 -0.27128,0.19755 -0.40075,0.30691 -0.12241,0.11642 -0.26247,0.2152 -0.36865,0.34572 -0.10584,0.127 -0.23742,0.23284 -0.32879,0.36689 -0.0991,0.13053 -0.19438,0.254 -0.28575,0.37042 -0.079,0.127 -0.16016,0.24342 -0.23389,0.35278 -0.15628,0.21167 -0.24977,0.41628 -0.33973,0.5468 -0.0861,0.13053 -0.13688,0.20814 -0.13688,0.20814 0,0 0.0215,-0.0882 0.061,-0.23989 0.0452,-0.15169 0.0847,-0.381 0.20179,-0.62794 0.0536,-0.12347 0.11324,-0.26106 0.18133,-0.4057 0.0755,-0.13405 0.16369,-0.27869 0.25718,-0.42333 0.0882,-0.14817 0.21201,-0.28222 0.32702,-0.42333 0.11324,-0.14464 0.26458,-0.26106 0.39546,-0.39159 0.14394,-0.11641 0.30233,-0.22577 0.45685,-0.32455 0.16193,-0.0882 0.32032,-0.17992 0.48719,-0.23636 0.16016,-0.0741 0.32738,-0.11289 0.48366,-0.14817 0.15663,-0.0353 0.30762,-0.0529 0.44591,-0.06 0.55915,-0.0353 0.90417,0.10936 0.90417,0.10936"
       style="fill:#b88459;fill-opacity:1;fill-rule:nonzero;stroke:none;stroke-width:0.0352778" />
    <path
       id="path246"
       d="m 174.58562,388.00817 c -1.778,-5.18971 -4.70536,-11.96939 -4.45524,-15.96249 l -4.26473,-4.12079 c 0,0 -0.0628,0.042 -0.17956,0.12206 -0.77329,0.52387 -3.82588,2.63242 -5.29343,4.09293 0.0127,0.0469 2.58939,8.20137 6.15985,13.64262 1.95404,2.97638 4.77908,5.43595 6.77475,6.26145 1.34655,-0.36336 2.06904,-1.6704 1.25836,-4.03578"
       style="fill:#4e5244;fill-opacity:1;fill-rule:nonzero;stroke:none;stroke-width:0.0352778" />
    <path
       id="path247"
       d="m 166.55251,385.7825 c -3.57046,-5.44125 -6.14715,-13.59571 -6.15985,-13.64262 -0.29845,0.29598 -0.53552,0.56515 -0.67063,0.79022 -0.89888,1.49401 4.30777,12.68342 7.67186,16.53187 1.83197,2.09656 4.32752,3.01519 5.93337,2.58198 -1.99567,-0.8255 -4.82071,-3.28507 -6.77475,-6.26145"
       style="fill:#22231c;fill-opacity:1;fill-rule:nonzero;stroke:none;stroke-width:0.0352778" />
    <path
       id="path248"
       d="m 153.30394,396.97367 c -2.2225,-0.52176 -2.37349,-2.54988 -2.26554,-3.71264 -0.21943,0.4438 -0.35983,0.82445 -0.37959,1.11831 -0.15099,2.04929 1.43475,4.20335 6.05014,4.27637 4.61504,0.0744 8.43951,-1.82245 8.75418,-3.5627 0.0395,-0.21837 0.0501,-0.56797 0.036,-1.00859 -2.54988,3.08786 -9.5437,3.51402 -12.19518,2.88925"
       style="fill:#22231c;fill-opacity:1;fill-rule:nonzero;stroke:none;stroke-width:0.0352778" />
    <path
       id="path249"
       d="m 156.64581,382.3542 c -0.0395,3.23321 -4.29507,8.24689 -5.60741,10.90683 -0.10795,1.16276 0.043,3.19123 2.26554,3.71264 2.65148,0.62477 9.6453,0.19861 12.19518,-2.88925 -0.0974,-3.06035 -1.32151,-10.59039 -1.32151,-10.59039 l -7.5318,-1.13983"
       style="fill:#4e5244;fill-opacity:1;fill-rule:nonzero;stroke:none;stroke-width:0.0352778" />
    <path
       id="path250"
       d="m 161.60092,342.65859 c 0,0 10.93858,-2.47933 17.81528,0.31079 l -11.76867,-30.96718 -4.55259,0.80927 -1.49402,29.84712"
       style="fill:#251210;fill-opacity:1;fill-rule:nonzero;stroke:none;stroke-width:0.0352778" />
    <path
       id="path251"
       d="m 153.58405,307.16738 c 0,0 0.27869,60.88239 1.39523,77.33877 0,0 4.98193,1.79881 9.95328,-0.29387 0,0 -2.05705,-30.51104 -1.78894,-42.78983 0.26423,-12.27349 2.46133,-26.65236 2.46133,-26.65236 l 1.36137,-0.0406 c 0,0 11.40425,27.47857 11.5944,30.36888 0,0 -9.23432,13.96965 -13.37663,22.79368 0,0 2.01753,4.44888 5.07576,4.98863 0,0 18.67147,-24.56604 17.4812,-29.35288 -1.19027,-4.7886 -7.95408,-38.49229 -7.95408,-38.49229 l -26.20292,2.13184"
       style="fill:#235b74;fill-opacity:1;fill-rule:nonzero;stroke:none;stroke-width:0.0352778" />
    <path
       id="path252"
       d="m 161.42312,385.1228 c -0.50412,-5.71288 -1.89124,-22.9683 -1.74096,-38.37375 0.20462,-0.0423 0.40782,-0.0882 0.60819,-0.13688 0,0 -0.0102,-5.31813 -0.0243,-12.5349 1.87572,-19.74533 1.68522,-19.83141 1.68169,-19.83141 v 0 l -1.65735,-1.76212 c 0,0 4.10986,1.26224 8.35731,1.26224 0.94333,0 1.89442,-0.0624 2.80811,-0.21449 l -4.48945,1.19803 v 0 l -1.36137,0.0406 c 0,0 -2.1971,14.37887 -2.46133,26.65236 -0.0162,0.7493 -0.024,1.56669 -0.024,2.44087 -7e-4,13.44895 1.81293,40.34896 1.81293,40.34896 v 0 c -1.19416,0.5013 -2.38584,0.77823 -3.50944,0.91052"
       style="fill:#173c52;fill-opacity:1;fill-rule:nonzero;stroke:none;stroke-width:0.0352778" />
    <path
       id="path253"
       d="m 170.25985,372.88071 c -0.006,-0.001 -0.012,-0.002 -0.0176,-0.003 0.006,0.001 0.0117,0.002 0.0176,0.003 0,0 15.2273,-20.0339 17.30234,-27.44329 v 0 c -2.07504,7.40939 -17.30234,27.44329 -17.30234,27.44329 m -0.018,-0.003 c -0.0406,-0.007 -0.0811,-0.0155 -0.12135,-0.0243 v 0 c 0.0402,0.009 0.0808,0.0169 0.12135,0.0243"
       style="fill:#76acb4;fill-opacity:1;fill-rule:nonzero;stroke:none;stroke-width:0.0352778" />
    <path
       id="path254"
       d="m 170.12051,372.85319 c -0.37289,-0.0808 -0.7299,-0.21943 -1.06927,-0.3997 0.33902,0.18027 0.69603,0.31856 1.06927,0.3997 v 0 m -1.07104,-0.40075 c -0.005,-0.002 -0.01,-0.005 -0.0145,-0.008 0.005,0.003 0.01,0.005 0.0145,0.008 m -0.0155,-0.008 c -0.005,-0.002 -0.009,-0.005 -0.0138,-0.007 0.005,0.002 0.009,0.005 0.0138,0.007 m -0.0205,-0.0113 c -0.002,-10e-4 -0.005,-0.002 -0.007,-0.004 0.002,10e-4 0.005,0.002 0.007,0.004 m -0.0155,-0.008 c -7.1e-4,-7.1e-4 -0.002,-10e-4 -0.002,-0.002 7e-4,7e-4 0.002,0.001 0.002,0.002 m -1.18357,-0.86007 c -0.001,-10e-4 -0.002,-0.002 -0.004,-0.004 0.001,0.001 0.002,0.002 0.004,0.004 m -0.008,-0.007 c -0.004,-0.003 -0.007,-0.006 -0.0102,-0.009 0.004,0.003 0.007,0.006 0.0102,0.009 m -0.0116,-0.0106 c -0.16969,-0.15523 -0.33232,-0.3175 -0.48754,-0.48402 v 0 c 0.15522,0.16652 0.31785,0.32879 0.48754,0.48402"
       style="fill:#263631;fill-opacity:1;fill-rule:nonzero;stroke:none;stroke-width:0.0352778" />
    <path
       id="path255"
       d="m 170.25985,372.88071 c -0.006,-0.001 -0.0116,-0.002 -0.0176,-0.003 -3.5e-4,0 -3.5e-4,0 -3.5e-4,0 -0.0406,-0.007 -0.0811,-0.0155 -0.12135,-0.0243 -0.37324,-0.0811 -0.73025,-0.21943 -1.06927,-0.3997 -7.1e-4,-3.5e-4 -0.001,-7e-4 -0.002,-10e-4 -0.005,-0.002 -0.01,-0.005 -0.0145,-0.008 -3.5e-4,0 -7.1e-4,-3.6e-4 -0.001,-3.6e-4 -0.005,-0.003 -0.009,-0.005 -0.0138,-0.007 -0.002,-10e-4 -0.005,-0.002 -0.007,-0.004 -0.002,-0.001 -0.005,-0.002 -0.007,-0.004 -0.003,-10e-4 -0.006,-0.003 -0.009,-0.005 -7.1e-4,-7.1e-4 -0.002,-10e-4 -0.002,-0.002 -0.42298,-0.23178 -0.81809,-0.52847 -1.1811,-0.85831 -0.001,-10e-4 -0.002,-0.002 -0.004,-0.004 -0.001,-0.001 -0.002,-0.002 -0.004,-0.004 -0.004,-0.003 -0.007,-0.006 -0.0102,-0.009 -3.6e-4,-7.1e-4 -0.001,-10e-4 -0.001,-0.002 -0.16969,-0.15523 -0.33232,-0.3175 -0.48719,-0.48402 3.10409,-4.03648 13.93896,-18.37937 16.14629,-24.75512 1.34725,-0.20743 2.7506,-0.49107 4.10809,-0.8703 -2.07504,7.40939 -17.30234,27.44329 -17.30234,27.44329 M 174.713,317.9916 c -0.84173,-2.28494 -1.38606,-3.74756 -1.38606,-3.74756 l -0.42087,-4.37233 c 0.50836,-0.11183 1.01812,-0.23671 1.52788,-0.37076 0.0935,2.83421 0.18733,5.68748 0.27905,8.49065"
       style="fill:#173c52;fill-opacity:1;fill-rule:nonzero;stroke:none;stroke-width:0.0352778" />
    <path
       id="path256"
       d="m 168.15518,310.45915 c -2.24472,0 -5.22746,-0.42616 -7.93503,-0.95885 -7.1e-4,-0.51047 -0.002,-1.01212 -0.002,-1.50672 1.50354,0.57185 3.99203,1.27141 6.96419,1.27177 1.72967,0 3.62267,-0.23707 5.582,-0.87419 l 0.14252,1.48237 c -1.51906,0.3355 -3.02401,0.5581 -4.46087,0.58315 -0.0952,0.002 -0.19227,0.002 -0.29034,0.002"
       style="fill:#14364b;fill-opacity:1;fill-rule:nonzero;stroke:none;stroke-width:0.0352778" />
    <path
       id="path257"
       d="m 172.90639,309.87353 -0.14252,-1.48237 c 0.48825,-0.15875 0.98002,-0.34219 1.47461,-0.55315 0.0462,-0.0198 0.0924,-0.0395 0.13864,-0.0596 0.0191,0.57291 0.0381,1.14899 0.0572,1.72438 -0.50976,0.13405 -1.01952,0.25893 -1.52788,0.37076"
       style="fill:#0f2332;fill-opacity:1;fill-rule:nonzero;stroke:none;stroke-width:0.0352778" />
    <path
       id="path258"
       d="m 158.6704,307.26933 c 0.0593,0.15452 8.52593,4.57024 17.24201,-0.24906 l -2.7058,-47.22143 -14.04373,0.41628 -0.49248,47.05421"
       style="fill:#cfcea7;fill-opacity:1;fill-rule:nonzero;stroke:none;stroke-width:0.0352778" />
    <path
       id="path259"
       d="m 163.54085,268.30855 c -0.95815,-1.1804 -1.85526,-1.78365 -2.66806,-3.06282 -0.20743,-0.32667 -0.381,-0.65899 -0.52952,-0.99695 3.5e-4,-0.13582 0.001,-0.27234 0.003,-0.40816 0.008,-0.69497 0.0176,-1.38854 0.0194,-2.08139 0.47625,1.69933 1.56809,4.18888 2.97356,4.79143 0,0 0.0896,-0.0988 0.2353,-0.27164 0.17392,0.39017 0.37219,0.75812 0.58244,1.09961 -0.22084,0.3115 -0.42968,0.6223 -0.6163,0.92992 m 6.30378,-0.68157 c -0.2413,-0.41557 -0.5281,-0.76235 -0.84031,-1.07597 0.067,-0.19614 0.12594,-0.39053 0.17709,-0.58208 0.23213,0.24976 0.38241,0.39758 0.38241,0.39758 1.40653,-0.7045 2.36467,-3.38738 2.71604,-5.11034 0.0751,0.8897 0.14852,1.94839 0.22154,3.11961 -0.7493,1.32362 -1.48519,2.31599 -2.65677,3.2512"
       style="fill:#c0bf93;fill-opacity:1;fill-rule:nonzero;stroke:none;stroke-width:0.0352778" />
    <path
       id="path260"
       d="m 159.16288,260.21512 0.96308,-0.0293 c 0,3.5e-4 0,3.5e-4 0,7.1e-4 l -0.96308,0.0286"
       style="fill:#ebead8;fill-opacity:1;fill-rule:nonzero;stroke:none;stroke-width:0.0352778" />
    <path
       id="path261"
       d="m 160.64631,308.14916 c -0.15064,-0.0529 -0.29352,-0.10513 -0.42863,-0.15664 -0.012,-6.71442 -0.0201,-11.85051 -0.019,-12.71622 0.001,-0.95215 -0.55386,-5.26662 -1.29187,-10.57769 l 0.25612,-24.48349 0.96308,-0.0286 c -3.5e-4,0 -3.5e-4,0 -3.5e-4,0 l -0.89253,0.0265 c 0.34255,1.41747 0.55104,2.76578 1.11019,4.03578 -0.009,2.28424 0.11677,4.56953 0.19015,6.85236 0.16333,5.08282 0.31609,10.16317 0.33584,15.24847 0.0307,7.26722 -0.1404,14.53374 -0.22295,21.79955"
       style="fill:#c0bf93;fill-opacity:1;fill-rule:nonzero;stroke:none;stroke-width:0.0352778" />
    <path
       id="path262"
       d="m 160.34327,264.24878 c -0.55915,-1.27 -0.76764,-2.61831 -1.11019,-4.03578 l 0.89253,-0.0265 c -0.006,0.0226 -0.0106,0.0434 -0.0134,0.0635 -0.0335,0.24553 0.0582,0.81068 0.25365,1.50918 -0.002,0.69285 -0.0113,1.38642 -0.0194,2.08139 -0.002,0.13582 -0.003,0.27234 -0.003,0.40816"
       style="fill:#b2b181;fill-opacity:1;fill-rule:nonzero;stroke:none;stroke-width:0.0352778" />
    <path
       id="path263"
       d="m 174.23848,307.83801 c 0.0459,-0.0198 0.0924,-0.0399 0.13864,-0.0596 v 0 c -0.0462,0.0201 -0.0924,0.0399 -0.13864,0.0596"
       style="fill:#0e202c;fill-opacity:1;fill-rule:nonzero;stroke:none;stroke-width:0.0352778" />
    <path
       id="path264"
       d="m 172.79315,308.38093 c -0.67063,-13.38403 -0.24941,-26.76031 -0.0713,-40.15599 0.17815,3.28789 0.35878,6.91057 0.55845,10.03723 0.20708,3.25897 0.64629,15.94344 1.09678,29.51622 -0.0462,0.0197 -0.0928,0.0399 -0.13864,0.0596 -0.48471,0.20637 -0.96696,0.38629 -1.44533,0.54292"
       style="fill:#c0bf93;fill-opacity:1;fill-rule:nonzero;stroke:none;stroke-width:0.0352778" />
    <path
       id="path265"
       d="m 164.95231,267.62698 c 0,0 -2.60138,21.48664 -2.02812,32.58503 l 4.84929,5.17842 4.71381,-6.04555 c 0,0 -3.66183,-26.47633 -4.89197,-30.6832 l -2.64301,-1.0347"
       style="fill:#f06e25;fill-opacity:1;fill-rule:nonzero;stroke:none;stroke-width:0.0352778" />
    <path
       id="path266"
       d="m 138.10416,315.5836 c 0,0 -0.75001,6.57577 1.1938,8.5097 0,0 0.4258,1.9812 1.43651,2.47686 0,0 0.37006,1.87395 1.62877,1.89018 0,0 0.85761,1.54622 1.63795,-0.0483 0.77858,-1.59703 1.68981,-9.48972 1.68981,-9.48972 l -7.58684,-3.33869"
       style="fill:#f1cead;fill-opacity:1;fill-rule:nonzero;stroke:none;stroke-width:0.0352778" />
    <path
       id="path267"
       d="m 143.40041,319.20098 c 0,0 -0.0339,0.1457 -0.0967,0.39546 -0.0667,0.25012 -0.14217,0.61066 -0.23954,1.04035 -0.0935,0.42862 -0.20108,0.93027 -0.30162,1.46861 -0.0561,0.26987 -0.09,0.54963 -0.1457,0.83079 -0.043,0.28505 -0.09,0.57362 -0.12594,0.86254 -0.0325,0.28822 -0.0808,0.57679 -0.1009,0.86254 -0.0198,0.28575 -0.061,0.56551 -0.0681,0.83891 -0.009,0.27234 -0.036,0.53552 -0.0325,0.78634 0.002,0.25012 -0.018,0.48825 -0.005,0.70591 0.0109,0.21802 0.0127,0.41981 0.0145,0.59972 0.007,0.17851 0.0289,0.33338 0.0377,0.46214 0.0215,0.25506 0.0268,0.40605 0.0268,0.40605 0,0 -0.0413,-0.14005 -0.10795,-0.393 -0.0699,-0.24976 -0.15099,-0.61207 -0.21202,-1.05798 -0.0399,-0.21907 -0.0466,-0.46037 -0.0684,-0.71719 -0.0233,-0.25471 -0.0215,-0.52494 -0.0198,-0.80398 -0.005,-0.28011 0.0127,-0.56798 0.0325,-0.86113 0.0145,-0.29316 0.0593,-0.58773 0.0882,-0.88442 0.0843,-0.58808 0.1905,-1.17404 0.32702,-1.7152 0.13159,-0.54117 0.28399,-1.03717 0.43145,-1.45627 0.29492,-0.83961 0.56621,-1.37019 0.56621,-1.37019"
       style="fill:#b88459;fill-opacity:1;fill-rule:nonzero;stroke:none;stroke-width:0.0352778" />
    <path
       id="path268"
       d="m 141.02763,318.69615 c 0,0 -0.0416,0.49425 -0.0988,1.23755 -0.0311,0.36865 -0.0688,0.79904 -0.10619,1.25942 -0.0395,0.46037 -0.0614,0.95109 -0.10266,1.44109 -0.007,0.24448 -0.018,0.48895 -0.0268,0.73061 -0.002,0.2413 -0.0307,0.47872 -0.0289,0.70802 0.0109,0.45932 0.002,0.88971 0.002,1.25907 0.0325,0.36512 0.0413,0.67521 0.0579,0.89182 0.0106,0.21766 0.0106,0.34643 0.0106,0.34643 0,0 -0.036,-0.12065 -0.0917,-0.3302 -0.0508,-0.21167 -0.13653,-0.51506 -0.2159,-0.88477 -0.054,-0.37042 -0.0931,-0.80716 -0.13265,-1.27635 -0.013,-0.23389 -0.01,-0.47555 -0.006,-0.72284 0.006,-0.24554 0.009,-0.49636 0.0141,-0.74613 0.0487,-0.49636 0.0773,-0.99589 0.15487,-1.45803 0.072,-0.46178 0.14393,-0.89253 0.23354,-1.25589 0.16545,-0.72989 0.33655,-1.1998 0.33655,-1.1998"
       style="fill:#b88459;fill-opacity:1;fill-rule:nonzero;stroke:none;stroke-width:0.0352778" />
    <path
       id="path269"
       d="m 139.53326,317.79516 c 0,0 -0.004,0.10089 -0.0106,0.27623 -0.009,0.17321 -0.0201,0.42156 -0.0342,0.71966 -0.0378,0.58702 -0.0882,1.37442 -0.13829,2.15936 -0.0233,0.39017 -0.0325,0.7814 -0.0575,1.1497 0,0.36512 -0.005,0.70767 -0.0198,1.00436 0.0198,0.29033 0.0198,0.53939 0.025,0.71261 0.005,0.17392 0,0.27622 0,0.27622 0,0 -0.12242,-0.37465 -0.26459,-0.96731 -0.0409,-0.29669 -0.079,-0.64735 -0.11112,-1.02306 -0.009,-0.37641 -0.006,-0.77787 0.009,-1.17757 0.0399,-0.39652 0.0614,-0.79657 0.12594,-1.16699 0.0575,-0.36936 0.11853,-0.71297 0.19403,-1.0033 0.13864,-0.5842 0.28222,-0.95991 0.28222,-0.95991"
       style="fill:#b88459;fill-opacity:1;fill-rule:nonzero;stroke:none;stroke-width:0.0352778" />
    <path
       id="path270"
       d="m 155.27597,259.81648 c 0,0 -8.28111,1.87008 -8.46279,2.8194 -0.18168,0.94933 -5.99793,38.29333 -7.87294,44.01009 -1.87537,5.71782 -3.27448,9.8485 -2.95275,10.10179 0.3242,0.25259 6.93491,3.98851 9.4428,3.70558 0,0 -3.89078,20.91055 -3.91054,24.96609 0,0 10.928,3.10197 18.7706,1.19274 0,0 -0.0956,-48.50448 -0.0917,-51.33587 0.004,-2.83352 -4.92266,-35.45982 -4.92266,-35.45982"
       style="fill:#6b2c16;fill-opacity:1;fill-rule:nonzero;stroke:none;stroke-width:0.0352778" />
    <path
       id="path271"
       d="m 148.90798,269.04727 c 0,0 0.0159,0.80609 0.0444,2.21791 0.0201,1.41182 0.0508,3.42829 0.0868,5.84764 0.0212,2.42006 0.0462,5.24369 0.0755,8.26735 0.001,0.75742 0.007,1.52577 0.0102,2.30364 0.002,0.38982 0.004,0.78105 0.005,1.17369 -0.004,0.40923 -0.0247,0.79305 -0.0374,1.19416 -0.0614,1.58538 -0.0896,3.19722 -0.23565,4.81118 -0.12736,1.61184 -0.24765,3.22509 -0.43145,4.80377 -0.16898,1.57974 -0.32173,3.13549 -0.51788,4.63692 -0.18873,1.50212 -0.36124,2.95486 -0.56797,4.32682 -0.19756,1.37265 -0.38629,2.66876 -0.56056,3.86715 -0.35984,2.39395 -0.70344,4.38361 -0.94263,5.77426 -0.11677,0.69568 -0.23177,1.23931 -0.29809,1.61079 -0.0706,0.37147 -0.10831,0.57079 -0.10831,0.57079 0,0 0.11889,-0.79904 0.32385,-2.19463 0.0988,-0.69991 0.21732,-1.54764 0.35596,-2.5213 0.12947,-0.97367 0.27516,-2.07398 0.43497,-3.27237 0.15311,-1.20015 0.31856,-2.49978 0.49283,-3.87526 0.18133,-1.37337 0.32209,-2.82822 0.50871,-4.32788 0.18697,-1.50072 0.32914,-3.05612 0.49106,-4.6348 0.17251,-1.57868 0.28046,-3.18311 0.399,-4.78895 0.15839,-1.59879 0.19579,-3.21557 0.26634,-4.80202 0.0141,-0.39299 0.0374,-0.79904 0.0427,-1.17757 0.002,-0.3937 0.002,-0.78493 0.002,-1.17404 0.004,-0.77753 0.004,-1.54693 0.004,-2.30329 0.0198,-3.02401 0.036,-5.84835 0.0505,-8.2677 0.0286,-2.42006 0.054,-4.43653 0.0702,-5.84835 0.0229,-1.41182 0.036,-2.21791 0.036,-2.21791"
       style="fill:#311c13;fill-opacity:1;fill-rule:nonzero;stroke:none;stroke-width:0.0352778" />
    <path
       id="path272"
       d="m 162.28249,257.56964 c 0,0 -0.27305,-0.50906 -0.95285,-0.49565 -0.68333,0.0134 -8.37107,2.4003 -8.37107,2.4003 0,0 1.94522,7.27357 3.87068,12.09216 l -4.02908,9.13765 c 0,0 6.80544,13.79644 7.3967,16.08491 0,0 0.0286,-22.05391 0.003,-26.43999 -0.025,-4.38715 -0.59443,-9.77795 0.34572,-10.86838 0.94192,-1.09044 1.73673,-1.911 1.73673,-1.911"
       style="fill:#a64223;fill-opacity:1;fill-rule:nonzero;stroke:none;stroke-width:0.0352778" />
    <path
       id="path273"
       d="m 169.35533,261.96807 c 0,0 1.08409,4.79143 -2.7813,8.19221 0,0 -4.19065,-3.27237 -3.59057,-7.65387 0,0 4.54519,0.28611 6.37187,-0.53834"
       style="fill:#ee5527;fill-opacity:1;fill-rule:nonzero;stroke:none;stroke-width:0.0352778" />
    <path
       id="path274"
       d="m 164.43443,256.31269 -0.87383,0.0258 c 0,0 -3.33304,3.06952 -3.4484,3.9116 -0.11501,0.84313 1.24425,5.45041 3.22721,6.30061 0,0 2.36996,-2.62114 2.59609,-4.44606 0.22508,-1.82422 -1.50107,-5.79191 -1.50107,-5.79191"
       style="fill:#8a8e78;fill-opacity:1;fill-rule:nonzero;stroke:none;stroke-width:0.0352778" />
    <path
       id="path275"
       d="m 167.86485,256.21109 0.87383,-0.0261 c 0,0 3.50943,2.86667 3.67312,3.70099 0.16545,0.83326 -0.9204,5.51497 -2.84798,6.48053 0,0 -2.52024,-2.4765 -2.85326,-4.28449 -0.33232,-1.80799 1.15429,-5.87093 1.15429,-5.87093"
       style="fill:#8a8e78;fill-opacity:1;fill-rule:nonzero;stroke:none;stroke-width:0.0352778" />
    <path
       id="path276"
       d="m 163.54085,255.63995 0.0864,2.89807 c 0,0 0.0141,1.64218 0.96379,3.04694 0.95109,1.40511 2.4197,1.43122 3.17676,-0.0935 0.76059,-1.52541 1.0735,-2.7238 1.05551,-3.31682 -0.0162,-0.59337 -0.0811,-2.72415 -0.0811,-2.72415 l -5.20135,0.18945"
       style="fill:#eabd92;fill-opacity:1;fill-rule:nonzero;stroke:none;stroke-width:0.0352778" />
    <path
       id="path277"
       d="m 166.23219,262.63694 c -0.13159,0 -0.26458,-0.0187 -0.39688,-0.0561 -0.4445,-0.12559 -0.88194,-0.46073 -1.24424,-0.99589 -0.94792,-1.40229 -0.96379,-3.04024 -0.96379,-3.04694 v 0 0 0 l -0.0441,-1.47179 c 0.34996,0.0384 0.69462,0.0653 1.03117,0.079 0.12947,0.005 0.26353,0.008 0.40111,0.008 1.05622,0 2.34209,-0.15205 3.76484,-0.43639 0.0173,0.57256 0.0353,1.18181 0.043,1.45803 3.6e-4,0.0162 7.1e-4,0.0328 7.1e-4,0.0501 -3.5e-4,0.60854 -0.31644,1.78294 -1.05622,3.26672 -0.25153,0.50694 -0.58173,0.84243 -0.94544,1.01283 -0.1898,0.0889 -0.38876,0.13264 -0.5902,0.13264"
       style="fill:#e5ae80;fill-opacity:1;fill-rule:nonzero;stroke:none;stroke-width:0.0352778" />
    <path
       id="path278"
       d="m 172.13487,257.2726 c 0,0 -0.72637,-0.0836 -0.22437,1.26506 0.5013,1.34832 0.87912,12.03361 1.36984,19.72451 0.48895,7.69268 2.27083,67.89703 2.43981,68.35529 0.17251,0.45861 12.12144,0.31468 17.45403,-3.72145 0,0 -6.96524,-58.24468 -8.5097,-67.90232 0,0 6.63998,7.05167 6.72818,7.64399 0.0878,0.59161 -4.25239,7.50076 -4.25239,7.50076 0,0 -0.22648,0.67169 0.59725,1.27494 0.82127,0.60501 3.98392,4.70817 4.35434,7.77169 0,0 0.0773,0.20567 0.67451,-0.78951 0.60008,-0.99695 11.11074,-16.72167 8.98561,-20.0145 -2.12514,-3.29212 -13.78656,-17.06739 -15.88629,-17.14571 -2.09974,-0.0762 -4.1335,-0.33125 -4.1335,-0.33125 l 0.39546,-0.78105 c 0,0 -8.36718,-2.82787 -9.99278,-2.85045"
       style="fill:#6b2c16;fill-opacity:1;fill-rule:nonzero;stroke:none;stroke-width:0.0352778" />
    <path
       id="path279"
       d="m 183.83227,267.62698 c 0,0 0.0321,0.12312 0.0808,0.33902 0.0413,0.21625 0.11501,0.52388 0.18344,0.89606 0.14041,0.7433 0.29105,1.7406 0.40817,2.73932 0.115,0.99942 0.19791,2.00342 0.23354,2.76048 0.0197,0.37783 0.0183,0.69498 0.0254,0.91546 0.004,0.22155 0,0.34784 0,0.34784 0,0 -0.0342,-0.12241 -0.0808,-0.33831 -0.0434,-0.21767 -0.11853,-0.52494 -0.18344,-0.89712 -0.14182,-0.7433 -0.2914,-1.73954 -0.40993,-2.73896 -0.11501,-0.99978 -0.19579,-2.00378 -0.23001,-2.76049 -0.0219,-0.37712 -0.0201,-0.69533 -0.0289,-0.91546 -0.002,-0.22119 0.002,-0.34784 0.002,-0.34784"
       style="fill:#311c13;fill-opacity:1;fill-rule:nonzero;stroke:none;stroke-width:0.0352778" />
    <path
       id="path280"
       d="m 176.39783,273.15536 5.33436,-12.25162 0.39546,-0.78034 c 0,0 -8.36718,-2.82822 -9.99278,-2.8508 0,0 -1.31234,-0.19861 -0.28575,1.77165 0.66322,1.27706 0.9405,11.52702 1.43122,19.21828 0.15099,2.38654 0.42756,9.83086 0.74224,18.97521 l 5.76051,-20.6876 -3.38526,-3.39478"
       style="fill:#a64223;fill-opacity:1;fill-rule:nonzero;stroke:none;stroke-width:0.0352778" />
    <path
       id="path281"
       d="m 192.38502,228.16596 c 0,0 -1.99214,1.40406 -3.22545,1.57692 0,0 4.59705,-5.05883 1.44357,-12.43895 0,0 -0.97967,2.71287 -0.17251,5.57037 0,0 -5.6956,-3.19264 -5.30543,-9.7402 0,0 -1.44603,3.3655 -4.66971,3.41136 0,0 1.05551,-1.35466 1.41499,-3.10444 0,0 -7.14834,7.50711 -16.1089,1.98261 0,0 6.42726,-0.83608 8.01512,-4.50497 0,0 -4.13385,4.69194 -11.45294,2.31069 0,0 3.36586,-0.82197 5.2571,-3.03036 0,0 -9.65482,5.47511 -16.18121,2.61056 0,0 -4.04707,2.58938 -7.14693,2.01788 0,0 3.16442,9.26395 2.01754,13.38792 0,0 -0.33832,4.74486 -1.61114,8.11389 -1.26929,3.36903 -2.66453,7.21784 0.76271,11.34181 3.423,4.12609 12.68201,9.20961 19.19252,9.4742 6.51193,0.26141 23.35671,-6.09882 24.85249,-13.51704 1.20297,-5.97958 1.26753,-6.87211 1.24778,-6.99558 l -0.0123,-0.0176 c 0,0 0.38453,-5.59153 1.68275,-8.44903"
       style="fill:#f1cead;fill-opacity:1;fill-rule:nonzero;stroke:none;stroke-width:0.0352778" />
    <path
       id="path282"
       d="m 146.22193,228.77274 c 0,0 -1.11302,-1.76389 -3.52073,-0.56797 -2.407,1.19944 -2.69134,5.91255 -1.4418,7.4295 1.24954,1.51694 2.87867,2.12725 2.87867,2.12725 0,0 1.50636,-2.8822 2.08386,-8.98878"
       style="fill:#eabd92;fill-opacity:1;fill-rule:nonzero;stroke:none;stroke-width:0.0352778" />
    <path
       id="path283"
       d="m 162.81095,233.94446 c 0,0 -0.15452,0.0953 -0.42616,0.26106 -0.27128,0.16228 -0.64699,0.41275 -1.08549,0.72319 -0.43357,0.31045 -0.93169,0.70909 -1.33456,1.21003 -0.19579,0.24695 -0.36125,0.53975 -0.37888,0.82903 -0.0219,0.28575 0.13617,0.55386 0.38805,0.75847 0.26811,0.22225 0.54645,0.39864 0.86148,0.53975 0.30904,0.13758 0.63112,0.24342 0.94898,0.31397 0.6417,0.14111 1.26576,0.18698 1.79987,0.16934 0.53552,-0.0212 0.98496,-0.06 1.29611,-0.10584 0.31291,-0.0459 0.49106,-0.0811 0.49106,-0.0811 0,0 -0.16721,0.0706 -0.47448,0.15875 -0.30586,0.0847 -0.74825,0.20814 -1.29682,0.26459 -0.54433,0.0564 -1.19909,0.0882 -1.88947,-0.0388 -0.34537,-0.0635 -0.69921,-0.15875 -1.04105,-0.31044 -0.33796,-0.14464 -0.67945,-0.34925 -0.96732,-0.59267 -0.30198,-0.24694 -0.56268,-0.66675 -0.51788,-1.10419 0.0399,-0.43392 0.27376,-0.762 0.49813,-1.03364 0.23212,-0.27164 0.49812,-0.48684 0.75141,-0.67734 0.25365,-0.1905 0.50377,-0.35277 0.73907,-0.49388 0.4692,-0.28223 0.88477,-0.4692 1.17616,-0.59973 0.28893,-0.127 0.46179,-0.1905 0.46179,-0.1905"
       style="fill:#b88459;fill-opacity:1;fill-rule:nonzero;stroke:none;stroke-width:0.0352778" />
    <path
       id="path284"
       d="m 156.75023,243.94571 c 0,0 -0.0519,0.067 -0.13653,0.20462 -0.0811,0.13758 -0.19438,0.34572 -0.28927,0.62441 -0.0921,0.27517 -0.15664,0.65264 -0.002,1.016 0.14746,0.36689 0.5267,0.64911 0.98919,0.82903 0.22084,0.10583 0.48859,0.14817 0.74224,0.21872 0.27517,0.0494 0.55704,0.10936 0.8449,0.14817 0.57539,0.0882 1.19028,0.16228 1.82704,0.21167 0.31644,0.0317 0.6417,0.0494 0.96873,0.06 0.32914,0.0212 0.66181,0.0247 0.99624,0.0212 0.3362,0.007 0.6724,-0.004 1.01212,-0.0247 0.3362,-0.0106 0.67593,-0.0353 1.01212,-0.0741 0.67981,-0.0459 1.35396,-0.14817 2.01189,-0.26106 0.32738,-0.0706 0.65264,-0.13405 0.97297,-0.20108 0.31644,-0.0847 0.629,-0.17286 0.93627,-0.254 0.31115,-0.0741 0.59901,-0.20461 0.89217,-0.29281 0.29104,-0.0917 0.57679,-0.18697 0.84491,-0.30691 0.26811,-0.11289 0.53234,-0.22225 0.78563,-0.32809 0.24977,-0.11289 0.48366,-0.24341 0.71191,-0.3563 0.46037,-0.22225 0.86148,-0.4692 1.21743,-0.68439 0.1778,-0.10936 0.34502,-0.21167 0.49989,-0.30339 0.14534,-0.10583 0.28011,-0.20461 0.40076,-0.29281 0.48895,-0.34572 0.76764,-0.5468 0.76764,-0.5468 0,0 -0.2607,0.22225 -0.71931,0.61383 -0.11501,0.0952 -0.24448,0.20461 -0.38277,0.32103 -0.14922,0.1023 -0.30938,0.21519 -0.48189,0.33514 -0.17251,0.12347 -0.35596,0.25047 -0.54857,0.38805 -0.19403,0.13406 -0.41875,0.24342 -0.63959,0.37395 -0.2286,0.127 -0.45861,0.26811 -0.70873,0.39511 -0.25329,0.11642 -0.51576,0.23989 -0.78564,0.36689 -0.26634,0.13405 -0.55209,0.23989 -0.8449,0.34925 -0.29492,0.10583 -0.58984,0.23283 -0.90276,0.3175 -0.31432,0.0882 -0.63112,0.17639 -0.9525,0.27164 -0.32561,0.0705 -0.65828,0.14464 -0.99095,0.21872 -0.66887,0.12347 -1.35361,0.23636 -2.04435,0.2928 -0.34501,0.0353 -0.69179,0.0529 -1.03716,0.06 -0.34537,0.0176 -0.68863,0.0247 -1.02835,0.0141 -0.33973,-0.004 -0.67945,-0.0106 -1.01247,-0.0353 -0.33232,-0.0141 -0.66323,-0.0388 -0.98319,-0.0741 -0.64735,-0.0529 -1.26577,-0.16228 -1.85174,-0.27517 -0.29315,-0.0529 -0.57008,-0.127 -0.84172,-0.18344 -0.27693,-0.0917 -0.54116,-0.14464 -0.78211,-0.26812 -0.48542,-0.20461 -0.90241,-0.55738 -1.04105,-0.98777 -0.14358,-0.43039 -0.0413,-0.82198 0.072,-1.10067 0.11324,-0.28222 0.25365,-0.47625 0.34748,-0.61031 0.0949,-0.127 0.15417,-0.1905 0.15417,-0.1905"
       style="fill:#b88459;fill-opacity:1;fill-rule:nonzero;stroke:none;stroke-width:0.0352778" />
    <path
       id="path285"
       d="m 172.70496,243.46594 c 0,0 0.15839,-0.10231 0.42051,-0.18345 0.13158,-0.0388 0.2861,-0.0776 0.45508,-0.0952 0.17075,-0.0247 0.35595,-0.0247 0.54504,-0.0106 0.18486,0.0247 0.37536,0.06 0.54822,0.14817 0.0843,0.0423 0.1651,0.0847 0.23213,0.15522 0.0716,0.0529 0.12029,0.13053 0.15769,0.20108 0.0487,0.0635 0.0487,0.14464 0.0614,0.20461 0.018,0.06 -0.002,0.11289 -0.007,0.15522 -0.0183,0.0811 -0.0325,0.12348 -0.0325,0.12348 0,0 -0.0201,-0.0423 -0.0522,-0.11642 -0.0141,-0.0353 -0.025,-0.0776 -0.0614,-0.11289 -0.0339,-0.0353 -0.0505,-0.0847 -0.10231,-0.10936 -0.0808,-0.0741 -0.19579,-0.11994 -0.3309,-0.15875 -0.0649,-0.0247 -0.14747,-0.0247 -0.21732,-0.0459 -0.0794,-0.0106 -0.15839,-0.0247 -0.23918,-0.0282 -0.16192,-0.0176 -0.32914,-0.0282 -0.4893,-0.0388 -0.15981,-0.0106 -0.3108,-0.0212 -0.44203,-0.0317 -0.26247,-0.0212 -0.44591,-0.0564 -0.44591,-0.0564"
       style="fill:#b88459;fill-opacity:1;fill-rule:nonzero;stroke:none;stroke-width:0.0352778" />
    <path
       id="path286"
       d="m 208.14396,214.50288 c 0,0 -3.01731,1.16064 -4.84012,-0.42333 0,0 1.78894,-0.24695 3.07058,-2.21192 0,0 -3.21839,0.15522 -5.10222,-3.61597 -1.88454,-3.7712 -6.00851,-8.81945 -9.88166,-8.49489 0,0 1.32856,-1.74625 3.68582,-1.75331 0,0 -7.19526,-5.58447 -13.49163,-1.63689 0,0 1.55539,-4.32153 1.22978,-4.85069 -0.32526,-0.52917 -3.96946,4.21569 -3.96946,4.21569 0,0 -0.20178,-4.62844 -6.604,-5.23169 0,0 3.25755,2.83986 3.23639,4.84364 0,0 -4.34728,-4.05695 -13.28667,-3.40784 -2.76719,0.20461 -5.48358,0.85373 -7.97031,2.09903 -1.62878,0.81492 -3.18065,1.93675 -4.45523,3.23145 -1.61431,1.64041 -3.49144,3.16441 -5.67796,3.97227 -1.5621,0.57503 -3.70205,1.28059 -5.31107,0.52211 -0.87701,-0.41275 -1.76354,-1.41816 -2.14665,-2.30716 0,0 -0.71191,4.31094 3.64102,4.99533 0,0 -6.36129,2.39184 -6.39163,8.39964 0,0 1.85349,-3.54542 5.70089,-3.66183 0,0 -4.76039,3.73591 -3.45158,10.04358 0,0 1.38959,-3.49603 3.75602,-4.16983 0,0 -1.6076,4.45558 0.77823,7.22842 0,0 -0.018,-1.97203 1.30352,-3.04801 0,0 -0.56621,3.97581 4.30424,8.97467 1.14688,-4.12397 -2.01754,-13.38792 -2.01754,-13.38792 3.09986,0.5715 7.14693,-2.01788 7.14693,-2.01788 6.52639,2.86455 16.18121,-2.61056 16.18121,-2.61056 -1.89124,2.20839 -5.2571,3.03036 -5.2571,3.03036 7.31909,2.38125 11.45294,-2.31069 11.45294,-2.31069 -1.58786,3.66889 -8.01512,4.50497 -8.01512,4.50497 8.96056,5.5245 16.1089,-1.98261 16.1089,-1.98261 -0.35948,1.74978 -1.41499,3.10444 -1.41499,3.10444 3.22368,-0.0459 4.66971,-3.41136 4.66971,-3.41136 -0.39017,6.54756 5.30543,9.7402 5.30543,9.7402 -0.80716,-2.8575 0.17251,-5.57037 0.17251,-5.57037 3.15348,7.38012 -1.44357,12.43895 -1.44357,12.43895 1.23331,-0.17286 3.22545,-1.57692 3.22545,-1.57692 -1.29822,2.8575 -1.68134,8.4455 -1.67746,8.4455 0.14393,-0.067 7.09824,-3.47486 9.17117,-6.9603 2.09832,-3.52072 1.25835,-6.29003 1.25835,-6.29003 0,0 2.72556,2.286 2.22603,5.99017 0,0 2.41794,-2.35656 1.71697,-6.62164 -0.70097,-4.26861 -3.50273,-5.89492 -3.50273,-5.89492 0,0 4.3748,1.10419 6.56661,-2.33186"
       style="fill:#6f674c;fill-opacity:1;fill-rule:nonzero;stroke:none;stroke-width:0.0352778" />
    <path
       id="path287"
       d="m 146.91549,211.1268 c -0.0988,0.22225 -0.22613,0.42686 -0.35913,0.63147 -0.13335,0.20461 -0.28257,0.39864 -0.44062,0.58208 -0.15663,0.18697 -0.32914,0.36336 -0.51082,0.52917 -0.09,0.0847 -0.18309,0.1658 -0.28046,0.23989 -0.0988,0.0741 -0.19085,0.15875 -0.29669,0.22577 l -0.30903,0.20462 -0.32914,0.17638 c -0.10795,0.0635 -0.22648,0.10584 -0.34184,0.15523 -0.11501,0.0494 -0.22825,0.0988 -0.35031,0.13052 l -0.3616,0.10231 c -0.12418,0.0247 -0.248,0.0423 -0.37006,0.0635 -0.12242,0.0212 -0.25012,0.0317 -0.37606,0.0317 l -0.37218,0.007 0.0903,-0.33162 c 0.32349,0.20109 0.66675,0.39159 1.01,0.56092 l 0.26282,0.127 c 0.0896,0.0423 0.1778,0.0811 0.26952,0.11289 0.09,0.0318 0.17992,0.0741 0.2734,0.0953 l 0.28611,0.0811 -0.29916,-0.0106 c -0.1023,-0.004 -0.19579,-0.0282 -0.29633,-0.0459 -0.19791,-0.0318 -0.39017,-0.0882 -0.58067,-0.14463 -0.38136,-0.127 -0.74436,-0.28575 -1.10385,-0.4692 l -0.55209,-0.27869 0.64205,-0.0529 0.34537,-0.0282 c 0.1143,-0.004 0.22649,-0.0212 0.33761,-0.0494 l 0.33831,-0.067 0.32879,-0.0988 c 0.11148,-0.0282 0.21414,-0.0811 0.32174,-0.11994 0.10618,-0.0459 0.2159,-0.0811 0.31644,-0.13758 l 0.30903,-0.15875 0.29704,-0.17992 c 0.10231,-0.0529 0.19227,-0.127 0.28928,-0.19403 0.0974,-0.0635 0.19085,-0.13405 0.28222,-0.20461 0.0935,-0.0741 0.18874,-0.14111 0.27482,-0.22225 0.0868,-0.0776 0.18026,-0.14817 0.26634,-0.22931 0.34714,-0.32102 0.68333,-0.65969 0.98884,-1.03363"
       style="fill:#494534;fill-opacity:1;fill-rule:nonzero;stroke:none;stroke-width:0.0352778" />
    <path
       id="path288"
       d="m 158.24424,209.27471 c -0.3182,0.20814 -0.6544,0.38453 -0.9906,0.55739 -0.3362,0.17639 -0.68298,0.33161 -1.03364,0.47978 -0.34889,0.14817 -0.70661,0.28222 -1.06468,0.41628 l -0.54434,0.17286 c -0.18168,0.06 -0.36724,0.1023 -0.55209,0.15169 -0.18556,0.0529 -0.37254,0.0953 -0.56127,0.13053 -0.18874,0.0353 -0.37571,0.0776 -0.56621,0.10583 l -0.57362,0.0706 c -0.1905,0.0176 -0.38629,0.0176 -0.57891,0.0282 -0.19226,0.0141 -0.38664,0.004 -0.58067,-0.0141 -0.19438,-0.0141 -0.38841,-0.0176 -0.58067,-0.067 -0.1905,-0.0423 -0.38665,-0.06 -0.57362,-0.12347 l -0.5521,-0.20461 0.2092,-0.18697 c 0.0624,0.19755 0.14711,0.41627 0.25824,0.60677 0.0526,0.10231 0.10618,0.20109 0.17286,0.28928 0.0684,0.0917 0.12206,0.1905 0.19967,0.27517 l 0.22295,0.25753 c 0.0794,0.0776 0.17075,0.14816 0.25859,0.21872 l 0.13159,0.11289 0.15099,0.0811 0.30374,0.17639 -0.33056,-0.12348 -0.1658,-0.0635 -0.14923,-0.0952 c -0.10054,-0.0635 -0.20496,-0.12347 -0.30021,-0.19402 l -0.26811,-0.23989 c -0.0931,-0.0776 -0.15805,-0.17992 -0.23707,-0.27164 -0.079,-0.0917 -0.14358,-0.1905 -0.20849,-0.29281 -0.0681,-0.0988 -0.12629,-0.20461 -0.18168,-0.31397 -0.0593,-0.10583 -0.10583,-0.21167 -0.15452,-0.33514 l -0.10795,-0.27869 0.31786,0.0917 0.52175,0.14817 c 0.17428,0.0529 0.35984,0.0635 0.53764,0.0952 0.1778,0.0388 0.36301,0.0318 0.54433,0.0423 0.1838,0.007 0.36548,0.0176 0.55069,0 0.18344,-0.0106 0.36689,-0.0106 0.54998,-0.0353 l 0.5521,-0.067 c 0.18309,-0.0212 0.36512,-0.0635 0.54821,-0.0952 0.18345,-0.0282 0.36513,-0.0705 0.54469,-0.11289 0.18168,-0.0459 0.36689,-0.0776 0.54469,-0.13052 l 0.54152,-0.14817 c 0.35771,-0.10231 0.72107,-0.20461 1.07526,-0.32808 0.35596,-0.11642 0.70803,-0.25048 1.06433,-0.37748 0.35419,-0.127 0.7045,-0.26811 1.05516,-0.40922"
       style="fill:#494534;fill-opacity:1;fill-rule:nonzero;stroke:none;stroke-width:0.0352778" />
    <path
       id="path289"
       d="m 142.67616,231.60907 c 0,0 0.0575,-0.0494 0.18133,-0.10936 0.12065,-0.0529 0.31115,-0.12347 0.55386,-0.13052 0.12241,0 0.25717,0.0106 0.3937,0.0529 0.0723,0.0141 0.13652,0.0494 0.20672,0.0811 0.0702,0.0282 0.14041,0.0635 0.19968,0.11289 0.0631,0.0494 0.1277,0.0952 0.18909,0.14464 0.054,0.06 0.10971,0.11642 0.16157,0.17992 0.115,0.11994 0.17815,0.26458 0.27164,0.39863 0.0681,0.14112 0.12206,0.28928 0.18344,0.43392 0.0519,0.14111 0.0773,0.29281 0.11465,0.43039 0.0416,0.14111 0.0487,0.27869 0.0649,0.40922 0.0162,0.13053 0.025,0.254 0.0342,0.36689 0.002,0.45508 -0.0356,0.75847 -0.0356,0.75847 0,0 -0.10301,-0.2928 -0.20143,-0.71966 -0.0759,-0.21167 -0.12771,-0.46214 -0.21978,-0.71614 -0.0427,-0.127 -0.09,-0.25753 -0.13829,-0.38806 -0.0575,-0.127 -0.10972,-0.25753 -0.17463,-0.381 -0.0734,-0.10936 -0.12559,-0.24694 -0.21343,-0.34219 -0.0434,-0.0494 -0.0832,-0.0988 -0.12065,-0.1517 -0.0469,-0.0423 -0.0914,-0.0847 -0.13652,-0.127 -0.0434,-0.0494 -0.0952,-0.0776 -0.14394,-0.10936 -0.0483,-0.0317 -0.0956,-0.0705 -0.14922,-0.0882 -0.1009,-0.0494 -0.20496,-0.0811 -0.30374,-0.10584 -0.20179,-0.0388 -0.38488,-0.0388 -0.51435,-0.0282 -0.12771,0.0141 -0.2032,0.0282 -0.2032,0.0282"
       style="fill:#b88459;fill-opacity:1;fill-rule:nonzero;stroke:none;stroke-width:0.0352778" />
    <path
       id="path290"
       d="m 171.80608,223.65041 c 0,0 1.92546,-1.74625 3.98921,-1.32997 2.06058,0.41627 3.2706,1.50636 3.2706,1.50636 0,0 -0.3937,-2.96687 -3.06176,-3.30906 -2.66805,-0.34572 -4.00931,2.41653 -4.19805,3.13267"
       style="fill:#494534;fill-opacity:1;fill-rule:nonzero;stroke:none;stroke-width:0.0352778" />
    <path
       id="path291"
       d="m 153.84687,222.66263 c 0,0 1.92546,-1.74272 3.9878,-1.32997 2.06375,0.41627 3.27201,1.50636 3.27201,1.50636 0,0 -0.39405,-2.96334 -3.06211,-3.30906 -2.66806,-0.34572 -4.00897,2.41653 -4.1977,3.13267"
       style="fill:#494534;fill-opacity:1;fill-rule:nonzero;stroke:none;stroke-width:0.0352778" />
    <path
       id="path292"
       d="m 178.00544,230.04274 c -0.25012,1.60514 -1.02305,2.8187 -1.72649,2.70933 -0.70273,-0.10936 -1.07315,-1.4993 -0.82127,-3.10797 0.248,-1.60514 1.02094,-2.81869 1.72579,-2.70933 0.70344,0.10936 1.07174,1.4993 0.82197,3.10797"
       style="fill:#2e1411;fill-opacity:1;fill-rule:nonzero;stroke:none;stroke-width:0.0352778" />
    <path
       id="path293"
       d="m 176.73756,228.59635 c -0.11677,0.47978 -0.381,0.82903 -0.58949,0.77611 -0.21026,-0.0529 -0.2861,-0.47977 -0.1711,-0.95955 0.11501,-0.47978 0.37959,-0.82903 0.58985,-0.77611 0.2106,0.0529 0.28433,0.47977 0.17074,0.95955"
       style="fill:#ffffff;fill-opacity:1;fill-rule:nonzero;stroke:none;stroke-width:0.0352778" />
    <path
       id="path294"
       d="m 159.40206,228.5646 c -0.24977,1.60867 -1.02306,2.82222 -1.72791,2.71286 -0.70273,-0.10936 -1.07138,-1.50283 -0.82162,-3.10797 0.25012,-1.60514 1.02271,-2.82222 1.72615,-2.70933 0.70485,0.10936 1.07315,1.4993 0.82338,3.10444"
       style="fill:#2e1411;fill-opacity:1;fill-rule:nonzero;stroke:none;stroke-width:0.0352778" />
    <path
       id="path295"
       d="m 158.13276,227.12174 c -0.115,0.47978 -0.37923,0.8255 -0.58808,0.77611 -0.21025,-0.0529 -0.28575,-0.47978 -0.17039,-0.95955 0.11501,-0.47978 0.37924,-0.82903 0.58808,-0.77611 0.20991,0.0494 0.2854,0.47977 0.17039,0.95955"
       style="fill:#ffffff;fill-opacity:1;fill-rule:nonzero;stroke:none;stroke-width:0.0352778" />
    <path
       id="path296"
       d="m 185.29383,235.69424 c 0.061,0.93486 -1.70991,1.80975 -3.95887,1.95792 -2.24578,0.14464 -4.11727,-0.49389 -4.1783,-1.42875 -0.061,-0.93486 1.71168,-1.80975 3.95887,-1.95792 2.24755,-0.14464 4.11904,0.49389 4.1783,1.42875"
       style="fill:#fab9b2;fill-opacity:1;fill-rule:nonzero;stroke:none;stroke-width:0.0352778" />
    <path
       id="path297"
       d="m 156.02386,234.95694 c -0.37536,0.86077 -2.35338,0.82197 -4.41572,-0.0847 -2.06199,-0.90664 -3.42865,-2.33539 -3.05118,-3.19264 0.37571,-0.85725 2.35338,-0.81844 4.41608,0.0847 2.06198,0.90664 3.42829,2.33539 3.05082,3.19264"
       style="fill:#fab9b2;fill-opacity:1;fill-rule:nonzero;stroke:none;stroke-width:0.0352778" />
    <path
       id="path298"
       d="m 6622.23,11070.3 h 12.3789 v 12.199 H 6622.23 Z"
       style="fill:#b89c7d;fill-opacity:1;fill-rule:nonzero;stroke:none"
       transform="matrix(0.03527778,0,0,-0.03527778,-66.660425,601.36607)"
       clip-path="url(#clipPath299)" />
    <path
       id="path300"
       d="m 166.9896,210.8093 c 0.12136,-0.11289 0.23919,-0.22578 0.35313,-0.34573 -0.11394,0.13406 -0.23212,0.25048 -0.35313,0.34573"
       style="fill:#554e38;fill-opacity:1;fill-rule:nonzero;stroke:none;stroke-width:0.0352778" />
    <path
       id="path301"
       d="m 166.37083,213.90316 v 0 c 4.77697,0 7.40587,-2.9845 7.40587,-2.9845 v 0 c 0,0 -2.6289,2.9845 -7.40587,2.9845 m -3.93418,-0.63853 c -0.0145,-0.004 -0.0282,-0.007 -0.043,-0.0106 v 0 c 0.0148,0.004 0.0286,0.007 0.043,0.0106 v 0 m -0.0437,-0.0106 c -3.5e-4,-0.004 0,-0.004 -7.1e-4,-0.004 v 0 c 7.1e-4,0 3.6e-4,0 7.1e-4,0.004 v 0 m -0.0335,-0.0141 c -7e-4,0 -0.001,0 -0.002,0 v 0 c 7e-4,0 0.001,0 0.002,0 v 0 m -0.0356,-0.0106 v 0 0 0 m 11.40954,-2.2225 0.0434,-0.0882 c -0.0117,0.0282 -0.0236,0.0529 -0.0356,0.0811 -0.002,0.004 -0.005,0.004 -0.008,0.007"
       style="fill:#b89c7d;fill-opacity:1;fill-rule:nonzero;stroke:none;stroke-width:0.0352778" />
    <path
       id="path302"
       d="m 166.36801,213.90316 c -1.1811,0 -2.49485,-0.18345 -3.93136,-0.63853 -0.0145,-0.004 -0.0282,-0.007 -0.043,-0.0106 h -7e-4 c -3.5e-4,-0.004 0,-0.004 -7.1e-4,-0.004 -0.0106,-0.004 -0.0219,-0.007 -0.0328,-0.0106 -7e-4,0 -0.001,0 -0.002,0 -0.0113,-0.004 -0.0222,-0.007 -0.0335,-0.0106 0,0 0.60079,0.0917 1.58362,0.0917 2.53013,0 7.59319,-0.59619 11.47093,-4.86127 0,0 -0.56163,1.27 -1.63724,2.54 0.012,-0.0282 0.024,-0.0529 0.0356,-0.0811 v 0 0 0 0 c 0,0 -2.6289,2.9845 -7.40587,2.9845 -0.001,0 -0.002,0 -0.003,0"
       style="fill:#554e38;fill-opacity:1;fill-rule:nonzero;stroke:none;stroke-width:0.0352778" />
    <path
       id="path303"
       d="m 142.10819,221.10688 c -0.23954,-1.17122 -0.14217,-1.8662 -0.14217,-1.8662 v 0 0 l 0.14217,1.8662"
       style="fill:#554e38;fill-opacity:1;fill-rule:nonzero;stroke:none;stroke-width:0.0352778" />
    <path
       id="path304"
       d="m 146.27026,228.21535 c -2.0888,-2.14136 -3.17712,-4.09575 -3.73874,-5.63033 0.56268,1.53458 1.6517,3.48897 3.73874,5.63033 v 0"
       style="fill:#c2beae;fill-opacity:1;fill-rule:nonzero;stroke:none;stroke-width:0.0352778" />
    <path
       id="path305"
       d="m 146.27026,228.21535 v 0 c -2.08704,-2.14136 -3.17606,-4.09575 -3.73874,-5.63033 -0.20179,-0.55034 -0.33549,-1.04775 -0.42333,-1.47814 v 0 l -0.14217,-1.8662 v 0 c 0,0 0.39722,-1.82033 1.41111,-3.67241 0,0 -1.97027,-0.34925 -2.84586,-2.30364 0,0 0.2032,0.0529 0.58561,0.0529 1.20615,-0.004 4.19347,-0.52564 8.17915,-4.87539 0,0 -1.39876,2.30716 -3.33551,4.07458 0.0533,-0.0564 0.10513,-0.11642 0.15522,-0.17639 0.15805,-0.18344 0.30727,-0.37747 0.44062,-0.58208 0.133,-0.20461 0.26035,-0.40922 0.35913,-0.63147 -0.30551,0.37394 -0.6417,0.71261 -0.98884,1.03363 -0.0861,0.0811 -0.17956,0.1517 -0.26634,0.22931 -0.0861,0.0811 -0.18133,0.14817 -0.27482,0.22225 -0.0914,0.0706 -0.18485,0.14111 -0.28222,0.20461 -0.097,0.067 -0.18697,0.14111 -0.28928,0.19403 l -0.29704,0.17992 -0.30903,0.15875 c -0.10054,0.0564 -0.21026,0.0917 -0.31644,0.13758 -0.1076,0.0388 -0.21026,0.0917 -0.32174,0.11994 l -0.32879,0.0988 -0.33831,0.067 c -0.11112,0.0282 -0.22331,0.0459 -0.33761,0.0494 l -0.34537,0.0282 -0.64205,0.0529 0.55209,0.27869 c 0.35949,0.18345 0.72249,0.3422 1.10385,0.4692 0.1905,0.0564 0.38276,0.11288 0.58067,0.14463 0.10054,0.0176 0.19403,0.0423 0.29633,0.0459 l 0.14887,0.004 c 0.13335,0.39511 2.26166,6.76628 2.26131,11.16189 0,0.82198 -0.0748,1.57692 -0.25047,2.20839"
       style="fill:#554e38;fill-opacity:1;fill-rule:nonzero;stroke:none;stroke-width:0.0352778" />
    <path
       id="path306"
       d="m 155.75222,213.63857 v 0 c 0.002,0 0.004,0 0.006,0 -0.002,0 -0.004,0 -0.006,0 m -0.001,0 c -1.47532,0 -2.93017,-0.22577 -4.25979,-0.79022 1.32891,0.56445 2.78482,0.79022 4.25979,0.79022 m -4.28555,-0.8008 c -0.0148,-0.007 -0.0293,-0.0141 -0.0441,-0.0212 0.0148,0.007 0.0293,0.0141 0.0441,0.0212"
       style="fill:#c2beae;fill-opacity:1;fill-rule:nonzero;stroke:none;stroke-width:0.0352778" />
    <path
       id="path307"
       d="m 145.20769,214.90857 v 0 c 2.915,-0.004 6.19196,-2.09902 6.19196,-2.09902 v 0 0 c 0.007,0.004 0.0145,0.004 0.0215,0.007 0.0148,0.007 0.0293,0.0141 0.0441,0.0212 0.008,0.004 0.0173,0.007 0.0258,0.0106 1.32962,0.56445 2.78447,0.79022 4.25979,0.79022 3.5e-4,0 7e-4,0 10e-4,0 v 0 0 c 0.002,0 0.004,0 0.006,0 5.43313,0 11.12944,-3.05505 11.76444,-3.4043 0,0 -3.5e-4,0 -7.1e-4,0 -0.6096,0.33514 -6.32107,3.4043 -11.76761,3.4043 -1.50989,0 -2.99931,-0.23636 -4.35433,-0.82902 0,0 -3.27696,2.0955 -6.19196,2.09902"
       style="fill:#b89c7d;fill-opacity:1;fill-rule:nonzero;stroke:none;stroke-width:0.0352778" />
    <path
       id="path308"
       d="m 145.19887,214.90857 c -0.27446,0 -0.54645,-0.0176 -0.81174,-0.06 l 0.0226,0.004 -0.28611,-0.0811 c -0.0935,-0.0212 -0.18344,-0.0635 -0.2734,-0.0953 -0.0917,-0.0317 -0.17991,-0.0706 -0.26952,-0.11289 l -0.26282,-0.127 c -0.16016,-0.0776 -0.32032,-0.16228 -0.47837,-0.25047 0.0423,-0.004 0.0847,-0.0106 0.1263,-0.0176 0.12206,-0.0212 0.24588,-0.0388 0.37006,-0.0635 l 0.3616,-0.10231 c 0.12206,-0.0317 0.2353,-0.0811 0.35031,-0.13052 0.11536,-0.0494 0.23389,-0.0917 0.34184,-0.15523 v 0 0 c 0,0 2.92347,-0.39863 5.55907,-1.89441 v 0 0 c 0.079,0.0917 0.14394,0.19403 0.23707,0.27164 l 0.26811,0.23989 c 0.0953,0.0705 0.19967,0.13052 0.30021,0.19402 l 0.14923,0.0952 0.1658,0.0635 0.33056,0.12348 c 0,0 -3.27696,2.0955 -6.19196,2.09902 -0.003,0 -0.006,0 -0.009,0 m 10.55335,-1.27 c -7.1e-4,0 -0.001,0 -0.001,0 -1.47497,0 -2.93088,-0.22577 -4.25979,-0.79022 -0.008,-0.004 -0.0173,-0.007 -0.0258,-0.0106 -0.0148,-0.007 -0.0293,-0.0141 -0.0441,-0.0212 -0.007,-0.004 -0.0145,-0.004 -0.0215,-0.007 v 0 l -0.30374,-0.17639 -0.15099,-0.0811 -0.13159,-0.11289 c -0.0878,-0.0706 -0.17921,-0.14111 -0.25859,-0.21872 l -0.22295,-0.25753 c -0.0776,-0.0847 -0.13123,-0.18345 -0.19967,-0.27517 -0.0667,-0.0882 -0.1203,-0.18697 -0.17286,-0.28928 -0.0557,-0.0952 -0.10513,-0.19755 -0.14817,-0.30338 l 0.23283,0.0882 c 0.121,0.0388 0.24624,0.0635 0.37112,0.0847 0.84738,0.49036 2.40313,1.11125 4.83518,1.11125 1.00718,0 2.16499,-0.10936 3.48474,-0.37395 6.56625,-1.32644 10.68881,-6.78039 10.68881,-6.78039 0,0 -0.75459,3.40784 -1.90147,5.00945 -0.635,0.34925 -6.33131,3.4043 -11.76444,3.4043 -0.002,0 -0.004,0 -0.006,0 v 0"
       style="fill:#554e38;fill-opacity:1;fill-rule:nonzero;stroke:none;stroke-width:0.0352778" />
    <path
       id="path309"
       d="m 144.40971,214.85213 -0.0226,-0.004 c -0.0452,-0.007 -0.0896,-0.0141 -0.13441,-0.0212 0,0 0.002,0.007 0.007,0.0176 l -0.14887,-0.004 c -0.1023,-0.004 -0.19579,-0.0282 -0.29633,-0.0459 -0.19791,-0.0318 -0.39017,-0.0882 -0.58067,-0.14463 -0.38136,-0.127 -0.74436,-0.28575 -1.10385,-0.4692 l -0.55209,-0.27869 0.64205,-0.0529 0.34537,-0.0282 c 0.1143,-0.004 0.22649,-0.0212 0.33761,-0.0494 l 0.33831,-0.067 0.32879,-0.0988 c 0.11148,-0.0282 0.21414,-0.0811 0.32174,-0.11994 0.10618,-0.0459 0.2159,-0.0811 0.31644,-0.13758 l 0.30903,-0.15875 0.29704,-0.17992 c 0.10231,-0.0529 0.19226,-0.127 0.28928,-0.19403 0.0974,-0.0635 0.19085,-0.13405 0.28222,-0.20461 0.0935,-0.0741 0.18874,-0.14111 0.27482,-0.22225 0.0868,-0.0776 0.18026,-0.14817 0.26634,-0.22931 0.34714,-0.32102 0.68333,-0.65969 0.98884,-1.03363 -0.0988,0.22225 -0.22613,0.42686 -0.35913,0.63147 -0.13335,0.20461 -0.28257,0.39864 -0.44062,0.58208 -0.0501,0.06 -0.10195,0.11995 -0.15522,0.17639 -0.49354,0.45156 -1.022,0.86783 -1.57092,1.19944 v 0 c -0.10795,0.0635 -0.22648,0.10584 -0.34184,0.15523 -0.11501,0.0494 -0.22825,0.0988 -0.35031,0.13052 l -0.3616,0.10231 c -0.12418,0.0247 -0.248,0.0423 -0.37006,0.0635 -0.0416,0.007 -0.084,0.0141 -0.1263,0.0176 0.15805,0.0882 0.31821,0.17286 0.47837,0.25047 l 0.26282,0.127 c 0.0896,0.0423 0.1778,0.0811 0.26952,0.11289 0.09,0.0318 0.17992,0.0741 0.2734,0.0953 l 0.28611,0.0811"
       style="fill:#393426;fill-opacity:1;fill-rule:nonzero;stroke:none;stroke-width:0.0352778" />
    <path
       id="path310"
       d="m 151.39965,212.80955 v 0 l -0.33056,-0.12348 -0.1658,-0.0635 -0.14923,-0.0952 c -0.10054,-0.0635 -0.20496,-0.12347 -0.30021,-0.19402 l -0.26811,-0.23989 c -0.0931,-0.0776 -0.15805,-0.17992 -0.23707,-0.27164 v 0 l -0.33478,-1.12889 c 0,0 0.25188,0.26105 0.80115,0.57503 -0.12488,-0.0212 -0.25012,-0.0459 -0.37112,-0.0847 l -0.23283,-0.0882 c 0.043,0.10583 0.0924,0.20813 0.14817,0.30338 0.0526,0.10231 0.10618,0.20109 0.17286,0.28928 0.0684,0.0917 0.12206,0.1905 0.19967,0.27517 l 0.22295,0.25753 c 0.0794,0.0776 0.17075,0.14816 0.25859,0.21872 l 0.13159,0.11289 0.15099,0.0811 0.30374,0.17639"
       style="fill:#393426;fill-opacity:1;fill-rule:nonzero;stroke:none;stroke-width:0.0352778" />
    <path
       id="path311"
       d="m 190.79646,236.56913 c 0.0543,-0.0282 0.13194,-0.067 0.23036,-0.11642 -3.5e-4,0 -7e-4,0 -10e-4,0 -0.0974,0.0494 -0.17498,0.0882 -0.22931,0.11642"
       style="fill:#b38f69;fill-opacity:1;fill-rule:nonzero;stroke:none;stroke-width:0.0352778" />
    <path
       id="path312"
       d="m 190.70756,236.61146 c 0,0 0,0 0,0 0,-0.0529 0.38559,-5.60211 1.67746,-8.4455 v 0 0 c 0,0 -1.99214,1.40406 -3.22545,1.57692 0,0 2.54565,-2.80106 2.54882,-7.27428 v 0 c 0.001,-1.54164 -0.29845,-3.2773 -1.10525,-5.16467 0,0 -0.49248,1.36173 -0.49142,3.175 v 0 c 3.5e-4,0.74437 0.084,1.56281 0.31891,2.39537 0,0 -4.48028,-5.08706 -1.59844,-11.21834 0,0 4.19277,4.55789 4.03437,10.00831 -0.13864,4.83305 -1.23507,5.90903 -1.48202,6.09247 0.34114,-0.22578 2.3689,-1.59455 3.4223,-3.21028 0,0 2.35867,4.43795 -3.78002,11.90625 -0.0984,0.0494 -0.17603,0.0882 -0.23036,0.11642 -0.0508,0.0247 -0.0811,0.0388 -0.0889,0.0423 v 0"
       style="fill:#554e38;fill-opacity:1;fill-rule:nonzero;stroke:none;stroke-width:0.0352778" />
    <path
       id="path313"
       d="m 180.45549,216.54546 c 0,0 4.28836,-1.17122 4.23791,-8.08566 0,0 0.92428,2.11666 0.42969,4.77661 0,-0.0353 0,-0.067 0.002,-0.10231 v 0 0 c 0,0 -1.44603,3.3655 -4.66971,3.41136"
       style="fill:#554e38;fill-opacity:1;fill-rule:nonzero;stroke:none;stroke-width:0.0352778" />
    <path
       id="path314"
       d="m 172.49505,217.4521 v 0 c 0.001,0 0.002,0 0.003,0 -0.001,0 -0.002,0 -0.003,0 m -0.002,0 c -2.0193,0 -4.26861,-0.53269 -6.64633,-1.97555 2.37702,1.44286 4.62739,1.97555 6.64633,1.97555 m -6.65303,-1.97908 c -0.008,-0.007 -0.0166,-0.0106 -0.0247,-0.0176 0.008,0.007 0.0166,0.0106 0.0247,0.0176"
       style="fill:#c2beae;fill-opacity:1;fill-rule:nonzero;stroke:none;stroke-width:0.0352778" />
    <path
       id="path315"
       d="m 172.49505,217.4521 c -2.04434,0 -4.32364,-0.54328 -6.73347,-2.02847 v 0 c 0.018,0.0106 0.0353,0.0212 0.0533,0.0317 0.008,0.007 0.0166,0.0106 0.0247,0.0176 0.002,0 0.004,0 0.007,0.004 2.37772,1.44286 4.62703,1.97555 6.64633,1.97555 0.001,0 0.001,0 0.002,0 v 0 0 c 0.001,0 0.002,0 0.003,0 5.32729,0 9.05721,-3.69005 9.35355,-3.98992 -3.6e-4,0 -3.6e-4,0 -7.1e-4,0 -0.3115,0.3175 -4.03895,3.98992 -9.35567,3.98992"
       style="fill:#b89c7d;fill-opacity:1;fill-rule:nonzero;stroke:none;stroke-width:0.0352778" />
    <path
       id="path316"
       d="m 172.49505,217.4521 c -0.001,0 -0.001,0 -0.002,0 -2.01894,0 -4.26931,-0.53269 -6.64633,-1.97555 -0.002,-0.004 -0.004,-0.004 -0.007,-0.004 -0.008,-0.007 -0.0166,-0.0106 -0.0247,-0.0176 -0.018,-0.0106 -0.0353,-0.0212 -0.0533,-0.0317 0,0 2.45922,0.85372 5.45077,0.85372 1.87502,0 3.95923,-0.33514 5.77709,-1.42522 4.71594,-2.82928 5.08283,-7.54592 5.08283,-7.54592 0,0 0.82444,3.35492 -0.22084,6.15597 -0.29634,0.29987 -4.02626,3.98992 -9.35355,3.98992 -0.001,0 -0.002,0 -0.003,0 v 0"
       style="fill:#554e38;fill-opacity:1;fill-rule:nonzero;stroke:none;stroke-width:0.0352778" />
    <path
       id="path317"
       d="m 141.80021,319.62079 c -0.25647,-0.0995 -0.5147,-0.20462 -0.77258,-0.31362 0,0 0,0 0,-3.6e-4 0.25788,0.10901 0.51611,0.21449 0.77258,0.31398"
       style="fill:#a67258;fill-opacity:1;fill-rule:nonzero;stroke:none;stroke-width:0.0352778" />
    <path
       id="path318"
       d="m 145.14066,320.46816 c -0.86148,0 -2.07609,-0.35595 -3.34045,-0.84737 -0.25647,-0.0995 -0.5147,-0.20497 -0.77258,-0.31398 0.031,-0.17039 7.97524,-41.94104 6.87705,-54.60788 0,0 1.01564,2.38583 0.96167,6.92749 -0.001,0.13088 -0.002,0.26953 -0.004,0.41593 -0.0159,1.33703 -0.0374,3.06529 -0.061,5.07118 -0.0145,2.41935 -0.0307,5.24369 -0.0505,8.2677 0,0.75636 0,1.52576 -0.004,2.30329 0,0.38911 0,0.78034 -0.002,1.17404 -0.005,0.37853 -0.0286,0.78458 -0.0427,1.17757 -0.0705,1.58645 -0.10795,3.20323 -0.26634,4.80202 -0.11854,1.60584 -0.22649,3.21027 -0.399,4.78895 -0.16192,1.57868 -0.30409,3.13408 -0.49106,4.6348 -0.18662,1.49966 -0.32738,2.95451 -0.50871,4.32788 -0.17427,1.37548 -0.33972,2.67511 -0.49283,3.87526 -0.15981,1.19839 -0.3055,2.2987 -0.43497,3.27237 -0.13864,0.97366 -0.25718,1.82139 -0.35596,2.5213 -0.0709,0.48154 -0.13123,0.89218 -0.17991,1.22343 -0.0681,0.44415 -0.11889,0.77576 -0.14923,0.9712 -0.0896,0.01 -0.1845,0.0148 -0.28434,0.0148"
       style="fill:#4a1a14;fill-opacity:1;fill-rule:nonzero;stroke:none;stroke-width:0.0352778" />
    <path
       id="path319"
       d="m 145.57423,319.48214 c 0.0487,-0.33125 0.10901,-0.74189 0.17991,-1.22343 0.0988,-0.69991 0.21732,-1.54764 0.35596,-2.5213 0.12947,-0.97367 0.27516,-2.07398 0.43497,-3.27237 0.15311,-1.20015 0.31856,-2.49978 0.49283,-3.87526 0.18133,-1.37337 0.32209,-2.82822 0.50871,-4.32788 0.18697,-1.50072 0.32914,-3.05612 0.49106,-4.6348 0.17251,-1.57868 0.28046,-3.18311 0.399,-4.78895 0.15839,-1.59879 0.19579,-3.21557 0.26634,-4.80202 0.0141,-0.39299 0.0374,-0.79904 0.0427,-1.17757 0.002,-0.3937 0.002,-0.78493 0.002,-1.17404 0.004,-0.77753 0.004,-1.54693 0.004,-2.30329 0.0198,-3.02401 0.036,-5.84835 0.0505,-8.2677 0.0236,-2.00589 0.0452,-3.73415 0.061,-5.07118 -0.0314,4.93783 0.24589,18.56564 -0.48754,26.65836 -0.50553,5.58236 -2.23626,17.08291 -2.80105,20.78143"
       style="fill:#22120f;fill-opacity:1;fill-rule:nonzero;stroke:none;stroke-width:0.0352778" />
    <path
       id="path320"
       d="m 187.77562,291.44266 c -0.013,-0.0106 -0.0261,-0.0205 -0.0381,-0.0293 -0.53093,-0.38876 -0.62547,-0.8061 -0.62547,-1.0534 0,0.2473 0.0945,0.66464 0.62547,1.0534 0.0123,0.009 0.0251,0.0187 0.0381,0.0293 v 0"
       style="fill:#bd9f90;fill-opacity:1;fill-rule:nonzero;stroke:none;stroke-width:0.0352778" />
    <path
       id="path321"
       d="m 189.3215,293.25382 c -0.64488,-0.89253 -1.23543,-1.56351 -1.54588,-1.81116 v 0 c 0.31151,0.248 0.90029,0.91616 1.54658,1.80975 0,3.5e-4 -3.5e-4,10e-4 -7e-4,10e-4"
       style="fill:#b17a5b;fill-opacity:1;fill-rule:nonzero;stroke:none;stroke-width:0.0352778" />
    <path
       id="path322"
       d="m 187.59359,345.42719 c -0.23001,-6.78886 -1.09855,-26.43611 -2.82822,-45.54432 -2.12866,-23.501 -1.7152,-34.90666 -1.7152,-34.90666 1.90923,5.18054 11.52983,17.00495 11.52983,17.00495 -0.12206,1.16981 -4.13879,9.08755 -5.2578,11.27125 -0.64629,-0.89359 -1.23507,-1.56175 -1.54658,-1.80975 -0.013,-0.0106 -0.0258,-0.0205 -0.0381,-0.0293 -0.53093,-0.38876 -0.62547,-0.8061 -0.62547,-1.0534 -3.5e-4,-0.13652 0.0282,-0.22154 0.0282,-0.22154 0,0 4.25591,-6.77475 4.25344,-7.48171 0,-0.007 -3.5e-4,-0.0134 -0.001,-0.019 -0.0822,-0.55034 -5.82296,-6.6802 -6.63329,-7.5431 -0.004,-0.20002 -0.006,-0.44908 -0.0212,-0.73272 -0.0356,-0.75706 -0.11854,-1.76106 -0.23354,-2.76048 -0.11712,-0.99872 -0.26776,-1.99602 -0.40817,-2.73932 -0.0684,-0.37218 -0.14216,-0.67981 -0.18344,-0.89606 -0.0487,-0.2159 -0.0808,-0.33902 -0.0808,-0.33902 0,0 -0.004,0.12665 -0.002,0.34784 0.009,0.22013 0.007,0.53834 0.0289,0.91546 0.0342,0.75671 0.115,1.76071 0.23001,2.76049 0.11853,0.99942 0.26811,1.99566 0.40993,2.73896 0.0649,0.37218 0.14005,0.67945 0.18344,0.89712 0.0409,0.18873 0.072,0.30586 0.079,0.33267 1.71838,11.29947 8.41234,67.27649 8.41234,67.27649 v 0 c -1.48166,1.11971 -3.47345,1.94063 -5.58059,2.53118"
       style="fill:#501d15;fill-opacity:1;fill-rule:nonzero;stroke:none;stroke-width:0.0352778" />
    <path
       id="path323"
       d="m 184.76184,275.61952 c -0.007,-0.0268 -0.0381,-0.14394 -0.079,-0.33267 -0.0434,-0.21767 -0.11853,-0.52494 -0.18344,-0.89712 -0.14182,-0.7433 -0.2914,-1.73954 -0.40993,-2.73896 -0.11501,-0.99978 -0.19579,-2.00378 -0.23001,-2.76049 -0.0219,-0.37712 -0.0201,-0.69533 -0.0289,-0.91546 -0.002,-0.22119 0.002,-0.34784 0.002,-0.34784 0,0 0.0321,0.12312 0.0808,0.33902 0.0413,0.21625 0.11501,0.52388 0.18344,0.89606 0.14041,0.7433 0.29105,1.7406 0.40817,2.73932 0.115,0.99942 0.19791,2.00342 0.23354,2.76048 0.0148,0.28364 0.0176,0.5327 0.0212,0.73272 v 0 c -0.0617,-0.0656 -0.0949,-0.10089 -0.0949,-0.10089 0.0303,0.18979 0.0631,0.39899 0.0974,0.62583"
       style="fill:#251410;fill-opacity:1;fill-rule:nonzero;stroke:none;stroke-width:0.0352778" />
    <path
       id="path324"
       d="m 190.776,300.79056 c 0,0 1.90888,1.32927 0.97437,3.13902 -0.9331,1.81046 -3.45405,1.99002 -3.78495,1.26647 -0.33055,-0.72495 0.0254,-1.68733 0.5274,-2.14383 0.50095,-0.45579 2.28318,-2.26166 2.28318,-2.26166"
       style="fill:#f1cead;fill-opacity:1;fill-rule:nonzero;stroke:none;stroke-width:0.0352778" />
    <path
       id="path325"
       d="m 189.79986,297.91648 c 0,0 1.03717,-0.37676 1.64677,0.69039 0.60748,1.06786 -0.51082,4.13597 -1.7459,4.86057 -1.23331,0.72214 -2.56575,0.3803 -1.84114,-1.81116 0.72813,-2.19287 1.94027,-3.7398 1.94027,-3.7398"
       style="fill:#f1cead;fill-opacity:1;fill-rule:nonzero;stroke:none;stroke-width:0.0352778" />
    <path
       id="path326"
       d="m 187.84336,294.87095 c 0,0 2.3301,-0.27904 2.45427,2.18158 0.12594,2.46027 -1.7279,5.35517 -2.72027,5.51074 -0.9906,0.15734 -1.47426,-2.03164 -0.88617,-3.41171 0.58772,-1.37866 1.15217,-4.28061 1.15217,-4.28061"
       style="fill:#f1cead;fill-opacity:1;fill-rule:nonzero;stroke:none;stroke-width:0.0352778" />
    <path
       id="path327"
       d="m 188.45649,293.22842 c 0,0 -1.17934,-1.79881 -2.17523,-0.4064 -0.99625,1.39136 -1.9618,7.71031 -0.4946,7.66692 1.46544,-0.0437 3.18594,-3.92077 2.66983,-7.26052"
       style="fill:#f1cead;fill-opacity:1;fill-rule:nonzero;stroke:none;stroke-width:0.0352778" />
    <path
       id="path328"
       d="m 188.54115,294.86072 c 0,0 0.0106,0.37042 -0.0483,0.92252 -0.0363,0.27516 -0.0759,0.59866 -0.14958,0.93768 -0.0681,0.34078 -0.1725,0.69744 -0.28786,1.05198 -0.12559,0.35031 -0.26741,0.69568 -0.43321,1.00401 -0.16369,0.30833 -0.35243,0.57714 -0.51965,0.79975 -0.0878,0.1083 -0.17427,0.20249 -0.24976,0.2868 -0.0755,0.0854 -0.15664,0.14394 -0.21379,0.20074 -0.12241,0.10512 -0.19261,0.1651 -0.19261,0.1651 0,0 0.0593,-0.0699 0.16192,-0.19403 0.0522,-0.0628 0.12383,-0.12877 0.18345,-0.22296 0.0646,-0.0914 0.13476,-0.19473 0.2159,-0.3048 0.0751,-0.11324 0.14746,-0.24412 0.22648,-0.37747 0.079,-0.133 0.14182,-0.28787 0.22296,-0.43498 0.14322,-0.31044 0.28187,-0.6484 0.40075,-0.99095 0.23354,-0.68862 0.40993,-1.40053 0.51788,-1.93816 0.11148,-0.5394 0.16545,-0.90523 0.16545,-0.90523"
       style="fill:#b88459;fill-opacity:1;fill-rule:nonzero;stroke:none;stroke-width:0.0352778" />
    <path
       id="path329"
       d="m 190.27223,297.85157 c 0,0 -0.0159,0.34326 -0.12559,0.84632 -0.0579,0.24976 -0.12382,0.54292 -0.22824,0.84666 -0.0991,0.30833 -0.23213,0.62477 -0.37959,0.93628 -0.0826,0.15169 -0.15275,0.30973 -0.24448,0.45332 -0.0864,0.14499 -0.17074,0.28963 -0.26952,0.4191 -0.0935,0.13193 -0.18344,0.2607 -0.28434,0.36935 -0.10019,0.10795 -0.18344,0.22084 -0.28222,0.30763 -0.18168,0.18344 -0.3489,0.31714 -0.47096,0.40428 -0.12241,0.0871 -0.19226,0.13652 -0.19226,0.13652 0,0 0.061,-0.061 0.1651,-0.16686 0.0504,-0.0522 0.11712,-0.11359 0.18732,-0.1905 0.0663,-0.0801 0.14005,-0.17004 0.22472,-0.26317 0.0861,-0.0903 0.15981,-0.2092 0.24624,-0.32315 0.09,-0.11324 0.16545,-0.24729 0.25365,-0.37676 0.0917,-0.12771 0.16157,-0.27588 0.24624,-0.41804 0.0864,-0.14006 0.15275,-0.29493 0.23354,-0.44309 0.29492,-0.60325 0.52705,-1.23861 0.68333,-1.72156 0.15451,-0.48436 0.23706,-0.81633 0.23706,-0.81633"
       style="fill:#b88459;fill-opacity:1;fill-rule:nonzero;stroke:none;stroke-width:0.0352778" />
    <path
       id="path330"
       d="m 191.24696,301.21496 c 0,0 -0.0416,0.28116 -0.19227,0.67733 -0.0832,0.1965 -0.17991,0.42616 -0.32385,0.65193 -0.0702,0.11607 -0.14957,0.23213 -0.24059,0.33902 -0.0815,0.11677 -0.19262,0.21238 -0.28998,0.31786 -0.11148,0.091 -0.2212,0.18838 -0.34326,0.26352 -0.12559,0.0713 -0.24447,0.14958 -0.37747,0.18838 -0.1277,0.0512 -0.25153,0.0914 -0.37747,0.10019 -0.12418,0.0208 -0.24095,0.0399 -0.34678,0.03 -0.10972,-0.005 -0.20885,-0.007 -0.29316,-0.0198 -0.0864,-0.0208 -0.1584,-0.0377 -0.21766,-0.0533 -0.11854,-0.0324 -0.18698,-0.0483 -0.18698,-0.0483 0,0 0.0699,0.002 0.19227,0.009 0.0593,0.005 0.13476,0.01 0.21943,0.0152 0.0825,-10e-4 0.17638,-0.0169 0.27834,-0.0215 0.10266,7.1e-4 0.20884,-0.0286 0.32032,-0.0593 0.11536,-0.0208 0.22648,-0.072 0.34149,-0.12312 0.11888,-0.0378 0.22119,-0.12312 0.3362,-0.18627 0.11147,-0.0698 0.2106,-0.16334 0.31467,-0.24906 0.09,-0.0977 0.19615,-0.18309 0.27693,-0.29104 0.0847,-0.10266 0.16934,-0.20426 0.23919,-0.31292 0.14922,-0.20743 0.27305,-0.41451 0.37041,-0.59795 0.19403,-0.3676 0.30022,-0.62971 0.30022,-0.62971"
       style="fill:#b88459;fill-opacity:1;fill-rule:nonzero;stroke:none;stroke-width:0.0352778" />
    <path
       id="path331"
       d="m 146.68195,309.56415 7.36071,2.50649 c 0,0 -0.81986,4.16595 -1.01953,4.53954 -0.19756,0.37324 -5.01262,0.67239 -7.05661,-1.10208 l 0.71543,-5.94395"
       style="fill:#a64223;fill-opacity:1;fill-rule:nonzero;stroke:none;stroke-width:0.0352778" />
    <path
       id="path332"
       d="m 189.43439,308.17879 -7.04074,3.30482 c 0,0 1.27494,4.05166 1.51412,4.39949 0.23883,0.34855 5.05777,0.11607 6.89328,-1.87183 l -1.36666,-5.83248"
       style="fill:#a64223;fill-opacity:1;fill-rule:nonzero;stroke:none;stroke-width:0.0352778" />
  </g>
</svg>
