<?xml version="1.0" encoding="UTF-8" standalone="no"?>
<!-- Created with Inkscape (http://www.inkscape.org/) -->

<svg
   width="88.906754mm"
   height="177.24921mm"
   viewBox="0 0 88.906759 177.24922"
   version="1.1"
   id="svg1"
   inkscape:version="1.4.2 (f4327f4, 2025-05-13)"
   sodipodi:docname="girl6.svg"
   xmlns:inkscape="http://www.inkscape.org/namespaces/inkscape"
   xmlns:sodipodi="http://sodipodi.sourceforge.net/DTD/sodipodi-0.dtd"
   xmlns="http://www.w3.org/2000/svg"
   xmlns:svg="http://www.w3.org/2000/svg">
  <sodipodi:namedview
     id="namedview1"
     pagecolor="#ffffff"
     bordercolor="#000000"
     borderopacity="0.25"
     inkscape:showpageshadow="2"
     inkscape:pageopacity="0.0"
     inkscape:pagecheckerboard="0"
     inkscape:deskcolor="#d1d1d1"
     inkscape:document-units="mm"
     inkscape:zoom="1.2275954"
     inkscape:cx="-64.353451"
     inkscape:cy="12.21901"
     inkscape:window-width="2880"
     inkscape:window-height="1676"
     inkscape:window-x="-12"
     inkscape:window-y="-12"
     inkscape:window-maximized="1"
     inkscape:current-layer="layer1" />
  <defs
     id="defs1">
    <clipPath
       clipPathUnits="userSpaceOnUse"
       id="clipPath119">
      <path
         d="m 2429.58,8528.87 v 0 l -1.54,4.27 c 7.66,35.49 -15.79,67.53 -15.79,67.53 10.47,20.59 15.22,39.01 16.15,55.3 95.03,81.21 245.93,222.7 239.94,298.46 -6.68,84.06 -297.09,299.7 -435.14,397.71 -1.96,12.33 -3.87,24.38 -5.72,36.02 -4.67,29.42 -8.97,56.5 -12.82,80.63 v 0 c 0,0 399.66,-281.36 528.14,-436.13 0,0 44.89,-42.39 44.81,-102.96 0,-4.99 -0.32,-10.11 -0.98,-15.34 -8.76,-68.62 -357.05,-385.49 -357.05,-385.49"
         transform="translate(0,2.5000001e-4)"
         id="path119" />
    </clipPath>
    <clipPath
       clipPathUnits="userSpaceOnUse"
       id="clipPath299">
      <path
         d="m 6622.23,11070.3 c 4.28,3.8 8.4,7.9 12.38,12.2 -0.48,-0.6 -0.96,-1.2 -1.45,-1.8 -3.23,-3.4 -6.57,-6.6 -10.01,-9.8 -0.22,-0.1 -0.44,-0.3 -0.66,-0.4 l -0.26,-0.2"
         transform="translate(0,2.5000001e-4)"
         id="path299" />
    </clipPath>
    <clipPath
       clipPathUnits="userSpaceOnUse"
       id="clipPath602">
      <path
         d="m 4237.98,3522.14 c 0,0 0,0.01 0,0.02 0,-0.01 0,-0.01 0,-0.02 m 0.01,0.2 c 0,0.1 0.01,0.2 0.01,0.3 0,-0.1 -0.01,-0.2 -0.01,-0.3"
         transform="translate(0,2.5000001e-4)"
         id="path602" />
    </clipPath>
  </defs>
  <g
     inkscape:label="图层 1"
     inkscape:groupmode="layer"
     id="layer1"
     transform="translate(-121.70815,-283.36852)">
    <path
       id="path394"
       d="m 151.08607,413.11096 c 0,0 -0.0935,12.95753 3.93382,24.0418 4.02732,11.09127 5.69913,13.47971 4.20335,14.61202 -1.49578,1.13591 -5.02885,2.30368 -7.8299,3.00564 -2.80494,0.70213 -6.03568,2.62819 -2.95593,4.96714 3.07623,2.33896 12.74904,-0.44453 15.29327,-2.98439 2.54247,-2.5472 0.92217,-5.22471 0.0233,-5.78214 -0.90064,-0.56084 -9.12636,-21.76988 -7.63764,-36.97107 l -5.03026,-0.889"
       style="fill:#ddad81;fill-opacity:1;fill-rule:nonzero;stroke:none;stroke-width:0.0352778" />
    <path
       id="path395"
       d="m 156.06447,421.37301 c -0.002,0 -0.004,0 -0.006,0 -0.0663,-0.98425 -0.1069,-1.95791 -0.11854,-2.92453 0.001,0 0.002,0 0.004,0 0.0127,0.96662 0.0543,1.94381 0.12065,2.92453"
       style="fill:#ecd3ba;fill-opacity:1;fill-rule:nonzero;stroke:none;stroke-width:0.0352778" />
    <path
       id="path396"
       d="m 156.05883,421.37301 c -1.53882,-0.18697 -3.06176,-0.45155 -4.55401,-0.80786 -0.0949,-0.9525 -0.16793,-1.84503 -0.22472,-2.65289 1.54904,0.26459 3.10585,0.4445 4.66019,0.53622 0.0116,0.96662 0.0522,1.94028 0.11854,2.92453"
       style="fill:#ce9365;fill-opacity:1;fill-rule:nonzero;stroke:none;stroke-width:0.0352778" />
    <path
       id="path397"
       d="m 165.03773,453.13 c -1.28905,2.16958 -5.14562,3.28083 -7.1808,3.69358 -1.48343,0.29986 -3.99344,0.82557 -5.37598,-0.0141 -1.06609,-0.65264 -1.19027,-1.38645 -0.88088,-2.09201 -0.0667,0.0176 -0.13829,0.0389 -0.20673,0.0529 -2.80494,0.70213 -6.03532,2.62819 -2.95557,4.96714 3.07587,2.33896 12.74868,-0.44453 15.29291,-2.98439 1.26577,-1.26658 1.49931,-2.56826 1.30705,-3.62317"
       style="fill:#c51e25;fill-opacity:1;fill-rule:nonzero;stroke:none;stroke-width:0.0352778" />
    <path
       id="path398"
       d="m 157.96841,416.60346 c 0,0 0.68651,6.78039 6.43467,11.39825 5.74781,4.61786 22.84448,8.84057 23.62835,10.61148 0.78564,1.76749 0.39546,16.21014 3.43923,16.01612 3.04588,-0.19745 3.24344,-10.30454 2.55482,-15.61744 -0.68686,-5.31273 -3.33869,-6.3923 -5.50334,-5.5069 -2.15935,0.88195 -16.89699,-2.55764 -22.20418,-9.23565 0,0 -2.15971,-2.52589 -1.91488,-6.51934 l 0.73519,-2.12725 -7.16986,0.98073"
       style="fill:#f1cead;fill-opacity:1;fill-rule:nonzero;stroke:none;stroke-width:0.0352778" />
    <path
       id="path399"
       d="m 164.87227,421.47885 c -0.29739,-0.91723 -0.51399,-2.03906 -0.48612,-3.31964 -0.0275,1.28411 0.19367,2.40241 0.49177,3.31964 -0.002,0 -0.004,0 -0.006,0 m -0.48612,-3.33023 c 3.5e-4,0 3.5e-4,0 3.5e-4,-0.004 v 0 c 0,0.004 0,0.004 -3.5e-4,0.004"
       style="fill:#f8e5d3;fill-opacity:1;fill-rule:nonzero;stroke:none;stroke-width:0.0352778" />
    <path
       id="path400"
       d="m 160.95609,421.66582 c -0.48895,0 -0.9779,-0.007 -1.46685,-0.0247 -0.54434,-1.17475 -0.89994,-2.25425 -1.12925,-3.1115 0.0762,0 0.15311,0 0.22966,0 1.95051,0 3.88903,-0.13052 5.79685,-0.38452 0,0.004 0,0.004 -3.5e-4,0.004 0,0.004 0,0.007 0,0.0106 -0.0279,1.28058 0.18873,2.40241 0.48612,3.31964 -1.29998,0.127 -2.60738,0.18697 -3.91618,0.18697"
       style="fill:#e9bc93;fill-opacity:1;fill-rule:nonzero;stroke:none;stroke-width:0.0352778" />
    <path
       id="path401"
       d="m 194.02548,439.01187 c -0.58244,-4.4837 -2.56223,-5.94431 -4.46405,-5.76432 3.11749,2.21548 4.07035,13.62064 0.59478,15.10937 -0.47625,0.20461 -0.9077,-0.25743 -1.20967,-0.60318 0.38629,3.65125 1.05551,6.96736 2.52412,6.87557 3.04588,-0.19745 3.24344,-10.30454 2.55482,-15.61744"
       style="fill:#ec1c26;fill-opacity:1;fill-rule:nonzero;stroke:none;stroke-width:0.0352778" />
    <path
       id="path402"
       d="m 160.78181,346.15902 c 0,0 -1.66828,-0.49248 -6.77615,3.24168 -5.1114,3.73274 -9.44951,9.13871 -9.44951,9.13871 0,0 2.80459,4.12644 5.48887,5.697 0,0 -3.14466,8.35272 -5.48887,13.65603 -2.33927,5.30613 -6.46712,13.75869 -20.61704,16.8021 0,0 2.75061,15.91522 21.91103,21.90892 19.15901,5.99369 41.23549,-2.45534 47.34102,-19.06059 0,0 -9.41741,-0.19614 -13.05278,-7.26934 -3.63538,-7.07496 -6.67914,-22.30367 -6.67914,-22.30367 0,0 4.22345,0.29528 9.43186,-2.94605 0,0 -2.8836,-5.89738 -4.68559,-10.12154 -1.79952,-4.22416 -7.11447,-9.38248 -12.7127,-9.52888 l -4.711,0.78563"
       style="fill:#f8a1be;fill-opacity:1;fill-rule:nonzero;stroke:none;stroke-width:0.0352778" />
    <path
       id="path403"
       d="m 156.95241,355.72389 c 3.42512,1.47249 4.71629,-3.82941 4.71629,-3.82941 0,0 0.3937,5.36046 4.6168,3.39725 3.17853,-1.47425 4.00227,-5.98452 4.058,-8.5979 -1.5374,-0.77999 -3.17676,-1.27811 -4.85069,-1.32044 l -4.711,0.78563 c 0,0 -1.19697,-0.33972 -4.63655,1.79282 -0.86149,2.5968 -0.99237,6.99876 0.80715,7.77205"
       style="fill:#787bc5;fill-opacity:1;fill-rule:nonzero;stroke:none;stroke-width:0.0352778" />
    <path
       id="path404"
       d="m 173.36222,367.95751 c 0.0325,0.0109 0.0663,0.0148 0.10055,0.0268 l -0.004,-0.0145 c 0,0 4.22345,0.29528 9.43186,-2.94605 0,0 -0.27163,-0.55809 -0.70132,-1.45026 -1.38783,0.79868 -2.98273,1.32256 -4.439,1.79528 -1.53529,0.4946 -3.07446,0.91087 -4.63691,1.19945 0.0649,0.4445 0.14922,0.88723 0.23177,1.32926 l 0.0166,0.06"
       style="fill:#787bc5;fill-opacity:1;fill-rule:nonzero;stroke:none;stroke-width:0.0352778" />
    <path
       id="path405"
       d="m 149.8704,364.12529 c 0.26811,-0.55351 0.54821,-1.10173 0.83784,-1.64465 -1.95968,-1.49331 -3.70205,-3.20569 -4.96958,-5.33365 -0.74753,0.85196 -1.18251,1.39242 -1.18251,1.39242 0,0 2.68394,3.94405 5.31425,5.58588"
       style="fill:#787bc5;fill-opacity:1;fill-rule:nonzero;stroke:none;stroke-width:0.0352778" />
    <path
       id="path406"
       d="m 153.51318,356.0816 c 0,0 -0.0325,0.13688 -0.10266,0.37254 -0.0755,0.23107 -0.16898,0.56938 -0.30938,0.96167 -0.13476,0.39476 -0.30375,0.85055 -0.49601,1.33138 -0.18168,0.48648 -0.38664,1.00154 -0.59337,1.51307 -0.42263,1.02129 -0.89182,2.02177 -1.27847,2.75942 -0.19015,0.37254 -0.37394,0.67099 -0.49036,0.88653 -0.12241,0.21238 -0.19791,0.3302 -0.19791,0.3302 0,0 0.0268,-0.13581 0.0917,-0.37218 0.0684,-0.23389 0.15099,-0.57185 0.28187,-0.97013 0.2466,-0.79481 0.62936,-1.83904 1.05375,-2.86703 0.21943,-0.50976 0.43357,-1.02376 0.66005,-1.49119 0.23001,-0.46567 0.45649,-0.89641 0.66146,-1.26048 0.20143,-0.36371 0.39017,-0.65793 0.51258,-0.86924 0.12736,-0.20743 0.20673,-0.32456 0.20673,-0.32456"
       style="fill:#d3468d;fill-opacity:1;fill-rule:nonzero;stroke:none;stroke-width:0.0352778" />
    <path
       id="path407"
       d="m 171.98463,357.82785 c 0,0 0.0434,0.15346 0.10442,0.42933 0.0614,0.27693 0.14393,0.66816 0.24483,1.14371 0.1905,0.94015 0.38488,2.20839 0.57502,3.47133 0.0864,0.635 0.1711,1.26789 0.23037,1.86479 0.0808,0.59302 0.15451,1.14899 0.20143,1.62489 0.0501,0.47837 0.0702,0.883 0.0949,1.1624 0.0183,0.28364 0.0236,0.44556 0.0236,0.44556 0,0 -0.054,-0.15134 -0.13476,-0.42086 -0.0759,-0.26988 -0.19968,-0.65652 -0.3168,-1.1236 -0.12382,-0.46919 -0.25858,-1.01706 -0.38241,-1.60761 -0.1083,-0.59231 -0.20179,-1.22872 -0.29704,-1.86161 -0.0825,-0.63993 -0.1778,-1.27388 -0.22119,-1.87607 -0.0501,-0.59866 -0.0878,-1.16134 -0.10936,-1.64324 -0.0395,-0.96379 -0.013,-1.60902 -0.013,-1.60902"
       style="fill:#d3468d;fill-opacity:1;fill-rule:nonzero;stroke:none;stroke-width:0.0352778" />
    <path
       id="path408"
       d="m 180.92613,407.66407 c 0,0 0.13088,-0.0776 0.34678,-0.22578 0.23037,-0.127 0.51788,-0.37747 0.87913,-0.63147 0.17074,-0.14111 0.35595,-0.29281 0.55174,-0.45861 0.19967,-0.15523 0.40111,-0.33161 0.59902,-0.52564 0.20108,-0.18697 0.40463,-0.38806 0.62194,-0.58209 0.20885,-0.19755 0.39194,-0.43038 0.5969,-0.64558 0.1958,-0.21519 0.40817,-0.4198 0.5969,-0.64205 0.17075,-0.23284 0.35419,-0.45156 0.52705,-0.67028 0.17075,-0.21873 0.34326,-0.42334 0.51047,-0.62089 0.15628,-0.20109 0.27693,-0.40922 0.40817,-0.58914 0.25364,-0.37006 0.48754,-0.66816 0.63994,-0.88159 0.15839,-0.21343 0.25717,-0.33126 0.25717,-0.33126 0,0 -0.0519,0.14287 -0.15452,0.38417 -0.11183,0.2413 -0.25188,0.59408 -0.45155,1.00507 -0.10231,0.20461 -0.19403,0.43744 -0.33408,0.65616 -0.14393,0.21873 -0.29492,0.45156 -0.45861,0.68439 -0.16369,0.23637 -0.32526,0.48331 -0.50342,0.72673 -0.1905,0.23283 -0.40252,0.45155 -0.6096,0.68086 -0.21202,0.21872 -0.40992,0.45155 -0.63464,0.65616 -0.22472,0.19756 -0.46038,0.381 -0.67945,0.56445 -0.2159,0.1905 -0.44415,0.34925 -0.67063,0.48683 -0.2212,0.14111 -0.43145,0.27517 -0.62724,0.38806 -0.41381,0.20108 -0.75918,0.36336 -1.01459,0.44803 -0.24977,0.0953 -0.39688,0.12347 -0.39688,0.12347"
       style="fill:#d3468d;fill-opacity:1;fill-rule:nonzero;stroke:none;stroke-width:0.0352778" />
    <path
       id="path409"
       d="m 176.99407,401.18707 c 0,0 0.17957,0.0289 0.49601,0.066 0.31467,0.0434 0.76764,0.0776 1.30527,0.10759 0.26776,0.0162 0.56092,0.0198 0.86854,0.0229 0.17851,0.01 0.36372,0.003 0.55316,-0.004 0.13547,-0.005 0.27305,-0.01 0.41204,-0.008 0.66534,-0.0441 1.37901,-0.0864 2.07469,-0.22543 l 0.52352,-0.0903 c 0.17075,-0.042 0.34149,-0.084 0.51224,-0.12629 0.34148,-0.0752 0.6671,-0.1771 0.9853,-0.28328 0.31821,-0.0928 0.6149,-0.21873 0.89923,-0.33162 0.14182,-0.0596 0.28223,-0.11465 0.41487,-0.16721 0.12947,-0.0646 0.25365,-0.127 0.3743,-0.18627 0.23742,-0.12665 0.46919,-0.21943 0.65793,-0.32773 0.19262,-0.11183 0.35419,-0.20955 0.49283,-0.29175 0.27164,-0.16263 0.43462,-0.24976 0.43462,-0.24976 0,0 -0.12876,0.12559 -0.36618,0.34113 -0.12242,0.10725 -0.26988,0.23601 -0.43745,0.38524 -0.17215,0.14287 -0.38452,0.28081 -0.61453,0.43674 -0.11677,0.0762 -0.23531,0.15839 -0.35949,0.24306 -0.13299,0.0688 -0.26987,0.14076 -0.40851,0.21343 -0.28399,0.14676 -0.58244,0.3115 -0.91158,0.42298 -0.32526,0.12312 -0.65758,0.26423 -1.01565,0.34537 -0.1778,0.0473 -0.35595,0.0949 -0.5341,0.14429 l -0.54822,0.10195 c -0.36512,0.0713 -0.73519,0.0981 -1.09855,0.13476 -0.36477,0.0378 -0.72425,0.0215 -1.06786,0.0296 -0.3489,-0.0173 -0.68298,-0.0243 -0.99942,-0.0663 -0.31503,-0.0307 -0.60995,-0.0765 -0.88159,-0.12982 -0.54434,-0.096 -0.98672,-0.23566 -1.29046,-0.32773 -0.30551,-0.1016 -0.47096,-0.17921 -0.47096,-0.17921"
       style="fill:#d3468d;fill-opacity:1;fill-rule:nonzero;stroke:none;stroke-width:0.0352778" />
    <path
       id="path410"
       d="m 131.70093,399.09157 c 0,0 0.11112,0.21519 0.32702,0.57185 0.21238,0.35877 0.5521,0.85161 0.97473,1.42099 0.21731,0.28187 0.4512,0.58878 0.72108,0.89182 0.2674,0.30798 0.55703,0.62548 0.86466,0.93945 0.29492,0.32808 0.64734,0.62794 0.97613,0.9525 0.3362,0.32103 0.70803,0.61383 1.06257,0.92428 0.37747,0.28222 0.74436,0.57855 1.12007,0.85372 0.38488,0.26458 0.76059,0.52211 1.12712,0.77258 0.38136,0.22931 0.7426,0.45861 1.0915,0.67734 0.34501,0.21166 0.69391,0.381 1.00506,0.55738 0.31644,0.16581 0.5969,0.33514 0.86113,0.45862 0.26247,0.127 0.49072,0.23636 0.67769,0.33161 0.37394,0.18697 0.58808,0.29986 0.58808,0.29986 0,0 -0.22825,-0.0635 -0.63112,-0.19403 -0.19791,-0.067 -0.44203,-0.14464 -0.72284,-0.23636 -0.28222,-0.0811 -0.5842,-0.2152 -0.91511,-0.35983 -0.3309,-0.1517 -0.69744,-0.29281 -1.06962,-0.47978 -0.36689,-0.1905 -0.76059,-0.39159 -1.15782,-0.61384 -0.38664,-0.23636 -0.78211,-0.48683 -1.1811,-0.74788 -0.39017,-0.2787 -0.77505,-0.5715 -1.16311,-0.86431 -0.36159,-0.32456 -0.73942,-0.63147 -1.08091,-0.96308 -0.34149,-0.33867 -0.67592,-0.67028 -0.96731,-1.01953 -0.31115,-0.33514 -0.57327,-0.68792 -0.81986,-1.02306 -0.24835,-0.33373 -0.46214,-0.66745 -0.65969,-0.97084 -0.38841,-0.61525 -0.63289,-1.17228 -0.80575,-1.55505 -0.15981,-0.39229 -0.2226,-0.62441 -0.2226,-0.62441"
       style="fill:#d3468d;fill-opacity:1;fill-rule:nonzero;stroke:none;stroke-width:0.0352778" />
    <path
       id="path411"
       d="m 135.1832,398.50208 c 0,0 0.50341,0.236 1.26612,0.50764 0.381,0.13759 0.8322,0.27517 1.31586,0.40464 0.48542,0.12206 1.0033,0.25223 1.53176,0.31926 0.52317,0.0942 1.05375,0.13124 1.5554,0.16052 0.15063,0.0127 0.29774,0.0123 0.44168,0.012 0.0949,0 0.18873,-3.5e-4 0.28081,0.004 0.23036,0.005 0.44979,-0.009 0.65087,-0.0173 0.20179,-0.0141 0.39017,-0.006 0.55386,-0.0258 0.16546,-0.0145 0.3108,-0.0303 0.42757,-0.0388 0.24306,-0.0162 0.38171,-0.0233 0.38171,-0.0233 0,0 -0.12983,0.0476 -0.35455,0.13723 -0.22613,0.0847 -0.5535,0.20638 -0.96555,0.28575 -0.20496,0.0473 -0.4258,0.10266 -0.66499,0.11995 -0.23741,0.0215 -0.49071,0.0709 -0.75318,0.0656 -0.0942,-0.002 -0.18979,10e-4 -0.28645,0.004 -0.17322,0.005 -0.34925,0.0102 -0.52458,-0.0102 -0.27517,-0.0289 -0.55739,-0.0406 -0.83609,-0.0896 -0.27693,-0.0459 -0.55174,-0.0998 -0.81809,-0.17004 -0.27164,-0.0565 -0.52669,-0.15558 -0.77505,-0.23742 -0.49248,-0.17815 -0.94192,-0.38382 -1.3014,-0.59549 -0.73201,-0.41063 -1.12571,-0.81209 -1.12571,-0.81209"
       style="fill:#d3468d;fill-opacity:1;fill-rule:nonzero;stroke:none;stroke-width:0.0352778" />
    <path
       id="path412"
       d="m 150.03761,364.23359 c -0.24906,-0.1464 -0.49882,-0.31503 -0.74753,-0.50024 0.24871,0.18451 0.49883,0.35278 0.74824,0.49883 -3.5e-4,7.1e-4 -3.5e-4,10e-4 -7.1e-4,10e-4"
       style="fill:#f9b4d1;fill-opacity:1;fill-rule:nonzero;stroke:none;stroke-width:0.0352778" />
    <path
       id="path413"
       d="m 150.03832,364.23218 c -0.24941,-0.14605 -0.49953,-0.31432 -0.74824,-0.49883 -0.62724,-0.46743 -1.24566,-1.04034 -1.81998,-1.63195 l 7e-4,-7e-4 c 0.7493,0.77258 1.57692,1.5113 2.3996,2.02459 0.14358,-0.29669 0.29104,-0.59196 0.44132,-0.88583 -0.073,0.24871 -0.12735,0.46214 -0.17498,0.62477 -0.0469,0.1711 -0.0741,0.28928 -0.0854,0.34185 -0.004,0.009 -0.009,0.0173 -0.013,0.0261 m 0.54539,-1.84714 c -0.73236,-0.56409 -1.43298,-1.15958 -2.08879,-1.79705 l 5.87939,-8.68257 c 0,0 -0.19791,1.79282 -0.97049,4.34446 -0.0279,0.0441 -0.0607,0.0963 -0.0974,0.15628 -0.12241,0.21131 -0.31115,0.50553 -0.51258,0.86924 -0.20497,0.36407 -0.43145,0.79481 -0.66146,1.26048 -0.22648,0.46743 -0.44062,0.98143 -0.66005,1.49119 -0.33867,0.82056 -0.65123,1.65171 -0.88865,2.35797"
       style="fill:#f376a2;fill-opacity:1;fill-rule:nonzero;stroke:none;stroke-width:0.0352778" />
    <path
       id="path414"
       d="m 149.8704,364.12529 c -0.82268,-0.51329 -1.6503,-1.25201 -2.3996,-2.02459 l 1.02412,-1.51271 c 0.65581,0.63747 1.35643,1.23296 2.08879,1.79705 -0.06,0.1785 -0.11535,0.34889 -0.1651,0.50906 -0.0399,0.121 -0.0751,0.23671 -0.10689,0.34536 -0.15028,0.29387 -0.29774,0.58914 -0.44132,0.88583"
       style="fill:#7360aa;fill-opacity:1;fill-rule:nonzero;stroke:none;stroke-width:0.0352778" />
    <path
       id="path415"
       d="m 150.05137,364.20608 c 0.0113,-0.0526 0.0385,-0.17075 0.0854,-0.34185 0.0476,-0.16263 0.10196,-0.37606 0.17498,-0.62477 0.0317,-0.10865 0.067,-0.22436 0.10689,-0.34536 0.0497,-0.16017 0.10513,-0.33056 0.1651,-0.50906 0.23742,-0.70626 0.54998,-1.53741 0.88865,-2.35797 0.21943,-0.50976 0.43357,-1.02376 0.66005,-1.49119 0.23001,-0.46567 0.45649,-0.89641 0.66146,-1.26048 0.20143,-0.36371 0.39017,-0.65793 0.51258,-0.86924 0.0367,-0.06 0.0695,-0.11218 0.0974,-0.15628 -0.28222,0.93239 -0.64135,1.96568 -1.09538,3.05011 -0.76588,1.83727 -1.58714,3.5613 -2.25707,4.90609"
       style="fill:#cd3677;fill-opacity:1;fill-rule:nonzero;stroke:none;stroke-width:0.0352778" />
    <path
       id="path416"
       d="m 181.8624,365.62671 c 0.002,-10e-4 0.003,-0.002 0.005,-0.003 -0.002,10e-4 -0.004,0.002 -0.005,0.003 m 0.0127,-0.007 c 0.33373,-0.1838 0.67275,-0.38206 1.016,-0.59585 v 0 c -0.34325,0.21379 -0.68227,0.41205 -1.016,0.59585 m -24.66728,-18.29435 c 0,-3.6e-4 0,-3.6e-4 0,-3.6e-4 0.14958,-0.0822 0.29387,-0.15839 0.43286,-0.22966 -0.13899,0.0713 -0.28328,0.14782 -0.43286,0.23002 m 3.57399,-1.16629 v 0 0"
       style="fill:#f9b4d1;fill-opacity:1;fill-rule:nonzero;stroke:none;stroke-width:0.0352778" />
    <path
       id="path417"
       d="m 178.02418,365.27993 c -0.30515,-1.1878 -0.64629,-2.54282 -1.03011,-4.08834 -1.67075,-6.73735 -4.94312,-9.6834 -7.14057,-10.94176 0.33478,-1.27882 0.46884,-2.55622 0.49,-3.556 -1.24848,-0.63359 -2.56469,-1.08091 -3.9116,-1.24954 5.24475,0.65123 10.07498,5.47088 11.77361,9.45798 1.24848,2.92664 3.0159,6.65621 3.98427,8.67128 -1.30139,0.74894 -2.78483,1.25624 -4.1656,1.70638 m 4.86692,-0.25612 v 0 0 m -21.44606,-11.01972 c -0.20144,0 -0.40746,-0.008 -0.61666,-0.0258 0.58491,-1.0354 0.84032,-2.08386 0.84032,-2.08386 0,0 0.078,1.06257 0.53728,2.06799 -0.24695,0.0275 -0.50059,0.0416 -0.76094,0.0416 m -4.23792,-6.67385 c 3.5e-4,-0.002 3.5e-4,-0.004 7e-4,-0.005 0.14958,-0.0822 0.29387,-0.15875 0.43286,-0.23002 1.62736,-0.83502 2.52236,-0.95743 2.9083,-0.95743 0.15628,0 0.22895,0.0201 0.23283,0.0212 v 0 0 c 0,0 -0.0699,-0.0197 -0.22436,-0.0197 -0.41416,0 -1.43616,0.14217 -3.35033,1.19097"
       style="fill:#f376a2;fill-opacity:1;fill-rule:nonzero;stroke:none;stroke-width:0.0352778" />
    <path
       id="path418"
       d="m 160.82838,353.97834 c -0.30198,-0.0254 -0.61172,-0.0688 -0.92922,-0.13264 -2.84197,-0.56727 -2.90512,-4.31977 -2.69204,-6.51546 1.91417,-1.0488 2.93617,-1.19097 3.35033,-1.19097 0.15451,0 0.22436,0.0197 0.22436,0.0197 v 0 l 4.711,-0.78563 c 0.31397,0.008 0.62724,0.0321 0.93909,0.0709 1.34691,0.16863 2.66312,0.61595 3.9116,1.24954 -0.0212,0.99978 -0.15522,2.27718 -0.49,3.556 -1.29576,-0.74224 -2.21757,-0.89746 -2.21757,-0.89746 -0.70379,2.29058 -2.62607,4.30001 -5.42995,4.6101 -0.45932,-1.00542 -0.53728,-2.06799 -0.53728,-2.06799 0,0 -0.25541,1.04846 -0.84032,2.08386"
       style="fill:#7360aa;fill-opacity:1;fill-rule:nonzero;stroke:none;stroke-width:0.0352778" />
    <path
       id="path419"
       d="m 178.50043,367.10767 c -0.14816,-0.56056 -0.30656,-1.1684 -0.47625,-1.82774 1.38077,-0.45014 2.86421,-0.95744 4.1656,-1.70638 0.42581,0.88617 0.69709,1.44109 0.70132,1.45026 v 0 0 c -0.34325,0.21379 -0.68227,0.41205 -1.016,0.59585 -0.002,10e-4 -0.005,0.003 -0.008,0.004 -0.002,0.001 -0.003,0.002 -0.005,0.003 -1.20367,0.66181 -2.33856,1.137 -3.36197,1.48096"
       style="fill:#7360aa;fill-opacity:1;fill-rule:nonzero;stroke:none;stroke-width:0.0352778" />
    <path
       id="path420"
       d="m 125.22887,394.39574 c 0.007,-0.002 0.0134,-0.004 0.0205,-0.005 -0.007,0.002 -0.0141,0.004 -0.0205,0.005 m 0.0268,-0.007 c 2.99508,-0.74895 5.50545,-1.75331 7.63164,-2.91324 7.1e-4,0.002 10e-4,0.005 0.002,0.008 -2.12584,1.15817 -4.64115,2.15759 -7.63376,2.90548"
       style="fill:#f9b4d1;fill-opacity:1;fill-rule:nonzero;stroke:none;stroke-width:0.0352778" />
    <path
       id="path421"
       d="m 158.58965,418.52962 c -0.88124,0 -1.7653,-0.0247 -2.64936,-0.0811 -1.55434,-0.0917 -3.11115,-0.27163 -4.66019,-0.53622 -1.82457,-0.31397 -3.64067,-0.74789 -5.42996,-1.3088 -19.16042,-5.9937 -21.91103,-21.90892 -21.91103,-21.90892 0.43956,-0.0942 0.86925,-0.19402 1.28976,-0.2988 0.006,-0.002 0.0138,-0.004 0.0205,-0.005 0.002,-3.5e-4 0.004,-0.001 0.006,-0.001 2.99261,-0.74789 5.50792,-1.74731 7.63376,-2.90548 0.75212,2.91994 2.16358,5.56507 4.9911,7.08202 1.54728,0.83114 3.3027,1.22166 5.06483,1.22166 0.61842,0 1.23825,-0.048 1.84961,-0.14216 -1.75224,0.8456 -3.70522,1.1123 -5.4737,1.1123 -3.02507,0 -5.50756,-0.7814 -5.50756,-0.7814 1.45132,3.2325 4.12432,5.63139 5.87904,6.94725 -0.26388,-0.1658 -0.53552,-0.33513 -0.81845,-0.50447 -0.36653,-0.25047 -0.74224,-0.508 -1.12712,-0.77258 -0.37571,-0.27517 -0.7426,-0.5715 -1.12007,-0.85372 -0.35454,-0.31045 -0.72637,-0.60325 -1.06257,-0.92428 -0.32879,-0.32456 -0.68121,-0.62442 -0.97613,-0.9525 -0.30763,-0.31397 -0.59726,-0.63147 -0.86466,-0.93945 -0.26988,-0.30304 -0.50377,-0.60995 -0.72108,-0.89182 -0.42263,-0.56938 -0.76235,-1.06222 -0.97473,-1.42099 -0.2159,-0.35666 -0.32702,-0.57185 -0.32702,-0.57185 0,0 0.0628,0.23212 0.2226,0.62441 0.17286,0.38277 0.41734,0.9398 0.80575,1.55505 0.19755,0.30339 0.41134,0.63711 0.65969,0.97084 0.24659,0.33514 0.50871,0.68792 0.81986,1.02306 0.29139,0.34925 0.62582,0.68086 0.96731,1.01953 0.34149,0.33161 0.71932,0.63852 1.08091,0.96308 0.38806,0.29281 0.77294,0.58561 1.16311,0.86431 0.39899,0.26105 0.79446,0.51152 1.1811,0.74788 0.39229,0.21873 0.78105,0.41981 1.14371,0.60678 -7.10953,-3.06916 -10.42635,-10.21574 -10.42635,-10.21574 0.0339,4.51767 3.83082,8.69527 3.83082,8.69527 5.47193,6.68161 15.37229,9.48267 24.39458,9.48267 6.1655,0 11.92213,-1.30881 15.56985,-3.58423 8.98631,-5.59858 9.77723,-9.58497 9.77723,-9.58497 -0.6671,0.11642 -1.30598,0.16933 -1.91346,0.16933 -4.28943,0 -7.00441,-2.60103 -7.00441,-2.60103 1.15923,0.42193 2.33045,0.57256 3.41207,0.57256 2.69946,0 4.84047,-0.93839 4.84047,-0.93839 -4.84541,-0.1725 -10.16882,-5.30789 -12.30666,-18.6824 -1.93534,-12.11898 1.33139,-25.23561 1.95757,-25.23561 0.0649,0 0.1016,0.14111 0.10124,0.43886 -0.002,0.63006 0.0557,1.48343 0.14888,2.44721 -0.0134,-0.0617 -0.0261,-0.11923 -0.0378,-0.17286 -0.061,-0.27587 -0.10442,-0.42933 -0.10442,-0.42933 0,0 -0.0265,0.64523 0.013,1.60902 0.0215,0.4819 0.0593,1.04458 0.10936,1.64324 0.0434,0.60219 0.13864,1.23614 0.22119,1.87607 0.0953,0.63289 0.18874,1.2693 0.29704,1.86161 0.12383,0.59055 0.25859,1.13842 0.38241,1.60761 0.0684,0.27305 0.13935,0.51858 0.20144,0.72955 0.0434,0.24765 0.0903,0.4953 0.13652,0.74259 l 0.0166,0.06 c 0.0321,0.0109 0.066,0.0148 0.0998,0.0265 0.10548,0.52423 3.1055,15.34055 6.67632,22.28956 3.63537,7.0732 13.05278,7.26934 13.05278,7.26934 -4.77591,12.98928 -19.32199,20.98675 -34.60151,20.98675 m 28.87169,-17.66993 c 0,0 -0.0988,0.11783 -0.25717,0.33126 -0.1524,0.21343 -0.3863,0.51153 -0.63994,0.88159 -0.13124,0.17992 -0.25189,0.38805 -0.40817,0.58914 -0.16721,0.19755 -0.33972,0.40216 -0.51047,0.62089 -0.17286,0.21872 -0.3563,0.43744 -0.52705,0.67028 -0.18873,0.22225 -0.4011,0.42686 -0.5969,0.64205 -0.20496,0.2152 -0.38805,0.44803 -0.5969,0.64558 -0.21731,0.19403 -0.42086,0.39512 -0.62194,0.58209 -0.19791,0.19403 -0.39935,0.37041 -0.59902,0.52564 -0.19579,0.1658 -0.381,0.3175 -0.55174,0.45861 -0.36125,0.254 -0.64876,0.50447 -0.87913,0.63147 -0.2159,0.14817 -0.34678,0.22578 -0.34678,0.22578 0,0 0.14711,-0.0282 0.39688,-0.12347 0.25541,-0.0847 0.60078,-0.24695 1.01459,-0.44803 0.19579,-0.11289 0.40604,-0.24695 0.62724,-0.38806 0.22648,-0.13758 0.45473,-0.29633 0.67063,-0.48683 0.21907,-0.18345 0.45473,-0.36689 0.67945,-0.56445 0.22472,-0.20461 0.42262,-0.43744 0.63464,-0.65616 0.20708,-0.22931 0.4191,-0.44803 0.6096,-0.68086 0.17816,-0.24342 0.33973,-0.49036 0.50342,-0.72673 0.16369,-0.23283 0.31468,-0.46566 0.45861,-0.68439 0.14005,-0.21872 0.23177,-0.45155 0.33408,-0.65616 0.19967,-0.41099 0.33972,-0.76377 0.45155,-1.00507 0.10266,-0.2413 0.15452,-0.38417 0.15452,-0.38417 m -10.46727,0.32738 c 0,0 0.16545,0.0776 0.47096,0.17921 0.30374,0.0921 0.74612,0.23177 1.29046,0.32773 0.27164,0.0533 0.56656,0.0991 0.88159,0.12982 0.31644,0.042 0.65052,0.049 0.99942,0.0663 0.34361,-0.008 0.70309,0.008 1.06786,-0.0296 0.36336,-0.0367 0.73343,-0.0635 1.09855,-0.13476 l 0.54822,-0.10195 c 0.17815,-0.0494 0.3563,-0.097 0.5341,-0.14429 0.35807,-0.0811 0.69039,-0.22225 1.01565,-0.34537 0.32914,-0.11148 0.62759,-0.27622 0.91158,-0.42298 0.13864,-0.0727 0.27552,-0.14464 0.40851,-0.21343 0.12418,-0.0847 0.24272,-0.16686 0.35949,-0.24306 0.23001,-0.15593 0.44238,-0.29387 0.61453,-0.43674 0.16757,-0.14923 0.31503,-0.27799 0.43745,-0.38524 0.23742,-0.21554 0.36618,-0.34113 0.36618,-0.34113 0,0 -0.16298,0.0871 -0.43462,0.24976 -0.13864,0.0822 -0.30021,0.17992 -0.49283,0.29175 -0.18874,0.1083 -0.42051,0.20108 -0.65793,0.32773 -0.12065,0.0593 -0.24483,0.12171 -0.3743,0.18627 -0.13264,0.0526 -0.27305,0.1076 -0.41487,0.16721 -0.28433,0.11289 -0.58102,0.23884 -0.89923,0.33162 -0.3182,0.10618 -0.64382,0.20813 -0.9853,0.28328 -0.17075,0.0423 -0.34149,0.0843 -0.51224,0.12629 l -0.52352,0.0903 c -0.69568,0.139 -1.40935,0.18133 -2.07469,0.22543 -0.0141,0 -0.0282,0 -0.0423,0 -0.12453,0 -0.248,0.004 -0.36971,0.008 -0.12206,0.005 -0.24201,0.009 -0.35983,0.009 -0.0653,0 -0.12983,-10e-4 -0.19333,-0.005 -0.30762,-0.003 -0.60078,-0.007 -0.86854,-0.0229 -0.53763,-0.03 -0.9906,-0.0642 -1.30527,-0.10759 -0.31644,-0.0371 -0.49601,-0.066 -0.49601,-0.066 m -41.81087,-2.68499 c 0,0 0.3937,0.40146 1.12571,0.81209 0.35948,0.21167 0.80892,0.41734 1.3014,0.59549 0.24836,0.0818 0.50341,0.18097 0.77505,0.23742 0.26635,0.0702 0.54116,0.12418 0.81809,0.17004 0.2787,0.049 0.56092,0.0607 0.83609,0.0896 0.097,0.0113 0.19403,0.0148 0.29104,0.0148 0.0783,0 0.15628,-0.002 0.23354,-0.005 0.0765,-0.002 0.1524,-0.005 0.22754,-0.005 0.0198,0 0.0392,3.5e-4 0.0589,7e-4 0.0138,0 0.0272,3.6e-4 0.0409,3.6e-4 0.248,0 0.48718,-0.0459 0.71225,-0.066 0.23919,-0.0173 0.46003,-0.0727 0.66499,-0.11995 0.41205,-0.0794 0.73942,-0.20108 0.96555,-0.28575 0.22472,-0.0896 0.35455,-0.13723 0.35455,-0.13723 0,0 -0.13865,0.007 -0.38171,0.0233 -0.11677,0.008 -0.26211,0.0244 -0.42757,0.0388 -0.16369,0.0198 -0.35207,0.0116 -0.55386,0.0258 -0.17039,0.007 -0.35348,0.0183 -0.54575,0.0183 -0.0346,0 -0.0699,-3.6e-4 -0.10512,-0.001 -0.0748,-0.003 -0.15029,-0.004 -0.22649,-0.004 -0.018,0 -0.0363,0 -0.0543,0 -0.0183,0 -0.0367,3.5e-4 -0.055,3.5e-4 -0.12629,0 -0.25541,-10e-4 -0.38664,-0.0123 -0.50165,-0.0293 -1.03223,-0.0663 -1.5554,-0.16052 -0.52846,-0.067 -1.04634,-0.1972 -1.53176,-0.31926 -0.48366,-0.12947 -0.93486,-0.26705 -1.31586,-0.40464 -0.76271,-0.27164 -1.26612,-0.50764 -1.26612,-0.50764"
       style="fill:#f376a2;fill-opacity:1;fill-rule:nonzero;stroke:none;stroke-width:0.0352778" />
    <path
       id="path422"
       d="m 173.46206,367.98397 c -0.0339,-0.0116 -0.0677,-0.0155 -0.0998,-0.0265 l -0.0166,-0.06 c -0.0462,-0.24729 -0.0931,-0.49494 -0.13652,-0.74259 0.0441,0.14957 0.084,0.28186 0.11536,0.39405 0.0808,0.26952 0.13476,0.42086 0.13476,0.42086 v 0 c 0,0 0.001,0.005 0.003,0.0141"
       style="fill:#7360aa;fill-opacity:1;fill-rule:nonzero;stroke:none;stroke-width:0.0352778" />
    <path
       id="path423"
       d="m 173.45924,367.96986 c 0,0 -0.054,-0.15134 -0.13476,-0.42086 -0.0314,-0.11219 -0.0713,-0.24448 -0.11536,-0.39405 -0.0621,-0.21097 -0.133,-0.4565 -0.20144,-0.72955 -0.12382,-0.46919 -0.25858,-1.01706 -0.38241,-1.60761 -0.1083,-0.59231 -0.20179,-1.22872 -0.29704,-1.86161 -0.0825,-0.63993 -0.1778,-1.27388 -0.22119,-1.87607 -0.0501,-0.59866 -0.0878,-1.16134 -0.10936,-1.64324 -0.0395,-0.96379 -0.013,-1.60902 -0.013,-1.60902 0,0 0.0434,0.15346 0.10442,0.42933 0.0116,0.0536 0.0243,0.11113 0.0378,0.17286 0.3757,3.87986 1.33244,9.53982 1.33244,9.53982"
       style="fill:#cd3677;fill-opacity:1;fill-rule:nonzero;stroke:none;stroke-width:0.0352778" />
    <path
       id="path424"
       d="m 180.92613,407.66407 c 0,0 0.13088,-0.0776 0.34678,-0.22578 0.23037,-0.127 0.51788,-0.37747 0.87913,-0.63147 0.17074,-0.14111 0.35595,-0.29281 0.55174,-0.45861 0.19967,-0.15523 0.40111,-0.33161 0.59902,-0.52564 0.20108,-0.18697 0.40463,-0.38806 0.62194,-0.58209 0.20885,-0.19755 0.39194,-0.43038 0.5969,-0.64558 0.1958,-0.21519 0.40817,-0.4198 0.5969,-0.64205 0.17075,-0.23284 0.35419,-0.45156 0.52705,-0.67028 0.17075,-0.21873 0.34326,-0.42334 0.51047,-0.62089 0.15628,-0.20109 0.27693,-0.40922 0.40817,-0.58914 0.25364,-0.37006 0.48754,-0.66816 0.63994,-0.88159 0.15839,-0.21343 0.25717,-0.33126 0.25717,-0.33126 0,0 -0.0519,0.14287 -0.15452,0.38417 -0.11183,0.2413 -0.25188,0.59408 -0.45155,1.00507 -0.10231,0.20461 -0.19403,0.43744 -0.33408,0.65616 -0.14393,0.21873 -0.29492,0.45156 -0.45861,0.68439 -0.16369,0.23637 -0.32526,0.48331 -0.50342,0.72673 -0.1905,0.23283 -0.40252,0.45155 -0.6096,0.68086 -0.21202,0.21872 -0.40992,0.45155 -0.63464,0.65616 -0.22472,0.19756 -0.46038,0.381 -0.67945,0.56445 -0.2159,0.1905 -0.44415,0.34925 -0.67063,0.48683 -0.2212,0.14111 -0.43145,0.27517 -0.62724,0.38806 -0.41381,0.20108 -0.75918,0.36336 -1.01459,0.44803 -0.24977,0.0953 -0.39688,0.12347 -0.39688,0.12347"
       style="fill:#cd3677;fill-opacity:1;fill-rule:nonzero;stroke:none;stroke-width:0.0352778" />
    <path
       id="path425"
       d="m 180.6365,401.89015 c -0.3489,-0.0173 -0.68298,-0.0243 -0.99942,-0.0663 -0.31503,-0.0307 -0.60995,-0.0765 -0.88159,-0.12982 -0.54434,-0.096 -0.98672,-0.23566 -1.29046,-0.32773 -0.30551,-0.1016 -0.47096,-0.17921 -0.47096,-0.17921 0,0 0.17957,0.0289 0.49601,0.066 0.31467,0.0434 0.76764,0.0776 1.30527,0.10759 0.26776,0.0162 0.56092,0.0198 0.86854,0.0229 0.0635,0.004 0.12806,0.005 0.19333,0.005 0.11782,0 0.23777,-0.004 0.35983,-0.009 0.12171,-0.004 0.24518,-0.008 0.36971,-0.008 0.0141,0 0.0282,0 0.0423,0 0.66534,-0.0441 1.37901,-0.0864 2.07469,-0.22543 l 0.52352,-0.0903 c 0.17075,-0.042 0.34149,-0.084 0.51224,-0.12629 0.34148,-0.0752 0.6671,-0.1771 0.9853,-0.28328 0.31821,-0.0928 0.6149,-0.21873 0.89923,-0.33162 0.14182,-0.0596 0.28223,-0.11465 0.41487,-0.16721 0.12947,-0.0646 0.25365,-0.127 0.3743,-0.18627 0.23742,-0.12665 0.46919,-0.21943 0.65793,-0.32773 0.19262,-0.11183 0.35419,-0.20955 0.49283,-0.29175 0.27164,-0.16263 0.43462,-0.24976 0.43462,-0.24976 0,0 -0.12876,0.12559 -0.36618,0.34113 -0.12242,0.10725 -0.26988,0.23601 -0.43745,0.38524 -0.17215,0.14287 -0.38452,0.28081 -0.61453,0.43674 -0.11677,0.0762 -0.23531,0.15839 -0.35949,0.24306 -0.13299,0.0688 -0.26987,0.14076 -0.40851,0.21343 -0.28399,0.14676 -0.58244,0.3115 -0.91158,0.42298 -0.32526,0.12312 -0.65758,0.26423 -1.01565,0.34537 -0.1778,0.0473 -0.35595,0.0949 -0.5341,0.14429 l -0.54822,0.10195 c -0.36512,0.0713 -0.73519,0.0981 -1.09855,0.13476 -0.36477,0.0378 -0.72425,0.0215 -1.06786,0.0296"
       style="fill:#cd3677;fill-opacity:1;fill-rule:nonzero;stroke:none;stroke-width:0.0352778" />
    <path
       id="path426"
       d="m 141.40232,408.08035 c -0.57362,-0.17992 -1.12607,-0.38453 -1.65735,-0.61384 -0.36266,-0.18697 -0.75142,-0.38805 -1.14371,-0.60678 -0.38664,-0.23636 -0.78211,-0.48683 -1.1811,-0.74788 -0.39017,-0.2787 -0.77505,-0.5715 -1.16311,-0.86431 -0.36159,-0.32456 -0.73942,-0.63147 -1.08091,-0.96308 -0.34149,-0.33867 -0.67592,-0.67028 -0.96731,-1.01953 -0.31115,-0.33514 -0.57327,-0.68792 -0.81986,-1.02306 -0.24835,-0.33373 -0.46214,-0.66745 -0.65969,-0.97084 -0.38841,-0.61525 -0.63289,-1.17228 -0.80575,-1.55505 -0.15981,-0.39229 -0.2226,-0.62441 -0.2226,-0.62441 0,0 0.11112,0.21519 0.32702,0.57185 0.21238,0.35877 0.5521,0.85161 0.97473,1.42099 0.21731,0.28187 0.4512,0.58878 0.72108,0.89182 0.2674,0.30798 0.55703,0.62548 0.86466,0.93945 0.29492,0.32808 0.64734,0.62794 0.97613,0.9525 0.3362,0.32103 0.70803,0.61383 1.06257,0.92428 0.37747,0.28222 0.74436,0.57855 1.12007,0.85372 0.38488,0.26458 0.76059,0.52211 1.12712,0.77258 0.28293,0.16934 0.55457,0.33867 0.81845,0.50447 1.00541,0.75848 1.70956,1.15712 1.70956,1.15712"
       style="fill:#cd3677;fill-opacity:1;fill-rule:nonzero;stroke:none;stroke-width:0.0352778" />
    <path
       id="path427"
       d="m 140.33058,400.42154 c -0.097,0 -0.19403,-0.004 -0.29104,-0.0148 -0.27517,-0.0289 -0.55739,-0.0406 -0.83609,-0.0896 -0.27693,-0.0459 -0.55174,-0.0998 -0.81809,-0.17004 -0.27164,-0.0565 -0.52669,-0.15558 -0.77505,-0.23742 -0.49248,-0.17815 -0.94192,-0.38382 -1.3014,-0.59549 -0.73201,-0.41063 -1.12571,-0.81209 -1.12571,-0.81209 0,0 0.50341,0.236 1.26612,0.50764 0.381,0.13759 0.8322,0.27517 1.31586,0.40464 0.48542,0.12206 1.0033,0.25223 1.53176,0.31926 0.52317,0.0942 1.05375,0.13124 1.5554,0.16052 0.13123,0.0109 0.26035,0.0123 0.38664,0.0123 0.0183,0 0.0367,-3.5e-4 0.055,-3.5e-4 0.018,0 0.0363,0 0.0543,0 0.0762,0 0.1517,3.5e-4 0.22649,0.004 0.0353,7e-4 0.0705,0.001 0.10512,0.001 0.19227,0 0.37536,-0.0113 0.54575,-0.0183 0.20179,-0.0141 0.39017,-0.006 0.55386,-0.0258 0.16546,-0.0145 0.3108,-0.0303 0.42757,-0.0388 0.24306,-0.0162 0.38171,-0.0233 0.38171,-0.0233 0,0 -0.12983,0.0476 -0.35455,0.13723 -0.22613,0.0847 -0.5535,0.20638 -0.96555,0.28575 -0.20496,0.0473 -0.4258,0.10266 -0.66499,0.11995 -0.22507,0.0201 -0.46425,0.066 -0.71225,0.066 -0.0138,0 -0.0272,-3.6e-4 -0.0409,-3.6e-4 -0.0198,-3.5e-4 -0.0392,-7e-4 -0.0589,-7e-4 -0.0751,0 -0.15099,0.002 -0.22754,0.005 -0.0773,0.002 -0.15522,0.005 -0.23354,0.005"
       style="fill:#cd3677;fill-opacity:1;fill-rule:nonzero;stroke:none;stroke-width:0.0352778" />
    <path
       id="path428"
       d="m 159.89916,345.22628 c 0,0 -1.47425,6.99981 1.76919,6.6682 3.24167,-0.33302 4.23051,-3.42159 3.68405,-7.40445 l -5.45324,0.73625"
       style="fill:#ddad81;fill-opacity:1;fill-rule:nonzero;stroke:none;stroke-width:0.0352778" />
    <path
       id="path429"
       d="m 148.65684,363.22676 c -2.79753,9.35779 -15.35959,24.22243 -16.02281,24.66376 -0.66358,0.44238 -0.14782,1.25307 -0.14782,1.25307 1.03047,1.54798 1.54834,5.67478 0.29528,7.22171 -1.25131,1.54693 -1.17969,-1.25448 -1.47461,-3.17006 -0.29493,-1.91382 -1.39841,-1.54623 -1.39841,-1.54623 -2.2853,3.09492 -0.81104,7.88459 -1.10596,8.91752 -0.29316,1.03011 -2.13572,0.29316 -2.13572,0.29316 -1.32539,0.73695 -1.99214,0 -1.99214,0 -1.64182,-0.1778 -1.8415,-1.76812 -1.8415,-1.76812 -0.66287,-0.44203 -1.69157,-1.25236 -0.73871,-5.15973 0.96026,-3.90455 7.1,-7.39281 7.1,-7.39281 7.80662,-7.17056 17.07833,-25.76901 17.07833,-25.76901 l 2.38407,2.45674"
       style="fill:#f1cead;fill-opacity:1;fill-rule:nonzero;stroke:none;stroke-width:0.0352778" />
    <path
       id="path433"
       d="m 177.02441,367.96986 c 0,0 3.95005,17.3415 10.95093,24.19562 0,0 -3.09598,3.31505 -1.84468,5.60035 1.25342,2.28212 1.18146,-2.94746 2.72768,-2.94746 1.54975,0 3.91583,3.84986 3.58881,4.54589 -0.32914,0.69215 -2.18652,2.75061 -1.30387,3.33975 0.88477,0.58914 2.57846,-1.62242 2.94887,-3.31823 0,0 1.397,0.44203 1.76742,-0.8837 0,0 1.03011,0.0744 1.32327,-1.40018 0,0 1.03364,-0.36759 0.66675,-2.57881 -0.37006,-2.21262 -2.57986,-4.4203 -7.51699,-4.2739 0,0 -7.17374,-9.97726 -10.24467,-23.75218 0,0 -2.22391,0.8562 -3.06352,1.03929 0,0 -0.0699,0.13829 0,0.43356"
       style="fill:#f1cead;fill-opacity:1;fill-rule:nonzero;stroke:none;stroke-width:0.0352778" />
    <path
       id="path434"
       d="m 194.37614,397.90835 c -0.0162,-0.28469 -0.0882,-0.5775 -0.17427,-0.86642 -0.10266,-0.28152 -0.21414,-0.55739 -0.35596,-0.79834 -0.13299,-0.24271 -0.28963,-0.45332 -0.4318,-0.62124 -0.28363,-0.34325 -0.53939,-0.51153 -0.53939,-0.51153 0,0 0.0236,0.0677 0.0614,0.17498 0.62936,0.69674 0.91863,1.48131 1.01953,2.31422 0.10936,0.52776 0.14358,1.05834 0.11148,1.59209 0.0123,0.12065 0.025,0.19367 0.025,0.19367 0,0 0.0342,-0.0649 0.0882,-0.18556 0.0624,-0.11783 0.12029,-0.29457 0.15981,-0.51858 0.0307,-0.11148 0.0325,-0.23283 0.0413,-0.36513 0.0162,-0.13123 0.006,-0.26599 -0.005,-0.40816"
       style="fill:#b88459;fill-opacity:1;fill-rule:nonzero;stroke:none;stroke-width:0.0352778" />
    <path
       id="path435"
       d="m 196.12556,397.18657 c 0.0123,-0.25859 -0.0914,-0.51153 -0.14746,-0.77541 -0.17603,-0.50976 -0.46566,-0.96661 -0.74612,-1.24883 -0.26988,-0.29422 -0.51435,-0.4184 -0.51435,-0.4184 0,0 0.0307,0.0776 0.0755,0.19791 0.74436,1.03999 1.12042,2.21792 1.11654,3.45017 0.0452,-0.10619 0.1136,-0.27587 0.17428,-0.51788 0.067,-0.19755 0.0395,-0.43215 0.0416,-0.68756"
       style="fill:#b88459;fill-opacity:1;fill-rule:nonzero;stroke:none;stroke-width:0.0352778" />
    <path
       id="path436"
       d="m 197.33559,395.96031 c -0.0141,-0.10654 -0.0197,-0.21907 -0.0448,-0.33161 -0.0363,-0.1083 -0.0758,-0.21625 -0.11148,-0.32632 -0.049,-0.1076 -0.0794,-0.22225 -0.14217,-0.31679 -0.0575,-0.0991 -0.12594,-0.19227 -0.18521,-0.28364 -0.0557,-0.0914 -0.13476,-0.16263 -0.20496,-0.23636 -0.0699,-0.0723 -0.13476,-0.13829 -0.20849,-0.18697 -0.27305,-0.21943 -0.51047,-0.27093 -0.51047,-0.27093 0,0 0.0466,0.0882 0.11642,0.22119 0.49283,0.57009 1.00153,1.0735 1.11689,1.87819 0.0413,0.29245 0.0593,0.58631 0.0646,0.87912 0.0307,-0.0956 0.072,-0.24165 0.10618,-0.4385 0.009,-0.085 0.0377,-0.17992 0.0268,-0.27658 -0.005,-0.0974 -0.009,-0.20285 -0.0233,-0.3108"
       style="fill:#b88459;fill-opacity:1;fill-rule:nonzero;stroke:none;stroke-width:0.0352778" />
    <path
       id="path437"
       d="m 193.03876,361.47028 c -0.13864,-0.39475 -0.32032,-0.8001 -0.45332,-1.22449 -0.0378,-0.0917 -0.0684,-0.18309 -0.10231,-0.27411 0.23001,0.30375 0.47237,0.59302 0.72637,0.84455 0.31644,0.31398 0.63782,0.58209 0.92569,0.78987 0.57362,0.4244 1.01918,0.60643 1.01918,0.60643 0,0 -0.35031,-0.32244 -0.83009,-0.82338 -0.23742,-0.25154 -0.51082,-0.5461 -0.78952,-0.8763 -0.2734,-0.32809 -0.55915,-0.68404 -0.8128,-1.06081 -0.12594,-0.18768 -0.26211,-0.36971 -0.36865,-0.56726 -0.11289,-0.19262 -0.23177,-0.37677 -0.3235,-0.56904 -0.097,-0.18767 -0.19579,-0.37041 -0.26775,-0.55139 l -0.0254,-0.0607 -0.0339,0.004 -0.0289,0.003 c -0.0593,0.008 -0.12065,0.0155 -0.17604,0.0208 l -0.0145,10e-4 -0.072,0.007 -0.043,0.006 0.018,0.0769 -0.009,0.0335 c -0.11324,0.13759 -0.2734,0.34008 -0.46037,0.59761 -0.097,0.12347 -0.18309,0.2674 -0.25506,0.42827 -0.0808,0.15628 -0.16545,0.32279 -0.24447,0.5013 -0.0829,0.17357 -0.17286,0.35454 -0.22155,0.5521 -0.0593,0.19226 -0.11853,0.39017 -0.17568,0.58772 -0.1136,0.39582 -0.16016,0.80857 -0.21802,1.1871 -0.0194,0.38559 -0.0505,0.74225 -0.025,1.04987 0.0109,0.30727 0.0413,0.56268 0.0737,0.7373 0.0272,0.17886 0.0579,0.27658 0.0579,0.27658 0,0 0.0159,-0.10054 0.043,-0.27658 0.025,-0.17744 0.0684,-0.42368 0.11501,-0.72037 0.0377,-0.29457 0.12241,-0.63641 0.17603,-1.00118 0.0395,-0.18168 0.09,-0.36583 0.12982,-0.55598 0.0378,-0.19121 0.0716,-0.38523 0.13441,-0.56938 0.11536,-0.37606 0.18556,-0.768 0.32738,-1.10878 0.13476,-0.34043 0.20673,-0.68827 0.34184,-0.95286 0.0392,-0.0847 0.0716,-0.16439 0.10407,-0.24377 -0.002,0.0494 -0.0106,0.0963 -0.0162,0.14746 -0.0215,0.21414 -0.0504,0.43886 -0.0702,0.67452 -0.0286,0.23424 -0.0395,0.47625 -0.0215,0.72319 0.007,0.24589 0.0162,0.49601 0.0254,0.74648 0.005,0.25012 0.0575,0.49777 0.0861,0.74048 0.0321,0.24483 0.0737,0.48295 0.11677,0.71296 0.11536,0.45438 0.2032,0.88124 0.3362,1.23261 0.11535,0.35419 0.24094,0.64205 0.32737,0.84137 0.0861,0.19968 0.15311,0.30939 0.15311,0.30939 0,0 -0.0219,-0.12418 -0.0579,-0.33973 -0.0469,-0.2106 -0.0825,-0.5154 -0.14181,-0.88018 -0.0667,-0.36053 -0.1009,-0.7881 -0.17639,-1.23789 -0.0233,-0.22472 -0.0469,-0.46108 -0.072,-0.69956 -0.0198,-0.23566 -0.0663,-0.47413 -0.0663,-0.71896 -0.0145,-0.24095 -0.0289,-0.4826 -0.0413,-0.72108 -0.007,-0.11889 -0.0148,-0.23566 -0.0236,-0.35419 0,-0.11536 0.002,-0.23001 0.004,-0.34255 0.004,-0.11571 0.005,-0.2293 0.004,-0.34184 0.0233,0.0984 0.0466,0.20073 0.0737,0.30304 0.0554,0.20884 0.0935,0.42615 0.16686,0.63676 0.0741,0.21026 0.14958,0.42898 0.22154,0.64382 0.14923,0.42898 0.34149,0.84208 0.52282,1.22873 0.0847,0.19402 0.19791,0.37218 0.28787,0.54398 0.0952,0.17004 0.18485,0.33161 0.28046,0.47272 0.36512,0.57891 0.67768,0.91475 0.67768,0.91475 0,0 -0.16863,-0.41874 -0.41874,-1.04633 -0.12418,-0.31151 -0.26635,-0.67663 -0.41875,-1.06575"
       style="fill:#d25624;fill-opacity:1;fill-rule:nonzero;stroke:none;stroke-width:0.0352778" />
    <path
       id="path438"
       d="m 192.47749,358.61419 c 0.27164,0.29563 0.64558,0.66993 1.02835,1.03823 0.19402,0.17886 0.39193,0.35948 0.58455,0.52317 0.18697,0.16369 0.36653,0.31186 0.53234,0.43321 0.32138,0.24553 0.56621,0.38735 0.56621,0.38735 0,0 -0.11853,-0.25435 -0.35807,-0.58843 -0.23178,-0.33655 -0.5842,-0.74966 -0.97614,-1.1236 -0.19579,-0.18733 -0.40992,-0.36019 -0.60924,-0.51541 -0.2032,-0.15734 -0.41558,-0.28222 -0.59197,-0.38558 -0.17391,-0.10584 -0.34642,-0.16122 -0.45825,-0.20603 -0.11501,-0.0402 -0.17957,-0.06 -0.17957,-0.06 0,0 0.0466,0.0536 0.12736,0.14535 0.0773,0.0928 0.1979,0.20214 0.33443,0.35171"
       style="fill:#d25624;fill-opacity:1;fill-rule:nonzero;stroke:none;stroke-width:0.0352778" />
    <path
       id="path439"
       d="m 189.15856,352.87873 c 0,0 -1.48696,2.46627 -0.36654,3.26955 1.1236,0.80363 3.22368,1.96885 3.22368,1.96885 0,0 1.54976,-1.77024 1.21003,-4.00755 -0.33479,-2.23944 -1.85173,-1.62278 -2.34668,-1.70463 -0.49212,-0.0836 -1.72049,0.47378 -1.72049,0.47378"
       style="fill:#d25624;fill-opacity:1;fill-rule:nonzero;stroke:none;stroke-width:0.0352778" />
    <path
       id="path440"
       d="m 188.3514,348.52898 c 0,0 -1.65206,3.93242 -0.5394,4.63621 1.11302,0.70203 3.02225,1.41076 3.02225,1.41076 0,0 2.16464,-1.90853 2.26166,-3.54648 0.097,-1.63689 -2.20451,-2.79717 -2.40348,-2.78941 -0.20143,0.006 -2.01718,-0.5715 -2.34103,0.28892"
       style="fill:#f06e25;fill-opacity:1;fill-rule:nonzero;stroke:none;stroke-width:0.0352778" />
    <path
       id="path441"
       d="m 186.39877,346.213 c 0,0 0.51259,3.13725 3.46993,4.52896 0,0 2.81022,-1.83727 3.16441,-6.30238 0,0 -7.56743,-0.502 -6.63434,1.77342"
       style="fill:#d25624;fill-opacity:1;fill-rule:nonzero;stroke:none;stroke-width:0.0352778" />
    <path
       id="path442"
       d="m 135.45484,345.98122 c 0.35242,-0.22401 0.74965,-0.42792 1.11654,-0.67874 0.0847,-0.0497 0.16686,-0.0995 0.25153,-0.15205 -0.37006,0.0953 -0.74048,0.17357 -1.09679,0.21026 -0.44379,0.0515 -0.86113,0.0631 -1.21496,0.0462 -0.71226,-0.0236 -1.1744,-0.15593 -1.1744,-0.15593 0,0 0.47308,-0.0385 1.1617,-0.133 0.34325,-0.0501 0.74048,-0.11324 1.15958,-0.19755 0.42086,-0.0864 0.86818,-0.18874 1.29822,-0.32561 0.21731,-0.0698 0.43674,-0.12736 0.63994,-0.21555 0.20849,-0.0801 0.41698,-0.15064 0.60784,-0.24554 0.19402,-0.0871 0.38276,-0.17003 0.5535,-0.26705 l 0.054,-0.0303 0.0272,0.0222 0.0215,0.0243 c 0.0413,0.0416 0.0843,0.0808 0.12594,0.12418 l 0.009,0.007 0.0519,0.0547 0.0328,0.03 -0.0667,0.0476 -0.0145,0.0342 c 0.005,0.17745 0.005,0.43533 -0.009,0.75424 0.004,0.15628 -0.0219,0.32103 -0.0628,0.49177 -0.0381,0.17427 -0.0741,0.35878 -0.12065,0.54575 -0.043,0.18768 -0.0847,0.38559 -0.17075,0.57079 -0.072,0.18803 -0.14922,0.37959 -0.22295,0.57186 -0.1584,0.37959 -0.37959,0.72919 -0.57009,1.06362 -0.22296,0.31539 -0.41875,0.61278 -0.63112,0.83961 -0.19932,0.23319 -0.381,0.41487 -0.51576,0.53376 -0.13159,0.12135 -0.2159,0.17921 -0.2159,0.17921 0,0 0.0466,-0.0882 0.13864,-0.24377 0.0878,-0.15205 0.2099,-0.37289 0.3556,-0.635 0.15275,-0.25577 0.29669,-0.57679 0.48225,-0.89782 0.0804,-0.16475 0.15804,-0.34079 0.24624,-0.51541 0.0861,-0.17251 0.18168,-0.34396 0.24412,-0.53093 0.14605,-0.36407 0.3309,-0.71473 0.43356,-1.07103 0.10407,-0.34855 0.266,-0.66675 0.3235,-0.95815 0.0215,-0.0917 0.0451,-0.17674 0.0663,-0.25717 -0.0265,0.0434 -0.0483,0.0829 -0.0769,0.12629 -0.1136,0.18203 -0.23037,0.37641 -0.3616,0.5715 -0.12383,0.20073 -0.26388,0.3997 -0.42969,0.58279 -0.16192,0.18662 -0.32349,0.37818 -0.48718,0.56727 -0.1584,0.19508 -0.35243,0.35489 -0.52882,0.5281 -0.17603,0.17004 -0.35595,0.33267 -0.53163,0.48649 -0.37077,0.28433 -0.70697,0.56444 -1.0287,0.75882 -0.31115,0.20708 -0.58632,0.35348 -0.77999,0.45367 -0.19086,0.10442 -0.30763,0.14958 -0.30763,0.14958 0,0 0.0914,-0.0854 0.2533,-0.23142 0.1658,-0.13547 0.38488,-0.35313 0.65652,-0.60114 0.27658,-0.24094 0.56797,-0.55703 0.9077,-0.86042 0.15839,-0.16334 0.32349,-0.33232 0.48895,-0.50518 0.16368,-0.1718 0.34889,-0.33126 0.49988,-0.5214 0.16016,-0.18027 0.31997,-0.36019 0.47802,-0.5394 0.0815,-0.0896 0.16051,-0.1778 0.24094,-0.26176 0.0702,-0.0931 0.14041,-0.18415 0.20885,-0.27411 0.0702,-0.0935 0.1404,-0.18168 0.21025,-0.27164 -0.0825,0.0642 -0.1651,0.12982 -0.24624,0.19473 -0.17286,0.12736 -0.33796,0.27658 -0.52669,0.39406 -0.1905,0.121 -0.38136,0.24412 -0.57397,0.369 -0.38241,0.24377 -0.79058,0.44697 -1.17158,0.63818 -0.18944,0.0998 -0.38488,0.16827 -0.56303,0.24729 -0.18168,0.0744 -0.35066,0.14394 -0.51611,0.19791 -0.64347,0.22719 -1.0982,0.29739 -1.0982,0.29739 0,0 0.39335,-0.22577 0.98143,-0.56268 0.28751,-0.16792 0.62406,-0.36442 0.98707,-0.57432"
       style="fill:#d25624;fill-opacity:1;fill-rule:nonzero;stroke:none;stroke-width:0.0352778" />
    <path
       id="path443"
       d="m 137.66817,344.08963 c -0.39758,0.0628 -0.92075,0.12594 -1.45098,0.17603 -0.26458,0.0176 -0.53058,0.0374 -0.78211,0.0476 -0.24976,0.0116 -0.48366,0.0138 -0.68686,0.008 -0.40463,-0.006 -0.68509,-0.0462 -0.68509,-0.0462 0,0 0.25153,-0.1263 0.64382,-0.24024 0.3937,-0.11959 0.92604,-0.22578 1.46685,-0.27411 0.26811,-0.0254 0.54151,-0.0289 0.79657,-0.0254 0.25894,0.002 0.49989,0.0349 0.69921,0.0649 0.20708,0.0261 0.37782,0.0878 0.49106,0.12136 0.11501,0.0381 0.17816,0.0635 0.17816,0.0635 0,0 -0.0702,0.0162 -0.18909,0.0381 -0.1203,0.0212 -0.28399,0.0332 -0.48154,0.0663"
       style="fill:#d25624;fill-opacity:1;fill-rule:nonzero;stroke:none;stroke-width:0.0352778" />
    <path
       id="path444"
       d="m 143.83119,341.65334 c 0,0 -0.36477,2.85927 -1.74378,2.79012 -1.37901,-0.066 -3.74861,-0.45825 -3.74861,-0.45825 0,0 -0.11536,-2.3488 1.54058,-3.8922 1.65417,-1.54658 2.4578,-0.12101 2.89666,0.11783 0.43673,0.24341 1.05515,1.4425 1.05515,1.4425"
       style="fill:#d25624;fill-opacity:1;fill-rule:nonzero;stroke:none;stroke-width:0.0352778" />
    <path
       id="path445"
       d="m 147.16283,338.74363 c 0,0 -1.14512,4.10739 -2.45604,3.97052 -1.30845,-0.13829 -3.24309,-0.76871 -3.24309,-0.76871 0,0 -0.51258,-2.84303 0.42581,-4.18712 0.94226,-1.34302 3.46427,-0.82338 3.61738,-0.69708 0.15663,0.13193 1.93851,0.80503 1.65594,1.68239"
       style="fill:#f06e25;fill-opacity:1;fill-rule:nonzero;stroke:none;stroke-width:0.0352778" />
    <path
       id="path446"
       d="m 150.1311,338.13862 c 0,0 -2.34597,2.14312 -5.53226,1.39629 0,0 -1.06257,-3.18276 1.43122,-6.90245 0,0 6.24593,4.30248 4.10104,5.50616"
       style="fill:#d25624;fill-opacity:1;fill-rule:nonzero;stroke:none;stroke-width:0.0352778" />
    <path
       id="path447"
       d="m 173.83495,345.14337 c 0.72284,-0.0864 1.41852,-0.21201 2.09655,-0.369 -0.75,0.14781 -1.49789,0.27693 -2.24578,0.39017 0.0466,-0.007 0.0952,-0.0152 0.14923,-0.0212"
       style="fill:#f06e25;fill-opacity:1;fill-rule:nonzero;stroke:none;stroke-width:0.0352778" />
    <path
       id="path448"
       d="m 173.62469,345.17548 0.061,-0.0109 -0.061,0.0109"
       style="fill:#f06e25;fill-opacity:1;fill-rule:nonzero;stroke:none;stroke-width:0.0352778" />
    <path
       id="path449"
       d="m 210.60074,319.41882 c 0.37747,-11.19682 -6.91656,-18.64113 -6.91656,-18.64113 -3.91795,-13.04996 -25.84344,-20.32918 -39.69632,-16.29799 -13.85676,4.03261 -18.93958,13.54209 -18.93958,13.54209 0,0 2.13254,0.50517 5.64197,1.48766 0.3362,0.0952 0.68157,0.19121 1.04281,0.29492 0.63677,-1.8348 2.26166,-5.11281 5.95666,-6.18278 0,0 -3.46075,2.64089 -3.43782,6.91727 1.19944,0.35665 2.48673,0.74965 3.85127,1.17933 2.18088,-5.74357 6.46748,-6.01662 6.46748,-6.01662 -2.65042,1.56386 -3.89643,4.86304 -4.40161,6.6802 2.83527,0.92216 5.93125,1.98684 9.15846,3.19017 1.19028,-2.26343 4.08482,-6.59236 8.92317,-6.88693 0,0 -4.33494,2.00378 -6.36835,7.85883 5.04155,1.95756 10.32193,4.2358 15.38499,6.82554 1.21003,-1.14617 3.37468,-3.51719 4.48205,-6.71583 0,0 -0.2787,4.80272 -1.87149,8.09026 0.33443,0.18062 0.66499,0.36371 0.99413,0.54786 1.07667,-1.18957 3.0674,-3.60398 4.1282,-6.2424 0,0 0.0212,4.24815 -1.74942,7.60059 0.68862,0.40464 1.37019,0.81527 2.04046,1.23332 0,0 -2.86561,23.10588 -19.35974,26.89119 -0.67803,0.15699 -1.37371,0.28257 -2.09655,0.369 -0.054,0.006 -0.10266,0.0145 -0.14923,0.0212 l -0.061,0.0109 c -3.69641,0.62688 12.48481,3.93065 20.65443,-0.11607 8.31745,-4.11444 15.94239,-14.44625 16.32162,-25.64059"
       style="fill:#f06e25;fill-opacity:1;fill-rule:nonzero;stroke:none;stroke-width:0.0352778" />
    <path
       id="path450"
       d="m 196.29102,329.93195 c -1.74237,-0.94368 -3.55071,-0.1517 -4.88492,0.82444 3.09951,-6.56449 3.88514,-12.87321 3.88514,-12.87321 -0.67027,-0.41805 -1.35184,-0.82868 -2.04046,-1.23332 1.77059,-3.35244 1.74942,-7.60059 1.74942,-7.60059 -1.0608,2.63842 -3.05153,5.05283 -4.1282,6.2424 -0.32914,-0.18415 -0.6597,-0.36724 -0.99413,-0.54786 1.59279,-3.28754 1.87149,-8.09026 1.87149,-8.09026 -1.10737,3.19864 -3.27202,5.56966 -4.48205,6.71583 -5.06306,-2.58974 -10.34344,-4.86798 -15.38499,-6.82554 2.03341,-5.85505 6.36835,-7.85883 6.36835,-7.85883 -4.83835,0.29457 -7.73289,4.6235 -8.92317,6.88693 -3.22721,-1.20333 -6.32319,-2.26801 -9.15846,-3.19017 0.50518,-1.81716 1.75119,-5.11634 4.40161,-6.6802 0,0 -4.2866,0.27305 -6.46748,6.01662 -1.36454,-0.42968 -2.65183,-0.82268 -3.85127,-1.17933 -0.0229,-4.27638 3.43782,-6.91727 3.43782,-6.91727 -3.695,1.06997 -5.31989,4.34798 -5.95666,6.18278 -0.36124,-0.10371 -0.70661,-0.19967 -1.04281,-0.29492 -0.005,0.0727 -0.0127,0.14217 -0.0145,0.21378 -0.15452,4.89832 -2.26695,9.6954 -5.58236,12.33841 -3.31717,2.64265 -8.02781,6.38916 -4.67995,15.48624 3.34751,9.09672 12.55854,15.45907 20.80719,17.55387 3.17712,0.80574 7.74383,0.77223 12.40402,0.0737 l 0.061,-0.0109 c 0.74789,-0.11324 1.49578,-0.24236 2.24578,-0.39017 4.80554,-1.10349 8.45362,-3.84916 11.21164,-7.18432 1.53211,1.57409 4.78049,1.81257 7.16668,0.94086 3.18029,-1.16241 5.32165,-6.78851 1.9812,-8.59896"
       style="fill:#f1cead;fill-opacity:1;fill-rule:nonzero;stroke:none;stroke-width:0.0352778" />
    <path
       id="path451"
       d="m 195.25526,334.7523 c 0,0 -0.51964,-2.01295 -2.97709,-0.90099 -2.45639,1.11301 -1.90782,2.51707 -1.90782,2.51707 0,0 0.24447,-1.55116 2.20239,-2.07574 1.96003,-0.52106 2.68252,0.45966 2.68252,0.45966"
       style="fill:#b88459;fill-opacity:1;fill-rule:nonzero;stroke:none;stroke-width:0.0352778" />
    <path
       id="path452"
       d="m 176.82297,320.22668 c -0.39722,1.54446 -1.26541,2.65465 -1.94169,2.48179 -0.67768,-0.17321 -0.90275,-1.56492 -0.50517,-3.10938 0.39193,-1.54482 1.264,-2.65536 1.94169,-2.48179 0.67451,0.1725 0.90099,1.56527 0.50517,3.10938"
       style="fill:#592620;fill-opacity:1;fill-rule:nonzero;stroke:none;stroke-width:0.0352778" />
    <path
       id="path453"
       d="m 175.7209,318.69703 c -0.15628,0.45544 -0.44556,0.76906 -0.647,0.70203 -0.20179,-0.0713 -0.23389,-0.49636 -0.0755,-0.95461 0.15804,-0.45509 0.44944,-0.76835 0.64699,-0.6978 0.20144,0.0674 0.23566,0.49248 0.0755,0.95038"
       style="fill:#ffffff;fill-opacity:1;fill-rule:nonzero;stroke:none;stroke-width:0.0352778" />
    <path
       id="path454"
       d="m 157.76698,315.73935 c -0.39723,1.5441 -1.26577,2.65535 -1.93993,2.48002 -0.67804,-0.17251 -0.90452,-1.56386 -0.51047,-3.10656 0.39688,-1.54446 1.26541,-2.65571 1.94134,-2.48497 0.67804,0.17534 0.90452,1.56634 0.50906,3.11151"
       style="fill:#592620;fill-opacity:1;fill-rule:nonzero;stroke:none;stroke-width:0.0352778" />
    <path
       id="path455"
       d="m 156.66666,314.20723 c -0.1584,0.45755 -0.44767,0.77047 -0.64735,0.70273 -0.20143,-0.0681 -0.2353,-0.49494 -0.0769,-0.9525 0.15769,-0.45578 0.44732,-0.7694 0.64876,-0.70026 0.19932,0.067 0.23212,0.49424 0.0755,0.95003"
       style="fill:#ffffff;fill-opacity:1;fill-rule:nonzero;stroke:none;stroke-width:0.0352778" />
    <path
       id="path456"
       d="m 148.04548,325.58714 c 0,0 0.31644,11.85827 9.81322,14.72882 9.49501,2.86738 15.69755,-3.74156 18.5293,-8.36859 0,0 -11.77467,3.87385 -28.34252,-6.36023"
       style="fill:#ffffff;fill-opacity:1;fill-rule:nonzero;stroke:none;stroke-width:0.0352778" />
    <path
       id="path457"
       d="m 176.05709,329.47263 c 0,0 -0.7874,3.68124 3.21275,4.73922 0,0 -2.77566,-0.86854 -3.21275,-4.73922"
       style="fill:#b88459;fill-opacity:1;fill-rule:nonzero;stroke:none;stroke-width:0.0352778" />
    <path
       id="path458"
       d="m 150.01786,330.64209 c 0,0 0.24659,0.27587 0.72108,0.71826 0.23389,0.22295 0.52846,0.47942 0.87206,0.76764 0.35596,0.27975 0.74578,0.60043 1.19909,0.91687 0.43886,0.3362 0.94933,0.64558 1.48344,0.98637 0.26423,0.17004 0.55915,0.30938 0.84843,0.47448 0.29139,0.15029 0.57714,0.33549 0.89711,0.4692 0.62195,0.29139 1.26047,0.60325 1.94733,0.83185 0.33973,0.11677 0.67416,0.26952 1.028,0.36124 0.35278,0.0945 0.70696,0.19227 1.05939,0.28857 l 0.5267,0.14923 0.54116,0.0991 c 0.35948,0.0674 0.71578,0.1337 1.06997,0.20038 0.71191,0.11853 1.42593,0.13546 2.11244,0.20849 0.68509,0.0342 1.35008,-0.004 1.9812,0.006 0.16016,0 0.31644,0 0.46919,0 0.15275,-0.019 0.30233,-0.0346 0.44944,-0.0497 0.29669,-0.0335 0.58279,-0.0628 0.8576,-0.0935 0.54681,-0.0709 1.05939,-0.084 1.49437,-0.19509 0.44203,-0.0878 0.82691,-0.16722 1.14124,-0.23107 0.63676,-0.12382 0.99977,-0.19509 0.99977,-0.19509 0,0 -0.3556,0.0974 -0.98143,0.26776 -0.31468,0.0822 -0.69427,0.18274 -1.13065,0.29598 -0.43533,0.14111 -0.94439,0.18168 -1.49437,0.27023 -0.27693,0.0399 -0.56444,0.0833 -0.86325,0.1263 -0.15063,0.0176 -0.30021,0.0395 -0.45437,0.0628 -0.15487,0.006 -0.30974,0.013 -0.47343,0.019 -0.63641,0.0141 -1.3141,0.0818 -2.00978,0.0459 -0.69744,-0.0642 -1.42204,-0.0744 -2.14665,-0.18697 -0.36124,-0.0628 -0.72813,-0.12771 -1.09326,-0.19121 l -0.55174,-0.0949 -0.54152,-0.1457 c -0.3556,-0.1016 -0.71719,-0.20461 -1.07491,-0.30727 -0.35595,-0.0988 -0.69744,-0.25576 -1.03928,-0.37959 -0.69568,-0.23989 -1.34479,-0.56444 -1.97239,-0.86854 -0.31996,-0.14182 -0.60924,-0.3242 -0.9024,-0.49318 -0.28751,-0.17533 -0.57715,-0.32914 -0.84138,-0.51082 -0.52881,-0.36478 -1.03222,-0.69462 -1.46543,-1.04987 -0.44944,-0.33232 -0.82339,-0.67945 -1.15959,-0.97967 -0.3309,-0.31044 -0.61312,-0.58808 -0.83431,-0.82514 -0.44768,-0.47026 -0.66887,-0.768 -0.66887,-0.768"
       style="fill:#d5e2e6;fill-opacity:1;fill-rule:nonzero;stroke:none;stroke-width:0.0352778" />
    <path
       id="path459"
       d="m 153.19321,329.36115 c 0,0 -0.002,0.13477 -0.0127,0.37395 -0.0145,0.23742 -0.0106,0.57714 -0.0197,0.98248 -0.0236,0.4057 0.0109,0.87666 0.002,1.38219 -0.004,0.25294 0.0286,0.51364 0.0307,0.77752 0.0141,0.26388 0.0141,0.53481 0.0374,0.80151 0.0272,0.266 0.0526,0.53305 0.0776,0.79799 0.0286,0.25999 0.0303,0.52458 0.0882,0.7694 0.0409,0.24765 0.0769,0.48648 0.11324,0.71685 0.0378,0.22648 0.0483,0.4505 0.11324,0.63994 0.2085,0.77787 0.32174,1.31797 0.32174,1.31797 0,0 -0.22472,-0.49071 -0.52882,-1.26118 -0.0861,-0.18767 -0.11465,-0.41098 -0.17956,-0.63747 -0.0593,-0.22824 -0.11889,-0.47095 -0.17074,-0.72143 -0.0667,-0.25117 -0.0935,-0.51364 -0.12242,-0.78422 -0.0303,-0.266 -0.061,-0.5394 -0.0917,-0.81174 -0.0198,-0.27341 -0.0162,-0.54751 -0.0233,-0.81845 -0.002,-0.26776 -0.0141,-0.53375 0.002,-0.78951 0.0289,-0.51153 0.061,-0.9899 0.11889,-1.39453 0.043,-0.4064 0.115,-0.7426 0.1598,-0.97544 0.043,-0.23459 0.0847,-0.36583 0.0847,-0.36583"
       style="fill:#d5e2e6;fill-opacity:1;fill-rule:nonzero;stroke:none;stroke-width:0.0352778" />
    <path
       id="path460"
       d="m 159.84731,331.87187 c 0,0 -0.0504,0.53199 -0.12771,1.32786 -0.0505,0.39441 -0.0755,0.86113 -0.1277,1.35467 -0.0487,0.49459 -0.0773,1.02199 -0.12595,1.54728 -0.0145,0.26388 -0.0268,0.5274 -0.0416,0.7874 -0.005,0.25894 -0.0374,0.5147 -0.0374,0.76376 0.004,0.49389 -0.018,0.95568 -0.0162,1.35326 0.0536,0.7881 0.0628,1.32891 0.0628,1.32891 0,0 -0.12736,-0.51576 -0.27693,-1.31127 -0.0356,-0.40076 -0.0769,-0.86995 -0.1076,-1.37231 -0.005,-0.50341 0.018,-1.03752 0.0356,-1.57515 0.0596,-0.53305 0.0921,-1.0668 0.17463,-1.56351 0.079,-0.49495 0.16368,-0.95427 0.24976,-1.34585 0.16369,-0.78422 0.33832,-1.29505 0.33832,-1.29505"
       style="fill:#d5e2e6;fill-opacity:1;fill-rule:nonzero;stroke:none;stroke-width:0.0352778" />
    <path
       id="path461"
       d="m 167.75976,333.70773 c 0,0 -0.0159,0.39194 -0.0917,0.96979 -0.0395,0.29033 -0.0931,0.62618 -0.16158,0.98354 -0.0575,0.36124 -0.15663,0.73519 -0.24623,1.11478 -0.0974,0.37359 -0.19438,0.75071 -0.30057,1.09855 -0.11148,0.34784 -0.23354,0.66816 -0.34502,0.94015 -0.22119,0.54222 -0.38876,0.89006 -0.38876,0.89006 0,0 0.0596,-0.38841 0.18027,-0.95638 0.0607,-0.28434 0.14535,-0.6096 0.23001,-0.96026 0.0755,-0.35419 0.1651,-0.72919 0.25506,-1.10384 0.20003,-0.74613 0.38876,-1.49508 0.56268,-2.05141 0.0903,-0.27693 0.16369,-0.50906 0.21414,-0.66957 0.0575,-0.16228 0.0917,-0.25541 0.0917,-0.25541"
       style="fill:#d5e2e6;fill-opacity:1;fill-rule:nonzero;stroke:none;stroke-width:0.0352778" />
    <path
       id="path462"
       d="m 173.27579,310.61137 c 0,0 0.13335,-1.90112 1.3716,-1.61784 1.24072,0.28645 2.01401,2.11243 1.9491,2.6222 0,0 -1.51765,-1.09679 -3.3207,-1.00436"
       style="fill:#371712;fill-opacity:1;fill-rule:nonzero;stroke:none;stroke-width:0.0352778" />
    <path
       id="path463"
       d="m 154.95498,305.82311 c 0,0 -0.16545,-1.20226 1.34338,-1.23225 1.50989,-0.0261 1.88207,1.67605 1.97732,2.23591 0.0935,0.5595 -0.0843,-0.0258 -1.70074,-0.51506 -1.61996,-0.4886 -1.61996,-0.4886 -1.61996,-0.4886"
       style="fill:#371712;fill-opacity:1;fill-rule:nonzero;stroke:none;stroke-width:0.0352778" />
    <path
       id="path464"
       d="m 160.25159,322.31936 c 0,0 -1.60549,-1.63336 -2.76331,-0.61278 -1.15782,1.01847 -0.82338,3.85833 3.13725,3.90666 0,0 -2.85467,-0.68509 -3.30059,-1.83656 -0.44626,-1.15005 0.56974,-3.14113 2.92665,-1.45732"
       style="fill:#b88459;fill-opacity:1;fill-rule:nonzero;stroke:none;stroke-width:0.0352778" />
    <path
       id="path465"
       d="m 196.88968,291.42943 c 0.0628,0.0487 0.12418,0.0991 0.18168,0.14957 -0.0575,-0.0522 -0.12065,-0.10089 -0.18168,-0.14957"
       style="fill:#c26021;fill-opacity:1;fill-rule:nonzero;stroke:none;stroke-width:0.0352778" />
    <path
       id="path466"
       d="m 173.09799,345.48239 v 0 -0.002 z"
       style="fill:#c26021;fill-opacity:1;fill-rule:nonzero;stroke:none;stroke-width:0.0352778" />
    <path
       id="path467"
       d="m 173.09799,345.48028 0.0123,-0.11783 c -0.0289,0.0381 -0.0303,0.0765 -0.0123,0.11783"
       style="fill:#c26021;fill-opacity:1;fill-rule:nonzero;stroke:none;stroke-width:0.0352778" />
    <path
       id="path468"
       d="m 196.53373,291.1472 c 0.1203,0.0935 0.24271,0.18592 0.35595,0.28223 -0.11677,-0.0963 -0.23565,-0.18874 -0.35595,-0.28223"
       style="fill:#c26021;fill-opacity:1;fill-rule:nonzero;stroke:none;stroke-width:0.0352778" />
    <path
       id="path469"
       d="m 165.48364,290.31818 c -11.14002,-0.139 -15.2841,6.04414 -16.55163,8.70761 0.53763,0.14535 1.12395,0.30727 1.75824,0.48366 0.3362,0.0952 0.68157,0.19121 1.04281,0.29492 0.6149,-1.77553 2.16465,-4.89655 5.60952,-6.06566 3.75779,-3.27766 8.14106,-3.42053 8.14106,-3.42053"
       style="fill:#d25624;fill-opacity:1;fill-rule:nonzero;stroke:none;stroke-width:0.0352778" />
    <path
       id="path470"
       d="m 190.37035,315.01544 c 0.16721,0.0921 0.33443,0.18274 0.50165,0.27623 1.07667,-1.18957 3.0674,-3.60398 4.1282,-6.2424 0,0 0,0.47836 -0.0628,1.23049 0.7747,-3.29707 0.4385,-6.4195 0.4385,-6.4195 -0.60748,5.16537 -3.37291,9.1828 -5.00556,11.15518"
       style="fill:#d25624;fill-opacity:1;fill-rule:nonzero;stroke:none;stroke-width:0.0352778" />
    <path
       id="path471"
       d="m 156.29448,301.15727 c 0.58808,0.17957 1.18639,0.36689 1.80869,0.56092 1.92723,-5.07859 5.49628,-5.87939 6.29991,-5.99616 3.42688,-1.64677 7.1561,-1.70004 7.1561,-1.70004 -9.531,-2.19886 -13.86029,4.28907 -15.2647,7.13528"
       style="fill:#d25624;fill-opacity:1;fill-rule:nonzero;stroke:none;stroke-width:0.0352778" />
    <path
       id="path472"
       d="m 210.60074,319.41882 c 0.37747,-11.19682 -6.91656,-18.64113 -6.91656,-18.64113 -1.05763,-3.52672 -3.43782,-6.62482 -6.61282,-9.19869 5.84165,4.86516 5.26415,10.41154 5.26415,10.41154 3.00602,1.42098 11.91084,15.92297 1.04281,31.9024 -10.86661,15.97625 -30.2768,11.58945 -30.28033,11.58945 0.44591,0.98178 13.95378,3.15983 21.18113,-0.42298 8.31745,-4.11444 15.94239,-14.44625 16.32162,-25.64059"
       style="fill:#d25624;fill-opacity:1;fill-rule:nonzero;stroke:none;stroke-width:0.0352778" />
    <path
       id="path473"
       d="m 177.74161,296.78389 c -6.65057,-0.0247 -10.75831,5.1823 -12.21458,7.41362 1.24037,0.43851 2.50613,0.89077 3.80047,1.37443 1.19028,-2.26343 4.08482,-6.59236 8.92317,-6.88693 0,0 -0.12947,0.0628 -0.34008,0.18133 3.49003,-0.99378 6.97794,0.0794 6.97794,0.0794 -2.81023,-2.00554 -7.14692,-2.16182 -7.14692,-2.16182"
       style="fill:#d25624;fill-opacity:1;fill-rule:nonzero;stroke:none;stroke-width:0.0352778" />
    <path
       id="path474"
       d="m 183.69473,311.60938 c 1.19909,0.56973 2.39325,1.15499 3.57258,1.76 1.20262,-1.13982 3.34575,-3.4925 4.46053,-6.66362 0.36688,-3.7211 -0.7299,-5.91502 -0.7299,-5.91502 -1.0735,5.00062 -5.15832,9.00818 -7.30321,10.81864"
       style="fill:#d25624;fill-opacity:1;fill-rule:nonzero;stroke:none;stroke-width:0.0352778" />
    <path
       id="path475"
       d="m 184.72167,328.44781 c -0.26635,0.87736 -2.19393,1.07245 -4.30989,0.43392 -2.11455,-0.63888 -3.61174,-1.86866 -3.34786,-2.74814 0.26811,-0.87877 2.1971,-1.07315 4.30989,-0.43462 2.11419,0.63923 3.60997,1.8676 3.34786,2.74884"
       style="fill:#fab9b2;fill-opacity:1;fill-rule:nonzero;stroke:none;stroke-width:0.0352778" />
    <path
       id="path476"
       d="m 151.38805,319.73985 c -0.26635,0.877 -2.19534,1.07315 -4.30813,0.43285 -2.11419,-0.63888 -3.61173,-1.86866 -3.3475,-2.74814 0.26952,-0.87735 2.19533,-1.07315 4.31129,-0.43532 2.11103,0.63958 3.61033,1.86831 3.34434,2.75061"
       style="fill:#fab9b2;fill-opacity:1;fill-rule:nonzero;stroke:none;stroke-width:0.0352778" />
  </g>
</svg>
