<?xml version="1.0" encoding="UTF-8" standalone="no"?>
<!-- Created with Inkscape (http://www.inkscape.org/) -->

<svg
   width="20.581226mm"
   height="64.273033mm"
   viewBox="0 0 20.581226 64.273034"
   version="1.1"
   id="svg1"
   inkscape:version="1.4.2 (f4327f4, 2025-05-13)"
   sodipodi:docname="girl14.svg"
   xmlns:inkscape="http://www.inkscape.org/namespaces/inkscape"
   xmlns:sodipodi="http://sodipodi.sourceforge.net/DTD/sodipodi-0.dtd"
   xmlns="http://www.w3.org/2000/svg"
   xmlns:svg="http://www.w3.org/2000/svg">
  <sodipodi:namedview
     id="namedview1"
     pagecolor="#ffffff"
     bordercolor="#000000"
     borderopacity="0.25"
     inkscape:showpageshadow="2"
     inkscape:pageopacity="0.0"
     inkscape:pagecheckerboard="0"
     inkscape:deskcolor="#d1d1d1"
     inkscape:document-units="mm"
     inkscape:zoom="1.2275954"
     inkscape:cx="103.45428"
     inkscape:cy="-100.19588"
     inkscape:window-width="2880"
     inkscape:window-height="1676"
     inkscape:window-x="-12"
     inkscape:window-y="-12"
     inkscape:window-maximized="1"
     inkscape:current-layer="layer1" />
  <defs
     id="defs1" />
  <g
     inkscape:label="图层 1"
     inkscape:groupmode="layer"
     id="layer1"
     transform="translate(-77.680199,-175.22557)">
    <g
       id="g331"
       transform="matrix(0.26458333,0,0,0.26458333,16.457733,102.08967)">
	<g
   id="g256">
		<g
   id="g214">
			<path
   style="fill:#eec9a5"
   d="m 269.74,399.307 c 0,0 -1.281,0 -3.258,0 -6.714,0 -19.791,0 -19.802,0 0,0.838 4.298,47.073 4.581,51.589 0.953,15.214 4.023,46.87 4.106,48.206 0,0 1.71,0.708 5.475,0 l 3.051,-47.784 3.108,-36.587 c 0,0 0.586,-1.01 1.111,-1.054 0.522,0.044 0.994,1.159 0.994,1.159 l 3.632,36.588 2.383,47.703 c 4.614,0.856 6.04,-0.025 6.04,-0.025 0.084,-1.336 2.073,-29.132 3,-48.613 1.181,-24.746 5.305,-50.712 5.305,-51.182 -0.01,0 -13.011,0 -19.726,0 z"
   id="path213" />

		</g>

		<g
   id="g215">
			<path
   style="fill:#e1b58c"
   d="m 265.73,429.715 1.272,-14.984 c 0,0 0.586,-1.01 1.111,-1.054 0.522,0.044 0.994,1.159 0.994,1.159 l 1.478,14.879 h 15.134 c 1.634,-16.668 3.748,-30.072 3.748,-30.408 H 269.74 c 0,0 -1.281,0 -3.258,0 H 246.68 c 0,0.488 1.456,16.344 2.728,30.408 z"
   id="path214" />

		</g>

		<g
   id="g216">
			<path
   style="fill:#838587"
   d="m 274.637,489.416 0.485,9.711 c 4.614,0.856 6.04,-0.025 6.04,-0.025 0.029,-0.469 0.294,-4.2 0.665,-9.686 z"
   id="path215" />

			<path
   style="fill:#838587"
   d="m 254.48,489.416 c 0.5,5.437 0.859,9.241 0.888,9.686 0,0 1.71,0.708 5.475,0 l 0.619,-9.686 z"
   id="path216" />

		</g>

		<path
   style="fill:#838587"
   d="m 281.043,498.31 c 0,0 0.291,0.016 0.359,0.375 0.066,0.357 3.529,8.89 4.451,10.521 0.923,1.632 0.102,5.271 -4.266,5.359 -4.367,0.089 -7.236,-2.333 -7.482,-5.308 0,0 -0.141,-7.799 0.895,-11.23 0,0 0.379,-0.387 1.457,0 1.078,0.387 4.586,0.283 4.586,0.283 z"
   id="path217" />

		<g
   id="g236">
			<path
   style="fill:#319592"
   d="m 273.603,515.507 c 0.043,0.132 0.09,0.255 0.141,0.368 -0.051,-0.113 -0.097,-0.237 -0.141,-0.368 z"
   id="path218" />

			<path
   style="fill:#319592"
   d="m 273.313,514.05 c 0.02,0.179 0.043,0.352 0.072,0.516 -0.03,-0.165 -0.053,-0.337 -0.072,-0.516 z"
   id="path219" />

			<path
   style="fill:#319592"
   d="m 273.484,515.074 c 0.031,0.129 0.064,0.249 0.1,0.365 -0.035,-0.115 -0.068,-0.236 -0.1,-0.365 z"
   id="path220" />

			<path
   style="fill:#319592"
   d="m 273.386,514.583 c 0.026,0.155 0.056,0.302 0.089,0.445 -0.034,-0.141 -0.063,-0.29 -0.089,-0.445 z"
   id="path221" />

			<polygon
   style="fill:#1d1d1b"
   points="273.313,514.047 273.31,514.044 273.311,514.044 "
   id="polygon221" />

			<path
   style="fill:#1d1d1b"
   d="m 273.584,515.44 c 0.008,0.021 0.012,0.047 0.019,0.067 -0.005,-0.021 -0.011,-0.046 -0.019,-0.067 z"
   id="path222" />

			<path
   style="fill:#1d1d1b"
   d="m 273.475,515.028 c 0.003,0.015 0.006,0.03 0.01,0.046 -0.005,-0.015 -0.007,-0.031 -0.01,-0.046 z"
   id="path223" />

			<path
   style="fill:#1d1d1b"
   d="m 273.385,514.565 c 0.001,0.005 0.001,0.011 0.001,0.011 0,0 0,-0.006 -0.001,-0.011 z"
   id="path224" />

			<path
   style="fill:#1d1d1b"
   d="m 275.635,516.442 c 1.881,1.138 4.204,1.741 6.588,1.878 3.649,0.205 6.964,-1.209 7.662,-3.568 0.002,0.004 0.002,0.009 0.004,0.014 0.027,0.138 0.046,0.278 0.055,0.419 0.002,0.026 0.006,0.054 0.006,0.079 0.008,0.148 0.008,0.296 -0.006,0.444 0,0.005 -0.002,0.013 -0.002,0.018 -0.014,0.137 -0.044,0.273 -0.077,0.41 -0.011,0.036 -0.021,0.072 -0.029,0.108 -0.044,0.143 -0.095,0.288 -0.165,0.431 -1.299,2.685 -4.969,2.769 -8.533,2.623 -3.293,-0.504 -6.264,-0.932 -7.393,-3.422 -0.051,-0.113 -0.098,-0.236 -0.141,-0.368 -0.008,-0.02 -0.012,-0.046 -0.019,-0.067 -0.035,-0.116 -0.068,-0.236 -0.1,-0.365 -0.004,-0.016 -0.007,-0.031 -0.01,-0.046 -0.033,-0.143 -0.063,-0.29 -0.089,-0.445 0,0 0,-0.013 -0.001,-0.018 -0.029,-0.164 -0.053,-0.337 -0.072,-0.516 0,0 0,-0.004 -10e-4,-0.006 0.512,0.922 1.264,1.757 2.323,2.397 z"
   id="path225" />

			<g
   id="g235">
				<path
   style="fill:#319592"
   d="m 289.975,514.583 c 0.033,0.143 0.057,0.287 0.07,0.431 -0.014,-0.144 -0.037,-0.287 -0.07,-0.431 z"
   id="path226" />

				<path
   style="fill:#319592"
   d="m 290.059,515.55 c -0.011,0.139 -0.036,0.275 -0.064,0.413 0.027,-0.138 0.053,-0.275 0.064,-0.413 z"
   id="path227" />

				<path
   style="fill:#319592"
   d="m 289.967,516.072 c -0.039,0.144 -0.086,0.288 -0.15,0.433 0.064,-0.145 0.111,-0.288 0.15,-0.433 z"
   id="path228" />

				<path
   style="fill:#319592"
   d="m 290.053,515.089 c 0.012,0.147 0.016,0.297 0.008,0.446 0.009,-0.149 0.004,-0.299 -0.008,-0.446 z"
   id="path229" />

				<path
   style="fill:#3c3b3b"
   d="m 281.531,499.163 c 0.277,1.7 1.02,3.323 1.783,4.944 0.859,1.818 2.245,4.186 2.103,6.167 -0.33,4.565 -7.723,3.403 -9.863,0.755 -0.775,-1.469 -1.121,-4.323 -1.115,-5.86 0.004,-1.028 0.133,-2.047 0.24,-3.071 0.141,-1.334 0.382,-2.729 0.32,-4.069 -0.873,1.931 -2.305,11.425 -1.617,16.135 0.541,0.913 1.316,1.735 2.395,2.356 1.914,1.106 4.254,1.668 6.643,1.762 3.654,0.141 6.926,-1.332 7.555,-3.702 -0.256,-1.095 -1.002,-2.153 -1.694,-3.101 -1.079,-1.479 -2.11,-2.945 -2.993,-4.501 -1.471,-2.605 -2.506,-5.222 -3.414,-7.926 -0.226,-0.288 -0.428,-0.506 -0.6,-0.675 0.037,0.102 0.079,0.205 0.129,0.308 0.002,0.099 0.06,0.431 0.128,0.478 z"
   id="path230" />

				<path
   style="fill:#1d1d1b"
   d="m 289.994,515.963 c -0.008,0.036 -0.018,0.072 -0.027,0.109 0.01,-0.037 0.019,-0.073 0.027,-0.109 z"
   id="path231" />

				<path
   style="fill:#1d1d1b"
   d="m 290.06,515.535 c -0.002,0.005 -0.002,0.01 -0.002,0.01 0,0 0.001,-0.005 0.002,-0.01 z"
   id="path232" />

				<polygon
   style="fill:#1d1d1b"
   points="289.975,514.582 289.975,514.579 "
   id="polygon232" />

				<path
   style="fill:#1d1d1b"
   d="m 290.045,515.014 c 0.003,0.025 0.006,0.049 0.008,0.075 -0.002,-0.026 -0.005,-0.05 -0.008,-0.075 z"
   id="path233" />

				<path
   style="fill:#1d1d1b"
   d="m 282.42,518.281 c -2.389,-0.094 -4.728,-0.656 -6.643,-1.762 -1.078,-0.621 -1.854,-1.443 -2.395,-2.356 0,0.003 0,0.005 0,0.005 0.025,0.178 0.054,0.348 0.086,0.51 0.002,0.009 0.002,0.018 0.004,0.024 0.029,0.152 0.064,0.296 0.101,0.436 0.005,0.018 0.009,0.037 0.013,0.055 0.033,0.124 0.07,0.241 0.107,0.354 0.01,0.024 0.017,0.051 0.025,0.074 0.047,0.131 0.096,0.254 0.152,0.364 1.203,2.47 4.188,2.845 7.494,3.292 3.566,0.082 7.232,-0.065 8.451,-2.772 0.064,-0.144 0.111,-0.288 0.15,-0.433 0.01,-0.037 0.02,-0.073 0.027,-0.109 0.028,-0.138 0.054,-0.274 0.064,-0.413 0,0 0,-0.01 0.002,-0.015 0.008,-0.15 0.004,-0.299 -0.008,-0.446 -0.002,-0.026 -0.005,-0.05 -0.008,-0.075 -0.014,-0.144 -0.037,-0.288 -0.07,-0.431 v -0.004 c -0.626,2.37 -3.898,3.843 -7.552,3.702 z"
   id="path234" />

				<path
   style="fill:#3c3b3b"
   d="m 274.105,508.293 c 0,0 4.559,-4.111 10.98,-1.178 l -1.068,-2.026 c 0,0 -6.068,-2.327 -9.912,1.119 z"
   id="path235" />

			</g>

		</g>

		<path
   style="fill:#838587"
   d="m 255.301,498.31 c 0,0 -0.291,0.016 -0.359,0.375 -0.066,0.357 -3.529,8.89 -4.451,10.521 -0.922,1.632 -0.101,5.271 4.266,5.359 4.367,0.089 7.236,-2.333 7.484,-5.308 0,0 0.139,-7.799 -0.897,-11.23 0,0 -0.379,-0.387 -1.457,0 -1.08,0.387 -4.586,0.283 -4.586,0.283 z"
   id="path236" />

		<g
   id="g255">
			<path
   style="fill:#319592"
   d="m 262.74,515.507 c -0.043,0.132 -0.088,0.255 -0.141,0.368 0.053,-0.113 0.098,-0.237 0.141,-0.368 z"
   id="path237" />

			<path
   style="fill:#319592"
   d="m 263.031,514.05 c -0.02,0.179 -0.043,0.352 -0.071,0.516 0.028,-0.165 0.052,-0.337 0.071,-0.516 z"
   id="path238" />

			<path
   style="fill:#319592"
   d="m 262.86,515.074 c -0.03,0.129 -0.066,0.249 -0.1,0.365 0.035,-0.115 0.07,-0.236 0.1,-0.365 z"
   id="path239" />

			<path
   style="fill:#319592"
   d="m 262.957,514.583 c -0.025,0.155 -0.055,0.302 -0.086,0.445 0.031,-0.141 0.061,-0.29 0.086,-0.445 z"
   id="path240" />

			<polygon
   style="fill:#1d1d1b"
   points="263.031,514.047 263.033,514.044 263.031,514.044 "
   id="polygon240" />

			<path
   style="fill:#1d1d1b"
   d="m 262.761,515.44 c -0.007,0.021 -0.014,0.047 -0.021,0.067 0.006,-0.021 0.014,-0.046 0.021,-0.067 z"
   id="path241" />

			<path
   style="fill:#1d1d1b"
   d="m 262.871,515.028 c -0.004,0.015 -0.007,0.03 -0.011,0.046 0.004,-0.015 0.007,-0.031 0.011,-0.046 z"
   id="path242" />

			<path
   style="fill:#1d1d1b"
   d="m 262.96,514.565 c -10e-4,0.005 -10e-4,0.011 -0.003,0.018 0.002,-0.007 0.002,-0.013 0.003,-0.018 z"
   id="path243" />

			<path
   style="fill:#1d1d1b"
   d="m 260.709,516.442 c -1.881,1.138 -4.203,1.741 -6.587,1.878 -3.649,0.205 -6.964,-1.209 -7.663,-3.568 -0.002,0.004 -0.003,0.009 -0.003,0.014 -0.026,0.138 -0.046,0.278 -0.056,0.419 -0.003,0.026 -0.005,0.054 -0.007,0.079 -0.007,0.148 -0.007,0.296 0.007,0.444 0.002,0.005 0.002,0.013 0.002,0.018 0.014,0.137 0.043,0.273 0.078,0.41 0.01,0.036 0.02,0.072 0.029,0.108 0.043,0.143 0.094,0.288 0.164,0.431 1.299,2.685 4.97,2.769 8.533,2.623 3.291,-0.504 6.264,-0.932 7.393,-3.422 0.053,-0.113 0.098,-0.236 0.141,-0.368 0.007,-0.02 0.014,-0.046 0.021,-0.067 0.034,-0.116 0.069,-0.236 0.1,-0.365 0.004,-0.016 0.007,-0.031 0.011,-0.046 0.031,-0.143 0.061,-0.29 0.086,-0.445 0.002,-0.007 0.002,-0.013 0.003,-0.018 0.028,-0.164 0.052,-0.337 0.071,-0.516 0,0 0,-0.004 0,-0.006 -0.513,0.922 -1.263,1.757 -2.323,2.397 z"
   id="path244" />

			<g
   id="g254">
				<path
   style="fill:#319592"
   d="m 246.369,514.583 c -0.033,0.143 -0.055,0.287 -0.07,0.431 0.015,-0.144 0.037,-0.287 0.07,-0.431 z"
   id="path245" />

				<path
   style="fill:#319592"
   d="m 246.287,515.55 c 0.01,0.139 0.033,0.275 0.064,0.413 -0.031,-0.138 -0.054,-0.275 -0.064,-0.413 z"
   id="path246" />

				<path
   style="fill:#319592"
   d="m 246.379,516.072 c 0.037,0.144 0.084,0.288 0.148,0.433 -0.064,-0.145 -0.111,-0.288 -0.148,-0.433 z"
   id="path247" />

				<path
   style="fill:#319592"
   d="m 246.291,515.089 c -0.012,0.147 -0.015,0.297 -0.008,0.446 -0.008,-0.149 -0.004,-0.299 0.008,-0.446 z"
   id="path248" />

				<path
   style="fill:#3c3b3b"
   d="m 254.811,499.163 c -0.276,1.7 -1.018,3.323 -1.784,4.944 -0.857,1.818 -2.244,4.186 -2.102,6.167 0.33,4.565 7.723,3.403 9.863,0.755 0.777,-1.469 1.121,-4.323 1.117,-5.86 -0.006,-1.028 -0.135,-2.047 -0.242,-3.071 -0.141,-1.334 -0.381,-2.729 -0.32,-4.069 0.874,1.931 2.303,11.425 1.619,16.135 -0.541,0.913 -1.319,1.735 -2.396,2.356 -1.914,1.106 -4.255,1.668 -6.643,1.762 -3.652,0.141 -6.926,-1.332 -7.553,-3.702 0.256,-1.095 1.001,-2.153 1.693,-3.101 1.079,-1.479 2.109,-2.945 2.991,-4.501 1.474,-2.605 2.505,-5.222 3.415,-7.926 0.227,-0.288 0.427,-0.506 0.598,-0.675 -0.035,0.102 -0.076,0.205 -0.127,0.308 -0.002,0.099 -0.059,0.431 -0.129,0.478 z"
   id="path249" />

				<path
   style="fill:#1d1d1b"
   d="m 246.352,515.963 c 0.008,0.036 0.016,0.072 0.027,0.109 -0.012,-0.037 -0.02,-0.073 -0.027,-0.109 z"
   id="path250" />

				<path
   style="fill:#1d1d1b"
   d="m 246.283,515.535 c 0.002,0.005 0.004,0.01 0.004,0.01 0,0 -0.002,-0.005 -0.004,-0.01 z"
   id="path251" />

				<polygon
   style="fill:#1d1d1b"
   points="246.369,514.582 246.371,514.579 "
   id="polygon251" />

				<path
   style="fill:#1d1d1b"
   d="m 246.299,515.014 c -0.002,0.025 -0.006,0.049 -0.008,0.075 0.002,-0.026 0.006,-0.05 0.008,-0.075 z"
   id="path252" />

				<path
   style="fill:#1d1d1b"
   d="m 253.924,518.281 c 2.388,-0.094 4.729,-0.656 6.643,-1.762 1.077,-0.621 1.855,-1.443 2.396,-2.356 -0.002,0.003 -0.002,0.005 -0.002,0.005 -0.025,0.178 -0.055,0.348 -0.086,0.51 -0.002,0.009 -0.002,0.018 -0.004,0.024 -0.031,0.152 -0.064,0.296 -0.102,0.436 -0.004,0.018 -0.006,0.037 -0.012,0.055 -0.033,0.124 -0.072,0.241 -0.109,0.354 -0.008,0.024 -0.016,0.051 -0.023,0.074 -0.047,0.131 -0.096,0.254 -0.15,0.364 -1.205,2.47 -4.188,2.845 -7.494,3.292 -3.566,0.082 -7.233,-0.065 -8.453,-2.772 -0.064,-0.144 -0.111,-0.288 -0.148,-0.433 -0.012,-0.037 -0.02,-0.073 -0.027,-0.109 -0.031,-0.138 -0.055,-0.274 -0.064,-0.413 0,0 -0.002,-0.01 -0.004,-0.015 -0.007,-0.15 -0.004,-0.299 0.008,-0.446 0.002,-0.026 0.006,-0.05 0.008,-0.075 0.016,-0.144 0.037,-0.288 0.07,-0.431 0,0 0,-0.003 0.002,-0.004 0.625,2.37 3.898,3.843 7.551,3.702 z"
   id="path253" />

				<path
   style="fill:#3c3b3b"
   d="m 262.24,508.293 c 0,0 -4.561,-4.111 -10.982,-1.178 l 1.07,-2.026 c 0,0 6.065,-2.327 9.912,1.119 z"
   id="path254" />

			</g>

		</g>

	</g>

	<g
   id="g277">
		<g
   id="g265">
			<path
   style="fill:#ca3869"
   d="m 247.475,400.525 0.756,-0.377 20.211,0.244 20.21,-0.244 0.757,0.377 c 0,0 11.598,10.357 16.082,19.252 0,0 -0.375,3.286 -6.111,3.879 -5.735,0.592 -6.194,-2.724 -11.301,2.172 -5.107,4.897 -7.895,4.716 -11.713,2.99 -1.869,-0.846 -3.213,-2.294 -4.887,-3.152 -0.564,-0.247 -1.088,-0.435 -1.576,-0.571 -1.455,-0.306 -3.236,-0.087 -5.707,1.168 -1.15,0.857 -2.23,1.901 -3.678,2.556 -3.818,1.726 -6.606,1.906 -11.711,-2.99 -5.107,-4.896 -5.566,-1.58 -11.303,-2.172 -5.735,-0.593 -6.111,-3.879 -6.111,-3.879 4.486,-8.895 16.082,-19.253 16.082,-19.253 z"
   id="path256" />

			<path
   style="fill:#f1929f"
   d="m 247.447,425.279 c -0.528,0.073 -1.031,0.214 -1.523,0.383 -0.314,0.074 -0.621,0.16 -0.903,0.24 -1.807,0.51 -3.431,0.66 -5.315,0.392 -2.766,-0.396 -4.379,-1.579 -6.139,-3.647 -0.275,-0.322 -0.518,-0.641 -0.777,-0.901 5.113,-10.361 14.686,-21.122 14.686,-21.122 l 0.756,-0.475 20.211,0.309 20.21,-0.309 0.757,0.475 c 0,0 9.279,10.433 14.447,20.643 -1.031,0.4 -1.912,2.261 -2.352,2.974 -2.137,3.46 -6.797,0.396 -9.823,0.733 -1.728,0.192 -2.346,1.277 -3.675,2.191 -2.014,1.383 -4.671,-0.222 -6.783,-0.633 -1.701,-0.33 -3.197,0.521 -4.729,1.108 -1.957,0.75 -3.469,0.538 -5.301,-0.405 -1.115,-0.574 -2.348,-1.311 -3.639,-1.352 -1.605,-0.049 -2.943,0.674 -4.242,1.557 -2.117,1.441 -4.228,2.531 -6.865,1.699 -2.092,-0.658 -3.57,-2.008 -5.457,-3.016 -1.096,-0.584 -2.282,-1.02 -3.544,-0.844 z"
   id="path257" />

			<path
   style="fill:#e83f78"
   d="m 247.475,399.725 0.756,-0.377 20.211,0.246 20.21,-0.246 0.757,0.377 c 0,0 11.598,10.358 16.082,19.253 0,0 -0.375,3.285 -6.111,3.878 -5.735,0.592 -6.194,-2.722 -11.301,2.174 -5.107,4.896 -7.895,4.715 -11.713,2.989 -1.869,-0.845 -3.213,-2.295 -4.887,-3.152 -0.564,-0.248 -1.088,-0.437 -1.576,-0.571 -1.455,-0.306 -3.236,-0.086 -5.707,1.167 -1.15,0.858 -2.23,1.902 -3.678,2.557 -3.818,1.726 -6.606,1.906 -11.711,-2.989 -5.107,-4.896 -5.566,-1.582 -11.303,-2.174 -5.735,-0.593 -6.111,-3.878 -6.111,-3.878 4.486,-8.896 16.082,-19.254 16.082,-19.254 z"
   id="path258" />

			<g
   id="g264">
				<path
   style="fill:#d13370"
   d="m 294.656,421.465 c 0,0 -5.045,-13.409 -13.555,-21.316 10e-4,-10e-4 9.754,7.914 13.555,21.316 z"
   id="path259" />

				<path
   style="fill:#d13370"
   d="m 243.164,421.465 c 0,0 5.045,-13.409 13.557,-21.316 0,-10e-4 -9.756,7.914 -13.557,21.316 z"
   id="path260" />

				<path
   style="fill:#d13370"
   d="m 259.861,426.418 c 0,0 0.866,-14.301 6.668,-24.365 0,0 -6.988,10.437 -6.668,24.365 z"
   id="path261" />

				<path
   style="fill:#d13370"
   d="m 257.492,420.134 c 0,0 2.523,-10.927 7.992,-17.788 0,0 -6.363,6.96 -7.992,17.788 z"
   id="path262" />

				<path
   style="fill:#d13370"
   d="m 280.361,420.134 c 0,0 -2.522,-10.927 -7.992,-17.788 0,0 6.363,6.96 7.992,17.788 z"
   id="path263" />

				<path
   style="fill:#d13370"
   d="m 277.434,427.863 c 0,0 -1.298,-16.868 -5.412,-26.97 0,0.001 5.412,11.555 5.412,26.97 z"
   id="path264" />

			</g>

		</g>

		<g
   id="g276">
			<g
   id="g274">
				<path
   style="fill:#eb6587"
   d="m 289.408,398.509 -0.757,-0.376 -20.21,0.245 -20.211,-0.245 -0.756,0.376 c 0,0 -11.596,10.359 -16.082,19.253 0,0 0.376,3.286 6.111,3.878 5.736,0.593 6.195,-2.722 11.303,2.174 5.105,4.896 7.893,4.716 11.711,2.989 1.871,-0.845 3.213,-2.294 4.887,-3.152 0.564,-0.247 1.09,-0.436 1.576,-0.57 1.455,-0.307 3.237,-0.087 5.709,1.167 1.149,0.858 2.23,1.902 3.676,2.556 3.818,1.727 6.605,1.906 11.713,-2.989 5.107,-4.896 5.565,-1.581 11.301,-2.174 5.736,-0.592 6.111,-3.878 6.111,-3.878 -4.484,-8.895 -16.082,-19.254 -16.082,-19.254 z"
   id="path265" />

				<path
   style="fill:#ee8095"
   d="m 289.435,422.141 c 0.529,0.073 1.032,0.214 1.524,0.383 0.314,0.074 0.621,0.16 0.902,0.24 1.809,0.51 3.433,0.66 5.316,0.392 2.768,-0.396 4.381,-1.579 6.139,-3.647 0.275,-0.322 0.518,-0.641 0.779,-0.902 -5.113,-10.36 -14.688,-21.122 -14.688,-21.122 l -0.757,-0.474 -20.21,0.309 -20.211,-0.309 -0.756,0.474 c 0,0 -9.279,10.433 -14.447,20.644 1.031,0.4 1.912,2.261 2.354,2.974 2.137,3.46 6.795,0.397 9.822,0.733 1.725,0.192 2.346,1.277 3.674,2.19 2.014,1.384 4.671,-0.221 6.785,-0.632 1.698,-0.33 3.197,0.521 4.727,1.108 1.956,0.75 3.468,0.538 5.3,-0.406 1.113,-0.573 2.346,-1.31 3.639,-1.351 1.607,-0.049 2.944,0.674 4.242,1.557 2.117,1.441 4.228,2.531 6.866,1.699 2.091,-0.658 3.569,-2.008 5.456,-3.016 1.095,-0.585 2.283,-1.02 3.544,-0.844 z"
   id="path266" />

				<path
   style="fill:#e83f78"
   d="m 289.408,396.586 -0.757,-0.377 -20.21,0.246 -20.211,-0.246 -0.756,0.377 c 0,0 -11.596,10.358 -16.082,19.253 0,0 0.376,3.285 6.111,3.878 5.736,0.592 6.195,-2.722 11.303,2.174 5.105,4.896 7.893,4.715 11.711,2.989 1.871,-0.845 3.213,-2.295 4.887,-3.152 0.564,-0.248 1.09,-0.437 1.576,-0.571 1.455,-0.306 3.237,-0.086 5.709,1.167 1.149,0.858 2.23,1.902 3.676,2.557 3.818,1.726 6.605,1.906 11.713,-2.989 5.107,-4.896 5.565,-1.582 11.301,-2.174 5.736,-0.593 6.111,-3.878 6.111,-3.878 -4.484,-8.896 -16.082,-19.254 -16.082,-19.254 z"
   id="path267" />

				<g
   id="g273">
					<path
   style="fill:#d13370"
   d="m 242.227,418.326 c 0,0 5.044,-13.409 13.555,-21.316 -0.001,0 -9.755,7.914 -13.555,21.316 z"
   id="path268" />

					<path
   style="fill:#d13370"
   d="m 293.719,418.326 c 0,0 -5.045,-13.409 -13.557,-21.316 0,0 9.756,7.914 13.557,21.316 z"
   id="path269" />

					<path
   style="fill:#d13370"
   d="m 277.022,423.279 c 0,0 -0.866,-14.301 -6.669,-24.365 0,0 6.99,10.438 6.669,24.365 z"
   id="path270" />

					<path
   style="fill:#d13370"
   d="m 279.393,416.995 c 0,0 -2.523,-10.927 -7.995,-17.788 -0.001,0 6.364,6.96 7.995,17.788 z"
   id="path271" />

					<path
   style="fill:#d13370"
   d="m 256.522,416.995 c 0,0 2.523,-10.927 7.994,-17.788 0,0 -6.365,6.96 -7.994,17.788 z"
   id="path272" />

					<path
   style="fill:#d13370"
   d="m 259.449,424.725 c 0,0 1.299,-16.868 5.412,-26.97 0,0 -5.412,11.555 -5.412,26.97 z"
   id="path273" />

				</g>

			</g>

			<g
   id="g275">
				<path
   style="fill:#b92265"
   d="m 248.271,392.583 -1.264,4.427 c 0,0 6.039,3.462 21.554,3.864 v -4.665 c 0,0 -15.829,-0.546 -20.29,-3.626 z"
   id="path274" />

				<path
   style="fill:#b92265"
   d="m 288.363,392.583 1.262,4.427 c 0,0 -6.037,3.462 -21.551,3.864 v -4.665 c 0,0 15.828,-0.546 20.289,-3.626 z"
   id="path275" />

			</g>

		</g>

	</g>

	<g
   id="g282">
		<rect
   x="296.02301"
   y="407.29599"
   style="fill:#e8457a"
   width="6.6760001"
   height="2.983"
   id="rect277" />

		<rect
   x="297.75"
   y="407.29599"
   style="fill:#b44175"
   width="4.9489999"
   height="2.983"
   id="rect278" />

		<g
   id="g279">
			<path
   style="fill:#571528"
   d="m 299.35,408.49 c 0.078,-1.339 0.824,-2.406 1.728,-2.566 -0.035,-0.004 -0.068,-0.018 -0.103,-0.021 -1.039,-0.059 -1.953,1.099 -2.039,2.587 -0.086,1.489 0.687,2.745 1.727,2.805 0.103,0.006 0.207,-0.004 0.309,-0.021 -0.986,-0.137 -1.706,-1.347 -1.622,-2.784 z"
   id="path278" />

			<path
   style="fill:#e8457a"
   d="m 302.699,408.707 c 0.084,-1.435 -0.635,-2.645 -1.621,-2.783 -0.904,0.16 -1.65,1.228 -1.728,2.566 -0.084,1.437 0.637,2.646 1.621,2.783 0.906,-0.159 1.652,-1.226 1.728,-2.566 z"
   id="path279" />

		</g>

		<path
   style="fill:#242422"
   d="m 301.471,408.692 c 0,0.054 -0.041,0.095 -0.094,0.095 h -1.551 c -0.054,0 -0.094,-0.041 -0.094,-0.095 v 0 c 0,-0.052 0.04,-0.094 0.094,-0.094 h 1.551 c 0.053,10e-4 0.094,0.043 0.094,0.094 z"
   id="path280" />

		<path
   style="fill:#242422"
   d="m 301.397,408.787 c -0.041,0 -0.072,-0.033 -0.072,-0.074 v -1.228 c 0,-0.041 0.031,-0.075 0.072,-0.075 v 0 c 0.041,0 0.074,0.034 0.074,0.075 v 1.228 c 0,0.041 -0.033,0.074 -0.074,0.074 z"
   id="path281" />

		<path
   style="fill:#b44175"
   d="m 301.078,405.924 c -0.904,0.16 -1.65,1.228 -1.728,2.566 -0.084,1.437 0.637,2.646 1.621,2.783 0.906,-0.159 1.652,-1.227 1.728,-2.566 0.084,-1.435 -0.634,-2.644 -1.621,-2.783 z m -0.096,4.65 c -0.755,-0.105 -1.309,-1.035 -1.246,-2.142 0.061,-1.029 0.633,-1.851 1.332,-1.974 0.755,0.105 1.309,1.035 1.243,2.143 -0.057,1.031 -0.629,1.851 -1.329,1.973 z"
   id="path282" />

	</g>

	<g
   id="g307">
		<g
   id="g306">
			<g
   id="g290">
				<g
   id="g286">
					<path
   style="fill:#eec9a5"
   d="m 237.768,408.799 c 3.117,0.235 3.96,5.049 4.648,7.404 0.539,1.847 0.879,3.022 1.394,5.753 0.14,0.746 0.477,2.596 -0.373,3.069 -1.091,0.608 -1.681,-1.922 -1.915,-2.567 -0.131,-0.361 -1.072,-3.385 -1.451,-1.925 -0.311,1.205 -0.068,1.682 0.173,2.885 0.38,1.91 2.358,5.056 1.56,6.41 -0.801,1.355 -2.043,-0.658 -2.043,-0.658 0,0 0.146,0.332 -0.58,0.535 -0.723,0.203 -1.709,-0.834 -1.732,-0.854 -0.022,-0.02 0.013,0.379 -0.569,0.166 -0.582,-0.215 -1.508,-1.113 -1.822,-1.418 0,0 -0.721,-0.113 -1.417,-1.004 -0.696,-0.891 -3.751,-7.806 0.167,-16.265 0.566,-1.223 1.642,-1.124 2.867,-1.431 0.385,-0.096 0.749,-0.127 1.093,-0.1 z"
   id="path283" />

					<path
   style="fill:#915f2d"
   d="m 238.21,425.439 c -0.632,-1.759 -1.003,-3.628 -1.324,-5.459 -0.003,-0.013 -0.018,-0.005 -0.017,0.005 0.238,1.889 0.578,3.727 1.166,5.549 0.406,1.259 1.061,2.996 1.963,4 0.021,0.023 0.053,-0.011 0.039,-0.034 -0.762,-1.219 -1.346,-2.718 -1.827,-4.061 z"
   id="path284" />

					<path
   style="fill:#915f2d"
   d="m 235.582,424.947 c -0.556,-1.482 -0.639,-3.064 -1.039,-4.573 -0.002,-0.009 -0.014,-0.001 -0.014,0.005 0.313,1.703 0.463,3.354 1.082,5.003 0.463,1.23 1.032,2.882 2.127,3.737 0.01,0.009 0.022,-0.01 0.014,-0.019 -1.125,-1.007 -1.66,-2.795 -2.17,-4.153 z"
   id="path285" />

					<path
   style="fill:#915f2d"
   d="m 232.953,421.369 c -0.002,-0.012 -0.02,-0.004 -0.018,0.006 0.107,1.248 0.373,2.526 0.797,3.711 0.403,1.126 1.068,2.559 2.074,3.287 0.016,0.011 0.041,-0.018 0.027,-0.031 -1.817,-1.713 -2.568,-4.61 -2.88,-6.973 z"
   id="path286" />

				</g>

				<g
   id="g288">
					<path
   style="fill:#e1b58c"
   d="m 243.066,381.237 3.519,-17.62 c 0.013,-2.083 0.02,-17.025 -0.003,-22.787 0,0 -7.655,0.471 -8.971,5.211 l -4.783,32.906 c 0.932,4.341 8.613,5.535 10.238,2.29 z"
   id="path287" />

					<path
   style="fill:#eec9a5"
   d="m 232.791,378.947 c 0,1.838 -0.006,9.518 0,11.167 0.019,4.368 0.427,10.111 0.936,14.448 0.538,4.566 1.028,7.471 1.567,8.025 l 3,-0.113 c 1.939,-0.017 0.768,-4.555 4.67,-28.734 l 0.395,-3.559 c -1.211,-3.681 -9.089,-5.562 -10.568,-1.234 z"
   id="path288" />

				</g>

				<path
   style="fill:#3a3a3a"
   d="m 232.789,378.984 4.799,-33.309 c 1.184,-4.605 9.246,-4.846 9.246,-4.846 0.005,1.711 1.236,20.788 1.225,22.612 l -4.764,16.941 c -3.847,-2.808 -10.014,-1.048 -10.506,-1.398 z"
   id="path289" />

				<path
   style="fill:#494949"
   d="m 232.791,378.947 c 0,1.838 -0.006,9.518 0,11.167 0.01,2.137 0.113,4.604 0.275,7.073 2.158,-1.869 5.57,-1.693 7.949,0.014 0.457,-3.616 1.076,-8.042 1.949,-13.461 l 0.395,-3.559 c -1.211,-3.681 -9.089,-5.562 -10.568,-1.234 z"
   id="path290" />

			</g>

			<g
   id="g298">
				<g
   id="g294">
					<path
   style="fill:#eec9a5"
   d="m 298.602,408.799 c -3.115,0.235 -3.959,5.049 -4.646,7.404 -0.54,1.847 -0.881,3.022 -1.395,5.753 -0.141,0.746 -0.476,2.596 0.371,3.069 1.091,0.608 1.683,-1.922 1.916,-2.567 0.131,-0.361 1.072,-3.385 1.451,-1.925 0.313,1.205 0.068,1.682 -0.172,2.885 -0.38,1.91 -2.359,5.056 -1.561,6.41 0.801,1.355 2.045,-0.658 2.045,-0.658 0,0 -0.145,0.332 0.578,0.535 0.725,0.203 1.709,-0.834 1.732,-0.854 0.023,-0.02 -0.014,0.379 0.568,0.166 0.582,-0.215 1.508,-1.113 1.822,-1.418 0,0 0.721,-0.113 1.418,-1.004 0.697,-0.891 3.75,-7.806 -0.168,-16.265 -0.565,-1.223 -1.64,-1.124 -2.867,-1.431 -0.384,-0.096 -0.749,-0.127 -1.092,-0.1 z"
   id="path291" />

					<path
   style="fill:#915f2d"
   d="m 298.16,425.439 c 0.631,-1.759 1.004,-3.628 1.325,-5.459 10e-4,-0.013 0.017,-0.005 0.015,0.005 -0.238,1.889 -0.577,3.727 -1.166,5.549 -0.406,1.259 -1.061,2.996 -1.961,4 -0.021,0.023 -0.055,-0.011 -0.041,-0.034 0.762,-1.219 1.346,-2.718 1.828,-4.061 z"
   id="path292" />

					<path
   style="fill:#915f2d"
   d="m 300.787,424.947 c 0.557,-1.482 0.639,-3.064 1.04,-4.573 0.003,-0.009 0.015,-0.001 0.013,0.005 -0.313,1.703 -0.463,3.354 -1.082,5.003 -0.463,1.23 -1.033,2.882 -2.127,3.737 -0.01,0.009 -0.021,-0.01 -0.013,-0.019 1.125,-1.007 1.661,-2.795 2.169,-4.153 z"
   id="path293" />

					<path
   style="fill:#915f2d"
   d="m 303.416,421.369 c 0.002,-0.012 0.02,-0.004 0.019,0.006 -0.108,1.248 -0.374,2.526 -0.798,3.711 -0.402,1.126 -1.068,2.559 -2.074,3.287 -0.015,0.011 -0.041,-0.018 -0.027,-0.031 1.817,-1.713 2.569,-4.61 2.88,-6.973 z"
   id="path294" />

				</g>

				<g
   id="g296">
					<path
   style="fill:#e1b58c"
   d="m 293.305,381.237 -3.521,-17.62 c -0.012,-2.083 -0.019,-17.025 0.006,-22.787 0,0 7.654,0.471 8.971,5.211 l 4.781,32.906 c -0.932,4.341 -8.612,5.535 -10.237,2.29 z"
   id="path295" />

					<path
   style="fill:#eec9a5"
   d="m 303.578,378.947 c 0,1.838 0.007,9.518 0,11.167 -0.018,4.368 -0.426,10.111 -0.935,14.448 -0.539,4.566 -1.029,7.471 -1.566,8.025 l -3.002,-0.113 c -1.938,-0.017 -0.768,-4.555 -4.67,-28.734 l -0.394,-3.559 c 1.21,-3.681 9.087,-5.562 10.567,-1.234 z"
   id="path296" />

				</g>

				<path
   style="fill:#3a3a3a"
   d="m 303.582,378.984 -4.801,-33.309 c -1.184,-4.605 -9.244,-4.846 -9.244,-4.846 -0.006,1.711 -1.238,20.788 -1.226,22.612 l 4.765,16.941 c 3.847,-2.808 10.013,-1.048 10.506,-1.398 z"
   id="path297" />

				<path
   style="fill:#494949"
   d="m 303.578,378.947 c 0,1.838 0.007,9.518 0,11.167 -0.008,2.137 -0.111,4.604 -0.273,7.073 -2.158,-1.869 -5.57,-1.693 -7.951,0.014 -0.456,-3.616 -1.074,-8.042 -1.949,-13.461 l -0.394,-3.559 c 1.21,-3.681 9.087,-5.562 10.567,-1.234 z"
   id="path298" />

			</g>

			<g
   id="g305">
				<g
   id="g303">
					<g
   id="g300">
						<path
   style="fill:#1d1d1b"
   d="m 289.613,340.83 -4.506,-1.041 c -1.109,7.297 -8.168,12.926 -16.715,12.926 -8.587,0 -15.67,-5.68 -16.729,-13.025 l -4.934,1.141 c -0.451,3.527 2.809,40.227 2.809,40.227 0,0.67 -1.277,8.615 -2.041,12.325 9.024,4.75 26.195,6.201 41.969,0 -0.768,-3.629 -2.54,-11.662 -2.54,-12.325 0.001,0 3.139,-36.701 2.687,-40.228 z"
   id="path299" />

						<path
   style="fill:#e1b58c"
   d="m 268.393,352.715 c 8.547,0 15.605,-5.629 16.715,-12.926 l -16.935,-3.914 -16.508,3.815 c 1.058,7.345 8.141,13.025 16.728,13.025 z"
   id="path300" />

					</g>

					<g
   id="g302">
						<path
   style="fill:#e83f78"
   d="m 249.35,340.074 7.395,-1.764 c 0,0 0.066,13.562 11.648,14.404 l -4.227,6.283 c 0,10e-4 -12.777,-4.067 -14.816,-18.923 z"
   id="path301" />

						<path
   style="fill:#e83f78"
   d="m 287.215,340.074 -7.396,-1.764 c 0,0 -0.066,13.562 -11.646,14.404 l 4.225,6.283 c -0.001,10e-4 12.776,-4.067 14.817,-18.923 z"
   id="path302" />

					</g>

				</g>

				<path
   style="fill:#e83f78"
   d="m 269.141,357.366 c 0,0.479 -0.389,0.868 -0.868,0.868 -0.479,0 -0.868,-0.389 -0.868,-0.868 0,-0.48 0.389,-0.868 0.868,-0.868 0.479,0 0.868,0.389 0.868,0.868 z"
   id="path303" />

				<path
   style="fill:#e83f78"
   d="m 269.141,375.943 c 0,0.48 -0.389,0.868 -0.868,0.868 -0.479,0 -0.868,-0.389 -0.868,-0.868 0,-0.48 0.389,-0.869 0.868,-0.869 0.479,0 0.868,0.389 0.868,0.869 z"
   id="path304" />

				<path
   style="fill:#e83f78"
   d="m 269.141,394.52 c 0,0.479 -0.389,0.868 -0.868,0.868 -0.479,0 -0.868,-0.389 -0.868,-0.868 0,-0.48 0.389,-0.869 0.868,-0.869 0.479,-0.001 0.868,0.388 0.868,0.869 z"
   id="path305" />

			</g>

		</g>

		<path
   style="fill:#e1b58c"
   d="m 273.734,340.377 c 0,1.161 -2.781,6.614 -5.563,6.614 -2.781,0 -5.561,-5.453 -5.561,-6.614 v -10.378 c 0,-2.323 1.883,-4.206 4.204,-4.206 h 2.716 c 2.322,0 4.204,1.883 4.204,4.206 z"
   id="path306" />

	</g>

	<g
   id="g330">
		<g
   id="g329">
			<path
   style="fill:#ffff50"
   d="m 303.522,335.364 c 4.967,1.925 5.349,-4.383 5.349,-4.383 -0.603,2.075 -4.688,4.103 -5.924,-2.933 -1.233,-7.039 4.23,-7.829 5.877,-20.348 1.648,-12.52 -2.662,-17.769 -8.277,-21.021 -5.616,-3.256 -10.933,0.865 -10.933,0.865 l -1.899,38.359 c -1.887,13.026 9.722,14.028 9.722,14.028 -2.061,-1.494 -2.421,-3.775 -2.421,-3.775 8.121,6.324 12.065,0.164 12.065,0.164 -3.351,0.323 -3.559,-0.956 -3.559,-0.956 z"
   id="path307" />

			<path
   style="fill:#ffd750"
   d="m 303.522,335.364 c 3.897,1.513 4.97,-2.046 5.253,-3.65 -0.422,0.595 -0.91,1.134 -1.469,1.575 -1.347,1.063 -3.281,1.748 -4.801,0.577 -2.16,-1.665 -2.988,-4.939 -2.658,-7.549 0.432,-3.426 2.196,-6.385 3.564,-9.491 2.984,-6.775 2.553,-14.215 -0.735,-20.815 -0.842,-1.688 -1.802,-3.324 -3.033,-4.764 -1.153,-1.35 -2.438,-2.287 -3.854,-3.321 -1.438,-1.046 -1.188,-1.872 -0.259,-2.489 -3.4,0.159 -5.917,2.108 -5.917,2.108 l -1.899,38.359 c -1.887,13.026 9.722,14.028 9.722,14.028 -2.061,-1.494 -2.421,-3.775 -2.421,-3.775 8.121,6.324 12.065,0.164 12.065,0.164 -3.35,0.322 -3.558,-0.957 -3.558,-0.957 z"
   id="path308" />

			<path
   style="opacity:0.5;fill:#9e8807"
   d="m 294.368,338.748 c -1.573,-1.002 -2.713,-2.32 -3.632,-3.922 -0.82,-1.433 -1.438,-3.118 -1.533,-4.81 -0.102,-1.746 0.846,-2.149 2.078,-3.041 7.749,-5.601 12.127,-14.083 10.917,-23.655 -0.462,-3.661 -1.542,-7.517 -3.649,-10.598 -1.787,-2.611 -4.427,-5.452 -6.685,-6.424 -1.388,0.583 -2.25,1.247 -2.25,1.247 l -1.899,38.359 c -1.588,10.962 6.383,13.411 8.945,13.91 -0.801,-0.285 -1.592,-0.62 -2.292,-1.066 z"
   id="path309" />

			<path
   style="fill:#ab00e2"
   d="m 293.234,286.99 c 0.56,-1.899 1.326,-3.743 1.663,-5.699 0.06,-0.338 -0.065,-0.654 -0.413,-0.769 -1.139,-0.369 -2.277,0.475 -3.141,1.115 -0.873,0.647 -2.553,1.942 -2.52,3.171 0.004,0.168 0.072,0.3 0.176,0.381 0.207,1.329 1.357,2.458 2.301,3.304 0.717,0.647 1.494,1.226 2.266,1.799 0.684,0.506 1.307,1.162 2.088,1.504 0.144,0.062 0.272,0.036 0.377,-0.03 0.988,-0.118 1.889,-0.944 2.637,-1.524 0.828,-0.646 2.197,-1.676 2.303,-2.824 0.242,-2.566 -5.452,-1.303 -7.737,-0.428 z"
   id="path310" />

			<path
   style="fill:#ffff50"
   d="m 248.203,321.631 c 0,0 -10.58,-4.463 -10.697,-17.188 -0.12,-12.725 8.551,-21.018 14.367,-24.811 5.814,-3.795 13.555,-4.143 16.287,-1.493 0,0 4.08,-2.745 10.564,-0.014 6.482,2.727 19.252,8.344 21.553,23.83 2.305,15.486 -9.877,26.233 -15.631,26.45 -5.755,0.226 -36.443,-6.774 -36.443,-6.774 z"
   id="path311" />

			<path
   style="fill:#ffd750"
   d="m 300.277,301.956 c -0.311,-2.104 -0.821,-4.016 -1.479,-5.771 0.512,2.755 0.713,5.744 -0.364,8.097 -2.011,4.397 -7.71,1.205 -10.437,-0.683 -2.862,-1.982 -5.988,-3.739 -8.496,-6.14 -2.912,-2.779 -8.316,-7.675 -11.115,-10.567 -1.822,-1.88 -0.552,-4.501 -0.09,-7.26 0.288,-1.721 1.045,-1.329 2.181,-2.407 -1.491,0.362 -2.317,0.914 -2.317,0.914 -0.527,-0.512 -1.244,-0.907 -2.094,-1.192 0.439,0.501 1.561,0.829 1.694,1.546 0.361,1.958 -0.806,5.116 -1.696,6.829 -2.637,5.065 -7.217,8.125 -12.201,10.871 -2.547,1.402 -5.203,2.438 -7.988,3.255 -1.551,0.457 -3.455,1.055 -5,0.278 -1.779,-0.89 -1.535,-3.624 -1.168,-5.196 0.386,-1.656 1.217,-3.143 1.975,-4.654 -2.475,3.941 -4.23,8.796 -4.176,14.567 0.117,12.725 10.697,17.188 10.697,17.188 0,0 30.688,7 36.443,6.775 5.754,-0.216 17.936,-10.964 15.631,-26.45 z"
   id="path312" />

			<path
   style="fill:#ffb950"
   d="m 290.725,325.263 c -0.235,0.052 -0.385,-0.245 -0.254,-0.425 1.06,-1.439 2.195,-2.833 2.832,-4.527 0.045,-0.12 0.16,-0.167 0.278,-0.164 1.36,0.024 2.562,-0.624 3.471,-1.606 0.63,-1.067 1.198,-2.212 1.688,-3.426 0.367,-2.054 -0.277,-4.155 -2.438,-5.043 -0.205,-0.083 -0.229,-0.408 -0.008,-0.491 1.227,-0.458 2.385,-1.017 3.328,-1.894 -2.859,0.951 -5.803,0.875 -8.73,-0.322 -3.995,-1.635 -7.697,-4.116 -11.002,-6.87 -3.31,-2.759 -6.038,-5.91 -8.932,-9.078 -1.703,-1.858 -3.889,-3.845 -4.412,-6.394 -1.087,2.074 -2.232,4.127 -3.691,5.947 -1.957,2.439 -4.375,4.336 -7.017,5.985 -2.728,1.703 -5.599,3.188 -8.587,4.374 -1.506,0.597 -3.031,1.132 -4.582,1.59 -1.33,0.398 -2.702,0.65 -4.018,1.094 0.966,0.241 1.943,0.238 2.947,0.021 0.27,-0.057 0.404,0.315 0.205,0.475 -2.1,1.693 -2.436,5.067 -1.1,7.39 0.986,1.716 2.527,2.952 3.038,4.93 0.054,0.207 -0.191,0.353 -0.366,0.289 -0.709,-0.271 -1.381,-0.643 -2.018,-1.083 3.064,4.001 6.844,5.596 6.844,5.596 0,0 30.688,7 36.443,6.775 1.881,-0.069 4.447,-1.269 6.972,-3.391 -0.29,0.094 -0.587,0.181 -0.891,0.248 z"
   id="path313" />

			<g
   id="g315">
				<path
   style="fill:#efcaa6"
   d="m 246.471,306.096 c 0,0 -0.943,-1.918 -1.971,-2.059 -1.027,-0.136 -3.346,0.99 -3.657,3.91 -0.312,2.917 1.505,4.954 3.036,5.382 1.529,0.429 2.213,-1.5 2.213,-1.5 z"
   id="path314" />

				<path
   style="fill:#c39368"
   d="m 243.969,307.349 c -1.376,-0.628 -1.801,1.195 -1.932,2.375 -0.006,0.054 0.061,0.062 0.076,0.016 0.166,-0.459 0.309,-0.942 0.497,-1.387 0.329,-0.765 1.015,-0.614 1.454,-0.175 0.168,0.17 0.301,0.363 0.416,0.57 -0.287,0.074 -0.546,0.359 -0.716,0.618 -0.233,0.356 -0.35,0.778 -0.425,1.206 -0.012,0.064 0.072,0.083 0.102,0.033 0.172,-0.296 0.318,-0.615 0.504,-0.9 0.207,-0.322 0.457,-0.392 0.744,-0.518 0.248,0.641 0.361,1.368 0.535,2.029 0.031,0.124 0.193,0.118 0.205,-0.023 0.104,-1.378 -0.2,-3.266 -1.46,-3.844 z"
   id="path315" />

			</g>

			<g
   id="g317">
				<path
   style="fill:#efcaa6"
   d="m 292.918,312.052 c 0,0 1.197,-1.578 2.255,-1.591 1.059,-0.015 3.267,1.216 3.218,3.805 -0.051,2.585 -2.146,4.179 -3.754,4.391 -1.603,0.216 -2.055,-1.546 -2.055,-1.546 z"
   id="path316" />

				<path
   style="fill:#c39368"
   d="m 295.297,313.413 c 1.473,-0.405 1.674,1.237 1.66,2.281 0,0.05 -0.068,0.046 -0.078,0.004 -0.114,-0.415 -0.195,-0.854 -0.334,-1.266 -0.233,-0.702 -0.949,-0.642 -1.449,-0.304 -0.191,0.131 -0.352,0.285 -0.493,0.455 0.282,0.094 0.509,0.372 0.647,0.614 0.193,0.338 0.258,0.723 0.279,1.103 0.002,0.058 -0.084,0.065 -0.105,0.018 -0.137,-0.278 -0.246,-0.571 -0.396,-0.843 -0.172,-0.304 -0.418,-0.388 -0.692,-0.529 -0.331,0.531 -0.537,1.158 -0.796,1.717 -0.049,0.104 -0.211,0.084 -0.205,-0.039 0.067,-1.219 0.612,-2.839 1.962,-3.211 z"
   id="path317" />

			</g>

			<path
   style="fill:#f4d9bf"
   d="m 266.242,286.865 c 0,0 16.639,21.463 28.531,22.319 0,0 -0.381,27.705 -29.604,24.999 -29.223,-2.711 -18.108,-31.843 -18.108,-31.843 0,0 13.794,-4.648 19.181,-15.475 z"
   id="path318" />

			<path
   style="fill:#f9cbc0"
   d="m 256.928,319.202 c -0.297,0.892 -2.355,0.987 -4.604,0.209 -2.247,-0.777 -3.828,-2.133 -3.535,-3.029 0.296,-0.897 2.355,-0.991 4.602,-0.215 2.248,0.779 3.83,2.136 3.537,3.035 z"
   id="path319" />

			<path
   style="fill:#f9cbc0"
   d="m 287.619,319.544 c 0.076,0.938 -1.78,1.833 -4.154,1.997 -2.371,0.163 -4.357,-0.467 -4.438,-1.404 -0.08,-0.943 1.777,-1.837 4.15,-1.999 2.374,-0.16 4.362,0.466 4.442,1.406 z"
   id="path320" />

			<path
   style="fill:#c39368"
   d="m 276.698,322.434 c 0.062,0.435 0.21,0.867 0.454,1.226 -2.906,2.588 -6,3.884 -9.908,4.075 -2.326,0.11 -4.92,-0.186 -7.111,-1.203 2.006,1.152 4.389,1.606 6.798,1.678 1.192,0.035 2.44,-0.03 3.681,-0.201 2.624,-0.607 5.045,-1.873 6.916,-3.92 0.287,0.232 0.643,0.383 0.983,0.295 -0.724,-0.484 -1.338,-1.217 -1.813,-1.95 z"
   id="path321" />

			<path
   style="fill:#c39368"
   d="m 264.096,320.916 c -0.043,-0.621 0.232,-1.112 0.84,-1.307 0.619,-0.199 1.225,0.001 1.805,0.298 -0.082,-0.061 -0.166,-0.124 -0.252,-0.185 0.593,-0.62 0.895,-1.77 0.31,-2.473 -0.063,-0.074 -0.162,0.002 -0.152,0.083 0.057,0.442 -0.051,0.886 -0.285,1.257 -0.147,0.239 -0.468,0.441 -0.605,0.696 -0.752,-0.362 -1.49,-0.389 -1.945,0.607 -0.641,1.406 0.525,2.866 1.77,3.529 -0.81,-0.663 -1.426,-1.638 -1.486,-2.505 z"
   id="path322" />

			<path
   style="fill:#ffbb50"
   d="m 277.822,305.177 c 1.539,-0.053 2.842,0.742 3.736,1.898 -0.623,-1.818 -2.086,-3.401 -4.025,-3.095 -2.158,0.343 -2.965,2.404 -3.434,4.347 0.76,-1.564 1.895,-3.09 3.723,-3.15 z"
   id="path323" />

			<path
   style="fill:#ffbb50"
   d="m 252.639,309.522 c 0.471,-2.086 1.693,-4.177 3.949,-4.524 1.832,-0.282 3.17,1.069 4.236,2.567 -0.57,-1.878 -2.018,-3.659 -4.051,-3.69 -2.563,-0.038 -4.029,3.593 -4.137,5.641 0.001,0 0.001,0.004 0.003,0.006 z"
   id="path324" />

			<g
   id="g326">
				<path
   style="fill:#3d1a0b"
   d="m 258.684,313.143 c -0.188,1.659 -0.846,2.961 -1.469,2.913 -0.621,-0.053 -0.979,-1.438 -0.785,-3.101 0.186,-1.659 0.846,-2.961 1.467,-2.911 0.622,0.054 0.975,1.439 0.787,3.099 z"
   id="path325" />

				<path
   style="fill:#ffffff"
   d="m 257.535,311.777 c -0.092,0.499 -0.316,0.876 -0.504,0.842 -0.184,-0.033 -0.262,-0.465 -0.168,-0.965 0.093,-0.496 0.314,-0.873 0.502,-0.838 0.188,0.032 0.262,0.463 0.17,0.961 z"
   id="path326" />

			</g>

			<g
   id="g328">
				<path
   style="fill:#3d1a0b"
   d="m 278.363,313.797 c -0.111,1.664 -0.707,2.995 -1.33,2.976 -0.627,-0.025 -1.043,-1.391 -0.931,-3.059 0.108,-1.665 0.708,-2.999 1.332,-2.977 0.625,0.024 1.041,1.392 0.929,3.06 z"
   id="path327" />

				<path
   style="fill:#ffffff"
   d="m 277.154,312.487 c -0.069,0.5 -0.279,0.886 -0.465,0.864 -0.188,-0.028 -0.283,-0.453 -0.215,-0.958 0.07,-0.499 0.277,-0.887 0.463,-0.862 0.19,0.026 0.288,0.453 0.217,0.956 z"
   id="path328" />

			</g>

		</g>

	</g>

</g>
  </g>
</svg>
